<?xml version="1.0" encoding="utf-8"?>
<svg height="874.4799575805664" id="temp" version="1.1" viewBox="0 0 1362.2399368286133 874.4799575805664" width="1362.2399368286133" xmlns="http://www.w3.org/2000/svg" xmlns:xlink="http://www.w3.org/1999/xlink"><defs/><g class="Model v1-1" id="Model"><g class="Floor"><g class="Floorplan Floor-1" id="Floor-1" transform="matrix(1,0,0,1,0,0)"><g class="Space Closet WalkIn" fill="#ffffff" id="b30606f7-5476-4165-9224-d84cd0bf4fa5" stroke="#ffffff" style="fill-opacity: 1; stroke-opacity: 1; stroke-width: 1;"><polygon points="379.00,92.71 526.45,92.71 526.45,279.65 378.97,279.65 378.97,54.91 379.00,54.91 "/><g class="Dimension" transform="matrix(1,0,0,1,378.9704,92.7147)"><g class="Visual" style="display: none;" transform="matrix(1,0,0,1,0,0)"><g class="DimensionMark" fill="#000000" id="mark1" stroke="none" style="fill-opacity: 1; pointer-events: visible;" transform="matrix(1,0,0,1,73.7403,0)"><polygon points="-5,5,0,0,5,5"/></g><g class="DimensionMark" fill="#000000" id="mark2" stroke="none" style="fill-opacity: 1; pointer-events: visible;" transform="matrix(1,0,0,1,147.4806,74.5653)"><polygon points="-5,-5,0,0,-5,5"/></g><g class="DimensionMark" fill="#000000" id="mark3" stroke="none" style="fill-opacity: 1; pointer-events: visible;" transform="matrix(1,0,0,1,73.7403,186.9393)"><polygon points="-5,-5,0,0,5,-5"/></g><g class="DimensionMark" fill="#000000" id="mark4" stroke="none" style="fill-opacity: 1; pointer-events: visible;" transform="matrix(1,0,0,1,0,74.5653)"><polygon points="5,5,0,0,5,-5"/></g></g><g class="SpaceDimensionsLabel" transform="matrix(1,0,0,1,40.7063,109.9034)"><g class="TextLabel NameLabel" id="NameLabel" style="display: block;"/><g class="TextLabel DimensionMeasureLabel" id="DimensionMeasureLabel" style="display: none;" transform="matrix(1,0,0,1,-116.3359,79.5938)"/></g></g></g><g class="Space Bath" fill="#ffffff" id="31a21313-1659-417c-ac77-b141edcac2b2" stroke="#ffffff" style="fill-opacity: 1; stroke-opacity: 1; stroke-width: 1;"><polygon points="796.77,711.14 703.24,711.14 703.24,771.23 616.90,771.23 616.90,470.71 796.77,470.71 "/><g class="Dimension" transform="matrix(1,0,0,1,616.8987,470.7084)"><g class="Visual" style="display: none;" transform="matrix(1,0,0,1,0,0)"><g class="DimensionMark" fill="#000000" id="mark1" stroke="none" style="fill-opacity: 1; pointer-events: visible;" transform="matrix(1,0,0,1,86.344,0)"><polygon points="-5,5,0,0,5,5"/></g><g class="DimensionMark" fill="#000000" id="mark2" stroke="none" style="fill-opacity: 1; pointer-events: visible;" transform="matrix(1,0,0,1,179.8699,150.259)"><polygon points="-5,-5,0,0,-5,5"/></g><g class="DimensionMark" fill="#000000" id="mark3" stroke="none" style="fill-opacity: 1; pointer-events: visible;" transform="matrix(1,0,0,1,86.344,300.5181)"><polygon points="-5,-5,0,0,5,-5"/></g><g class="DimensionMark" fill="#000000" id="mark4" stroke="none" style="fill-opacity: 1; pointer-events: visible;" transform="matrix(1,0,0,1,0,150.259)"><polygon points="5,5,0,0,5,-5"/></g></g><g class="SpaceDimensionsLabel" transform="matrix(1,0,0,1,47.7337,156.9843)"><g class="TextLabel NameLabel" id="NameLabel" style="display: block;"/><g class="TextLabel DimensionMeasureLabel" id="DimensionMeasureLabel" style="display: none;" transform="matrix(1,0,0,1,-112.1406,79.3594)"/></g></g></g><g class="Space Kitchen" fill="#ffffff" id="3545d0fe-d6db-4f2d-9878-60d60f3d8f2b" stroke="#ffffff" style="fill-opacity: 1; stroke-opacity: 1; stroke-width: 1;"><polygon points="404.29,706.98 339.06,706.98 339.06,771.23 37.18,771.23 37.18,473.74 404.29,473.74 "/><g class="Dimension" transform="matrix(1,0,0,1,37.1772,473.7397)"><g class="Visual" style="display: none;" transform="matrix(1,0,0,1,0,0)"><g class="DimensionMark" fill="#000000" id="mark1" stroke="none" style="fill-opacity: 1; pointer-events: visible;" transform="matrix(1,0,0,1,183.5584,0)"><polygon points="-5,5,0,0,5,5"/></g><g class="DimensionMark" fill="#000000" id="mark2" stroke="none" style="fill-opacity: 1; pointer-events: visible;" transform="matrix(1,0,0,1,367.1169,148.7434)"><polygon points="-5,-5,0,0,-5,5"/></g><g class="DimensionMark" fill="#000000" id="mark3" stroke="none" style="fill-opacity: 1; pointer-events: visible;" transform="matrix(1,0,0,1,183.5584,297.4869)"><polygon points="-5,-5,0,0,5,-5"/></g><g class="DimensionMark" fill="#000000" id="mark4" stroke="none" style="fill-opacity: 1; pointer-events: visible;" transform="matrix(1,0,0,1,0,148.7434)"><polygon points="5,5,0,0,5,-5"/></g></g><g class="SpaceDimensionsLabel" transform="matrix(1,0,0,1,186.0022,132.1866)"><g class="TextLabel NameLabel" id="NameLabel" style="display: block;"/><g class="TextLabel DimensionMeasureLabel" id="DimensionMeasureLabel" style="display: none;" transform="matrix(1,0,0,1,-128.5078,79.5938)"/></g></g></g><g class="Space Bedroom" fill="#ffffff" id="699c6278-fb4d-40ce-8585-194da16bb1b2" stroke="#ffffff" style="fill-opacity: 1; stroke-opacity: 1; stroke-width: 1;"><polygon points="365.97,460.74 37.18,460.74 37.18,54.91 365.97,54.91 "/><g class="Dimension" transform="matrix(1,0,0,1,37.1772,54.9059)"><g class="Visual" style="display: none;" transform="matrix(1,0,0,1,0,0)"><g class="DimensionMark" fill="#000000" id="mark1" stroke="none" style="fill-opacity: 1; pointer-events: visible;" transform="matrix(1,0,0,1,164.3966,0)"><polygon points="-5,5,0,0,5,5"/></g><g class="DimensionMark" fill="#000000" id="mark2" stroke="none" style="fill-opacity: 1; pointer-events: visible;" transform="matrix(1,0,0,1,328.7932,202.9169)"><polygon points="-5,-5,0,0,-5,5"/></g><g class="DimensionMark" fill="#000000" id="mark3" stroke="none" style="fill-opacity: 1; pointer-events: visible;" transform="matrix(1,0,0,1,164.3966,405.8337)"><polygon points="-5,-5,0,0,5,-5"/></g><g class="DimensionMark" fill="#000000" id="mark4" stroke="none" style="fill-opacity: 1; pointer-events: visible;" transform="matrix(1,0,0,1,0,202.9169)"><polygon points="5,5,0,0,5,-5"/></g></g><g class="SpaceDimensionsLabel" transform="matrix(1,0,0,1,145.2965,211.9481)"><g class="TextLabel NameLabel" id="NameLabel" style="display: block;"/><g class="TextLabel DimensionMeasureLabel" id="DimensionMeasureLabel" style="display: none;" transform="matrix(1,0,0,1,-113.7031,79.5938)"/></g></g></g><g class="Space Entry Lobby" fill="#ffffff" id="de1ea424-bee8-4390-9b21-dc4cdf131c76" stroke="#ffffff" style="fill-opacity: 1; stroke-opacity: 1; stroke-width: 1;"><polygon points="603.90,771.23 417.29,771.23 417.29,460.74 417.21,458.76 603.90,458.76 "/><g class="Dimension" transform="matrix(1,0,0,1,417.2941,458.7646)"><g class="Visual" style="display: none;" transform="matrix(1,0,0,1,0,0)"><g class="DimensionMark" fill="#000000" id="mark1" stroke="none" style="fill-opacity: 1; pointer-events: visible;" transform="matrix(1,0,0,1,93.2585,0)"><polygon points="-5,5,0,0,5,5"/></g><g class="DimensionMark" fill="#000000" id="mark2" stroke="none" style="fill-opacity: 1; pointer-events: visible;" transform="matrix(1,0,0,1,186.6046,156.231)"><polygon points="-5,-5,0,0,-5,5"/></g><g class="DimensionMark" fill="#000000" id="mark3" stroke="none" style="fill-opacity: 1; pointer-events: visible;" transform="matrix(1,0,0,1,93.2585,312.4619)"><polygon points="-5,-5,0,0,5,-5"/></g><g class="DimensionMark" fill="#000000" id="mark4" stroke="none" style="fill-opacity: 1; pointer-events: visible;" transform="matrix(1,0,0,1,0,156.231)"><polygon points="5,5,0,0,5,-5"/></g></g><g class="SpaceDimensionsLabel" transform="matrix(1,0,0,1,54.9294,176.5102)"><g class="TextLabel NameLabel" id="NameLabel" style="display: block;"/><g class="TextLabel DimensionMeasureLabel" id="DimensionMeasureLabel" style="display: none;" transform="matrix(1,0,0,1,-118.8516,78.6562)"/></g></g></g><g class="Space LivingRoom" fill="#ffffff" id="9a5dbd06-b9c1-4194-a68d-77e6ad83b5c5" stroke="#ffffff" style="fill-opacity: 1; stroke-opacity: 1; stroke-width: 1;"><polygon points="1173.74,457.71 603.90,457.71 603.90,458.76 538.30,458.76 538.30,292.65 539.45,292.65 539.00,54.00 1173.74,53.98 "/><g class="Dimension" transform="matrix(1,0,0,1,539.3825,53.9896)"><g class="Visual" style="display: none;" transform="matrix(1,0,0,1,0,0)"><g class="DimensionMark" fill="#000000" id="mark1" stroke="none" style="fill-opacity: 1; pointer-events: visible;" transform="matrix(1,0,0,1,316.6346,0)"><polygon points="-5,5,0,0,5,5"/></g><g class="DimensionMark" fill="#000000" id="mark2" stroke="none" style="fill-opacity: 1; pointer-events: visible;" transform="matrix(1,0,0,1,634.3557,202.3802)"><polygon points="-5,-5,0,0,-5,5"/></g><g class="DimensionMark" fill="#000000" id="mark3" stroke="none" style="fill-opacity: 1; pointer-events: visible;" transform="matrix(1,0,0,1,316.6346,403.7189)"><polygon points="-5,-5,0,0,5,-5"/></g><g class="DimensionMark" fill="#000000" id="mark4" stroke="none" style="fill-opacity: 1; pointer-events: visible;" transform="matrix(1,0,0,1,0,202.3802)"><polygon points="5,5,0,0,5,-5"/></g></g><g class="SpaceDimensionsLabel" transform="matrix(1,0,0,1,293.0651,202.5997)"><g class="TextLabel NameLabel" id="NameLabel" style="display: block;"/><g class="TextLabel DimensionMeasureLabel" id="DimensionMeasureLabel" style="display: none;" transform="matrix(1,0,0,1,-114.625,79.5938)"/></g></g></g><g class="Space Undefined" fill="#ffffff" id="fa971fda-5638-4cfb-a3d9-9c5cac83ff5b" stroke="#ffffff" style="fill-opacity: 1; stroke-opacity: 1; stroke-width: 1;"><polygon points="538.30,458.76 417.21,458.76 417.21,460.74 378.97,460.74 378.97,292.65 538.30,292.65 "/><g class="Dimension" transform="matrix(1,0,0,1,378.9704,292.654)"><g class="Visual" style="display: none;" transform="matrix(1,0,0,1,0,0)"><g class="DimensionMark" fill="#000000" id="mark1" stroke="none" style="fill-opacity: 1; pointer-events: visible;" transform="matrix(1,0,0,1,79.6628,0)"><polygon points="-5,5,0,0,5,5"/></g><g class="DimensionMark" fill="#000000" id="mark2" stroke="none" style="fill-opacity: 1; pointer-events: visible;" transform="matrix(1,0,0,1,159.3257,84.0428)"><polygon points="-5,-5,0,0,-5,5"/></g><g class="DimensionMark" fill="#000000" id="mark3" stroke="none" style="fill-opacity: 1; pointer-events: visible;" transform="matrix(1,0,0,1,79.6628,166.1106)"><polygon points="-5,-5,0,0,5,-5"/></g><g class="DimensionMark" fill="#000000" id="mark4" stroke="none" style="fill-opacity: 1; pointer-events: visible;" transform="matrix(1,0,0,1,0,84.0428)"><polygon points="5,5,0,0,5,-5"/></g></g><g class="SpaceDimensionsLabel" transform="matrix(1,0,0,1,-6.4212,89.5956)"><g class="TextLabel NameLabel" id="NameLabel" style="display: block;"/><g class="TextLabel DimensionMeasureLabel" id="DimensionMeasureLabel" style="display: none;" transform="matrix(1,0,0,1,-40.5313,79.5938)"/></g></g></g><g class="Space Outdoor Balcony" fill="#ffffff" id="fee81f49-cff0-4327-86df-096007b5d679" stroke="#000000" style="stroke-width: 1; fill-opacity: 1; stroke-opacity: 1;"><polygon points="1199.74,42.48 1199.74,456.84 1349.24,457.47 1349.24,40.98 1199.35,40.98 1199.35,52.54 1199.74,42.48 "/><g class="Dimension" transform="matrix(1,0,0,1,1199.7382,40.9791)"><g class="Visual" style="display: none;" transform="matrix(1,0,0,1,0,0)"><g class="DimensionMark" fill="#000000" id="mark1" stroke="none" style="fill-opacity: 1; pointer-events: visible;" transform="matrix(1,0,0,1,74.5608,0)"><polygon points="-5,5,0,0,5,5"/></g><g class="DimensionMark" fill="#000000" id="mark2" stroke="none" style="fill-opacity: 1; pointer-events: visible;" transform="matrix(1,0,0,1,149.506,208.2432)"><polygon points="-5,-5,0,0,-5,5"/></g><g class="DimensionMark" fill="#000000" id="mark3" stroke="none" style="fill-opacity: 1; pointer-events: visible;" transform="matrix(1,0,0,1,74.5608,416.1738)"><polygon points="-5,-5,0,0,5,-5"/></g><g class="DimensionMark" fill="#000000" id="mark4" stroke="none" style="fill-opacity: 1; pointer-events: visible;" transform="matrix(1,0,0,1,0,208.2432)"><polygon points="5,5,0,0,5,-5"/></g></g><g class="SpaceDimensionsLabel" transform="matrix(0,1,-1,0,72.0995,115.2956)"><g class="TextLabel NameLabel" id="NameLabel" style="display: block;"/><g class="TextLabel DimensionMeasureLabel" id="DimensionMeasureLabel" style="display: none;" transform="matrix(1,0,0,1,-63.7344,80.2187)"/></g></g></g><g class="Wall External" fill="#000000" id="Wall" stroke="#000000" style="fill-opacity: 1; stroke-opacity: 1; stroke-width: 1;"><polygon points="1199.74,27.96 1199.74,483.71 1173.74,457.71 1173.74,53.98 "/><g class="Door Swing Opposite" fill="#ffffff" id="Door" stroke="#000000" style="fill-opacity: 1; stroke-width: 1; stroke-opacity: 1;"><polygon points="1199.74,347.70 1199.74,422.14 1173.74,422.14 1173.74,347.70 "/><g class="Panel Left Negative" fill="none" id="Panel" style=""><g class="PanelArea" fill="none" id="PanelArea" stroke="none" style=""><polygon points="1199.74,347.70 1199.74,422.14 1173.74,422.14 1173.74,347.70 "/></g><path d="M1199.74,347.70 q74.44,0.00 74.44,74.44 l-74.44,0.00Z"/></g><g class="Panel Right Positive" fill="none" id="Panel" style=""><g class="PanelArea" fill="none" id="PanelArea" stroke="none" style=""><polygon points="1199.74,347.70 1199.74,422.14 1173.74,422.14 1173.74,347.70 "/></g><path d="M1173.74,347.70 q-74.44,0.00 -74.44,74.44 l74.44,0.00Z"/></g></g><g class="Window Regular" fill="#f0f0ff" id="Window" stroke="#000000" style="fill-opacity: 1; stroke-width: 1; stroke-opacity: 1;"><polygon points="1199.74,58.05 1199.74,329.47 1173.74,329.47 1173.74,58.05 "/><g class="Glass" id="Glass"><polygon points="1199.74,58.05 1199.74,329.47 1173.74,329.47 1173.74,58.05 "/></g><g class="Panel" id="Panel"><line x1="1186.739990234375" x2="1186.739990234375" y1="65.54999923706055" y2="321.9700012207031"/><line x1="1199.739990234375" x2="1173.739990234375" y1="65.54999923706055" y2="65.54999923706055"/><line x1="1199.739990234375" x2="1173.739990234375" y1="321.9700012207031" y2="321.9700012207031"/></g></g></g><g class="Wall External" fill="#000000" id="Wall" stroke="#000000" style="fill-opacity: 1; stroke-opacity: 1; stroke-width: 1;"><polygon points="1199.74,483.71 822.77,483.71 796.77,457.71 1173.74,457.71 "/></g><g class="Wall External" fill="#000000" id="Wall" stroke="#000000" style="fill-opacity: 1; stroke-opacity: 1; stroke-width: 1;"><polygon points="822.77,483.71 822.77,797.23 796.77,771.23 796.77,457.71 "/></g><g class="Wall External" fill="#000000" id="Wall" stroke="#000000" style="fill-opacity: 1; stroke-opacity: 1; stroke-width: 1;"><polygon points="822.77,797.23 11.18,797.23 37.18,771.23 796.77,771.23 "/><g class="Door Swing Opposite" fill="#ffffff" id="Door" stroke="#000000" style="fill-opacity: 1; stroke-width: 1; stroke-opacity: 1;"><polygon points="523.97,797.23 446.72,797.23 446.72,771.23 523.97,771.23 "/><g class="Panel Right Negative" fill="none" id="Panel" style=""><g class="PanelArea" fill="none" id="PanelArea" stroke="none" style=""><polygon points="523.97,797.23 446.72,797.23 446.72,771.23 523.97,771.23 "/></g><path d="M446.72,797.23 q0.00,77.25 77.25,77.25 l0.00,-77.25Z"/></g><g class="Panel Left Positive" fill="none" id="Panel" style=""><g class="PanelArea" fill="none" id="PanelArea" stroke="none" style=""><polygon points="523.97,797.23 446.72,797.23 446.72,771.23 523.97,771.23 "/></g><path d="M446.72,771.23 q0.00,-77.25 77.25,-77.25 l0.00,77.25Z"/></g></g></g><g class="Wall External" fill="#000000" id="Wall" stroke="#000000" style="fill-opacity: 1; stroke-opacity: 1; stroke-width: 1;"><polygon points="11.18,797.23 11.18,28.93 37.18,54.91 37.18,771.23 "/><g class="Window Regular" fill="#f0f0ff" id="Window" stroke="#000000" style="fill-opacity: 1; stroke-width: 1; stroke-opacity: 1;"><polygon points="11.18,458.42 11.18,275.55 37.18,275.55 37.18,458.42 "/><g class="Glass" id="Glass"><polygon points="11.18,458.42 11.18,275.55 37.18,275.55 37.18,458.42 "/></g><g class="Panel" id="Panel"><line x1="24.18000030517578" x2="24.18000030517578" y1="450.9200134277344" y2="283.04998779296875"/><line x1="11.180000305175781" x2="37.18000030517578" y1="450.9200134277344" y2="450.9200134277344"/><line x1="11.180000305175781" x2="37.18000030517578" y1="283.04998779296875" y2="283.04998779296875"/></g></g><g class="Window Regular" fill="#f0f0ff" id="Window" stroke="#000000" style="fill-opacity: 1; stroke-width: 1; stroke-opacity: 1;"><polygon points="11.18,744.22 11.18,551.83 37.18,551.83 37.18,744.22 "/><g class="Glass" id="Glass"><polygon points="11.18,744.22 11.18,551.83 37.18,551.83 37.18,744.22 "/></g><g class="Panel" id="Panel"><line x1="24.18000030517578" x2="24.18000030517578" y1="736.719970703125" y2="559.3300170898438"/><line x1="11.180000305175781" x2="37.18000030517578" y1="736.719970703125" y2="736.719970703125"/><line x1="11.180000305175781" x2="37.18000030517578" y1="559.3300170898438" y2="559.3300170898438"/></g></g></g><g class="Wall External" fill="#000000" id="Wall" stroke="#000000" style="fill-opacity: 1; stroke-opacity: 1; stroke-width: 1;"><polygon points="11.18,28.93 1199.74,27.96 1173.74,53.98 37.18,54.91 "/></g><g class="Wall" fill="#000000" id="Wall" stroke="#000000" style="fill-opacity: 1; stroke-opacity: 1; stroke-width: 1;"><polygon points="11.18,460.74 417.29,460.74 404.29,473.74 11.18,473.74 "/></g><g class="Wall" fill="#000000" id="Wall" stroke="#000000" style="fill-opacity: 1; stroke-opacity: 1; stroke-width: 1;"><polygon points="417.29,460.74 417.29,797.23 404.29,797.23 404.29,473.74 "/><g class="Door Swing Beside" fill="#ffffff" id="Door" stroke="#000000" style="fill-opacity: 1; stroke-width: 1; stroke-opacity: 1;"><polygon points="417.29,614.95 417.29,687.95 404.29,687.95 404.29,614.95 "/><g class="Panel Left Positive" fill="none" id="Panel" style=""><g class="PanelArea" fill="none" id="PanelArea" stroke="none" style=""><polygon points="417.29,614.95 417.29,687.95 404.29,687.95 404.29,614.95 "/></g><path d="M404.29,687.95 q-73.00,0.00 -73.00,-73.00 l73.00,0.00Z"/></g></g></g><g class="Wall" fill="#000000" id="Wall" stroke="#000000" style="fill-opacity: 1; stroke-opacity: 1; stroke-width: 1;"><polygon points="404.29,797.23 404.29,706.98 339.06,706.98 339.06,797.23 "/></g><g class="Wall" fill="#000000" id="Wall" stroke="#000000" style="fill-opacity: 1; stroke-opacity: 1; stroke-width: 1;"><polygon points="378.97,473.74 378.97,28.67 365.97,28.67 365.97,473.74 "/><g class="Door Swing Beside" fill="#ffffff" id="Door" stroke="#000000" style="fill-opacity: 1; stroke-width: 1; stroke-opacity: 1;"><polygon points="378.97,375.07 378.97,301.35 365.97,301.35 365.97,375.07 "/><g class="Panel Left Negative" fill="none" id="Panel" style=""><g class="PanelArea" fill="none" id="PanelArea" stroke="none" style=""><polygon points="378.97,375.07 378.97,301.35 365.97,301.35 365.97,375.07 "/></g><path d="M378.97,375.07 q73.72,0.00 73.72,-73.72 l-73.72,0.00Z"/></g></g></g><g class="Wall" fill="#000000" id="Wall" stroke="#000000" style="fill-opacity: 1; stroke-opacity: 1; stroke-width: 1;"><polygon points="365.97,292.65 539.45,292.65 526.45,279.65 365.97,279.65 "/><g class="Door Swing Beside" fill="#ffffff" id="Door" stroke="#000000" style="fill-opacity: 1; stroke-width: 1; stroke-opacity: 1;"><polygon points="414.02,292.65 470.48,292.65 470.48,279.65 414.02,279.65 "/><g class="Panel Right Negative" fill="none" id="Panel" style=""><g class="PanelArea" fill="none" id="PanelArea" stroke="none" style=""><polygon points="414.02,292.65 470.48,292.65 470.48,279.65 414.02,279.65 "/></g><path d="M470.48,292.65 q0.00,56.46 -56.46,56.46 l0.00,-56.46Z"/></g></g></g><g class="Wall" fill="#000000" id="Wall" stroke="#000000" style="fill-opacity: 1; stroke-opacity: 1; stroke-width: 1;"><polygon points="539.45,292.65 539.45,28.50 526.45,28.50 526.45,279.65 "/></g><g class="Wall" fill="#000000" id="Wall" stroke="#000000" style="fill-opacity: 1; stroke-opacity: 1; stroke-width: 1;"><polygon points="526.45,54.51 378.97,54.63 379.00,92.71 526.48,92.59 "/></g><g class="Wall" fill="#000000" id="Wall" stroke="#000000" style="fill-opacity: 1; stroke-opacity: 1; stroke-width: 1;"><polygon points="822.77,457.71 603.90,457.71 616.90,470.71 822.77,470.71 "/></g><g class="Wall" fill="#000000" id="Wall" stroke="#000000" style="fill-opacity: 1; stroke-opacity: 1; stroke-width: 1;"><polygon points="603.90,457.71 603.90,797.23 616.90,797.23 616.90,470.71 "/><g class="Door Swing Beside" fill="#ffffff" id="Door" stroke="#000000" style="fill-opacity: 1; stroke-width: 1; stroke-opacity: 1;"><polygon points="603.90,643.78 603.90,696.68 616.90,696.68 616.90,643.78 "/><g class="Panel Left Negative" fill="none" id="Panel" style=""><g class="PanelArea" fill="none" id="PanelArea" stroke="none" style=""><polygon points="603.90,643.78 603.90,696.68 616.90,696.68 616.90,643.78 "/></g><path d="M603.90,643.78 q-52.90,0.00 -52.90,52.90 l52.90,0.00Z"/></g></g></g><g class="Wall" fill="#000000" id="Wall" stroke="#000000" style="fill-opacity: 1; stroke-opacity: 1; stroke-width: 1;"><polygon points="796.77,771.23 796.77,711.14 703.24,711.14 703.24,771.23 "/></g><g class="Wall" fill="#000000" id="Wall" stroke="#000000" style="fill-opacity: 1; stroke-opacity: 1; stroke-width: 1;"><polygon points="1173.74,27.98 1362.24,27.98 1362.24,40.98 1173.74,40.98 "/></g><g class="Wall" fill="#000000" id="Wall" stroke="#000000" style="fill-opacity: 1; stroke-opacity: 1; stroke-width: 1;"><polygon points="1362.24,483.71 1173.74,483.71 1173.74,457.47 1362.24,457.47 "/></g><g class="Railing" fill="#ffffff" id="Railing" stroke="#000000" style="fill-opacity: 1; stroke-opacity: 1; stroke-width: 1;"><polygon points="1362.24,40.98 1362.24,457.47 1349.24,457.47 1349.24,40.98 "/></g><g class="FixedFurnitureSet" id="FixedFurnitureSet" style="" transform="matrix(0,1,-1,0,404.1691,473.7397)"><g class="FixedFurniture Closet" fill="#ffffff" stroke="#000000" style="fill-opacity: 1; stroke-opacity: 1;" transform="matrix(1,0,0,1,0,0)">
<g class="BoundaryPolygon">
<polygon points="0.00,0.00 66.81,0.00 66.81,60.00 0.00,60.00 "/>
</g>
<g class="Direction" fill-opacity="0.9" style="display: none;">
<polygon fill="#444444" points="35.08,54.70 35.08,44.08 32.07,44.08 32.07,54.70 28.27,54.70 33.57,60.00 38.88,54.70 35.08,54.70 "/>
</g>
<g class="Name" fill-opacity="0.9" style="display: none;">

</g>
<desc>Width:60 Height:200 Depth:60 Elevation:0</desc>
</g><g class="FixedFurniture Closet" fill="#ffffff" stroke="#000000" style="fill-opacity: 1; stroke-opacity: 1;" transform="matrix(1,0,0,1,66.8063,0)">
<g class="BoundaryPolygon">
<polygon points="0.00,0.00 66.81,0.00 66.81,60.00 0.00,60.00 "/>
</g>
<g class="Direction" fill-opacity="0.9" style="display: none;">
<polygon fill="#444444" points="35.08,54.70 35.08,44.08 32.07,44.08 32.07,54.70 28.27,54.70 33.57,60.00 38.88,54.70 35.08,54.70 "/>
</g>
<g class="Name" fill-opacity="0.9" style="display: none;">

</g>
<desc>Width:60 Height:200 Depth:60 Elevation:0</desc>
</g></g><g class="FixedFurnitureSet" id="FixedFurnitureSet" style="" transform="matrix(0,1,-1,0,796.5967,570.2733)"><g class="FixedFurniture BaseCabinet" fill="#ffffff" stroke="#000000" style="fill-opacity: 1; stroke-opacity: 1;" transform="matrix(1,0,0,1,0,0)">
<g class="BoundaryPolygon">
<polygon points="0.00,0.00 60.00,0.00 60.00,42.55 0.00,42.55 "/>
</g>
<g class="Direction" fill-opacity="0.9" style="display: none;">
<polygon fill="#444444" points="32.01,39.15 32.01,28.53 29.00,28.53 29.00,39.15 25.20,39.15 30.50,43.95 35.80,39.15 32.01,39.15 "/>
</g>
<g class="Name" fill-opacity="0.9" style="display: none;">

</g>
<desc>Width:60 Height:5 Depth:60 Elevation:105</desc>
</g><g class="FixedFurniture Sink" fill="#ffffff" stroke="#000000" style="fill-opacity: 1; stroke-opacity: 1;" transform="matrix(1,0,0,1,0,0)">
<g class="BoundaryPolygon" fill="none" stroke="none">
<polygon points="0.00,0.00 60.00,0.00 60.00,42.55 0.00,42.55 "/>
</g>
<g class="InnerPolygon">
<polygon points="5.00,9.70 55.00,9.70 55.00,38.79 5.00,38.79 "/>
</g>
<g class="OuterDrain" stroke-width="0.8">
<circle cx="30" cy="22.835851625132054" r="3.5"/>
</g>
<g class="InnerDrain" stroke-width="0.8">
<circle cx="30" cy="22.835851625132054" r="2"/>
</g>
<g class="Faucet">
<polygon points="27.00,3.55 33.00,3.55 33.00,17.55 27.00,17.55 "/>
</g>
<g class="Direction" fill-opacity="0.9" style="display: none;">
<polygon fill="#444444" points="32.01,39.15 32.01,28.53 29.00,28.53 29.00,39.15 25.20,39.15 30.50,43.95 35.80,39.15 32.01,39.15 "/>
</g>
<g class="Name" fill-opacity="0.9" style="display: none;">

</g>
<desc>Width:60 Height:90 Depth:60 Elevation:0</desc>
</g></g><g class="FixedFurniture Closet" fill="#ffffff" stroke="#000000" style="fill-opacity: 1; stroke-opacity: 1;" transform="matrix(0,-1,1,0,37.1772,548.3196)">
<g class="BoundaryPolygon">
<polygon points="0.00,0.00 74.58,0.00 74.58,75.97 0.00,75.97 "/>
</g>
<g class="Direction" fill-opacity="0.9" style="display: none;">
<polygon fill="#444444" points="39.16,69.25 39.16,58.64 36.16,58.64 36.16,69.25 32.35,69.25 37.66,74.55 42.96,69.25 39.16,69.25 "/>
</g>
<g class="Name" fill-opacity="0.9" style="display: none;">

</g>
<desc>Width:60 Height:200 Depth:60 Elevation:0</desc>
</g><g class="FixedFurniture BaseCabinet" fill="#ffffff" stroke="#000000" style="fill-opacity: 1; stroke-opacity: 1;" transform="matrix(1,0,0,1,113.3483,547.9175)"><desc>Width:60 Height:90 Depth:60 Elevation:0</desc><g class="BoundaryPolygon"><polygon points="0.00,0.00 0.00,158.57 225.91,158.66 225.91,223.04 -75.97,222.91 -75.97,0.00 "/></g></g><g class="FixedFurniture ElectricalAppliance IntegratedStove" fill="#ffffff" stroke="#000000" style="fill-opacity: 1; stroke-opacity: 1;" transform="matrix(-1,0,0,-1,278.052,773.024)">
<g class="BoundaryPolygon" fill="none" stroke="none">
<polygon points="0.00,0.00 71.93,0.00 71.93,68.59 0.00,68.59 "/>
</g>
<g class="InnerPolygon">
<polygon points="2.00,2.00 69.54,2.00 69.54,66.30 2.00,66.30 "/>
</g>
<g class="OuterCircle">
<circle cx="19.18259375049685" cy="18.289634150561373" r="8"/>
<circle cx="52.75213281386633" cy="18.289634150561373" r="8"/>
<circle cx="19.18259375049685" cy="50.29649391404378" r="8"/>
<circle cx="52.75213281386633" cy="50.29649391404378" r="8"/>
</g>
<g class="Direction" fill-opacity="0.9" style="display: none;">
<polygon fill="#444444" points="38.38,63.10 38.38,52.48 35.37,52.48 35.37,63.10 31.56,63.10 36.87,67.90 42.17,63.10 38.38,63.10 "/>
</g>
<g class="Name" fill-opacity="0.9" style="display: none;">

</g>
<desc>Width:60 Height:90 Depth:30 Elevation:0</desc>
</g><g class="FixedFurniture Sink" fill="#ffffff" stroke="#000000" style="fill-opacity: 1; stroke-opacity: 1;" transform="matrix(-1,0,0,-1,187.6592,769.3897)">
<g class="BoundaryPolygon" fill="none" stroke="none">
<polygon points="0.00,0.00 79.58,0.00 79.58,60.55 0.00,60.55 "/>
</g>
<g class="InnerPolygon">
<polygon points="6.63,9.70 72.95,9.70 72.95,55.20 6.63,55.20 "/>
</g>
<g class="OuterDrain" stroke-width="0.8">
<circle cx="39.791630238775824" cy="32.495392527295145" r="3.5"/>
</g>
<g class="InnerDrain" stroke-width="0.8">
<circle cx="39.791630238775824" cy="32.495392527295145" r="2"/>
</g>
<g class="Faucet">
<polygon points="35.81,5.05 41.81,5.05 41.81,19.05 35.81,19.05 "/>
</g>
<g class="Direction" fill-opacity="0.9" style="display: none;">
<polygon fill="#444444" points="42.46,55.70 42.46,45.09 39.45,45.09 39.45,55.70 35.64,55.70 40.95,60.51 46.25,55.70 42.46,55.70 "/>
</g>
<g class="Name" fill-opacity="0.9" style="display: none;">

</g>
<desc>Width:60 Height:90 Depth:60 Elevation:0</desc>
</g><g class="FixedFurniture Closet" fill="#ffffff" stroke="#000000" style="fill-opacity: 1; stroke-opacity: 1;" transform="matrix(0,1,-1,0,603.7736,458.7646)">
<g class="BoundaryPolygon">
<polygon points="0.00,0.00 75.09,0.00 75.09,60.00 0.00,60.00 "/>
</g>
<g class="Direction" fill-opacity="0.9" style="display: none;">
<polygon fill="#444444" points="39.43,54.70 39.43,44.08 36.43,44.08 36.43,54.70 32.62,54.70 37.93,60.00 43.23,54.70 39.43,54.70 "/>
</g>
<g class="Name" fill-opacity="0.9" style="display: none;">

</g>
<desc>Width:60 Height:200 Depth:60 Elevation:0</desc>
</g><g class="FixedFurniture CoatCloset" fill="#ffffff" stroke="#000000" style="fill-opacity: 1; stroke-opacity: 1;" transform="matrix(0,1,-1,0,603.7737,533.8568)">
<g class="BoundaryPolygon">
<polygon points="0.00,0.00 97.51,0.00 97.51,60.00 0.00,60.00 "/>
</g>

<g class="Direction" fill-opacity="0.9" style="display: none;">
<polygon fill="#444444" points="49.98,54.52 49.98,43.90 46.97,43.90 46.97,54.52 43.17,54.52 48.47,59.82 53.78,54.52 49.98,54.52 "/>
</g>
<g class="Name" fill-opacity="0.9" style="display: none;">

</g>
<desc>Width:120 Height:200 Depth:60 Elevation:0</desc>
</g><g class="FixedFurniture Closet" fill="#ffffff" stroke="#000000" style="fill-opacity: 1; stroke-opacity: 1;" transform="matrix(0,1,-1,0,603.7268,705.9465)">
<g class="BoundaryPolygon">
<polygon points="0.00,0.00 65.28,0.00 65.28,62.02 0.00,62.02 "/>
</g>
<g class="Direction" fill-opacity="0.9" style="display: none;">
<polygon fill="#444444" points="34.28,56.54 34.28,45.93 31.27,45.93 31.27,56.54 27.47,56.54 32.77,61.84 38.07,56.54 34.28,56.54 "/>
</g>
<g class="Name" fill-opacity="0.9" style="display: none;">

</g>
<desc>Width:60 Height:200 Depth:60 Elevation:0</desc>
</g><g class="FixedFurniture Closet" fill="#ffffff" stroke="#000000" style="fill-opacity: 1; stroke-opacity: 1;" transform="matrix(-1,0,0,-1,703.2426,771.0547)">
<g class="BoundaryPolygon">
<polygon points="0.00,0.00 86.39,0.00 86.39,60.00 0.00,60.00 "/>
</g>
<g class="Direction" fill-opacity="0.9" style="display: none;">
<polygon fill="#444444" points="45.37,54.70 45.37,44.08 42.36,44.08 42.36,54.70 38.55,54.70 43.86,60.00 49.16,54.70 45.37,54.70 "/>
</g>
<g class="Name" fill-opacity="0.9" style="display: none;">

</g>
<desc>Width:60 Height:200 Depth:60 Elevation:0</desc>
</g><g class="FixedFurniture Toilet" fill="#ffffff" stroke="#000000" style="fill-opacity: 1; stroke-opacity: 1;" transform="matrix(0,1,-1,0,796.7686,652.5996)">
<g class="BoundaryPolygon" fill="none" stroke="none">
<polygon points="0,0 41,0 41,71 0,71"/>
</g>
<g class="InnerPolygon">
<rect height="17.98" width="39.989" x="0.502" y="0.5"/>
<path d="M40.491,44.237S41.619,70.5,20.907,70.5C-.523,70.5.6,44.237.6,44.237L.5,18.48H40.491Z"/>
<rect height="3.03" width="6.357" x="17.318" y="7.975"/>
</g>
<desc>Width:41 Height:85 Depth:71 Elevation:0</desc>
</g><g class="FixedFurniture Shower" fill="#ffffff" stroke="#000000" style="fill-opacity: 1; stroke-opacity: 1;" transform="matrix(0,1,-1,0,796.7686,490.4817)">
<g class="BoundaryPolygon" fill="none" stroke="none">
<polygon points="0,0 32,0 32,19 0,19"/>
</g>
<g class="InnerPolygon">
<rect height="6.1" width="11.2" x="3.7" y="0.5"/>
<rect height="6.1" width="11.2" x="17.6" y="0.5"/>
<rect height="6.1" width="3.4" x="28.7" y="0.5"/>
<rect height="6.1" width="3.2" x="0.5" y="0.5"/>
<path d="M14.9,8.5c0,1.5-0.4,3.3-1.6,5    c-0.4,0.6-1,1.1-1.1,1.7c-0.2,1.1,0.3,2.8,2.5,3.2c0.5,0.1,1.3,0.1,1.6,0.1h-0.1c0.3,0,1.1,0,1.6-0.1c2.2-0.4,2.7-2.1,2.5-3.2    c-0.1-0.6-0.7-1.1-1.1-1.7c-1.2-1.7-1.6-3.5-1.6-5"/>
<path d="M12.2,15.3c0.1,0.2,1.6,1.9,4.2,1.9 c2.4-0.1,3.7-1.7,3.9-1.9"/>
<path d="M14.9,0.5h2.7v8c-0.9,0-1.8,0-2.7,0l0,0 C14.9,5.9,14.9,3.2,14.9,0.5z"/>
</g>
<g class="Indicator">
<path d="M3.7,3.6C5,3.1,5.2,3,5.2,3 c0,1.1,0,0,0,1.1C5.2,4.1,5.1,4.1,3.7,3.6"/>
<path d="M28.7,3.6 C27.4,3.1,27.2,3,27.2,3c0,1.1,0,0,0,1.1C27.2,4.1,27.3,4.1,28.7,3.6"/>
</g>
<desc>Width:32 Height:97 Depth:19 Elevation:135</desc>
</g><g class="FixedFurniture Closet" fill="#ffffff" stroke="#000000" style="fill-opacity: 1; stroke-opacity: 1;" transform="matrix(0,1,-1,0,526.4505,92.6146)">
<g class="BoundaryPolygon">
<polygon points="0.00,0.00 186.92,0.00 186.92,48.43 0.00,48.43 "/>
</g>
<g class="Direction" fill-opacity="0.9" style="display: none;">
<polygon fill="#444444" points="98.16,44.15 98.16,33.54 95.15,33.54 95.15,44.15 91.35,44.15 96.65,49.45 101.95,44.15 98.16,44.15 "/>
</g>
<g class="Name" fill-opacity="0.9" style="display: none;">

</g>
<desc>Width:60 Height:200 Depth:60 Elevation:0</desc>
</g><g class="FixedFurniture Closet" fill="#ffffff" stroke="#000000" style="fill-opacity: 1; stroke-opacity: 1;" transform="matrix(0,-1,1,0,378.9696,279.6234)">
<g class="BoundaryPolygon">
<polygon points="0.00,0.00 186.92,0.00 186.92,24.48 0.00,24.48 "/>
</g>
<g class="Direction" fill-opacity="0.9" style="display: none;">
<polygon fill="#444444" points="98.16,22.31 98.16,11.70 95.15,11.70 95.15,22.31 91.35,22.31 96.65,27.61 101.95,22.31 98.16,22.31 "/>
</g>
<g class="Name" fill-opacity="0.9" style="display: none;">

</g>
<desc>Width:60 Height:200 Depth:60 Elevation:0</desc>
</g><g class="SelectionControls" fill="#0000ff" stroke="#0000ff" style="display: none;"><g class="rotateControl" style="display: none;"><circle cx="493.06725000000006" cy="572.1341749999999" r="5" style="stroke : none; fill-opacity: 0.5; cursor:crosshair"/></g><g class="ResizeNControl" style="display: none;"><circle cx="0" cy="0" r="5" style="stroke : none; fill-opacity: 0.5"/></g><g class="ResizeNEControl" style="display: none;"><circle cx="0" cy="0" r="5" style="stroke : none; fill-opacity: 0.5"/></g><g class="ResizeEControl" style="display: none;"><circle cx="0" cy="0" r="5" style="stroke : none; fill-opacity: 0.5"/></g><g class="ResizeSEControl" style="display: none;"><circle cx="0" cy="0" r="5" style="stroke : none; fill-opacity: 0.5"/></g><g class="ResizeSControl" style="display: none;"><circle cx="0" cy="0" r="5" style="stroke : none; fill-opacity: 0.5"/></g><g class="ResizeSWControl" style="display: none;"><circle cx="0" cy="0" r="5" style="stroke : none; fill-opacity: 0.5"/></g><g class="ResizeWControl" style="display: none;"><circle cx="0" cy="0" r="5" style="stroke : none; fill-opacity: 0.5"/></g><g class="ResizeNWControl" style="display: none;"><circle cx="0" cy="0" r="5" style="stroke : none; fill-opacity: 0.5"/></g><g class="removeControl" style="display: none;"><polygon points="472.22,602.13 513.91,602.13 513.91,641.90 472.22,641.90 " style="stroke : none; fill-opacity: 0.1"/></g><g class="copyPasteControl" style="display: none;"><polygon style="stroke : none; fill-opacity: 0.1"/></g><g class="translateControl" style="display: none;"><polygon points="472.22,602.13 513.91,602.13 513.91,641.90 472.22,641.90 " style="stroke : none; fill-opacity: 0.1; cursor:move"/></g></g><g class="SelectionControls" fill="#0000ff" stroke="#0000ff" style="display: none;"><polygon fill="none" points="417.29,458.76 603.90,458.76 603.90,771.23 417.29,771.23 " stroke="#0000ff" style=""/><g class="rotateControl" style="display: none;"><circle cx="510.5963994995118" cy="428.7646" r="5" style="stroke : none; fill-opacity: 0.5; cursor:crosshair"/></g><g class="ResizeNControl" style="display: none;"><circle cx="0" cy="0" r="5" style="stroke : none; fill-opacity: 0.5"/></g><g class="ResizeNEControl" style="display: none;"><circle cx="0" cy="0" r="5" style="stroke : none; fill-opacity: 0.5"/></g><g class="ResizeEControl" style="display: none;"><circle cx="0" cy="0" r="5" style="stroke : none; fill-opacity: 0.5"/></g><g class="ResizeSEControl" style="display: none;"><circle cx="0" cy="0" r="5" style="stroke : none; fill-opacity: 0.5"/></g><g class="ResizeSControl" style="display: none;"><circle cx="0" cy="0" r="5" style="stroke : none; fill-opacity: 0.5"/></g><g class="ResizeSWControl" style="display: none;"><circle cx="0" cy="0" r="5" style="stroke : none; fill-opacity: 0.5"/></g><g class="ResizeWControl" style="display: none;"><circle cx="0" cy="0" r="5" style="stroke : none; fill-opacity: 0.5"/></g><g class="ResizeNWControl" style="display: none;"><circle cx="0" cy="0" r="5" style="stroke : none; fill-opacity: 0.5"/></g><g class="removeControl" style="display: none;"><polygon style="stroke : none; fill-opacity: 0.1"/></g><g class="copyPasteControl" style="display: none;"><polygon style="stroke : none; fill-opacity: 0.1"/></g><g class="translateControl" style="display: none;"><polygon style="stroke : none; fill-opacity: 0.1; cursor:move"/></g></g></g></g></g></svg>