<?xml version="1.0" encoding="utf-8"?>
<svg height="978.2200298309326" id="temp" version="1.1" viewBox="0 0 1160.0199851989746 978.2200298309326" width="1160.0199851989746" xmlns="http://www.w3.org/2000/svg" xmlns:xlink="http://www.w3.org/1999/xlink"><desc>Powered by CubiCasa</desc><defs/><g class="Model v1-1" id="Model"><g class="Floor"><g class="Floorplan Floor-1" id="Floor-1" transform="matrix(1,0,0,1,0,0)"><g class="Space Outdoor Balcony" fill="#ffffff" id="e11fc2af-a4dd-4a8d-b037-4501f75b9ed3" stroke="#000000" style="stroke-width: 1; fill-opacity: 1; stroke-opacity: 1;"><polygon points="404.23,178.75 404.23,37.44 50.66,37.44 50.66,178.62 404.23,178.75 404.23,178.75 "/><g class="Dimension" transform="matrix(1,0,0,1,50.6592,37.4353)"><g class="Visual" style="display: none;" transform="matrix(1,0,0,1,0,0)"><g class="DimensionMark" fill="#000000" id="mark1" stroke="none" style="fill-opacity: 1; pointer-events: visible;" transform="matrix(1,0,0,1,176.7861,0)"><polygon points="-5,5,0,0,5,5"/></g><g class="DimensionMark" fill="#000000" id="mark2" stroke="none" style="fill-opacity: 1; pointer-events: visible;" transform="matrix(1,0,0,1,353.5719,70.6556)"><polygon points="-5,-5,0,0,-5,5"/></g><g class="DimensionMark" fill="#000000" id="mark3" stroke="none" style="fill-opacity: 1; pointer-events: visible;" transform="matrix(1,0,0,1,176.7861,141.246)"><polygon points="-5,-5,0,0,5,-5"/></g><g class="DimensionMark" fill="#000000" id="mark4" stroke="none" style="fill-opacity: 1; pointer-events: visible;" transform="matrix(1,0,0,1,0,70.6556)"><polygon points="5,5,0,0,5,-5"/></g></g><g class="SpaceDimensionsLabel" transform="matrix(1,0,0,1,104.4032,66.1202)"><g class="TextLabel NameLabel" id="NameLabel" style="display: block;"/><g class="TextLabel DimensionMeasureLabel" id="DimensionMeasureLabel" style="display: none;" transform="matrix(1,0,0,1,-64.1328,79.5938)"/></g></g></g><g class="Space LivingRoom" fill="#ffffff" id="e1032e52-26d1-4957-82b7-adc200d4eec8" stroke="#ffffff" style="fill-opacity: 1; stroke-opacity: 1; stroke-width: 1;"><polygon points="1139.02,200.00 1139.02,878.09 692.90,878.09 692.00,200.00 "/><g class="Dimension" transform="matrix(1,0,0,1,692.4519,200.001)"><g class="Visual" style="display: none;" transform="matrix(1,0,0,1,0,0)"><g class="DimensionMark" fill="#000000" id="mark1" stroke="none" style="fill-opacity: 1; pointer-events: visible;" transform="matrix(1,0,0,1,223.0577,0)"><polygon points="-5,5,0,0,5,5"/></g><g class="DimensionMark" fill="#000000" id="mark2" stroke="none" style="fill-opacity: 1; pointer-events: visible;" transform="matrix(1,0,0,1,446.5672,339.0446)"><polygon points="-5,-5,0,0,-5,5"/></g><g class="DimensionMark" fill="#000000" id="mark3" stroke="none" style="fill-opacity: 1; pointer-events: visible;" transform="matrix(1,0,0,1,223.0577,678.0913)"><polygon points="-5,-5,0,0,5,-5"/></g><g class="DimensionMark" fill="#000000" id="mark4" stroke="none" style="fill-opacity: 1; pointer-events: visible;" transform="matrix(1,0,0,1,0,339.0446)"><polygon points="5,5,0,0,5,-5"/></g></g><g class="SpaceDimensionsLabel" style="display: block;" transform="matrix(1,0,0,1,217.8578,341.6338)"><g class="TextLabel NameLabel" id="NameLabel" style="display: block;"/><g class="TextLabel DimensionMeasureLabel" id="DimensionMeasureLabel" style="display: none;" transform="matrix(1,0,0,1,-114.6016,79.3594)"/></g></g></g><g class="Space Room" fill="#ffffff" id="bd6fecd5-2569-4e79-92f9-6ef79ab9e1a7" stroke="#ffffff" style="fill-opacity: 1; stroke-opacity: 1; stroke-width: 1;"><polygon points="404.00,200.00 404.05,615.18 404.05,710.95 395.71,710.95 395.71,878.09 50.66,878.09 50.66,199.62 "/><g class="Dimension" transform="matrix(1,0,0,1,50.6592,199.8118)"><g class="Visual" style="display: none;" transform="matrix(1,0,0,1,0,0)"><g class="DimensionMark" fill="#0000ff" id="mark1" stroke="none" style="fill-opacity: 1; pointer-events: visible;" transform="matrix(2,0,0,2,176.6965,0)"><polygon points="-5,5,0,0,5,5"/></g><g class="DimensionMark" fill="#0000ff" id="mark2" stroke="none" style="fill-opacity: 1; pointer-events: visible;" transform="matrix(2,0,0,2,353.3837,339.0461)"><polygon points="-5,-5,0,0,-5,5"/></g><g class="DimensionMark" fill="#0000ff" id="mark3" stroke="none" style="fill-opacity: 1; pointer-events: visible;" transform="matrix(2,0,0,2,176.6965,678.2805)"><polygon points="-5,-5,0,0,5,-5"/></g><g class="DimensionMark" fill="#0000ff" id="mark4" stroke="none" style="fill-opacity: 1; pointer-events: visible;" transform="matrix(2,0,0,2,0,339.0461)"><polygon points="5,5,0,0,5,-5"/></g></g><g class="SpaceDimensionsLabel" style="display: block;" transform="matrix(1,0,0,1,165.7889,322.5453)"><g class="TextLabel NameLabel" id="NameLabel" style="display: block;"/><g class="TextLabel DimensionMeasureLabel" id="DimensionMeasureLabel" style="display: none;" transform="matrix(1,0,0,1,-127.6094,79.5938)"/></g></g></g><g class="Space Kitchen" fill="#ffffff" id="c60e3967-94eb-4869-a8d3-1ea17738268a" stroke="#ffffff" style="fill-opacity: 1; stroke-opacity: 1; stroke-width: 1;"><polygon points="670.84,277.66 691.84,277.66 691.84,200.00 692.00,200.00 691.90,421.47 691.84,421.47 691.84,358.91 670.84,358.91 670.84,401.04 425.06,401.04 425.06,200.00 670.84,200.00 "/><g class="Dimension" transform="matrix(1,0,0,1,425.0612,200)"><g class="Visual" style="display: none;" transform="matrix(1,0,0,1,0,0)"><g class="DimensionMark" fill="#000000" id="mark1" stroke="none" style="fill-opacity: 1; pointer-events: visible;" transform="matrix(1,0,0,1,133.4694,0)"><polygon points="-5,5,0,0,5,5"/></g><g class="DimensionMark" fill="#000000" id="mark2" stroke="none" style="fill-opacity: 1; pointer-events: visible;" transform="matrix(1,0,0,1,266.8907,110.7367)"><polygon points="-5,-5,0,0,-5,5"/></g><g class="DimensionMark" fill="#000000" id="mark3" stroke="none" style="fill-opacity: 1; pointer-events: visible;" transform="matrix(1,0,0,1,133.4694,201.0425)"><polygon points="-5,-5,0,0,5,-5"/></g><g class="DimensionMark" fill="#000000" id="mark4" stroke="none" style="fill-opacity: 1; pointer-events: visible;" transform="matrix(1,0,0,1,0,110.7367)"><polygon points="5,5,0,0,5,-5"/></g></g><g class="SpaceDimensionsLabel" transform="matrix(1,0,0,1,115.5814,116.2728)"><g class="TextLabel NameLabel" id="NameLabel" style="display: block;"/><g class="TextLabel DimensionMeasureLabel" id="DimensionMeasureLabel" style="display: none;" transform="matrix(1,0,0,1,-128.4141,79.5938)"/></g></g></g><g class="Space Entry Lobby" fill="#ffffff" id="5ab3f35e-30ec-490d-9c93-ad5380443cd0" stroke="#ffffff" style="fill-opacity: 1; stroke-opacity: 1; stroke-width: 1;"><polygon points="691.90,710.05 671.84,710.05 671.84,878.09 416.71,878.09 416.71,710.95 404.05,710.95 404.05,615.18 691.90,615.18 "/><g class="Dimension" transform="matrix(1,0,0,1,416.7117,615.1775)"><g class="Visual" style="display: none;" transform="matrix(1,0,0,1,0,0)"><g class="DimensionMark" fill="#000000" id="mark1" stroke="none" style="fill-opacity: 1; pointer-events: visible;" transform="matrix(1,0,0,1,131.2665,0)"><polygon points="-5,5,0,0,5,5"/></g><g class="DimensionMark" fill="#000000" id="mark2" stroke="none" style="fill-opacity: 1; pointer-events: visible;" transform="matrix(1,0,0,1,255.1277,131.4574)"><polygon points="-5,-5,0,0,-5,5"/></g><g class="DimensionMark" fill="#000000" id="mark3" stroke="none" style="fill-opacity: 1; pointer-events: visible;" transform="matrix(1,0,0,1,131.2665,262.9147)"><polygon points="-5,-5,0,0,5,-5"/></g><g class="DimensionMark" fill="#000000" id="mark4" stroke="none" style="fill-opacity: 1; pointer-events: visible;" transform="matrix(1,0,0,1,0,131.4574)"><polygon points="5,5,0,0,5,-5"/></g></g><g class="SpaceDimensionsLabel" transform="matrix(1,0,0,1,115.3634,130.3176)"><g class="TextLabel NameLabel" id="NameLabel" style="display: block;"/><g class="TextLabel DimensionMeasureLabel" id="DimensionMeasureLabel" style="display: none;" transform="matrix(1,0,0,1,-119.1797,79.5938)"/></g></g></g><g class="Space Utility Laundry" fill="#ffffff" id="44ddabf5-0ce5-4bc5-a0ca-51a7d54e00aa" stroke="#ffffff" style="fill-opacity: 1; stroke-opacity: 1; stroke-width: 1;"><polygon points="670.84,594.18 589.74,594.18 589.74,615.18 511.27,615.18 511.27,594.18 425.06,594.18 425.06,421.47 670.84,421.47 "/><g class="Dimension" transform="matrix(1,0,0,1,425.0612,421.4734)"><g class="Visual" style="display: none;" transform="matrix(1,0,0,1,0,0)"><g class="DimensionMark" fill="#000000" id="mark1" stroke="none" style="fill-opacity: 1; pointer-events: visible;" transform="matrix(1,0,0,1,122.8891,0)"><polygon points="-5,5,0,0,5,5"/></g><g class="DimensionMark" fill="#000000" id="mark2" stroke="none" style="fill-opacity: 1; pointer-events: visible;" transform="matrix(1,0,0,1,245.7782,96.852)"><polygon points="-5,-5,0,0,-5,5"/></g><g class="DimensionMark" fill="#000000" id="mark3" stroke="none" style="fill-opacity: 1; pointer-events: visible;" transform="matrix(1,0,0,1,122.8891,193.7041)"><polygon points="-5,-5,0,0,5,-5"/></g><g class="DimensionMark" fill="#000000" id="mark4" stroke="none" style="fill-opacity: 1; pointer-events: visible;" transform="matrix(1,0,0,1,0,96.852)"><polygon points="5,5,0,0,5,-5"/></g></g><g class="SpaceDimensionsLabel" transform="matrix(1,0,0,1,89.4062,95.2612)"><g class="TextLabel NameLabel" id="NameLabel" style="display: block;"/><g class="TextLabel DimensionMeasureLabel" id="DimensionMeasureLabel" style="display: none;" transform="matrix(1,0,0,1,-103.7813,79.5938)"/></g></g></g><g class="Wall External" fill="#000000" id="Wall" stroke="#000000" style="fill-opacity: 1; stroke-opacity: 1; stroke-width: 1;"><polygon points="1160.02,179.01 1160.02,899.09 1139.02,878.09 1139.02,200.00 "/></g><g class="Wall External" fill="#000000" id="Wall" stroke="#000000" style="fill-opacity: 1; stroke-opacity: 1; stroke-width: 1;"><polygon points="1160.02,899.09 29.66,899.09 50.66,878.09 1139.02,878.09 "/><g class="Door Swing Beside" fill="#ffffff" id="Door" stroke="#000000" style="fill-opacity: 1; stroke-width: 1; stroke-opacity: 1;"><polygon points="513.89,899.09 434.76,899.09 434.76,878.09 513.89,878.09 "/><g class="Panel Left Negative" fill="none" id="Panel" style=""><g class="PanelArea" fill="none" id="PanelArea" stroke="none" style=""><polygon points="513.89,899.09 434.76,899.09 434.76,878.09 513.89,878.09 "/></g><path d="M513.89,899.09 q0.00,79.13 -79.13,79.13 l0.00,-79.13Z"/></g></g></g><g class="Wall External" fill="#000000" id="Wall" stroke="#000000" style="fill-opacity: 1; stroke-opacity: 1; stroke-width: 1;"><polygon points="29.66,899.09 29.66,178.62 50.66,199.62 50.66,878.09 "/></g><g class="Wall External" fill="#000000" id="Wall" stroke="#000000" style="fill-opacity: 1; stroke-opacity: 1; stroke-width: 1;"><polygon points="29.66,178.62 1160.02,179.01 1139.02,200.00 50.66,199.62 "/><g class="Door Swing Beside" fill="#ffffff" id="Door" stroke="#000000" style="fill-opacity: 1; stroke-width: 1; stroke-opacity: 1;"><polygon points="329.58,178.72 399.93,178.74 399.92,199.74 329.57,199.72 "/><g class="Panel Left Negative" fill="none" id="Panel" style=""><g class="PanelArea" fill="none" id="PanelArea" stroke="none" style=""><polygon points="329.58,178.72 399.93,178.74 399.92,199.74 329.57,199.72 "/></g><path d="M329.58,178.72 q0.03,-70.35 70.38,-70.33 l-0.03,70.35Z"/></g></g><g class="Window Regular" fill="#f0f0ff" id="Window" stroke="#000000" style="fill-opacity: 1; stroke-width: 1; stroke-opacity: 1;"><polygon points="81.43,178.63 316.36,178.72 316.36,199.72 81.42,199.63 "/><g class="Glass" id="Glass"><polygon points="81.43,178.63 316.36,178.72 316.36,199.72 81.42,199.63 "/></g><g class="Panel" id="Panel"><line x1="88.92499868675488" x2="308.85498483375295" y1="189.13287796214513" y2="189.21712814137047"/><line x1="88.92999975487011" x2="88.91999761863964" y1="178.63287796214513" y2="199.63287796214513"/><line x1="308.8599859018682" x2="308.8599859018682" y1="178.7171281413705" y2="199.7171281413705"/></g></g><g class="Window Regular" fill="#f0f0ff" id="Window" stroke="#000000" style="fill-opacity: 1; stroke-width: 1; stroke-opacity: 1;"><polygon points="487.33,178.78 629.65,178.82 629.64,199.82 487.33,199.78 "/><g class="Glass" id="Glass"><polygon points="487.33,178.78 629.65,178.82 629.64,199.82 487.33,199.78 "/></g><g class="Panel" id="Panel"><line x1="494.8299862759158" x2="622.1500247104123" y1="189.28210715475552" y2="189.31789894876013"/><line x1="494.8299862759158" x2="494.8299862759158" y1="178.78210715475552" y2="199.78210715475552"/><line x1="622.1500247104123" x2="622.1400149447873" y1="178.8178989487601" y2="199.8178989487601"/></g></g><g class="Window Regular" fill="#f0f0ff" id="Window" stroke="#000000" style="fill-opacity: 1; stroke-width: 1; stroke-opacity: 1;"><polygon points="740.19,178.86 1098.52,178.99 1098.51,199.99 740.19,199.86 "/><g class="Glass" id="Glass"><polygon points="740.19,178.86 1098.52,178.99 1098.51,199.99 740.19,199.86 "/></g><g class="Panel" id="Panel"><line x1="747.690001947796" x2="1091.0200200248603" y1="189.36272166778582" y2="189.4872844357298"/><line x1="747.690001947796" x2="747.690001947796" y1="178.86272166778582" y2="199.86272166778582"/><line x1="1091.0200200248603" x2="1091.0100102592353" y1="178.9872844357298" y2="199.9872844357298"/></g></g></g><g class="Wall" fill="#000000" id="Wall" stroke="#000000" style="fill-opacity: 1; stroke-opacity: 1; stroke-width: 1;"><polygon points="691.84,178.85 691.84,277.66 670.84,277.66 670.84,178.85 "/></g><g class="Wall" fill="#000000" id="Wall" stroke="#000000" style="fill-opacity: 1; stroke-opacity: 1; stroke-width: 1;"><polygon points="691.84,358.91 691.84,615.18 670.84,594.18 670.84,358.91 "/></g><g class="Wall" fill="#000000" id="Wall" stroke="#000000" style="fill-opacity: 1; stroke-opacity: 1; stroke-width: 1;"><polygon points="691.84,615.18 589.74,615.18 589.74,594.18 670.84,594.18 "/></g><g class="Wall" fill="#000000" id="Wall" stroke="#000000" style="fill-opacity: 1; stroke-opacity: 1; stroke-width: 1;"><polygon points="511.27,615.18 404.05,615.18 425.06,594.18 511.27,594.18 "/></g><g class="Wall" fill="#000000" id="Wall" stroke="#000000" style="fill-opacity: 1; stroke-opacity: 1; stroke-width: 1;"><polygon points="404.05,615.18 404.23,178.75 425.23,178.76 425.06,594.18 "/></g><g class="Wall" fill="#000000" id="Wall" stroke="#000000" style="fill-opacity: 1; stroke-opacity: 1; stroke-width: 1;"><polygon points="404.13,421.47 691.84,421.47 691.84,401.04 404.13,401.04 "/></g><g class="Wall" fill="#000000" id="Wall" stroke="#000000" style="fill-opacity: 1; stroke-opacity: 1; stroke-width: 1;"><polygon points="692.84,710.05 692.84,899.09 671.84,899.09 671.84,710.05 "/></g><g class="Wall" fill="#000000" id="Wall" stroke="#000000" style="fill-opacity: 1; stroke-opacity: 1; stroke-width: 1;"><polygon points="416.71,710.95 416.71,899.09 395.71,899.09 395.71,710.95 "/></g><g class="Railing" fill="#ffffff" id="Railing" stroke="#000000" style="fill-opacity: 1; stroke-opacity: 1; stroke-width: 1;"><polygon points="29.66,178.62 29.66,16.44 50.66,37.44 50.66,178.62 " style="stroke-dasharray: 162.18, 29.6985, 162.18;"/></g><g class="Railing" fill="#ffffff" id="Railing" stroke="#000000" style="fill-opacity: 1; stroke-opacity: 1; stroke-width: 1;"><polygon points="29.66,16.44 425.23,16.44 404.23,37.44 50.66,37.44 " style="stroke-dasharray: 395.57, 29.6985, 353.57, 29.6985;"/></g><g class="Railing" fill="#ffffff" id="Railing" stroke="#000000" style="fill-opacity: 1; stroke-opacity: 1; stroke-width: 1;"><polygon points="425.23,16.44 425.23,178.75 404.23,178.75 404.23,37.44 " style="stroke-dasharray: 324.62, 29.6985;"/></g><g class="FixedFurniture Closet" fill="#ffffff" stroke="#000000" style="fill-opacity: 1; stroke-opacity: 1;" transform="matrix(-1,0,0,-1,136.9193,877.8422)">
<g class="BoundaryPolygon">
<polygon points="0.00,0.00 86.26,0.00 86.26,123.47 0.00,123.47 "/>
</g>
<g class="Direction" fill-opacity="0.9" style="display: none;">
<polygon fill="#444444" points="45.30,112.56 45.30,101.94 42.29,101.94 42.29,112.56 38.49,112.56 43.79,117.86 49.10,112.56 45.30,112.56 "/>
</g>
<g class="Name" fill-opacity="0.9" style="display: none;">

</g>
<desc>Width:60 Height:200 Depth:60 Elevation:0</desc>
</g><g class="FixedFurniture Closet" fill="#ffffff" stroke="#000000" style="fill-opacity: 1; stroke-opacity: 1;" transform="matrix(-1,0,0,-1,222.6393,877.936)">
<g class="BoundaryPolygon">
<polygon points="0.00,0.00 85.72,0.00 85.72,123.47 0.00,123.47 "/>
</g>
<g class="Direction" fill-opacity="0.9" style="display: none;">
<polygon fill="#444444" points="45.02,112.56 45.02,101.94 42.01,101.94 42.01,112.56 38.20,112.56 43.51,117.86 48.81,112.56 45.02,112.56 "/>
</g>
<g class="Name" fill-opacity="0.9" style="display: none;">

</g>
<desc>Width:60 Height:200 Depth:60 Elevation:0</desc>
</g><g class="FixedFurniture Closet" fill="#ffffff" stroke="#000000" style="fill-opacity: 1; stroke-opacity: 1;" transform="matrix(-1,0,0,-1,309.8993,877.9985)">
<g class="BoundaryPolygon">
<polygon points="0.00,0.00 87.26,0.00 87.26,123.47 0.00,123.47 "/>
</g>
<g class="Direction" fill-opacity="0.9" style="display: none;">
<polygon fill="#444444" points="45.83,112.56 45.83,101.94 42.82,101.94 42.82,112.56 39.01,112.56 44.32,117.86 49.62,112.56 45.83,112.56 "/>
</g>
<g class="Name" fill-opacity="0.9" style="display: none;">

</g>
<desc>Width:60 Height:200 Depth:60 Elevation:0</desc>
</g><g class="FixedFurniture Closet" fill="#ffffff" stroke="#000000" style="fill-opacity: 1; stroke-opacity: 1;" transform="matrix(-1,0,0,-1,395.7117,877.9829)">
<g class="BoundaryPolygon">
<polygon points="0.00,0.00 85.92,0.00 85.92,123.47 0.00,123.47 "/>
</g>
<g class="Direction" fill-opacity="0.9" style="display: none;">
<polygon fill="#444444" points="45.12,112.56 45.12,101.94 42.11,101.94 42.11,112.56 38.30,112.56 43.61,117.86 48.91,112.56 45.12,112.56 "/>
</g>
<g class="Name" fill-opacity="0.9" style="display: none;">

</g>
<desc>Width:60 Height:200 Depth:60 Elevation:0</desc>
</g><g class="SelectionControls" fill="#0000ff" stroke="#0000ff" style="display: none;"><g class="rotateControl" style="display: block;"><circle cx="228.838725" cy="459.372725" r="5" style="stroke : none; fill-opacity: 0.5; cursor:crosshair"/></g><g class="ResizeNControl" style="display: none;"><circle cx="0" cy="0" r="5" style="stroke : none; fill-opacity: 0.5"/></g><g class="ResizeNEControl" style="display: none;"><circle cx="0" cy="0" r="5" style="stroke : none; fill-opacity: 0.5"/></g><g class="ResizeEControl" style="display: none;"><circle cx="0" cy="0" r="5" style="stroke : none; fill-opacity: 0.5"/></g><g class="ResizeSEControl" style="display: none;"><circle cx="0" cy="0" r="5" style="stroke : none; fill-opacity: 0.5"/></g><g class="ResizeSControl" style="display: none;"><circle cx="0" cy="0" r="5" style="stroke : none; fill-opacity: 0.5"/></g><g class="ResizeSWControl" style="display: none;"><circle cx="0" cy="0" r="5" style="stroke : none; fill-opacity: 0.5"/></g><g class="ResizeWControl" style="display: none;"><circle cx="0" cy="0" r="5" style="stroke : none; fill-opacity: 0.5"/></g><g class="ResizeNWControl" style="display: none;"><circle cx="0" cy="0" r="5" style="stroke : none; fill-opacity: 0.5"/></g><g class="removeControl" style="display: block;"><polygon points="216.45,489.37 241.23,489.37 241.23,529.14 216.45,529.14 " style="stroke : none; fill-opacity: 0.1"/></g><g class="copyPasteControl" style="display: none;"><polygon style="stroke : none; fill-opacity: 0.1"/></g><g class="translateControl" style="display: block;"><polygon points="216.45,489.37 241.23,489.37 241.23,529.14 216.45,529.14 " style="stroke : none; fill-opacity: 0.1; cursor:move"/></g></g><g class="SelectionControls" fill="#0000ff" stroke="#0000ff" style="display: block;"><polygon fill="none" points="50.66,199.81 404.04,199.81 404.04,878.09 50.66,878.09 " stroke="#0000ff" style=""/><g class="rotateControl" style="display: block;"><circle cx="227.3510487548828" cy="169.8118" r="5" style="stroke : none; fill-opacity: 0.5; cursor:crosshair"/></g><g class="ResizeNControl" style="display: none;"><circle cx="0" cy="0" r="5" style="stroke : none; fill-opacity: 0.5"/></g><g class="ResizeNEControl" style="display: none;"><circle cx="0" cy="0" r="5" style="stroke : none; fill-opacity: 0.5"/></g><g class="ResizeEControl" style="display: none;"><circle cx="0" cy="0" r="5" style="stroke : none; fill-opacity: 0.5"/></g><g class="ResizeSEControl" style="display: none;"><circle cx="0" cy="0" r="5" style="stroke : none; fill-opacity: 0.5"/></g><g class="ResizeSControl" style="display: none;"><circle cx="0" cy="0" r="5" style="stroke : none; fill-opacity: 0.5"/></g><g class="ResizeSWControl" style="display: none;"><circle cx="0" cy="0" r="5" style="stroke : none; fill-opacity: 0.5"/></g><g class="ResizeWControl" style="display: none;"><circle cx="0" cy="0" r="5" style="stroke : none; fill-opacity: 0.5"/></g><g class="ResizeNWControl" style="display: none;"><circle cx="0" cy="0" r="5" style="stroke : none; fill-opacity: 0.5"/></g><g class="removeControl" style="display: none;"><polygon style="stroke : none; fill-opacity: 0.1"/></g><g class="copyPasteControl" style="display: none;"><polygon style="stroke : none; fill-opacity: 0.1"/></g><g class="translateControl" style="display: none;"><polygon style="stroke : none; fill-opacity: 0.1; cursor:move"/></g></g></g></g></g></svg>