<?xml version="1.0" encoding="utf-8"?>
<svg height="1299.5099487304688" id="temp" version="1.1" viewBox="0 0 1067.8399963378906 1299.5099487304688" width="1067.8399963378906" xmlns="http://www.w3.org/2000/svg" xmlns:xlink="http://www.w3.org/1999/xlink"><defs/><g class="Model v1-1" id="Model"><g class="Floor"><g class="Floorplan Floor-1" id="Floor-1"><g class="Space Outdoor Balcony" fill="#ffffff" id="3da1e26e-fd6d-4c92-9c95-4d3ce19e0051" stroke="#000000" style="fill-opacity: 1; stroke-opacity: 1; stroke-width: 1;"><polygon points="328.01,1288.51 190.59,1288.51 190.59,979.37 328.01,979.37 328.01,1288.51 328.01,1288.51 "/><g class="Dimension" transform="matrix(1,0,0,1,190.5941,979.3726)"><g class="Visual" style="display: none;" transform="matrix(1,0,0,1,0,0)"><g class="DimensionMark" fill="#000000" id="mark1" stroke="none" style="fill-opacity: 1; pointer-events: visible;" transform="matrix(1,0,0,1,68.7062,0)"><polygon points="-5,5,0,0,5,5"/></g><g class="DimensionMark" fill="#000000" id="mark2" stroke="none" style="fill-opacity: 1; pointer-events: visible;" transform="matrix(1,0,0,1,137.4124,154.5702)"><polygon points="-5,-5,0,0,-5,5"/></g><g class="DimensionMark" fill="#000000" id="mark3" stroke="none" style="fill-opacity: 1; pointer-events: visible;" transform="matrix(1,0,0,1,68.7062,309.1404)"><polygon points="-5,-5,0,0,5,-5"/></g><g class="DimensionMark" fill="#000000" id="mark4" stroke="none" style="fill-opacity: 1; pointer-events: visible;" transform="matrix(1,0,0,1,0,154.5702)"><polygon points="5,5,0,0,5,-5"/></g></g><g class="SpaceDimensionsLabel" transform="matrix(0,-1,1,0,70.5346,247.0637)"><g class="TextLabel NameLabel" id="NameLabel" style="display: block;"/><g class="TextLabel DimensionMeasureLabel" id="DimensionMeasureLabel" style="display: none;" transform="matrix(1,0,0,1,-63.7266,79.7656)"/></g></g></g><g class="Space Entry Lobby" fill="#ffffff" id="baa52c4a-bf04-41df-97c7-ca59f208b3be" stroke="#ffffff" style="fill-opacity: 1; stroke-opacity: 1; stroke-width: 1;"><polygon points="741.26,630.06 842.88,630.06 842.88,956.30 710.69,956.30 710.69,956.94 566.20,956.94 566.20,736.33 626.86,736.33 626.86,619.06 252.19,619.06 252.19,618.82 741.26,618.82 "/><g class="Dimension" transform="matrix(1,0,0,1,252.1895,618.8241)"><g class="Visual" style="display: none;" transform="matrix(1,0,0,1,0,0)"><g class="DimensionMark" fill="#000000" id="mark1" stroke="none" style="fill-opacity: 1; pointer-events: visible;" transform="matrix(1,0,0,1,314.0075,0)"><polygon points="-5,5,0,0,5,5"/></g><g class="DimensionMark" fill="#000000" id="mark2" stroke="none" style="fill-opacity: 1; pointer-events: visible;" transform="matrix(1,0,0,1,590.695,0.2344)"><polygon points="-5,-5,0,0,-5,5"/></g><g class="DimensionMark" fill="#000000" id="mark3" stroke="none" style="fill-opacity: 1; pointer-events: visible;" transform="matrix(1,0,0,1,314.0075,338.113)"><polygon points="-5,-5,0,0,5,-5"/></g><g class="DimensionMark" fill="#000000" id="mark4" stroke="none" style="fill-opacity: 1; pointer-events: visible;" transform="matrix(1,0,0,1,0,0.2344)"><polygon points="5,5,0,0,5,-5"/></g></g><g class="SpaceDimensionsLabel" transform="matrix(1,0,0,1,466.3151,185.6041)"><g class="TextLabel NameLabel" id="NameLabel" style="display: block;"/><g class="TextLabel DimensionMeasureLabel" id="DimensionMeasureLabel" style="display: none;" transform="matrix(1,0,0,1,-118.7969,79.1563)"/></g></g></g><g class="Space LivingRoom" fill="#ffffff" id="87a03fc5-2e0c-431f-a114-709e2a646a70" stroke="#ffffff" style="fill-opacity: 1; stroke-opacity: 1; stroke-width: 1;"><polygon points="741.26,618.82 252.19,618.82 252.19,273.31 741.26,273.31 "/><g class="Dimension" transform="matrix(1,0,0,1,252.1895,273.3125)"><g class="Visual" style="display: none;" transform="matrix(1,0,0,1,0,0)"><g class="DimensionMark" fill="#000000" id="mark1" stroke="none" style="fill-opacity: 1; pointer-events: visible;" transform="matrix(1,0,0,1,244.5359,0)"><polygon points="-5,5,0,0,5,5"/></g><g class="DimensionMark" fill="#000000" id="mark2" stroke="none" style="fill-opacity: 1; pointer-events: visible;" transform="matrix(1,0,0,1,489.0719,172.7558)"><polygon points="-5,-5,0,0,-5,5"/></g><g class="DimensionMark" fill="#000000" id="mark3" stroke="none" style="fill-opacity: 1; pointer-events: visible;" transform="matrix(1,0,0,1,244.5359,345.5116)"><polygon points="-5,-5,0,0,5,-5"/></g><g class="DimensionMark" fill="#000000" id="mark4" stroke="none" style="fill-opacity: 1; pointer-events: visible;" transform="matrix(1,0,0,1,0,172.7558)"><polygon points="5,5,0,0,5,-5"/></g></g><g class="SpaceDimensionsLabel" transform="matrix(1,0,0,1,229.8426,165.9743)"><g class="TextLabel NameLabel" id="NameLabel" style="display: block;"/><g class="TextLabel DimensionMeasureLabel" id="DimensionMeasureLabel" style="display: none;" transform="matrix(1,0,0,1,-114.5859,79.1563)"/></g></g></g><g class="Space Bedroom" fill="#ffffff" id="70dd4931-3012-4315-9b9f-ad594ccab60e" stroke="#ffffff" style="fill-opacity: 1; stroke-opacity: 1; stroke-width: 1;"><polygon points="615.86,736.33 566.20,736.33 566.20,956.94 252.19,956.94 252.19,630.06 615.86,630.06 "/><g class="Dimension" transform="matrix(1,0,0,1,252.1895,630.0585)"><g class="Visual" style="display: none;" transform="matrix(1,0,0,1,0,0)"><g class="DimensionMark" fill="#000000" id="mark1" stroke="none" style="fill-opacity: 1; pointer-events: visible;" transform="matrix(1,0,0,1,181.8376,0)"><polygon points="-5,5,0,0,5,5"/></g><g class="DimensionMark" fill="#000000" id="mark2" stroke="none" style="fill-opacity: 1; pointer-events: visible;" transform="matrix(1,0,0,1,314.0075,163.4393)"><polygon points="-5,-5,0,0,-5,5"/></g><g class="DimensionMark" fill="#000000" id="mark3" stroke="none" style="fill-opacity: 1; pointer-events: visible;" transform="matrix(1,0,0,1,181.8376,326.8786)"><polygon points="-5,-5,0,0,5,-5"/></g><g class="DimensionMark" fill="#000000" id="mark4" stroke="none" style="fill-opacity: 1; pointer-events: visible;" transform="matrix(1,0,0,1,0,163.4393)"><polygon points="5,5,0,0,5,-5"/></g></g><g class="SpaceDimensionsLabel" transform="matrix(1,0,0,1,159.3155,163.8365)"><g class="TextLabel NameLabel" id="NameLabel" style="display: block;"/><g class="TextLabel DimensionMeasureLabel" id="DimensionMeasureLabel" style="display: none;" transform="matrix(1,0,0,1,-113.6641,79.1562)"/></g></g></g><g class="Space Bedroom" fill="#ffffff" id="3c860169-1523-4a14-9ae8-c967052a1172" stroke="#ffffff" style="fill-opacity: 1; stroke-opacity: 1; stroke-width: 1;"><polygon points="351.03,979.94 710.69,979.94 710.69,1276.51 351.01,1276.51 351.01,956.94 "/><g class="Dimension" transform="matrix(1,0,0,1,351.0064,979.9372)"><g class="Visual" style="display: none;" transform="matrix(1,0,0,1,0,0)"><g class="DimensionMark" fill="#000000" id="mark1" stroke="none" style="fill-opacity: 1; pointer-events: visible;" transform="matrix(1,0,0,1,179.8428,0)"><polygon points="-5,5,0,0,5,5"/></g><g class="DimensionMark" fill="#000000" id="mark2" stroke="none" style="fill-opacity: 1; pointer-events: visible;" transform="matrix(1,0,0,1,359.6856,136.7879)"><polygon points="-5,-5,0,0,-5,5"/></g><g class="DimensionMark" fill="#000000" id="mark3" stroke="none" style="fill-opacity: 1; pointer-events: visible;" transform="matrix(1,0,0,1,179.8428,296.5758)"><polygon points="-5,-5,0,0,5,-5"/></g><g class="DimensionMark" fill="#000000" id="mark4" stroke="none" style="fill-opacity: 1; pointer-events: visible;" transform="matrix(1,0,0,1,0,136.7879)"><polygon points="5,5,0,0,5,-5"/></g></g><g class="SpaceDimensionsLabel" transform="matrix(1,0,0,1,159.4978,147.1573)"><g class="TextLabel NameLabel" id="NameLabel" style="display: block;"/><g class="TextLabel DimensionMeasureLabel" id="DimensionMeasureLabel" style="display: none;" transform="matrix(1,0,0,1,-113.664,79.1562)"/></g></g></g><g class="Space Kitchen" fill="#ffffff" id="2ca42042-9d12-41a2-9652-57e0f5872cff" stroke="#ffffff" style="fill-opacity: 1; stroke-opacity: 1; stroke-width: 1;"><polygon points="1044.84,619.06 752.26,619.06 752.26,273.31 1044.84,273.31 "/><g class="Dimension" transform="matrix(1,0,0,1,752.2613,273.3125)"><g class="Visual" style="display: none;" transform="matrix(1,0,0,1,0,0)"><g class="DimensionMark" fill="#000000" id="mark1" stroke="none" style="fill-opacity: 1; pointer-events: visible;" transform="matrix(1,0,0,1,146.2888,0)"><polygon points="-5,5,0,0,5,5"/></g><g class="DimensionMark" fill="#000000" id="mark2" stroke="none" style="fill-opacity: 1; pointer-events: visible;" transform="matrix(1,0,0,1,292.5776,172.873)"><polygon points="-5,-5,0,0,-5,5"/></g><g class="DimensionMark" fill="#000000" id="mark3" stroke="none" style="fill-opacity: 1; pointer-events: visible;" transform="matrix(1,0,0,1,146.2888,345.746)"><polygon points="-5,-5,0,0,5,-5"/></g><g class="DimensionMark" fill="#000000" id="mark4" stroke="none" style="fill-opacity: 1; pointer-events: visible;" transform="matrix(1,0,0,1,0,172.873)"><polygon points="5,5,0,0,5,-5"/></g></g><g class="SpaceDimensionsLabel" transform="matrix(1,0,0,1,125.9442,158.7217)"><g class="TextLabel NameLabel" id="NameLabel" style="display: block;"/><g class="TextLabel DimensionMeasureLabel" id="DimensionMeasureLabel" style="display: none;" transform="matrix(1,0,0,1,-128.1016,79.1563)"/></g></g></g><g class="Space Bath" fill="#ffffff" id="ed57705c-768f-445e-acb3-e56559c47d30" stroke="#ffffff" style="fill-opacity: 1; stroke-opacity: 1; stroke-width: 1;"><polygon points="1044.84,956.30 853.88,956.30 853.88,630.06 1044.84,630.06 "/><g class="Dimension" transform="matrix(1,0,0,1,853.8845,630.0585)"><g class="Visual" style="display: none;" transform="matrix(1,0,0,1,0,0)"><g class="DimensionMark" fill="#000000" id="mark1" stroke="none" style="fill-opacity: 1; pointer-events: visible;" transform="matrix(1,0,0,1,95.4772,0)"><polygon points="-5,5,0,0,5,5"/></g><g class="DimensionMark" fill="#000000" id="mark2" stroke="none" style="fill-opacity: 1; pointer-events: visible;" transform="matrix(1,0,0,1,190.9545,163.1221)"><polygon points="-5,-5,0,0,-5,5"/></g><g class="DimensionMark" fill="#000000" id="mark3" stroke="none" style="fill-opacity: 1; pointer-events: visible;" transform="matrix(1,0,0,1,95.4772,326.2441)"><polygon points="-5,-5,0,0,5,-5"/></g><g class="DimensionMark" fill="#000000" id="mark4" stroke="none" style="fill-opacity: 1; pointer-events: visible;" transform="matrix(1,0,0,1,0,163.1221)"><polygon points="5,5,0,0,5,-5"/></g></g><g class="SpaceDimensionsLabel" transform="matrix(1,0,0,1,59.309,176.8557)"><g class="TextLabel NameLabel" id="NameLabel" style="display: block;"/><g class="TextLabel DimensionMeasureLabel" id="DimensionMeasureLabel" style="display: none;" transform="matrix(1,0,0,1,-106.1953,79.1562)"/></g></g></g><g class="Wall External" fill="#000000" id="Wall" stroke="#000000" style="fill-opacity: 1; stroke-opacity: 1; stroke-width: 1;"><polygon points="252.19,273.31 1044.84,273.31 1067.84,250.31 229.19,250.31 "/><g class="Window Regular" fill="#f0f0ff" id="Window" stroke="#000000" style="fill-opacity: 1; stroke-width: 1; stroke-opacity: 1;"><polygon points="771.45,273.31 954.18,273.31 954.18,250.31 771.45,250.31 "/><g class="Glass" id="Glass"><polygon points="771.45,273.31 954.18,273.31 954.18,250.31 771.45,250.31 "/></g><g class="Panel" id="Panel"><line x1="778.9510131585358" x2="946.678452331477" y1="261.81248858110945" y2="261.8124885811094"/><line x1="778.9510131585358" x2="778.9510131585358" y1="273.31248858110945" y2="250.31248858110945"/><line x1="946.678452331477" x2="946.678452331477" y1="273.3124885811094" y2="250.3124885811094"/></g></g></g><g class="Wall External" fill="#000000" id="Wall" stroke="#000000" style="fill-opacity: 1; stroke-opacity: 1; stroke-width: 1;"><polygon points="1067.84,250.31 1067.84,979.30 1044.84,956.30 1044.84,273.31 "/></g><g class="Wall External" fill="#000000" id="Wall" stroke="#000000" style="fill-opacity: 1; stroke-opacity: 1; stroke-width: 1;"><polygon points="1067.84,979.30 733.69,979.30 710.69,956.30 1044.84,956.30 "/><g class="Door Swing Opposite" fill="#ffffff" id="Door" stroke="#000000" style="fill-opacity: 1; stroke-width: 1; stroke-opacity: 1;"><polygon points="820.61,979.30 751.20,979.30 751.20,956.30 820.61,956.30 "/><g class="Panel Left Negative" fill="none" id="Panel" style=""><g class="PanelArea" fill="none" id="PanelArea" stroke="none" style=""><polygon points="820.61,979.30 751.20,979.30 751.20,956.30 820.61,956.30 "/></g><path d="M820.61,979.30 q0.00,69.41 -69.41,69.41 l0.00,-69.41Z"/></g><g class="Panel Left Positive" fill="none" id="Panel" style=""><g class="PanelArea" fill="none" id="PanelArea" stroke="none" style=""><polygon points="820.61,979.30 751.20,979.30 751.20,956.30 820.61,956.30 "/></g><path d="M751.20,956.30 q0.00,-69.41 69.41,-69.41 l0.00,69.41Z"/></g></g></g><g class="Wall External" fill="#000000" id="Wall" stroke="#000000" style="fill-opacity: 1; stroke-opacity: 1; stroke-width: 1;"><polygon points="733.69,979.30 733.69,1299.51 710.69,1276.51 710.69,956.30 "/></g><g class="Wall External" fill="#000000" id="Wall" stroke="#000000" style="fill-opacity: 1; stroke-opacity: 1; stroke-width: 1;"><polygon points="733.69,1299.51 328.01,1299.51 351.01,1276.51 710.69,1276.51 "/></g><g class="Wall External" fill="#000000" id="Wall" stroke="#000000" style="fill-opacity: 1; stroke-opacity: 1; stroke-width: 1;"><polygon points="328.01,1299.51 328.01,979.94 351.01,956.94 351.01,1276.51 "/><g class="Window Regular" fill="#f0f0ff" id="Window" stroke="#000000" style="fill-opacity: 1; stroke-width: 1; stroke-opacity: 1;"><polygon points="328.01,1273.70 328.01,1079.49 351.01,1079.49 351.01,1273.70 "/><g class="Glass" id="Glass"><polygon points="328.01,1273.70 328.01,1079.49 351.01,1079.49 351.01,1273.70 "/></g><g class="Panel" id="Panel"><line x1="339.5064473147268" x2="339.50644731472676" y1="1266.2035753257592" y2="1086.994789995079"/><line x1="328.0064473147268" x2="351.0064473147268" y1="1266.2035753257592" y2="1266.2035753257592"/><line x1="328.00644731472676" x2="351.00644731472676" y1="1086.994789995079" y2="1086.994789995079"/></g></g><g class="Door Swing Opposite" fill="#ffffff" id="Door" stroke="#000000" style="fill-opacity: 1; stroke-width: 1; stroke-opacity: 1;"><polygon points="328.01,1071.78 328.01,998.17 351.01,998.17 351.01,1071.78 "/><g class="Panel Left Negative" fill="none" id="Panel" style=""><g class="PanelArea" fill="none" id="PanelArea" stroke="none" style=""><polygon points="328.01,1071.78 328.01,998.17 351.01,998.17 351.01,1071.78 "/></g><path d="M328.01,1071.78 q-73.62,0.00 -73.62,-73.62 l73.62,0.00Z"/></g><g class="Panel Right Positive" fill="none" id="Panel" style=""><g class="PanelArea" fill="none" id="PanelArea" stroke="none" style=""><polygon points="328.01,1071.78 328.01,998.17 351.01,998.17 351.01,1071.78 "/></g><path d="M351.01,1071.78 q73.62,0.00 73.62,-73.62 l-73.62,0.00Z"/></g></g></g><g class="Wall External" fill="#000000" id="Wall" stroke="#000000" style="fill-opacity: 1; stroke-opacity: 1; stroke-width: 1;"><polygon points="351.01,956.94 252.19,956.94 229.19,979.94 328.01,979.94 "/></g><g class="Wall External" fill="#000000" id="Wall" stroke="#000000" style="fill-opacity: 1; stroke-opacity: 1; stroke-width: 1;"><polygon points="252.19,956.94 252.19,273.31 229.19,250.31 229.19,979.94 "/><g class="Window Regular" fill="#f0f0ff" id="Window" stroke="#000000" style="fill-opacity: 1; stroke-width: 1; stroke-opacity: 1;"><polygon points="252.19,873.37 252.19,666.54 229.19,666.54 229.19,873.37 "/><g class="Glass" id="Glass"><polygon points="252.19,873.37 252.19,666.54 229.19,666.54 229.19,873.37 "/></g><g class="Panel" id="Panel"><line x1="240.68946065871694" x2="240.68946065871694" y1="865.867053940133" y2="674.0382031367011"/><line x1="252.18946065871694" x2="229.18946065871694" y1="865.867053940133" y2="865.867053940133"/><line x1="252.18946065871694" x2="229.18946065871694" y1="674.0382031367011" y2="674.0382031367011"/></g></g><g class="Window Regular" fill="#f0f0ff" id="Window" stroke="#000000" style="fill-opacity: 1; stroke-width: 1; stroke-opacity: 1;"><polygon points="252.19,593.59 252.19,346.43 229.19,346.43 229.19,593.59 "/><g class="Glass" id="Glass"><polygon points="252.19,593.59 252.19,346.43 229.19,346.43 229.19,593.59 "/></g><g class="Panel" id="Panel"><line x1="240.6894606587169" x2="240.6894606587169" y1="586.0903761260422" y2="353.9274715605376"/><line x1="252.1894606587169" x2="229.1894606587169" y1="586.0903761260422" y2="586.0903761260422"/><line x1="252.1894606587169" x2="229.1894606587169" y1="353.9274715605376" y2="353.9274715605376"/></g></g></g><g class="Wall" fill="#000000" id="Wall" stroke="#000000" style="fill-opacity: 1; stroke-opacity: 1; stroke-width: 1;"><polygon points="351.01,956.94 711.01,956.62 711.03,979.62 351.03,979.94 "/><g class="Door Swing Beside" fill="#ffffff" id="Door" stroke="#000000" style="fill-opacity: 1; stroke-width: 1; stroke-opacity: 1;"><polygon points="632.00,956.69 701.41,956.63 701.43,979.63 632.02,979.69 "/><g class="Panel Right Positive" fill="none" id="Panel" style=""><g class="PanelArea" fill="none" id="PanelArea" stroke="none" style=""><polygon points="632.00,956.69 701.41,956.63 701.43,979.63 632.02,979.69 "/></g><path d="M632.02,979.69 q0.06,69.41 69.47,69.35 l-0.06,-69.41Z"/></g></g></g><g class="Wall" fill="#000000" id="Wall" stroke="#000000" style="fill-opacity: 1; stroke-opacity: 1; stroke-width: 1;"><polygon points="626.86,736.33 626.86,619.06 615.86,630.06 615.86,736.33 "/><g class="Door Swing Beside" fill="#ffffff" id="Door" stroke="#000000" style="fill-opacity: 1; stroke-width: 1; stroke-opacity: 1;"><polygon points="626.86,716.36 626.86,645.63 615.86,645.63 615.86,716.36 "/><g class="Panel Right Positive" fill="none" id="Panel" style=""><g class="PanelArea" fill="none" id="PanelArea" stroke="none" style=""><polygon points="626.86,716.36 626.86,645.63 615.86,645.63 615.86,716.36 "/></g><path d="M615.86,716.36 q-70.74,0.00 -70.74,-70.74 l70.74,0.00Z"/></g></g></g><g class="Wall" fill="#000000" id="Wall" stroke="#000000" style="fill-opacity: 1; stroke-opacity: 1; stroke-width: 1;"><polygon points="626.86,619.06 229.19,619.06 229.19,630.06 615.86,630.06 "/></g><g class="Wall" fill="#000000" id="Wall" stroke="#000000" style="fill-opacity: 1; stroke-opacity: 1; stroke-width: 1;"><polygon points="1067.84,630.06 741.26,630.06 752.26,619.06 1067.84,619.06 "/></g><g class="Wall" fill="#000000" id="Wall" stroke="#000000" style="fill-opacity: 1; stroke-opacity: 1; stroke-width: 1;"><polygon points="741.26,630.06 741.26,250.31 752.26,250.31 752.26,619.06 "/><g class="Door None Beside" fill="#ffffff" id="Door" stroke="#000000" style="fill-opacity: 1; stroke-width: 1; stroke-opacity: 1;"><polygon points="741.26,536.85 741.26,345.47 752.26,345.47 752.26,536.85 "/></g></g><g class="Wall" fill="#000000" id="Wall" stroke="#000000" style="fill-opacity: 1; stroke-opacity: 1; stroke-width: 1;"><polygon points="853.88,619.06 853.88,979.30 842.88,979.30 842.88,619.06 "/><g class="Door Swing Beside" fill="#ffffff" id="Door" stroke="#000000" style="fill-opacity: 1; stroke-width: 1; stroke-opacity: 1;"><polygon points="853.88,684.57 853.88,755.31 842.88,755.31 842.88,684.57 "/><g class="Panel Left Positive" fill="none" id="Panel" style=""><g class="PanelArea" fill="none" id="PanelArea" stroke="none" style=""><polygon points="853.88,684.57 853.88,755.31 842.88,755.31 842.88,684.57 "/></g><path d="M842.88,755.31 q-70.74,0.00 -70.74,-70.74 l70.74,0.00Z"/></g></g></g><g class="Railing" fill="#ffffff" id="Railing" stroke="#000000" style="fill-opacity: 1; stroke-opacity: 1; stroke-width: 1;"><polygon points="229.51,979.62 190.59,979.37 179.59,968.30 229.58,968.62 " style="stroke-dasharray: 38.9134, 15.606, 60.9835;"/></g><g class="Railing" fill="#ffffff" id="Railing" stroke="#000000" style="fill-opacity: 1; stroke-opacity: 1; stroke-width: 1;"><polygon points="179.59,968.30 179.59,1299.51 190.59,1288.51 190.59,979.37 " style="stroke-dasharray: 331.211, 15.5563, 309.14, 15.606;"/></g><g class="Railing" fill="#ffffff" id="Railing" stroke="#000000" style="fill-opacity: 1; stroke-opacity: 1; stroke-width: 1;"><polygon points="179.59,1299.51 328.01,1299.51 328.01,1288.51 190.59,1288.51 " style="stroke-dasharray: 296.825, 15.5563;"/></g><g class="FixedFurnitureSet" fill="#ffffff" id="FixedFurnitureSet" stroke="#000000" style="fill-opacity: 0.4; stroke-opacity: 0.4;" transform="matrix(0,-1,1,0,566.0943,856.3307)"><g class="FixedFurniture Closet" fill="#ffffff" stroke="#000000" style="fill-opacity: 1; stroke-opacity: 1;" transform="matrix(1,0,0,1,0,0)">
<g class="BoundaryPolygon">
<polygon points="0,0 60,0 60,60 0,60"/>
</g>
<g class="Direction" fill-opacity="0.9" style="display: none;">
<polygon fill="#444444" points="31.509 54.697 31.509 44.081 28.5 44.081 28.5 54.697 24.697 54.697 30 60 35.303 54.697 31.509 54.697"/>
</g>
<g class="Name" fill-opacity="0.9" style="display: none;">

</g>
<desc>Width:60 Height:200 Depth:60 Elevation:0</desc>
</g><g class="FixedFurniture Closet" fill="#ffffff" stroke="#000000" style="fill-opacity: 1; stroke-opacity: 1;" transform="matrix(1,0,0,1,60,0)">
<g class="BoundaryPolygon">
<polygon points="0 0 60 0 60 60 0 60"/>
</g>
<g class="Direction" fill-opacity="0.9" style="display: none;">
<polygon fill="#444444" points="31.509 54.697 31.509 44.081 28.5 44.081 28.5 54.697 24.697 54.697 30 60 35.303 54.697 31.509 54.697"/>
</g>
<g class="Name" fill-opacity="0.9" style="display: none;">

</g>
<desc>Width:60 Height:200 Depth:60 Elevation:0</desc>
</g></g><g class="FixedFurniture CoatCloset" fill="#ffffff" stroke="#000000" style="fill-opacity: 1; stroke-opacity: 1;" transform="matrix(0,-1,1,0,566.1969,956.7042)">
<g class="BoundaryPolygon">
<polygon points="0.00,0.00 100.37,0.00 100.37,60.00 0.00,60.00 "/>
</g>

<g class="Direction" fill-opacity="0.9" style="display: none;">
<polygon fill="#444444" points="51.45,54.52 51.45,43.90 48.44,43.90 48.44,54.52 44.64,54.52 49.94,59.82 55.24,54.52 51.45,54.52 "/>
</g>
<g class="Name" fill-opacity="0.9" style="display: none;">

</g>
<desc>Width:120 Height:200 Depth:60 Elevation:0</desc>
</g><g class="FixedFurniture Toilet" fill="#ffffff" stroke="#000000" style="fill-opacity: 1; stroke-opacity: 1;" transform="matrix(1,0,0,1,865.0746,630.0586)">
<g class="BoundaryPolygon" fill="none" stroke="none">
<polygon points="0,0 41,0 41,71 0,71"/>
</g>
<g class="InnerPolygon">
<rect height="17.98" width="39.989" x="0.502" y="0.5"/>
<path d="M40.491,44.237S41.619,70.5,20.907,70.5C-.523,70.5.6,44.237.6,44.237L.5,18.48H40.491Z"/>
<rect height="3.03" width="6.357" x="17.318" y="7.975"/>
</g>
<desc>Width:41 Height:85 Depth:71 Elevation:0</desc>
</g><g class="FixedFurnitureSet" fill="#ffffff" id="FixedFurnitureSet" stroke="#000000" style="fill-opacity: 0.4; stroke-opacity: 0.4;" transform="matrix(1,0,0,1,915.8252,630.0586)"><g class="FixedFurniture BaseCabinet" fill="#ffffff" stroke="#000000" style="fill-opacity: 1; stroke-opacity: 1;" transform="matrix(1,0,0,1,0,0)">
<g class="BoundaryPolygon">
<polygon points="0.00,0.00 56.59,0.00 56.59,43.35 0.00,43.35 "/>
</g>
<g class="Direction" fill-opacity="0.9" style="display: none;">
<polygon fill="#444444" points="30.19,39.88 30.19,29.27 27.18,29.27 27.18,39.88 23.38,39.88 28.68,44.69 33.98,39.88 30.19,39.88 "/>
</g>
<g class="Name" fill-opacity="0.9" style="display: none;">

</g>
<desc>Width:60 Height:5 Depth:60 Elevation:105</desc>
</g><g class="FixedFurniture Sink" fill="#ffffff" stroke="#000000" style="fill-opacity: 1; stroke-opacity: 1;" transform="matrix(1,0,0,1,0,0)">
<g class="BoundaryPolygon" fill="none" stroke="none">
<polygon points="0.00,0.00 56.59,0.00 56.59,43.35 0.00,43.35 "/>
</g>
<g class="InnerPolygon">
<polygon points="4.72,9.70 51.87,9.70 51.87,39.52 4.72,39.52 "/>
</g>
<g class="OuterDrain" stroke-width="0.8">
<circle cx="28.292782115674044" cy="23.266982420264412" r="3.5"/>
</g>
<g class="InnerDrain" stroke-width="0.8">
<circle cx="28.292782115674044" cy="23.266982420264412" r="2"/>
</g>
<g class="Faucet">
<polygon points="25.46,3.61 31.46,3.61 31.46,17.61 25.46,17.61 "/>
</g>
<g class="Direction" fill-opacity="0.9" style="display: none;">
<polygon fill="#444444" points="30.19,39.88 30.19,29.27 27.18,29.27 27.18,39.88 23.38,39.88 28.68,44.69 33.98,39.88 30.19,39.88 "/>
</g>
<g class="Name" fill-opacity="0.9" style="display: none;">

</g>
<desc>Width:60 Height:90 Depth:60 Elevation:0</desc>
</g></g><g class="FixedFurniture Shower" fill="#ffffff" stroke="#000000" style="fill-opacity: 1; stroke-opacity: 1;" transform="matrix(1,0,0,1,994.064,630.0585)">
<g class="BoundaryPolygon" fill="none" stroke="none">
<polygon points="0,0 32,0 32,19 0,19"/>
</g>
<g class="InnerPolygon">
<rect height="6.1" width="11.2" x="3.7" y="0.5"/>
<rect height="6.1" width="11.2" x="17.6" y="0.5"/>
<rect height="6.1" width="3.4" x="28.7" y="0.5"/>
<rect height="6.1" width="3.2" x="0.5" y="0.5"/>
<path d="M14.9,8.5c0,1.5-0.4,3.3-1.6,5    c-0.4,0.6-1,1.1-1.1,1.7c-0.2,1.1,0.3,2.8,2.5,3.2c0.5,0.1,1.3,0.1,1.6,0.1h-0.1c0.3,0,1.1,0,1.6-0.1c2.2-0.4,2.7-2.1,2.5-3.2    c-0.1-0.6-0.7-1.1-1.1-1.7c-1.2-1.7-1.6-3.5-1.6-5"/>
<path d="M12.2,15.3c0.1,0.2,1.6,1.9,4.2,1.9 c2.4-0.1,3.7-1.7,3.9-1.9"/>
<path d="M14.9,0.5h2.7v8c-0.9,0-1.8,0-2.7,0l0,0 C14.9,5.9,14.9,3.2,14.9,0.5z"/>
</g>
<g class="Indicator">
<path d="M3.7,3.6C5,3.1,5.2,3,5.2,3 c0,1.1,0,0,0,1.1C5.2,4.1,5.1,4.1,3.7,3.6"/>
<path d="M28.7,3.6 C27.4,3.1,27.2,3,27.2,3c0,1.1,0,0,0,1.1C27.2,4.1,27.3,4.1,28.7,3.6"/>
</g>
<desc>Width:32 Height:97 Depth:19 Elevation:135</desc>
</g><g class="FixedFurniture BaseCabinet" fill="#ffffff" stroke="#000000" style="fill-opacity: 1; stroke-opacity: 1;" transform="matrix(-1,0,0,-1,984.84,619.0585)">
<g class="BoundaryPolygon">
<polygon points="0.00,0.00 142.80,0.00 142.80,60.00 0.00,60.00 "/>
</g>
<g class="Direction" fill-opacity="0.9" style="display: none;">
<polygon fill="#444444" points="76.18,55.20 76.18,44.58 73.17,44.58 73.17,55.20 69.37,55.20 74.67,60.00 79.98,55.20 76.18,55.20 "/>
</g>
<g class="Name" fill-opacity="0.9" style="display: none;">

</g>
<desc>Width:60 Height:90 Depth:60 Elevation:0</desc>
</g><g class="FixedFurnitureSet" fill="#ffffff" id="FixedFurnitureSet" stroke="#000000" style="fill-opacity: 0.4; stroke-opacity: 0.4;" transform="matrix(0,1,-1,0,1044.8389,273.3125)"><g class="FixedFurniture Closet" fill="#ffffff" stroke="#000000" style="fill-opacity: 1; stroke-opacity: 1;" transform="matrix(1,0,0,1,0,0)">
<g class="BoundaryPolygon">
<polygon points="0.00,0.00 58.51,0.00 58.51,60.00 0.00,60.00 "/>
</g>
<g class="Direction" fill-opacity="0.9" style="display: none;">
<polygon fill="#444444" points="30.72,54.70 30.72,44.08 27.72,44.08 27.72,54.70 23.91,54.70 29.22,60.00 34.52,54.70 30.72,54.70 "/>
</g>
<g class="Name" fill-opacity="0.9" style="display: none;">

</g>
<desc>Width:60 Height:200 Depth:60 Elevation:0</desc>
</g><g class="FixedFurniture Closet" fill="#ffffff" stroke="#000000" style="fill-opacity: 1; stroke-opacity: 1;" transform="matrix(1,0,0,1,58.5062,0)">
<g class="BoundaryPolygon">
<polygon points="0.00,0.00 58.51,0.00 58.51,60.00 0.00,60.00 "/>
</g>
<g class="Direction" fill-opacity="0.9" style="display: none;">
<polygon fill="#444444" points="30.72,54.70 30.72,44.08 27.72,44.08 27.72,54.70 23.91,54.70 29.22,60.00 34.52,54.70 30.72,54.70 "/>
</g>
<g class="Name" fill-opacity="0.9" style="display: none;">

</g>
<desc>Width:60 Height:200 Depth:60 Elevation:0</desc>
</g></g><g class="Column Rectangle" fill="#000000" id="Column" stroke="none" style="fill-opacity: 1;"><polygon points="1044.84,619.06 1044.84,559.06 984.84,559.06 984.84,619.06 "/></g><g class="FixedFurniture BaseCabinet" fill="#ffffff" stroke="#000000" style="fill-opacity: 1; stroke-opacity: 1;" transform="matrix(0,1,-1,0,1044.8389,390.3287)">
<g class="BoundaryPolygon">
<polygon points="0.00,0.00 168.41,0.00 168.41,60.00 0.00,60.00 "/>
</g>
<g class="Direction" fill-opacity="0.9" style="display: none;">
<polygon fill="#444444" points="89.84,55.20 89.84,44.58 86.83,44.58 86.83,55.20 83.03,55.20 88.33,60.00 93.64,55.20 89.84,55.20 "/>
</g>
<g class="Name" fill-opacity="0.9" style="display: none;">

</g>
<desc>Width:60 Height:90 Depth:60 Elevation:0</desc>
</g><g class="FixedFurniture ElectricalAppliance IntegratedStove" fill="#ffffff" stroke="#000000" style="fill-opacity: 1; stroke-opacity: 1;" transform="matrix(0,1,-1,0,1044.5577,466.5689)">
<g class="BoundaryPolygon" fill="none" stroke="none">
<polygon points="0.00,0.00 64.74,0.00 64.74,60.00 0.00,60.00 "/>
</g>
<g class="InnerPolygon">
<polygon points="2.00,2.00 62.58,2.00 62.58,58.00 2.00,58.00 "/>
</g>
<g class="OuterCircle">
<circle cx="17.26331427411491" cy="16" r="8"/>
<circle cx="47.47411425381601" cy="16" r="8"/>
<circle cx="17.26331427411491" cy="44" r="8"/>
<circle cx="47.47411425381601" cy="44" r="8"/>
</g>
<g class="Direction" fill-opacity="0.9" style="display: none;">
<polygon fill="#444444" points="34.54,55.20 34.54,44.58 31.53,44.58 31.53,55.20 27.72,55.20 33.03,60.00 38.33,55.20 34.54,55.20 "/>
</g>
<g class="Name" fill-opacity="0.9" style="display: none;">

</g>
<desc>Width:60 Height:90 Depth:30 Elevation:0</desc>
</g><g class="FixedFurniture Sink" fill="#ffffff" stroke="#000000" style="fill-opacity: 1; stroke-opacity: 1;" transform="matrix(-1,0,0,-1,945.3989,618.7944)">
<g class="BoundaryPolygon" fill="none" stroke="none">
<polygon points="0.00,0.00 71.35,0.00 71.35,60.00 0.00,60.00 "/>
</g>
<g class="InnerPolygon">
<polygon points="5.95,9.70 65.40,9.70 65.40,54.70 5.95,54.70 "/>
</g>
<g class="OuterDrain" stroke-width="0.8">
<circle cx="35.67485341740157" cy="32.2" r="3.5"/>
</g>
<g class="InnerDrain" stroke-width="0.8">
<circle cx="35.67485341740157" cy="32.2" r="2"/>
</g>
<g class="Faucet">
<polygon points="32.11,5.00 38.11,5.00 38.11,19.00 32.11,19.00 "/>
</g>
<g class="Direction" fill-opacity="0.9" style="display: none;">
<polygon fill="#444444" points="38.06,55.20 38.06,44.58 35.05,44.58 35.05,55.20 31.25,55.20 36.55,60.00 41.86,55.20 38.06,55.20 "/>
</g>
<g class="Name" fill-opacity="0.9" style="display: none;">

</g>
<desc>Width:60 Height:90 Depth:60 Elevation:0</desc>
</g><g class="SelectionControls" fill="#0000ff" stroke="#0000ff" style="display: none;"><g class="rotateControl" style="display: none;"><circle cx="248.0115061223699" cy="1043.9050284289287" r="5" style="stroke : none; fill-opacity: 0.5; cursor:crosshair"/></g><g class="ResizeNControl" style="display: none;"><circle cx="0" cy="0" r="5" style="stroke : none; fill-opacity: 0.5"/></g><g class="ResizeNEControl" style="display: none;"><circle cx="0" cy="0" r="5" style="stroke : none; fill-opacity: 0.5"/></g><g class="ResizeEControl" style="display: none;"><circle cx="0" cy="0" r="5" style="stroke : none; fill-opacity: 0.5"/></g><g class="ResizeSEControl" style="display: none;"><circle cx="0" cy="0" r="5" style="stroke : none; fill-opacity: 0.5"/></g><g class="ResizeSControl" style="display: none;"><circle cx="0" cy="0" r="5" style="stroke : none; fill-opacity: 0.5"/></g><g class="ResizeSWControl" style="display: none;"><circle cx="0" cy="0" r="5" style="stroke : none; fill-opacity: 0.5"/></g><g class="ResizeWControl" style="display: none;"><circle cx="0" cy="0" r="5" style="stroke : none; fill-opacity: 0.5"/></g><g class="ResizeNWControl" style="display: none;"><circle cx="0" cy="0" r="5" style="stroke : none; fill-opacity: 0.5"/></g><g class="removeControl" style="display: none;"><polygon points="227.94,1073.91 268.08,1073.91 268.08,1226.44 227.94,1226.44 " style="stroke : none; fill-opacity: 0.1"/></g><g class="copyPasteControl" style="display: none;"><polygon style="stroke : none; fill-opacity: 0.1"/></g><g class="translateControl" style="display: none;"><polygon points="227.94,1073.91 268.08,1073.91 268.08,1226.44 227.94,1226.44 " style="stroke : none; fill-opacity: 0.1; cursor:move"/></g></g><g class="SelectionControls" fill="#0000ff" stroke="#0000ff" style="display: none;"><polygon fill="none" points="190.59,979.37 328.01,979.37 328.01,1288.51 190.59,1288.51 " stroke="#0000ff" style=""/><g class="rotateControl" style="display: none;"><circle cx="259.300293268366" cy="949.3725784289288" r="5" style="stroke : none; fill-opacity: 0.5; cursor:crosshair"/></g><g class="ResizeNControl" style="display: none;"><circle cx="0" cy="0" r="5" style="stroke : none; fill-opacity: 0.5"/></g><g class="ResizeNEControl" style="display: none;"><circle cx="0" cy="0" r="5" style="stroke : none; fill-opacity: 0.5"/></g><g class="ResizeEControl" style="display: none;"><circle cx="0" cy="0" r="5" style="stroke : none; fill-opacity: 0.5"/></g><g class="ResizeSEControl" style="display: none;"><circle cx="0" cy="0" r="5" style="stroke : none; fill-opacity: 0.5"/></g><g class="ResizeSControl" style="display: none;"><circle cx="0" cy="0" r="5" style="stroke : none; fill-opacity: 0.5"/></g><g class="ResizeSWControl" style="display: none;"><circle cx="0" cy="0" r="5" style="stroke : none; fill-opacity: 0.5"/></g><g class="ResizeWControl" style="display: none;"><circle cx="0" cy="0" r="5" style="stroke : none; fill-opacity: 0.5"/></g><g class="ResizeNWControl" style="display: none;"><circle cx="0" cy="0" r="5" style="stroke : none; fill-opacity: 0.5"/></g><g class="removeControl" style="display: none;"><polygon style="stroke : none; fill-opacity: 0.1"/></g><g class="copyPasteControl" style="display: none;"><polygon style="stroke : none; fill-opacity: 0.1"/></g><g class="translateControl" style="display: none;"><polygon style="stroke : none; fill-opacity: 0.1; cursor:move"/></g></g></g></g></g></svg>