<?xml version="1.0" encoding="utf-8"?>
<svg height="1249.8399658203125" id="temp" version="1.1" viewBox="0 0 2156.3798217773438 1249.8399658203125" width="2156.3798217773438" xmlns="http://www.w3.org/2000/svg" xmlns:xlink="http://www.w3.org/1999/xlink"><defs/><g class="Model v1-1" id="Model"><g class="Floor"><g class="Floorplan Floor-1" id="Floor-1" transform="matrix(1,0,0,1,0,0)"><g class="Space Undefined" fill="#ffffff" id="1c25f514-d2ad-4f03-910c-e19ba69124ae" stroke="#ffffff" style="fill-opacity: 1; stroke-opacity: 1; stroke-width: 1;"><polygon points="287.25,891.46 400.24,891.46 400.24,986.79 287.80,986.79 287.25,891.46 287.25,891.46 "/><g class="Dimension" transform="matrix(1,0,0,1,287.5261,891.4607)"><g class="Visual" style="display: none;" transform="matrix(1,0,0,1,0,0)"><g class="DimensionMark" fill="#000000" id="mark1" stroke="none" style="fill-opacity: 1; pointer-events: visible;" transform="matrix(1,0,0,1,56.2201,0)"><polygon points="-5,5,0,0,5,5"/></g><g class="DimensionMark" fill="#000000" id="mark2" stroke="none" style="fill-opacity: 1; pointer-events: visible;" transform="matrix(1,0,0,1,112.7149,47.6612)"><polygon points="-5,-5,0,0,-5,5"/></g><g class="DimensionMark" fill="#000000" id="mark3" stroke="none" style="fill-opacity: 1; pointer-events: visible;" transform="matrix(1,0,0,1,56.2201,95.3255)"><polygon points="-5,-5,0,0,5,-5"/></g><g class="DimensionMark" fill="#000000" id="mark4" stroke="none" style="fill-opacity: 1; pointer-events: visible;" transform="matrix(1,0,0,1,0,47.6612)"><polygon points="5,5,0,0,5,-5"/></g></g><g class="SpaceDimensionsLabel" transform="matrix(1,0,0,1,56.3574,47.6241)"><g class="TextLabel NameLabel" id="NameLabel" style="display: block;"/><g class="TextLabel DimensionMeasureLabel" id="DimensionMeasureLabel" style="display: none;" transform="matrix(1,0,0,1,-40.5235,79.7969)"/></g></g></g><g class="Space Undefined" fill="#ffffff" id="94e486c9-220a-46d2-ba9a-ecc4b9ce548f" stroke="#ffffff" style="fill-opacity: 1; stroke-opacity: 1; stroke-width: 1;"><polygon points="2134.38,717.14 1505.16,717.14 1505.16,593.47 1504.69,593.47 1504.69,328.47 1505.16,328.47 1505.16,197.25 2134.38,197.25 "/><g class="Dimension" transform="matrix(1,0,0,1,1504.6946,197.251)"><g class="Visual" style="display: none;" transform="matrix(1,0,0,1,0,0)"><g class="DimensionMark" fill="#000000" id="mark1" stroke="none" style="fill-opacity: 1; pointer-events: visible;" transform="matrix(1,0,0,1,314.841,0)"><polygon points="-5,5,0,0,5,5"/></g><g class="DimensionMark" fill="#000000" id="mark2" stroke="none" style="fill-opacity: 1; pointer-events: visible;" transform="matrix(1,0,0,1,629.682,259.9432)"><polygon points="-5,-5,0,0,-5,5"/></g><g class="DimensionMark" fill="#000000" id="mark3" stroke="none" style="fill-opacity: 1; pointer-events: visible;" transform="matrix(1,0,0,1,314.841,519.8865)"><polygon points="-5,-5,0,0,5,-5"/></g><g class="DimensionMark" fill="#000000" id="mark4" stroke="none" style="fill-opacity: 1; pointer-events: visible;" transform="matrix(1,0,0,1,0,259.9432)"><polygon points="5,5,0,0,5,-5"/></g></g><g class="SpaceDimensionsLabel" transform="matrix(1,0,0,1,259.9433,259.9433)"><g class="TextLabel NameLabel" id="NameLabel" style="display: block;"/><g class="TextLabel DimensionMeasureLabel" id="DimensionMeasureLabel" style="display: none;" transform="matrix(1,0,0,1,-40.5313,79.5938)"/></g></g></g><g class="Space Undefined" fill="#ffffff" id="5b1f54ab-2099-4b20-a8ba-7959e24f3124" stroke="#ffffff" style="fill-opacity: 1; stroke-opacity: 1; stroke-width: 1;"><polygon points="1067.72,1119.44 1064.48,1119.44 1064.48,984.56 659.10,984.56 659.10,907.11 650.22,907.11 650.22,713.26 656.80,713.26 656.80,631.55 953.17,631.55 953.17,629.00 1067.72,629.00 "/><g class="Dimension" transform="matrix(1,0,0,1,650.223,631.55)"><g class="Visual" style="display: none;" transform="matrix(1,0,0,1,0,0)"><g class="DimensionMark" fill="#000000" id="mark1" stroke="none" style="fill-opacity: 1; pointer-events: visible;" transform="matrix(1,0,0,1,208.7465,0)"><polygon points="-5,5,0,0,5,5"/></g><g class="DimensionMark" fill="#000000" id="mark2" stroke="none" style="fill-opacity: 1; pointer-events: visible;" transform="matrix(1,0,0,1,417.4929,242.6708)"><polygon points="-5,-5,0,0,-5,5"/></g><g class="DimensionMark" fill="#000000" id="mark3" stroke="none" style="fill-opacity: 1; pointer-events: visible;" transform="matrix(1,0,0,1,208.7465,353.0088)"><polygon points="-5,-5,0,0,5,-5"/></g><g class="DimensionMark" fill="#000000" id="mark4" stroke="none" style="fill-opacity: 1; pointer-events: visible;" transform="matrix(1,0,0,1,0,242.6708)"><polygon points="5,5,0,0,5,-5"/></g></g><g class="SpaceDimensionsLabel" transform="matrix(1,0,0,1,211.3707,176.7265)"><g class="TextLabel NameLabel" id="NameLabel" style="display: block;"/><g class="TextLabel DimensionMeasureLabel" id="DimensionMeasureLabel" style="display: none;" transform="matrix(1,0,0,1,-40.5313,79.5938)"/></g></g></g><g class="Space Undefined" fill="#ffffff" id="210d189c-5b65-4c3a-ac16-b41a1b721756" stroke="#ffffff" style="fill-opacity: 1; stroke-opacity: 1; stroke-width: 1;"><polygon points="642.80,713.26 650.22,713.26 650.22,907.11 645.10,907.11 645.10,984.56 412.54,984.56 412.54,880.02 378.99,880.02 378.99,891.02 401.54,891.02 401.54,984.56 288.81,984.56 288.81,891.02 315.04,891.02 315.04,880.02 288.81,880.02 288.81,631.55 642.80,631.55 "/><g class="Dimension" transform="matrix(1,0,0,1,288.815,631.5517)"><g class="Visual" style="display: none;" transform="matrix(1,0,0,1,0,0)"><g class="DimensionMark" fill="#000000" id="mark1" stroke="none" style="fill-opacity: 1; pointer-events: visible;" transform="matrix(1,0,0,1,180.704,0)"><polygon points="-5,5,0,0,5,5"/></g><g class="DimensionMark" fill="#000000" id="mark2" stroke="none" style="fill-opacity: 1; pointer-events: visible;" transform="matrix(1,0,0,1,361.408,176.5035)"><polygon points="-5,-5,0,0,-5,5"/></g><g class="DimensionMark" fill="#000000" id="mark3" stroke="none" style="fill-opacity: 1; pointer-events: visible;" transform="matrix(1,0,0,1,180.704,353.0071)"><polygon points="-5,-5,0,0,5,-5"/></g><g class="DimensionMark" fill="#000000" id="mark4" stroke="none" style="fill-opacity: 1; pointer-events: visible;" transform="matrix(1,0,0,1,0,176.5035)"><polygon points="5,5,0,0,5,-5"/></g></g><g class="SpaceDimensionsLabel" transform="matrix(1,0,0,1,218.561,142.7197)"><g class="TextLabel NameLabel" id="NameLabel" style="display: block;"/><g class="TextLabel DimensionMeasureLabel" id="DimensionMeasureLabel" style="display: none;" transform="matrix(1,0,0,1,-40.5313,79.5938)"/></g></g></g><g class="Space Undefined" fill="#ffffff" id="1283bc89-368b-4e99-8216-cbecd4648c91" stroke="#ffffff" style="fill-opacity: 1; stroke-opacity: 1; stroke-width: 1;"><polygon points="1456.65,988.94 1285.72,988.94 1285.72,902.76 1283.69,902.76 1283.69,813.78 1286.92,813.78 1286.92,728.72 1456.65,728.72 "/><g class="Dimension" transform="matrix(1,0,0,1,1283.6882,728.7153)"><g class="Visual" style="display: none;" transform="matrix(1,0,0,1,0,0)"><g class="DimensionMark" fill="#000000" id="mark1" stroke="none" style="fill-opacity: 1; pointer-events: visible;" transform="matrix(1,0,0,1,86.4809,0)"><polygon points="-5,5,0,0,5,5"/></g><g class="DimensionMark" fill="#000000" id="mark2" stroke="none" style="fill-opacity: 1; pointer-events: visible;" transform="matrix(1,0,0,1,172.9618,130.1116)"><polygon points="-5,-5,0,0,-5,5"/></g><g class="DimensionMark" fill="#000000" id="mark3" stroke="none" style="fill-opacity: 1; pointer-events: visible;" transform="matrix(1,0,0,1,86.4809,260.2232)"><polygon points="-5,-5,0,0,5,-5"/></g><g class="DimensionMark" fill="#000000" id="mark4" stroke="none" style="fill-opacity: 1; pointer-events: visible;" transform="matrix(1,0,0,1,0,130.1116)"><polygon points="5,5,0,0,5,-5"/></g></g><g class="SpaceDimensionsLabel" transform="matrix(1,0,0,1,87.1565,131.7482)"><g class="TextLabel NameLabel" id="NameLabel" style="display: block;"/><g class="TextLabel DimensionMeasureLabel" id="DimensionMeasureLabel" style="display: none;" transform="matrix(1,0,0,1,-40.5313,79.5938)"/></g></g></g><g class="Space Undefined" fill="#ffffff" id="4dd28e4c-29ac-47ac-83ae-2f5eaf9cd26e" stroke="#ffffff" style="fill-opacity: 1; stroke-opacity: 1; stroke-width: 1;"><polygon points="1215.17,1133.69 1274.41,1133.69 1274.41,1227.84 1067.72,1227.84 1067.72,1133.69 1128.86,1133.69 1128.86,1129.38 1215.17,1129.38 "/><g class="Dimension" transform="matrix(1,0,0,1,1067.7159,1129.3837)"><g class="Visual" style="display: none;" transform="matrix(1,0,0,1,0,0)"><g class="DimensionMark" fill="#000000" id="mark1" stroke="none" style="fill-opacity: 1; pointer-events: visible;" transform="matrix(1,0,0,1,103.3472,0)"><polygon points="-5,5,0,0,5,5"/></g><g class="DimensionMark" fill="#000000" id="mark2" stroke="none" style="fill-opacity: 1; pointer-events: visible;" transform="matrix(1,0,0,1,206.6944,49.2259)"><polygon points="-5,-5,0,0,-5,5"/></g><g class="DimensionMark" fill="#000000" id="mark3" stroke="none" style="fill-opacity: 1; pointer-events: visible;" transform="matrix(1,0,0,1,103.3472,98.4517)"><polygon points="-5,-5,0,0,5,-5"/></g><g class="DimensionMark" fill="#000000" id="mark4" stroke="none" style="fill-opacity: 1; pointer-events: visible;" transform="matrix(1,0,0,1,0,49.2259)"><polygon points="5,5,0,0,5,-5"/></g></g><g class="SpaceDimensionsLabel" transform="matrix(1,0,0,1,85.7607,48.8412)"><g class="TextLabel NameLabel" id="NameLabel" style="display: block;"/><g class="TextLabel DimensionMeasureLabel" id="DimensionMeasureLabel" style="display: none;" transform="matrix(1,0,0,1,-40.5313,79.5938)"/></g></g></g><g class="Space Undefined" fill="#ffffff" id="6f0da8d9-7362-464b-a93e-b24b57f872d1" stroke="#ffffff" style="fill-opacity: 1; stroke-opacity: 1; stroke-width: 1;"><polygon points="1275.92,813.78 1283.69,813.78 1283.69,902.76 1274.72,902.76 1274.72,988.94 1274.41,988.94 1274.41,1119.44 1215.17,1119.44 1215.17,1129.38 1128.86,1129.38 1128.86,1119.44 1067.72,1119.44 1067.72,718.91 1275.92,718.91 "/><g class="Dimension" transform="matrix(1,0,0,1,1067.7159,718.9111)"><g class="Visual" style="display: none;" transform="matrix(1,0,0,1,0,0)"><g class="DimensionMark" fill="#000000" id="mark1" stroke="none" style="fill-opacity: 1; pointer-events: visible;" transform="matrix(1,0,0,1,107.9862,0)"><polygon points="-5,5,0,0,5,5"/></g><g class="DimensionMark" fill="#000000" id="mark2" stroke="none" style="fill-opacity: 1; pointer-events: visible;" transform="matrix(1,0,0,1,207.0074,205.2363)"><polygon points="-5,-5,0,0,-5,5"/></g><g class="DimensionMark" fill="#000000" id="mark3" stroke="none" style="fill-opacity: 1; pointer-events: visible;" transform="matrix(1,0,0,1,107.9862,410.4726)"><polygon points="-5,-5,0,0,5,-5"/></g><g class="DimensionMark" fill="#000000" id="mark4" stroke="none" style="fill-opacity: 1; pointer-events: visible;" transform="matrix(1,0,0,1,0,205.2363)"><polygon points="5,5,0,0,5,-5"/></g></g><g class="SpaceDimensionsLabel" transform="matrix(1,0,0,1,108.4079,135.4045)"><g class="TextLabel NameLabel" id="NameLabel" style="display: block;"/><g class="TextLabel DimensionMeasureLabel" id="DimensionMeasureLabel" style="display: none;" transform="matrix(1,0,0,1,-40.5313,79.5938)"/></g></g></g><g class="Space Undefined" fill="#ffffff" id="1ab8fd89-a81e-456b-a90d-1dfbc5b66bce" stroke="#ffffff" style="fill-opacity: 1; stroke-opacity: 1; stroke-width: 1;"><polygon points="1491.16,328.47 1504.69,328.47 1504.69,593.47 1491.16,593.47 1491.16,717.14 1456.65,717.14 1456.65,717.72 1275.92,717.72 1275.92,718.91 1067.72,718.91 1067.72,629.00 953.17,629.00 953.17,520.85 952.01,520.85 952.01,417.15 954.53,417.15 954.53,197.25 1491.16,197.25 "/><g class="Dimension" transform="matrix(1,0,0,1,952.0082,197.251)"><g class="Visual" style="display: none;" transform="matrix(1,0,0,1,0,0)"><g class="DimensionMark" fill="#000000" id="mark1" stroke="none" style="fill-opacity: 1; pointer-events: visible;" transform="matrix(1,0,0,1,276.3432,0)"><polygon points="-5,5,0,0,5,5"/></g><g class="DimensionMark" fill="#000000" id="mark2" stroke="none" style="fill-opacity: 1; pointer-events: visible;" transform="matrix(1,0,0,1,552.6864,260.8301)"><polygon points="-5,-5,0,0,-5,5"/></g><g class="DimensionMark" fill="#000000" id="mark3" stroke="none" style="fill-opacity: 1; pointer-events: visible;" transform="matrix(1,0,0,1,276.3432,521.6601)"><polygon points="-5,-5,0,0,5,-5"/></g><g class="DimensionMark" fill="#000000" id="mark4" stroke="none" style="fill-opacity: 1; pointer-events: visible;" transform="matrix(1,0,0,1,0,260.8301)"><polygon points="5,5,0,0,5,-5"/></g></g><g class="SpaceDimensionsLabel" transform="matrix(1,0,0,1,298.0187,254.2074)"><g class="TextLabel NameLabel" id="NameLabel" style="display: block;"/><g class="TextLabel DimensionMeasureLabel" id="DimensionMeasureLabel" style="display: none;" transform="matrix(1,0,0,1,-40.5313,79.5938)"/></g></g></g><g class="Space Undefined" fill="#ffffff" id="1be99a9c-acd2-4c64-ac53-6c0aa5c97dcd" stroke="#ffffff" style="fill-opacity: 1; stroke-opacity: 1; stroke-width: 1;"><polygon points="940.53,392.33 823.09,392.33 823.09,406.33 940.53,406.33 940.53,417.15 952.01,417.15 952.01,520.85 941.56,520.85 941.56,619.01 288.81,619.01 289.36,197.25 708.71,197.25 708.71,406.33 744.15,406.33 744.15,392.33 723.69,392.33 723.69,197.25 940.53,197.25 "/><g class="Dimension" transform="matrix(1,0,0,1,289.0764,197.251)"><g class="Visual" style="display: none;" transform="matrix(1,0,0,1,0,0)"><g class="DimensionMark" fill="#000000" id="mark1" stroke="none" style="fill-opacity: 1; pointer-events: visible;" transform="matrix(1,0,0,1,331.3352,0)"><polygon points="-5,5,0,0,5,5"/></g><g class="DimensionMark" fill="#000000" id="mark2" stroke="none" style="fill-opacity: 1; pointer-events: visible;" transform="matrix(1,0,0,1,662.9318,219.9016)"><polygon points="-5,-5,0,0,-5,5"/></g><g class="DimensionMark" fill="#000000" id="mark3" stroke="none" style="fill-opacity: 1; pointer-events: visible;" transform="matrix(1,0,0,1,331.3352,421.7626)"><polygon points="-5,-5,0,0,5,-5"/></g><g class="DimensionMark" fill="#000000" id="mark4" stroke="none" style="fill-opacity: 1; pointer-events: visible;" transform="matrix(1,0,0,1,0,219.9016)"><polygon points="5,5,0,0,5,-5"/></g></g><g class="SpaceDimensionsLabel" transform="matrix(1,0,0,1,209.7962,211.7051)"><g class="TextLabel NameLabel" id="NameLabel" style="display: block;"/><g class="TextLabel DimensionMeasureLabel" id="DimensionMeasureLabel" style="display: none;" transform="matrix(1,0,0,1,-40.5313,79.5938)"/></g></g></g><g class="Space Undefined" fill="#ffffff" id="38e65657-5dae-45f7-8744-59a12ddfcfdd" stroke="#ffffff" style="fill-opacity: 1; stroke-opacity: 1; stroke-width: 1;"><polygon points="723.07,198.58 723.07,390.66 941.02,390.66 941.02,197.84 721.58,197.84 723.07,198.58 "/><g class="Dimension" transform="matrix(1,0,0,1,723.07,197.8406)"><g class="Visual" style="display: none;" transform="matrix(1,0,0,1,0,0)"><g class="DimensionMark" fill="#000000" id="mark1" stroke="none" style="fill-opacity: 1; pointer-events: visible;" transform="matrix(1,0,0,1,108.2319,0)"><polygon points="-5,5,0,0,5,5"/></g><g class="DimensionMark" fill="#000000" id="mark2" stroke="none" style="fill-opacity: 1; pointer-events: visible;" transform="matrix(1,0,0,1,217.9524,96.408)"><polygon points="-5,-5,0,0,-5,5"/></g><g class="DimensionMark" fill="#000000" id="mark3" stroke="none" style="fill-opacity: 1; pointer-events: visible;" transform="matrix(1,0,0,1,108.2319,192.816)"><polygon points="-5,-5,0,0,5,-5"/></g><g class="DimensionMark" fill="#000000" id="mark4" stroke="none" style="fill-opacity: 1; pointer-events: visible;" transform="matrix(1,0,0,1,0,96.408)"><polygon points="5,5,0,0,5,-5"/></g></g><g class="SpaceDimensionsLabel" transform="matrix(1,0,0,1,108.9748,96.4067)"><g class="TextLabel NameLabel" id="NameLabel" style="display: block;"/><g class="TextLabel DimensionMeasureLabel" id="DimensionMeasureLabel" style="display: none;" transform="matrix(1,0,0,1,-40.5313,79.5938)"/></g></g></g><g class="Wall External" fill="#000000" id="Wall" stroke="#000000" style="fill-opacity: 1; stroke-opacity: 1; stroke-width: 1;"><polygon points="289.36,197.25 2134.38,197.25 2156.38,177.25 267.38,177.25 "/></g><g class="Wall External" fill="#000000" id="Wall" stroke="#000000" style="fill-opacity: 1; stroke-opacity: 1; stroke-width: 1;"><polygon points="2134.38,197.25 2134.38,717.14 2156.38,739.14 2156.38,177.25 "/><g class="Window Regular" fill="#f0f0ff" id="Window" stroke="#000000" style="fill-opacity: 1; stroke-width: 1; stroke-opacity: 1;"><polygon points="2134.38,330.75 2134.38,576.21 2156.38,576.21 2156.38,330.75 "/><g class="Glass" id="Glass"><polygon points="2134.38,330.75 2134.38,576.21 2156.38,576.21 2156.38,330.75 "/></g><g class="Panel" id="Panel"><line x1="2145.3798828125" x2="2145.3798828125" y1="338.25" y2="568.7100219726562"/><line x1="2134.3798828125" x2="2156.3798828125" y1="338.25" y2="338.25"/><line x1="2134.3798828125" x2="2156.3798828125" y1="568.7100219726562" y2="568.7100219726562"/></g></g></g><g class="Wall External" fill="#000000" id="Wall" stroke="#000000" style="fill-opacity: 1; stroke-opacity: 1; stroke-width: 1;"><polygon points="2134.38,717.14 1456.65,717.14 1478.65,739.14 2156.38,739.14 "/></g><g class="Wall External" fill="#000000" id="Wall" stroke="#000000" style="fill-opacity: 1; stroke-opacity: 1; stroke-width: 1;"><polygon points="1456.65,717.14 1456.65,988.94 1478.65,1010.94 1478.65,739.14 "/></g><g class="Wall External" fill="#000000" id="Wall" stroke="#000000" style="fill-opacity: 1; stroke-opacity: 1; stroke-width: 1;"><polygon points="1456.65,988.94 1274.41,988.94 1296.41,1010.94 1478.65,1010.94 "/></g><g class="Wall External" fill="#000000" id="Wall" stroke="#000000" style="fill-opacity: 1; stroke-opacity: 1; stroke-width: 1;"><polygon points="1274.41,988.94 1274.41,1227.84 1296.41,1249.84 1296.41,1010.94 "/></g><g class="Wall External" fill="#000000" id="Wall" stroke="#000000" style="fill-opacity: 1; stroke-opacity: 1; stroke-width: 1;"><polygon points="1274.41,1227.84 1064.48,1227.84 1042.48,1249.84 1296.41,1249.84 "/><g class="Door None Beside" fill="#ffffff" id="Door" stroke="#000000" style="fill-opacity: 1; stroke-width: 1; stroke-opacity: 1;"><polygon points="1220.95,1227.84 1124.39,1227.84 1124.39,1249.84 1220.95,1249.84 "/></g></g><g class="Wall External" fill="#000000" id="Wall" stroke="#000000" style="fill-opacity: 1; stroke-opacity: 1; stroke-width: 1;"><polygon points="1064.48,1227.84 1064.48,984.56 1042.48,1006.56 1042.48,1249.84 "/></g><g class="Wall External" fill="#000000" id="Wall" stroke="#000000" style="fill-opacity: 1; stroke-opacity: 1; stroke-width: 1;"><polygon points="1064.48,984.56 288.81,984.56 266.80,1006.56 1042.48,1006.56 "/></g><g class="Wall External" fill="#000000" id="Wall" stroke="#000000" style="fill-opacity: 1; stroke-opacity: 1; stroke-width: 1;"><polygon points="288.81,984.56 289.36,197.25 267.38,177.25 266.80,1006.56 "/><g class="Window Regular" fill="#f0f0ff" id="Window" stroke="#000000" style="fill-opacity: 1; stroke-width: 1; stroke-opacity: 1;"><polygon points="289.11,557.60 289.29,293.53 267.29,293.52 267.11,557.59 "/><g class="Glass" id="Glass"><polygon points="289.11,557.60 289.29,293.53 267.29,293.52 267.11,557.59 "/></g><g class="Panel" id="Panel"><line x1="278.1150982903857" x2="278.2848956060987" y1="550.0950029635129" y2="301.02502267125277"/><line x1="289.1150982903857" x2="267.1150982903857" y1="550.0999773287473" y2="550.0900285982785"/><line x1="289.2848956060987" x2="267.2848956060987" y1="301.0299970364871" y2="301.0199872708621"/></g></g><g class="Window Regular" fill="#f0f0ff" id="Window" stroke="#000000" style="fill-opacity: 1; stroke-width: 1; stroke-opacity: 1;"><polygon points="288.91,851.93 288.99,725.13 266.99,725.11 266.91,851.91 "/><g class="Glass" id="Glass"><polygon points="288.91,851.93 288.99,725.13 266.99,725.11 266.91,851.91 "/></g><g class="Panel" id="Panel"><line x1="277.9147347285951" x2="277.9852591678893" y1="844.4199844023558" y2="732.6199936249881"/><line x1="288.9147347285951" x2="266.9147347285951" y1="844.4299941679808" y2="844.4099746367308"/><line x1="288.9852591678893" x2="266.9852591678893" y1="732.630003390613" y2="732.609983859363"/></g></g></g><g class="Wall" fill="#000000" id="Wall" stroke="#000000" style="fill-opacity: 1; stroke-opacity: 1; stroke-width: 1;"><polygon points="941.56,520.85 941.56,619.01 953.17,631.55 953.17,520.85 "/></g><g class="Wall" fill="#000000" id="Wall" stroke="#000000" style="fill-opacity: 1; stroke-opacity: 1; stroke-width: 1;"><polygon points="941.56,619.01 267.07,619.02 267.07,631.55 953.17,631.55 "/></g><g class="Wall" fill="#000000" id="Wall" stroke="#000000" style="fill-opacity: 1; stroke-opacity: 1; stroke-width: 1;"><polygon points="642.80,619.01 642.80,713.26 656.80,713.26 656.80,619.01 "/></g><g class="Wall" fill="#000000" id="Wall" stroke="#000000" style="fill-opacity: 1; stroke-opacity: 1; stroke-width: 1;"><polygon points="645.10,907.11 645.10,1006.56 659.10,1006.56 659.10,907.11 "/></g><g class="Wall" fill="#000000" id="Wall" stroke="#000000" style="fill-opacity: 1; stroke-opacity: 1; stroke-width: 1;"><polygon points="266.88,891.02 315.04,891.02 315.04,880.02 266.88,880.02 "/></g><g class="Wall" fill="#000000" id="Wall" stroke="#000000" style="fill-opacity: 1; stroke-opacity: 1; stroke-width: 1;"><polygon points="378.99,891.02 401.54,891.02 412.54,880.02 378.99,880.02 "/></g><g class="Wall" fill="#000000" id="Wall" stroke="#000000" style="fill-opacity: 1; stroke-opacity: 1; stroke-width: 1;"><polygon points="401.54,891.02 401.54,1006.56 412.54,1006.56 412.54,880.02 "/></g><g class="Wall" fill="#000000" id="Wall" stroke="#000000" style="fill-opacity: 1; stroke-opacity: 1; stroke-width: 1;"><polygon points="1478.65,717.72 1275.92,717.72 1286.92,728.72 1478.65,728.72 "/></g><g class="Wall" fill="#000000" id="Wall" stroke="#000000" style="fill-opacity: 1; stroke-opacity: 1; stroke-width: 1;"><polygon points="1309.60,785.51 1310.60,785.51 1310.60,774.51 1309.60,774.51 "/></g><g class="Wall" fill="#000000" id="Wall" stroke="#000000" style="fill-opacity: 1; stroke-opacity: 1; stroke-width: 1;"><polygon points="1275.92,717.72 1275.92,813.78 1286.92,813.78 1286.92,728.72 "/></g><g class="Wall" fill="#000000" id="Wall" stroke="#000000" style="fill-opacity: 1; stroke-opacity: 1; stroke-width: 1;"><polygon points="1285.72,1010.94 1285.72,902.76 1274.72,902.76 1274.72,1010.94 "/></g><g class="Wall" fill="#000000" id="Wall" stroke="#000000" style="fill-opacity: 1; stroke-opacity: 1; stroke-width: 1;"><polygon points="1042.48,1133.69 1128.86,1133.69 1128.86,1119.44 1042.48,1119.44 "/></g><g class="Wall" fill="#000000" id="Wall" stroke="#000000" style="fill-opacity: 1; stroke-opacity: 1; stroke-width: 1;"><polygon points="1215.17,1133.69 1296.41,1133.69 1296.41,1119.44 1215.17,1119.44 "/></g><g class="Wall" fill="#000000" id="Wall" stroke="#000000" style="fill-opacity: 1; stroke-opacity: 1; stroke-width: 1;"><polygon points="708.71,177.25 708.71,406.33 723.69,392.33 723.69,177.25 "/></g><g class="Wall" fill="#000000" id="Wall" stroke="#000000" style="fill-opacity: 1; stroke-opacity: 1; stroke-width: 1;"><polygon points="708.71,406.33 744.15,406.33 744.15,392.33 723.69,392.33 "/></g><g class="Wall" fill="#000000" id="Wall" stroke="#000000" style="fill-opacity: 1; stroke-opacity: 1; stroke-width: 1;"><polygon points="823.09,406.33 953.17,406.33 953.17,392.33 823.09,392.33 "/></g><g class="Wall" fill="#000000" id="Wall" stroke="#000000" style="fill-opacity: 1; stroke-opacity: 1; stroke-width: 1;"><polygon points="940.53,177.25 940.53,417.15 954.53,417.15 954.53,177.25 "/></g><g class="Wall" fill="#000000" id="Wall" stroke="#000000" style="fill-opacity: 1; stroke-opacity: 1; stroke-width: 1;"><polygon points="1505.16,739.14 1505.16,593.47 1491.16,593.47 1491.16,739.14 "/></g><g class="Wall" fill="#000000" id="Wall" stroke="#000000" style="fill-opacity: 1; stroke-opacity: 1; stroke-width: 1;"><polygon points="1505.16,328.47 1505.16,177.25 1491.16,177.25 1491.16,328.47 "/></g><g class="FixedFurniture ShowerScreen" fill="#ffffff" stroke="#000000" style="fill-opacity: 1; stroke-opacity: 1;" transform="matrix(-1,0,0,-3.2052,644.6648,961.647)">
<g class="BoundaryPolygon">
<polygon points="0,0 2.5,0 2.5,60 0,60"/>
</g>
<g class="InnerPolygon" stroke-linejoin="round">
<rect height="60" width="2.5"/>
</g>
<desc>Width:2.5 Height:180 Depth:60 Elevation:135</desc>
</g><g class="FixedFurniture BaseCabinet" fill="#ffffff" stroke="#000000" style="fill-opacity: 1; stroke-opacity: 1;" transform="matrix(-1,0,0,-1,1002.5937,985.0727)">
<g class="BoundaryPolygon">
<polygon points="0.00,0.00 344.01,0.00 344.01,61.92 0.00,61.92 "/>
</g>
<g class="Direction" fill-opacity="0.9" style="display: none;">
<polygon fill="#444444" points="183.53,56.96 183.53,46.34 180.52,46.34 180.52,56.96 176.71,56.96 182.02,61.76 187.32,56.96 183.53,56.96 "/>
</g>
<g class="Name" fill-opacity="0.9" style="display: none;">

</g>
<desc>Width:60 Height:90 Depth:60 Elevation:0</desc>
</g><g class="FixedFurniture ElectricalAppliance Refrigerator" fill="#ffffff" stroke="#000000" style="fill-opacity: 1; stroke-opacity: 1;" transform="matrix(-1.0055,0,0,-1.0273,1063.4402,984.5588)">
<g class="BoundaryPolygon">
<polygon points="0,0 60,0 60,60 0,60"/>
</g>
<g class="electricitySign" fill="none">
<path d="M0,0,30,37.1v-18L60,56.3"/>
</g>
<g class="Doors">
<rect height="4" width="60" y="56"/>
</g>
<g class="Direction" fill-opacity="0.9" style="display: none;">
<polygon fill="#444444" points="32.009 55.197 32.009 44.581 29 44.581 29 55.197 25.197 55.197 30.5 60 35.803 55.197 32.009 55.197"/>
</g>
<g class="Name" fill-opacity="0.9" style="display: none;">

</g>
<desc>Width:60 Height:170 Depth:60 Elevation:0</desc>
</g><g class="FixedFurniture BaseCabinet" fill="#ffffff" stroke="#000000" style="fill-opacity: 1; stroke-opacity: 1;" transform="matrix(1,0,0,1,656.8017,631.831)">
<g class="BoundaryPolygon">
<polygon points="0.00,0.00 294.91,0.00 294.91,65.80 0.00,65.80 "/>
</g>
<g class="Direction" fill-opacity="0.9" style="display: none;">
<polygon fill="#444444" points="157.33,60.53 157.33,49.91 154.32,49.91 154.32,60.53 150.52,60.53 155.82,65.33 161.13,60.53 157.33,60.53 "/>
</g>
<g class="Name" fill-opacity="0.9" style="display: none;">

</g>
<desc>Width:60 Height:90 Depth:60 Elevation:0</desc>
</g><g class="FixedFurniture ElectricalAppliance IntegratedStove" fill="#ffffff" stroke="#000000" style="fill-opacity: 1; stroke-opacity: 1;" transform="matrix(-1,0,0,-1,967.321,986.3496)">
<g class="BoundaryPolygon" fill="none" stroke="none">
<polygon points="0.00,0.00 62.98,0.00 62.98,65.61 0.00,65.61 "/>
</g>
<g class="InnerPolygon">
<polygon points="2.00,2.00 60.88,2.00 60.88,63.43 2.00,63.43 "/>
</g>
<g class="OuterCircle">
<circle cx="16.793694390203562" cy="17.497118152962837" r="8"/>
<circle cx="46.182659573059794" cy="17.497118152962837" r="8"/>
<circle cx="16.793694390203562" cy="48.11707492064781" r="8"/>
<circle cx="46.182659573059794" cy="48.11707492064781" r="8"/>
</g>
<g class="Direction" fill-opacity="0.9" style="display: none;">
<polygon fill="#444444" points="33.60,60.36 33.60,49.75 30.59,49.75 30.59,60.36 26.78,60.36 32.09,65.16 37.39,60.36 33.60,60.36 "/>
</g>
<g class="Name" fill-opacity="0.9" style="display: none;">

</g>
<desc>Width:60 Height:90 Depth:30 Elevation:0</desc>
</g><g class="FixedFurniture Sink" fill="#ffffff" stroke="#000000" style="fill-opacity: 1; stroke-opacity: 1;" transform="matrix(-1,0,0,-1,838.5101,980.5516)">
<g class="BoundaryPolygon" fill="none" stroke="none">
<polygon points="0.00,0.00 62.57,0.00 62.57,51.26 0.00,51.26 "/>
</g>
<g class="InnerPolygon">
<polygon points="5.21,9.70 57.36,9.70 57.36,46.73 5.21,46.73 "/>
</g>
<g class="OuterDrain" stroke-width="0.8">
<circle cx="31.284826329805895" cy="27.511240447095044" r="3.5"/>
</g>
<g class="InnerDrain" stroke-width="0.8">
<circle cx="31.284826329805895" cy="27.511240447095044" r="2"/>
</g>
<g class="Faucet">
<polygon points="28.16,4.27 34.16,4.27 34.16,18.27 28.16,18.27 "/>
</g>
<g class="Direction" fill-opacity="0.9" style="display: none;">
<polygon fill="#444444" points="33.38,47.16 33.38,36.54 30.37,36.54 30.37,47.16 26.57,47.16 31.87,51.96 37.17,47.16 33.38,47.16 "/>
</g>
<g class="Name" fill-opacity="0.9" style="display: none;">

</g>
<desc>Width:60 Height:90 Depth:60 Elevation:0</desc>
</g><g class="FixedFurniture BaseCabinet" fill="#ffffff" stroke="#000000" style="fill-opacity: 1; stroke-opacity: 1;" transform="matrix(1,0,0,1,1286.9186,728.7154)">
<g class="BoundaryPolygon">
<polygon points="0.00,0.00 169.39,0.00 169.39,59.37 0.00,59.37 "/>
</g>
<g class="Direction" fill-opacity="0.9" style="display: none;">
<polygon fill="#444444" points="90.37,54.62 90.37,44.01 87.36,44.01 87.36,54.62 83.56,54.62 88.86,59.42 94.16,54.62 90.37,54.62 "/>
</g>
<g class="Name" fill-opacity="0.9" style="display: none;">

</g>
<desc>Width:60 Height:90 Depth:60 Elevation:0</desc>
</g><g class="FixedFurniture RoundSink" fill="#ffffff" stroke="#000000" style="fill-opacity: 1; stroke-opacity: 1;" transform="matrix(1.1359,0,0,0.8375,1310.5956,736.8416)">
<g class="BoundaryPolygon" fill="none" stroke="none">
<polygon points="0,0 46,0 46,50 0,50"/>
</g>
<g class="InnerPolygon">
<circle cx="23" cy="27" r="23"/>
</g>
<g class="OuterDrain">
<circle cx="23" cy="27" r="3.5"/>
</g>
<g class="InnerDrain">
<circle cx="23" cy="27" r="2"/>
</g>
<g class="Faucet">
<polygon points="20 0 26 0 26 14 20 14 20 0"/>
</g>
<g class="Name" fill-opacity="0.9" style="display: none;">

</g>
<desc>Width:46 Height:90 Depth:50 Elevation:60</desc>
</g><g class="FixedFurniture Shower" fill="#ffffff" stroke="#000000" style="fill-opacity: 1; stroke-opacity: 1;" transform="matrix(-1,0,0,-1,1431.4635,988.9385)">
<g class="BoundaryPolygon" fill="none" stroke="none">
<polygon points="0,0 32,0 32,19 0,19"/>
</g>
<g class="InnerPolygon">
<rect height="6.1" width="11.2" x="3.7" y="0.5"/>
<rect height="6.1" width="11.2" x="17.6" y="0.5"/>
<rect height="6.1" width="3.4" x="28.7" y="0.5"/>
<rect height="6.1" width="3.2" x="0.5" y="0.5"/>
<path d="M14.9,8.5c0,1.5-0.4,3.3-1.6,5    c-0.4,0.6-1,1.1-1.1,1.7c-0.2,1.1,0.3,2.8,2.5,3.2c0.5,0.1,1.3,0.1,1.6,0.1h-0.1c0.3,0,1.1,0,1.6-0.1c2.2-0.4,2.7-2.1,2.5-3.2    c-0.1-0.6-0.7-1.1-1.1-1.7c-1.2-1.7-1.6-3.5-1.6-5"/>
<path d="M12.2,15.3c0.1,0.2,1.6,1.9,4.2,1.9 c2.4-0.1,3.7-1.7,3.9-1.9"/>
<path d="M14.9,0.5h2.7v8c-0.9,0-1.8,0-2.7,0l0,0 C14.9,5.9,14.9,3.2,14.9,0.5z"/>
</g>
<g class="Indicator">
<path d="M3.7,3.6C5,3.1,5.2,3,5.2,3 c0,1.1,0,0,0,1.1C5.2,4.1,5.1,4.1,3.7,3.6"/>
<path d="M28.7,3.6 C27.4,3.1,27.2,3,27.2,3c0,1.1,0,0,0,1.1C27.2,4.1,27.3,4.1,28.7,3.6"/>
</g>
<desc>Width:32 Height:97 Depth:19 Elevation:135</desc>
</g><g class="FixedFurniture Toilet" fill="#ffffff" stroke="#000000" style="fill-opacity: 1; stroke-opacity: 1;" transform="matrix(-1,0,0,-1,1337.3499,988.9385)">
<g class="BoundaryPolygon" fill="none" stroke="none">
<polygon points="0,0 41,0 41,71 0,71"/>
</g>
<g class="InnerPolygon">
<rect height="17.98" width="39.989" x="0.502" y="0.5"/>
<path d="M40.491,44.237S41.619,70.5,20.907,70.5C-.523,70.5.6,44.237.6,44.237L.5,18.48H40.491Z"/>
<rect height="3.03" width="6.357" x="17.318" y="7.975"/>
</g>
<desc>Width:41 Height:85 Depth:71 Elevation:0</desc>
</g><g class="FixedFurniture ShowerScreenRoundLeft" fill="#ffffff" stroke="#000000" style="fill-opacity: 1; stroke-opacity: 1;" transform="matrix(-0.9962,-0.0872,0.1227,-1.4014,1374.4582,988.9386)">
<g class="BoundaryPolygon" fill="none" stroke="none">
<polygon points="0,0 17,0 17,60 0,60"/>
</g>
<g class="InnerPolygon" stroke-linejoin="round">
<path d="M1.643,60.375h0a2.483,2.483,0,0,0,1.246-.6c12.914-10.5,13.64-28.34,13.64-36.444V0H14.086V23.25C13.8,30.188,14.48,47.542.116,59.094-.407,59.514.972,60.375,1.643,60.375Z"/>
</g>
<desc>Width:17 Height:180 Depth:60 Elevation:135</desc>
</g><g class="FixedFurniture ShowerScreenRoundRight" fill="#ffffff" stroke="#000000" style="fill-opacity: 1; stroke-opacity: 1;" transform="matrix(0.1908,0.9816,-1.1544,0.2244,1457.1569,868.288)">
<g class="BoundaryPolygon" fill="none" stroke="none">
<polygon points="0,0 17,0 17,60 0,60"/>
</g>
<g class="InnerPolygon" stroke-linejoin="round">
<path d="M14.885,60.375h0a2.483,2.483,0,0,1-1.246-.6C.726,49.281,0,31.438,0,23.333V0H2.442V23.25c.291,6.938-.393,24.292,13.971,35.844C16.935,59.514,15.556,60.375,14.885,60.375Z"/>
</g>
<desc>Width:17 Height:180 Depth:60 Elevation:135</desc>
</g></g></g></g></svg>