<?xml version="1.0" encoding="utf-8"?>
<svg height="1444.2299499511719" id="temp" version="1.1" viewBox="0 0 1812.6299743652344 1444.2299499511719" width="1812.6299743652344" xmlns="http://www.w3.org/2000/svg" xmlns:xlink="http://www.w3.org/1999/xlink"><desc>Powered by CubiCasa</desc><defs/><g class="Model v1-1" id="Model"><g class="Floor"><g class="Floorplan Floor-1" id="Floor-1"><g class="Space Outdoor" fill="#ffffff" id="b85e1064-044c-4c31-b267-7c879e419cf1" stroke="#000000" style="fill-opacity: 1; stroke-opacity: 1; stroke-width: 1;"><polygon points="680.65,714.47 507.16,714.47 507.16,391.53 680.65,391.53 680.65,714.47 "/><g class="Dimension" transform="matrix(1,0,0,1,507.1606,391.5269)"><g class="Visual" style="display: none;" transform="matrix(1,0,0,1,0,0)"><g class="DimensionMark" fill="#000000" id="mark1" stroke="none" style="fill-opacity: 1; pointer-events: visible;" transform="matrix(1,0,0,1,86.7423,0)"><polygon points="-5,5,0,0,5,5"/></g><g class="DimensionMark" fill="#000000" id="mark2" stroke="none" style="fill-opacity: 1; pointer-events: visible;" transform="matrix(1,0,0,1,173.4845,161.4732)"><polygon points="-5,-5,0,0,-5,5"/></g><g class="DimensionMark" fill="#000000" id="mark3" stroke="none" style="fill-opacity: 1; pointer-events: visible;" transform="matrix(1,0,0,1,86.7423,322.9464)"><polygon points="-5,-5,0,0,5,-5"/></g><g class="DimensionMark" fill="#000000" id="mark4" stroke="none" style="fill-opacity: 1; pointer-events: visible;" transform="matrix(1,0,0,1,0,161.4732)"><polygon points="5,5,0,0,5,-5"/></g></g><g class="SpaceDimensionsLabel" transform="matrix(1,0,0,1,86.7422,86.7423)"><g class="TextLabel NameLabel" id="NameLabel" style="display: block;"/><g class="TextLabel DimensionMeasureLabel" id="DimensionMeasureLabel" style="display: none;" transform="matrix(1,0,0,1,-56.5078,79.5937)"/></g></g></g><g class="Space Undefined" fill="#ffffff" id="4c773136-c7d5-4561-bca2-430ad8d740ea" stroke="#ffffff" style="fill-opacity: 1; stroke-opacity: 1; stroke-width: 1;"><polygon points="1307.82,973.38 1514.16,971.76 1514.16,1076.37 1015.42,1076.37 1015.42,742.47 1307.82,742.47 "/><g class="Dimension" transform="matrix(1,0,0,1,1015.4203,742.4732)"><g class="Visual" style="display: none;" transform="matrix(1,0,0,1,0,0)"><g class="DimensionMark" fill="#000000" id="mark1" stroke="none" style="fill-opacity: 1; pointer-events: visible;" transform="matrix(1,0,0,1,249.3683,0)"><polygon points="-5,5,0,0,5,5"/></g><g class="DimensionMark" fill="#000000" id="mark2" stroke="none" style="fill-opacity: 1; pointer-events: visible;" transform="matrix(1,0,0,1,498.7366,229.2821)"><polygon points="-5,-5,0,0,-5,5"/></g><g class="DimensionMark" fill="#000000" id="mark3" stroke="none" style="fill-opacity: 1; pointer-events: visible;" transform="matrix(1,0,0,1,249.3683,333.8986)"><polygon points="-5,-5,0,0,5,-5"/></g><g class="DimensionMark" fill="#000000" id="mark4" stroke="none" style="fill-opacity: 1; pointer-events: visible;" transform="matrix(1,0,0,1,0,229.2821)"><polygon points="5,5,0,0,5,-5"/></g></g><g class="SpaceDimensionsLabel" transform="matrix(1,0,0,1,146.0806,187.8179)"><g class="TextLabel NameLabel" id="NameLabel" style="display: block;"/><g class="TextLabel DimensionMeasureLabel" id="DimensionMeasureLabel" style="display: none;" transform="matrix(1,0,0,1,-40.5235,79.4219)"/></g></g></g><g class="Space LivingRoom" fill="#ffffff" id="35a7af57-f229-46e7-bd73-2903f515ab89" stroke="#ffffff" style="fill-opacity: 1; stroke-opacity: 1; stroke-width: 1;"><polygon points="1197.84,618.27 1382.70,618.27 1382.70,728.00 1307.82,727.47 1307.82,742.47 1082.54,742.47 1082.54,727.47 695.65,727.47 695.65,391.53 1197.84,391.53 "/><g class="Dimension" transform="matrix(1,0,0,1,695.6452,391.5269)"><g class="Visual" style="display: none;" transform="matrix(1,0,0,1,0,0)"><g class="DimensionMark" fill="#000000" id="mark1" stroke="none" style="fill-opacity: 1; pointer-events: visible;" transform="matrix(1,0,0,1,343.5263,0)"><polygon points="-5,5,0,0,5,5"/></g><g class="DimensionMark" fill="#000000" id="mark2" stroke="none" style="fill-opacity: 1; pointer-events: visible;" transform="matrix(1,0,0,1,687.0525,226.7441)"><polygon points="-5,-5,0,0,-5,5"/></g><g class="DimensionMark" fill="#000000" id="mark3" stroke="none" style="fill-opacity: 1; pointer-events: visible;" transform="matrix(1,0,0,1,343.5263,335.9464)"><polygon points="-5,-5,0,0,5,-5"/></g><g class="DimensionMark" fill="#000000" id="mark4" stroke="none" style="fill-opacity: 1; pointer-events: visible;" transform="matrix(1,0,0,1,0,226.7441)"><polygon points="5,5,0,0,5,-5"/></g></g><g class="SpaceDimensionsLabel" style="display: block;" transform="matrix(1,0,0,1,244.7028,167.9333)"><g class="TextLabel NameLabel" id="NameLabel" style="display: block;"/><g class="TextLabel DimensionMeasureLabel" id="DimensionMeasureLabel" style="display: none;" transform="matrix(1,0,0,1,-114.5703,80.0781)"/></g></g></g><g class="Space Kitchen" fill="#ffffff" id="cb24f26f-6e06-4452-ba61-66cfcfc698b5" stroke="#ffffff" style="fill-opacity: 1; stroke-opacity: 1; stroke-width: 1;"><polygon points="1798.00,744.00 1797.58,1076.37 1514.16,1076.37 1514.16,971.76 1307.82,973.38 1307.82,971.76 1514.16,971.76 1514.00,743.00 "/><g class="Dimension" transform="matrix(1,0,0,1,1307.8174,743.137)"><g class="Visual" style="display: none;" transform="matrix(1,0,0,1,0,0)"><g class="DimensionMark" fill="#000000" id="mark1" stroke="none" style="fill-opacity: 1; pointer-events: visible;" transform="matrix(1,0,0,1,245.0908,0)"><polygon points="-5,5,0,0,5,5"/></g><g class="DimensionMark" fill="#000000" id="mark2" stroke="none" style="fill-opacity: 1; pointer-events: visible;" transform="matrix(1,0,0,1,489.9731,228.6183)"><polygon points="-5,-5,0,0,-5,5"/></g><g class="DimensionMark" fill="#000000" id="mark3" stroke="none" style="fill-opacity: 1; pointer-events: visible;" transform="matrix(1,0,0,1,245.0908,333.2348)"><polygon points="-5,-5,0,0,5,-5"/></g><g class="DimensionMark" fill="#000000" id="mark4" stroke="none" style="fill-opacity: 1; pointer-events: visible;" transform="matrix(1,0,0,1,0,228.6183)"><polygon points="5,5,0,0,5,-5"/></g></g><g class="SpaceDimensionsLabel" style="display: block;" transform="matrix(1,0,0,1,304.982,174.2589)"><g class="TextLabel NameLabel" id="NameLabel" style="display: block;"/><g class="TextLabel DimensionMeasureLabel" id="DimensionMeasureLabel" style="display: none;" transform="matrix(1,0,0,1,-70.875,80.0782)"/></g></g></g><g class="Space Bedroom" fill="#ffffff" id="b8623e73-ad70-44e8-9b4b-95f26c5ee829" stroke="#ffffff" style="fill-opacity: 1; stroke-opacity: 1; stroke-width: 1;"><polygon points="1797.58,1429.23 1322.82,1429.23 1322.82,1091.37 1797.58,1091.37 "/><g class="Dimension" transform="matrix(1,0,0,1,1322.8174,1091.3718)"><g class="Visual" style="display: none;" transform="matrix(1,0,0,1,0,0)"><g class="DimensionMark" fill="#000000" id="mark1" stroke="none" style="fill-opacity: 1; pointer-events: visible;" transform="matrix(1,0,0,1,237.3811,0)"><polygon points="-5,5,0,0,5,5"/></g><g class="DimensionMark" fill="#000000" id="mark2" stroke="none" style="fill-opacity: 1; pointer-events: visible;" transform="matrix(1,0,0,1,474.7623,168.9301)"><polygon points="-5,-5,0,0,-5,5"/></g><g class="DimensionMark" fill="#000000" id="mark3" stroke="none" style="fill-opacity: 1; pointer-events: visible;" transform="matrix(1,0,0,1,237.3811,337.8602)"><polygon points="-5,-5,0,0,5,-5"/></g><g class="DimensionMark" fill="#000000" id="mark4" stroke="none" style="fill-opacity: 1; pointer-events: visible;" transform="matrix(1,0,0,1,0,168.9301)"><polygon points="5,5,0,0,5,-5"/></g></g><g class="SpaceDimensionsLabel" style="display: block;" transform="matrix(1,0,0,1,222.926,173.2666)"><g class="TextLabel NameLabel" id="NameLabel" style="display: block;"/><g class="TextLabel DimensionMeasureLabel" id="DimensionMeasureLabel" style="display: none;" transform="matrix(1,0,0,1,-113.6563,80.0782)"/></g></g></g><g class="Space Bedroom" fill="#ffffff" id="53101386-65ee-4e13-bbe4-6ca23d6a7d8e" stroke="#ffffff" style="fill-opacity: 1; stroke-opacity: 1; stroke-width: 1;"><polygon points="1798.00,729.00 1514.00,729.00 1514.16,728.20 1439.00,728.19 1397.70,728.00 1397.70,391.53 1797.58,391.53 "/><g class="Dimension" transform="matrix(1,0,0,1,1397.6977,391.5269)"><g class="Visual" style="display: none;" transform="matrix(1,0,0,1,0,0)"><g class="DimensionMark" fill="#000000" id="mark1" stroke="none" style="fill-opacity: 1; pointer-events: visible;" transform="matrix(1,0,0,1,200.1512,0)"><polygon points="-5,5,0,0,5,5"/></g><g class="DimensionMark" fill="#000000" id="mark2" stroke="none" style="fill-opacity: 1; pointer-events: visible;" transform="matrix(1,0,0,1,400.0921,168.7368)"><polygon points="-5,-5,0,0,-5,5"/></g><g class="DimensionMark" fill="#000000" id="mark3" stroke="none" style="fill-opacity: 1; pointer-events: visible;" transform="matrix(1,0,0,1,200.1512,337.4731)"><polygon points="-5,-5,0,0,5,-5"/></g><g class="DimensionMark" fill="#000000" id="mark4" stroke="none" style="fill-opacity: 1; pointer-events: visible;" transform="matrix(1,0,0,1,0,168.7368)"><polygon points="5,5,0,0,5,-5"/></g></g><g class="SpaceDimensionsLabel" style="display: block;" transform="matrix(1,0,0,1,186.0827,161.509)"><g class="TextLabel NameLabel" id="NameLabel" style="display: block;"/><g class="TextLabel DimensionMeasureLabel" id="DimensionMeasureLabel" style="display: none;" transform="matrix(1,0,0,1,-113.6563,80.0782)"/></g></g></g><g class="Space Closet WalkIn" fill="#ffffff" id="bbe6ce44-d9d0-4a74-b9d1-a2153b7a5626" stroke="#ffffff" style="fill-opacity: 1; stroke-opacity: 1; stroke-width: 1;"><polygon points="1382.70,603.27 1214.20,603.27 1214.20,415.95 1268.68,415.95 1268.68,391.53 1382.70,391.53 "/><g class="Dimension" transform="matrix(1,0,0,1,1214.195,391.5269)"><g class="Visual" style="display: none;" transform="matrix(1,0,0,1,0,0)"><g class="DimensionMark" fill="#000000" id="mark1" stroke="none" style="fill-opacity: 1; pointer-events: visible;" transform="matrix(1,0,0,1,84.2513,0)"><polygon points="-5,5,0,0,5,5"/></g><g class="DimensionMark" fill="#000000" id="mark2" stroke="none" style="fill-opacity: 1; pointer-events: visible;" transform="matrix(1,0,0,1,168.5027,105.872)"><polygon points="-5,-5,0,0,-5,5"/></g><g class="DimensionMark" fill="#000000" id="mark3" stroke="none" style="fill-opacity: 1; pointer-events: visible;" transform="matrix(1,0,0,1,84.2513,211.7441)"><polygon points="-5,-5,0,0,5,-5"/></g><g class="DimensionMark" fill="#000000" id="mark4" stroke="none" style="fill-opacity: 1; pointer-events: visible;" transform="matrix(1,0,0,1,0,105.872)"><polygon points="5,5,0,0,5,-5"/></g></g><g class="SpaceDimensionsLabel" style="display: block;" transform="matrix(1,0,0,1,69.0089,117.9494)"><g class="TextLabel NameLabel" id="NameLabel" style="display: block;"/><g class="TextLabel DimensionMeasureLabel" id="DimensionMeasureLabel" style="display: none;" transform="matrix(1,0,0,1,-116.3046,80.0625)"/></g></g></g><g class="Space Undefined" fill="#ffffff" id="040b6522-1327-45d8-aa6f-6c18372107e8" stroke="#ffffff" style="fill-opacity: 1; stroke-opacity: 1; stroke-width: 1;"><polygon points="1382.70,742.79 1397.58,742.79 1473.00,743.00 1473.20,956.76 1322.82,956.76 1322.82,742.53 "/><g class="Dimension" transform="matrix(1,0,0,1,1322.8174,742.789)"><g class="Visual" style="display: none;" transform="matrix(1,0,0,1,0,0)"><g class="DimensionMark" fill="#000000" id="mark1" stroke="none" style="fill-opacity: 1; pointer-events: visible;" transform="matrix(1,0,0,1,75.1897,0)"><polygon points="-5,5,0,0,5,5"/></g><g class="DimensionMark" fill="#000000" id="mark2" stroke="none" style="fill-opacity: 1; pointer-events: visible;" transform="matrix(1,0,0,1,150.2815,106.8516)"><polygon points="-5,-5,0,0,-5,5"/></g><g class="DimensionMark" fill="#000000" id="mark3" stroke="none" style="fill-opacity: 1; pointer-events: visible;" transform="matrix(1,0,0,1,75.1897,213.9663)"><polygon points="-5,-5,0,0,5,-5"/></g><g class="DimensionMark" fill="#000000" id="mark4" stroke="none" style="fill-opacity: 1; pointer-events: visible;" transform="matrix(1,0,0,1,0,106.8516)"><polygon points="5,5,0,0,5,-5"/></g></g><g class="SpaceDimensionsLabel" transform="matrix(1,0,0,1,75.115,107.0066)"><g class="TextLabel NameLabel" id="NameLabel" style="display: block;"/><g class="TextLabel DimensionMeasureLabel" id="DimensionMeasureLabel" style="display: none;" transform="matrix(1,0,0,1,-40.5156,79.9375)"/></g></g></g><g class="Wall External" fill="#000000" id="Wall" stroke="#000000" style="fill-opacity: 1; stroke-opacity: 1; stroke-width: 1;"><polygon points="1797.58,1429.23 1797.58,391.53 1812.58,376.53 1812.58,1444.23 "/><g class="Window Regular" fill="#f0f0ff" id="Window" stroke="#000000" style="fill-opacity: 1; stroke-width: 1; stroke-opacity: 1;"><polygon points="1797.58,1365.09 1797.58,1127.36 1812.58,1127.36 1812.58,1365.09 "/><g class="Glass" id="Glass"><polygon points="1797.58,1365.09 1797.58,1127.36 1812.58,1127.36 1812.58,1365.09 "/></g><g class="Panel" id="Panel"><line x1="1805.0796926313553" x2="1805.0796926313553" y1="1357.5936202515081" y2="1134.8644637598115"/><line x1="1797.5796926313553" x2="1812.5796926313553" y1="1357.5936202515081" y2="1357.5936202515081"/><line x1="1797.5796926313553" x2="1812.5796926313553" y1="1134.8644637598115" y2="1134.8644637598115"/></g></g><g class="Window Regular" fill="#f0f0ff" id="Window" stroke="#000000" style="fill-opacity: 1; stroke-width: 1; stroke-opacity: 1;"><polygon points="1797.58,1043.39 1797.58,803.30 1812.58,803.30 1812.58,1043.39 "/><g class="Glass" id="Glass"><polygon points="1797.58,1043.39 1797.58,803.30 1812.58,803.30 1812.58,1043.39 "/></g><g class="Panel" id="Panel"><line x1="1805.0796926313553" x2="1805.079692631355" y1="1035.8904831085158" y2="810.7958623731207"/><line x1="1797.5796926313553" x2="1812.5796926313553" y1="1035.8904831085158" y2="1035.8904831085158"/><line x1="1797.579692631355" x2="1812.579692631355" y1="810.7958623731207" y2="810.7958623731207"/></g></g><g class="Window Regular" fill="#f0f0ff" id="Window" stroke="#000000" style="fill-opacity: 1; stroke-width: 1; stroke-opacity: 1;"><polygon points="1797.58,670.24 1797.58,430.74 1812.58,430.74 1812.58,670.24 "/><g class="Glass" id="Glass"><polygon points="1797.58,670.24 1797.58,430.74 1812.58,430.74 1812.58,670.24 "/></g><g class="Panel" id="Panel"><line x1="1805.079692631355" x2="1805.079692631355" y1="662.7384986650816" y2="438.235243990611"/><line x1="1797.579692631355" x2="1812.579692631355" y1="662.7384986650816" y2="662.7384986650816"/><line x1="1797.579692631355" x2="1812.579692631355" y1="438.235243990611" y2="438.235243990611"/></g></g></g><g class="Wall External" fill="#000000" id="Wall" stroke="#000000" style="fill-opacity: 1; stroke-opacity: 1; stroke-width: 1;"><polygon points="1797.58,391.53 695.65,391.53 680.65,376.53 1812.58,376.53 "/></g><g class="Wall External" fill="#000000" id="Wall" stroke="#000000" style="fill-opacity: 1; stroke-opacity: 1; stroke-width: 1;"><polygon points="680.65,376.53 680.65,742.47 695.65,727.47 695.65,391.53 "/><g class="Window Regular" fill="#f0f0ff" id="Window" stroke="#000000" style="fill-opacity: 1; stroke-width: 1; stroke-opacity: 1;"><polygon points="680.65,392.78 680.65,618.84 695.65,618.84 695.65,392.78 "/><g class="Glass" id="Glass"><polygon points="680.65,392.78 680.65,618.84 695.65,618.84 695.65,392.78 "/></g><g class="Panel" id="Panel"><line x1="688.1451598197891" x2="688.1451598197891" y1="400.27750367560753" y2="611.3418649811028"/><line x1="680.6451598197891" x2="695.6451598197891" y1="400.27750367560753" y2="400.27750367560753"/><line x1="680.6451598197891" x2="695.6451598197891" y1="611.3418649811028" y2="611.3418649811028"/></g></g><g class="Door Swing Opposite" fill="#ffffff" id="Door" stroke="#000000" style="fill-opacity: 1; stroke-width: 1; stroke-opacity: 1;"><polygon points="680.65,623.71 680.65,706.10 695.65,706.10 695.65,623.71 "/><g class="Panel Left Negative" fill="none" id="Panel" style=""><g class="PanelArea" fill="none" id="PanelArea" stroke="none" style=""><polygon points="680.65,623.71 680.65,706.10 695.65,706.10 695.65,623.71 "/></g><path d="M680.65,623.71 q-82.39,0.00 -82.39,82.39 l82.39,0.00Z"/></g><g class="Panel Right Positive" fill="none" id="Panel" style=""><g class="PanelArea" fill="none" id="PanelArea" stroke="none" style=""><polygon points="680.65,623.71 680.65,706.10 695.65,706.10 695.65,623.71 "/></g><path d="M695.65,623.71 q82.39,0.00 82.39,82.39 l-82.39,0.00Z"/></g></g></g><g class="Wall External" fill="#000000" id="Wall" stroke="#000000" style="fill-opacity: 1; stroke-opacity: 1; stroke-width: 1;"><polygon points="680.65,742.47 1000.42,742.47 1015.42,727.47 695.65,727.47 "/></g><g class="Wall External" fill="#000000" id="Wall" stroke="#000000" style="fill-opacity: 1; stroke-opacity: 1; stroke-width: 1;"><polygon points="1000.42,742.47 1000.42,1091.37 1015.42,1076.37 1015.42,727.47 "/></g><g class="Wall External" fill="#000000" id="Wall" stroke="#000000" style="fill-opacity: 1; stroke-opacity: 1; stroke-width: 1;"><polygon points="1000.42,1091.37 1307.82,1091.37 1322.82,1076.37 1015.42,1076.37 "/><g class="Door Swing Beside" fill="#ffffff" id="Door" stroke="#000000" style="fill-opacity: 1; stroke-width: 1; stroke-opacity: 1;"><polygon points="1213.51,1091.37 1294.60,1091.37 1294.60,1076.37 1213.51,1076.37 "/><g class="Panel Left Negative" fill="none" id="Panel" style=""><g class="PanelArea" fill="none" id="PanelArea" stroke="none" style=""><polygon points="1213.51,1091.37 1294.60,1091.37 1294.60,1076.37 1213.51,1076.37 "/></g><path d="M1213.51,1091.37 q0.00,81.09 81.09,81.09 l0.00,-81.09Z"/></g></g></g><g class="Wall External" fill="#000000" id="Wall" stroke="#000000" style="fill-opacity: 1; stroke-opacity: 1; stroke-width: 1;"><polygon points="1307.82,1091.37 1307.82,1444.23 1322.82,1429.23 1322.82,1076.37 "/></g><g class="Wall External" fill="#000000" id="Wall" stroke="#000000" style="fill-opacity: 1; stroke-opacity: 1; stroke-width: 1;"><polygon points="1322.82,1429.23 1797.58,1429.23 1812.58,1444.23 1307.82,1444.23 "/></g><g class="Wall" fill="#000000" id="Wall" stroke="#000000" style="fill-opacity: 1; stroke-opacity: 1; stroke-width: 1;"><polygon points="1322.82,1076.37 1812.58,1076.37 1812.58,1091.37 1322.82,1091.37 "/><g class="Door Swing Beside" fill="#ffffff" id="Door" stroke="#000000" style="fill-opacity: 1; stroke-width: 1; stroke-opacity: 1;"><polygon points="1339.99,1076.37 1422.64,1076.37 1422.64,1091.37 1339.99,1091.37 "/><g class="Panel Left Positive" fill="none" id="Panel" style=""><g class="PanelArea" fill="none" id="PanelArea" stroke="none" style=""><polygon points="1339.99,1076.37 1422.64,1076.37 1422.64,1091.37 1339.99,1091.37 "/></g><path d="M1422.64,1091.37 q0.00,82.64 -82.64,82.64 l0.00,-82.64Z"/></g></g></g><g class="Wall" fill="#000000" id="Wall" stroke="#000000" style="fill-opacity: 1; stroke-opacity: 1; stroke-width: 1;"><polygon points="1015.42,727.47 1082.54,727.47 1082.54,742.47 1015.42,742.47 "/></g><g class="Wall" fill="#000000" id="Wall" stroke="#000000" style="fill-opacity: 1; stroke-opacity: 1; stroke-width: 1;"><polygon points="1812.58,744.24 1322.82,742.53 1307.82,727.47 1812.63,729.24 "/></g><g class="Wall" fill="#000000" id="Wall" stroke="#000000" style="fill-opacity: 1; stroke-opacity: 1; stroke-width: 1;"><polygon points="1307.82,727.47 1307.82,971.76 1322.82,956.76 1322.82,742.53 "/><g class="Door Swing Beside" fill="#ffffff" id="Door" stroke="#000000" style="fill-opacity: 1; stroke-width: 1; stroke-opacity: 1;"><polygon points="1307.82,886.19 1307.82,950.62 1322.82,950.62 1322.82,886.19 "/><g class="Panel Right Negative" fill="none" id="Panel" style=""><g class="PanelArea" fill="none" id="PanelArea" stroke="none" style=""><polygon points="1307.82,886.19 1307.82,950.62 1322.82,950.62 1322.82,886.19 "/></g><path d="M1307.82,950.62 q-64.43,0.00 -64.43,-64.43 l64.43,0.00Z"/></g></g></g><g class="Wall" fill="#000000" id="Wall" stroke="#000000" style="fill-opacity: 1; stroke-opacity: 1; stroke-width: 1;"><polygon points="1307.82,971.76 1514.16,971.76 1473.20,956.76 1322.82,956.76 "/></g><g class="Wall" fill="#000000" id="Wall" stroke="#000000" style="fill-opacity: 1; stroke-opacity: 1; stroke-width: 1;"><polygon points="1514.16,971.76 1514.16,728.20 1473.20,728.19 1473.20,956.76 "/></g><g class="Wall" fill="#000000" id="Wall" stroke="#000000" style="fill-opacity: 1; stroke-opacity: 1; stroke-width: 1;"><polygon points="1397.70,742.79 1397.70,376.53 1382.70,376.53 1382.70,742.79 "/><g class="Door Swing Beside" fill="#ffffff" id="Door" stroke="#000000" style="fill-opacity: 1; stroke-width: 1; stroke-opacity: 1;"><polygon points="1397.70,714.50 1397.70,624.43 1382.70,624.43 1382.70,714.50 "/><g class="Panel Right Positive" fill="none" id="Panel" style=""><g class="PanelArea" fill="none" id="PanelArea" stroke="none" style=""><polygon points="1397.70,714.50 1397.70,624.43 1382.70,624.43 1382.70,714.50 "/></g><path d="M1382.70,714.50 q-90.07,0.00 -90.07,-90.07 l90.07,0.00Z"/></g></g></g><g class="Wall" fill="#000000" id="Wall" stroke="#000000" style="fill-opacity: 1; stroke-opacity: 1; stroke-width: 1;"><polygon points="1197.84,376.53 1197.84,618.27 1214.20,603.27 1214.20,376.53 "/></g><g class="Wall" fill="#000000" id="Wall" stroke="#000000" style="fill-opacity: 1; stroke-opacity: 1; stroke-width: 1;"><polygon points="1197.84,618.27 1397.70,618.27 1397.70,603.27 1214.20,603.27 "/><g class="Door Swing Beside" fill="#ffffff" id="Door" stroke="#000000" style="fill-opacity: 1; stroke-width: 1; stroke-opacity: 1;"><polygon points="1273.38,618.27 1343.13,618.27 1343.13,603.27 1273.38,603.27 "/><g class="Panel Left Negative" fill="none" id="Panel" style=""><g class="PanelArea" fill="none" id="PanelArea" stroke="none" style=""><polygon points="1273.38,618.27 1343.13,618.27 1343.13,603.27 1273.38,603.27 "/></g><path d="M1273.38,618.27 q0.00,69.74 69.74,69.74 l0.00,-69.74Z"/></g></g></g><g class="Wall" fill="#000000" id="Wall" stroke="#000000" style="fill-opacity: 1; stroke-opacity: 1; stroke-width: 1;"><polygon points="1199.20,415.95 1268.68,415.95 1268.68,389.49 1199.20,389.49 "/></g><g class="Wall" fill="#000000" id="Wall" stroke="#000000" style="fill-opacity: 1; stroke-opacity: 1; stroke-width: 1;"><polygon points="680.65,376.53 492.16,376.53 492.16,391.53 680.65,391.53 "/></g><g class="Railing" fill="#ffffff" id="Railing" stroke="#000000" style="fill-opacity: 1; stroke-opacity: 1; stroke-width: 1;"><polygon points="492.16,391.53 492.16,742.47 507.16,742.47 507.16,391.53 " style="stroke-dasharray: 0;"/></g><g class="Wall" fill="#000000" id="Wall" stroke="#000000" style="fill-opacity: 1; stroke-opacity: 1; stroke-width: 1;"><polygon points="492.16,742.47 680.65,742.47 680.65,714.47 492.16,714.47 "/></g><g class="FixedFurniture Closet" fill="#ffffff" stroke="#000000" style="fill-opacity: 1; stroke-opacity: 1;" transform="matrix(0,-1,1,0,1214.195,603.7052)">
<g class="BoundaryPolygon">
<polygon points="0.00,0.00 187.76,0.00 187.76,54.55 0.00,54.55 "/>
</g>
<g class="Direction" fill-opacity="0.9" style="display: none;">
<polygon fill="#444444" points="98.60,49.73 98.60,39.11 95.59,39.11 95.59,49.73 91.79,49.73 97.09,55.03 102.40,49.73 98.60,49.73 "/>
</g>
<g class="Name" fill-opacity="0.9" style="display: none;">

</g>
<desc>Width:60 Height:200 Depth:60 Elevation:0</desc>
</g><g class="FixedFurniture Closet" fill="#ffffff" stroke="#000000" style="fill-opacity: 1; stroke-opacity: 1;" transform="matrix(0,1,-1,0,1382.6977,391.6609)">
<g class="BoundaryPolygon">
<polygon points="0.00,0.00 211.61,0.00 211.61,33.27 0.00,33.27 "/>
</g>
<g class="Direction" fill-opacity="0.9" style="display: none;">
<polygon fill="#444444" points="111.12,30.33 111.12,19.71 108.11,19.71 108.11,30.33 104.31,30.33 109.61,35.63 114.92,30.33 111.12,30.33 "/>
</g>
<g class="Name" fill-opacity="0.9" style="display: none;">

</g>
<desc>Width:60 Height:200 Depth:60 Elevation:0</desc>
</g><g class="FixedFurnitureSet" fill="#ffffff" id="FixedFurnitureSet" stroke="#000000" style="fill-opacity: 0.4; stroke-opacity: 0.4;" transform="matrix(0,-1,1,0,1397.6977,551.4262)"><g class="FixedFurniture Closet" fill="#ffffff" stroke="#000000" style="fill-opacity: 1; stroke-opacity: 1;" transform="matrix(1,0,0,1,0,0)">
<g class="BoundaryPolygon">
<polygon points="0.00,0.00 53.30,0.00 53.30,67.84 0.00,67.84 "/>
</g>
<g class="Direction" fill-opacity="0.9" style="display: none;">
<polygon fill="#444444" points="27.99,61.84 27.99,51.22 24.98,51.22 24.98,61.84 21.18,61.84 26.48,67.14 31.78,61.84 27.99,61.84 "/>
</g>
<g class="Name" fill-opacity="0.9" style="display: none;">

</g>
<desc>Width:60 Height:200 Depth:60 Elevation:0</desc>
</g><g class="FixedFurniture Closet" fill="#ffffff" stroke="#000000" style="fill-opacity: 1; stroke-opacity: 1;" transform="matrix(1,0,0,1,53.2997,0)">
<g class="BoundaryPolygon">
<polygon points="0.00,0.00 53.30,0.00 53.30,67.84 0.00,67.84 "/>
</g>
<g class="Direction" fill-opacity="0.9" style="display: none;">
<polygon fill="#444444" points="27.99,61.84 27.99,51.22 24.98,51.22 24.98,61.84 21.18,61.84 26.48,67.14 31.78,61.84 27.99,61.84 "/>
</g>
<g class="Name" fill-opacity="0.9" style="display: none;">

</g>
<desc>Width:60 Height:200 Depth:60 Elevation:0</desc>
</g><g class="FixedFurniture Closet" fill="#ffffff" stroke="#000000" style="fill-opacity: 1; stroke-opacity: 1;" transform="matrix(1,0,0,1,106.5993,0)">
<g class="BoundaryPolygon">
<polygon points="0.00,0.00 53.30,0.00 53.30,67.84 0.00,67.84 "/>
</g>
<g class="Direction" fill-opacity="0.9" style="display: none;">
<polygon fill="#444444" points="27.99,61.84 27.99,51.22 24.98,51.22 24.98,61.84 21.18,61.84 26.48,67.14 31.78,61.84 27.99,61.84 "/>
</g>
<g class="Name" fill-opacity="0.9" style="display: none;">

</g>
<desc>Width:60 Height:200 Depth:60 Elevation:0</desc>
</g></g><g class="FixedFurniture Closet" fill="#ffffff" stroke="#000000" style="fill-opacity: 1; stroke-opacity: 1;" transform="matrix(1,0,0,1,1322.8174,742.5843)">
<g class="BoundaryPolygon">
<polygon points="0.00,0.00 33.43,0.00 33.43,60.00 0.00,60.00 "/>
</g>
<g class="Direction" fill-opacity="0.9" style="display: none;">
<polygon fill="#444444" points="17.55,54.70 17.55,44.08 14.54,44.08 14.54,54.70 10.74,54.70 16.04,60.00 21.35,54.70 17.55,54.70 "/>
</g>
<g class="Name" fill-opacity="0.9" style="display: none;">

</g>
<desc>Width:60 Height:200 Depth:60 Elevation:0</desc>
</g><g class="FixedFurniture Shower" fill="#ffffff" stroke="#000000" style="fill-opacity: 1; stroke-opacity: 1;" transform="matrix(0,1,-1,0,1473.201,758.6733)">
<g class="BoundaryPolygon" fill="none" stroke="none">
<polygon points="0,0 32,0 32,19 0,19"/>
</g>
<g class="InnerPolygon">
<rect height="6.1" width="11.2" x="3.7" y="0.5"/>
<rect height="6.1" width="11.2" x="17.6" y="0.5"/>
<rect height="6.1" width="3.4" x="28.7" y="0.5"/>
<rect height="6.1" width="3.2" x="0.5" y="0.5"/>
<path d="M14.9,8.5c0,1.5-0.4,3.3-1.6,5    c-0.4,0.6-1,1.1-1.1,1.7c-0.2,1.1,0.3,2.8,2.5,3.2c0.5,0.1,1.3,0.1,1.6,0.1h-0.1c0.3,0,1.1,0,1.6-0.1c2.2-0.4,2.7-2.1,2.5-3.2    c-0.1-0.6-0.7-1.1-1.1-1.7c-1.2-1.7-1.6-3.5-1.6-5"/>
<path d="M12.2,15.3c0.1,0.2,1.6,1.9,4.2,1.9 c2.4-0.1,3.7-1.7,3.9-1.9"/>
<path d="M14.9,0.5h2.7v8c-0.9,0-1.8,0-2.7,0l0,0 C14.9,5.9,14.9,3.2,14.9,0.5z"/>
</g>
<g class="Indicator">
<path d="M3.7,3.6C5,3.1,5.2,3,5.2,3 c0,1.1,0,0,0,1.1C5.2,4.1,5.1,4.1,3.7,3.6"/>
<path d="M28.7,3.6 C27.4,3.1,27.2,3,27.2,3c0,1.1,0,0,0,1.1C27.2,4.1,27.3,4.1,28.7,3.6"/>
</g>
<desc>Width:32 Height:97 Depth:19 Elevation:135</desc>
</g><g class="FixedFurniture ShowerScreen" fill="#ffffff" stroke="#000000" style="fill-opacity: 1; stroke-opacity: 1;" transform="matrix(0,1,-1,0,1473.2003,816.3706)">
<g class="BoundaryPolygon">
<polygon points="0,0 2.5,0 2.5,60 0,60"/>
</g>
<g class="InnerPolygon" stroke-linejoin="round">
<rect height="60" width="2.5"/>
</g>
<desc>Width:2.5 Height:180 Depth:60 Elevation:135</desc>
</g><g class="FixedFurnitureSet" fill="#ffffff" id="FixedFurnitureSet" stroke="#000000" style="fill-opacity: 0.4; stroke-opacity: 0.4;" transform="matrix(0,1,-1,0,1473.1999,818.8706)"><g class="FixedFurniture BaseCabinet" fill="#ffffff" stroke="#000000" style="fill-opacity: 1; stroke-opacity: 1;" transform="matrix(1,0,0,1,0,0)">
<g class="BoundaryPolygon">
<polygon points="0.00,0.00 47.39,0.00 47.39,33.77 0.00,33.77 "/>
</g>
<g class="Direction" fill-opacity="0.9" style="display: none;">
<polygon fill="#444444" points="25.28,31.06 25.28,20.45 22.27,20.45 22.27,31.06 18.47,31.06 23.77,35.87 29.08,31.06 25.28,31.06 "/>
</g>
<g class="Name" fill-opacity="0.9" style="display: none;">

</g>
<desc>Width:60 Height:5 Depth:60 Elevation:105</desc>
</g><g class="FixedFurniture Sink" fill="#ffffff" stroke="#000000" style="fill-opacity: 1; stroke-opacity: 1;" transform="matrix(1,0,0,1,0,0)">
<g class="BoundaryPolygon" fill="none" stroke="none">
<polygon points="0.00,0.00 47.39,0.00 47.39,33.77 0.00,33.77 "/>
</g>
<g class="InnerPolygon">
<polygon points="3.95,9.70 43.44,9.70 43.44,30.78 3.95,30.78 "/>
</g>
<g class="OuterDrain" stroke-width="0.8">
<circle cx="23.69700572712876" cy="18.121324516348125" r="3.5"/>
</g>
<g class="InnerDrain" stroke-width="0.8">
<circle cx="23.69700572712876" cy="18.121324516348125" r="2"/>
</g>
<g class="Faucet">
<polygon points="21.33,2.81 27.33,2.81 27.33,16.81 21.33,16.81 "/>
</g>
<g class="Direction" fill-opacity="0.9" style="display: none;">
<polygon fill="#444444" points="25.28,31.06 25.28,20.45 22.27,20.45 22.27,31.06 18.47,31.06 23.77,35.87 29.08,31.06 25.28,31.06 "/>
</g>
<g class="Name" fill-opacity="0.9" style="display: none;">

</g>
<desc>Width:60 Height:90 Depth:60 Elevation:0</desc>
</g></g><g class="FixedFurniture Toilet" fill="#ffffff" stroke="#000000" style="fill-opacity: 1; stroke-opacity: 1;" transform="matrix(0,1,-1,0,1473.1992,870.0106)">
<g class="BoundaryPolygon" fill="none" stroke="none">
<polygon points="0,0 41,0 41,71 0,71"/>
</g>
<g class="InnerPolygon">
<rect height="17.98" width="39.989" x="0.502" y="0.5"/>
<path d="M40.491,44.237S41.619,70.5,20.907,70.5C-.523,70.5.6,44.237.6,44.237L.5,18.48H40.491Z"/>
<rect height="3.03" width="6.357" x="17.318" y="7.975"/>
</g>
<desc>Width:41 Height:85 Depth:71 Elevation:0</desc>
</g><g class="FixedFurniture ElectricalAppliance WashingMachine" fill="#ffffff" stroke="#000000" style="fill-opacity: 1; stroke-opacity: 1;" transform="matrix(0,0.682,-1,0,1473.1986,915.8353)">
<g class="BoundaryPolygon">
<polygon points="0,0 60,0 60,60 0,60"/>
</g>
<g class="electricitySign" fill="none">
<path d="M0,0,30,41V20.8L60,60"/>
</g>
<g class="Handle">
<path d="M2.7,59.4H57.3"/>
</g>
<g class="Direction" fill-opacity="0.9" style="display: none;">
<polygon fill="#444444" points="32.009 55.197 32.009 44.581 29 44.581 29 55.197 25.197 55.197 30.5 60 35.803 55.197 32.009 55.197"/>
</g>
<g class="Name" fill-opacity="0.9" style="display: none;">

</g>
<desc>Width:60 Height:90 Depth:60 Elevation:0</desc>
</g><g class="FixedFurnitureSet" fill="#ffffff" id="FixedFurnitureSet" stroke="#000000" style="fill-opacity: 0.4; stroke-opacity: 0.4;" transform="matrix(0,-1,1,0,1015.514,911.7901)"><g class="FixedFurniture Closet" fill="#ffffff" stroke="#000000" style="fill-opacity: 1; stroke-opacity: 1;" transform="matrix(1,0,0,1,0,0)">
<g class="BoundaryPolygon">
<polygon points="0.00,0.00 56.44,0.00 56.44,66.40 0.00,66.40 "/>
</g>
<g class="Direction" fill-opacity="0.9" style="display: none;">
<polygon fill="#444444" points="29.64,60.53 29.64,49.92 26.63,49.92 26.63,60.53 22.83,60.53 28.13,65.84 33.43,60.53 29.64,60.53 "/>
</g>
<g class="Name" fill-opacity="0.9" style="display: none;">

</g>
<desc>Width:60 Height:200 Depth:60 Elevation:0</desc>
</g><g class="FixedFurniture Closet" fill="#ffffff" stroke="#000000" style="fill-opacity: 1; stroke-opacity: 1;" transform="matrix(1,0,0,1,56.4385,0)">
<g class="BoundaryPolygon">
<polygon points="0.00,0.00 56.44,0.00 56.44,66.40 0.00,66.40 "/>
</g>
<g class="Direction" fill-opacity="0.9" style="display: none;">
<polygon fill="#444444" points="29.64,60.53 29.64,49.92 26.63,49.92 26.63,60.53 22.83,60.53 28.13,65.84 33.43,60.53 29.64,60.53 "/>
</g>
<g class="Name" fill-opacity="0.9" style="display: none;">

</g>
<desc>Width:60 Height:200 Depth:60 Elevation:0</desc>
</g><g class="FixedFurniture Closet" fill="#ffffff" stroke="#000000" style="fill-opacity: 1; stroke-opacity: 1;" transform="matrix(1,0,0,1,112.8769,0)">
<g class="BoundaryPolygon">
<polygon points="0.00,0.00 56.44,0.00 56.44,66.40 0.00,66.40 "/>
</g>
<g class="Direction" fill-opacity="0.9" style="display: none;">
<polygon fill="#444444" points="29.64,60.53 29.64,49.92 26.63,49.92 26.63,60.53 22.83,60.53 28.13,65.84 33.43,60.53 29.64,60.53 "/>
</g>
<g class="Name" fill-opacity="0.9" style="display: none;">

</g>
<desc>Width:60 Height:200 Depth:60 Elevation:0</desc>
</g></g><g class="FixedFurniture CoatCloset" fill="#ffffff" stroke="#000000" style="fill-opacity: 1; stroke-opacity: 1;" transform="matrix(0,-1,1,0,1015.7172,1071.3675)">
<g class="BoundaryPolygon">
<polygon points="0.00,0.00 97.98,0.00 97.98,40.60 0.00,40.60 "/>
</g>

<g class="Direction" fill-opacity="0.9" style="display: none;">
<polygon fill="#444444" points="50.22,36.89 50.22,26.28 47.21,26.28 47.21,36.89 43.41,36.89 48.71,42.20 54.02,36.89 50.22,36.89 "/>
</g>
<g class="Name" fill-opacity="0.9" style="display: none;">

</g>
<desc>Width:120 Height:200 Depth:60 Elevation:0</desc>
</g><g class="FixedFurniture Closet" fill="#ffffff" stroke="#000000" style="fill-opacity: 1; stroke-opacity: 1;" transform="matrix(1,0,0,1,1778.2497,744.4501)">
<g class="BoundaryPolygon">
<polygon points="0.00,0.00 19.33,0.00 19.33,60.00 0.00,60.00 "/>
</g>
<g class="Direction" fill-opacity="0.9" style="display: none;">
<polygon fill="#444444" points="10.15,54.70 10.15,44.08 7.14,44.08 7.14,54.70 3.34,54.70 8.64,60.00 13.94,54.70 10.15,54.70 "/>
</g>
<g class="Name" fill-opacity="0.9" style="display: none;">

</g>
<desc>Width:60 Height:200 Depth:60 Elevation:0</desc>
</g><g class="FixedFurniture ElectricalAppliance Refrigerator" fill="#ffffff" stroke="#000000" style="fill-opacity: 1; stroke-opacity: 1;" transform="matrix(1,0,0,1,1718.2497,744.0652)">
<g class="BoundaryPolygon">
<polygon points="0,0 60,0 60,60 0,60"/>
</g>
<g class="electricitySign" fill="none">
<path d="M0,0,30,37.1v-18L60,56.3"/>
</g>
<g class="Doors">
<rect height="4" width="60" y="56"/>
</g>
<g class="Direction" fill-opacity="0.9" style="display: none;">
<polygon fill="#444444" points="32.009 55.197 32.009 44.581 29 44.581 29 55.197 25.197 55.197 30.5 60 35.803 55.197 32.009 55.197"/>
</g>
<g class="Name" fill-opacity="0.9" style="display: none;">

</g>
<desc>Width:60 Height:170 Depth:60 Elevation:0</desc>
</g><g class="FixedFurniture BaseCabinet" fill="#ffffff" stroke="#000000" style="fill-opacity: 1; stroke-opacity: 1;" transform="matrix(1,0,0,1,1718.2497,744.0652)"><desc>Width:60 Height:90 Depth:60 Elevation:0</desc><g class="BoundaryPolygon"><polygon points="0.00,0.00 -204.09,0.00 -204.09,218.13 -141.73,218.13 -141.73,60.05 0.00,60.05 "/></g></g><g class="FixedFurniture ElectricalAppliance IntegratedStove" fill="#ffffff" stroke="#000000" style="fill-opacity: 1; stroke-opacity: 1;" transform="matrix(1,0,0,1,1609.6669,744.1152)">
<g class="BoundaryPolygon" fill="none" stroke="none">
<polygon points="0 0 60 0 60 60 0 60"/>
</g>
<g class="InnerPolygon">
<polygon points="2,2 58,2 58,58 2,58"/>
</g>
<g class="OuterCircle">
<circle cx="16" cy="16" r="8"/>
<circle cx="44" cy="16" r="8"/>
<circle cx="16" cy="44" r="8"/>
<circle cx="44" cy="44" r="8"/>
</g>
<g class="Direction" fill-opacity="0.9" style="display: none;">
<polygon fill="#444444" points="32.009 55.197 32.009 44.581 29 44.581 29 55.197 25.197 55.197 30.5 60 35.803 55.197 32.009 55.197"/>
</g>
<g class="Name" fill-opacity="0.9" style="display: none;">

</g>
<desc>Width:60 Height:90 Depth:30 Elevation:0</desc>
</g><g class="FixedFurniture DoubleSink" fill="#ffffff" stroke="#000000" style="fill-opacity: 1; stroke-opacity: 1;" transform="matrix(0,-1,1,0,1514.1571,895.4097)">
<g class="BoundaryPolygon" fill="none" stroke="none">
<polygon points="0.00,0.00 62.71,0.00 62.71,61.82 0.00,61.82 "/>
</g>
<g class="InnerPolygonLeft">
<polygon points="4.48,9.90 30.01,9.90 30.01,56.57 4.48,56.57 "/>
</g>
<g class="InnerPolygonRight">
<polygon points="32.70,10.00 58.23,10.00 58.23,56.67 32.70,56.67 "/>
</g>
<g class="OuterDrain" stroke-width="0.8">
<circle cx="17.647476939841592" cy="33.48762478042733" r="3.5"/>
<circle cx="44.969712811169956" cy="33.48762478042733" r="3.5"/>
</g>
<g class="InnerDrain" stroke-width="0.8">
<circle cx="17.647476939841592" cy="33.48762478042733" r="2"/>
<circle cx="44.969712811169956" cy="33.48762478042733" r="2"/>
</g>
<g class="Faucet">
<polygon points="28.67,5.05 34.67,5.05 34.67,19.05 28.67,19.05 "/>
</g>
<g class="Direction" fill-opacity="0.9" style="display: none;">
<polygon fill="#444444" points="32.71,56.36 32.71,45.74 29.70,45.74 29.70,56.36 25.89,56.36 31.20,61.66 36.50,56.36 32.71,56.36 "/>
</g>
<g class="Name" fill-opacity="0.9" style="display: none;">

</g>
<desc>Width:70 Height:90 Depth:60 Elevation:0</desc>
</g><g class="SelectionControls" fill="#0000ff" stroke="#0000ff" style="display: none;"><g class="rotateControl" style="display: none;"><circle cx="1306.8679952825535" cy="446.2418898629286" r="5" style="stroke : none; fill-opacity: 0.5; cursor:crosshair"/></g><g class="ResizeNControl" style="display: none;"><circle cx="0" cy="0" r="5" style="stroke : none; fill-opacity: 0.5"/></g><g class="ResizeNEControl" style="display: none;"><circle cx="0" cy="0" r="5" style="stroke : none; fill-opacity: 0.5"/></g><g class="ResizeEControl" style="display: none;"><circle cx="0" cy="0" r="5" style="stroke : none; fill-opacity: 0.5"/></g><g class="ResizeSEControl" style="display: none;"><circle cx="0" cy="0" r="5" style="stroke : none; fill-opacity: 0.5"/></g><g class="ResizeSControl" style="display: none;"><circle cx="0" cy="0" r="5" style="stroke : none; fill-opacity: 0.5"/></g><g class="ResizeSWControl" style="display: none;"><circle cx="0" cy="0" r="5" style="stroke : none; fill-opacity: 0.5"/></g><g class="ResizeWControl" style="display: none;"><circle cx="0" cy="0" r="5" style="stroke : none; fill-opacity: 0.5"/></g><g class="ResizeNWControl" style="display: none;"><circle cx="0" cy="0" r="5" style="stroke : none; fill-opacity: 0.5"/></g><g class="removeControl" style="display: none;"><polygon points="1283.20,476.24 1330.53,476.24 1330.53,516.71 1283.20,516.71 " style="stroke : none; fill-opacity: 0.1"/></g><g class="copyPasteControl" style="display: none;"><polygon style="stroke : none; fill-opacity: 0.1"/></g><g class="translateControl" style="display: none;"><polygon points="1283.20,476.24 1330.53,476.24 1330.53,516.71 1283.20,516.71 " style="stroke : none; fill-opacity: 0.1; cursor:move"/></g></g><g class="SelectionControls" fill="#0000ff" stroke="#0000ff" style="display: none;"><polygon fill="none" points="1214.20,391.53 1382.70,391.53 1382.70,603.27 1214.20,603.27 " stroke="#0000ff" style=""/><g class="rotateControl" style="display: none;"><circle cx="1298.4463831853855" cy="361.52686486292856" r="5" style="stroke : none; fill-opacity: 0.5; cursor:crosshair"/></g><g class="ResizeNControl" style="display: none;"><circle cx="0" cy="0" r="5" style="stroke : none; fill-opacity: 0.5"/></g><g class="ResizeNEControl" style="display: none;"><circle cx="0" cy="0" r="5" style="stroke : none; fill-opacity: 0.5"/></g><g class="ResizeEControl" style="display: none;"><circle cx="0" cy="0" r="5" style="stroke : none; fill-opacity: 0.5"/></g><g class="ResizeSEControl" style="display: none;"><circle cx="0" cy="0" r="5" style="stroke : none; fill-opacity: 0.5"/></g><g class="ResizeSControl" style="display: none;"><circle cx="0" cy="0" r="5" style="stroke : none; fill-opacity: 0.5"/></g><g class="ResizeSWControl" style="display: none;"><circle cx="0" cy="0" r="5" style="stroke : none; fill-opacity: 0.5"/></g><g class="ResizeWControl" style="display: none;"><circle cx="0" cy="0" r="5" style="stroke : none; fill-opacity: 0.5"/></g><g class="ResizeNWControl" style="display: none;"><circle cx="0" cy="0" r="5" style="stroke : none; fill-opacity: 0.5"/></g><g class="removeControl" style="display: none;"><polygon style="stroke : none; fill-opacity: 0.1"/></g><g class="copyPasteControl" style="display: none;"><polygon style="stroke : none; fill-opacity: 0.1"/></g><g class="translateControl" style="display: none;"><polygon style="stroke : none; fill-opacity: 0.1; cursor:move"/></g></g><g class="FixedFurnitureSet" fill="#ffffff" id="FixedFurnitureSet" stroke="#000000" style="fill-opacity: 0.4; stroke-opacity: 0.4;" transform="matrix(0,-1,1,0,1322.9424,1429.232)"><g class="FixedFurniture Closet" fill="#ffffff" stroke="#000000" style="fill-opacity: 1; stroke-opacity: 1;" transform="matrix(1,0,0,1,0,0)">
<g class="BoundaryPolygon">
<polygon points="0.00,0.00 52.13,0.00 52.13,56.64 0.00,56.64 "/>
</g>
<g class="Direction" fill-opacity="0.9" style="display: none;">
<polygon fill="#444444" points="27.38,51.63 27.38,41.01 24.37,41.01 24.37,51.63 20.57,51.63 25.87,56.93 31.17,51.63 27.38,51.63 "/>
</g>
<g class="Name" fill-opacity="0.9" style="display: none;">

</g>
<desc>Width:60 Height:200 Depth:60 Elevation:0</desc>
</g><g class="FixedFurniture Closet" fill="#ffffff" stroke="#000000" style="fill-opacity: 1; stroke-opacity: 1;" transform="matrix(1,0,0,1,52.1327,0)">
<g class="BoundaryPolygon">
<polygon points="0.00,0.00 52.13,0.00 52.13,56.64 0.00,56.64 "/>
</g>
<g class="Direction" fill-opacity="0.9" style="display: none;">
<polygon fill="#444444" points="27.38,51.63 27.38,41.01 24.37,41.01 24.37,51.63 20.57,51.63 25.87,56.93 31.17,51.63 27.38,51.63 "/>
</g>
<g class="Name" fill-opacity="0.9" style="display: none;">

</g>
<desc>Width:60 Height:200 Depth:60 Elevation:0</desc>
</g><g class="FixedFurniture Closet" fill="#ffffff" stroke="#000000" style="fill-opacity: 1; stroke-opacity: 1;" transform="matrix(1,0,0,1,104.2653,0)">
<g class="BoundaryPolygon">
<polygon points="0.00,0.00 52.13,0.00 52.13,56.64 0.00,56.64 "/>
</g>
<g class="Direction" fill-opacity="0.9" style="display: none;">
<polygon fill="#444444" points="27.38,51.63 27.38,41.01 24.37,41.01 24.37,51.63 20.57,51.63 25.87,56.93 31.17,51.63 27.38,51.63 "/>
</g>
<g class="Name" fill-opacity="0.9" style="display: none;">

</g>
<desc>Width:60 Height:200 Depth:60 Elevation:0</desc>
</g></g></g></g></g></svg>