<?xml version="1.0" encoding="utf-8"?>
<svg height="992.7800140380859" id="temp" version="1.1" viewBox="0 0 751.2600402832031 992.7800140380859" width="751.2600402832031" xmlns="http://www.w3.org/2000/svg" xmlns:xlink="http://www.w3.org/1999/xlink"><defs/><g class="Model v1-1" id="Model"><g class="Floor"><g class="Floorplan Floor-1" id="Floor-1"><g class="Space LivingRoom" fill="#ffffff" id="6c91d0ab-3718-4f78-a1ae-32854a0f2f3d" stroke="#ffffff" style="fill-opacity: 1; stroke-opacity: 1; stroke-width: 1;"><polygon points="568.24,717.93 237.67,717.93 237.67,236.68 568.24,236.68 "/><g class="Dimension" transform="matrix(1,0,0,1,237.6744,236.6781)"><g class="Visual" style="display: none;" transform="matrix(1,0,0,1,0,0)"><g class="DimensionMark" fill="#000000" id="mark1" stroke="none" style="fill-opacity: 1; pointer-events: visible;" transform="matrix(1,0,0,1,165.2804,0)"><polygon points="-5,5,0,0,5,5"/></g><g class="DimensionMark" fill="#000000" id="mark2" stroke="none" style="fill-opacity: 1; pointer-events: visible;" transform="matrix(1,0,0,1,330.5608,240.6268)"><polygon points="-5,-5,0,0,-5,5"/></g><g class="DimensionMark" fill="#000000" id="mark3" stroke="none" style="fill-opacity: 1; pointer-events: visible;" transform="matrix(1,0,0,1,165.2804,481.2537)"><polygon points="-5,-5,0,0,5,-5"/></g><g class="DimensionMark" fill="#000000" id="mark4" stroke="none" style="fill-opacity: 1; pointer-events: visible;" transform="matrix(1,0,0,1,0,240.6268)"><polygon points="5,5,0,0,5,-5"/></g></g><g class="SpaceDimensionsLabel" style="display: block;" transform="matrix(1,0,0,1,145.3132,244.2998)"><g class="TextLabel NameLabel" id="NameLabel" style="display: block;"/><g class="TextLabel DimensionMeasureLabel" id="DimensionMeasureLabel" style="display: none;" transform="matrix(1,0,0,1,-114.6093,79.4687)"/></g></g></g><g class="Space Entry Lobby" fill="#ffffff" id="8a005f8b-1387-4834-b6d7-6bae5c4dd08a" stroke="#ffffff" style="fill-opacity: 1; stroke-opacity: 1; stroke-width: 1;"><polygon points="721.40,889.69 618.41,889.69 618.41,865.40 587.24,865.40 587.24,616.62 721.40,616.62 "/><g class="Dimension" transform="matrix(1,0,0,1,587.2352,616.6176)"><g class="Visual" style="display: none;" transform="matrix(1,0,0,1,0,0)"><g class="DimensionMark" fill="#000000" id="mark1" stroke="none" style="fill-opacity: 1; pointer-events: visible;" transform="matrix(1,0,0,1,67.0823,0)"><polygon points="-5,5,0,0,5,5"/></g><g class="DimensionMark" fill="#000000" id="mark2" stroke="none" style="fill-opacity: 1; pointer-events: visible;" transform="matrix(1,0,0,1,134.1647,136.5355)"><polygon points="-5,-5,0,0,-5,5"/></g><g class="DimensionMark" fill="#000000" id="mark3" stroke="none" style="fill-opacity: 1; pointer-events: visible;" transform="matrix(1,0,0,1,67.0823,273.071)"><polygon points="-5,-5,0,0,5,-5"/></g><g class="DimensionMark" fill="#000000" id="mark4" stroke="none" style="fill-opacity: 1; pointer-events: visible;" transform="matrix(1,0,0,1,0,136.5355)"><polygon points="5,5,0,0,5,-5"/></g></g><g class="SpaceDimensionsLabel" style="display: block;" transform="matrix(1,0,0,1,55.8555,163.6339)"><g class="TextLabel NameLabel" id="NameLabel" style="display: block;"/><g class="TextLabel DimensionMeasureLabel" id="DimensionMeasureLabel" style="display: none;" transform="matrix(1,0,0,1,-119.1563,79.9062)"/></g></g></g><g class="Space Closet WalkIn" fill="#ffffff" id="8f97b0fb-c71b-479b-bc03-e6e1dd18a9d2" stroke="#ffffff" style="fill-opacity: 1; stroke-opacity: 1; stroke-width: 1;"><polygon points="386.11,727.93 568.24,727.93 568.24,819.10 541.98,819.10 541.98,881.69 385.78,881.69 386.11,717.93 "/><g class="Dimension" transform="matrix(1,0,0,1,385.9445,727.9318)"><g class="Visual" style="display: none;" transform="matrix(1,0,0,1,0,0)"><g class="DimensionMark" fill="#000000" id="mark1" stroke="none" style="fill-opacity: 1; pointer-events: visible;" transform="matrix(1,0,0,1,91.0649,0)"><polygon points="-5,5,0,0,5,5"/></g><g class="DimensionMark" fill="#000000" id="mark2" stroke="none" style="fill-opacity: 1; pointer-events: visible;" transform="matrix(1,0,0,1,182.2907,71.8787)"><polygon points="-5,-5,0,0,-5,5"/></g><g class="DimensionMark" fill="#000000" id="mark3" stroke="none" style="fill-opacity: 1; pointer-events: visible;" transform="matrix(1,0,0,1,91.0649,153.7568)"><polygon points="-5,-5,0,0,5,-5"/></g><g class="DimensionMark" fill="#000000" id="mark4" stroke="none" style="fill-opacity: 1; pointer-events: visible;" transform="matrix(1,0,0,1,0,71.8787)"><polygon points="5,5,0,0,5,-5"/></g></g><g class="SpaceDimensionsLabel" style="display: block;" transform="matrix(1,0,0,1,66.7788,58.8263)"><g class="TextLabel NameLabel" id="NameLabel" style="display: block;"/><g class="TextLabel DimensionMeasureLabel" id="DimensionMeasureLabel" style="display: none;" transform="matrix(1,0,0,1,-116.3281,79.2656)"/></g></g></g><g class="Space Bath" fill="#ffffff" id="c838d1d4-2a83-4651-9783-fcdd6a9e6d10" stroke="#ffffff" style="fill-opacity: 1; stroke-opacity: 1; stroke-width: 1;"><polygon points="712.21,606.62 587.24,606.62 587.24,419.94 712.21,419.94 "/><g class="Dimension" transform="matrix(1,0,0,1,587.2352,419.9441)"><g class="Visual" style="display: none;" transform="matrix(1,0,0,1,0,0)"><g class="DimensionMark" fill="#000000" id="mark1" stroke="none" style="fill-opacity: 1; pointer-events: visible;" transform="matrix(1,0,0,1,62.4888,0)"><polygon points="-5,5,0,0,5,5"/></g><g class="DimensionMark" fill="#000000" id="mark2" stroke="none" style="fill-opacity: 1; pointer-events: visible;" transform="matrix(1,0,0,1,124.9775,93.3368)"><polygon points="-5,-5,0,0,-5,5"/></g><g class="DimensionMark" fill="#000000" id="mark3" stroke="none" style="fill-opacity: 1; pointer-events: visible;" transform="matrix(1,0,0,1,62.4888,186.6736)"><polygon points="-5,-5,0,0,5,-5"/></g><g class="DimensionMark" fill="#000000" id="mark4" stroke="none" style="fill-opacity: 1; pointer-events: visible;" transform="matrix(1,0,0,1,0,93.3368)"><polygon points="5,5,0,0,5,-5"/></g></g><g class="SpaceDimensionsLabel" style="display: block;" transform="matrix(1,0,0,1,6.7642,127.8433)"><g class="TextLabel NameLabel" id="NameLabel" style="display: block;"/><g class="TextLabel DimensionMeasureLabel" id="DimensionMeasureLabel" style="display: none;" transform="matrix(1,0,0,1,-106.2187,80.0312)"/></g></g></g><g class="Space Kitchen Kitchenette" fill="#ffffff" id="206f8882-882e-44f7-a1b1-f4434539eae6" stroke="#ffffff" style="fill-opacity: 1; stroke-opacity: 1; stroke-width: 1;"><polygon points="721.40,409.94 587.24,409.94 587.24,236.68 721.40,236.68 "/><g class="Dimension" transform="matrix(1,0,0,1,587.2352,236.6781)"><g class="Visual" style="display: none;" transform="matrix(1,0,0,1,0,0)"><g class="DimensionMark" fill="#000000" id="mark1" stroke="none" style="fill-opacity: 1; pointer-events: visible;" transform="matrix(1,0,0,1,67.0823,0)"><polygon points="-5,5,0,0,5,5"/></g><g class="DimensionMark" fill="#000000" id="mark2" stroke="none" style="fill-opacity: 1; pointer-events: visible;" transform="matrix(1,0,0,1,134.1647,86.633)"><polygon points="-5,-5,0,0,-5,5"/></g><g class="DimensionMark" fill="#000000" id="mark3" stroke="none" style="fill-opacity: 1; pointer-events: visible;" transform="matrix(1,0,0,1,67.0823,173.2659)"><polygon points="-5,-5,0,0,5,-5"/></g><g class="DimensionMark" fill="#000000" id="mark4" stroke="none" style="fill-opacity: 1; pointer-events: visible;" transform="matrix(1,0,0,1,0,86.633)"><polygon points="5,5,0,0,5,-5"/></g></g><g class="SpaceDimensionsLabel" style="display: block;" transform="matrix(1,0,0,1,11.5978,70.2495)"><g class="TextLabel NameLabel" id="NameLabel" style="display: block;"/><g class="TextLabel DimensionMeasureLabel" id="DimensionMeasureLabel" style="display: none;" transform="matrix(1,0,0,1,-116.8906,79.4687)"/></g></g></g><g class="Wall External" fill="#000000" id="Wall" stroke="#000000" style="fill-opacity: 1; stroke-opacity: 1; stroke-width: 1;"><polygon points="348.03,757.93 198.67,757.93 237.67,717.93 386.11,717.93 "/></g><g class="Wall External" fill="#000000" id="Wall" stroke="#000000" style="fill-opacity: 1; stroke-opacity: 1; stroke-width: 1;"><polygon points="198.67,757.93 198.67,369.98 237.67,369.98 237.67,717.93 "/><g class="Window Regular" fill="#f0f0ff" id="Window" stroke="#000000" style="fill-opacity: 1; stroke-width: 1; stroke-opacity: 1;"><polygon points="198.67,575.00 198.67,419.91 237.67,419.91 237.67,575.00 "/><g class="Glass" id="Glass"><polygon points="198.67,575.00 198.67,419.91 237.67,419.91 237.67,575.00 "/></g><g class="Panel" id="Panel"><line x1="218.1743706440214" x2="218.17437064402134" y1="567.4969289425649" y2="427.41102684273415"/><line x1="198.6743706440214" x2="237.6743706440214" y1="567.4969289425649" y2="567.4969289425649"/><line x1="198.67437064402134" x2="237.67437064402134" y1="427.41102684273415" y2="427.41102684273415"/></g></g></g><g class="Wall External" fill="#000000" id="Wall" stroke="#000000" style="fill-opacity: 1; stroke-opacity: 1; stroke-width: 1;"><polygon points="237.67,369.98 237.67,227.46 88.09,227.46 88.09,369.98 "/></g><g class="Wall External" fill="#000000" id="Wall" stroke="#000000" style="fill-opacity: 1; stroke-opacity: 1; stroke-width: 1;"><polygon points="237.67,227.46 237.67,236.68 198.67,198.68 198.67,227.46 "/></g><g class="Wall External" fill="#000000" id="Wall" stroke="#000000" style="fill-opacity: 1; stroke-opacity: 1; stroke-width: 1;"><polygon points="198.67,198.68 747.40,198.68 721.40,236.68 237.67,236.68 "/><g class="Window Regular" fill="#f0f0ff" id="Window" stroke="#000000" style="fill-opacity: 1; stroke-width: 1; stroke-opacity: 1;"><polygon points="590.27,198.68 658.64,198.68 658.64,236.68 590.27,236.68 "/><g class="Glass" id="Glass"><polygon points="590.27,198.68 658.64,198.68 658.64,236.68 590.27,236.68 "/></g><g class="Panel" id="Panel"><line x1="597.7677145494047" x2="651.1412148102289" y1="217.67813948957829" y2="217.67813948957826"/><line x1="597.7677145494047" x2="597.7677145494047" y1="198.67813948957829" y2="236.67813948957829"/><line x1="651.1412148102289" x2="651.1412148102289" y1="198.67813948957826" y2="236.67813948957826"/></g></g><g class="Window Regular" fill="#f0f0ff" id="Window" stroke="#000000" style="fill-opacity: 1; stroke-width: 1; stroke-opacity: 1;"><polygon points="332.74,198.68 490.34,198.68 490.34,236.68 332.74,236.68 "/><g class="Glass" id="Glass"><polygon points="332.74,198.68 490.34,198.68 490.34,236.68 332.74,236.68 "/></g><g class="Panel" id="Panel"><line x1="340.2400528527289" x2="482.83721416820015" y1="217.6781394895783" y2="217.67813948957829"/><line x1="340.2400528527289" x2="340.2400528527289" y1="198.6781394895783" y2="236.6781394895783"/><line x1="482.83721416820015" x2="482.83721416820015" y1="198.67813948957829" y2="236.67813948957829"/></g></g></g><g class="Wall External" fill="#000000" id="Wall" stroke="#000000" style="fill-opacity: 1; stroke-opacity: 1; stroke-width: 1;"><polygon points="747.40,198.68 747.40,419.94 721.40,409.94 721.40,236.68 "/></g><g class="Wall External" fill="#000000" id="Wall" stroke="#000000" style="fill-opacity: 1; stroke-opacity: 1; stroke-width: 1;"><polygon points="751.26,409.94 751.26,616.62 712.21,606.62 712.21,409.94 "/></g><g class="Wall External" fill="#000000" id="Wall" stroke="#000000" style="fill-opacity: 1; stroke-opacity: 1; stroke-width: 1;"><polygon points="747.40,616.62 747.40,900.69 721.40,889.69 721.40,616.62 "/></g><g class="Wall External" fill="#000000" id="Wall" stroke="#000000" style="fill-opacity: 1; stroke-opacity: 1; stroke-width: 1;"><polygon points="747.40,900.69 618.41,900.69 618.41,889.69 721.40,889.69 "/><g class="Door Swing Beside" fill="#ffffff" id="Door" stroke="#000000" style="fill-opacity: 1; stroke-width: 1; stroke-opacity: 1;"><polygon points="714.42,900.69 622.34,900.69 622.34,889.69 714.42,889.69 "/><g class="Panel Left Negative" fill="none" id="Panel" style=""><g class="PanelArea" fill="none" id="PanelArea" stroke="none" style=""><polygon points="714.42,900.69 622.34,900.69 622.34,889.69 714.42,889.69 "/></g><path d="M714.42,900.69 q0.00,92.09 -92.09,92.09 l0.00,-92.09Z"/></g></g></g><g class="Wall External" fill="#000000" id="Wall" stroke="#000000" style="fill-opacity: 1; stroke-opacity: 1; stroke-width: 1;"><polygon points="618.41,900.69 587.24,900.69 587.24,865.40 618.41,865.40 "/></g><g class="Wall External" fill="#000000" id="Wall" stroke="#000000" style="fill-opacity: 1; stroke-opacity: 1; stroke-width: 1;"><polygon points="587.24,900.69 347.75,900.69 385.78,881.69 587.24,881.69 "/></g><g class="Wall External" fill="#000000" id="Wall" stroke="#000000" style="fill-opacity: 1; stroke-opacity: 1; stroke-width: 1;"><polygon points="347.75,900.69 348.03,757.93 386.11,717.93 385.78,881.69 "/></g><g class="Wall" fill="#000000" id="Wall" stroke="#000000" style="fill-opacity: 1; stroke-opacity: 1; stroke-width: 1;"><polygon points="587.24,900.69 587.24,819.10 541.98,819.10 541.98,900.69 "/></g><g class="Wall" fill="#000000" id="Wall" stroke="#000000" style="fill-opacity: 1; stroke-opacity: 1; stroke-width: 1;"><polygon points="587.24,819.10 587.24,198.68 568.24,198.68 568.24,819.10 "/><g class="Door Swing Beside" fill="#ffffff" id="Door" stroke="#000000" style="fill-opacity: 1; stroke-width: 1; stroke-opacity: 1;"><polygon points="587.24,712.12 587.24,624.11 568.24,624.11 568.24,712.12 "/><g class="Panel Left Positive" fill="none" id="Panel" style=""><g class="PanelArea" fill="none" id="PanelArea" stroke="none" style=""><polygon points="587.24,712.12 587.24,624.11 568.24,624.11 568.24,712.12 "/></g><path d="M568.24,624.11 q-88.00,0.00 -88.00,88.00 l88.00,0.00Z"/></g></g><g class="Door Swing Beside" fill="#ffffff" id="Door" stroke="#000000" style="fill-opacity: 1; stroke-width: 1; stroke-opacity: 1;"><polygon points="587.24,329.98 587.24,241.34 568.24,241.34 568.24,329.98 "/><g class="Panel Right Positive" fill="none" id="Panel" style=""><g class="PanelArea" fill="none" id="PanelArea" stroke="none" style=""><polygon points="587.24,329.98 587.24,241.34 568.24,241.34 568.24,329.98 "/></g><path d="M568.24,329.98 q-88.64,0.00 -88.64,-88.64 l88.64,0.00Z"/></g></g></g><g class="Wall" fill="#000000" id="Wall" stroke="#000000" style="fill-opacity: 1; stroke-opacity: 1; stroke-width: 1;"><polygon points="386.11,717.93 587.24,717.93 587.24,727.93 386.11,727.93 "/><g class="Door Swing Beside" fill="#ffffff" id="Door" stroke="#000000" style="fill-opacity: 1; stroke-width: 1; stroke-opacity: 1;"><polygon points="442.47,717.93 504.59,717.93 504.59,727.93 442.47,727.93 "/><g class="Panel Right Negative" fill="none" id="Panel" style=""><g class="PanelArea" fill="none" id="PanelArea" stroke="none" style=""><polygon points="442.47,717.93 504.59,717.93 504.59,727.93 442.47,727.93 "/></g><path d="M504.59,717.93 q0.00,-62.12 -62.12,-62.12 l0.00,62.12Z"/></g></g></g><g class="Wall" fill="#000000" id="Wall" stroke="#000000" style="fill-opacity: 1; stroke-opacity: 1; stroke-width: 1;"><polygon points="721.40,409.94 568.24,409.94 568.24,419.94 747.40,419.94 "/></g><g class="Wall" fill="#000000" id="Wall" stroke="#000000" style="fill-opacity: 1; stroke-opacity: 1; stroke-width: 1;"><polygon points="751.26,616.62 568.24,616.62 568.24,606.62 712.21,606.62 "/><g class="Door Swing Beside" fill="#ffffff" id="Door" stroke="#000000" style="fill-opacity: 1; stroke-width: 1; stroke-opacity: 1;"><polygon points="666.22,616.62 594.03,616.62 594.03,606.62 666.22,606.62 "/><g class="Panel Right Negative" fill="none" id="Panel" style=""><g class="PanelArea" fill="none" id="PanelArea" stroke="none" style=""><polygon points="666.22,616.62 594.03,616.62 594.03,606.62 666.22,606.62 "/></g><path d="M594.03,616.62 q0.00,72.19 72.19,72.19 l0.00,-72.19Z"/></g></g></g><g class="FixedFurniture Closet" fill="#ffffff" stroke="#000000" style="fill-opacity: 1; stroke-opacity: 1;" transform="matrix(-1,0,0,-1,541.9815,881.6417)">
<g class="BoundaryPolygon">
<polygon points="0.00,0.00 144.66,0.00 144.66,62.18 0.00,62.18 "/>
</g>
<g class="Direction" fill-opacity="0.9" style="display: none;">
<polygon fill="#444444" points="74.15,56.50 74.15,45.89 71.14,45.89 71.14,56.50 67.34,56.50 72.64,61.80 77.95,56.50 74.15,56.50 "/>
</g>
<g class="Name" fill-opacity="0.9" style="display: none;">

</g>
<desc>Width:120 Height:200 Depth:60 Elevation:0</desc>
</g><g class="FixedFurniture Housing" fill="#ffffff" stroke="#000000" style="fill-opacity: 1; stroke-opacity: 1;" transform="matrix(-1.1167,0,0,-1.0416,397.3177,882.0549)">
<g class="BoundaryPolygon">
<polygon points="0,0 10,0 10,60 0,60"/>
</g>
<g class="Name" fill-opacity="0.9" style="display: none;">

</g>
<desc>Width:60 Height:200 Depth:60 Elevation:0</desc>
</g><g class="FixedFurniture Closet" fill="#ffffff" stroke="#000000" style="fill-opacity: 1; stroke-opacity: 1;" transform="matrix(0,-1,1,0,386.09,819.4569)">
<g class="BoundaryPolygon">
<polygon points="0.00,0.00 91.76,0.00 91.76,50.01 0.00,50.01 "/>
</g>
<g class="Direction" fill-opacity="0.9" style="display: none;">
<polygon fill="#444444" points="48.19,45.59 48.19,34.97 45.18,34.97 45.18,45.59 41.38,45.59 46.68,50.89 51.98,45.59 48.19,45.59 "/>
</g>
<g class="Name" fill-opacity="0.9" style="display: none;">

</g>
<desc>Width:60 Height:200 Depth:60 Elevation:0</desc>
</g><g class="FixedFurniture Closet" fill="#ffffff" stroke="#000000" style="fill-opacity: 1; stroke-opacity: 1;" transform="matrix(0,1,-1,0,568.1414,767.6397)">
<g class="BoundaryPolygon">
<polygon points="0.00,0.00 52.35,0.00 52.35,51.47 0.00,51.47 "/>
</g>
<g class="Direction" fill-opacity="0.9" style="display: none;">
<polygon fill="#444444" points="27.49,46.93 27.49,36.31 24.48,36.31 24.48,46.93 20.68,46.93 25.98,52.23 31.29,46.93 27.49,46.93 "/>
</g>
<g class="Name" fill-opacity="0.9" style="display: none;">

</g>
<desc>Width:60 Height:200 Depth:60 Elevation:0</desc>
</g><g class="FixedFurniture Closet" fill="#ffffff" stroke="#000000" style="fill-opacity: 1; stroke-opacity: 1;" transform="matrix(0,1,-1,0,568.1414,728.0997)">
<g class="BoundaryPolygon">
<polygon points="0.00,0.00 39.54,0.00 39.54,51.47 0.00,51.47 "/>
</g>
<g class="Direction" fill-opacity="0.9" style="display: none;">
<polygon fill="#444444" points="20.76,46.93 20.76,36.31 17.75,36.31 17.75,46.93 13.95,46.93 19.25,52.23 24.56,46.93 20.76,46.93 "/>
</g>
<g class="Name" fill-opacity="0.9" style="display: none;">

</g>
<desc>Width:60 Height:200 Depth:60 Elevation:0</desc>
</g><g class="FixedFurniture Closet" fill="#ffffff" stroke="#000000" style="fill-opacity: 1; stroke-opacity: 1;" transform="matrix(0,-1,1,0,587.3601,865.3988)">
<g class="BoundaryPolygon">
<polygon points="0.00,0.00 109.04,0.00 109.04,30.68 0.00,30.68 "/>
</g>
<g class="Direction" fill-opacity="0.9" style="display: none;">
<polygon fill="#444444" points="55.89,27.87 55.89,17.26 52.88,17.26 52.88,27.87 49.08,27.87 54.38,33.17 59.68,27.87 55.89,27.87 "/>
</g>
<g class="Name" fill-opacity="0.9" style="display: none;">

</g>
<desc>Width:120 Height:200 Depth:60 Elevation:0</desc>
</g><g class="FixedFurniture Bathtub" fill="#ffffff" stroke="#000000" style="fill-opacity: 1; stroke-opacity: 1;" transform="matrix(0.7162,0,0,0.8127,587.2352,419.944)">
<g class="BoundaryPolygon">
<polygon points="0,0 175,0 175,82 0,82"/>
</g>
<g class="Tub">
<path d="M166.6,41.2c0,19.7,0,35.7-79.3,35.7S8,60.9,8,41.2,8,5.5,87.3,5.5,166.6,21.5,166.6,41.2Z"/>
</g>
<g class="Name" fill-opacity="0.9" style="display: none;">

</g>
<desc>Width:175 Height:38 Depth:82 Elevation:0</desc>
</g><g class="FixedFurniture Shower" fill="#ffffff" stroke="#000000" style="fill-opacity: 1; stroke-opacity: 1;" transform="matrix(0,1,-1,0,712.5687,435.1049)">
<g class="BoundaryPolygon" fill="none" stroke="none">
<polygon points="0,0 32,0 32,19 0,19"/>
</g>
<g class="InnerPolygon">
<rect height="6.1" width="11.2" x="3.7" y="0.5"/>
<rect height="6.1" width="11.2" x="17.6" y="0.5"/>
<rect height="6.1" width="3.4" x="28.7" y="0.5"/>
<rect height="6.1" width="3.2" x="0.5" y="0.5"/>
<path d="M14.9,8.5c0,1.5-0.4,3.3-1.6,5    c-0.4,0.6-1,1.1-1.1,1.7c-0.2,1.1,0.3,2.8,2.5,3.2c0.5,0.1,1.3,0.1,1.6,0.1h-0.1c0.3,0,1.1,0,1.6-0.1c2.2-0.4,2.7-2.1,2.5-3.2    c-0.1-0.6-0.7-1.1-1.1-1.7c-1.2-1.7-1.6-3.5-1.6-5"/>
<path d="M12.2,15.3c0.1,0.2,1.6,1.9,4.2,1.9 c2.4-0.1,3.7-1.7,3.9-1.9"/>
<path d="M14.9,0.5h2.7v8c-0.9,0-1.8,0-2.7,0l0,0 C14.9,5.9,14.9,3.2,14.9,0.5z"/>
</g>
<g class="Indicator">
<path d="M3.7,3.6C5,3.1,5.2,3,5.2,3 c0,1.1,0,0,0,1.1C5.2,4.1,5.1,4.1,3.7,3.6"/>
<path d="M28.7,3.6 C27.4,3.1,27.2,3,27.2,3c0,1.1,0,0,0,1.1C27.2,4.1,27.3,4.1,28.7,3.6"/>
</g>
<desc>Width:32 Height:97 Depth:19 Elevation:135</desc>
</g><g class="FixedFurnitureSet" fill="#ffffff" id="FixedFurnitureSet" stroke="#000000" style="fill-opacity: 0.4; stroke-opacity: 0.4;" transform="matrix(0,1,-1,0,712.0408,486.584)"><g class="FixedFurniture BaseCabinet" fill="#ffffff" stroke="#000000" style="fill-opacity: 1; stroke-opacity: 1;" transform="matrix(1,0,0,1,0,0)">
<g class="BoundaryPolygon">
<polygon points="0.00,0.00 56.95,0.00 56.95,40.68 0.00,40.68 "/>
</g>
<g class="Direction" fill-opacity="0.9" style="display: none;">
<polygon fill="#444444" points="30.38,37.42 30.38,26.81 27.38,26.81 27.38,37.42 23.57,37.42 28.88,42.22 34.18,37.42 30.38,37.42 "/>
</g>
<g class="Name" fill-opacity="0.9" style="display: none;">

</g>
<desc>Width:60 Height:5 Depth:60 Elevation:105</desc>
</g><g class="FixedFurniture Sink" fill="#ffffff" stroke="#000000" style="fill-opacity: 1; stroke-opacity: 1;" transform="matrix(1,0,0,1,0,0)">
<g class="BoundaryPolygon" fill="none" stroke="none">
<polygon points="0.00,0.00 56.95,0.00 56.95,40.68 0.00,40.68 "/>
</g>
<g class="InnerPolygon">
<polygon points="4.75,9.70 52.21,9.70 52.21,37.08 4.75,37.08 "/>
</g>
<g class="OuterDrain" stroke-width="0.8">
<circle cx="28.47748221935746" cy="21.830446638919284" r="3.5"/>
</g>
<g class="InnerDrain" stroke-width="0.8">
<circle cx="28.47748221935746" cy="21.830446638919284" r="2"/>
</g>
<g class="Faucet">
<polygon points="25.63,3.39 31.63,3.39 31.63,17.39 25.63,17.39 "/>
</g>
<g class="Direction" fill-opacity="0.9" style="display: none;">
<polygon fill="#444444" points="30.38,37.42 30.38,26.81 27.38,26.81 27.38,37.42 23.57,37.42 28.88,42.22 34.18,37.42 30.38,37.42 "/>
</g>
<g class="Name" fill-opacity="0.9" style="display: none;">

</g>
<desc>Width:60 Height:90 Depth:60 Elevation:0</desc>
</g></g><g class="FixedFurniture Toilet" fill="#ffffff" stroke="#000000" style="fill-opacity: 1; stroke-opacity: 1;" transform="matrix(0,1,-1,0,706.7619,556.8586)">
<g class="BoundaryPolygon" fill="none" stroke="none">
<polygon points="0,0 41,0 41,71 0,71"/>
</g>
<g class="InnerPolygon">
<rect height="17.98" width="39.989" x="0.502" y="0.5"/>
<path d="M40.491,44.237S41.619,70.5,20.907,70.5C-.523,70.5.6,44.237.6,44.237L.5,18.48H40.491Z"/>
<rect height="3.03" width="6.357" x="17.318" y="7.975"/>
</g>
<desc>Width:41 Height:85 Depth:71 Elevation:0</desc>
</g><g class="FixedFurniture BaseCabinet" fill="#ffffff" stroke="#000000" style="fill-opacity: 1; stroke-opacity: 1;" transform="matrix(1,0,0,1,721.3999,409.9441)"><desc>Width:60 Height:90 Depth:60 Elevation:0</desc><g class="BoundaryPolygon"><polygon points="0.00,0.00 0.00,-113.37 -59.38,-113.37 -59.38,-61.53 -134.20,-61.53 -134.20,-0.05 0.00,0.00 "/></g></g><g class="FixedFurniture DoubleSinkRight" fill="#ffffff" stroke="#000000" style="fill-opacity: 1; stroke-opacity: 1;" transform="matrix(-1,0,0,-1,681.7046,407.1433)">
<g class="BoundaryPolygon" fill="none" stroke="none">
<polygon points="0.00,0.00 67.52,0.00 67.52,55.79 0.00,55.79 0.00,0.00 "/>
</g>
<g class="InnerPolygonLeft">
<polygon points="4.82,9.90 24.11,9.90 24.11,51.05 4.82,51.05 "/>
</g>
<g class="InnerPolygonRight">
<polygon points="27.01,10.00 62.70,10.00 62.70,51.14 27.01,51.14 "/>
</g>
<g class="OuterDrain" stroke-width="0.8">
<circle cx="14.468538378786036" cy="30.221531471674368" r="3.5"/>
<circle cx="44.370184361610505" cy="30.221531471674368" r="3.5"/>
</g>
<g class="InnerDrain" stroke-width="0.8">
<circle cx="14.468538378786036" cy="30.221531471674368" r="2"/>
<circle cx="44.370184361610505" cy="30.221531471674368" r="2"/>
</g>
<g class="Faucet">
<polygon points="30.87,4.56 36.87,4.56 36.87,18.56 30.87,18.56 "/>
</g>
<g class="Direction" fill-opacity="0.9" style="display: none;">
<polygon fill="#444444" points="35.22,50.86 35.22,40.25 32.21,40.25 32.21,50.86 28.40,50.86 33.71,56.17 39.01,50.86 35.22,50.86 "/>
</g>
<g class="Name" fill-opacity="0.9" style="display: none;">

</g>
<desc>Width:70 Height:90 Depth:60 Elevation:0</desc>
</g><g class="FixedFurniture ElectricalAppliance IntegratedStoveSmall" fill="#ffffff" stroke="#000000" style="fill-opacity: 1; stroke-opacity: 1;" transform="matrix(0,1,-1,0,723.2305,308.0071)">
<g class="BoundaryPolygon" fill="none" stroke="none">
<polygon points="0.00,0.00 43.16,0.00 43.16,63.22 0.00,63.22 "/>
</g>
<g class="InnerPolygon">
<polygon points="2.00,2.00 40.46,2.00 40.46,61.11 2.00,61.11 "/>
</g>
<g class="OuterCircle">
<circle cx="21.57826374448514" cy="16.857776387134358" r="8"/>
<circle cx="21.57826374448514" cy="46.253523962199885" r="8"/>
</g>
<g class="Direction" fill-opacity="0.9" style="display: none;">
<polygon fill="#444444" points="43.17,58.16 43.17,47.54 40.16,47.54 40.16,58.16 36.36,58.16 41.66,62.96 46.96,58.16 43.17,58.16 "/>
</g>
<g class="Name" fill-opacity="0.9" style="display: none;">

</g>
<desc>Width:60 Height:90 Depth:30 Elevation:0</desc>
</g><g class="FixedFurniture ElectricalAppliance Refrigerator" fill="#ffffff" stroke="#000000" style="fill-opacity: 1; stroke-opacity: 1;" transform="matrix(0,0.9903,-0.9871,0,721.3842,237.156)">
<g class="BoundaryPolygon">
<polygon points="0,0 60,0 60,60 0,60"/>
</g>
<g class="electricitySign" fill="none">
<path d="M0,0,30,37.1v-18L60,56.3"/>
</g>
<g class="Doors">
<rect height="4" width="60" y="56"/>
</g>
<g class="Direction" fill-opacity="0.9" style="display: none;">
<polygon fill="#444444" points="32.009 55.197 32.009 44.581 29 44.581 29 55.197 25.197 55.197 30.5 60 35.803 55.197 32.009 55.197"/>
</g>
<g class="Name" fill-opacity="0.9" style="display: none;">

</g>
<desc>Width:60 Height:170 Depth:60 Elevation:0</desc>
</g><g class="SelectionControls" fill="#0000ff" stroke="#0000ff" style="display: none;"><g class="rotateControl" style="display: none;"><circle cx="621.9267256188945" cy="243.81826448957833" r="5" style="stroke : none; fill-opacity: 0.5; cursor:crosshair"/></g><g class="ResizeNControl" style="display: none;"><circle cx="0" cy="0" r="5" style="stroke : none; fill-opacity: 0.5"/></g><g class="ResizeNEControl" style="display: none;"><circle cx="0" cy="0" r="5" style="stroke : none; fill-opacity: 0.5"/></g><g class="ResizeEControl" style="display: none;"><circle cx="0" cy="0" r="5" style="stroke : none; fill-opacity: 0.5"/></g><g class="ResizeSEControl" style="display: none;"><circle cx="0" cy="0" r="5" style="stroke : none; fill-opacity: 0.5"/></g><g class="ResizeSControl" style="display: none;"><circle cx="0" cy="0" r="5" style="stroke : none; fill-opacity: 0.5"/></g><g class="ResizeSWControl" style="display: none;"><circle cx="0" cy="0" r="5" style="stroke : none; fill-opacity: 0.5"/></g><g class="ResizeWControl" style="display: none;"><circle cx="0" cy="0" r="5" style="stroke : none; fill-opacity: 0.5"/></g><g class="ResizeNWControl" style="display: none;"><circle cx="0" cy="0" r="5" style="stroke : none; fill-opacity: 0.5"/></g><g class="removeControl" style="display: none;"><polygon points="598.83,273.82 645.02,273.82 645.02,313.69 598.83,313.69 " style="stroke : none; fill-opacity: 0.1"/></g><g class="copyPasteControl" style="display: none;"><polygon style="stroke : none; fill-opacity: 0.1"/></g><g class="translateControl" style="display: none;"><polygon points="598.83,273.82 645.02,273.82 645.02,313.69 598.83,313.69 " style="stroke : none; fill-opacity: 0.1; cursor:move"/></g></g><g class="SelectionControls" fill="#0000ff" stroke="#0000ff" style="display: none;"><polygon fill="none" points="587.24,236.68 721.40,236.68 721.40,409.94 587.24,409.94 " stroke="#0000ff" style=""/><g class="rotateControl" style="display: none;"><circle cx="654.3175273034648" cy="206.6781394895783" r="5" style="stroke : none; fill-opacity: 0.5; cursor:crosshair"/></g><g class="ResizeNControl" style="display: none;"><circle cx="0" cy="0" r="5" style="stroke : none; fill-opacity: 0.5"/></g><g class="ResizeNEControl" style="display: none;"><circle cx="0" cy="0" r="5" style="stroke : none; fill-opacity: 0.5"/></g><g class="ResizeEControl" style="display: none;"><circle cx="0" cy="0" r="5" style="stroke : none; fill-opacity: 0.5"/></g><g class="ResizeSEControl" style="display: none;"><circle cx="0" cy="0" r="5" style="stroke : none; fill-opacity: 0.5"/></g><g class="ResizeSControl" style="display: none;"><circle cx="0" cy="0" r="5" style="stroke : none; fill-opacity: 0.5"/></g><g class="ResizeSWControl" style="display: none;"><circle cx="0" cy="0" r="5" style="stroke : none; fill-opacity: 0.5"/></g><g class="ResizeWControl" style="display: none;"><circle cx="0" cy="0" r="5" style="stroke : none; fill-opacity: 0.5"/></g><g class="ResizeNWControl" style="display: none;"><circle cx="0" cy="0" r="5" style="stroke : none; fill-opacity: 0.5"/></g><g class="removeControl" style="display: none;"><polygon style="stroke : none; fill-opacity: 0.1"/></g><g class="copyPasteControl" style="display: none;"><polygon style="stroke : none; fill-opacity: 0.1"/></g><g class="translateControl" style="display: none;"><polygon style="stroke : none; fill-opacity: 0.1; cursor:move"/></g></g></g></g></g></svg>