<?xml version="1.0" encoding="utf-8"?>
<svg height="1242.1500091552734" id="temp" version="1.1" viewBox="0 0 1056.58740234375 1242.1500091552734" width="1056.58740234375" xmlns="http://www.w3.org/2000/svg" xmlns:xlink="http://www.w3.org/1999/xlink"><defs/><g class="Model v1-1" id="Model"><g class="Floor"><g class="Floorplan Floor-1" id="Floor-1"><g class="Space Outdoor Porch" fill="#ffffff" id="5e397bd2-a03e-4bd4-99a4-b8fd0b47a3f8" stroke="#000000" style="fill-opacity: 1; stroke-opacity: 1; stroke-width: 1;"><polygon points="702.02,1231.15 702.02,1024.38 471.07,1024.38 471.30,1231.15 702.02,1231.15 "/><g class="Dimension" transform="matrix(1,0,0,1,471.1823,1024.3779)"><g class="Visual" style="display: none;" transform="matrix(1,0,0,1,0,0)"><g class="DimensionMark" fill="#000000" id="mark1" stroke="none" style="fill-opacity: 1; pointer-events: visible;" transform="matrix(1,0,0,1,115.3607,0)"><polygon points="-5,5,0,0,5,5"/></g><g class="DimensionMark" fill="#000000" id="mark2" stroke="none" style="fill-opacity: 1; pointer-events: visible;" transform="matrix(1,0,0,1,230.8371,103.3859)"><polygon points="-5,-5,0,0,-5,5"/></g><g class="DimensionMark" fill="#000000" id="mark3" stroke="none" style="fill-opacity: 1; pointer-events: visible;" transform="matrix(1,0,0,1,115.3607,206.772)"><polygon points="-5,-5,0,0,5,-5"/></g><g class="DimensionMark" fill="#000000" id="mark4" stroke="none" style="fill-opacity: 1; pointer-events: visible;" transform="matrix(1,0,0,1,0,103.3859)"><polygon points="5,5,0,0,5,-5"/></g></g><g class="SpaceDimensionsLabel" style="display: block;" transform="matrix(1,0,0,1,48.8659,116.2963)"><g class="TextLabel NameLabel" id="NameLabel" style="display: block;"/><g class="TextLabel DimensionMeasureLabel" id="DimensionMeasureLabel" style="display: none;" transform="matrix(1,0,0,1,-81.1563,79.5312)"/></g></g></g><g class="Space Outdoor Terrace" fill="#ffffff" id="e407970a-4e55-43c4-8251-1060561c4386" stroke="#000000" style="fill-opacity: 1; stroke-opacity: 1; stroke-width: 1;"><polygon points="995.35,229.34 995.35,84.89 513.47,84.89 513.47,229.34 995.35,229.34 "/><g class="Dimension" transform="matrix(1,0,0,1,513.4658,84.8893)"><g class="Visual" style="display: none;" transform="matrix(1,0,0,1,0,0)"><g class="DimensionMark" fill="#000000" id="mark1" stroke="none" style="fill-opacity: 1; pointer-events: visible;" transform="matrix(1,0,0,1,240.9407,0)"><polygon points="-5,5,0,0,5,5"/></g><g class="DimensionMark" fill="#000000" id="mark2" stroke="none" style="fill-opacity: 1; pointer-events: visible;" transform="matrix(1,0,0,1,481.8813,72.2242)"><polygon points="-5,-5,0,0,-5,5"/></g><g class="DimensionMark" fill="#000000" id="mark3" stroke="none" style="fill-opacity: 1; pointer-events: visible;" transform="matrix(1,0,0,1,240.9407,144.4484)"><polygon points="-5,-5,0,0,5,-5"/></g><g class="DimensionMark" fill="#000000" id="mark4" stroke="none" style="fill-opacity: 1; pointer-events: visible;" transform="matrix(1,0,0,1,0,72.2242)"><polygon points="5,5,0,0,5,-5"/></g></g><g class="SpaceDimensionsLabel" transform="matrix(1,0,0,1,213.9814,78.3118)"><g class="TextLabel NameLabel" id="NameLabel" style="display: block;"/><g class="TextLabel DimensionMeasureLabel" id="DimensionMeasureLabel" style="display: none;" transform="matrix(1,0,0,1,-67.3515,79.6249)"/></g></g></g><g class="Space Kitchen Open" fill="#ffffff" id="0b7a70c7-9c01-410c-8a4c-e072b6ab7b38" stroke="#ffffff" style="fill-opacity: 1; stroke-opacity: 1; stroke-width: 1;"><polygon points="742.94,588.80 714.80,588.80 714.80,680.55 173.44,680.55 173.44,260.34 742.94,260.34 "/><g class="Dimension" transform="matrix(1,0,0,1,173.444,260.3377)"><g class="Visual" style="display: none;" transform="matrix(1,0,0,1,0,0)"><g class="DimensionMark" fill="#000000" id="mark1" stroke="none" style="fill-opacity: 1; pointer-events: visible;" transform="matrix(1,0,0,1,284.7456,0)"><polygon points="-5,5,0,0,5,5"/></g><g class="DimensionMark" fill="#000000" id="mark2" stroke="none" style="fill-opacity: 1; pointer-events: visible;" transform="matrix(1,0,0,1,569.4912,210.1074)"><polygon points="-5,-5,0,0,-5,5"/></g><g class="DimensionMark" fill="#000000" id="mark3" stroke="none" style="fill-opacity: 1; pointer-events: visible;" transform="matrix(1,0,0,1,284.7456,420.2149)"><polygon points="-5,-5,0,0,5,-5"/></g><g class="DimensionMark" fill="#000000" id="mark4" stroke="none" style="fill-opacity: 1; pointer-events: visible;" transform="matrix(1,0,0,1,0,210.1074)"><polygon points="5,5,0,0,5,-5"/></g></g><g class="SpaceDimensionsLabel" style="display: block;" transform="matrix(1,0,0,1,217.1831,211.1183)"><g class="TextLabel NameLabel" id="NameLabel" style="display: block;"/><g class="TextLabel DimensionMeasureLabel" id="DimensionMeasureLabel" style="display: none;" transform="matrix(1,0,0,1,-85.4531,79.9062)"/></g></g></g><g class="Space Entry Lobby" fill="#ffffff" id="08c55084-9cf0-40bb-9c39-8707808d995c" stroke="#ffffff" style="fill-opacity: 1; stroke-opacity: 1; stroke-width: 1;"><polygon points="714.80,800.04 775.93,800.04 775.93,993.99 540.42,993.99 540.42,680.55 714.80,680.55 "/><g class="Dimension" transform="matrix(1,0,0,1,540.4225,680.5526)"><g class="Visual" style="display: none;" transform="matrix(1,0,0,1,0,0)"><g class="DimensionMark" fill="#000000" id="mark1" stroke="none" style="fill-opacity: 1; pointer-events: visible;" transform="matrix(1,0,0,1,117.7562,0)"><polygon points="-5,5,0,0,5,5"/></g><g class="DimensionMark" fill="#000000" id="mark2" stroke="none" style="fill-opacity: 1; pointer-events: visible;" transform="matrix(1,0,0,1,235.5124,156.7184)"><polygon points="-5,-5,0,0,-5,5"/></g><g class="DimensionMark" fill="#000000" id="mark3" stroke="none" style="fill-opacity: 1; pointer-events: visible;" transform="matrix(1,0,0,1,117.7562,313.4368)"><polygon points="-5,-5,0,0,5,-5"/></g><g class="DimensionMark" fill="#000000" id="mark4" stroke="none" style="fill-opacity: 1; pointer-events: visible;" transform="matrix(1,0,0,1,0,156.7184)"><polygon points="5,5,0,0,5,-5"/></g></g><g class="SpaceDimensionsLabel" style="display: block;" transform="matrix(1,0,0,1,80.8045,204.6934)"><g class="TextLabel NameLabel" id="NameLabel" style="display: block;"/><g class="TextLabel DimensionMeasureLabel" id="DimensionMeasureLabel" style="display: none;" transform="matrix(1,0,0,1,-119,80.0156)"/></g></g></g><g class="Space Bedroom" fill="#ffffff" id="a159f1e1-ca53-4036-b22e-ded132a57bcc" stroke="#ffffff" style="fill-opacity: 1; stroke-opacity: 1; stroke-width: 1;"><polygon points="529.42,993.99 173.44,993.99 173.44,691.55 529.42,691.55 "/><g class="Dimension" transform="matrix(1,0,0,1,173.444,691.5525)"><g class="Visual" style="display: none;" transform="matrix(1,0,0,1,0,0)"><g class="DimensionMark" fill="#000000" id="mark1" stroke="none" style="fill-opacity: 1; pointer-events: visible;" transform="matrix(1,0,0,1,177.9892,0)"><polygon points="-5,5,0,0,5,5"/></g><g class="DimensionMark" fill="#000000" id="mark2" stroke="none" style="fill-opacity: 1; pointer-events: visible;" transform="matrix(1,0,0,1,355.9785,151.2184)"><polygon points="-5,-5,0,0,-5,5"/></g><g class="DimensionMark" fill="#000000" id="mark3" stroke="none" style="fill-opacity: 1; pointer-events: visible;" transform="matrix(1,0,0,1,177.9892,302.4368)"><polygon points="-5,-5,0,0,5,-5"/></g><g class="DimensionMark" fill="#000000" id="mark4" stroke="none" style="fill-opacity: 1; pointer-events: visible;" transform="matrix(1,0,0,1,0,151.2184)"><polygon points="5,5,0,0,5,-5"/></g></g><g class="SpaceDimensionsLabel" style="display: block;" transform="matrix(1,0,0,1,143.5861,162.6861)"><g class="TextLabel NameLabel" id="NameLabel" style="display: block;"/><g class="TextLabel DimensionMeasureLabel" id="DimensionMeasureLabel" style="display: none;" transform="matrix(1,0,0,1,-113.6953,79.5625)"/></g></g></g><g class="Space Bedroom" fill="#ffffff" id="9f404289-3e61-42ca-a435-8477354e14a5" stroke="#ffffff" style="fill-opacity: 1; stroke-opacity: 1; stroke-width: 1;"><polygon points="995.35,588.80 753.94,588.80 753.94,260.34 995.35,260.34 "/><g class="Dimension" transform="matrix(1,0,0,1,753.9352,260.3377)"><g class="Visual" style="display: none;" transform="matrix(1,0,0,1,0,0)"><g class="DimensionMark" fill="#000000" id="mark1" stroke="none" style="fill-opacity: 1; pointer-events: visible;" transform="matrix(1,0,0,1,120.706,0)"><polygon points="-5,5,0,0,5,5"/></g><g class="DimensionMark" fill="#000000" id="mark2" stroke="none" style="fill-opacity: 1; pointer-events: visible;" transform="matrix(1,0,0,1,241.412,164.2299)"><polygon points="-5,-5,0,0,-5,5"/></g><g class="DimensionMark" fill="#000000" id="mark3" stroke="none" style="fill-opacity: 1; pointer-events: visible;" transform="matrix(1,0,0,1,120.706,328.4597)"><polygon points="-5,-5,0,0,5,-5"/></g><g class="DimensionMark" fill="#000000" id="mark4" stroke="none" style="fill-opacity: 1; pointer-events: visible;" transform="matrix(1,0,0,1,0,164.2299)"><polygon points="5,5,0,0,5,-5"/></g></g><g class="SpaceDimensionsLabel" style="display: block;" transform="matrix(1,0,0,1,105.9067,166.9206)"><g class="TextLabel NameLabel" id="NameLabel" style="display: block;"/><g class="TextLabel DimensionMeasureLabel" id="DimensionMeasureLabel" style="display: none;" transform="matrix(1,0,0,1,-113.7031,80.0156)"/></g></g></g><g class="Space UserDefined" fill="#ffffff" id="55fbed17-6288-4aa7-9f64-88ec5aa74561" stroke="#ffffff" style="fill-opacity: 1; stroke-opacity: 1; stroke-width: 1;"><polygon points="995.35,841.56 786.93,841.56 786.93,789.04 725.80,789.04 725.80,599.80 995.35,599.80 "/><g class="Dimension" transform="matrix(1,0,0,1,725.7966,599.7974)"><g class="Visual" style="display: none;" transform="matrix(1,0,0,1,0,0)"><g class="DimensionMark" fill="#000000" id="mark1" stroke="none" style="fill-opacity: 1; pointer-events: visible;" transform="matrix(1,0,0,1,134.7753,0)"><polygon points="-5,5,0,0,5,5"/></g><g class="DimensionMark" fill="#000000" id="mark2" stroke="none" style="fill-opacity: 1; pointer-events: visible;" transform="matrix(1,0,0,1,269.5506,120.881)"><polygon points="-5,-5,0,0,-5,5"/></g><g class="DimensionMark" fill="#000000" id="mark3" stroke="none" style="fill-opacity: 1; pointer-events: visible;" transform="matrix(1,0,0,1,134.7753,241.762)"><polygon points="-5,-5,0,0,5,-5"/></g><g class="DimensionMark" fill="#000000" id="mark4" stroke="none" style="fill-opacity: 1; pointer-events: visible;" transform="matrix(1,0,0,1,0,120.881)"><polygon points="5,5,0,0,5,-5"/></g></g><g class="SpaceDimensionsLabel" transform="matrix(1,0,0,1,14.4222,132.8144)"><g class="TextLabel NameLabel" id="NameLabel" style="display: block;"/><g class="TextLabel DimensionMeasureLabel" id="DimensionMeasureLabel" style="display: none;" transform="matrix(1,0,0,1,-62.6484,79.9531)"/></g></g></g><g class="Space Storage" fill="#ffffff" id="cb975b50-4ef1-4002-96a7-c518da96384a" stroke="#ffffff" style="fill-opacity: 1; stroke-opacity: 1; stroke-width: 1;"><polygon points="995.35,1232.15 712.02,1232.15 712.02,1024.99 995.35,1024.99 "/><g class="Dimension" transform="matrix(1,0,0,1,712.0194,1024.9894)"><g class="Visual" style="display: none;" transform="matrix(1,0,0,1,0,0)"><g class="DimensionMark" fill="#000000" id="mark1" stroke="none" style="fill-opacity: 1; pointer-events: visible;" transform="matrix(1,0,0,1,141.6639,0)"><polygon points="-5,5,0,0,5,5"/></g><g class="DimensionMark" fill="#000000" id="mark2" stroke="none" style="fill-opacity: 1; pointer-events: visible;" transform="matrix(1,0,0,1,283.3278,103.5803)"><polygon points="-5,-5,0,0,-5,5"/></g><g class="DimensionMark" fill="#000000" id="mark3" stroke="none" style="fill-opacity: 1; pointer-events: visible;" transform="matrix(1,0,0,1,141.6639,207.1606)"><polygon points="-5,-5,0,0,5,-5"/></g><g class="DimensionMark" fill="#000000" id="mark4" stroke="none" style="fill-opacity: 1; pointer-events: visible;" transform="matrix(1,0,0,1,0,103.5803)"><polygon points="5,5,0,0,5,-5"/></g></g><g class="SpaceDimensionsLabel" style="display: block;" transform="matrix(1,0,0,1,101.669,115.0481)"><g class="TextLabel NameLabel" id="NameLabel" style="display: block;"/><g class="TextLabel DimensionMeasureLabel" id="DimensionMeasureLabel" style="display: none;" transform="matrix(1,0,0,1,-105.1641,79.7969)"/></g></g></g><g class="Space Undefined" fill="#ffffff" id="2a8195bb-85d9-48d1-b46b-deddb586b83b" stroke="#ffffff" style="fill-opacity: 1; stroke-opacity: 1; stroke-width: 1;"><polygon points="995.35,993.99 786.93,993.99 786.93,852.56 995.35,852.56 "/><g class="Dimension" transform="matrix(1,0,0,1,786.9349,852.5595)"><g class="Visual" style="display: none;" transform="matrix(1,0,0,1,0,0)"><g class="DimensionMark" fill="#000000" id="mark1" stroke="none" style="fill-opacity: 1; pointer-events: visible;" transform="matrix(1,0,0,1,104.2061,0)"><polygon points="-5,5,0,0,5,5"/></g><g class="DimensionMark" fill="#000000" id="mark2" stroke="none" style="fill-opacity: 1; pointer-events: visible;" transform="matrix(1,0,0,1,208.4123,70.7149)"><polygon points="-5,-5,0,0,-5,5"/></g><g class="DimensionMark" fill="#000000" id="mark3" stroke="none" style="fill-opacity: 1; pointer-events: visible;" transform="matrix(1,0,0,1,104.2061,141.4299)"><polygon points="-5,-5,0,0,5,-5"/></g><g class="DimensionMark" fill="#000000" id="mark4" stroke="none" style="fill-opacity: 1; pointer-events: visible;" transform="matrix(1,0,0,1,0,70.7149)"><polygon points="5,5,0,0,5,-5"/></g></g><g class="SpaceDimensionsLabel" transform="matrix(1,0,0,1,70.715,70.715)"><g class="TextLabel NameLabel" id="NameLabel" style="display: block;"/><g class="TextLabel DimensionMeasureLabel" id="DimensionMeasureLabel" style="display: none;" transform="matrix(1,0,0,1,-40.5235,79.5625)"/></g></g></g><g class="Wall External" fill="#000000" id="Wall" stroke="#000000" style="fill-opacity: 1; stroke-opacity: 1; stroke-width: 1;"><polygon points="995.35,993.99 173.44,993.99 142.44,1024.99 1019.35,1024.99 "/><g class="Window Regular" fill="#f0f0ff" id="Window" stroke="#000000" style="fill-opacity: 1; stroke-width: 1; stroke-opacity: 1;"><polygon points="368.11,993.99 193.19,993.99 193.19,1024.99 368.11,1024.99 "/><g class="Glass" id="Glass"><polygon points="368.11,993.99 193.19,993.99 193.19,1024.99 368.11,1024.99 "/></g><g class="Panel" id="Panel"><line x1="360.60524330855037" x2="200.69056322326628" y1="1009.4893576856207" y2="1009.4893576856207"/><line x1="360.60524330855037" x2="360.60524330855037" y1="993.9893576856208" y2="1024.9893576856207"/><line x1="200.69056322326628" x2="200.69056322326628" y1="993.9893576856208" y2="1024.9893576856207"/></g></g><g class="Door Swing Beside" fill="#ffffff" id="Door" stroke="#000000" style="fill-opacity: 1; stroke-width: 1; stroke-opacity: 1;"><polygon points="640.43,993.99 574.31,993.99 574.31,1024.99 640.43,1024.99 "/><g class="Panel Left Positive" fill="none" id="Panel" style=""><g class="PanelArea" fill="none" id="PanelArea" stroke="none" style=""><polygon points="640.43,993.99 574.31,993.99 574.31,1024.99 640.43,1024.99 "/></g><path d="M574.31,1024.99 q0.00,66.13 66.13,66.13 l0.00,-66.13Z"/></g></g></g><g class="Wall External" fill="#000000" id="Wall" stroke="#000000" style="fill-opacity: 1; stroke-opacity: 1; stroke-width: 1;"><polygon points="173.44,993.99 173.44,260.34 142.44,229.34 142.44,1024.99 "/><g class="Window Regular" fill="#f0f0ff" id="Window" stroke="#000000" style="fill-opacity: 1; stroke-width: 1; stroke-opacity: 1;"><polygon points="173.44,951.39 173.44,791.41 142.44,791.41 142.44,951.39 "/><g class="Glass" id="Glass"><polygon points="173.44,951.39 173.44,791.41 142.44,791.41 142.44,951.39 "/></g><g class="Panel" id="Panel"><line x1="157.9440117015066" x2="157.94401170150658" y1="943.8933690412707" y2="798.9104299388766"/><line x1="173.4440117015066" x2="142.4440117015066" y1="943.8933690412707" y2="943.8933690412707"/><line x1="173.44401170150658" x2="142.44401170150658" y1="798.9104299388766" y2="798.9104299388766"/></g></g><g class="Window Regular" fill="#f0f0ff" id="Window" stroke="#000000" style="fill-opacity: 1; stroke-width: 1; stroke-opacity: 1;"><polygon points="173.44,444.43 173.44,317.15 142.44,317.15 142.44,444.43 "/><g class="Glass" id="Glass"><polygon points="173.44,444.43 173.44,317.15 142.44,317.15 142.44,444.43 "/></g><g class="Panel" id="Panel"><line x1="157.94401170150655" x2="157.94401170150653" y1="436.92520567809083" y2="324.64988968107514"/><line x1="173.44401170150655" x2="142.44401170150655" y1="436.92520567809083" y2="436.92520567809083"/><line x1="173.44401170150653" x2="142.44401170150653" y1="324.64988968107514" y2="324.64988968107514"/></g></g></g><g class="Wall External" fill="#000000" id="Wall" stroke="#000000" style="fill-opacity: 1; stroke-opacity: 1; stroke-width: 1;"><polygon points="173.44,260.34 995.35,260.34 1019.35,229.34 142.44,229.34 "/><g class="Window Regular" fill="#f0f0ff" id="Window" stroke="#000000" style="fill-opacity: 1; stroke-width: 1; stroke-opacity: 1;"><polygon points="193.90,260.34 326.87,260.34 326.87,229.34 193.90,229.34 "/><g class="Glass" id="Glass"><polygon points="193.90,260.34 326.87,260.34 326.87,229.34 193.90,229.34 "/></g><g class="Panel" id="Panel"><line x1="201.40160085222087" x2="319.3651991284328" y1="244.83769983356535" y2="244.8376998335653"/><line x1="201.40160085222087" x2="201.40160085222087" y1="260.33769983356535" y2="229.33769983356535"/><line x1="319.3651991284328" x2="319.3651991284328" y1="260.3376998335653" y2="229.3376998335653"/></g></g><g class="Window Regular" fill="#f0f0ff" id="Window" stroke="#000000" style="fill-opacity: 1; stroke-width: 1; stroke-opacity: 1;"><polygon points="330.42,260.34 472.63,260.34 472.63,229.34 330.42,229.34 "/><g class="Glass" id="Glass"><polygon points="330.42,260.34 472.63,260.34 472.63,229.34 330.42,229.34 "/></g><g class="Panel" id="Panel"><line x1="337.9203755529304" x2="465.1274325328362" y1="244.8376998335653" y2="244.8376998335653"/><line x1="337.9203755529304" x2="337.9203755529304" y1="260.3376998335653" y2="229.3376998335653"/><line x1="465.1274325328362" x2="465.1274325328362" y1="260.3376998335653" y2="229.3376998335653"/></g></g><g class="Door Swing Beside" fill="#ffffff" id="Door" stroke="#000000" style="fill-opacity: 1; stroke-width: 1; stroke-opacity: 1;"><polygon points="582.84,260.34 650.39,260.34 650.39,229.34 582.84,229.34 "/><g class="Panel Right Positive" fill="none" id="Panel" style=""><g class="PanelArea" fill="none" id="PanelArea" stroke="none" style=""><polygon points="582.84,260.34 650.39,260.34 650.39,229.34 582.84,229.34 "/></g><path d="M582.84,229.34 q0.00,-67.55 67.55,-67.55 l0.00,67.55Z"/></g></g><g class="Window Regular" fill="#f0f0ff" id="Window" stroke="#000000" style="fill-opacity: 1; stroke-width: 1; stroke-opacity: 1;"><polygon points="802.55,260.34 950.44,260.34 950.44,229.34 802.55,229.34 "/><g class="Glass" id="Glass"><polygon points="802.55,260.34 950.44,260.34 950.44,229.34 802.55,229.34 "/></g><g class="Panel" id="Panel"><line x1="810.0477887678426" x2="942.9431280269446" y1="244.83769983356524" y2="244.83769983356518"/><line x1="810.0477887678426" x2="810.0477887678426" y1="260.33769983356524" y2="229.33769983356524"/><line x1="942.9431280269446" x2="942.9431280269446" y1="260.3376998335652" y2="229.33769983356518"/></g></g></g><g class="Wall External" fill="#000000" id="Wall" stroke="#000000" style="fill-opacity: 1; stroke-opacity: 1; stroke-width: 1;"><polygon points="995.35,260.34 995.35,993.99 1019.35,1024.99 1019.35,229.34 "/></g><g class="Wall External" fill="#000000" id="Wall" stroke="#000000" style="fill-opacity: 1; stroke-opacity: 1; stroke-width: 1;"><polygon points="995.35,1024.99 995.35,1232.15 1005.35,1242.15 1005.35,1024.99 "/></g><g class="Wall External" fill="#000000" id="Wall" stroke="#000000" style="fill-opacity: 1; stroke-opacity: 1; stroke-width: 1;"><polygon points="995.35,1232.15 712.02,1232.15 702.02,1242.15 1005.35,1242.15 "/><g class="Window Regular" fill="#f0f0ff" id="Window" stroke="#000000" style="fill-opacity: 1; stroke-width: 1; stroke-opacity: 1;"><polygon points="937.64,1232.15 804.68,1232.15 804.68,1242.15 937.64,1242.15 "/><g class="Glass" id="Glass"><polygon points="937.64,1232.15 804.68,1232.15 804.68,1242.15 937.64,1242.15 "/></g><g class="Panel" id="Panel"><line x1="930.1445044495033" x2="812.1809061732915" y1="1237.149990703288" y2="1237.149990703288"/><line x1="930.1445044495033" x2="930.1445044495033" y1="1232.149990703288" y2="1242.149990703288"/><line x1="812.1809061732915" x2="812.1809061732915" y1="1232.149990703288" y2="1242.149990703288"/></g></g></g><g class="Wall External" fill="#000000" id="Wall" stroke="#000000" style="fill-opacity: 1; stroke-opacity: 1; stroke-width: 1;"><polygon points="712.02,1232.15 712.02,993.99 702.02,993.99 702.02,1242.15 "/><g class="Door Swing Beside" fill="#ffffff" id="Door" stroke="#000000" style="fill-opacity: 1; stroke-width: 1; stroke-opacity: 1;"><polygon points="712.02,1205.94 712.02,1139.82 702.02,1139.82 702.02,1205.94 "/><g class="Panel Left Positive" fill="none" id="Panel" style=""><g class="PanelArea" fill="none" id="PanelArea" stroke="none" style=""><polygon points="712.02,1205.94 712.02,1139.82 702.02,1139.82 702.02,1205.94 "/></g><path d="M702.02,1139.82 q-66.13,0.00 -66.13,66.13 l66.13,0.00Z"/></g></g></g><g class="Wall" fill="#000000" id="Wall" stroke="#000000" style="fill-opacity: 1; stroke-opacity: 1; stroke-width: 1;"><polygon points="786.93,1024.99 786.93,789.04 775.93,800.04 775.93,1024.99 "/></g><g class="Wall" fill="#000000" id="Wall" stroke="#000000" style="fill-opacity: 1; stroke-opacity: 1; stroke-width: 1;"><polygon points="786.93,789.04 725.80,789.04 714.80,800.04 775.93,800.04 "/></g><g class="Wall" fill="#000000" id="Wall" stroke="#000000" style="fill-opacity: 1; stroke-opacity: 1; stroke-width: 1;"><polygon points="714.80,800.04 714.80,588.80 725.80,599.80 725.80,789.04 "/><g class="Door Swing Beside" fill="#ffffff" id="Door" stroke="#000000" style="fill-opacity: 1; stroke-width: 1; stroke-opacity: 1;"><polygon points="714.80,759.41 714.80,694.00 725.80,694.00 725.80,759.41 "/><g class="Panel Left Negative" fill="none" id="Panel" style=""><g class="PanelArea" fill="none" id="PanelArea" stroke="none" style=""><polygon points="714.80,759.41 714.80,694.00 725.80,694.00 725.80,759.41 "/></g><path d="M714.80,759.41 q-65.42,0.00 -65.42,-65.42 l65.42,0.00Z"/></g></g></g><g class="Wall" fill="#000000" id="Wall" stroke="#000000" style="fill-opacity: 1; stroke-opacity: 1; stroke-width: 1;"><polygon points="714.80,588.80 1019.35,588.80 1019.35,599.80 725.80,599.80 "/></g><g class="Wall" fill="#000000" id="Wall" stroke="#000000" style="fill-opacity: 1; stroke-opacity: 1; stroke-width: 1;"><polygon points="753.94,599.80 753.94,229.34 742.94,229.34 742.94,599.80 "/><g class="Door Swing Beside" fill="#ffffff" id="Door" stroke="#000000" style="fill-opacity: 1; stroke-width: 1; stroke-opacity: 1;"><polygon points="753.94,581.66 753.94,516.95 742.94,516.95 742.94,581.66 "/><g class="Panel Right Negative" fill="none" id="Panel" style=""><g class="PanelArea" fill="none" id="PanelArea" stroke="none" style=""><polygon points="753.94,581.66 753.94,516.95 742.94,516.95 742.94,581.66 "/></g><path d="M753.94,516.95 q64.70,0.00 64.70,64.70 l-64.70,0.00Z"/></g></g></g><g class="Wall" fill="#000000" id="Wall" stroke="#000000" style="fill-opacity: 1; stroke-opacity: 1; stroke-width: 1;"><polygon points="142.44,691.55 529.42,691.55 540.42,680.55 142.44,680.55 "/></g><g class="Wall" fill="#000000" id="Wall" stroke="#000000" style="fill-opacity: 1; stroke-opacity: 1; stroke-width: 1;"><polygon points="529.42,691.55 529.42,1024.99 540.42,1024.99 540.42,680.55 "/><g class="Door Swing Beside" fill="#ffffff" id="Door" stroke="#000000" style="fill-opacity: 1; stroke-width: 1; stroke-opacity: 1;"><polygon points="529.42,729.55 529.42,793.54 540.42,793.54 540.42,729.55 "/><g class="Panel Right Negative" fill="none" id="Panel" style=""><g class="PanelArea" fill="none" id="PanelArea" stroke="none" style=""><polygon points="529.42,729.55 529.42,793.54 540.42,793.54 540.42,729.55 "/></g><path d="M529.42,793.54 q-63.99,0.00 -63.99,-63.99 l63.99,0.00Z"/></g></g></g><g class="Railing" fill="#ffffff" id="Railing" stroke="#000000" style="fill-opacity: 1; stroke-opacity: 1; stroke-width: 1;"><polygon points="995.35,229.34 995.35,84.89 1006.35,84.89 1006.35,229.34 " style="stroke-dasharray: 0;"/></g><g class="Railing" fill="#ffffff" id="Railing" stroke="#000000" style="fill-opacity: 1; stroke-opacity: 1; stroke-width: 1;"><polygon points="513.47,229.34 513.47,84.89 502.47,84.89 502.47,229.34 " style="stroke-dasharray: 0;"/></g><g class="Railing" fill="#ffffff" id="Railing" stroke="#000000" style="fill-opacity: 1; stroke-opacity: 1; stroke-width: 1;"><polygon points="702.02,1242.15 471.30,1242.15 471.30,1231.15 702.02,1231.15 " style="stroke-dasharray: 0;"/></g><g class="Column Rectangle" fill="#000000" id="Column" stroke="none" style="fill-opacity: 1;"><polygon points="471.30,1242.15 471.30,1226.84 485.75,1226.84 485.75,1242.15 "/></g><g class="Wall" fill="#000000" id="Wall" stroke="#000000" style="fill-opacity: 1; stroke-opacity: 1; stroke-width: 1;"><polygon points="786.93,852.56 1019.35,852.56 1019.35,841.56 786.93,841.56 "/><g class="Door Swing Beside" fill="#ffffff" id="Door" stroke="#000000" style="fill-opacity: 1; stroke-width: 1; stroke-opacity: 1;"><polygon points="806.10,852.56 874.36,852.56 874.36,841.56 806.10,841.56 "/><g class="Panel Left Positive" fill="none" id="Panel" style=""><g class="PanelArea" fill="none" id="PanelArea" stroke="none" style=""><polygon points="806.10,852.56 874.36,852.56 874.36,841.56 806.10,841.56 "/></g><path d="M874.36,841.56 q0.00,-68.26 -68.26,-68.26 l0.00,68.26Z"/></g></g></g><g class="FixedFurniture ElectricalAppliance" fill="#ffffff" stroke="#000000" style="fill-opacity: 1; stroke-opacity: 1;" transform="matrix(0,1.226,-1.2397,0,995.3472,1024.9893)">
<g class="BoundaryPolygon">
<polygon points="0,0 60,0 60,60 0,60"/>
</g>
<g class="electricitySign" fill="none">
<path d="M0,0,30.1,39.8V19.4L59.9,60"/>
</g>
<g class="Direction" fill-opacity="0.9" style="display: none;">
<polygon fill="#444444" points="32.009 55.197 32.009 44.581 29 44.581 29 55.197 25.197 55.197 30.5 60 35.803 55.197 32.009 55.197"/>
</g>
<g class="Name" fill-opacity="0.9" style="display: none;">

</g>
<desc>Width:60 Height:200 Depth:60 Elevation:0</desc>
</g><g class="FixedFurniture SaunaBenchHigh" fill="#ffffff" stroke="#000000" style="fill-opacity: 1; stroke-opacity: 1;" transform="matrix(-1,0,0,-1,995.138,993.8175)">
<g class="BoundaryPolygon">
<polygon points="0.00,0.00 208.20,0.00 208.20,54.09 0.00,54.09 "/>
</g>

<g class="Direction" fill-opacity="0.9" style="display: none;">
<polygon fill="#444444" points="107.38,49.27 107.38,38.65 104.37,38.65 104.37,49.27 100.56,49.27 105.87,54.57 111.17,49.27 107.38,49.27 "/>
</g>
<g class="Name" fill-opacity="0.9" style="display: none;">

</g>
<desc>Width:185 Height:5 Depth:60 Elevation:105</desc>
</g><g class="FixedFurniture SaunaBenchMid" fill="#ffffff" stroke="#000000" style="fill-opacity: 1; stroke-opacity: 1;" transform="matrix(-1,0,0,-1,995.3472,939.5601)">
<g class="BoundaryPolygon">
<polygon points="0.00,0.00 208.53,0.00 208.53,40.00 0.00,40.00 "/>
</g>

<g class="Direction" fill-opacity="0.9" style="display: none;">
<polygon fill="#444444" points="105.97,34.66 105.97,24.04 102.96,24.04 102.96,34.66 99.15,34.66 104.46,39.96 109.76,34.66 105.97,34.66 "/>
</g>
<g class="Name" fill-opacity="0.9" style="display: none;">

</g>
<desc>Width:185 Height:5 Depth:40 Elevation:60</desc>
</g><g class="FixedFurniture ElectricalAppliance SaunaStove" fill="#ffffff" stroke="#000000" style="fill-opacity: 1; stroke-opacity: 1;" transform="matrix(0.5261,0,0,0.8786,935.1138,861.4945)">
<g class="BoundaryPolygon">
<polygon points="0,0 60,0 60,35 0,35"/>
</g>
<g class="electricitySign" fill="none">
<polyline points="0 35 39.7 17.5 21.4 17.5 60 0"/>
</g>
<g class="Direction" fill-opacity="0.9" style="display: none;">
<polygon fill="#444444" points="31.509 29.697 31.509 19.081 28.5 19.081 28.5 29.697 24.697 29.697 30 35 35.303 29.697 31.509 29.697"/>
</g>
<g class="Name" fill-opacity="0.9" style="display: none;">

</g>
<desc>Width:60 Height:60 Depth:35 Elevation:20</desc>
</g><g class="FixedFurniture Shower" fill="#ffffff" stroke="#000000" style="fill-opacity: 1; stroke-opacity: 1;" transform="matrix(0,1,-1,0,995.3472,788.8606)">
<g class="BoundaryPolygon" fill="none" stroke="none">
<polygon points="0,0 32,0 32,19 0,19"/>
</g>
<g class="InnerPolygon">
<rect height="6.1" width="11.2" x="3.7" y="0.5"/>
<rect height="6.1" width="11.2" x="17.6" y="0.5"/>
<rect height="6.1" width="3.4" x="28.7" y="0.5"/>
<rect height="6.1" width="3.2" x="0.5" y="0.5"/>
<path d="M14.9,8.5c0,1.5-0.4,3.3-1.6,5    c-0.4,0.6-1,1.1-1.1,1.7c-0.2,1.1,0.3,2.8,2.5,3.2c0.5,0.1,1.3,0.1,1.6,0.1h-0.1c0.3,0,1.1,0,1.6-0.1c2.2-0.4,2.7-2.1,2.5-3.2    c-0.1-0.6-0.7-1.1-1.1-1.7c-1.2-1.7-1.6-3.5-1.6-5"/>
<path d="M12.2,15.3c0.1,0.2,1.6,1.9,4.2,1.9 c2.4-0.1,3.7-1.7,3.9-1.9"/>
<path d="M14.9,0.5h2.7v8c-0.9,0-1.8,0-2.7,0l0,0 C14.9,5.9,14.9,3.2,14.9,0.5z"/>
</g>
<g class="Indicator">
<path d="M3.7,3.6C5,3.1,5.2,3,5.2,3 c0,1.1,0,0,0,1.1C5.2,4.1,5.1,4.1,3.7,3.6"/>
<path d="M28.7,3.6 C27.4,3.1,27.2,3,27.2,3c0,1.1,0,0,0,1.1C27.2,4.1,27.3,4.1,28.7,3.6"/>
</g>
<desc>Width:32 Height:97 Depth:19 Elevation:135</desc>
</g><g class="FixedFurniture Toilet" fill="#ffffff" stroke="#000000" style="fill-opacity: 1; stroke-opacity: 1;" transform="matrix(0,1,-1,0,995.3472,699.0268)">
<g class="BoundaryPolygon" fill="none" stroke="none">
<polygon points="0,0 41,0 41,71 0,71"/>
</g>
<g class="InnerPolygon">
<rect height="17.98" width="39.989" x="0.502" y="0.5"/>
<path d="M40.491,44.237S41.619,70.5,20.907,70.5C-.523,70.5.6,44.237.6,44.237L.5,18.48H40.491Z"/>
<rect height="3.03" width="6.357" x="17.318" y="7.975"/>
</g>
<desc>Width:41 Height:85 Depth:71 Elevation:0</desc>
</g><g class="FixedFurniture BaseCabinet" fill="#ffffff" stroke="#000000" style="fill-opacity: 1; stroke-opacity: 1;" transform="matrix(1,0,0,1,835.0172,599.9693)">
<g class="BoundaryPolygon">
<polygon points="0.00,0.00 160.33,0.00 160.33,60.00 0.00,60.00 "/>
</g>
<g class="Direction" fill-opacity="0.9" style="display: none;">
<polygon fill="#444444" points="85.53,55.20 85.53,44.58 82.52,44.58 82.52,55.20 78.72,55.20 84.02,60.00 89.33,55.20 85.53,55.20 "/>
</g>
<g class="Name" fill-opacity="0.9" style="display: none;">

</g>
<desc>Width:60 Height:90 Depth:60 Elevation:0</desc>
</g><g class="FixedFurniture ElectricalAppliance" fill="#ffffff" stroke="#000000" style="fill-opacity: 1; stroke-opacity: 1;" transform="matrix(1.049,0,0,1,725.7966,599.9693)">
<g class="BoundaryPolygon">
<polygon points="0,0 60,0 60,60 0,60"/>
</g>
<g class="electricitySign" fill="none">
<path d="M0,0,30.1,39.8V19.4L59.9,60"/>
</g>
<g class="Direction" fill-opacity="0.9" style="display: none;">
<polygon fill="#444444" points="32.009 55.197 32.009 44.581 29 44.581 29 55.197 25.197 55.197 30.5 60 35.803 55.197 32.009 55.197"/>
</g>
<g class="Name" fill-opacity="0.9" style="display: none;">

</g>
<desc>Width:60 Height:200 Depth:60 Elevation:0</desc>
</g><g class="FixedFurniture Closet" fill="#ffffff" stroke="#000000" style="fill-opacity: 1; stroke-opacity: 1;" transform="matrix(1,0,0,1,788.7379,599.9693)">
<g class="BoundaryPolygon">
<polygon points="0.00,0.00 46.60,0.00 46.60,60.00 0.00,60.00 "/>
</g>
<g class="Direction" fill-opacity="0.9" style="display: none;">
<polygon fill="#444444" points="24.47,54.70 24.47,44.08 21.46,44.08 21.46,54.70 17.66,54.70 22.96,60.00 28.27,54.70 24.47,54.70 "/>
</g>
<g class="Name" fill-opacity="0.9" style="display: none;">

</g>
<desc>Width:60 Height:200 Depth:60 Elevation:0</desc>
</g><g class="FixedFurniture Sink" fill="#ffffff" stroke="#000000" style="fill-opacity: 1; stroke-opacity: 1;" transform="matrix(1,0,0,1,857.1452,600.1412)">
<g class="BoundaryPolygon" fill="none" stroke="none">
<polygon points="0.00,0.00 60.00,0.00 60.00,54.46 0.00,54.46 "/>
</g>
<g class="InnerPolygon">
<polygon points="5.00,9.70 55.00,9.70 55.00,49.65 5.00,49.65 "/>
</g>
<g class="OuterDrain" stroke-width="0.8">
<circle cx="30" cy="29.226972107168255" r="3.5"/>
</g>
<g class="InnerDrain" stroke-width="0.8">
<circle cx="30" cy="29.226972107168255" r="2"/>
</g>
<g class="Faucet">
<polygon points="27.00,4.54 33.00,4.54 33.00,18.54 27.00,18.54 "/>
</g>
<g class="Direction" fill-opacity="0.9" style="display: none;">
<polygon fill="#444444" points="32.01,50.10 32.01,39.48 29.00,39.48 29.00,50.10 25.20,50.10 30.50,54.90 35.80,50.10 32.01,50.10 "/>
</g>
<g class="Name" fill-opacity="0.9" style="display: none;">

</g>
<desc>Width:60 Height:90 Depth:60 Elevation:0</desc>
</g><g class="FixedFurnitureSet" fill="#ffffff" id="FixedFurnitureSet" stroke="#000000" style="fill-opacity: 0.4; stroke-opacity: 0.4;" transform="matrix(0,1,-1,0,529.2506,882.2258)"><g class="FixedFurniture Closet" fill="#ffffff" stroke="#000000" style="fill-opacity: 1; stroke-opacity: 1;" transform="matrix(1,0,0,1,0,0)">
<g class="BoundaryPolygon">
<polygon points="0.00,0.00 55.88,0.00 55.88,63.09 0.00,63.09 "/>
</g>
<g class="Direction" fill-opacity="0.9" style="display: none;">
<polygon fill="#444444" points="29.35,57.51 29.35,46.90 26.34,46.90 26.34,57.51 22.54,57.51 27.84,62.82 33.14,57.51 29.35,57.51 "/>
</g>
<g class="Name" fill-opacity="0.9" style="display: none;">

</g>
<desc>Width:60 Height:200 Depth:60 Elevation:0</desc>
</g><g class="FixedFurniture Closet" fill="#ffffff" stroke="#000000" style="fill-opacity: 1; stroke-opacity: 1;" transform="matrix(1,0,0,1,55.8835,0)">
<g class="BoundaryPolygon">
<polygon points="0.00,0.00 55.88,0.00 55.88,63.09 0.00,63.09 "/>
</g>
<g class="Direction" fill-opacity="0.9" style="display: none;">
<polygon fill="#444444" points="29.35,57.51 29.35,46.90 26.34,46.90 26.34,57.51 22.54,57.51 27.84,62.82 33.14,57.51 29.35,57.51 "/>
</g>
<g class="Name" fill-opacity="0.9" style="display: none;">

</g>
<desc>Width:60 Height:200 Depth:60 Elevation:0</desc>
</g></g><g class="FixedFurniture CoatCloset" fill="#ffffff" stroke="#000000" style="fill-opacity: 1; stroke-opacity: 1;" transform="matrix(0,1,-1,0,529.2506,806.2126)">
<g class="BoundaryPolygon">
<polygon points="0.00,0.00 76.01,0.00 76.01,63.43 0.00,63.43 "/>
</g>

<g class="Direction" fill-opacity="0.9" style="display: none;">
<polygon fill="#444444" points="38.96,57.64 38.96,47.02 35.95,47.02 35.95,57.64 32.15,57.64 37.45,62.94 42.76,57.64 38.96,57.64 "/>
</g>
<g class="Name" fill-opacity="0.9" style="display: none;">

</g>
<desc>Width:120 Height:200 Depth:60 Elevation:0</desc>
</g><g class="FixedFurniture BaseCabinet" fill="#ffffff" stroke="#000000" style="fill-opacity: 1; stroke-opacity: 1;" transform="matrix(-1,0,0,-1,539.984,680.5525)">
<g class="BoundaryPolygon">
<polygon points="0.00,0.00 306.54,0.00 306.54,60.00 0.00,60.00 "/>
</g>
<g class="Direction" fill-opacity="0.9" style="display: none;">
<polygon fill="#444444" points="163.53,55.20 163.53,44.58 160.52,44.58 160.52,55.20 156.72,55.20 162.02,60.00 167.33,55.20 163.53,55.20 "/>
</g>
<g class="Name" fill-opacity="0.9" style="display: none;">

</g>
<desc>Width:60 Height:90 Depth:60 Elevation:0</desc>
</g><g class="FixedFurniture ElectricalAppliance Refrigerator" fill="#ffffff" stroke="#000000" style="fill-opacity: 1; stroke-opacity: 1;" transform="matrix(-1,0,0,-1,233.444,680.5526)">
<g class="BoundaryPolygon">
<polygon points="0,0 60,0 60,60 0,60"/>
</g>
<g class="electricitySign" fill="none">
<path d="M0,0,30,37.1v-18L60,56.3"/>
</g>
<g class="Doors">
<rect height="4" width="60" y="56"/>
</g>
<g class="Direction" fill-opacity="0.9" style="display: none;">
<polygon fill="#444444" points="32.009 55.197 32.009 44.581 29 44.581 29 55.197 25.197 55.197 30.5 60 35.803 55.197 32.009 55.197"/>
</g>
<g class="Name" fill-opacity="0.9" style="display: none;">

</g>
<desc>Width:60 Height:170 Depth:60 Elevation:0</desc>
</g><g class="FixedFurniture Sink" fill="#ffffff" stroke="#000000" style="fill-opacity: 1; stroke-opacity: 1;" transform="matrix(-1,0,0,-1,291.3198,680.5525)">
<g class="BoundaryPolygon" fill="none" stroke="none">
<polygon points="0.00,0.00 49.02,0.00 49.02,60.00 0.00,60.00 "/>
</g>
<g class="InnerPolygon">
<polygon points="4.09,9.70 44.94,9.70 44.94,54.70 4.09,54.70 "/>
</g>
<g class="OuterDrain" stroke-width="0.8">
<circle cx="24.510435696003597" cy="32.2" r="3.5"/>
</g>
<g class="InnerDrain" stroke-width="0.8">
<circle cx="24.510435696003597" cy="32.2" r="2"/>
</g>
<g class="Faucet">
<polygon points="22.06,5.00 28.06,5.00 28.06,19.00 22.06,19.00 "/>
</g>
<g class="Direction" fill-opacity="0.9" style="display: none;">
<polygon fill="#444444" points="26.15,55.20 26.15,44.58 23.14,44.58 23.14,55.20 19.34,55.20 24.64,60.00 29.95,55.20 26.15,55.20 "/>
</g>
<g class="Name" fill-opacity="0.9" style="display: none;">

</g>
<desc>Width:60 Height:90 Depth:60 Elevation:0</desc>
</g><g class="FixedFurniture ElectricalAppliance SpaceForAppliance2" fill="#ffffff" stroke="#000000" style="fill-opacity: 1; stroke-opacity: 1;" transform="matrix(-1,0,0,-1,357.5446,680.5525)">
<g class="BoundaryPolygon">
<polygon points="0,0 60,0 60,60 0,60"/>
</g>
<g class="electricitySign" fill="none">
<path d="M0,0,30.1,39.8V19.4L59.9,60"/>
</g>
<g class="Direction" fill-opacity="0.9" style="display: none;">
<polygon fill="#444444" points="32.009 55.197 32.009 44.581 29 44.581 29 55.197 25.197 55.197 30.5 60 35.803 55.197 32.009 55.197"/>
</g>
<g class="Name" fill-opacity="0.9" style="display: none;">

</g>
<desc>Width:60 Height:90 Depth:60 Elevation:0</desc>
</g><g class="FixedFurniture ElectricalAppliance IntegratedStove" fill="#ffffff" stroke="#000000" style="fill-opacity: 1; stroke-opacity: 1;" transform="matrix(-1,0,0,-1,452.0448,680.5525)">
<g class="BoundaryPolygon" fill="none" stroke="none">
<polygon points="0.00,0.00 65.16,0.00 65.16,60.00 0.00,60.00 "/>
</g>
<g class="InnerPolygon">
<polygon points="2.00,2.00 62.99,2.00 62.99,58.00 2.00,58.00 "/>
</g>
<g class="OuterCircle">
<circle cx="17.37584448751225" cy="16" r="8"/>
<circle cx="47.78357234065868" cy="16" r="8"/>
<circle cx="17.37584448751225" cy="44" r="8"/>
<circle cx="47.78357234065868" cy="44" r="8"/>
</g>
<g class="Direction" fill-opacity="0.9" style="display: none;">
<polygon fill="#444444" points="34.76,55.20 34.76,44.58 31.75,44.58 31.75,55.20 27.95,55.20 33.25,60.00 38.56,55.20 34.76,55.20 "/>
</g>
<g class="Name" fill-opacity="0.9" style="display: none;">

</g>
<desc>Width:60 Height:90 Depth:30 Elevation:0</desc>
</g><g class="SelectionControls" fill="#0000ff" stroke="#0000ff" style="display: none;"><g class="rotateControl" style="display: none;"><circle cx="578.8841786612917" cy="1077.5961249387622" r="5" style="stroke : none; fill-opacity: 0.5; cursor:crosshair"/></g><g class="ResizeNControl" style="display: none;"><circle cx="0" cy="0" r="5" style="stroke : none; fill-opacity: 0.5"/></g><g class="ResizeNEControl" style="display: none;"><circle cx="0" cy="0" r="5" style="stroke : none; fill-opacity: 0.5"/></g><g class="ResizeEControl" style="display: none;"><circle cx="0" cy="0" r="5" style="stroke : none; fill-opacity: 0.5"/></g><g class="ResizeSEControl" style="display: none;"><circle cx="0" cy="0" r="5" style="stroke : none; fill-opacity: 0.5"/></g><g class="ResizeSControl" style="display: none;"><circle cx="0" cy="0" r="5" style="stroke : none; fill-opacity: 0.5"/></g><g class="ResizeSWControl" style="display: none;"><circle cx="0" cy="0" r="5" style="stroke : none; fill-opacity: 0.5"/></g><g class="ResizeWControl" style="display: none;"><circle cx="0" cy="0" r="5" style="stroke : none; fill-opacity: 0.5"/></g><g class="ResizeNWControl" style="display: none;"><circle cx="0" cy="0" r="5" style="stroke : none; fill-opacity: 0.5"/></g><g class="removeControl" style="display: none;"><polygon points="520.05,1107.60 637.72,1107.60 637.72,1147.63 520.05,1147.63 " style="stroke : none; fill-opacity: 0.1"/></g><g class="copyPasteControl" style="display: none;"><polygon style="stroke : none; fill-opacity: 0.1"/></g><g class="translateControl" style="display: none;"><polygon points="520.05,1107.60 637.72,1107.60 637.72,1147.63 520.05,1147.63 " style="stroke : none; fill-opacity: 0.1; cursor:move"/></g></g><g class="SelectionControls" fill="#0000ff" stroke="#0000ff" style="display: none;"><polygon fill="none" points="471.18,1024.38 702.14,1024.38 702.14,1231.15 471.18,1231.15 " stroke="#0000ff" style=""/><g class="rotateControl" style="display: none;"><circle cx="586.6586900382448" cy="994.3779499387622" r="5" style="stroke : none; fill-opacity: 0.5; cursor:crosshair"/></g><g class="ResizeNControl" style="display: none;"><circle cx="0" cy="0" r="5" style="stroke : none; fill-opacity: 0.5"/></g><g class="ResizeNEControl" style="display: none;"><circle cx="0" cy="0" r="5" style="stroke : none; fill-opacity: 0.5"/></g><g class="ResizeEControl" style="display: none;"><circle cx="0" cy="0" r="5" style="stroke : none; fill-opacity: 0.5"/></g><g class="ResizeSEControl" style="display: none;"><circle cx="0" cy="0" r="5" style="stroke : none; fill-opacity: 0.5"/></g><g class="ResizeSControl" style="display: none;"><circle cx="0" cy="0" r="5" style="stroke : none; fill-opacity: 0.5"/></g><g class="ResizeSWControl" style="display: none;"><circle cx="0" cy="0" r="5" style="stroke : none; fill-opacity: 0.5"/></g><g class="ResizeWControl" style="display: none;"><circle cx="0" cy="0" r="5" style="stroke : none; fill-opacity: 0.5"/></g><g class="ResizeNWControl" style="display: none;"><circle cx="0" cy="0" r="5" style="stroke : none; fill-opacity: 0.5"/></g><g class="removeControl" style="display: none;"><polygon style="stroke : none; fill-opacity: 0.1"/></g><g class="copyPasteControl" style="display: none;"><polygon style="stroke : none; fill-opacity: 0.1"/></g><g class="translateControl" style="display: none;"><polygon style="stroke : none; fill-opacity: 0.1; cursor:move"/></g></g><g class="FixedFurniture Closet" fill="#ffffff" stroke="#000000" style="fill-opacity: 1; stroke-opacity: 1;" transform="matrix(0,1,-1,0,775.7786,800.0407)">
<g class="BoundaryPolygon">
<polygon points="0.00,0.00 44.13,0.00 44.13,60.00 0.00,60.00 "/>
</g>
<g class="Direction" fill-opacity="0.9" style="display: none;">
<polygon fill="#444444" points="23.18,54.70 23.18,44.08 20.17,44.08 20.17,54.70 16.36,54.70 21.67,60.00 26.97,54.70 23.18,54.70 "/>
</g>
<g class="Name" fill-opacity="0.9" style="display: none;">

</g>
<desc>Width:60 Height:200 Depth:60 Elevation:0</desc>
</g><g class="FixedFurniture Closet" fill="#ffffff" stroke="#000000" style="fill-opacity: 1; stroke-opacity: 1;" transform="matrix(0,1,-1,0,775.7787,844.1745)">
<g class="BoundaryPolygon">
<polygon points="0.00,0.00 47.55,0.00 47.55,60.00 0.00,60.00 "/>
</g>
<g class="Direction" fill-opacity="0.9" style="display: none;">
<polygon fill="#444444" points="24.98,54.70 24.98,44.08 21.97,44.08 21.97,54.70 18.16,54.70 23.47,60.00 28.77,54.70 24.98,54.70 "/>
</g>
<g class="Name" fill-opacity="0.9" style="display: none;">

</g>
<desc>Width:60 Height:200 Depth:60 Elevation:0</desc>
</g><g class="FixedFurniture CoatCloset" fill="#ffffff" stroke="#000000" style="fill-opacity: 1; stroke-opacity: 1;" transform="matrix(0,1,-1,0,775.7787,891.7267)">
<g class="BoundaryPolygon">
<polygon points="0.00,0.00 102.89,0.00 102.89,60.00 0.00,60.00 "/>
</g>

<g class="Direction" fill-opacity="0.9" style="display: none;">
<polygon fill="#444444" points="52.74,54.52 52.74,43.90 49.73,43.90 49.73,54.52 45.93,54.52 51.23,59.82 56.53,54.52 52.74,54.52 "/>
</g>
<g class="Name" fill-opacity="0.9" style="display: none;">

</g>
<desc>Width:120 Height:200 Depth:60 Elevation:0</desc>
</g><g class="FixedFurniture ShowerScreen" fill="#ffffff" stroke="#000000" style="fill-opacity: 1; stroke-opacity: 1;" transform="matrix(0,1,-1.5979,0,995.3472,763.9095)">
<g class="BoundaryPolygon">
<polygon points="0,0 2.5,0 2.5,60 0,60"/>
</g>
<g class="InnerPolygon" stroke-linejoin="round">
<rect height="60" width="2.5"/>
</g>
<desc>Width:2.5 Height:180 Depth:60 Elevation:135</desc>
</g></g></g></g></svg>