<?xml version="1.0" encoding="utf-8"?>
<svg height="923.7899551391602" id="temp" version="1.1" viewBox="0 0 1095.5200653076172 923.7899551391602" width="1095.5200653076172" xmlns="http://www.w3.org/2000/svg" xmlns:xlink="http://www.w3.org/1999/xlink"><defs/><g class="Model v1-1" id="Model"><g class="Floor"><g class="Floorplan Floor-1" id="Floor-1"><g class="Space Outdoor Balcony" fill="#ffffff" id="d6c58abb-1b5a-4c4c-9f12-81a06418bab2" stroke="#000000" style="fill-opacity: 1; stroke-opacity: 1; stroke-width: 1;"><polygon points="950.25,71.21 1088.52,71.21 1088.52,442.88 950.25,442.88 950.25,71.21 950.25,71.21 "/><g class="Dimension" transform="matrix(1,0,0,1,950.2496,71.2127)"><g class="Visual" style="display: none;" transform="matrix(1,0,0,1,0,0)"><g class="DimensionMark" fill="#000000" id="mark1" stroke="none" style="fill-opacity: 1; pointer-events: visible;" transform="matrix(1,0,0,1,69.1369,0)"><polygon points="-5,5,0,0,5,5"/></g><g class="DimensionMark" fill="#000000" id="mark2" stroke="none" style="fill-opacity: 1; pointer-events: visible;" transform="matrix(1,0,0,1,138.2737,185.8345)"><polygon points="-5,-5,0,0,-5,5"/></g><g class="DimensionMark" fill="#000000" id="mark3" stroke="none" style="fill-opacity: 1; pointer-events: visible;" transform="matrix(1,0,0,1,69.1369,371.6691)"><polygon points="-5,-5,0,0,5,-5"/></g><g class="DimensionMark" fill="#000000" id="mark4" stroke="none" style="fill-opacity: 1; pointer-events: visible;" transform="matrix(1,0,0,1,0,185.8345)"><polygon points="5,5,0,0,5,-5"/></g></g><g class="SpaceDimensionsLabel" transform="matrix(0,1,-1,0,60.2884,100.3842)"><g class="TextLabel NameLabel" id="NameLabel" style="display: block;"/><g class="TextLabel DimensionMeasureLabel" id="DimensionMeasureLabel" style="display: none;" transform="matrix(1,0,0,1,-63.7266,79.6563)"/></g></g></g><g class="Space LivingRoom" fill="#ffffff" id="3c2ce267-d81a-4486-9d54-1512bf177e1f" stroke="#ffffff" style="fill-opacity: 1; stroke-opacity: 1; stroke-width: 1;"><polygon points="931.25,443.37 458.07,443.37 458.07,329.70 515.61,329.70 515.61,69.21 931.25,69.21 "/><g class="Dimension" transform="matrix(1,0,0,1,515.6131,69.2127)"><g class="Visual" style="display: none;" transform="matrix(1,0,0,1,0,0)"><g class="DimensionMark" fill="#000000" id="mark1" stroke="none" style="fill-opacity: 1; pointer-events: visible;" transform="matrix(1,0,0,1,179.049,0)"><polygon points="-5,5,0,0,5,5"/></g><g class="DimensionMark" fill="#000000" id="mark2" stroke="none" style="fill-opacity: 1; pointer-events: visible;" transform="matrix(1,0,0,1,415.6365,187.0786)"><polygon points="-5,-5,0,0,-5,5"/></g><g class="DimensionMark" fill="#000000" id="mark3" stroke="none" style="fill-opacity: 1; pointer-events: visible;" transform="matrix(1,0,0,1,179.049,374.1571)"><polygon points="-5,-5,0,0,5,-5"/></g><g class="DimensionMark" fill="#000000" id="mark4" stroke="none" style="fill-opacity: 1; pointer-events: visible;" transform="matrix(1,0,0,1,0,187.0786)"><polygon points="5,5,0,0,5,-5"/></g></g><g class="SpaceDimensionsLabel" transform="matrix(1,0,0,1,192.3677,202.4439)"><g class="TextLabel NameLabel" id="NameLabel" style="display: block;"/><g class="TextLabel DimensionMeasureLabel" id="DimensionMeasureLabel" style="display: none;" transform="matrix(1,0,0,1,-114.6172,79.6562)"/></g></g></g><g class="Space Bedroom" fill="#ffffff" id="66074716-4999-4c29-8c4c-0b0c412fedd7" stroke="#ffffff" style="fill-opacity: 1; stroke-opacity: 1; stroke-width: 1;"><polygon points="507.61,319.70 448.07,319.70 448.07,443.37 87.58,443.37 87.58,69.21 507.61,69.21 "/><g class="Dimension" transform="matrix(1,0,0,1,87.5826,69.2127)"><g class="Visual" style="display: none;" transform="matrix(1,0,0,1,0,0)"><g class="DimensionMark" fill="#000000" id="mark1" stroke="none" style="fill-opacity: 1; pointer-events: visible;" transform="matrix(1,0,0,1,210.0152,0)"><polygon points="-5,5,0,0,5,5"/></g><g class="DimensionMark" fill="#000000" id="mark2" stroke="none" style="fill-opacity: 1; pointer-events: visible;" transform="matrix(1,0,0,1,420.0304,187.0786)"><polygon points="-5,-5,0,0,-5,5"/></g><g class="DimensionMark" fill="#000000" id="mark3" stroke="none" style="fill-opacity: 1; pointer-events: visible;" transform="matrix(1,0,0,1,210.0152,374.1571)"><polygon points="-5,-5,0,0,5,-5"/></g><g class="DimensionMark" fill="#000000" id="mark4" stroke="none" style="fill-opacity: 1; pointer-events: visible;" transform="matrix(1,0,0,1,0,187.0786)"><polygon points="5,5,0,0,5,-5"/></g></g><g class="SpaceDimensionsLabel" transform="matrix(1,0,0,1,157.5727,201.6219)"><g class="TextLabel NameLabel" id="NameLabel" style="display: block;"/><g class="TextLabel DimensionMeasureLabel" id="DimensionMeasureLabel" style="display: none;" transform="matrix(1,0,0,1,-113.6875,79.2031)"/></g></g></g><g class="Space Kitchen" fill="#ffffff" id="7e52ba81-6c53-4c3a-b79e-280703f69d33" stroke="#ffffff" style="fill-opacity: 1; stroke-opacity: 1; stroke-width: 1;"><polygon points="366.70,847.04 87.58,847.04 87.58,453.37 366.70,453.37 "/><g class="Dimension" transform="matrix(1,0,0,1,87.5826,453.3698)"><g class="Visual" style="display: none;" transform="matrix(1,0,0,1,0,0)"><g class="DimensionMark" fill="#000000" id="mark1" stroke="none" style="fill-opacity: 1; pointer-events: visible;" transform="matrix(1,0,0,1,139.5611,0)"><polygon points="-5,5,0,0,5,5"/></g><g class="DimensionMark" fill="#000000" id="mark2" stroke="none" style="fill-opacity: 1; pointer-events: visible;" transform="matrix(1,0,0,1,279.1222,196.8347)"><polygon points="-5,-5,0,0,-5,5"/></g><g class="DimensionMark" fill="#000000" id="mark3" stroke="none" style="fill-opacity: 1; pointer-events: visible;" transform="matrix(1,0,0,1,139.5611,393.6695)"><polygon points="-5,-5,0,0,5,-5"/></g><g class="DimensionMark" fill="#000000" id="mark4" stroke="none" style="fill-opacity: 1; pointer-events: visible;" transform="matrix(1,0,0,1,0,196.8347)"><polygon points="5,5,0,0,5,-5"/></g></g><g class="SpaceDimensionsLabel" style="display: block;" transform="matrix(1,0,0,1,110.8873,193.9255)"><g class="TextLabel NameLabel" id="NameLabel" style="display: block;"/><g class="TextLabel DimensionMeasureLabel" id="DimensionMeasureLabel" style="display: none;" transform="matrix(1,0,0,1,-128.4922,79.4062)"/></g></g></g><g class="Space Entry Lobby" fill="#ffffff" id="97255aea-d48b-485e-b0ea-49b2bea03002" stroke="#ffffff" style="fill-opacity: 1; stroke-opacity: 1; stroke-width: 1;"><polygon points="654.88,847.04 517.61,847.04 517.61,557.98 376.70,557.98 376.70,453.37 654.88,453.37 "/><g class="Dimension" transform="matrix(1,0,0,1,376.7049,453.3698)"><g class="Visual" style="display: none;" transform="matrix(1,0,0,1,0,0)"><g class="DimensionMark" fill="#000000" id="mark1" stroke="none" style="fill-opacity: 1; pointer-events: visible;" transform="matrix(1,0,0,1,140.9082,0)"><polygon points="-5,5,0,0,5,5"/></g><g class="DimensionMark" fill="#000000" id="mark2" stroke="none" style="fill-opacity: 1; pointer-events: visible;" transform="matrix(1,0,0,1,278.1772,104.6145)"><polygon points="-5,-5,0,0,-5,5"/></g><g class="DimensionMark" fill="#000000" id="mark3" stroke="none" style="fill-opacity: 1; pointer-events: visible;" transform="matrix(1,0,0,1,140.9082,393.6695)"><polygon points="-5,-5,0,0,5,-5"/></g><g class="DimensionMark" fill="#000000" id="mark4" stroke="none" style="fill-opacity: 1; pointer-events: visible;" transform="matrix(1,0,0,1,0,104.6145)"><polygon points="5,5,0,0,5,-5"/></g></g><g class="SpaceDimensionsLabel" transform="matrix(1,0,0,1,174.4196,263.7778)"><g class="TextLabel NameLabel" id="NameLabel" style="display: block;"/><g class="TextLabel DimensionMeasureLabel" id="DimensionMeasureLabel" style="display: none;" transform="matrix(1,0,0,1,-119.3281,79.2969)"/></g></g></g><g class="Space Bath" fill="#ffffff" id="2f3cc39f-a342-4878-be0f-5673b1df862c" stroke="#ffffff" style="fill-opacity: 1; stroke-opacity: 1; stroke-width: 1;"><polygon points="508.61,847.04 376.70,847.04 376.70,568.98 508.61,568.98 "/><g class="Dimension" transform="matrix(1,0,0,1,376.7049,568.9843)"><g class="Visual" style="display: none;" transform="matrix(1,0,0,1,0,0)"><g class="DimensionMark" fill="#000000" id="mark1" stroke="none" style="fill-opacity: 1; pointer-events: visible;" transform="matrix(1,0,0,1,65.9541,0)"><polygon points="-5,5,0,0,5,5"/></g><g class="DimensionMark" fill="#000000" id="mark2" stroke="none" style="fill-opacity: 1; pointer-events: visible;" transform="matrix(1,0,0,1,131.9082,139.0275)"><polygon points="-5,-5,0,0,-5,5"/></g><g class="DimensionMark" fill="#000000" id="mark3" stroke="none" style="fill-opacity: 1; pointer-events: visible;" transform="matrix(1,0,0,1,65.9541,278.055)"><polygon points="-5,-5,0,0,5,-5"/></g><g class="DimensionMark" fill="#000000" id="mark4" stroke="none" style="fill-opacity: 1; pointer-events: visible;" transform="matrix(1,0,0,1,0,139.0275)"><polygon points="5,5,0,0,5,-5"/></g></g><g class="SpaceDimensionsLabel" transform="matrix(1,0,0,1,63.8148,149.3414)"><g class="TextLabel NameLabel" id="NameLabel" style="display: block;"/><g class="TextLabel DimensionMeasureLabel" id="DimensionMeasureLabel" style="display: none;" transform="matrix(1,0,0,1,-116.1562,79.4063)"/></g></g></g><g class="Wall External" fill="#000000" id="Wall" stroke="#000000" style="fill-opacity: 1; stroke-opacity: 1; stroke-width: 1;"><polygon points="87.58,847.04 87.58,69.21 70.58,47.21 70.58,871.04 "/><g class="Window Regular" fill="#f0f0ff" id="Window" stroke="#000000" style="fill-opacity: 1; stroke-width: 1; stroke-opacity: 1;"><polygon points="87.58,403.44 87.58,231.14 70.58,231.14 70.58,403.44 "/><g class="Glass" id="Glass"><polygon points="87.58,403.44 87.58,231.14 70.58,231.14 70.58,403.44 "/></g><g class="Panel" id="Panel"><line x1="79.0826413208444" x2="79.08264132084437" y1="395.9399203982664" y2="238.64262532144892"/><line x1="87.5826413208444" x2="70.5826413208444" y1="395.9399203982664" y2="395.9399203982664"/><line x1="87.58264132084437" x2="70.58264132084437" y1="238.64262532144892" y2="238.64262532144892"/></g></g><g class="Window Regular" fill="#f0f0ff" id="Window" stroke="#000000" style="fill-opacity: 1; stroke-width: 1; stroke-opacity: 1;"><polygon points="87.58,703.72 87.58,519.88 70.58,519.88 70.58,703.72 "/><g class="Glass" id="Glass"><polygon points="87.58,703.72 87.58,519.88 70.58,519.88 70.58,703.72 "/></g><g class="Panel" id="Panel"><line x1="79.08264132084444" x2="79.08264132084442" y1="696.2165644315396" y2="527.3757568641065"/><line x1="87.58264132084444" x2="70.58264132084444" y1="696.2165644315396" y2="696.2165644315396"/><line x1="87.58264132084442" x2="70.58264132084442" y1="527.3757568641065" y2="527.3757568641065"/></g></g></g><g class="Wall External" fill="#000000" id="Wall" stroke="#000000" style="fill-opacity: 1; stroke-opacity: 1; stroke-width: 1;"><polygon points="87.58,69.21 931.25,69.21 950.25,47.21 70.58,47.21 "/></g><g class="Wall External" fill="#000000" id="Wall" stroke="#000000" style="fill-opacity: 1; stroke-opacity: 1; stroke-width: 1;"><polygon points="931.25,69.21 931.25,443.37 950.25,466.88 950.25,47.21 "/><g class="Window Regular" fill="#f0f0ff" id="Window" stroke="#000000" style="fill-opacity: 1; stroke-width: 1; stroke-opacity: 1;"><polygon points="931.25,88.95 931.25,296.47 950.25,296.47 950.25,88.95 "/><g class="Glass" id="Glass"><polygon points="931.25,88.95 931.25,296.47 950.25,296.47 950.25,88.95 "/></g><g class="Panel" id="Panel"><line x1="940.7496205579313" x2="940.7496205579313" y1="96.44724215818903" y2="288.97373188232206"/><line x1="931.2496205579313" x2="950.2496205579313" y1="96.44724215818903" y2="96.44724215818903"/><line x1="931.2496205579313" x2="950.2496205579313" y1="288.97373188232206" y2="288.97373188232206"/></g></g><g class="Door Swing Opposite" fill="#ffffff" id="Door" stroke="#000000" style="fill-opacity: 1; stroke-width: 1; stroke-opacity: 1;"><polygon points="931.25,331.60 931.25,385.80 950.25,385.80 950.25,331.60 "/><g class="Panel Left Negative" fill="none" id="Panel" style=""><g class="PanelArea" fill="none" id="PanelArea" stroke="none" style=""><polygon points="931.25,331.60 931.25,385.80 950.25,385.80 950.25,331.60 "/></g><path d="M931.25,331.60 q-54.20,0.00 -54.20,54.20 l54.20,0.00Z"/></g><g class="Panel Right Positive" fill="none" id="Panel" style=""><g class="PanelArea" fill="none" id="PanelArea" stroke="none" style=""><polygon points="931.25,331.60 931.25,385.80 950.25,385.80 950.25,331.60 "/></g><path d="M950.25,331.60 q54.20,0.00 54.20,54.20 l-54.20,0.00Z"/></g></g></g><g class="Wall External" fill="#000000" id="Wall" stroke="#000000" style="fill-opacity: 1; stroke-opacity: 1; stroke-width: 1;"><polygon points="931.25,443.37 654.88,443.37 674.88,466.88 950.25,466.88 "/></g><g class="Wall External" fill="#000000" id="Wall" stroke="#000000" style="fill-opacity: 1; stroke-opacity: 1; stroke-width: 1;"><polygon points="654.88,443.37 654.88,847.04 674.88,871.04 674.88,466.88 "/></g><g class="Wall External" fill="#000000" id="Wall" stroke="#000000" style="fill-opacity: 1; stroke-opacity: 1; stroke-width: 1;"><polygon points="654.88,847.04 87.58,847.04 70.58,871.04 674.88,871.04 "/><g class="Door Swing Beside" fill="#ffffff" id="Door" stroke="#000000" style="fill-opacity: 1; stroke-width: 1; stroke-opacity: 1;"><polygon points="587.77,847.04 535.02,847.04 535.02,871.04 587.77,871.04 "/><g class="Panel Left Positive" fill="none" id="Panel" style=""><g class="PanelArea" fill="none" id="PanelArea" stroke="none" style=""><polygon points="587.77,847.04 535.02,847.04 535.02,871.04 587.77,871.04 "/></g><path d="M535.02,871.04 q0.00,52.75 52.75,52.75 l0.00,-52.75Z"/></g></g></g><g class="Wall" fill="#000000" id="Wall" stroke="#000000" style="fill-opacity: 1; stroke-opacity: 1; stroke-width: 1;"><polygon points="950.25,466.88 1095.52,466.88 1095.52,442.88 950.25,442.88 "/></g><g class="Wall" fill="#000000" id="Wall" stroke="#000000" style="fill-opacity: 1; stroke-opacity: 1; stroke-width: 1;"><polygon points="950.25,47.21 1095.52,47.21 1095.52,71.21 950.25,71.21 "/></g><g class="Railing" fill="#ffffff" id="Railing" stroke="#000000" style="fill-opacity: 1; stroke-opacity: 1; stroke-width: 1;"><polygon points="1095.52,71.21 1095.52,442.88 1088.52,442.88 1088.52,71.21 " style="stroke-dasharray: 0;"/></g><g class="Wall" fill="#000000" id="Wall" stroke="#000000" style="fill-opacity: 1; stroke-opacity: 1; stroke-width: 1;"><polygon points="674.88,443.37 70.58,443.37 70.58,453.37 674.88,453.37 "/><g class="Door Swing Beside" fill="#ffffff" id="Door" stroke="#000000" style="fill-opacity: 1; stroke-width: 1; stroke-opacity: 1;"><polygon points="604.99,443.37 556.83,443.37 556.83,453.37 604.99,453.37 "/><g class="Panel Left Positive" fill="none" id="Panel" style=""><g class="PanelArea" fill="none" id="PanelArea" stroke="none" style=""><polygon points="604.99,443.37 556.83,443.37 556.83,453.37 604.99,453.37 "/></g><path d="M556.83,453.37 q0.00,48.16 48.16,48.16 l0.00,-48.16Z"/></g></g><g class="Door Swing Beside" fill="#ffffff" id="Door" stroke="#000000" style="fill-opacity: 1; stroke-width: 1; stroke-opacity: 1;"><polygon points="436.98,443.37 389.91,443.37 389.91,453.37 436.98,453.37 "/><g class="Panel Right Negative" fill="none" id="Panel" style=""><g class="PanelArea" fill="none" id="PanelArea" stroke="none" style=""><polygon points="436.98,443.37 389.91,443.37 389.91,453.37 436.98,453.37 "/></g><path d="M389.91,443.37 q0.00,-47.07 47.07,-47.07 l0.00,47.07Z"/></g></g></g><g class="Wall" fill="#000000" id="Wall" stroke="#000000" style="fill-opacity: 1; stroke-opacity: 1; stroke-width: 1;"><polygon points="366.70,443.37 366.70,871.04 376.70,871.04 376.70,443.37 "/><g class="Door None Beside" fill="#ffffff" id="Door" stroke="#000000" style="fill-opacity: 1; stroke-width: 1; stroke-opacity: 1;"><polygon points="366.70,469.89 366.70,528.11 376.70,528.11 376.70,469.89 "/></g></g><g class="Wall" fill="#000000" id="Wall" stroke="#000000" style="fill-opacity: 1; stroke-opacity: 1; stroke-width: 1;"><polygon points="366.70,568.98 508.61,568.98 517.61,557.98 366.70,557.98 "/></g><g class="Wall" fill="#000000" id="Wall" stroke="#000000" style="fill-opacity: 1; stroke-opacity: 1; stroke-width: 1;"><polygon points="508.61,568.98 508.61,871.04 517.61,871.04 517.61,557.98 "/><g class="Door Swing Beside" fill="#ffffff" id="Door" stroke="#000000" style="fill-opacity: 1; stroke-width: 1; stroke-opacity: 1;"><polygon points="508.61,608.94 508.61,666.00 517.61,666.00 517.61,608.94 "/><g class="Panel Right Positive" fill="none" id="Panel" style=""><g class="PanelArea" fill="none" id="PanelArea" stroke="none" style=""><polygon points="508.61,608.94 508.61,666.00 517.61,666.00 517.61,608.94 "/></g><path d="M517.61,608.94 q57.06,0.00 57.06,57.06 l-57.06,0.00Z"/></g></g></g><g class="Wall" fill="#000000" id="Wall" stroke="#000000" style="fill-opacity: 1; stroke-opacity: 1; stroke-width: 1;"><polygon points="448.07,453.37 448.07,319.70 458.07,329.70 458.07,453.37 "/></g><g class="Wall" fill="#000000" id="Wall" stroke="#000000" style="fill-opacity: 1; stroke-opacity: 1; stroke-width: 1;"><polygon points="448.07,319.70 507.61,319.70 515.61,329.70 458.07,329.70 "/></g><g class="Wall" fill="#000000" id="Wall" stroke="#000000" style="fill-opacity: 1; stroke-opacity: 1; stroke-width: 1;"><polygon points="507.61,319.70 507.61,47.21 515.61,47.21 515.61,329.70 "/></g><g class="FixedFurniture BaseCabinet" fill="#ffffff" stroke="#000000" style="fill-opacity: 1; stroke-opacity: 1;" transform="matrix(-1,0,0,-1,319.16,846.93)">
<g class="BoundaryPolygon">
<polygon points="0.00,0.00 231.64,0.00 231.64,60.00 0.00,60.00 "/>
</g>
<g class="Direction" fill-opacity="0.9" style="display: none;">
<polygon fill="#444444" points="123.58,55.20 123.58,44.58 120.57,44.58 120.57,55.20 116.76,55.20 122.07,60.00 127.37,55.20 123.58,55.20 "/>
</g>
<g class="Name" fill-opacity="0.9" style="display: none;">

</g>
<desc>Width:60 Height:90 Depth:60 Elevation:0</desc>
</g><g class="Column Rectangle" fill="#000000" id="Column" stroke="none" style="fill-opacity: 1;"><polygon points="376.70,786.66 319.16,786.66 319.16,871.04 376.70,871.04 "/></g><g class="FixedFurniture ElectricalAppliance IntegratedStove" fill="#ffffff" stroke="#000000" style="fill-opacity: 1; stroke-opacity: 1;" transform="matrix(-1,0,0,-1,290.9,846.8206)">
<g class="BoundaryPolygon" fill="none" stroke="none">
<polygon points="0.00,0.00 52.93,0.00 52.93,60.00 0.00,60.00 "/>
</g>
<g class="InnerPolygon">
<polygon points="2.00,2.00 51.17,2.00 51.17,58.00 2.00,58.00 "/>
</g>
<g class="OuterCircle">
<circle cx="14.115786486089858" cy="16" r="8"/>
<circle cx="38.81841283674711" cy="16" r="8"/>
<circle cx="14.115786486089858" cy="44" r="8"/>
<circle cx="38.81841283674711" cy="44" r="8"/>
</g>
<g class="Direction" fill-opacity="0.9" style="display: none;">
<polygon fill="#444444" points="28.24,55.20 28.24,44.58 25.23,44.58 25.23,55.20 21.43,55.20 26.73,60.00 32.03,55.20 28.24,55.20 "/>
</g>
<g class="Name" fill-opacity="0.9" style="display: none;">

</g>
<desc>Width:60 Height:90 Depth:30 Elevation:0</desc>
</g><g class="FixedFurniture BaseCabinet" fill="#ffffff" stroke="#000000" style="fill-opacity: 1; stroke-opacity: 1;" transform="matrix(0,1,-1,0,366.6267,610.8599)">
<g class="BoundaryPolygon">
<polygon points="0.00,0.00 175.80,0.00 175.80,47.35 0.00,47.35 "/>
</g>
<g class="Direction" fill-opacity="0.9" style="display: none;">
<polygon fill="#444444" points="93.78,43.56 93.78,32.95 90.77,32.95 90.77,43.56 86.97,43.56 92.27,48.36 97.58,43.56 93.78,43.56 "/>
</g>
<g class="Name" fill-opacity="0.9" style="display: none;">

</g>
<desc>Width:60 Height:90 Depth:60 Elevation:0</desc>
</g><g class="FixedFurniture Sink" fill="#ffffff" stroke="#000000" style="fill-opacity: 1; stroke-opacity: 1;" transform="matrix(0,1,-1,0,366.6268,683.0423)">
<g class="BoundaryPolygon" fill="none" stroke="none">
<polygon points="0.00,0.00 62.65,0.00 62.65,46.73 0.00,46.73 "/>
</g>
<g class="InnerPolygon">
<polygon points="5.22,9.70 57.43,9.70 57.43,42.60 5.22,42.60 "/>
</g>
<g class="OuterDrain" stroke-width="0.8">
<circle cx="31.327100502823654" cy="25.077893968179705" r="3.5"/>
</g>
<g class="InnerDrain" stroke-width="0.8">
<circle cx="31.327100502823654" cy="25.077893968179705" r="2"/>
</g>
<g class="Faucet">
<polygon points="28.19,3.89 34.19,3.89 34.19,17.89 28.19,17.89 "/>
</g>
<g class="Direction" fill-opacity="0.9" style="display: none;">
<polygon fill="#444444" points="33.42,42.99 33.42,32.37 30.42,32.37 30.42,42.99 26.61,42.99 31.92,47.79 37.22,42.99 33.42,42.99 "/>
</g>
<g class="Name" fill-opacity="0.9" style="display: none;">

</g>
<desc>Width:60 Height:90 Depth:60 Elevation:0</desc>
</g><g class="FixedFurniture Closet" fill="#ffffff" stroke="#000000" style="fill-opacity: 1; stroke-opacity: 1;" transform="matrix(0,1,-1,0,366.6736,559.3699)">
<g class="BoundaryPolygon">
<polygon points="0.00,0.00 51.49,0.00 51.49,47.54 0.00,47.54 "/>
</g>
<g class="Direction" fill-opacity="0.9" style="display: none;">
<polygon fill="#444444" points="27.04,43.34 27.04,32.73 24.03,32.73 24.03,43.34 20.23,43.34 25.53,48.65 30.83,43.34 27.04,43.34 "/>
</g>
<g class="Name" fill-opacity="0.9" style="display: none;">

</g>
<desc>Width:60 Height:200 Depth:60 Elevation:0</desc>
</g><g class="FixedFurniture Toilet" fill="#ffffff" stroke="#000000" style="fill-opacity: 1; stroke-opacity: 1;" transform="matrix(0,-1,0.8275,0,376.7049,633.0069)">
<g class="BoundaryPolygon" fill="none" stroke="none">
<polygon points="0,0 41,0 41,71 0,71"/>
</g>
<g class="InnerPolygon">
<rect height="17.98" width="39.989" x="0.502" y="0.5"/>
<path d="M40.491,44.237S41.619,70.5,20.907,70.5C-.523,70.5.6,44.237.6,44.237L.5,18.48H40.491Z"/>
<rect height="3.03" width="6.357" x="17.318" y="7.975"/>
</g>
<desc>Width:41 Height:85 Depth:71 Elevation:0</desc>
</g><g class="FixedFurniture ElectricalAppliance WashingMachine" fill="#ffffff" stroke="#000000" style="fill-opacity: 1; stroke-opacity: 1;" transform="matrix(0,-0.8719,0.7053,0,376.7048,692.289)">
<g class="BoundaryPolygon">
<polygon points="0,0 60,0 60,60 0,60"/>
</g>
<g class="electricitySign" fill="none">
<path d="M0,0,30,41V20.8L60,60"/>
</g>
<g class="Handle">
<path d="M2.7,59.4H57.3"/>
</g>
<g class="Direction" fill-opacity="0.9" style="display: none;">
<polygon fill="#444444" points="32.009 55.197 32.009 44.581 29 44.581 29 55.197 25.197 55.197 30.5 60 35.803 55.197 32.009 55.197"/>
</g>
<g class="Name" fill-opacity="0.9" style="display: none;">

</g>
<desc>Width:60 Height:90 Depth:60 Elevation:0</desc>
</g><g class="FixedFurnitureSet" fill="#ffffff" id="FixedFurnitureSet" stroke="#000000" style="fill-opacity: 0.4; stroke-opacity: 0.4;" transform="matrix(0,-1,1,0,376.7361,759.1865)"><g class="FixedFurniture BaseCabinet" fill="#ffffff" stroke="#000000" style="fill-opacity: 1; stroke-opacity: 1;" transform="matrix(1,0,0,1,0,0)">
<g class="BoundaryPolygon">
<polygon points="0.00,0.00 53.34,0.00 53.34,36.69 0.00,36.69 "/>
</g>
<g class="Direction" fill-opacity="0.9" style="display: none;">
<polygon fill="#444444" points="28.45,33.75 28.45,23.14 25.45,23.14 25.45,33.75 21.64,33.75 26.95,38.56 32.25,33.75 28.45,33.75 "/>
</g>
<g class="Name" fill-opacity="0.9" style="display: none;">

</g>
<desc>Width:60 Height:5 Depth:60 Elevation:105</desc>
</g><g class="FixedFurniture Sink" fill="#ffffff" stroke="#000000" style="fill-opacity: 1; stroke-opacity: 1;" transform="matrix(1,0,0,1,0,0)">
<g class="BoundaryPolygon" fill="none" stroke="none">
<polygon points="0.00,0.00 53.34,0.00 53.34,36.69 0.00,36.69 "/>
</g>
<g class="InnerPolygon">
<polygon points="4.44,9.70 48.89,9.70 48.89,33.45 4.44,33.45 "/>
</g>
<g class="OuterDrain" stroke-width="0.8">
<circle cx="26.668243075895102" cy="19.690215334625805" r="3.5"/>
</g>
<g class="InnerDrain" stroke-width="0.8">
<circle cx="26.668243075895102" cy="19.690215334625805" r="2"/>
</g>
<g class="Faucet">
<polygon points="24.00,3.06 30.00,3.06 30.00,17.06 24.00,17.06 "/>
</g>
<g class="Direction" fill-opacity="0.9" style="display: none;">
<polygon fill="#444444" points="28.45,33.75 28.45,23.14 25.45,23.14 25.45,33.75 21.64,33.75 26.95,38.56 32.25,33.75 28.45,33.75 "/>
</g>
<g class="Name" fill-opacity="0.9" style="display: none;">

</g>
<desc>Width:60 Height:90 Depth:60 Elevation:0</desc>
</g></g><g class="FixedFurniture Shower" fill="#ffffff" stroke="#000000" style="fill-opacity: 1; stroke-opacity: 1;" transform="matrix(0,-1,1,0,376.7,837.5818)">
<g class="BoundaryPolygon" fill="none" stroke="none">
<polygon points="0,0 32,0 32,19 0,19"/>
</g>
<g class="InnerPolygon">
<rect height="6.1" width="11.2" x="3.7" y="0.5"/>
<rect height="6.1" width="11.2" x="17.6" y="0.5"/>
<rect height="6.1" width="3.4" x="28.7" y="0.5"/>
<rect height="6.1" width="3.2" x="0.5" y="0.5"/>
<path d="M14.9,8.5c0,1.5-0.4,3.3-1.6,5    c-0.4,0.6-1,1.1-1.1,1.7c-0.2,1.1,0.3,2.8,2.5,3.2c0.5,0.1,1.3,0.1,1.6,0.1h-0.1c0.3,0,1.1,0,1.6-0.1c2.2-0.4,2.7-2.1,2.5-3.2    c-0.1-0.6-0.7-1.1-1.1-1.7c-1.2-1.7-1.6-3.5-1.6-5"/>
<path d="M12.2,15.3c0.1,0.2,1.6,1.9,4.2,1.9 c2.4-0.1,3.7-1.7,3.9-1.9"/>
<path d="M14.9,0.5h2.7v8c-0.9,0-1.8,0-2.7,0l0,0 C14.9,5.9,14.9,3.2,14.9,0.5z"/>
</g>
<g class="Indicator">
<path d="M3.7,3.6C5,3.1,5.2,3,5.2,3 c0,1.1,0,0,0,1.1C5.2,4.1,5.1,4.1,3.7,3.6"/>
<path d="M28.7,3.6 C27.4,3.1,27.2,3,27.2,3c0,1.1,0,0,0,1.1C27.2,4.1,27.3,4.1,28.7,3.6"/>
</g>
<desc>Width:32 Height:97 Depth:19 Elevation:135</desc>
</g><g class="FixedFurnitureSet" fill="#ffffff" id="FixedFurnitureSet" stroke="#000000" style="fill-opacity: 0.4; stroke-opacity: 0.4;" transform="matrix(0,1,-1,0,654.7883,748.5168)"><g class="FixedFurniture Closet" fill="#ffffff" stroke="#000000" style="fill-opacity: 1; stroke-opacity: 1;" transform="matrix(1,0,0,1,0,0)">
<g class="BoundaryPolygon">
<polygon points="0.00,0.00 49.26,0.00 49.26,47.31 0.00,47.31 "/>
</g>
<g class="Direction" fill-opacity="0.9" style="display: none;">
<polygon fill="#444444" points="25.87,43.13 25.87,32.51 22.86,32.51 22.86,43.13 19.06,43.13 24.36,48.43 29.66,43.13 25.87,43.13 "/>
</g>
<g class="Name" fill-opacity="0.9" style="display: none;">

</g>
<desc>Width:60 Height:200 Depth:60 Elevation:0</desc>
</g><g class="FixedFurniture Closet" fill="#ffffff" stroke="#000000" style="fill-opacity: 1; stroke-opacity: 1;" transform="matrix(1,0,0,1,49.2625,0)">
<g class="BoundaryPolygon">
<polygon points="0.00,0.00 49.26,0.00 49.26,47.31 0.00,47.31 "/>
</g>
<g class="Direction" fill-opacity="0.9" style="display: none;">
<polygon fill="#444444" points="25.87,43.13 25.87,32.51 22.86,32.51 22.86,43.13 19.06,43.13 24.36,48.43 29.66,43.13 25.87,43.13 "/>
</g>
<g class="Name" fill-opacity="0.9" style="display: none;">

</g>
<desc>Width:60 Height:200 Depth:60 Elevation:0</desc>
</g></g><g class="FixedFurniture Closet" fill="#ffffff" stroke="#000000" style="fill-opacity: 1; stroke-opacity: 1;" transform="matrix(0,1,-1,0,654.7883,595.2468)">
<g class="BoundaryPolygon">
<polygon points="0.00,0.00 153.27,0.00 153.27,24.35 0.00,24.35 "/>
</g>
<g class="Direction" fill-opacity="0.9" style="display: none;">
<polygon fill="#444444" points="78.56,22.12 78.56,11.50 75.55,11.50 75.55,22.12 71.75,22.12 77.05,27.42 82.36,22.12 78.56,22.12 "/>
</g>
<g class="Name" fill-opacity="0.9" style="display: none;">

</g>
<desc>Width:120 Height:200 Depth:60 Elevation:0</desc>
</g><g class="FixedFurnitureSet" fill="#ffffff" id="FixedFurnitureSet" stroke="#000000" style="fill-opacity: 0.4; stroke-opacity: 0.4;" transform="matrix(0,-1,1,0,458.1057,443.1379)"><g class="FixedFurniture Closet" fill="#ffffff" stroke="#000000" style="fill-opacity: 1; stroke-opacity: 1;" transform="matrix(1,0,0,1,0,0)">
<g class="BoundaryPolygon">
<polygon points="0.00,0.00 56.72,0.00 56.72,56.99 0.00,56.99 "/>
</g>
<g class="Direction" fill-opacity="0.9" style="display: none;">
<polygon fill="#444444" points="29.78,51.95 29.78,41.34 26.78,41.34 26.78,51.95 22.97,51.95 28.28,57.26 33.58,51.95 29.78,51.95 "/>
</g>
<g class="Name" fill-opacity="0.9" style="display: none;">

</g>
<desc>Width:60 Height:200 Depth:60 Elevation:0</desc>
</g><g class="FixedFurniture Closet" fill="#ffffff" stroke="#000000" style="fill-opacity: 1; stroke-opacity: 1;" transform="matrix(1,0,0,1,56.7164,0)">
<g class="BoundaryPolygon">
<polygon points="0.00,0.00 56.72,0.00 56.72,56.99 0.00,56.99 "/>
</g>
<g class="Direction" fill-opacity="0.9" style="display: none;">
<polygon fill="#444444" points="29.78,51.95 29.78,41.34 26.78,41.34 26.78,51.95 22.97,51.95 28.28,57.26 33.58,51.95 29.78,51.95 "/>
</g>
<g class="Name" fill-opacity="0.9" style="display: none;">

</g>
<desc>Width:60 Height:200 Depth:60 Elevation:0</desc>
</g></g><g class="FixedFurnitureSet" fill="#ffffff" id="FixedFurnitureSet" stroke="#000000" style="fill-opacity: 0.4; stroke-opacity: 0.4;" transform="matrix(0,1,-1,0,507.5193,112.4997)"><g class="FixedFurniture Closet" fill="#ffffff" stroke="#000000" style="fill-opacity: 1; stroke-opacity: 1;" transform="matrix(1,0,0,1,0,0)">
<g class="BoundaryPolygon">
<polygon points="0.00,0.00 53.68,0.00 53.68,58.92 0.00,58.92 "/>
</g>
<g class="Direction" fill-opacity="0.9" style="display: none;">
<polygon fill="#444444" points="28.19,53.71 28.19,43.10 25.18,43.10 25.18,53.71 21.38,53.71 26.68,59.02 31.98,53.71 28.19,53.71 "/>
</g>
<g class="Name" fill-opacity="0.9" style="display: none;">

</g>
<desc>Width:60 Height:200 Depth:60 Elevation:0</desc>
</g><g class="FixedFurniture Closet" fill="#ffffff" stroke="#000000" style="fill-opacity: 1; stroke-opacity: 1;" transform="matrix(1,0,0,1,53.6808,0)">
<g class="BoundaryPolygon">
<polygon points="0.00,0.00 53.68,0.00 53.68,58.92 0.00,58.92 "/>
</g>
<g class="Direction" fill-opacity="0.9" style="display: none;">
<polygon fill="#444444" points="28.19,53.71 28.19,43.10 25.18,43.10 25.18,53.71 21.38,53.71 26.68,59.02 31.98,53.71 28.19,53.71 "/>
</g>
<g class="Name" fill-opacity="0.9" style="display: none;">

</g>
<desc>Width:60 Height:200 Depth:60 Elevation:0</desc>
</g><g class="FixedFurniture Closet" fill="#ffffff" stroke="#000000" style="fill-opacity: 1; stroke-opacity: 1;" transform="matrix(1,0,0,1,107.3617,0)">
<g class="BoundaryPolygon">
<polygon points="0.00,0.00 53.68,0.00 53.68,58.92 0.00,58.92 "/>
</g>
<g class="Direction" fill-opacity="0.9" style="display: none;">
<polygon fill="#444444" points="28.19,53.71 28.19,43.10 25.18,43.10 25.18,53.71 21.38,53.71 26.68,59.02 31.98,53.71 28.19,53.71 "/>
</g>
<g class="Name" fill-opacity="0.9" style="display: none;">

</g>
<desc>Width:60 Height:200 Depth:60 Elevation:0</desc>
</g></g><g class="FixedFurniture Closet" fill="#ffffff" stroke="#000000" style="fill-opacity: 1; stroke-opacity: 1;" transform="matrix(0,1,-1,0,507.5193,273.5414)">
<g class="BoundaryPolygon">
<polygon points="0.00,0.00 46.16,0.00 46.16,58.92 0.00,58.92 "/>
</g>
<g class="Direction" fill-opacity="0.9" style="display: none;">
<polygon fill="#444444" points="24.24,53.71 24.24,43.10 21.23,43.10 21.23,53.71 17.43,53.71 22.73,59.02 28.04,53.71 24.24,53.71 "/>
</g>
<g class="Name" fill-opacity="0.9" style="display: none;">

</g>
<desc>Width:60 Height:200 Depth:60 Elevation:0</desc>
</g><g class="FixedFurniture Closet" fill="#ffffff" stroke="#000000" style="fill-opacity: 1; stroke-opacity: 1;" transform="matrix(0,1,-1,0,507.6131,69.2127)">
<g class="BoundaryPolygon">
<polygon points="0.00,0.00 43.34,0.00 43.34,58.92 0.00,58.92 "/>
</g>
<g class="Direction" fill-opacity="0.9" style="display: none;">
<polygon fill="#444444" points="22.76,53.71 22.76,43.10 19.75,43.10 19.75,53.71 15.95,53.71 21.25,59.02 26.56,53.71 22.76,53.71 "/>
</g>
<g class="Name" fill-opacity="0.9" style="display: none;">

</g>
<desc>Width:60 Height:200 Depth:60 Elevation:0</desc>
</g><g class="SelectionControls" fill="#0000ff" stroke="#0000ff" style="display: none;"><g class="rotateControl" style="display: none;"><circle cx="209.95431632084444" cy="584.3734448105168" r="5" style="stroke : none; fill-opacity: 0.5; cursor:crosshair"/></g><g class="ResizeNControl" style="display: none;"><circle cx="0" cy="0" r="5" style="stroke : none; fill-opacity: 0.5"/></g><g class="ResizeNEControl" style="display: none;"><circle cx="0" cy="0" r="5" style="stroke : none; fill-opacity: 0.5"/></g><g class="ResizeEControl" style="display: none;"><circle cx="0" cy="0" r="5" style="stroke : none; fill-opacity: 0.5"/></g><g class="ResizeSEControl" style="display: none;"><circle cx="0" cy="0" r="5" style="stroke : none; fill-opacity: 0.5"/></g><g class="ResizeSControl" style="display: none;"><circle cx="0" cy="0" r="5" style="stroke : none; fill-opacity: 0.5"/></g><g class="ResizeSWControl" style="display: none;"><circle cx="0" cy="0" r="5" style="stroke : none; fill-opacity: 0.5"/></g><g class="ResizeWControl" style="display: none;"><circle cx="0" cy="0" r="5" style="stroke : none; fill-opacity: 0.5"/></g><g class="ResizeNWControl" style="display: none;"><circle cx="0" cy="0" r="5" style="stroke : none; fill-opacity: 0.5"/></g><g class="removeControl" style="display: none;"><polygon points="198.47,614.37 221.44,614.37 221.44,654.19 198.47,654.19 " style="stroke : none; fill-opacity: 0.1"/></g><g class="copyPasteControl" style="display: none;"><polygon style="stroke : none; fill-opacity: 0.1"/></g><g class="translateControl" style="display: none;"><polygon points="198.47,614.37 221.44,614.37 221.44,654.19 198.47,654.19 " style="stroke : none; fill-opacity: 0.1; cursor:move"/></g></g><g class="SelectionControls" fill="#0000ff" stroke="#0000ff" style="display: none;"><polygon fill="none" points="87.58,453.37 366.70,453.37 366.70,847.04 87.58,847.04 " stroke="#0000ff" style=""/><g class="rotateControl" style="display: none;"><circle cx="227.1437375122507" cy="423.36981981051684" r="5" style="stroke : none; fill-opacity: 0.5; cursor:crosshair"/></g><g class="ResizeNControl" style="display: none;"><circle cx="0" cy="0" r="5" style="stroke : none; fill-opacity: 0.5"/></g><g class="ResizeNEControl" style="display: none;"><circle cx="0" cy="0" r="5" style="stroke : none; fill-opacity: 0.5"/></g><g class="ResizeEControl" style="display: none;"><circle cx="0" cy="0" r="5" style="stroke : none; fill-opacity: 0.5"/></g><g class="ResizeSEControl" style="display: none;"><circle cx="0" cy="0" r="5" style="stroke : none; fill-opacity: 0.5"/></g><g class="ResizeSControl" style="display: none;"><circle cx="0" cy="0" r="5" style="stroke : none; fill-opacity: 0.5"/></g><g class="ResizeSWControl" style="display: none;"><circle cx="0" cy="0" r="5" style="stroke : none; fill-opacity: 0.5"/></g><g class="ResizeWControl" style="display: none;"><circle cx="0" cy="0" r="5" style="stroke : none; fill-opacity: 0.5"/></g><g class="ResizeNWControl" style="display: none;"><circle cx="0" cy="0" r="5" style="stroke : none; fill-opacity: 0.5"/></g><g class="removeControl" style="display: none;"><polygon style="stroke : none; fill-opacity: 0.1"/></g><g class="copyPasteControl" style="display: none;"><polygon style="stroke : none; fill-opacity: 0.1"/></g><g class="translateControl" style="display: none;"><polygon style="stroke : none; fill-opacity: 0.1; cursor:move"/></g></g></g></g></g></svg>