<?xml version="1.0" encoding="utf-8"?>
<svg height="978.6999893188477" id="temp" version="1.1" viewBox="0 0 1449.4814643859863 978.6999893188477" width="1449.4814643859863" xmlns="http://www.w3.org/2000/svg" xmlns:xlink="http://www.w3.org/1999/xlink"><defs/><g class="Model v1-1" id="Model"><g class="Floor"><g class="Floorplan Floor-1" id="Floor-1" transform="matrix(1,0,0,1,0,0)"><g class="Space Undefined" fill="#ffffff" id="0f45f120-9394-4e1e-b4d1-2c8f507e4862" stroke="#ffffff" style="fill-opacity: 1; stroke-opacity: 1; stroke-width: 1;"><polygon points="417.00,286.00 415.47,745.65 48.98,746.33 48.98,52.46 418.32,52.46 "/><g class="Dimension" transform="matrix(1,0,0,1,48.98,52.46)"><g class="Visual" style="display: none;" transform="matrix(1,0,0,1,0,0)"><g class="DimensionMark" fill="#0000ff" id="mark1" stroke="none" style="fill-opacity: 1; pointer-events: visible;" transform="matrix(2,0,0,2,184.6694,0)"><polygon points="-5,5,0,0,5,5"/></g><g class="DimensionMark" fill="#0000ff" id="mark2" stroke="none" style="fill-opacity: 1; pointer-events: visible;" transform="matrix(2,0,0,2,367.6426,346.9294)"><polygon points="-5,-5,0,0,-5,5"/></g><g class="DimensionMark" fill="#0000ff" id="mark3" stroke="none" style="fill-opacity: 1; pointer-events: visible;" transform="matrix(2,0,0,2,184.6694,693.5274)"><polygon points="-5,-5,0,0,5,-5"/></g><g class="DimensionMark" fill="#0000ff" id="mark4" stroke="none" style="fill-opacity: 1; pointer-events: visible;" transform="matrix(2,0,0,2,0,346.9294)"><polygon points="5,5,0,0,5,-5"/></g></g><g class="SpaceDimensionsLabel" style="display: block;" transform="matrix(1,0,0,1,110.1896,302.9009)"><g class="TextLabel NameLabel" id="NameLabel" style="display: block;"/><g class="TextLabel DimensionMeasureLabel" id="DimensionMeasureLabel" style="display: none;" transform="matrix(1,0,0,1,-40.5234,80.1094)"/></g></g></g><g class="Space Undefined" fill="#ffffff" id="0ff9b0ce-766c-4b3c-882b-45417bc86eca" stroke="#ffffff" style="fill-opacity: 1; stroke-opacity: 1; stroke-width: 1;"><polygon points="1327.87,737.91 1167.30,737.91 1167.30,585.06 1208.78,546.71 1327.87,546.71 "/><g class="Dimension" transform="matrix(1,0,0,1,1167.3,546.71)"><g class="Visual" style="display: none;" transform="matrix(1,0,0,1,0,0)"><g class="DimensionMark" fill="#000000" id="mark1" stroke="none" style="fill-opacity: 1; pointer-events: visible;" transform="matrix(1,0,0,1,80.285,0)"><polygon points="-5,5,0,0,5,5"/></g><g class="DimensionMark" fill="#000000" id="mark2" stroke="none" style="fill-opacity: 1; pointer-events: visible;" transform="matrix(1,0,0,1,160.5699,95.6)"><polygon points="-5,-5,0,0,-5,5"/></g><g class="DimensionMark" fill="#000000" id="mark3" stroke="none" style="fill-opacity: 1; pointer-events: visible;" transform="matrix(1,0,0,1,80.285,191.2)"><polygon points="-5,-5,0,0,5,-5"/></g><g class="DimensionMark" fill="#000000" id="mark4" stroke="none" style="fill-opacity: 1; pointer-events: visible;" transform="matrix(1,0,0,1,0,95.6)"><polygon points="5,5,0,0,5,-5"/></g></g><g class="SpaceDimensionsLabel" transform="matrix(1,0,0,1,80.2849,80.2849)"><g class="TextLabel NameLabel" id="NameLabel" style="display: block;"/><g class="TextLabel DimensionMeasureLabel" id="DimensionMeasureLabel" style="display: none;" transform="matrix(1,0,0,1,-40.5313,79.5938)"/></g></g></g><g class="Space Undefined" fill="#ffffff" id="fb0ec12d-9aa7-4f7a-b198-18864ded4aa2" stroke="#ffffff" style="fill-opacity: 1; stroke-opacity: 1; stroke-width: 1;"><polygon points="1165.00,498.00 1201.00,539.00 1193.48,545.56 1155.48,581.00 1155.48,737.91 972.36,737.91 972.36,545.56 1113.79,545.56 1164.00,497.00 "/><g class="Dimension" transform="matrix(1,0,0,1,972.36,545.56)"><g class="Visual" style="display: none;" transform="matrix(1,0,0,1,0,0)"><g class="DimensionMark" fill="#000000" id="mark1" stroke="none" style="fill-opacity: 1; pointer-events: visible;" transform="matrix(1,0,0,1,114.32,0)"><polygon points="-5,5,0,0,5,5"/></g><g class="DimensionMark" fill="#000000" id="mark2" stroke="none" style="fill-opacity: 1; pointer-events: visible;" transform="matrix(1,0,0,1,183.12,71.895)"><polygon points="-5,-5,0,0,-5,5"/></g><g class="DimensionMark" fill="#000000" id="mark3" stroke="none" style="fill-opacity: 1; pointer-events: visible;" transform="matrix(1,0,0,1,114.32,192.35)"><polygon points="-5,-5,0,0,5,-5"/></g><g class="DimensionMark" fill="#000000" id="mark4" stroke="none" style="fill-opacity: 1; pointer-events: visible;" transform="matrix(1,0,0,1,0,71.895)"><polygon points="5,5,0,0,5,-5"/></g></g><g class="SpaceDimensionsLabel" transform="matrix(1,0,0,1,91.5453,94.7866)"><g class="TextLabel NameLabel" id="NameLabel" style="display: block;"/><g class="TextLabel DimensionMeasureLabel" id="DimensionMeasureLabel" style="display: none;" transform="matrix(1,0,0,1,-40.5313,79.5938)"/></g></g></g><g class="Space Undefined" fill="#ffffff" id="24b2fed2-a91b-4699-a62b-5e7984b318e8" stroke="#ffffff" style="fill-opacity: 1; stroke-opacity: 1; stroke-width: 1;"><polygon points="1162.74,329.00 1032.26,327.92 1162.74,327.92 "/><g class="Dimension" transform="matrix(1,0,0,1,1032.2636,327.92)"><g class="Visual" style="display: none;" transform="matrix(1,0,0,1,0,0)"><g class="DimensionMark" fill="#000000" id="mark1" stroke="none" style="fill-opacity: 1; pointer-events: visible;" transform="matrix(1,0,0,1,65.2404,0)"><polygon points="-5,5,0,0,5,5"/></g><g class="DimensionMark" fill="#000000" id="mark2" stroke="none" style="fill-opacity: 1; pointer-events: visible;" transform="matrix(1,0,0,1,130.4764,0)"><polygon points="-5,-5,0,0,-5,5"/></g><g class="DimensionMark" fill="#000000" id="mark3" stroke="none" style="fill-opacity: 1; pointer-events: visible;" transform="matrix(1,0,0,1,65.2404,0.54)"><polygon points="-5,-5,0,0,5,-5"/></g><g class="DimensionMark" fill="#000000" id="mark4" stroke="none" style="fill-opacity: 1; pointer-events: visible;" transform="matrix(1,0,0,1,0,0)"><polygon points="5,5,0,0,5,-5"/></g></g><g class="SpaceDimensionsLabel" transform="matrix(1,0,0,1,129.0539,0.54)"><g class="TextLabel NameLabel" id="NameLabel" style="display: block;"/><g class="TextLabel DimensionMeasureLabel" id="DimensionMeasureLabel" style="display: none;" transform="matrix(1,0,0,1,-40.5313,79.5938)"/></g></g></g><g class="Space Outdoor" fill="#ffffff" id="6fb642a6-3bc3-4a82-8a8c-0e2d89dfac85" stroke="#000000" style="stroke-width: 1; fill-opacity: 1; stroke-opacity: 1;"><polygon points="730.52,754.91 730.52,897.48 896.02,897.48 895.66,754.91 731.75,754.91 730.52,754.91 "/><g class="Dimension" transform="matrix(1,0,0,1,730.5186,754.91)"><g class="Visual" style="display: none;" transform="matrix(1,0,0,1,0,0)"><g class="DimensionMark" fill="#000000" id="mark1" stroke="none" style="fill-opacity: 1; pointer-events: visible;" transform="matrix(1,0,0,1,82.7502,0)"><polygon points="-5,5,0,0,5,5"/></g><g class="DimensionMark" fill="#000000" id="mark2" stroke="none" style="fill-opacity: 1; pointer-events: visible;" transform="matrix(1,0,0,1,165.3209,71.2857)"><polygon points="-5,-5,0,0,-5,5"/></g><g class="DimensionMark" fill="#000000" id="mark3" stroke="none" style="fill-opacity: 1; pointer-events: visible;" transform="matrix(1,0,0,1,82.7502,142.5706)"><polygon points="-5,-5,0,0,5,-5"/></g><g class="DimensionMark" fill="#000000" id="mark4" stroke="none" style="fill-opacity: 1; pointer-events: visible;" transform="matrix(1,0,0,1,0,71.2857)"><polygon points="5,5,0,0,5,-5"/></g></g><g class="SpaceDimensionsLabel" transform="matrix(1,0,0,1,71.2852,71.2853)"><g class="TextLabel NameLabel" id="NameLabel" style="display: block;"/><g class="TextLabel DimensionMeasureLabel" id="DimensionMeasureLabel" style="display: none;" transform="matrix(1,0,0,1,-57.0938,79.5938)"/></g></g></g><g class="Space Undefined" fill="#ffffff" id="31b266bc-c1ca-41ab-80dd-ebc92f3da6eb" stroke="#ffffff" style="fill-opacity: 1; stroke-opacity: 1; stroke-width: 1;"><polygon points="964.81,303.45 964.65,303.45 964.65,66.72 964.81,66.72 "/><g class="Dimension" transform="matrix(1,0,0,1,964.65,66.72)"><g class="Visual" style="display: none;" transform="matrix(1,0,0,1,0,0)"><g class="DimensionMark" fill="#000000" id="mark1" stroke="none" style="fill-opacity: 1; pointer-events: visible;" transform="matrix(1,0,0,1,0.0804,0)"><polygon points="-5,5,0,0,5,5"/></g><g class="DimensionMark" fill="#000000" id="mark2" stroke="none" style="fill-opacity: 1; pointer-events: visible;" transform="matrix(1,0,0,1,0.1609,118.3636)"><polygon points="-5,-5,0,0,-5,5"/></g><g class="DimensionMark" fill="#000000" id="mark3" stroke="none" style="fill-opacity: 1; pointer-events: visible;" transform="matrix(1,0,0,1,0.0804,236.7272)"><polygon points="-5,-5,0,0,5,-5"/></g><g class="DimensionMark" fill="#000000" id="mark4" stroke="none" style="fill-opacity: 1; pointer-events: visible;" transform="matrix(1,0,0,1,0,118.3636)"><polygon points="5,5,0,0,5,-5"/></g></g><g class="SpaceDimensionsLabel" transform="matrix(1,0,0,1,0.0805,0.0804)"><g class="TextLabel NameLabel" id="NameLabel" style="display: block;"/><g class="TextLabel DimensionMeasureLabel" id="DimensionMeasureLabel" style="display: none;" transform="matrix(1,0,0,1,-40.5313,79.5938)"/></g></g></g><g class="Space Undefined" fill="#ffffff" id="c4da53dd-b6c6-4f21-ac50-f4e71015c321" stroke="#ffffff" style="fill-opacity: 1; stroke-opacity: 1; stroke-width: 1;"><polygon points="942.02,392.93 964.65,392.93 964.65,303.45 964.81,303.45 964.81,533.70 441.16,533.70 442.16,303.45 443.21,66.72 942.02,66.72 "/><g class="Dimension" transform="matrix(1,0,0,1,442.16,66.72)"><g class="Visual" style="display: none;" transform="matrix(1,0,0,1,0,0)"><g class="DimensionMark" fill="#000000" id="mark1" stroke="none" style="fill-opacity: 1; pointer-events: visible;" transform="matrix(1,0,0,1,260.8255,0)"><polygon points="-5,5,0,0,5,5"/></g><g class="DimensionMark" fill="#000000" id="mark2" stroke="none" style="fill-opacity: 1; pointer-events: visible;" transform="matrix(1,0,0,1,522.6509,236.7315)"><polygon points="-5,-5,0,0,-5,5"/></g><g class="DimensionMark" fill="#000000" id="mark3" stroke="none" style="fill-opacity: 1; pointer-events: visible;" transform="matrix(1,0,0,1,260.8255,466.98)"><polygon points="-5,-5,0,0,5,-5"/></g><g class="DimensionMark" fill="#000000" id="mark4" stroke="none" style="fill-opacity: 1; pointer-events: visible;" transform="matrix(1,0,0,1,0,236.7315)"><polygon points="5,5,0,0,5,-5"/></g></g><g class="SpaceDimensionsLabel" transform="matrix(1,0,0,1,240.2427,233.034)"><g class="TextLabel NameLabel" id="NameLabel" style="display: block;"/><g class="TextLabel DimensionMeasureLabel" id="DimensionMeasureLabel" style="display: none;" transform="matrix(1,0,0,1,-40.5313,79.5938)"/></g></g></g><g class="Space Undefined" fill="#ffffff" id="333df9bd-f15c-4833-8f3d-940c903b2162" stroke="#ffffff" style="fill-opacity: 1; stroke-opacity: 1; stroke-width: 1;"><polygon points="1011.74,327.92 1032.26,327.92 1162.74,329.00 1162.74,485.07 1110.88,534.56 972.36,534.56 972.36,533.70 964.81,533.70 964.81,327.00 "/><g class="Dimension" transform="matrix(1,0,0,1,964.8109,328.1808)"><g class="Visual" style="display: none;" transform="matrix(1,0,0,1,0,0)"><g class="DimensionMark" fill="#000000" id="mark1" stroke="none" style="fill-opacity: 1; pointer-events: visible;" transform="matrix(1,0,0,1,98.9548,0)"><polygon points="-5,5,0,0,5,5"/></g><g class="DimensionMark" fill="#000000" id="mark2" stroke="none" style="fill-opacity: 1; pointer-events: visible;" transform="matrix(1,0,0,1,197.9291,102.5992)"><polygon points="-5,-5,0,0,-5,5"/></g><g class="DimensionMark" fill="#000000" id="mark3" stroke="none" style="fill-opacity: 1; pointer-events: visible;" transform="matrix(1,0,0,1,98.9548,206.3792)"><polygon points="-5,-5,0,0,5,-5"/></g><g class="DimensionMark" fill="#000000" id="mark4" stroke="none" style="fill-opacity: 1; pointer-events: visible;" transform="matrix(1,0,0,1,0,102.5992)"><polygon points="5,5,0,0,5,-5"/></g></g><g class="SpaceDimensionsLabel" transform="matrix(1,0,0,1,98.578,98.9435)"><g class="TextLabel NameLabel" id="NameLabel" style="display: block;"/><g class="TextLabel DimensionMeasureLabel" id="DimensionMeasureLabel" style="display: none;" transform="matrix(1,0,0,1,-40.5313,79.5938)"/></g></g></g><g class="Space Undefined" fill="#ffffff" id="7814e498-01fc-4d69-91a6-08283b82066c" stroke="#ffffff" style="fill-opacity: 1; stroke-opacity: 1; stroke-width: 1;"><polygon points="1327.87,316.41 1011.74,316.41 1011.74,327.92 964.81,327.00 964.81,66.72 1327.87,66.72 "/><g class="Dimension" transform="matrix(1,0,0,1,964.8109,66.72)"><g class="Visual" style="display: none;" transform="matrix(1,0,0,1,0,0)"><g class="DimensionMark" fill="#000000" id="mark1" stroke="none" style="fill-opacity: 1; pointer-events: visible;" transform="matrix(1,0,0,1,181.5295,0)"><polygon points="-5,5,0,0,5,5"/></g><g class="DimensionMark" fill="#000000" id="mark2" stroke="none" style="fill-opacity: 1; pointer-events: visible;" transform="matrix(1,0,0,1,363.0591,130.6)"><polygon points="-5,-5,0,0,-5,5"/></g><g class="DimensionMark" fill="#000000" id="mark3" stroke="none" style="fill-opacity: 1; pointer-events: visible;" transform="matrix(1,0,0,1,181.5295,249.69)"><polygon points="-5,-5,0,0,5,-5"/></g><g class="DimensionMark" fill="#000000" id="mark4" stroke="none" style="fill-opacity: 1; pointer-events: visible;" transform="matrix(1,0,0,1,0,130.6)"><polygon points="5,5,0,0,5,-5"/></g></g><g class="SpaceDimensionsLabel" transform="matrix(1,0,0,1,200.4915,124.9883)"><g class="TextLabel NameLabel" id="NameLabel" style="display: block;"/><g class="TextLabel DimensionMeasureLabel" id="DimensionMeasureLabel" style="display: none;" transform="matrix(1,0,0,1,-40.5313,79.5938)"/></g></g></g><g class="Space Undefined" fill="#ffffff" id="47bc2f5d-5ed2-4f09-8b82-5ad501c413f2" stroke="#ffffff" style="fill-opacity: 1; stroke-opacity: 1; stroke-width: 1;"><polygon points="1327.87,535.71 1213.95,535.71 1172.00,490.00 1173.73,488.37 1174.00,402.00 1174.73,327.92 1327.87,327.92 "/><g class="Dimension" transform="matrix(1,0,0,1,1173.9068,327.92)"><g class="Visual" style="display: none;" transform="matrix(1,0,0,1,0,0)"><g class="DimensionMark" fill="#000000" id="mark1" stroke="none" style="fill-opacity: 1; pointer-events: visible;" transform="matrix(1,0,0,1,76.0282,0)"><polygon points="-5,5,0,0,5,5"/></g><g class="DimensionMark" fill="#000000" id="mark2" stroke="none" style="fill-opacity: 1; pointer-events: visible;" transform="matrix(1,0,0,1,153.9632,103.901)"><polygon points="-5,-5,0,0,-5,5"/></g><g class="DimensionMark" fill="#000000" id="mark3" stroke="none" style="fill-opacity: 1; pointer-events: visible;" transform="matrix(1,0,0,1,76.0282,207.79)"><polygon points="-5,-5,0,0,5,-5"/></g><g class="DimensionMark" fill="#000000" id="mark4" stroke="none" style="fill-opacity: 1; pointer-events: visible;" transform="matrix(1,0,0,1,0,103.901)"><polygon points="5,5,0,0,5,-5"/></g></g><g class="SpaceDimensionsLabel" transform="matrix(1,0,0,1,76.6371,130.9064)"><g class="TextLabel NameLabel" id="NameLabel" style="display: block;"/><g class="TextLabel DimensionMeasureLabel" id="DimensionMeasureLabel" style="display: none;" transform="matrix(1,0,0,1,-40.5313,79.5938)"/></g></g></g><g class="Space Outdoor" fill="#ffffff" id="295b2be4-8cd0-4685-94b0-14da470c413c" stroke="#000000" style="stroke-width: 1; fill-opacity: 1; stroke-opacity: 1;"><polygon points="947.52,635.83 947.52,754.41 416.04,754.41 416.04,560.18 947.97,560.08 "/><g class="Dimension" transform="matrix(1,0,0,1,416.04,560.13)"><g class="Visual" style="display: none;" transform="matrix(1,0,0,1,0,0)"><g class="DimensionMark" fill="#000000" id="mark1" stroke="none" style="fill-opacity: 1; pointer-events: visible;" transform="matrix(1,0,0,1,265.965,0)"><polygon points="-5,5,0,0,5,5"/></g><g class="DimensionMark" fill="#000000" id="mark2" stroke="none" style="fill-opacity: 1; pointer-events: visible;" transform="matrix(1,0,0,1,531.48,97.115)"><polygon points="-5,-5,0,0,-5,5"/></g><g class="DimensionMark" fill="#000000" id="mark3" stroke="none" style="fill-opacity: 1; pointer-events: visible;" transform="matrix(1,0,0,1,265.965,194.28)"><polygon points="-5,-5,0,0,5,-5"/></g><g class="DimensionMark" fill="#000000" id="mark4" stroke="none" style="fill-opacity: 1; pointer-events: visible;" transform="matrix(1,0,0,1,0,97.115)"><polygon points="5,5,0,0,5,-5"/></g></g><g class="SpaceDimensionsLabel" transform="matrix(1,0,0,1,265.8066,97.1281)"><g class="TextLabel NameLabel" id="NameLabel" style="display: block;"/><g class="TextLabel DimensionMeasureLabel" id="DimensionMeasureLabel" style="display: none;" transform="matrix(1,0,0,1,-57.0938,79.5938)"/></g></g></g><g class="Wall External" fill="#000000" id="Wall" stroke="#000000" style="fill-opacity: 1; stroke-opacity: 1; stroke-width: 1;"><polygon points="418.32,41.72 1352.87,41.72 1327.87,66.72 443.21,66.72 "/><g class="Window Regular" fill="#f0f0ff" id="Window" stroke="#000000" style="fill-opacity: 1; stroke-width: 1; stroke-opacity: 1;"><polygon points="540.46,41.72 609.16,41.72 609.16,66.72 540.46,66.72 "/><g class="Glass" id="Glass"><polygon points="540.46,41.72 609.16,41.72 609.16,66.72 540.46,66.72 "/></g><g class="Panel" id="Panel"><line x1="547.9600219726562" x2="601.6599731445312" y1="54.220001220703125" y2="54.220001220703125"/><line x1="547.9600219726562" x2="547.9600219726562" y1="41.720001220703125" y2="66.72000122070312"/><line x1="601.6599731445312" x2="601.6599731445312" y1="41.720001220703125" y2="66.72000122070312"/></g></g><g class="Window Regular" fill="#f0f0ff" id="Window" stroke="#000000" style="fill-opacity: 1; stroke-width: 1; stroke-opacity: 1;"><polygon points="1067.07,41.72 1226.54,41.72 1226.54,66.72 1067.07,66.72 "/><g class="Glass" id="Glass"><polygon points="1067.07,41.72 1226.54,41.72 1226.54,66.72 1067.07,66.72 "/></g><g class="Panel" id="Panel"><line x1="1074.5699462890625" x2="1219.0400390625" y1="54.220001220703125" y2="54.220001220703125"/><line x1="1074.5699462890625" x2="1074.5699462890625" y1="41.720001220703125" y2="66.72000122070312"/><line x1="1219.0400390625" x2="1219.0400390625" y1="41.720001220703125" y2="66.72000122070312"/></g></g></g><g class="Wall External" fill="#000000" id="Wall" stroke="#000000" style="fill-opacity: 1; stroke-opacity: 1; stroke-width: 1;"><polygon points="1352.87,41.72 1352.87,762.91 1327.87,737.91 1327.87,66.72 "/></g><g class="Wall External" fill="#000000" id="Wall" stroke="#000000" style="fill-opacity: 1; stroke-opacity: 1; stroke-width: 1;"><polygon points="1352.87,762.91 947.36,762.91 972.36,737.91 1327.87,737.91 "/><g class="Window Regular" fill="#f0f0ff" id="Window" stroke="#000000" style="fill-opacity: 1; stroke-width: 1; stroke-opacity: 1;"><polygon points="1151.00,762.91 1081.75,762.91 1081.75,737.91 1151.00,737.91 "/><g class="Glass" id="Glass"><polygon points="1151.00,762.91 1081.75,762.91 1081.75,737.91 1151.00,737.91 "/></g><g class="Panel" id="Panel"><line x1="1143.5" x2="1089.25" y1="750.4099731445312" y2="750.4099731445312"/><line x1="1143.5" x2="1143.5" y1="762.9099731445312" y2="737.9099731445312"/><line x1="1089.25" x2="1089.25" y1="762.9099731445312" y2="737.9099731445312"/></g></g></g><g class="Wall External" fill="#000000" id="Wall" stroke="#000000" style="fill-opacity: 1; stroke-opacity: 1; stroke-width: 1;"><polygon points="972.36,533.70 441.16,533.70 416.04,560.18 972.36,560.18 "/><g class="Door Swing Beside" fill="#ffffff" id="Door" stroke="#000000" style="fill-opacity: 1; stroke-width: 1; stroke-opacity: 1;"><polygon points="877.31,533.70 787.06,533.70 787.06,560.18 877.31,560.18 "/><g class="Panel Left Positive" fill="none" id="Panel" style=""><g class="PanelArea" fill="none" id="PanelArea" stroke="none" style=""><polygon points="877.31,533.70 787.06,533.70 787.06,560.18 877.31,560.18 "/></g><path d="M787.06,560.18 q0.00,90.25 90.25,90.25 l0.00,-90.25Z"/></g></g><g class="Window Regular" fill="#f0f0ff" id="Window" stroke="#000000" style="fill-opacity: 1; stroke-width: 1; stroke-opacity: 1;"><polygon points="770.66,533.70 567.81,533.70 567.81,560.18 770.66,560.18 "/><g class="Glass" id="Glass"><polygon points="770.66,533.70 567.81,533.70 567.81,560.18 770.66,560.18 "/></g><g class="Panel" id="Panel"><line x1="763.1599731445312" x2="575.3099975585938" y1="546.9400024414062" y2="546.9400024414062"/><line x1="763.1599731445312" x2="763.1599731445312" y1="533.7000122070312" y2="560.1799926757812"/><line x1="575.3099975585938" x2="575.3099975585938" y1="533.7000122070312" y2="560.1799926757812"/></g></g></g><g class="Wall External" fill="#000000" id="Wall" stroke="#000000" style="fill-opacity: 1; stroke-opacity: 1; stroke-width: 1;"><polygon points="416.04,560.18 418.32,41.72 443.21,66.72 441.16,533.70 "/><g class="Window Regular" fill="#f0f0ff" id="Window" stroke="#000000" style="fill-opacity: 1; stroke-width: 1; stroke-opacity: 1;"><polygon points="417.34,263.68 418.00,114.91 443.00,115.02 442.34,263.79 "/><g class="Glass" id="Glass"><polygon points="417.34,263.68 418.00,114.91 443.00,115.02 442.34,263.79 "/></g><g class="Panel" id="Panel"><line x1="429.8732690348031" x2="430.4667273030875" y1="256.2350744155387" y2="122.46493779149253"/><line x1="417.3732690348031" x2="442.3732690348031" y1="256.1800664809684" y2="256.290082350109"/><line x1="417.9667273030875" x2="442.9667273030875" y1="122.40992985692225" y2="122.51992283787928"/></g></g></g><g class="Wall" fill="#000000" id="Wall" stroke="#000000" style="fill-opacity: 1; stroke-opacity: 1; stroke-width: 1;"><polygon points="1167.30,762.91 1167.30,585.06 1155.48,581.00 1155.48,762.91 "/><g class="Door Swing Beside" fill="#ffffff" id="Door" stroke="#000000" style="fill-opacity: 1; stroke-width: 1; stroke-opacity: 1;"><polygon points="1167.30,664.18 1167.30,590.86 1155.48,590.86 1155.48,664.18 "/><g class="Panel Right Positive" fill="none" id="Panel" style=""><g class="PanelArea" fill="none" id="PanelArea" stroke="none" style=""><polygon points="1167.30,664.18 1167.30,590.86 1155.48,590.86 1155.48,664.18 "/></g><path d="M1155.48,664.18 q-73.32,0.00 -73.32,-73.32 l73.32,0.00Z"/></g></g></g><g class="Wall" fill="#000000" id="Wall" stroke="#000000" style="fill-opacity: 1; stroke-opacity: 1; stroke-width: 1;"><polygon points="1174.27,316.41 1173.73,488.37 1162.74,485.07 1163.27,316.38 "/></g><g class="Wall" fill="#000000" id="Wall" stroke="#000000" style="fill-opacity: 1; stroke-opacity: 1; stroke-width: 1;"><polygon points="972.36,545.56 1113.79,545.56 1110.88,534.56 947.36,534.56 "/><g class="Door Swing Beside" fill="#ffffff" id="Door" stroke="#000000" style="fill-opacity: 1; stroke-width: 1; stroke-opacity: 1;"><polygon points="1018.21,545.56 1094.04,545.56 1094.04,534.56 1018.21,534.56 "/><g class="Panel Right Positive" fill="none" id="Panel" style=""><g class="PanelArea" fill="none" id="PanelArea" stroke="none" style=""><polygon points="1018.21,545.56 1094.04,545.56 1094.04,534.56 1018.21,534.56 "/></g><path d="M1018.21,534.56 q0.00,-75.83 75.83,-75.83 l0.00,75.83Z"/></g></g></g><g class="Wall External" fill="#000000" id="Wall" stroke="#000000" style="fill-opacity: 1; stroke-opacity: 1; stroke-width: 1;"><polygon points="947.36,762.91 947.36,534.56 972.36,545.56 972.36,737.91 "/></g><g class="Wall" fill="#000000" id="Wall" stroke="#000000" style="fill-opacity: 1; stroke-opacity: 1; stroke-width: 1;"><polygon points="1352.87,535.71 1204.47,535.71 1208.78,546.71 1352.87,546.71 "/></g><g class="Wall" fill="#000000" id="Wall" stroke="#000000" style="fill-opacity: 1; stroke-opacity: 1; stroke-width: 1;"><polygon points="1110.88,534.56 1162.74,485.07 1173.73,488.37 1113.79,545.56 "/></g><g class="Wall" fill="#000000" id="Wall" stroke="#000000" style="fill-opacity: 1; stroke-opacity: 1; stroke-width: 1;"><polygon points="1167.30,585.06 1208.78,546.71 1204.47,535.71 1155.48,581.00 "/></g><g class="Wall" fill="#000000" id="Wall" stroke="#000000" style="fill-opacity: 1; stroke-opacity: 1; stroke-width: 1;"><polygon points="1158.41,490.82 1208.78,546.71 1216.95,539.35 1166.58,483.45 "/></g><g class="Wall" fill="#000000" id="Wall" stroke="#000000" style="fill-opacity: 1; stroke-opacity: 1; stroke-width: 1;"><polygon points="942.02,41.72 942.02,392.93 964.65,392.93 964.65,41.72 "/><g class="Door Swing Beside" fill="#ffffff" id="Door" stroke="#000000" style="fill-opacity: 1; stroke-width: 1; stroke-opacity: 1;"><polygon points="942.02,159.39 942.02,245.06 964.65,245.06 964.65,159.39 "/><g class="Panel Left Positive" fill="none" id="Panel" style=""><g class="PanelArea" fill="none" id="PanelArea" stroke="none" style=""><polygon points="942.02,159.39 942.02,245.06 964.65,245.06 964.65,159.39 "/></g><path d="M964.65,245.06 q85.67,0.00 85.67,-85.67 l-85.67,0.00Z"/></g></g></g><g class="Wall" fill="#000000" id="Wall" stroke="#000000" style="fill-opacity: 1; stroke-opacity: 1; stroke-width: 1;"><polygon points="1011.74,316.41 1352.87,316.41 1352.87,327.92 1011.74,327.92 "/><g class="Door Swing Beside" fill="#ffffff" id="Door" stroke="#000000" style="fill-opacity: 1; stroke-width: 1; stroke-opacity: 1;"><polygon points="1208.28,316.41 1283.93,316.41 1283.93,327.92 1208.28,327.92 "/><g class="Panel Left Negative" fill="none" id="Panel" style=""><g class="PanelArea" fill="none" id="PanelArea" stroke="none" style=""><polygon points="1208.28,316.41 1283.93,316.41 1283.93,327.92 1208.28,327.92 "/></g><path d="M1208.28,316.41 q0.00,-75.65 75.65,-75.65 l0.00,75.65Z"/></g></g></g><g class="Stairs" fill="#ffffff" id="Stairs" stroke="#000000" style="fill-opacity: 1; stroke-opacity: 1;"><g class="Flight" id="Flight"><polygon points="731.52,978.70 731.52,897.63 895.88,897.63 895.88,978.70 "/><g class="WalkinLine "><path d="M813.70,978.70 L813.70,897.63 " fill="none" stroke="#d3d3d3" style='pointer-events: none; marker-end: url("#Marker2");'/><defs><marker fill="#d3d3d3" id="Marker2" markerHeight="12" markerWidth="12" orient="auto" refX="11" refY="6" stroke="#d3d3d3" style="pointer-events: none;" viewBox="0 0 12 12"><polygon points="0.00,0.00 0.00,12.00 10.00,6.00 0.00,0.00 "/></marker></defs></g><g class="Steps" id="Steps"><line x1="731.52001953125" x2="895.8800048828125" y1="978.7000122070312" y2="978.7000122070312"/><line x1="731.52001953125" x2="895.8800048828125" y1="951.6766764322916" y2="951.6766764322916"/><line x1="731.52001953125" x2="895.8800048828125" y1="924.6533406575521" y2="924.6533406575521"/><line x1="731.52001953125" x2="895.8800048828125" y1="897.6300048828125" y2="897.6300048828125"/></g></g></g><g class="Railing" fill="#ffffff" id="Railing" stroke="#000000" style="fill-opacity: 1; stroke-opacity: 1; stroke-width: 1;"><polygon points="418.32,41.72 37.98,41.72 48.98,52.46 418.32,52.46 " style="stroke-dasharray: 380.34, 15.3736, 380.08;"/></g><g class="Railing" fill="#ffffff" id="Railing" stroke="#000000" style="fill-opacity: 1; stroke-opacity: 1; stroke-width: 1;"><polygon points="37.98,41.72 37.98,762.18 48.98,746.33 48.98,52.46 " style="stroke-dasharray: 720.46, 19.293, 693.87, 15.3736;"/></g><g class="Railing" fill="#ffffff" id="Railing" stroke="#000000" style="fill-opacity: 1; stroke-opacity: 1; stroke-width: 1;"><polygon points="37.98,762.18 418.48,762.59 418.50,746.73 48.98,746.33 " style="stroke-dasharray: 765.881, 19.293;"/></g><g class="Railing" fill="#ffffff" id="Railing" stroke="#000000" style="fill-opacity: 1; stroke-opacity: 1; stroke-width: 1;"><polygon points="947.52,762.91 895.66,762.91 895.66,754.91 947.52,754.91 "/></g><g class="Railing" fill="#ffffff" id="Railing" stroke="#000000" style="fill-opacity: 1; stroke-opacity: 1; stroke-width: 1;"><polygon points="730.51,762.91 433.08,762.59 433.09,754.59 730.52,754.91 "/></g><g class="Column Rectangle" fill="#000000" id="Column" stroke="none" style="fill-opacity: 1;"><polygon points="895.66,762.91 895.66,747.45 910.26,747.45 910.26,762.91 "/></g><g class="Column Rectangle" fill="#000000" id="Column" stroke="none" style="fill-opacity: 1;"><polygon points="715.91,762.91 715.91,747.45 730.51,747.45 730.51,762.91 "/></g><g class="Column Rectangle" fill="#000000" id="Column" stroke="none" style="fill-opacity: 1;"><polygon points="418.48,762.59 418.48,747.13 433.08,747.13 433.08,762.59 "/></g><g class="FixedFurnitureSet" id="FixedFurnitureSet" style="" transform="matrix(0,-1,1,0,972.3773,623.6561)"><g class="FixedFurniture BaseCabinet" fill="#ffffff" stroke="#000000" style="fill-opacity: 1; stroke-opacity: 1;" transform="matrix(1,0,0,1,0,0)">
<g class="BoundaryPolygon">
<polygon points="0.00,0.00 60.00,0.00 60.00,45.15 0.00,45.15 "/>
</g>
<g class="Direction" fill-opacity="0.9" style="display: none;">
<polygon fill="#444444" points="32.01,41.54 32.01,30.92 29.00,30.92 29.00,41.54 25.20,41.54 30.50,46.34 35.80,41.54 32.01,41.54 "/>
</g>
<g class="Name" fill-opacity="0.9" style="display: none;">

</g>
<desc>Width:60 Height:5 Depth:60 Elevation:105</desc>
</g><g class="FixedFurniture Sink" fill="#ffffff" stroke="#000000" style="fill-opacity: 1; stroke-opacity: 1;" transform="matrix(1,0,0,1,0,0)">
<g class="BoundaryPolygon" fill="none" stroke="none">
<polygon points="0.00,0.00 60.00,0.00 60.00,45.15 0.00,45.15 "/>
</g>
<g class="InnerPolygon">
<polygon points="5.00,9.70 55.00,9.70 55.00,41.16 5.00,41.16 "/>
</g>
<g class="OuterDrain" stroke-width="0.8">
<circle cx="30" cy="24.232102058005417" r="3.5"/>
</g>
<g class="InnerDrain" stroke-width="0.8">
<circle cx="30" cy="24.232102058005417" r="2"/>
</g>
<g class="Faucet">
<polygon points="27.00,3.76 33.00,3.76 33.00,17.76 27.00,17.76 "/>
</g>
<g class="Direction" fill-opacity="0.9" style="display: none;">
<polygon fill="#444444" points="32.01,41.54 32.01,30.92 29.00,30.92 29.00,41.54 25.20,41.54 30.50,46.34 35.80,41.54 32.01,41.54 "/>
</g>
<g class="Name" fill-opacity="0.9" style="display: none;">

</g>
<desc>Width:60 Height:90 Depth:60 Elevation:0</desc>
</g></g><g class="FixedFurnitureSet" id="FixedFurnitureSet" style="" transform="matrix(0,1,-1,0,1162.9258,328.396)"><g class="FixedFurniture Closet" fill="#ffffff" stroke="#000000" style="fill-opacity: 1; stroke-opacity: 1;" transform="matrix(1,0,0,1,0,0)">
<g class="BoundaryPolygon">
<polygon points="0.00,0.00 36.32,0.00 36.32,53.32 0.00,53.32 "/>
</g>
<g class="Direction" fill-opacity="0.9" style="display: none;">
<polygon fill="#444444" points="19.08,48.61 19.08,37.99 16.07,37.99 16.07,48.61 12.26,48.61 17.57,53.91 22.87,48.61 19.08,48.61 "/>
</g>
<g class="Name" fill-opacity="0.9" style="display: none;">

</g>
<desc>Width:60 Height:200 Depth:60 Elevation:0</desc>
</g><g class="FixedFurniture Closet" fill="#ffffff" stroke="#000000" style="fill-opacity: 1; stroke-opacity: 1;" transform="matrix(1,0,0,1,36.3231,0)">
<g class="BoundaryPolygon">
<polygon points="0.00,0.00 36.32,0.00 36.32,53.32 0.00,53.32 "/>
</g>
<g class="Direction" fill-opacity="0.9" style="display: none;">
<polygon fill="#444444" points="19.08,48.61 19.08,37.99 16.07,37.99 16.07,48.61 12.26,48.61 17.57,53.91 22.87,48.61 19.08,48.61 "/>
</g>
<g class="Name" fill-opacity="0.9" style="display: none;">

</g>
<desc>Width:60 Height:200 Depth:60 Elevation:0</desc>
</g><g class="FixedFurniture Closet" fill="#ffffff" stroke="#000000" style="fill-opacity: 1; stroke-opacity: 1;" transform="matrix(1,0,0,1,72.6461,0)">
<g class="BoundaryPolygon">
<polygon points="0.00,0.00 36.32,0.00 36.32,53.32 0.00,53.32 "/>
</g>
<g class="Direction" fill-opacity="0.9" style="display: none;">
<polygon fill="#444444" points="19.08,48.61 19.08,37.99 16.07,37.99 16.07,48.61 12.26,48.61 17.57,53.91 22.87,48.61 19.08,48.61 "/>
</g>
<g class="Name" fill-opacity="0.9" style="display: none;">

</g>
<desc>Width:60 Height:200 Depth:60 Elevation:0</desc>
</g><g class="FixedFurniture Closet" fill="#ffffff" stroke="#000000" style="fill-opacity: 1; stroke-opacity: 1;" transform="matrix(1,0,0,1,108.9692,0)">
<g class="BoundaryPolygon">
<polygon points="0.00,0.00 36.32,0.00 36.32,53.32 0.00,53.32 "/>
</g>
<g class="Direction" fill-opacity="0.9" style="display: none;">
<polygon fill="#444444" points="19.08,48.61 19.08,37.99 16.07,37.99 16.07,48.61 12.26,48.61 17.57,53.91 22.87,48.61 19.08,48.61 "/>
</g>
<g class="Name" fill-opacity="0.9" style="display: none;">

</g>
<desc>Width:60 Height:200 Depth:60 Elevation:0</desc>
</g></g><g class="FixedFurniture SaunaBenchHigh" fill="#ffffff" stroke="#000000" style="fill-opacity: 1; stroke-opacity: 1;" transform="matrix(0,1,-1,0,1327.846,546.3508)">
<g class="BoundaryPolygon">
<polygon points="0.00,0.00 191.56,0.00 191.56,64.23 0.00,64.23 "/>
</g>

<g class="Direction" fill-opacity="0.9" style="display: none;">
<polygon fill="#444444" points="98.79,58.51 98.79,47.89 95.78,47.89 95.78,58.51 91.98,58.51 97.28,63.81 102.59,58.51 98.79,58.51 "/>
</g>
<g class="Name" fill-opacity="0.9" style="display: none;">

</g>
<desc>Width:185 Height:5 Depth:60 Elevation:105</desc>
</g><g class="FixedFurniture SaunaBenchMid" fill="#ffffff" stroke="#000000" style="fill-opacity: 1; stroke-opacity: 1;" transform="matrix(0,1,-1,0,1263.6193,546.1273)">
<g class="BoundaryPolygon">
<polygon points="0.00,0.00 191.78,0.00 191.78,30.10 0.00,30.10 "/>
</g>

<g class="Direction" fill-opacity="0.9" style="display: none;">
<polygon fill="#444444" points="97.46,26.08 97.46,15.47 94.45,15.47 94.45,26.08 90.64,26.08 95.95,31.39 101.25,26.08 97.46,26.08 "/>
</g>
<g class="Name" fill-opacity="0.9" style="display: none;">

</g>
<desc>Width:185 Height:5 Depth:40 Elevation:60</desc>
</g><g class="FixedFurniture ElectricalAppliance SaunaStoveRound" fill="#ffffff" stroke="#000000" style="fill-opacity: 1; stroke-opacity: 1;" transform="matrix(1,0,0,1,1188.8423,557.1804)">
<g class="BoundaryPolygon" fill="none" stroke="none">
<polygon points="0,0 40,0 40,40 0,40"/>
</g>
<g class="InnerCircle">
<circle cx="20.5" cy="20.5" r="20"/>
</g>
<g class="electricitySign" fill="none">
<polyline points="2.5 30.5 30.5 20.5 10.5 20.5 38.5 10.5"/>
</g>
<g class="Name" fill-opacity="0.9" style="display: none;">

</g>
<desc>Width:60 Height:60 Depth:35 Elevation:20</desc>
</g><g class="FixedFurniture Toilet" fill="#ffffff" stroke="#000000" style="fill-opacity: 1; stroke-opacity: 1;" transform="matrix(0,1,-1,0,1155.4832,675.1426)">
<g class="BoundaryPolygon" fill="none" stroke="none">
<polygon points="0,0 41,0 41,71 0,71"/>
</g>
<g class="InnerPolygon">
<rect height="17.98" width="39.989" x="0.502" y="0.5"/>
<path d="M40.491,44.237S41.619,70.5,20.907,70.5C-.523,70.5.6,44.237.6,44.237L.5,18.48H40.491Z"/>
<rect height="3.03" width="6.357" x="17.318" y="7.975"/>
</g>
<desc>Width:41 Height:85 Depth:71 Elevation:0</desc>
</g><g class="FixedFurniture Shower" fill="#ffffff" stroke="#000000" style="fill-opacity: 1; stroke-opacity: 1;" transform="matrix(0,-1,1,0,972.3618,707.4498)">
<g class="BoundaryPolygon" fill="none" stroke="none">
<polygon points="0,0 32,0 32,19 0,19"/>
</g>
<g class="InnerPolygon">
<rect height="6.1" width="11.2" x="3.7" y="0.5"/>
<rect height="6.1" width="11.2" x="17.6" y="0.5"/>
<rect height="6.1" width="3.4" x="28.7" y="0.5"/>
<rect height="6.1" width="3.2" x="0.5" y="0.5"/>
<path d="M14.9,8.5c0,1.5-0.4,3.3-1.6,5    c-0.4,0.6-1,1.1-1.1,1.7c-0.2,1.1,0.3,2.8,2.5,3.2c0.5,0.1,1.3,0.1,1.6,0.1h-0.1c0.3,0,1.1,0,1.6-0.1c2.2-0.4,2.7-2.1,2.5-3.2    c-0.1-0.6-0.7-1.1-1.1-1.7c-1.2-1.7-1.6-3.5-1.6-5"/>
<path d="M12.2,15.3c0.1,0.2,1.6,1.9,4.2,1.9 c2.4-0.1,3.7-1.7,3.9-1.9"/>
<path d="M14.9,0.5h2.7v8c-0.9,0-1.8,0-2.7,0l0,0 C14.9,5.9,14.9,3.2,14.9,0.5z"/>
</g>
<g class="Indicator">
<path d="M3.7,3.6C5,3.1,5.2,3,5.2,3 c0,1.1,0,0,0,1.1C5.2,4.1,5.1,4.1,3.7,3.6"/>
<path d="M28.7,3.6 C27.4,3.1,27.2,3,27.2,3c0,1.1,0,0,0,1.1C27.2,4.1,27.3,4.1,28.7,3.6"/>
</g>
<desc>Width:32 Height:97 Depth:19 Elevation:135</desc>
</g><g class="FixedFurniture ShowerScreen" fill="#ffffff" stroke="#000000" style="fill-opacity: 1; stroke-opacity: 1;" transform="matrix(0,-1,1.2593,0,972.3617,639.7793)">
<g class="BoundaryPolygon">
<polygon points="0,0 2.5,0 2.5,60 0,60"/>
</g>
<g class="InnerPolygon" stroke-linejoin="round">
<rect height="60" width="2.5"/>
</g>
<desc>Width:2.5 Height:180 Depth:60 Elevation:135</desc>
</g><g class="FixedFurniture Fireplace" fill="#ffffff" stroke="#000000" style="fill-opacity: 1; stroke-opacity: 1;" transform="matrix(0,1.528,-1.1833,0,941.9617,258.1616)">
<g class="BoundaryPolygon">
<polygon points="0,0 75,0 75,60 0,60"/>
</g>
<g class="Lines" fill="none" stroke="#4c4c4c">
<line x1="0.629" x2="51.294" y1="9.556" y2="60.205"/>
<line x1="0.598" x2="35.942" y1="25.167" y2="60.5"/>
<line x1="0.5" x2="20.479" y1="40.841" y2="60.5"/>
<line x1="40.648" x2="75.432" y1="0.5" y2="35.274"/>
<line x1="8.329" x2="68.348" y1="0.5" y2="60.5"/>
<line x1="24.88" x2="75.5" y1="0.5" y2="51.104"/>
<line x1="56.774" x2="75.5" y1="0.5" y2="19.22"/>
</g>
<g class="FireBox">  &gt;	
		    <rect height="40.58" width="32.571" x="22.053" y="19.92"/>
</g>
<g class="Direction" fill-opacity="0.9" style="display: none;">
<polygon fill="#444444" points="39.409 54.797 39.409 44.181 36.4 44.181 36.4 54.797 32.597 54.797 37.9 60.1 43.203 54.797 39.409 54.797"/>
</g>
<g class="Name" fill-opacity="0.9" style="display: none;">

</g>
<desc>Width:75 Height:120 Depth:60 Elevation:0</desc>
</g><g class="FixedFurniture Chimney" fill="#ffffff" stroke="#000000" style="fill-opacity: 1; stroke-opacity: 1;" transform="matrix(0,-0.8599,0.9309,0,964.8109,327.9232)">
<g class="BoundaryPolygon">
<polygon points="0,0 50,0 50,50, 0,50"/>
</g>
<g class="Pipe">
<ellipse cx="25" cy="25" rx="12.5" ry="12.5"/>
</g>
<g class="Direction" fill-opacity="0.9" style="display: none;">
<polygon fill="#444444" points="26.509 44.997 26.509 34.381 23.5 34.381 23.5 44.997 19.697 44.997 25 50 30.303 44.997 26.509 44.997"/>
</g>
<g class="Name" fill-opacity="0.9" style="display: none;">

</g>
<desc>Width:50 Height:240 Depth:50 Elevation:0</desc>
</g><g class="FixedFurniture BaseCabinet" fill="#ffffff" stroke="#000000" style="fill-opacity: 1; stroke-opacity: 1;" transform="matrix(1,0,0,1,617.1038,67.0176)">
<g class="BoundaryPolygon">
<polygon points="0.00,0.00 271.83,0.00 271.83,60.00 0.00,60.00 "/>
</g>
<g class="Direction" fill-opacity="0.9" style="display: none;">
<polygon fill="#444444" points="145.02,55.20 145.02,44.58 142.01,44.58 142.01,55.20 138.20,55.20 143.51,60.00 148.81,55.20 145.02,55.20 "/>
</g>
<g class="Name" fill-opacity="0.9" style="display: none;">

</g>
<desc>Width:60 Height:90 Depth:60 Elevation:0</desc>
</g><g class="FixedFurniture ElectricalAppliance IntegratedStove" fill="#ffffff" stroke="#000000" style="fill-opacity: 1; stroke-opacity: 1;" transform="matrix(1,0,0,1,792.559,64.7088)">
<g class="BoundaryPolygon" fill="none" stroke="none">
<polygon points="0.00,0.00 60.00,0.00 60.00,64.11 0.00,64.11 "/>
</g>
<g class="InnerPolygon">
<polygon points="2.00,2.00 58.00,2.00 58.00,61.97 2.00,61.97 "/>
</g>
<g class="OuterCircle">
<circle cx="16" cy="17.09522060337325" r="8"/>
<circle cx="44" cy="17.09522060337325" r="8"/>
<circle cx="16" cy="47.01185665927644" r="8"/>
<circle cx="44" cy="47.01185665927644" r="8"/>
</g>
<g class="Direction" fill-opacity="0.9" style="display: none;">
<polygon fill="#444444" points="32.01,58.98 32.01,48.36 29.00,48.36 29.00,58.98 25.20,58.98 30.50,63.78 35.80,58.98 32.01,58.98 "/>
</g>
<g class="Name" fill-opacity="0.9" style="display: none;">

</g>
<desc>Width:60 Height:90 Depth:30 Elevation:0</desc>
</g><g class="FixedFurniture ElectricalAppliance Dishwasher" fill="#ffffff" stroke="#000000" style="fill-opacity: 1; stroke-opacity: 1;" transform="matrix(0.8907,0,0,1,665.4856,66.9395)">
<g class="BoundaryPolygon">
<polygon points="0,0 60,0 60,60 0,60"/>
</g>
<g class="electricitySign" fill="none">
<path d="M0,0,30,38.9v-20L60,60"/>
</g>
<g class="Handle">
<path d="M10,59.6H49.8"/>
</g>
<g class="Direction" fill-opacity="0.9" style="display: none;">
<polygon fill="#444444" points="32.009 55.197 32.009 44.581 29 44.581 29 55.197 25.197 55.197 30.5 60 35.803 55.197 32.009 55.197"/>
</g>
<g class="Name" fill-opacity="0.9" style="display: none;">

</g>
<desc>Width:60 Height:90 Depth:60 Elevation:0</desc>
</g><g class="FixedFurniture Closet" fill="#ffffff" stroke="#000000" style="fill-opacity: 1; stroke-opacity: 1;" transform="matrix(1,0,0,1,1108.9376,473.6852)"><desc>Width:120 Height:200 Depth:60 Elevation:0</desc><g class="BoundaryPolygon"><polygon points="0.00,0.00 0.00,60.84 53.80,11.39 53.99,0.00 0.00,0.00 "/></g></g><g class="FixedFurniture ElectricalAppliance Refrigerator" fill="#ffffff" stroke="#000000" style="fill-opacity: 1; stroke-opacity: 1;" transform="matrix(0.8903,0,0,1,888.9315,66.7208)">
<g class="BoundaryPolygon">
<polygon points="0,0 60,0 60,60 0,60"/>
</g>
<g class="electricitySign" fill="none">
<path d="M0,0,30,37.1v-18L60,56.3"/>
</g>
<g class="Doors">
<rect height="4" width="60" y="56"/>
</g>
<g class="Direction" fill-opacity="0.9" style="display: none;">
<polygon fill="#444444" points="32.009 55.197 32.009 44.581 29 44.581 29 55.197 25.197 55.197 30.5 60 35.803 55.197 32.009 55.197"/>
</g>
<g class="Name" fill-opacity="0.9" style="display: none;">

</g>
<desc>Width:60 Height:170 Depth:60 Elevation:0</desc>
</g><g class="SelectionControls" fill="#0000ff" stroke="#0000ff" style="display: none;"><g class="rotateControl" style="display: none;"><circle cx="207.653725" cy="335.24845" r="5" style="stroke : none; fill-opacity: 0.5; cursor:crosshair"/></g><g class="ResizeNControl" style="display: none;"><circle cx="0" cy="0" r="5" style="stroke : none; fill-opacity: 0.5"/></g><g class="ResizeNEControl" style="display: none;"><circle cx="0" cy="0" r="5" style="stroke : none; fill-opacity: 0.5"/></g><g class="ResizeEControl" style="display: none;"><circle cx="0" cy="0" r="5" style="stroke : none; fill-opacity: 0.5"/></g><g class="ResizeSEControl" style="display: none;"><circle cx="0" cy="0" r="5" style="stroke : none; fill-opacity: 0.5"/></g><g class="ResizeSControl" style="display: none;"><circle cx="0" cy="0" r="5" style="stroke : none; fill-opacity: 0.5"/></g><g class="ResizeSWControl" style="display: none;"><circle cx="0" cy="0" r="5" style="stroke : none; fill-opacity: 0.5"/></g><g class="ResizeWControl" style="display: none;"><circle cx="0" cy="0" r="5" style="stroke : none; fill-opacity: 0.5"/></g><g class="ResizeNWControl" style="display: none;"><circle cx="0" cy="0" r="5" style="stroke : none; fill-opacity: 0.5"/></g><g class="removeControl" style="display: none;"><polygon points="124.89,365.25 290.42,365.25 290.42,405.76 124.89,405.76 " style="stroke : none; fill-opacity: 0.1"/></g><g class="copyPasteControl" style="display: none;"><polygon style="stroke : none; fill-opacity: 0.1"/></g><g class="translateControl" style="display: none;"><polygon points="124.89,365.25 290.42,365.25 290.42,405.76 124.89,405.76 " style="stroke : none; fill-opacity: 0.1; cursor:move"/></g></g><g class="SelectionControls" fill="#0000ff" stroke="#0000ff" style="display: none;"><polygon fill="none" points="48.98,52.46 416.89,52.46 416.89,745.99 48.98,745.99 " stroke="#0000ff" style=""/><g class="rotateControl" style="display: none;"><circle cx="232.93475358886718" cy="22.458799999999997" r="5" style="stroke : none; fill-opacity: 0.5; cursor:crosshair"/></g><g class="ResizeNControl" style="display: none;"><circle cx="0" cy="0" r="5" style="stroke : none; fill-opacity: 0.5"/></g><g class="ResizeNEControl" style="display: none;"><circle cx="0" cy="0" r="5" style="stroke : none; fill-opacity: 0.5"/></g><g class="ResizeEControl" style="display: none;"><circle cx="0" cy="0" r="5" style="stroke : none; fill-opacity: 0.5"/></g><g class="ResizeSEControl" style="display: none;"><circle cx="0" cy="0" r="5" style="stroke : none; fill-opacity: 0.5"/></g><g class="ResizeSControl" style="display: none;"><circle cx="0" cy="0" r="5" style="stroke : none; fill-opacity: 0.5"/></g><g class="ResizeSWControl" style="display: none;"><circle cx="0" cy="0" r="5" style="stroke : none; fill-opacity: 0.5"/></g><g class="ResizeWControl" style="display: none;"><circle cx="0" cy="0" r="5" style="stroke : none; fill-opacity: 0.5"/></g><g class="ResizeNWControl" style="display: none;"><circle cx="0" cy="0" r="5" style="stroke : none; fill-opacity: 0.5"/></g><g class="removeControl" style="display: none;"><polygon style="stroke : none; fill-opacity: 0.1"/></g><g class="copyPasteControl" style="display: none;"><polygon style="stroke : none; fill-opacity: 0.1"/></g><g class="translateControl" style="display: none;"><polygon style="stroke : none; fill-opacity: 0.1; cursor:move"/></g></g><g class="SelectionControls" fill="#0000ff" stroke="#0000ff" style="display: none;"><g class="rotateControl" style="display: block;"><circle cx="240.2008495422363" cy="291.76714908447263" r="5" style="stroke : none; fill-opacity: 0.5; cursor:crosshair"/></g><g class="ResizeNControl" style="display: none;"><circle cx="0" cy="0" r="5" style="stroke : none; fill-opacity: 0.5"/></g><g class="ResizeNEControl" style="display: none;"><circle cx="0" cy="0" r="5" style="stroke : none; fill-opacity: 0.5"/></g><g class="ResizeEControl" style="display: none;"><circle cx="0" cy="0" r="5" style="stroke : none; fill-opacity: 0.5"/></g><g class="ResizeSEControl" style="display: none;"><circle cx="0" cy="0" r="5" style="stroke : none; fill-opacity: 0.5"/></g><g class="ResizeSControl" style="display: none;"><circle cx="0" cy="0" r="5" style="stroke : none; fill-opacity: 0.5"/></g><g class="ResizeSWControl" style="display: none;"><circle cx="0" cy="0" r="5" style="stroke : none; fill-opacity: 0.5"/></g><g class="ResizeWControl" style="display: none;"><circle cx="0" cy="0" r="5" style="stroke : none; fill-opacity: 0.5"/></g><g class="ResizeNWControl" style="display: none;"><circle cx="0" cy="0" r="5" style="stroke : none; fill-opacity: 0.5"/></g><g class="removeControl" style="display: block;"><polygon points="158.19,321.77 322.22,321.77 322.22,362.28 158.19,362.28 " style="stroke : none; fill-opacity: 0.1"/></g><g class="copyPasteControl" style="display: none;"><polygon style="stroke : none; fill-opacity: 0.1"/></g><g class="translateControl" style="display: block;"><polygon points="158.19,321.77 322.22,321.77 322.22,362.28 158.19,362.28 " style="stroke : none; fill-opacity: 0.1; cursor:move"/></g></g><g class="SelectionControls" fill="#0000ff" stroke="#0000ff" style="display: block;"><polygon fill="none" points="48.98,52.46 418.32,52.46 418.32,746.33 48.98,746.33 " stroke="#0000ff" style=""/><g class="rotateControl" style="display: block;"><circle cx="233.64999771118164" cy="22.459999084472656" r="5" style="stroke : none; fill-opacity: 0.5; cursor:crosshair"/></g><g class="ResizeNControl" style="display: none;"><circle cx="0" cy="0" r="5" style="stroke : none; fill-opacity: 0.5"/></g><g class="ResizeNEControl" style="display: none;"><circle cx="0" cy="0" r="5" style="stroke : none; fill-opacity: 0.5"/></g><g class="ResizeEControl" style="display: none;"><circle cx="0" cy="0" r="5" style="stroke : none; fill-opacity: 0.5"/></g><g class="ResizeSEControl" style="display: none;"><circle cx="0" cy="0" r="5" style="stroke : none; fill-opacity: 0.5"/></g><g class="ResizeSControl" style="display: none;"><circle cx="0" cy="0" r="5" style="stroke : none; fill-opacity: 0.5"/></g><g class="ResizeSWControl" style="display: none;"><circle cx="0" cy="0" r="5" style="stroke : none; fill-opacity: 0.5"/></g><g class="ResizeWControl" style="display: none;"><circle cx="0" cy="0" r="5" style="stroke : none; fill-opacity: 0.5"/></g><g class="ResizeNWControl" style="display: none;"><circle cx="0" cy="0" r="5" style="stroke : none; fill-opacity: 0.5"/></g><g class="removeControl" style="display: none;"><polygon style="stroke : none; fill-opacity: 0.1"/></g><g class="copyPasteControl" style="display: none;"><polygon style="stroke : none; fill-opacity: 0.1"/></g><g class="translateControl" style="display: none;"><polygon style="stroke : none; fill-opacity: 0.1; cursor:move"/></g></g></g></g></g></svg>