<?xml version="1.0" encoding="utf-8"?>
<svg height="912.7000170648098" id="temp" version="1.1" viewBox="0 0 1311.5000341832638 912.7000170648098" width="1311.5000341832638" xmlns="http://www.w3.org/2000/svg" xmlns:xlink="http://www.w3.org/1999/xlink"><defs/><g class="Model v1-1" id="Model"><g class="Floor"><g class="Floorplan Floor-1" id="Floor-1"><g class="Space Outdoor Balcony" fill="#ffffff" id="595262e1-cd25-464b-b3b5-7aace9a67301" stroke="#000000" style="fill-opacity: 1; stroke-opacity: 1; stroke-width: 1;"><polygon points="-0.16,-0.38 139.58,-0.38 139.58,444.44 -0.16,444.44 -0.16,-0.38 -0.16,-0.38 "/><g class="Dimension" transform="matrix(1,0,0,1,-0.1619,-0.3756)"><g class="Visual" style="display: none;" transform="matrix(1,0,0,1,0,0)"><g class="DimensionMark" fill="#000000" id="mark1" stroke="none" style="fill-opacity: 1; pointer-events: visible;" transform="matrix(1,0,0,1,69.8685,0)"><polygon points="-5,5,0,0,5,5"/></g><g class="DimensionMark" fill="#000000" id="mark2" stroke="none" style="fill-opacity: 1; pointer-events: visible;" transform="matrix(1,0,0,1,139.737,222.408)"><polygon points="-5,-5,0,0,-5,5"/></g><g class="DimensionMark" fill="#000000" id="mark3" stroke="none" style="fill-opacity: 1; pointer-events: visible;" transform="matrix(1,0,0,1,69.8685,444.816)"><polygon points="-5,-5,0,0,5,-5"/></g><g class="DimensionMark" fill="#000000" id="mark4" stroke="none" style="fill-opacity: 1; pointer-events: visible;" transform="matrix(1,0,0,1,0,222.408)"><polygon points="5,5,0,0,5,-5"/></g></g><g class="SpaceDimensionsLabel" transform="matrix(0,-1,1,0,87.3779,281.9923)"><g class="TextLabel NameLabel" id="NameLabel" style="display: block;"/><g class="TextLabel DimensionMeasureLabel" id="DimensionMeasureLabel" style="display: none;" transform="matrix(1,0,0,1,-63.7109,80.3125)"/></g></g></g><g class="Space Entry Lobby" fill="#ffffff" id="f535dd2c-21d3-4519-9971-3ab8d349fa0e" stroke="#ffffff" style="fill-opacity: 1; stroke-opacity: 1; stroke-width: 1;"><polygon points="1289.50,607.73 1040.44,607.73 1040.44,596.97 617.50,596.97 617.50,422.44 759.09,422.44 759.09,421.64 1289.50,421.64 "/><g class="Dimension" transform="matrix(1,0,0,1,617.4979,421.6389)"><g class="Visual" style="display: none;" transform="matrix(1,0,0,1,0,0)"><g class="DimensionMark" fill="#000000" id="mark1" stroke="none" style="fill-opacity: 1; pointer-events: visible;" transform="matrix(1,0,0,1,335.9988,0)"><polygon points="-5,5,0,0,5,5"/></g><g class="DimensionMark" fill="#000000" id="mark2" stroke="none" style="fill-opacity: 1; pointer-events: visible;" transform="matrix(1,0,0,1,671.9976,93.0452)"><polygon points="-5,-5,0,0,-5,5"/></g><g class="DimensionMark" fill="#000000" id="mark3" stroke="none" style="fill-opacity: 1; pointer-events: visible;" transform="matrix(1,0,0,1,335.9988,175.3341)"><polygon points="-5,-5,0,0,5,-5"/></g><g class="DimensionMark" fill="#000000" id="mark4" stroke="none" style="fill-opacity: 1; pointer-events: visible;" transform="matrix(1,0,0,1,0,93.0452)"><polygon points="5,5,0,0,5,-5"/></g></g><g class="SpaceDimensionsLabel" style="display: block;" transform="matrix(1,0,0,1,322.1321,68.4709)"><g class="TextLabel NameLabel" id="NameLabel" style="display: block;"/><g class="TextLabel DimensionMeasureLabel" id="DimensionMeasureLabel" style="display: none;" transform="matrix(1,0,0,1,-118.8985,79.9375)"/></g></g></g><g class="Space Kitchen" fill="#ffffff" id="378311ac-7477-4af6-9f3f-420e2e007639" stroke="#ffffff" style="fill-opacity: 1; stroke-opacity: 1; stroke-width: 1;"><polygon points="1289.50,888.90 1038.09,888.90 1038.09,828.59 978.09,828.59 978.09,608.97 1040.44,608.97 1040.44,607.73 1289.50,607.73 "/><g class="Dimension" transform="matrix(1,0,0,1,978.0858,607.7293)"><g class="Visual" style="display: none;" transform="matrix(1,0,0,1,0,0)"><g class="DimensionMark" fill="#000000" id="mark1" stroke="none" style="fill-opacity: 1; pointer-events: visible;" transform="matrix(1,0,0,1,155.7048,0)"><polygon points="-5,5,0,0,5,5"/></g><g class="DimensionMark" fill="#000000" id="mark2" stroke="none" style="fill-opacity: 1; pointer-events: visible;" transform="matrix(1,0,0,1,311.4097,140.5847)"><polygon points="-5,-5,0,0,-5,5"/></g><g class="DimensionMark" fill="#000000" id="mark3" stroke="none" style="fill-opacity: 1; pointer-events: visible;" transform="matrix(1,0,0,1,155.7048,281.1695)"><polygon points="-5,-5,0,0,5,-5"/></g><g class="DimensionMark" fill="#000000" id="mark4" stroke="none" style="fill-opacity: 1; pointer-events: visible;" transform="matrix(1,0,0,1,0,140.5847)"><polygon points="5,5,0,0,5,-5"/></g></g><g class="SpaceDimensionsLabel" style="display: block;" transform="matrix(1,0,0,1,177.8803,120.7942)"><g class="TextLabel NameLabel" id="NameLabel" style="display: block;"/><g class="TextLabel DimensionMeasureLabel" id="DimensionMeasureLabel" style="display: none;" transform="matrix(1,0,0,1,-128.2031,79.9375)"/></g></g></g><g class="Space LivingRoom" fill="#ffffff" id="5e043dcf-ddd7-4217-afed-d12f8902d6a1" stroke="#ffffff" style="fill-opacity: 1; stroke-opacity: 1; stroke-width: 1;"><polygon points="757.79,421.64 759.09,421.64 759.09,422.44 162.58,422.44 162.58,22.62 757.79,22.62 "/><g class="Dimension" transform="matrix(1,0,0,1,162.5751,22.6244)"><g class="Visual" style="display: none;" transform="matrix(1,0,0,1,0,0)"><g class="DimensionMark" fill="#000000" id="mark1" stroke="none" style="fill-opacity: 1; pointer-events: visible;" transform="matrix(1,0,0,1,298.2562,0)"><polygon points="-5,5,0,0,5,5"/></g><g class="DimensionMark" fill="#000000" id="mark2" stroke="none" style="fill-opacity: 1; pointer-events: visible;" transform="matrix(1,0,0,1,595.2119,199.908)"><polygon points="-5,-5,0,0,-5,5"/></g><g class="DimensionMark" fill="#000000" id="mark3" stroke="none" style="fill-opacity: 1; pointer-events: visible;" transform="matrix(1,0,0,1,298.2562,399.816)"><polygon points="-5,-5,0,0,5,-5"/></g><g class="DimensionMark" fill="#000000" id="mark4" stroke="none" style="fill-opacity: 1; pointer-events: visible;" transform="matrix(1,0,0,1,0,199.908)"><polygon points="5,5,0,0,5,-5"/></g></g><g class="SpaceDimensionsLabel" style="display: block;" transform="matrix(1,0,0,1,274.7275,198.908)"><g class="TextLabel NameLabel" id="NameLabel" style="display: block;"/><g class="TextLabel DimensionMeasureLabel" id="DimensionMeasureLabel" style="display: none;" transform="matrix(1,0,0,1,-114.6172,79.7031)"/></g></g></g><g class="Space Bedroom" fill="#ffffff" id="9131ba47-bc17-4bd7-9b37-d8121aaaac90" stroke="#ffffff" style="fill-opacity: 1; stroke-opacity: 1; stroke-width: 1;"><polygon points="1289.50,410.69 930.06,410.69 930.06,22.62 1289.50,22.62 "/><g class="Dimension" transform="matrix(1,0,0,1,930.0641,22.6244)"><g class="Visual" style="display: none;" transform="matrix(1,0,0,1,0,0)"><g class="DimensionMark" fill="#000000" id="mark1" stroke="none" style="fill-opacity: 1; pointer-events: visible;" transform="matrix(1,0,0,1,179.7157,0)"><polygon points="-5,5,0,0,5,5"/></g><g class="DimensionMark" fill="#000000" id="mark2" stroke="none" style="fill-opacity: 1; pointer-events: visible;" transform="matrix(1,0,0,1,359.4314,194.0335)"><polygon points="-5,-5,0,0,-5,5"/></g><g class="DimensionMark" fill="#000000" id="mark3" stroke="none" style="fill-opacity: 1; pointer-events: visible;" transform="matrix(1,0,0,1,179.7157,388.067)"><polygon points="-5,-5,0,0,5,-5"/></g><g class="DimensionMark" fill="#000000" id="mark4" stroke="none" style="fill-opacity: 1; pointer-events: visible;" transform="matrix(1,0,0,1,0,194.0335)"><polygon points="5,5,0,0,5,-5"/></g></g><g class="SpaceDimensionsLabel" style="display: block;" transform="matrix(1,0,0,1,169.0368,176.4188)"><g class="TextLabel NameLabel" id="NameLabel" style="display: block;"/><g class="TextLabel DimensionMeasureLabel" id="DimensionMeasureLabel" style="display: none;" transform="matrix(1,0,0,1,-113.6719,79.9375)"/></g></g></g><g class="Space Bath" fill="#ffffff" id="6d9a5e52-617d-447a-ac8c-16f1649c7126" stroke="#ffffff" style="fill-opacity: 1; stroke-opacity: 1; stroke-width: 1;"><polygon points="918.06,410.69 769.79,410.69 769.79,59.48 918.06,59.48 "/><g class="Dimension" transform="matrix(1,0,0,1,769.7871,59.4788)"><g class="Visual" style="display: none;" transform="matrix(1,0,0,1,0,0)"><g class="DimensionMark" fill="#000000" id="mark1" stroke="none" style="fill-opacity: 1; pointer-events: visible;" transform="matrix(1,0,0,1,74.1385,0)"><polygon points="-5,5,0,0,5,5"/></g><g class="DimensionMark" fill="#000000" id="mark2" stroke="none" style="fill-opacity: 1; pointer-events: visible;" transform="matrix(1,0,0,1,148.277,175.6063)"><polygon points="-5,-5,0,0,-5,5"/></g><g class="DimensionMark" fill="#000000" id="mark3" stroke="none" style="fill-opacity: 1; pointer-events: visible;" transform="matrix(1,0,0,1,74.1385,351.2126)"><polygon points="-5,-5,0,0,5,-5"/></g><g class="DimensionMark" fill="#000000" id="mark4" stroke="none" style="fill-opacity: 1; pointer-events: visible;" transform="matrix(1,0,0,1,0,175.6063)"><polygon points="5,5,0,0,5,-5"/></g></g><g class="SpaceDimensionsLabel" style="display: block;" transform="matrix(1,0,0,1,60.4596,200.0925)"><g class="TextLabel NameLabel" id="NameLabel" style="display: block;"/><g class="TextLabel DimensionMeasureLabel" id="DimensionMeasureLabel" style="display: none;" transform="matrix(1,0,0,1,-106.2265,79.7032)"/></g></g></g><g class="Wall External" fill="#000000" id="Wall" stroke="#000000" style="fill-opacity: 1; stroke-opacity: 1; stroke-width: 1;"><polygon points="594.50,618.97 956.09,618.97 978.09,596.97 617.50,596.97 "/><g class="Door Swing Beside" fill="#ffffff" id="Door" stroke="#000000" style="fill-opacity: 1; stroke-width: 1; stroke-opacity: 1;"><polygon points="648.10,618.97 735.42,618.97 735.42,596.97 648.10,596.97 "/><g class="Panel Left Positive" fill="none" id="Panel" style=""><g class="PanelArea" fill="none" id="PanelArea" stroke="none" style=""><polygon points="648.10,618.97 735.42,618.97 735.42,596.97 648.10,596.97 "/></g><path d="M735.42,596.97 q0.00,-87.32 -87.32,-87.32 l0.00,87.32Z"/></g></g></g><g class="Wall External" fill="#000000" id="Wall" stroke="#000000" style="fill-opacity: 1; stroke-opacity: 1; stroke-width: 1;"><polygon points="956.09,618.97 956.09,912.70 978.09,828.59 978.09,596.97 "/></g><g class="Wall External" fill="#000000" id="Wall" stroke="#000000" style="fill-opacity: 1; stroke-opacity: 1; stroke-width: 1;"><polygon points="1311.50,912.70 1311.50,-0.38 1289.50,22.62 1289.50,888.90 "/><g class="Window Regular" fill="#f0f0ff" id="Window" stroke="#000000" style="fill-opacity: 1; stroke-width: 1; stroke-opacity: 1;"><polygon points="1311.50,315.59 1311.50,96.02 1289.50,96.02 1289.50,315.59 "/><g class="Glass" id="Glass"><polygon points="1311.50,315.59 1311.50,96.02 1289.50,96.02 1289.50,315.59 "/></g><g class="Panel" id="Panel"><line x1="1300.495505652309" x2="1300.495505652309" y1="308.089711412568" y2="103.52328864673507"/><line x1="1311.495505652309" x2="1289.495505652309" y1="308.089711412568" y2="308.089711412568"/><line x1="1311.495505652309" x2="1289.495505652309" y1="103.52328864673507" y2="103.52328864673507"/></g></g><g class="Window Regular" fill="#f0f0ff" id="Window" stroke="#000000" style="fill-opacity: 1; stroke-width: 1; stroke-opacity: 1;"><polygon points="1311.50,704.69 1311.50,501.25 1289.50,501.25 1289.50,704.69 "/><g class="Glass" id="Glass"><polygon points="1311.50,704.69 1311.50,501.25 1289.50,501.25 1289.50,704.69 "/></g><g class="Panel" id="Panel"><line x1="1300.495505652309" x2="1300.495505652309" y1="697.1947798217359" y2="508.748423537445"/><line x1="1311.495505652309" x2="1289.495505652309" y1="697.1947798217359" y2="697.1947798217359"/><line x1="1311.495505652309" x2="1289.495505652309" y1="508.748423537445" y2="508.748423537445"/></g></g></g><g class="Wall External" fill="#000000" id="Wall" stroke="#000000" style="fill-opacity: 1; stroke-opacity: 1; stroke-width: 1;"><polygon points="139.58,11.04 139.58,444.44 162.58,422.44 162.58,-0.38 "/><g class="Window Regular" fill="#f0f0ff" id="Window" stroke="#000000" style="fill-opacity: 1; stroke-width: 1; stroke-opacity: 1;"><polygon points="139.58,78.05 139.58,325.65 162.58,325.65 162.58,78.05 "/><g class="Glass" id="Glass"><polygon points="139.58,78.05 139.58,325.65 162.58,325.65 162.58,78.05 "/></g><g class="Panel" id="Panel"><line x1="151.07512689130567" x2="151.07512689130567" y1="85.549475503353" y2="318.1481051578851"/><line x1="139.57512689130567" x2="162.57512689130567" y1="85.549475503353" y2="85.549475503353"/><line x1="139.57512689130567" x2="162.57512689130567" y1="318.1481051578851" y2="318.1481051578851"/></g></g><g class="Door Swing Beside" fill="#ffffff" id="Door" stroke="#000000" style="fill-opacity: 1; stroke-width: 1; stroke-opacity: 1;"><polygon points="139.58,334.19 139.58,411.26 162.58,411.26 162.58,334.19 "/><g class="Panel Left Negative" fill="none" id="Panel" style=""><g class="PanelArea" fill="none" id="PanelArea" stroke="none" style=""><polygon points="139.58,334.19 139.58,411.26 162.58,411.26 162.58,334.19 "/></g><path d="M139.58,334.19 q-77.07,0.00 -77.07,77.07 l77.07,0.00Z"/></g></g></g><g class="Wall External" fill="#000000" id="Wall" stroke="#000000" style="fill-opacity: 1; stroke-opacity: 1; stroke-width: 1;"><polygon points="139.58,444.44 594.50,444.44 617.50,422.44 162.58,422.44 "/></g><g class="Wall External" fill="#000000" id="Wall" stroke="#000000" style="fill-opacity: 1; stroke-opacity: 1; stroke-width: 1;"><polygon points="594.50,444.44 594.50,618.97 617.50,596.97 617.50,422.44 "/></g><g class="Wall" fill="#000000" id="Wall" stroke="#000000" style="fill-opacity: 1; stroke-opacity: 1; stroke-width: 1;"><polygon points="139.58,444.44 -0.16,444.44 12.64,433.84 139.58,433.84 "/></g><g class="Wall" fill="#000000" id="Wall" stroke="#000000" style="fill-opacity: 1; stroke-opacity: 1; stroke-width: 1;"><polygon points="-0.16,444.44 -0.16,429.42 12.64,429.42 12.64,433.84 "/></g><g class="Railing" fill="#ffffff" id="Railing" stroke="#000000" style="fill-opacity: 1; stroke-opacity: 1; stroke-width: 1;"><polygon points="-0.16,429.42 -0.16,14.47 11.84,14.47 11.84,429.42 " style="stroke-dasharray: 0;"/></g><g class="Wall" fill="#000000" id="Wall" stroke="#000000" style="fill-opacity: 1; stroke-opacity: 1; stroke-width: 1;"><polygon points="162.58,-0.38 -0.16,-0.38 11.84,11.04 139.58,11.04 "/></g><g class="Wall" fill="#000000" id="Wall" stroke="#000000" style="fill-opacity: 1; stroke-opacity: 1; stroke-width: 1;"><polygon points="-0.16,-0.38 -0.16,14.47 11.84,14.47 11.84,11.04 "/></g><g class="Wall" fill="#000000" id="Wall" stroke="#000000" style="fill-opacity: 1; stroke-opacity: 1; stroke-width: 1;"><polygon points="978.09,596.97 1040.44,596.97 1040.44,608.97 978.09,608.97 "/></g><g class="Wall" fill="#000000" id="Wall" stroke="#000000" style="fill-opacity: 1; stroke-opacity: 1; stroke-width: 1;"><polygon points="757.79,22.62 757.79,421.64 769.79,410.69 769.79,22.62 "/></g><g class="Wall" fill="#000000" id="Wall" stroke="#000000" style="fill-opacity: 1; stroke-opacity: 1; stroke-width: 1;"><polygon points="757.79,421.64 1311.50,421.64 1311.50,410.69 769.79,410.69 "/><g class="Door Swing Beside" fill="#ffffff" id="Door" stroke="#000000" style="fill-opacity: 1; stroke-width: 1; stroke-opacity: 1;"><polygon points="839.07,421.64 907.79,421.64 907.79,410.69 839.07,410.69 "/><g class="Panel Right Negative" fill="none" id="Panel" style=""><g class="PanelArea" fill="none" id="PanelArea" stroke="none" style=""><polygon points="839.07,421.64 907.79,421.64 907.79,410.69 839.07,410.69 "/></g><path d="M907.79,421.64 q0.00,68.72 -68.72,68.72 l0.00,-68.72Z"/></g></g><g class="Door Swing Beside" fill="#ffffff" id="Door" stroke="#000000" style="fill-opacity: 1; stroke-width: 1; stroke-opacity: 1;"><polygon points="939.68,421.64 1018.66,421.64 1018.66,410.69 939.68,410.69 "/><g class="Panel Left Positive" fill="none" id="Panel" style=""><g class="PanelArea" fill="none" id="PanelArea" stroke="none" style=""><polygon points="939.68,421.64 1018.66,421.64 1018.66,410.69 939.68,410.69 "/></g><path d="M1018.66,410.69 q0.00,-78.97 -78.97,-78.97 l0.00,78.97Z"/></g></g></g><g class="Wall" fill="#000000" id="Wall" stroke="#000000" style="fill-opacity: 1; stroke-opacity: 1; stroke-width: 1;"><polygon points="918.06,-0.38 918.06,421.64 930.06,421.64 930.06,22.62 "/></g><g class="Wall External" fill="#000000" id="Wall" stroke="#000000" style="fill-opacity: 1; stroke-opacity: 1; stroke-width: 1;"><polygon points="757.79,-0.38 139.58,-0.38 139.58,22.62 757.79,22.62 "/></g><g class="Wall External" fill="#000000" id="Wall" stroke="#000000" style="fill-opacity: 1; stroke-opacity: 1; stroke-width: 1;"><polygon points="1311.50,-0.38 918.06,-0.38 918.06,22.62 1289.50,22.62 "/></g><g class="Wall External" fill="#000000" id="Wall" stroke="#000000" style="fill-opacity: 1; stroke-opacity: 1; stroke-width: 1;"><polygon points="918.06,-0.38 757.79,-0.38 757.79,59.48 918.06,59.48 "/></g><g class="FixedFurniture Closet" fill="#ffffff" stroke="#000000" style="fill-opacity: 1; stroke-opacity: 1;" transform="matrix(-1,0,0,-1,834.7239,596.9731)">
<g class="BoundaryPolygon">
<polygon points="0,0 60,0 60,60 0,60"/>
</g>
<g class="Direction" fill-opacity="0.9" style="display: none;">
<polygon fill="#444444" points="31.509 54.697 31.509 44.081 28.5 44.081 28.5 54.697 24.697 54.697 30 60 35.303 54.697 31.509 54.697"/>
</g>
<g class="Name" fill-opacity="0.9" style="display: none;">

</g>
<desc>Width:60 Height:200 Depth:60 Elevation:0</desc>
</g><g class="FixedFurniture Closet" fill="#ffffff" stroke="#000000" style="fill-opacity: 1; stroke-opacity: 1;" transform="matrix(-1,0,0,-1,967.7838,596.9731)">
<g class="BoundaryPolygon">
<polygon points="0.00,0.00 64.14,0.00 64.14,60.00 0.00,60.00 "/>
</g>
<g class="Direction" fill-opacity="0.9" style="display: none;">
<polygon fill="#444444" points="33.68,54.70 33.68,44.08 30.68,44.08 30.68,54.70 26.87,54.70 32.18,60.00 37.48,54.70 33.68,54.70 "/>
</g>
<g class="Name" fill-opacity="0.9" style="display: none;">

</g>
<desc>Width:60 Height:200 Depth:60 Elevation:0</desc>
</g><g class="FixedFurniture Closet" fill="#ffffff" stroke="#000000" style="fill-opacity: 1; stroke-opacity: 1;" transform="matrix(-1,0,0,-1,903.6438,596.973)">
<g class="BoundaryPolygon">
<polygon points="0.00,0.00 68.92,0.00 68.92,60.00 0.00,60.00 "/>
</g>
<g class="Direction" fill-opacity="0.9" style="display: none;">
<polygon fill="#444444" points="36.19,54.70 36.19,44.08 33.18,44.08 33.18,54.70 29.38,54.70 34.68,60.00 39.99,54.70 36.19,54.70 "/>
</g>
<g class="Name" fill-opacity="0.9" style="display: none;">

</g>
<desc>Width:60 Height:200 Depth:60 Elevation:0</desc>
</g><g class="FixedFurniture Closet" fill="#ffffff" stroke="#000000" style="fill-opacity: 1; stroke-opacity: 1;" transform="matrix(-1,0,0,-1,1039.8838,596.9731)">
<g class="BoundaryPolygon">
<polygon points="0.00,0.00 72.10,0.00 72.10,60.00 0.00,60.00 "/>
</g>
<g class="Direction" fill-opacity="0.9" style="display: none;">
<polygon fill="#444444" points="37.86,54.70 37.86,44.08 34.86,44.08 34.86,54.70 31.05,54.70 36.36,60.00 41.66,54.70 37.86,54.70 "/>
</g>
<g class="Name" fill-opacity="0.9" style="display: none;">

</g>
<desc>Width:60 Height:200 Depth:60 Elevation:0</desc>
</g><g class="FixedFurniture BaseCabinet" fill="#ffffff" stroke="#000000" style="fill-opacity: 1; stroke-opacity: 1;" transform="matrix(0,-1,1,0,978.0858,828.5831)">
<g class="BoundaryPolygon">
<polygon points="0.00,0.00 219.61,0.00 219.61,60.00 0.00,60.00 "/>
</g>
<g class="Direction" fill-opacity="0.9" style="display: none;">
<polygon fill="#444444" points="117.16,55.20 117.16,44.58 114.15,44.58 114.15,55.20 110.35,55.20 115.65,60.00 120.95,55.20 117.16,55.20 "/>
</g>
<g class="Name" fill-opacity="0.9" style="display: none;">

</g>
<desc>Width:60 Height:90 Depth:60 Elevation:0</desc>
</g><g class="FixedFurniture BaseCabinet" fill="#ffffff" stroke="#000000" style="fill-opacity: 1; stroke-opacity: 1;" transform="matrix(-1,0,0,-1,1179.6358,888.8988)">
<g class="BoundaryPolygon">
<polygon points="0.00,0.00 141.55,0.00 141.55,60.00 0.00,60.00 "/>
</g>
<g class="Direction" fill-opacity="0.9" style="display: none;">
<polygon fill="#444444" points="75.51,55.20 75.51,44.58 72.51,44.58 72.51,55.20 68.70,55.20 74.01,60.00 79.31,55.20 75.51,55.20 "/>
</g>
<g class="Name" fill-opacity="0.9" style="display: none;">

</g>
<desc>Width:60 Height:90 Depth:60 Elevation:0</desc>
</g><g class="Wall External" fill="#000000" id="Wall" stroke="#000000" style="fill-opacity: 1; stroke-opacity: 1; stroke-width: 1;"><polygon points="956.09,912.70 1038.09,912.70 1038.09,828.59 978.09,828.59 "/></g><g class="Wall External" fill="#000000" id="Wall" stroke="#000000" style="fill-opacity: 1; stroke-opacity: 1; stroke-width: 1;"><polygon points="1038.09,912.70 1311.50,912.70 1289.50,888.90 1038.09,888.90 "/></g><g class="FixedFurniture ElectricalAppliance IntegratedStove" fill="#ffffff" stroke="#000000" style="fill-opacity: 1; stroke-opacity: 1;" transform="matrix(0,-1,1,0,978.0858,828.5867)">
<g class="BoundaryPolygon" fill="none" stroke="none">
<polygon points="0.00,0.00 62.58,0.00 62.58,60.00 0.00,60.00 "/>
</g>
<g class="InnerPolygon">
<polygon points="2.00,2.00 60.50,2.00 60.50,58.00 2.00,58.00 "/>
</g>
<g class="OuterCircle">
<circle cx="16.68863168817512" cy="16" r="8"/>
<circle cx="45.89373714248158" cy="16" r="8"/>
<circle cx="16.68863168817512" cy="44" r="8"/>
<circle cx="45.89373714248158" cy="44" r="8"/>
</g>
<g class="Direction" fill-opacity="0.9" style="display: none;">
<polygon fill="#444444" points="33.39,55.20 33.39,44.58 30.38,44.58 30.38,55.20 26.57,55.20 31.88,60.00 37.18,55.20 33.39,55.20 "/>
</g>
<g class="Name" fill-opacity="0.9" style="display: none;">

</g>
<desc>Width:60 Height:90 Depth:30 Elevation:0</desc>
</g><g class="FixedFurniture ElectricalAppliance SpaceForAppliance2" fill="#ffffff" stroke="#000000" style="fill-opacity: 1; stroke-opacity: 1;" transform="matrix(0,-1.0129,1,0,978.0858,765.23)">
<g class="BoundaryPolygon">
<polygon points="0,0 60,0 60,60 0,60"/>
</g>
<g class="electricitySign" fill="none">
<path d="M0,0,30.1,39.8V19.4L59.9,60"/>
</g>
<g class="Direction" fill-opacity="0.9" style="display: none;">
<polygon fill="#444444" points="32.009 55.197 32.009 44.581 29 44.581 29 55.197 25.197 55.197 30.5 60 35.803 55.197 32.009 55.197"/>
</g>
<g class="Name" fill-opacity="0.9" style="display: none;">

</g>
<desc>Width:60 Height:90 Depth:60 Elevation:0</desc>
</g><g class="FixedFurniture Sink" fill="#ffffff" stroke="#000000" style="fill-opacity: 1; stroke-opacity: 1;" transform="matrix(0,-1,1,0,983.2488,699.2925)">
<g class="BoundaryPolygon" fill="none" stroke="none">
<polygon points="0.00,0.00 51.22,0.00 51.22,50.74 0.00,50.74 "/>
</g>
<g class="InnerPolygon">
<polygon points="4.27,9.70 46.95,9.70 46.95,46.26 4.27,46.26 "/>
</g>
<g class="OuterDrain" stroke-width="0.8">
<circle cx="25.611665076607807" cy="27.23272968881597" r="3.5"/>
</g>
<g class="InnerDrain" stroke-width="0.8">
<circle cx="25.611665076607807" cy="27.23272968881597" r="2"/>
</g>
<g class="Faucet">
<polygon points="23.05,4.23 29.05,4.23 29.05,18.23 23.05,18.23 "/>
</g>
<g class="Direction" fill-opacity="0.9" style="display: none;">
<polygon fill="#444444" points="27.33,46.68 27.33,36.07 24.32,36.07 24.32,46.68 20.51,46.68 25.82,51.49 31.12,46.68 27.33,46.68 "/>
</g>
<g class="Name" fill-opacity="0.9" style="display: none;">

</g>
<desc>Width:60 Height:90 Depth:60 Elevation:0</desc>
</g><g class="FixedFurniture ElectricalAppliance Refrigerator" fill="#ffffff" stroke="#000000" style="fill-opacity: 1; stroke-opacity: 1;" transform="matrix(-1.032,0,0,-1,1241.5558,888.68)">
<g class="BoundaryPolygon">
<polygon points="0,0 60,0 60,60 0,60"/>
</g>
<g class="electricitySign" fill="none">
<path d="M0,0,30,37.1v-18L60,56.3"/>
</g>
<g class="Doors">
<rect height="4" width="60" y="56"/>
</g>
<g class="Direction" fill-opacity="0.9" style="display: none;">
<polygon fill="#444444" points="32.009 55.197 32.009 44.581 29 44.581 29 55.197 25.197 55.197 30.5 60 35.803 55.197 32.009 55.197"/>
</g>
<g class="Name" fill-opacity="0.9" style="display: none;">

</g>
<desc>Width:60 Height:170 Depth:60 Elevation:0</desc>
</g><g class="FixedFurniture Closet" fill="#ffffff" stroke="#000000" style="fill-opacity: 1; stroke-opacity: 1;" transform="matrix(-1,0,0,-1,1289.3158,888.8206)">
<g class="BoundaryPolygon">
<polygon points="0.00,0.00 47.76,0.00 47.76,60.00 0.00,60.00 "/>
</g>
<g class="Direction" fill-opacity="0.9" style="display: none;">
<polygon fill="#444444" points="25.08,54.70 25.08,44.08 22.07,44.08 22.07,54.70 18.27,54.70 23.57,60.00 28.88,54.70 25.08,54.70 "/>
</g>
<g class="Name" fill-opacity="0.9" style="display: none;">

</g>
<desc>Width:60 Height:200 Depth:60 Elevation:0</desc>
</g><g class="FixedFurniture Closet" fill="#ffffff" stroke="#000000" style="fill-opacity: 1; stroke-opacity: 1;" transform="matrix(-1,0,0,-1,1289.4955,410.6601)">
<g class="BoundaryPolygon">
<polygon points="0.00,0.00 116.94,0.00 116.94,64.16 0.00,64.16 "/>
</g>
<g class="Direction" fill-opacity="0.9" style="display: none;">
<polygon fill="#444444" points="61.41,58.49 61.41,47.88 58.40,47.88 58.40,58.49 54.60,58.49 59.90,63.80 65.20,58.49 61.41,58.49 "/>
</g>
<g class="Name" fill-opacity="0.9" style="display: none;">

</g>
<desc>Width:60 Height:200 Depth:60 Elevation:0</desc>
</g><g class="FixedFurniture Closet" fill="#ffffff" stroke="#000000" style="fill-opacity: 1; stroke-opacity: 1;" transform="matrix(-1,0,0,-1,1172.5575,410.6601)">
<g class="BoundaryPolygon">
<polygon points="0.00,0.00 109.30,0.00 109.30,64.16 0.00,64.16 "/>
</g>
<g class="Direction" fill-opacity="0.9" style="display: none;">
<polygon fill="#444444" points="57.40,58.49 57.40,47.88 54.39,47.88 54.39,58.49 50.59,58.49 55.89,63.80 61.19,58.49 57.40,58.49 "/>
</g>
<g class="Name" fill-opacity="0.9" style="display: none;">

</g>
<desc>Width:60 Height:200 Depth:60 Elevation:0</desc>
</g><g class="FixedFurniture ElectricalAppliance SpaceForAppliance2" fill="#ffffff" stroke="#000000" style="fill-opacity: 1; stroke-opacity: 1;" transform="matrix(0,-1,1,0,769.8184,410.6914)">
<g class="BoundaryPolygon">
<polygon points="0,0 60,0 60,60 0,60"/>
</g>
<g class="electricitySign" fill="none">
<path d="M0,0,30.1,39.8V19.4L59.9,60"/>
</g>
<g class="Direction" fill-opacity="0.9" style="display: none;">
<polygon fill="#444444" points="32.009 55.197 32.009 44.581 29 44.581 29 55.197 25.197 55.197 30.5 60 35.803 55.197 32.009 55.197"/>
</g>
<g class="Name" fill-opacity="0.9" style="display: none;">

</g>
<desc>Width:60 Height:90 Depth:60 Elevation:0</desc>
</g><g class="FixedFurniture Shower" fill="#ffffff" stroke="#000000" style="fill-opacity: 1; stroke-opacity: 1;" transform="matrix(1,0,0,1,796.6488,59.4788)">
<g class="BoundaryPolygon" fill="none" stroke="none">
<polygon points="0,0 32,0 32,19 0,19"/>
</g>
<g class="InnerPolygon">
<rect height="6.1" width="11.2" x="3.7" y="0.5"/>
<rect height="6.1" width="11.2" x="17.6" y="0.5"/>
<rect height="6.1" width="3.4" x="28.7" y="0.5"/>
<rect height="6.1" width="3.2" x="0.5" y="0.5"/>
<path d="M14.9,8.5c0,1.5-0.4,3.3-1.6,5    c-0.4,0.6-1,1.1-1.1,1.7c-0.2,1.1,0.3,2.8,2.5,3.2c0.5,0.1,1.3,0.1,1.6,0.1h-0.1c0.3,0,1.1,0,1.6-0.1c2.2-0.4,2.7-2.1,2.5-3.2    c-0.1-0.6-0.7-1.1-1.1-1.7c-1.2-1.7-1.6-3.5-1.6-5"/>
<path d="M12.2,15.3c0.1,0.2,1.6,1.9,4.2,1.9 c2.4-0.1,3.7-1.7,3.9-1.9"/>
<path d="M14.9,0.5h2.7v8c-0.9,0-1.8,0-2.7,0l0,0 C14.9,5.9,14.9,3.2,14.9,0.5z"/>
</g>
<g class="Indicator">
<path d="M3.7,3.6C5,3.1,5.2,3,5.2,3 c0,1.1,0,0,0,1.1C5.2,4.1,5.1,4.1,3.7,3.6"/>
<path d="M28.7,3.6 C27.4,3.1,27.2,3,27.2,3c0,1.1,0,0,0,1.1C27.2,4.1,27.3,4.1,28.7,3.6"/>
</g>
<desc>Width:32 Height:97 Depth:19 Elevation:135</desc>
</g><g class="FixedFurniture Toilet" fill="#ffffff" stroke="#000000" style="fill-opacity: 1; stroke-opacity: 1;" transform="matrix(0,-1,1,0,769.7871,185.549)">
<g class="BoundaryPolygon" fill="none" stroke="none">
<polygon points="0,0 41,0 41,71 0,71"/>
</g>
<g class="InnerPolygon">
<rect height="17.98" width="39.989" x="0.502" y="0.5"/>
<path d="M40.491,44.237S41.619,70.5,20.907,70.5C-.523,70.5.6,44.237.6,44.237L.5,18.48H40.491Z"/>
<rect height="3.03" width="6.357" x="17.318" y="7.975"/>
</g>
<desc>Width:41 Height:85 Depth:71 Elevation:0</desc>
</g><g class="FixedFurnitureSet" fill="#ffffff" id="FixedFurnitureSet" stroke="#000000" style="fill-opacity: 0.4; stroke-opacity: 0.4;" transform="matrix(0,-1,1,0,769.8183,255.6174)"><g class="FixedFurniture BaseCabinet" fill="#ffffff" stroke="#000000" style="fill-opacity: 1; stroke-opacity: 1;" transform="matrix(1,0,0,1,0,0)">
<g class="BoundaryPolygon">
<polygon points="0.00,0.00 55.49,0.00 55.49,41.26 0.00,41.26 "/>
</g>
<g class="Direction" fill-opacity="0.9" style="display: none;">
<polygon fill="#444444" points="29.60,37.96 29.60,27.34 26.59,27.34 26.59,37.96 22.79,37.96 28.09,42.76 33.40,37.96 29.60,37.96 "/>
</g>
<g class="Name" fill-opacity="0.9" style="display: none;">

</g>
<desc>Width:60 Height:5 Depth:60 Elevation:105</desc>
</g><g class="FixedFurniture Sink" fill="#ffffff" stroke="#000000" style="fill-opacity: 1; stroke-opacity: 1;" transform="matrix(1,0,0,1,0,0)">
<g class="BoundaryPolygon" fill="none" stroke="none">
<polygon points="0.00,0.00 55.49,0.00 55.49,41.26 0.00,41.26 "/>
</g>
<g class="InnerPolygon">
<polygon points="4.62,9.70 50.86,9.70 50.86,37.62 4.62,37.62 "/>
</g>
<g class="OuterDrain" stroke-width="0.8">
<circle cx="27.743312307218673" cy="22.14388227872812" r="3.5"/>
</g>
<g class="InnerDrain" stroke-width="0.8">
<circle cx="27.743312307218673" cy="22.14388227872812" r="2"/>
</g>
<g class="Faucet">
<polygon points="24.97,3.44 30.97,3.44 30.97,17.44 24.97,17.44 "/>
</g>
<g class="Direction" fill-opacity="0.9" style="display: none;">
<polygon fill="#444444" points="29.60,37.96 29.60,27.34 26.59,27.34 26.59,37.96 22.79,37.96 28.09,42.76 33.40,37.96 29.60,37.96 "/>
</g>
<g class="Name" fill-opacity="0.9" style="display: none;">

</g>
<desc>Width:60 Height:90 Depth:60 Elevation:0</desc>
</g></g><g class="FixedFurniture Misc" fill="none" stroke="#000000" style="fill-opacity: 1; stroke-opacity: 1; stroke-width: 1.8; stroke-dasharray: 5, 5;" transform="matrix(1,0,0,1,850.8329,59.3952)"><desc>Width:120 Height:200 Depth:60 Elevation:0</desc><g class="BoundaryPolygon"><path d="M0.00,0.00 L0.00,42.01 L-36.18,77.99 L-80.41,77.99 "/></g></g><g class="SelectionControls" fill="#0000ff" stroke="#0000ff" style="display: none;"><g class="rotateControl" style="display: none;"><circle cx="1167.731760647355" cy="664.9141176344674" r="5" style="stroke : none; fill-opacity: 0.5; cursor:crosshair"/></g><g class="ResizeNControl" style="display: none;"><circle cx="0" cy="0" r="5" style="stroke : none; fill-opacity: 0.5"/></g><g class="ResizeNEControl" style="display: none;"><circle cx="0" cy="0" r="5" style="stroke : none; fill-opacity: 0.5"/></g><g class="ResizeEControl" style="display: none;"><circle cx="0" cy="0" r="5" style="stroke : none; fill-opacity: 0.5"/></g><g class="ResizeSEControl" style="display: none;"><circle cx="0" cy="0" r="5" style="stroke : none; fill-opacity: 0.5"/></g><g class="ResizeSControl" style="display: none;"><circle cx="0" cy="0" r="5" style="stroke : none; fill-opacity: 0.5"/></g><g class="ResizeSWControl" style="display: none;"><circle cx="0" cy="0" r="5" style="stroke : none; fill-opacity: 0.5"/></g><g class="ResizeWControl" style="display: none;"><circle cx="0" cy="0" r="5" style="stroke : none; fill-opacity: 0.5"/></g><g class="ResizeNWControl" style="display: none;"><circle cx="0" cy="0" r="5" style="stroke : none; fill-opacity: 0.5"/></g><g class="removeControl" style="display: none;"><polygon points="1155.97,694.91 1179.50,694.91 1179.50,735.24 1155.97,735.24 " style="stroke : none; fill-opacity: 0.1"/></g><g class="copyPasteControl" style="display: none;"><polygon style="stroke : none; fill-opacity: 0.1"/></g><g class="translateControl" style="display: none;"><polygon points="1155.97,694.91 1179.50,694.91 1179.50,735.24 1155.97,735.24 " style="stroke : none; fill-opacity: 0.1; cursor:move"/></g></g><g class="SelectionControls" fill="#0000ff" stroke="#0000ff" style="display: none;"><polygon fill="none" points="978.09,607.73 1289.50,607.73 1289.50,888.90 978.09,888.90 " stroke="#0000ff" style=""/><g class="rotateControl" style="display: none;"><circle cx="1133.790684890519" cy="577.7292926344674" r="5" style="stroke : none; fill-opacity: 0.5; cursor:crosshair"/></g><g class="ResizeNControl" style="display: none;"><circle cx="0" cy="0" r="5" style="stroke : none; fill-opacity: 0.5"/></g><g class="ResizeNEControl" style="display: none;"><circle cx="0" cy="0" r="5" style="stroke : none; fill-opacity: 0.5"/></g><g class="ResizeEControl" style="display: none;"><circle cx="0" cy="0" r="5" style="stroke : none; fill-opacity: 0.5"/></g><g class="ResizeSEControl" style="display: none;"><circle cx="0" cy="0" r="5" style="stroke : none; fill-opacity: 0.5"/></g><g class="ResizeSControl" style="display: none;"><circle cx="0" cy="0" r="5" style="stroke : none; fill-opacity: 0.5"/></g><g class="ResizeSWControl" style="display: none;"><circle cx="0" cy="0" r="5" style="stroke : none; fill-opacity: 0.5"/></g><g class="ResizeWControl" style="display: none;"><circle cx="0" cy="0" r="5" style="stroke : none; fill-opacity: 0.5"/></g><g class="ResizeNWControl" style="display: none;"><circle cx="0" cy="0" r="5" style="stroke : none; fill-opacity: 0.5"/></g><g class="removeControl" style="display: none;"><polygon style="stroke : none; fill-opacity: 0.1"/></g><g class="copyPasteControl" style="display: none;"><polygon style="stroke : none; fill-opacity: 0.1"/></g><g class="translateControl" style="display: none;"><polygon style="stroke : none; fill-opacity: 0.1; cursor:move"/></g></g></g></g></g></svg>