<?xml version="1.0" encoding="utf-8"?>
<svg height="684.739990234375" id="temp" version="1.1" viewBox="0 0 810.8100280761719 684.739990234375" width="810.8100280761719" xmlns="http://www.w3.org/2000/svg" xmlns:xlink="http://www.w3.org/1999/xlink"><defs/><g class="Model v1-1" id="Model"><g class="Floor"><g class="Floorplan Floor-1" id="Floor-1"><g class="Space Dining" fill="#ffffff" id="a76ede9f-4d70-4ee6-bbbc-0259e8e90f00" stroke="#ffffff" style="fill-opacity: 1; stroke-opacity: 1; stroke-width: 1;"><polygon points="354.99,669.74 182.23,669.74 182.23,462.87 354.99,462.87 "/><g class="Dimension" transform="matrix(1,0,0,1,182.2309,462.8669)"><g class="Visual" style="display: none;" transform="matrix(1,0,0,1,0,0)"><g class="DimensionMark" fill="#000000" id="mark1" stroke="none" style="fill-opacity: 1; pointer-events: visible;" transform="matrix(1,0,0,1,86.3817,0)"><polygon points="-5,5,0,0,5,5"/></g><g class="DimensionMark" fill="#000000" id="mark2" stroke="none" style="fill-opacity: 1; pointer-events: visible;" transform="matrix(1,0,0,1,172.7633,103.437)"><polygon points="-5,-5,0,0,-5,5"/></g><g class="DimensionMark" fill="#000000" id="mark3" stroke="none" style="fill-opacity: 1; pointer-events: visible;" transform="matrix(1,0,0,1,86.3817,206.874)"><polygon points="-5,-5,0,0,5,-5"/></g><g class="DimensionMark" fill="#000000" id="mark4" stroke="none" style="fill-opacity: 1; pointer-events: visible;" transform="matrix(1,0,0,1,0,103.437)"><polygon points="5,5,0,0,5,-5"/></g></g><g class="SpaceDimensionsLabel" style="display: block;" transform="matrix(1,0,0,1,39.0196,113.2102)"><g class="TextLabel NameLabel" id="NameLabel" style="display: block;"/><g class="TextLabel DimensionMeasureLabel" id="DimensionMeasureLabel" style="display: none;" transform="matrix(1,0,0,1,-39.1407,39.8282)"/></g></g></g><g class="Space Kitchen" fill="#ffffff" id="4feb0a88-499b-404c-b7a6-c8ad895cd585" stroke="#ffffff" style="fill-opacity: 1; stroke-opacity: 1; stroke-width: 1;"><polygon points="512.27,669.74 354.99,669.74 354.99,462.87 512.27,462.87 "/><g class="Dimension" transform="matrix(1,0,0,1,354.9943,462.8669)"><g class="Visual" style="display: none;" transform="matrix(1,0,0,1,0,0)"><g class="DimensionMark" fill="#000000" id="mark1" stroke="none" style="fill-opacity: 1; pointer-events: visible;" transform="matrix(1,0,0,1,78.64,0)"><polygon points="-5,5,0,0,5,5"/></g><g class="DimensionMark" fill="#000000" id="mark2" stroke="none" style="fill-opacity: 1; pointer-events: visible;" transform="matrix(1,0,0,1,157.28,103.437)"><polygon points="-5,-5,0,0,-5,5"/></g><g class="DimensionMark" fill="#000000" id="mark3" stroke="none" style="fill-opacity: 1; pointer-events: visible;" transform="matrix(1,0,0,1,78.64,206.874)"><polygon points="-5,-5,0,0,5,-5"/></g><g class="DimensionMark" fill="#000000" id="mark4" stroke="none" style="fill-opacity: 1; pointer-events: visible;" transform="matrix(1,0,0,1,0,103.437)"><polygon points="5,5,0,0,5,-5"/></g></g><g class="SpaceDimensionsLabel" style="display: block;" transform="matrix(1,0,0,1,75.6329,112.4701)"><g class="TextLabel NameLabel" id="NameLabel" style="display: block;"/><g class="TextLabel DimensionMeasureLabel" id="DimensionMeasureLabel" style="display: none;" transform="matrix(1,0,0,1,-75.7734,39.625)"/></g></g></g><g class="Space LivingRoom" fill="#ffffff" id="809ab3fc-ee01-4877-8ab2-9a2706335b66" stroke="#ffffff" style="fill-opacity: 1; stroke-opacity: 1; stroke-width: 1;"><polygon points="598.80,516.71 524.57,516.71 524.57,445.20 182.23,445.20 183.03,151.68 598.80,151.68 "/><g class="Dimension" transform="matrix(1,0,0,1,182.5327,151.6782)"><g class="Visual" style="display: none;" transform="matrix(1,0,0,1,0,0)"><g class="DimensionMark" fill="#000000" id="mark1" stroke="none" style="fill-opacity: 1; pointer-events: visible;" transform="matrix(1,0,0,1,207.9816,0)"><polygon points="-5,5,0,0,5,5"/></g><g class="DimensionMark" fill="#000000" id="mark2" stroke="none" style="fill-opacity: 1; pointer-events: visible;" transform="matrix(1,0,0,1,416.265,182.5143)"><polygon points="-5,-5,0,0,-5,5"/></g><g class="DimensionMark" fill="#000000" id="mark3" stroke="none" style="fill-opacity: 1; pointer-events: visible;" transform="matrix(1,0,0,1,207.9816,293.5202)"><polygon points="-5,-5,0,0,5,-5"/></g><g class="DimensionMark" fill="#000000" id="mark4" stroke="none" style="fill-opacity: 1; pointer-events: visible;" transform="matrix(1,0,0,1,0,182.5143)"><polygon points="5,5,0,0,5,-5"/></g></g><g class="SpaceDimensionsLabel" style="display: block;" transform="matrix(1,0,0,1,190.5148,162.4432)"><g class="TextLabel NameLabel" id="NameLabel" style="display: block;"/><g class="TextLabel DimensionMeasureLabel" id="DimensionMeasureLabel" style="display: none;" transform="matrix(1,0,0,1,-114.6094,79.75)"/></g></g></g><g class="Space Alcove" fill="#ffffff" id="ac26fd08-f34c-403b-a4f9-9c872ff20085" stroke="#ffffff" style="fill-opacity: 1; stroke-opacity: 1; stroke-width: 1;"><polygon points="795.81,339.55 598.80,339.55 598.80,151.68 795.81,151.68 "/><g class="Dimension" transform="matrix(1,0,0,1,598.7977,151.6782)"><g class="Visual" style="display: none;" transform="matrix(1,0,0,1,0,0)"><g class="DimensionMark" fill="#000000" id="mark1" stroke="none" style="fill-opacity: 1; pointer-events: visible;" transform="matrix(1,0,0,1,98.5067,0)"><polygon points="-5,5,0,0,5,5"/></g><g class="DimensionMark" fill="#000000" id="mark2" stroke="none" style="fill-opacity: 1; pointer-events: visible;" transform="matrix(1,0,0,1,197.0133,93.9368)"><polygon points="-5,-5,0,0,-5,5"/></g><g class="DimensionMark" fill="#000000" id="mark3" stroke="none" style="fill-opacity: 1; pointer-events: visible;" transform="matrix(1,0,0,1,98.5067,187.8735)"><polygon points="-5,-5,0,0,5,-5"/></g><g class="DimensionMark" fill="#000000" id="mark4" stroke="none" style="fill-opacity: 1; pointer-events: visible;" transform="matrix(1,0,0,1,0,93.9368)"><polygon points="5,5,0,0,5,-5"/></g></g><g class="SpaceDimensionsLabel" style="display: block;" transform="matrix(1,0,0,1,36.5883,101.2092)"><g class="TextLabel NameLabel" id="NameLabel" style="display: block;"/><g class="TextLabel DimensionMeasureLabel" id="DimensionMeasureLabel" style="display: none;" transform="matrix(1,0,0,1,-77.0469,79.6407)"/></g></g></g><g class="Space Bath" fill="#ffffff" id="3912b733-280e-49f3-a5f7-abadcdbe2b60" stroke="#ffffff" style="fill-opacity: 1; stroke-opacity: 1; stroke-width: 1;"><polygon points="795.81,509.71 655.00,509.71 655.00,415.16 648.00,415.16 648.00,516.71 598.80,516.71 598.80,346.55 795.81,346.55 "/><g class="Dimension" transform="matrix(1,0,0,1,598.7977,346.5517)"><g class="Visual" style="display: none;" transform="matrix(1,0,0,1,0,0)"><g class="DimensionMark" fill="#000000" id="mark1" stroke="none" style="fill-opacity: 1; pointer-events: visible;" transform="matrix(1,0,0,1,98.5067,0)"><polygon points="-5,5,0,0,5,5"/></g><g class="DimensionMark" fill="#000000" id="mark2" stroke="none" style="fill-opacity: 1; pointer-events: visible;" transform="matrix(1,0,0,1,197.0133,85.0768)"><polygon points="-5,-5,0,0,-5,5"/></g><g class="DimensionMark" fill="#000000" id="mark3" stroke="none" style="fill-opacity: 1; pointer-events: visible;" transform="matrix(1,0,0,1,98.5067,163.1535)"><polygon points="-5,-5,0,0,5,-5"/></g><g class="DimensionMark" fill="#000000" id="mark4" stroke="none" style="fill-opacity: 1; pointer-events: visible;" transform="matrix(1,0,0,1,0,85.0768)"><polygon points="5,5,0,0,5,-5"/></g></g><g class="SpaceDimensionsLabel" style="display: block;" transform="matrix(1,0,0,1,101.4348,92.3436)"><g class="TextLabel NameLabel" id="NameLabel" style="display: block;"/><g class="TextLabel DimensionMeasureLabel" id="DimensionMeasureLabel" style="display: none;" transform="matrix(1,0,0,1,-112.1562,79.3281)"/></g></g></g><g class="Space Entry Lobby" fill="#ffffff" id="d91b46b0-5655-484a-bcb4-167101054191" stroke="#ffffff" style="fill-opacity: 1; stroke-opacity: 1; stroke-width: 1;"><polygon points="772.53,516.71 772.53,559.53 795.81,559.53 795.81,669.74 524.57,669.74 524.57,516.71 "/><g class="Dimension" transform="matrix(1,0,0,1,524.5729,516.7053)"><g class="Visual" style="display: none;" transform="matrix(1,0,0,1,0,0)"><g class="DimensionMark" fill="#000000" id="mark1" stroke="none" style="fill-opacity: 1; pointer-events: visible;" transform="matrix(1,0,0,1,135.619,0)"><polygon points="-5,5,0,0,5,5"/></g><g class="DimensionMark" fill="#000000" id="mark2" stroke="none" style="fill-opacity: 1; pointer-events: visible;" transform="matrix(1,0,0,1,271.2381,76.5179)"><polygon points="-5,-5,0,0,-5,5"/></g><g class="DimensionMark" fill="#000000" id="mark3" stroke="none" style="fill-opacity: 1; pointer-events: visible;" transform="matrix(1,0,0,1,135.619,153.0357)"><polygon points="-5,-5,0,0,5,-5"/></g><g class="DimensionMark" fill="#000000" id="mark4" stroke="none" style="fill-opacity: 1; pointer-events: visible;" transform="matrix(1,0,0,1,0,76.5179)"><polygon points="5,5,0,0,5,-5"/></g></g><g class="SpaceDimensionsLabel" style="display: block;" transform="matrix(1,0,0,1,122.148,84.8142)"><g class="TextLabel NameLabel" id="NameLabel" style="display: block;"/><g class="TextLabel DimensionMeasureLabel" id="DimensionMeasureLabel" style="display: none;" transform="matrix(1,0,0,1,-118.4766,79.7031)"/></g></g></g><g class="Wall External" fill="#000000" id="Wall" stroke="#000000" style="fill-opacity: 1; stroke-opacity: 1; stroke-width: 1;"><polygon points="142.75,136.68 810.81,136.68 795.81,151.68 183.03,151.68 "/></g><g class="Wall External" fill="#000000" id="Wall" stroke="#000000" style="fill-opacity: 1; stroke-opacity: 1; stroke-width: 1;"><polygon points="810.81,136.68 810.81,509.71 795.81,509.71 795.81,151.68 "/></g><g class="Wall External" fill="#000000" id="Wall" stroke="#000000" style="fill-opacity: 1; stroke-opacity: 1; stroke-width: 1;"><polygon points="810.81,509.71 810.81,559.53 772.53,559.53 772.53,509.71 "/></g><g class="Wall External" fill="#000000" id="Wall" stroke="#000000" style="fill-opacity: 1; stroke-opacity: 1; stroke-width: 1;"><polygon points="810.81,559.53 810.81,684.74 795.81,669.74 795.81,559.53 "/></g><g class="Wall External" fill="#000000" id="Wall" stroke="#000000" style="fill-opacity: 1; stroke-opacity: 1; stroke-width: 1;"><polygon points="810.81,684.74 141.90,684.74 182.23,669.74 795.81,669.74 "/><g class="Door None Beside" fill="#ffffff" id="Door" stroke="#000000" style="fill-opacity: 1; stroke-width: 1; stroke-opacity: 1;"><polygon points="740.14,684.74 642.65,684.74 642.65,669.74 740.14,669.74 "/></g></g><g class="Wall External" fill="#000000" id="Wall" stroke="#000000" style="fill-opacity: 1; stroke-opacity: 1; stroke-width: 1;"><polygon points="141.90,684.74 142.75,136.68 183.03,151.68 182.23,669.74 "/><g class="Window Regular" fill="#f0f0ff" id="Window" stroke="#000000" style="fill-opacity: 1; stroke-width: 1; stroke-opacity: 1;"><polygon points="142.28,438.34 142.72,156.98 183.02,157.04 182.59,438.40 "/><g class="Glass" id="Glass"><polygon points="142.28,438.34 142.72,156.98 183.02,157.04 182.59,438.40 "/></g><g class="Panel" id="Panel"><line x1="162.446691438017" x2="162.85696513682544" y1="430.86684071966783" y2="164.51390376598192"/><line x1="142.294569743277" x2="182.598813132757" y1="430.83579962959726" y2="430.8978818097384"/><line x1="142.70484344208546" x2="183.00908683156544" y1="164.48286267591135" y2="164.54494485605247"/></g></g><g class="Window Regular" fill="#f0f0ff" id="Window" stroke="#000000" style="fill-opacity: 1; stroke-width: 1; stroke-opacity: 1;"><polygon points="141.93,664.54 142.24,463.99 182.55,464.05 182.24,664.60 "/><g class="Glass" id="Glass"><polygon points="141.93,664.54 142.24,463.99 182.55,464.05 182.24,664.60 "/></g><g class="Panel" id="Panel"><line x1="162.0982639096061" x2="162.3840701688766" y1="657.0687536799528" y2="471.5210649601088"/><line x1="141.9461422148661" x2="182.25038560434606" y1="657.0377125898822" y2="657.0997947700233"/><line x1="142.23194847413663" x2="182.5361918636166" y1="471.4900238700381" y2="471.55210605017925"/></g></g></g><g class="Wall" fill="#000000" id="Wall" stroke="#000000" style="fill-opacity: 1; stroke-opacity: 1; stroke-width: 1;"><polygon points="142.27,445.20 524.57,445.20 512.27,462.87 142.27,462.87 "/><g class="Door None Beside" fill="#ffffff" id="Door" stroke="#000000" style="fill-opacity: 1; stroke-width: 1; stroke-opacity: 1;"><polygon points="294.09,445.20 374.27,445.20 374.27,462.87 294.09,462.87 "/></g></g><g class="Wall" fill="#000000" id="Wall" stroke="#000000" style="fill-opacity: 1; stroke-opacity: 1; stroke-width: 1;"><polygon points="524.57,462.87 524.57,684.74 512.27,684.74 512.27,445.17 "/><g class="Door None Beside" fill="#ffffff" id="Door" stroke="#000000" style="fill-opacity: 1; stroke-width: 1; stroke-opacity: 1;"><polygon points="524.57,531.91 524.57,601.03 512.27,601.03 512.27,531.91 "/></g></g><g class="Wall" fill="#000000" id="Wall" stroke="#000000" style="fill-opacity: 1; stroke-opacity: 1; stroke-width: 1;"><polygon points="810.81,509.71 655.00,509.71 648.00,516.71 810.81,516.71 "/><g class="Door None Beside" fill="#ffffff" id="Door" stroke="#000000" style="fill-opacity: 1; stroke-width: 1; stroke-opacity: 1;"><polygon points="735.57,509.71 663.53,509.71 663.53,516.71 735.57,516.71 "/></g></g><g class="Wall" fill="#000000" id="Wall" stroke="#000000" style="fill-opacity: 1; stroke-opacity: 1; stroke-width: 1;"><polygon points="810.81,346.55 598.80,346.55 598.80,339.55 810.81,339.55 "/></g><g class="FixedFurniture BaseCabinet" fill="#ffffff" stroke="#000000" style="fill-opacity: 1; stroke-opacity: 1;" transform="matrix(-1,0,0,-1,512.2743,669.6316)">
<g class="BoundaryPolygon">
<polygon points="0.00,0.00 156.90,0.00 156.90,60.00 0.00,60.00 "/>
</g>
<g class="Direction" fill-opacity="0.9" style="display: none;">
<polygon fill="#444444" points="83.71,55.20 83.71,44.58 80.70,44.58 80.70,55.20 76.89,55.20 82.20,60.00 87.50,55.20 83.71,55.20 "/>
</g>
<g class="Name" fill-opacity="0.9" style="display: none;">

</g>
<desc>Width:60 Height:90 Depth:60 Elevation:0</desc>
</g><g class="FixedFurniture ElectricalAppliance IntegratedStove" fill="#ffffff" stroke="#000000" style="fill-opacity: 1; stroke-opacity: 1;" transform="matrix(-1,0,0,-1,513.7432,670.7309)">
<g class="BoundaryPolygon" fill="none" stroke="none">
<polygon points="0.00,0.00 52.33,0.00 52.33,63.29 0.00,63.29 "/>
</g>
<g class="InnerPolygon">
<polygon points="2.00,2.00 50.59,2.00 50.59,61.18 2.00,61.18 "/>
</g>
<g class="OuterCircle">
<circle cx="13.955185887863495" cy="16.87822560149529" r="8"/>
<circle cx="38.3767611916246" cy="16.87822560149529" r="8"/>
<circle cx="13.955185887863495" cy="46.41512040411205" r="8"/>
<circle cx="38.3767611916246" cy="46.41512040411205" r="8"/>
</g>
<g class="Direction" fill-opacity="0.9" style="display: none;">
<polygon fill="#444444" points="27.92,58.23 27.92,47.61 24.91,47.61 24.91,58.23 21.11,58.23 26.41,63.03 31.71,58.23 27.92,58.23 "/>
</g>
<g class="Name" fill-opacity="0.9" style="display: none;">

</g>
<desc>Width:60 Height:90 Depth:30 Elevation:0</desc>
</g><g class="FixedFurniture Sink" fill="#ffffff" stroke="#000000" style="fill-opacity: 1; stroke-opacity: 1;" transform="matrix(-1,0,0,-1,463.3679,669.5222)">
<g class="BoundaryPolygon" fill="none" stroke="none">
<polygon points="0.00,0.00 47.45,0.00 47.45,60.00 0.00,60.00 "/>
</g>
<g class="InnerPolygon">
<polygon points="3.95,9.70 43.50,9.70 43.50,54.70 3.95,54.70 "/>
</g>
<g class="OuterDrain" stroke-width="0.8">
<circle cx="23.727221554994216" cy="32.2" r="3.5"/>
</g>
<g class="InnerDrain" stroke-width="0.8">
<circle cx="23.727221554994216" cy="32.2" r="2"/>
</g>
<g class="Faucet">
<polygon points="21.35,5.00 27.35,5.00 27.35,19.00 21.35,19.00 "/>
</g>
<g class="Direction" fill-opacity="0.9" style="display: none;">
<polygon fill="#444444" points="25.32,55.20 25.32,44.58 22.31,44.58 22.31,55.20 18.50,55.20 23.81,60.00 29.11,55.20 25.32,55.20 "/>
</g>
<g class="Name" fill-opacity="0.9" style="display: none;">

</g>
<desc>Width:60 Height:90 Depth:60 Elevation:0</desc>
</g><g class="FixedFurniture ElectricalAppliance Refrigerator" fill="#ffffff" stroke="#000000" style="fill-opacity: 1; stroke-opacity: 1;" transform="matrix(0.8608,0,0,0.9214,460.6263,463.0541)">
<g class="BoundaryPolygon">
<polygon points="0,0 60,0 60,60 0,60"/>
</g>
<g class="electricitySign" fill="none">
<path d="M0,0,30,37.1v-18L60,56.3"/>
</g>
<g class="Doors">
<rect height="4" width="60" y="56"/>
</g>
<g class="Direction" fill-opacity="0.9" style="display: none;">
<polygon fill="#444444" points="32.009 55.197 32.009 44.581 29 44.581 29 55.197 25.197 55.197 30.5 60 35.803 55.197 32.009 55.197"/>
</g>
<g class="Name" fill-opacity="0.9" style="display: none;">

</g>
<desc>Width:60 Height:170 Depth:60 Elevation:0</desc>
</g><g class="FixedFurniture BaseCabinet" fill="#ffffff" stroke="#000000" style="fill-opacity: 1; stroke-opacity: 1;" transform="matrix(1,0,0,1,374.4862,462.867)">
<g class="BoundaryPolygon">
<polygon points="0.00,0.00 86.14,0.00 86.14,55.64 0.00,55.64 "/>
</g>
<g class="Direction" fill-opacity="0.9" style="display: none;">
<polygon fill="#444444" points="45.95,51.19 45.95,40.57 42.94,40.57 42.94,51.19 39.14,51.19 44.44,55.99 49.75,51.19 45.95,51.19 "/>
</g>
<g class="Name" fill-opacity="0.9" style="display: none;">

</g>
<desc>Width:60 Height:90 Depth:60 Elevation:0</desc>
</g><g class="FixedFurniture Toilet" fill="#ffffff" stroke="#000000" style="fill-opacity: 1; stroke-opacity: 1;" transform="matrix(0,1,-1,0,795.811,444.2533)">
<g class="BoundaryPolygon" fill="none" stroke="none">
<polygon points="0,0 41,0 41,71 0,71"/>
</g>
<g class="InnerPolygon">
<rect height="17.98" width="39.989" x="0.502" y="0.5"/>
<path d="M40.491,44.237S41.619,70.5,20.907,70.5C-.523,70.5.6,44.237.6,44.237L.5,18.48H40.491Z"/>
<rect height="3.03" width="6.357" x="17.318" y="7.975"/>
</g>
<desc>Width:41 Height:85 Depth:71 Elevation:0</desc>
</g><g class="FixedFurniture Closet" fill="#ffffff" stroke="#000000" style="fill-opacity: 1; stroke-opacity: 1;" transform="matrix(0,1,-1,0,772.4359,516.7052)">
<g class="BoundaryPolygon">
<polygon points="0.00,0.00 42.64,0.00 42.64,28.54 0.00,28.54 "/>
</g>
<g class="Direction" fill-opacity="0.9" style="display: none;">
<polygon fill="#444444" points="22.39,26.02 22.39,15.40 19.38,15.40 19.38,26.02 15.58,26.02 20.88,31.32 26.19,26.02 22.39,26.02 "/>
</g>
<g class="Name" fill-opacity="0.9" style="display: none;">

</g>
<desc>Width:60 Height:200 Depth:60 Elevation:0</desc>
</g><g class="FixedFurniture Closet" fill="#ffffff" stroke="#000000" style="fill-opacity: 1; stroke-opacity: 1;" transform="matrix(0,1,-1,0,795.811,619.611)">
<g class="BoundaryPolygon">
<polygon points="0.00,0.00 50.13,0.00 50.13,52.01 0.00,52.01 "/>
</g>
<g class="Direction" fill-opacity="0.9" style="display: none;">
<polygon fill="#444444" points="26.32,47.42 26.32,36.80 23.32,36.80 23.32,47.42 19.51,47.42 24.82,52.72 30.12,47.42 26.32,47.42 "/>
</g>
<g class="Name" fill-opacity="0.9" style="display: none;">

</g>
<desc>Width:60 Height:200 Depth:60 Elevation:0</desc>
</g><g class="FixedFurniture CoatRack" fill="#ffffff" stroke="#000000" style="fill-opacity: 1; stroke-opacity: 1;" transform="matrix(-1,0,0,-1,640.3929,669.5691)">
<g class="BoundaryPolygon">
<polygon points="0.00,0.00 115.82,0.00 115.82,32.26 0.00,32.26 "/>
</g>
<g class="Bar" stroke-width="0.65">
<line x1="0" x2="115.81828202998749" y1="4.515775818513641" y2="4.515775818513641"/>
<line x1="0" x2="115.81828202998749" y1="8.493959277680421" y2="8.493959277680421"/>
<line x1="0" x2="115.81828202998749" y1="12.364624264977827" y2="12.364624264977827"/>
<line x1="0" x2="115.81828202998749" y1="16.127770780405864" y2="16.127770780405864"/>
<line x1="0" x2="115.81828202998749" y1="19.99843576770327" y2="19.99843576770327"/>
<line x1="0" x2="115.81828202998749" y1="23.869100755000673" y2="23.869100755000673"/>
<line x1="0" x2="115.81828202998749" y1="27.847284214167455" y2="27.847284214167455"/>
</g>
<g class="Direction" fill-opacity="0.9" style="display: none;">
<polygon fill="#444444" points="59.85,26.55 59.85,15.94 56.84,15.94 56.84,26.55 53.04,26.55 58.34,31.86 63.65,26.55 59.85,26.55 "/>
</g>
<g class="Name" fill-opacity="0.9" style="display: none;">

</g>
<desc>Width:90 Height:30 Depth:30 Elevation:160</desc>
</g><g class="FixedFurniture Closet" fill="#ffffff" stroke="#000000" style="fill-opacity: 1; stroke-opacity: 1;" transform="matrix(0,1,-1,0,795.7328,559.611)">
<g class="BoundaryPolygon">
<polygon points="0.00,0.00 60.00,0.00 60.00,51.96 0.00,51.96 "/>
</g>
<g class="Direction" fill-opacity="0.9" style="display: none;">
<polygon fill="#444444" points="31.51,47.36 31.51,36.75 28.50,36.75 28.50,47.36 24.70,47.36 30.00,52.67 35.30,47.36 31.51,47.36 "/>
</g>
<g class="Name" fill-opacity="0.9" style="display: none;">

</g>
<desc>Width:60 Height:200 Depth:60 Elevation:0</desc>
</g><g class="FixedFurniture Bathtub" fill="#ffffff" stroke="#000000" style="fill-opacity: 1; stroke-opacity: 1;" transform="matrix(0.8066,0,0,0.8268,654.9995,346.7972)">
<g class="BoundaryPolygon">
<polygon points="0,0 175,0 175,82 0,82"/>
</g>
<g class="Tub">
<path d="M166.6,41.2c0,19.7,0,35.7-79.3,35.7S8,60.9,8,41.2,8,5.5,87.3,5.5,166.6,21.5,166.6,41.2Z"/>
</g>
<g class="Name" fill-opacity="0.9" style="display: none;">

</g>
<desc>Width:175 Height:38 Depth:82 Elevation:0</desc>
</g><g class="FixedFurniture Shower" fill="#ffffff" stroke="#000000" style="fill-opacity: 1; stroke-opacity: 1;" transform="matrix(0,-1,1,0,654.9995,393.8944)">
<g class="BoundaryPolygon" fill="none" stroke="none">
<polygon points="0,0 32,0 32,19 0,19"/>
</g>
<g class="InnerPolygon">
<rect height="6.1" width="11.2" x="3.7" y="0.5"/>
<rect height="6.1" width="11.2" x="17.6" y="0.5"/>
<rect height="6.1" width="3.4" x="28.7" y="0.5"/>
<rect height="6.1" width="3.2" x="0.5" y="0.5"/>
<path d="M14.9,8.5c0,1.5-0.4,3.3-1.6,5    c-0.4,0.6-1,1.1-1.1,1.7c-0.2,1.1,0.3,2.8,2.5,3.2c0.5,0.1,1.3,0.1,1.6,0.1h-0.1c0.3,0,1.1,0,1.6-0.1c2.2-0.4,2.7-2.1,2.5-3.2    c-0.1-0.6-0.7-1.1-1.1-1.7c-1.2-1.7-1.6-3.5-1.6-5"/>
<path d="M12.2,15.3c0.1,0.2,1.6,1.9,4.2,1.9 c2.4-0.1,3.7-1.7,3.9-1.9"/>
<path d="M14.9,0.5h2.7v8c-0.9,0-1.8,0-2.7,0l0,0 C14.9,5.9,14.9,3.2,14.9,0.5z"/>
</g>
<g class="Indicator">
<path d="M3.7,3.6C5,3.1,5.2,3,5.2,3 c0,1.1,0,0,0,1.1C5.2,4.1,5.1,4.1,3.7,3.6"/>
<path d="M28.7,3.6 C27.4,3.1,27.2,3,27.2,3c0,1.1,0,0,0,1.1C27.2,4.1,27.3,4.1,28.7,3.6"/>
</g>
<desc>Width:32 Height:97 Depth:19 Elevation:135</desc>
</g><g class="FixedFurnitureSet" fill="#ffffff" id="FixedFurnitureSet" stroke="#000000" style="fill-opacity: 0.4; stroke-opacity: 0.4;" transform="matrix(0,1,-1,0,647.9682,346.5518)"><g class="FixedFurniture Closet" fill="#ffffff" stroke="#000000" style="fill-opacity: 1; stroke-opacity: 1;" transform="matrix(1,0,0,1,0,0)">
<g class="BoundaryPolygon">
<polygon points="0.00,0.00 49.32,0.00 49.32,40.26 0.00,40.26 "/>
</g>
<g class="Direction" fill-opacity="0.9" style="display: none;">
<polygon fill="#444444" points="25.90,36.70 25.90,26.08 22.89,26.08 22.89,36.70 19.09,36.70 24.39,42.00 29.69,36.70 25.90,36.70 "/>
</g>
<g class="Name" fill-opacity="0.9" style="display: none;">

</g>
<desc>Width:60 Height:200 Depth:60 Elevation:0</desc>
</g><g class="FixedFurniture Closet" fill="#ffffff" stroke="#000000" style="fill-opacity: 1; stroke-opacity: 1;" transform="matrix(1,0,0,1,49.32,0)">
<g class="BoundaryPolygon">
<polygon points="0.00,0.00 49.32,0.00 49.32,40.26 0.00,40.26 "/>
</g>
<g class="Direction" fill-opacity="0.9" style="display: none;">
<polygon fill="#444444" points="25.90,36.70 25.90,26.08 22.89,26.08 22.89,36.70 19.09,36.70 24.39,42.00 29.69,36.70 25.90,36.70 "/>
</g>
<g class="Name" fill-opacity="0.9" style="display: none;">

</g>
<desc>Width:60 Height:200 Depth:60 Elevation:0</desc>
</g></g><g class="FixedFurniture Closet" fill="#ffffff" stroke="#000000" style="fill-opacity: 1; stroke-opacity: 1;" transform="matrix(0,1,-1,0,647.9994,462.8669)">
<g class="BoundaryPolygon">
<polygon points="0.00,0.00 53.24,0.00 53.24,40.93 0.00,40.93 "/>
</g>
<g class="Direction" fill-opacity="0.9" style="display: none;">
<polygon fill="#444444" points="27.96,37.31 27.96,26.70 24.95,26.70 24.95,37.31 21.15,37.31 26.45,42.61 31.75,37.31 27.96,37.31 "/>
</g>
<g class="Name" fill-opacity="0.9" style="display: none;">

</g>
<desc>Width:60 Height:200 Depth:60 Elevation:0</desc>
</g><g class="Wall" fill="#000000" id="Wall" stroke="#000000" style="fill-opacity: 1; stroke-opacity: 1; stroke-width: 1;"><polygon points="648.00,516.71 648.00,339.55 655.00,339.55 655.00,509.71 "/></g><g class="Wall" fill="#000000" id="Wall" stroke="#000000" style="fill-opacity: 1; stroke-opacity: 1; stroke-width: 1;"><polygon points="524.57,462.87 655.00,462.87 655.00,445.17 512.27,445.17 "/><g class="Door None Beside" fill="#ffffff" id="Door" stroke="#000000" style="fill-opacity: 1; stroke-width: 1; stroke-opacity: 1;"><polygon points="527.19,462.87 606.30,462.87 606.30,445.17 527.19,445.17 "/></g></g><g class="FixedFurnitureSet" fill="#ffffff" id="FixedFurnitureSet" stroke="#000000" style="fill-opacity: 0.4; stroke-opacity: 0.4;" transform="matrix(0,-1,1,0,655.312,466.754)"><g class="FixedFurniture BaseCabinet" fill="#ffffff" stroke="#000000" style="fill-opacity: 1; stroke-opacity: 1;" transform="matrix(1,0,0,1,0,0)">
<g class="BoundaryPolygon">
<polygon points="0.00,0.00 52.16,0.00 52.16,34.37 0.00,34.37 "/>
</g>
<g class="Direction" fill-opacity="0.9" style="display: none;">
<polygon fill="#444444" points="27.83,31.62 27.83,21.01 24.82,21.01 24.82,31.62 21.02,31.62 26.32,36.43 31.62,31.62 27.83,31.62 "/>
</g>
<g class="Name" fill-opacity="0.9" style="display: none;">

</g>
<desc>Width:60 Height:5 Depth:60 Elevation:105</desc>
</g><g class="FixedFurniture Sink" fill="#ffffff" stroke="#000000" style="fill-opacity: 1; stroke-opacity: 1;" transform="matrix(1,0,0,1,0,0)">
<g class="BoundaryPolygon" fill="none" stroke="none">
<polygon points="0.00,0.00 52.16,0.00 52.16,34.37 0.00,34.37 "/>
</g>
<g class="InnerPolygon">
<polygon points="4.35,9.70 47.81,9.70 47.81,31.34 4.35,31.34 "/>
</g>
<g class="OuterDrain" stroke-width="0.8">
<circle cx="26.0805171550563" cy="18.44730258086876" r="3.5"/>
</g>
<g class="InnerDrain" stroke-width="0.8">
<circle cx="26.0805171550563" cy="18.44730258086876" r="2"/>
</g>
<g class="Faucet">
<polygon points="23.47,2.86 29.47,2.86 29.47,16.86 23.47,16.86 "/>
</g>
<g class="Direction" fill-opacity="0.9" style="display: none;">
<polygon fill="#444444" points="27.83,31.62 27.83,21.01 24.82,21.01 24.82,31.62 21.02,31.62 26.32,36.43 31.62,31.62 27.83,31.62 "/>
</g>
<g class="Name" fill-opacity="0.9" style="display: none;">

</g>
<desc>Width:60 Height:90 Depth:60 Elevation:0</desc>
</g></g><g class="SelectionControls" fill="#0000ff" stroke="#0000ff" style="display: none;"><g class="rotateControl" style="display: none;"><circle cx="728.0605827359643" cy="375.8172060902033" r="5" style="stroke : none; fill-opacity: 0.5; cursor:crosshair"/></g><g class="ResizeNControl" style="display: none;"><circle cx="0" cy="0" r="5" style="stroke : none; fill-opacity: 0.5"/></g><g class="ResizeNEControl" style="display: none;"><circle cx="0" cy="0" r="5" style="stroke : none; fill-opacity: 0.5"/></g><g class="ResizeEControl" style="display: none;"><circle cx="0" cy="0" r="5" style="stroke : none; fill-opacity: 0.5"/></g><g class="ResizeSEControl" style="display: none;"><circle cx="0" cy="0" r="5" style="stroke : none; fill-opacity: 0.5"/></g><g class="ResizeSControl" style="display: none;"><circle cx="0" cy="0" r="5" style="stroke : none; fill-opacity: 0.5"/></g><g class="ResizeSWControl" style="display: none;"><circle cx="0" cy="0" r="5" style="stroke : none; fill-opacity: 0.5"/></g><g class="ResizeWControl" style="display: none;"><circle cx="0" cy="0" r="5" style="stroke : none; fill-opacity: 0.5"/></g><g class="ResizeNWControl" style="display: none;"><circle cx="0" cy="0" r="5" style="stroke : none; fill-opacity: 0.5"/></g><g class="removeControl" style="display: none;"><polygon points="700.23,405.82 755.89,405.82 755.89,445.52 700.23,445.52 " style="stroke : none; fill-opacity: 0.1"/></g><g class="copyPasteControl" style="display: none;"><polygon style="stroke : none; fill-opacity: 0.1"/></g><g class="translateControl" style="display: none;"><polygon points="700.23,405.82 755.89,405.82 755.89,445.52 700.23,445.52 " style="stroke : none; fill-opacity: 0.1; cursor:move"/></g></g><g class="SelectionControls" fill="#0000ff" stroke="#0000ff" style="display: none;"><polygon fill="none" points="598.80,346.55 795.81,346.55 795.81,516.71 598.80,516.71 " stroke="#0000ff" style=""/><g class="rotateControl" style="display: none;"><circle cx="697.3043105679956" cy="316.5517310902033" r="5" style="stroke : none; fill-opacity: 0.5; cursor:crosshair"/></g><g class="ResizeNControl" style="display: none;"><circle cx="0" cy="0" r="5" style="stroke : none; fill-opacity: 0.5"/></g><g class="ResizeNEControl" style="display: none;"><circle cx="0" cy="0" r="5" style="stroke : none; fill-opacity: 0.5"/></g><g class="ResizeEControl" style="display: none;"><circle cx="0" cy="0" r="5" style="stroke : none; fill-opacity: 0.5"/></g><g class="ResizeSEControl" style="display: none;"><circle cx="0" cy="0" r="5" style="stroke : none; fill-opacity: 0.5"/></g><g class="ResizeSControl" style="display: none;"><circle cx="0" cy="0" r="5" style="stroke : none; fill-opacity: 0.5"/></g><g class="ResizeSWControl" style="display: none;"><circle cx="0" cy="0" r="5" style="stroke : none; fill-opacity: 0.5"/></g><g class="ResizeWControl" style="display: none;"><circle cx="0" cy="0" r="5" style="stroke : none; fill-opacity: 0.5"/></g><g class="ResizeNWControl" style="display: none;"><circle cx="0" cy="0" r="5" style="stroke : none; fill-opacity: 0.5"/></g><g class="removeControl" style="display: none;"><polygon style="stroke : none; fill-opacity: 0.1"/></g><g class="copyPasteControl" style="display: none;"><polygon style="stroke : none; fill-opacity: 0.1"/></g><g class="translateControl" style="display: none;"><polygon style="stroke : none; fill-opacity: 0.1; cursor:move"/></g></g><g class="Wall" fill="#000000" id="Wall" stroke="#000000" style="fill-opacity: 1; stroke-opacity: 1; stroke-width: 1;"><polygon points="605.94,346.55 605.94,284.74 598.94,284.74 598.94,346.55 "/><g class="Door Zfold Beside" fill="#ffffff" id="Door" stroke="#000000" style="fill-opacity: 1; stroke-width: 1; stroke-opacity: 1;"><polygon points="605.94,336.71 605.94,285.51 598.94,285.51 598.94,336.71 "/><g class="Panel Right Center" id="Panel"><g class="PanelArea" fill="none" id="PanelArea" stroke="none" style=""><polygon points="605.94,336.71 605.94,311.11 598.94,311.11 598.94,336.71 "/></g><path d="M598.94,336.71 L605.94,335.02 L598.94,333.33 L605.94,331.64 L598.94,329.95 L605.94,328.26 L598.94,326.57 L605.94,324.88 L598.94,323.19 L605.94,321.50 L598.94,319.81 "/></g><g class="Panel Left Center" id="Panel"><g class="PanelArea" fill="none" id="PanelArea" stroke="none" style=""><polygon points="605.94,311.11 605.94,285.51 598.94,285.51 598.94,311.11 "/></g><path d="M598.94,285.51 L605.94,287.20 L598.94,288.89 L605.94,290.58 L598.94,292.27 L605.94,293.96 L598.94,295.65 L605.94,297.34 L598.94,299.03 L605.94,300.72 L598.94,302.40 "/></g></g></g></g></g></g></svg>