<?xml version="1.0" encoding="utf-8"?>
<svg height="1525.2800827026367" id="temp" version="1.1" viewBox="0 0 1773.5223083496094 1525.2800827026367" width="1773.5223083496094" xmlns="http://www.w3.org/2000/svg" xmlns:xlink="http://www.w3.org/1999/xlink"><defs/><g class="Model v1-1" id="Model"><g class="Floor"><g class="Floorplan Floor-1" id="Floor-1"><g class="Space Outdoor" fill="#ffffff" id="72d5d753-3c95-4e85-a61c-f6de68a85f20" stroke="#000000" style="fill-opacity: 1; stroke-opacity: 1; stroke-width: 1;"><polygon points="1043.57,135.30 800.92,135.33 801.02,465.18 1043.57,465.18 1043.57,135.30 1043.57,135.30 "/><g class="Dimension" transform="matrix(1,0,0,1,800.97,135.3149)"><g class="Visual" style="display: none;" transform="matrix(1,0,0,1,0,0)"><g class="DimensionMark" fill="#000000" id="mark1" stroke="none" style="fill-opacity: 1; pointer-events: visible;" transform="matrix(1,0,0,1,121.2753,0)"><polygon points="-5,5,0,0,5,5"/></g><g class="DimensionMark" fill="#000000" id="mark2" stroke="none" style="fill-opacity: 1; pointer-events: visible;" transform="matrix(1,0,0,1,242.5995,164.9249)"><polygon points="-5,-5,0,0,-5,5"/></g><g class="DimensionMark" fill="#000000" id="mark3" stroke="none" style="fill-opacity: 1; pointer-events: visible;" transform="matrix(1,0,0,1,121.2753,329.8604)"><polygon points="-5,-5,0,0,5,-5"/></g><g class="DimensionMark" fill="#000000" id="mark4" stroke="none" style="fill-opacity: 1; pointer-events: visible;" transform="matrix(1,0,0,1,0,164.9249)"><polygon points="5,5,0,0,5,-5"/></g></g><g class="SpaceDimensionsLabel" transform="matrix(1,0,0,1,121.301,164.9192)"><g class="TextLabel NameLabel" id="NameLabel" style="display: block;"/><g class="TextLabel DimensionMeasureLabel" id="DimensionMeasureLabel" style="display: none;" transform="matrix(1,0,0,1,-56.7265,79.4687)"/></g></g></g><g class="Space Undefined" fill="#ffffff" id="f4f3e485-4e59-4ff6-95f2-3993bbca97b3" stroke="#ffffff" style="fill-opacity: 1; stroke-opacity: 1; stroke-width: 1;"><polygon points="1367.02,681.41 1259.00,681.41 1259.00,1503.28 999.06,1503.28 999.06,1323.91 775.53,995.02 183.58,995.02 183.58,487.18 1065.57,487.18 1065.57,135.31 1367.02,135.31 "/><g class="Dimension" transform="matrix(1,0,0,1,183.5754,135.3086)"><g class="Visual" style="display: none;" transform="matrix(1,0,0,1,0,0)"><g class="DimensionMark" fill="#000000" id="mark1" stroke="none" style="fill-opacity: 1; pointer-events: visible;" transform="matrix(1,0,0,1,881.9941,0)"><polygon points="-5,5,0,0,5,5"/></g><g class="DimensionMark" fill="#000000" id="mark2" stroke="none" style="fill-opacity: 1; pointer-events: visible;" transform="matrix(1,0,0,1,1075.4254,683.9865)"><polygon points="-5,-5,0,0,-5,5"/></g><g class="DimensionMark" fill="#000000" id="mark3" stroke="none" style="fill-opacity: 1; pointer-events: visible;" transform="matrix(1,0,0,1,881.9941,1367.973)"><polygon points="-5,-5,0,0,5,-5"/></g><g class="DimensionMark" fill="#000000" id="mark4" stroke="none" style="fill-opacity: 1; pointer-events: visible;" transform="matrix(1,0,0,1,0,683.9865)"><polygon points="5,5,0,0,5,-5"/></g></g><g class="SpaceDimensionsLabel" transform="matrix(1,0,0,1,784.148,641.9959)"><g class="TextLabel NameLabel" id="NameLabel" style="display: block;"/><g class="TextLabel DimensionMeasureLabel" id="DimensionMeasureLabel" style="display: none;" transform="matrix(1,0,0,1,-61.5,79.8437)"/></g></g></g><g class="Space Undefined" fill="#ffffff" id="5498de96-267b-4389-83fe-a3c8f1d37fc4" stroke="#ffffff" style="fill-opacity: 1; stroke-opacity: 1; stroke-width: 1;"><polygon points="1751.52,1141.45 1278.00,1141.45 1278.00,700.41 1751.52,700.41 "/><g class="Dimension" transform="matrix(1,0,0,1,1278.0008,700.4093)"><g class="Visual" style="display: none;" transform="matrix(1,0,0,1,0,0)"><g class="DimensionMark" fill="#000000" id="mark1" stroke="none" style="fill-opacity: 1; pointer-events: visible;" transform="matrix(1,0,0,1,236.7608,0)"><polygon points="-5,5,0,0,5,5"/></g><g class="DimensionMark" fill="#000000" id="mark2" stroke="none" style="fill-opacity: 1; pointer-events: visible;" transform="matrix(1,0,0,1,473.5216,220.5183)"><polygon points="-5,-5,0,0,-5,5"/></g><g class="DimensionMark" fill="#000000" id="mark3" stroke="none" style="fill-opacity: 1; pointer-events: visible;" transform="matrix(1,0,0,1,236.7608,441.0365)"><polygon points="-5,-5,0,0,5,-5"/></g><g class="DimensionMark" fill="#000000" id="mark4" stroke="none" style="fill-opacity: 1; pointer-events: visible;" transform="matrix(1,0,0,1,0,220.5183)"><polygon points="5,5,0,0,5,-5"/></g></g><g class="SpaceDimensionsLabel" transform="matrix(1,0,0,1,236.7608,220.5182)"><g class="TextLabel NameLabel" id="NameLabel" style="display: block;"/><g class="TextLabel DimensionMeasureLabel" id="DimensionMeasureLabel" style="display: none;" transform="matrix(1,0,0,1,-40.5235,79.8437)"/></g></g></g><g class="Space Undefined" fill="#ffffff" id="35e7036d-d954-421b-a0ca-374b29c94483" stroke="#ffffff" style="fill-opacity: 1; stroke-opacity: 1; stroke-width: 1;"><polygon points="1751.52,1503.28 1278.00,1503.28 1278.00,1160.45 1751.52,1160.45 "/><g class="Dimension" transform="matrix(1,0,0,1,1278.0008,1160.4458)"><g class="Visual" style="display: none;" transform="matrix(1,0,0,1,0,0)"><g class="DimensionMark" fill="#000000" id="mark1" stroke="none" style="fill-opacity: 1; pointer-events: visible;" transform="matrix(1,0,0,1,236.7608,0)"><polygon points="-5,5,0,0,5,5"/></g><g class="DimensionMark" fill="#000000" id="mark2" stroke="none" style="fill-opacity: 1; pointer-events: visible;" transform="matrix(1,0,0,1,473.5216,171.4179)"><polygon points="-5,-5,0,0,-5,5"/></g><g class="DimensionMark" fill="#000000" id="mark3" stroke="none" style="fill-opacity: 1; pointer-events: visible;" transform="matrix(1,0,0,1,236.7608,342.8358)"><polygon points="-5,-5,0,0,5,-5"/></g><g class="DimensionMark" fill="#000000" id="mark4" stroke="none" style="fill-opacity: 1; pointer-events: visible;" transform="matrix(1,0,0,1,0,171.4179)"><polygon points="5,5,0,0,5,-5"/></g></g><g class="SpaceDimensionsLabel" transform="matrix(1,0,0,1,171.4179,171.4179)"><g class="TextLabel NameLabel" id="NameLabel" style="display: block;"/><g class="TextLabel DimensionMeasureLabel" id="DimensionMeasureLabel" style="display: none;" transform="matrix(1,0,0,1,-40.5235,79.8437)"/></g></g></g><g class="Space Undefined" fill="#ffffff" id="198a7809-0d3e-45e4-a2d6-0a4fb4a66d3c" stroke="#ffffff" style="fill-opacity: 1; stroke-opacity: 1; stroke-width: 1;"><polygon points="1751.52,452.51 1383.02,452.51 1383.02,135.31 1751.52,135.31 "/><g class="Dimension" transform="matrix(1,0,0,1,1383.0206,135.3086)"><g class="Visual" style="display: none;" transform="matrix(1,0,0,1,0,0)"><g class="DimensionMark" fill="#000000" id="mark1" stroke="none" style="fill-opacity: 1; pointer-events: visible;" transform="matrix(1,0,0,1,184.2509,0)"><polygon points="-5,5,0,0,5,5"/></g><g class="DimensionMark" fill="#000000" id="mark2" stroke="none" style="fill-opacity: 1; pointer-events: visible;" transform="matrix(1,0,0,1,368.5017,158.5993)"><polygon points="-5,-5,0,0,-5,5"/></g><g class="DimensionMark" fill="#000000" id="mark3" stroke="none" style="fill-opacity: 1; pointer-events: visible;" transform="matrix(1,0,0,1,184.2509,317.1986)"><polygon points="-5,-5,0,0,5,-5"/></g><g class="DimensionMark" fill="#000000" id="mark4" stroke="none" style="fill-opacity: 1; pointer-events: visible;" transform="matrix(1,0,0,1,0,158.5993)"><polygon points="5,5,0,0,5,-5"/></g></g><g class="SpaceDimensionsLabel" transform="matrix(1,0,0,1,158.5993,158.5993)"><g class="TextLabel NameLabel" id="NameLabel" style="display: block;"/><g class="TextLabel DimensionMeasureLabel" id="DimensionMeasureLabel" style="display: none;" transform="matrix(1,0,0,1,-40.5235,79.8437)"/></g></g></g><g class="Space Undefined" fill="#ffffff" id="c1be3af6-440f-4936-a833-c8f0ebe4aa52" stroke="#ffffff" style="fill-opacity: 1; stroke-opacity: 1; stroke-width: 1;"><polygon points="1751.52,681.41 1383.02,681.41 1383.02,468.51 1751.52,468.51 "/><g class="Dimension" transform="matrix(1,0,0,1,1383.0206,468.5072)"><g class="Visual" style="display: none;" transform="matrix(1,0,0,1,0,0)"><g class="DimensionMark" fill="#000000" id="mark1" stroke="none" style="fill-opacity: 1; pointer-events: visible;" transform="matrix(1,0,0,1,184.2509,0)"><polygon points="-5,5,0,0,5,5"/></g><g class="DimensionMark" fill="#000000" id="mark2" stroke="none" style="fill-opacity: 1; pointer-events: visible;" transform="matrix(1,0,0,1,368.5017,106.451)"><polygon points="-5,-5,0,0,-5,5"/></g><g class="DimensionMark" fill="#000000" id="mark3" stroke="none" style="fill-opacity: 1; pointer-events: visible;" transform="matrix(1,0,0,1,184.2509,212.902)"><polygon points="-5,-5,0,0,5,-5"/></g><g class="DimensionMark" fill="#000000" id="mark4" stroke="none" style="fill-opacity: 1; pointer-events: visible;" transform="matrix(1,0,0,1,0,106.451)"><polygon points="5,5,0,0,5,-5"/></g></g><g class="SpaceDimensionsLabel" transform="matrix(1,0,0,1,184.2508,106.451)"><g class="TextLabel NameLabel" id="NameLabel" style="display: block;"/><g class="TextLabel DimensionMeasureLabel" id="DimensionMeasureLabel" style="display: none;" transform="matrix(1,0,0,1,-40.5235,79.8437)"/></g></g></g><g class="Wall External" fill="#000000" id="Wall" stroke="#000000" style="fill-opacity: 1; stroke-opacity: 1; stroke-width: 1;"><polygon points="183.58,487.18 1065.57,487.18 1043.57,465.18 161.58,465.18 "/><g class="Window Regular" fill="#f0f0ff" id="Window" stroke="#000000" style="fill-opacity: 1; stroke-width: 1; stroke-opacity: 1;"><polygon points="199.17,487.18 341.47,487.18 341.47,465.18 199.17,465.18 "/><g class="Glass" id="Glass"><polygon points="199.17,487.18 341.47,487.18 341.47,465.18 199.17,465.18 "/></g><g class="Panel" id="Panel"><line x1="206.66537312539594" x2="333.9669477648574" y1="476.1752840293533" y2="476.17528402935324"/><line x1="206.66537312539594" x2="206.66537312539594" y1="487.1752840293533" y2="465.1752840293533"/><line x1="333.9669477648574" x2="333.9669477648574" y1="487.17528402935324" y2="465.17528402935324"/></g></g><g class="Window Regular" fill="#f0f0ff" id="Window" stroke="#000000" style="fill-opacity: 1; stroke-width: 1; stroke-opacity: 1;"><polygon points="522.66,487.18 665.40,487.18 665.40,465.18 522.66,465.18 "/><g class="Glass" id="Glass"><polygon points="522.66,487.18 665.40,487.18 665.40,465.18 522.66,465.18 "/></g><g class="Panel" id="Panel"><line x1="530.158386991036" x2="657.9018919865206" y1="476.17528402935324" y2="476.1752840293532"/><line x1="530.158386991036" x2="530.158386991036" y1="487.17528402935324" y2="465.17528402935324"/><line x1="657.9018919865206" x2="657.9018919865206" y1="487.1752840293532" y2="465.1752840293532"/></g></g><g class="Window Regular" fill="#f0f0ff" id="Window" stroke="#000000" style="fill-opacity: 1; stroke-width: 1; stroke-opacity: 1;"><polygon points="698.99,487.18 839.52,487.18 839.52,465.18 698.99,465.18 "/><g class="Glass" id="Glass"><polygon points="698.99,487.18 839.52,487.18 839.52,465.18 698.99,465.18 "/></g><g class="Panel" id="Panel"><line x1="706.4885990442816" x2="832.0224522596503" y1="476.1752840293532" y2="476.1752840293532"/><line x1="706.4885990442816" x2="706.4885990442816" y1="487.1752840293532" y2="465.1752840293532"/><line x1="832.0224522596503" x2="832.0224522596503" y1="487.1752840293532" y2="465.1752840293532"/></g></g><g class="Door Swing Beside" fill="#ffffff" id="Door" stroke="#000000" style="fill-opacity: 1; stroke-width: 1; stroke-opacity: 1;"><polygon points="870.02,487.18 1021.60,487.18 1021.60,465.18 870.02,465.18 "/><g class="Panel Right Positive" fill="none" id="Panel" style=""><g class="PanelArea" fill="none" id="PanelArea" stroke="none" style=""><polygon points="870.02,487.18 1021.60,487.18 1021.60,465.18 870.02,465.18 "/></g><path d="M870.02,465.18 q0.00,-151.58 151.58,-151.58 l0.00,151.58Z"/></g></g></g><g class="Wall External" fill="#000000" id="Wall" stroke="#000000" style="fill-opacity: 1; stroke-opacity: 1; stroke-width: 1;"><polygon points="1065.57,487.18 1065.57,135.31 1043.57,113.31 1043.57,465.18 "/><g class="Window Regular" fill="#f0f0ff" id="Window" stroke="#000000" style="fill-opacity: 1; stroke-width: 1; stroke-opacity: 1;"><polygon points="1065.57,336.45 1065.57,194.31 1043.57,194.31 1043.57,336.45 "/><g class="Glass" id="Glass"><polygon points="1065.57,336.45 1065.57,194.31 1043.57,194.31 1043.57,336.45 "/></g><g class="Panel" id="Panel"><line x1="1054.5694934594999" x2="1054.5694934594999" y1="328.95456397417456" y2="201.8078732001904"/><line x1="1065.5694934594999" x2="1043.5694934594999" y1="328.95456397417456" y2="328.95456397417456"/><line x1="1065.5694934594999" x2="1043.5694934594999" y1="201.8078732001904" y2="201.8078732001904"/></g></g></g><g class="Wall External" fill="#000000" id="Wall" stroke="#000000" style="fill-opacity: 1; stroke-opacity: 1; stroke-width: 1;"><polygon points="1065.57,135.31 1751.52,135.31 1773.52,113.31 1043.57,113.31 "/><g class="Window Regular" fill="#f0f0ff" id="Window" stroke="#000000" style="fill-opacity: 1; stroke-width: 1; stroke-opacity: 1;"><polygon points="1100.71,135.31 1242.86,135.31 1242.86,113.31 1100.71,113.31 "/><g class="Glass" id="Glass"><polygon points="1100.71,135.31 1242.86,135.31 1242.86,113.31 1100.71,113.31 "/></g><g class="Panel" id="Panel"><line x1="1108.214861011032" x2="1235.3615517850164" y1="124.30864733804475" y2="124.30864733804472"/><line x1="1108.214861011032" x2="1108.214861011032" y1="135.30864733804475" y2="113.30864733804475"/><line x1="1235.3615517850164" x2="1235.3615517850164" y1="135.30864733804472" y2="113.30864733804472"/></g></g></g><g class="Wall External" fill="#000000" id="Wall" stroke="#000000" style="fill-opacity: 1; stroke-opacity: 1; stroke-width: 1;"><polygon points="1751.52,135.31 1751.52,1503.28 1773.52,1525.28 1773.52,113.31 "/><g class="Window Regular" fill="#f0f0ff" id="Window" stroke="#000000" style="fill-opacity: 1; stroke-width: 1; stroke-opacity: 1;"><polygon points="1751.52,240.84 1751.52,413.14 1773.52,413.14 1773.52,240.84 "/><g class="Glass" id="Glass"><polygon points="1751.52,240.84 1751.52,413.14 1773.52,413.14 1773.52,240.84 "/></g><g class="Panel" id="Panel"><line x1="1762.5223666174816" x2="1762.5223666174816" y1="248.33604493012228" y2="405.63730899568236"/><line x1="1751.5223666174816" x2="1773.5223666174816" y1="248.33604493012228" y2="248.33604493012228"/><line x1="1751.5223666174816" x2="1773.5223666174816" y1="405.63730899568236" y2="405.63730899568236"/></g></g><g class="Window Regular" fill="#f0f0ff" id="Window" stroke="#000000" style="fill-opacity: 1; stroke-width: 1; stroke-opacity: 1;"><polygon points="1751.52,501.19 1751.52,573.32 1773.52,573.32 1773.52,501.19 "/><g class="Glass" id="Glass"><polygon points="1751.52,501.19 1751.52,573.32 1773.52,573.32 1773.52,501.19 "/></g><g class="Panel" id="Panel"><line x1="1762.5223666174816" x2="1762.5223666174816" y1="508.6862688606384" y2="565.8218150795516"/><line x1="1751.5223666174816" x2="1773.5223666174816" y1="508.6862688606384" y2="508.6862688606384"/><line x1="1751.5223666174816" x2="1773.5223666174816" y1="565.8218150795516" y2="565.8218150795516"/></g></g><g class="Window Regular" fill="#f0f0ff" id="Window" stroke="#000000" style="fill-opacity: 1; stroke-width: 1; stroke-opacity: 1;"><polygon points="1751.52,860.90 1751.52,1084.89 1773.52,1084.89 1773.52,860.90 "/><g class="Glass" id="Glass"><polygon points="1751.52,860.90 1751.52,1084.89 1773.52,1084.89 1773.52,860.90 "/></g><g class="Panel" id="Panel"><line x1="1762.5223666174816" x2="1762.5223666174816" y1="868.4032902828417" y2="1077.3883554673007"/><line x1="1751.5223666174816" x2="1773.5223666174816" y1="868.4032902828417" y2="868.4032902828417"/><line x1="1751.5223666174816" x2="1773.5223666174816" y1="1077.3883554673007" y2="1077.3883554673007"/></g></g><g class="Window Regular" fill="#f0f0ff" id="Window" stroke="#000000" style="fill-opacity: 1; stroke-width: 1; stroke-opacity: 1;"><polygon points="1751.52,1192.98 1751.52,1369.77 1773.52,1369.77 1773.52,1192.98 "/><g class="Glass" id="Glass"><polygon points="1751.52,1192.98 1751.52,1369.77 1773.52,1369.77 1773.52,1192.98 "/></g><g class="Panel" id="Panel"><line x1="1762.5223666174816" x2="1762.5223666174816" y1="1200.478639763948" y2="1362.2703417898074"/><line x1="1751.5223666174816" x2="1773.5223666174816" y1="1200.478639763948" y2="1200.478639763948"/><line x1="1751.5223666174816" x2="1773.5223666174816" y1="1362.2703417898074" y2="1362.2703417898074"/></g></g></g><g class="Wall External" fill="#000000" id="Wall" stroke="#000000" style="fill-opacity: 1; stroke-opacity: 1; stroke-width: 1;"><polygon points="1751.52,1503.28 999.06,1503.28 977.06,1525.28 1773.52,1525.28 "/><g class="Door Swing Beside" fill="#ffffff" id="Door" stroke="#000000" style="fill-opacity: 1; stroke-width: 1; stroke-opacity: 1;"><polygon points="1250.54,1503.28 1111.70,1503.28 1111.70,1525.28 1250.54,1525.28 "/><g class="Panel Right Negative" fill="none" id="Panel" style=""><g class="PanelArea" fill="none" id="PanelArea" stroke="none" style=""><polygon points="1250.54,1503.28 1111.70,1503.28 1111.70,1525.28 1250.54,1525.28 "/></g><path d="M1111.70,1503.28 q0.00,-138.84 138.84,-138.84 l0.00,138.84Z"/></g></g></g><g class="Wall External" fill="#000000" id="Wall" stroke="#000000" style="fill-opacity: 1; stroke-opacity: 1; stroke-width: 1;"><polygon points="999.06,1503.28 999.06,1323.91 977.06,1330.68 977.06,1525.28 "/></g><g class="Wall External" fill="#000000" id="Wall" stroke="#000000" style="fill-opacity: 1; stroke-opacity: 1; stroke-width: 1;"><polygon points="999.06,1323.91 775.53,995.02 763.88,1017.02 977.06,1330.68 "/></g><g class="Wall External" fill="#000000" id="Wall" stroke="#000000" style="fill-opacity: 1; stroke-opacity: 1; stroke-width: 1;"><polygon points="775.53,995.02 183.58,995.02 161.58,1017.02 763.88,1017.02 "/></g><g class="Wall External" fill="#000000" id="Wall" stroke="#000000" style="fill-opacity: 1; stroke-opacity: 1; stroke-width: 1;"><polygon points="183.58,995.02 183.58,487.18 161.58,465.18 161.58,1017.02 "/><g class="Window Regular" fill="#f0f0ff" id="Window" stroke="#000000" style="fill-opacity: 1; stroke-width: 1; stroke-opacity: 1;"><polygon points="183.58,652.22 183.58,507.27 161.58,507.27 161.58,652.22 "/><g class="Glass" id="Glass"><polygon points="183.58,652.22 183.58,507.27 161.58,507.27 161.58,652.22 "/></g><g class="Panel" id="Panel"><line x1="172.57540567306748" x2="172.57540567306748" y1="644.7240110523048" y2="514.7708542767044"/><line x1="183.57540567306748" x2="161.57540567306748" y1="644.7240110523048" y2="644.7240110523048"/><line x1="183.57540567306748" x2="161.57540567306748" y1="514.7708542767044" y2="514.7708542767044"/></g></g></g><g class="Wall" fill="#000000" id="Wall" stroke="#000000" style="fill-opacity: 1; stroke-opacity: 1; stroke-width: 1;"><polygon points="1773.52,700.41 1278.00,700.41 1259.00,681.41 1773.52,681.41 "/></g><g class="Wall" fill="#000000" id="Wall" stroke="#000000" style="fill-opacity: 1; stroke-opacity: 1; stroke-width: 1;"><polygon points="1278.00,700.41 1278.00,1525.28 1259.00,1525.28 1259.00,681.41 "/><g class="Door Swing Beside" fill="#ffffff" id="Door" stroke="#000000" style="fill-opacity: 1; stroke-width: 1; stroke-opacity: 1;"><polygon points="1278.00,990.36 1278.00,1129.81 1259.00,1129.81 1259.00,990.36 "/><g class="Panel Left Negative" fill="none" id="Panel" style=""><g class="PanelArea" fill="none" id="PanelArea" stroke="none" style=""><polygon points="1278.00,990.36 1278.00,1129.81 1259.00,1129.81 1259.00,990.36 "/></g><path d="M1278.00,990.36 q139.45,0.00 139.45,139.45 l-139.45,0.00Z"/></g></g><g class="Door Swing Beside" fill="#ffffff" id="Door" stroke="#000000" style="fill-opacity: 1; stroke-width: 1; stroke-opacity: 1;"><polygon points="1278.00,1165.57 1278.00,1295.81 1259.00,1295.81 1259.00,1165.57 "/><g class="Panel Right Negative" fill="none" id="Panel" style=""><g class="PanelArea" fill="none" id="PanelArea" stroke="none" style=""><polygon points="1278.00,1165.57 1278.00,1295.81 1259.00,1295.81 1259.00,1165.57 "/></g><path d="M1278.00,1295.81 q130.24,0.00 130.24,-130.24 l-130.24,0.00Z"/></g></g></g><g class="Wall" fill="#000000" id="Wall" stroke="#000000" style="fill-opacity: 1; stroke-opacity: 1; stroke-width: 1;"><polygon points="1259.00,1160.45 1773.52,1160.45 1773.52,1141.45 1259.00,1141.45 "/></g><g class="Wall" fill="#000000" id="Wall" stroke="#000000" style="fill-opacity: 1; stroke-opacity: 1; stroke-width: 1;"><polygon points="1367.02,113.31 1367.02,700.41 1383.02,700.41 1383.02,113.31 "/><g class="Door None Beside" fill="#ffffff" id="Door" stroke="#000000" style="fill-opacity: 1; stroke-width: 1; stroke-opacity: 1;"><polygon points="1367.02,217.78 1367.02,357.01 1383.02,357.01 1383.02,217.78 "/></g><g class="Door Swing Beside" fill="#ffffff" id="Door" stroke="#000000" style="fill-opacity: 1; stroke-width: 1; stroke-opacity: 1;"><polygon points="1367.02,552.00 1367.02,657.87 1383.02,657.87 1383.02,552.00 "/><g class="Panel Left Negative" fill="none" id="Panel" style=""><g class="PanelArea" fill="none" id="PanelArea" stroke="none" style=""><polygon points="1367.02,552.00 1367.02,657.87 1383.02,657.87 1383.02,552.00 "/></g><path d="M1367.02,552.00 q-105.87,0.00 -105.87,105.87 l105.87,0.00Z"/></g></g></g><g class="Wall" fill="#000000" id="Wall" stroke="#000000" style="fill-opacity: 1; stroke-opacity: 1; stroke-width: 1;"><polygon points="1367.02,468.51 1773.52,468.51 1773.52,452.51 1367.02,452.51 "/></g><g class="Railing" fill="#ffffff" id="Railing" stroke="#000000" style="fill-opacity: 1; stroke-opacity: 1; stroke-width: 1;"><polygon points="1043.57,135.31 801.02,135.31 787.02,121.31 1043.57,121.31 " style="stroke-dasharray: 242.551, 19.799, 270.551;"/></g><g class="Railing" fill="#ffffff" id="Railing" stroke="#000000" style="fill-opacity: 1; stroke-opacity: 1; stroke-width: 1;"><polygon points="801.02,135.31 801.02,465.18 787.02,465.18 787.02,121.31 " style="stroke-dasharray: 687.733, 19.799;"/></g><g class="Column Rectangle" fill="#000000" id="Column" stroke="none" style="fill-opacity: 1;"><polygon points="1557.98,452.51 1557.98,507.48 1656.78,507.48 1656.78,452.51 "/></g><g class="Column Rectangle" fill="#000000" id="Column" stroke="none" style="fill-opacity: 1;"><polygon points="801.02,149.75 787.02,149.75 787.02,135.75 801.02,135.75 "/></g><g class="Column Rectangle" fill="#000000" id="Column" stroke="none" style="fill-opacity: 1;" transform="matrix(1,0,0,1,0,0)"><polygon points="814.92,135.33 800.92,135.33 800.92,121.33 814.92,121.33 "/></g><g class="Column Rectangle" fill="#000000" id="Column" stroke="none" style="fill-opacity: 1;" transform="matrix(1,0,0,1,0,0)"><polygon points="932.20,135.30 918.20,135.30 918.20,121.30 932.20,121.30 "/></g><g class="Column Rectangle" fill="#000000" id="Column" stroke="none" style="fill-opacity: 1;" transform="matrix(1,0,0,1,0,0)"><polygon points="801.02,263.46 787.02,263.46 787.02,249.46 801.02,249.46 "/></g><g class="Column Rectangle" fill="#000000" id="Column" stroke="none" style="fill-opacity: 1;" transform="matrix(1,0,0,1,0,0)"><polygon points="801.02,375.27 787.02,375.27 787.02,361.27 801.02,361.27 "/></g><g class="FixedFurnitureSet" fill="#ffffff" id="FixedFurnitureSet" stroke="#000000" style="fill-opacity: 0.4; stroke-opacity: 0.4;" transform="matrix(0,-1,1,0,1278.0009,903.6939)"><g class="FixedFurniture Closet" fill="#ffffff" stroke="#000000" style="fill-opacity: 1; stroke-opacity: 1;" transform="matrix(1,0,0,1,0,0)">
<g class="BoundaryPolygon">
<polygon points="0.00,0.00 101.64,0.00 101.64,69.06 0.00,69.06 "/>
</g>
<g class="Direction" fill-opacity="0.9" style="display: none;">
<polygon fill="#444444" points="53.38,62.96 53.38,52.34 50.37,52.34 50.37,62.96 46.57,62.96 51.87,68.26 57.17,62.96 53.38,62.96 "/>
</g>
<g class="Name" fill-opacity="0.9" style="display: none;">

</g>
<desc>Width:60 Height:200 Depth:60 Elevation:0</desc>
</g><g class="FixedFurniture Closet" fill="#ffffff" stroke="#000000" style="fill-opacity: 1; stroke-opacity: 1;" transform="matrix(1,0,0,1,101.6446,0)">
<g class="BoundaryPolygon">
<polygon points="0.00,0.00 101.64,0.00 101.64,69.06 0.00,69.06 "/>
</g>
<g class="Direction" fill-opacity="0.9" style="display: none;">
<polygon fill="#444444" points="53.38,62.96 53.38,52.34 50.37,52.34 50.37,62.96 46.57,62.96 51.87,68.26 57.17,62.96 53.38,62.96 "/>
</g>
<g class="Name" fill-opacity="0.9" style="display: none;">

</g>
<desc>Width:60 Height:200 Depth:60 Elevation:0</desc>
</g></g><g class="FixedFurniture Closet" fill="#ffffff" stroke="#000000" style="fill-opacity: 1; stroke-opacity: 1;" transform="matrix(0,-1,1,0,1278.0633,976.7539)">
<g class="BoundaryPolygon">
<polygon points="0.00,0.00 73.06,0.00 73.06,68.96 0.00,68.96 "/>
</g>
<g class="Direction" fill-opacity="0.9" style="display: none;">
<polygon fill="#444444" points="38.37,62.86 38.37,52.25 35.36,52.25 35.36,62.86 31.55,62.86 36.86,68.16 42.16,62.86 38.37,62.86 "/>
</g>
<g class="Name" fill-opacity="0.9" style="display: none;">

</g>
<desc>Width:60 Height:200 Depth:60 Elevation:0</desc>
</g><g class="FixedFurnitureSet" fill="#ffffff" id="FixedFurnitureSet" stroke="#000000" style="fill-opacity: 0.4; stroke-opacity: 0.4;" transform="matrix(0,-1,1,0,1278.0009,1499.289)"><g class="FixedFurniture Closet" fill="#ffffff" stroke="#000000" style="fill-opacity: 1; stroke-opacity: 1;" transform="matrix(1,0,0,1,0,0)">
<g class="BoundaryPolygon">
<polygon points="0.00,0.00 99.64,0.00 99.64,77.05 0.00,77.05 "/>
</g>
<g class="Direction" fill-opacity="0.9" style="display: none;">
<polygon fill="#444444" points="52.33,70.24 52.33,59.62 49.32,59.62 49.32,70.24 45.52,70.24 50.82,75.54 56.12,70.24 52.33,70.24 "/>
</g>
<g class="Name" fill-opacity="0.9" style="display: none;">

</g>
<desc>Width:60 Height:200 Depth:60 Elevation:0</desc>
</g><g class="FixedFurniture Closet" fill="#ffffff" stroke="#000000" style="fill-opacity: 1; stroke-opacity: 1;" transform="matrix(1,0,0,1,99.6482,0)">
<g class="BoundaryPolygon">
<polygon points="0.00,0.00 99.64,0.00 99.64,77.05 0.00,77.05 "/>
</g>
<g class="Direction" fill-opacity="0.9" style="display: none;">
<polygon fill="#444444" points="52.33,70.24 52.33,59.62 49.32,59.62 49.32,70.24 45.52,70.24 50.82,75.54 56.12,70.24 52.33,70.24 "/>
</g>
<g class="Name" fill-opacity="0.9" style="display: none;">

</g>
<desc>Width:60 Height:200 Depth:60 Elevation:0</desc>
</g></g><g class="FixedFurnitureSet" fill="#ffffff" id="FixedFurnitureSet" stroke="#000000" style="fill-opacity: 0.4; stroke-opacity: 0.4;" transform="matrix(0,-1,1,0,999.0557,1503.2817)"><g class="FixedFurniture Closet" fill="#ffffff" stroke="#000000" style="fill-opacity: 1; stroke-opacity: 1;" transform="matrix(1,0,0,1,0,0)">
<g class="BoundaryPolygon">
<polygon points="0.00,0.00 89.74,0.00 89.74,67.07 0.00,67.07 "/>
</g>
<g class="Direction" fill-opacity="0.9" style="display: none;">
<polygon fill="#444444" points="47.13,61.14 47.13,50.52 44.12,50.52 44.12,61.14 40.32,61.14 45.62,66.44 50.92,61.14 47.13,61.14 "/>
</g>
<g class="Name" fill-opacity="0.9" style="display: none;">

</g>
<desc>Width:60 Height:200 Depth:60 Elevation:0</desc>
</g><g class="FixedFurniture Closet" fill="#ffffff" stroke="#000000" style="fill-opacity: 1; stroke-opacity: 1;" transform="matrix(1,0,0,1,89.7445,0)">
<g class="BoundaryPolygon">
<polygon points="0.00,0.00 89.74,0.00 89.74,67.07 0.00,67.07 "/>
</g>
<g class="Direction" fill-opacity="0.9" style="display: none;">
<polygon fill="#444444" points="47.13,61.14 47.13,50.52 44.12,50.52 44.12,61.14 40.32,61.14 45.62,66.44 50.92,61.14 47.13,61.14 "/>
</g>
<g class="Name" fill-opacity="0.9" style="display: none;">

</g>
<desc>Width:60 Height:200 Depth:60 Elevation:0</desc>
</g></g><g class="FixedFurniture Toilet" fill="#ffffff" stroke="#000000" style="fill-opacity: 1; stroke-opacity: 1;" transform="matrix(1,0,0,0.9582,1497.9637,468.5072)">
<g class="BoundaryPolygon" fill="none" stroke="none">
<polygon points="0,0 41,0 41,71 0,71"/>
</g>
<g class="InnerPolygon">
<rect height="17.98" width="39.989" x="0.502" y="0.5"/>
<path d="M40.491,44.237S41.619,70.5,20.907,70.5C-.523,70.5.6,44.237.6,44.237L.5,18.48H40.491Z"/>
<rect height="3.03" width="6.357" x="17.318" y="7.975"/>
</g>
<desc>Width:41 Height:85 Depth:71 Elevation:0</desc>
</g><g class="FixedFurniture BaseCabinet" fill="#ffffff" stroke="#000000" style="fill-opacity: 1; stroke-opacity: 1;" transform="matrix(1,0,0,1,1567.2005,507.48)">
<g class="BoundaryPolygon">
<polygon points="0.00,0.00 81.17,0.00 81.17,54.80 0.00,54.80 "/>
</g>
<g class="Direction" fill-opacity="0.9" style="display: none;">
<polygon fill="#444444" points="43.30,50.41 43.30,39.80 40.29,39.80 40.29,50.41 36.49,50.41 41.79,55.22 47.09,50.41 43.30,50.41 "/>
</g>
<g class="Name" fill-opacity="0.9" style="display: none;">

</g>
<desc>Width:60 Height:90 Depth:60 Elevation:0</desc>
</g><g class="FixedFurniture RoundSink" fill="#ffffff" stroke="#000000" style="fill-opacity: 1; stroke-opacity: 1;" transform="matrix(1.6914,0,0,1,1569.1535,507.48)">
<g class="BoundaryPolygon" fill="none" stroke="none">
<polygon points="0,0 46,0 46,50 0,50"/>
</g>
<g class="InnerPolygon">
<circle cx="23" cy="27" r="23"/>
</g>
<g class="OuterDrain">
<circle cx="23" cy="27" r="3.5"/>
</g>
<g class="InnerDrain">
<circle cx="23" cy="27" r="2"/>
</g>
<g class="Faucet">
<polygon points="20 0 26 0 26 14 20 14 20 0"/>
</g>
<g class="Name" fill-opacity="0.9" style="display: none;">

</g>
<desc>Width:46 Height:90 Depth:50 Elevation:60</desc>
</g><g class="FixedFurniture ShowerScreen" fill="#ffffff" stroke="#000000" style="fill-opacity: 1; stroke-opacity: 1;" transform="matrix(1,0,0,1.4851,1660.6848,469.2172)">
<g class="BoundaryPolygon">
<polygon points="0,0 2.5,0 2.5,60 0,60"/>
</g>
<g class="InnerPolygon" stroke-linejoin="round">
<rect height="60" width="2.5"/>
</g>
<desc>Width:2.5 Height:180 Depth:60 Elevation:135</desc>
</g><g class="FixedFurniture Shower" fill="#ffffff" stroke="#000000" style="fill-opacity: 1; stroke-opacity: 1;" transform="matrix(1,0,0,1,1690.5369,468.5073)">
<g class="BoundaryPolygon" fill="none" stroke="none">
<polygon points="0,0 32,0 32,19 0,19"/>
</g>
<g class="InnerPolygon">
<rect height="6.1" width="11.2" x="3.7" y="0.5"/>
<rect height="6.1" width="11.2" x="17.6" y="0.5"/>
<rect height="6.1" width="3.4" x="28.7" y="0.5"/>
<rect height="6.1" width="3.2" x="0.5" y="0.5"/>
<path d="M14.9,8.5c0,1.5-0.4,3.3-1.6,5    c-0.4,0.6-1,1.1-1.1,1.7c-0.2,1.1,0.3,2.8,2.5,3.2c0.5,0.1,1.3,0.1,1.6,0.1h-0.1c0.3,0,1.1,0,1.6-0.1c2.2-0.4,2.7-2.1,2.5-3.2    c-0.1-0.6-0.7-1.1-1.1-1.7c-1.2-1.7-1.6-3.5-1.6-5"/>
<path d="M12.2,15.3c0.1,0.2,1.6,1.9,4.2,1.9 c2.4-0.1,3.7-1.7,3.9-1.9"/>
<path d="M14.9,0.5h2.7v8c-0.9,0-1.8,0-2.7,0l0,0 C14.9,5.9,14.9,3.2,14.9,0.5z"/>
</g>
<g class="Indicator">
<path d="M3.7,3.6C5,3.1,5.2,3,5.2,3 c0,1.1,0,0,0,1.1C5.2,4.1,5.1,4.1,3.7,3.6"/>
<path d="M28.7,3.6 C27.4,3.1,27.2,3,27.2,3c0,1.1,0,0,0,1.1C27.2,4.1,27.3,4.1,28.7,3.6"/>
</g>
<desc>Width:32 Height:97 Depth:19 Elevation:135</desc>
</g><g class="FixedFurniture ElectricalAppliance WashingMachine" fill="#ffffff" stroke="#000000" style="fill-opacity: 1; stroke-opacity: 1;" transform="matrix(1.142,0,0,1,1393.0919,468.5073)">
<g class="BoundaryPolygon">
<polygon points="0,0 60,0 60,60 0,60"/>
</g>
<g class="electricitySign" fill="none">
<path d="M0,0,30,41V20.8L60,60"/>
</g>
<g class="Handle">
<path d="M2.7,59.4H57.3"/>
</g>
<g class="Direction" fill-opacity="0.9" style="display: none;">
<polygon fill="#444444" points="32.009 55.197 32.009 44.581 29 44.581 29 55.197 25.197 55.197 30.5 60 35.803 55.197 32.009 55.197"/>
</g>
<g class="Name" fill-opacity="0.9" style="display: none;">

</g>
<desc>Width:60 Height:90 Depth:60 Elevation:0</desc>
</g><g class="FixedFurniture BaseCabinet" fill="#ffffff" stroke="#000000" style="fill-opacity: 1; stroke-opacity: 1;" transform="matrix(-1,0,0,-1,1751.5223,452.3354)">
<g class="BoundaryPolygon">
<polygon points="0.00,0.00 302.50,0.00 302.50,60.00 0.00,60.00 "/>
</g>
<g class="Direction" fill-opacity="0.9" style="display: none;">
<polygon fill="#444444" points="161.38,55.20 161.38,44.58 158.37,44.58 158.37,55.20 154.56,55.20 159.87,60.00 165.17,55.20 161.38,55.20 "/>
</g>
<g class="Name" fill-opacity="0.9" style="display: none;">

</g>
<desc>Width:60 Height:90 Depth:60 Elevation:0</desc>
</g><g class="FixedFurniture DoubleSink" fill="#ffffff" stroke="#000000" style="fill-opacity: 1; stroke-opacity: 1;" transform="matrix(-1,0,0,-1,1538.9864,452.3355)">
<g class="BoundaryPolygon" fill="none" stroke="none">
<polygon points="0.00,0.00 89.96,0.00 89.96,60.00 0.00,60.00 "/>
</g>
<g class="InnerPolygonLeft">
<polygon points="6.43,9.90 43.05,9.90 43.05,54.90 6.43,54.90 "/>
</g>
<g class="InnerPolygonRight">
<polygon points="46.91,10.00 83.54,10.00 83.54,55.00 46.91,55.00 "/>
</g>
<g class="OuterDrain" stroke-width="0.8">
<circle cx="25.318588685540522" cy="32.5" r="3.5"/>
<circle cx="64.51741888396623" cy="32.5" r="3.5"/>
</g>
<g class="InnerDrain" stroke-width="0.8">
<circle cx="25.318588685540522" cy="32.5" r="2"/>
<circle cx="64.51741888396623" cy="32.5" r="2"/>
</g>
<g class="Faucet">
<polygon points="41.13,4.90 47.13,4.90 47.13,18.90 41.13,18.90 "/>
</g>
<g class="Direction" fill-opacity="0.9" style="display: none;">
<polygon fill="#444444" points="46.92,54.70 46.92,44.08 43.91,44.08 43.91,54.70 40.11,54.70 45.41,60.00 50.72,54.70 46.92,54.70 "/>
</g>
<g class="Name" fill-opacity="0.9" style="display: none;">

</g>
<desc>Width:70 Height:90 Depth:60 Elevation:0</desc>
</g><g class="FixedFurniture ElectricalAppliance IntegratedStove" fill="#ffffff" stroke="#000000" style="fill-opacity: 1; stroke-opacity: 1;" transform="matrix(-1,0,0,-1,1616.8614,452.1636)">
<g class="BoundaryPolygon" fill="none" stroke="none">
<polygon points="0.00,0.00 72.46,0.00 72.46,60.00 0.00,60.00 "/>
</g>
<g class="InnerPolygon">
<polygon points="2.00,2.00 70.04,2.00 70.04,58.00 2.00,58.00 "/>
</g>
<g class="OuterCircle">
<circle cx="19.322298248854295" cy="16" r="8"/>
<circle cx="53.13632018434929" cy="16" r="8"/>
<circle cx="19.322298248854295" cy="44" r="8"/>
<circle cx="53.13632018434929" cy="44" r="8"/>
</g>
<g class="Direction" fill-opacity="0.9" style="display: none;">
<polygon fill="#444444" points="38.66,55.20 38.66,44.58 35.65,44.58 35.65,55.20 31.84,55.20 37.15,60.00 42.45,55.20 38.66,55.20 "/>
</g>
<g class="Name" fill-opacity="0.9" style="display: none;">

</g>
<desc>Width:60 Height:90 Depth:30 Elevation:0</desc>
</g><g class="FixedFurniture ElectricalAppliance SpaceForAppliance2" fill="#ffffff" stroke="#000000" style="fill-opacity: 1; stroke-opacity: 1;" transform="matrix(-1.0305,0,0,-1,1449.0264,452.5072)">
<g class="BoundaryPolygon">
<polygon points="0,0 60,0 60,60 0,60"/>
</g>
<g class="electricitySign" fill="none">
<path d="M0,0,30.1,39.8V19.4L59.9,60"/>
</g>
<g class="Direction" fill-opacity="0.9" style="display: none;">
<polygon fill="#444444" points="32.009 55.197 32.009 44.581 29 44.581 29 55.197 25.197 55.197 30.5 60 35.803 55.197 32.009 55.197"/>
</g>
<g class="Name" fill-opacity="0.9" style="display: none;">

</g>
<desc>Width:60 Height:90 Depth:60 Elevation:0</desc>
</g><g class="FixedFurniture ElectricalAppliance Refrigerator" fill="#ffffff" stroke="#000000" style="fill-opacity: 1; stroke-opacity: 1;" transform="matrix(1.1707,0,0,1,1388.1424,135.4024)">
<g class="BoundaryPolygon">
<polygon points="0,0 60,0 60,60 0,60"/>
</g>
<g class="electricitySign" fill="none">
<path d="M0,0,30,37.1v-18L60,56.3"/>
</g>
<g class="Doors">
<rect height="4" width="60" y="56"/>
</g>
<g class="Direction" fill-opacity="0.9" style="display: none;">
<polygon fill="#444444" points="32.009 55.197 32.009 44.581 29 44.581 29 55.197 25.197 55.197 30.5 60 35.803 55.197 32.009 55.197"/>
</g>
<g class="Name" fill-opacity="0.9" style="display: none;">

</g>
<desc>Width:60 Height:170 Depth:60 Elevation:0</desc>
</g><g class="FixedFurniture ElectricalAppliance" fill="#ffffff" stroke="#000000" style="fill-opacity: 1; stroke-opacity: 1;" transform="matrix(1,0,0,1,1458.3861,135.3711)">
<g class="BoundaryPolygon">
<polygon points="0,0 60,0 60,60 0,60"/>
</g>
<g class="electricitySign" fill="none">
<path d="M0,0,30.1,39.8V19.4L59.9,60"/>
</g>
<g class="Direction" fill-opacity="0.9" style="display: none;">
<polygon fill="#444444" points="32.009 55.197 32.009 44.581 29 44.581 29 55.197 25.197 55.197 30.5 60 35.803 55.197 32.009 55.197"/>
</g>
<g class="Name" fill-opacity="0.9" style="display: none;">

</g>
<desc>Width:60 Height:200 Depth:60 Elevation:0</desc>
</g><g class="FixedFurniture Closet" fill="#ffffff" stroke="#000000" style="fill-opacity: 1; stroke-opacity: 1;" transform="matrix(1,0,0,1,1518.3861,135.3712)">
<g class="BoundaryPolygon">
<polygon points="0.00,0.00 51.22,0.00 51.22,60.00 0.00,60.00 "/>
</g>
<g class="Direction" fill-opacity="0.9" style="display: none;">
<polygon fill="#444444" points="26.90,54.70 26.90,44.08 23.89,44.08 23.89,54.70 20.09,54.70 25.39,60.00 30.69,54.70 26.90,54.70 "/>
</g>
<g class="Name" fill-opacity="0.9" style="display: none;">

</g>
<desc>Width:60 Height:200 Depth:60 Elevation:0</desc>
</g><g class="FixedFurniture BaseCabinet" fill="#ffffff" stroke="#000000" style="fill-opacity: 1; stroke-opacity: 1;" transform="matrix(1,0,0,1,1569.6058,135.3086)">
<g class="BoundaryPolygon">
<polygon points="0.00,0.00 182.92,0.00 182.92,60.00 0.00,60.00 "/>
</g>
<g class="Direction" fill-opacity="0.9" style="display: none;">
<polygon fill="#444444" points="97.59,55.20 97.59,44.58 94.58,44.58 94.58,55.20 90.77,55.20 96.08,60.00 101.38,55.20 97.59,55.20 "/>
</g>
<g class="Name" fill-opacity="0.9" style="display: none;">

</g>
<desc>Width:60 Height:90 Depth:60 Elevation:0</desc>
</g></g></g></g></svg>