<?xml version="1.0" encoding="utf-8"?>
<svg height="917.5499801635742" id="temp" version="1.1" viewBox="0 0 1493.6857604980469 917.5499801635742" width="1493.6857604980469" xmlns="http://www.w3.org/2000/svg" xmlns:xlink="http://www.w3.org/1999/xlink"><defs/><g class="Model v1-1" id="Model"><g class="Floor"><g class="Floorplan Floor-1" id="Floor-1" transform="matrix(1,0,0,1,0,0)"><g class="Space Closet WalkIn" fill="#ffffff" id="4c3cf30f-a079-4fd2-aad6-ae05f98e90dd" stroke="#ffffff" style="fill-opacity: 1; stroke-opacity: 1; stroke-width: 1;"><polygon points="705.11,731.61 597.35,731.61 597.35,534.11 705.11,534.11 "/><g class="Dimension" transform="matrix(1,0,0,1,597.3486,534.1119)"><g class="Visual" style="display: none;" transform="matrix(1,0,0,1,0,0)"><g class="DimensionMark" fill="#000000" id="mark1" stroke="none" style="fill-opacity: 1; pointer-events: visible;" transform="matrix(1,0,0,1,53.8814,0)"><polygon points="-5,5,0,0,5,5"/></g><g class="DimensionMark" fill="#000000" id="mark2" stroke="none" style="fill-opacity: 1; pointer-events: visible;" transform="matrix(1,0,0,1,107.7628,98.7491)"><polygon points="-5,-5,0,0,-5,5"/></g><g class="DimensionMark" fill="#000000" id="mark3" stroke="none" style="fill-opacity: 1; pointer-events: visible;" transform="matrix(1,0,0,1,53.8814,197.4982)"><polygon points="-5,-5,0,0,5,-5"/></g><g class="DimensionMark" fill="#000000" id="mark4" stroke="none" style="fill-opacity: 1; pointer-events: visible;" transform="matrix(1,0,0,1,0,98.7491)"><polygon points="5,5,0,0,5,-5"/></g></g><g class="SpaceDimensionsLabel" transform="matrix(1,0,0,1,17.2461,92.0882)"><g class="TextLabel NameLabel" id="NameLabel" style="display: block;"/><g class="TextLabel DimensionMeasureLabel" id="DimensionMeasureLabel" style="display: none;" transform="matrix(1,0,0,1,-116.3359,79.5938)"/></g></g></g><g class="Space Bath Shower" fill="#ffffff" id="7aad9072-823b-474d-b13d-f894dadcd7f0" stroke="#ffffff" style="fill-opacity: 1; stroke-opacity: 1; stroke-width: 1;"><polygon points="729.40,253.22 760.75,253.22 760.75,312.37 579.45,312.37 579.45,83.70 729.40,83.70 "/><g class="Dimension" transform="matrix(1,0,0,1,579.4455,83.6997)"><g class="Visual" style="display: none;" transform="matrix(1,0,0,1,0,0)"><g class="DimensionMark" fill="#0000ff" id="mark1" stroke="none" style="fill-opacity: 1; pointer-events: visible;" transform="matrix(2,0,0,2,90.6544,0)"><polygon points="-5,5,0,0,5,5"/></g><g class="DimensionMark" fill="#0000ff" id="mark2" stroke="none" style="fill-opacity: 1; pointer-events: visible;" transform="matrix(2,0,0,2,149.9581,114.3334)"><polygon points="-5,-5,0,0,-5,5"/></g><g class="DimensionMark" fill="#0000ff" id="mark3" stroke="none" style="fill-opacity: 1; pointer-events: visible;" transform="matrix(2,0,0,2,90.6544,228.6669)"><polygon points="-5,-5,0,0,5,-5"/></g><g class="DimensionMark" fill="#0000ff" id="mark4" stroke="none" style="fill-opacity: 1; pointer-events: visible;" transform="matrix(2,0,0,2,0,114.3334)"><polygon points="5,5,0,0,5,-5"/></g></g><g class="SpaceDimensionsLabel" transform="matrix(1,0,0,1,8.2401,124.2973)"><g class="TextLabel NameLabel" id="NameLabel" style="display: block;"/><g class="TextLabel DimensionMeasureLabel" id="DimensionMeasureLabel" style="display: none;" transform="matrix(1,0,0,1,-117.6641,79.5938)"/></g></g></g><g class="Space Bedroom" fill="#ffffff" id="567e4dfa-060d-467d-861a-70d90ecb5a84" stroke="#ffffff" style="fill-opacity: 1; stroke-opacity: 1; stroke-width: 1;"><polygon points="413.67,459.83 84.78,459.83 84.78,83.70 413.67,83.70 "/><g class="Dimension" transform="matrix(1,0,0,1,84.7836,83.6997)"><g class="Visual" style="display: none;" transform="matrix(1,0,0,1,0,0)"><g class="DimensionMark" fill="#000000" id="mark1" stroke="none" style="fill-opacity: 1; pointer-events: visible;" transform="matrix(1,0,0,1,164.4453,0)"><polygon points="-5,5,0,0,5,5"/></g><g class="DimensionMark" fill="#000000" id="mark2" stroke="none" style="fill-opacity: 1; pointer-events: visible;" transform="matrix(1,0,0,1,328.8906,188.0634)"><polygon points="-5,-5,0,0,-5,5"/></g><g class="DimensionMark" fill="#000000" id="mark3" stroke="none" style="fill-opacity: 1; pointer-events: visible;" transform="matrix(1,0,0,1,164.4453,376.1267)"><polygon points="-5,-5,0,0,5,-5"/></g><g class="DimensionMark" fill="#000000" id="mark4" stroke="none" style="fill-opacity: 1; pointer-events: visible;" transform="matrix(1,0,0,1,0,188.0634)"><polygon points="5,5,0,0,5,-5"/></g></g><g class="SpaceDimensionsLabel" transform="matrix(1,0,0,1,137.8015,189.4239)"><g class="TextLabel NameLabel" id="NameLabel" style="display: block;"/><g class="TextLabel DimensionMeasureLabel" id="DimensionMeasureLabel" style="display: none;" transform="matrix(1,0,0,1,-113.7031,79.5938)"/></g></g></g><g class="Space Kitchen" fill="#ffffff" id="5f2f949d-4352-419c-994a-7797adb7cd95" stroke="#ffffff" style="fill-opacity: 1; stroke-opacity: 1; stroke-width: 1;"><polygon points="413.67,731.61 277.21,731.61 277.21,840.55 228.94,840.55 228.94,900.55 84.78,900.55 84.78,473.83 413.67,473.83 "/><g class="Dimension" transform="matrix(1,0,0,1,84.7836,473.8264)"><g class="Visual" style="display: none;" transform="matrix(1,0,0,1,0,0)"><g class="DimensionMark" fill="#000000" id="mark1" stroke="none" style="fill-opacity: 1; pointer-events: visible;" transform="matrix(1,0,0,1,144.1567,0)"><polygon points="-5,5,0,0,5,5"/></g><g class="DimensionMark" fill="#000000" id="mark2" stroke="none" style="fill-opacity: 1; pointer-events: visible;" transform="matrix(1,0,0,1,328.8906,213.3609)"><polygon points="-5,-5,0,0,-5,5"/></g><g class="DimensionMark" fill="#000000" id="mark3" stroke="none" style="fill-opacity: 1; pointer-events: visible;" transform="matrix(1,0,0,1,144.1567,426.7219)"><polygon points="-5,-5,0,0,5,-5"/></g><g class="DimensionMark" fill="#000000" id="mark4" stroke="none" style="fill-opacity: 1; pointer-events: visible;" transform="matrix(1,0,0,1,0,213.3609)"><polygon points="5,5,0,0,5,-5"/></g></g><g class="SpaceDimensionsLabel" transform="matrix(1,0,0,1,131.5661,138.2271)"><g class="TextLabel NameLabel" id="NameLabel" style="display: block;"/><g class="TextLabel DimensionMeasureLabel" id="DimensionMeasureLabel" style="display: none;" transform="matrix(1,0,0,1,-128.5078,79.5938)"/></g></g></g><g class="Space Undefined" fill="#ffffff" id="f21e8778-0b1b-427f-ae53-c77aef0405bd" stroke="#ffffff" style="fill-opacity: 1; stroke-opacity: 1; stroke-width: 1;"><polygon points="1207.01,731.61 719.11,731.61 719.11,534.11 774.75,534.11 774.75,431.77 1207.01,431.77 "/><g class="Dimension" transform="matrix(1,0,0,1,719.1114,431.7654)"><g class="Visual" style="display: none;" transform="matrix(1,0,0,1,0,0)"><g class="DimensionMark" fill="#000000" id="mark1" stroke="none" style="fill-opacity: 1; pointer-events: visible;" transform="matrix(1,0,0,1,243.9499,0)"><polygon points="-5,5,0,0,5,5"/></g><g class="DimensionMark" fill="#000000" id="mark2" stroke="none" style="fill-opacity: 1; pointer-events: visible;" transform="matrix(1,0,0,1,487.8999,149.9224)"><polygon points="-5,-5,0,0,-5,5"/></g><g class="DimensionMark" fill="#000000" id="mark3" stroke="none" style="fill-opacity: 1; pointer-events: visible;" transform="matrix(1,0,0,1,243.9499,299.8447)"><polygon points="-5,-5,0,0,5,-5"/></g><g class="DimensionMark" fill="#000000" id="mark4" stroke="none" style="fill-opacity: 1; pointer-events: visible;" transform="matrix(1,0,0,1,0,149.9224)"><polygon points="5,5,0,0,5,-5"/></g></g><g class="SpaceDimensionsLabel" transform="matrix(1,0,0,1,176.23,155.9976)"><g class="TextLabel NameLabel" id="NameLabel" style="display: block;"/><g class="TextLabel DimensionMeasureLabel" id="DimensionMeasureLabel" style="display: none;" transform="matrix(1,0,0,1,-40.5313,79.5938)"/></g></g></g><g class="Space Undefined" fill="#ffffff" id="1989850a-3043-4d63-90cf-ba8b7a5fdcbd" stroke="#ffffff" style="fill-opacity: 1; stroke-opacity: 1; stroke-width: 1;"><polygon points="565.45,312.22 427.67,312.22 427.67,83.70 565.45,83.70 "/><g class="Dimension" transform="matrix(1,0,0,1,427.6743,83.6997)"><g class="Visual" style="display: none;" transform="matrix(1,0,0,1,0,0)"><g class="DimensionMark" fill="#000000" id="mark1" stroke="none" style="fill-opacity: 1; pointer-events: visible;" transform="matrix(1,0,0,1,68.8856,0)"><polygon points="-5,5,0,0,5,5"/></g><g class="DimensionMark" fill="#000000" id="mark2" stroke="none" style="fill-opacity: 1; pointer-events: visible;" transform="matrix(1,0,0,1,137.7712,114.2603)"><polygon points="-5,-5,0,0,-5,5"/></g><g class="DimensionMark" fill="#000000" id="mark3" stroke="none" style="fill-opacity: 1; pointer-events: visible;" transform="matrix(1,0,0,1,68.8856,228.5206)"><polygon points="-5,-5,0,0,5,-5"/></g><g class="DimensionMark" fill="#000000" id="mark4" stroke="none" style="fill-opacity: 1; pointer-events: visible;" transform="matrix(1,0,0,1,0,114.2603)"><polygon points="5,5,0,0,5,-5"/></g></g><g class="SpaceDimensionsLabel" transform="matrix(1,0,0,1,68.8856,68.8856)"><g class="TextLabel NameLabel" id="NameLabel" style="display: block;"/><g class="TextLabel DimensionMeasureLabel" id="DimensionMeasureLabel" style="display: none;" transform="matrix(1,0,0,1,-40.5313,79.5938)"/></g></g></g><g class="Space Undefined" fill="#ffffff" id="19bba4b7-e11e-47b7-a698-fb0154044c20" stroke="#ffffff" style="fill-opacity: 1; stroke-opacity: 1; stroke-width: 1;"><polygon points="1207.01,417.77 760.75,417.77 760.75,326.37 774.75,326.37 774.75,83.70 1207.01,83.70 "/><g class="Dimension" transform="matrix(1,0,0,1,774.7542,83.6997)"><g class="Visual" style="display: none;" transform="matrix(1,0,0,1,0,0)"><g class="DimensionMark" fill="#000000" id="mark1" stroke="none" style="fill-opacity: 1; pointer-events: visible;" transform="matrix(1,0,0,1,209.1285,0)"><polygon points="-5,5,0,0,5,5"/></g><g class="DimensionMark" fill="#000000" id="mark2" stroke="none" style="fill-opacity: 1; pointer-events: visible;" transform="matrix(1,0,0,1,432.2571,167.0328)"><polygon points="-5,-5,0,0,-5,5"/></g><g class="DimensionMark" fill="#000000" id="mark3" stroke="none" style="fill-opacity: 1; pointer-events: visible;" transform="matrix(1,0,0,1,209.1285,334.0657)"><polygon points="-5,-5,0,0,5,-5"/></g><g class="DimensionMark" fill="#000000" id="mark4" stroke="none" style="fill-opacity: 1; pointer-events: visible;" transform="matrix(1,0,0,1,0,167.0328)"><polygon points="5,5,0,0,5,-5"/></g></g><g class="SpaceDimensionsLabel" transform="matrix(1,0,0,1,189.806,166.0201)"><g class="TextLabel NameLabel" id="NameLabel" style="display: block;"/><g class="TextLabel DimensionMeasureLabel" id="DimensionMeasureLabel" style="display: none;" transform="matrix(1,0,0,1,-40.5313,79.5938)"/></g></g></g><g class="Space Entry Lobby" fill="#ffffff" id="340c6db9-f89a-4230-a74d-7ae7d7c30833" stroke="#ffffff" style="fill-opacity: 1; stroke-opacity: 1; stroke-width: 1;"><polygon points="565.45,312.37 427.67,312.37 427.67,326.37 760.75,326.37 760.75,520.11 545.46,520.11 545.46,534.11 583.35,534.11 583.35,731.61 427.67,731.61 427.67,312.22 565.45,312.22 "/><g class="Dimension" transform="matrix(1,0,0,1,427.6743,326.3666)"><g class="Visual" style="display: none;" transform="matrix(1,0,0,1,0,0)"><g class="DimensionMark" fill="#000000" id="mark1" stroke="none" style="fill-opacity: 1; pointer-events: visible;" transform="matrix(1,0,0,1,155.6743,0)"><polygon points="-5,5,0,0,5,5"/></g><g class="DimensionMark" fill="#000000" id="mark2" stroke="none" style="fill-opacity: 1; pointer-events: visible;" transform="matrix(1,0,0,1,333.0799,193.7453)"><polygon points="-5,-5,0,0,-5,5"/></g><g class="DimensionMark" fill="#000000" id="mark3" stroke="none" style="fill-opacity: 1; pointer-events: visible;" transform="matrix(1,0,0,1,155.6743,405.2435)"><polygon points="-5,-5,0,0,5,-5"/></g><g class="DimensionMark" fill="#000000" id="mark4" stroke="none" style="fill-opacity: 1; pointer-events: visible;" transform="matrix(1,0,0,1,0,193.7453)"><polygon points="5,5,0,0,5,-5"/></g></g><g class="SpaceDimensionsLabel" transform="matrix(1,0,0,1,41.5366,222.6408)"><g class="TextLabel NameLabel" id="NameLabel" style="display: block;"/><g class="TextLabel DimensionMeasureLabel" id="DimensionMeasureLabel" style="display: none;" transform="matrix(1,0,0,1,-119.0781,79.5938)"/></g></g></g><g class="Space Outdoor" fill="#ffffff" id="fcca594a-e675-4391-95c1-3473f24e6adf" stroke="#000000" style="stroke-width: 1; fill-opacity: 1; stroke-opacity: 1;"><polygon points="1237.01,731.61 1416.77,731.61 1416.77,83.70 1237.01,83.70 1237.01,731.61 1237.01,731.61 "/><g class="Dimension" transform="matrix(1,0,0,1,1237.0113,83.6997)"><g class="Visual" style="display: none;" transform="matrix(1,0,0,1,0,0)"><g class="DimensionMark" fill="#000000" id="mark1" stroke="none" style="fill-opacity: 1; pointer-events: visible;" transform="matrix(1,0,0,1,89.8777,0)"><polygon points="-5,5,0,0,5,5"/></g><g class="DimensionMark" fill="#000000" id="mark2" stroke="none" style="fill-opacity: 1; pointer-events: visible;" transform="matrix(1,0,0,1,179.7553,323.9552)"><polygon points="-5,-5,0,0,-5,5"/></g><g class="DimensionMark" fill="#000000" id="mark3" stroke="none" style="fill-opacity: 1; pointer-events: visible;" transform="matrix(1,0,0,1,89.8777,647.9104)"><polygon points="-5,-5,0,0,5,-5"/></g><g class="DimensionMark" fill="#000000" id="mark4" stroke="none" style="fill-opacity: 1; pointer-events: visible;" transform="matrix(1,0,0,1,0,323.9552)"><polygon points="5,5,0,0,5,-5"/></g></g><g class="SpaceDimensionsLabel" transform="matrix(1,0,0,1,89.8776,449.3883)"><g class="TextLabel NameLabel" id="NameLabel" style="display: block;"/><g class="TextLabel DimensionMeasureLabel" id="DimensionMeasureLabel" style="display: none;" transform="matrix(1,0,0,1,-56.5313,79.5938)"/></g></g></g><g class="Wall External" fill="#000000" id="Wall" stroke="#000000" style="fill-opacity: 1; stroke-opacity: 1; stroke-width: 1;"><polygon points="45.78,66.70 1237.01,66.70 1207.01,83.70 84.78,83.70 "/></g><g class="Wall External" fill="#000000" id="Wall" stroke="#000000" style="fill-opacity: 1; stroke-opacity: 1; stroke-width: 1;"><polygon points="1237.01,66.70 1237.01,748.61 1207.01,731.61 1207.01,83.70 "/><g class="Door Swing Opposite" fill="#ffffff" id="Door" stroke="#000000" style="fill-opacity: 1; stroke-width: 1; stroke-opacity: 1;"><polygon points="1237.01,304.90 1237.01,401.48 1207.01,401.48 1207.01,304.90 "/><g class="Panel Left Negative" fill="none" id="Panel" style=""><g class="PanelArea" fill="none" id="PanelArea" stroke="none" style=""><polygon points="1237.01,304.90 1237.01,401.48 1207.01,401.48 1207.01,304.90 "/></g><path d="M1237.01,304.90 q96.58,0.00 96.58,96.58 l-96.58,0.00Z"/></g><g class="Panel Right Positive" fill="none" id="Panel" style=""><g class="PanelArea" fill="none" id="PanelArea" stroke="none" style=""><polygon points="1237.01,304.90 1237.01,401.48 1207.01,401.48 1207.01,304.90 "/></g><path d="M1207.01,304.90 q-96.58,0.00 -96.58,96.58 l96.58,0.00Z"/></g></g><g class="Window Regular" fill="#f0f0ff" id="Window" stroke="#000000" style="fill-opacity: 1; stroke-width: 1; stroke-opacity: 1;"><polygon points="1237.01,471.72 1237.01,633.76 1207.01,633.76 1207.01,471.72 "/><g class="Glass" id="Glass"><polygon points="1237.01,471.72 1237.01,633.76 1207.01,633.76 1207.01,471.72 "/></g><g class="Panel" id="Panel"><line x1="1222.010009765625" x2="1222.010009765625" y1="479.2200012207031" y2="626.260009765625"/><line x1="1237.010009765625" x2="1207.010009765625" y1="479.2200012207031" y2="479.2200012207031"/><line x1="1237.010009765625" x2="1207.010009765625" y1="626.260009765625" y2="626.260009765625"/></g></g><g class="Window Regular" fill="#f0f0ff" id="Window" stroke="#000000" style="fill-opacity: 1; stroke-width: 1; stroke-opacity: 1;"><polygon points="1237.01,111.04 1237.01,299.37 1207.01,299.37 1207.01,111.04 "/><g class="Glass" id="Glass"><polygon points="1237.01,111.04 1237.01,299.37 1207.01,299.37 1207.01,111.04 "/></g><g class="Panel" id="Panel"><line x1="1222.010009765625" x2="1222.010009765625" y1="118.54000091552734" y2="291.8699951171875"/><line x1="1237.010009765625" x2="1207.010009765625" y1="118.54000091552734" y2="118.54000091552734"/><line x1="1237.010009765625" x2="1207.010009765625" y1="291.8699951171875" y2="291.8699951171875"/></g></g></g><g class="Wall External" fill="#000000" id="Wall" stroke="#000000" style="fill-opacity: 1; stroke-opacity: 1; stroke-width: 1;"><polygon points="1237.01,748.61 294.21,748.61 277.21,731.61 1207.01,731.61 "/><g class="Door Swing Opposite" fill="#ffffff" id="Door" stroke="#000000" style="fill-opacity: 1; stroke-width: 1; stroke-opacity: 1;"><polygon points="534.43,748.61 449.82,748.61 449.82,731.61 534.43,731.61 "/><g class="Panel Left Negative" fill="none" id="Panel" style=""><g class="PanelArea" fill="none" id="PanelArea" stroke="none" style=""><polygon points="534.43,748.61 449.82,748.61 449.82,731.61 534.43,731.61 "/></g><path d="M534.43,748.61 q0.00,84.61 -84.61,84.61 l0.00,-84.61Z"/></g><g class="Panel Right Positive" fill="none" id="Panel" style=""><g class="PanelArea" fill="none" id="PanelArea" stroke="none" style=""><polygon points="534.43,748.61 449.82,748.61 449.82,731.61 534.43,731.61 "/></g><path d="M534.43,731.61 q0.00,-84.61 -84.61,-84.61 l0.00,84.61Z"/></g></g></g><g class="Wall External" fill="#000000" id="Wall" stroke="#000000" style="fill-opacity: 1; stroke-opacity: 1; stroke-width: 1;"><polygon points="277.21,731.61 277.21,900.55 294.21,917.55 294.21,748.61 "/></g><g class="Wall External" fill="#000000" id="Wall" stroke="#000000" style="fill-opacity: 1; stroke-opacity: 1; stroke-width: 1;"><polygon points="277.21,900.55 84.78,900.55 45.78,917.55 294.21,917.55 "/></g><g class="Wall External" fill="#000000" id="Wall" stroke="#000000" style="fill-opacity: 1; stroke-opacity: 1; stroke-width: 1;"><polygon points="45.78,917.55 45.78,66.70 84.78,83.70 84.78,900.55 "/><g class="Window Regular" fill="#f0f0ff" id="Window" stroke="#000000" style="fill-opacity: 1; stroke-width: 1; stroke-opacity: 1;"><polygon points="45.78,396.94 45.78,243.85 84.78,243.85 84.78,396.94 "/><g class="Glass" id="Glass"><polygon points="45.78,396.94 45.78,243.85 84.78,243.85 84.78,396.94 "/></g><g class="Panel" id="Panel"><line x1="65.27999877929688" x2="65.27999877929688" y1="389.44000244140625" y2="251.35000610351562"/><line x1="45.779998779296875" x2="84.77999877929688" y1="389.44000244140625" y2="389.44000244140625"/><line x1="45.779998779296875" x2="84.77999877929688" y1="251.35000610351562" y2="251.35000610351562"/></g></g><g class="Window Regular" fill="#f0f0ff" id="Window" stroke="#000000" style="fill-opacity: 1; stroke-width: 1; stroke-opacity: 1;"><polygon points="45.78,824.66 45.78,505.63 84.78,505.63 84.78,824.66 "/><g class="Glass" id="Glass"><polygon points="45.78,824.66 45.78,505.63 84.78,505.63 84.78,824.66 "/></g><g class="Panel" id="Panel"><line x1="65.27999877929688" x2="65.27999877929688" y1="817.1599731445312" y2="513.1300048828125"/><line x1="45.779998779296875" x2="84.77999877929688" y1="817.1599731445312" y2="817.1599731445312"/><line x1="45.779998779296875" x2="84.77999877929688" y1="513.1300048828125" y2="513.1300048828125"/></g></g></g><g class="Wall" fill="#000000" id="Wall" stroke="#000000" style="fill-opacity: 1; stroke-opacity: 1; stroke-width: 1;"><polygon points="84.78,459.83 413.67,459.83 427.67,473.83 84.78,473.83 "/></g><g class="Wall" fill="#000000" id="Wall" stroke="#000000" style="fill-opacity: 1; stroke-opacity: 1; stroke-width: 1;"><polygon points="427.67,459.83 427.67,748.61 413.67,748.61 413.67,459.83 "/><g class="Door Swing Beside" fill="#ffffff" id="Door" stroke="#000000" style="fill-opacity: 1; stroke-width: 1; stroke-opacity: 1;"><polygon points="427.67,485.09 427.67,565.65 413.67,565.65 413.67,485.09 "/><g class="Panel Left Positive" fill="none" id="Panel" style=""><g class="PanelArea" fill="none" id="PanelArea" stroke="none" style=""><polygon points="427.67,485.09 427.67,565.65 413.67,565.65 413.67,485.09 "/></g><path d="M413.67,565.65 q-80.56,0.00 -80.56,-80.56 l80.56,0.00Z"/></g></g></g><g class="Wall" fill="#000000" id="Wall" stroke="#000000" style="fill-opacity: 1; stroke-opacity: 1; stroke-width: 1;"><polygon points="1207.01,417.77 760.75,417.77 774.75,431.77 1207.01,431.77 "/></g><g class="Wall" fill="#000000" id="Wall" stroke="#000000" style="fill-opacity: 1; stroke-opacity: 1; stroke-width: 1;"><polygon points="760.75,417.77 760.75,520.11 774.75,534.11 774.75,431.77 "/><g class="Door Swing Beside" fill="#ffffff" id="Door" stroke="#000000" style="fill-opacity: 1; stroke-width: 1; stroke-opacity: 1;"><polygon points="760.75,434.46 760.75,517.83 774.75,517.83 774.75,434.46 "/><g class="Panel Left Negative" fill="none" id="Panel" style=""><g class="PanelArea" fill="none" id="PanelArea" stroke="none" style=""><polygon points="760.75,434.46 760.75,517.83 774.75,517.83 774.75,434.46 "/></g><path d="M760.75,434.46 q-83.37,0.00 -83.37,83.37 l83.37,0.00Z"/></g></g></g><g class="Wall" fill="#000000" id="Wall" stroke="#000000" style="fill-opacity: 1; stroke-opacity: 1; stroke-width: 1;"><polygon points="774.75,534.11 545.46,534.11 545.46,520.11 760.75,520.11 "/><g class="Door Swing Beside" fill="#ffffff" id="Door" stroke="#000000" style="fill-opacity: 1; stroke-width: 1; stroke-opacity: 1;"><polygon points="680.78,534.11 603.31,534.11 603.31,520.11 680.78,520.11 "/><g class="Panel Right Positive" fill="none" id="Panel" style=""><g class="PanelArea" fill="none" id="PanelArea" stroke="none" style=""><polygon points="680.78,534.11 603.31,534.11 603.31,520.11 680.78,520.11 "/></g><path d="M680.78,520.11 q0.00,-77.47 -77.47,-77.47 l0.00,77.47Z"/></g></g></g><g class="Wall" fill="#000000" id="Wall" stroke="#000000" style="fill-opacity: 1; stroke-opacity: 1; stroke-width: 1;"><polygon points="597.35,520.11 597.35,748.61 583.35,748.61 583.35,520.11 "/></g><g class="Wall" fill="#000000" id="Wall" stroke="#000000" style="fill-opacity: 1; stroke-opacity: 1; stroke-width: 1;"><polygon points="719.11,520.11 719.11,748.61 705.11,748.61 705.11,520.11 "/></g><g class="Wall" fill="#000000" id="Wall" stroke="#000000" style="fill-opacity: 1; stroke-opacity: 1; stroke-width: 1;"><polygon points="413.67,83.70 413.67,459.83 427.67,473.83 427.67,83.70 "/><g class="Door Swing Beside" fill="#ffffff" id="Door" stroke="#000000" style="fill-opacity: 1; stroke-width: 1; stroke-opacity: 1;"><polygon points="413.67,330.74 413.67,403.61 427.67,403.61 427.67,330.74 "/><g class="Panel Left Positive" fill="none" id="Panel" style=""><g class="PanelArea" fill="none" id="PanelArea" stroke="none" style=""><polygon points="413.67,330.74 413.67,403.61 427.67,403.61 427.67,330.74 "/></g><path d="M427.67,403.61 q72.87,0.00 72.87,-72.87 l-72.87,0.00Z"/></g></g></g><g class="Wall" fill="#000000" id="Wall" stroke="#000000" style="fill-opacity: 1; stroke-opacity: 1; stroke-width: 1;"><polygon points="427.67,326.37 774.75,326.37 760.75,312.37 427.67,312.37 "/><g class="Door Swing Beside" fill="#ffffff" id="Door" stroke="#000000" style="fill-opacity: 1; stroke-width: 1; stroke-opacity: 1;"><polygon points="584.28,326.37 658.46,326.37 658.46,312.37 584.28,312.37 "/><g class="Panel Left Negative" fill="none" id="Panel" style=""><g class="PanelArea" fill="none" id="PanelArea" stroke="none" style=""><polygon points="584.28,326.37 658.46,326.37 658.46,312.37 584.28,312.37 "/></g><path d="M584.28,326.37 q0.00,74.18 74.18,74.18 l0.00,-74.18Z"/></g></g></g><g class="Wall" fill="#000000" id="Wall" stroke="#000000" style="fill-opacity: 1; stroke-opacity: 1; stroke-width: 1;"><polygon points="760.75,312.37 760.75,83.70 774.75,83.70 774.75,326.37 "/></g><g class="Wall" fill="#000000" id="Wall" stroke="#000000" style="fill-opacity: 1; stroke-opacity: 1; stroke-width: 1;"><polygon points="565.45,83.70 565.45,326.37 579.45,326.37 579.45,83.70 "/><g class="Door Swing Beside" fill="#ffffff" id="Door" stroke="#000000" style="fill-opacity: 1; stroke-width: 1; stroke-opacity: 1;"><polygon points="565.45,238.03 565.45,306.96 579.45,306.96 579.45,238.03 "/><g class="Panel Left Positive" fill="none" id="Panel" style=""><g class="PanelArea" fill="none" id="PanelArea" stroke="none" style=""><polygon points="565.45,238.03 565.45,306.96 579.45,306.96 579.45,238.03 "/></g><path d="M579.45,306.96 q68.93,0.00 68.93,-68.93 l-68.93,0.00Z"/></g></g></g><g class="Wall" fill="#000000" id="Wall" stroke="#000000" style="fill-opacity: 1; stroke-opacity: 1; stroke-width: 1;"><polygon points="1237.01,66.70 1428.77,66.70 1428.77,83.70 1237.01,83.70 "/></g><g class="Wall" fill="#000000" id="Wall" stroke="#000000" style="fill-opacity: 1; stroke-opacity: 1; stroke-width: 1;"><polygon points="1237.01,748.61 1428.77,748.61 1428.77,731.61 1237.01,731.61 "/></g><g class="Wall" fill="#000000" id="Wall" stroke="#000000" style="fill-opacity: 1; stroke-opacity: 1; stroke-width: 1;"><polygon points="228.94,900.55 228.94,840.55 240.94,903.68 240.94,900.55 "/></g><g class="Wall" fill="#000000" id="Wall" stroke="#000000" style="fill-opacity: 1; stroke-opacity: 1; stroke-width: 1;"><polygon points="228.94,840.55 277.21,840.55 277.21,903.68 240.94,903.68 "/></g><g class="Wall" fill="#000000" id="Wall" stroke="#000000" style="fill-opacity: 1; stroke-opacity: 1; stroke-width: 1;"><polygon points="729.40,83.70 729.40,253.22 766.94,241.22 766.94,83.70 "/></g><g class="Wall" fill="#000000" id="Wall" stroke="#000000" style="fill-opacity: 1; stroke-opacity: 1; stroke-width: 1;"><polygon points="729.40,253.22 774.75,253.22 774.75,241.22 766.94,241.22 "/></g><g class="Railing" fill="#ffffff" id="Railing" stroke="#000000" style="fill-opacity: 1; stroke-opacity: 1; stroke-width: 1;"><polygon points="1428.77,731.61 1428.77,83.70 1416.77,83.70 1416.77,731.61 "/></g><g class="FixedFurnitureSet" id="FixedFurnitureSet" style="" transform="matrix(-1,0,0,-1,413.6743,459.4358)"><g class="FixedFurniture Closet" fill="#ffffff" stroke="#000000" style="fill-opacity: 1; stroke-opacity: 1;" transform="matrix(1,0,0,1,0,0)">
<g class="BoundaryPolygon">
<polygon points="0.00,0.00 56.90,0.00 56.90,52.30 0.00,52.30 "/>
</g>
<g class="Direction" fill-opacity="0.9" style="display: none;">
<polygon fill="#444444" points="29.88,47.68 29.88,37.06 26.87,37.06 26.87,47.68 23.07,47.68 28.37,52.98 33.68,47.68 29.88,47.68 "/>
</g>
<g class="Name" fill-opacity="0.9" style="display: none;">

</g>
<desc>Width:60 Height:200 Depth:60 Elevation:0</desc>
</g><g class="FixedFurniture Closet" fill="#ffffff" stroke="#000000" style="fill-opacity: 1; stroke-opacity: 1;" transform="matrix(1,0,0,1,56.9009,0)">
<g class="BoundaryPolygon">
<polygon points="0.00,0.00 56.90,0.00 56.90,52.30 0.00,52.30 "/>
</g>
<g class="Direction" fill-opacity="0.9" style="display: none;">
<polygon fill="#444444" points="29.88,47.68 29.88,37.06 26.87,37.06 26.87,47.68 23.07,47.68 28.37,52.98 33.68,47.68 29.88,47.68 "/>
</g>
<g class="Name" fill-opacity="0.9" style="display: none;">

</g>
<desc>Width:60 Height:200 Depth:60 Elevation:0</desc>
</g><g class="FixedFurniture Closet" fill="#ffffff" stroke="#000000" style="fill-opacity: 1; stroke-opacity: 1;" transform="matrix(1,0,0,1,113.8019,0)">
<g class="BoundaryPolygon">
<polygon points="0.00,0.00 56.90,0.00 56.90,52.30 0.00,52.30 "/>
</g>
<g class="Direction" fill-opacity="0.9" style="display: none;">
<polygon fill="#444444" points="29.88,47.68 29.88,37.06 26.87,37.06 26.87,47.68 23.07,47.68 28.37,52.98 33.68,47.68 29.88,47.68 "/>
</g>
<g class="Name" fill-opacity="0.9" style="display: none;">

</g>
<desc>Width:60 Height:200 Depth:60 Elevation:0</desc>
</g></g><g class="FixedFurnitureSet" id="FixedFurnitureSet" style="" transform="matrix(0,1,-1,0,413.6743,611.6101)"><g class="FixedFurniture Closet" fill="#ffffff" stroke="#000000" style="fill-opacity: 1; stroke-opacity: 1;" transform="matrix(1,0,0,1,0,0)">
<g class="BoundaryPolygon">
<polygon points="0,0 60,0 60,60 0,60"/>
</g>
<g class="Direction" fill-opacity="0.9" style="display: none;">
<polygon fill="#444444" points="31.509 54.697 31.509 44.081 28.5 44.081 28.5 54.697 24.697 54.697 30 60 35.303 54.697 31.509 54.697"/>
</g>
<g class="Name" fill-opacity="0.9" style="display: none;">

</g>
<desc>Width:60 Height:200 Depth:60 Elevation:0</desc>
</g><g class="FixedFurniture Closet" fill="#ffffff" stroke="#000000" style="fill-opacity: 1; stroke-opacity: 1;" transform="matrix(1,0,0,1,60,0)">
<g class="BoundaryPolygon">
<polygon points="0 0 60 0 60 60 0 60"/>
</g>
<g class="Direction" fill-opacity="0.9" style="display: none;">
<polygon fill="#444444" points="31.509 54.697 31.509 44.081 28.5 44.081 28.5 54.697 24.697 54.697 30 60 35.303 54.697 31.509 54.697"/>
</g>
<g class="Name" fill-opacity="0.9" style="display: none;">

</g>
<desc>Width:60 Height:200 Depth:60 Elevation:0</desc>
</g></g><g class="FixedFurnitureSet" id="FixedFurnitureSet" style="" transform="matrix(0,-1,1,0,719.1583,731.6101)"><g class="FixedFurniture Closet" fill="#ffffff" stroke="#000000" style="fill-opacity: 1; stroke-opacity: 1;" transform="matrix(1,0,0,1,0,0)">
<g class="BoundaryPolygon">
<polygon points="0.00,0.00 65.84,0.00 65.84,55.81 0.00,55.81 "/>
</g>
<g class="Direction" fill-opacity="0.9" style="display: none;">
<polygon fill="#444444" points="34.58,50.87 34.58,40.26 31.57,40.26 31.57,50.87 27.76,50.87 33.07,56.18 38.37,50.87 34.58,50.87 "/>
</g>
<g class="Name" fill-opacity="0.9" style="display: none;">

</g>
<desc>Width:60 Height:200 Depth:60 Elevation:0</desc>
</g><g class="FixedFurniture Closet" fill="#ffffff" stroke="#000000" style="fill-opacity: 1; stroke-opacity: 1;" transform="matrix(1,0,0,1,65.8413,0)">
<g class="BoundaryPolygon">
<polygon points="0.00,0.00 65.84,0.00 65.84,55.81 0.00,55.81 "/>
</g>
<g class="Direction" fill-opacity="0.9" style="display: none;">
<polygon fill="#444444" points="34.58,50.87 34.58,40.26 31.57,40.26 31.57,50.87 27.76,50.87 33.07,56.18 38.37,50.87 34.58,50.87 "/>
</g>
<g class="Name" fill-opacity="0.9" style="display: none;">

</g>
<desc>Width:60 Height:200 Depth:60 Elevation:0</desc>
</g><g class="FixedFurniture Closet" fill="#ffffff" stroke="#000000" style="fill-opacity: 1; stroke-opacity: 1;" transform="matrix(1,0,0,1,131.6825,0)">
<g class="BoundaryPolygon">
<polygon points="0.00,0.00 65.84,0.00 65.84,55.81 0.00,55.81 "/>
</g>
<g class="Direction" fill-opacity="0.9" style="display: none;">
<polygon fill="#444444" points="34.58,50.87 34.58,40.26 31.57,40.26 31.57,50.87 27.76,50.87 33.07,56.18 38.37,50.87 34.58,50.87 "/>
</g>
<g class="Name" fill-opacity="0.9" style="display: none;">

</g>
<desc>Width:60 Height:200 Depth:60 Elevation:0</desc>
</g></g><g class="FixedFurnitureSet" id="FixedFurnitureSet" style="" transform="matrix(0,1,-1,0,729.4036,200.2948)"><g class="FixedFurniture BaseCabinet" fill="#ffffff" stroke="#000000" style="fill-opacity: 1; stroke-opacity: 1;" transform="matrix(1,0,0,1,0,0)">
<g class="BoundaryPolygon">
<polygon points="0.00,0.00 52.27,0.00 52.27,50.73 0.00,50.73 "/>
</g>
<g class="Direction" fill-opacity="0.9" style="display: none;">
<polygon fill="#444444" points="27.89,46.67 27.89,36.05 24.88,36.05 24.88,46.67 21.08,46.67 26.38,51.47 31.68,46.67 27.89,46.67 "/>
</g>
<g class="Name" fill-opacity="0.9" style="display: none;">

</g>
<desc>Width:60 Height:5 Depth:60 Elevation:105</desc>
</g><g class="FixedFurniture Sink" fill="#ffffff" stroke="#000000" style="fill-opacity: 1; stroke-opacity: 1;" transform="matrix(1,0,0,1,0,0)">
<g class="BoundaryPolygon" fill="none" stroke="none">
<polygon points="0.00,0.00 52.27,0.00 52.27,50.73 0.00,50.73 "/>
</g>
<g class="InnerPolygon">
<polygon points="4.36,9.70 47.92,9.70 47.92,46.25 4.36,46.25 "/>
</g>
<g class="OuterDrain" stroke-width="0.8">
<circle cx="26.137372332837913" cy="27.22499605980856" r="3.5"/>
</g>
<g class="InnerDrain" stroke-width="0.8">
<circle cx="26.137372332837913" cy="27.22499605980856" r="2"/>
</g>
<g class="Faucet">
<polygon points="23.52,4.23 29.52,4.23 29.52,18.23 23.52,18.23 "/>
</g>
<g class="Direction" fill-opacity="0.9" style="display: none;">
<polygon fill="#444444" points="27.89,46.67 27.89,36.05 24.88,36.05 24.88,46.67 21.08,46.67 26.38,51.47 31.68,46.67 27.89,46.67 "/>
</g>
<g class="Name" fill-opacity="0.9" style="display: none;">

</g>
<desc>Width:60 Height:90 Depth:60 Elevation:0</desc>
</g></g><g class="FixedFurniture ElectricalAppliance Refrigerator" fill="#ffffff" stroke="#000000" style="fill-opacity: 1; stroke-opacity: 1;" transform="matrix(0,1,-1,0,277.1051,732.0488)">
<g class="BoundaryPolygon">
<polygon points="0,0 60,0 60,60 0,60"/>
</g>
<g class="electricitySign" fill="none">
<path d="M0,0,30,37.1v-18L60,56.3"/>
</g>
<g class="Doors">
<rect height="4" width="60" y="56"/>
</g>
<g class="Direction" fill-opacity="0.9" style="display: none;">
<polygon fill="#444444" points="32.009 55.197 32.009 44.581 29 44.581 29 55.197 25.197 55.197 30.5 60 35.803 55.197 32.009 55.197"/>
</g>
<g class="Name" fill-opacity="0.9" style="display: none;">

</g>
<desc>Width:60 Height:170 Depth:60 Elevation:0</desc>
</g><g class="FixedFurniture BaseCabinet" fill="#ffffff" stroke="#000000" style="fill-opacity: 1; stroke-opacity: 1;" transform="matrix(-1,0,0,-1,228.9427,900.5483)">
<g class="BoundaryPolygon">
<polygon points="0.00,0.00 143.69,0.00 143.69,60.00 0.00,60.00 "/>
</g>
<g class="Direction" fill-opacity="0.9" style="display: none;">
<polygon fill="#444444" points="76.66,55.20 76.66,44.58 73.65,44.58 73.65,55.20 69.85,55.20 75.15,60.00 80.45,55.20 76.66,55.20 "/>
</g>
<g class="Name" fill-opacity="0.9" style="display: none;">

</g>
<desc>Width:60 Height:90 Depth:60 Elevation:0</desc>
</g><g class="FixedFurniture DoubleSink" fill="#ffffff" stroke="#000000" style="fill-opacity: 1; stroke-opacity: 1;" transform="matrix(-1,0,0,-1,158.9604,900.5483)">
<g class="BoundaryPolygon" fill="none" stroke="none">
<polygon points="0.00,0.00 73.71,0.00 73.71,60.00 0.00,60.00 "/>
</g>
<g class="InnerPolygonLeft">
<polygon points="5.27,9.90 35.28,9.90 35.28,54.90 5.27,54.90 "/>
</g>
<g class="InnerPolygonRight">
<polygon points="38.44,10.00 68.45,10.00 68.45,55.00 38.44,55.00 "/>
</g>
<g class="OuterDrain" stroke-width="0.8">
<circle cx="20.745033059576727" cy="32.5" r="3.5"/>
<circle cx="52.8629776442006" cy="32.5" r="3.5"/>
</g>
<g class="InnerDrain" stroke-width="0.8">
<circle cx="20.745033059576727" cy="32.5" r="2"/>
<circle cx="52.8629776442006" cy="32.5" r="2"/>
</g>
<g class="Faucet">
<polygon points="33.70,4.90 39.70,4.90 39.70,18.90 33.70,18.90 "/>
</g>
<g class="Direction" fill-opacity="0.9" style="display: none;">
<polygon fill="#444444" points="38.45,54.70 38.45,44.08 35.44,44.08 35.44,54.70 31.63,54.70 36.94,60.00 42.24,54.70 38.45,54.70 "/>
</g>
<g class="Name" fill-opacity="0.9" style="display: none;">

</g>
<desc>Width:70 Height:90 Depth:60 Elevation:0</desc>
</g><g class="FixedFurniture ElectricalAppliance Stove" fill="#ffffff" stroke="#000000" style="fill-opacity: 1; stroke-opacity: 1;" transform="matrix(0,1,-1,0,277.2145,792.0488)">
<g class="BoundaryPolygon">
<polygon points="0.00,0.00 48.29,0.00 48.29,60.00 0.00,60.00 "/>
</g>
<g class="InnerPolygon">
<polygon points="2.00,2.00 46.68,2.00 46.68,58.00 2.00,58.00 2.00,2.00 "/>
</g>
<g class="OuterCircle">
<circle cx="12.877006501642397" cy="16" r="8"/>
<circle cx="35.411767879516596" cy="16" r="8"/>
<circle cx="12.877006501642397" cy="43.9" r="8"/>
<circle cx="35.411767879516596" cy="44" r="8"/>
</g>
<g class="InnerCircle">
<circle cx="12.877006501642397" cy="16" r="6"/>
<circle cx="35.411767879516596" cy="16" r="6"/>
<circle cx="12.877006501642397" cy="43.9" r="6"/>
<circle cx="35.411767879516596" cy="44.1" r="6"/>
</g>
<g class="Direction" fill-opacity="0.9" style="display: none;">
<polygon fill="#444444" points="25.76,55.20 25.76,44.58 22.75,44.58 22.75,55.20 18.95,55.20 24.25,60.00 29.56,55.20 25.76,55.20 "/>
</g>
<g class="Name" fill-opacity="0.9" style="display: none;">

</g>
<desc>Width:60 Height:90 Depth:30 Elevation:0</desc>
</g><g class="FixedFurniture CoatCloset" fill="#ffffff" stroke="#000000" style="fill-opacity: 1; stroke-opacity: 1;" transform="matrix(0,1,-1,0,583.1923,534.1118)">
<g class="BoundaryPolygon">
<polygon points="0.00,0.00 197.13,0.00 197.13,37.87 0.00,37.87 "/>
</g>

<g class="Direction" fill-opacity="0.9" style="display: none;">
<polygon fill="#444444" points="101.04,34.41 101.04,23.79 98.03,23.79 98.03,34.41 94.23,34.41 99.53,39.71 104.84,34.41 101.04,34.41 "/>
</g>
<g class="Name" fill-opacity="0.9" style="display: none;">

</g>
<desc>Width:120 Height:200 Depth:60 Elevation:0</desc>
</g><g class="FixedFurniture Closet" fill="#ffffff" stroke="#000000" style="fill-opacity: 1; stroke-opacity: 1;" transform="matrix(-1,0,0,-1,705.2086,731.5476)">
<g class="BoundaryPolygon">
<polygon points="0.00,0.00 107.86,0.00 107.86,60.00 0.00,60.00 "/>
</g>
<g class="Direction" fill-opacity="0.9" style="display: none;">
<polygon fill="#444444" points="56.64,54.70 56.64,44.08 53.63,44.08 53.63,54.70 49.83,54.70 55.13,60.00 60.44,54.70 56.64,54.70 "/>
</g>
<g class="Name" fill-opacity="0.9" style="display: none;">

</g>
<desc>Width:60 Height:200 Depth:60 Elevation:0</desc>
</g><g class="FixedFurniture Closet" fill="#ffffff" stroke="#000000" style="fill-opacity: 1; stroke-opacity: 1;" transform="matrix(0,1,-1,0,705.0489,534.1119)">
<g class="BoundaryPolygon">
<polygon points="0.00,0.00 137.61,0.00 137.61,30.71 0.00,30.71 "/>
</g>
<g class="Direction" fill-opacity="0.9" style="display: none;">
<polygon fill="#444444" points="72.26,28.00 72.26,17.38 69.26,17.38 69.26,28.00 65.45,28.00 70.76,33.30 76.06,28.00 72.26,28.00 "/>
</g>
<g class="Name" fill-opacity="0.9" style="display: none;">

</g>
<desc>Width:60 Height:200 Depth:60 Elevation:0</desc>
</g><g class="FixedFurniture SaunaBenchHigh" fill="#ffffff" stroke="#000000" style="fill-opacity: 1; stroke-opacity: 1;" transform="matrix(1,0,0,1,427.7854,83.8872)">
<g class="BoundaryPolygon">
<polygon points="0.00,0.00 137.66,0.00 137.66,83.43 0.00,83.43 "/>
</g>

<g class="Direction" fill-opacity="0.9" style="display: none;">
<polygon fill="#444444" points="70.99,76.00 70.99,65.39 67.98,65.39 67.98,76.00 64.18,76.00 69.48,81.31 74.79,76.00 70.99,76.00 "/>
</g>
<g class="Name" fill-opacity="0.9" style="display: none;">

</g>
<desc>Width:185 Height:5 Depth:60 Elevation:105</desc>
</g><g class="FixedFurniture SaunaBenchMid" fill="#ffffff" stroke="#000000" style="fill-opacity: 1; stroke-opacity: 1;" transform="matrix(1,0,0,1,427.7517,167.5095)">
<g class="BoundaryPolygon">
<polygon points="0.00,0.00 137.69,0.00 137.69,33.64 0.00,33.64 "/>
</g>

<g class="Direction" fill-opacity="0.9" style="display: none;">
<polygon fill="#444444" points="69.97,29.15 69.97,18.53 66.96,18.53 66.96,29.15 63.16,29.15 68.46,34.45 73.76,29.15 69.97,29.15 "/>
</g>
<g class="Name" fill-opacity="0.9" style="display: none;">

</g>
<desc>Width:185 Height:5 Depth:40 Elevation:60</desc>
</g><g class="FixedFurniture SaunaBenchLow" fill="#ffffff" stroke="#000000" style="fill-opacity: 1; stroke-opacity: 1;" transform="matrix(1,0,0,1,467.7655,201.3419)">
<g class="BoundaryPolygon">
<polygon points="0.00,0.00 97.68,0.00 97.68,31.05 0.00,31.05 "/>
</g>

<g class="Direction" fill-opacity="0.9" style="display: none;">
<polygon fill="#444444" points="50.51,26.90 50.51,16.28 47.50,16.28 47.50,26.90 43.70,26.90 49.00,32.20 54.30,26.90 50.51,26.90 "/>
</g>
<g class="Name" fill-opacity="0.9" style="display: none;">

</g>
<desc>Width:91 Height:5 Depth:40 Elevation:30</desc>
</g><g class="FixedFurniture ElectricalAppliance SaunaStove" fill="#ffffff" stroke="#000000" style="fill-opacity: 1; stroke-opacity: 1;" transform="matrix(0,-0.7816,1,0,439.0636,296.2097)">
<g class="BoundaryPolygon">
<polygon points="0,0 60,0 60,35 0,35"/>
</g>
<g class="electricitySign" fill="none">
<polyline points="0 35 39.7 17.5 21.4 17.5 60 0"/>
</g>
<g class="Direction" fill-opacity="0.9" style="display: none;">
<polygon fill="#444444" points="31.509 29.697 31.509 19.081 28.5 19.081 28.5 29.697 24.697 29.697 30 35 35.303 29.697 31.509 29.697"/>
</g>
<g class="Name" fill-opacity="0.9" style="display: none;">

</g>
<desc>Width:60 Height:60 Depth:35 Elevation:20</desc>
</g><g class="FixedFurniture Toilet" fill="#ffffff" stroke="#000000" style="fill-opacity: 1; stroke-opacity: 1;" transform="matrix(0,1,-1,0,753.1974,264.1956)">
<g class="BoundaryPolygon" fill="none" stroke="none">
<polygon points="0,0 41,0 41,71 0,71"/>
</g>
<g class="InnerPolygon">
<rect height="17.98" width="39.989" x="0.502" y="0.5"/>
<path d="M40.491,44.237S41.619,70.5,20.907,70.5C-.523,70.5.6,44.237.6,44.237L.5,18.48H40.491Z"/>
<rect height="3.03" width="6.357" x="17.318" y="7.975"/>
</g>
<desc>Width:41 Height:85 Depth:71 Elevation:0</desc>
</g><g class="FixedFurniture Shower" fill="#ffffff" stroke="#000000" style="fill-opacity: 1; stroke-opacity: 1;" transform="matrix(0,1,-1,0,729.4035,126.457)">
<g class="BoundaryPolygon" fill="none" stroke="none">
<polygon points="0,0 32,0 32,19 0,19"/>
</g>
<g class="InnerPolygon">
<rect height="6.1" width="11.2" x="3.7" y="0.5"/>
<rect height="6.1" width="11.2" x="17.6" y="0.5"/>
<rect height="6.1" width="3.4" x="28.7" y="0.5"/>
<rect height="6.1" width="3.2" x="0.5" y="0.5"/>
<path d="M14.9,8.5c0,1.5-0.4,3.3-1.6,5    c-0.4,0.6-1,1.1-1.1,1.7c-0.2,1.1,0.3,2.8,2.5,3.2c0.5,0.1,1.3,0.1,1.6,0.1h-0.1c0.3,0,1.1,0,1.6-0.1c2.2-0.4,2.7-2.1,2.5-3.2    c-0.1-0.6-0.7-1.1-1.1-1.7c-1.2-1.7-1.6-3.5-1.6-5"/>
<path d="M12.2,15.3c0.1,0.2,1.6,1.9,4.2,1.9 c2.4-0.1,3.7-1.7,3.9-1.9"/>
<path d="M14.9,0.5h2.7v8c-0.9,0-1.8,0-2.7,0l0,0 C14.9,5.9,14.9,3.2,14.9,0.5z"/>
</g>
<g class="Indicator">
<path d="M3.7,3.6C5,3.1,5.2,3,5.2,3 c0,1.1,0,0,0,1.1C5.2,4.1,5.1,4.1,3.7,3.6"/>
<path d="M28.7,3.6 C27.4,3.1,27.2,3,27.2,3c0,1.1,0,0,0,1.1C27.2,4.1,27.3,4.1,28.7,3.6"/>
</g>
<desc>Width:32 Height:97 Depth:19 Elevation:135</desc>
</g><g class="FixedFurniture Misc" fill="none" stroke="#000000" style="fill-opacity: 1; stroke-opacity: 1; stroke-width: 1.8; stroke-dasharray: 5, 5;" transform="matrix(1,0,0,1,644.2089,83.6997)"><desc>Width:120 Height:200 Depth:60 Elevation:0</desc><g class="BoundaryPolygon"><path d="M0.00,0.00 L0.00,109.90 L85.19,109.90 "/></g></g><g class="FixedFurniture ElectricalAppliance SpaceForAppliance2" fill="#ffffff" stroke="#000000" style="fill-opacity: 1; stroke-opacity: 1;" transform="matrix(1,0,0,1,579.45,83.8406)">
<g class="BoundaryPolygon">
<polygon points="0,0 60,0 60,60 0,60"/>
</g>
<g class="electricitySign" fill="none">
<path d="M0,0,30.1,39.8V19.4L59.9,60"/>
</g>
<g class="Direction" fill-opacity="0.9" style="display: none;">
<polygon fill="#444444" points="32.009 55.197 32.009 44.581 29 44.581 29 55.197 25.197 55.197 30.5 60 35.803 55.197 32.009 55.197"/>
</g>
<g class="Name" fill-opacity="0.9" style="display: none;">

</g>
<desc>Width:60 Height:90 Depth:60 Elevation:0</desc>
</g><g class="SelectionControls" fill="#0000ff" stroke="#0000ff" style="display: block;"><g class="rotateControl" style="display: block;"><circle cx="610.02935" cy="144.9345" r="5" style="stroke : none; fill-opacity: 0.5; cursor:crosshair"/></g><g class="ResizeNControl" style="display: none;"><circle cx="0" cy="0" r="5" style="stroke : none; fill-opacity: 0.5"/></g><g class="ResizeNEControl" style="display: none;"><circle cx="0" cy="0" r="5" style="stroke : none; fill-opacity: 0.5"/></g><g class="ResizeEControl" style="display: none;"><circle cx="0" cy="0" r="5" style="stroke : none; fill-opacity: 0.5"/></g><g class="ResizeSEControl" style="display: none;"><circle cx="0" cy="0" r="5" style="stroke : none; fill-opacity: 0.5"/></g><g class="ResizeSControl" style="display: none;"><circle cx="0" cy="0" r="5" style="stroke : none; fill-opacity: 0.5"/></g><g class="ResizeSWControl" style="display: none;"><circle cx="0" cy="0" r="5" style="stroke : none; fill-opacity: 0.5"/></g><g class="ResizeWControl" style="display: none;"><circle cx="0" cy="0" r="5" style="stroke : none; fill-opacity: 0.5"/></g><g class="ResizeNWControl" style="display: none;"><circle cx="0" cy="0" r="5" style="stroke : none; fill-opacity: 0.5"/></g><g class="removeControl" style="display: block;"><polygon points="587.69,174.93 632.37,174.93 632.37,215.22 587.69,215.22 " style="stroke : none; fill-opacity: 0.1"/></g><g class="copyPasteControl" style="display: none;"><polygon style="stroke : none; fill-opacity: 0.1"/></g><g class="translateControl" style="display: block;"><polygon points="587.69,174.93 632.37,174.93 632.37,215.22 587.69,215.22 " style="stroke : none; fill-opacity: 0.1; cursor:move"/></g></g><g class="SelectionControls" fill="#0000ff" stroke="#0000ff" style="display: block;"><polygon fill="none" points="579.45,83.70 729.40,83.70 729.40,312.37 579.45,312.37 " stroke="#0000ff" style=""/><g class="rotateControl" style="display: block;"><circle cx="654.4245496826172" cy="53.69970000000001" r="5" style="stroke : none; fill-opacity: 0.5; cursor:crosshair"/></g><g class="ResizeNControl" style="display: none;"><circle cx="0" cy="0" r="5" style="stroke : none; fill-opacity: 0.5"/></g><g class="ResizeNEControl" style="display: none;"><circle cx="0" cy="0" r="5" style="stroke : none; fill-opacity: 0.5"/></g><g class="ResizeEControl" style="display: none;"><circle cx="0" cy="0" r="5" style="stroke : none; fill-opacity: 0.5"/></g><g class="ResizeSEControl" style="display: none;"><circle cx="0" cy="0" r="5" style="stroke : none; fill-opacity: 0.5"/></g><g class="ResizeSControl" style="display: none;"><circle cx="0" cy="0" r="5" style="stroke : none; fill-opacity: 0.5"/></g><g class="ResizeSWControl" style="display: none;"><circle cx="0" cy="0" r="5" style="stroke : none; fill-opacity: 0.5"/></g><g class="ResizeWControl" style="display: none;"><circle cx="0" cy="0" r="5" style="stroke : none; fill-opacity: 0.5"/></g><g class="ResizeNWControl" style="display: none;"><circle cx="0" cy="0" r="5" style="stroke : none; fill-opacity: 0.5"/></g><g class="removeControl" style="display: none;"><polygon style="stroke : none; fill-opacity: 0.1"/></g><g class="copyPasteControl" style="display: none;"><polygon style="stroke : none; fill-opacity: 0.1"/></g><g class="translateControl" style="display: none;"><polygon style="stroke : none; fill-opacity: 0.1; cursor:move"/></g></g></g></g></g></svg>