<?xml version="1.0" encoding="utf-8"?>
<svg height="1242.969955444336" id="temp" version="1.1" viewBox="0 0 1063.7300109863281 1242.969955444336" width="1063.7300109863281" xmlns="http://www.w3.org/2000/svg" xmlns:xlink="http://www.w3.org/1999/xlink"><defs/><g class="Model v1-1" id="Model"><g class="Floor"><g class="Floorplan Floor-1" id="Floor-1"><g class="Space Outdoor Balcony" fill="#ffffff" id="14a3e28a-0214-461e-9c29-d06205a8abb1" stroke="#000000" style="fill-opacity: 1; stroke-opacity: 1; stroke-width: 1;"><polygon points="747.56,394.31 1041.73,394.31 1041.73,193.14 747.56,193.14 747.56,394.31 747.56,394.31 "/><g class="Dimension" transform="matrix(1,0,0,1,747.5626,193.1412)"><g class="Visual" style="display: none;" transform="matrix(1,0,0,1,0,0)"><g class="DimensionMark" fill="#000000" id="mark1" stroke="none" style="fill-opacity: 1; pointer-events: visible;" transform="matrix(1,0,0,1,147.0835,0)"><polygon points="-5,5,0,0,5,5"/></g><g class="DimensionMark" fill="#000000" id="mark2" stroke="none" style="fill-opacity: 1; pointer-events: visible;" transform="matrix(1,0,0,1,294.167,100.5865)"><polygon points="-5,-5,0,0,-5,5"/></g><g class="DimensionMark" fill="#000000" id="mark3" stroke="none" style="fill-opacity: 1; pointer-events: visible;" transform="matrix(1,0,0,1,147.0835,201.173)"><polygon points="-5,-5,0,0,5,-5"/></g><g class="DimensionMark" fill="#000000" id="mark4" stroke="none" style="fill-opacity: 1; pointer-events: visible;" transform="matrix(1,0,0,1,0,100.5865)"><polygon points="5,5,0,0,5,-5"/></g></g><g class="SpaceDimensionsLabel" transform="matrix(1,0,0,1,79.737,93.9147)"><g class="TextLabel NameLabel" id="NameLabel" style="display: block;"/><g class="TextLabel DimensionMeasureLabel" id="DimensionMeasureLabel" style="display: none;" transform="matrix(1,0,0,1,-63.7187,80.5625)"/></g></g></g><g class="Space Kitchen" fill="#ffffff" id="5d25bd8f-8edc-4e75-ba32-968ce8e48ed8" stroke="#ffffff" style="fill-opacity: 1; stroke-opacity: 1; stroke-width: 1;"><polygon points="687.22,912.13 469.03,912.13 469.03,682.49 687.22,682.49 "/><g class="Dimension" transform="matrix(1,0,0,1,469.0306,682.4927)"><g class="Visual" style="display: none;" transform="matrix(1,0,0,1,0,0)"><g class="DimensionMark" fill="#000000" id="mark1" stroke="none" style="fill-opacity: 1; pointer-events: visible;" transform="matrix(1,0,0,1,109.0931,0)"><polygon points="-5,5,0,0,5,5"/></g><g class="DimensionMark" fill="#000000" id="mark2" stroke="none" style="fill-opacity: 1; pointer-events: visible;" transform="matrix(1,0,0,1,218.1862,114.82)"><polygon points="-5,-5,0,0,-5,5"/></g><g class="DimensionMark" fill="#000000" id="mark3" stroke="none" style="fill-opacity: 1; pointer-events: visible;" transform="matrix(1,0,0,1,109.0931,229.64)"><polygon points="-5,-5,0,0,5,-5"/></g><g class="DimensionMark" fill="#000000" id="mark4" stroke="none" style="fill-opacity: 1; pointer-events: visible;" transform="matrix(1,0,0,1,0,114.82)"><polygon points="5,5,0,0,5,-5"/></g></g><g class="SpaceDimensionsLabel" transform="matrix(1,0,0,1,101.7033,122.3946)"><g class="TextLabel NameLabel" id="NameLabel" style="display: block;"/><g class="TextLabel DimensionMeasureLabel" id="DimensionMeasureLabel" style="display: none;" transform="matrix(1,0,0,1,-128.1328,79.5)"/></g></g></g><g class="Space Dining" fill="#ffffff" id="13ae8977-1e56-4b4c-9e07-0ad4f3a58f28" stroke="#ffffff" style="fill-opacity: 1; stroke-opacity: 1; stroke-width: 1;"><polygon points="687.22,682.49 469.03,682.49 469.03,416.31 687.22,416.31 "/><g class="Dimension" transform="matrix(1,0,0,1,469.0306,416.3143)"><g class="Visual" style="display: none;" transform="matrix(1,0,0,1,0,0)"><g class="DimensionMark" fill="#000000" id="mark1" stroke="none" style="fill-opacity: 1; pointer-events: visible;" transform="matrix(1,0,0,1,109.0931,0)"><polygon points="-5,5,0,0,5,5"/></g><g class="DimensionMark" fill="#000000" id="mark2" stroke="none" style="fill-opacity: 1; pointer-events: visible;" transform="matrix(1,0,0,1,218.1862,133.0892)"><polygon points="-5,-5,0,0,-5,5"/></g><g class="DimensionMark" fill="#000000" id="mark3" stroke="none" style="fill-opacity: 1; pointer-events: visible;" transform="matrix(1,0,0,1,109.0931,266.1784)"><polygon points="-5,-5,0,0,5,-5"/></g><g class="DimensionMark" fill="#000000" id="mark4" stroke="none" style="fill-opacity: 1; pointer-events: visible;" transform="matrix(1,0,0,1,0,133.0892)"><polygon points="5,5,0,0,5,-5"/></g></g><g class="SpaceDimensionsLabel" transform="matrix(1,0,0,1,92.8356,133.0892)"><g class="TextLabel NameLabel" id="NameLabel" style="display: block;"/><g class="TextLabel DimensionMeasureLabel" id="DimensionMeasureLabel" style="display: none;" transform="matrix(1,0,0,1,-118.1406,79.5)"/></g></g></g><g class="Space LivingRoom" fill="#ffffff" id="154e1eab-659f-4458-8424-9c7eb4f47e8a" stroke="#ffffff" style="fill-opacity: 1; stroke-opacity: 1; stroke-width: 1;"><polygon points="1041.73,912.13 687.22,912.13 687.22,416.31 1041.73,416.31 "/><g class="Dimension" transform="matrix(1,0,0,1,687.2168,416.3143)"><g class="Visual" style="display: none;" transform="matrix(1,0,0,1,0,0)"><g class="DimensionMark" fill="#000000" id="mark1" stroke="none" style="fill-opacity: 1; pointer-events: visible;" transform="matrix(1,0,0,1,177.2564,0)"><polygon points="-5,5,0,0,5,5"/></g><g class="DimensionMark" fill="#000000" id="mark2" stroke="none" style="fill-opacity: 1; pointer-events: visible;" transform="matrix(1,0,0,1,354.5129,247.9092)"><polygon points="-5,-5,0,0,-5,5"/></g><g class="DimensionMark" fill="#000000" id="mark3" stroke="none" style="fill-opacity: 1; pointer-events: visible;" transform="matrix(1,0,0,1,177.2564,495.8184)"><polygon points="-5,-5,0,0,5,-5"/></g><g class="DimensionMark" fill="#000000" id="mark4" stroke="none" style="fill-opacity: 1; pointer-events: visible;" transform="matrix(1,0,0,1,0,247.9092)"><polygon points="5,5,0,0,5,-5"/></g></g><g class="SpaceDimensionsLabel" transform="matrix(1,0,0,1,165.4329,248.1979)"><g class="TextLabel NameLabel" id="NameLabel" style="display: block;"/><g class="TextLabel DimensionMeasureLabel" id="DimensionMeasureLabel" style="display: none;" transform="matrix(1,0,0,1,-114.5781,79.5)"/></g></g></g><g class="Space Entry Lobby" fill="#ffffff" id="166821e7-6c6a-465d-a7bf-f11a20ef480a" stroke="#ffffff" style="fill-opacity: 1; stroke-opacity: 1; stroke-width: 1;"><polygon points="1041.73,912.19 832.50,912.19 832.50,1140.11 700.79,1140.11 700.79,1077.23 557.81,1077.23 557.81,1140.11 469.03,1140.11 469.03,925.19 533.39,925.19 533.39,912.19 469.03,912.19 469.03,912.13 1041.73,912.13 "/><g class="Dimension" transform="matrix(1,0,0,1,469.0306,912.1327)"><g class="Visual" style="display: none;" transform="matrix(1,0,0,1,0,0)"><g class="DimensionMark" fill="#000000" id="mark1" stroke="none" style="fill-opacity: 1; pointer-events: visible;" transform="matrix(1,0,0,1,286.3495,0)"><polygon points="-5,5,0,0,5,5"/></g><g class="DimensionMark" fill="#000000" id="mark2" stroke="none" style="fill-opacity: 1; pointer-events: visible;" transform="matrix(1,0,0,1,572.699,0.056)"><polygon points="-5,-5,0,0,-5,5"/></g><g class="DimensionMark" fill="#000000" id="mark3" stroke="none" style="fill-opacity: 1; pointer-events: visible;" transform="matrix(1,0,0,1,286.3495,227.9766)"><polygon points="-5,-5,0,0,5,-5"/></g><g class="DimensionMark" fill="#000000" id="mark4" stroke="none" style="fill-opacity: 1; pointer-events: visible;" transform="matrix(1,0,0,1,0,0.056)"><polygon points="5,5,0,0,5,-5"/></g></g><g class="SpaceDimensionsLabel" transform="matrix(1,0,0,1,170.1235,96.5669)"><g class="TextLabel NameLabel" id="NameLabel" style="display: block;"/><g class="TextLabel DimensionMeasureLabel" id="DimensionMeasureLabel" style="display: none;" transform="matrix(1,0,0,1,-119.0546,80.5625)"/></g></g></g><g class="Space Bedroom" fill="#ffffff" id="7824aa75-bce6-4786-ae8a-8842310d563a" stroke="#ffffff" style="fill-opacity: 1; stroke-opacity: 1; stroke-width: 1;"><polygon points="455.03,813.45 178.09,813.45 178.09,416.31 455.03,416.31 "/><g class="Dimension" transform="matrix(1,0,0,1,178.0882,416.3143)"><g class="Visual" style="display: none;" transform="matrix(1,0,0,1,0,0)"><g class="DimensionMark" fill="#000000" id="mark1" stroke="none" style="fill-opacity: 1; pointer-events: visible;" transform="matrix(1,0,0,1,138.4712,0)"><polygon points="-5,5,0,0,5,5"/></g><g class="DimensionMark" fill="#000000" id="mark2" stroke="none" style="fill-opacity: 1; pointer-events: visible;" transform="matrix(1,0,0,1,276.9424,198.5684)"><polygon points="-5,-5,0,0,-5,5"/></g><g class="DimensionMark" fill="#000000" id="mark3" stroke="none" style="fill-opacity: 1; pointer-events: visible;" transform="matrix(1,0,0,1,138.4712,397.1369)"><polygon points="-5,-5,0,0,5,-5"/></g><g class="DimensionMark" fill="#000000" id="mark4" stroke="none" style="fill-opacity: 1; pointer-events: visible;" transform="matrix(1,0,0,1,0,198.5684)"><polygon points="5,5,0,0,5,-5"/></g></g><g class="SpaceDimensionsLabel" transform="matrix(1,0,0,1,114.824,191.1787)"><g class="TextLabel NameLabel" id="NameLabel" style="display: block;"/><g class="TextLabel DimensionMeasureLabel" id="DimensionMeasureLabel" style="display: none;" transform="matrix(1,0,0,1,-113.6641,79.5)"/></g></g></g><g class="Space Bedroom" fill="#ffffff" id="631c4fe6-493a-4c33-b5f0-23130a1fbcdd" stroke="#ffffff" style="fill-opacity: 1; stroke-opacity: 1; stroke-width: 1;"><polygon points="455.03,1140.11 178.09,1140.11 178.09,827.45 455.03,827.45 "/><g class="Dimension" transform="matrix(1,0,0,1,178.0882,827.4511)"><g class="Visual" style="display: none;" transform="matrix(1,0,0,1,0,0)"><g class="DimensionMark" fill="#000000" id="mark1" stroke="none" style="fill-opacity: 1; pointer-events: visible;" transform="matrix(1,0,0,1,138.4712,0)"><polygon points="-5,5,0,0,5,5"/></g><g class="DimensionMark" fill="#000000" id="mark2" stroke="none" style="fill-opacity: 1; pointer-events: visible;" transform="matrix(1,0,0,1,276.9424,156.3291)"><polygon points="-5,-5,0,0,-5,5"/></g><g class="DimensionMark" fill="#000000" id="mark3" stroke="none" style="fill-opacity: 1; pointer-events: visible;" transform="matrix(1,0,0,1,138.4712,312.6581)"><polygon points="-5,-5,0,0,5,-5"/></g><g class="DimensionMark" fill="#000000" id="mark4" stroke="none" style="fill-opacity: 1; pointer-events: visible;" transform="matrix(1,0,0,1,0,156.3291)"><polygon points="5,5,0,0,5,-5"/></g></g><g class="SpaceDimensionsLabel" transform="matrix(1,0,0,1,119.2579,178.4982)"><g class="TextLabel NameLabel" id="NameLabel" style="display: block;"/><g class="TextLabel DimensionMeasureLabel" id="DimensionMeasureLabel" style="display: none;" transform="matrix(1,0,0,1,-113.6953,79.4219)"/></g></g></g><g class="Space UserDefined" fill="#ffffff" id="00e773b0-f466-47ae-bb4d-c754b8b35574" stroke="#ffffff" style="fill-opacity: 1; stroke-opacity: 1; stroke-width: 1;"><polygon points="1041.73,1140.11 845.50,1140.11 845.50,925.19 1041.73,925.19 "/><g class="Dimension" transform="matrix(1,0,0,1,845.5041,925.1887)"><g class="Visual" style="display: none;" transform="matrix(1,0,0,1,0,0)"><g class="DimensionMark" fill="#000000" id="mark1" stroke="none" style="fill-opacity: 1; pointer-events: visible;" transform="matrix(1,0,0,1,98.1128,0)"><polygon points="-5,5,0,0,5,5"/></g><g class="DimensionMark" fill="#000000" id="mark2" stroke="none" style="fill-opacity: 1; pointer-events: visible;" transform="matrix(1,0,0,1,196.2255,107.4603)"><polygon points="-5,-5,0,0,-5,5"/></g><g class="DimensionMark" fill="#000000" id="mark3" stroke="none" style="fill-opacity: 1; pointer-events: visible;" transform="matrix(1,0,0,1,98.1128,214.9206)"><polygon points="-5,-5,0,0,5,-5"/></g><g class="DimensionMark" fill="#000000" id="mark4" stroke="none" style="fill-opacity: 1; pointer-events: visible;" transform="matrix(1,0,0,1,0,107.4603)"><polygon points="5,5,0,0,5,-5"/></g></g><g class="SpaceDimensionsLabel" transform="matrix(1,0,0,1,-2.1235,109.5968)"><g class="TextLabel NameLabel" id="NameLabel" style="display: block;"/><g class="TextLabel DimensionMeasureLabel" id="DimensionMeasureLabel" style="display: none;" transform="matrix(1,0,0,1,-70.875,79.5)"/></g></g></g><g class="Space Undefined" fill="#ffffff" id="f82e6cbd-c4d2-4a76-b6d1-3d9ac4730752" stroke="#ffffff" style="fill-opacity: 1; stroke-opacity: 1; stroke-width: 1;"><polygon points="687.79,1140.11 570.81,1140.11 570.81,1090.23 687.79,1090.23 "/><g class="Dimension" transform="matrix(1,0,0,1,570.8058,1090.2285)"><g class="Visual" style="display: none;" transform="matrix(1,0,0,1,0,0)"><g class="DimensionMark" fill="#000000" id="mark1" stroke="none" style="fill-opacity: 1; pointer-events: visible;" transform="matrix(1,0,0,1,58.4912,0)"><polygon points="-5,5,0,0,5,5"/></g><g class="DimensionMark" fill="#000000" id="mark2" stroke="none" style="fill-opacity: 1; pointer-events: visible;" transform="matrix(1,0,0,1,116.9824,24.9404)"><polygon points="-5,-5,0,0,-5,5"/></g><g class="DimensionMark" fill="#000000" id="mark3" stroke="none" style="fill-opacity: 1; pointer-events: visible;" transform="matrix(1,0,0,1,58.4912,49.8807)"><polygon points="-5,-5,0,0,5,-5"/></g><g class="DimensionMark" fill="#000000" id="mark4" stroke="none" style="fill-opacity: 1; pointer-events: visible;" transform="matrix(1,0,0,1,0,24.9404)"><polygon points="5,5,0,0,5,-5"/></g></g><g class="SpaceDimensionsLabel" transform="matrix(1,0,0,1,24.9404,24.9403)"><g class="TextLabel NameLabel" id="NameLabel" style="display: block;"/><g class="TextLabel DimensionMeasureLabel" id="DimensionMeasureLabel" style="display: none;" transform="matrix(1,0,0,1,-40.5078,78.5)"/></g></g></g><g class="Wall External" fill="#000000" id="Wall" stroke="#000000" style="fill-opacity: 1; stroke-opacity: 1; stroke-width: 1;"><polygon points="178.09,416.31 1041.73,416.31 1063.73,394.31 156.09,394.31 "/><g class="Window Regular" fill="#f0f0ff" id="Window" stroke="#000000" style="fill-opacity: 1; stroke-width: 1; stroke-opacity: 1;"><polygon points="308.00,416.31 423.73,416.31 423.73,394.31 308.00,394.31 "/><g class="Glass" id="Glass"><polygon points="308.00,416.31 423.73,416.31 423.73,394.31 308.00,394.31 "/></g><g class="Panel" id="Panel"><line x1="315.5024379536894" x2="416.2294366636115" y1="405.3142652905476" y2="405.31426529054755"/><line x1="315.5024379536894" x2="315.5024379536894" y1="416.3142652905476" y2="394.3142652905476"/><line x1="416.2294366636115" x2="416.2294366636115" y1="416.31426529054755" y2="394.31426529054755"/></g></g><g class="Window Regular" fill="#f0f0ff" id="Window" stroke="#000000" style="fill-opacity: 1; stroke-width: 1; stroke-opacity: 1;"><polygon points="514.98,416.31 628.48,416.31 628.48,394.31 514.98,394.31 "/><g class="Glass" id="Glass"><polygon points="514.98,416.31 628.48,416.31 628.48,394.31 514.98,394.31 "/></g><g class="Panel" id="Panel"><line x1="522.4757241079731" x2="620.9772036119352" y1="405.31426529054755" y2="405.3142652905475"/><line x1="522.4757241079731" x2="522.4757241079731" y1="416.31426529054755" y2="394.31426529054755"/><line x1="620.9772036119352" x2="620.9772036119352" y1="416.3142652905475" y2="394.3142652905475"/></g></g><g class="Door Swing Opposite" fill="#ffffff" id="Door" stroke="#000000" style="fill-opacity: 1; stroke-width: 1; stroke-opacity: 1;"><polygon points="774.62,416.31 851.77,416.31 851.77,394.31 774.62,394.31 "/><g class="Panel Right Negative" fill="none" id="Panel" style=""><g class="PanelArea" fill="none" id="PanelArea" stroke="none" style=""><polygon points="774.62,416.31 851.77,416.31 851.77,394.31 774.62,394.31 "/></g><path d="M851.77,416.31 q0.00,77.15 -77.15,77.15 l0.00,-77.15Z"/></g><g class="Panel Left Positive" fill="none" id="Panel" style=""><g class="PanelArea" fill="none" id="PanelArea" stroke="none" style=""><polygon points="774.62,416.31 851.77,416.31 851.77,394.31 774.62,394.31 "/></g><path d="M851.77,394.31 q0.00,-77.15 -77.15,-77.15 l0.00,77.15Z"/></g></g><g class="Window Regular" fill="#f0f0ff" id="Window" stroke="#000000" style="fill-opacity: 1; stroke-width: 1; stroke-opacity: 1;"><polygon points="854.74,416.31 1023.14,416.31 1023.14,394.31 854.74,394.31 "/><g class="Glass" id="Glass"><polygon points="854.74,416.31 1023.14,416.31 1023.14,394.31 854.74,394.31 "/></g><g class="Panel" id="Panel"><line x1="862.2383115649632" x2="1015.6359314826062" y1="405.3142652905475" y2="405.31426529054744"/><line x1="862.2383115649632" x2="862.2383115649632" y1="416.3142652905475" y2="394.3142652905475"/><line x1="1015.6359314826062" x2="1015.6359314826062" y1="416.31426529054744" y2="394.31426529054744"/></g></g></g><g class="Wall External" fill="#000000" id="Wall" stroke="#000000" style="fill-opacity: 1; stroke-opacity: 1; stroke-width: 1;"><polygon points="1063.73,394.31 1063.73,1162.11 1041.73,1140.11 1041.73,416.31 "/><g class="Window Regular" fill="#f0f0ff" id="Window" stroke="#000000" style="fill-opacity: 1; stroke-width: 1; stroke-opacity: 1;"><polygon points="1063.73,457.19 1063.73,572.92 1041.73,572.92 1041.73,457.19 "/><g class="Glass" id="Glass"><polygon points="1063.73,457.19 1063.73,572.92 1041.73,572.92 1041.73,457.19 "/></g><g class="Panel" id="Panel"><line x1="1052.7296574465981" x2="1052.7296574465981" y1="464.6909297652143" y2="565.4179284751364"/><line x1="1063.7296574465981" x2="1041.7296574465981" y1="464.6909297652143" y2="464.6909297652143"/><line x1="1063.7296574465981" x2="1041.7296574465981" y1="565.4179284751364" y2="565.4179284751364"/></g></g><g class="Window Regular" fill="#f0f0ff" id="Window" stroke="#000000" style="fill-opacity: 1; stroke-width: 1; stroke-opacity: 1;"><polygon points="1063.73,971.29 1063.73,1029.89 1041.73,1029.89 1041.73,971.29 "/><g class="Glass" id="Glass"><polygon points="1063.73,971.29 1063.73,1029.89 1041.73,1029.89 1041.73,971.29 "/></g><g class="Panel" id="Panel"><line x1="1052.7296574465981" x2="1052.7296574465981" y1="978.7859116202876" y2="1022.3912507105688"/><line x1="1063.7296574465981" x2="1041.7296574465981" y1="978.7859116202876" y2="978.7859116202876"/><line x1="1063.7296574465981" x2="1041.7296574465981" y1="1022.3912507105688" y2="1022.3912507105688"/></g></g></g><g class="Wall External" fill="#000000" id="Wall" stroke="#000000" style="fill-opacity: 1; stroke-opacity: 1; stroke-width: 1;"><polygon points="1063.73,1162.11 156.09,1162.11 178.09,1140.11 1041.73,1140.11 "/><g class="Door Swing Beside" fill="#ffffff" id="Door" stroke="#000000" style="fill-opacity: 1; stroke-width: 1; stroke-opacity: 1;"><polygon points="674.47,1162.11 593.61,1162.11 593.61,1140.11 674.47,1140.11 "/><g class="Panel Left Negative" fill="none" id="Panel" style=""><g class="PanelArea" fill="none" id="PanelArea" stroke="none" style=""><polygon points="674.47,1162.11 593.61,1162.11 593.61,1140.11 674.47,1140.11 "/></g><path d="M674.47,1162.11 q0.00,80.86 -80.86,80.86 l0.00,-80.86Z"/></g></g><g class="Window Regular" fill="#f0f0ff" id="Window" stroke="#000000" style="fill-opacity: 1; stroke-width: 1; stroke-opacity: 1;"><polygon points="440.05,1162.11 325.06,1162.11 325.06,1140.11 440.05,1140.11 "/><g class="Glass" id="Glass"><polygon points="440.05,1162.11 325.06,1162.11 325.06,1140.11 440.05,1140.11 "/></g><g class="Panel" id="Panel"><line x1="432.5499108406518" x2="332.56475186604985" y1="1151.1092728676879" y2="1151.1092728676879"/><line x1="432.5499108406518" x2="432.5499108406518" y1="1162.1092728676879" y2="1140.1092728676879"/><line x1="332.56475186604985" x2="332.56475186604985" y1="1162.1092728676879" y2="1140.1092728676879"/></g></g></g><g class="Wall External" fill="#000000" id="Wall" stroke="#000000" style="fill-opacity: 1; stroke-opacity: 1; stroke-width: 1;"><polygon points="178.09,1140.11 178.09,416.31 156.09,394.31 156.09,1162.11 "/></g><g class="Wall" fill="#000000" id="Wall" stroke="#000000" style="fill-opacity: 1; stroke-opacity: 1; stroke-width: 1;"><polygon points="469.03,1162.11 469.03,394.31 455.03,394.31 455.03,1162.11 "/><g class="Door Swing Beside" fill="#ffffff" id="Door" stroke="#000000" style="fill-opacity: 1; stroke-width: 1; stroke-opacity: 1;"><polygon points="469.03,1050.59 469.03,978.69 455.03,978.69 455.03,1050.59 "/><g class="Panel Right Negative" fill="none" id="Panel" style=""><g class="PanelArea" fill="none" id="PanelArea" stroke="none" style=""><polygon points="469.03,1050.59 469.03,978.69 455.03,978.69 455.03,1050.59 "/></g><path d="M469.03,978.69 q71.90,0.00 71.90,71.90 l-71.90,0.00Z"/></g></g><g class="Door Swing Beside" fill="#ffffff" id="Door" stroke="#000000" style="fill-opacity: 1; stroke-width: 1; stroke-opacity: 1;"><polygon points="469.03,667.94 469.03,596.56 455.03,596.56 455.03,667.94 "/><g class="Panel Right Negative" fill="none" id="Panel" style=""><g class="PanelArea" fill="none" id="PanelArea" stroke="none" style=""><polygon points="469.03,667.94 469.03,596.56 455.03,596.56 455.03,667.94 "/></g><path d="M469.03,596.56 q71.38,0.00 71.38,71.38 l-71.38,0.00Z"/></g></g></g><g class="Wall" fill="#000000" id="Wall" stroke="#000000" style="fill-opacity: 1; stroke-opacity: 1; stroke-width: 1;"><polygon points="156.09,827.45 469.03,827.45 469.03,813.45 156.09,813.45 "/></g><g class="Wall" fill="#000000" id="Wall" stroke="#000000" style="fill-opacity: 1; stroke-opacity: 1; stroke-width: 1;"><polygon points="845.50,1162.11 845.50,925.19 832.50,912.19 832.50,1162.11 "/><g class="Door Swing Beside" fill="#ffffff" id="Door" stroke="#000000" style="fill-opacity: 1; stroke-width: 1; stroke-opacity: 1;"><polygon points="845.50,1040.00 845.50,974.23 832.50,974.23 832.50,1040.00 "/><g class="Panel Right Positive" fill="none" id="Panel" style=""><g class="PanelArea" fill="none" id="PanelArea" stroke="none" style=""><polygon points="845.50,1040.00 845.50,974.23 832.50,974.23 832.50,1040.00 "/></g><path d="M832.50,1040.00 q-65.77,0.00 -65.77,-65.77 l65.77,0.00Z"/></g></g></g><g class="Wall" fill="#000000" id="Wall" stroke="#000000" style="fill-opacity: 1; stroke-opacity: 1; stroke-width: 1;"><polygon points="832.50,912.19 1063.73,912.19 1063.73,925.19 845.50,925.19 "/></g><g class="Wall" fill="#000000" id="Wall" stroke="#000000" style="fill-opacity: 1; stroke-opacity: 1; stroke-width: 1;"><polygon points="700.79,1162.11 700.79,1077.23 687.79,1090.23 687.79,1162.11 "/></g><g class="Wall" fill="#000000" id="Wall" stroke="#000000" style="fill-opacity: 1; stroke-opacity: 1; stroke-width: 1;"><polygon points="700.79,1077.23 557.81,1077.23 570.81,1090.23 687.79,1090.23 "/><g class="Door None Beside" fill="#ffffff" id="Door" stroke="#000000" style="fill-opacity: 1; stroke-width: 1; stroke-opacity: 1;"><polygon points="679.95,1077.23 586.31,1077.23 586.31,1090.23 679.95,1090.23 "/></g></g><g class="Wall" fill="#000000" id="Wall" stroke="#000000" style="fill-opacity: 1; stroke-opacity: 1; stroke-width: 1;"><polygon points="557.81,1077.23 557.81,1162.11 570.81,1162.11 570.81,1090.23 "/></g><g class="Wall" fill="#000000" id="Wall" stroke="#000000" style="fill-opacity: 1; stroke-opacity: 1; stroke-width: 1;"><polygon points="455.03,912.19 533.39,912.19 533.39,925.19 455.03,925.19 "/></g><g class="Wall" fill="#000000" id="Wall" stroke="#000000" style="fill-opacity: 1; stroke-opacity: 1; stroke-width: 1;"><polygon points="618.95,912.19 687.26,912.19 697.26,925.19 618.95,925.19 "/></g><g class="Wall" fill="#000000" id="Wall" stroke="#000000" style="fill-opacity: 1; stroke-opacity: 1; stroke-width: 1;"><polygon points="687.26,912.19 687.26,791.28 697.26,791.28 697.26,925.19 "/></g><g class="Railing" fill="#ffffff" id="Railing" stroke="#000000" style="fill-opacity: 1; stroke-opacity: 1; stroke-width: 1;"><polygon points="697.26,791.28 697.26,608.36 687.26,608.36 687.26,791.28 " style="stroke-dasharray: 0;"/></g><g class="Railing" fill="#ffffff" id="Railing" stroke="#000000" style="fill-opacity: 1; stroke-opacity: 1; stroke-width: 1;"><polygon points="1041.73,394.31 1041.73,193.14 1051.73,183.14 1051.73,394.31 " style="stroke-dasharray: 201.173, 14.1421, 221.173;"/></g><g class="Railing" fill="#ffffff" id="Railing" stroke="#000000" style="fill-opacity: 1; stroke-opacity: 1; stroke-width: 1;"><polygon points="1051.73,183.14 737.56,183.14 747.56,193.14 1041.73,193.14 " style="stroke-dasharray: 314.167, 14.1421, 294.167, 14.1421;"/></g><g class="FixedFurniture Closet" fill="#ffffff" stroke="#000000" style="fill-opacity: 1; stroke-opacity: 1;" transform="matrix(1,0,0,1,178.0882,827.5137)">
<g class="BoundaryPolygon">
<polygon points="0.00,0.00 276.45,0.00 276.45,60.00 0.00,60.00 "/>
</g>
<g class="Direction" fill-opacity="0.9" style="display: none;">
<polygon fill="#444444" points="141.70,54.52 141.70,43.90 138.69,43.90 138.69,54.52 134.89,54.52 140.19,59.82 145.50,54.52 141.70,54.52 "/>
</g>
<g class="Name" fill-opacity="0.9" style="display: none;">

</g>
<desc>Width:120 Height:200 Depth:60 Elevation:0</desc>
</g><g class="FixedFurniture ShowerScreen" fill="#ffffff" stroke="#000000" style="fill-opacity: 1; stroke-opacity: 1;" transform="matrix(0,1,-1.3833,0,455.0306,887.5137)">
<g class="BoundaryPolygon">
<polygon points="0,0 2.5,0 2.5,60 0,60"/>
</g>
<g class="InnerPolygon" stroke-linejoin="round">
<rect height="60" width="2.5"/>
</g>
<desc>Width:2.5 Height:180 Depth:60 Elevation:135</desc>
</g><g class="FixedFurniture ShowerScreen" fill="#ffffff" stroke="#000000" style="fill-opacity: 1; stroke-opacity: 1;" transform="matrix(0,1,-1.3833,0,378.8872,890.7252)">
<g class="BoundaryPolygon">
<polygon points="0,0 2.5,0 2.5,60 0,60"/>
</g>
<g class="InnerPolygon" stroke-linejoin="round">
<rect height="60" width="2.5"/>
</g>
<desc>Width:2.5 Height:180 Depth:60 Elevation:135</desc>
</g><g class="FixedFurniture ShowerScreen" fill="#ffffff" stroke="#000000" style="fill-opacity: 1; stroke-opacity: 1;" transform="matrix(0,1,-1.2233,0,307.8937,887.5136)">
<g class="BoundaryPolygon">
<polygon points="0,0 2.5,0 2.5,60 0,60"/>
</g>
<g class="InnerPolygon" stroke-linejoin="round">
<rect height="60" width="2.5"/>
</g>
<desc>Width:2.5 Height:180 Depth:60 Elevation:135</desc>
</g><g class="FixedFurniture ShowerScreen" fill="#ffffff" stroke="#000000" style="fill-opacity: 1; stroke-opacity: 1;" transform="matrix(0,1,-1.1375,0,246.2636,890.491)">
<g class="BoundaryPolygon">
<polygon points="0,0 2.5,0 2.5,60 0,60"/>
</g>
<g class="InnerPolygon" stroke-linejoin="round">
<rect height="60" width="2.5"/>
</g>
<desc>Width:2.5 Height:180 Depth:60 Elevation:135</desc>
</g><g class="FixedFurniture CoatCloset" fill="#ffffff" stroke="#000000" style="fill-opacity: 1; stroke-opacity: 1;" transform="matrix(-1,0,0,-1,199.6999,813.4512)">
<g class="BoundaryPolygon">
<polygon points="0.00,0.00 21.61,0.00 21.61,60.00 0.00,60.00 "/>
</g>

<g class="Direction" fill-opacity="0.9" style="display: none;">
<polygon fill="#444444" points="11.35,54.70 11.35,44.08 8.34,44.08 8.34,54.70 4.54,54.70 9.84,60.00 15.14,54.70 11.35,54.70 "/>
</g>
<g class="Name" fill-opacity="0.9" style="display: none;">

</g>
<desc>Width:60 Height:200 Depth:60 Elevation:0</desc>
</g><g class="FixedFurniture Closet" fill="#ffffff" stroke="#000000" style="fill-opacity: 1; stroke-opacity: 1;" transform="matrix(-1,0,0,-1,239.8399,813.4512)">
<g class="BoundaryPolygon">
<polygon points="0.00,0.00 40.14,0.00 40.14,60.00 0.00,60.00 "/>
</g>
<g class="Direction" fill-opacity="0.9" style="display: none;">
<polygon fill="#444444" points="21.08,54.70 21.08,44.08 18.07,44.08 18.07,54.70 14.27,54.70 19.57,60.00 24.88,54.70 21.08,54.70 "/>
</g>
<g class="Name" fill-opacity="0.9" style="display: none;">

</g>
<desc>Width:60 Height:200 Depth:60 Elevation:0</desc>
</g><g class="FixedFurniture CoatCloset" fill="#ffffff" stroke="#000000" style="fill-opacity: 1; stroke-opacity: 1;" transform="matrix(-1,0,0,-1,335.3509,813.4511)">
<g class="BoundaryPolygon">
<polygon points="0.00,0.00 95.51,0.00 95.51,60.00 0.00,60.00 "/>
</g>

<g class="Direction" fill-opacity="0.9" style="display: none;">
<polygon fill="#444444" points="48.96,54.52 48.96,43.90 45.95,43.90 45.95,54.52 42.14,54.52 47.45,59.82 52.75,54.52 48.96,54.52 "/>
</g>
<g class="Name" fill-opacity="0.9" style="display: none;">

</g>
<desc>Width:120 Height:200 Depth:60 Elevation:0</desc>
</g><g class="FixedFurnitureSet" fill="#ffffff" id="FixedFurnitureSet" stroke="#000000" style="fill-opacity: 0.4; stroke-opacity: 0.4;" transform="matrix(-1,0,0,-1,430.1999,813.4511)"><g class="FixedFurniture CoatCloset" fill="#ffffff" stroke="#000000" style="fill-opacity: 1; stroke-opacity: 1;" transform="matrix(1,0,0,1,0,0)">
<g class="BoundaryPolygon">
<polygon points="0.00,0.00 47.42,0.00 47.42,60.00 0.00,60.00 "/>
</g>

<g class="Direction" fill-opacity="0.9" style="display: none;">
<polygon fill="#444444" points="24.90,54.70 24.90,44.08 21.90,44.08 21.90,54.70 18.09,54.70 23.40,60.00 28.70,54.70 24.90,54.70 "/>
</g>
<g class="Name" fill-opacity="0.9" style="display: none;">

</g>
<desc>Width:60 Height:200 Depth:60 Elevation:0</desc>
</g><g class="FixedFurniture CoatCloset" fill="#ffffff" stroke="#000000" style="fill-opacity: 1; stroke-opacity: 1;" transform="matrix(1,0,0,1,47.4245,0)">
<g class="BoundaryPolygon">
<polygon points="0.00,0.00 47.42,0.00 47.42,60.00 0.00,60.00 "/>
</g>

<g class="Direction" fill-opacity="0.9" style="display: none;">
<polygon fill="#444444" points="24.90,54.70 24.90,44.08 21.90,44.08 21.90,54.70 18.09,54.70 23.40,60.00 28.70,54.70 24.90,54.70 "/>
</g>
<g class="Name" fill-opacity="0.9" style="display: none;">

</g>
<desc>Width:60 Height:200 Depth:60 Elevation:0</desc>
</g></g><g class="Column Rectangle" fill="#000000" id="Column" stroke="none" style="fill-opacity: 1;"><polygon points="455.03,813.45 430.20,813.45 430.20,753.45 455.03,753.45 "/></g><g class="FixedFurniture Closet" fill="#ffffff" stroke="#000000" style="fill-opacity: 1; stroke-opacity: 1;" transform="matrix(-1,0,0,-1,557.8058,1140.1092)">
<g class="BoundaryPolygon">
<polygon points="0.00,0.00 51.67,0.00 51.67,61.59 0.00,61.59 "/>
</g>
<g class="Direction" fill-opacity="0.9" style="display: none;">
<polygon fill="#444444" points="27.14,56.14 27.14,45.53 24.13,45.53 24.13,56.14 20.32,56.14 25.63,61.45 30.93,56.14 27.14,56.14 "/>
</g>
<g class="Name" fill-opacity="0.9" style="display: none;">

</g>
<desc>Width:60 Height:200 Depth:60 Elevation:0</desc>
</g><g class="FixedFurniture Closet" fill="#ffffff" stroke="#000000" style="fill-opacity: 1; stroke-opacity: 1;" transform="matrix(-1,0,0,-1,506.1335,1140.1093)">
<g class="BoundaryPolygon">
<polygon points="0.00,0.00 37.00,0.00 37.00,61.59 0.00,61.59 "/>
</g>
<g class="Direction" fill-opacity="0.9" style="display: none;">
<polygon fill="#444444" points="19.43,56.14 19.43,45.53 16.42,45.53 16.42,56.14 12.61,56.14 17.92,61.45 23.22,56.14 19.43,56.14 "/>
</g>
<g class="Name" fill-opacity="0.9" style="display: none;">

</g>
<desc>Width:60 Height:200 Depth:60 Elevation:0</desc>
</g><g class="FixedFurniture CoatCloset" fill="#ffffff" stroke="#000000" style="fill-opacity: 1; stroke-opacity: 1;" transform="matrix(-1,0,0,-1,832.6882,1140.1093)">
<g class="BoundaryPolygon">
<polygon points="0.00,0.00 131.90,0.00 131.90,60.00 0.00,60.00 "/>
</g>

<g class="Direction" fill-opacity="0.9" style="display: none;">
<polygon fill="#444444" points="67.61,54.52 67.61,43.90 64.60,43.90 64.60,54.52 60.79,54.52 66.10,59.82 71.40,54.52 67.61,54.52 "/>
</g>
<g class="Name" fill-opacity="0.9" style="display: none;">

</g>
<desc>Width:120 Height:200 Depth:60 Elevation:0</desc>
</g><g class="FixedFurniture ShowerScreen" fill="#ffffff" stroke="#000000" style="fill-opacity: 1; stroke-opacity: 1;" transform="matrix(0,1,-1.2076,0,832.5042,1077.6093)">
<g class="BoundaryPolygon">
<polygon points="0,0 2.5,0 2.5,60 0,60"/>
</g>
<g class="InnerPolygon" stroke-linejoin="round">
<rect height="60" width="2.5"/>
</g>
<desc>Width:2.5 Height:180 Depth:60 Elevation:135</desc>
</g><g class="FixedFurniture ShowerScreen" fill="#ffffff" stroke="#000000" style="fill-opacity: 1; stroke-opacity: 1;" transform="matrix(0,1,-1.2076,0,773.0245,1074.8277)">
<g class="BoundaryPolygon">
<polygon points="0,0 2.5,0 2.5,60 0,60"/>
</g>
<g class="InnerPolygon" stroke-linejoin="round">
<rect height="60" width="2.5"/>
</g>
<desc>Width:2.5 Height:180 Depth:60 Elevation:135</desc>
</g><g class="FixedFurniture Closet" fill="#ffffff" stroke="#000000" style="fill-opacity: 1; stroke-opacity: 1;" transform="matrix(-1,0,0,-1,881.0242,1140.1093)">
<g class="BoundaryPolygon">
<polygon points="0.00,0.00 35.52,0.00 35.52,60.00 0.00,60.00 "/>
</g>
<g class="Direction" fill-opacity="0.9" style="display: none;">
<polygon fill="#444444" points="18.66,54.70 18.66,44.08 15.65,44.08 15.65,54.70 11.84,54.70 17.15,60.00 22.45,54.70 18.66,54.70 "/>
</g>
<g class="Name" fill-opacity="0.9" style="display: none;">

</g>
<desc>Width:60 Height:200 Depth:60 Elevation:0</desc>
</g><g class="Column Rectangle" fill="#000000" id="Column" stroke="none" style="fill-opacity: 1;"><polygon points="1041.73,925.19 1041.73,956.18 984.96,956.18 984.96,925.19 "/></g><g class="FixedFurnitureSet" fill="#ffffff" id="FixedFurnitureSet" stroke="#000000" style="fill-opacity: 0.4; stroke-opacity: 0.4;" transform="matrix(1,0,0,1,853.3567,925.3293)"><g class="FixedFurniture BaseCabinet" fill="#ffffff" stroke="#000000" style="fill-opacity: 1; stroke-opacity: 1;" transform="matrix(1,0,0,1,0,0)">
<g class="BoundaryPolygon">
<polygon points="0.00,0.00 55.66,0.00 55.66,39.64 0.00,39.64 "/>
</g>
<g class="Direction" fill-opacity="0.9" style="display: none;">
<polygon fill="#444444" points="29.69,36.47 29.69,25.86 26.68,25.86 26.68,36.47 22.88,36.47 28.18,41.27 33.49,36.47 29.69,36.47 "/>
</g>
<g class="Name" fill-opacity="0.9" style="display: none;">

</g>
<desc>Width:60 Height:5 Depth:60 Elevation:105</desc>
</g><g class="FixedFurniture Sink" fill="#ffffff" stroke="#000000" style="fill-opacity: 1; stroke-opacity: 1;" transform="matrix(1,0,0,1,0,0)">
<g class="BoundaryPolygon" fill="none" stroke="none">
<polygon points="0.00,0.00 55.66,0.00 55.66,39.64 0.00,39.64 "/>
</g>
<g class="InnerPolygon">
<polygon points="4.64,9.70 51.02,9.70 51.02,36.14 4.64,36.14 "/>
</g>
<g class="OuterDrain" stroke-width="0.8">
<circle cx="27.82949521307451" cy="21.276129672636298" r="3.5"/>
</g>
<g class="InnerDrain" stroke-width="0.8">
<circle cx="27.82949521307451" cy="21.276129672636298" r="2"/>
</g>
<g class="Faucet">
<polygon points="25.05,3.30 31.05,3.30 31.05,17.30 25.05,17.30 "/>
</g>
<g class="Direction" fill-opacity="0.9" style="display: none;">
<polygon fill="#444444" points="29.69,36.47 29.69,25.86 26.68,25.86 26.68,36.47 22.88,36.47 28.18,41.27 33.49,36.47 29.69,36.47 "/>
</g>
<g class="Name" fill-opacity="0.9" style="display: none;">

</g>
<desc>Width:60 Height:90 Depth:60 Elevation:0</desc>
</g></g><g class="FixedFurniture Toilet" fill="#ffffff" stroke="#000000" style="fill-opacity: 1; stroke-opacity: 1;" transform="matrix(1,0,0,1,919.2738,925.1886)">
<g class="BoundaryPolygon" fill="none" stroke="none">
<polygon points="0,0 41,0 41,71 0,71"/>
</g>
<g class="InnerPolygon">
<rect height="17.98" width="39.989" x="0.502" y="0.5"/>
<path d="M40.491,44.237S41.619,70.5,20.907,70.5C-.523,70.5.6,44.237.6,44.237L.5,18.48H40.491Z"/>
<rect height="3.03" width="6.357" x="17.318" y="7.975"/>
</g>
<desc>Width:41 Height:85 Depth:71 Elevation:0</desc>
</g><g class="FixedFurniture ElectricalAppliance SpaceForAppliance2" fill="#ffffff" stroke="#000000" style="fill-opacity: 1; stroke-opacity: 1;" transform="matrix(0,1,-0.9846,0,1041.5911,969.1187)">
<g class="BoundaryPolygon">
<polygon points="0,0 60,0 60,60 0,60"/>
</g>
<g class="electricitySign" fill="none">
<path d="M0,0,30.1,39.8V19.4L59.9,60"/>
</g>
<g class="Direction" fill-opacity="0.9" style="display: none;">
<polygon fill="#444444" points="32.009 55.197 32.009 44.581 29 44.581 29 55.197 25.197 55.197 30.5 60 35.803 55.197 32.009 55.197"/>
</g>
<g class="Name" fill-opacity="0.9" style="display: none;">

</g>
<desc>Width:60 Height:90 Depth:60 Elevation:0</desc>
</g><g class="FixedFurniture Shower" fill="#ffffff" stroke="#000000" style="fill-opacity: 1; stroke-opacity: 1;" transform="matrix(0,1,-1,0,1041.7296,1076.0554)">
<g class="BoundaryPolygon" fill="none" stroke="none">
<polygon points="0,0 32,0 32,19 0,19"/>
</g>
<g class="InnerPolygon">
<rect height="6.1" width="11.2" x="3.7" y="0.5"/>
<rect height="6.1" width="11.2" x="17.6" y="0.5"/>
<rect height="6.1" width="3.4" x="28.7" y="0.5"/>
<rect height="6.1" width="3.2" x="0.5" y="0.5"/>
<path d="M14.9,8.5c0,1.5-0.4,3.3-1.6,5    c-0.4,0.6-1,1.1-1.1,1.7c-0.2,1.1,0.3,2.8,2.5,3.2c0.5,0.1,1.3,0.1,1.6,0.1h-0.1c0.3,0,1.1,0,1.6-0.1c2.2-0.4,2.7-2.1,2.5-3.2    c-0.1-0.6-0.7-1.1-1.1-1.7c-1.2-1.7-1.6-3.5-1.6-5"/>
<path d="M12.2,15.3c0.1,0.2,1.6,1.9,4.2,1.9 c2.4-0.1,3.7-1.7,3.9-1.9"/>
<path d="M14.9,0.5h2.7v8c-0.9,0-1.8,0-2.7,0l0,0 C14.9,5.9,14.9,3.2,14.9,0.5z"/>
</g>
<g class="Indicator">
<path d="M3.7,3.6C5,3.1,5.2,3,5.2,3 c0,1.1,0,0,0,1.1C5.2,4.1,5.1,4.1,3.7,3.6"/>
<path d="M28.7,3.6 C27.4,3.1,27.2,3,27.2,3c0,1.1,0,0,0,1.1C27.2,4.1,27.3,4.1,28.7,3.6"/>
</g>
<desc>Width:32 Height:97 Depth:19 Elevation:135</desc>
</g><g class="FixedFurniture ShowerScreen" fill="#ffffff" stroke="#000000" style="fill-opacity: 1; stroke-opacity: 1;" transform="matrix(0,1,-1,0,1041.7297,1044.8826)">
<g class="BoundaryPolygon">
<polygon points="0,0 2.5,0 2.5,60 0,60"/>
</g>
<g class="InnerPolygon" stroke-linejoin="round">
<rect height="60" width="2.5"/>
</g>
<desc>Width:2.5 Height:180 Depth:60 Elevation:135</desc>
</g><g class="FixedFurniture BaseCabinet" fill="#ffffff" stroke="#000000" style="fill-opacity: 1; stroke-opacity: 1;" transform="matrix(0,-1,1,0,469.0306,912.1887)">
<g class="BoundaryPolygon">
<polygon points="0.00,0.00 229.70,0.00 229.70,60.00 0.00,60.00 "/>
</g>
<g class="Direction" fill-opacity="0.9" style="display: none;">
<polygon fill="#444444" points="122.54,55.20 122.54,44.58 119.53,44.58 119.53,55.20 115.73,55.20 121.03,60.00 126.33,55.20 122.54,55.20 "/>
</g>
<g class="Name" fill-opacity="0.9" style="display: none;">

</g>
<desc>Width:60 Height:90 Depth:60 Elevation:0</desc>
</g><g class="FixedFurniture BaseCabinet" fill="#ffffff" stroke="#000000" style="fill-opacity: 1; stroke-opacity: 1;" transform="matrix(0,1,-1,0,687.2636,682.874)">
<g class="BoundaryPolygon">
<polygon points="0.00,0.00 109.02,0.00 109.02,60.00 0.00,60.00 "/>
</g>
<g class="Direction" fill-opacity="0.9" style="display: none;">
<polygon fill="#444444" points="58.16,55.20 58.16,44.58 55.15,44.58 55.15,55.20 51.35,55.20 56.65,60.00 61.96,55.20 58.16,55.20 "/>
</g>
<g class="Name" fill-opacity="0.9" style="display: none;">

</g>
<desc>Width:60 Height:90 Depth:60 Elevation:0</desc>
</g><g class="FixedFurniture ElectricalAppliance SpaceForAppliance2" fill="#ffffff" stroke="#000000" style="fill-opacity: 1; stroke-opacity: 1;" transform="matrix(1,0,0,0.9703,627.2637,853.9707)">
<g class="BoundaryPolygon">
<polygon points="0,0 60,0 60,60 0,60"/>
</g>
<g class="electricitySign" fill="none">
<path d="M0,0,30.1,39.8V19.4L59.9,60"/>
</g>
<g class="Direction" fill-opacity="0.9" style="display: none;">
<polygon fill="#444444" points="32.009 55.197 32.009 44.581 29 44.581 29 55.197 25.197 55.197 30.5 60 35.803 55.197 32.009 55.197"/>
</g>
<g class="Name" fill-opacity="0.9" style="display: none;">

</g>
<desc>Width:60 Height:90 Depth:60 Elevation:0</desc>
</g><g class="FixedFurniture ElectricalAppliance Refrigerator" fill="#ffffff" stroke="#000000" style="fill-opacity: 1; stroke-opacity: 1;" transform="matrix(0,1.0253,-1,0,687.2637,791.8973)">
<g class="BoundaryPolygon">
<polygon points="0,0 60,0 60,60 0,60"/>
</g>
<g class="electricitySign" fill="none">
<path d="M0,0,30,37.1v-18L60,56.3"/>
</g>
<g class="Doors">
<rect height="4" width="60" y="56"/>
</g>
<g class="Direction" fill-opacity="0.9" style="display: none;">
<polygon fill="#444444" points="32.009 55.197 32.009 44.581 29 44.581 29 55.197 25.197 55.197 30.5 60 35.803 55.197 32.009 55.197"/>
</g>
<g class="Name" fill-opacity="0.9" style="display: none;">

</g>
<desc>Width:60 Height:170 Depth:60 Elevation:0</desc>
</g><g class="FixedFurniture ElectricalAppliance IntegratedStove" fill="#ffffff" stroke="#000000" style="fill-opacity: 1; stroke-opacity: 1;" transform="matrix(0,-1,1,0,469.0306,773.6326)">
<g class="BoundaryPolygon" fill="none" stroke="none">
<polygon points="0.00,0.00 63.82,0.00 63.82,60.00 0.00,60.00 "/>
</g>
<g class="InnerPolygon">
<polygon points="2.00,2.00 61.69,2.00 61.69,58.00 2.00,58.00 "/>
</g>
<g class="OuterCircle">
<circle cx="17.017598269654485" cy="16" r="8"/>
<circle cx="46.79839524154982" cy="16" r="8"/>
<circle cx="17.017598269654485" cy="44" r="8"/>
<circle cx="46.79839524154982" cy="44" r="8"/>
</g>
<g class="Direction" fill-opacity="0.9" style="display: none;">
<polygon fill="#444444" points="34.04,55.20 34.04,44.58 31.04,44.58 31.04,55.20 27.23,55.20 32.54,60.00 37.84,55.20 34.04,55.20 "/>
</g>
<g class="Name" fill-opacity="0.9" style="display: none;">

</g>
<desc>Width:60 Height:90 Depth:30 Elevation:0</desc>
</g><g class="FixedFurniture Sink" fill="#ffffff" stroke="#000000" style="fill-opacity: 1; stroke-opacity: 1;" transform="matrix(0,-1,1,0,478.1624,851.805)">
<g class="BoundaryPolygon" fill="none" stroke="none">
<polygon points="0.00,0.00 60.00,0.00 60.00,49.81 0.00,49.81 "/>
</g>
<g class="InnerPolygon">
<polygon points="5.00,9.70 55.00,9.70 55.00,45.41 5.00,45.41 "/>
</g>
<g class="OuterDrain" stroke-width="0.8">
<circle cx="30" cy="26.732068226747998" r="3.5"/>
</g>
<g class="InnerDrain" stroke-width="0.8">
<circle cx="30" cy="26.732068226747998" r="2"/>
</g>
<g class="Faucet">
<polygon points="27.00,4.15 33.00,4.15 33.00,18.15 27.00,18.15 "/>
</g>
<g class="Direction" fill-opacity="0.9" style="display: none;">
<polygon fill="#444444" points="32.01,45.82 32.01,35.21 29.00,35.21 29.00,45.82 25.20,45.82 30.50,50.63 35.80,45.82 32.01,45.82 "/>
</g>
<g class="Name" fill-opacity="0.9" style="display: none;">

</g>
<desc>Width:60 Height:90 Depth:60 Elevation:0</desc>
</g><g class="FixedFurniture ElectricalAppliance SpaceForAppliance" fill="#ffffff" stroke="#000000" style="fill-opacity: 1; stroke-opacity: 1;" transform="matrix(0,-1,1,0,469.0306,912.1887)">
<g class="BoundaryPolygon">
<polygon points="0,0 60,0 60,60 0,60"/>
</g>
<g class="electricitySign" fill="none">
<path d="M0,0,30.1,39.8V19.4L59.9,60"/>
</g>
<g class="Direction" fill-opacity="0.9" style="display: none;">
<polygon fill="#444444" points="32.009 55.197 32.009 44.581 29 44.581 29 55.197 25.197 55.197 30.5 60 35.803 55.197 32.009 55.197"/>
</g>
<g class="Name" fill-opacity="0.9" style="display: none;">

</g>
<desc>Width:60 Height:90 Depth:60 Elevation:0</desc>
</g><g class="SelectionControls" fill="#0000ff" stroke="#0000ff" style="display: none;"><g class="rotateControl" style="display: none;"><circle cx="323.635193845445" cy="943.4493498506766" r="5" style="stroke : none; fill-opacity: 0.5; cursor:crosshair"/></g><g class="ResizeNControl" style="display: none;"><circle cx="0" cy="0" r="5" style="stroke : none; fill-opacity: 0.5"/></g><g class="ResizeNEControl" style="display: none;"><circle cx="0" cy="0" r="5" style="stroke : none; fill-opacity: 0.5"/></g><g class="ResizeEControl" style="display: none;"><circle cx="0" cy="0" r="5" style="stroke : none; fill-opacity: 0.5"/></g><g class="ResizeSEControl" style="display: none;"><circle cx="0" cy="0" r="5" style="stroke : none; fill-opacity: 0.5"/></g><g class="ResizeSControl" style="display: none;"><circle cx="0" cy="0" r="5" style="stroke : none; fill-opacity: 0.5"/></g><g class="ResizeSWControl" style="display: none;"><circle cx="0" cy="0" r="5" style="stroke : none; fill-opacity: 0.5"/></g><g class="ResizeWControl" style="display: none;"><circle cx="0" cy="0" r="5" style="stroke : none; fill-opacity: 0.5"/></g><g class="ResizeNWControl" style="display: none;"><circle cx="0" cy="0" r="5" style="stroke : none; fill-opacity: 0.5"/></g><g class="removeControl" style="display: none;"><polygon points="297.35,973.45 349.92,973.45 349.92,1013.34 297.35,1013.34 " style="stroke : none; fill-opacity: 0.1"/></g><g class="copyPasteControl" style="display: none;"><polygon style="stroke : none; fill-opacity: 0.1"/></g><g class="translateControl" style="display: none;"><polygon points="297.35,973.45 349.92,973.45 349.92,1013.34 297.35,1013.34 " style="stroke : none; fill-opacity: 0.1; cursor:move"/></g></g><g class="SelectionControls" fill="#0000ff" stroke="#0000ff" style="display: none;"><polygon fill="none" points="178.09,827.45 455.03,827.45 455.03,1140.11 178.09,1140.11 " stroke="#0000ff" style=""/><g class="rotateControl" style="display: none;"><circle cx="316.5594380104841" cy="797.4511498506766" r="5" style="stroke : none; fill-opacity: 0.5; cursor:crosshair"/></g><g class="ResizeNControl" style="display: none;"><circle cx="0" cy="0" r="5" style="stroke : none; fill-opacity: 0.5"/></g><g class="ResizeNEControl" style="display: none;"><circle cx="0" cy="0" r="5" style="stroke : none; fill-opacity: 0.5"/></g><g class="ResizeEControl" style="display: none;"><circle cx="0" cy="0" r="5" style="stroke : none; fill-opacity: 0.5"/></g><g class="ResizeSEControl" style="display: none;"><circle cx="0" cy="0" r="5" style="stroke : none; fill-opacity: 0.5"/></g><g class="ResizeSControl" style="display: none;"><circle cx="0" cy="0" r="5" style="stroke : none; fill-opacity: 0.5"/></g><g class="ResizeSWControl" style="display: none;"><circle cx="0" cy="0" r="5" style="stroke : none; fill-opacity: 0.5"/></g><g class="ResizeWControl" style="display: none;"><circle cx="0" cy="0" r="5" style="stroke : none; fill-opacity: 0.5"/></g><g class="ResizeNWControl" style="display: none;"><circle cx="0" cy="0" r="5" style="stroke : none; fill-opacity: 0.5"/></g><g class="removeControl" style="display: none;"><polygon style="stroke : none; fill-opacity: 0.1"/></g><g class="copyPasteControl" style="display: none;"><polygon style="stroke : none; fill-opacity: 0.1"/></g><g class="translateControl" style="display: none;"><polygon style="stroke : none; fill-opacity: 0.1; cursor:move"/></g></g><g class="Railing" fill="#ffffff" id="Railing" stroke="#000000" style="fill-opacity: 1; stroke-opacity: 1; stroke-width: 1;"><polygon points="737.56,183.14 737.56,394.31 747.56,394.31 747.56,193.14 " style="stroke-dasharray: 422.346, 14.1421;"/></g></g></g></g></svg>