<?xml version="1.0" encoding="utf-8"?>
<svg height="1293.8699493408203" id="temp" version="1.1" viewBox="0 0 1058.540054321289 1293.8699493408203" width="1058.540054321289" xmlns="http://www.w3.org/2000/svg" xmlns:xlink="http://www.w3.org/1999/xlink"><defs/><g class="Model v1-1" id="Model"><g class="Floor"><g class="Floorplan Floor-1" id="Floor-1"><g class="Space Outdoor Balcony" fill="#ffffff" id="ca54defe-2241-4869-b02c-b7b99c897de5" stroke="#000000" style="fill-opacity: 1; stroke-opacity: 1; stroke-width: 1;"><polygon points="774.56,78.24 950.63,78.24 950.63,537.55 774.56,537.55 774.56,78.24 774.56,78.24 "/><g class="Dimension" transform="matrix(1,0,0,1,774.5561,78.2379)"><g class="Visual" style="display: none;" transform="matrix(1,0,0,1,0,0)"><g class="DimensionMark" fill="#000000" id="mark1" stroke="none" style="fill-opacity: 1; pointer-events: visible;" transform="matrix(1,0,0,1,88.0385,0)"><polygon points="-5,5,0,0,5,5"/></g><g class="DimensionMark" fill="#000000" id="mark2" stroke="none" style="fill-opacity: 1; pointer-events: visible;" transform="matrix(1,0,0,1,176.0769,229.6558)"><polygon points="-5,-5,0,0,-5,5"/></g><g class="DimensionMark" fill="#000000" id="mark3" stroke="none" style="fill-opacity: 1; pointer-events: visible;" transform="matrix(1,0,0,1,88.0385,459.3117)"><polygon points="-5,-5,0,0,5,-5"/></g><g class="DimensionMark" fill="#000000" id="mark4" stroke="none" style="fill-opacity: 1; pointer-events: visible;" transform="matrix(1,0,0,1,0,229.6558)"><polygon points="5,5,0,0,5,-5"/></g></g><g class="SpaceDimensionsLabel" transform="matrix(1,0,0,1,14.1094,231.6108)"><g class="TextLabel NameLabel" id="NameLabel" style="display: block;"/><g class="TextLabel DimensionMeasureLabel" id="DimensionMeasureLabel" style="display: none;" transform="matrix(1,0,0,1,-63.7031,79.25)"/></g></g></g><g class="Space LivingRoom" fill="#ffffff" id="5fa882a6-b9b3-4551-99b5-7859c80d3956" stroke="#ffffff" style="fill-opacity: 1; stroke-opacity: 1; stroke-width: 1;"><polygon points="748.56,93.21 749.00,551.00 66.00,548.00 66.36,92.58 "/><g class="Dimension" transform="matrix(1,0,0,1,66.1799,92.8958)"><g class="Visual" style="display: none;" transform="matrix(1,0,0,1,0,0)"><g class="DimensionMark" fill="#000000" id="mark1" stroke="none" style="fill-opacity: 1; pointer-events: visible;" transform="matrix(1,0,0,1,341.3264,0)"><polygon points="-5,5,0,0,5,5"/></g><g class="DimensionMark" fill="#000000" id="mark2" stroke="none" style="fill-opacity: 1; pointer-events: visible;" transform="matrix(1,0,0,1,682.5978,228.8935)"><polygon points="-5,-5,0,0,-5,5"/></g><g class="DimensionMark" fill="#000000" id="mark3" stroke="none" style="fill-opacity: 1; pointer-events: visible;" transform="matrix(1,0,0,1,341.3264,456.6043)"><polygon points="-5,-5,0,0,5,-5"/></g><g class="DimensionMark" fill="#000000" id="mark4" stroke="none" style="fill-opacity: 1; pointer-events: visible;" transform="matrix(1,0,0,1,0,228.8935)"><polygon points="5,5,0,0,5,-5"/></g></g><g class="SpaceDimensionsLabel" style="display: block;" transform="matrix(1,0,0,1,318.0223,245.4908)"><g class="TextLabel NameLabel" id="NameLabel" style="display: block;"/><g class="TextLabel DimensionMeasureLabel" id="DimensionMeasureLabel" style="display: none;" transform="matrix(1,0,0,1,-114.5859,79.25)"/></g></g></g><g class="Space Entry Lobby" fill="#ffffff" id="071aed09-733b-4a6b-a022-41228aadfcae" stroke="#ffffff" style="fill-opacity: 1; stroke-opacity: 1; stroke-width: 1;"><polygon points="749.77,965.10 443.74,965.10 443.74,920.89 432.78,920.89 431.78,785.76 749.77,785.76 "/><g class="Dimension" transform="matrix(1,0,0,1,432.4446,785.7569)"><g class="Visual" style="display: none;" transform="matrix(1,0,0,1,0,0)"><g class="DimensionMark" fill="#000000" id="mark1" stroke="none" style="fill-opacity: 1; pointer-events: visible;" transform="matrix(1,0,0,1,158.3295,0)"><polygon points="-5,5,0,0,5,5"/></g><g class="DimensionMark" fill="#000000" id="mark2" stroke="none" style="fill-opacity: 1; pointer-events: visible;" transform="matrix(1,0,0,1,317.3225,89.6666)"><polygon points="-5,-5,0,0,-5,5"/></g><g class="DimensionMark" fill="#000000" id="mark3" stroke="none" style="fill-opacity: 1; pointer-events: visible;" transform="matrix(1,0,0,1,158.3295,179.343)"><polygon points="-5,-5,0,0,5,-5"/></g><g class="DimensionMark" fill="#000000" id="mark4" stroke="none" style="fill-opacity: 1; pointer-events: visible;" transform="matrix(1,0,0,1,0,89.6666)"><polygon points="5,5,0,0,5,-5"/></g></g><g class="SpaceDimensionsLabel" style="display: block;" transform="matrix(1,0,0,1,232.7547,108.231)"><g class="TextLabel NameLabel" id="NameLabel" style="display: block;"/><g class="TextLabel DimensionMeasureLabel" id="DimensionMeasureLabel" style="display: none;" transform="matrix(1,0,0,1,-118.9531,79.75)"/></g></g></g><g class="Space Kitchen" fill="#ffffff" id="6ef96c9d-3d93-4ea5-91be-5eac66a804d7" stroke="#ffffff" style="fill-opacity: 1; stroke-opacity: 1; stroke-width: 1;"><polygon points="749.00,551.00 748.56,561.89 1030.54,561.89 1030.54,948.05 870.83,948.05 870.83,947.93 760.77,947.93 760.77,785.76 431.78,785.76 430.00,550.00 "/><g class="Dimension" transform="matrix(1,0,0,1,431.5035,550.9413)"><g class="Visual" style="display: none;" transform="matrix(1,0,0,1,0,0)"><g class="DimensionMark" fill="#000000" id="mark1" stroke="none" style="fill-opacity: 1; pointer-events: visible;" transform="matrix(1,0,0,1,329.2636,0)"><polygon points="-5,5,0,0,5,5"/></g><g class="DimensionMark" fill="#000000" id="mark2" stroke="none" style="fill-opacity: 1; pointer-events: visible;" transform="matrix(1,0,0,1,599.0333,198.0746)"><polygon points="-5,-5,0,0,-5,5"/></g><g class="DimensionMark" fill="#000000" id="mark3" stroke="none" style="fill-opacity: 1; pointer-events: visible;" transform="matrix(1,0,0,1,329.2636,396.9844)"><polygon points="-5,-5,0,0,5,-5"/></g><g class="DimensionMark" fill="#000000" id="mark4" stroke="none" style="fill-opacity: 1; pointer-events: visible;" transform="matrix(1,0,0,1,0,198.0746)"><polygon points="5,5,0,0,5,-5"/></g></g><g class="SpaceDimensionsLabel" style="display: block;" transform="matrix(1,0,0,1,437.06,248.0023)"><g class="TextLabel NameLabel" id="NameLabel" style="display: block;"/><g class="TextLabel DimensionMeasureLabel" id="DimensionMeasureLabel" style="display: none;" transform="matrix(1,0,0,1,-128.4141,79.3125)"/></g></g></g><g class="Space Bedroom" fill="#ffffff" id="2c440096-067f-4d15-9c12-6c184f9836e2" stroke="#ffffff" style="fill-opacity: 1; stroke-opacity: 1; stroke-width: 1;"><polygon points="430.00,550.00 432.78,920.89 432.74,920.89 432.74,965.10 66.36,965.10 66.36,560.17 291.88,560.17 278.00,549.17 "/><g class="Dimension" transform="matrix(1,0,0,1,66.3622,560.1653)"><g class="Visual" style="display: none;" transform="matrix(1,0,0,1,0,0)"><g class="DimensionMark" fill="#000000" id="mark1" stroke="none" style="fill-opacity: 1; pointer-events: visible;" transform="matrix(1,0,0,1,183.2094,0)"><polygon points="-5,5,0,0,5,5"/></g><g class="DimensionMark" fill="#000000" id="mark2" stroke="none" style="fill-opacity: 1; pointer-events: visible;" transform="matrix(1,0,0,1,365.191,196.9765)"><polygon points="-5,-5,0,0,-5,5"/></g><g class="DimensionMark" fill="#000000" id="mark3" stroke="none" style="fill-opacity: 1; pointer-events: visible;" transform="matrix(1,0,0,1,183.2094,404.9346)"><polygon points="-5,-5,0,0,5,-5"/></g><g class="DimensionMark" fill="#000000" id="mark4" stroke="none" style="fill-opacity: 1; pointer-events: visible;" transform="matrix(1,0,0,1,0,196.9765)"><polygon points="5,5,0,0,5,-5"/></g></g><g class="SpaceDimensionsLabel" style="display: block;" transform="matrix(1,0,0,1,154.8101,243.1685)"><g class="TextLabel NameLabel" id="NameLabel" style="display: block;"/><g class="TextLabel DimensionMeasureLabel" id="DimensionMeasureLabel" style="display: none;" transform="matrix(1,0,0,1,-113.6875,79.5469)"/></g></g></g><g class="Space Bath" fill="#ffffff" id="7ee80048-f681-4f8f-b005-ed9e75ff4228" stroke="#ffffff" style="fill-opacity: 1; stroke-opacity: 1; stroke-width: 1;"><polygon points="631.39,549.85 631.39,840.60 600.76,840.60 600.76,789.58 514.96,789.58 514.96,817.90 443.74,817.90 443.74,848.50 432.74,848.50 432.74,549.85 "/><g class="Dimension" transform="matrix(1,0,0,1,432.743,549.8542)"><g class="Visual" style="display: none;" transform="matrix(1,0,0,1,0,0)"><g class="DimensionMark" fill="#000000" id="mark1" stroke="none" style="fill-opacity: 1; pointer-events: visible;" transform="matrix(1,0,0,1,82.2189,0)"><polygon points="-5,5,0,0,5,5"/></g><g class="DimensionMark" fill="#000000" id="mark2" stroke="none" style="fill-opacity: 1; pointer-events: visible;" transform="matrix(1,0,0,1,198.6452,149.3244)"><polygon points="-5,-5,0,0,-5,5"/></g><g class="DimensionMark" fill="#000000" id="mark3" stroke="none" style="fill-opacity: 1; pointer-events: visible;" transform="matrix(1,0,0,1,82.2189,268.042)"><polygon points="-5,-5,0,0,5,-5"/></g><g class="DimensionMark" fill="#000000" id="mark4" stroke="none" style="fill-opacity: 1; pointer-events: visible;" transform="matrix(1,0,0,1,0,149.3244)"><polygon points="5,5,0,0,5,-5"/></g></g><g class="SpaceDimensionsLabel" style="display: block;" transform="matrix(1,0,0,1,80.7201,143.4173)"><g class="TextLabel NameLabel" id="NameLabel" style="display: block;"/><g class="TextLabel DimensionMeasureLabel" id="DimensionMeasureLabel" style="display: none;" transform="matrix(1,0,0,1,-106.1953,79.25)"/></g></g></g><g class="Space Bedroom" fill="#ffffff" id="58ac6816-05b2-4185-8311-6ec0e77b2a1d" stroke="#ffffff" style="fill-opacity: 1; stroke-opacity: 1; stroke-width: 1;"><polygon points="635.00,976.10 635.00,1272.56 66.36,1272.56 66.36,976.10 "/><g class="Dimension" transform="matrix(1,0,0,1,66.3622,976.0999)"><g class="Visual" style="display: none;" transform="matrix(1,0,0,1,0,0)"><g class="DimensionMark" fill="#000000" id="mark1" stroke="none" style="fill-opacity: 1; pointer-events: visible;" transform="matrix(1,0,0,1,284.3212,0)"><polygon points="-5,5,0,0,5,5"/></g><g class="DimensionMark" fill="#000000" id="mark2" stroke="none" style="fill-opacity: 1; pointer-events: visible;" transform="matrix(1,0,0,1,568.6425,148.2299)"><polygon points="-5,-5,0,0,-5,5"/></g><g class="DimensionMark" fill="#000000" id="mark3" stroke="none" style="fill-opacity: 1; pointer-events: visible;" transform="matrix(1,0,0,1,284.3212,296.4598)"><polygon points="-5,-5,0,0,5,-5"/></g><g class="DimensionMark" fill="#000000" id="mark4" stroke="none" style="fill-opacity: 1; pointer-events: visible;" transform="matrix(1,0,0,1,0,148.2299)"><polygon points="5,5,0,0,5,-5"/></g></g><g class="SpaceDimensionsLabel" style="display: block;" transform="matrix(1,0,0,1,249.2892,162.6997)"><g class="TextLabel NameLabel" id="NameLabel" style="display: block;"/><g class="TextLabel DimensionMeasureLabel" id="DimensionMeasureLabel" style="display: none;" transform="matrix(1,0,0,1,-113.7032,80.1094)"/></g></g></g><g class="Space DraughtLobby" fill="#ffffff" id="74962457-3856-4673-9318-3501973964b8" stroke="#ffffff" style="fill-opacity: 1; stroke-opacity: 1; stroke-width: 1;"><polygon points="870.83,1126.46 646.00,1126.46 646.00,976.10 870.83,976.10 "/><g class="Dimension" transform="matrix(1,0,0,1,646.0047,976.0999)"><g class="Visual" style="display: none;" transform="matrix(1,0,0,1,0,0)"><g class="DimensionMark" fill="#000000" id="mark1" stroke="none" style="fill-opacity: 1; pointer-events: visible;" transform="matrix(1,0,0,1,112.4147,0)"><polygon points="-5,5,0,0,5,5"/></g><g class="DimensionMark" fill="#000000" id="mark2" stroke="none" style="fill-opacity: 1; pointer-events: visible;" transform="matrix(1,0,0,1,224.8295,75.181)"><polygon points="-5,-5,0,0,-5,5"/></g><g class="DimensionMark" fill="#000000" id="mark3" stroke="none" style="fill-opacity: 1; pointer-events: visible;" transform="matrix(1,0,0,1,112.4147,150.3619)"><polygon points="-5,-5,0,0,5,-5"/></g><g class="DimensionMark" fill="#000000" id="mark4" stroke="none" style="fill-opacity: 1; pointer-events: visible;" transform="matrix(1,0,0,1,0,75.181)"><polygon points="5,5,0,0,5,-5"/></g></g><g class="SpaceDimensionsLabel" style="display: block;" transform="matrix(1,0,0,1,69.8516,105.0257)"><g class="TextLabel NameLabel" id="NameLabel" style="display: block;"/><g class="TextLabel DimensionMeasureLabel" id="DimensionMeasureLabel" style="display: none;" transform="matrix(1,0,0,1,-118.8203,80.1094)"/></g></g></g><g class="Wall External" fill="#000000" id="Wall" stroke="#000000" style="fill-opacity: 1; stroke-opacity: 1; stroke-width: 1;"><polygon points="40.36,66.55 40.36,1293.87 66.36,1272.56 66.36,92.58 "/><g class="Window Regular" fill="#f0f0ff" id="Window" stroke="#000000" style="fill-opacity: 1; stroke-width: 1; stroke-opacity: 1;"><polygon points="40.36,787.61 40.36,955.36 66.36,955.36 66.36,787.61 "/><g class="Glass" id="Glass"><polygon points="40.36,787.61 40.36,955.36 66.36,955.36 66.36,787.61 "/></g><g class="Panel" id="Panel"><line x1="53.36220542708148" x2="53.362205427081484" y1="795.1117182942957" y2="947.8569872780272"/><line x1="40.362205427081484" x2="66.36220542708148" y1="795.1117182942957" y2="795.1117182942957"/><line x1="40.36220542708149" x2="66.36220542708149" y1="947.8569872780272" y2="947.8569872780272"/></g></g><g class="Window Regular" fill="#f0f0ff" id="Window" stroke="#000000" style="fill-opacity: 1; stroke-width: 1; stroke-opacity: 1;"><polygon points="40.36,1010.24 40.36,1187.30 66.36,1187.30 66.36,1010.24 "/><g class="Glass" id="Glass"><polygon points="40.36,1010.24 40.36,1187.30 66.36,1187.30 66.36,1010.24 "/></g><g class="Panel" id="Panel"><line x1="53.36220542708149" x2="53.3622054270815" y1="1017.7366123159145" y2="1179.8010629098533"/><line x1="40.36220542708149" x2="66.36220542708149" y1="1017.7366123159145" y2="1017.7366123159145"/><line x1="40.3622054270815" x2="66.3622054270815" y1="1179.8010629098533" y2="1179.8010629098533"/></g></g></g><g class="Wall External" fill="#000000" id="Wall" stroke="#000000" style="fill-opacity: 1; stroke-opacity: 1; stroke-width: 1;"><polygon points="66.36,1272.56 635.00,1272.56 665.84,1293.87 40.36,1293.87 "/></g><g class="Wall External" fill="#000000" id="Wall" stroke="#000000" style="fill-opacity: 1; stroke-opacity: 1; stroke-width: 1;"><polygon points="635.00,1272.56 635.00,1126.46 665.84,1155.57 665.84,1293.87 "/></g><g class="Wall External" fill="#000000" id="Wall" stroke="#000000" style="fill-opacity: 1; stroke-opacity: 1; stroke-width: 1;"><polygon points="635.00,1126.46 870.83,1126.46 900.29,1155.57 665.84,1155.57 "/><g class="Door Swing Beside" fill="#ffffff" id="Door" stroke="#000000" style="fill-opacity: 1; stroke-width: 1; stroke-opacity: 1;"><polygon points="676.33,1126.46 747.70,1126.46 747.70,1155.57 676.33,1155.57 "/><g class="Panel Left Positive" fill="none" id="Panel" style=""><g class="PanelArea" fill="none" id="PanelArea" stroke="none" style=""><polygon points="676.33,1126.46 747.70,1126.46 747.70,1155.57 676.33,1155.57 "/></g><path d="M747.70,1155.57 q0.00,71.38 -71.38,71.38 l0.00,-71.38Z"/></g></g></g><g class="Wall External" fill="#000000" id="Wall" stroke="#000000" style="fill-opacity: 1; stroke-opacity: 1; stroke-width: 1;"><polygon points="900.29,1155.57 900.29,978.05 870.83,948.05 870.83,1126.46 "/></g><g class="Wall External" fill="#000000" id="Wall" stroke="#000000" style="fill-opacity: 1; stroke-opacity: 1; stroke-width: 1;"><polygon points="900.29,978.05 1058.54,978.05 1030.54,948.05 870.83,948.05 "/></g><g class="Wall External" fill="#000000" id="Wall" stroke="#000000" style="fill-opacity: 1; stroke-opacity: 1; stroke-width: 1;"><polygon points="1058.54,978.05 1058.54,537.55 1030.54,561.89 1030.54,948.05 "/></g><g class="Wall External" fill="#000000" id="Wall" stroke="#000000" style="fill-opacity: 1; stroke-opacity: 1; stroke-width: 1;"><polygon points="1058.54,537.55 774.56,537.55 748.56,561.89 1030.54,561.89 "/><g class="Window Regular" fill="#f0f0ff" id="Window" stroke="#000000" style="fill-opacity: 1; stroke-width: 1; stroke-opacity: 1;"><polygon points="949.98,537.55 812.50,537.55 812.50,561.89 949.98,561.89 "/><g class="Glass" id="Glass"><polygon points="949.98,537.55 812.50,537.55 812.50,561.89 949.98,561.89 "/></g><g class="Panel" id="Panel"><line x1="942.4797254904983" x2="819.9984505348502" y1="549.7214008874034" y2="549.7214008874034"/><line x1="942.4797254904983" x2="942.4797254904983" y1="537.5495904184099" y2="561.8932113563969"/><line x1="819.9984505348502" x2="819.9984505348502" y1="537.5495904184099" y2="561.8932113563969"/></g></g></g><g class="Wall External" fill="#000000" id="Wall" stroke="#000000" style="fill-opacity: 1; stroke-opacity: 1; stroke-width: 1;"><polygon points="748.56,561.89 748.56,93.21 774.56,67.24 774.56,537.55 "/><g class="Door Swing Beside" fill="#ffffff" id="Door" stroke="#000000" style="fill-opacity: 1; stroke-width: 1; stroke-opacity: 1;"><polygon points="748.56,502.37 748.56,426.09 774.56,426.09 774.56,502.37 "/><g class="Panel Left Positive" fill="none" id="Panel" style=""><g class="PanelArea" fill="none" id="PanelArea" stroke="none" style=""><polygon points="748.56,502.37 748.56,426.09 774.56,426.09 774.56,502.37 "/></g><path d="M774.56,426.09 q76.27,0.00 76.27,76.27 l-76.27,0.00Z"/></g></g><g class="Window Regular" fill="#f0f0ff" id="Window" stroke="#000000" style="fill-opacity: 1; stroke-width: 1; stroke-opacity: 1;"><polygon points="748.56,392.96 748.56,157.63 774.56,157.63 774.56,392.96 "/><g class="Glass" id="Glass"><polygon points="748.56,392.96 748.56,157.63 774.56,157.63 774.56,392.96 "/></g><g class="Panel" id="Panel"><line x1="761.5560651925352" x2="761.5560651925351" y1="385.4605105461719" y2="165.13172003206665"/><line x1="748.5560651925352" x2="774.5560651925352" y1="385.4605105461719" y2="385.4605105461719"/><line x1="748.5560651925351" x2="774.5560651925351" y1="165.13172003206665" y2="165.13172003206665"/></g></g></g><g class="Wall External" fill="#000000" id="Wall" stroke="#000000" style="fill-opacity: 1; stroke-opacity: 1; stroke-width: 1;"><polygon points="774.56,67.24 40.36,66.55 66.36,92.58 748.56,93.21 "/></g><g class="Wall" fill="#000000" id="Wall" stroke="#000000" style="fill-opacity: 1; stroke-opacity: 1; stroke-width: 1;"><polygon points="635.00,1126.46 635.00,965.10 646.00,976.10 646.00,1126.46 "/></g><g class="Wall" fill="#000000" id="Wall" stroke="#000000" style="fill-opacity: 1; stroke-opacity: 1; stroke-width: 1;"><polygon points="635.00,976.10 40.36,976.10 40.36,965.10 635.00,965.10 "/><g class="Door Swing Beside" fill="#ffffff" id="Door" stroke="#000000" style="fill-opacity: 1; stroke-width: 1; stroke-opacity: 1;"><polygon points="547.88,976.10 477.77,976.10 477.77,965.10 547.88,965.10 "/><g class="Panel Right Negative" fill="none" id="Panel" style=""><g class="PanelArea" fill="none" id="PanelArea" stroke="none" style=""><polygon points="547.88,976.10 477.77,976.10 477.77,965.10 547.88,965.10 "/></g><path d="M477.77,976.10 q0.00,70.11 70.11,70.11 l0.00,-70.11Z"/></g></g></g><g class="Wall" fill="#000000" id="Wall" stroke="#000000" style="fill-opacity: 1; stroke-opacity: 1; stroke-width: 1;"><polygon points="635.00,965.10 749.77,965.10 760.77,976.10 646.00,976.10 "/><g class="Door Swing Beside" fill="#ffffff" id="Door" stroke="#000000" style="fill-opacity: 1; stroke-width: 1; stroke-opacity: 1;"><polygon points="668.28,965.10 738.19,965.10 738.19,976.10 668.28,976.10 "/><g class="Panel Left Positive" fill="none" id="Panel" style=""><g class="PanelArea" fill="none" id="PanelArea" stroke="none" style=""><polygon points="668.28,965.10 738.19,965.10 738.19,976.10 668.28,976.10 "/></g><path d="M738.19,976.10 q0.00,69.90 -69.90,69.90 l0.00,-69.90Z"/></g></g></g><g class="Wall" fill="#000000" id="Wall" stroke="#000000" style="fill-opacity: 1; stroke-opacity: 1; stroke-width: 1;"><polygon points="749.77,976.10 870.83,976.10 870.83,947.93 749.77,947.93 "/></g><g class="Wall" fill="#000000" id="Wall" stroke="#000000" style="fill-opacity: 1; stroke-opacity: 1; stroke-width: 1;"><polygon points="749.77,965.10 749.77,785.76 760.77,785.76 760.77,976.10 "/></g><g class="Wall" fill="#000000" id="Wall" stroke="#000000" style="fill-opacity: 1; stroke-opacity: 1; stroke-width: 1;"><polygon points="432.74,965.10 432.74,920.89 443.74,920.89 443.74,965.10 "/></g><g class="Wall" fill="#000000" id="Wall" stroke="#000000" style="fill-opacity: 1; stroke-opacity: 1; stroke-width: 1;"><polygon points="432.74,848.50 432.74,778.58 443.74,778.58 443.74,848.50 "/></g><g class="Wall" fill="#000000" id="Wall" stroke="#000000" style="fill-opacity: 1; stroke-opacity: 1; stroke-width: 1;"><polygon points="432.74,778.58 432.74,549.85 443.74,560.85 443.74,778.58 "/></g><g class="Wall" fill="#000000" id="Wall" stroke="#000000" style="fill-opacity: 1; stroke-opacity: 1; stroke-width: 1;"><polygon points="432.74,549.85 631.39,549.85 631.39,560.85 443.74,560.85 "/></g><g class="Wall" fill="#000000" id="Wall" stroke="#000000" style="fill-opacity: 1; stroke-opacity: 1; stroke-width: 1;"><polygon points="432.74,778.58 514.96,778.58 514.96,817.90 443.74,817.90 "/></g><g class="Wall" fill="#000000" id="Wall" stroke="#000000" style="fill-opacity: 1; stroke-opacity: 1; stroke-width: 1;"><polygon points="514.96,778.58 631.39,778.58 600.76,789.58 514.96,789.58 "/></g><g class="Wall" fill="#000000" id="Wall" stroke="#000000" style="fill-opacity: 1; stroke-opacity: 1; stroke-width: 1;"><polygon points="620.39,778.58 620.39,549.85 631.39,549.85 631.39,778.58 "/><g class="Door Swing Beside" fill="#ffffff" id="Door" stroke="#000000" style="fill-opacity: 1; stroke-width: 1; stroke-opacity: 1;"><polygon points="620.39,749.61 620.39,679.98 631.39,679.98 631.39,749.61 "/><g class="Panel Right Positive" fill="none" id="Panel" style=""><g class="PanelArea" fill="none" id="PanelArea" stroke="none" style=""><polygon points="620.39,749.61 620.39,679.98 631.39,679.98 631.39,749.61 "/></g><path d="M631.39,749.61 q69.63,0.00 69.63,-69.63 l-69.63,0.00Z"/></g></g></g><g class="Wall" fill="#000000" id="Wall" stroke="#000000" style="fill-opacity: 1; stroke-opacity: 1; stroke-width: 1;"><polygon points="631.39,778.58 631.39,840.60 600.76,840.60 600.76,789.58 "/></g><g class="Wall" fill="#000000" id="Wall" stroke="#000000" style="fill-opacity: 1; stroke-opacity: 1; stroke-width: 1;"><polygon points="40.36,560.17 291.88,560.17 291.88,549.17 40.36,549.17 "/></g><g class="Railing" fill="#ffffff" id="Railing" stroke="#000000" style="fill-opacity: 1; stroke-opacity: 1; stroke-width: 1;"><polygon points="774.56,67.24 961.63,67.24 950.63,78.24 774.56,78.24 " style="stroke-dasharray: 187.077, 15.5563, 187.077;"/></g><g class="Railing" fill="#ffffff" id="Railing" stroke="#000000" style="fill-opacity: 1; stroke-opacity: 1; stroke-width: 1;"><polygon points="950.63,78.24 950.63,537.55 961.63,537.55 961.63,67.24 " style="stroke-dasharray: 940.623, 15.5563;"/></g><g class="FixedFurnitureSet" fill="#ffffff" id="FixedFurnitureSet" stroke="#000000" style="fill-opacity: 1; stroke-opacity: 1;" transform="matrix(1,0,0,1,66.3623,560.2747)"><g class="FixedFurniture Closet" fill="#ffffff" stroke="#000000" style="fill-opacity: 1; stroke-opacity: 1;" transform="matrix(1,0,0,1,0,0)">
<g class="BoundaryPolygon">
<polygon points="0.00,0.00 75.05,0.00 75.05,65.77 0.00,65.77 "/>
</g>
<g class="Direction" fill-opacity="0.9" style="display: none;">
<polygon fill="#444444" points="39.41,59.96 39.41,49.34 36.40,49.34 36.40,59.96 32.60,59.96 37.90,65.26 43.21,59.96 39.41,59.96 "/>
</g>
<g class="Name" fill-opacity="0.9" style="display: none;">

</g>
<desc>Width:60 Height:200 Depth:60 Elevation:0</desc>
</g><g class="FixedFurniture Closet" fill="#ffffff" stroke="#000000" style="fill-opacity: 1; stroke-opacity: 1;" transform="matrix(1,0,0,1,75.051,0)">
<g class="BoundaryPolygon">
<polygon points="0.00,0.00 75.05,0.00 75.05,65.77 0.00,65.77 "/>
</g>
<g class="Direction" fill-opacity="0.9" style="display: none;">
<polygon fill="#444444" points="39.41,59.96 39.41,49.34 36.40,49.34 36.40,59.96 32.60,59.96 37.90,65.26 43.21,59.96 39.41,59.96 "/>
</g>
<g class="Name" fill-opacity="0.9" style="display: none;">

</g>
<desc>Width:60 Height:200 Depth:60 Elevation:0</desc>
</g><g class="FixedFurniture Closet" fill="#ffffff" stroke="#000000" style="fill-opacity: 1; stroke-opacity: 1;" transform="matrix(1,0,0,1,150.1019,0)">
<g class="BoundaryPolygon">
<polygon points="0.00,0.00 75.05,0.00 75.05,65.77 0.00,65.77 "/>
</g>
<g class="Direction" fill-opacity="0.9" style="display: none;">
<polygon fill="#444444" points="39.41,59.96 39.41,49.34 36.40,49.34 36.40,59.96 32.60,59.96 37.90,65.26 43.21,59.96 39.41,59.96 "/>
</g>
<g class="Name" fill-opacity="0.9" style="display: none;">

</g>
<desc>Width:60 Height:200 Depth:60 Elevation:0</desc>
</g></g><g class="FixedFurniture Shower" fill="#ffffff" stroke="#000000" style="fill-opacity: 1; stroke-opacity: 1;" transform="matrix(0,-1,1,0,443.743,608.8322)">
<g class="BoundaryPolygon" fill="none" stroke="none">
<polygon points="0,0 32,0 32,19 0,19"/>
</g>
<g class="InnerPolygon">
<rect height="6.1" width="11.2" x="3.7" y="0.5"/>
<rect height="6.1" width="11.2" x="17.6" y="0.5"/>
<rect height="6.1" width="3.4" x="28.7" y="0.5"/>
<rect height="6.1" width="3.2" x="0.5" y="0.5"/>
<path d="M14.9,8.5c0,1.5-0.4,3.3-1.6,5    c-0.4,0.6-1,1.1-1.1,1.7c-0.2,1.1,0.3,2.8,2.5,3.2c0.5,0.1,1.3,0.1,1.6,0.1h-0.1c0.3,0,1.1,0,1.6-0.1c2.2-0.4,2.7-2.1,2.5-3.2    c-0.1-0.6-0.7-1.1-1.1-1.7c-1.2-1.7-1.6-3.5-1.6-5"/>
<path d="M12.2,15.3c0.1,0.2,1.6,1.9,4.2,1.9 c2.4-0.1,3.7-1.7,3.9-1.9"/>
<path d="M14.9,0.5h2.7v8c-0.9,0-1.8,0-2.7,0l0,0 C14.9,5.9,14.9,3.2,14.9,0.5z"/>
</g>
<g class="Indicator">
<path d="M3.7,3.6C5,3.1,5.2,3,5.2,3 c0,1.1,0,0,0,1.1C5.2,4.1,5.1,4.1,3.7,3.6"/>
<path d="M28.7,3.6 C27.4,3.1,27.2,3,27.2,3c0,1.1,0,0,0,1.1C27.2,4.1,27.3,4.1,28.7,3.6"/>
</g>
<desc>Width:32 Height:97 Depth:19 Elevation:135</desc>
</g><g class="FixedFurniture Closet" fill="#ffffff" stroke="#000000" style="fill-opacity: 1; stroke-opacity: 1;" transform="matrix(1,0,0,1,573.1582,560.8698)">
<g class="BoundaryPolygon">
<polygon points="0.00,0.00 47.23,0.00 47.23,47.73 0.00,47.73 "/>
</g>
<g class="Direction" fill-opacity="0.9" style="display: none;">
<polygon fill="#444444" points="24.80,43.52 24.80,32.90 21.79,32.90 21.79,43.52 17.99,43.52 23.29,48.82 28.60,43.52 24.80,43.52 "/>
</g>
<g class="Name" fill-opacity="0.9" style="display: none;">

</g>
<desc>Width:60 Height:200 Depth:60 Elevation:0</desc>
</g><g class="FixedFurnitureSet" fill="#ffffff" id="FixedFurnitureSet" stroke="#000000" style="fill-opacity: 1; stroke-opacity: 1;" transform="matrix(0,-1,1,0,443.7431,705.0625)"><g class="FixedFurniture BaseCabinet" fill="#ffffff" stroke="#000000" style="fill-opacity: 1; stroke-opacity: 1;" transform="matrix(1,0,0,1,0,0)">
<g class="BoundaryPolygon">
<polygon points="0.00,0.00 52.58,0.00 52.58,39.18 0.00,39.18 "/>
</g>
<g class="Direction" fill-opacity="0.9" style="display: none;">
<polygon fill="#444444" points="28.05,36.04 28.05,25.42 25.04,25.42 25.04,36.04 21.24,36.04 26.54,40.84 31.84,36.04 28.05,36.04 "/>
</g>
<g class="Name" fill-opacity="0.9" style="display: none;">

</g>
<desc>Width:60 Height:5 Depth:60 Elevation:105</desc>
</g><g class="FixedFurniture Sink" fill="#ffffff" stroke="#000000" style="fill-opacity: 1; stroke-opacity: 1;" transform="matrix(1,0,0,1,0,0)">
<g class="BoundaryPolygon" fill="none" stroke="none">
<polygon points="0.00,0.00 52.58,0.00 52.58,39.18 0.00,39.18 "/>
</g>
<g class="InnerPolygon">
<polygon points="4.38,9.70 48.20,9.70 48.20,35.72 4.38,35.72 "/>
</g>
<g class="OuterDrain" stroke-width="0.8">
<circle cx="26.290137007975023" cy="21.024935284022735" r="3.5"/>
</g>
<g class="InnerDrain" stroke-width="0.8">
<circle cx="26.290137007975023" cy="21.024935284022735" r="2"/>
</g>
<g class="Faucet">
<polygon points="23.66,3.26 29.66,3.26 29.66,17.26 23.66,17.26 "/>
</g>
<g class="Direction" fill-opacity="0.9" style="display: none;">
<polygon fill="#444444" points="28.05,36.04 28.05,25.42 25.04,25.42 25.04,36.04 21.24,36.04 26.54,40.84 31.84,36.04 28.05,36.04 "/>
</g>
<g class="Name" fill-opacity="0.9" style="display: none;">

</g>
<desc>Width:60 Height:90 Depth:60 Elevation:0</desc>
</g></g><g class="FixedFurniture Toilet" fill="#ffffff" stroke="#000000" style="fill-opacity: 1; stroke-opacity: 1;" transform="matrix(0,-1,1,0,443.743,764.6952)">
<g class="BoundaryPolygon" fill="none" stroke="none">
<polygon points="0,0 41,0 41,71 0,71"/>
</g>
<g class="InnerPolygon">
<rect height="17.98" width="39.989" x="0.502" y="0.5"/>
<path d="M40.491,44.237S41.619,70.5,20.907,70.5C-.523,70.5.6,44.237.6,44.237L.5,18.48H40.491Z"/>
<rect height="3.03" width="6.357" x="17.318" y="7.975"/>
</g>
<desc>Width:41 Height:85 Depth:71 Elevation:0</desc>
</g><g class="FixedFurniture Closet" fill="#ffffff" stroke="#000000" style="fill-opacity: 1; stroke-opacity: 1;" transform="matrix(0,1,-1,0,634.9579,1179.4697)">
<g class="BoundaryPolygon">
<polygon points="0.00,0.00 93.09,0.00 93.09,72.05 0.00,72.05 "/>
</g>
<g class="Direction" fill-opacity="0.9" style="display: none;">
<polygon fill="#444444" points="48.88,65.68 48.88,55.07 45.87,55.07 45.87,65.68 42.07,65.68 47.37,70.98 52.68,65.68 48.88,65.68 "/>
</g>
<g class="Name" fill-opacity="0.9" style="display: none;">

</g>
<desc>Width:60 Height:200 Depth:60 Elevation:0</desc>
</g><g class="FixedFurniture Closet" fill="#ffffff" stroke="#000000" style="fill-opacity: 1; stroke-opacity: 1;" transform="matrix(0,1,-1,0,634.9578,1081.1197)">
<g class="BoundaryPolygon">
<polygon points="0.00,0.00 98.35,0.00 98.35,72.05 0.00,72.05 "/>
</g>
<g class="Direction" fill-opacity="0.9" style="display: none;">
<polygon fill="#444444" points="51.64,65.68 51.64,55.07 48.63,55.07 48.63,65.68 44.83,65.68 50.13,70.98 55.44,65.68 51.64,65.68 "/>
</g>
<g class="Name" fill-opacity="0.9" style="display: none;">

</g>
<desc>Width:60 Height:200 Depth:60 Elevation:0</desc>
</g><g class="FixedFurniture Closet" fill="#ffffff" stroke="#000000" style="fill-opacity: 1; stroke-opacity: 1;" transform="matrix(0,1,-1,0,634.9265,975.7997)">
<g class="BoundaryPolygon">
<polygon points="0.00,0.00 105.32,0.00 105.32,72.05 0.00,72.05 "/>
</g>
<g class="Direction" fill-opacity="0.9" style="display: none;">
<polygon fill="#444444" points="55.30,65.68 55.30,55.07 52.29,55.07 52.29,65.68 48.49,65.68 53.79,70.98 59.10,65.68 55.30,65.68 "/>
</g>
<g class="Name" fill-opacity="0.9" style="display: none;">

</g>
<desc>Width:60 Height:200 Depth:60 Elevation:0</desc>
</g><g class="FixedFurniture Closet" fill="#ffffff" stroke="#000000" style="fill-opacity: 1; stroke-opacity: 1;" transform="matrix(0,1,-1,0,870.6936,1036.7518)">
<g class="BoundaryPolygon">
<polygon points="0.00,0.00 89.71,0.00 89.71,60.00 0.00,60.00 "/>
</g>
<g class="Direction" fill-opacity="0.9" style="display: none;">
<polygon fill="#444444" points="47.11,54.70 47.11,44.08 44.10,44.08 44.10,54.70 40.30,54.70 45.60,60.00 50.91,54.70 47.11,54.70 "/>
</g>
<g class="Name" fill-opacity="0.9" style="display: none;">

</g>
<desc>Width:60 Height:200 Depth:60 Elevation:0</desc>
</g><g class="FixedFurniture Closet" fill="#ffffff" stroke="#000000" style="fill-opacity: 1; stroke-opacity: 1;" transform="matrix(0,1,-1,0,870.7716,976.2518)">
<g class="BoundaryPolygon">
<polygon points="0.00,0.00 60.50,0.00 60.50,60.00 0.00,60.00 "/>
</g>
<g class="Direction" fill-opacity="0.9" style="display: none;">
<polygon fill="#444444" points="31.77,54.70 31.77,44.08 28.76,44.08 28.76,54.70 24.96,54.70 30.26,60.00 35.57,54.70 31.77,54.70 "/>
</g>
<g class="Name" fill-opacity="0.9" style="display: none;">

</g>
<desc>Width:60 Height:200 Depth:60 Elevation:0</desc>
</g><g class="FixedFurniture ElectricalAppliance Refrigerator" fill="#ffffff" stroke="#000000" style="fill-opacity: 1; stroke-opacity: 1;" transform="matrix(0,-1.1162,0.8627,0,760.8209,947.9257)">
<g class="BoundaryPolygon">
<polygon points="0,0 60,0 60,60 0,60"/>
</g>
<g class="electricitySign" fill="none">
<path d="M0,0,30,37.1v-18L60,56.3"/>
</g>
<g class="Doors">
<rect height="4" width="60" y="56"/>
</g>
<g class="Direction" fill-opacity="0.9" style="display: none;">
<polygon fill="#444444" points="32.009 55.197 32.009 44.581 29 44.581 29 55.197 25.197 55.197 30.5 60 35.803 55.197 32.009 55.197"/>
</g>
<g class="Name" fill-opacity="0.9" style="display: none;">

</g>
<desc>Width:60 Height:170 Depth:60 Elevation:0</desc>
</g><g class="FixedFurniture Closet" fill="#ffffff" stroke="#000000" style="fill-opacity: 1; stroke-opacity: 1;" transform="matrix(0,-1,1,0,760.7983,880.9515)">
<g class="BoundaryPolygon">
<polygon points="0.00,0.00 94.77,0.00 94.77,38.88 0.00,38.88 "/>
</g>
<g class="Direction" fill-opacity="0.9" style="display: none;">
<polygon fill="#444444" points="49.77,35.44 49.77,24.83 46.76,24.83 46.76,35.44 42.96,35.44 48.26,40.74 53.56,35.44 49.77,35.44 "/>
</g>
<g class="Name" fill-opacity="0.9" style="display: none;">

</g>
<desc>Width:60 Height:200 Depth:60 Elevation:0</desc>
</g><g class="FixedFurniture BaseCabinet" fill="#ffffff" stroke="#000000" style="fill-opacity: 1; stroke-opacity: 1;" transform="matrix(1,0,0,1,1030.5368,948.0545)"><desc>Width:60 Height:90 Depth:60 Elevation:0</desc><g class="BoundaryPolygon"><polygon points="0.00,0.00 -59.37,0.00 -59.37,-316.48 -195.77,-316.48 -201.54,-322.45 -208.58,-332.49 -214.99,-345.94 -216.48,-356.40 -216.70,-366.87 -216.70,-386.11 0.00,-386.16 0.00,0.00 "/></g></g><g class="FixedFurniture ElectricalAppliance IntegratedStove" fill="#ffffff" stroke="#000000" style="fill-opacity: 1; stroke-opacity: 1;" transform="matrix(0,1,-1,0,1032.2341,832.8709)">
<g class="BoundaryPolygon" fill="none" stroke="none">
<polygon points="0.00,0.00 73.45,0.00 73.45,62.86 0.00,62.86 "/>
</g>
<g class="InnerPolygon">
<polygon points="2.00,2.00 71.00,2.00 71.00,60.76 2.00,60.76 "/>
</g>
<g class="OuterCircle">
<circle cx="19.585505144926504" cy="16.761709864468767" r="8"/>
<circle cx="53.86013914854788" cy="16.761709864468767" r="8"/>
<circle cx="19.585505144926504" cy="46.0947021272891" r="8"/>
<circle cx="53.86013914854788" cy="46.0947021272891" r="8"/>
</g>
<g class="Direction" fill-opacity="0.9" style="display: none;">
<polygon fill="#444444" points="39.18,57.82 39.18,47.21 36.17,47.21 36.17,57.82 32.37,57.82 37.67,62.63 42.98,57.82 39.18,57.82 "/>
</g>
<g class="Name" fill-opacity="0.9" style="display: none;">

</g>
<desc>Width:60 Height:90 Depth:30 Elevation:0</desc>
</g><g class="FixedFurniture ElectricalAppliance Dishwasher" fill="#ffffff" stroke="#000000" style="fill-opacity: 1; stroke-opacity: 1;" transform="matrix(0,1.0065,-0.987,0,1030.3588,738.4966)">
<g class="BoundaryPolygon">
<polygon points="0,0 60,0 60,60 0,60"/>
</g>
<g class="electricitySign" fill="none">
<path d="M0,0,30,38.9v-20L60,60"/>
</g>
<g class="Handle">
<path d="M10,59.6H49.8"/>
</g>
<g class="Direction" fill-opacity="0.9" style="display: none;">
<polygon fill="#444444" points="32.009 55.197 32.009 44.581 29 44.581 29 55.197 25.197 55.197 30.5 60 35.803 55.197 32.009 55.197"/>
</g>
<g class="Name" fill-opacity="0.9" style="display: none;">

</g>
<desc>Width:60 Height:90 Depth:60 Elevation:0</desc>
</g><g class="FixedFurniture Sink" fill="#ffffff" stroke="#000000" style="fill-opacity: 1; stroke-opacity: 1;" transform="matrix(0,1,-1,0,1030.8923,683.658)">
<g class="BoundaryPolygon" fill="none" stroke="none">
<polygon points="0.00,0.00 51.61,0.00 51.61,56.10 0.00,56.10 "/>
</g>
<g class="InnerPolygon">
<polygon points="4.30,9.70 47.31,9.70 47.31,51.15 4.30,51.15 "/>
</g>
<g class="OuterDrain" stroke-width="0.8">
<circle cx="25.804564840343666" cy="30.10874567846535" r="3.5"/>
</g>
<g class="InnerDrain" stroke-width="0.8">
<circle cx="25.804564840343666" cy="30.10874567846535" r="2"/>
</g>
<g class="Faucet">
<polygon points="23.22,4.68 29.22,4.68 29.22,18.68 23.22,18.68 "/>
</g>
<g class="Direction" fill-opacity="0.9" style="display: none;">
<polygon fill="#444444" points="27.53,51.61 27.53,41.00 24.52,41.00 24.52,51.61 20.72,51.61 26.02,56.42 31.33,51.61 27.53,51.61 "/>
</g>
<g class="Name" fill-opacity="0.9" style="display: none;">

</g>
<desc>Width:60 Height:90 Depth:60 Elevation:0</desc>
</g><g class="SelectionControls" fill="#0000ff" stroke="#0000ff" style="display: none;"><g class="rotateControl" style="display: none;"><circle cx="864.9232776925353" cy="246.6455689296347" r="5" style="stroke : none; fill-opacity: 0.5; cursor:crosshair"/></g><g class="ResizeNControl" style="display: none;"><circle cx="0" cy="0" r="5" style="stroke : none; fill-opacity: 0.5"/></g><g class="ResizeNEControl" style="display: none;"><circle cx="0" cy="0" r="5" style="stroke : none; fill-opacity: 0.5"/></g><g class="ResizeEControl" style="display: none;"><circle cx="0" cy="0" r="5" style="stroke : none; fill-opacity: 0.5"/></g><g class="ResizeSEControl" style="display: none;"><circle cx="0" cy="0" r="5" style="stroke : none; fill-opacity: 0.5"/></g><g class="ResizeSControl" style="display: none;"><circle cx="0" cy="0" r="5" style="stroke : none; fill-opacity: 0.5"/></g><g class="ResizeSWControl" style="display: none;"><circle cx="0" cy="0" r="5" style="stroke : none; fill-opacity: 0.5"/></g><g class="ResizeWControl" style="display: none;"><circle cx="0" cy="0" r="5" style="stroke : none; fill-opacity: 0.5"/></g><g class="ResizeNWControl" style="display: none;"><circle cx="0" cy="0" r="5" style="stroke : none; fill-opacity: 0.5"/></g><g class="removeControl" style="display: none;"><polygon points="788.67,276.65 941.18,276.65 941.18,316.29 788.67,316.29 " style="stroke : none; fill-opacity: 0.1"/></g><g class="copyPasteControl" style="display: none;"><polygon style="stroke : none; fill-opacity: 0.1"/></g><g class="translateControl" style="display: none;"><polygon points="788.67,276.65 941.18,276.65 941.18,316.29 788.67,316.29 " style="stroke : none; fill-opacity: 0.1; cursor:move"/></g></g><g class="SelectionControls" fill="#0000ff" stroke="#0000ff" style="display: none;"><polygon fill="none" points="774.56,78.24 950.63,78.24 950.63,537.55 774.56,537.55 " stroke="#0000ff" style=""/><g class="rotateControl" style="display: none;"><circle cx="862.5945173409727" cy="48.237893929634666" r="5" style="stroke : none; fill-opacity: 0.5; cursor:crosshair"/></g><g class="ResizeNControl" style="display: none;"><circle cx="0" cy="0" r="5" style="stroke : none; fill-opacity: 0.5"/></g><g class="ResizeNEControl" style="display: none;"><circle cx="0" cy="0" r="5" style="stroke : none; fill-opacity: 0.5"/></g><g class="ResizeEControl" style="display: none;"><circle cx="0" cy="0" r="5" style="stroke : none; fill-opacity: 0.5"/></g><g class="ResizeSEControl" style="display: none;"><circle cx="0" cy="0" r="5" style="stroke : none; fill-opacity: 0.5"/></g><g class="ResizeSControl" style="display: none;"><circle cx="0" cy="0" r="5" style="stroke : none; fill-opacity: 0.5"/></g><g class="ResizeSWControl" style="display: none;"><circle cx="0" cy="0" r="5" style="stroke : none; fill-opacity: 0.5"/></g><g class="ResizeWControl" style="display: none;"><circle cx="0" cy="0" r="5" style="stroke : none; fill-opacity: 0.5"/></g><g class="ResizeNWControl" style="display: none;"><circle cx="0" cy="0" r="5" style="stroke : none; fill-opacity: 0.5"/></g><g class="removeControl" style="display: none;"><polygon style="stroke : none; fill-opacity: 0.1"/></g><g class="copyPasteControl" style="display: none;"><polygon style="stroke : none; fill-opacity: 0.1"/></g><g class="translateControl" style="display: none;"><polygon style="stroke : none; fill-opacity: 0.1; cursor:move"/></g></g></g></g></g></svg>