<?xml version="1.0" encoding="utf-8"?>
<svg height="682.4999866485596" id="temp" version="1.1" viewBox="0 0 994.069091796875 682.4999866485596" width="994.069091796875" xmlns="http://www.w3.org/2000/svg" xmlns:xlink="http://www.w3.org/1999/xlink"><defs/><g class="Model v1-1" id="Model"><g class="Floor"><g class="Floorplan Floor-1" id="Floor-1"><g class="Space Kitchen" fill="#ffffff" id="6f9bbf4c-1162-484d-bb32-866ef43e2d34" stroke="#ffffff" style="fill-opacity: 1; stroke-opacity: 1; stroke-width: 1;"><polygon points="759.93,116.03 820.34,116.03 820.34,332.47 465.67,332.47 465.67,38.90 759.93,38.90 "/><g class="Dimension" transform="matrix(1,0,0,1,465.6654,38.8989)"><g class="Visual" style="display: none;" transform="matrix(1,0,0,1,0,0)"><g class="DimensionMark" fill="#000000" id="mark1" stroke="none" style="fill-opacity: 1; pointer-events: visible;" transform="matrix(1,0,0,1,177.336,0)"><polygon points="-5,5,0,0,5,5"/></g><g class="DimensionMark" fill="#000000" id="mark2" stroke="none" style="fill-opacity: 1; pointer-events: visible;" transform="matrix(1,0,0,1,354.672,146.784)"><polygon points="-5,-5,0,0,-5,5"/></g><g class="DimensionMark" fill="#000000" id="mark3" stroke="none" style="fill-opacity: 1; pointer-events: visible;" transform="matrix(1,0,0,1,177.336,293.5679)"><polygon points="-5,-5,0,0,5,-5"/></g><g class="DimensionMark" fill="#000000" id="mark4" stroke="none" style="fill-opacity: 1; pointer-events: visible;" transform="matrix(1,0,0,1,0,146.784)"><polygon points="5,5,0,0,5,-5"/></g></g><g class="SpaceDimensionsLabel" transform="matrix(1,0,0,1,155.5076,154.5382)"><g class="TextLabel NameLabel" id="NameLabel" style="display: block;"/><g class="TextLabel DimensionMeasureLabel" id="DimensionMeasureLabel" style="display: none;" transform="matrix(1,0,0,1,-128.3516,79.3281)"/></g></g></g><g class="Space Entry Lobby" fill="#ffffff" id="51271c67-c91c-47df-9a63-98cd187ce130" stroke="#ffffff" style="fill-opacity: 1; stroke-opacity: 1; stroke-width: 1;"><polygon points="586.88,438.51 820.34,438.51 820.34,563.21 701.60,563.21 701.60,561.51 465.67,561.51 465.67,332.47 586.88,332.47 "/><g class="Dimension" transform="matrix(1,0,0,1,465.6654,332.4668)"><g class="Visual" style="display: none;" transform="matrix(1,0,0,1,0,0)"><g class="DimensionMark" fill="#000000" id="mark1" stroke="none" style="fill-opacity: 1; pointer-events: visible;" transform="matrix(1,0,0,1,121.2189,0)"><polygon points="-5,5,0,0,5,5"/></g><g class="DimensionMark" fill="#000000" id="mark2" stroke="none" style="fill-opacity: 1; pointer-events: visible;" transform="matrix(1,0,0,1,354.672,115.3708)"><polygon points="-5,-5,0,0,-5,5"/></g><g class="DimensionMark" fill="#000000" id="mark3" stroke="none" style="fill-opacity: 1; pointer-events: visible;" transform="matrix(1,0,0,1,121.2189,229.0402)"><polygon points="-5,-5,0,0,5,-5"/></g><g class="DimensionMark" fill="#000000" id="mark4" stroke="none" style="fill-opacity: 1; pointer-events: visible;" transform="matrix(1,0,0,1,0,115.3708)"><polygon points="5,5,0,0,5,-5"/></g></g><g class="SpaceDimensionsLabel" transform="matrix(1,0,0,1,160.8307,178.6073)"><g class="TextLabel NameLabel" id="NameLabel" style="display: block;"/><g class="TextLabel DimensionMeasureLabel" id="DimensionMeasureLabel" style="display: none;" transform="matrix(1,0,0,1,-118.8906,79.3281)"/></g></g></g><g class="Space Room" fill="#ffffff" id="1acc4de7-e35d-45f7-a771-5c16e22897a2" stroke="#ffffff" style="fill-opacity: 1; stroke-opacity: 1; stroke-width: 1;"><polygon points="455.67,231.88 465.67,231.88 465.67,510.84 71.75,510.84 71.75,38.90 455.67,38.90 "/><g class="Dimension" transform="matrix(1,0,0,1,71.7487,38.8989)"><g class="Visual" style="display: none;" transform="matrix(1,0,0,1,0,0)"><g class="DimensionMark" fill="#000000" id="mark1" stroke="none" style="fill-opacity: 1; pointer-events: visible;" transform="matrix(1,0,0,1,196.9584,0)"><polygon points="-5,5,0,0,5,5"/></g><g class="DimensionMark" fill="#000000" id="mark2" stroke="none" style="fill-opacity: 1; pointer-events: visible;" transform="matrix(1,0,0,1,393.9167,235.9693)"><polygon points="-5,-5,0,0,-5,5"/></g><g class="DimensionMark" fill="#000000" id="mark3" stroke="none" style="fill-opacity: 1; pointer-events: visible;" transform="matrix(1,0,0,1,196.9584,471.9386)"><polygon points="-5,-5,0,0,5,-5"/></g><g class="DimensionMark" fill="#000000" id="mark4" stroke="none" style="fill-opacity: 1; pointer-events: visible;" transform="matrix(1,0,0,1,0,235.9693)"><polygon points="5,5,0,0,5,-5"/></g></g><g class="SpaceDimensionsLabel" transform="matrix(1,0,0,1,188.8193,239.1675)"><g class="TextLabel NameLabel" id="NameLabel" style="display: block;"/><g class="TextLabel DimensionMeasureLabel" id="DimensionMeasureLabel" style="display: none;" transform="matrix(1,0,0,1,-127.5859,79.3281)"/></g></g></g><g class="Space Bath" fill="#ffffff" id="0e1c32f4-2a0e-4eaa-a78a-53976ae49e12" stroke="#ffffff" style="fill-opacity: 1; stroke-opacity: 1; stroke-width: 1;"><polygon points="820.34,426.51 596.88,426.51 596.88,342.47 820.34,342.47 "/><g class="Dimension" transform="matrix(1,0,0,1,596.8843,342.4668)"><g class="Visual" style="display: none;" transform="matrix(1,0,0,1,0,0)"><g class="DimensionMark" fill="#000000" id="mark1" stroke="none" style="fill-opacity: 1; pointer-events: visible;" transform="matrix(1,0,0,1,111.7266,0)"><polygon points="-5,5,0,0,5,5"/></g><g class="DimensionMark" fill="#000000" id="mark2" stroke="none" style="fill-opacity: 1; pointer-events: visible;" transform="matrix(1,0,0,1,223.4532,42.0223)"><polygon points="-5,-5,0,0,-5,5"/></g><g class="DimensionMark" fill="#000000" id="mark3" stroke="none" style="fill-opacity: 1; pointer-events: visible;" transform="matrix(1,0,0,1,111.7266,84.0446)"><polygon points="-5,-5,0,0,5,-5"/></g><g class="DimensionMark" fill="#000000" id="mark4" stroke="none" style="fill-opacity: 1; pointer-events: visible;" transform="matrix(1,0,0,1,0,42.0223)"><polygon points="5,5,0,0,5,-5"/></g></g><g class="SpaceDimensionsLabel" transform="matrix(1,0,0,1,79.5411,52.6845)"><g class="TextLabel NameLabel" id="NameLabel" style="display: block;"/><g class="TextLabel DimensionMeasureLabel" id="DimensionMeasureLabel" style="display: none;" transform="matrix(1,0,0,1,-106.2032,79.3281)"/></g></g></g><g class="Space Undefined" fill="#ffffff" id="4837bef9-7a16-47a8-b7a2-e3faa709add0" stroke="#ffffff" style="fill-opacity: 1; stroke-opacity: 1; stroke-width: 1;"><polygon points="820.34,604.30 701.60,604.30 701.60,575.21 820.34,575.21 "/><g class="Dimension" transform="matrix(1,0,0,1,701.5995,575.2084)"><g class="Visual" style="display: none;" transform="matrix(1,0,0,1,0,0)"><g class="DimensionMark" fill="#000000" id="mark1" stroke="none" style="fill-opacity: 1; pointer-events: visible;" transform="matrix(1,0,0,1,59.369,0)"><polygon points="-5,5,0,0,5,5"/></g><g class="DimensionMark" fill="#000000" id="mark2" stroke="none" style="fill-opacity: 1; pointer-events: visible;" transform="matrix(1,0,0,1,118.7379,14.546)"><polygon points="-5,-5,0,0,-5,5"/></g><g class="DimensionMark" fill="#000000" id="mark3" stroke="none" style="fill-opacity: 1; pointer-events: visible;" transform="matrix(1,0,0,1,59.369,29.0919)"><polygon points="-5,-5,0,0,5,-5"/></g><g class="DimensionMark" fill="#000000" id="mark4" stroke="none" style="fill-opacity: 1; pointer-events: visible;" transform="matrix(1,0,0,1,0,14.546)"><polygon points="5,5,0,0,5,-5"/></g></g><g class="SpaceDimensionsLabel" transform="matrix(1,0,0,1,14.5459,14.5459)"><g class="TextLabel NameLabel" id="NameLabel" style="display: block;"/><g class="TextLabel DimensionMeasureLabel" id="DimensionMeasureLabel" style="display: none;" transform="matrix(1,0,0,1,-40.539,80.1875)"/></g></g></g><g class="Space Undefined" fill="#ffffff" id="977ea9f5-9986-4286-8178-cf102b6149a4" stroke="#ffffff" style="fill-opacity: 1; stroke-opacity: 1; stroke-width: 1;"><polygon points="820.34,106.03 769.93,106.03 769.93,38.90 820.34,38.90 "/><g class="Dimension" transform="matrix(1,0,0,1,769.9257,38.8989)"><g class="Visual" style="display: none;" transform="matrix(1,0,0,1,0,0)"><g class="DimensionMark" fill="#000000" id="mark1" stroke="none" style="fill-opacity: 1; pointer-events: visible;" transform="matrix(1,0,0,1,25.2059,0)"><polygon points="-5,5,0,0,5,5"/></g><g class="DimensionMark" fill="#000000" id="mark2" stroke="none" style="fill-opacity: 1; pointer-events: visible;" transform="matrix(1,0,0,1,50.4118,33.5673)"><polygon points="-5,-5,0,0,-5,5"/></g><g class="DimensionMark" fill="#000000" id="mark3" stroke="none" style="fill-opacity: 1; pointer-events: visible;" transform="matrix(1,0,0,1,25.2059,67.1346)"><polygon points="-5,-5,0,0,5,-5"/></g><g class="DimensionMark" fill="#000000" id="mark4" stroke="none" style="fill-opacity: 1; pointer-events: visible;" transform="matrix(1,0,0,1,0,33.5673)"><polygon points="5,5,0,0,5,-5"/></g></g><g class="SpaceDimensionsLabel" transform="matrix(1,0,0,1,25.2059,25.2059)"><g class="TextLabel NameLabel" id="NameLabel" style="display: block;"/><g class="TextLabel DimensionMeasureLabel" id="DimensionMeasureLabel" style="display: none;" transform="matrix(1,0,0,1,-40.539,80.1875)"/></g></g></g><g class="Wall External" fill="#000000" id="Wall" stroke="#000000" style="fill-opacity: 1; stroke-opacity: 1; stroke-width: 1;"><polygon points="71.75,38.90 820.34,38.90 843.08,15.90 48.75,15.90 "/><g class="Window Regular" fill="#f0f0ff" id="Window" stroke="#000000" style="fill-opacity: 1; stroke-width: 1; stroke-opacity: 1;"><polygon points="223.01,38.90 391.85,38.90 391.85,15.90 223.01,15.90 "/><g class="Glass" id="Glass"><polygon points="223.01,38.90 391.85,38.90 391.85,15.90 223.01,15.90 "/></g><g class="Panel" id="Panel"><line x1="230.50823367182966" x2="384.34687790802764" y1="27.39885157140443" y2="27.398851571404396"/><line x1="230.50823367182966" x2="230.50823367182966" y1="38.89885157140443" y2="15.898851571404427"/><line x1="384.34687790802764" x2="384.34687790802764" y1="38.89885157140439" y2="15.898851571404395"/></g></g><g class="Window Regular" fill="#f0f0ff" id="Window" stroke="#000000" style="fill-opacity: 1; stroke-width: 1; stroke-opacity: 1;"><polygon points="558.17,38.90 689.56,38.90 689.56,15.90 558.17,15.90 "/><g class="Glass" id="Glass"><polygon points="558.17,38.90 689.56,38.90 689.56,15.90 558.17,15.90 "/></g><g class="Panel" id="Panel"><line x1="565.6655423795063" x2="682.0644872541593" y1="27.39885157140435" y2="27.398851571404325"/><line x1="565.6655423795063" x2="565.6655423795063" y1="38.89885157140435" y2="15.898851571404348"/><line x1="682.0644872541593" x2="682.0644872541593" y1="38.89885157140432" y2="15.898851571404323"/></g></g></g><g class="Wall External" fill="#000000" id="Wall" stroke="#000000" style="fill-opacity: 1; stroke-opacity: 1; stroke-width: 1;"><polygon points="843.08,15.90 843.08,628.30 820.34,604.30 820.34,38.90 "/></g><g class="Wall External" fill="#000000" id="Wall" stroke="#000000" style="fill-opacity: 1; stroke-opacity: 1; stroke-width: 1;"><polygon points="843.08,628.30 679.60,628.30 701.60,604.30 820.34,604.30 "/><g class="Door Swing Beside" fill="#ffffff" id="Door" stroke="#000000" style="fill-opacity: 1; stroke-width: 1; stroke-opacity: 1;"><polygon points="786.98,628.30 732.79,628.30 732.79,604.30 786.98,604.30 "/><g class="Panel Left Negative" fill="none" id="Panel" style=""><g class="PanelArea" fill="none" id="PanelArea" stroke="none" style=""><polygon points="786.98,628.30 732.79,628.30 732.79,604.30 786.98,604.30 "/></g><path d="M786.98,628.30 q0.00,54.20 -54.20,54.20 l0.00,-54.20Z"/></g></g></g><g class="Wall External" fill="#000000" id="Wall" stroke="#000000" style="fill-opacity: 1; stroke-opacity: 1; stroke-width: 1;"><polygon points="701.60,604.30 701.60,561.51 679.60,583.51 679.60,628.30 "/></g><g class="Wall External" fill="#000000" id="Wall" stroke="#000000" style="fill-opacity: 1; stroke-opacity: 1; stroke-width: 1;"><polygon points="701.60,561.51 465.67,561.51 443.67,583.51 679.60,583.51 "/></g><g class="Wall External" fill="#000000" id="Wall" stroke="#000000" style="fill-opacity: 1; stroke-opacity: 1; stroke-width: 1;"><polygon points="465.67,561.51 465.67,510.84 443.67,532.84 443.67,583.51 "/></g><g class="Wall External" fill="#000000" id="Wall" stroke="#000000" style="fill-opacity: 1; stroke-opacity: 1; stroke-width: 1;"><polygon points="465.67,510.84 71.75,510.84 48.75,532.84 443.67,532.84 "/></g><g class="Wall External" fill="#000000" id="Wall" stroke="#000000" style="fill-opacity: 1; stroke-opacity: 1; stroke-width: 1;"><polygon points="71.75,510.84 71.75,38.90 48.75,15.90 48.75,532.84 "/></g><g class="Wall" fill="#000000" id="Wall" stroke="#000000" style="fill-opacity: 1; stroke-opacity: 1; stroke-width: 1;"><polygon points="843.08,438.51 586.88,438.51 596.88,426.51 843.08,426.51 "/><g class="Door Swing Beside" fill="#ffffff" id="Door" stroke="#000000" style="fill-opacity: 1; stroke-width: 1; stroke-opacity: 1;"><polygon points="734.50,438.51 680.75,438.51 680.75,426.51 734.50,426.51 "/><g class="Panel Right Negative" fill="none" id="Panel" style=""><g class="PanelArea" fill="none" id="PanelArea" stroke="none" style=""><polygon points="734.50,438.51 680.75,438.51 680.75,426.51 734.50,426.51 "/></g><path d="M680.75,438.51 q0.00,53.75 53.75,53.75 l0.00,-53.75Z"/></g></g></g><g class="Wall" fill="#000000" id="Wall" stroke="#000000" style="fill-opacity: 1; stroke-opacity: 1; stroke-width: 1;"><polygon points="596.88,426.51 596.88,342.47 586.88,332.47 586.88,438.51 "/></g><g class="Wall" fill="#000000" id="Wall" stroke="#000000" style="fill-opacity: 1; stroke-opacity: 1; stroke-width: 1;"><polygon points="586.88,332.47 843.08,332.47 843.08,342.47 596.88,342.47 "/></g><g class="Wall" fill="#000000" id="Wall" stroke="#000000" style="fill-opacity: 1; stroke-opacity: 1; stroke-width: 1;"><polygon points="465.67,438.51 465.67,336.59 455.67,336.59 455.67,438.51 "/></g><g class="Wall" fill="#000000" id="Wall" stroke="#000000" style="fill-opacity: 1; stroke-opacity: 1; stroke-width: 1;"><polygon points="465.67,231.88 465.67,15.90 455.67,15.90 455.67,231.88 "/></g><g class="Wall" fill="#000000" id="Wall" stroke="#000000" style="fill-opacity: 1; stroke-opacity: 1; stroke-width: 1;"><polygon points="820.34,563.21 701.60,563.21 701.60,575.21 820.34,575.21 "/><g class="Door Swing Beside" fill="#ffffff" id="Door" stroke="#000000" style="fill-opacity: 1; stroke-width: 1; stroke-opacity: 1;"><polygon points="792.13,563.21 737.72,563.21 737.72,575.21 792.13,575.21 "/><g class="Panel Right Negative" fill="none" id="Panel" style=""><g class="PanelArea" fill="none" id="PanelArea" stroke="none" style=""><polygon points="792.13,563.21 737.72,563.21 737.72,575.21 792.13,575.21 "/></g><path d="M737.72,563.21 q0.00,-54.42 54.42,-54.42 l0.00,54.42Z"/></g></g></g><g class="Column Rectangle" fill="#000000" id="Column" stroke="none" style="fill-opacity: 1;"><polygon points="820.09,332.47 820.09,241.12 800.67,241.12 800.67,332.47 "/></g><g class="Column Rectangle" fill="#000000" id="Column" stroke="none" style="fill-opacity: 1;"><polygon points="820.09,342.50 800.67,342.50 800.67,426.51 820.09,426.51 "/></g><g class="Wall" fill="#000000" id="Wall" stroke="#000000" style="fill-opacity: 1; stroke-opacity: 1; stroke-width: 1;"><polygon points="843.08,116.03 759.93,116.03 769.93,106.03 843.08,106.03 "/></g><g class="Wall" fill="#000000" id="Wall" stroke="#000000" style="fill-opacity: 1; stroke-opacity: 1; stroke-width: 1;"><polygon points="759.93,116.03 759.93,15.90 769.93,15.90 769.93,106.03 "/><g class="Door None Beside" fill="#ffffff" id="Door" stroke="#000000" style="fill-opacity: 1; stroke-width: 1; stroke-opacity: 1;"><polygon points="759.93,94.51 759.93,52.18 769.93,52.18 769.93,94.51 "/></g></g><g class="FixedFurniture Closet" fill="#ffffff" stroke="#000000" style="fill-opacity: 1; stroke-opacity: 1;" transform="matrix(0,1,-1,0,820.3218,38.8989)">
<g class="BoundaryPolygon">
<polygon points="0.00,0.00 67.28,0.00 67.28,50.41 0.00,50.41 "/>
</g>
<g class="Direction" fill-opacity="0.9" style="display: none;">
<polygon fill="#444444" points="35.33,45.96 35.33,35.34 32.32,35.34 32.32,45.96 28.52,45.96 33.82,51.26 39.13,45.96 35.33,45.96 "/>
</g>
<g class="Name" fill-opacity="0.9" style="display: none;">

</g>
<desc>Width:60 Height:200 Depth:60 Elevation:0</desc>
</g><g class="FixedFurniture Closet" fill="#ffffff" stroke="#000000" style="fill-opacity: 1; stroke-opacity: 1;" transform="matrix(-1,0,0,-1,609.1754,561.3976)">
<g class="BoundaryPolygon">
<polygon points="0.00,0.00 143.51,0.00 143.51,50.30 0.00,50.30 "/>
</g>
<g class="Direction" fill-opacity="0.9" style="display: none;">
<polygon fill="#444444" points="73.56,45.71 73.56,35.09 70.55,35.09 70.55,45.71 66.75,45.71 72.05,51.01 77.36,45.71 73.56,45.71 "/>
</g>
<g class="Name" fill-opacity="0.9" style="display: none;">

</g>
<desc>Width:120 Height:200 Depth:60 Elevation:0</desc>
</g><g class="FixedFurniture Toilet" fill="#ffffff" stroke="#000000" style="fill-opacity: 1; stroke-opacity: 1;" transform="matrix(0,-0.8658,0.8951,0,596.8843,423.5323)">
<g class="BoundaryPolygon" fill="none" stroke="none">
<polygon points="0,0 41,0 41,71 0,71"/>
</g>
<g class="InnerPolygon">
<rect height="17.98" width="39.989" x="0.502" y="0.5"/>
<path d="M40.491,44.237S41.619,70.5,20.907,70.5C-.523,70.5.6,44.237.6,44.237L.5,18.48H40.491Z"/>
<rect height="3.03" width="6.357" x="17.318" y="7.975"/>
</g>
<desc>Width:41 Height:85 Depth:71 Elevation:0</desc>
</g><g class="FixedFurniture Shower" fill="#ffffff" stroke="#000000" style="fill-opacity: 1; stroke-opacity: 1;" transform="matrix(0,-1,1,0,596.8842,380.609)">
<g class="BoundaryPolygon" fill="none" stroke="none">
<polygon points="0,0 32,0 32,19 0,19"/>
</g>
<g class="InnerPolygon">
<rect height="6.1" width="11.2" x="3.7" y="0.5"/>
<rect height="6.1" width="11.2" x="17.6" y="0.5"/>
<rect height="6.1" width="3.4" x="28.7" y="0.5"/>
<rect height="6.1" width="3.2" x="0.5" y="0.5"/>
<path d="M14.9,8.5c0,1.5-0.4,3.3-1.6,5    c-0.4,0.6-1,1.1-1.1,1.7c-0.2,1.1,0.3,2.8,2.5,3.2c0.5,0.1,1.3,0.1,1.6,0.1h-0.1c0.3,0,1.1,0,1.6-0.1c2.2-0.4,2.7-2.1,2.5-3.2    c-0.1-0.6-0.7-1.1-1.1-1.7c-1.2-1.7-1.6-3.5-1.6-5"/>
<path d="M12.2,15.3c0.1,0.2,1.6,1.9,4.2,1.9 c2.4-0.1,3.7-1.7,3.9-1.9"/>
<path d="M14.9,0.5h2.7v8c-0.9,0-1.8,0-2.7,0l0,0 C14.9,5.9,14.9,3.2,14.9,0.5z"/>
</g>
<g class="Indicator">
<path d="M3.7,3.6C5,3.1,5.2,3,5.2,3 c0,1.1,0,0,0,1.1C5.2,4.1,5.1,4.1,3.7,3.6"/>
<path d="M28.7,3.6 C27.4,3.1,27.2,3,27.2,3c0,1.1,0,0,0,1.1C27.2,4.1,27.3,4.1,28.7,3.6"/>
</g>
<desc>Width:32 Height:97 Depth:19 Elevation:135</desc>
</g><g class="FixedFurnitureSet" fill="#ffffff" id="FixedFurnitureSet" stroke="#000000" style="fill-opacity: 0.4; stroke-opacity: 0.4;" transform="matrix(0,1,-1,0,800.6387,360.2644)"><g class="FixedFurniture BaseCabinet" fill="#ffffff" stroke="#000000" style="fill-opacity: 1; stroke-opacity: 1;" transform="matrix(1,0,0,1,0,0)">
<g class="BoundaryPolygon">
<polygon points="0.00,0.00 46.30,0.00 46.30,36.61 0.00,36.61 "/>
</g>
<g class="Direction" fill-opacity="0.9" style="display: none;">
<polygon fill="#444444" points="24.70,33.68 24.70,23.07 21.69,23.07 21.69,33.68 17.89,33.68 23.19,38.49 28.49,33.68 24.70,33.68 "/>
</g>
<g class="Name" fill-opacity="0.9" style="display: none;">

</g>
<desc>Width:60 Height:5 Depth:60 Elevation:105</desc>
</g><g class="FixedFurniture Sink" fill="#ffffff" stroke="#000000" style="fill-opacity: 1; stroke-opacity: 1;" transform="matrix(1,0,0,1,0,0)">
<g class="BoundaryPolygon" fill="none" stroke="none">
<polygon points="0.00,0.00 46.30,0.00 46.30,36.61 0.00,36.61 "/>
</g>
<g class="InnerPolygon">
<polygon points="3.86,9.70 42.44,9.70 42.44,33.38 3.86,33.38 "/>
</g>
<g class="OuterDrain" stroke-width="0.8">
<circle cx="23.14780799025113" cy="19.649755455640054" r="3.5"/>
</g>
<g class="InnerDrain" stroke-width="0.8">
<circle cx="23.14780799025113" cy="19.649755455640054" r="2"/>
</g>
<g class="Faucet">
<polygon points="20.83,3.05 26.83,3.05 26.83,17.05 20.83,17.05 "/>
</g>
<g class="Direction" fill-opacity="0.9" style="display: none;">
<polygon fill="#444444" points="24.70,33.68 24.70,23.07 21.69,23.07 21.69,33.68 17.89,33.68 23.19,38.49 28.49,33.68 24.70,33.68 "/>
</g>
<g class="Name" fill-opacity="0.9" style="display: none;">

</g>
<desc>Width:60 Height:90 Depth:60 Elevation:0</desc>
</g></g><g class="FixedFurniture BaseCabinet" fill="#ffffff" stroke="#000000" style="fill-opacity: 1; stroke-opacity: 1;" transform="matrix(1,0,0,1,759.9257,116.0334)"><desc>Width:60 Height:90 Depth:60 Elevation:0</desc><g class="BoundaryPolygon"><polygon points="0.00,0.00 60.66,-0.00 60.16,125.09 40.74,125.09 40.74,216.44 0.34,216.44 0.34,200.22 -15.64,200.22 -15.64,141.53 0.37,141.53 0.00,0.00 "/></g></g><g class="FixedFurniture DoubleSink" fill="#ffffff" stroke="#000000" style="fill-opacity: 1; stroke-opacity: 1;" transform="matrix(0,1,-1,0,820.3374,171.1864)">
<g class="BoundaryPolygon" fill="none" stroke="none">
<polygon points="0.00,0.00 67.96,0.00 67.96,48.90 0.00,48.90 "/>
</g>
<g class="InnerPolygonLeft">
<polygon points="4.85,9.90 32.52,9.90 32.52,44.74 4.85,44.74 "/>
</g>
<g class="InnerPolygonRight">
<polygon points="35.43,10.00 63.10,10.00 63.10,44.83 35.43,44.83 "/>
</g>
<g class="OuterDrain" stroke-width="0.8">
<circle cx="19.124584114727067" cy="26.48782894829038" r="3.5"/>
<circle cx="48.733711805040535" cy="26.48782894829038" r="3.5"/>
</g>
<g class="InnerDrain" stroke-width="0.8">
<circle cx="19.124584114727067" cy="26.48782894829038" r="2"/>
<circle cx="48.733711805040535" cy="26.48782894829038" r="2"/>
</g>
<g class="Faucet">
<polygon points="31.07,3.99 37.07,3.99 37.07,17.99 31.07,17.99 "/>
</g>
<g class="Direction" fill-opacity="0.9" style="display: none;">
<polygon fill="#444444" points="35.44,44.58 35.44,33.96 32.43,33.96 32.43,44.58 28.63,44.58 33.93,49.88 39.24,44.58 35.44,44.58 "/>
</g>
<g class="Name" fill-opacity="0.9" style="display: none;">

</g>
<desc>Width:70 Height:90 Depth:60 Elevation:0</desc>
</g><g class="FixedFurniture ElectricalAppliance IntegratedStove" fill="#ffffff" stroke="#000000" style="fill-opacity: 1; stroke-opacity: 1;" transform="matrix(0,1,-1,0,800.9939,257.1779)">
<g class="BoundaryPolygon" fill="none" stroke="none">
<polygon points="0.00,0.00 59.46,0.00 59.46,56.71 0.00,56.71 "/>
</g>
<g class="InnerPolygon">
<polygon points="2.00,2.00 57.48,2.00 57.48,54.82 2.00,54.82 "/>
</g>
<g class="OuterCircle">
<circle cx="15.855455944683719" cy="15.123523630534757" r="8"/>
<circle cx="43.60250384788023" cy="15.123523630534757" r="8"/>
<circle cx="15.855455944683719" cy="41.589689983970594" r="8"/>
<circle cx="43.60250384788023" cy="41.589689983970594" r="8"/>
</g>
<g class="Direction" fill-opacity="0.9" style="display: none;">
<polygon fill="#444444" points="31.72,52.17 31.72,41.56 28.71,41.56 28.71,52.17 24.91,52.17 30.21,56.98 35.51,52.17 31.72,52.17 "/>
</g>
<g class="Name" fill-opacity="0.9" style="display: none;">

</g>
<desc>Width:60 Height:90 Depth:30 Elevation:0</desc>
</g><g class="SelectionControls" fill="#0000ff" stroke="#0000ff" style="display: none;"><g class="rotateControl" style="display: none;"><circle cx="710.198812172563" cy="332.1981580795159" r="5" style="stroke : none; fill-opacity: 0.5; cursor:crosshair"/></g><g class="ResizeNControl" style="display: none;"><circle cx="0" cy="0" r="5" style="stroke : none; fill-opacity: 0.5"/></g><g class="ResizeNEControl" style="display: none;"><circle cx="0" cy="0" r="5" style="stroke : none; fill-opacity: 0.5"/></g><g class="ResizeEControl" style="display: none;"><circle cx="0" cy="0" r="5" style="stroke : none; fill-opacity: 0.5"/></g><g class="ResizeSEControl" style="display: none;"><circle cx="0" cy="0" r="5" style="stroke : none; fill-opacity: 0.5"/></g><g class="ResizeSControl" style="display: none;"><circle cx="0" cy="0" r="5" style="stroke : none; fill-opacity: 0.5"/></g><g class="ResizeSWControl" style="display: none;"><circle cx="0" cy="0" r="5" style="stroke : none; fill-opacity: 0.5"/></g><g class="ResizeWControl" style="display: none;"><circle cx="0" cy="0" r="5" style="stroke : none; fill-opacity: 0.5"/></g><g class="ResizeNWControl" style="display: none;"><circle cx="0" cy="0" r="5" style="stroke : none; fill-opacity: 0.5"/></g><g class="removeControl" style="display: none;"><polygon points="676.43,362.20 743.97,362.20 743.97,401.93 676.43,401.93 " style="stroke : none; fill-opacity: 0.1"/></g><g class="copyPasteControl" style="display: none;"><polygon style="stroke : none; fill-opacity: 0.1"/></g><g class="translateControl" style="display: none;"><polygon points="676.43,362.20 743.97,362.20 743.97,401.93 676.43,401.93 " style="stroke : none; fill-opacity: 0.1; cursor:move"/></g></g><g class="SelectionControls" fill="#0000ff" stroke="#0000ff" style="display: none;"><polygon fill="none" points="596.88,342.47 820.34,342.47 820.34,426.51 596.88,426.51 " stroke="#0000ff" style=""/><g class="rotateControl" style="display: none;"><circle cx="708.6108753195356" cy="312.4667830795159" r="5" style="stroke : none; fill-opacity: 0.5; cursor:crosshair"/></g><g class="ResizeNControl" style="display: none;"><circle cx="0" cy="0" r="5" style="stroke : none; fill-opacity: 0.5"/></g><g class="ResizeNEControl" style="display: none;"><circle cx="0" cy="0" r="5" style="stroke : none; fill-opacity: 0.5"/></g><g class="ResizeEControl" style="display: none;"><circle cx="0" cy="0" r="5" style="stroke : none; fill-opacity: 0.5"/></g><g class="ResizeSEControl" style="display: none;"><circle cx="0" cy="0" r="5" style="stroke : none; fill-opacity: 0.5"/></g><g class="ResizeSControl" style="display: none;"><circle cx="0" cy="0" r="5" style="stroke : none; fill-opacity: 0.5"/></g><g class="ResizeSWControl" style="display: none;"><circle cx="0" cy="0" r="5" style="stroke : none; fill-opacity: 0.5"/></g><g class="ResizeWControl" style="display: none;"><circle cx="0" cy="0" r="5" style="stroke : none; fill-opacity: 0.5"/></g><g class="ResizeNWControl" style="display: none;"><circle cx="0" cy="0" r="5" style="stroke : none; fill-opacity: 0.5"/></g><g class="removeControl" style="display: none;"><polygon style="stroke : none; fill-opacity: 0.1"/></g><g class="copyPasteControl" style="display: none;"><polygon style="stroke : none; fill-opacity: 0.1"/></g><g class="translateControl" style="display: none;"><polygon style="stroke : none; fill-opacity: 0.1; cursor:move"/></g></g></g></g></g></svg>