<?xml version="1.0" encoding="utf-8"?>
<svg height="1923.6300621032715" id="temp" version="1.1" viewBox="0 0 1175.695068359375 1923.6300621032715" width="1175.695068359375" xmlns="http://www.w3.org/2000/svg" xmlns:xlink="http://www.w3.org/1999/xlink"><defs/><g class="Model v1-1" id="Model"><g class="Floor"><g class="Floorplan Floor-1" id="Floor-1"><g class="Space Outdoor Garden" fill="#ffffff" id="9f865a26-de72-4b6a-8325-ccd5fe583e48" stroke="#000000" style="fill-opacity: 1; stroke-opacity: 1; stroke-width: 1;"><polygon points="405.11,480.38 1059.15,480.38 1059.15,45.44 405.11,45.44 405.11,480.38 405.11,480.38 "/><g class="Dimension" transform="matrix(1,0,0,1,405.1095,45.4404)"><g class="Visual" style="display: none;" transform="matrix(1,0,0,1,0,0)"><g class="DimensionMark" fill="#000000" id="mark1" stroke="none" style="fill-opacity: 1; pointer-events: visible;" transform="matrix(1,0,0,1,327.0192,0)"><polygon points="-5,5,0,0,5,5"/></g><g class="DimensionMark" fill="#000000" id="mark2" stroke="none" style="fill-opacity: 1; pointer-events: visible;" transform="matrix(1,0,0,1,654.0385,217.4707)"><polygon points="-5,-5,0,0,-5,5"/></g><g class="DimensionMark" fill="#000000" id="mark3" stroke="none" style="fill-opacity: 1; pointer-events: visible;" transform="matrix(1,0,0,1,327.0192,434.9415)"><polygon points="-5,-5,0,0,5,-5"/></g><g class="DimensionMark" fill="#000000" id="mark4" stroke="none" style="fill-opacity: 1; pointer-events: visible;" transform="matrix(1,0,0,1,0,217.4707)"><polygon points="5,5,0,0,5,-5"/></g></g><g class="SpaceDimensionsLabel" transform="matrix(1,0,0,1,284.4585,199.878)"><g class="TextLabel NameLabel" id="NameLabel" style="display: block;"/><g class="TextLabel DimensionMeasureLabel" id="DimensionMeasureLabel" style="display: none;" transform="matrix(1,0,0,1,-99.0859,79.7344)"/></g></g></g><g class="Space Undefined" fill="#ffffff" id="d76e0289-a13b-4aae-ac9f-bda95038a788" stroke="#ffffff" style="fill-opacity: 1; stroke-opacity: 1; stroke-width: 1;"><polygon points="822.60,876.41 420.19,876.41 420.19,506.38 822.60,506.38 "/><g class="Dimension" transform="matrix(1,0,0,1,420.1919,506.3818)"><g class="Visual" style="display: none;" transform="matrix(1,0,0,1,0,0)"><g class="DimensionMark" fill="#000000" id="mark1" stroke="none" style="fill-opacity: 1; pointer-events: visible;" transform="matrix(1,0,0,1,201.2036,0)"><polygon points="-5,5,0,0,5,5"/></g><g class="DimensionMark" fill="#000000" id="mark2" stroke="none" style="fill-opacity: 1; pointer-events: visible;" transform="matrix(1,0,0,1,402.4072,185.0117)"><polygon points="-5,-5,0,0,-5,5"/></g><g class="DimensionMark" fill="#000000" id="mark3" stroke="none" style="fill-opacity: 1; pointer-events: visible;" transform="matrix(1,0,0,1,201.2036,370.0234)"><polygon points="-5,-5,0,0,5,-5"/></g><g class="DimensionMark" fill="#000000" id="mark4" stroke="none" style="fill-opacity: 1; pointer-events: visible;" transform="matrix(1,0,0,1,0,185.0117)"><polygon points="5,5,0,0,5,-5"/></g></g><g class="SpaceDimensionsLabel" transform="matrix(1,0,0,1,201.2036,185.0117)"><g class="TextLabel NameLabel" id="NameLabel" style="display: block;"/><g class="TextLabel DimensionMeasureLabel" id="DimensionMeasureLabel" style="display: none;" transform="matrix(1,0,0,1,-40.5235,79.7031)"/></g></g></g><g class="Space Kitchen" fill="#ffffff" id="c3ee0ecc-89e8-4670-8c11-1fdbd59e9d84" stroke="#ffffff" style="fill-opacity: 1; stroke-opacity: 1; stroke-width: 1;"><polygon points="1050.65,970.04 902.94,970.04 902.94,876.41 831.36,876.41 831.36,706.85 822.60,706.85 822.60,506.38 1050.65,506.38 "/><g class="Dimension" transform="matrix(1,0,0,1,831.3633,506.3818)"><g class="Visual" style="display: none;" transform="matrix(1,0,0,1,0,0)"><g class="DimensionMark" fill="#000000" id="mark1" stroke="none" style="fill-opacity: 1; pointer-events: visible;" transform="matrix(1,0,0,1,105.2622,0)"><polygon points="-5,5,0,0,5,5"/></g><g class="DimensionMark" fill="#000000" id="mark2" stroke="none" style="fill-opacity: 1; pointer-events: visible;" transform="matrix(1,0,0,1,219.2886,231.8269)"><polygon points="-5,-5,0,0,-5,5"/></g><g class="DimensionMark" fill="#000000" id="mark3" stroke="none" style="fill-opacity: 1; pointer-events: visible;" transform="matrix(1,0,0,1,105.2622,463.6538)"><polygon points="-5,-5,0,0,5,-5"/></g><g class="DimensionMark" fill="#000000" id="mark4" stroke="none" style="fill-opacity: 1; pointer-events: visible;" transform="matrix(1,0,0,1,0,231.8269)"><polygon points="5,5,0,0,5,-5"/></g></g><g class="SpaceDimensionsLabel" style="display: block;" transform="matrix(1,0,0,1,98.5048,221.3377)"><g class="TextLabel NameLabel" id="NameLabel" style="display: block;"/><g class="TextLabel DimensionMeasureLabel" id="DimensionMeasureLabel" style="display: none;" transform="matrix(1,0,0,1,-128.4765,79.4844)"/></g></g></g><g class="Space Bedroom" fill="#ffffff" id="51ac7e3c-f679-4185-a26a-dfd59b37f8af" stroke="#ffffff" style="fill-opacity: 1; stroke-opacity: 1; stroke-width: 1;"><polygon points="693.95,1400.99 420.19,1400.99 420.19,1030.06 693.95,1030.06 "/><g class="Dimension" transform="matrix(1,0,0,1,420.1919,1030.0582)"><g class="Visual" style="display: none;" transform="matrix(1,0,0,1,0,0)"><g class="DimensionMark" fill="#000000" id="mark1" stroke="none" style="fill-opacity: 1; pointer-events: visible;" transform="matrix(1,0,0,1,136.8807,0)"><polygon points="-5,5,0,0,5,5"/></g><g class="DimensionMark" fill="#000000" id="mark2" stroke="none" style="fill-opacity: 1; pointer-events: visible;" transform="matrix(1,0,0,1,273.7614,185.4662)"><polygon points="-5,-5,0,0,-5,5"/></g><g class="DimensionMark" fill="#000000" id="mark3" stroke="none" style="fill-opacity: 1; pointer-events: visible;" transform="matrix(1,0,0,1,136.8807,370.9324)"><polygon points="-5,-5,0,0,5,-5"/></g><g class="DimensionMark" fill="#000000" id="mark4" stroke="none" style="fill-opacity: 1; pointer-events: visible;" transform="matrix(1,0,0,1,0,185.4662)"><polygon points="5,5,0,0,5,-5"/></g></g><g class="SpaceDimensionsLabel" style="display: block;" transform="matrix(1,0,0,1,106.4487,213.8125)"><g class="TextLabel NameLabel" id="NameLabel" style="display: block;"/><g class="TextLabel DimensionMeasureLabel" id="DimensionMeasureLabel" style="display: none;" transform="matrix(1,0,0,1,-113.7031,79.8281)"/></g></g></g><g class="Space Entry Lobby" fill="#ffffff" id="99f5263e-e632-4056-914a-57c080948c3a" stroke="#ffffff" style="fill-opacity: 1; stroke-opacity: 1; stroke-width: 1;"><polygon points="876.94,902.41 876.94,1323.88 719.95,1323.88 719.95,902.41 "/><g class="Dimension" transform="matrix(1,0,0,1,719.9533,902.4052)"><g class="Visual" style="display: none;" transform="matrix(1,0,0,1,0,0)"><g class="DimensionMark" fill="#000000" id="mark1" stroke="none" style="fill-opacity: 1; pointer-events: visible;" transform="matrix(1,0,0,1,78.4921,0)"><polygon points="-5,5,0,0,5,5"/></g><g class="DimensionMark" fill="#000000" id="mark2" stroke="none" style="fill-opacity: 1; pointer-events: visible;" transform="matrix(1,0,0,1,156.9841,210.7357)"><polygon points="-5,-5,0,0,-5,5"/></g><g class="DimensionMark" fill="#000000" id="mark3" stroke="none" style="fill-opacity: 1; pointer-events: visible;" transform="matrix(1,0,0,1,78.4921,421.4714)"><polygon points="-5,-5,0,0,5,-5"/></g><g class="DimensionMark" fill="#000000" id="mark4" stroke="none" style="fill-opacity: 1; pointer-events: visible;" transform="matrix(1,0,0,1,0,210.7357)"><polygon points="5,5,0,0,5,-5"/></g></g><g class="SpaceDimensionsLabel" style="display: block;" transform="matrix(1,0,0,1,22.2279,225.3766)"><g class="TextLabel NameLabel" id="NameLabel" style="display: block;"/><g class="TextLabel DimensionMeasureLabel" id="DimensionMeasureLabel" style="display: none;" transform="matrix(1,0,0,1,-119.1719,79.3906)"/></g></g></g><g class="Space Storage" fill="#ffffff" id="a5e7ce72-0f0b-4df3-91f6-d86b7f3bb8e2" stroke="#ffffff" style="fill-opacity: 1; stroke-opacity: 1; stroke-width: 1;"><polygon points="1058.88,1897.63 874.86,1897.63 874.86,1640.39 1058.88,1640.39 "/><g class="Dimension" transform="matrix(1,0,0,1,874.8602,1640.3909)"><g class="Visual" style="display: none;" transform="matrix(1,0,0,1,0,0)"><g class="DimensionMark" fill="#000000" id="mark1" stroke="none" style="fill-opacity: 1; pointer-events: visible;" transform="matrix(1,0,0,1,92.0075,0)"><polygon points="-5,5,0,0,5,5"/></g><g class="DimensionMark" fill="#000000" id="mark2" stroke="none" style="fill-opacity: 1; pointer-events: visible;" transform="matrix(1,0,0,1,184.0149,128.6186)"><polygon points="-5,-5,0,0,-5,5"/></g><g class="DimensionMark" fill="#000000" id="mark3" stroke="none" style="fill-opacity: 1; pointer-events: visible;" transform="matrix(1,0,0,1,92.0075,257.2372)"><polygon points="-5,-5,0,0,5,-5"/></g><g class="DimensionMark" fill="#000000" id="mark4" stroke="none" style="fill-opacity: 1; pointer-events: visible;" transform="matrix(1,0,0,1,0,128.6186)"><polygon points="5,5,0,0,5,-5"/></g></g><g class="SpaceDimensionsLabel" style="display: block;" transform="matrix(1,0,0,1,55.6733,140.4142)"><g class="TextLabel NameLabel" id="NameLabel" style="display: block;"/><g class="TextLabel DimensionMeasureLabel" id="DimensionMeasureLabel" style="display: none;" transform="matrix(1,0,0,1,-105.7032,79.875)"/></g></g></g><g class="Space Bath Shower" fill="#ffffff" id="3dcc4b38-da6a-4ddf-8464-54e62469c6d5" stroke="#ffffff" style="fill-opacity: 1; stroke-opacity: 1; stroke-width: 1;"><polygon points="1050.65,1223.79 902.86,1223.79 902.94,1222.30 902.94,996.04 1050.65,996.04 "/><g class="Dimension" transform="matrix(1,0,0,1,902.9374,996.0356)"><g class="Visual" style="display: none;" transform="matrix(1,0,0,1,0,0)"><g class="DimensionMark" fill="#000000" id="mark1" stroke="none" style="fill-opacity: 1; pointer-events: visible;" transform="matrix(1,0,0,1,73.8201,0)"><polygon points="-5,5,0,0,5,5"/></g><g class="DimensionMark" fill="#000000" id="mark2" stroke="none" style="fill-opacity: 1; pointer-events: visible;" transform="matrix(1,0,0,1,147.7145,113.8767)"><polygon points="-5,-5,0,0,-5,5"/></g><g class="DimensionMark" fill="#000000" id="mark3" stroke="none" style="fill-opacity: 1; pointer-events: visible;" transform="matrix(1,0,0,1,73.8201,227.7534)"><polygon points="-5,-5,0,0,5,-5"/></g><g class="DimensionMark" fill="#000000" id="mark4" stroke="none" style="fill-opacity: 1; pointer-events: visible;" transform="matrix(1,0,0,1,0,113.8767)"><polygon points="5,5,0,0,5,-5"/></g></g><g class="SpaceDimensionsLabel" style="display: block;" transform="matrix(1,0,0,1,50.71,131.9286)"><g class="TextLabel NameLabel" id="NameLabel" style="display: block;"/><g class="TextLabel DimensionMeasureLabel" id="DimensionMeasureLabel" style="display: none;" transform="matrix(1,0,0,1,-117.6562,79.375)"/></g></g></g><g class="Space Undefined" fill="#ffffff" id="e11309ea-99cd-4529-9071-c168fd2a3c96" stroke="#ffffff" style="fill-opacity: 1; stroke-opacity: 1; stroke-width: 1;"><polygon points="1050.65,1400.99 902.86,1400.99 902.86,1250.10 1050.65,1250.10 "/><g class="Dimension" transform="matrix(1,0,0,1,902.8631,1250.1045)"><g class="Visual" style="display: none;" transform="matrix(1,0,0,1,0,0)"><g class="DimensionMark" fill="#000000" id="mark1" stroke="none" style="fill-opacity: 1; pointer-events: visible;" transform="matrix(1,0,0,1,73.8944,0)"><polygon points="-5,5,0,0,5,5"/></g><g class="DimensionMark" fill="#000000" id="mark2" stroke="none" style="fill-opacity: 1; pointer-events: visible;" transform="matrix(1,0,0,1,147.7888,75.443)"><polygon points="-5,-5,0,0,-5,5"/></g><g class="DimensionMark" fill="#000000" id="mark3" stroke="none" style="fill-opacity: 1; pointer-events: visible;" transform="matrix(1,0,0,1,73.8944,150.8861)"><polygon points="-5,-5,0,0,5,-5"/></g><g class="DimensionMark" fill="#000000" id="mark4" stroke="none" style="fill-opacity: 1; pointer-events: visible;" transform="matrix(1,0,0,1,0,75.443)"><polygon points="5,5,0,0,5,-5"/></g></g><g class="SpaceDimensionsLabel" transform="matrix(1,0,0,1,73.8944,73.8944)"><g class="TextLabel NameLabel" id="NameLabel" style="display: block;"/><g class="TextLabel DimensionMeasureLabel" id="DimensionMeasureLabel" style="display: none;" transform="matrix(1,0,0,1,-40.4922,79.0312)"/></g></g></g><g class="Space DraughtLobby" fill="#ffffff" id="e0e92ee5-3a48-4ab3-9ae0-e0fa7aa7507c" stroke="#ffffff" style="fill-opacity: 1; stroke-opacity: 1; stroke-width: 1;"><polygon points="876.94,1400.99 719.95,1400.99 719.95,1344.45 876.94,1344.45 "/><g class="Dimension" transform="matrix(1,0,0,1,719.9533,1344.4493)"><g class="Visual" style="display: none;" transform="matrix(1,0,0,1,0,0)"><g class="DimensionMark" fill="#000000" id="mark1" stroke="none" style="fill-opacity: 1; pointer-events: visible;" transform="matrix(1,0,0,1,78.4921,0)"><polygon points="-5,5,0,0,5,5"/></g><g class="DimensionMark" fill="#000000" id="mark2" stroke="none" style="fill-opacity: 1; pointer-events: visible;" transform="matrix(1,0,0,1,156.9841,28.2706)"><polygon points="-5,-5,0,0,-5,5"/></g><g class="DimensionMark" fill="#000000" id="mark3" stroke="none" style="fill-opacity: 1; pointer-events: visible;" transform="matrix(1,0,0,1,78.4921,56.5412)"><polygon points="-5,-5,0,0,5,-5"/></g><g class="DimensionMark" fill="#000000" id="mark4" stroke="none" style="fill-opacity: 1; pointer-events: visible;" transform="matrix(1,0,0,1,0,28.2706)"><polygon points="5,5,0,0,5,-5"/></g></g><g class="SpaceDimensionsLabel" style="display: block;" transform="matrix(1,0,0,1,31.7391,40.1628)"><g class="TextLabel NameLabel" id="NameLabel" style="display: block;"/><g class="TextLabel DimensionMeasureLabel" id="DimensionMeasureLabel" style="display: none;" transform="matrix(1,0,0,1,-118.4688,79.3125)"/></g></g></g><g class="Space Bath" fill="#ffffff" id="20cab980-18e0-4ad9-8003-8e6d32868bf8" stroke="#ffffff" style="fill-opacity: 1; stroke-opacity: 1; stroke-width: 1;"><polygon points="693.95,1004.06 568.47,1004.06 568.47,902.41 693.95,902.41 "/><g class="Dimension" transform="matrix(1,0,0,1,568.4663,902.4052)"><g class="Visual" style="display: none;" transform="matrix(1,0,0,1,0,0)"><g class="DimensionMark" fill="#000000" id="mark1" stroke="none" style="fill-opacity: 1; pointer-events: visible;" transform="matrix(1,0,0,1,62.7435,0)"><polygon points="-5,5,0,0,5,5"/></g><g class="DimensionMark" fill="#000000" id="mark2" stroke="none" style="fill-opacity: 1; pointer-events: visible;" transform="matrix(1,0,0,1,125.487,50.8265)"><polygon points="-5,-5,0,0,-5,5"/></g><g class="DimensionMark" fill="#000000" id="mark3" stroke="none" style="fill-opacity: 1; pointer-events: visible;" transform="matrix(1,0,0,1,62.7435,101.653)"><polygon points="-5,-5,0,0,5,-5"/></g><g class="DimensionMark" fill="#000000" id="mark4" stroke="none" style="fill-opacity: 1; pointer-events: visible;" transform="matrix(1,0,0,1,0,50.8265)"><polygon points="5,5,0,0,5,-5"/></g></g><g class="SpaceDimensionsLabel" style="display: block;" transform="matrix(1,0,0,1,68.1242,81.5022)"><g class="TextLabel NameLabel" id="NameLabel" style="display: block;"/><g class="TextLabel DimensionMeasureLabel" id="DimensionMeasureLabel" style="display: none;" transform="matrix(1,0,0,1,-112.1719,79.7032)"/></g></g></g><g class="Space Closet WalkIn" fill="#ffffff" id="7f163556-3a6e-42f2-86f9-9a5ef0cc9526" stroke="#ffffff" style="fill-opacity: 1; stroke-opacity: 1; stroke-width: 1;"><polygon points="542.47,1004.06 420.19,1004.06 420.19,902.41 542.47,902.41 "/><g class="Dimension" transform="matrix(1,0,0,1,420.1919,902.4052)"><g class="Visual" style="display: none;" transform="matrix(1,0,0,1,0,0)"><g class="DimensionMark" fill="#000000" id="mark1" stroke="none" style="fill-opacity: 1; pointer-events: visible;" transform="matrix(1,0,0,1,61.1372,0)"><polygon points="-5,5,0,0,5,5"/></g><g class="DimensionMark" fill="#000000" id="mark2" stroke="none" style="fill-opacity: 1; pointer-events: visible;" transform="matrix(1,0,0,1,122.2744,50.8265)"><polygon points="-5,-5,0,0,-5,5"/></g><g class="DimensionMark" fill="#000000" id="mark3" stroke="none" style="fill-opacity: 1; pointer-events: visible;" transform="matrix(1,0,0,1,61.1372,101.653)"><polygon points="-5,-5,0,0,5,-5"/></g><g class="DimensionMark" fill="#000000" id="mark4" stroke="none" style="fill-opacity: 1; pointer-events: visible;" transform="matrix(1,0,0,1,0,50.8265)"><polygon points="5,5,0,0,5,-5"/></g></g><g class="SpaceDimensionsLabel" style="display: block;" transform="matrix(1,0,0,1,53.5833,81.4658)"><g class="TextLabel NameLabel" id="NameLabel" style="display: block;"/><g class="TextLabel DimensionMeasureLabel" id="DimensionMeasureLabel" style="display: none;" transform="matrix(1,0,0,1,-116.3282,79.6875)"/></g></g></g><g class="Wall External" fill="#000000" id="Wall" stroke="#000000" style="fill-opacity: 1; stroke-opacity: 1; stroke-width: 1;"><polygon points="394.19,480.38 394.19,1426.99 420.19,1400.99 420.19,506.38 "/></g><g class="Wall External" fill="#000000" id="Wall" stroke="#000000" style="fill-opacity: 1; stroke-opacity: 1; stroke-width: 1;"><polygon points="1075.65,480.38 394.19,480.38 420.19,506.38 1050.65,506.38 "/><g class="Window Regular" fill="#f0f0ff" id="Window" stroke="#000000" style="fill-opacity: 1; stroke-width: 1; stroke-opacity: 1;"><polygon points="717.67,480.38 514.56,480.38 514.56,506.38 717.67,506.38 "/><g class="Glass" id="Glass"><polygon points="717.67,480.38 514.56,480.38 514.56,506.38 717.67,506.38 "/></g><g class="Panel" id="Panel"><line x1="710.1691628088738" x2="522.0607675718961" y1="493.38184993616295" y2="493.38184993616295"/><line x1="710.1691628088738" x2="710.1691628088738" y1="480.38184993616295" y2="506.38184993616295"/><line x1="522.0607675718961" x2="522.0607675718961" y1="480.38184993616295" y2="506.38184993616295"/></g></g><g class="Door Swing Opposite" fill="#ffffff" id="Door" stroke="#000000" style="fill-opacity: 1; stroke-width: 1; stroke-opacity: 1;"><polygon points="814.21,480.38 730.65,480.38 730.65,506.38 814.21,506.38 "/><g class="Panel Right Negative" fill="none" id="Panel" style=""><g class="PanelArea" fill="none" id="PanelArea" stroke="none" style=""><polygon points="814.21,480.38 730.65,480.38 730.65,506.38 814.21,506.38 "/></g><path d="M730.65,480.38 q0.00,-83.56 83.56,-83.56 l0.00,83.56Z"/></g><g class="Panel Left Positive" fill="none" id="Panel" style=""><g class="PanelArea" fill="none" id="PanelArea" stroke="none" style=""><polygon points="814.21,480.38 730.65,480.38 730.65,506.38 814.21,506.38 "/></g><path d="M730.65,506.38 q0.00,83.56 83.56,83.56 l0.00,-83.56Z"/></g></g><g class="Window Regular" fill="#f0f0ff" id="Window" stroke="#000000" style="fill-opacity: 1; stroke-width: 1; stroke-opacity: 1;"><polygon points="969.20,480.38 854.64,480.38 854.64,506.38 969.20,506.38 "/><g class="Glass" id="Glass"><polygon points="969.20,480.38 854.64,480.38 854.64,506.38 969.20,506.38 "/></g><g class="Panel" id="Panel"><line x1="961.7043274656598" x2="862.1439215745926" y1="493.3818499361629" y2="493.3818499361629"/><line x1="961.7043274656598" x2="961.7043274656598" y1="480.3818499361629" y2="506.3818499361629"/><line x1="862.1439215745926" x2="862.1439215745926" y1="480.3818499361629" y2="506.3818499361629"/></g></g></g><g class="Wall" fill="#000000" id="Wall" stroke="#000000" style="fill-opacity: 1; stroke-opacity: 1; stroke-width: 1;"><polygon points="719.95,1426.99 719.95,876.41 693.95,902.41 693.95,1426.99 "/><g class="Door Swing Beside" fill="#ffffff" id="Door" stroke="#000000" style="fill-opacity: 1; stroke-width: 1; stroke-opacity: 1;"><polygon points="719.95,1156.81 719.95,1084.04 693.95,1084.04 693.95,1156.81 "/><g class="Panel Right Positive" fill="none" id="Panel" style=""><g class="PanelArea" fill="none" id="PanelArea" stroke="none" style=""><polygon points="719.95,1156.81 719.95,1084.04 693.95,1084.04 693.95,1156.81 "/></g><path d="M693.95,1156.81 q-72.76,0.00 -72.76,-72.76 l72.76,0.00Z"/></g></g><g class="Door Swing Beside" fill="#ffffff" id="Door" stroke="#000000" style="fill-opacity: 1; stroke-width: 1; stroke-opacity: 1;"><polygon points="719.95,999.89 719.95,938.30 693.95,938.30 693.95,999.89 "/><g class="Panel Left Negative" fill="none" id="Panel" style=""><g class="PanelArea" fill="none" id="PanelArea" stroke="none" style=""><polygon points="719.95,999.89 719.95,938.30 693.95,938.30 693.95,999.89 "/></g><path d="M719.95,999.89 q61.58,0.00 61.58,-61.58 l-61.58,0.00Z"/></g></g></g><g class="Wall" fill="#000000" id="Wall" stroke="#000000" style="fill-opacity: 1; stroke-opacity: 1; stroke-width: 1;"><polygon points="719.95,876.41 394.19,876.41 394.19,902.41 719.95,902.41 "/></g><g class="Wall" fill="#000000" id="Wall" stroke="#000000" style="fill-opacity: 1; stroke-opacity: 1; stroke-width: 1;"><polygon points="719.95,1004.06 394.19,1004.06 394.19,1030.06 719.95,1030.06 "/><g class="Door Swing Beside" fill="#ffffff" id="Door" stroke="#000000" style="fill-opacity: 1; stroke-width: 1; stroke-opacity: 1;"><polygon points="530.31,1004.06 475.30,1004.06 475.30,1030.06 530.31,1030.06 "/><g class="Panel Right Positive" fill="none" id="Panel" style=""><g class="PanelArea" fill="none" id="PanelArea" stroke="none" style=""><polygon points="530.31,1004.06 475.30,1004.06 475.30,1030.06 530.31,1030.06 "/></g><path d="M530.31,1030.06 q0.00,55.01 -55.01,55.01 l0.00,-55.01Z"/></g></g></g><g class="Wall" fill="#000000" id="Wall" stroke="#000000" style="fill-opacity: 1; stroke-opacity: 1; stroke-width: 1;"><polygon points="568.47,1030.06 568.47,876.41 542.47,876.41 542.47,1030.06 "/></g><g class="Wall" fill="#000000" id="Wall" stroke="#000000" style="fill-opacity: 1; stroke-opacity: 1; stroke-width: 1;"><polygon points="902.94,876.41 719.95,876.41 719.95,902.41 876.94,902.41 "/><g class="Door Swing Beside" fill="#ffffff" id="Door" stroke="#000000" style="fill-opacity: 1; stroke-width: 1; stroke-opacity: 1;"><polygon points="819.44,876.41 737.40,876.41 737.40,902.41 819.44,902.41 "/><g class="Panel Right Negative" fill="none" id="Panel" style=""><g class="PanelArea" fill="none" id="PanelArea" stroke="none" style=""><polygon points="819.44,876.41 737.40,876.41 737.40,902.41 819.44,902.41 "/></g><path d="M737.40,876.41 q0.00,-82.04 82.04,-82.04 l0.00,82.04Z"/></g></g></g><g class="Wall" fill="#000000" id="Wall" stroke="#000000" style="fill-opacity: 1; stroke-opacity: 1; stroke-width: 1;"><polygon points="876.94,996.04 1075.65,996.04 1075.65,970.04 876.94,970.04 "/></g><g class="Wall External" fill="#000000" id="Wall" stroke="#000000" style="fill-opacity: 1; stroke-opacity: 1; stroke-width: 1;"><polygon points="394.19,1426.99 1075.65,1426.99 1050.65,1400.99 420.19,1400.99 "/><g class="Window Regular" fill="#f0f0ff" id="Window" stroke="#000000" style="fill-opacity: 1; stroke-width: 1; stroke-opacity: 1;"><polygon points="903.50,1426.99 950.46,1426.99 950.46,1400.99 903.50,1400.99 "/><g class="Glass" id="Glass"><polygon points="903.50,1426.99 950.46,1426.99 950.46,1400.99 903.50,1400.99 "/></g><g class="Panel" id="Panel"><line x1="910.9994194251617" x2="942.9628612424726" y1="1413.9905860404178" y2="1413.9905860404178"/><line x1="910.9994194251617" x2="910.9994194251617" y1="1426.9905860404178" y2="1400.9905860404178"/><line x1="942.9628612424726" x2="942.9628612424726" y1="1426.9905860404178" y2="1400.9905860404178"/></g></g><g class="Door Swing Beside" fill="#ffffff" id="Door" stroke="#000000" style="fill-opacity: 1; stroke-width: 1; stroke-opacity: 1;"><polygon points="729.24,1426.99 812.29,1426.99 812.29,1400.99 729.24,1400.99 "/><g class="Panel Right Negative" fill="none" id="Panel" style=""><g class="PanelArea" fill="none" id="PanelArea" stroke="none" style=""><polygon points="729.24,1426.99 812.29,1426.99 812.29,1400.99 729.24,1400.99 "/></g><path d="M812.29,1426.99 q0.00,83.05 -83.05,83.05 l0.00,-83.05Z"/></g></g><g class="Window Regular" fill="#f0f0ff" id="Window" stroke="#000000" style="fill-opacity: 1; stroke-width: 1; stroke-opacity: 1;"><polygon points="520.38,1426.99 661.76,1426.99 661.76,1400.99 520.38,1400.99 "/><g class="Glass" id="Glass"><polygon points="520.38,1426.99 661.76,1426.99 661.76,1400.99 520.38,1400.99 "/></g><g class="Panel" id="Panel"><line x1="527.8765682169857" x2="654.261245688048" y1="1413.990586040418" y2="1413.990586040418"/><line x1="527.8765682169857" x2="527.8765682169857" y1="1426.990586040418" y2="1400.990586040418"/><line x1="654.261245688048" x2="654.261245688048" y1="1426.990586040418" y2="1400.990586040418"/></g></g></g><g class="Wall" fill="#000000" id="Wall" stroke="#000000" style="fill-opacity: 1; stroke-opacity: 1; stroke-width: 1;"><polygon points="876.94,1426.99 876.94,1222.30 902.86,1222.30 902.86,1426.99 "/></g><g class="Wall" fill="#000000" id="Wall" stroke="#000000" style="fill-opacity: 1; stroke-opacity: 1; stroke-width: 1;"><polygon points="876.94,1222.30 876.94,902.41 902.94,876.41 902.94,1222.30 "/><g class="Door Swing Beside" fill="#ffffff" id="Door" stroke="#000000" style="fill-opacity: 1; stroke-width: 1; stroke-opacity: 1;"><polygon points="876.94,967.67 876.94,904.72 902.94,904.72 902.94,967.67 "/><g class="Panel Left Positive" fill="none" id="Panel" style=""><g class="PanelArea" fill="none" id="PanelArea" stroke="none" style=""><polygon points="876.94,967.67 876.94,904.72 902.94,904.72 902.94,967.67 "/></g><path d="M902.94,904.72 q62.95,0.00 62.95,62.95 l-62.95,0.00Z"/></g></g><g class="Door Swing Beside" fill="#ffffff" id="Door" stroke="#000000" style="fill-opacity: 1; stroke-width: 1; stroke-opacity: 1;"><polygon points="876.94,1134.61 876.94,1066.02 902.94,1066.02 902.94,1134.61 "/><g class="Panel Right Negative" fill="none" id="Panel" style=""><g class="PanelArea" fill="none" id="PanelArea" stroke="none" style=""><polygon points="876.94,1134.61 876.94,1066.02 902.94,1066.02 902.94,1134.61 "/></g><path d="M876.94,1066.02 q-68.59,0.00 -68.59,68.59 l68.59,0.00Z"/></g></g></g><g class="Wall" fill="#000000" id="Wall" stroke="#000000" style="fill-opacity: 1; stroke-opacity: 1; stroke-width: 1;"><polygon points="693.95,1344.45 902.86,1344.45 902.86,1323.88 693.95,1323.88 "/><g class="Door Swing Beside" fill="#ffffff" id="Door" stroke="#000000" style="fill-opacity: 1; stroke-width: 1; stroke-opacity: 1;"><polygon points="732.21,1344.45 814.52,1344.45 814.52,1323.88 732.21,1323.88 "/><g class="Panel Left Positive" fill="none" id="Panel" style=""><g class="PanelArea" fill="none" id="PanelArea" stroke="none" style=""><polygon points="732.21,1344.45 814.52,1344.45 814.52,1323.88 732.21,1323.88 "/></g><path d="M814.52,1323.88 q0.00,-82.31 -82.31,-82.31 l0.00,82.31Z"/></g></g></g><g class="Wall" fill="#000000" id="Wall" stroke="#000000" style="fill-opacity: 1; stroke-opacity: 1; stroke-width: 1;"><polygon points="831.36,902.41 831.36,706.85 822.60,706.85 822.60,902.41 "/></g><g class="Wall" fill="#000000" id="Wall" stroke="#000000" style="fill-opacity: 1; stroke-opacity: 1; stroke-width: 1;"><polygon points="1058.88,1426.99 1058.88,1615.95 1068.88,1615.95 1068.88,1426.99 "/></g><g class="Wall External" fill="#000000" id="Wall" stroke="#000000" style="fill-opacity: 1; stroke-opacity: 1; stroke-width: 1;"><polygon points="1068.88,1615.95 1068.88,1923.63 1058.88,1897.63 1058.88,1640.39 "/></g><g class="Wall External" fill="#000000" id="Wall" stroke="#000000" style="fill-opacity: 1; stroke-opacity: 1; stroke-width: 1;"><polygon points="1058.88,1897.63 874.86,1897.63 848.86,1923.63 1068.88,1923.63 "/></g><g class="Wall External" fill="#000000" id="Wall" stroke="#000000" style="fill-opacity: 1; stroke-opacity: 1; stroke-width: 1;"><polygon points="874.86,1897.63 874.86,1640.39 848.86,1615.95 848.86,1923.63 "/><g class="Door Swing Beside" fill="#ffffff" id="Door" stroke="#000000" style="fill-opacity: 1; stroke-width: 1; stroke-opacity: 1;"><polygon points="874.86,1813.08 874.86,1730.01 848.86,1730.01 848.86,1813.08 "/><g class="Panel Left Positive" fill="none" id="Panel" style=""><g class="PanelArea" fill="none" id="PanelArea" stroke="none" style=""><polygon points="874.86,1813.08 874.86,1730.01 848.86,1730.01 848.86,1813.08 "/></g><path d="M848.86,1730.01 q-83.07,0.00 -83.07,83.07 l83.07,0.00Z"/></g></g></g><g class="Wall External" fill="#000000" id="Wall" stroke="#000000" style="fill-opacity: 1; stroke-opacity: 1; stroke-width: 1;"><polygon points="848.86,1615.95 1068.88,1615.95 1058.88,1640.39 874.86,1640.39 "/></g><g class="Wall" fill="#000000" id="Wall" stroke="#000000" style="fill-opacity: 1; stroke-opacity: 1; stroke-width: 1;"><polygon points="398.11,480.38 398.11,45.44 405.11,45.44 405.11,480.38 "/></g><g class="Wall" fill="#000000" id="Wall" stroke="#000000" style="fill-opacity: 1; stroke-opacity: 1; stroke-width: 1;"><polygon points="1059.15,480.38 1059.15,45.44 1066.15,45.44 1066.15,480.38 "/></g><g class="FixedFurniture SaunaBenchHigh" fill="#ffffff" stroke="#000000" style="fill-opacity: 1; stroke-opacity: 1;" transform="matrix(-1,0,0,-1,1050.8241,1400.7874)">
<g class="BoundaryPolygon">
<polygon points="0.00,0.00 147.96,0.00 147.96,60.00 0.00,60.00 "/>
</g>

<g class="Direction" fill-opacity="0.9" style="display: none;">
<polygon fill="#444444" points="76.31,54.66 76.31,44.04 73.30,44.04 73.30,54.66 69.50,54.66 74.80,59.96 80.10,54.66 76.31,54.66 "/>
</g>
<g class="Name" fill-opacity="0.9" style="display: none;">

</g>
<desc>Width:185 Height:5 Depth:60 Elevation:105</desc>
</g><g class="FixedFurniture SaunaBenchMid" fill="#ffffff" stroke="#000000" style="fill-opacity: 1; stroke-opacity: 1;" transform="matrix(-1,0,0,-1,1050.9934,1340.7874)">
<g class="BoundaryPolygon">
<polygon points="0.00,0.00 148.13,0.00 148.13,40.00 0.00,40.00 "/>
</g>

<g class="Direction" fill-opacity="0.9" style="display: none;">
<polygon fill="#444444" points="75.27,34.66 75.27,24.04 72.26,24.04 72.26,34.66 68.46,34.66 73.76,39.96 79.07,34.66 75.27,34.66 "/>
</g>
<g class="Name" fill-opacity="0.9" style="display: none;">

</g>
<desc>Width:185 Height:5 Depth:40 Elevation:60</desc>
</g><g class="FixedFurniture ElectricalAppliance SaunaStove" fill="#ffffff" stroke="#000000" style="fill-opacity: 1; stroke-opacity: 1;" transform="matrix(0.7069,0,0,1.3134,1008.238,1250.1045)">
<g class="BoundaryPolygon">
<polygon points="0,0 60,0 60,35 0,35"/>
</g>
<g class="electricitySign" fill="none">
<polyline points="0 35 39.7 17.5 21.4 17.5 60 0"/>
</g>
<g class="Direction" fill-opacity="0.9" style="display: none;">
<polygon fill="#444444" points="31.509 29.697 31.509 19.081 28.5 19.081 28.5 29.697 24.697 29.697 30 35 35.303 29.697 31.509 29.697"/>
</g>
<g class="Name" fill-opacity="0.9" style="display: none;">

</g>
<desc>Width:60 Height:60 Depth:35 Elevation:20</desc>
</g><g class="Wall External" fill="#000000" id="Wall" stroke="#000000" style="fill-opacity: 1; stroke-opacity: 1; stroke-width: 1;"><polygon points="1075.65,1426.99 1075.65,1250.10 1050.65,1250.10 1050.65,1400.99 "/></g><g class="Wall External" fill="#000000" id="Wall" stroke="#000000" style="fill-opacity: 1; stroke-opacity: 1; stroke-width: 1;"><polygon points="1075.65,1250.10 1075.65,480.38 1050.65,506.38 1050.65,1250.10 "/></g><g class="FixedFurniture Shower" fill="#ffffff" stroke="#000000" style="fill-opacity: 1; stroke-opacity: 1;" transform="matrix(-1,0,0,-1,1027.4966,1224.1045)">
<g class="BoundaryPolygon" fill="none" stroke="none">
<polygon points="0,0 32,0 32,19 0,19"/>
</g>
<g class="InnerPolygon">
<rect height="6.1" width="11.2" x="3.7" y="0.5"/>
<rect height="6.1" width="11.2" x="17.6" y="0.5"/>
<rect height="6.1" width="3.4" x="28.7" y="0.5"/>
<rect height="6.1" width="3.2" x="0.5" y="0.5"/>
<path d="M14.9,8.5c0,1.5-0.4,3.3-1.6,5    c-0.4,0.6-1,1.1-1.1,1.7c-0.2,1.1,0.3,2.8,2.5,3.2c0.5,0.1,1.3,0.1,1.6,0.1h-0.1c0.3,0,1.1,0,1.6-0.1c2.2-0.4,2.7-2.1,2.5-3.2    c-0.1-0.6-0.7-1.1-1.1-1.7c-1.2-1.7-1.6-3.5-1.6-5"/>
<path d="M12.2,15.3c0.1,0.2,1.6,1.9,4.2,1.9 c2.4-0.1,3.7-1.7,3.9-1.9"/>
<path d="M14.9,0.5h2.7v8c-0.9,0-1.8,0-2.7,0l0,0 C14.9,5.9,14.9,3.2,14.9,0.5z"/>
</g>
<g class="Indicator">
<path d="M3.7,3.6C5,3.1,5.2,3,5.2,3 c0,1.1,0,0,0,1.1C5.2,4.1,5.1,4.1,3.7,3.6"/>
<path d="M28.7,3.6 C27.4,3.1,27.2,3,27.2,3c0,1.1,0,0,0,1.1C27.2,4.1,27.3,4.1,28.7,3.6"/>
</g>
<desc>Width:32 Height:97 Depth:19 Elevation:135</desc>
</g><g class="FixedFurnitureSet" fill="#ffffff" id="FixedFurnitureSet" stroke="#000000" style="fill-opacity: 0.4; stroke-opacity: 0.4;" transform="matrix(0,1,-1,0,1050.6519,1011.3644)"><g class="FixedFurniture BaseCabinet" fill="#ffffff" stroke="#000000" style="fill-opacity: 1; stroke-opacity: 1;" transform="matrix(1,0,0,1,0,0)">
<g class="BoundaryPolygon">
<polygon points="0.00,0.00 57.97,0.00 57.97,39.95 0.00,39.95 "/>
</g>
<g class="Direction" fill-opacity="0.9" style="display: none;">
<polygon fill="#444444" points="30.92,36.75 30.92,26.14 27.91,26.14 27.91,36.75 24.11,36.75 29.41,41.56 34.72,36.75 30.92,36.75 "/>
</g>
<g class="Name" fill-opacity="0.9" style="display: none;">

</g>
<desc>Width:60 Height:5 Depth:60 Elevation:105</desc>
</g><g class="FixedFurniture Sink" fill="#ffffff" stroke="#000000" style="fill-opacity: 1; stroke-opacity: 1;" transform="matrix(1,0,0,1,0,0)">
<g class="BoundaryPolygon" fill="none" stroke="none">
<polygon points="0.00,0.00 57.97,0.00 57.97,39.95 0.00,39.95 "/>
</g>
<g class="InnerPolygon">
<polygon points="4.83,9.70 53.14,9.70 53.14,36.42 4.83,36.42 "/>
</g>
<g class="OuterDrain" stroke-width="0.8">
<circle cx="28.98288327666503" cy="21.440672562970605" r="3.5"/>
</g>
<g class="InnerDrain" stroke-width="0.8">
<circle cx="28.98288327666503" cy="21.440672562970605" r="2"/>
</g>
<g class="Faucet">
<polygon points="26.08,3.33 32.08,3.33 32.08,17.33 26.08,17.33 "/>
</g>
<g class="Direction" fill-opacity="0.9" style="display: none;">
<polygon fill="#444444" points="30.92,36.75 30.92,26.14 27.91,26.14 27.91,36.75 24.11,36.75 29.41,41.56 34.72,36.75 30.92,36.75 "/>
</g>
<g class="Name" fill-opacity="0.9" style="display: none;">

</g>
<desc>Width:60 Height:90 Depth:60 Elevation:0</desc>
</g></g><g class="FixedFurniture ElectricalAppliance Refrigerator" fill="#ffffff" stroke="#000000" style="fill-opacity: 1; stroke-opacity: 1;" transform="matrix(0,0.8596,-1,0,1050.4957,864.7596)">
<g class="BoundaryPolygon">
<polygon points="0,0 60,0 60,60 0,60"/>
</g>
<g class="electricitySign" fill="none">
<path d="M0,0,30,37.1v-18L60,56.3"/>
</g>
<g class="Doors">
<rect height="4" width="60" y="56"/>
</g>
<g class="Direction" fill-opacity="0.9" style="display: none;">
<polygon fill="#444444" points="32.009 55.197 32.009 44.581 29 44.581 29 55.197 25.197 55.197 30.5 60 35.803 55.197 32.009 55.197"/>
</g>
<g class="Name" fill-opacity="0.9" style="display: none;">

</g>
<desc>Width:60 Height:170 Depth:60 Elevation:0</desc>
</g><g class="FixedFurniture ElectricalAppliance" fill="#ffffff" stroke="#000000" style="fill-opacity: 1; stroke-opacity: 1;" transform="matrix(0,0.895,-1,0,1050.5739,916.3356)">
<g class="BoundaryPolygon">
<polygon points="0,0 60,0 60,60 0,60"/>
</g>
<g class="electricitySign" fill="none">
<path d="M0,0,30.1,39.8V19.4L59.9,60"/>
</g>
<g class="Direction" fill-opacity="0.9" style="display: none;">
<polygon fill="#444444" points="32.009 55.197 32.009 44.581 29 44.581 29 55.197 25.197 55.197 30.5 60 35.803 55.197 32.009 55.197"/>
</g>
<g class="Name" fill-opacity="0.9" style="display: none;">

</g>
<desc>Width:60 Height:200 Depth:60 Elevation:0</desc>
</g><g class="Wall" fill="#000000" id="Wall" stroke="#000000" style="fill-opacity: 1; stroke-opacity: 1; stroke-width: 1;"><polygon points="876.94,1250.10 1075.65,1250.10 1075.65,1223.79 876.94,1223.79 "/><g class="Door Swing Beside" fill="#ffffff" id="Door" stroke="#000000" style="fill-opacity: 1; stroke-width: 1; stroke-opacity: 1;"><polygon points="910.27,1250.10 972.16,1250.10 972.16,1223.79 910.27,1223.79 "/><g class="Panel Left Positive" fill="none" id="Panel" style=""><g class="PanelArea" fill="none" id="PanelArea" stroke="none" style=""><polygon points="910.27,1250.10 972.16,1250.10 972.16,1223.79 910.27,1223.79 "/></g><path d="M972.16,1223.79 q0.00,-61.89 -61.89,-61.89 l0.00,61.89Z"/></g></g></g><g class="FixedFurniture BaseCabinet" fill="#ffffff" stroke="#000000" style="fill-opacity: 1; stroke-opacity: 1;" transform="matrix(0,1,-1,0,1050.5738,707.5996)">
<g class="BoundaryPolygon">
<polygon points="0.00,0.00 157.16,0.00 157.16,60.00 0.00,60.00 "/>
</g>
<g class="Direction" fill-opacity="0.9" style="display: none;">
<polygon fill="#444444" points="83.84,55.20 83.84,44.58 80.83,44.58 80.83,55.20 77.03,55.20 82.33,60.00 87.64,55.20 83.84,55.20 "/>
</g>
<g class="Name" fill-opacity="0.9" style="display: none;">

</g>
<desc>Width:60 Height:90 Depth:60 Elevation:0</desc>
</g><g class="FixedFurniture Sink" fill="#ffffff" stroke="#000000" style="fill-opacity: 1; stroke-opacity: 1;" transform="matrix(0,1,-1,0,1056.561,728.9462)">
<g class="BoundaryPolygon" fill="none" stroke="none">
<polygon points="0.00,0.00 68.26,0.00 68.26,60.00 0.00,60.00 "/>
</g>
<g class="InnerPolygon">
<polygon points="5.69,9.70 62.57,9.70 62.57,54.70 5.69,54.70 "/>
</g>
<g class="OuterDrain" stroke-width="0.8">
<circle cx="34.1290869626672" cy="32.2" r="3.5"/>
</g>
<g class="InnerDrain" stroke-width="0.8">
<circle cx="34.1290869626672" cy="32.2" r="2"/>
</g>
<g class="Faucet">
<polygon points="30.72,5.00 36.72,5.00 36.72,19.00 30.72,19.00 "/>
</g>
<g class="Direction" fill-opacity="0.9" style="display: none;">
<polygon fill="#444444" points="36.41,55.20 36.41,44.58 33.41,44.58 33.41,55.20 29.60,55.20 34.91,60.00 40.21,55.20 36.41,55.20 "/>
</g>
<g class="Name" fill-opacity="0.9" style="display: none;">

</g>
<desc>Width:60 Height:90 Depth:60 Elevation:0</desc>
</g><g class="FixedFurniture ElectricalAppliance Dishwasher" fill="#ffffff" stroke="#000000" style="fill-opacity: 1; stroke-opacity: 1;" transform="matrix(0,1,-1,0,1050.5738,804.7596)">
<g class="BoundaryPolygon">
<polygon points="0,0 60,0 60,60 0,60"/>
</g>
<g class="electricitySign" fill="none">
<path d="M0,0,30,38.9v-20L60,60"/>
</g>
<g class="Handle">
<path d="M10,59.6H49.8"/>
</g>
<g class="Direction" fill-opacity="0.9" style="display: none;">
<polygon fill="#444444" points="32.009 55.197 32.009 44.581 29 44.581 29 55.197 25.197 55.197 30.5 60 35.803 55.197 32.009 55.197"/>
</g>
<g class="Name" fill-opacity="0.9" style="display: none;">

</g>
<desc>Width:60 Height:90 Depth:60 Elevation:0</desc>
</g><g class="FixedFurniture BaseCabinet" fill="#ffffff" stroke="#000000" style="fill-opacity: 1; stroke-opacity: 1;" transform="matrix(0,-1,1,0,831.4727,876.4052)">
<g class="BoundaryPolygon">
<polygon points="0.00,0.00 169.44,0.00 169.44,60.00 0.00,60.00 "/>
</g>
<g class="Direction" fill-opacity="0.9" style="display: none;">
<polygon fill="#444444" points="90.39,55.20 90.39,44.58 87.38,44.58 87.38,55.20 83.58,55.20 88.88,60.00 94.19,55.20 90.39,55.20 "/>
</g>
<g class="Name" fill-opacity="0.9" style="display: none;">

</g>
<desc>Width:60 Height:90 Depth:60 Elevation:0</desc>
</g><g class="FixedFurniture ElectricalAppliance IntegratedStove" fill="#ffffff" stroke="#000000" style="fill-opacity: 1; stroke-opacity: 1;" transform="matrix(0,-1,1,0,831.4727,857.914)">
<g class="BoundaryPolygon" fill="none" stroke="none">
<polygon points="0.00,0.00 58.56,0.00 58.56,60.00 0.00,60.00 "/>
</g>
<g class="InnerPolygon">
<polygon points="2.00,2.00 56.61,2.00 56.61,58.00 2.00,58.00 "/>
</g>
<g class="OuterCircle">
<circle cx="15.615231255555656" cy="16" r="8"/>
<circle cx="42.94188595277806" cy="16" r="8"/>
<circle cx="15.615231255555656" cy="44" r="8"/>
<circle cx="42.94188595277806" cy="44" r="8"/>
</g>
<g class="Direction" fill-opacity="0.9" style="display: none;">
<polygon fill="#444444" points="31.24,55.20 31.24,44.58 28.23,44.58 28.23,55.20 24.43,55.20 29.73,60.00 35.03,55.20 31.24,55.20 "/>
</g>
<g class="Name" fill-opacity="0.9" style="display: none;">

</g>
<desc>Width:60 Height:90 Depth:30 Elevation:0</desc>
</g><g class="FixedFurniture Closet" fill="#ffffff" stroke="#000000" style="fill-opacity: 1; stroke-opacity: 1;" transform="matrix(1,0,0,1,556.2033,1030.0738)">
<g class="BoundaryPolygon">
<polygon points="0.00,0.00 137.75,0.00 137.75,45.49 0.00,45.49 "/>
</g>
<g class="Direction" fill-opacity="0.9" style="display: none;">
<polygon fill="#444444" points="70.61,41.34 70.61,30.72 67.60,30.72 67.60,41.34 63.80,41.34 69.10,46.64 74.40,41.34 70.61,41.34 "/>
</g>
<g class="Name" fill-opacity="0.9" style="display: none;">

</g>
<desc>Width:120 Height:200 Depth:60 Elevation:0</desc>
</g><g class="FixedFurniture Closet" fill="#ffffff" stroke="#000000" style="fill-opacity: 1; stroke-opacity: 1;" transform="matrix(1,0,0,1,542.4663,902.4052)"><desc>Width:120 Height:200 Depth:60 Elevation:0</desc><g class="BoundaryPolygon"><polygon points="0.00,0.00 -122.27,0.00 -122.27,101.50 -89.76,101.50 -89.76,37.72 0.00,37.72 0.00,0.00 "/></g></g><g class="FixedFurniture Toilet" fill="#ffffff" stroke="#000000" style="fill-opacity: 1; stroke-opacity: 1;" transform="matrix(0,-1,1,0,568.4662,996.0676)">
<g class="BoundaryPolygon" fill="none" stroke="none">
<polygon points="0,0 41,0 41,71 0,71"/>
</g>
<g class="InnerPolygon">
<rect height="17.98" width="39.989" x="0.502" y="0.5"/>
<path d="M40.491,44.237S41.619,70.5,20.907,70.5C-.523,70.5.6,44.237.6,44.237L.5,18.48H40.491Z"/>
<rect height="3.03" width="6.357" x="17.318" y="7.975"/>
</g>
<desc>Width:41 Height:85 Depth:71 Elevation:0</desc>
</g><g class="FixedFurniture BaseCabinet" fill="#ffffff" stroke="#000000" style="fill-opacity: 1; stroke-opacity: 1;" transform="matrix(1,0,0,1,568.4663,902.4677)">
<g class="BoundaryPolygon">
<polygon points="0.00,0.00 125.32,0.00 125.32,32.32 0.00,32.32 "/>
</g>
<g class="Direction" fill-opacity="0.9" style="display: none;">
<polygon fill="#444444" points="66.86,29.73 66.86,19.11 63.85,19.11 63.85,29.73 60.04,29.73 65.35,34.53 70.65,29.73 66.86,29.73 "/>
</g>
<g class="Name" fill-opacity="0.9" style="display: none;">

</g>
<desc>Width:60 Height:90 Depth:60 Elevation:0</desc>
</g><g class="FixedFurniture Sink" fill="#ffffff" stroke="#000000" style="fill-opacity: 1; stroke-opacity: 1;" transform="matrix(1,0,0,1,628.8951,902.4677)">
<g class="BoundaryPolygon" fill="none" stroke="none">
<polygon points="0.00,0.00 48.96,0.00 48.96,29.74 0.00,29.74 "/>
</g>
<g class="InnerPolygon">
<polygon points="4.08,9.70 44.88,9.70 44.88,27.11 4.08,27.11 "/>
</g>
<g class="OuterDrain" stroke-width="0.8">
<circle cx="24.477765340814273" cy="15.959458394196602" r="3.5"/>
</g>
<g class="InnerDrain" stroke-width="0.8">
<circle cx="24.477765340814273" cy="15.959458394196602" r="2"/>
</g>
<g class="Faucet">
<polygon points="22.03,2.48 28.03,2.48 28.03,16.48 22.03,16.48 "/>
</g>
<g class="Direction" fill-opacity="0.9" style="display: none;">
<polygon fill="#444444" points="26.12,27.36 26.12,16.74 23.11,16.74 23.11,27.36 19.30,27.36 24.61,32.16 29.91,27.36 26.12,27.36 "/>
</g>
<g class="Name" fill-opacity="0.9" style="display: none;">

</g>
<desc>Width:60 Height:90 Depth:60 Elevation:0</desc>
</g><g class="SelectionControls" fill="#0000ff" stroke="#0000ff" style="display: none;"><g class="rotateControl" style="display: none;"><circle cx="964.7600564012215" cy="1717.9456946902671" r="5" style="stroke : none; fill-opacity: 0.5; cursor:crosshair"/></g><g class="ResizeNControl" style="display: none;"><circle cx="0" cy="0" r="5" style="stroke : none; fill-opacity: 0.5"/></g><g class="ResizeNEControl" style="display: none;"><circle cx="0" cy="0" r="5" style="stroke : none; fill-opacity: 0.5"/></g><g class="ResizeEControl" style="display: none;"><circle cx="0" cy="0" r="5" style="stroke : none; fill-opacity: 0.5"/></g><g class="ResizeSEControl" style="display: none;"><circle cx="0" cy="0" r="5" style="stroke : none; fill-opacity: 0.5"/></g><g class="ResizeSControl" style="display: none;"><circle cx="0" cy="0" r="5" style="stroke : none; fill-opacity: 0.5"/></g><g class="ResizeSWControl" style="display: none;"><circle cx="0" cy="0" r="5" style="stroke : none; fill-opacity: 0.5"/></g><g class="ResizeWControl" style="display: none;"><circle cx="0" cy="0" r="5" style="stroke : none; fill-opacity: 0.5"/></g><g class="ResizeNWControl" style="display: none;"><circle cx="0" cy="0" r="5" style="stroke : none; fill-opacity: 0.5"/></g><g class="removeControl" style="display: none;"><polygon points="930.53,1747.95 998.99,1747.95 998.99,1787.73 930.53,1787.73 " style="stroke : none; fill-opacity: 0.1"/></g><g class="copyPasteControl" style="display: none;"><polygon style="stroke : none; fill-opacity: 0.1"/></g><g class="translateControl" style="display: none;"><polygon points="930.53,1747.95 998.99,1747.95 998.99,1787.73 930.53,1787.73 " style="stroke : none; fill-opacity: 0.1; cursor:move"/></g></g><g class="SelectionControls" fill="#0000ff" stroke="#0000ff" style="display: none;"><polygon fill="none" points="874.86,1640.39 1058.88,1640.39 1058.88,1897.63 874.86,1897.63 " stroke="#0000ff" style=""/><g class="rotateControl" style="display: none;"><circle cx="966.867640190284" cy="1610.3908696902672" r="5" style="stroke : none; fill-opacity: 0.5; cursor:crosshair"/></g><g class="ResizeNControl" style="display: none;"><circle cx="0" cy="0" r="5" style="stroke : none; fill-opacity: 0.5"/></g><g class="ResizeNEControl" style="display: none;"><circle cx="0" cy="0" r="5" style="stroke : none; fill-opacity: 0.5"/></g><g class="ResizeEControl" style="display: none;"><circle cx="0" cy="0" r="5" style="stroke : none; fill-opacity: 0.5"/></g><g class="ResizeSEControl" style="display: none;"><circle cx="0" cy="0" r="5" style="stroke : none; fill-opacity: 0.5"/></g><g class="ResizeSControl" style="display: none;"><circle cx="0" cy="0" r="5" style="stroke : none; fill-opacity: 0.5"/></g><g class="ResizeSWControl" style="display: none;"><circle cx="0" cy="0" r="5" style="stroke : none; fill-opacity: 0.5"/></g><g class="ResizeWControl" style="display: none;"><circle cx="0" cy="0" r="5" style="stroke : none; fill-opacity: 0.5"/></g><g class="ResizeNWControl" style="display: none;"><circle cx="0" cy="0" r="5" style="stroke : none; fill-opacity: 0.5"/></g><g class="removeControl" style="display: none;"><polygon style="stroke : none; fill-opacity: 0.1"/></g><g class="copyPasteControl" style="display: none;"><polygon style="stroke : none; fill-opacity: 0.1"/></g><g class="translateControl" style="display: none;"><polygon style="stroke : none; fill-opacity: 0.1; cursor:move"/></g></g></g></g></g></svg>