<?xml version="1.0" encoding="utf-8"?>
<svg height="1461.9098815917969" id="temp" version="1.1" viewBox="0 0 848.4900054931641 1461.9098815917969" width="848.4900054931641" xmlns="http://www.w3.org/2000/svg" xmlns:xlink="http://www.w3.org/1999/xlink"><desc>Powered by CubiCasa</desc><defs/><g class="Model v1-1" id="Model"><g class="Floor"><g class="Floorplan Floor-1" id="Floor-1" transform="matrix(1,0,0,1,0,0)"><g class="Space DraughtLobby" fill="#ffffff" id="3614ca9e-80c8-48b3-9345-aa514c077e30" stroke="#ffffff" style="fill-opacity: 1; stroke-opacity: 1; stroke-width: 1;"><polygon points="509.85,1337.10 328.13,1337.10 328.13,1230.27 509.85,1230.27 "/><g class="Dimension" transform="matrix(1,0,0,1,328.1265,1230.2741)"><g class="Visual" style="display: none;" transform="matrix(1,0,0,1,0,0)"><g class="DimensionMark" fill="#000000" id="mark1" stroke="none" style="fill-opacity: 1; pointer-events: visible;" transform="matrix(1,0,0,1,90.8624,0)"><polygon points="-5,5,0,0,5,5"/></g><g class="DimensionMark" fill="#000000" id="mark2" stroke="none" style="fill-opacity: 1; pointer-events: visible;" transform="matrix(1,0,0,1,181.7249,53.4117)"><polygon points="-5,-5,0,0,-5,5"/></g><g class="DimensionMark" fill="#000000" id="mark3" stroke="none" style="fill-opacity: 1; pointer-events: visible;" transform="matrix(1,0,0,1,90.8624,106.8234)"><polygon points="-5,-5,0,0,5,-5"/></g><g class="DimensionMark" fill="#000000" id="mark4" stroke="none" style="fill-opacity: 1; pointer-events: visible;" transform="matrix(1,0,0,1,0,53.4117)"><polygon points="5,5,0,0,5,-5"/></g></g><g class="SpaceDimensionsLabel" transform="matrix(1,0,0,1,22.552,69.4588)"><g class="TextLabel NameLabel" id="NameLabel" style="display: none;"/><g class="TextLabel DimensionMeasureLabel" id="DimensionMeasureLabel" style="display: none;" transform="matrix(1,0,0,1,-118.8438,79.5938)"/></g></g></g><g class="Space Undefined" fill="#ffffff" id="0071ae29-e114-4562-a8e4-49efb24c3390" stroke="#ffffff" style="fill-opacity: 1; stroke-opacity: 1; stroke-width: 1;"><polygon points="316.17,1083.79 154.77,1083.79 154.77,927.33 316.17,927.33 "/><g class="Dimension" transform="matrix(1,0,0,1,154.7731,927.3269)"><g class="Visual" style="display: none;" transform="matrix(1,0,0,1,0,0)"><g class="DimensionMark" fill="#000000" id="mark1" stroke="none" style="fill-opacity: 1; pointer-events: visible;" transform="matrix(1,0,0,1,80.6962,0)"><polygon points="-5,5,0,0,5,5"/></g><g class="DimensionMark" fill="#000000" id="mark2" stroke="none" style="fill-opacity: 1; pointer-events: visible;" transform="matrix(1,0,0,1,161.3925,78.2307)"><polygon points="-5,-5,0,0,-5,5"/></g><g class="DimensionMark" fill="#000000" id="mark3" stroke="none" style="fill-opacity: 1; pointer-events: visible;" transform="matrix(1,0,0,1,80.6962,156.4614)"><polygon points="-5,-5,0,0,5,-5"/></g><g class="DimensionMark" fill="#000000" id="mark4" stroke="none" style="fill-opacity: 1; pointer-events: visible;" transform="matrix(1,0,0,1,0,78.2307)"><polygon points="5,5,0,0,5,-5"/></g></g><g class="SpaceDimensionsLabel" transform="matrix(1,0,0,1,78.2307,78.2307)"><g class="TextLabel NameLabel" id="NameLabel" style="display: none;"/><g class="TextLabel DimensionMeasureLabel" id="DimensionMeasureLabel" style="display: none;" transform="matrix(1,0,0,1,-40.5313,79.5938)"/></g></g></g><g class="Space Closet WalkIn" fill="#ffffff" id="171c79cc-4b61-4191-b164-3eec9384d955" stroke="#ffffff" style="fill-opacity: 1; stroke-opacity: 1; stroke-width: 1;"><polygon points="828.49,980.06 581.92,980.06 581.92,858.22 828.49,858.22 "/><g class="Dimension" transform="matrix(1,0,0,1,581.9175,858.223)"><g class="Visual" style="display: none;" transform="matrix(1,0,0,1,0,0)"><g class="DimensionMark" fill="#000000" id="mark1" stroke="none" style="fill-opacity: 1; pointer-events: visible;" transform="matrix(1,0,0,1,123.2841,0)"><polygon points="-5,5,0,0,5,5"/></g><g class="DimensionMark" fill="#000000" id="mark2" stroke="none" style="fill-opacity: 1; pointer-events: visible;" transform="matrix(1,0,0,1,246.5681,60.9196)"><polygon points="-5,-5,0,0,-5,5"/></g><g class="DimensionMark" fill="#000000" id="mark3" stroke="none" style="fill-opacity: 1; pointer-events: visible;" transform="matrix(1,0,0,1,123.2841,121.8392)"><polygon points="-5,-5,0,0,5,-5"/></g><g class="DimensionMark" fill="#000000" id="mark4" stroke="none" style="fill-opacity: 1; pointer-events: visible;" transform="matrix(1,0,0,1,0,60.9196)"><polygon points="5,5,0,0,5,-5"/></g></g><g class="SpaceDimensionsLabel" transform="matrix(1,0,0,1,96.7169,57.2165)"><g class="TextLabel NameLabel" id="NameLabel" style="display: none;"/><g class="TextLabel DimensionMeasureLabel" id="DimensionMeasureLabel" style="display: none;" transform="matrix(1,0,0,1,-116.3359,79.5938)"/></g></g></g><g class="Space Bath" fill="#ffffff" id="d2fc9595-dbd1-4cd8-a3f4-5ff4c04cfdad" stroke="#ffffff" style="fill-opacity: 1; stroke-opacity: 1; stroke-width: 1;"><polygon points="320.13,1337.10 147.29,1337.10 147.29,1095.79 320.13,1095.79 "/><g class="Dimension" transform="matrix(1,0,0,1,147.2914,1095.7883)"><g class="Visual" style="display: none;" transform="matrix(1,0,0,1,0,0)"><g class="DimensionMark" fill="#000000" id="mark1" stroke="none" style="fill-opacity: 1; pointer-events: visible;" transform="matrix(1,0,0,1,86.4175,0)"><polygon points="-5,5,0,0,5,5"/></g><g class="DimensionMark" fill="#000000" id="mark2" stroke="none" style="fill-opacity: 1; pointer-events: visible;" transform="matrix(1,0,0,1,172.835,120.6546)"><polygon points="-5,-5,0,0,-5,5"/></g><g class="DimensionMark" fill="#000000" id="mark3" stroke="none" style="fill-opacity: 1; pointer-events: visible;" transform="matrix(1,0,0,1,86.4175,241.3092)"><polygon points="-5,-5,0,0,5,-5"/></g><g class="DimensionMark" fill="#000000" id="mark4" stroke="none" style="fill-opacity: 1; pointer-events: visible;" transform="matrix(1,0,0,1,0,120.6546)"><polygon points="5,5,0,0,5,-5"/></g></g><g class="SpaceDimensionsLabel" transform="matrix(1,0,0,1,77.7768,141.6393)"><g class="TextLabel NameLabel" id="NameLabel" style="display: none;"/><g class="TextLabel DimensionMeasureLabel" id="DimensionMeasureLabel" style="display: none;" transform="matrix(1,0,0,1,-116.1797,79.5938)"/></g></g></g><g class="Space Kitchen" fill="#ffffff" id="d475a471-0789-46e1-837d-1deedb13398a" stroke="#ffffff" style="fill-opacity: 1; stroke-opacity: 1; stroke-width: 1;"><polygon points="828.49,1337.10 526.85,1337.10 526.85,987.83 828.49,987.83 "/><g class="Dimension" transform="matrix(1,0,0,1,526.8513,987.8259)"><g class="Visual" style="display: none;" transform="matrix(1,0,0,1,0,0)"><g class="DimensionMark" fill="#000000" id="mark1" stroke="none" style="fill-opacity: 1; pointer-events: visible;" transform="matrix(1,0,0,1,150.8171,0)"><polygon points="-5,5,0,0,5,5"/></g><g class="DimensionMark" fill="#000000" id="mark2" stroke="none" style="fill-opacity: 1; pointer-events: visible;" transform="matrix(1,0,0,1,301.6343,174.6358)"><polygon points="-5,-5,0,0,-5,5"/></g><g class="DimensionMark" fill="#000000" id="mark3" stroke="none" style="fill-opacity: 1; pointer-events: visible;" transform="matrix(1,0,0,1,150.8171,349.2716)"><polygon points="-5,-5,0,0,5,-5"/></g><g class="DimensionMark" fill="#000000" id="mark4" stroke="none" style="fill-opacity: 1; pointer-events: visible;" transform="matrix(1,0,0,1,0,174.6358)"><polygon points="5,5,0,0,5,-5"/></g></g><g class="SpaceDimensionsLabel" transform="matrix(1,0,0,1,128.5981,183.2766)"><g class="TextLabel NameLabel" id="NameLabel" style="display: none;"/><g class="TextLabel DimensionMeasureLabel" id="DimensionMeasureLabel" style="display: none;" transform="matrix(1,0,0,1,-128.5078,79.5938)"/></g></g></g><g class="Space Bedroom" fill="#ffffff" id="1ce36531-a0e5-4c6f-b374-171c4a458c30" stroke="#ffffff" style="fill-opacity: 1; stroke-opacity: 1; stroke-width: 1;"><polygon points="828.49,848.22 526.85,848.22 526.85,470.18 828.49,470.18 "/><g class="Dimension" transform="matrix(1,0,0,1,526.8513,470.1766)"><g class="Visual" style="display: none;" transform="matrix(1,0,0,1,0,0)"><g class="DimensionMark" fill="#000000" id="mark1" stroke="none" style="fill-opacity: 1; pointer-events: visible;" transform="matrix(1,0,0,1,150.8171,0)"><polygon points="-5,5,0,0,5,5"/></g><g class="DimensionMark" fill="#000000" id="mark2" stroke="none" style="fill-opacity: 1; pointer-events: visible;" transform="matrix(1,0,0,1,301.6343,189.0232)"><polygon points="-5,-5,0,0,-5,5"/></g><g class="DimensionMark" fill="#000000" id="mark3" stroke="none" style="fill-opacity: 1; pointer-events: visible;" transform="matrix(1,0,0,1,150.8171,378.0464)"><polygon points="-5,-5,0,0,5,-5"/></g><g class="DimensionMark" fill="#000000" id="mark4" stroke="none" style="fill-opacity: 1; pointer-events: visible;" transform="matrix(1,0,0,1,0,189.0232)"><polygon points="5,5,0,0,5,-5"/></g></g><g class="SpaceDimensionsLabel" transform="matrix(1,0,0,1,131.006,187.4992)"><g class="TextLabel NameLabel" id="NameLabel" style="display: none;"/><g class="TextLabel DimensionMeasureLabel" id="DimensionMeasureLabel" style="display: none;" transform="matrix(1,0,0,1,-113.7031,79.5938)"/></g></g></g><g class="Space Outdoor" fill="#ffffff" id="a0cc262b-271e-4315-8467-43ca4e19b3f1" stroke="#000000" style="stroke-width: 1; fill-opacity: 1; stroke-opacity: 1;"><polygon points="194.56,438.18 194.56,253.78 499.49,253.78 499.49,438.18 194.56,438.18 194.56,438.18 "/><g class="Dimension" transform="matrix(1,0,0,1,194.5573,253.781)"><g class="Visual" style="display: none;" transform="matrix(1,0,0,1,0,0)"><g class="DimensionMark" fill="#000000" id="mark1" stroke="none" style="fill-opacity: 1; pointer-events: visible;" transform="matrix(1,0,0,1,152.4676,0)"><polygon points="-5,5,0,0,5,5"/></g><g class="DimensionMark" fill="#000000" id="mark2" stroke="none" style="fill-opacity: 1; pointer-events: visible;" transform="matrix(1,0,0,1,304.9352,92.1978)"><polygon points="-5,-5,0,0,-5,5"/></g><g class="DimensionMark" fill="#000000" id="mark3" stroke="none" style="fill-opacity: 1; pointer-events: visible;" transform="matrix(1,0,0,1,152.4676,184.3956)"><polygon points="-5,-5,0,0,5,-5"/></g><g class="DimensionMark" fill="#000000" id="mark4" stroke="none" style="fill-opacity: 1; pointer-events: visible;" transform="matrix(1,0,0,1,0,92.1978)"><polygon points="5,5,0,0,5,-5"/></g></g><g class="SpaceDimensionsLabel" transform="matrix(1,0,0,1,152.4676,92.1978)"><g class="TextLabel NameLabel" id="NameLabel" style="display: none;"/><g class="TextLabel DimensionMeasureLabel" id="DimensionMeasureLabel" style="display: none;" transform="matrix(1,0,0,1,-56.5313,79.5938)"/></g></g></g><g class="Space Entry Lobby" fill="#ffffff" id="fb81b004-252e-494a-9841-a3f204fa5f97" stroke="#ffffff" style="fill-opacity: 1; stroke-opacity: 1; stroke-width: 1;"><polygon points="509.85,858.22 571.92,858.22 571.92,980.06 509.85,980.06 509.85,1222.27 328.13,1222.27 328.13,1095.79 364.65,1095.79 364.65,1087.79 328.13,1087.79 328.13,922.05 388.04,922.05 388.15,914.65 387.11,858.22 509.85,858.00 "/><g class="Dimension" transform="matrix(1,0,0,1,328.1265,858.1087)"><g class="Visual" style="display: none;" transform="matrix(1,0,0,1,0,0)"><g class="DimensionMark" fill="#000000" id="mark1" stroke="none" style="fill-opacity: 1; pointer-events: visible;" transform="matrix(1,0,0,1,121.8957,0)"><polygon points="-5,5,0,0,5,5"/></g><g class="DimensionMark" fill="#000000" id="mark2" stroke="none" style="fill-opacity: 1; pointer-events: visible;" transform="matrix(1,0,0,1,243.791,121.9535)"><polygon points="-5,-5,0,0,-5,5"/></g><g class="DimensionMark" fill="#000000" id="mark3" stroke="none" style="fill-opacity: 1; pointer-events: visible;" transform="matrix(1,0,0,1,121.8957,364.1654)"><polygon points="-5,-5,0,0,5,-5"/></g><g class="DimensionMark" fill="#000000" id="mark4" stroke="none" style="fill-opacity: 1; pointer-events: visible;" transform="matrix(1,0,0,1,0,121.9535)"><polygon points="5,5,0,0,5,-5"/></g></g><g class="SpaceDimensionsLabel" transform="matrix(1,0,0,1,83.5391,179.5053)"><g class="TextLabel NameLabel" id="NameLabel" style="display: none;"/><g class="TextLabel DimensionMeasureLabel" id="DimensionMeasureLabel" style="display: none;" transform="matrix(1,0,0,1,-119.0781,79.5938)"/></g></g></g><g class="Space LivingRoom" fill="#ffffff" id="30ad0506-7cd4-49ef-859c-53f51e06cbae" stroke="#ffffff" style="fill-opacity: 1; stroke-opacity: 1; stroke-width: 1;"><polygon points="509.85,858.00 387.11,858.22 388.15,914.65 388.04,914.05 147.29,914.05 147.29,470.18 509.85,470.18 "/><g class="Dimension" transform="matrix(1,0,0,1,147.2914,470.1766)"><g class="Visual" style="display: none;" transform="matrix(1,0,0,1,0,0)"><g class="DimensionMark" fill="#000000" id="mark1" stroke="none" style="fill-opacity: 1; pointer-events: visible;" transform="matrix(1,0,0,1,181.28,0)"><polygon points="-5,5,0,0,5,5"/></g><g class="DimensionMark" fill="#000000" id="mark2" stroke="none" style="fill-opacity: 1; pointer-events: visible;" transform="matrix(1,0,0,1,362.5599,222.2368)"><polygon points="-5,-5,0,0,-5,5"/></g><g class="DimensionMark" fill="#000000" id="mark3" stroke="none" style="fill-opacity: 1; pointer-events: visible;" transform="matrix(1,0,0,1,181.28,443.8692)"><polygon points="-5,-5,0,0,5,-5"/></g><g class="DimensionMark" fill="#000000" id="mark4" stroke="none" style="fill-opacity: 1; pointer-events: visible;" transform="matrix(1,0,0,1,0,222.2368)"><polygon points="5,5,0,0,5,-5"/></g></g><g class="SpaceDimensionsLabel" transform="matrix(1,0,0,1,159.9448,187.3757)"><g class="TextLabel NameLabel" id="NameLabel" style="display: none;"/><g class="TextLabel DimensionMeasureLabel" id="DimensionMeasureLabel" style="display: none;" transform="matrix(1,0,0,1,-114.625,79.5938)"/></g></g></g><g class="Wall External" fill="#000000" id="Wall" stroke="#000000" style="fill-opacity: 1; stroke-opacity: 1; stroke-width: 1;"><polygon points="147.29,470.18 828.49,470.18 848.49,438.18 128.29,438.18 "/><g class="Door Swing Opposite" fill="#ffffff" id="Door" stroke="#000000" style="fill-opacity: 1; stroke-width: 1; stroke-opacity: 1;"><polygon points="396.45,470.18 479.98,470.18 479.98,438.18 396.45,438.18 "/><g class="Panel Left Negative" fill="none" id="Panel" style=""><g class="PanelArea" fill="none" id="PanelArea" stroke="none" style=""><polygon points="396.45,470.18 479.98,470.18 479.98,438.18 396.45,438.18 "/></g><path d="M396.45,470.18 q0.00,83.53 83.53,83.53 l0.00,-83.53Z"/></g><g class="Panel Right Positive" fill="none" id="Panel" style=""><g class="PanelArea" fill="none" id="PanelArea" stroke="none" style=""><polygon points="396.45,470.18 479.98,470.18 479.98,438.18 396.45,438.18 "/></g><path d="M396.45,438.18 q0.00,-83.53 83.53,-83.53 l0.00,83.53Z"/></g></g><g class="Window Regular" fill="#f0f0ff" id="Window" stroke="#000000" style="fill-opacity: 1; stroke-width: 1; stroke-opacity: 1;"><polygon points="210.06,470.18 391.75,470.18 391.75,438.18 210.06,438.18 "/><g class="Glass" id="Glass"><polygon points="210.06,470.18 391.75,470.18 391.75,438.18 210.06,438.18 "/></g><g class="Panel" id="Panel"><line x1="217.55999755859375" x2="384.25" y1="454.17999267578125" y2="454.17999267578125"/><line x1="217.55999755859375" x2="217.55999755859375" y1="470.17999267578125" y2="438.17999267578125"/><line x1="384.25" x2="384.25" y1="470.17999267578125" y2="438.17999267578125"/></g></g><g class="Window Regular" fill="#f0f0ff" id="Window" stroke="#000000" style="fill-opacity: 1; stroke-width: 1; stroke-opacity: 1;"><polygon points="560.90,470.18 740.50,470.18 740.50,438.18 560.90,438.18 "/><g class="Glass" id="Glass"><polygon points="560.90,470.18 740.50,470.18 740.50,438.18 560.90,438.18 "/></g><g class="Panel" id="Panel"><line x1="568.4000244140625" x2="733" y1="454.17999267578125" y2="454.17999267578125"/><line x1="568.4000244140625" x2="568.4000244140625" y1="470.17999267578125" y2="438.17999267578125"/><line x1="733" x2="733" y1="470.17999267578125" y2="438.17999267578125"/></g></g></g><g class="Wall External" fill="#000000" id="Wall" stroke="#000000" style="fill-opacity: 1; stroke-opacity: 1; stroke-width: 1;"><polygon points="848.49,438.18 848.49,1371.10 828.49,1337.10 828.49,470.18 "/></g><g class="Wall External" fill="#000000" id="Wall" stroke="#000000" style="fill-opacity: 1; stroke-opacity: 1; stroke-width: 1;"><polygon points="848.49,1371.10 128.29,1371.10 147.29,1337.10 828.49,1337.10 "/><g class="Door Swing Beside" fill="#ffffff" id="Door" stroke="#000000" style="fill-opacity: 1; stroke-width: 1; stroke-opacity: 1;"><polygon points="504.33,1371.10 413.52,1371.10 413.52,1337.10 504.33,1337.10 "/><g class="Panel Right Negative" fill="none" id="Panel" style=""><g class="PanelArea" fill="none" id="PanelArea" stroke="none" style=""><polygon points="504.33,1371.10 413.52,1371.10 413.52,1337.10 504.33,1337.10 "/></g><path d="M413.52,1371.10 q0.00,90.81 90.81,90.81 l0.00,-90.81Z"/></g></g><g class="Window Regular" fill="#f0f0ff" id="Window" stroke="#000000" style="fill-opacity: 1; stroke-width: 1; stroke-opacity: 1;"><polygon points="731.59,1371.10 548.27,1371.10 548.27,1337.10 731.59,1337.10 "/><g class="Glass" id="Glass"><polygon points="731.59,1371.10 548.27,1371.10 548.27,1337.10 731.59,1337.10 "/></g><g class="Panel" id="Panel"><line x1="724.0900268554688" x2="555.77001953125" y1="1354.0999755859375" y2="1354.0999755859375"/><line x1="724.0900268554688" x2="724.0900268554688" y1="1371.0999755859375" y2="1337.0999755859375"/><line x1="555.77001953125" x2="555.77001953125" y1="1371.0999755859375" y2="1337.0999755859375"/></g></g><g class="Window Regular" fill="#f0f0ff" id="Window" stroke="#000000" style="fill-opacity: 1; stroke-width: 1; stroke-opacity: 1;"><polygon points="317.12,1371.10 224.92,1371.10 224.92,1337.10 317.12,1337.10 "/><g class="Glass" id="Glass"><polygon points="317.12,1371.10 224.92,1371.10 224.92,1337.10 317.12,1337.10 "/></g><g class="Panel" id="Panel"><line x1="309.6199951171875" x2="232.4199981689453" y1="1354.0999755859375" y2="1354.0999755859375"/><line x1="309.6199951171875" x2="309.6199951171875" y1="1371.0999755859375" y2="1337.0999755859375"/><line x1="232.4199981689453" x2="232.4199981689453" y1="1371.0999755859375" y2="1337.0999755859375"/></g></g></g><g class="Wall" fill="#000000" id="Wall" stroke="#000000" style="fill-opacity: 1; stroke-opacity: 1; stroke-width: 1;"><polygon points="526.85,1371.10 526.85,987.83 509.85,980.06 509.85,1371.10 "/><g class="Door Slide Beside" fill="#ffffff" id="Door" stroke="#000000" style="fill-opacity: 1; stroke-width: 1; stroke-opacity: 1;"><polygon points="526.85,1140.17 526.85,1050.06 509.85,1050.06 509.85,1140.17 "/><g class="Panel Left Negative" id="Panel"><g class="PanelArea" fill="none" id="PanelArea" stroke="none" style=""><polygon points="526.85,1140.17 526.85,1050.06 509.85,1050.06 509.85,1140.17 "/></g><path d="M530.85,1185.23 L534.85,1185.23 L534.85,1095.12 L530.85,1095.12  Z"/></g></g></g><g class="Wall" fill="#000000" id="Wall" stroke="#000000" style="fill-opacity: 1; stroke-opacity: 1; stroke-width: 1;"><polygon points="509.85,980.06 848.49,980.06 848.49,987.83 526.85,987.83 "/></g><g class="Wall" fill="#000000" id="Wall" stroke="#000000" style="fill-opacity: 1; stroke-opacity: 1; stroke-width: 1;"><polygon points="509.85,858.22 509.85,438.18 526.85,438.18 526.85,848.22 "/><g class="Door Swing Beside" fill="#ffffff" id="Door" stroke="#000000" style="fill-opacity: 1; stroke-width: 1; stroke-opacity: 1;"><polygon points="509.85,842.48 509.85,758.72 526.85,758.72 526.85,842.48 "/><g class="Panel Left Positive" fill="none" id="Panel" style=""><g class="PanelArea" fill="none" id="PanelArea" stroke="none" style=""><polygon points="509.85,842.48 509.85,758.72 526.85,758.72 526.85,842.48 "/></g><path d="M526.85,758.72 q83.76,0.00 83.76,83.76 l-83.76,0.00Z"/></g></g></g><g class="Wall" fill="#000000" id="Wall" stroke="#000000" style="fill-opacity: 1; stroke-opacity: 1; stroke-width: 1;"><polygon points="509.85,858.22 848.49,858.22 848.49,848.22 526.85,848.22 "/><g class="Door Swing Beside" fill="#ffffff" id="Door" stroke="#000000" style="fill-opacity: 1; stroke-width: 1; stroke-opacity: 1;"><polygon points="650.35,858.22 710.17,858.22 710.17,848.22 650.35,848.22 "/><g class="Panel Right Positive" fill="none" id="Panel" style=""><g class="PanelArea" fill="none" id="PanelArea" stroke="none" style=""><polygon points="650.35,858.22 710.17,858.22 710.17,848.22 650.35,848.22 "/></g><path d="M650.35,848.22 q0.00,-59.82 59.82,-59.82 l0.00,59.82Z"/></g></g></g><g class="Wall" fill="#000000" id="Wall" stroke="#000000" style="fill-opacity: 1; stroke-opacity: 1; stroke-width: 1;"><polygon points="581.92,848.22 581.92,987.83 571.92,987.83 571.92,848.22 "/></g><g class="Wall" fill="#000000" id="Wall" stroke="#000000" style="fill-opacity: 1; stroke-opacity: 1; stroke-width: 1;"><polygon points="320.13,1222.27 526.85,1222.27 526.85,1230.27 320.13,1230.27 "/><g class="Door Swing Beside" fill="#ffffff" id="Door" stroke="#000000" style="fill-opacity: 1; stroke-width: 1; stroke-opacity: 1;"><polygon points="412.83,1222.27 502.37,1222.27 502.37,1230.27 412.83,1230.27 "/><g class="Panel Right Positive" fill="none" id="Panel" style=""><g class="PanelArea" fill="none" id="PanelArea" stroke="none" style=""><polygon points="412.83,1222.27 502.37,1222.27 502.37,1230.27 412.83,1230.27 "/></g><path d="M412.83,1230.27 q0.00,89.54 89.54,89.54 l0.00,-89.54Z"/></g></g></g><g class="Wall" fill="#000000" id="Wall" stroke="#000000" style="fill-opacity: 1; stroke-opacity: 1; stroke-width: 1;"><polygon points="128.29,1083.79 316.17,1083.79 328.13,1095.79 147.29,1095.79 "/><g class="Door Swing Beside" fill="#ffffff" id="Door" stroke="#000000" style="fill-opacity: 1; stroke-width: 1; stroke-opacity: 1;"><polygon points="248.92,1083.79 310.27,1083.79 310.27,1095.79 248.92,1095.79 "/><g class="Panel Right Positive" fill="none" id="Panel" style=""><g class="PanelArea" fill="none" id="PanelArea" stroke="none" style=""><polygon points="248.92,1083.79 310.27,1083.79 310.27,1095.79 248.92,1095.79 "/></g><path d="M248.92,1095.79 q0.00,61.35 61.35,61.35 l0.00,-61.35Z"/></g></g></g><g class="Wall" fill="#000000" id="Wall" stroke="#000000" style="fill-opacity: 1; stroke-opacity: 1; stroke-width: 1;"><polygon points="320.13,1095.79 364.65,1095.79 364.65,1087.79 320.13,1087.79 "/></g><g class="Wall External" fill="#000000" id="Wall" stroke="#000000" style="fill-opacity: 1; stroke-opacity: 1; stroke-width: 1;"><polygon points="147.29,914.05 147.29,470.18 128.29,438.18 128.29,914.05 "/></g><g class="Wall External" fill="#000000" id="Wall" stroke="#000000" style="fill-opacity: 1; stroke-opacity: 1; stroke-width: 1;"><polygon points="147.29,1337.10 147.29,1083.79 128.29,1083.79 128.29,1371.10 "/></g><g class="Wall External" fill="#000000" id="Wall" stroke="#000000" style="fill-opacity: 1; stroke-opacity: 1; stroke-width: 1;"><polygon points="154.77,1083.79 154.77,914.05 128.29,914.05 128.29,1083.79 "/></g><g class="Wall" fill="#000000" id="Wall" stroke="#000000" style="fill-opacity: 1; stroke-opacity: 1; stroke-width: 1;"><polygon points="147.29,914.05 328.13,914.05 328.13,927.33 147.29,927.33 "/></g><g class="Wall" fill="#000000" id="Wall" stroke="#000000" style="fill-opacity: 1; stroke-opacity: 1; stroke-width: 1;"><polygon points="328.13,914.05 388.04,914.05 388.04,922.05 328.13,922.05 "/></g><g class="Wall" fill="#000000" id="Wall" stroke="#000000" style="fill-opacity: 1; stroke-opacity: 1; stroke-width: 1;"><polygon points="328.13,922.05 328.13,1095.79 316.17,1083.79 316.17,922.05 "/></g><g class="Wall" fill="#000000" id="Wall" stroke="#000000" style="fill-opacity: 1; stroke-opacity: 1; stroke-width: 1;"><polygon points="328.13,1083.79 328.13,1371.10 320.13,1371.10 320.13,1083.79 "/><g class="Door Swing Beside" fill="#ffffff" id="Door" stroke="#000000" style="fill-opacity: 1; stroke-width: 1; stroke-opacity: 1;"><polygon points="328.13,1101.25 328.13,1173.59 320.13,1173.59 320.13,1101.25 "/><g class="Panel Left Negative" fill="none" id="Panel" style=""><g class="PanelArea" fill="none" id="PanelArea" stroke="none" style=""><polygon points="328.13,1101.25 328.13,1173.59 320.13,1173.59 320.13,1101.25 "/></g><path d="M328.13,1101.25 q72.34,0.00 72.34,72.34 l-72.34,0.00Z"/></g></g></g><g class="Railing" fill="#ffffff" id="Railing" stroke="#000000" style="fill-opacity: 1; stroke-opacity: 1; stroke-width: 1;"><polygon points="147.29,438.18 147.29,253.78 131.29,253.78 131.29,438.18 "/></g><g class="Column Rectangle" fill="#000000" id="Column" stroke="none" style="fill-opacity: 1;"><polygon points="147.29,1337.10 147.29,1271.44 178.85,1271.44 178.85,1337.10 "/></g><g class="Column Rectangle" fill="#000000" id="Column" stroke="none" style="fill-opacity: 1;"><polygon points="178.85,1337.10 178.85,1331.88 233.63,1331.88 233.63,1337.10 "/></g><g class="Column Rectangle" fill="#000000" id="Column" stroke="none" style="fill-opacity: 1;"><polygon points="828.45,980.01 768.46,980.01 768.46,957.67 828.45,957.67 "/></g><g class="Column Rectangle" fill="#000000" id="Column" stroke="none" style="fill-opacity: 1;"><polygon points="147.29,293.81 131.29,293.81 131.29,309.78 147.29,309.78 "/></g><g class="Column Rectangle" fill="#000000" id="Column" stroke="none" style="fill-opacity: 1;"><polygon points="515.60,292.90 499.60,292.90 499.60,308.87 515.60,308.87 "/></g><g class="FixedFurnitureSet" id="FixedFurnitureSet" transform="matrix(0,-1,1,0,147.2915,1255.9623)"><g class="FixedFurniture BaseCabinet" fill="#ffffff" stroke="#000000" style="fill-opacity: 1; stroke-opacity: 1;" transform="matrix(1,0,0,1,0,0)">
<g class="BoundaryPolygon">
<polygon points="0.00,0.00 58.46,0.00 58.46,44.95 0.00,44.95 "/>
</g>
<g class="Direction" fill-opacity="0.9" style="display: none;">
<polygon fill="#444444" points="31.19,41.35 31.19,30.74 28.18,30.74 28.18,41.35 24.38,41.35 29.68,46.16 34.98,41.35 31.19,41.35 "/>
</g>
<g class="Name" fill-opacity="0.9" style="display: none;">

</g>
<desc>Width:60 Height:5 Depth:60 Elevation:105</desc>
</g><g class="FixedFurniture Sink" fill="#ffffff" stroke="#000000" style="fill-opacity: 1; stroke-opacity: 1;" transform="matrix(1,0,0,1,0,0)">
<g class="BoundaryPolygon" fill="none" stroke="none">
<polygon points="0.00,0.00 58.46,0.00 58.46,44.95 0.00,44.95 "/>
</g>
<g class="InnerPolygon">
<polygon points="4.87,9.70 53.59,9.70 53.59,40.98 4.87,40.98 "/>
</g>
<g class="OuterDrain" stroke-width="0.8">
<circle cx="29.232114060787772" cy="24.12406894715467" r="3.5"/>
</g>
<g class="InnerDrain" stroke-width="0.8">
<circle cx="29.232114060787772" cy="24.12406894715467" r="2"/>
</g>
<g class="Faucet">
<polygon points="26.31,3.75 32.31,3.75 32.31,17.75 26.31,17.75 "/>
</g>
<g class="Direction" fill-opacity="0.9" style="display: none;">
<polygon fill="#444444" points="31.19,41.35 31.19,30.74 28.18,30.74 28.18,41.35 24.38,41.35 29.68,46.16 34.98,41.35 31.19,41.35 "/>
</g>
<g class="Name" fill-opacity="0.9" style="display: none;">

</g>
<desc>Width:60 Height:90 Depth:60 Elevation:0</desc>
</g></g><g class="FixedFurnitureSet" id="FixedFurnitureSet" transform="matrix(0,1,-1,0,571.7768,858.6338)"><g class="FixedFurniture Closet" fill="#ffffff" stroke="#000000" style="fill-opacity: 1; stroke-opacity: 1;" transform="matrix(1,0,0,1,0,0)">
<g class="BoundaryPolygon">
<polygon points="0.00,0.00 60.71,0.00 60.71,60.71 0.00,60.71 "/>
</g>
<g class="Direction" fill-opacity="0.9" style="display: none;">
<polygon fill="#444444" points="31.88,55.35 31.88,44.73 28.88,44.73 28.88,55.35 25.07,55.35 30.38,60.65 35.68,55.35 31.88,55.35 "/>
</g>
<g class="Name" fill-opacity="0.9" style="display: none;">

</g>
<desc>Width:60 Height:200 Depth:60 Elevation:0</desc>
</g><g class="FixedFurniture Closet" fill="#ffffff" stroke="#000000" style="fill-opacity: 1; stroke-opacity: 1;" transform="matrix(1,0,0,1,60.7142,0)">
<g class="BoundaryPolygon">
<polygon points="0.00,0.00 60.71,0.00 60.71,60.71 0.00,60.71 "/>
</g>
<g class="Direction" fill-opacity="0.9" style="display: none;">
<polygon fill="#444444" points="31.88,55.35 31.88,44.73 28.88,44.73 28.88,55.35 25.07,55.35 30.38,60.65 35.68,55.35 31.88,55.35 "/>
</g>
<g class="Name" fill-opacity="0.9" style="display: none;">

</g>
<desc>Width:60 Height:200 Depth:60 Elevation:0</desc>
</g></g><g class="FixedFurniture Closet" fill="#ffffff" stroke="#000000" style="fill-opacity: 1; stroke-opacity: 1;" transform="matrix(0,-1,1,0,328.1265,973.9457)">
<g class="BoundaryPolygon">
<polygon points="0.00,0.00 51.90,0.00 51.90,58.89 0.00,58.89 "/>
</g>
<g class="Direction" fill-opacity="0.9" style="display: none;">
<polygon fill="#444444" points="27.25,53.68 27.25,43.07 24.24,43.07 24.24,53.68 20.44,53.68 25.74,58.98 31.05,53.68 27.25,53.68 "/>
</g>
<g class="Name" fill-opacity="0.9" style="display: none;">

</g>
<desc>Width:60 Height:200 Depth:60 Elevation:0</desc>
</g><g class="FixedFurniture CoatCloset" fill="#ffffff" stroke="#000000" style="fill-opacity: 1; stroke-opacity: 1;" transform="matrix(0,-1,1,0,328.1265,1087.5265)">
<g class="BoundaryPolygon">
<polygon points="0.00,0.00 113.58,0.00 113.58,31.81 0.00,31.81 "/>
</g>

<g class="Direction" fill-opacity="0.9" style="display: none;">
<polygon fill="#444444" points="58.22,28.90 58.22,18.29 55.21,18.29 55.21,28.90 51.41,28.90 56.71,34.21 62.01,28.90 58.22,28.90 "/>
</g>
<g class="Name" fill-opacity="0.9" style="display: none;">

</g>
<desc>Width:120 Height:200 Depth:60 Elevation:0</desc>
</g><g class="FixedFurniture SaunaBenchHigh" fill="#ffffff" stroke="#000000" style="fill-opacity: 1; stroke-opacity: 1;" transform="matrix(1,0,0,1,154.7731,927.327)">
<g class="BoundaryPolygon">
<polygon points="0.00,0.00 161.48,0.00 161.48,53.16 0.00,53.16 "/>
</g>

<g class="Direction" fill-opacity="0.9" style="display: none;">
<polygon fill="#444444" points="83.28,48.42 83.28,37.81 80.27,37.81 80.27,48.42 76.46,48.42 81.77,53.73 87.07,48.42 83.28,48.42 "/>
</g>
<g class="Name" fill-opacity="0.9" style="display: none;">

</g>
<desc>Width:185 Height:5 Depth:60 Elevation:105</desc>
</g><g class="FixedFurniture SaunaBenchMid" fill="#ffffff" stroke="#000000" style="fill-opacity: 1; stroke-opacity: 1;" transform="matrix(1,0,0,1,154.9956,980.4863)">
<g class="BoundaryPolygon">
<polygon points="0.00,0.00 161.17,0.00 161.17,40.00 0.00,40.00 "/>
</g>

<g class="Direction" fill-opacity="0.9" style="display: none;">
<polygon fill="#444444" points="81.90,34.66 81.90,24.04 78.89,24.04 78.89,34.66 75.09,34.66 80.39,39.96 85.69,34.66 81.90,34.66 "/>
</g>
<g class="Name" fill-opacity="0.9" style="display: none;">

</g>
<desc>Width:185 Height:5 Depth:40 Elevation:60</desc>
</g><g class="FixedFurniture SaunaBenchLow" fill="#ffffff" stroke="#000000" style="fill-opacity: 1; stroke-opacity: 1;" transform="matrix(1,0,0,1,243.4956,1020.6112)">
<g class="BoundaryPolygon">
<polygon points="0.00,0.00 72.67,0.00 72.67,40.00 0.00,40.00 "/>
</g>

<g class="Direction" fill-opacity="0.9" style="display: none;">
<polygon fill="#444444" points="37.58,34.66 37.58,24.04 34.57,24.04 34.57,34.66 30.77,34.66 36.07,39.96 41.37,34.66 37.58,34.66 "/>
</g>
<g class="Name" fill-opacity="0.9" style="display: none;">

</g>
<desc>Width:91 Height:5 Depth:40 Elevation:30</desc>
</g><g class="FixedFurniture ElectricalAppliance SaunaStove" fill="#ffffff" stroke="#000000" style="fill-opacity: 1; stroke-opacity: 1;" transform="matrix(-0.8421,0,0,-0.9651,221.9282,1078.0097)">
<g class="BoundaryPolygon">
<polygon points="0,0 60,0 60,35 0,35"/>
</g>
<g class="electricitySign" fill="none">
<polyline points="0 35 39.7 17.5 21.4 17.5 60 0"/>
</g>
<g class="Direction" fill-opacity="0.9" style="display: none;">
<polygon fill="#444444" points="31.509 29.697 31.509 19.081 28.5 19.081 28.5 29.697 24.697 29.697 30 35 35.303 29.697 31.509 29.697"/>
</g>
<g class="Name" fill-opacity="0.9" style="display: none;">

</g>
<desc>Width:60 Height:60 Depth:35 Elevation:20</desc>
</g><g class="FixedFurniture Shower" fill="#ffffff" stroke="#000000" style="fill-opacity: 1; stroke-opacity: 1;" transform="matrix(1,0,0,1,173.0734,1095.7883)">
<g class="BoundaryPolygon" fill="none" stroke="none">
<polygon points="0,0 32,0 32,19 0,19"/>
</g>
<g class="InnerPolygon">
<rect height="6.1" width="11.2" x="3.7" y="0.5"/>
<rect height="6.1" width="11.2" x="17.6" y="0.5"/>
<rect height="6.1" width="3.4" x="28.7" y="0.5"/>
<rect height="6.1" width="3.2" x="0.5" y="0.5"/>
<path d="M14.9,8.5c0,1.5-0.4,3.3-1.6,5    c-0.4,0.6-1,1.1-1.1,1.7c-0.2,1.1,0.3,2.8,2.5,3.2c0.5,0.1,1.3,0.1,1.6,0.1h-0.1c0.3,0,1.1,0,1.6-0.1c2.2-0.4,2.7-2.1,2.5-3.2    c-0.1-0.6-0.7-1.1-1.1-1.7c-1.2-1.7-1.6-3.5-1.6-5"/>
<path d="M12.2,15.3c0.1,0.2,1.6,1.9,4.2,1.9 c2.4-0.1,3.7-1.7,3.9-1.9"/>
<path d="M14.9,0.5h2.7v8c-0.9,0-1.8,0-2.7,0l0,0 C14.9,5.9,14.9,3.2,14.9,0.5z"/>
</g>
<g class="Indicator">
<path d="M3.7,3.6C5,3.1,5.2,3,5.2,3 c0,1.1,0,0,0,1.1C5.2,4.1,5.1,4.1,3.7,3.6"/>
<path d="M28.7,3.6 C27.4,3.1,27.2,3,27.2,3c0,1.1,0,0,0,1.1C27.2,4.1,27.3,4.1,28.7,3.6"/>
</g>
<desc>Width:32 Height:97 Depth:19 Elevation:135</desc>
</g><g class="FixedFurniture Misc" fill="none" stroke="#000000" style="fill-opacity: 1; stroke-opacity: 1; stroke-width: 1.8; stroke-dasharray: 5, 5;" transform="matrix(1,0,0,1,147.2914,1192.5841)"><desc>Width:120 Height:200 Depth:60 Elevation:0</desc><g class="BoundaryPolygon"><path d="M0.00,0.00 L91.50,0.00 L91.50,-96.76 "/></g></g><g class="FixedFurniture Toilet" fill="#ffffff" stroke="#000000" style="fill-opacity: 1; stroke-opacity: 1;" transform="matrix(-1,0,0,-1,301.4252,1329.0343)">
<g class="BoundaryPolygon" fill="none" stroke="none">
<polygon points="0,0 41,0 41,71 0,71"/>
</g>
<g class="InnerPolygon">
<rect height="17.98" width="39.989" x="0.502" y="0.5"/>
<path d="M40.491,44.237S41.619,70.5,20.907,70.5C-.523,70.5.6,44.237.6,44.237L.5,18.48H40.491Z"/>
<rect height="3.03" width="6.357" x="17.318" y="7.975"/>
</g>
<desc>Width:41 Height:85 Depth:71 Elevation:0</desc>
</g><g class="FixedFurniture ElectricalAppliance SpaceForAppliance2" fill="#ffffff" stroke="#000000" style="fill-opacity: 1; stroke-opacity: 1;" transform="matrix(-0.913,0,0,-1.005,233.633,1331.8767)">
<g class="BoundaryPolygon">
<polygon points="0,0 60,0 60,60 0,60"/>
</g>
<g class="electricitySign" fill="none">
<path d="M0,0,30.1,39.8V19.4L59.9,60"/>
</g>
<g class="Direction" fill-opacity="0.9" style="display: none;">
<polygon fill="#444444" points="32.009 55.197 32.009 44.581 29 44.581 29 55.197 25.197 55.197 30.5 60 35.803 55.197 32.009 55.197"/>
</g>
<g class="Name" fill-opacity="0.9" style="display: none;">

</g>
<desc>Width:60 Height:90 Depth:60 Elevation:0</desc>
</g><g class="FixedFurniture CoatCloset" fill="#ffffff" stroke="#000000" style="fill-opacity: 1; stroke-opacity: 1;" transform="matrix(0,-1,1,0,582.0581,980.013)">
<g class="BoundaryPolygon">
<polygon points="0.00,0.00 121.79,0.00 121.79,61.07 0.00,61.07 "/>
</g>

<g class="Direction" fill-opacity="0.9" style="display: none;">
<polygon fill="#444444" points="62.42,55.49 62.42,44.87 59.42,44.87 59.42,55.49 55.61,55.49 60.92,60.79 66.22,55.49 62.42,55.49 "/>
</g>
<g class="Name" fill-opacity="0.9" style="display: none;">

</g>
<desc>Width:120 Height:200 Depth:60 Elevation:0</desc>
</g><g class="FixedFurniture CoatCloset" fill="#ffffff" stroke="#000000" style="fill-opacity: 1; stroke-opacity: 1;" transform="matrix(0,-1,1,0,768.8456,957.67)">
<g class="BoundaryPolygon">
<polygon points="0.00,0.00 99.65,0.00 99.65,59.64 0.00,59.64 "/>
</g>

<g class="Direction" fill-opacity="0.9" style="display: none;">
<polygon fill="#444444" points="51.07,54.20 51.07,43.58 48.07,43.58 48.07,54.20 44.26,54.20 49.57,59.50 54.87,54.20 51.07,54.20 "/>
</g>
<g class="Name" fill-opacity="0.9" style="display: none;">

</g>
<desc>Width:120 Height:200 Depth:60 Elevation:0</desc>
</g><g class="FixedFurniture Closet" fill="#ffffff" stroke="#000000" style="fill-opacity: 1; stroke-opacity: 1;" transform="matrix(-1,0,0,-1,768.8456,979.9216)">
<g class="BoundaryPolygon">
<polygon points="0.00,0.00 122.49,0.00 122.49,37.91 0.00,37.91 "/>
</g>
<g class="Direction" fill-opacity="0.9" style="display: none;">
<polygon fill="#444444" points="64.32,34.56 64.32,23.95 61.32,23.95 61.32,34.56 57.51,34.56 62.82,39.87 68.12,34.56 64.32,34.56 "/>
</g>
<g class="Name" fill-opacity="0.9" style="display: none;">

</g>
<desc>Width:60 Height:200 Depth:60 Elevation:0</desc>
</g><g class="FixedFurniture Housing" fill="#ffffff" stroke="#000000" style="fill-opacity: 1; stroke-opacity: 1;" transform="matrix(0.932,0,0,0.9079,526.8513,987.8685)">
<g class="BoundaryPolygon">
<polygon points="0,0 10,0 10,60 0,60"/>
</g>
<g class="Name" fill-opacity="0.9" style="display: none;">

</g>
<desc>Width:60 Height:200 Depth:60 Elevation:0</desc>
</g><g class="FixedFurniture Closet" fill="#ffffff" stroke="#000000" style="fill-opacity: 1; stroke-opacity: 1;" transform="matrix(1,0,0,1,536.1713,987.8884)">
<g class="BoundaryPolygon">
<polygon points="0.00,0.00 44.01,0.00 44.01,60.00 0.00,60.00 "/>
</g>
<g class="Direction" fill-opacity="0.9" style="display: none;">
<polygon fill="#444444" points="23.11,54.70 23.11,44.08 20.10,44.08 20.10,54.70 16.30,54.70 21.60,60.00 26.91,54.70 23.11,54.70 "/>
</g>
<g class="Name" fill-opacity="0.9" style="display: none;">

</g>
<desc>Width:60 Height:200 Depth:60 Elevation:0</desc>
</g><g class="FixedFurniture Housing" fill="#ffffff" stroke="#000000" style="fill-opacity: 1; stroke-opacity: 1;" transform="matrix(0,1,-0.9338,0,828.1799,1326.6002)">
<g class="BoundaryPolygon">
<polygon points="0,0 10,0 10,60 0,60"/>
</g>
<g class="Name" fill-opacity="0.9" style="display: none;">

</g>
<desc>Width:60 Height:200 Depth:60 Elevation:0</desc>
</g><g class="FixedFurniture Closet" fill="#ffffff" stroke="#000000" style="fill-opacity: 1; stroke-opacity: 1;" transform="matrix(0,1,-1,0,828.4856,1266.6002)">
<g class="BoundaryPolygon">
<polygon points="0,0 60,0 60,60 0,60"/>
</g>
<g class="Direction" fill-opacity="0.9" style="display: none;">
<polygon fill="#444444" points="31.509 54.697 31.509 44.081 28.5 44.081 28.5 54.697 24.697 54.697 30 60 35.303 54.697 31.509 54.697"/>
</g>
<g class="Name" fill-opacity="0.9" style="display: none;">

</g>
<desc>Width:60 Height:200 Depth:60 Elevation:0</desc>
</g><g class="FixedFurniture ElectricalAppliance Refrigerator" fill="#ffffff" stroke="#000000" style="fill-opacity: 1; stroke-opacity: 1;" transform="matrix(0,1,-1,0,828.4856,1206.6002)">
<g class="BoundaryPolygon">
<polygon points="0,0 60,0 60,60 0,60"/>
</g>
<g class="electricitySign" fill="none">
<path d="M0,0,30,37.1v-18L60,56.3"/>
</g>
<g class="Doors">
<rect height="4" width="60" y="56"/>
</g>
<g class="Direction" fill-opacity="0.9" style="display: none;">
<polygon fill="#444444" points="32.009 55.197 32.009 44.581 29 44.581 29 55.197 25.197 55.197 30.5 60 35.803 55.197 32.009 55.197"/>
</g>
<g class="Name" fill-opacity="0.9" style="display: none;">

</g>
<desc>Width:60 Height:170 Depth:60 Elevation:0</desc>
</g><g class="FixedFurniture BaseCabinet" fill="#ffffff" stroke="#000000" style="fill-opacity: 1; stroke-opacity: 1;" transform="matrix(1,0,0,1,768.4856,1206.6002)"><desc>Width:60 Height:90 Depth:60 Elevation:0</desc><g class="BoundaryPolygon"><polygon points="0.00,0.00 0.00,-158.65 -188.30,-158.65 -188.30,-218.71 60.00,-218.71 60.00,0.00 0.00,0.00 "/></g></g><g class="FixedFurniture ElectricalAppliance SpaceForAppliance2" fill="#ffffff" stroke="#000000" style="fill-opacity: 1; stroke-opacity: 1;" transform="matrix(0.9465,0,0,1,584.1945,987.8416)">
<g class="BoundaryPolygon">
<polygon points="0,0 60,0 60,60 0,60"/>
</g>
<g class="electricitySign" fill="none">
<path d="M0,0,30.1,39.8V19.4L59.9,60"/>
</g>
<g class="Direction" fill-opacity="0.9" style="display: none;">
<polygon fill="#444444" points="32.009 55.197 32.009 44.581 29 44.581 29 55.197 25.197 55.197 30.5 60 35.803 55.197 32.009 55.197"/>
</g>
<g class="Name" fill-opacity="0.9" style="display: none;">

</g>
<desc>Width:60 Height:90 Depth:60 Elevation:0</desc>
</g><g class="FixedFurniture DoubleSink" fill="#ffffff" stroke="#000000" style="fill-opacity: 1; stroke-opacity: 1;" transform="matrix(1,0,0,1,646.0891,991.2766)">
<g class="BoundaryPolygon" fill="none" stroke="none">
<polygon points="0.00,0.00 80.82,0.00 80.82,58.40 0.00,58.40 "/>
</g>
<g class="InnerPolygonLeft">
<polygon points="5.77,9.90 38.68,9.90 38.68,53.43 5.77,53.43 "/>
</g>
<g class="InnerPolygonRight">
<polygon points="42.14,10.00 75.05,10.00 75.05,53.53 42.14,53.53 "/>
</g>
<g class="OuterDrain" stroke-width="0.8">
<circle cx="22.746240310955905" cy="31.631617166314413" r="3.5"/>
<circle cx="57.96250069086228" cy="31.631617166314413" r="3.5"/>
</g>
<g class="InnerDrain" stroke-width="0.8">
<circle cx="22.746240310955905" cy="31.631617166314413" r="2"/>
<circle cx="57.96250069086228" cy="31.631617166314413" r="2"/>
</g>
<g class="Faucet">
<polygon points="36.95,4.77 42.95,4.77 42.95,18.77 36.95,18.77 "/>
</g>
<g class="Direction" fill-opacity="0.9" style="display: none;">
<polygon fill="#444444" points="42.15,53.24 42.15,42.62 39.15,42.62 39.15,53.24 35.34,53.24 40.65,58.54 45.95,53.24 42.15,53.24 "/>
</g>
<g class="Name" fill-opacity="0.9" style="display: none;">

</g>
<desc>Width:70 Height:90 Depth:60 Elevation:0</desc>
</g><g class="FixedFurniture ElectricalAppliance IntegratedStove" fill="#ffffff" stroke="#000000" style="fill-opacity: 1; stroke-opacity: 1;" transform="matrix(0,1,-1,0,828.4856,1048.0512)">
<g class="BoundaryPolygon" fill="none" stroke="none">
<polygon points="0.00,0.00 54.39,0.00 54.39,60.00 0.00,60.00 "/>
</g>
<g class="InnerPolygon">
<polygon points="2.00,2.00 52.58,2.00 52.58,58.00 2.00,58.00 "/>
</g>
<g class="OuterCircle">
<circle cx="14.503686663381233" cy="16" r="8"/>
<circle cx="39.8851383242984" cy="16" r="8"/>
<circle cx="14.503686663381233" cy="44" r="8"/>
<circle cx="39.8851383242984" cy="44" r="8"/>
</g>
<g class="Direction" fill-opacity="0.9" style="display: none;">
<polygon fill="#444444" points="29.02,55.20 29.02,44.58 26.01,44.58 26.01,55.20 22.20,55.20 27.51,60.00 32.81,55.20 29.02,55.20 "/>
</g>
<g class="Name" fill-opacity="0.9" style="display: none;">

</g>
<desc>Width:60 Height:90 Depth:30 Elevation:0</desc>
</g></g></g></g></svg>