<?xml version="1.0" encoding="utf-8"?>
<svg height="972.9400329589844" id="temp" version="1.1" viewBox="0 0 1674.657699584961 972.9400329589844" width="1674.657699584961" xmlns="http://www.w3.org/2000/svg" xmlns:xlink="http://www.w3.org/1999/xlink"><defs/><g class="Model v1-1" id="Model"><g class="Floor"><g class="Floorplan Floor-1" id="Floor-1"><g class="Space Outdoor" fill="#ffffff" id="569c1b61-450b-4e42-9d73-5cca092571c7" stroke="#000000" style="fill-opacity: 1; stroke-opacity: 1; stroke-width: 1;"><polygon points="640.15,783.10 741.59,783.10 741.59,894.77 640.15,894.77 640.15,783.10 640.15,783.10 "/><g class="Dimension" transform="matrix(1,0,0,1,640.154,783.0989)"><g class="Visual" style="display: none;" transform="matrix(1,0,0,1,0,0)"><g class="DimensionMark" fill="#000000" id="mark1" stroke="none" style="fill-opacity: 1; pointer-events: visible;" transform="matrix(1,0,0,1,50.716,0)"><polygon points="-5,5,0,0,5,5"/></g><g class="DimensionMark" fill="#000000" id="mark2" stroke="none" style="fill-opacity: 1; pointer-events: visible;" transform="matrix(1,0,0,1,101.432,55.8334)"><polygon points="-5,-5,0,0,-5,5"/></g><g class="DimensionMark" fill="#000000" id="mark3" stroke="none" style="fill-opacity: 1; pointer-events: visible;" transform="matrix(1,0,0,1,50.716,111.6667)"><polygon points="-5,-5,0,0,5,-5"/></g><g class="DimensionMark" fill="#000000" id="mark4" stroke="none" style="fill-opacity: 1; pointer-events: visible;" transform="matrix(1,0,0,1,0,55.8334)"><polygon points="5,5,0,0,5,-5"/></g></g><g class="SpaceDimensionsLabel" transform="matrix(1,0,0,1,50.716,50.7159)"><g class="TextLabel NameLabel" id="NameLabel" style="display: block;"/><g class="TextLabel DimensionMeasureLabel" id="DimensionMeasureLabel" style="display: none;" transform="matrix(1,0,0,1,-56.7422,80.0625)"/></g></g></g><g class="Space Outdoor" fill="#ffffff" id="bb097fe0-e3c6-40cf-83cd-c02a4e934d50" stroke="#000000" style="fill-opacity: 1; stroke-opacity: 1; stroke-width: 1;"><polygon points="1386.56,196.03 1629.76,196.03 1629.76,743.10 1386.56,743.10 1386.56,196.03 1386.56,196.03 "/><g class="Dimension" transform="matrix(1,0,0,1,1386.5559,196.0324)"><g class="Visual" style="display: none;" transform="matrix(1,0,0,1,0,0)"><g class="DimensionMark" fill="#000000" id="mark1" stroke="none" style="fill-opacity: 1; pointer-events: visible;" transform="matrix(1,0,0,1,121.6019,0)"><polygon points="-5,5,0,0,5,5"/></g><g class="DimensionMark" fill="#000000" id="mark2" stroke="none" style="fill-opacity: 1; pointer-events: visible;" transform="matrix(1,0,0,1,243.2037,273.5333)"><polygon points="-5,-5,0,0,-5,5"/></g><g class="DimensionMark" fill="#000000" id="mark3" stroke="none" style="fill-opacity: 1; pointer-events: visible;" transform="matrix(1,0,0,1,121.6019,547.0666)"><polygon points="-5,-5,0,0,5,-5"/></g><g class="DimensionMark" fill="#000000" id="mark4" stroke="none" style="fill-opacity: 1; pointer-events: visible;" transform="matrix(1,0,0,1,0,273.5333)"><polygon points="5,5,0,0,5,-5"/></g></g><g class="SpaceDimensionsLabel" transform="matrix(1,0,0,1,121.6018,273.5333)"><g class="TextLabel NameLabel" id="NameLabel" style="display: block;"/><g class="TextLabel DimensionMeasureLabel" id="DimensionMeasureLabel" style="display: none;" transform="matrix(1,0,0,1,-56.4844,79.75)"/></g></g></g><g class="Space Kitchen Kitchenette" fill="#ffffff" id="1717db77-9ab7-407c-a36e-f202fe074371" stroke="#ffffff" style="fill-opacity: 1; stroke-opacity: 1; stroke-width: 1;"><polygon points="1088.37,743.10 822.97,743.10 822.97,421.83 1088.37,421.83 "/><g class="Dimension" transform="matrix(1,0,0,1,822.9693,421.8325)"><g class="Visual" style="display: none;" transform="matrix(1,0,0,1,0,0)"><g class="DimensionMark" fill="#000000" id="mark1" stroke="none" style="fill-opacity: 1; pointer-events: visible;" transform="matrix(1,0,0,1,132.6988,0)"><polygon points="-5,5,0,0,5,5"/></g><g class="DimensionMark" fill="#000000" id="mark2" stroke="none" style="fill-opacity: 1; pointer-events: visible;" transform="matrix(1,0,0,1,265.3976,160.6332)"><polygon points="-5,-5,0,0,-5,5"/></g><g class="DimensionMark" fill="#000000" id="mark3" stroke="none" style="fill-opacity: 1; pointer-events: visible;" transform="matrix(1,0,0,1,132.6988,321.2664)"><polygon points="-5,-5,0,0,5,-5"/></g><g class="DimensionMark" fill="#000000" id="mark4" stroke="none" style="fill-opacity: 1; pointer-events: visible;" transform="matrix(1,0,0,1,0,160.6332)"><polygon points="5,5,0,0,5,-5"/></g></g><g class="SpaceDimensionsLabel" transform="matrix(1,0,0,1,121.4582,200.1428)"><g class="TextLabel NameLabel" id="NameLabel" style="display: block;"/><g class="TextLabel DimensionMeasureLabel" id="DimensionMeasureLabel" style="display: none;" transform="matrix(1,0,0,1,-117.1172,80.3281)"/></g></g></g><g class="Space LivingRoom" fill="#ffffff" id="2e2c6643-637c-4b42-95e0-c156790aef2e" stroke="#ffffff" style="fill-opacity: 1; stroke-opacity: 1; stroke-width: 1;"><polygon points="1359.56,743.10 1088.37,743.10 1088.37,421.83 971.34,421.83 971.34,197.03 1359.56,197.03 "/><g class="Dimension" transform="matrix(1,0,0,1,971.3367,197.0324)"><g class="Visual" style="display: none;" transform="matrix(1,0,0,1,0,0)"><g class="DimensionMark" fill="#000000" id="mark1" stroke="none" style="fill-opacity: 1; pointer-events: visible;" transform="matrix(1,0,0,1,194.1096,0)"><polygon points="-5,5,0,0,5,5"/></g><g class="DimensionMark" fill="#000000" id="mark2" stroke="none" style="fill-opacity: 1; pointer-events: visible;" transform="matrix(1,0,0,1,388.2192,224.8001)"><polygon points="-5,-5,0,0,-5,5"/></g><g class="DimensionMark" fill="#000000" id="mark3" stroke="none" style="fill-opacity: 1; pointer-events: visible;" transform="matrix(1,0,0,1,194.1096,546.0666)"><polygon points="-5,-5,0,0,5,-5"/></g><g class="DimensionMark" fill="#000000" id="mark4" stroke="none" style="fill-opacity: 1; pointer-events: visible;" transform="matrix(1,0,0,1,0,224.8001)"><polygon points="5,5,0,0,5,-5"/></g></g><g class="SpaceDimensionsLabel" transform="matrix(1,0,0,1,203.5624,256.316)"><g class="TextLabel NameLabel" id="NameLabel" style="display: block;"/><g class="TextLabel DimensionMeasureLabel" id="DimensionMeasureLabel" style="display: none;" transform="matrix(1,0,0,1,-114.6094,79.6875)"/></g></g></g><g class="Space Entry Lobby" fill="#ffffff" id="dbcba62f-fcf0-4319-a4c0-e6fb9120ac9e" stroke="#ffffff" style="fill-opacity: 1; stroke-opacity: 1; stroke-width: 1;"><polygon points="822.97,743.10 822.92,743.10 822.92,512.96 811.92,512.96 811.92,666.03 632.81,666.03 632.81,421.83 822.97,421.83 "/><g class="Dimension" transform="matrix(1,0,0,1,632.8139,421.8325)"><g class="Visual" style="display: none;" transform="matrix(1,0,0,1,0,0)"><g class="DimensionMark" fill="#000000" id="mark1" stroke="none" style="fill-opacity: 1; pointer-events: visible;" transform="matrix(1,0,0,1,95.0777,0)"><polygon points="-5,5,0,0,5,5"/></g><g class="DimensionMark" fill="#000000" id="mark2" stroke="none" style="fill-opacity: 1; pointer-events: visible;" transform="matrix(1,0,0,1,190.1554,160.6332)"><polygon points="-5,-5,0,0,-5,5"/></g><g class="DimensionMark" fill="#000000" id="mark3" stroke="none" style="fill-opacity: 1; pointer-events: visible;" transform="matrix(1,0,0,1,95.0777,244.1941)"><polygon points="-5,-5,0,0,5,-5"/></g><g class="DimensionMark" fill="#000000" id="mark4" stroke="none" style="fill-opacity: 1; pointer-events: visible;" transform="matrix(1,0,0,1,0,160.6332)"><polygon points="5,5,0,0,5,-5"/></g></g><g class="SpaceDimensionsLabel" transform="matrix(1,0,0,1,42.6571,117.3501)"><g class="TextLabel NameLabel" id="NameLabel" style="display: block;"/><g class="TextLabel DimensionMeasureLabel" id="DimensionMeasureLabel" style="display: none;" transform="matrix(1,0,0,1,-118.9609,79.75)"/></g></g></g><g class="Space Bedroom" fill="#ffffff" id="c46b3c35-f60f-430b-aaf8-312c44c55597" stroke="#ffffff" style="fill-opacity: 1; stroke-opacity: 1; stroke-width: 1;"><polygon points="618.81,512.96 235.86,512.96 235.86,197.03 618.81,197.03 "/><g class="Dimension" transform="matrix(1,0,0,1,235.856,197.0324)"><g class="Visual" style="display: none;" transform="matrix(1,0,0,1,0,0)"><g class="DimensionMark" fill="#000000" id="mark1" stroke="none" style="fill-opacity: 1; pointer-events: visible;" transform="matrix(1,0,0,1,191.4789,0)"><polygon points="-5,5,0,0,5,5"/></g><g class="DimensionMark" fill="#000000" id="mark2" stroke="none" style="fill-opacity: 1; pointer-events: visible;" transform="matrix(1,0,0,1,382.9579,157.9624)"><polygon points="-5,-5,0,0,-5,5"/></g><g class="DimensionMark" fill="#000000" id="mark3" stroke="none" style="fill-opacity: 1; pointer-events: visible;" transform="matrix(1,0,0,1,191.4789,315.9247)"><polygon points="-5,-5,0,0,5,-5"/></g><g class="DimensionMark" fill="#000000" id="mark4" stroke="none" style="fill-opacity: 1; pointer-events: visible;" transform="matrix(1,0,0,1,0,157.9624)"><polygon points="5,5,0,0,5,-5"/></g></g><g class="SpaceDimensionsLabel" transform="matrix(1,0,0,1,162.9008,149.6655)"><g class="TextLabel NameLabel" id="NameLabel" style="display: block;"/><g class="TextLabel DimensionMeasureLabel" id="DimensionMeasureLabel" style="display: none;" transform="matrix(1,0,0,1,-113.6718,80.3281)"/></g></g></g><g class="Space Bedroom" fill="#ffffff" id="4c2eafe1-af6e-4230-97f3-eae36ee96300" stroke="#ffffff" style="fill-opacity: 1; stroke-opacity: 1; stroke-width: 1;"><polygon points="618.81,743.10 235.86,743.10 235.86,522.96 618.81,522.96 "/><g class="Dimension" transform="matrix(1,0,0,1,235.856,522.9571)"><g class="Visual" style="display: none;" transform="matrix(1,0,0,1,0,0)"><g class="DimensionMark" fill="#000000" id="mark1" stroke="none" style="fill-opacity: 1; pointer-events: visible;" transform="matrix(1,0,0,1,191.4789,0)"><polygon points="-5,5,0,0,5,5"/></g><g class="DimensionMark" fill="#000000" id="mark2" stroke="none" style="fill-opacity: 1; pointer-events: visible;" transform="matrix(1,0,0,1,382.9579,110.0709)"><polygon points="-5,-5,0,0,-5,5"/></g><g class="DimensionMark" fill="#000000" id="mark3" stroke="none" style="fill-opacity: 1; pointer-events: visible;" transform="matrix(1,0,0,1,191.4789,220.1418)"><polygon points="-5,-5,0,0,5,-5"/></g><g class="DimensionMark" fill="#000000" id="mark4" stroke="none" style="fill-opacity: 1; pointer-events: visible;" transform="matrix(1,0,0,1,0,110.0709)"><polygon points="5,5,0,0,5,-5"/></g></g><g class="SpaceDimensionsLabel" transform="matrix(1,0,0,1,158.0084,110.9928)"><g class="TextLabel NameLabel" id="NameLabel" style="display: block;"/><g class="TextLabel DimensionMeasureLabel" id="DimensionMeasureLabel" style="display: none;" transform="matrix(1,0,0,1,-113.6875,80.1562)"/></g></g></g><g class="Space Bath Shower" fill="#ffffff" id="5aa6ce75-8af9-4176-a84d-3ea13296e60b" stroke="#ffffff" style="fill-opacity: 1; stroke-opacity: 1; stroke-width: 1;"><polygon points="960.34,410.83 785.58,410.83 785.58,208.15 960.34,208.15 "/><g class="Dimension" transform="matrix(1,0,0,1,785.5757,208.1542)"><g class="Visual" style="display: none;" transform="matrix(1,0,0,1,0,0)"><g class="DimensionMark" fill="#000000" id="mark1" stroke="none" style="fill-opacity: 1; pointer-events: visible;" transform="matrix(1,0,0,1,87.3805,0)"><polygon points="-5,5,0,0,5,5"/></g><g class="DimensionMark" fill="#000000" id="mark2" stroke="none" style="fill-opacity: 1; pointer-events: visible;" transform="matrix(1,0,0,1,174.761,101.3391)"><polygon points="-5,-5,0,0,-5,5"/></g><g class="DimensionMark" fill="#000000" id="mark3" stroke="none" style="fill-opacity: 1; pointer-events: visible;" transform="matrix(1,0,0,1,87.3805,202.6783)"><polygon points="-5,-5,0,0,5,-5"/></g><g class="DimensionMark" fill="#000000" id="mark4" stroke="none" style="fill-opacity: 1; pointer-events: visible;" transform="matrix(1,0,0,1,0,101.3391)"><polygon points="5,5,0,0,5,-5"/></g></g><g class="SpaceDimensionsLabel" transform="matrix(1,0,0,1,34.524,129.6657)"><g class="TextLabel NameLabel" id="NameLabel" style="display: block;"/><g class="TextLabel DimensionMeasureLabel" id="DimensionMeasureLabel" style="display: none;" transform="matrix(1,0,0,1,-116.3125,79.75)"/></g></g></g><g class="Space Undefined" fill="#ffffff" id="5cdc1a43-0a6c-496d-a716-b6e361650523" stroke="#ffffff" style="fill-opacity: 1; stroke-opacity: 1; stroke-width: 1;"><polygon points="774.58,410.83 632.81,410.83 632.81,208.15 774.58,208.15 "/><g class="Dimension" transform="matrix(1,0,0,1,632.8139,208.1542)"><g class="Visual" style="display: none;" transform="matrix(1,0,0,1,0,0)"><g class="DimensionMark" fill="#000000" id="mark1" stroke="none" style="fill-opacity: 1; pointer-events: visible;" transform="matrix(1,0,0,1,70.8809,0)"><polygon points="-5,5,0,0,5,5"/></g><g class="DimensionMark" fill="#000000" id="mark2" stroke="none" style="fill-opacity: 1; pointer-events: visible;" transform="matrix(1,0,0,1,141.7619,101.3391)"><polygon points="-5,-5,0,0,-5,5"/></g><g class="DimensionMark" fill="#000000" id="mark3" stroke="none" style="fill-opacity: 1; pointer-events: visible;" transform="matrix(1,0,0,1,70.8809,202.6783)"><polygon points="-5,-5,0,0,5,-5"/></g><g class="DimensionMark" fill="#000000" id="mark4" stroke="none" style="fill-opacity: 1; pointer-events: visible;" transform="matrix(1,0,0,1,0,101.3391)"><polygon points="5,5,0,0,5,-5"/></g></g><g class="SpaceDimensionsLabel" transform="matrix(1,0,0,1,70.881,70.881)"><g class="TextLabel NameLabel" id="NameLabel" style="display: block;"/><g class="TextLabel DimensionMeasureLabel" id="DimensionMeasureLabel" style="display: none;" transform="matrix(1,0,0,1,-40.5235,79.6875)"/></g></g></g><g class="Space DraughtLobby" fill="#ffffff" id="514d5934-7b99-4c16-ad28-29064efa788e" stroke="#ffffff" style="fill-opacity: 1; stroke-opacity: 1; stroke-width: 1;"><polygon points="811.92,743.10 632.81,743.10 632.81,683.51 811.92,683.51 "/><g class="Dimension" transform="matrix(1,0,0,1,632.8139,683.5054)"><g class="Visual" style="display: none;" transform="matrix(1,0,0,1,0,0)"><g class="DimensionMark" fill="#000000" id="mark1" stroke="none" style="fill-opacity: 1; pointer-events: visible;" transform="matrix(1,0,0,1,89.5552,0)"><polygon points="-5,5,0,0,5,5"/></g><g class="DimensionMark" fill="#000000" id="mark2" stroke="none" style="fill-opacity: 1; pointer-events: visible;" transform="matrix(1,0,0,1,179.1103,29.7967)"><polygon points="-5,-5,0,0,-5,5"/></g><g class="DimensionMark" fill="#000000" id="mark3" stroke="none" style="fill-opacity: 1; pointer-events: visible;" transform="matrix(1,0,0,1,89.5552,59.5935)"><polygon points="-5,-5,0,0,5,-5"/></g><g class="DimensionMark" fill="#000000" id="mark4" stroke="none" style="fill-opacity: 1; pointer-events: visible;" transform="matrix(1,0,0,1,0,29.7967)"><polygon points="5,5,0,0,5,-5"/></g></g><g class="SpaceDimensionsLabel" transform="matrix(1,0,0,1,43.1823,42.0669)"><g class="TextLabel NameLabel" id="NameLabel" style="display: block;"/><g class="TextLabel DimensionMeasureLabel" id="DimensionMeasureLabel" style="display: none;" transform="matrix(1,0,0,1,-118.7578,80.1563)"/></g></g></g><g class="Space Storage" fill="#ffffff" id="b4bcb7bc-bb13-4935-9b13-df5eb1f73a2c" stroke="#ffffff" style="fill-opacity: 1; stroke-opacity: 1; stroke-width: 1;"><polygon points="626.15,880.77 476.69,880.77 476.69,783.10 626.15,783.10 "/><g class="Dimension" transform="matrix(1,0,0,1,476.6901,783.0989)"><g class="Visual" style="display: none;" transform="matrix(1,0,0,1,0,0)"><g class="DimensionMark" fill="#000000" id="mark1" stroke="none" style="fill-opacity: 1; pointer-events: visible;" transform="matrix(1,0,0,1,74.7319,0)"><polygon points="-5,5,0,0,5,5"/></g><g class="DimensionMark" fill="#000000" id="mark2" stroke="none" style="fill-opacity: 1; pointer-events: visible;" transform="matrix(1,0,0,1,149.4638,48.8334)"><polygon points="-5,-5,0,0,-5,5"/></g><g class="DimensionMark" fill="#000000" id="mark3" stroke="none" style="fill-opacity: 1; pointer-events: visible;" transform="matrix(1,0,0,1,74.7319,97.6667)"><polygon points="-5,-5,0,0,5,-5"/></g><g class="DimensionMark" fill="#000000" id="mark4" stroke="none" style="fill-opacity: 1; pointer-events: visible;" transform="matrix(1,0,0,1,0,48.8334)"><polygon points="5,5,0,0,5,-5"/></g></g><g class="SpaceDimensionsLabel" transform="matrix(1,0,0,1,9.1928,57.1302)"><g class="TextLabel NameLabel" id="NameLabel" style="display: block;"/><g class="TextLabel DimensionMeasureLabel" id="DimensionMeasureLabel" style="display: none;" transform="matrix(1,0,0,1,-105.4453,80.1562)"/></g></g></g><g class="Wall External" fill="#000000" id="Wall" stroke="#000000" style="fill-opacity: 1; stroke-opacity: 1; stroke-width: 1;"><polygon points="1386.56,181.03 1386.56,783.10 1359.56,743.10 1359.56,197.03 "/><g class="Window Regular" fill="#f0f0ff" id="Window" stroke="#000000" style="fill-opacity: 1; stroke-width: 1; stroke-opacity: 1;"><polygon points="1386.56,316.25 1386.56,407.23 1359.56,407.23 1359.56,316.25 "/><g class="Glass" id="Glass"><polygon points="1386.56,316.25 1386.56,407.23 1359.56,407.23 1359.56,316.25 "/></g><g class="Panel" id="Panel"><line x1="1373.0559051099067" x2="1373.0559051099067" y1="323.74812517280304" y2="399.727105905931"/><line x1="1386.5559051099067" x2="1359.5559051099067" y1="323.74812517280304" y2="323.74812517280304"/><line x1="1386.5559051099067" x2="1359.5559051099067" y1="399.727105905931" y2="399.727105905931"/></g></g><g class="Door Swing Opposite" fill="#ffffff" id="Door" stroke="#000000" style="fill-opacity: 1; stroke-width: 1; stroke-opacity: 1;"><polygon points="1386.56,421.32 1386.56,500.77 1359.56,500.77 1359.56,421.32 "/><g class="Panel Left Negative" fill="none" id="Panel" style=""><g class="PanelArea" fill="none" id="PanelArea" stroke="none" style=""><polygon points="1386.56,421.32 1386.56,500.77 1359.56,500.77 1359.56,421.32 "/></g><path d="M1386.56,421.32 q79.45,0.00 79.45,79.45 l-79.45,0.00Z"/></g><g class="Panel Right Positive" fill="none" id="Panel" style=""><g class="PanelArea" fill="none" id="PanelArea" stroke="none" style=""><polygon points="1386.56,421.32 1386.56,500.77 1359.56,500.77 1359.56,421.32 "/></g><path d="M1359.56,421.32 q-79.45,0.00 -79.45,79.45 l79.45,0.00Z"/></g></g><g class="Window Regular" fill="#f0f0ff" id="Window" stroke="#000000" style="fill-opacity: 1; stroke-width: 1; stroke-opacity: 1;"><polygon points="1386.56,514.86 1386.56,709.00 1359.56,709.00 1359.56,514.86 "/><g class="Glass" id="Glass"><polygon points="1386.56,514.86 1386.56,709.00 1359.56,709.00 1359.56,514.86 "/></g><g class="Panel" id="Panel"><line x1="1373.0559051099067" x2="1373.0559051099067" y1="522.3642098718851" y2="701.4954152390525"/><line x1="1386.5559051099067" x2="1359.5559051099067" y1="522.3642098718851" y2="522.3642098718851"/><line x1="1386.5559051099067" x2="1359.5559051099067" y1="701.4954152390525" y2="701.4954152390525"/></g></g></g><g class="Wall External" fill="#000000" id="Wall" stroke="#000000" style="fill-opacity: 1; stroke-opacity: 1; stroke-width: 1;"><polygon points="1386.56,783.10 209.86,783.10 235.86,743.10 1359.56,743.10 "/><g class="Door Swing Beside" fill="#ffffff" id="Door" stroke="#000000" style="fill-opacity: 1; stroke-width: 1; stroke-opacity: 1;"><polygon points="725.01,783.10 649.40,783.10 649.40,743.10 725.01,743.10 "/><g class="Panel Left Negative" fill="none" id="Panel" style=""><g class="PanelArea" fill="none" id="PanelArea" stroke="none" style=""><polygon points="725.01,783.10 649.40,783.10 649.40,743.10 725.01,743.10 "/></g><path d="M725.01,783.10 q0.00,75.60 -75.60,75.60 l0.00,-75.60Z"/></g></g></g><g class="Wall External" fill="#000000" id="Wall" stroke="#000000" style="fill-opacity: 1; stroke-opacity: 1; stroke-width: 1;"><polygon points="235.86,743.10 235.86,197.03 209.86,181.03 209.86,783.10 "/><g class="Window Regular" fill="#f0f0ff" id="Window" stroke="#000000" style="fill-opacity: 1; stroke-width: 1; stroke-opacity: 1;"><polygon points="235.86,709.95 235.86,623.23 209.86,623.23 209.86,709.95 "/><g class="Glass" id="Glass"><polygon points="235.86,709.95 235.86,623.23 209.86,623.23 209.86,709.95 "/></g><g class="Panel" id="Panel"><line x1="222.8560036393731" x2="222.8560036393731" y1="702.4491391926038" y2="630.7261487542253"/><line x1="235.8560036393731" x2="209.8560036393731" y1="702.4491391926038" y2="702.4491391926038"/><line x1="235.8560036393731" x2="209.8560036393731" y1="630.7261487542253" y2="630.7261487542253"/></g></g><g class="Window Regular" fill="#f0f0ff" id="Window" stroke="#000000" style="fill-opacity: 1; stroke-width: 1; stroke-opacity: 1;"><polygon points="235.86,614.27 235.86,525.87 209.86,525.87 209.86,614.27 "/><g class="Glass" id="Glass"><polygon points="235.86,614.27 235.86,525.87 209.86,525.87 209.86,614.27 "/></g><g class="Panel" id="Panel"><line x1="222.8560036393731" x2="222.85600363937309" y1="606.7740981283281" y2="533.372598197594"/><line x1="235.8560036393731" x2="209.8560036393731" y1="606.7740981283281" y2="606.7740981283281"/><line x1="235.85600363937309" x2="209.85600363937309" y1="533.372598197594" y2="533.372598197594"/></g></g><g class="Door Swing Opposite" fill="#ffffff" id="Door" stroke="#000000" style="fill-opacity: 1; stroke-width: 1; stroke-opacity: 1;"><polygon points="235.86,505.73 235.86,429.64 209.86,429.64 209.86,505.73 "/><g class="Panel Right Negative" fill="none" id="Panel" style=""><g class="PanelArea" fill="none" id="PanelArea" stroke="none" style=""><polygon points="235.86,505.73 235.86,429.64 209.86,429.64 209.86,505.73 "/></g><path d="M235.86,429.64 q76.09,0.00 76.09,76.09 l-76.09,0.00Z"/></g><g class="Panel Left Positive" fill="none" id="Panel" style=""><g class="PanelArea" fill="none" id="PanelArea" stroke="none" style=""><polygon points="235.86,505.73 235.86,429.64 209.86,429.64 209.86,505.73 "/></g><path d="M209.86,429.64 q-76.09,0.00 -76.09,76.09 l76.09,0.00Z"/></g></g><g class="Window Regular" fill="#f0f0ff" id="Window" stroke="#000000" style="fill-opacity: 1; stroke-width: 1; stroke-opacity: 1;"><polygon points="235.86,412.85 235.86,316.62 209.86,316.62 209.86,412.85 "/><g class="Glass" id="Glass"><polygon points="235.86,412.85 235.86,316.62 209.86,316.62 209.86,412.85 "/></g><g class="Panel" id="Panel"><line x1="222.85600363937309" x2="222.85600363937306" y1="405.3529590456427" y2="324.11841481724855"/><line x1="235.85600363937309" x2="209.85600363937309" y1="405.3529590456427" y2="405.3529590456427"/><line x1="235.85600363937306" x2="209.85600363937306" y1="324.11841481724855" y2="324.11841481724855"/></g></g></g><g class="Wall External" fill="#000000" id="Wall" stroke="#000000" style="fill-opacity: 1; stroke-opacity: 1; stroke-width: 1;"><polygon points="640.15,783.10 640.15,894.77 626.15,880.77 626.15,783.10 "/></g><g class="Wall External" fill="#000000" id="Wall" stroke="#000000" style="fill-opacity: 1; stroke-opacity: 1; stroke-width: 1;"><polygon points="640.15,894.77 462.69,894.77 476.69,880.77 626.15,880.77 "/><g class="Door Swing Beside" fill="#ffffff" id="Door" stroke="#000000" style="fill-opacity: 1; stroke-width: 1; stroke-opacity: 1;"><polygon points="592.38,894.77 514.22,894.77 514.22,880.77 592.38,880.77 "/><g class="Panel Left Negative" fill="none" id="Panel" style=""><g class="PanelArea" fill="none" id="PanelArea" stroke="none" style=""><polygon points="592.38,894.77 514.22,894.77 514.22,880.77 592.38,880.77 "/></g><path d="M592.38,894.77 q0.00,78.17 -78.17,78.17 l0.00,-78.17Z"/></g></g></g><g class="Wall External" fill="#000000" id="Wall" stroke="#000000" style="fill-opacity: 1; stroke-opacity: 1; stroke-width: 1;"><polygon points="476.69,880.77 476.69,783.10 462.69,783.10 462.69,894.77 "/></g><g class="Wall" fill="#000000" id="Wall" stroke="#000000" style="fill-opacity: 1; stroke-opacity: 1; stroke-width: 1;"><polygon points="632.81,783.10 632.81,181.03 618.81,181.03 618.81,783.10 "/><g class="Door Swing Beside" fill="#ffffff" id="Door" stroke="#000000" style="fill-opacity: 1; stroke-width: 1; stroke-opacity: 1;"><polygon points="632.81,606.48 632.81,529.60 618.81,529.60 618.81,606.48 "/><g class="Panel Right Positive" fill="none" id="Panel" style=""><g class="PanelArea" fill="none" id="PanelArea" stroke="none" style=""><polygon points="632.81,606.48 632.81,529.60 618.81,529.60 618.81,606.48 "/></g><path d="M618.81,606.48 q-76.88,0.00 -76.88,-76.88 l76.88,0.00Z"/></g></g><g class="Door Swing Beside" fill="#ffffff" id="Door" stroke="#000000" style="fill-opacity: 1; stroke-width: 1; stroke-opacity: 1;"><polygon points="632.81,503.97 632.81,427.09 618.81,427.09 618.81,503.97 "/><g class="Panel Left Positive" fill="none" id="Panel" style=""><g class="PanelArea" fill="none" id="PanelArea" stroke="none" style=""><polygon points="632.81,503.97 632.81,427.09 618.81,427.09 618.81,503.97 "/></g><path d="M618.81,427.09 q-76.88,0.00 -76.88,76.88 l76.88,0.00Z"/></g></g></g><g class="Wall" fill="#000000" id="Wall" stroke="#000000" style="fill-opacity: 1; stroke-opacity: 1; stroke-width: 1;"><polygon points="209.86,512.96 632.81,512.96 632.81,522.96 209.86,522.96 "/></g><g class="Wall" fill="#000000" id="Wall" stroke="#000000" style="fill-opacity: 1; stroke-opacity: 1; stroke-width: 1;"><polygon points="822.92,783.10 822.92,512.96 811.92,512.96 811.92,783.10 "/></g><g class="Wall" fill="#000000" id="Wall" stroke="#000000" style="fill-opacity: 1; stroke-opacity: 1; stroke-width: 1;"><polygon points="822.92,666.03 618.81,666.03 618.81,683.51 822.92,683.51 "/><g class="Door Swing Beside" fill="#ffffff" id="Door" stroke="#000000" style="fill-opacity: 1; stroke-width: 1; stroke-opacity: 1;"><polygon points="728.85,666.03 650.68,666.03 650.68,683.51 728.85,683.51 "/><g class="Panel Left Negative" fill="none" id="Panel" style=""><g class="PanelArea" fill="none" id="PanelArea" stroke="none" style=""><polygon points="728.85,666.03 650.68,666.03 650.68,683.51 728.85,683.51 "/></g><path d="M728.85,666.03 q0.00,-78.17 -78.17,-78.17 l0.00,78.17Z"/></g></g></g><g class="Wall" fill="#000000" id="Wall" stroke="#000000" style="fill-opacity: 1; stroke-opacity: 1; stroke-width: 1;"><polygon points="618.81,421.83 971.34,421.83 960.34,410.83 618.81,410.83 "/><g class="Door Swing Beside" fill="#ffffff" id="Door" stroke="#000000" style="fill-opacity: 1; stroke-width: 1; stroke-opacity: 1;"><polygon points="803.36,421.83 872.81,421.83 872.81,410.83 803.36,410.83 "/><g class="Panel Right Negative" fill="none" id="Panel" style=""><g class="PanelArea" fill="none" id="PanelArea" stroke="none" style=""><polygon points="803.36,421.83 872.81,421.83 872.81,410.83 803.36,410.83 "/></g><path d="M872.81,421.83 q0.00,69.46 -69.46,69.46 l0.00,-69.46Z"/></g></g></g><g class="Wall" fill="#000000" id="Wall" stroke="#000000" style="fill-opacity: 1; stroke-opacity: 1; stroke-width: 1;"><polygon points="971.34,421.83 971.34,181.03 960.34,181.03 960.34,410.83 "/></g><g class="Wall External" fill="#000000" id="Wall" stroke="#000000" style="fill-opacity: 1; stroke-opacity: 1; stroke-width: 1;"><polygon points="235.86,197.03 632.81,197.03 632.81,181.03 209.86,181.03 "/></g><g class="Wall External" fill="#000000" id="Wall" stroke="#000000" style="fill-opacity: 1; stroke-opacity: 1; stroke-width: 1;"><polygon points="632.81,208.15 971.34,208.15 971.34,181.03 632.81,181.03 "/></g><g class="Wall External" fill="#000000" id="Wall" stroke="#000000" style="fill-opacity: 1; stroke-opacity: 1; stroke-width: 1;"><polygon points="971.34,197.03 1359.56,197.03 1386.56,181.03 971.34,181.03 "/></g><g class="Wall" fill="#000000" id="Wall" stroke="#000000" style="fill-opacity: 1; stroke-opacity: 1; stroke-width: 1;"><polygon points="785.58,181.03 785.58,421.83 774.58,421.83 774.58,181.03 "/><g class="Door Swing Beside" fill="#ffffff" id="Door" stroke="#000000" style="fill-opacity: 1; stroke-width: 1; stroke-opacity: 1;"><polygon points="785.58,344.06 785.58,404.69 774.58,404.69 774.58,344.06 "/><g class="Panel Left Negative" fill="none" id="Panel" style=""><g class="PanelArea" fill="none" id="PanelArea" stroke="none" style=""><polygon points="785.58,344.06 785.58,404.69 774.58,404.69 774.58,344.06 "/></g><path d="M785.58,344.06 q60.64,0.00 60.64,60.64 l-60.64,0.00Z"/></g></g></g><g class="Wall" fill="#000000" id="Wall" stroke="#000000" style="fill-opacity: 1; stroke-opacity: 1; stroke-width: 1;"><polygon points="754.59,783.10 754.59,894.77 741.59,894.77 741.59,783.10 "/></g><g class="Wall" fill="#000000" id="Wall" stroke="#000000" style="fill-opacity: 1; stroke-opacity: 1; stroke-width: 1;"><polygon points="1386.56,743.10 1629.76,743.10 1629.76,757.10 1386.56,757.10 "/></g><g class="Wall" fill="#000000" id="Wall" stroke="#000000" style="fill-opacity: 1; stroke-opacity: 1; stroke-width: 1;"><polygon points="1386.56,181.03 1629.76,181.03 1629.76,196.03 1386.56,196.03 "/></g><g class="Column Rectangle" fill="#000000" id="Column" stroke="none" style="fill-opacity: 1;"><polygon points="960.34,208.15 960.34,339.56 929.72,339.56 929.72,208.15 "/></g><g class="FixedFurniture ElectricalAppliance SpaceForAppliance2" fill="#ffffff" stroke="#000000" style="fill-opacity: 1; stroke-opacity: 1;" transform="matrix(0,1.4688,-0.9719,0,625.9718,783.0989)">
<g class="BoundaryPolygon">
<polygon points="0,0 60,0 60,60 0,60"/>
</g>
<g class="electricitySign" fill="none">
<path d="M0,0,30.1,39.8V19.4L59.9,60"/>
</g>
<g class="Direction" fill-opacity="0.9" style="display: none;">
<polygon fill="#444444" points="32.009 55.197 32.009 44.581 29 44.581 29 55.197 25.197 55.197 30.5 60 35.803 55.197 32.009 55.197"/>
</g>
<g class="Name" fill-opacity="0.9" style="display: none;">

</g>
<desc>Width:60 Height:90 Depth:60 Elevation:0</desc>
</g><g class="FixedFurniture Closet" fill="#ffffff" stroke="#000000" style="fill-opacity: 1; stroke-opacity: 1;" transform="matrix(0,1,-1,0,811.6742,683.5054)">
<g class="BoundaryPolygon">
<polygon points="0.00,0.00 60.00,0.00 60.00,56.21 0.00,56.21 "/>
</g>
<g class="Direction" fill-opacity="0.9" style="display: none;">
<polygon fill="#444444" points="31.51,51.24 31.51,40.62 28.50,40.62 28.50,51.24 24.70,51.24 30.00,56.54 35.30,51.24 31.51,51.24 "/>
</g>
<g class="Name" fill-opacity="0.9" style="display: none;">

</g>
<desc>Width:60 Height:200 Depth:60 Elevation:0</desc>
</g><g class="FixedFurniture CoatCloset" fill="#ffffff" stroke="#000000" style="fill-opacity: 1; stroke-opacity: 1;" transform="matrix(0,1,-1,0,618.5639,687.7486)">
<g class="BoundaryPolygon">
<polygon points="0.00,0.00 55.35,0.00 55.35,54.11 0.00,54.11 "/>
</g>

<g class="Direction" fill-opacity="0.9" style="display: none;">
<polygon fill="#444444" points="29.07,49.32 29.07,38.71 26.06,38.71 26.06,49.32 22.26,49.32 27.56,54.63 32.86,49.32 29.07,49.32 "/>
</g>
<g class="Name" fill-opacity="0.9" style="display: none;">

</g>
<desc>Width:60 Height:200 Depth:60 Elevation:0</desc>
</g><g class="FixedFurniture Closet" fill="#ffffff" stroke="#000000" style="fill-opacity: 1; stroke-opacity: 1;" transform="matrix(0,1,-1,0,618.7514,636.9587)">
<g class="BoundaryPolygon">
<polygon points="0.00,0.00 50.79,0.00 50.79,54.31 0.00,54.31 "/>
</g>
<g class="Direction" fill-opacity="0.9" style="display: none;">
<polygon fill="#444444" points="26.67,49.51 26.67,38.89 23.66,38.89 23.66,49.51 19.86,49.51 25.16,54.81 30.47,49.51 26.67,49.51 "/>
</g>
<g class="Name" fill-opacity="0.9" style="display: none;">

</g>
<desc>Width:60 Height:200 Depth:60 Elevation:0</desc>
</g><g class="FixedFurniture CoatCloset" fill="#ffffff" stroke="#000000" style="fill-opacity: 1; stroke-opacity: 1;" transform="matrix(0,1,-1,0,811.6898,526.843)">
<g class="BoundaryPolygon">
<polygon points="0.00,0.00 139.18,0.00 139.18,55.93 0.00,55.93 "/>
</g>

<g class="Direction" fill-opacity="0.9" style="display: none;">
<polygon fill="#444444" points="71.34,50.82 71.34,40.21 68.33,40.21 68.33,50.82 64.53,50.82 69.83,56.12 75.14,50.82 71.34,50.82 "/>
</g>
<g class="Name" fill-opacity="0.9" style="display: none;">

</g>
<desc>Width:120 Height:200 Depth:60 Elevation:0</desc>
</g><g class="FixedFurniture CoatCloset" fill="#ffffff" stroke="#000000" style="fill-opacity: 1; stroke-opacity: 1;" transform="matrix(0,1,-1,0,618.5639,197.0324)">
<g class="BoundaryPolygon">
<polygon points="0.00,0.00 101.82,0.00 101.82,55.35 0.00,55.35 "/>
</g>

<g class="Direction" fill-opacity="0.9" style="display: none;">
<polygon fill="#444444" points="52.19,50.29 52.19,39.67 49.18,39.67 49.18,50.29 45.38,50.29 50.68,55.59 55.98,50.29 52.19,50.29 "/>
</g>
<g class="Name" fill-opacity="0.9" style="display: none;">

</g>
<desc>Width:120 Height:200 Depth:60 Elevation:0</desc>
</g><g class="FixedFurnitureSet" fill="#ffffff" id="FixedFurnitureSet" stroke="#000000" style="fill-opacity: 0.4; stroke-opacity: 0.4;" transform="matrix(0,1,-1,0,618.7514,298.8501)"><g class="FixedFurniture Closet" fill="#ffffff" stroke="#000000" style="fill-opacity: 1; stroke-opacity: 1;" transform="matrix(1,0,0,1,0,0)">
<g class="BoundaryPolygon">
<polygon points="0.00,0.00 49.68,0.00 49.68,55.57 0.00,55.57 "/>
</g>
<g class="Direction" fill-opacity="0.9" style="display: none;">
<polygon fill="#444444" points="26.09,50.66 26.09,40.04 23.08,40.04 23.08,50.66 19.27,50.66 24.58,55.96 29.88,50.66 26.09,50.66 "/>
</g>
<g class="Name" fill-opacity="0.9" style="display: none;">

</g>
<desc>Width:60 Height:200 Depth:60 Elevation:0</desc>
</g><g class="FixedFurniture Closet" fill="#ffffff" stroke="#000000" style="fill-opacity: 1; stroke-opacity: 1;" transform="matrix(1,0,0,1,49.6751,0)">
<g class="BoundaryPolygon">
<polygon points="0.00,0.00 49.68,0.00 49.68,55.57 0.00,55.57 "/>
</g>
<g class="Direction" fill-opacity="0.9" style="display: none;">
<polygon fill="#444444" points="26.09,50.66 26.09,40.04 23.08,40.04 23.08,50.66 19.27,50.66 24.58,55.96 29.88,50.66 26.09,50.66 "/>
</g>
<g class="Name" fill-opacity="0.9" style="display: none;">

</g>
<desc>Width:60 Height:200 Depth:60 Elevation:0</desc>
</g></g><g class="FixedFurniture ElectricalAppliance SaunaStove" fill="#ffffff" stroke="#000000" style="fill-opacity: 1; stroke-opacity: 1;" transform="matrix(0,0.7615,-0.7289,0,772.0041,231.2106)">
<g class="BoundaryPolygon">
<polygon points="0,0 60,0 60,35 0,35"/>
</g>
<g class="electricitySign" fill="none">
<polyline points="0 35 39.7 17.5 21.4 17.5 60 0"/>
</g>
<g class="Direction" fill-opacity="0.9" style="display: none;">
<polygon fill="#444444" points="31.509 29.697 31.509 19.081 28.5 19.081 28.5 29.697 24.697 29.697 30 35 35.303 29.697 31.509 29.697"/>
</g>
<g class="Name" fill-opacity="0.9" style="display: none;">

</g>
<desc>Width:60 Height:60 Depth:35 Elevation:20</desc>
</g><g class="FixedFurniture SaunaBenchHigh" fill="#ffffff" stroke="#000000" style="fill-opacity: 1; stroke-opacity: 1;" transform="matrix(0,-1,1,0,632.9233,410.9267)">
<g class="BoundaryPolygon">
<polygon points="0.00,0.00 202.77,0.00 202.77,48.75 0.00,48.75 "/>
</g>

<g class="Direction" fill-opacity="0.9" style="display: none;">
<polygon fill="#444444" points="104.57,44.41 104.57,33.79 101.57,33.79 101.57,44.41 97.76,44.41 103.07,49.71 108.37,44.41 104.57,44.41 "/>
</g>
<g class="Name" fill-opacity="0.9" style="display: none;">

</g>
<desc>Width:185 Height:5 Depth:60 Elevation:105</desc>
</g><g class="FixedFurniture SaunaBenchMid" fill="#ffffff" stroke="#000000" style="fill-opacity: 1; stroke-opacity: 1;" transform="matrix(0,-1,1,0,681.8146,410.8324)">
<g class="BoundaryPolygon">
<polygon points="0.00,0.00 202.77,0.00 202.77,41.73 0.00,41.73 "/>
</g>

<g class="Direction" fill-opacity="0.9" style="display: none;">
<polygon fill="#444444" points="103.04,36.15 103.04,25.54 100.03,25.54 100.03,36.15 96.23,36.15 101.53,41.46 106.83,36.15 103.04,36.15 "/>
</g>
<g class="Name" fill-opacity="0.9" style="display: none;">

</g>
<desc>Width:185 Height:5 Depth:40 Elevation:60</desc>
</g><g class="FixedFurniture SaunaBenchLow" fill="#ffffff" stroke="#000000" style="fill-opacity: 1; stroke-opacity: 1;" transform="matrix(0,-1,1,0,723.7152,410.8324)">
<g class="BoundaryPolygon">
<polygon points="0.00,0.00 100.54,0.00 100.54,41.30 0.00,41.30 "/>
</g>

<g class="Direction" fill-opacity="0.9" style="display: none;">
<polygon fill="#444444" points="51.99,35.78 51.99,25.16 48.98,25.16 48.98,35.78 45.18,35.78 50.48,41.08 55.79,35.78 51.99,35.78 "/>
</g>
<g class="Name" fill-opacity="0.9" style="display: none;">

</g>
<desc>Width:91 Height:5 Depth:40 Elevation:30</desc>
</g><g class="FixedFurniture ElectricalAppliance SpaceForAppliance2" fill="#ffffff" stroke="#000000" style="fill-opacity: 1; stroke-opacity: 1;" transform="matrix(1.0226,0,0,1.0169,790.8923,214.6406)">
<g class="BoundaryPolygon">
<polygon points="0,0 60,0 60,60 0,60"/>
</g>
<g class="electricitySign" fill="none">
<path d="M0,0,30.1,39.8V19.4L59.9,60"/>
</g>
<g class="Direction" fill-opacity="0.9" style="display: none;">
<polygon fill="#444444" points="32.009 55.197 32.009 44.581 29 44.581 29 55.197 25.197 55.197 30.5 60 35.803 55.197 32.009 55.197"/>
</g>
<g class="Name" fill-opacity="0.9" style="display: none;">

</g>
<desc>Width:60 Height:90 Depth:60 Elevation:0</desc>
</g><g class="FixedFurniture Shower" fill="#ffffff" stroke="#000000" style="fill-opacity: 1; stroke-opacity: 1;" transform="matrix(0,1,-1,0,929.7199,232.3875)">
<g class="BoundaryPolygon" fill="none" stroke="none">
<polygon points="0,0 32,0 32,19 0,19"/>
</g>
<g class="InnerPolygon">
<rect height="6.1" width="11.2" x="3.7" y="0.5"/>
<rect height="6.1" width="11.2" x="17.6" y="0.5"/>
<rect height="6.1" width="3.4" x="28.7" y="0.5"/>
<rect height="6.1" width="3.2" x="0.5" y="0.5"/>
<path d="M14.9,8.5c0,1.5-0.4,3.3-1.6,5    c-0.4,0.6-1,1.1-1.1,1.7c-0.2,1.1,0.3,2.8,2.5,3.2c0.5,0.1,1.3,0.1,1.6,0.1h-0.1c0.3,0,1.1,0,1.6-0.1c2.2-0.4,2.7-2.1,2.5-3.2    c-0.1-0.6-0.7-1.1-1.1-1.7c-1.2-1.7-1.6-3.5-1.6-5"/>
<path d="M12.2,15.3c0.1,0.2,1.6,1.9,4.2,1.9 c2.4-0.1,3.7-1.7,3.9-1.9"/>
<path d="M14.9,0.5h2.7v8c-0.9,0-1.8,0-2.7,0l0,0 C14.9,5.9,14.9,3.2,14.9,0.5z"/>
</g>
<g class="Indicator">
<path d="M3.7,3.6C5,3.1,5.2,3,5.2,3 c0,1.1,0,0,0,1.1C5.2,4.1,5.1,4.1,3.7,3.6"/>
<path d="M28.7,3.6 C27.4,3.1,27.2,3,27.2,3c0,1.1,0,0,0,1.1C27.2,4.1,27.3,4.1,28.7,3.6"/>
</g>
<desc>Width:32 Height:97 Depth:19 Elevation:135</desc>
</g><g class="FixedFurniture Misc" fill="none" stroke="#000000" style="fill-opacity: 1; stroke-opacity: 1; stroke-width: 1.8; stroke-dasharray: 5, 5;" transform="matrix(1,0,0,1,929.7199,287.3737)"><desc>Width:120 Height:200 Depth:60 Elevation:0</desc><g class="BoundaryPolygon"><path d="M0.00,0.00 L-73.06,0.00 L-73.06,-79.59 "/></g></g><g class="FixedFurnitureSet" fill="#ffffff" id="FixedFurnitureSet" stroke="#000000" style="fill-opacity: 0.4; stroke-opacity: 0.4;" transform="matrix(0,1,-1,0,929.5481,287.3736)"><g class="FixedFurniture BaseCabinet" fill="#ffffff" stroke="#000000" style="fill-opacity: 1; stroke-opacity: 1;" transform="matrix(1,0,0,1,0,0)">
<g class="BoundaryPolygon">
<polygon points="0.00,0.00 52.00,0.00 52.00,37.10 0.00,37.10 "/>
</g>
<g class="Direction" fill-opacity="0.9" style="display: none;">
<polygon fill="#444444" points="27.74,34.13 27.74,23.51 24.73,23.51 24.73,34.13 20.93,34.13 26.23,38.93 31.53,34.13 27.74,34.13 "/>
</g>
<g class="Name" fill-opacity="0.9" style="display: none;">

</g>
<desc>Width:60 Height:5 Depth:60 Elevation:105</desc>
</g><g class="FixedFurniture Sink" fill="#ffffff" stroke="#000000" style="fill-opacity: 1; stroke-opacity: 1;" transform="matrix(1,0,0,1,0,0)">
<g class="BoundaryPolygon" fill="none" stroke="none">
<polygon points="0.00,0.00 52.00,0.00 52.00,37.10 0.00,37.10 "/>
</g>
<g class="InnerPolygon">
<polygon points="4.33,9.70 47.66,9.70 47.66,33.82 4.33,33.82 "/>
</g>
<g class="OuterDrain" stroke-width="0.8">
<circle cx="25.99801576839085" cy="19.909096882864787" r="3.5"/>
</g>
<g class="InnerDrain" stroke-width="0.8">
<circle cx="25.99801576839085" cy="19.909096882864787" r="2"/>
</g>
<g class="Faucet">
<polygon points="23.40,3.09 29.40,3.09 29.40,17.09 23.40,17.09 "/>
</g>
<g class="Direction" fill-opacity="0.9" style="display: none;">
<polygon fill="#444444" points="27.74,34.13 27.74,23.51 24.73,23.51 24.73,34.13 20.93,34.13 26.23,38.93 31.53,34.13 27.74,34.13 "/>
</g>
<g class="Name" fill-opacity="0.9" style="display: none;">

</g>
<desc>Width:60 Height:90 Depth:60 Elevation:0</desc>
</g></g><g class="FixedFurniture Toilet" fill="#ffffff" stroke="#000000" style="fill-opacity: 1; stroke-opacity: 1;" transform="matrix(0,1,-1,0,960.3368,354.8444)">
<g class="BoundaryPolygon" fill="none" stroke="none">
<polygon points="0,0 41,0 41,71 0,71"/>
</g>
<g class="InnerPolygon">
<rect height="17.98" width="39.989" x="0.502" y="0.5"/>
<path d="M40.491,44.237S41.619,70.5,20.907,70.5C-.523,70.5.6,44.237.6,44.237L.5,18.48H40.491Z"/>
<rect height="3.03" width="6.357" x="17.318" y="7.975"/>
</g>
<desc>Width:41 Height:85 Depth:71 Elevation:0</desc>
</g><g class="FixedFurniture ElectricalAppliance Refrigerator" fill="#ffffff" stroke="#000000" style="fill-opacity: 1; stroke-opacity: 1;" transform="matrix(-1.0086,0,0,-1,1088.1379,743.0989)">
<g class="BoundaryPolygon">
<polygon points="0,0 60,0 60,60 0,60"/>
</g>
<g class="electricitySign" fill="none">
<path d="M0,0,30,37.1v-18L60,56.3"/>
</g>
<g class="Doors">
<rect height="4" width="60" y="56"/>
</g>
<g class="Direction" fill-opacity="0.9" style="display: none;">
<polygon fill="#444444" points="32.009 55.197 32.009 44.581 29 44.581 29 55.197 25.197 55.197 30.5 60 35.803 55.197 32.009 55.197"/>
</g>
<g class="Name" fill-opacity="0.9" style="display: none;">

</g>
<desc>Width:60 Height:170 Depth:60 Elevation:0</desc>
</g><g class="Column Rectangle" fill="#000000" id="Column" stroke="none" style="fill-opacity: 1;"><polygon points="822.92,541.43 822.92,512.96 886.45,512.96 886.45,541.43 "/></g><g class="FixedFurniture BaseCabinet" fill="#ffffff" stroke="#000000" style="fill-opacity: 1; stroke-opacity: 1;" transform="matrix(1,0,0,1,822.9242,541.0189)"><desc>Width:60 Height:90 Depth:60 Elevation:0</desc><g class="BoundaryPolygon"><polygon points="0.00,0.00 63.53,0.00 63.53,142.08 204.70,141.67 204.70,201.67 0.00,202.08 0.00,0.00 "/></g></g><g class="FixedFurniture BaseCabinet" fill="#ffffff" stroke="#000000" style="fill-opacity: 1; stroke-opacity: 1;" transform="matrix(0,1,-1,0,1088.3669,538.4989)">
<g class="BoundaryPolygon">
<polygon points="0.00,0.00 144.60,0.00 144.60,38.61 0.00,38.61 "/>
</g>
<g class="Direction" fill-opacity="0.9" style="display: none;">
<polygon fill="#444444" points="77.14,35.52 77.14,24.90 74.13,24.90 74.13,35.52 70.33,35.52 75.63,40.32 80.94,35.52 77.14,35.52 "/>
</g>
<g class="Name" fill-opacity="0.9" style="display: none;">

</g>
<desc>Width:60 Height:90 Depth:60 Elevation:0</desc>
</g><g class="FixedFurniture ElectricalAppliance IntegratedStove" fill="#ffffff" stroke="#000000" style="fill-opacity: 1; stroke-opacity: 1;" transform="matrix(0,-1,1,0,822.9242,596.3678)">
<g class="BoundaryPolygon" fill="none" stroke="none">
<polygon points="0.00,0.00 55.47,0.00 55.47,64.13 0.00,64.13 "/>
</g>
<g class="InnerPolygon">
<polygon points="2.00,2.00 53.62,2.00 53.62,61.99 2.00,61.99 "/>
</g>
<g class="OuterCircle">
<circle cx="14.791464600075372" cy="17.100900215868847" r="8"/>
<circle cx="40.676527650207284" cy="17.100900215868847" r="8"/>
<circle cx="14.791464600075372" cy="47.02747559363933" r="8"/>
<circle cx="40.676527650207284" cy="47.02747559363933" r="8"/>
</g>
<g class="Direction" fill-opacity="0.9" style="display: none;">
<polygon fill="#444444" points="29.59,58.99 29.59,48.38 26.58,48.38 26.58,58.99 22.78,58.99 28.08,63.80 33.39,58.99 29.59,58.99 "/>
</g>
<g class="Name" fill-opacity="0.9" style="display: none;">

</g>
<desc>Width:60 Height:90 Depth:30 Elevation:0</desc>
</g><g class="FixedFurniture ElectricalAppliance Dishwasher" fill="#ffffff" stroke="#000000" style="fill-opacity: 1; stroke-opacity: 1;" transform="matrix(0,-0.9924,1.0535,0,823.023,655.9119)">
<g class="BoundaryPolygon">
<polygon points="0,0 60,0 60,60 0,60"/>
</g>
<g class="electricitySign" fill="none">
<path d="M0,0,30,38.9v-20L60,60"/>
</g>
<g class="Handle">
<path d="M10,59.6H49.8"/>
</g>
<g class="Direction" fill-opacity="0.9" style="display: none;">
<polygon fill="#444444" points="32.009 55.197 32.009 44.581 29 44.581 29 55.197 25.197 55.197 30.5 60 35.803 55.197 32.009 55.197"/>
</g>
<g class="Name" fill-opacity="0.9" style="display: none;">

</g>
<desc>Width:60 Height:90 Depth:60 Elevation:0</desc>
</g><g class="FixedFurniture DoubleSink" fill="#ffffff" stroke="#000000" style="fill-opacity: 1; stroke-opacity: 1;" transform="matrix(0,-1,1,0,824.9344,736.9566)">
<g class="BoundaryPolygon" fill="none" stroke="none">
<polygon points="0.00,0.00 78.26,0.00 78.26,60.00 0.00,60.00 "/>
</g>
<g class="InnerPolygonLeft">
<polygon points="5.59,9.90 37.45,9.90 37.45,54.90 5.59,54.90 "/>
</g>
<g class="InnerPolygonRight">
<polygon points="40.81,10.00 72.67,10.00 72.67,55.00 40.81,55.00 "/>
</g>
<g class="OuterDrain" stroke-width="0.8">
<circle cx="22.023685812780283" cy="32.50000000000001" r="3.5"/>
<circle cx="56.12127044678022" cy="32.50000000000001" r="3.5"/>
</g>
<g class="InnerDrain" stroke-width="0.8">
<circle cx="22.023685812780283" cy="32.50000000000001" r="2"/>
<circle cx="56.12127044678022" cy="32.50000000000001" r="2"/>
</g>
<g class="Faucet">
<polygon points="35.77,4.90 41.77,4.90 41.77,18.90 35.77,18.90 "/>
</g>
<g class="Direction" fill-opacity="0.9" style="display: none;">
<polygon fill="#444444" points="40.82,54.70 40.82,44.08 37.81,44.08 37.81,54.70 34.00,54.70 39.31,60.00 44.61,54.70 40.82,54.70 "/>
</g>
<g class="Name" fill-opacity="0.9" style="display: none;">

</g>
<desc>Width:70 Height:90 Depth:60 Elevation:0</desc>
</g><g class="SelectionControls" fill="#0000ff" stroke="#0000ff" style="display: none;"><g class="rotateControl" style="display: none;"><circle cx="1200.2741066197943" cy="389.62961989790506" r="5" style="stroke : none; fill-opacity: 0.5; cursor:crosshair"/></g><g class="ResizeNControl" style="display: none;"><circle cx="0" cy="0" r="5" style="stroke : none; fill-opacity: 0.5"/></g><g class="ResizeNEControl" style="display: none;"><circle cx="0" cy="0" r="5" style="stroke : none; fill-opacity: 0.5"/></g><g class="ResizeEControl" style="display: none;"><circle cx="0" cy="0" r="5" style="stroke : none; fill-opacity: 0.5"/></g><g class="ResizeSEControl" style="display: none;"><circle cx="0" cy="0" r="5" style="stroke : none; fill-opacity: 0.5"/></g><g class="ResizeSControl" style="display: none;"><circle cx="0" cy="0" r="5" style="stroke : none; fill-opacity: 0.5"/></g><g class="ResizeSWControl" style="display: none;"><circle cx="0" cy="0" r="5" style="stroke : none; fill-opacity: 0.5"/></g><g class="ResizeWControl" style="display: none;"><circle cx="0" cy="0" r="5" style="stroke : none; fill-opacity: 0.5"/></g><g class="ResizeNWControl" style="display: none;"><circle cx="0" cy="0" r="5" style="stroke : none; fill-opacity: 0.5"/></g><g class="removeControl" style="display: none;"><polygon points="1174.90,419.63 1225.65,419.63 1225.65,460.36 1174.90,460.36 " style="stroke : none; fill-opacity: 0.1"/></g><g class="copyPasteControl" style="display: none;"><polygon style="stroke : none; fill-opacity: 0.1"/></g><g class="translateControl" style="display: none;"><polygon points="1174.90,419.63 1225.65,419.63 1225.65,460.36 1174.90,460.36 " style="stroke : none; fill-opacity: 0.1; cursor:move"/></g></g><g class="SelectionControls" fill="#0000ff" stroke="#0000ff" style="display: none;"><polygon fill="none" points="971.34,197.03 1359.56,197.03 1359.56,743.10 971.34,743.10 " stroke="#0000ff" style=""/><g class="rotateControl" style="display: none;"><circle cx="1165.4463105016303" cy="167.03236989790508" r="5" style="stroke : none; fill-opacity: 0.5; cursor:crosshair"/></g><g class="ResizeNControl" style="display: none;"><circle cx="0" cy="0" r="5" style="stroke : none; fill-opacity: 0.5"/></g><g class="ResizeNEControl" style="display: none;"><circle cx="0" cy="0" r="5" style="stroke : none; fill-opacity: 0.5"/></g><g class="ResizeEControl" style="display: none;"><circle cx="0" cy="0" r="5" style="stroke : none; fill-opacity: 0.5"/></g><g class="ResizeSEControl" style="display: none;"><circle cx="0" cy="0" r="5" style="stroke : none; fill-opacity: 0.5"/></g><g class="ResizeSControl" style="display: none;"><circle cx="0" cy="0" r="5" style="stroke : none; fill-opacity: 0.5"/></g><g class="ResizeSWControl" style="display: none;"><circle cx="0" cy="0" r="5" style="stroke : none; fill-opacity: 0.5"/></g><g class="ResizeWControl" style="display: none;"><circle cx="0" cy="0" r="5" style="stroke : none; fill-opacity: 0.5"/></g><g class="ResizeNWControl" style="display: none;"><circle cx="0" cy="0" r="5" style="stroke : none; fill-opacity: 0.5"/></g><g class="removeControl" style="display: none;"><polygon style="stroke : none; fill-opacity: 0.1"/></g><g class="copyPasteControl" style="display: none;"><polygon style="stroke : none; fill-opacity: 0.1"/></g><g class="translateControl" style="display: none;"><polygon style="stroke : none; fill-opacity: 0.1; cursor:move"/></g></g></g></g></g></svg>