<?xml version="1.0" encoding="utf-8"?>
<svg height="1193.9800109863281" id="temp" version="1.1" viewBox="0 0 1262.5699005126953 1193.9800109863281" width="1262.5699005126953" xmlns="http://www.w3.org/2000/svg" xmlns:xlink="http://www.w3.org/1999/xlink"><defs/><g class="Model v1-1" id="Model"><g class="Floor"><g class="Floorplan Floor-1" id="Floor-1"><g class="Space Outdoor Balcony" fill="#ffffff" id="a1eab6c4-1abe-4c4b-a27b-f68cdf97f575" stroke="#000000" style="fill-opacity: 1; stroke-opacity: 1; stroke-width: 1;"><polygon points="1252.47,168.36 1100.15,168.36 1100.15,537.41 1252.47,537.41 1252.47,168.36 "/><g class="Dimension" transform="matrix(1,0,0,1,1100.1542,168.3551)"><g class="Visual" style="display: none;" transform="matrix(1,0,0,1,0,0)"><g class="DimensionMark" fill="#000000" id="mark1" stroke="none" style="fill-opacity: 1; pointer-events: visible;" transform="matrix(1,0,0,1,76.1581,0)"><polygon points="-5,5,0,0,5,5"/></g><g class="DimensionMark" fill="#000000" id="mark2" stroke="none" style="fill-opacity: 1; pointer-events: visible;" transform="matrix(1,0,0,1,152.3163,184.5284)"><polygon points="-5,-5,0,0,-5,5"/></g><g class="DimensionMark" fill="#000000" id="mark3" stroke="none" style="fill-opacity: 1; pointer-events: visible;" transform="matrix(1,0,0,1,76.1581,369.0567)"><polygon points="-5,-5,0,0,5,-5"/></g><g class="DimensionMark" fill="#000000" id="mark4" stroke="none" style="fill-opacity: 1; pointer-events: visible;" transform="matrix(1,0,0,1,0,184.5284)"><polygon points="5,5,0,0,5,-5"/></g></g><g class="SpaceDimensionsLabel" transform="matrix(1,0,0,1,0.3413,170.8743)"><g class="TextLabel NameLabel" id="NameLabel" style="display: block;"/><g class="TextLabel DimensionMeasureLabel" id="DimensionMeasureLabel" style="display: none;" transform="matrix(1,0,0,1,-64.1172,78.9375)"/></g></g></g><g class="Space Closet WalkIn" fill="#ffffff" id="3082e2ac-a728-4c1b-9619-fd10aba6c0bc" stroke="#ffffff" style="fill-opacity: 1; stroke-opacity: 1; stroke-width: 1;"><polygon points="408.38,1004.69 198.30,1004.69 198.30,887.20 219.47,887.20 219.47,862.88 408.38,862.88 "/><g class="Dimension" transform="matrix(1,0,0,1,198.3024,862.8813)"><g class="Visual" style="display: none;" transform="matrix(1,0,0,1,0,0)"><g class="DimensionMark" fill="#000000" id="mark1" stroke="none" style="fill-opacity: 1; pointer-events: visible;" transform="matrix(1,0,0,1,105.0382,0)"><polygon points="-5,5,0,0,5,5"/></g><g class="DimensionMark" fill="#000000" id="mark2" stroke="none" style="fill-opacity: 1; pointer-events: visible;" transform="matrix(1,0,0,1,210.0763,70.9036)"><polygon points="-5,-5,0,0,-5,5"/></g><g class="DimensionMark" fill="#000000" id="mark3" stroke="none" style="fill-opacity: 1; pointer-events: visible;" transform="matrix(1,0,0,1,105.0382,141.8073)"><polygon points="-5,-5,0,0,5,-5"/></g><g class="DimensionMark" fill="#000000" id="mark4" stroke="none" style="fill-opacity: 1; pointer-events: visible;" transform="matrix(1,0,0,1,0,70.9036)"><polygon points="5,5,0,0,5,-5"/></g></g><g class="SpaceDimensionsLabel" style="display: block;" transform="matrix(1,0,0,1,106.636,87.5601)"><g class="TextLabel NameLabel" id="NameLabel" style="display: block;"/><g class="TextLabel DimensionMeasureLabel" id="DimensionMeasureLabel" style="display: none;" transform="matrix(1,0,0,1,-116.3047,78.9375)"/></g></g></g><g class="Space Entry Lobby" fill="#ffffff" id="a5a508a8-7094-4bad-a3cc-fc6bf69910cf" stroke="#ffffff" style="fill-opacity: 1; stroke-opacity: 1; stroke-width: 1;"><polygon points="627.91,650.91 604.77,650.91 604.77,719.04 627.91,719.04 627.91,851.18 584.29,851.18 584.29,1004.69 419.38,1004.69 419.38,553.52 509.11,553.52 509.11,537.41 627.91,537.41 "/><g class="Dimension" transform="matrix(1,0,0,1,419.3787,537.4119)"><g class="Visual" style="display: none;" transform="matrix(1,0,0,1,0,0)"><g class="DimensionMark" fill="#000000" id="mark1" stroke="none" style="fill-opacity: 1; pointer-events: visible;" transform="matrix(1,0,0,1,104.2656,0)"><polygon points="-5,5,0,0,5,5"/></g><g class="DimensionMark" fill="#000000" id="mark2" stroke="none" style="fill-opacity: 1; pointer-events: visible;" transform="matrix(1,0,0,1,208.5312,233.6384)"><polygon points="-5,-5,0,0,-5,5"/></g><g class="DimensionMark" fill="#000000" id="mark3" stroke="none" style="fill-opacity: 1; pointer-events: visible;" transform="matrix(1,0,0,1,104.2656,467.2767)"><polygon points="-5,-5,0,0,5,-5"/></g><g class="DimensionMark" fill="#000000" id="mark4" stroke="none" style="fill-opacity: 1; pointer-events: visible;" transform="matrix(1,0,0,1,0,233.6384)"><polygon points="5,5,0,0,5,-5"/></g></g><g class="SpaceDimensionsLabel" style="display: block;" transform="matrix(1,0,0,1,81.4003,235.8194)"><g class="TextLabel NameLabel" id="NameLabel" style="display: block;"/><g class="TextLabel DimensionMeasureLabel" id="DimensionMeasureLabel" style="display: none;" transform="matrix(1,0,0,1,-118.6953,78.9375)"/></g></g></g><g class="Space LivingRoom" fill="#ffffff" id="0d7a36f4-757c-4eac-89d9-e83310145477" stroke="#ffffff" style="fill-opacity: 1; stroke-opacity: 1; stroke-width: 1;"><polygon points="1077.15,537.41 509.11,537.41 509.11,169.36 1077.15,169.36 "/><g class="Dimension" transform="matrix(1,0,0,1,509.1097,169.3551)"><g class="Visual" style="display: none;" transform="matrix(1,0,0,1,0,0)"><g class="DimensionMark" fill="#000000" id="mark1" stroke="none" style="fill-opacity: 1; pointer-events: visible;" transform="matrix(1,0,0,1,284.0223,0)"><polygon points="-5,5,0,0,5,5"/></g><g class="DimensionMark" fill="#000000" id="mark2" stroke="none" style="fill-opacity: 1; pointer-events: visible;" transform="matrix(1,0,0,1,568.0445,184.0284)"><polygon points="-5,-5,0,0,-5,5"/></g><g class="DimensionMark" fill="#000000" id="mark3" stroke="none" style="fill-opacity: 1; pointer-events: visible;" transform="matrix(1,0,0,1,284.0223,368.0567)"><polygon points="-5,-5,0,0,5,-5"/></g><g class="DimensionMark" fill="#000000" id="mark4" stroke="none" style="fill-opacity: 1; pointer-events: visible;" transform="matrix(1,0,0,1,0,184.0284)"><polygon points="5,5,0,0,5,-5"/></g></g><g class="SpaceDimensionsLabel" style="display: block;" transform="matrix(1,0,0,1,271.2541,178.4233)"><g class="TextLabel NameLabel" id="NameLabel" style="display: block;"/><g class="TextLabel DimensionMeasureLabel" id="DimensionMeasureLabel" style="display: none;" transform="matrix(1,0,0,1,-114.6093,79.7969)"/></g></g></g><g class="Space Bedroom" fill="#ffffff" id="d246dc23-4d18-489c-8825-e937717c4c2b" stroke="#ffffff" style="fill-opacity: 1; stroke-opacity: 1; stroke-width: 1;"><polygon points="1077.15,851.18 638.91,851.18 638.91,548.41 1077.15,548.41 "/><g class="Dimension" transform="matrix(1,0,0,1,638.9099,548.4119)"><g class="Visual" style="display: none;" transform="matrix(1,0,0,1,0,0)"><g class="DimensionMark" fill="#000000" id="mark1" stroke="none" style="fill-opacity: 1; pointer-events: visible;" transform="matrix(1,0,0,1,219.1221,0)"><polygon points="-5,5,0,0,5,5"/></g><g class="DimensionMark" fill="#000000" id="mark2" stroke="none" style="fill-opacity: 1; pointer-events: visible;" transform="matrix(1,0,0,1,438.2443,151.3826)"><polygon points="-5,-5,0,0,-5,5"/></g><g class="DimensionMark" fill="#000000" id="mark3" stroke="none" style="fill-opacity: 1; pointer-events: visible;" transform="matrix(1,0,0,1,219.1221,302.7652)"><polygon points="-5,-5,0,0,5,-5"/></g><g class="DimensionMark" fill="#000000" id="mark4" stroke="none" style="fill-opacity: 1; pointer-events: visible;" transform="matrix(1,0,0,1,0,151.3826)"><polygon points="5,5,0,0,5,-5"/></g></g><g class="SpaceDimensionsLabel" style="display: block;" transform="matrix(1,0,0,1,209.5749,144.2774)"><g class="TextLabel NameLabel" id="NameLabel" style="display: block;"/><g class="TextLabel DimensionMeasureLabel" id="DimensionMeasureLabel" style="display: none;" transform="matrix(1,0,0,1,-113.6797,78.9375)"/></g></g></g><g class="Space Bedroom" fill="#ffffff" id="7905eb66-8ce9-491f-9645-3963b2bafe58" stroke="#ffffff" style="fill-opacity: 1; stroke-opacity: 1; stroke-width: 1;"><polygon points="1077.15,1170.98 594.29,1170.98 594.29,862.18 1077.15,862.18 "/><g class="Dimension" transform="matrix(1,0,0,1,594.286,862.1771)"><g class="Visual" style="display: none;" transform="matrix(1,0,0,1,0,0)"><g class="DimensionMark" fill="#000000" id="mark1" stroke="none" style="fill-opacity: 1; pointer-events: visible;" transform="matrix(1,0,0,1,241.4341,0)"><polygon points="-5,5,0,0,5,5"/></g><g class="DimensionMark" fill="#000000" id="mark2" stroke="none" style="fill-opacity: 1; pointer-events: visible;" transform="matrix(1,0,0,1,482.8682,154.4002)"><polygon points="-5,-5,0,0,-5,5"/></g><g class="DimensionMark" fill="#000000" id="mark3" stroke="none" style="fill-opacity: 1; pointer-events: visible;" transform="matrix(1,0,0,1,241.4341,308.8004)"><polygon points="-5,-5,0,0,5,-5"/></g><g class="DimensionMark" fill="#000000" id="mark4" stroke="none" style="fill-opacity: 1; pointer-events: visible;" transform="matrix(1,0,0,1,0,154.4002)"><polygon points="5,5,0,0,5,-5"/></g></g><g class="SpaceDimensionsLabel" style="display: block;" transform="matrix(1,0,0,1,245.3182,154.4002)"><g class="TextLabel NameLabel" id="NameLabel" style="display: block;"/><g class="TextLabel DimensionMeasureLabel" id="DimensionMeasureLabel" style="display: none;" transform="matrix(1,0,0,1,-113.6796,78.9375)"/></g></g></g><g class="Space Kitchen" fill="#ffffff" id="2a6940f3-9d3b-411d-b5d8-0613e599f71c" stroke="#ffffff" style="fill-opacity: 1; stroke-opacity: 1; stroke-width: 1;"><polygon points="498.11,542.52 198.30,542.52 198.30,169.36 498.11,169.36 "/><g class="Dimension" transform="matrix(1,0,0,1,198.3024,169.3551)"><g class="Visual" style="display: none;" transform="matrix(1,0,0,1,0,0)"><g class="DimensionMark" fill="#000000" id="mark1" stroke="none" style="fill-opacity: 1; pointer-events: visible;" transform="matrix(1,0,0,1,149.9036,0)"><polygon points="-5,5,0,0,5,5"/></g><g class="DimensionMark" fill="#000000" id="mark2" stroke="none" style="fill-opacity: 1; pointer-events: visible;" transform="matrix(1,0,0,1,299.8073,186.5832)"><polygon points="-5,-5,0,0,-5,5"/></g><g class="DimensionMark" fill="#000000" id="mark3" stroke="none" style="fill-opacity: 1; pointer-events: visible;" transform="matrix(1,0,0,1,149.9036,373.1664)"><polygon points="-5,-5,0,0,5,-5"/></g><g class="DimensionMark" fill="#000000" id="mark4" stroke="none" style="fill-opacity: 1; pointer-events: visible;" transform="matrix(1,0,0,1,0,186.5832)"><polygon points="5,5,0,0,5,-5"/></g></g><g class="SpaceDimensionsLabel" style="display: block;" transform="matrix(1,0,0,1,176.0927,181.8149)"><g class="TextLabel NameLabel" id="NameLabel" style="display: block;"/><g class="TextLabel DimensionMeasureLabel" id="DimensionMeasureLabel" style="display: none;" transform="matrix(1,0,0,1,-128.4453,78.9375)"/></g></g></g><g class="Space Bath" fill="#ffffff" id="332aa404-16cb-492d-804f-2a0c8a732199" stroke="#ffffff" style="fill-opacity: 1; stroke-opacity: 1; stroke-width: 1;"><polygon points="408.38,853.88 198.30,853.88 198.30,687.44 408.38,687.44 "/><g class="Dimension" transform="matrix(1,0,0,1,198.3024,687.4449)"><g class="Visual" style="display: none;" transform="matrix(1,0,0,1,0,0)"><g class="DimensionMark" fill="#000000" id="mark1" stroke="none" style="fill-opacity: 1; pointer-events: visible;" transform="matrix(1,0,0,1,105.0382,0)"><polygon points="-5,5,0,0,5,5"/></g><g class="DimensionMark" fill="#000000" id="mark2" stroke="none" style="fill-opacity: 1; pointer-events: visible;" transform="matrix(1,0,0,1,210.0763,83.2182)"><polygon points="-5,-5,0,0,-5,5"/></g><g class="DimensionMark" fill="#000000" id="mark3" stroke="none" style="fill-opacity: 1; pointer-events: visible;" transform="matrix(1,0,0,1,105.0382,166.4364)"><polygon points="-5,-5,0,0,5,-5"/></g><g class="DimensionMark" fill="#000000" id="mark4" stroke="none" style="fill-opacity: 1; pointer-events: visible;" transform="matrix(1,0,0,1,0,83.2182)"><polygon points="5,5,0,0,5,-5"/></g></g><g class="SpaceDimensionsLabel" style="display: block;" transform="matrix(1,0,0,1,85.4392,100.8706)"><g class="TextLabel NameLabel" id="NameLabel" style="display: block;"/><g class="TextLabel DimensionMeasureLabel" id="DimensionMeasureLabel" style="display: none;" transform="matrix(1,0,0,1,-116.1562,78.9375)"/></g></g></g><g class="Space Bath" fill="#ffffff" id="3be57727-69a8-41dd-a2f8-ddf7a5abc2da" stroke="#ffffff" style="fill-opacity: 1; stroke-opacity: 1; stroke-width: 1;"><polygon points="408.38,678.44 233.73,678.44 233.73,553.52 408.38,553.52 "/><g class="Dimension" transform="matrix(1,0,0,1,233.7311,553.5215)"><g class="Visual" style="display: none;" transform="matrix(1,0,0,1,0,0)"><g class="DimensionMark" fill="#000000" id="mark1" stroke="none" style="fill-opacity: 1; pointer-events: visible;" transform="matrix(1,0,0,1,87.3238,0)"><polygon points="-5,5,0,0,5,5"/></g><g class="DimensionMark" fill="#000000" id="mark2" stroke="none" style="fill-opacity: 1; pointer-events: visible;" transform="matrix(1,0,0,1,174.6476,62.4617)"><polygon points="-5,-5,0,0,-5,5"/></g><g class="DimensionMark" fill="#000000" id="mark3" stroke="none" style="fill-opacity: 1; pointer-events: visible;" transform="matrix(1,0,0,1,87.3238,124.9234)"><polygon points="-5,-5,0,0,5,-5"/></g><g class="DimensionMark" fill="#000000" id="mark4" stroke="none" style="fill-opacity: 1; pointer-events: visible;" transform="matrix(1,0,0,1,0,62.4617)"><polygon points="5,5,0,0,5,-5"/></g></g><g class="SpaceDimensionsLabel" style="display: block;" transform="matrix(1,0,0,1,86.8824,52.6934)"><g class="TextLabel NameLabel" id="NameLabel" style="display: block;"/><g class="TextLabel DimensionMeasureLabel" id="DimensionMeasureLabel" style="display: none;" transform="matrix(1,0,0,1,-112.1407,78.9375)"/></g></g></g><g class="Wall External" fill="#000000" id="Wall" stroke="#000000" style="fill-opacity: 1; stroke-opacity: 1; stroke-width: 1;"><polygon points="198.30,1004.69 594.29,1004.69 571.29,1027.69 175.30,1027.69 "/><g class="Door Swing Opposite" fill="#ffffff" id="Door" stroke="#000000" style="fill-opacity: 1; stroke-width: 1; stroke-opacity: 1;"><polygon points="492.55,1004.69 567.86,1004.69 567.86,1027.69 492.55,1027.69 "/><g class="Panel Right Negative" fill="none" id="Panel" style=""><g class="PanelArea" fill="none" id="PanelArea" stroke="none" style=""><polygon points="492.55,1004.69 567.86,1004.69 567.86,1027.69 492.55,1027.69 "/></g><path d="M567.86,1004.69 q0.00,-75.31 -75.31,-75.31 l0.00,75.31Z"/></g><g class="Panel Right Positive" fill="none" id="Panel" style=""><g class="PanelArea" fill="none" id="PanelArea" stroke="none" style=""><polygon points="492.55,1004.69 567.86,1004.69 567.86,1027.69 492.55,1027.69 "/></g><path d="M492.55,1027.69 q0.00,75.31 75.31,75.31 l0.00,-75.31Z"/></g></g></g><g class="Wall External" fill="#000000" id="Wall" stroke="#000000" style="fill-opacity: 1; stroke-opacity: 1; stroke-width: 1;"><polygon points="594.29,1004.69 594.29,1170.98 571.29,1193.98 571.29,1027.69 "/></g><g class="Wall External" fill="#000000" id="Wall" stroke="#000000" style="fill-opacity: 1; stroke-opacity: 1; stroke-width: 1;"><polygon points="594.29,1170.98 1077.15,1170.98 1100.15,1193.98 571.29,1193.98 "/></g><g class="Wall External" fill="#000000" id="Wall" stroke="#000000" style="fill-opacity: 1; stroke-opacity: 1; stroke-width: 1;"><polygon points="1077.15,1170.98 1077.15,169.36 1100.15,147.36 1100.15,1193.98 "/><g class="Window Regular" fill="#f0f0ff" id="Window" stroke="#000000" style="fill-opacity: 1; stroke-width: 1; stroke-opacity: 1;"><polygon points="1077.15,384.51 1077.15,206.29 1100.15,206.29 1100.15,384.51 "/><g class="Glass" id="Glass"><polygon points="1077.15,384.51 1077.15,206.29 1100.15,206.29 1100.15,384.51 "/></g><g class="Panel" id="Panel"><line x1="1088.6541915257849" x2="1088.6541915257849" y1="377.0113233089138" y2="213.78798778586406"/><line x1="1077.1541915257849" x2="1100.1541915257849" y1="377.0113233089138" y2="377.0113233089138"/><line x1="1077.1541915257849" x2="1100.1541915257849" y1="213.78798778586406" y2="213.78798778586406"/></g></g><g class="Door Swing Opposite" fill="#ffffff" id="Door" stroke="#000000" style="fill-opacity: 1; stroke-width: 1; stroke-opacity: 1;"><polygon points="1077.15,490.29 1077.15,415.02 1100.15,415.02 1100.15,490.29 "/><g class="Panel Right Negative" fill="none" id="Panel" style=""><g class="PanelArea" fill="none" id="PanelArea" stroke="none" style=""><polygon points="1077.15,490.29 1077.15,415.02 1100.15,415.02 1100.15,490.29 "/></g><path d="M1077.15,415.02 q-75.27,0.00 -75.27,75.27 l75.27,0.00Z"/></g><g class="Panel Left Positive" fill="none" id="Panel" style=""><g class="PanelArea" fill="none" id="PanelArea" stroke="none" style=""><polygon points="1077.15,490.29 1077.15,415.02 1100.15,415.02 1100.15,490.29 "/></g><path d="M1100.15,415.02 q75.27,0.00 75.27,75.27 l-75.27,0.00Z"/></g></g><g class="Window Regular" fill="#f0f0ff" id="Window" stroke="#000000" style="fill-opacity: 1; stroke-width: 1; stroke-opacity: 1;"><polygon points="1077.15,773.90 1077.15,610.55 1100.15,610.55 1100.15,773.90 "/><g class="Glass" id="Glass"><polygon points="1077.15,773.90 1077.15,610.55 1100.15,610.55 1100.15,773.90 "/></g><g class="Panel" id="Panel"><line x1="1088.654191525785" x2="1088.6541915257849" y1="766.4018150528673" y2="618.0482448851602"/><line x1="1077.154191525785" x2="1100.154191525785" y1="766.4018150528673" y2="766.4018150528673"/><line x1="1077.1541915257849" x2="1100.1541915257849" y1="618.0482448851602" y2="618.0482448851602"/></g></g><g class="Window Regular" fill="#f0f0ff" id="Window" stroke="#000000" style="fill-opacity: 1; stroke-width: 1; stroke-opacity: 1;"><polygon points="1077.15,1097.70 1077.15,924.78 1100.15,924.78 1100.15,1097.70 "/><g class="Glass" id="Glass"><polygon points="1077.15,1097.70 1077.15,924.78 1100.15,924.78 1100.15,1097.70 "/></g><g class="Panel" id="Panel"><line x1="1088.654191525785" x2="1088.654191525785" y1="1090.1975521974337" y2="932.2778197899455"/><line x1="1077.154191525785" x2="1100.154191525785" y1="1090.1975521974337" y2="1090.1975521974337"/><line x1="1077.154191525785" x2="1100.154191525785" y1="932.2778197899455" y2="932.2778197899455"/></g></g></g><g class="Wall External" fill="#000000" id="Wall" stroke="#000000" style="fill-opacity: 1; stroke-opacity: 1; stroke-width: 1;"><polygon points="1077.15,169.36 198.30,169.36 175.30,147.36 1100.15,147.36 "/><g class="Window Regular" fill="#f0f0ff" id="Window" stroke="#000000" style="fill-opacity: 1; stroke-width: 1; stroke-opacity: 1;"><polygon points="440.88,169.36 279.98,169.36 279.98,147.36 440.88,147.36 "/><g class="Glass" id="Glass"><polygon points="440.88,169.36 279.98,169.36 279.98,147.36 440.88,147.36 "/></g><g class="Panel" id="Panel"><line x1="433.3771088930707" x2="287.481108721669" y1="158.35512674917507" y2="158.3551267491751"/><line x1="433.3771088930707" x2="433.3771088930707" y1="169.35512674917507" y2="147.35512674917507"/><line x1="287.481108721669" x2="287.481108721669" y1="169.3551267491751" y2="147.3551267491751"/></g></g></g><g class="Wall External" fill="#000000" id="Wall" stroke="#000000" style="fill-opacity: 1; stroke-opacity: 1; stroke-width: 1;"><polygon points="198.30,169.36 198.30,542.52 175.30,542.52 175.30,147.36 "/></g><g class="Wall External" fill="#000000" id="Wall" stroke="#000000" style="fill-opacity: 1; stroke-opacity: 1; stroke-width: 1;"><polygon points="233.73,553.52 233.73,678.44 175.30,687.44 175.30,542.52 "/></g><g class="Wall External" fill="#000000" id="Wall" stroke="#000000" style="fill-opacity: 1; stroke-opacity: 1; stroke-width: 1;"><polygon points="198.30,687.44 198.30,1004.69 175.30,1027.69 175.30,687.44 "/></g><g class="Wall" fill="#000000" id="Wall" stroke="#000000" style="fill-opacity: 1; stroke-opacity: 1; stroke-width: 1;"><polygon points="175.30,542.52 419.38,542.52 419.38,553.52 233.73,553.52 "/></g><g class="Wall" fill="#000000" id="Wall" stroke="#000000" style="fill-opacity: 1; stroke-opacity: 1; stroke-width: 1;"><polygon points="419.38,553.52 419.38,1004.69 408.38,1004.69 408.38,553.52 "/><g class="Door Swing Beside" fill="#ffffff" id="Door" stroke="#000000" style="fill-opacity: 1; stroke-width: 1; stroke-opacity: 1;"><polygon points="419.38,585.55 419.38,637.54 408.38,637.54 408.38,585.55 "/><g class="Panel Right Negative" fill="none" id="Panel" style=""><g class="PanelArea" fill="none" id="PanelArea" stroke="none" style=""><polygon points="419.38,585.55 419.38,637.54 408.38,637.54 408.38,585.55 "/></g><path d="M419.38,637.54 q51.98,0.00 51.98,-51.98 l-51.98,0.00Z"/></g></g><g class="Door Swing Beside" fill="#ffffff" id="Door" stroke="#000000" style="fill-opacity: 1; stroke-width: 1; stroke-opacity: 1;"><polygon points="419.38,938.03 419.38,991.53 408.38,991.53 408.38,938.03 "/><g class="Panel Left Negative" fill="none" id="Panel" style=""><g class="PanelArea" fill="none" id="PanelArea" stroke="none" style=""><polygon points="419.38,938.03 419.38,991.53 408.38,991.53 408.38,938.03 "/></g><path d="M419.38,938.03 q53.51,0.00 53.51,53.51 l-53.51,0.00Z"/></g></g><g class="Door Swing Beside" fill="#ffffff" id="Door" stroke="#000000" style="fill-opacity: 1; stroke-width: 1; stroke-opacity: 1;"><polygon points="419.38,739.29 419.38,791.60 408.38,791.60 408.38,739.29 "/><g class="Panel Left Negative" fill="none" id="Panel" style=""><g class="PanelArea" fill="none" id="PanelArea" stroke="none" style=""><polygon points="419.38,739.29 419.38,791.60 408.38,791.60 408.38,739.29 "/></g><path d="M419.38,739.29 q52.31,0.00 52.31,52.31 l-52.31,0.00Z"/></g></g></g><g class="Wall" fill="#000000" id="Wall" stroke="#000000" style="fill-opacity: 1; stroke-opacity: 1; stroke-width: 1;"><polygon points="175.30,687.44 408.38,687.44 408.38,678.44 233.73,678.44 "/></g><g class="Wall" fill="#000000" id="Wall" stroke="#000000" style="fill-opacity: 1; stroke-opacity: 1; stroke-width: 1;"><polygon points="198.30,853.88 219.47,853.88 219.47,887.20 198.30,887.20 "/></g><g class="Wall" fill="#000000" id="Wall" stroke="#000000" style="fill-opacity: 1; stroke-opacity: 1; stroke-width: 1;"><polygon points="219.47,853.88 408.38,853.88 408.38,862.88 219.47,862.88 "/></g><g class="Wall" fill="#000000" id="Wall" stroke="#000000" style="fill-opacity: 1; stroke-opacity: 1; stroke-width: 1;"><polygon points="594.29,1004.69 594.29,862.18 584.29,851.18 584.29,1004.69 "/><g class="Door Swing Beside" fill="#ffffff" id="Door" stroke="#000000" style="fill-opacity: 1; stroke-width: 1; stroke-opacity: 1;"><polygon points="594.29,925.42 594.29,873.35 584.29,873.35 584.29,925.42 "/><g class="Panel Left Negative" fill="none" id="Panel" style=""><g class="PanelArea" fill="none" id="PanelArea" stroke="none" style=""><polygon points="594.29,925.42 594.29,873.35 584.29,873.35 584.29,925.42 "/></g><path d="M594.29,925.42 q52.07,0.00 52.07,-52.07 l-52.07,0.00Z"/></g></g></g><g class="Wall" fill="#000000" id="Wall" stroke="#000000" style="fill-opacity: 1; stroke-opacity: 1; stroke-width: 1;"><polygon points="584.29,851.18 1077.15,851.18 1077.15,862.18 594.29,862.18 "/></g><g class="Wall" fill="#000000" id="Wall" stroke="#000000" style="fill-opacity: 1; stroke-opacity: 1; stroke-width: 1;"><polygon points="638.91,851.18 638.91,719.04 627.91,719.04 627.91,851.18 "/></g><g class="Wall" fill="#000000" id="Wall" stroke="#000000" style="fill-opacity: 1; stroke-opacity: 1; stroke-width: 1;"><polygon points="638.91,719.04 638.91,650.91 604.77,650.91 604.77,719.04 "/></g><g class="Wall" fill="#000000" id="Wall" stroke="#000000" style="fill-opacity: 1; stroke-opacity: 1; stroke-width: 1;"><polygon points="638.91,650.91 638.91,548.41 627.91,537.41 627.91,650.91 "/><g class="Door Swing Beside" fill="#ffffff" id="Door" stroke="#000000" style="fill-opacity: 1; stroke-width: 1; stroke-opacity: 1;"><polygon points="638.91,616.97 638.91,565.56 627.91,565.56 627.91,616.97 "/><g class="Panel Left Negative" fill="none" id="Panel" style=""><g class="PanelArea" fill="none" id="PanelArea" stroke="none" style=""><polygon points="638.91,616.97 638.91,565.56 627.91,565.56 627.91,616.97 "/></g><path d="M638.91,616.97 q51.41,0.00 51.41,-51.41 l-51.41,0.00Z"/></g></g></g><g class="Wall" fill="#000000" id="Wall" stroke="#000000" style="fill-opacity: 1; stroke-opacity: 1; stroke-width: 1;"><polygon points="627.91,537.41 1077.15,537.41 1077.15,548.41 638.91,548.41 "/></g><g class="Wall" fill="#000000" id="Wall" stroke="#000000" style="fill-opacity: 1; stroke-opacity: 1; stroke-width: 1;"><polygon points="1100.15,548.41 1262.57,548.41 1262.57,537.41 1100.15,537.41 "/></g><g class="Wall" fill="#000000" id="Wall" stroke="#000000" style="fill-opacity: 1; stroke-opacity: 1; stroke-width: 1;"><polygon points="1100.15,147.36 1262.46,147.36 1262.46,168.36 1100.15,168.36 "/></g><g class="Railing" fill="#ffffff" id="Railing" stroke="#000000" style="fill-opacity: 1; stroke-opacity: 1; stroke-width: 1;"><polygon points="1262.47,168.36 1262.47,537.41 1252.47,537.41 1252.47,168.36 " style="stroke-dasharray: 0;"/></g><g class="Wall" fill="#000000" id="Wall" stroke="#000000" style="fill-opacity: 1; stroke-opacity: 1; stroke-width: 1;"><polygon points="419.38,542.52 498.11,542.52 509.11,553.52 419.38,553.52 "/><g class="Door Swing Beside" fill="#ffffff" id="Door" stroke="#000000" style="fill-opacity: 1; stroke-width: 1; stroke-opacity: 1;"><polygon points="423.92,542.52 475.62,542.52 475.62,553.52 423.92,553.52 "/><g class="Panel Left Negative" fill="none" id="Panel" style=""><g class="PanelArea" fill="none" id="PanelArea" stroke="none" style=""><polygon points="423.92,542.52 475.62,542.52 475.62,553.52 423.92,553.52 "/></g><path d="M423.92,542.52 q0.00,-51.70 51.70,-51.70 l0.00,51.70Z"/></g></g></g><g class="Wall" fill="#000000" id="Wall" stroke="#000000" style="fill-opacity: 1; stroke-opacity: 1; stroke-width: 1;"><polygon points="509.11,553.52 509.11,169.36 498.11,169.36 498.11,542.52 "/></g><g class="FixedFurniture Toilet" fill="#ffffff" stroke="#000000" style="fill-opacity: 1; stroke-opacity: 1;" transform="matrix(0,-0.9478,0.7839,0,233.7311,612.3404)">
<g class="BoundaryPolygon" fill="none" stroke="none">
<polygon points="0,0 41,0 41,71 0,71"/>
</g>
<g class="InnerPolygon">
<rect height="17.98" width="39.989" x="0.502" y="0.5"/>
<path d="M40.491,44.237S41.619,70.5,20.907,70.5C-.523,70.5.6,44.237.6,44.237L.5,18.48H40.491Z"/>
<rect height="3.03" width="6.357" x="17.318" y="7.975"/>
</g>
<desc>Width:41 Height:85 Depth:71 Elevation:0</desc>
</g><g class="FixedFurnitureSet" fill="#ffffff" id="FixedFurnitureSet" stroke="#000000" style="fill-opacity: 0.4; stroke-opacity: 0.4;" transform="matrix(-1,0,0,-1,364.5169,678.3667)"><g class="FixedFurniture BaseCabinet" fill="#ffffff" stroke="#000000" style="fill-opacity: 1; stroke-opacity: 1;" transform="matrix(1,0,0,1,0,0)">
<g class="BoundaryPolygon">
<polygon points="0.00,0.00 47.69,0.00 47.69,38.26 0.00,38.26 "/>
</g>
<g class="Direction" fill-opacity="0.9" style="display: none;">
<polygon fill="#444444" points="25.44,35.20 25.44,24.59 22.43,24.59 22.43,35.20 18.63,35.20 23.93,40.00 29.24,35.20 25.44,35.20 "/>
</g>
<g class="Name" fill-opacity="0.9" style="display: none;">

</g>
<desc>Width:60 Height:5 Depth:60 Elevation:105</desc>
</g><g class="FixedFurniture Sink" fill="#ffffff" stroke="#000000" style="fill-opacity: 1; stroke-opacity: 1;" transform="matrix(1,0,0,1,0,0)">
<g class="BoundaryPolygon" fill="none" stroke="none">
<polygon points="0.00,0.00 47.69,0.00 47.69,38.26 0.00,38.26 "/>
</g>
<g class="InnerPolygon">
<polygon points="3.97,9.70 43.72,9.70 43.72,34.88 3.97,34.88 "/>
</g>
<g class="OuterDrain" stroke-width="0.8">
<circle cx="23.84542341003195" cy="20.535169896790855" r="3.5"/>
</g>
<g class="InnerDrain" stroke-width="0.8">
<circle cx="23.84542341003195" cy="20.535169896790855" r="2"/>
</g>
<g class="Faucet">
<polygon points="21.46,3.19 27.46,3.19 27.46,17.19 21.46,17.19 "/>
</g>
<g class="Direction" fill-opacity="0.9" style="display: none;">
<polygon fill="#444444" points="25.44,35.20 25.44,24.59 22.43,24.59 22.43,35.20 18.63,35.20 23.93,40.00 29.24,35.20 25.44,35.20 "/>
</g>
<g class="Name" fill-opacity="0.9" style="display: none;">

</g>
<desc>Width:60 Height:90 Depth:60 Elevation:0</desc>
</g></g><g class="FixedFurniture Shower" fill="#ffffff" stroke="#000000" style="fill-opacity: 1; stroke-opacity: 1;" transform="matrix(1,0,0,1,212.364,687.4449)">
<g class="BoundaryPolygon" fill="none" stroke="none">
<polygon points="0,0 32,0 32,19 0,19"/>
</g>
<g class="InnerPolygon">
<rect height="6.1" width="11.2" x="3.7" y="0.5"/>
<rect height="6.1" width="11.2" x="17.6" y="0.5"/>
<rect height="6.1" width="3.4" x="28.7" y="0.5"/>
<rect height="6.1" width="3.2" x="0.5" y="0.5"/>
<path d="M14.9,8.5c0,1.5-0.4,3.3-1.6,5    c-0.4,0.6-1,1.1-1.1,1.7c-0.2,1.1,0.3,2.8,2.5,3.2c0.5,0.1,1.3,0.1,1.6,0.1h-0.1c0.3,0,1.1,0,1.6-0.1c2.2-0.4,2.7-2.1,2.5-3.2    c-0.1-0.6-0.7-1.1-1.1-1.7c-1.2-1.7-1.6-3.5-1.6-5"/>
<path d="M12.2,15.3c0.1,0.2,1.6,1.9,4.2,1.9 c2.4-0.1,3.7-1.7,3.9-1.9"/>
<path d="M14.9,0.5h2.7v8c-0.9,0-1.8,0-2.7,0l0,0 C14.9,5.9,14.9,3.2,14.9,0.5z"/>
</g>
<g class="Indicator">
<path d="M3.7,3.6C5,3.1,5.2,3,5.2,3 c0,1.1,0,0,0,1.1C5.2,4.1,5.1,4.1,3.7,3.6"/>
<path d="M28.7,3.6 C27.4,3.1,27.2,3,27.2,3c0,1.1,0,0,0,1.1C27.2,4.1,27.3,4.1,28.7,3.6"/>
</g>
<desc>Width:32 Height:97 Depth:19 Elevation:135</desc>
</g><g class="FixedFurnitureSet" fill="#ffffff" id="FixedFurnitureSet" stroke="#000000" style="fill-opacity: 0.4; stroke-opacity: 0.4;" transform="matrix(1,0,0,1,286.0486,687.4448)"><g class="FixedFurniture BaseCabinet" fill="#ffffff" stroke="#000000" style="fill-opacity: 1; stroke-opacity: 1;" transform="matrix(1,0,0,1,0,0)">
<g class="BoundaryPolygon">
<polygon points="0.00,0.00 47.89,0.00 47.89,37.98 0.00,37.98 "/>
</g>
<g class="Direction" fill-opacity="0.9" style="display: none;">
<polygon fill="#444444" points="25.55,34.94 25.55,24.32 22.54,24.32 22.54,34.94 18.73,34.94 24.04,39.74 29.34,34.94 25.55,34.94 "/>
</g>
<g class="Name" fill-opacity="0.9" style="display: none;">

</g>
<desc>Width:60 Height:5 Depth:60 Elevation:105</desc>
</g><g class="FixedFurniture Sink" fill="#ffffff" stroke="#000000" style="fill-opacity: 1; stroke-opacity: 1;" transform="matrix(1,0,0,1,0,0)">
<g class="BoundaryPolygon" fill="none" stroke="none">
<polygon points="0.00,0.00 47.89,0.00 47.89,37.98 0.00,37.98 "/>
</g>
<g class="InnerPolygon">
<polygon points="3.99,9.70 43.90,9.70 43.90,34.62 3.99,34.62 "/>
</g>
<g class="OuterDrain" stroke-width="0.8">
<circle cx="23.943429728963267" cy="20.38051134985559" r="3.5"/>
</g>
<g class="InnerDrain" stroke-width="0.8">
<circle cx="23.943429728963267" cy="20.38051134985559" r="2"/>
</g>
<g class="Faucet">
<polygon points="21.55,3.16 27.55,3.16 27.55,17.16 21.55,17.16 "/>
</g>
<g class="Direction" fill-opacity="0.9" style="display: none;">
<polygon fill="#444444" points="25.55,34.94 25.55,24.32 22.54,24.32 22.54,34.94 18.73,34.94 24.04,39.74 29.34,34.94 25.55,34.94 "/>
</g>
<g class="Name" fill-opacity="0.9" style="display: none;">

</g>
<desc>Width:60 Height:90 Depth:60 Elevation:0</desc>
</g></g><g class="FixedFurniture Closet" fill="#ffffff" stroke="#000000" style="fill-opacity: 1; stroke-opacity: 1;" transform="matrix(1,0,0,1,408.3787,862.8813)"><desc>Width:120 Height:200 Depth:60 Elevation:0</desc><g class="BoundaryPolygon"><polygon points="0.00,0.00 0.00,24.61 -158.99,24.61 -158.99,141.81 -210.08,141.81 -210.08,24.61 -188.91,24.32 -188.91,0.00 0.00,0.00 "/></g></g><g class="FixedFurniture Closet" fill="#ffffff" stroke="#000000" style="fill-opacity: 1; stroke-opacity: 1;" transform="matrix(0,1,-1,0,627.9099,719.0971)">
<g class="BoundaryPolygon">
<polygon points="0.00,0.00 132.08,0.00 132.08,33.68 0.00,33.68 "/>
</g>
<g class="Direction" fill-opacity="0.9" style="display: none;">
<polygon fill="#444444" points="69.36,30.70 69.36,20.08 66.35,20.08 66.35,30.70 62.55,30.70 67.85,36.00 73.16,30.70 69.36,30.70 "/>
</g>
<g class="Name" fill-opacity="0.9" style="display: none;">

</g>
<desc>Width:60 Height:200 Depth:60 Elevation:0</desc>
</g><g class="FixedFurniture Closet" fill="#ffffff" stroke="#000000" style="fill-opacity: 1; stroke-opacity: 1;" transform="matrix(0,1,-1,0,604.7743,651.4464)">
<g class="BoundaryPolygon">
<polygon points="0.00,0.00 67.60,0.00 67.60,40.04 0.00,40.04 "/>
</g>
<g class="Direction" fill-opacity="0.9" style="display: none;">
<polygon fill="#444444" points="35.50,36.50 35.50,25.88 32.49,25.88 32.49,36.50 28.69,36.50 33.99,41.80 39.29,36.50 35.50,36.50 "/>
</g>
<g class="Name" fill-opacity="0.9" style="display: none;">

</g>
<desc>Width:60 Height:200 Depth:60 Elevation:0</desc>
</g><g class="FixedFurniture CoatCloset" fill="#ffffff" stroke="#000000" style="fill-opacity: 1; stroke-opacity: 1;" transform="matrix(0,-1,1,0,594.4579,1170.9774)">
<g class="BoundaryPolygon">
<polygon points="0.00,0.00 120.00,0.00 120.00,49.28 0.00,49.28 "/>
</g>

<g class="Direction" fill-opacity="0.9" style="display: none;">
<polygon fill="#444444" points="61.51,44.78 61.51,34.16 58.50,34.16 58.50,44.78 54.70,44.78 60.00,50.08 65.30,44.78 61.51,44.78 "/>
</g>
<g class="Name" fill-opacity="0.9" style="display: none;">

</g>
<desc>Width:120 Height:200 Depth:60 Elevation:0</desc>
</g><g class="FixedFurniture Closet" fill="#ffffff" stroke="#000000" style="fill-opacity: 1; stroke-opacity: 1;" transform="matrix(0,-1,1,0,594.3642,1050.9774)">
<g class="BoundaryPolygon">
<polygon points="0.00,0.00 73.23,0.00 73.23,49.34 0.00,49.34 "/>
</g>
<g class="Direction" fill-opacity="0.9" style="display: none;">
<polygon fill="#444444" points="38.46,44.98 38.46,34.36 35.45,34.36 35.45,44.98 31.64,44.98 36.95,50.28 42.25,44.98 38.46,44.98 "/>
</g>
<g class="Name" fill-opacity="0.9" style="display: none;">

</g>
<desc>Width:60 Height:200 Depth:60 Elevation:0</desc>
</g><g class="FixedFurniture Housing" fill="#ffffff" stroke="#000000" style="fill-opacity: 1; stroke-opacity: 1;" transform="matrix(0,1.1841,-1,0,258.3024,169.3551)">
<g class="BoundaryPolygon">
<polygon points="0,0 10,0 10,60 0,60"/>
</g>
<g class="Name" fill-opacity="0.9" style="display: none;">

</g>
<desc>Width:60 Height:200 Depth:60 Elevation:0</desc>
</g><g class="FixedFurniture ElectricalAppliance Refrigerator" fill="#ffffff" stroke="#000000" style="fill-opacity: 1; stroke-opacity: 1;" transform="matrix(0,-0.9103,1,0,198.3961,235.8139)">
<g class="BoundaryPolygon">
<polygon points="0,0 60,0 60,60 0,60"/>
</g>
<g class="electricitySign" fill="none">
<path d="M0,0,30,37.1v-18L60,56.3"/>
</g>
<g class="Doors">
<rect height="4" width="60" y="56"/>
</g>
<g class="Direction" fill-opacity="0.9" style="display: none;">
<polygon fill="#444444" points="32.009 55.197 32.009 44.581 29 44.581 29 55.197 25.197 55.197 30.5 60 35.803 55.197 32.009 55.197"/>
</g>
<g class="Name" fill-opacity="0.9" style="display: none;">

</g>
<desc>Width:60 Height:170 Depth:60 Elevation:0</desc>
</g><g class="FixedFurniture BaseCabinet" fill="#ffffff" stroke="#000000" style="fill-opacity: 1; stroke-opacity: 1;" transform="matrix(0,-1,1,0,198.3961,542.4239)">
<g class="BoundaryPolygon">
<polygon points="0.00,0.00 306.61,0.00 306.61,60.00 0.00,60.00 "/>
</g>
<g class="Direction" fill-opacity="0.9" style="display: none;">
<polygon fill="#444444" points="163.57,55.20 163.57,44.58 160.56,44.58 160.56,55.20 156.76,55.20 162.06,60.00 167.37,55.20 163.57,55.20 "/>
</g>
<g class="Name" fill-opacity="0.9" style="display: none;">

</g>
<desc>Width:60 Height:90 Depth:60 Elevation:0</desc>
</g><g class="FixedFurniture Sink" fill="#ffffff" stroke="#000000" style="fill-opacity: 1; stroke-opacity: 1;" transform="matrix(0,-1,1,0,198.9008,487.5406)">
<g class="BoundaryPolygon" fill="none" stroke="none">
<polygon points="0.00,0.00 60.00,0.00 60.00,58.36 0.00,58.36 "/>
</g>
<g class="InnerPolygon">
<polygon points="5.00,9.70 55.00,9.70 55.00,53.20 5.00,53.20 "/>
</g>
<g class="OuterDrain" stroke-width="0.8">
<circle cx="30" cy="31.319548871307823" r="3.5"/>
</g>
<g class="InnerDrain" stroke-width="0.8">
<circle cx="30" cy="31.319548871307823" r="2"/>
</g>
<g class="Faucet">
<polygon points="27.00,4.86 33.00,4.86 33.00,18.86 27.00,18.86 "/>
</g>
<g class="Direction" fill-opacity="0.9" style="display: none;">
<polygon fill="#444444" points="32.01,53.69 32.01,43.07 29.00,43.07 29.00,53.69 25.20,53.69 30.50,58.49 35.80,53.69 32.01,53.69 "/>
</g>
<g class="Name" fill-opacity="0.9" style="display: none;">

</g>
<desc>Width:60 Height:90 Depth:60 Elevation:0</desc>
</g><g class="FixedFurniture ElectricalAppliance IntegratedStove" fill="#ffffff" stroke="#000000" style="fill-opacity: 1; stroke-opacity: 1;" transform="matrix(0,-1,1,0,198.4898,428.3625)">
<g class="BoundaryPolygon" fill="none" stroke="none">
<polygon points="0.00,0.00 66.69,0.00 66.69,59.18 0.00,59.18 "/>
</g>
<g class="InnerPolygon">
<polygon points="2.00,2.00 64.47,2.00 64.47,57.21 2.00,57.21 "/>
</g>
<g class="OuterCircle">
<circle cx="17.784631971575234" cy="15.781158897585701" r="8"/>
<circle cx="48.90773792183193" cy="15.781158897585701" r="8"/>
<circle cx="17.784631971575234" cy="43.39818696836067" r="8"/>
<circle cx="48.90773792183193" cy="43.39818696836067" r="8"/>
</g>
<g class="Direction" fill-opacity="0.9" style="display: none;">
<polygon fill="#444444" points="35.58,54.44 35.58,43.83 32.57,43.83 32.57,54.44 28.77,54.44 34.07,59.25 39.37,54.44 35.58,54.44 "/>
</g>
<g class="Name" fill-opacity="0.9" style="display: none;">

</g>
<desc>Width:60 Height:90 Depth:30 Elevation:0</desc>
</g><g class="SelectionControls" fill="#0000ff" stroke="#0000ff" style="display: none;"><g class="rotateControl" style="display: none;"><circle cx="805.7387687151453" cy="284.2940517491751" r="5" style="stroke : none; fill-opacity: 0.5; cursor:crosshair"/></g><g class="ResizeNControl" style="display: none;"><circle cx="0" cy="0" r="5" style="stroke : none; fill-opacity: 0.5"/></g><g class="ResizeNEControl" style="display: none;"><circle cx="0" cy="0" r="5" style="stroke : none; fill-opacity: 0.5"/></g><g class="ResizeEControl" style="display: none;"><circle cx="0" cy="0" r="5" style="stroke : none; fill-opacity: 0.5"/></g><g class="ResizeSEControl" style="display: none;"><circle cx="0" cy="0" r="5" style="stroke : none; fill-opacity: 0.5"/></g><g class="ResizeSControl" style="display: none;"><circle cx="0" cy="0" r="5" style="stroke : none; fill-opacity: 0.5"/></g><g class="ResizeSWControl" style="display: none;"><circle cx="0" cy="0" r="5" style="stroke : none; fill-opacity: 0.5"/></g><g class="ResizeWControl" style="display: none;"><circle cx="0" cy="0" r="5" style="stroke : none; fill-opacity: 0.5"/></g><g class="ResizeNWControl" style="display: none;"><circle cx="0" cy="0" r="5" style="stroke : none; fill-opacity: 0.5"/></g><g class="removeControl" style="display: none;"><polygon points="780.36,314.29 831.11,314.29 831.11,354.48 780.36,354.48 " style="stroke : none; fill-opacity: 0.1"/></g><g class="copyPasteControl" style="display: none;"><polygon style="stroke : none; fill-opacity: 0.1"/></g><g class="translateControl" style="display: none;"><polygon points="780.36,314.29 831.11,314.29 831.11,354.48 780.36,354.48 " style="stroke : none; fill-opacity: 0.1; cursor:move"/></g></g><g class="SelectionControls" fill="#0000ff" stroke="#0000ff" style="display: none;"><polygon fill="none" points="509.11,169.36 1077.15,169.36 1077.15,537.41 509.11,537.41 " stroke="#0000ff" style=""/><g class="rotateControl" style="display: none;"><circle cx="793.1319160295984" cy="139.35512674917504" r="5" style="stroke : none; fill-opacity: 0.5; cursor:crosshair"/></g><g class="ResizeNControl" style="display: none;"><circle cx="0" cy="0" r="5" style="stroke : none; fill-opacity: 0.5"/></g><g class="ResizeNEControl" style="display: none;"><circle cx="0" cy="0" r="5" style="stroke : none; fill-opacity: 0.5"/></g><g class="ResizeEControl" style="display: none;"><circle cx="0" cy="0" r="5" style="stroke : none; fill-opacity: 0.5"/></g><g class="ResizeSEControl" style="display: none;"><circle cx="0" cy="0" r="5" style="stroke : none; fill-opacity: 0.5"/></g><g class="ResizeSControl" style="display: none;"><circle cx="0" cy="0" r="5" style="stroke : none; fill-opacity: 0.5"/></g><g class="ResizeSWControl" style="display: none;"><circle cx="0" cy="0" r="5" style="stroke : none; fill-opacity: 0.5"/></g><g class="ResizeWControl" style="display: none;"><circle cx="0" cy="0" r="5" style="stroke : none; fill-opacity: 0.5"/></g><g class="ResizeNWControl" style="display: none;"><circle cx="0" cy="0" r="5" style="stroke : none; fill-opacity: 0.5"/></g><g class="removeControl" style="display: none;"><polygon style="stroke : none; fill-opacity: 0.1"/></g><g class="copyPasteControl" style="display: none;"><polygon style="stroke : none; fill-opacity: 0.1"/></g><g class="translateControl" style="display: none;"><polygon style="stroke : none; fill-opacity: 0.1; cursor:move"/></g></g></g></g></g></svg>