<?xml version="1.0" encoding="utf-8"?>
<svg height="954.6299951076508" id="temp" version="1.1" viewBox="0 0 1008.0744590759277 954.6299951076508" width="1008.0744590759277" xmlns="http://www.w3.org/2000/svg" xmlns:xlink="http://www.w3.org/1999/xlink"><defs/><g class="Model v1-1" id="Model"><g class="Floor"><g class="Floorplan Floor-1" id="Floor-1"><g class="Space Undefined" fill="#ffffff" id="fe9cff96-9202-4aed-a4d7-c58d9b45855d" stroke="#ffffff" style="fill-opacity: 1; stroke-opacity: 1; stroke-width: 1;"><polygon points="566.31,844.84 418.54,844.84 418.54,788.34 566.31,788.34 "/><g class="Dimension" transform="matrix(1,0,0,1,418.5422,788.3428)"><g class="Visual" style="display: none;" transform="matrix(1,0,0,1,0,0)"><g class="DimensionMark" fill="#000000" id="mark1" stroke="none" style="fill-opacity: 1; pointer-events: visible;" transform="matrix(1,0,0,1,73.8843,0)"><polygon points="-5,5,0,0,5,5"/></g><g class="DimensionMark" fill="#000000" id="mark2" stroke="none" style="fill-opacity: 1; pointer-events: visible;" transform="matrix(1,0,0,1,147.7687,28.2471)"><polygon points="-5,-5,0,0,-5,5"/></g><g class="DimensionMark" fill="#000000" id="mark3" stroke="none" style="fill-opacity: 1; pointer-events: visible;" transform="matrix(1,0,0,1,73.8843,56.4942)"><polygon points="-5,-5,0,0,5,-5"/></g><g class="DimensionMark" fill="#000000" id="mark4" stroke="none" style="fill-opacity: 1; pointer-events: visible;" transform="matrix(1,0,0,1,0,28.2471)"><polygon points="5,5,0,0,5,-5"/></g></g><g class="SpaceDimensionsLabel" transform="matrix(1,0,0,1,73.8844,28.2471)"><g class="TextLabel NameLabel" id="NameLabel" style="display: block;"/><g class="TextLabel DimensionMeasureLabel" id="DimensionMeasureLabel" style="display: none;" transform="matrix(1,0,0,1,-40.5235,80.5)"/></g></g></g><g class="Space LivingRoom" fill="#ffffff" id="b7194a8b-1d4b-4923-a404-1eb81075c41b" stroke="#ffffff" style="fill-opacity: 1; stroke-opacity: 1; stroke-width: 1;"><polygon points="724.48,844.84 576.31,844.84 576.31,777.34 418.54,777.34 418.54,553.34 467.70,553.34 467.70,543.34 403.31,543.34 403.31,445.91 467.70,445.91 467.70,432.91 393.31,432.91 393.31,264.57 724.48,264.57 "/><g class="Dimension" transform="matrix(1,0,0,1,403.3086,264.5748)"><g class="Visual" style="display: none;" transform="matrix(1,0,0,1,0,0)"><g class="DimensionMark" fill="#000000" id="mark1" stroke="none" style="fill-opacity: 1; pointer-events: visible;" transform="matrix(1,0,0,1,173.0023,0)"><polygon points="-5,5,0,0,5,5"/></g><g class="DimensionMark" fill="#000000" id="mark2" stroke="none" style="fill-opacity: 1; pointer-events: visible;" transform="matrix(1,0,0,1,321.1734,278.7645)"><polygon points="-5,-5,0,0,-5,5"/></g><g class="DimensionMark" fill="#000000" id="mark3" stroke="none" style="fill-opacity: 1; pointer-events: visible;" transform="matrix(1,0,0,1,173.0023,580.2622)"><polygon points="-5,-5,0,0,5,-5"/></g><g class="DimensionMark" fill="#000000" id="mark4" stroke="none" style="fill-opacity: 1; pointer-events: visible;" transform="matrix(1,0,0,1,0,278.7645)"><polygon points="5,5,0,0,5,-5"/></g></g><g class="SpaceDimensionsLabel" style="display: block;" transform="matrix(1,0,0,1,148.3358,296.8302)"><g class="TextLabel NameLabel" id="NameLabel" style="display: block;"/><g class="TextLabel DimensionMeasureLabel" id="DimensionMeasureLabel" style="display: none;" transform="matrix(1,0,0,1,-114.5704,79.5625)"/></g></g></g><g class="Space Kitchen" fill="#ffffff" id="9af08a86-6d84-49a5-99d5-7a8908e18cfa" stroke="#ffffff" style="fill-opacity: 1; stroke-opacity: 1; stroke-width: 1;"><polygon points="393.31,543.34 63.60,543.34 63.60,264.57 393.31,264.57 "/><g class="Dimension" transform="matrix(1,0,0,1,63.5973,264.5748)"><g class="Visual" style="display: none;" transform="matrix(1,0,0,1,0,0)"><g class="DimensionMark" fill="#000000" id="mark1" stroke="none" style="fill-opacity: 1; pointer-events: visible;" transform="matrix(1,0,0,1,164.8564,0)"><polygon points="-5,5,0,0,5,5"/></g><g class="DimensionMark" fill="#000000" id="mark2" stroke="none" style="fill-opacity: 1; pointer-events: visible;" transform="matrix(1,0,0,1,329.712,139.3823)"><polygon points="-5,-5,0,0,-5,5"/></g><g class="DimensionMark" fill="#000000" id="mark3" stroke="none" style="fill-opacity: 1; pointer-events: visible;" transform="matrix(1,0,0,1,164.8564,278.7645)"><polygon points="-5,-5,0,0,5,-5"/></g><g class="DimensionMark" fill="#000000" id="mark4" stroke="none" style="fill-opacity: 1; pointer-events: visible;" transform="matrix(1,0,0,1,0,139.3823)"><polygon points="5,5,0,0,5,-5"/></g></g><g class="SpaceDimensionsLabel" style="display: block;" transform="matrix(1,0,0,1,156.654,132.8192)"><g class="TextLabel NameLabel" id="NameLabel" style="display: block;"/><g class="TextLabel DimensionMeasureLabel" id="DimensionMeasureLabel" style="display: none;" transform="matrix(1,0,0,1,-127.7422,79.5625)"/></g></g></g><g class="Space Room" fill="#ffffff" id="7d3d04a1-c614-4d68-9b93-11ca58ee28c7" stroke="#ffffff" style="fill-opacity: 1; stroke-opacity: 1; stroke-width: 1;"><polygon points="950.83,844.84 735.48,844.84 735.48,531.18 950.83,531.18 "/><g class="Dimension" transform="matrix(1,0,0,1,735.482,531.1831)"><g class="Visual" style="display: none;" transform="matrix(1,0,0,1,0,0)"><g class="DimensionMark" fill="#000000" id="mark1" stroke="none" style="fill-opacity: 1; pointer-events: visible;" transform="matrix(1,0,0,1,107.6754,0)"><polygon points="-5,5,0,0,5,5"/></g><g class="DimensionMark" fill="#000000" id="mark2" stroke="none" style="fill-opacity: 1; pointer-events: visible;" transform="matrix(1,0,0,1,215.3507,156.827)"><polygon points="-5,-5,0,0,-5,5"/></g><g class="DimensionMark" fill="#000000" id="mark3" stroke="none" style="fill-opacity: 1; pointer-events: visible;" transform="matrix(1,0,0,1,107.6754,313.6539)"><polygon points="-5,-5,0,0,5,-5"/></g><g class="DimensionMark" fill="#000000" id="mark4" stroke="none" style="fill-opacity: 1; pointer-events: visible;" transform="matrix(1,0,0,1,0,156.827)"><polygon points="5,5,0,0,5,-5"/></g></g><g class="SpaceDimensionsLabel" style="display: block;" transform="matrix(1,0,0,1,100.6753,166.8269)"><g class="TextLabel NameLabel" id="NameLabel" style="display: block;"/><g class="TextLabel DimensionMeasureLabel" id="DimensionMeasureLabel" style="display: none;" transform="matrix(1,0,0,1,-127.5625,79.5)"/></g></g></g><g class="Space Undefined" fill="#ffffff" id="815e28b2-32d7-4cec-be7f-8cbb937f6a5e" stroke="#ffffff" style="fill-opacity: 1; stroke-opacity: 1; stroke-width: 1;"><polygon points="950.83,521.18 735.48,521.18 735.48,373.72 950.83,373.72 "/><g class="Dimension" transform="matrix(1,0,0,1,735.482,373.7168)"><g class="Visual" style="display: none;" transform="matrix(1,0,0,1,0,0)"><g class="DimensionMark" fill="#000000" id="mark1" stroke="none" style="fill-opacity: 1; pointer-events: visible;" transform="matrix(1,0,0,1,107.6754,0)"><polygon points="-5,5,0,0,5,5"/></g><g class="DimensionMark" fill="#000000" id="mark2" stroke="none" style="fill-opacity: 1; pointer-events: visible;" transform="matrix(1,0,0,1,215.3507,73.7331)"><polygon points="-5,-5,0,0,-5,5"/></g><g class="DimensionMark" fill="#000000" id="mark3" stroke="none" style="fill-opacity: 1; pointer-events: visible;" transform="matrix(1,0,0,1,107.6754,147.4663)"><polygon points="-5,-5,0,0,5,-5"/></g><g class="DimensionMark" fill="#000000" id="mark4" stroke="none" style="fill-opacity: 1; pointer-events: visible;" transform="matrix(1,0,0,1,0,73.7331)"><polygon points="5,5,0,0,5,-5"/></g></g><g class="SpaceDimensionsLabel" transform="matrix(1,0,0,1,73.7331,73.7332)"><g class="TextLabel NameLabel" id="NameLabel" style="display: block;"/><g class="TextLabel DimensionMeasureLabel" id="DimensionMeasureLabel" style="display: none;" transform="matrix(1,0,0,1,-40.5235,79.5156)"/></g></g></g><g class="Space DressingRoom" fill="#ffffff" id="65d5cce3-1f71-4d3f-a528-b4736a016570" stroke="#ffffff" style="fill-opacity: 1; stroke-opacity: 1; stroke-width: 1;"><polygon points="950.83,362.72 735.48,362.72 735.48,264.57 950.83,264.57 "/><g class="Dimension" transform="matrix(1,0,0,1,735.482,264.5748)"><g class="Visual" style="display: none;" transform="matrix(1,0,0,1,0,0)"><g class="DimensionMark" fill="#000000" id="mark1" stroke="none" style="fill-opacity: 1; pointer-events: visible;" transform="matrix(1,0,0,1,107.6754,0)"><polygon points="-5,5,0,0,5,5"/></g><g class="DimensionMark" fill="#000000" id="mark2" stroke="none" style="fill-opacity: 1; pointer-events: visible;" transform="matrix(1,0,0,1,215.3507,49.071)"><polygon points="-5,-5,0,0,-5,5"/></g><g class="DimensionMark" fill="#000000" id="mark3" stroke="none" style="fill-opacity: 1; pointer-events: visible;" transform="matrix(1,0,0,1,107.6754,98.142)"><polygon points="-5,-5,0,0,5,-5"/></g><g class="DimensionMark" fill="#000000" id="mark4" stroke="none" style="fill-opacity: 1; pointer-events: visible;" transform="matrix(1,0,0,1,0,49.071)"><polygon points="5,5,0,0,5,-5"/></g></g><g class="SpaceDimensionsLabel" style="display: block;" transform="matrix(1,0,0,1,77.8128,63.2924)"><g class="TextLabel NameLabel" id="NameLabel" style="display: block;"/><g class="TextLabel DimensionMeasureLabel" id="DimensionMeasureLabel" style="display: none;" transform="matrix(1,0,0,1,-106.2109,79.7343)"/></g></g></g><g class="Space Outdoor" fill="#ffffff" id="50bbf6b1-b544-45cd-b32b-e397a6901a9f" stroke="#000000" style="fill-opacity: 1; stroke-opacity: 1; stroke-width: 1;"><polygon points="964.83,242.57 549.76,242.57 549.76,170.02 534.16,170.02 534.16,59.50 549.76,59.50 549.76,8.51 964.83,8.51 964.83,242.57 964.83,242.57 "/><g class="Dimension" transform="matrix(1,0,0,1,534.16,8.5087)"><g class="Visual" style="display: none;" transform="matrix(1,0,0,1,0,0)"><g class="DimensionMark" fill="#000000" id="mark1" stroke="none" style="fill-opacity: 1; pointer-events: visible;" transform="matrix(1,0,0,1,215.3364,0)"><polygon points="-5,5,0,0,5,5"/></g><g class="DimensionMark" fill="#000000" id="mark2" stroke="none" style="fill-opacity: 1; pointer-events: visible;" transform="matrix(1,0,0,1,430.6727,117.033)"><polygon points="-5,-5,0,0,-5,5"/></g><g class="DimensionMark" fill="#000000" id="mark3" stroke="none" style="fill-opacity: 1; pointer-events: visible;" transform="matrix(1,0,0,1,215.3364,234.0661)"><polygon points="-5,-5,0,0,5,-5"/></g><g class="DimensionMark" fill="#000000" id="mark4" stroke="none" style="fill-opacity: 1; pointer-events: visible;" transform="matrix(1,0,0,1,0,117.033)"><polygon points="5,5,0,0,5,-5"/></g></g><g class="SpaceDimensionsLabel" transform="matrix(1,0,0,1,125.4875,110.6445)"><g class="TextLabel NameLabel" id="NameLabel" style="display: block;"/><g class="TextLabel DimensionMeasureLabel" id="DimensionMeasureLabel" style="display: none;" transform="matrix(1,0,0,1,-56.4922,80.1719)"/></g></g></g><g class="Space Room" fill="#ffffff" id="22ff7afb-eed6-4e38-a7e3-d334fbddf9f6" stroke="#ffffff" style="fill-opacity: 1; stroke-opacity: 1; stroke-width: 1;"><polygon points="407.54,844.84 63.60,844.84 63.60,553.34 407.54,553.34 "/><g class="Dimension" transform="matrix(1,0,0,1,63.5973,553.3393)"><g class="Visual" style="display: none;" transform="matrix(1,0,0,1,0,0)"><g class="DimensionMark" fill="#000000" id="mark1" stroke="none" style="fill-opacity: 1; pointer-events: visible;" transform="matrix(1,0,0,1,171.9724,0)"><polygon points="-5,5,0,0,5,5"/></g><g class="DimensionMark" fill="#000000" id="mark2" stroke="none" style="fill-opacity: 1; pointer-events: visible;" transform="matrix(1,0,0,1,343.9449,145.7489)"><polygon points="-5,-5,0,0,-5,5"/></g><g class="DimensionMark" fill="#000000" id="mark3" stroke="none" style="fill-opacity: 1; pointer-events: visible;" transform="matrix(1,0,0,1,171.9724,291.4977)"><polygon points="-5,-5,0,0,5,-5"/></g><g class="DimensionMark" fill="#000000" id="mark4" stroke="none" style="fill-opacity: 1; pointer-events: visible;" transform="matrix(1,0,0,1,0,145.7489)"><polygon points="5,5,0,0,5,-5"/></g></g><g class="SpaceDimensionsLabel" style="display: block;" transform="matrix(1,0,0,1,160.1692,160.3021)"><g class="TextLabel NameLabel" id="NameLabel" style="display: block;"/><g class="TextLabel DimensionMeasureLabel" id="DimensionMeasureLabel" style="display: none;" transform="matrix(1,0,0,1,-127.5547,78.9219)"/></g></g></g><g class="Wall External" fill="#000000" id="Wall" stroke="#000000" style="fill-opacity: 1; stroke-opacity: 1; stroke-width: 1;"><polygon points="41.60,869.84 972.83,869.84 950.83,844.84 63.60,844.84 "/><g class="Window Regular" fill="#f0f0ff" id="Window" stroke="#000000" style="fill-opacity: 1; stroke-width: 1; stroke-opacity: 1;"><polygon points="590.44,869.84 703.03,869.84 703.03,844.84 590.44,844.84 "/><g class="Glass" id="Glass"><polygon points="590.44,869.84 703.03,869.84 703.03,844.84 590.44,844.84 "/></g><g class="Panel" id="Panel"><line x1="597.9387778512319" x2="695.5326078175876" y1="857.336999031406" y2="857.336999031406"/><line x1="597.9387778512319" x2="597.9387778512319" y1="869.836999031406" y2="844.836999031406"/><line x1="695.5326078175876" x2="695.5326078175876" y1="869.836999031406" y2="844.836999031406"/></g></g><g class="Door Swing Beside" fill="#ffffff" id="Door" stroke="#000000" style="fill-opacity: 1; stroke-width: 1; stroke-opacity: 1;"><polygon points="447.26,869.84 532.06,869.84 532.06,844.84 447.26,844.84 "/><g class="Panel Left Negative" fill="none" id="Panel" style=""><g class="PanelArea" fill="none" id="PanelArea" stroke="none" style=""><polygon points="447.26,869.84 532.06,869.84 532.06,844.84 447.26,844.84 "/></g><path d="M447.26,869.84 q0.00,84.79 84.79,84.79 l0.00,-84.79Z"/></g></g><g class="Window Regular" fill="#f0f0ff" id="Window" stroke="#000000" style="fill-opacity: 1; stroke-width: 1; stroke-opacity: 1;"><polygon points="420.85,869.84 444.48,869.84 444.48,844.84 420.85,844.84 "/><g class="Glass" id="Glass"><polygon points="420.85,869.84 444.48,869.84 444.48,844.84 420.85,844.84 "/></g><g class="Panel" id="Panel"><line x1="428.35300925993056" x2="436.9838130800299" y1="857.3369990314061" y2="857.3369990314061"/><line x1="428.35300925993056" x2="428.35300925993056" y1="869.8369990314061" y2="844.8369990314061"/><line x1="436.9838130800299" x2="436.9838130800299" y1="869.8369990314061" y2="844.8369990314061"/></g></g><g class="Window Regular" fill="#f0f0ff" id="Window" stroke="#000000" style="fill-opacity: 1; stroke-width: 1; stroke-opacity: 1;"><polygon points="535.53,869.84 557.77,869.84 557.77,844.84 535.53,844.84 "/><g class="Glass" id="Glass"><polygon points="535.53,869.84 557.77,869.84 557.77,844.84 535.53,844.84 "/></g><g class="Panel" id="Panel"><line x1="543.0319101515892" x2="550.2726666881533" y1="857.336999031406" y2="857.336999031406"/><line x1="543.0319101515892" x2="543.0319101515892" y1="869.836999031406" y2="844.836999031406"/><line x1="550.2726666881533" x2="550.2726666881533" y1="869.836999031406" y2="844.836999031406"/></g></g><g class="Window Regular" fill="#f0f0ff" id="Window" stroke="#000000" style="fill-opacity: 1; stroke-width: 1; stroke-opacity: 1;"><polygon points="183.15,869.84 405.56,869.84 405.56,844.84 183.15,844.84 "/><g class="Glass" id="Glass"><polygon points="183.15,869.84 405.56,869.84 405.56,844.84 183.15,844.84 "/></g><g class="Panel" id="Panel"><line x1="190.65492377540164" x2="398.0624891410427" y1="857.3369990314061" y2="857.3369990314061"/><line x1="190.65492377540164" x2="190.65492377540164" y1="869.8369990314061" y2="844.8369990314061"/><line x1="398.0624891410427" x2="398.0624891410427" y1="869.8369990314061" y2="844.8369990314061"/></g></g></g><g class="Wall External" fill="#000000" id="Wall" stroke="#000000" style="fill-opacity: 1; stroke-opacity: 1; stroke-width: 1;"><polygon points="950.83,844.84 950.83,264.57 972.83,242.57 972.83,869.84 "/><g class="Window Regular" fill="#f0f0ff" id="Window" stroke="#000000" style="fill-opacity: 1; stroke-width: 1; stroke-opacity: 1;"><polygon points="950.83,517.98 950.83,377.58 972.83,377.58 972.83,517.98 "/><g class="Glass" id="Glass"><polygon points="950.83,517.98 950.83,377.58 972.83,377.58 972.83,517.98 "/></g><g class="Panel" id="Panel"><line x1="961.8326922358364" x2="961.8326922358364" y1="510.47756813874014" y2="385.08279250167925"/><line x1="950.8326922358364" x2="972.8326922358364" y1="510.47756813874014" y2="510.47756813874014"/><line x1="950.8326922358364" x2="972.8326922358364" y1="385.08279250167925" y2="385.08279250167925"/></g></g><g class="Window Regular" fill="#f0f0ff" id="Window" stroke="#000000" style="fill-opacity: 1; stroke-width: 1; stroke-opacity: 1;"><polygon points="950.83,767.49 950.83,621.54 972.83,621.54 972.83,767.49 "/><g class="Glass" id="Glass"><polygon points="950.83,767.49 950.83,621.54 972.83,621.54 972.83,767.49 "/></g><g class="Panel" id="Panel"><line x1="961.8326922358365" x2="961.8326922358365" y1="759.9910555333187" y2="629.0360907621167"/><line x1="950.8326922358365" x2="972.8326922358365" y1="759.9910555333187" y2="759.9910555333187"/><line x1="950.8326922358365" x2="972.8326922358365" y1="629.0360907621167" y2="629.0360907621167"/></g></g></g><g class="Wall External" fill="#000000" id="Wall" stroke="#000000" style="fill-opacity: 1; stroke-opacity: 1; stroke-width: 1;"><polygon points="950.83,264.57 63.60,264.57 41.60,242.57 972.83,242.57 "/><g class="Window Regular" fill="#f0f0ff" id="Window" stroke="#000000" style="fill-opacity: 1; stroke-width: 1; stroke-opacity: 1;"><polygon points="489.43,264.57 137.91,264.57 137.91,242.57 489.43,242.57 "/><g class="Glass" id="Glass"><polygon points="489.43,264.57 137.91,264.57 137.91,242.57 489.43,242.57 "/></g><g class="Panel" id="Panel"><line x1="481.9348551473329" x2="145.40849867677787" y1="253.57475215419532" y2="253.57475215419532"/><line x1="481.9348551473329" x2="481.9348551473329" y1="264.5747521541953" y2="242.57475215419532"/><line x1="145.40849867677787" x2="145.40849867677787" y1="264.5747521541953" y2="242.57475215419532"/></g></g><g class="Door Swing Beside" fill="#ffffff" id="Door" stroke="#000000" style="fill-opacity: 1; stroke-width: 1; stroke-opacity: 1;"><polygon points="659.94,264.57 579.32,264.57 579.32,242.57 659.94,242.57 "/><g class="Panel Left Positive" fill="none" id="Panel" style=""><g class="PanelArea" fill="none" id="PanelArea" stroke="none" style=""><polygon points="659.94,264.57 579.32,264.57 579.32,242.57 659.94,242.57 "/></g><path d="M579.32,242.57 q0.00,-80.62 80.62,-80.62 l0.00,80.62Z"/></g></g><g class="Door Swing Beside" fill="#ffffff" id="Door" stroke="#000000" style="fill-opacity: 1; stroke-width: 1; stroke-opacity: 1;"><polygon points="809.37,264.57 740.56,264.57 740.56,242.57 809.37,242.57 "/><g class="Panel Right Positive" fill="none" id="Panel" style=""><g class="PanelArea" fill="none" id="PanelArea" stroke="none" style=""><polygon points="809.37,264.57 740.56,264.57 740.56,242.57 809.37,242.57 "/></g><path d="M809.37,242.57 q0.00,-68.81 -68.81,-68.81 l0.00,68.81Z"/></g></g></g><g class="Wall External" fill="#000000" id="Wall" stroke="#000000" style="fill-opacity: 1; stroke-opacity: 1; stroke-width: 1;"><polygon points="41.60,242.57 41.60,869.84 63.60,844.84 63.60,264.57 "/><g class="Window Regular" fill="#f0f0ff" id="Window" stroke="#000000" style="fill-opacity: 1; stroke-width: 1; stroke-opacity: 1;"><polygon points="41.60,328.18 41.60,439.57 63.60,439.57 63.60,328.18 "/><g class="Glass" id="Glass"><polygon points="41.60,328.18 41.60,439.57 63.60,439.57 63.60,328.18 "/></g><g class="Panel" id="Panel"><line x1="52.597285567464596" x2="52.5972855674646" y1="335.6842971420168" y2="432.0715734737112"/><line x1="41.597285567464596" x2="63.597285567464596" y1="335.6842971420168" y2="335.6842971420168"/><line x1="41.5972855674646" x2="63.5972855674646" y1="432.0715734737112" y2="432.0715734737112"/></g></g></g><g class="Wall" fill="#000000" id="Wall" stroke="#000000" style="fill-opacity: 1; stroke-opacity: 1; stroke-width: 1;"><polygon points="724.48,844.84 724.48,264.57 735.48,264.57 735.48,844.84 "/><g class="Door Swing Beside" fill="#ffffff" id="Door" stroke="#000000" style="fill-opacity: 1; stroke-width: 1; stroke-opacity: 1;"><polygon points="724.48,768.88 724.48,691.04 735.48,691.04 735.48,768.88 "/><g class="Panel Left Positive" fill="none" id="Panel" style=""><g class="PanelArea" fill="none" id="PanelArea" stroke="none" style=""><polygon points="724.48,768.88 724.48,691.04 735.48,691.04 735.48,768.88 "/></g><path d="M735.48,691.04 q77.84,0.00 77.84,77.84 l-77.84,0.00Z"/></g></g></g><g class="Wall" fill="#000000" id="Wall" stroke="#000000" style="fill-opacity: 1; stroke-opacity: 1; stroke-width: 1;"><polygon points="735.48,362.72 950.83,362.72 950.83,373.72 735.48,373.72 "/><g class="Door Swing Beside" fill="#ffffff" id="Door" stroke="#000000" style="fill-opacity: 1; stroke-width: 1; stroke-opacity: 1;"><polygon points="742.65,362.72 808.68,362.72 808.68,373.72 742.65,373.72 "/><g class="Panel Right Negative" fill="none" id="Panel" style=""><g class="PanelArea" fill="none" id="PanelArea" stroke="none" style=""><polygon points="742.65,362.72 808.68,362.72 808.68,373.72 742.65,373.72 "/></g><path d="M808.68,362.72 q0.00,-66.03 -66.03,-66.03 l0.00,66.03Z"/></g></g></g><g class="Wall" fill="#000000" id="Wall" stroke="#000000" style="fill-opacity: 1; stroke-opacity: 1; stroke-width: 1;"><polygon points="735.48,531.18 972.83,531.18 972.83,521.18 735.48,521.18 "/></g><g class="Wall" fill="#000000" id="Wall" stroke="#000000" style="fill-opacity: 1; stroke-opacity: 1; stroke-width: 1;"><polygon points="41.60,543.34 467.70,543.34 467.70,553.34 41.60,553.34 "/></g><g class="Wall" fill="#000000" id="Wall" stroke="#000000" style="fill-opacity: 1; stroke-opacity: 1; stroke-width: 1;"><polygon points="407.54,553.34 407.54,844.84 418.54,844.84 418.54,553.34 "/><g class="Door Swing Beside" fill="#ffffff" id="Door" stroke="#000000" style="fill-opacity: 1; stroke-width: 1; stroke-opacity: 1;"><polygon points="407.54,643.08 407.54,719.53 418.54,719.53 418.54,643.08 "/><g class="Panel Left Negative" fill="none" id="Panel" style=""><g class="PanelArea" fill="none" id="PanelArea" stroke="none" style=""><polygon points="407.54,643.08 407.54,719.53 418.54,719.53 418.54,643.08 "/></g><path d="M407.54,643.08 q-76.45,0.00 -76.45,76.45 l76.45,0.00Z"/></g></g></g><g class="Wall" fill="#000000" id="Wall" stroke="#000000" style="fill-opacity: 1; stroke-opacity: 1; stroke-width: 1;"><polygon points="418.54,777.34 576.31,777.34 566.31,788.34 418.54,788.34 "/><g class="Door Swing Beside" fill="#ffffff" id="Door" stroke="#000000" style="fill-opacity: 1; stroke-width: 1; stroke-opacity: 1;"><polygon points="459.77,777.34 536.92,777.34 536.92,788.34 459.77,788.34 "/><g class="Panel Left Negative" fill="none" id="Panel" style=""><g class="PanelArea" fill="none" id="PanelArea" stroke="none" style=""><polygon points="459.77,777.34 536.92,777.34 536.92,788.34 459.77,788.34 "/></g><path d="M459.77,777.34 q0.00,-77.15 77.15,-77.15 l0.00,77.15Z"/></g></g></g><g class="Wall" fill="#000000" id="Wall" stroke="#000000" style="fill-opacity: 1; stroke-opacity: 1; stroke-width: 1;"><polygon points="576.31,777.34 576.31,844.84 566.31,844.84 566.31,788.34 "/></g><g class="Wall" fill="#000000" id="Wall" stroke="#000000" style="fill-opacity: 1; stroke-opacity: 1; stroke-width: 1;"><polygon points="393.31,553.34 393.31,432.91 403.31,445.91 403.31,553.34 "/></g><g class="Wall" fill="#000000" id="Wall" stroke="#000000" style="fill-opacity: 1; stroke-opacity: 1; stroke-width: 1;"><polygon points="393.31,432.91 467.70,432.91 467.70,445.91 403.31,445.91 "/></g><g class="Column Rectangle" fill="#000000" id="Column" stroke="none" style="fill-opacity: 1;"><polygon points="393.31,543.34 393.31,460.67 366.01,460.67 366.01,543.34 "/></g><g class="Column Rectangle" fill="#000000" id="Column" stroke="none" style="fill-opacity: 1;"><polygon points="735.48,521.18 735.48,493.13 791.00,493.13 791.00,521.18 "/></g><g class="Railing" fill="#ffffff" id="Railing" stroke="#000000" style="fill-opacity: 1; stroke-opacity: 1; stroke-width: 1;"><polygon points="972.83,242.57 972.83,0.51 964.83,8.51 964.83,242.57 " style="stroke-dasharray: 242.066, 11.3137, 242.066;"/></g><g class="Railing" fill="#ffffff" id="Railing" stroke="#000000" style="fill-opacity: 1; stroke-opacity: 1; stroke-width: 1;"><polygon points="972.83,0.51 541.76,0.51 549.76,8.51 964.83,8.51 " style="stroke-dasharray: 431.072, 11.3137, 415.072, 11.3137;"/></g><g class="Railing" fill="#ffffff" id="Railing" stroke="#000000" style="fill-opacity: 1; stroke-opacity: 1; stroke-width: 1;"><polygon points="541.76,0.51 541.76,51.50 549.76,59.50 549.76,8.51 " style="stroke-dasharray: 50.9942, 11.3137, 50.9942, 11.3137;"/></g><g class="Railing" fill="#ffffff" id="Railing" stroke="#000000" style="fill-opacity: 1; stroke-opacity: 1; stroke-width: 1;"><polygon points="549.76,59.50 433.22,59.50 433.22,51.50 541.76,51.50 " style="stroke-dasharray: 233.091, 11.3137;"/></g><g class="Railing" fill="#ffffff" id="Railing" stroke="#000000" style="fill-opacity: 1; stroke-opacity: 1; stroke-width: 1;"><polygon points="433.22,170.17 549.76,170.17 541.76,178.17 433.22,178.17 " style="stroke-dasharray: 116.545, 11.3137, 116.545;"/></g><g class="Railing" fill="#ffffff" id="Railing" stroke="#000000" style="fill-opacity: 1; stroke-opacity: 1; stroke-width: 1;"><polygon points="541.76,178.17 541.76,242.57 549.76,242.57 549.76,170.17 " style="stroke-dasharray: 144.812, 11.3137;"/></g><g class="Stairs" fill="#ffffff" id="Stairs" stroke="#000000" style="fill-opacity: 1; stroke-opacity: 1;"><g class="Flight" id="Flight"><polygon points="433.22,59.50 534.16,59.50 534.16,170.02 433.22,170.02 "/><g class="WalkinLine "><path d="M433.22,114.76 L534.16,114.76 " fill="none" stroke="#d3d3d3" style='pointer-events: none; marker-end: url("#Marker2");'/><defs><marker fill="#d3d3d3" id="Marker2" markerHeight="12" markerWidth="12" orient="auto" refX="11" refY="6" stroke="#d3d3d3" style="pointer-events: none;" viewBox="0 0 12 12"><polygon points="0.00,0.00 0.00,12.00 10.00,6.00 0.00,0.00 "/></marker></defs></g><g class="Steps" id="Steps"><line x1="433.2158848247817" x2="433.2158848247817" y1="59.50288628621044" y2="170.01652054357788"/><line x1="458.4510476780748" x2="458.4510476780748" y1="59.50288628621043" y2="170.01652054357788"/><line x1="483.686210531368" x2="483.686210531368" y1="59.502886286210426" y2="170.01652054357788"/><line x1="508.92137338466114" x2="508.92137338466114" y1="59.502886286210426" y2="170.01652054357788"/><line x1="534.1565362379542" x2="534.1565362379542" y1="59.50288628621042" y2="170.01652054357785"/></g></g></g><g class="FixedFurnitureSet" fill="#ffffff" id="FixedFurnitureSet" stroke="#000000" style="fill-opacity: 0.4; stroke-opacity: 0.4;" transform="matrix(0,1,-1,0,950.8327,373.7167)"><g class="FixedFurniture SaunaBenchHigh" fill="#ffffff" stroke="#000000" style="fill-opacity: 1; stroke-opacity: 1;" transform="matrix(1,0,0,1,0,0)">
<g class="BoundaryPolygon">
<polygon points="0.00,0.00 147.19,0.00 147.19,46.81 0.00,46.81 "/>
</g>

<g class="Direction" fill-opacity="0.9" style="display: none;">
<polygon fill="#444444" points="75.91,42.64 75.91,32.02 72.90,32.02 72.90,42.64 69.10,42.64 74.40,47.94 79.71,42.64 75.91,42.64 "/>
</g>
<g class="Name" fill-opacity="0.9" style="display: none;">

</g>
<desc>Width:185 Height:5 Depth:60 Elevation:105</desc>
</g><g class="FixedFurniture SaunaBenchMid" fill="#ffffff" stroke="#000000" style="fill-opacity: 1; stroke-opacity: 1;" transform="matrix(1,0,0,1,0,46.8079)">
<g class="BoundaryPolygon">
<polygon points="0.00,0.00 147.19,0.00 147.19,31.21 0.00,31.21 "/>
</g>

<g class="Direction" fill-opacity="0.9" style="display: none;">
<polygon fill="#444444" points="74.80,27.04 74.80,16.42 71.79,16.42 71.79,27.04 67.99,27.04 73.29,32.34 78.59,27.04 74.80,27.04 "/>
</g>
<g class="Name" fill-opacity="0.9" style="display: none;">

</g>
<desc>Width:185 Height:5 Depth:40 Elevation:60</desc>
</g><g class="FixedFurniture SaunaBenchLow" fill="#ffffff" stroke="#000000" style="fill-opacity: 1; stroke-opacity: 1;" transform="matrix(1,0,0,1,0,78.0132)">
<g class="BoundaryPolygon">
<polygon points="0.00,0.00 147.19,0.00 147.19,31.21 0.00,31.21 "/>
</g>

<g class="Direction" fill-opacity="0.9" style="display: none;">
<polygon fill="#444444" points="74.80,27.04 74.80,16.42 71.79,16.42 71.79,27.04 67.99,27.04 73.29,32.34 78.59,27.04 74.80,27.04 "/>
</g>
<g class="Name" fill-opacity="0.9" style="display: none;">

</g>
<desc>Width:185 Height:5 Depth:40 Elevation:30</desc>
</g></g><g class="FixedFurniture ElectricalAppliance SaunaStove" fill="#ffffff" stroke="#000000" style="fill-opacity: 1; stroke-opacity: 1;" transform="matrix(0,-0.8233,1.1009,0,735.4819,486.4168)">
<g class="BoundaryPolygon">
<polygon points="0,0 60,0 60,35 0,35"/>
</g>
<g class="electricitySign" fill="none">
<polyline points="0 35 39.7 17.5 21.4 17.5 60 0"/>
</g>
<g class="Direction" fill-opacity="0.9" style="display: none;">
<polygon fill="#444444" points="31.509 29.697 31.509 19.081 28.5 19.081 28.5 29.697 24.697 29.697 30 35 35.303 29.697 31.509 29.697"/>
</g>
<g class="Name" fill-opacity="0.9" style="display: none;">

</g>
<desc>Width:60 Height:60 Depth:35 Elevation:20</desc>
</g><g class="FixedFurniture Fireplace" fill="#ffffff" stroke="#000000" style="fill-opacity: 1; stroke-opacity: 1;" transform="matrix(0,-1.2885,1.0655,0,403.4584,543.1887)">
<g class="BoundaryPolygon">
<polygon points="0,0 75,0 75,60 0,60"/>
</g>
<g class="Lines" fill="none" stroke="#4c4c4c">
<line x1="0.629" x2="51.294" y1="9.556" y2="60.205"/>
<line x1="0.598" x2="35.942" y1="25.167" y2="60.5"/>
<line x1="0.5" x2="20.479" y1="40.841" y2="60.5"/>
<line x1="40.648" x2="75.432" y1="0.5" y2="35.274"/>
<line x1="8.329" x2="68.348" y1="0.5" y2="60.5"/>
<line x1="24.88" x2="75.5" y1="0.5" y2="51.104"/>
<line x1="56.774" x2="75.5" y1="0.5" y2="19.22"/>
</g>
<g class="FireBox">  &gt;	
		    <rect height="40.58" width="32.571" x="22.053" y="19.92"/>
</g>
<g class="Direction" fill-opacity="0.9" style="display: none;">
<polygon fill="#444444" points="39.409 54.797 39.409 44.181 36.4 44.181 36.4 54.797 32.597 54.797 37.9 60.1 43.203 54.797 39.409 54.797"/>
</g>
<g class="Name" fill-opacity="0.9" style="display: none;">

</g>
<desc>Width:75 Height:120 Depth:60 Elevation:0</desc>
</g><g class="FixedFurniture Closet" fill="#ffffff" stroke="#000000" style="fill-opacity: 1; stroke-opacity: 1;" transform="matrix(-1,0,0,-1,117.9673,543.3393)">
<g class="BoundaryPolygon">
<polygon points="0.00,0.00 54.37,0.00 54.37,60.00 0.00,60.00 "/>
</g>
<g class="Direction" fill-opacity="0.9" style="display: none;">
<polygon fill="#444444" points="28.55,54.70 28.55,44.08 25.54,44.08 25.54,54.70 21.74,54.70 27.04,60.00 32.35,54.70 28.55,54.70 "/>
</g>
<g class="Name" fill-opacity="0.9" style="display: none;">

</g>
<desc>Width:60 Height:200 Depth:60 Elevation:0</desc>
</g><g class="FixedFurniture BaseCabinet" fill="#ffffff" stroke="#000000" style="fill-opacity: 1; stroke-opacity: 1;" transform="matrix(-1,0,0,-1,365.8073,543.3393)">
<g class="BoundaryPolygon">
<polygon points="0.00,0.00 247.84,0.00 247.84,60.00 0.00,60.00 "/>
</g>
<g class="Direction" fill-opacity="0.9" style="display: none;">
<polygon fill="#444444" points="132.22,55.20 132.22,44.58 129.21,44.58 129.21,55.20 125.41,55.20 130.71,60.00 136.01,55.20 132.22,55.20 "/>
</g>
<g class="Name" fill-opacity="0.9" style="display: none;">

</g>
<desc>Width:60 Height:90 Depth:60 Elevation:0</desc>
</g><g class="FixedFurniture WoodStove" fill="#ffffff" stroke="#000000" style="fill-opacity: 1; stroke-opacity: 1;" transform="matrix(-1,0,0,-1,365.8073,543.3393)">
<g class="BoundaryPolygon">
<polygon points="0.00,0.00 75.87,0.00 75.87,59.53 0.00,59.53 "/>
</g>
<g class="OuterCircle">
<circle cx="21.015116168121235" cy="30.037988203114416" r="19.6"/>
<circle cx="56.82426718383687" cy="30.037988203114416" r="14.7"/>
</g>
<desc>Width:100 Height:90 Depth:65 Elevation:0</desc>
</g><g class="FixedFurniture ElectricalAppliance IntegratedStove" fill="#ffffff" stroke="#000000" style="fill-opacity: 1; stroke-opacity: 1;" transform="matrix(-1,0,0,-1,289.9405,543.3394)">
<g class="BoundaryPolygon" fill="none" stroke="none">
<polygon points="0 0 60 0 60 60 0 60"/>
</g>
<g class="InnerPolygon">
<polygon points="2,2 58,2 58,58 2,58"/>
</g>
<g class="OuterCircle">
<circle cx="16" cy="16" r="8"/>
<circle cx="44" cy="16" r="8"/>
<circle cx="16" cy="44" r="8"/>
<circle cx="44" cy="44" r="8"/>
</g>
<g class="Direction" fill-opacity="0.9" style="display: none;">
<polygon fill="#444444" points="32.009 55.197 32.009 44.581 29 44.581 29 55.197 25.197 55.197 30.5 60 35.803 55.197 32.009 55.197"/>
</g>
<g class="Name" fill-opacity="0.9" style="display: none;">

</g>
<desc>Width:60 Height:90 Depth:30 Elevation:0</desc>
</g><g class="FixedFurniture Sink" fill="#ffffff" stroke="#000000" style="fill-opacity: 1; stroke-opacity: 1;" transform="matrix(-1,0,0,-1,210.8307,543.3393)">
<g class="BoundaryPolygon" fill="none" stroke="none">
<polygon points="0.00,0.00 73.42,0.00 73.42,60.00 0.00,60.00 "/>
</g>
<g class="InnerPolygon">
<polygon points="6.12,9.70 67.30,9.70 67.30,54.70 6.12,54.70 "/>
</g>
<g class="OuterDrain" stroke-width="0.8">
<circle cx="36.710394287339014" cy="32.2" r="3.5"/>
</g>
<g class="InnerDrain" stroke-width="0.8">
<circle cx="36.710394287339014" cy="32.2" r="2"/>
</g>
<g class="Faucet">
<polygon points="33.04,5.00 39.04,5.00 39.04,19.00 33.04,19.00 "/>
</g>
<g class="Direction" fill-opacity="0.9" style="display: none;">
<polygon fill="#444444" points="39.17,55.20 39.17,44.58 36.16,44.58 36.16,55.20 32.36,55.20 37.66,60.00 42.96,55.20 39.17,55.20 "/>
</g>
<g class="Name" fill-opacity="0.9" style="display: none;">

</g>
<desc>Width:60 Height:90 Depth:60 Elevation:0</desc>
</g><g class="Stairs" fill="#ffffff" id="Stairs" stroke="#000000" style="fill-opacity: 1; stroke-opacity: 1;"><g class="Flight" id="Flight"><polygon points="418.54,935.96 418.54,874.61 555.51,874.61 555.51,935.96 "/><g class="WalkinLine "><path d="M487.02,935.96 L487.02,874.61 " fill="none" stroke="#d3d3d3" style='pointer-events: none; marker-end: url("#Marker3");'/><defs><marker fill="#d3d3d3" id="Marker3" markerHeight="12" markerWidth="12" orient="auto" refX="11" refY="6" stroke="#d3d3d3" style="pointer-events: none;" viewBox="0 0 12 12"><polygon points="0.00,0.00 0.00,12.00 10.00,6.00 0.00,0.00 "/></marker></defs></g><g class="Steps" id="Steps"><line x1="418.54215798194605" x2="555.5065449176934" y1="935.9581587673529" y2="935.9581587673529"/><line x1="418.54215798194605" x2="555.5065449176934" y1="905.2850039207125" y2="905.2850039207125"/><line x1="418.54215798194605" x2="555.5065449176934" y1="874.6118490740721" y2="874.6118490740721"/></g></g></g><g class="SelectionControls" fill="#0000ff" stroke="#0000ff" style="display: none;"><g class="rotateControl" style="display: none;"><circle cx="577.019356246333" cy="498.12370215419537" r="5" style="stroke : none; fill-opacity: 0.5; cursor:crosshair"/></g><g class="ResizeNControl" style="display: none;"><circle cx="0" cy="0" r="5" style="stroke : none; fill-opacity: 0.5"/></g><g class="ResizeNEControl" style="display: none;"><circle cx="0" cy="0" r="5" style="stroke : none; fill-opacity: 0.5"/></g><g class="ResizeEControl" style="display: none;"><circle cx="0" cy="0" r="5" style="stroke : none; fill-opacity: 0.5"/></g><g class="ResizeSEControl" style="display: none;"><circle cx="0" cy="0" r="5" style="stroke : none; fill-opacity: 0.5"/></g><g class="ResizeSControl" style="display: none;"><circle cx="0" cy="0" r="5" style="stroke : none; fill-opacity: 0.5"/></g><g class="ResizeSWControl" style="display: none;"><circle cx="0" cy="0" r="5" style="stroke : none; fill-opacity: 0.5"/></g><g class="ResizeWControl" style="display: none;"><circle cx="0" cy="0" r="5" style="stroke : none; fill-opacity: 0.5"/></g><g class="ResizeNWControl" style="display: none;"><circle cx="0" cy="0" r="5" style="stroke : none; fill-opacity: 0.5"/></g><g class="removeControl" style="display: none;"><polygon points="551.64,528.12 602.39,528.12 602.39,568.08 551.64,568.08 " style="stroke : none; fill-opacity: 0.1"/></g><g class="copyPasteControl" style="display: none;"><polygon style="stroke : none; fill-opacity: 0.1"/></g><g class="translateControl" style="display: none;"><polygon points="551.64,528.12 602.39,528.12 602.39,568.08 551.64,568.08 " style="stroke : none; fill-opacity: 0.1; cursor:move"/></g></g><g class="SelectionControls" fill="#0000ff" stroke="#0000ff" style="display: none;"><polygon fill="none" points="403.31,264.57 734.48,264.57 734.48,844.84 403.31,844.84 " stroke="#0000ff" style=""/><g class="rotateControl" style="display: none;"><circle cx="568.8945547814892" cy="234.57475215419532" r="5" style="stroke : none; fill-opacity: 0.5; cursor:crosshair"/></g><g class="ResizeNControl" style="display: none;"><circle cx="0" cy="0" r="5" style="stroke : none; fill-opacity: 0.5"/></g><g class="ResizeNEControl" style="display: none;"><circle cx="0" cy="0" r="5" style="stroke : none; fill-opacity: 0.5"/></g><g class="ResizeEControl" style="display: none;"><circle cx="0" cy="0" r="5" style="stroke : none; fill-opacity: 0.5"/></g><g class="ResizeSEControl" style="display: none;"><circle cx="0" cy="0" r="5" style="stroke : none; fill-opacity: 0.5"/></g><g class="ResizeSControl" style="display: none;"><circle cx="0" cy="0" r="5" style="stroke : none; fill-opacity: 0.5"/></g><g class="ResizeSWControl" style="display: none;"><circle cx="0" cy="0" r="5" style="stroke : none; fill-opacity: 0.5"/></g><g class="ResizeWControl" style="display: none;"><circle cx="0" cy="0" r="5" style="stroke : none; fill-opacity: 0.5"/></g><g class="ResizeNWControl" style="display: none;"><circle cx="0" cy="0" r="5" style="stroke : none; fill-opacity: 0.5"/></g><g class="removeControl" style="display: none;"><polygon style="stroke : none; fill-opacity: 0.1"/></g><g class="copyPasteControl" style="display: none;"><polygon style="stroke : none; fill-opacity: 0.1"/></g><g class="translateControl" style="display: none;"><polygon style="stroke : none; fill-opacity: 0.1; cursor:move"/></g></g></g></g></g></svg>