<?xml version="1.0" encoding="utf-8"?>
<svg height="1216.5700778961182" id="temp" version="1.1" viewBox="0 0 939.1400022506714 1216.5700778961182" width="939.1400022506714" xmlns="http://www.w3.org/2000/svg" xmlns:xlink="http://www.w3.org/1999/xlink"><defs/><g class="Model v1-1" id="Model"><g class="Floor"><g class="Floorplan Floor-1" id="Floor-1"><g class="Space Kitchen" fill="#ffffff" id="f332418e-3aec-4399-b40c-ed62cec423aa" stroke="#ffffff" style="fill-opacity: 1; stroke-opacity: 1; stroke-width: 1;"><polygon points="364.03,1125.05 17.20,1125.05 17.20,710.87 364.03,710.87 "/><g class="Dimension" transform="matrix(1,0,0,1,17.1995,710.8674)"><g class="Visual" style="display: none;" transform="matrix(1,0,0,1,0,0)"><g class="DimensionMark" fill="#000000" id="mark1" stroke="none" style="fill-opacity: 1; pointer-events: visible;" transform="matrix(1,0,0,1,173.4177,0)"><polygon points="-5,5,0,0,5,5"/></g><g class="DimensionMark" fill="#000000" id="mark2" stroke="none" style="fill-opacity: 1; pointer-events: visible;" transform="matrix(1,0,0,1,346.8354,207.09)"><polygon points="-5,-5,0,0,-5,5"/></g><g class="DimensionMark" fill="#000000" id="mark3" stroke="none" style="fill-opacity: 1; pointer-events: visible;" transform="matrix(1,0,0,1,173.4177,414.18)"><polygon points="-5,-5,0,0,5,-5"/></g><g class="DimensionMark" fill="#000000" id="mark4" stroke="none" style="fill-opacity: 1; pointer-events: visible;" transform="matrix(1,0,0,1,0,207.09)"><polygon points="5,5,0,0,5,-5"/></g></g><g class="SpaceDimensionsLabel" style="display: block;" transform="matrix(1,0,0,1,199.6685,232.3943)"><g class="TextLabel NameLabel" id="NameLabel" style="display: block;"/><g class="TextLabel DimensionMeasureLabel" id="DimensionMeasureLabel" style="display: none;" transform="matrix(1,0,0,1,-128.1953,79.7031)"/></g></g></g><g class="Space Entry Lobby" fill="#ffffff" id="f55e8d68-25a9-4fd0-980e-7f3567f16b30" stroke="#ffffff" style="fill-opacity: 1; stroke-opacity: 1; stroke-width: 1;"><polygon points="525.64,555.38 535.34,555.38 535.34,895.69 523.34,895.69 523.34,1008.97 376.03,1008.97 376.03,895.69 364.03,895.69 364.03,773.22 376.03,773.22 376.03,543.21 244.61,543.21 244.61,417.82 525.64,417.82 "/><g class="Dimension" transform="matrix(1,0,0,1,376.0348,417.8201)"><g class="Visual" style="display: none;" transform="matrix(1,0,0,1,0,0)"><g class="DimensionMark" fill="#000000" id="mark1" stroke="none" style="fill-opacity: 1; pointer-events: visible;" transform="matrix(1,0,0,1,13.9398,0)"><polygon points="-5,5,0,0,5,5"/></g><g class="DimensionMark" fill="#000000" id="mark2" stroke="none" style="fill-opacity: 1; pointer-events: visible;" transform="matrix(1,0,0,1,159.3086,295.5725)"><polygon points="-5,-5,0,0,-5,5"/></g><g class="DimensionMark" fill="#000000" id="mark3" stroke="none" style="fill-opacity: 1; pointer-events: visible;" transform="matrix(1,0,0,1,13.9398,591.1451)"><polygon points="-5,-5,0,0,5,-5"/></g><g class="DimensionMark" fill="#000000" id="mark4" stroke="none" style="fill-opacity: 1; pointer-events: visible;" transform="matrix(1,0,0,1,0,295.5725)"><polygon points="5,5,0,0,5,-5"/></g></g><g class="SpaceDimensionsLabel" style="display: block;" transform="matrix(1,0,0,1,56.3814,319.6336)"><g class="TextLabel NameLabel" id="NameLabel" style="display: block;"/><g class="TextLabel DimensionMeasureLabel" id="DimensionMeasureLabel" style="display: none;" transform="matrix(1,0,0,1,-118.7578,79.1406)"/></g></g></g><g class="Space LivingRoom" fill="#ffffff" id="6f1b9617-1c26-4e2d-a0fc-2c518b397f2a" stroke="#ffffff" style="fill-opacity: 1; stroke-opacity: 1; stroke-width: 1;"><polygon points="916.14,1125.05 535.34,1125.05 535.34,555.38 916.14,555.38 "/><g class="Dimension" transform="matrix(1,0,0,1,535.3434,555.3792)"><g class="Visual" style="display: none;" transform="matrix(1,0,0,1,0,0)"><g class="DimensionMark" fill="#000000" id="mark1" stroke="none" style="fill-opacity: 1; pointer-events: visible;" transform="matrix(1,0,0,1,190.3978,0)"><polygon points="-5,5,0,0,5,5"/></g><g class="DimensionMark" fill="#000000" id="mark2" stroke="none" style="fill-opacity: 1; pointer-events: visible;" transform="matrix(1,0,0,1,380.7955,284.8341)"><polygon points="-5,-5,0,0,-5,5"/></g><g class="DimensionMark" fill="#000000" id="mark3" stroke="none" style="fill-opacity: 1; pointer-events: visible;" transform="matrix(1,0,0,1,190.3978,569.6682)"><polygon points="-5,-5,0,0,5,-5"/></g><g class="DimensionMark" fill="#000000" id="mark4" stroke="none" style="fill-opacity: 1; pointer-events: visible;" transform="matrix(1,0,0,1,0,284.8341)"><polygon points="5,5,0,0,5,-5"/></g></g><g class="SpaceDimensionsLabel" style="display: block;" transform="matrix(1,0,0,1,183.3521,282.4458)"><g class="TextLabel NameLabel" id="NameLabel" style="display: block;"/><g class="TextLabel DimensionMeasureLabel" id="DimensionMeasureLabel" style="display: none;" transform="matrix(1,0,0,1,-114.5703,79.2031)"/></g></g></g><g class="Space Bedroom" fill="#ffffff" id="0da36d8c-5397-4228-8114-0fce7fae73a6" stroke="#ffffff" style="fill-opacity: 1; stroke-opacity: 1; stroke-width: 1;"><polygon points="916.14,543.38 537.64,543.38 537.64,46.57 916.14,46.57 "/><g class="Dimension" transform="matrix(1,0,0,1,537.6374,46.5657)"><g class="Visual" style="display: none;" transform="matrix(1,0,0,1,0,0)"><g class="DimensionMark" fill="#000000" id="mark1" stroke="none" style="fill-opacity: 1; pointer-events: visible;" transform="matrix(1,0,0,1,189.2507,0)"><polygon points="-5,5,0,0,5,5"/></g><g class="DimensionMark" fill="#000000" id="mark2" stroke="none" style="fill-opacity: 1; pointer-events: visible;" transform="matrix(1,0,0,1,378.5015,248.4067)"><polygon points="-5,-5,0,0,-5,5"/></g><g class="DimensionMark" fill="#000000" id="mark3" stroke="none" style="fill-opacity: 1; pointer-events: visible;" transform="matrix(1,0,0,1,189.2507,496.8135)"><polygon points="-5,-5,0,0,5,-5"/></g><g class="DimensionMark" fill="#000000" id="mark4" stroke="none" style="fill-opacity: 1; pointer-events: visible;" transform="matrix(1,0,0,1,0,248.4067)"><polygon points="5,5,0,0,5,-5"/></g></g><g class="SpaceDimensionsLabel" style="display: block;" transform="matrix(1,0,0,1,188.2508,247.4068)"><g class="TextLabel NameLabel" id="NameLabel" style="display: block;"/><g class="TextLabel DimensionMeasureLabel" id="DimensionMeasureLabel" style="display: none;" transform="matrix(1,0,0,1,-113.6563,79.2032)"/></g></g></g><g class="Space Bath" fill="#ffffff" id="fb63e229-ae0f-424a-a8c3-adbdcdd4cbd1" stroke="#ffffff" style="fill-opacity: 1; stroke-opacity: 1; stroke-width: 1;"><polygon points="232.61,698.87 17.20,698.87 17.20,224.65 232.61,224.65 "/><g class="Dimension" transform="matrix(1,0,0,1,17.1995,224.6511)"><g class="Visual" style="display: none;" transform="matrix(1,0,0,1,0,0)"><g class="DimensionMark" fill="#000000" id="mark1" stroke="none" style="fill-opacity: 1; pointer-events: visible;" transform="matrix(1,0,0,1,107.7032,0)"><polygon points="-5,5,0,0,5,5"/></g><g class="DimensionMark" fill="#000000" id="mark2" stroke="none" style="fill-opacity: 1; pointer-events: visible;" transform="matrix(1,0,0,1,215.4063,237.1082)"><polygon points="-5,-5,0,0,-5,5"/></g><g class="DimensionMark" fill="#000000" id="mark3" stroke="none" style="fill-opacity: 1; pointer-events: visible;" transform="matrix(1,0,0,1,107.7032,474.2163)"><polygon points="-5,-5,0,0,5,-5"/></g><g class="DimensionMark" fill="#000000" id="mark4" stroke="none" style="fill-opacity: 1; pointer-events: visible;" transform="matrix(1,0,0,1,0,237.1082)"><polygon points="5,5,0,0,5,-5"/></g></g><g class="SpaceDimensionsLabel" style="display: block;" transform="matrix(1,0,0,1,82.3988,241.0011)"><g class="TextLabel NameLabel" id="NameLabel" style="display: block;"/><g class="TextLabel DimensionMeasureLabel" id="DimensionMeasureLabel" style="display: none;" transform="matrix(1,0,0,1,-106.2266,79.8125)"/></g></g></g><g class="Space Bedroom" fill="#ffffff" id="ccc9777a-4288-46b8-8480-ce0a982bac4b" stroke="#ffffff" style="fill-opacity: 1; stroke-opacity: 1; stroke-width: 1;"><polygon points="525.64,405.82 244.61,405.82 244.61,46.57 525.64,46.57 "/><g class="Dimension" transform="matrix(1,0,0,1,244.6058,46.5657)"><g class="Visual" style="display: none;" transform="matrix(1,0,0,1,0,0)"><g class="DimensionMark" fill="#000000" id="mark1" stroke="none" style="fill-opacity: 1; pointer-events: visible;" transform="matrix(1,0,0,1,140.5158,0)"><polygon points="-5,5,0,0,5,5"/></g><g class="DimensionMark" fill="#000000" id="mark2" stroke="none" style="fill-opacity: 1; pointer-events: visible;" transform="matrix(1,0,0,1,281.0317,179.6272)"><polygon points="-5,-5,0,0,-5,5"/></g><g class="DimensionMark" fill="#000000" id="mark3" stroke="none" style="fill-opacity: 1; pointer-events: visible;" transform="matrix(1,0,0,1,140.5158,359.2544)"><polygon points="-5,-5,0,0,5,-5"/></g><g class="DimensionMark" fill="#000000" id="mark4" stroke="none" style="fill-opacity: 1; pointer-events: visible;" transform="matrix(1,0,0,1,0,179.6272)"><polygon points="5,5,0,0,5,-5"/></g></g><g class="SpaceDimensionsLabel" style="display: block;" transform="matrix(1,0,0,1,122.5465,179.6061)"><g class="TextLabel NameLabel" id="NameLabel" style="display: block;"/><g class="TextLabel DimensionMeasureLabel" id="DimensionMeasureLabel" style="display: none;" transform="matrix(1,0,0,1,-113.7031,79.8125)"/></g></g></g><g class="Space Undefined" fill="#ffffff" id="f377cbb1-2068-463a-b2cd-77a10d8c2517" stroke="#ffffff" style="fill-opacity: 1; stroke-opacity: 1; stroke-width: 1;"><polygon points="232.61,212.65 17.20,212.65 17.20,46.57 232.61,46.57 "/><g class="Dimension" transform="matrix(1,0,0,1,17.1995,46.5657)"><g class="Visual" style="display: none;" transform="matrix(1,0,0,1,0,0)"><g class="DimensionMark" fill="#000000" id="mark1" stroke="none" style="fill-opacity: 1; pointer-events: visible;" transform="matrix(1,0,0,1,107.7032,0)"><polygon points="-5,5,0,0,5,5"/></g><g class="DimensionMark" fill="#000000" id="mark2" stroke="none" style="fill-opacity: 1; pointer-events: visible;" transform="matrix(1,0,0,1,215.4063,83.0427)"><polygon points="-5,-5,0,0,-5,5"/></g><g class="DimensionMark" fill="#000000" id="mark3" stroke="none" style="fill-opacity: 1; pointer-events: visible;" transform="matrix(1,0,0,1,107.7032,166.0854)"><polygon points="-5,-5,0,0,5,-5"/></g><g class="DimensionMark" fill="#000000" id="mark4" stroke="none" style="fill-opacity: 1; pointer-events: visible;" transform="matrix(1,0,0,1,0,83.0427)"><polygon points="5,5,0,0,5,-5"/></g></g><g class="SpaceDimensionsLabel" transform="matrix(1,0,0,1,107.7031,83.0427)"><g class="TextLabel NameLabel" id="NameLabel" style="display: block;"/><g class="TextLabel DimensionMeasureLabel" id="DimensionMeasureLabel" style="display: none;" transform="matrix(1,0,0,1,-40.5156,78.75)"/></g></g></g><g class="Space Bath" fill="#ffffff" id="d78e4cb0-8b70-47a6-a977-3d86c62ca73b" stroke="#ffffff" style="fill-opacity: 1; stroke-opacity: 1; stroke-width: 1;"><polygon points="364.03,698.87 244.61,698.87 244.61,555.21 364.03,555.21 "/><g class="Dimension" transform="matrix(1,0,0,1,244.6058,555.206)"><g class="Visual" style="display: none;" transform="matrix(1,0,0,1,0,0)"><g class="DimensionMark" fill="#000000" id="mark1" stroke="none" style="fill-opacity: 1; pointer-events: visible;" transform="matrix(1,0,0,1,59.7145,0)"><polygon points="-5,5,0,0,5,5"/></g><g class="DimensionMark" fill="#000000" id="mark2" stroke="none" style="fill-opacity: 1; pointer-events: visible;" transform="matrix(1,0,0,1,119.4291,71.8307)"><polygon points="-5,-5,0,0,-5,5"/></g><g class="DimensionMark" fill="#000000" id="mark3" stroke="none" style="fill-opacity: 1; pointer-events: visible;" transform="matrix(1,0,0,1,59.7145,143.6614)"><polygon points="-5,-5,0,0,5,-5"/></g><g class="DimensionMark" fill="#000000" id="mark4" stroke="none" style="fill-opacity: 1; pointer-events: visible;" transform="matrix(1,0,0,1,0,71.8307)"><polygon points="5,5,0,0,5,-5"/></g></g><g class="SpaceDimensionsLabel" style="display: block;" transform="matrix(1,0,0,1,58.6343,91.2955)"><g class="TextLabel NameLabel" id="NameLabel" style="display: block;"/><g class="TextLabel DimensionMeasureLabel" id="DimensionMeasureLabel" style="display: none;" transform="matrix(1,0,0,1,-112.1718,79.8125)"/></g></g></g><g class="Space DraughtLobby" fill="#ffffff" id="0b3e73f3-1ce1-412c-a205-acacf3eff10b" stroke="#ffffff" style="fill-opacity: 1; stroke-opacity: 1; stroke-width: 1;"><polygon points="523.34,1125.05 376.03,1125.05 376.03,1020.97 523.34,1020.97 "/><g class="Dimension" transform="matrix(1,0,0,1,376.0348,1020.9652)"><g class="Visual" style="display: none;" transform="matrix(1,0,0,1,0,0)"><g class="DimensionMark" fill="#000000" id="mark1" stroke="none" style="fill-opacity: 1; pointer-events: visible;" transform="matrix(1,0,0,1,73.6543,0)"><polygon points="-5,5,0,0,5,5"/></g><g class="DimensionMark" fill="#000000" id="mark2" stroke="none" style="fill-opacity: 1; pointer-events: visible;" transform="matrix(1,0,0,1,147.3086,52.0411)"><polygon points="-5,-5,0,0,-5,5"/></g><g class="DimensionMark" fill="#000000" id="mark3" stroke="none" style="fill-opacity: 1; pointer-events: visible;" transform="matrix(1,0,0,1,73.6543,104.0822)"><polygon points="-5,-5,0,0,5,-5"/></g><g class="DimensionMark" fill="#000000" id="mark4" stroke="none" style="fill-opacity: 1; pointer-events: visible;" transform="matrix(1,0,0,1,0,52.0411)"><polygon points="5,5,0,0,5,-5"/></g></g><g class="SpaceDimensionsLabel" style="display: block;" transform="matrix(1,0,0,1,35.8849,95.5099)"><g class="TextLabel NameLabel" id="NameLabel" style="display: block;"/><g class="TextLabel DimensionMeasureLabel" id="DimensionMeasureLabel" style="display: none;" transform="matrix(1,0,0,1,-119.0157,79.1406)"/></g></g></g><g class="Wall External" fill="#000000" id="Wall" stroke="#000000" style="fill-opacity: 1; stroke-opacity: 1; stroke-width: 1;"><polygon points="17.20,46.57 916.14,46.57 939.14,23.57 -5.80,23.57 "/><g class="Window Regular" fill="#f0f0ff" id="Window" stroke="#000000" style="fill-opacity: 1; stroke-width: 1; stroke-opacity: 1;"><polygon points="46.11,46.57 87.35,46.57 87.35,23.57 46.11,23.57 "/><g class="Glass" id="Glass"><polygon points="46.11,46.57 87.35,46.57 87.35,23.57 46.11,23.57 "/></g><g class="Panel" id="Panel"><line x1="53.61057655739057" x2="79.8476887431604" y1="35.06568365764724" y2="35.065683657647234"/><line x1="53.61057655739057" x2="53.610576557390566" y1="46.56568365764724" y2="23.56568365764724"/><line x1="79.8476887431604" x2="79.8476887431604" y1="46.565683657647234" y2="23.565683657647234"/></g></g><g class="Window Regular" fill="#f0f0ff" id="Window" stroke="#000000" style="fill-opacity: 1; stroke-width: 1; stroke-opacity: 1;"><polygon points="279.97,46.57 458.48,46.57 458.48,23.57 279.97,23.57 "/><g class="Glass" id="Glass"><polygon points="279.97,46.57 458.48,46.57 458.48,23.57 279.97,23.57 "/></g><g class="Panel" id="Panel"><line x1="287.4684086980379" x2="450.98169697591004" y1="35.06568365764723" y2="35.06568365764721"/><line x1="287.4684086980379" x2="287.4684086980379" y1="46.56568365764723" y2="23.565683657647227"/><line x1="450.98169697591004" x2="450.98169697591004" y1="46.56568365764721" y2="23.565683657647213"/></g></g><g class="Window Regular" fill="#f0f0ff" id="Window" stroke="#000000" style="fill-opacity: 1; stroke-width: 1; stroke-opacity: 1;"><polygon points="633.74,46.57 813.34,46.57 813.34,23.57 633.74,23.57 "/><g class="Glass" id="Glass"><polygon points="633.74,46.57 813.34,46.57 813.34,23.57 633.74,23.57 "/></g><g class="Panel" id="Panel"><line x1="641.2394403079036" x2="805.8379157485591" y1="35.065683657647206" y2="35.06568365764719"/><line x1="641.2394403079036" x2="641.2394403079036" y1="46.565683657647206" y2="23.565683657647206"/><line x1="805.8379157485591" x2="805.8379157485591" y1="46.56568365764719" y2="23.56568365764719"/></g></g></g><g class="Wall External" fill="#000000" id="Wall" stroke="#000000" style="fill-opacity: 1; stroke-opacity: 1; stroke-width: 1;"><polygon points="916.14,46.57 916.14,1125.05 939.14,1148.05 939.14,23.57 "/></g><g class="Wall External" fill="#000000" id="Wall" stroke="#000000" style="fill-opacity: 1; stroke-opacity: 1; stroke-width: 1;"><polygon points="916.14,1125.05 17.20,1125.05 -5.80,1148.05 939.14,1148.05 "/><g class="Window Regular" fill="#f0f0ff" id="Window" stroke="#000000" style="fill-opacity: 1; stroke-width: 1; stroke-opacity: 1;"><polygon points="829.38,1125.05 592.66,1125.05 592.66,1148.05 829.38,1148.05 "/><g class="Glass" id="Glass"><polygon points="829.38,1125.05 592.66,1125.05 592.66,1148.05 829.38,1148.05 "/></g><g class="Panel" id="Panel"><line x1="821.8817817466496" x2="600.1587457871764" y1="1136.5474026345976" y2="1136.5474026345976"/><line x1="821.8817817466496" x2="821.8817817466496" y1="1125.0474026345976" y2="1148.0474026345976"/><line x1="600.1587457871764" x2="600.1587457871764" y1="1125.0474026345976" y2="1148.0474026345976"/></g></g><g class="Window Regular" fill="#f0f0ff" id="Window" stroke="#000000" style="fill-opacity: 1; stroke-width: 1; stroke-opacity: 1;"><polygon points="293.54,1125.05 113.97,1125.05 113.97,1148.05 293.54,1148.05 "/><g class="Glass" id="Glass"><polygon points="293.54,1125.05 113.97,1125.05 113.97,1148.05 293.54,1148.05 "/></g><g class="Panel" id="Panel"><line x1="286.03988743631976" x2="121.4733189117294" y1="1136.5474026345978" y2="1136.5474026345978"/><line x1="286.03988743631976" x2="286.03988743631976" y1="1125.0474026345978" y2="1148.0474026345978"/><line x1="121.4733189117294" x2="121.4733189117294" y1="1125.0474026345978" y2="1148.0474026345978"/></g></g><g class="Door Swing Beside" fill="#ffffff" id="Door" stroke="#000000" style="fill-opacity: 1; stroke-width: 1; stroke-opacity: 1;"><polygon points="462.72,1125.05 394.20,1125.05 394.20,1148.05 462.72,1148.05 "/><g class="Panel Right Positive" fill="none" id="Panel" style=""><g class="PanelArea" fill="none" id="PanelArea" stroke="none" style=""><polygon points="462.72,1125.05 394.20,1125.05 394.20,1148.05 462.72,1148.05 "/></g><path d="M462.72,1148.05 q0.00,68.52 -68.52,68.52 l0.00,-68.52Z"/></g></g></g><g class="Wall External" fill="#000000" id="Wall" stroke="#000000" style="fill-opacity: 1; stroke-opacity: 1; stroke-width: 1;"><polygon points="17.20,1125.05 17.20,46.57 -5.80,23.57 -5.80,1148.05 "/></g><g class="Wall" fill="#000000" id="Wall" stroke="#000000" style="fill-opacity: 1; stroke-opacity: 1; stroke-width: 1;"><polygon points="-5.80,710.87 376.03,710.87 364.03,698.87 -5.80,698.87 "/></g><g class="Wall" fill="#000000" id="Wall" stroke="#000000" style="fill-opacity: 1; stroke-opacity: 1; stroke-width: 1;"><polygon points="376.03,698.87 376.03,773.22 364.03,773.22 364.03,710.87 "/></g><g class="Wall" fill="#000000" id="Wall" stroke="#000000" style="fill-opacity: 1; stroke-opacity: 1; stroke-width: 1;"><polygon points="376.03,710.87 376.03,543.21 364.03,555.21 364.03,698.87 "/></g><g class="Wall" fill="#000000" id="Wall" stroke="#000000" style="fill-opacity: 1; stroke-opacity: 1; stroke-width: 1;"><polygon points="376.03,543.21 232.61,543.21 232.61,555.21 364.03,555.21 "/><g class="Door Swing Beside" fill="#ffffff" id="Door" stroke="#000000" style="fill-opacity: 1; stroke-width: 1; stroke-opacity: 1;"><polygon points="313.39,543.21 262.26,543.21 262.26,555.21 313.39,555.21 "/><g class="Panel Left Negative" fill="none" id="Panel" style=""><g class="PanelArea" fill="none" id="PanelArea" stroke="none" style=""><polygon points="313.39,543.21 262.26,543.21 262.26,555.21 313.39,555.21 "/></g><path d="M313.39,543.21 q0.00,-51.13 -51.13,-51.13 l0.00,51.13Z"/></g></g></g><g class="Wall" fill="#000000" id="Wall" stroke="#000000" style="fill-opacity: 1; stroke-opacity: 1; stroke-width: 1;"><polygon points="232.61,543.21 232.61,710.87 244.61,710.87 244.61,543.21 "/></g><g class="Wall" fill="#000000" id="Wall" stroke="#000000" style="fill-opacity: 1; stroke-opacity: 1; stroke-width: 1;"><polygon points="232.61,543.21 232.61,23.57 244.61,23.57 244.61,543.21 "/><g class="Door Swing Beside" fill="#ffffff" id="Door" stroke="#000000" style="fill-opacity: 1; stroke-width: 1; stroke-opacity: 1;"><polygon points="232.61,517.41 232.61,448.75 244.61,448.75 244.61,517.41 "/><g class="Panel Right Positive" fill="none" id="Panel" style=""><g class="PanelArea" fill="none" id="PanelArea" stroke="none" style=""><polygon points="232.61,517.41 232.61,448.75 244.61,448.75 244.61,517.41 "/></g><path d="M244.61,517.41 q68.67,0.00 68.67,-68.67 l-68.67,0.00Z"/></g></g></g><g class="Wall" fill="#000000" id="Wall" stroke="#000000" style="fill-opacity: 1; stroke-opacity: 1; stroke-width: 1;"><polygon points="-5.80,224.65 244.61,224.65 244.61,212.65 -5.80,212.65 "/><g class="Door Swing Beside" fill="#ffffff" id="Door" stroke="#000000" style="fill-opacity: 1; stroke-width: 1; stroke-opacity: 1;"><polygon points="141.59,224.65 209.40,224.65 209.40,212.65 141.59,212.65 "/><g class="Panel Left Negative" fill="none" id="Panel" style=""><g class="PanelArea" fill="none" id="PanelArea" stroke="none" style=""><polygon points="141.59,224.65 209.40,224.65 209.40,212.65 141.59,212.65 "/></g><path d="M141.59,224.65 q0.00,67.81 67.81,67.81 l0.00,-67.81Z"/></g></g></g><g class="Wall" fill="#000000" id="Wall" stroke="#000000" style="fill-opacity: 1; stroke-opacity: 1; stroke-width: 1;"><polygon points="525.64,23.57 525.64,555.38 537.64,543.38 537.64,23.57 "/><g class="Door Swing Beside" fill="#ffffff" id="Door" stroke="#000000" style="fill-opacity: 1; stroke-width: 1; stroke-opacity: 1;"><polygon points="525.64,444.85 525.64,513.42 537.64,513.42 537.64,444.85 "/><g class="Panel Left Positive" fill="none" id="Panel" style=""><g class="PanelArea" fill="none" id="PanelArea" stroke="none" style=""><polygon points="525.64,444.85 525.64,513.42 537.64,513.42 537.64,444.85 "/></g><path d="M537.64,513.42 q68.57,0.00 68.57,-68.57 l-68.57,0.00Z"/></g></g></g><g class="Wall" fill="#000000" id="Wall" stroke="#000000" style="fill-opacity: 1; stroke-opacity: 1; stroke-width: 1;"><polygon points="525.64,555.38 939.14,555.38 939.14,543.38 537.64,543.38 "/></g><g class="Wall" fill="#000000" id="Wall" stroke="#000000" style="fill-opacity: 1; stroke-opacity: 1; stroke-width: 1;"><polygon points="364.03,895.69 364.03,1148.05 376.03,1148.05 376.03,895.69 "/></g><g class="Wall" fill="#000000" id="Wall" stroke="#000000" style="fill-opacity: 1; stroke-opacity: 1; stroke-width: 1;"><polygon points="523.34,895.69 523.34,1148.05 535.34,1148.05 535.34,895.69 "/></g><g class="Wall" fill="#000000" id="Wall" stroke="#000000" style="fill-opacity: 1; stroke-opacity: 1; stroke-width: 1;"><polygon points="364.03,1020.97 535.34,1020.97 535.34,1008.97 364.03,1008.97 "/><g class="Door Swing Beside" fill="#ffffff" id="Door" stroke="#000000" style="fill-opacity: 1; stroke-width: 1; stroke-opacity: 1;"><polygon points="390.38,1020.97 457.81,1020.97 457.81,1008.97 390.38,1008.97 "/><g class="Panel Right Negative" fill="none" id="Panel" style=""><g class="PanelArea" fill="none" id="PanelArea" stroke="none" style=""><polygon points="390.38,1020.97 457.81,1020.97 457.81,1008.97 390.38,1008.97 "/></g><path d="M457.81,1020.97 q0.00,67.43 -67.43,67.43 l0.00,-67.43Z"/></g></g></g><g class="Wall" fill="#000000" id="Wall" stroke="#000000" style="fill-opacity: 1; stroke-opacity: 1; stroke-width: 1;"><polygon points="232.61,417.82 537.64,417.82 537.64,405.82 232.61,405.82 "/><g class="Door Swing Beside" fill="#ffffff" id="Door" stroke="#000000" style="fill-opacity: 1; stroke-width: 1; stroke-opacity: 1;"><polygon points="360.70,417.82 427.78,417.82 427.78,405.82 360.70,405.82 "/><g class="Panel Right Positive" fill="none" id="Panel" style=""><g class="PanelArea" fill="none" id="PanelArea" stroke="none" style=""><polygon points="360.70,417.82 427.78,417.82 427.78,405.82 360.70,405.82 "/></g><path d="M360.70,405.82 q0.00,-67.08 67.08,-67.08 l0.00,67.08Z"/></g></g></g><g class="FixedFurniture Closet" fill="#ffffff" stroke="#000000" style="fill-opacity: 1; stroke-opacity: 1;" transform="matrix(1,0,0,1,302.2448,710.8674)">
<g class="BoundaryPolygon">
<polygon points="0.00,0.00 61.79,0.00 61.79,60.00 0.00,60.00 "/>
</g>
<g class="Direction" fill-opacity="0.9" style="display: none;">
<polygon fill="#444444" points="32.45,54.70 32.45,44.08 29.44,44.08 29.44,54.70 25.64,54.70 30.94,60.00 36.24,54.70 32.45,54.70 "/>
</g>
<g class="Name" fill-opacity="0.9" style="display: none;">

</g>
<desc>Width:60 Height:200 Depth:60 Elevation:0</desc>
</g><g class="FixedFurniture ElectricalAppliance Refrigerator" fill="#ffffff" stroke="#000000" style="fill-opacity: 1; stroke-opacity: 1;" transform="matrix(1.0224,0,0,1,240.9008,710.8674)">
<g class="BoundaryPolygon">
<polygon points="0,0 60,0 60,60 0,60"/>
</g>
<g class="electricitySign" fill="none">
<path d="M0,0,30,37.1v-18L60,56.3"/>
</g>
<g class="Doors">
<rect height="4" width="60" y="56"/>
</g>
<g class="Direction" fill-opacity="0.9" style="display: none;">
<polygon fill="#444444" points="32.009 55.197 32.009 44.581 29 44.581 29 55.197 25.197 55.197 30.5 60 35.803 55.197 32.009 55.197"/>
</g>
<g class="Name" fill-opacity="0.9" style="display: none;">

</g>
<desc>Width:60 Height:170 Depth:60 Elevation:0</desc>
</g><g class="FixedFurniture ElectricalAppliance" fill="#ffffff" stroke="#000000" style="fill-opacity: 1; stroke-opacity: 1;" transform="matrix(1.028,0,0,1,179.2209,710.8674)">
<g class="BoundaryPolygon">
<polygon points="0,0 60,0 60,60 0,60"/>
</g>
<g class="electricitySign" fill="none">
<path d="M0,0,30.1,39.8V19.4L59.9,60"/>
</g>
<g class="Direction" fill-opacity="0.9" style="display: none;">
<polygon fill="#444444" points="32.009 55.197 32.009 44.581 29 44.581 29 55.197 25.197 55.197 30.5 60 35.803 55.197 32.009 55.197"/>
</g>
<g class="Name" fill-opacity="0.9" style="display: none;">

</g>
<desc>Width:60 Height:200 Depth:60 Elevation:0</desc>
</g><g class="FixedFurniture Closet" fill="#ffffff" stroke="#000000" style="fill-opacity: 1; stroke-opacity: 1;" transform="matrix(0,-1,1,0,17.262,1125.0474)">
<g class="BoundaryPolygon">
<polygon points="0.00,0.00 62.01,0.00 62.01,60.00 0.00,60.00 "/>
</g>
<g class="Direction" fill-opacity="0.9" style="display: none;">
<polygon fill="#444444" points="32.57,54.70 32.57,44.08 29.56,44.08 29.56,54.70 25.75,54.70 31.06,60.00 36.36,54.70 32.57,54.70 "/>
</g>
<g class="Name" fill-opacity="0.9" style="display: none;">

</g>
<desc>Width:60 Height:200 Depth:60 Elevation:0</desc>
</g><g class="FixedFurniture BaseCabinet" fill="#ffffff" stroke="#000000" style="fill-opacity: 1; stroke-opacity: 1;" transform="matrix(1,0,0,1,77.3245,1063.0374)"><desc>Width:60 Height:90 Depth:60 Elevation:0</desc><g class="BoundaryPolygon"><polygon points="0.00,0.00 -0.00,-292.17 101.90,-292.17 101.90,-352.17 -60.10,-352.17 -60.06,0.00 0.00,0.00 "/></g></g><g class="FixedFurniture ElectricalAppliance IntegratedStove" fill="#ffffff" stroke="#000000" style="fill-opacity: 1; stroke-opacity: 1;" transform="matrix(0,-1,1,0,17.4416,870.8329)">
<g class="BoundaryPolygon" fill="none" stroke="none">
<polygon points="0.00,0.00 65.51,0.00 65.51,60.00 0.00,60.00 "/>
</g>
<g class="InnerPolygon">
<polygon points="2.00,2.00 63.32,2.00 63.32,58.00 2.00,58.00 "/>
</g>
<g class="OuterCircle">
<circle cx="17.4688492659086" cy="16" r="8"/>
<circle cx="48.03933548124867" cy="16" r="8"/>
<circle cx="17.4688492659086" cy="44" r="8"/>
<circle cx="48.03933548124867" cy="44" r="8"/>
</g>
<g class="Direction" fill-opacity="0.9" style="display: none;">
<polygon fill="#444444" points="34.95,55.20 34.95,44.58 31.94,44.58 31.94,55.20 28.14,55.20 33.44,60.00 38.74,55.20 34.95,55.20 "/>
</g>
<g class="Name" fill-opacity="0.9" style="display: none;">

</g>
<desc>Width:60 Height:90 Depth:30 Elevation:0</desc>
</g><g class="FixedFurniture DoubleSink" fill="#ffffff" stroke="#000000" style="fill-opacity: 1; stroke-opacity: 1;" transform="matrix(1,0,0,1,91.2246,710.8674)">
<g class="BoundaryPolygon" fill="none" stroke="none">
<polygon points="0.00,0.00 86.36,0.00 86.36,60.00 0.00,60.00 "/>
</g>
<g class="InnerPolygonLeft">
<polygon points="6.17,9.90 41.33,9.90 41.33,54.90 6.17,54.90 "/>
</g>
<g class="InnerPolygonRight">
<polygon points="45.03,10.00 80.19,10.00 80.19,55.00 45.03,55.00 "/>
</g>
<g class="OuterDrain" stroke-width="0.8">
<circle cx="24.304649439989635" cy="32.5" r="3.5"/>
<circle cx="61.933675222714704" cy="32.5" r="3.5"/>
</g>
<g class="InnerDrain" stroke-width="0.8">
<circle cx="24.304649439989635" cy="32.5" r="2"/>
<circle cx="61.933675222714704" cy="32.5" r="2"/>
</g>
<g class="Faucet">
<polygon points="39.48,4.90 45.48,4.90 45.48,18.90 39.48,18.90 "/>
</g>
<g class="Direction" fill-opacity="0.9" style="display: none;">
<polygon fill="#444444" points="45.04,54.70 45.04,44.08 42.03,44.08 42.03,54.70 38.23,54.70 43.53,60.00 48.84,54.70 45.04,54.70 "/>
</g>
<g class="Name" fill-opacity="0.9" style="display: none;">

</g>
<desc>Width:70 Height:90 Depth:60 Elevation:0</desc>
</g><g class="FixedFurniture Toilet" fill="#ffffff" stroke="#000000" style="fill-opacity: 1; stroke-opacity: 1;" transform="matrix(0,-1,1,0,244.6058,619.0553)">
<g class="BoundaryPolygon" fill="none" stroke="none">
<polygon points="0,0 41,0 41,71 0,71"/>
</g>
<g class="InnerPolygon">
<rect height="17.98" width="39.989" x="0.502" y="0.5"/>
<path d="M40.491,44.237S41.619,70.5,20.907,70.5C-.523,70.5.6,44.237.6,44.237L.5,18.48H40.491Z"/>
<rect height="3.03" width="6.357" x="17.318" y="7.975"/>
</g>
<desc>Width:41 Height:85 Depth:71 Elevation:0</desc>
</g><g class="FixedFurniture BaseCabinet" fill="#ffffff" stroke="#000000" style="fill-opacity: 1; stroke-opacity: 1;" transform="matrix(-1,0,0,-1,364.0349,698.6175)">
<g class="BoundaryPolygon">
<polygon points="0.00,0.00 80.10,0.00 80.10,42.70 0.00,42.70 "/>
</g>
<g class="Direction" fill-opacity="0.9" style="display: none;">
<polygon fill="#444444" points="42.73,39.28 42.73,28.66 39.72,28.66 39.72,39.28 35.92,39.28 41.22,44.08 46.53,39.28 42.73,39.28 "/>
</g>
<g class="Name" fill-opacity="0.9" style="display: none;">

</g>
<desc>Width:60 Height:90 Depth:60 Elevation:0</desc>
</g><g class="FixedFurniture Sink" fill="#ffffff" stroke="#000000" style="fill-opacity: 1; stroke-opacity: 1;" transform="matrix(-1,0,0,-1,349.7646,698.6174)">
<g class="BoundaryPolygon" fill="none" stroke="none">
<polygon points="0.00,0.00 53.19,0.00 53.19,36.59 0.00,36.59 "/>
</g>
<g class="InnerPolygon">
<polygon points="4.43,9.70 48.75,9.70 48.75,33.36 4.43,33.36 "/>
</g>
<g class="OuterDrain" stroke-width="0.8">
<circle cx="26.593427757891774" cy="19.63780546470365" r="3.5"/>
</g>
<g class="InnerDrain" stroke-width="0.8">
<circle cx="26.593427757891774" cy="19.63780546470365" r="2"/>
</g>
<g class="Faucet">
<polygon points="23.93,3.05 29.93,3.05 29.93,17.05 23.93,17.05 "/>
</g>
<g class="Direction" fill-opacity="0.9" style="display: none;">
<polygon fill="#444444" points="28.37,33.66 28.37,23.05 25.37,23.05 25.37,33.66 21.56,33.66 26.87,38.47 32.17,33.66 28.37,33.66 "/>
</g>
<g class="Name" fill-opacity="0.9" style="display: none;">

</g>
<desc>Width:60 Height:90 Depth:60 Elevation:0</desc>
</g><g class="FixedFurniture Closet" fill="#ffffff" stroke="#000000" style="fill-opacity: 1; stroke-opacity: 1;" transform="matrix(-1,0,0,-1,232.6058,698.5549)">
<g class="BoundaryPolygon">
<polygon points="0,0 60,0 60,60 0,60"/>
</g>
<g class="Direction" fill-opacity="0.9" style="display: none;">
<polygon fill="#444444" points="31.509 54.697 31.509 44.081 28.5 44.081 28.5 54.697 24.697 54.697 30 60 35.303 54.697 31.509 54.697"/>
</g>
<g class="Name" fill-opacity="0.9" style="display: none;">

</g>
<desc>Width:60 Height:200 Depth:60 Elevation:0</desc>
</g><g class="FixedFurniture ElectricalAppliance WashingMachine" fill="#ffffff" stroke="#000000" style="fill-opacity: 1; stroke-opacity: 1;" transform="matrix(-1,0,0,-1,77.1994,698.8675)">
<g class="BoundaryPolygon">
<polygon points="0,0 60,0 60,60 0,60"/>
</g>
<g class="electricitySign" fill="none">
<path d="M0,0,30,41V20.8L60,60"/>
</g>
<g class="Handle">
<path d="M2.7,59.4H57.3"/>
</g>
<g class="Direction" fill-opacity="0.9" style="display: none;">
<polygon fill="#444444" points="32.009 55.197 32.009 44.581 29 44.581 29 55.197 25.197 55.197 30.5 60 35.803 55.197 32.009 55.197"/>
</g>
<g class="Name" fill-opacity="0.9" style="display: none;">

</g>
<desc>Width:60 Height:90 Depth:60 Elevation:0</desc>
</g><g class="FixedFurnitureSet" fill="#ffffff" id="FixedFurnitureSet" stroke="#000000" style="fill-opacity: 0.4; stroke-opacity: 0.4;" transform="matrix(0,-1,1,0,17.3557,479.5905)"><g class="FixedFurniture BaseCabinet" fill="#ffffff" stroke="#000000" style="fill-opacity: 1; stroke-opacity: 1;" transform="matrix(1,0,0,1,0,0)">
<g class="BoundaryPolygon">
<polygon points="0.00,0.00 57.48,0.00 57.48,39.93 0.00,39.93 "/>
</g>
<g class="Direction" fill-opacity="0.9" style="display: none;">
<polygon fill="#444444" points="30.67,36.73 30.67,26.12 27.66,26.12 27.66,36.73 23.85,36.73 29.16,41.53 34.46,36.73 30.67,36.73 "/>
</g>
<g class="Name" fill-opacity="0.9" style="display: none;">

</g>
<desc>Width:60 Height:5 Depth:60 Elevation:105</desc>
</g><g class="FixedFurniture Sink" fill="#ffffff" stroke="#000000" style="fill-opacity: 1; stroke-opacity: 1;" transform="matrix(1,0,0,1,0,0)">
<g class="BoundaryPolygon" fill="none" stroke="none">
<polygon points="0.00,0.00 57.48,0.00 57.48,39.93 0.00,39.93 "/>
</g>
<g class="InnerPolygon">
<polygon points="4.79,9.70 52.69,9.70 52.69,36.40 4.79,36.40 "/>
</g>
<g class="OuterDrain" stroke-width="0.8">
<circle cx="28.74221884431781" cy="21.427904807771995" r="3.5"/>
</g>
<g class="InnerDrain" stroke-width="0.8">
<circle cx="28.74221884431781" cy="21.427904807771995" r="2"/>
</g>
<g class="Faucet">
<polygon points="25.87,3.33 31.87,3.33 31.87,17.33 25.87,17.33 "/>
</g>
<g class="Direction" fill-opacity="0.9" style="display: none;">
<polygon fill="#444444" points="30.67,36.73 30.67,26.12 27.66,26.12 27.66,36.73 23.85,36.73 29.16,41.53 34.46,36.73 30.67,36.73 "/>
</g>
<g class="Name" fill-opacity="0.9" style="display: none;">

</g>
<desc>Width:60 Height:90 Depth:60 Elevation:0</desc>
</g></g><g class="FixedFurniture Shower" fill="#ffffff" stroke="#000000" style="fill-opacity: 1; stroke-opacity: 1;" transform="matrix(0,-1,1,0,17.1995,318.0515)">
<g class="BoundaryPolygon" fill="none" stroke="none">
<polygon points="0,0 32,0 32,19 0,19"/>
</g>
<g class="InnerPolygon">
<rect height="6.1" width="11.2" x="3.7" y="0.5"/>
<rect height="6.1" width="11.2" x="17.6" y="0.5"/>
<rect height="6.1" width="3.4" x="28.7" y="0.5"/>
<rect height="6.1" width="3.2" x="0.5" y="0.5"/>
<path d="M14.9,8.5c0,1.5-0.4,3.3-1.6,5    c-0.4,0.6-1,1.1-1.1,1.7c-0.2,1.1,0.3,2.8,2.5,3.2c0.5,0.1,1.3,0.1,1.6,0.1h-0.1c0.3,0,1.1,0,1.6-0.1c2.2-0.4,2.7-2.1,2.5-3.2    c-0.1-0.6-0.7-1.1-1.1-1.7c-1.2-1.7-1.6-3.5-1.6-5"/>
<path d="M12.2,15.3c0.1,0.2,1.6,1.9,4.2,1.9 c2.4-0.1,3.7-1.7,3.9-1.9"/>
<path d="M14.9,0.5h2.7v8c-0.9,0-1.8,0-2.7,0l0,0 C14.9,5.9,14.9,3.2,14.9,0.5z"/>
</g>
<g class="Indicator">
<path d="M3.7,3.6C5,3.1,5.2,3,5.2,3 c0,1.1,0,0,0,1.1C5.2,4.1,5.1,4.1,3.7,3.6"/>
<path d="M28.7,3.6 C27.4,3.1,27.2,3,27.2,3c0,1.1,0,0,0,1.1C27.2,4.1,27.3,4.1,28.7,3.6"/>
</g>
<desc>Width:32 Height:97 Depth:19 Elevation:135</desc>
</g><g class="FixedFurniture SaunaBenchHigh" fill="#ffffff" stroke="#000000" style="fill-opacity: 1; stroke-opacity: 1;" transform="matrix(0,-1,1,0,17.2619,212.7457)">
<g class="BoundaryPolygon">
<polygon points="0.00,0.00 166.18,0.00 166.18,47.76 0.00,47.76 "/>
</g>

<g class="Direction" fill-opacity="0.9" style="display: none;">
<polygon fill="#444444" points="85.70,43.51 85.70,32.89 82.69,32.89 82.69,43.51 78.89,43.51 84.19,48.81 89.50,43.51 85.70,43.51 "/>
</g>
<g class="Name" fill-opacity="0.9" style="display: none;">

</g>
<desc>Width:185 Height:5 Depth:60 Elevation:105</desc>
</g><g class="FixedFurniture SaunaBenchMid" fill="#ffffff" stroke="#000000" style="fill-opacity: 1; stroke-opacity: 1;" transform="matrix(0,-1,1,0,65.2083,212.7771)">
<g class="BoundaryPolygon">
<polygon points="0.00,0.00 166.21,0.00 166.21,34.22 0.00,34.22 "/>
</g>

<g class="Direction" fill-opacity="0.9" style="display: none;">
<polygon fill="#444444" points="84.46,29.65 84.46,19.03 81.45,19.03 81.45,29.65 77.65,29.65 82.95,34.95 88.26,29.65 84.46,29.65 "/>
</g>
<g class="Name" fill-opacity="0.9" style="display: none;">

</g>
<desc>Width:185 Height:5 Depth:40 Elevation:60</desc>
</g><g class="FixedFurniture SaunaBenchLow" fill="#ffffff" stroke="#000000" style="fill-opacity: 1; stroke-opacity: 1;" transform="matrix(0,-1,1,0,99.6136,212.6511)">
<g class="BoundaryPolygon">
<polygon points="0.00,0.00 166.15,0.00 166.15,26.22 0.00,26.22 "/>
</g>

<g class="Direction" fill-opacity="0.9" style="display: none;">
<polygon fill="#444444" points="85.92,22.72 85.92,12.10 82.91,12.10 82.91,22.72 79.11,22.72 84.41,28.02 89.72,22.72 85.92,22.72 "/>
</g>
<g class="Name" fill-opacity="0.9" style="display: none;">

</g>
<desc>Width:91 Height:5 Depth:40 Elevation:30</desc>
</g><g class="FixedFurniture ElectricalAppliance SaunaStove" fill="#ffffff" stroke="#000000" style="fill-opacity: 1; stroke-opacity: 1;" transform="matrix(0,0.5468,-0.9502,0,190.3933,78.1072)">
<g class="BoundaryPolygon">
<polygon points="0,0 60,0 60,35 0,35"/>
</g>
<g class="electricitySign" fill="none">
<polyline points="0 35 39.7 17.5 21.4 17.5 60 0"/>
</g>
<g class="Direction" fill-opacity="0.9" style="display: none;">
<polygon fill="#444444" points="31.509 29.697 31.509 19.081 28.5 19.081 28.5 29.697 24.697 29.697 30 35 35.303 29.697 31.509 29.697"/>
</g>
<g class="Name" fill-opacity="0.9" style="display: none;">

</g>
<desc>Width:60 Height:60 Depth:35 Elevation:20</desc>
</g><g class="FixedFurniture Closet" fill="#ffffff" stroke="#000000" style="fill-opacity: 1; stroke-opacity: 1;" transform="matrix(0,1,-1,0,525.3718,338.5601)">
<g class="BoundaryPolygon">
<polygon points="0.00,0.00 67.26,0.00 67.26,60.00 0.00,60.00 "/>
</g>
<g class="Direction" fill-opacity="0.9" style="display: none;">
<polygon fill="#444444" points="35.32,54.70 35.32,44.08 32.31,44.08 32.31,54.70 28.51,54.70 33.81,60.00 39.12,54.70 35.32,54.70 "/>
</g>
<g class="Name" fill-opacity="0.9" style="display: none;">

</g>
<desc>Width:60 Height:200 Depth:60 Elevation:0</desc>
</g><g class="FixedFurniture Closet" fill="#ffffff" stroke="#000000" style="fill-opacity: 1; stroke-opacity: 1;" transform="matrix(0,1,-1,0,525.3718,291.1501)">
<g class="BoundaryPolygon">
<polygon points="0.00,0.00 47.41,0.00 47.41,60.00 0.00,60.00 "/>
</g>
<g class="Direction" fill-opacity="0.9" style="display: none;">
<polygon fill="#444444" points="24.89,54.70 24.89,44.08 21.88,44.08 21.88,54.70 18.08,54.70 23.38,60.00 28.69,54.70 24.89,54.70 "/>
</g>
<g class="Name" fill-opacity="0.9" style="display: none;">

</g>
<desc>Width:60 Height:200 Depth:60 Elevation:0</desc>
</g><g class="FixedFurniture Closet" fill="#ffffff" stroke="#000000" style="fill-opacity: 1; stroke-opacity: 1;" transform="matrix(0,-1,1,0,537.903,110.4356)">
<g class="BoundaryPolygon">
<polygon points="0.00,0.00 63.87,0.00 63.87,60.00 0.00,60.00 "/>
</g>
<g class="Direction" fill-opacity="0.9" style="display: none;">
<polygon fill="#444444" points="33.54,54.70 33.54,44.08 30.53,44.08 30.53,54.70 26.73,54.70 32.03,60.00 37.34,54.70 33.54,54.70 "/>
</g>
<g class="Name" fill-opacity="0.9" style="display: none;">

</g>
<desc>Width:60 Height:200 Depth:60 Elevation:0</desc>
</g><g class="FixedFurniture Closet" fill="#ffffff" stroke="#000000" style="fill-opacity: 1; stroke-opacity: 1;" transform="matrix(0,-1,1,0,537.9031,170.9156)">
<g class="BoundaryPolygon">
<polygon points="0.00,0.00 60.48,0.00 60.48,60.00 0.00,60.00 "/>
</g>
<g class="Direction" fill-opacity="0.9" style="display: none;">
<polygon fill="#444444" points="31.76,54.70 31.76,44.08 28.75,44.08 28.75,54.70 24.95,54.70 30.25,60.00 35.56,54.70 31.76,54.70 "/>
</g>
<g class="Name" fill-opacity="0.9" style="display: none;">

</g>
<desc>Width:60 Height:200 Depth:60 Elevation:0</desc>
</g><g class="FixedFurniture Closet" fill="#ffffff" stroke="#000000" style="fill-opacity: 1; stroke-opacity: 1;" transform="matrix(0,-1,1,0,537.9031,232.8456)">
<g class="BoundaryPolygon">
<polygon points="0.00,0.00 61.93,0.00 61.93,60.00 0.00,60.00 "/>
</g>
<g class="Direction" fill-opacity="0.9" style="display: none;">
<polygon fill="#444444" points="32.52,54.70 32.52,44.08 29.51,44.08 29.51,54.70 25.71,54.70 31.01,60.00 36.32,54.70 32.52,54.70 "/>
</g>
<g class="Name" fill-opacity="0.9" style="display: none;">

</g>
<desc>Width:60 Height:200 Depth:60 Elevation:0</desc>
</g><g class="FixedFurniture Closet" fill="#ffffff" stroke="#000000" style="fill-opacity: 1; stroke-opacity: 1;" transform="matrix(0,-1,1,0,537.9031,294.7757)">
<g class="BoundaryPolygon">
<polygon points="0.00,0.00 61.93,0.00 61.93,60.00 0.00,60.00 "/>
</g>
<g class="Direction" fill-opacity="0.9" style="display: none;">
<polygon fill="#444444" points="32.52,54.70 32.52,44.08 29.51,44.08 29.51,54.70 25.71,54.70 31.01,60.00 36.32,54.70 32.52,54.70 "/>
</g>
<g class="Name" fill-opacity="0.9" style="display: none;">

</g>
<desc>Width:60 Height:200 Depth:60 Elevation:0</desc>
</g><g class="FixedFurniture Closet" fill="#ffffff" stroke="#000000" style="fill-opacity: 1; stroke-opacity: 1;" transform="matrix(0,-1,1,0,537.9031,356.7057)">
<g class="BoundaryPolygon">
<polygon points="0.00,0.00 61.93,0.00 61.93,60.00 0.00,60.00 "/>
</g>
<g class="Direction" fill-opacity="0.9" style="display: none;">
<polygon fill="#444444" points="32.52,54.70 32.52,44.08 29.51,44.08 29.51,54.70 25.71,54.70 31.01,60.00 36.32,54.70 32.52,54.70 "/>
</g>
<g class="Name" fill-opacity="0.9" style="display: none;">

</g>
<desc>Width:60 Height:200 Depth:60 Elevation:0</desc>
</g><g class="FixedFurniture Closet" fill="#ffffff" stroke="#000000" style="fill-opacity: 1; stroke-opacity: 1;" transform="matrix(0,-1,1,0,537.9031,418.6357)">
<g class="BoundaryPolygon">
<polygon points="0.00,0.00 61.93,0.00 61.93,60.00 0.00,60.00 "/>
</g>
<g class="Direction" fill-opacity="0.9" style="display: none;">
<polygon fill="#444444" points="32.52,54.70 32.52,44.08 29.51,44.08 29.51,54.70 25.71,54.70 31.01,60.00 36.32,54.70 32.52,54.70 "/>
</g>
<g class="Name" fill-opacity="0.9" style="display: none;">

</g>
<desc>Width:60 Height:200 Depth:60 Elevation:0</desc>
</g><g class="FixedFurniture Closet" fill="#ffffff" stroke="#000000" style="fill-opacity: 1; stroke-opacity: 1;" transform="matrix(0,1,-1,0,523.2653,1021.2874)">
<g class="BoundaryPolygon">
<polygon points="0.00,0.00 103.76,0.00 103.76,49.92 0.00,49.92 "/>
</g>
<g class="Direction" fill-opacity="0.9" style="display: none;">
<polygon fill="#444444" points="54.49,45.51 54.49,34.90 51.48,34.90 51.48,45.51 47.68,45.51 52.98,50.82 58.28,45.51 54.49,45.51 "/>
</g>
<g class="Name" fill-opacity="0.9" style="display: none;">

</g>
<desc>Width:60 Height:200 Depth:60 Elevation:0</desc>
</g><g class="FixedFurniture ShowerScreen" fill="#ffffff" stroke="#000000" style="fill-opacity: 1; stroke-opacity: 1;" transform="matrix(1,0,0,0.8881,470.8406,1020.9652)">
<g class="BoundaryPolygon">
<polygon points="0,0 2.5,0 2.5,60 0,60"/>
</g>
<g class="InnerPolygon" stroke-linejoin="round">
<rect height="60" width="2.5"/>
</g>
<desc>Width:2.5 Height:180 Depth:60 Elevation:135</desc>
</g><g class="FixedFurniture ShowerScreen" fill="#ffffff" stroke="#000000" style="fill-opacity: 1; stroke-opacity: 1;" transform="matrix(1,0,0,0.8881,467.7428,1071.2663)">
<g class="BoundaryPolygon">
<polygon points="0,0 2.5,0 2.5,60 0,60"/>
</g>
<g class="InnerPolygon" stroke-linejoin="round">
<rect height="60" width="2.5"/>
</g>
<desc>Width:2.5 Height:180 Depth:60 Elevation:135</desc>
</g><g class="SelectionControls" fill="#0000ff" stroke="#0000ff" style="display: none;"><g class="rotateControl" style="display: none;"><circle cx="752.1772964185496" cy="230.95685865764722" r="5" style="stroke : none; fill-opacity: 0.5; cursor:crosshair"/></g><g class="ResizeNControl" style="display: none;"><circle cx="0" cy="0" r="5" style="stroke : none; fill-opacity: 0.5"/></g><g class="ResizeNEControl" style="display: none;"><circle cx="0" cy="0" r="5" style="stroke : none; fill-opacity: 0.5"/></g><g class="ResizeEControl" style="display: none;"><circle cx="0" cy="0" r="5" style="stroke : none; fill-opacity: 0.5"/></g><g class="ResizeSEControl" style="display: none;"><circle cx="0" cy="0" r="5" style="stroke : none; fill-opacity: 0.5"/></g><g class="ResizeSControl" style="display: none;"><circle cx="0" cy="0" r="5" style="stroke : none; fill-opacity: 0.5"/></g><g class="ResizeSWControl" style="display: none;"><circle cx="0" cy="0" r="5" style="stroke : none; fill-opacity: 0.5"/></g><g class="ResizeWControl" style="display: none;"><circle cx="0" cy="0" r="5" style="stroke : none; fill-opacity: 0.5"/></g><g class="ResizeNWControl" style="display: none;"><circle cx="0" cy="0" r="5" style="stroke : none; fill-opacity: 0.5"/></g><g class="removeControl" style="display: none;"><polygon points="725.89,260.96 778.47,260.96 778.47,300.57 725.89,300.57 " style="stroke : none; fill-opacity: 0.1"/></g><g class="copyPasteControl" style="display: none;"><polygon style="stroke : none; fill-opacity: 0.1"/></g><g class="translateControl" style="display: none;"><polygon points="725.89,260.96 778.47,260.96 778.47,300.57 725.89,300.57 " style="stroke : none; fill-opacity: 0.1; cursor:move"/></g></g><g class="SelectionControls" fill="#0000ff" stroke="#0000ff" style="display: none;"><polygon fill="none" points="537.64,46.57 916.14,46.57 916.14,543.38 537.64,543.38 " stroke="#0000ff" style=""/><g class="rotateControl" style="display: none;"><circle cx="726.8881815992137" cy="16.565683657647213" r="5" style="stroke : none; fill-opacity: 0.5; cursor:crosshair"/></g><g class="ResizeNControl" style="display: none;"><circle cx="0" cy="0" r="5" style="stroke : none; fill-opacity: 0.5"/></g><g class="ResizeNEControl" style="display: none;"><circle cx="0" cy="0" r="5" style="stroke : none; fill-opacity: 0.5"/></g><g class="ResizeEControl" style="display: none;"><circle cx="0" cy="0" r="5" style="stroke : none; fill-opacity: 0.5"/></g><g class="ResizeSEControl" style="display: none;"><circle cx="0" cy="0" r="5" style="stroke : none; fill-opacity: 0.5"/></g><g class="ResizeSControl" style="display: none;"><circle cx="0" cy="0" r="5" style="stroke : none; fill-opacity: 0.5"/></g><g class="ResizeSWControl" style="display: none;"><circle cx="0" cy="0" r="5" style="stroke : none; fill-opacity: 0.5"/></g><g class="ResizeWControl" style="display: none;"><circle cx="0" cy="0" r="5" style="stroke : none; fill-opacity: 0.5"/></g><g class="ResizeNWControl" style="display: none;"><circle cx="0" cy="0" r="5" style="stroke : none; fill-opacity: 0.5"/></g><g class="removeControl" style="display: none;"><polygon style="stroke : none; fill-opacity: 0.1"/></g><g class="copyPasteControl" style="display: none;"><polygon style="stroke : none; fill-opacity: 0.1"/></g><g class="translateControl" style="display: none;"><polygon style="stroke : none; fill-opacity: 0.1; cursor:move"/></g></g></g></g></g></svg>