<?xml version="1.0" encoding="utf-8"?>
<svg height="935.8200149536133" id="temp" version="1.1" viewBox="0 0 1232.9399509429932 935.8200149536133" width="1232.9399509429932" xmlns="http://www.w3.org/2000/svg" xmlns:xlink="http://www.w3.org/1999/xlink"><defs/><g class="Model v1-1" id="Model"><g class="Floor"><g class="Floorplan Floor-1" id="Floor-1"><g class="Space Outdoor" fill="#ffffff" id="4de2ceb6-ee1f-4046-9fa7-869a409f6c6b" stroke="#000000" style="fill-opacity: 1; stroke-opacity: 1; stroke-width: 1;"><polygon points="165.59,608.47 18.74,608.47 18.74,361.93 165.59,361.93 165.59,608.47 165.59,608.47 "/><g class="Dimension" transform="matrix(1,0,0,1,18.7364,361.9337)"><g class="Visual" style="display: none;" transform="matrix(1,0,0,1,0,0)"><g class="DimensionMark" fill="#000000" id="mark1" stroke="none" style="fill-opacity: 1; pointer-events: visible;" transform="matrix(1,0,0,1,73.4284,0)"><polygon points="-5,5,0,0,5,5"/></g><g class="DimensionMark" fill="#000000" id="mark2" stroke="none" style="fill-opacity: 1; pointer-events: visible;" transform="matrix(1,0,0,1,146.8568,123.2681)"><polygon points="-5,-5,0,0,-5,5"/></g><g class="DimensionMark" fill="#000000" id="mark3" stroke="none" style="fill-opacity: 1; pointer-events: visible;" transform="matrix(1,0,0,1,73.4284,246.5363)"><polygon points="-5,-5,0,0,5,-5"/></g><g class="DimensionMark" fill="#000000" id="mark4" stroke="none" style="fill-opacity: 1; pointer-events: visible;" transform="matrix(1,0,0,1,0,123.2681)"><polygon points="5,5,0,0,5,-5"/></g></g><g class="SpaceDimensionsLabel" transform="matrix(1,0,0,1,73.4284,123.2682)"><g class="TextLabel NameLabel" id="NameLabel" style="display: block;"/><g class="TextLabel DimensionMeasureLabel" id="DimensionMeasureLabel" style="display: none;" transform="matrix(1,0,0,1,-40.5235,79.8125)"/></g></g></g><g class="Space Undefined" fill="#ffffff" id="aa78dcdc-4c2c-4069-8281-392290515dc8" stroke="#ffffff" style="fill-opacity: 1; stroke-opacity: 1; stroke-width: 1;"><polygon points="832.23,361.93 610.07,361.93 610.07,148.99 832.23,148.99 "/><g class="Dimension" transform="matrix(1,0,0,1,610.0671,148.985)"><g class="Visual" style="display: none;" transform="matrix(1,0,0,1,0,0)"><g class="DimensionMark" fill="#000000" id="mark1" stroke="none" style="fill-opacity: 1; pointer-events: visible;" transform="matrix(1,0,0,1,111.0801,0)"><polygon points="-5,5,0,0,5,5"/></g><g class="DimensionMark" fill="#000000" id="mark2" stroke="none" style="fill-opacity: 1; pointer-events: visible;" transform="matrix(1,0,0,1,222.1602,106.4743)"><polygon points="-5,-5,0,0,-5,5"/></g><g class="DimensionMark" fill="#000000" id="mark3" stroke="none" style="fill-opacity: 1; pointer-events: visible;" transform="matrix(1,0,0,1,111.0801,212.9486)"><polygon points="-5,-5,0,0,5,-5"/></g><g class="DimensionMark" fill="#000000" id="mark4" stroke="none" style="fill-opacity: 1; pointer-events: visible;" transform="matrix(1,0,0,1,0,106.4743)"><polygon points="5,5,0,0,5,-5"/></g></g><g class="SpaceDimensionsLabel" transform="matrix(1,0,0,1,106.4743,106.4743)"><g class="TextLabel NameLabel" id="NameLabel" style="display: block;"/><g class="TextLabel DimensionMeasureLabel" id="DimensionMeasureLabel" style="display: none;" transform="matrix(1,0,0,1,-40.5156,79.6719)"/></g></g></g><g class="Space Undefined" fill="#ffffff" id="6d5b5bff-c095-4fce-983d-db5b0f631a53" stroke="#ffffff" style="fill-opacity: 1; stroke-opacity: 1; stroke-width: 1;"><polygon points="832.23,908.82 726.02,908.82 726.02,738.25 610.07,738.25 610.07,373.93 832.23,373.93 "/><g class="Dimension" transform="matrix(1,0,0,1,610.0671,373.9337)"><g class="Visual" style="display: none;" transform="matrix(1,0,0,1,0,0)"><g class="DimensionMark" fill="#000000" id="mark1" stroke="none" style="fill-opacity: 1; pointer-events: visible;" transform="matrix(1,0,0,1,115.9509,0)"><polygon points="-5,5,0,0,5,5"/></g><g class="DimensionMark" fill="#000000" id="mark2" stroke="none" style="fill-opacity: 1; pointer-events: visible;" transform="matrix(1,0,0,1,222.1602,267.4421)"><polygon points="-5,-5,0,0,-5,5"/></g><g class="DimensionMark" fill="#000000" id="mark3" stroke="none" style="fill-opacity: 1; pointer-events: visible;" transform="matrix(1,0,0,1,115.9509,534.8842)"><polygon points="-5,-5,0,0,5,-5"/></g><g class="DimensionMark" fill="#000000" id="mark4" stroke="none" style="fill-opacity: 1; pointer-events: visible;" transform="matrix(1,0,0,1,0,267.4421)"><polygon points="5,5,0,0,5,-5"/></g></g><g class="SpaceDimensionsLabel" transform="matrix(1,0,0,1,111.0801,111.0801)"><g class="TextLabel NameLabel" id="NameLabel" style="display: block;"/><g class="TextLabel DimensionMeasureLabel" id="DimensionMeasureLabel" style="display: none;" transform="matrix(1,0,0,1,-40.5156,79.6719)"/></g></g></g><g class="Space Undefined" fill="#ffffff" id="1bfd61d4-fd55-4be9-a986-21e627021a56" stroke="#ffffff" style="fill-opacity: 1; stroke-opacity: 1; stroke-width: 1;"><polygon points="598.07,601.92 190.59,601.92 190.59,148.99 598.07,148.99 "/><g class="Dimension" transform="matrix(1,0,0,1,190.5933,148.985)"><g class="Visual" style="display: none;" transform="matrix(1,0,0,1,0,0)"><g class="DimensionMark" fill="#000000" id="mark1" stroke="none" style="fill-opacity: 1; pointer-events: visible;" transform="matrix(1,0,0,1,203.7369,0)"><polygon points="-5,5,0,0,5,5"/></g><g class="DimensionMark" fill="#000000" id="mark2" stroke="none" style="fill-opacity: 1; pointer-events: visible;" transform="matrix(1,0,0,1,407.4738,226.4699)"><polygon points="-5,-5,0,0,-5,5"/></g><g class="DimensionMark" fill="#000000" id="mark3" stroke="none" style="fill-opacity: 1; pointer-events: visible;" transform="matrix(1,0,0,1,203.7369,452.9398)"><polygon points="-5,-5,0,0,5,-5"/></g><g class="DimensionMark" fill="#000000" id="mark4" stroke="none" style="fill-opacity: 1; pointer-events: visible;" transform="matrix(1,0,0,1,0,226.4699)"><polygon points="5,5,0,0,5,-5"/></g></g><g class="SpaceDimensionsLabel" transform="matrix(1,0,0,1,203.7369,203.7369)"><g class="TextLabel NameLabel" id="NameLabel" style="display: block;"/><g class="TextLabel DimensionMeasureLabel" id="DimensionMeasureLabel" style="display: none;" transform="matrix(1,0,0,1,-40.5235,79.5937)"/></g></g></g><g class="Space Undefined" fill="#ffffff" id="99c43a83-6c32-4f78-b6c1-12058224a83c" stroke="#ffffff" style="fill-opacity: 1; stroke-opacity: 1; stroke-width: 1;"><polygon points="1207.94,523.78 844.23,523.78 844.23,148.99 1207.94,148.99 "/><g class="Dimension" transform="matrix(1,0,0,1,844.2274,148.985)"><g class="Visual" style="display: none;" transform="matrix(1,0,0,1,0,0)"><g class="DimensionMark" fill="#000000" id="mark1" stroke="none" style="fill-opacity: 1; pointer-events: visible;" transform="matrix(1,0,0,1,181.855,0)"><polygon points="-5,5,0,0,5,5"/></g><g class="DimensionMark" fill="#000000" id="mark2" stroke="none" style="fill-opacity: 1; pointer-events: visible;" transform="matrix(1,0,0,1,363.7101,187.3958)"><polygon points="-5,-5,0,0,-5,5"/></g><g class="DimensionMark" fill="#000000" id="mark3" stroke="none" style="fill-opacity: 1; pointer-events: visible;" transform="matrix(1,0,0,1,181.855,374.7916)"><polygon points="-5,-5,0,0,5,-5"/></g><g class="DimensionMark" fill="#000000" id="mark4" stroke="none" style="fill-opacity: 1; pointer-events: visible;" transform="matrix(1,0,0,1,0,187.3958)"><polygon points="5,5,0,0,5,-5"/></g></g><g class="SpaceDimensionsLabel" transform="matrix(1,0,0,1,181.8551,181.855)"><g class="TextLabel NameLabel" id="NameLabel" style="display: block;"/><g class="TextLabel DimensionMeasureLabel" id="DimensionMeasureLabel" style="display: none;" transform="matrix(1,0,0,1,-40.5235,79.5937)"/></g></g></g><g class="Space Undefined" fill="#ffffff" id="aed8fa71-4ce1-4881-b9a1-290a8fc6fa22" stroke="#ffffff" style="fill-opacity: 1; stroke-opacity: 1; stroke-width: 1;"><polygon points="902.45,847.10 902.45,908.82 844.23,908.82 844.23,847.10 "/><g class="Dimension" transform="matrix(1,0,0,1,844.2274,847.0979)"><g class="Visual" style="display: none;" transform="matrix(1,0,0,1,0,0)"><g class="DimensionMark" fill="#000000" id="mark1" stroke="none" style="fill-opacity: 1; pointer-events: visible;" transform="matrix(1,0,0,1,29.1101,0)"><polygon points="-5,5,0,0,5,5"/></g><g class="DimensionMark" fill="#000000" id="mark2" stroke="none" style="fill-opacity: 1; pointer-events: visible;" transform="matrix(1,0,0,1,58.2202,30.86)"><polygon points="-5,-5,0,0,-5,5"/></g><g class="DimensionMark" fill="#000000" id="mark3" stroke="none" style="fill-opacity: 1; pointer-events: visible;" transform="matrix(1,0,0,1,29.1101,61.7199)"><polygon points="-5,-5,0,0,5,-5"/></g><g class="DimensionMark" fill="#000000" id="mark4" stroke="none" style="fill-opacity: 1; pointer-events: visible;" transform="matrix(1,0,0,1,0,30.86)"><polygon points="5,5,0,0,5,-5"/></g></g><g class="SpaceDimensionsLabel" transform="matrix(1,0,0,1,29.1101,29.11)"><g class="TextLabel NameLabel" id="NameLabel" style="display: block;"/><g class="TextLabel DimensionMeasureLabel" id="DimensionMeasureLabel" style="display: none;" transform="matrix(1,0,0,1,-40.5235,79.5937)"/></g></g></g><g class="Space Undefined" fill="#ffffff" id="371fe54a-c7fa-4ac0-839f-d90f0c242294" stroke="#ffffff" style="fill-opacity: 1; stroke-opacity: 1; stroke-width: 1;"><polygon points="1207.94,535.78 1207.94,908.82 844.23,908.82 844.23,535.78 "/><g class="Dimension" transform="matrix(1,0,0,1,844.2274,535.7766)"><g class="Visual" style="display: none;" transform="matrix(1,0,0,1,0,0)"><g class="DimensionMark" fill="#000000" id="mark1" stroke="none" style="fill-opacity: 1; pointer-events: visible;" transform="matrix(1,0,0,1,181.855,0)"><polygon points="-5,5,0,0,5,5"/></g><g class="DimensionMark" fill="#000000" id="mark2" stroke="none" style="fill-opacity: 1; pointer-events: visible;" transform="matrix(1,0,0,1,363.7101,186.5206)"><polygon points="-5,-5,0,0,-5,5"/></g><g class="DimensionMark" fill="#000000" id="mark3" stroke="none" style="fill-opacity: 1; pointer-events: visible;" transform="matrix(1,0,0,1,181.855,373.0412)"><polygon points="-5,-5,0,0,5,-5"/></g><g class="DimensionMark" fill="#000000" id="mark4" stroke="none" style="fill-opacity: 1; pointer-events: visible;" transform="matrix(1,0,0,1,0,186.5206)"><polygon points="5,5,0,0,5,-5"/></g></g><g class="SpaceDimensionsLabel" transform="matrix(1,0,0,1,181.8551,186.5206)"><g class="TextLabel NameLabel" id="NameLabel" style="display: block;"/><g class="TextLabel DimensionMeasureLabel" id="DimensionMeasureLabel" style="display: none;" transform="matrix(1,0,0,1,-40.5235,79.5937)"/></g></g></g><g class="Space Undefined" fill="#ffffff" id="ce4f725a-df20-4d93-ae04-d26826f2d1db" stroke="#ffffff" style="fill-opacity: 1; stroke-opacity: 1; stroke-width: 1;"><polygon points="598.07,908.82 190.59,908.82 190.59,613.92 598.07,613.92 "/><g class="Dimension" transform="matrix(1,0,0,1,190.5933,613.9249)"><g class="Visual" style="display: none;" transform="matrix(1,0,0,1,0,0)"><g class="DimensionMark" fill="#000000" id="mark1" stroke="none" style="fill-opacity: 1; pointer-events: visible;" transform="matrix(1,0,0,1,203.7369,0)"><polygon points="-5,5,0,0,5,5"/></g><g class="DimensionMark" fill="#000000" id="mark2" stroke="none" style="fill-opacity: 1; pointer-events: visible;" transform="matrix(1,0,0,1,407.4738,147.4465)"><polygon points="-5,-5,0,0,-5,5"/></g><g class="DimensionMark" fill="#000000" id="mark3" stroke="none" style="fill-opacity: 1; pointer-events: visible;" transform="matrix(1,0,0,1,203.7369,294.893)"><polygon points="-5,-5,0,0,5,-5"/></g><g class="DimensionMark" fill="#000000" id="mark4" stroke="none" style="fill-opacity: 1; pointer-events: visible;" transform="matrix(1,0,0,1,0,147.4465)"><polygon points="5,5,0,0,5,-5"/></g></g><g class="SpaceDimensionsLabel" transform="matrix(1,0,0,1,147.4465,147.4465)"><g class="TextLabel NameLabel" id="NameLabel" style="display: block;"/><g class="TextLabel DimensionMeasureLabel" id="DimensionMeasureLabel" style="display: none;" transform="matrix(1,0,0,1,-40.5235,79.5937)"/></g></g></g><g class="Space Undefined" fill="#ffffff" id="63ab42b6-d9f0-4008-9bc5-7d362eab21f9" stroke="#ffffff" style="fill-opacity: 1; stroke-opacity: 1; stroke-width: 1;"><polygon points="714.02,908.82 610.07,908.82 610.07,750.25 714.02,750.25 "/><g class="Dimension" transform="matrix(1,0,0,1,610.0671,750.247)"><g class="Visual" style="display: none;" transform="matrix(1,0,0,1,0,0)"><g class="DimensionMark" fill="#000000" id="mark1" stroke="none" style="fill-opacity: 1; pointer-events: visible;" transform="matrix(1,0,0,1,51.9754,0)"><polygon points="-5,5,0,0,5,5"/></g><g class="DimensionMark" fill="#000000" id="mark2" stroke="none" style="fill-opacity: 1; pointer-events: visible;" transform="matrix(1,0,0,1,103.9509,79.2854)"><polygon points="-5,-5,0,0,-5,5"/></g><g class="DimensionMark" fill="#000000" id="mark3" stroke="none" style="fill-opacity: 1; pointer-events: visible;" transform="matrix(1,0,0,1,51.9754,158.5708)"><polygon points="-5,-5,0,0,5,-5"/></g><g class="DimensionMark" fill="#000000" id="mark4" stroke="none" style="fill-opacity: 1; pointer-events: visible;" transform="matrix(1,0,0,1,0,79.2854)"><polygon points="5,5,0,0,5,-5"/></g></g><g class="SpaceDimensionsLabel" transform="matrix(1,0,0,1,51.9755,51.9754)"><g class="TextLabel NameLabel" id="NameLabel" style="display: block;"/><g class="TextLabel DimensionMeasureLabel" id="DimensionMeasureLabel" style="display: none;" transform="matrix(1,0,0,1,-40.5235,79.5937)"/></g></g></g><g class="Wall External" fill="#000000" id="Wall" stroke="#000000" style="fill-opacity: 1; stroke-opacity: 1; stroke-width: 1;"><polygon points="1232.94,935.82 165.59,935.82 190.59,908.82 1207.94,908.82 "/><g class="Door None Beside" fill="#ffffff" id="Door" stroke="#000000" style="fill-opacity: 1; stroke-width: 1; stroke-opacity: 1;"><polygon points="822.70,935.82 739.98,935.82 739.98,908.82 822.70,908.82 "/></g></g><g class="Wall External" fill="#000000" id="Wall" stroke="#000000" style="fill-opacity: 1; stroke-opacity: 1; stroke-width: 1;"><polygon points="190.59,908.82 190.59,148.99 165.59,123.99 165.59,935.82 "/><g class="Window Regular" fill="#f0f0ff" id="Window" stroke="#000000" style="fill-opacity: 1; stroke-width: 1; stroke-opacity: 1;"><polygon points="190.59,835.95 190.59,673.95 165.59,673.95 165.59,835.95 "/><g class="Glass" id="Glass"><polygon points="190.59,835.95 190.59,673.95 165.59,673.95 165.59,835.95 "/></g><g class="Panel" id="Panel"><line x1="178.0932770217771" x2="178.09327702177708" y1="828.4524425802479" y2="681.4465366081321"/><line x1="190.5932770217771" x2="165.5932770217771" y1="828.4524425802479" y2="828.4524425802479"/><line x1="190.59327702177708" x2="165.59327702177708" y1="681.4465366081321" y2="681.4465366081321"/></g></g><g class="Door None Beside" fill="#ffffff" id="Door" stroke="#000000" style="fill-opacity: 1; stroke-width: 1; stroke-opacity: 1;"><polygon points="190.59,587.90 190.59,506.56 165.59,506.56 165.59,587.90 "/></g><g class="Window Regular" fill="#f0f0ff" id="Window" stroke="#000000" style="fill-opacity: 1; stroke-width: 1; stroke-opacity: 1;"><polygon points="190.59,506.56 190.59,366.74 165.59,366.74 165.59,506.56 "/><g class="Glass" id="Glass"><polygon points="190.59,506.56 190.59,366.74 165.59,366.74 165.59,506.56 "/></g><g class="Panel" id="Panel"><line x1="178.09327702177706" x2="178.09327702177706" y1="499.0628412261535" y2="374.24029605508315"/><line x1="190.59327702177706" x2="165.59327702177706" y1="499.0628412261535" y2="499.0628412261535"/><line x1="190.59327702177706" x2="165.59327702177706" y1="374.24029605508315" y2="374.24029605508315"/></g></g><g class="Window Regular" fill="#f0f0ff" id="Window" stroke="#000000" style="fill-opacity: 1; stroke-width: 1; stroke-opacity: 1;"><polygon points="190.59,341.20 190.59,196.00 165.59,196.00 165.59,341.20 "/><g class="Glass" id="Glass"><polygon points="190.59,341.20 190.59,196.00 165.59,196.00 165.59,341.20 "/></g><g class="Panel" id="Panel"><line x1="178.09327702177706" x2="178.09327702177703" y1="333.69579635823493" y2="203.49548229194033"/><line x1="190.59327702177706" x2="165.59327702177706" y1="333.69579635823493" y2="333.69579635823493"/><line x1="190.59327702177703" x2="165.59327702177703" y1="203.49548229194033" y2="203.49548229194033"/></g></g></g><g class="Wall External" fill="#000000" id="Wall" stroke="#000000" style="fill-opacity: 1; stroke-opacity: 1; stroke-width: 1;"><polygon points="190.59,148.99 1207.94,148.99 1232.94,123.99 165.59,123.99 "/></g><g class="Wall External" fill="#000000" id="Wall" stroke="#000000" style="fill-opacity: 1; stroke-opacity: 1; stroke-width: 1;"><polygon points="1232.94,123.99 1232.94,935.82 1207.94,908.82 1207.94,148.99 "/><g class="Window Regular" fill="#f0f0ff" id="Window" stroke="#000000" style="fill-opacity: 1; stroke-width: 1; stroke-opacity: 1;"><polygon points="1232.94,243.26 1232.94,447.57 1207.94,447.57 1207.94,243.26 "/><g class="Glass" id="Glass"><polygon points="1232.94,243.26 1232.94,447.57 1207.94,447.57 1207.94,243.26 "/></g><g class="Panel" id="Panel"><line x1="1220.4374369249938" x2="1220.4374369249938" y1="250.75839245652028" y2="440.07275607171005"/><line x1="1232.9374369249938" x2="1207.9374369249938" y1="250.75839245652028" y2="250.75839245652028"/><line x1="1232.9374369249938" x2="1207.9374369249938" y1="440.07275607171005" y2="440.07275607171005"/></g></g><g class="Window Regular" fill="#f0f0ff" id="Window" stroke="#000000" style="fill-opacity: 1; stroke-width: 1; stroke-opacity: 1;"><polygon points="1232.94,560.88 1232.94,762.50 1207.94,762.50 1207.94,560.88 "/><g class="Glass" id="Glass"><polygon points="1232.94,560.88 1232.94,762.50 1207.94,762.50 1207.94,560.88 "/></g><g class="Panel" id="Panel"><line x1="1220.437436924994" x2="1220.437436924994" y1="568.3766309261009" y2="754.9954731170326"/><line x1="1232.937436924994" x2="1207.937436924994" y1="568.3766309261009" y2="568.3766309261009"/><line x1="1232.937436924994" x2="1207.937436924994" y1="754.9954731170326" y2="754.9954731170326"/></g></g></g><g class="Wall" fill="#000000" id="Wall" stroke="#000000" style="fill-opacity: 1; stroke-opacity: 1; stroke-width: 1;"><polygon points="832.23,935.82 832.23,123.99 844.23,123.99 844.23,935.82 "/><g class="Door None Beside" fill="#ffffff" id="Door" stroke="#000000" style="fill-opacity: 1; stroke-width: 1; stroke-opacity: 1;"><polygon points="832.23,509.04 832.23,431.71 844.23,431.71 844.23,509.04 "/></g><g class="Door None Beside" fill="#ffffff" id="Door" stroke="#000000" style="fill-opacity: 1; stroke-width: 1; stroke-opacity: 1;"><polygon points="832.23,631.42 832.23,550.06 844.23,550.06 844.23,631.42 "/></g></g><g class="Wall" fill="#000000" id="Wall" stroke="#000000" style="fill-opacity: 1; stroke-opacity: 1; stroke-width: 1;"><polygon points="844.23,908.82 844.23,847.10 902.45,847.10 902.45,908.82 "/></g><g class="Wall" fill="#000000" id="Wall" stroke="#000000" style="fill-opacity: 1; stroke-opacity: 1; stroke-width: 1;"><polygon points="726.02,935.82 726.02,738.25 714.02,750.25 714.02,935.82 "/></g><g class="Wall" fill="#000000" id="Wall" stroke="#000000" style="fill-opacity: 1; stroke-opacity: 1; stroke-width: 1;"><polygon points="714.02,750.25 610.07,750.25 610.07,738.25 726.02,738.25 "/><g class="Door None Beside" fill="#ffffff" id="Door" stroke="#000000" style="fill-opacity: 1; stroke-width: 1; stroke-opacity: 1;"><polygon points="706.25,750.25 649.09,750.25 649.09,738.25 706.25,738.25 "/></g></g><g class="Wall" fill="#000000" id="Wall" stroke="#000000" style="fill-opacity: 1; stroke-opacity: 1; stroke-width: 1;"><polygon points="610.07,935.82 610.07,123.99 598.07,123.99 598.07,935.82 "/><g class="Door None Beside" fill="#ffffff" id="Door" stroke="#000000" style="fill-opacity: 1; stroke-width: 1; stroke-opacity: 1;"><polygon points="610.07,701.36 610.07,619.99 598.07,619.99 598.07,701.36 "/></g><g class="Door None Beside" fill="#ffffff" id="Door" stroke="#000000" style="fill-opacity: 1; stroke-width: 1; stroke-opacity: 1;"><polygon points="610.07,599.82 610.07,479.45 598.07,479.45 598.07,599.82 "/></g></g><g class="Wall" fill="#000000" id="Wall" stroke="#000000" style="fill-opacity: 1; stroke-opacity: 1; stroke-width: 1;"><polygon points="610.07,373.93 832.23,373.93 832.23,361.93 610.07,361.93 "/><g class="Door None Beside" fill="#ffffff" id="Door" stroke="#000000" style="fill-opacity: 1; stroke-width: 1; stroke-opacity: 1;"><polygon points="659.85,373.93 739.87,373.93 739.87,361.93 659.85,361.93 "/></g></g><g class="Wall" fill="#000000" id="Wall" stroke="#000000" style="fill-opacity: 1; stroke-opacity: 1; stroke-width: 1;"><polygon points="598.07,613.92 165.59,613.92 165.59,601.92 598.07,601.92 "/></g><g class="Wall" fill="#000000" id="Wall" stroke="#000000" style="fill-opacity: 1; stroke-opacity: 1; stroke-width: 1;"><polygon points="844.23,535.78 1232.94,535.78 1232.94,523.78 844.23,523.78 "/></g><g class="Railing" fill="#ffffff" id="Railing" stroke="#000000" style="fill-opacity: 1; stroke-opacity: 1; stroke-width: 1;"><polygon points="165.59,612.47 14.74,612.47 18.74,608.47 165.59,608.47 " style="stroke-dasharray: 150.857, 5.65685, 150.857;"/></g><g class="Railing" fill="#ffffff" id="Railing" stroke="#000000" style="fill-opacity: 1; stroke-opacity: 1; stroke-width: 1;"><polygon points="14.74,612.47 14.74,357.93 18.74,361.93 18.74,608.47 " style="stroke-dasharray: 254.536, 5.65685, 246.536, 5.65685;"/></g><g class="Railing" fill="#ffffff" id="Railing" stroke="#000000" style="fill-opacity: 1; stroke-opacity: 1; stroke-width: 1;"><polygon points="18.74,361.93 165.59,361.93 165.59,357.93 14.74,357.93 " style="stroke-dasharray: 301.714, 5.65685;"/></g><g class="FixedFurniture BaseCabinet" fill="#ffffff" stroke="#000000" style="fill-opacity: 1; stroke-opacity: 1;" transform="matrix(0,-1,1,0,844.2273,847.0979)">
<g class="BoundaryPolygon">
<polygon points="0.00,0.00 188.60,0.00 188.60,57.83 0.00,57.83 "/>
</g>
<g class="Direction" fill-opacity="0.9" style="display: none;">
<polygon fill="#444444" points="100.61,53.20 100.61,42.58 97.60,42.58 97.60,53.20 93.80,53.20 99.10,58.00 104.41,53.20 100.61,53.20 "/>
</g>
<g class="Name" fill-opacity="0.9" style="display: none;">

</g>
<desc>Width:60 Height:90 Depth:60 Elevation:0</desc>
</g><g class="FixedFurniture ElectricalAppliance IntegratedStove" fill="#ffffff" stroke="#000000" style="fill-opacity: 1; stroke-opacity: 1;" transform="matrix(0,-1,1,0,844.9515,847.0979)">
<g class="BoundaryPolygon" fill="none" stroke="none">
<polygon points="0.00,0.00 60.00,0.00 60.00,57.11 0.00,57.11 "/>
</g>
<g class="InnerPolygon">
<polygon points="2.00,2.00 58.00,2.00 58.00,55.20 2.00,55.20 "/>
</g>
<g class="OuterCircle">
<circle cx="16" cy="15.22814467648203" r="8"/>
<circle cx="44" cy="15.22814467648203" r="8"/>
<circle cx="16" cy="41.87739786032558" r="8"/>
<circle cx="44" cy="41.87739786032558" r="8"/>
</g>
<g class="Direction" fill-opacity="0.9" style="display: none;">
<polygon fill="#444444" points="32.01,52.53 32.01,41.92 29.00,41.92 29.00,52.53 25.20,52.53 30.50,57.34 35.80,52.53 32.01,52.53 "/>
</g>
<g class="Name" fill-opacity="0.9" style="display: none;">

</g>
<desc>Width:60 Height:90 Depth:30 Elevation:0</desc>
</g><g class="FixedFurniture BaseCabinet" fill="#ffffff" stroke="#000000" style="fill-opacity: 1; stroke-opacity: 1;" transform="matrix(-1,0,0,-1,1088.0574,908.8178)">
<g class="BoundaryPolygon">
<polygon points="0.00,0.00 185.61,0.00 185.61,61.76 0.00,61.76 "/>
</g>
<g class="Direction" fill-opacity="0.9" style="display: none;">
<polygon fill="#444444" points="99.02,56.82 99.02,46.20 96.01,46.20 96.01,56.82 92.21,56.82 97.51,61.62 102.81,56.82 99.02,56.82 "/>
</g>
<g class="Name" fill-opacity="0.9" style="display: none;">

</g>
<desc>Width:60 Height:90 Depth:60 Elevation:0</desc>
</g><g class="FixedFurniture DoubleSink" fill="#ffffff" stroke="#000000" style="fill-opacity: 1; stroke-opacity: 1;" transform="matrix(-1,0,0,-1,988.4788,908.9384)">
<g class="BoundaryPolygon" fill="none" stroke="none">
<polygon points="0.00,0.00 80.66,0.00 80.66,60.00 0.00,60.00 "/>
</g>
<g class="InnerPolygonLeft">
<polygon points="5.76,9.90 38.60,9.90 38.60,54.90 5.76,54.90 "/>
</g>
<g class="InnerPolygonRight">
<polygon points="42.06,10.00 74.90,10.00 74.90,55.00 42.06,55.00 "/>
</g>
<g class="OuterDrain" stroke-width="0.8">
<circle cx="22.70059074084152" cy="32.5" r="3.5"/>
<circle cx="57.84617539036775" cy="32.5" r="3.5"/>
</g>
<g class="InnerDrain" stroke-width="0.8">
<circle cx="22.70059074084152" cy="32.5" r="2"/>
<circle cx="57.84617539036775" cy="32.5" r="2"/>
</g>
<g class="Faucet">
<polygon points="36.87,4.90 42.87,4.90 42.87,18.90 36.87,18.90 "/>
</g>
<g class="Direction" fill-opacity="0.9" style="display: none;">
<polygon fill="#444444" points="42.07,54.70 42.07,44.08 39.06,44.08 39.06,54.70 35.26,54.70 40.56,60.00 45.86,54.70 42.07,54.70 "/>
</g>
<g class="Name" fill-opacity="0.9" style="display: none;">

</g>
<desc>Width:70 Height:90 Depth:60 Elevation:0</desc>
</g><g class="FixedFurniture Closet" fill="#ffffff" stroke="#000000" style="fill-opacity: 1; stroke-opacity: 1;" transform="matrix(-1,0,0,-1,1207.9375,908.6147)">
<g class="BoundaryPolygon">
<polygon points="0.00,0.00 59.67,0.00 59.67,61.64 0.00,61.64 "/>
</g>
<g class="Direction" fill-opacity="0.9" style="display: none;">
<polygon fill="#444444" points="31.34,56.20 31.34,45.58 28.33,45.58 28.33,56.20 24.52,56.20 29.83,61.50 35.13,56.20 31.34,56.20 "/>
</g>
<g class="Name" fill-opacity="0.9" style="display: none;">

</g>
<desc>Width:60 Height:200 Depth:60 Elevation:0</desc>
</g><g class="FixedFurniture ElectricalAppliance Refrigerator" fill="#ffffff" stroke="#000000" style="fill-opacity: 1; stroke-opacity: 1;" transform="matrix(-1,0,0,-1.0275,1148.0574,908.7553)">
<g class="BoundaryPolygon">
<polygon points="0,0 60,0 60,60 0,60"/>
</g>
<g class="electricitySign" fill="none">
<path d="M0,0,30,37.1v-18L60,56.3"/>
</g>
<g class="Doors">
<rect height="4" width="60" y="56"/>
</g>
<g class="Direction" fill-opacity="0.9" style="display: none;">
<polygon fill="#444444" points="32.009 55.197 32.009 44.581 29 44.581 29 55.197 25.197 55.197 30.5 60 35.803 55.197 32.009 55.197"/>
</g>
<g class="Name" fill-opacity="0.9" style="display: none;">

</g>
<desc>Width:60 Height:170 Depth:60 Elevation:0</desc>
</g><g class="FixedFurniture Toilet" fill="#ffffff" stroke="#000000" style="fill-opacity: 1; stroke-opacity: 1;" transform="matrix(0,1,-1,0,832.2274,300.4186)">
<g class="BoundaryPolygon" fill="none" stroke="none">
<polygon points="0,0 41,0 41,71 0,71"/>
</g>
<g class="InnerPolygon">
<rect height="17.98" width="39.989" x="0.502" y="0.5"/>
<path d="M40.491,44.237S41.619,70.5,20.907,70.5C-.523,70.5.6,44.237.6,44.237L.5,18.48H40.491Z"/>
<rect height="3.03" width="6.357" x="17.318" y="7.975"/>
</g>
<desc>Width:41 Height:85 Depth:71 Elevation:0</desc>
</g><g class="FixedFurnitureSet" fill="#ffffff" id="FixedFurnitureSet" stroke="#000000" style="fill-opacity: 0.4; stroke-opacity: 0.4;" transform="matrix(0,1,-1,0,832.2274,225.3841)"><g class="FixedFurniture BaseCabinet" fill="#ffffff" stroke="#000000" style="fill-opacity: 1; stroke-opacity: 1;" transform="matrix(1,0,0,1,0,0)">
<g class="BoundaryPolygon">
<polygon points="0.00,0.00 60.00,0.00 60.00,37.11 0.00,37.11 "/>
</g>
<g class="Direction" fill-opacity="0.9" style="display: none;">
<polygon fill="#444444" points="32.01,34.14 32.01,23.52 29.00,23.52 29.00,34.14 25.20,34.14 30.50,38.94 35.80,34.14 32.01,34.14 "/>
</g>
<g class="Name" fill-opacity="0.9" style="display: none;">

</g>
<desc>Width:60 Height:5 Depth:60 Elevation:105</desc>
</g><g class="FixedFurniture Sink" fill="#ffffff" stroke="#000000" style="fill-opacity: 1; stroke-opacity: 1;" transform="matrix(1,0,0,1,0,0)">
<g class="BoundaryPolygon" fill="none" stroke="none">
<polygon points="0.00,0.00 60.00,0.00 60.00,37.11 0.00,37.11 "/>
</g>
<g class="InnerPolygon">
<polygon points="5.00,9.70 55.00,9.70 55.00,33.83 5.00,33.83 "/>
</g>
<g class="OuterDrain" stroke-width="0.8">
<circle cx="30" cy="19.915597942208358" r="3.5"/>
</g>
<g class="InnerDrain" stroke-width="0.8">
<circle cx="30" cy="19.915597942208358" r="2"/>
</g>
<g class="Faucet">
<polygon points="27.00,3.09 33.00,3.09 33.00,17.09 27.00,17.09 "/>
</g>
<g class="Direction" fill-opacity="0.9" style="display: none;">
<polygon fill="#444444" points="32.01,34.14 32.01,23.52 29.00,23.52 29.00,34.14 25.20,34.14 30.50,38.94 35.80,34.14 32.01,34.14 "/>
</g>
<g class="Name" fill-opacity="0.9" style="display: none;">

</g>
<desc>Width:60 Height:90 Depth:60 Elevation:0</desc>
</g></g><g class="FixedFurniture ShowerScreen" fill="#ffffff" stroke="#000000" style="fill-opacity: 1; stroke-opacity: 1;" transform="matrix(0,1,-1.1685,0,832.2273,222.8841)">
<g class="BoundaryPolygon">
<polygon points="0,0 2.5,0 2.5,60 0,60"/>
</g>
<g class="InnerPolygon" stroke-linejoin="round">
<rect height="60" width="2.5"/>
</g>
<desc>Width:2.5 Height:180 Depth:60 Elevation:135</desc>
</g><g class="FixedFurniture Shower" fill="#ffffff" stroke="#000000" style="fill-opacity: 1; stroke-opacity: 1;" transform="matrix(0,1,-1,0,832.2273,159.5237)">
<g class="BoundaryPolygon" fill="none" stroke="none">
<polygon points="0,0 32,0 32,19 0,19"/>
</g>
<g class="InnerPolygon">
<rect height="6.1" width="11.2" x="3.7" y="0.5"/>
<rect height="6.1" width="11.2" x="17.6" y="0.5"/>
<rect height="6.1" width="3.4" x="28.7" y="0.5"/>
<rect height="6.1" width="3.2" x="0.5" y="0.5"/>
<path d="M14.9,8.5c0,1.5-0.4,3.3-1.6,5    c-0.4,0.6-1,1.1-1.1,1.7c-0.2,1.1,0.3,2.8,2.5,3.2c0.5,0.1,1.3,0.1,1.6,0.1h-0.1c0.3,0,1.1,0,1.6-0.1c2.2-0.4,2.7-2.1,2.5-3.2    c-0.1-0.6-0.7-1.1-1.1-1.7c-1.2-1.7-1.6-3.5-1.6-5"/>
<path d="M12.2,15.3c0.1,0.2,1.6,1.9,4.2,1.9 c2.4-0.1,3.7-1.7,3.9-1.9"/>
<path d="M14.9,0.5h2.7v8c-0.9,0-1.8,0-2.7,0l0,0 C14.9,5.9,14.9,3.2,14.9,0.5z"/>
</g>
<g class="Indicator">
<path d="M3.7,3.6C5,3.1,5.2,3,5.2,3 c0,1.1,0,0,0,1.1C5.2,4.1,5.1,4.1,3.7,3.6"/>
<path d="M28.7,3.6 C27.4,3.1,27.2,3,27.2,3c0,1.1,0,0,0,1.1C27.2,4.1,27.3,4.1,28.7,3.6"/>
</g>
<desc>Width:32 Height:97 Depth:19 Elevation:135</desc>
</g><g class="FixedFurniture ElectricalAppliance WashingMachine" fill="#ffffff" stroke="#000000" style="fill-opacity: 1; stroke-opacity: 1;" transform="matrix(0,-1.0536,1,0,610.1452,212.201)">
<g class="BoundaryPolygon">
<polygon points="0,0 60,0 60,60 0,60"/>
</g>
<g class="electricitySign" fill="none">
<path d="M0,0,30,41V20.8L60,60"/>
</g>
<g class="Handle">
<path d="M2.7,59.4H57.3"/>
</g>
<g class="Direction" fill-opacity="0.9" style="display: none;">
<polygon fill="#444444" points="32.009 55.197 32.009 44.581 29 44.581 29 55.197 25.197 55.197 30.5 60 35.803 55.197 32.009 55.197"/>
</g>
<g class="Name" fill-opacity="0.9" style="display: none;">

</g>
<desc>Width:60 Height:90 Depth:60 Elevation:0</desc>
</g></g></g></g></svg>