<?xml version="1.0" encoding="utf-8"?>
<svg height="1116.8199768066406" id="temp" version="1.1" viewBox="0 0 1469.6899108886719 1116.8199768066406" width="1469.6899108886719" xmlns="http://www.w3.org/2000/svg" xmlns:xlink="http://www.w3.org/1999/xlink"><defs/><g class="Model v1-1" id="Model"><g class="Floor"><g class="Floorplan Floor-1" id="Floor-1"><g class="Space Outdoor Balcony" fill="#ffffff" id="e48cf55a-42f5-4f13-99b4-bbbe6688151c" stroke="#000000" style="fill-opacity: 1; stroke-opacity: 1; stroke-width: 1;"><polygon points="1281.10,209.84 1462.19,209.85 1462.69,572.63 1281.10,572.62 1281.10,209.84 1281.10,209.84 "/><g class="Dimension" transform="matrix(1,0,0,1,1281.0974,209.8493)"><g class="Visual" style="display: none;" transform="matrix(1,0,0,1,0,0)"><g class="DimensionMark" fill="#000000" id="mark1" stroke="none" style="fill-opacity: 1; pointer-events: visible;" transform="matrix(1,0,0,1,90.7978,0)"><polygon points="-5,5,0,0,5,5"/></g><g class="DimensionMark" fill="#000000" id="mark2" stroke="none" style="fill-opacity: 1; pointer-events: visible;" transform="matrix(1,0,0,1,181.3426,181.3866)"><polygon points="-5,-5,0,0,-5,5"/></g><g class="DimensionMark" fill="#000000" id="mark3" stroke="none" style="fill-opacity: 1; pointer-events: visible;" transform="matrix(1,0,0,1,90.7978,362.7726)"><polygon points="-5,-5,0,0,5,-5"/></g><g class="DimensionMark" fill="#000000" id="mark4" stroke="none" style="fill-opacity: 1; pointer-events: visible;" transform="matrix(1,0,0,1,0,181.3866)"><polygon points="5,5,0,0,5,-5"/></g></g><g class="SpaceDimensionsLabel" transform="matrix(1,0,0,1,18.0525,191.9382)"><g class="TextLabel NameLabel" id="NameLabel" style="display: block;"/><g class="TextLabel DimensionMeasureLabel" id="DimensionMeasureLabel" style="display: none;" transform="matrix(1,0,0,1,-63.7266,80.1563)"/></g></g></g><g class="Space Kitchen" fill="#ffffff" id="e7e3f254-8a82-4d44-a44c-97b8d54ede0c" stroke="#ffffff" style="fill-opacity: 1; stroke-opacity: 1; stroke-width: 1;"><polygon points="411.18,270.50 441.29,270.50 441.29,573.00 104.17,572.61 105.00,209.00 105.03,208.84 411.18,208.84 "/><g class="Dimension" transform="matrix(1,0,0,1,104.5867,208.8444)"><g class="Visual" style="display: none;" transform="matrix(1,0,0,1,0,0)"><g class="DimensionMark" fill="#000000" id="mark1" stroke="none" style="fill-opacity: 1; pointer-events: visible;" transform="matrix(1,0,0,1,168.1436,0)"><polygon points="-5,5,0,0,5,5"/></g><g class="DimensionMark" fill="#000000" id="mark2" stroke="none" style="fill-opacity: 1; pointer-events: visible;" transform="matrix(1,0,0,1,336.6995,182.0787)"><polygon points="-5,-5,0,0,-5,5"/></g><g class="DimensionMark" fill="#000000" id="mark3" stroke="none" style="fill-opacity: 1; pointer-events: visible;" transform="matrix(1,0,0,1,168.1436,363.9595)"><polygon points="-5,-5,0,0,5,-5"/></g><g class="DimensionMark" fill="#000000" id="mark4" stroke="none" style="fill-opacity: 1; pointer-events: visible;" transform="matrix(1,0,0,1,0,182.0787)"><polygon points="5,5,0,0,5,-5"/></g></g><g class="SpaceDimensionsLabel" transform="matrix(1,0,0,1,135.0756,169.5895)"><g class="TextLabel NameLabel" id="NameLabel" style="display: block;"/><g class="TextLabel DimensionMeasureLabel" id="DimensionMeasureLabel" style="display: none;" transform="matrix(1,0,0,1,-128.5547,79.375)"/></g></g></g><g class="Space LivingRoom" fill="#ffffff" id="b446c70c-8c51-4b90-8133-3119c91c6275" stroke="#ffffff" style="fill-opacity: 1; stroke-opacity: 1; stroke-width: 1;"><polygon points="1250.10,572.62 643.58,572.62 643.58,573.00 441.29,573.00 441.29,474.11 621.54,474.11 621.54,421.72 809.69,421.72 809.69,210.84 1250.10,210.84 "/><g class="Dimension" transform="matrix(1,0,0,1,441.2863,210.8444)"><g class="Visual" style="display: none;" transform="matrix(1,0,0,1,0,0)"><g class="DimensionMark" fill="#000000" id="mark1" stroke="none" style="fill-opacity: 1; pointer-events: visible;" transform="matrix(1,0,0,1,404.4056,0)"><polygon points="-5,5,0,0,5,5"/></g><g class="DimensionMark" fill="#000000" id="mark2" stroke="none" style="fill-opacity: 1; pointer-events: visible;" transform="matrix(1,0,0,1,808.8111,263.2616)"><polygon points="-5,-5,0,0,-5,5"/></g><g class="DimensionMark" fill="#000000" id="mark3" stroke="none" style="fill-opacity: 1; pointer-events: visible;" transform="matrix(1,0,0,1,404.4056,361.7726)"><polygon points="-5,-5,0,0,5,-5"/></g><g class="DimensionMark" fill="#000000" id="mark4" stroke="none" style="fill-opacity: 1; pointer-events: visible;" transform="matrix(1,0,0,1,0,263.2616)"><polygon points="5,5,0,0,5,-5"/></g></g><g class="SpaceDimensionsLabel" transform="matrix(1,0,0,1,568.1375,191.2605)"><g class="TextLabel NameLabel" id="NameLabel" style="display: block;"/><g class="TextLabel DimensionMeasureLabel" id="DimensionMeasureLabel" style="display: none;" transform="matrix(1,0,0,1,-114.6171,80.1563)"/></g></g></g><g class="Space Entry Lobby" fill="#ffffff" id="5c4c456e-ba65-47a7-9bb5-bf8427956f3f" stroke="#ffffff" style="fill-opacity: 1; stroke-opacity: 1; stroke-width: 1;"><polygon points="643.58,573.00 643.58,1007.16 482.29,1007.16 482.00,573.00 "/><g class="Dimension" transform="matrix(1,0,0,1,482.1433,573)"><g class="Visual" style="display: none;" transform="matrix(1,0,0,1,0,0)"><g class="DimensionMark" fill="#000000" id="mark1" stroke="none" style="fill-opacity: 1; pointer-events: visible;" transform="matrix(1,0,0,1,80.6458,0)"><polygon points="-5,5,0,0,5,5"/></g><g class="DimensionMark" fill="#000000" id="mark2" stroke="none" style="fill-opacity: 1; pointer-events: visible;" transform="matrix(1,0,0,1,161.4348,217.078)"><polygon points="-5,-5,0,0,-5,5"/></g><g class="DimensionMark" fill="#000000" id="mark3" stroke="none" style="fill-opacity: 1; pointer-events: visible;" transform="matrix(1,0,0,1,80.6458,434.1561)"><polygon points="-5,-5,0,0,5,-5"/></g><g class="DimensionMark" fill="#000000" id="mark4" stroke="none" style="fill-opacity: 1; pointer-events: visible;" transform="matrix(1,0,0,1,0,217.078)"><polygon points="5,5,0,0,5,-5"/></g></g><g class="SpaceDimensionsLabel" transform="matrix(1,0,0,1,27.5771,270.0207)"><g class="TextLabel NameLabel" id="NameLabel" style="display: block;"/><g class="TextLabel DimensionMeasureLabel" id="DimensionMeasureLabel" style="display: none;" transform="matrix(1,0,0,1,-119.0312,79.8125)"/></g></g></g><g class="Space Bedroom" fill="#ffffff" id="34a0bbe8-f299-4ac1-a0c2-6a8efbf4a47e" stroke="#ffffff" style="fill-opacity: 1; stroke-opacity: 1; stroke-width: 1;"><polygon points="473.29,899.54 104.17,899.54 104.17,590.61 473.29,590.61 "/><g class="Dimension" transform="matrix(1,0,0,1,104.174,590.6079)"><g class="Visual" style="display: none;" transform="matrix(1,0,0,1,0,0)"><g class="DimensionMark" fill="#000000" id="mark1" stroke="none" style="fill-opacity: 1; pointer-events: visible;" transform="matrix(1,0,0,1,184.5563,0)"><polygon points="-5,5,0,0,5,5"/></g><g class="DimensionMark" fill="#000000" id="mark2" stroke="none" style="fill-opacity: 1; pointer-events: visible;" transform="matrix(1,0,0,1,369.1125,154.4647)"><polygon points="-5,-5,0,0,-5,5"/></g><g class="DimensionMark" fill="#000000" id="mark3" stroke="none" style="fill-opacity: 1; pointer-events: visible;" transform="matrix(1,0,0,1,184.5563,308.9296)"><polygon points="-5,-5,0,0,5,-5"/></g><g class="DimensionMark" fill="#000000" id="mark4" stroke="none" style="fill-opacity: 1; pointer-events: visible;" transform="matrix(1,0,0,1,0,154.4647)"><polygon points="5,5,0,0,5,-5"/></g></g><g class="SpaceDimensionsLabel" transform="matrix(1,0,0,1,154.6309,160.7648)"><g class="TextLabel NameLabel" id="NameLabel" style="display: block;"/><g class="TextLabel DimensionMeasureLabel" id="DimensionMeasureLabel" style="display: none;" transform="matrix(1,0,0,1,-113.7031,79.9219)"/></g></g></g><g class="Space Bath Shower" fill="#ffffff" id="acc45eaf-6a68-409d-b39c-036dc96f289b" stroke="#ffffff" style="fill-opacity: 1; stroke-opacity: 1; stroke-width: 1;"><polygon points="611.43,220.84 611.54,220.84 611.54,464.11 450.29,464.11 450.29,208.84 611.43,208.84 "/><g class="Dimension" transform="matrix(1,0,0,1,450.2863,208.8444)"><g class="Visual" style="display: none;" transform="matrix(1,0,0,1,0,0)"><g class="DimensionMark" fill="#000000" id="mark1" stroke="none" style="fill-opacity: 1; pointer-events: visible;" transform="matrix(1,0,0,1,80.6279,0)"><polygon points="-5,5,0,0,5,5"/></g><g class="DimensionMark" fill="#000000" id="mark2" stroke="none" style="fill-opacity: 1; pointer-events: visible;" transform="matrix(1,0,0,1,161.2558,127.6308)"><polygon points="-5,-5,0,0,-5,5"/></g><g class="DimensionMark" fill="#000000" id="mark3" stroke="none" style="fill-opacity: 1; pointer-events: visible;" transform="matrix(1,0,0,1,80.6279,255.2616)"><polygon points="-5,-5,0,0,5,-5"/></g><g class="DimensionMark" fill="#000000" id="mark4" stroke="none" style="fill-opacity: 1; pointer-events: visible;" transform="matrix(1,0,0,1,0,127.6308)"><polygon points="5,5,0,0,5,-5"/></g></g><g class="SpaceDimensionsLabel" transform="matrix(1,0,0,1,55.3103,112.1457)"><g class="TextLabel NameLabel" id="NameLabel" style="display: block;"/><g class="TextLabel DimensionMeasureLabel" id="DimensionMeasureLabel" style="display: none;" transform="matrix(1,0,0,1,-106.3672,79.7656)"/></g></g></g><g class="Space Undefined" fill="#ffffff" id="d40f841b-4ae2-49e9-a940-76fa50e38625" stroke="#ffffff" style="fill-opacity: 1; stroke-opacity: 1; stroke-width: 1;"><polygon points="792.69,403.72 629.53,403.72 629.53,220.84 792.69,220.84 "/><g class="Dimension" transform="matrix(1,0,0,1,629.5333,220.8444)"><g class="Visual" style="display: none;" transform="matrix(1,0,0,1,0,0)"><g class="DimensionMark" fill="#000000" id="mark1" stroke="none" style="fill-opacity: 1; pointer-events: visible;" transform="matrix(1,0,0,1,81.5758,0)"><polygon points="-5,5,0,0,5,5"/></g><g class="DimensionMark" fill="#000000" id="mark2" stroke="none" style="fill-opacity: 1; pointer-events: visible;" transform="matrix(1,0,0,1,163.1517,91.4363)"><polygon points="-5,-5,0,0,-5,5"/></g><g class="DimensionMark" fill="#000000" id="mark3" stroke="none" style="fill-opacity: 1; pointer-events: visible;" transform="matrix(1,0,0,1,81.5758,182.8726)"><polygon points="-5,-5,0,0,5,-5"/></g><g class="DimensionMark" fill="#000000" id="mark4" stroke="none" style="fill-opacity: 1; pointer-events: visible;" transform="matrix(1,0,0,1,0,91.4363)"><polygon points="5,5,0,0,5,-5"/></g></g><g class="SpaceDimensionsLabel" transform="matrix(1,0,0,1,81.5759,91.4363)"><g class="TextLabel NameLabel" id="NameLabel" style="display: block;"/><g class="TextLabel DimensionMeasureLabel" id="DimensionMeasureLabel" style="display: none;" transform="matrix(1,0,0,1,-40.5156,80.5781)"/></g></g></g><g class="Space Closet WalkIn" fill="#ffffff" id="1b3a6ad9-379f-4cc9-bc53-24fbcfae28a6" stroke="#ffffff" style="fill-opacity: 1; stroke-opacity: 1; stroke-width: 1;"><polygon points="316.10,1007.16 104.17,1007.16 104.17,908.54 316.10,908.54 "/><g class="Dimension" transform="matrix(1,0,0,1,104.174,908.5375)"><g class="Visual" style="display: none;" transform="matrix(1,0,0,1,0,0)"><g class="DimensionMark" fill="#000000" id="mark1" stroke="none" style="fill-opacity: 1; pointer-events: visible;" transform="matrix(1,0,0,1,105.9621,0)"><polygon points="-5,5,0,0,5,5"/></g><g class="DimensionMark" fill="#000000" id="mark2" stroke="none" style="fill-opacity: 1; pointer-events: visible;" transform="matrix(1,0,0,1,211.9241,49.3093)"><polygon points="-5,-5,0,0,-5,5"/></g><g class="DimensionMark" fill="#000000" id="mark3" stroke="none" style="fill-opacity: 1; pointer-events: visible;" transform="matrix(1,0,0,1,105.9621,98.6186)"><polygon points="-5,-5,0,0,5,-5"/></g><g class="DimensionMark" fill="#000000" id="mark4" stroke="none" style="fill-opacity: 1; pointer-events: visible;" transform="matrix(1,0,0,1,0,49.3093)"><polygon points="5,5,0,0,5,-5"/></g></g><g class="SpaceDimensionsLabel" transform="matrix(1,0,0,1,79.4306,61.1427)"><g class="TextLabel NameLabel" id="NameLabel" style="display: block;"/><g class="TextLabel DimensionMeasureLabel" id="DimensionMeasureLabel" style="display: none;" transform="matrix(1,0,0,1,-116.3203,79.6562)"/></g></g></g><g class="Space Bath" fill="#ffffff" id="46187056-0be4-402d-a9f8-da479650c8ab" stroke="#ffffff" style="fill-opacity: 1; stroke-opacity: 1; stroke-width: 1;"><polygon points="473.29,1007.16 379.47,1007.16 379.47,975.70 323.10,975.70 323.10,908.54 473.29,908.54 "/><g class="Dimension" transform="matrix(1,0,0,1,323.0981,908.5375)"><g class="Visual" style="display: none;" transform="matrix(1,0,0,1,0,0)"><g class="DimensionMark" fill="#000000" id="mark1" stroke="none" style="fill-opacity: 1; pointer-events: visible;" transform="matrix(1,0,0,1,75.0942,0)"><polygon points="-5,5,0,0,5,5"/></g><g class="DimensionMark" fill="#000000" id="mark2" stroke="none" style="fill-opacity: 1; pointer-events: visible;" transform="matrix(1,0,0,1,150.1884,49.3093)"><polygon points="-5,-5,0,0,-5,5"/></g><g class="DimensionMark" fill="#000000" id="mark3" stroke="none" style="fill-opacity: 1; pointer-events: visible;" transform="matrix(1,0,0,1,75.0942,98.6186)"><polygon points="-5,-5,0,0,5,-5"/></g><g class="DimensionMark" fill="#000000" id="mark4" stroke="none" style="fill-opacity: 1; pointer-events: visible;" transform="matrix(1,0,0,1,0,49.3093)"><polygon points="5,5,0,0,5,-5"/></g></g><g class="SpaceDimensionsLabel" transform="matrix(1,0,0,1,82.9463,42.5784)"><g class="TextLabel NameLabel" id="NameLabel" style="display: block;"/><g class="TextLabel DimensionMeasureLabel" id="DimensionMeasureLabel" style="display: none;" transform="matrix(1,0,0,1,-112.1484,80.0781)"/></g></g></g><g class="Wall External" fill="#000000" id="Wall" stroke="#000000" style="fill-opacity: 1; stroke-opacity: 1; stroke-width: 1;"><polygon points="75.04,191.84 611.43,191.84 611.43,208.84 105.03,208.84 "/></g><g class="Wall External" fill="#000000" id="Wall" stroke="#000000" style="fill-opacity: 1; stroke-opacity: 1; stroke-width: 1;"><polygon points="611.43,191.84 809.69,191.84 809.69,220.84 611.43,220.84 "/></g><g class="Wall External" fill="#000000" id="Wall" stroke="#000000" style="fill-opacity: 1; stroke-opacity: 1; stroke-width: 1;"><polygon points="809.69,191.84 1281.10,191.84 1250.10,210.84 809.69,210.84 "/></g><g class="Wall External" fill="#000000" id="Wall" stroke="#000000" style="fill-opacity: 1; stroke-opacity: 1; stroke-width: 1;"><polygon points="1281.10,191.84 1281.10,590.62 1250.10,572.62 1250.10,210.84 "/><g class="Door Swing Beside" fill="#ffffff" id="Door" stroke="#000000" style="fill-opacity: 1; stroke-width: 1; stroke-opacity: 1;"><polygon points="1281.10,456.94 1281.10,539.64 1250.10,539.64 1250.10,456.94 "/><g class="Panel Right Positive" fill="none" id="Panel" style=""><g class="PanelArea" fill="none" id="PanelArea" stroke="none" style=""><polygon points="1281.10,456.94 1281.10,539.64 1250.10,539.64 1250.10,456.94 "/></g><path d="M1250.10,456.94 q-82.70,0.00 -82.70,82.70 l82.70,0.00Z"/></g></g><g class="Window Regular" fill="#f0f0ff" id="Window" stroke="#000000" style="fill-opacity: 1; stroke-width: 1; stroke-opacity: 1;"><polygon points="1281.10,234.70 1281.10,289.37 1250.10,289.37 1250.10,234.70 "/><g class="Glass" id="Glass"><polygon points="1281.10,234.70 1281.10,289.37 1250.10,289.37 1250.10,234.70 "/></g><g class="Panel" id="Panel"><line x1="1265.5974092874455" x2="1265.5974092874455" y1="242.20120882569074" y2="281.87287155691547"/><line x1="1281.0974092874455" x2="1250.0974092874455" y1="242.20120882569074" y2="242.20120882569074"/><line x1="1281.0974092874455" x2="1250.0974092874455" y1="281.87287155691547" y2="281.87287155691547"/></g></g><g class="Window Regular" fill="#f0f0ff" id="Window" stroke="#000000" style="fill-opacity: 1; stroke-width: 1; stroke-opacity: 1;"><polygon points="1281.10,289.37 1281.10,449.09 1250.10,449.09 1250.10,289.37 "/><g class="Glass" id="Glass"><polygon points="1281.10,289.37 1281.10,449.09 1250.10,449.09 1250.10,289.37 "/></g><g class="Panel" id="Panel"><line x1="1265.5974092874455" x2="1265.5974092874455" y1="296.87287155691547" y2="441.5878413335271"/><line x1="1281.0974092874455" x2="1250.0974092874455" y1="296.87287155691547" y2="296.87287155691547"/><line x1="1281.0974092874455" x2="1250.0974092874455" y1="441.5878413335271" y2="441.5878413335271"/></g></g></g><g class="Wall External" fill="#000000" id="Wall" stroke="#000000" style="fill-opacity: 1; stroke-opacity: 1; stroke-width: 1;"><polygon points="1281.10,590.62 659.58,590.62 643.58,572.62 1250.10,572.62 "/></g><g class="Wall External" fill="#000000" id="Wall" stroke="#000000" style="fill-opacity: 1; stroke-opacity: 1; stroke-width: 1;"><polygon points="659.58,590.62 659.58,1023.16 643.58,1007.16 643.58,572.62 "/></g><g class="Wall External" fill="#000000" id="Wall" stroke="#000000" style="fill-opacity: 1; stroke-opacity: 1; stroke-width: 1;"><polygon points="659.58,1023.16 379.47,1023.16 379.47,1007.16 643.58,1007.16 "/><g class="Door Swing Opposite" fill="#ffffff" id="Door" stroke="#000000" style="fill-opacity: 1; stroke-width: 1; stroke-opacity: 1;"><polygon points="579.62,1023.16 485.96,1023.16 485.96,1007.16 579.62,1007.16 "/><g class="Panel Right Negative" fill="none" id="Panel" style=""><g class="PanelArea" fill="none" id="PanelArea" stroke="none" style=""><polygon points="579.62,1023.16 485.96,1023.16 485.96,1007.16 579.62,1007.16 "/></g><path d="M485.96,1023.16 q0.00,93.66 93.66,93.66 l0.00,-93.66Z"/></g><g class="Panel Left Positive" fill="none" id="Panel" style=""><g class="PanelArea" fill="none" id="PanelArea" stroke="none" style=""><polygon points="579.62,1023.16 485.96,1023.16 485.96,1007.16 579.62,1007.16 "/></g><path d="M485.96,1007.16 q0.00,-93.66 93.66,-93.66 l0.00,93.66Z"/></g></g></g><g class="Wall External" fill="#000000" id="Wall" stroke="#000000" style="fill-opacity: 1; stroke-opacity: 1; stroke-width: 1;"><polygon points="379.47,1023.16 316.10,1023.16 316.10,975.70 379.47,975.70 "/></g><g class="Wall External" fill="#000000" id="Wall" stroke="#000000" style="fill-opacity: 1; stroke-opacity: 1; stroke-width: 1;"><polygon points="316.10,1023.16 74.16,1023.16 104.17,1007.16 316.10,1007.16 "/></g><g class="Wall External" fill="#000000" id="Wall" stroke="#000000" style="fill-opacity: 1; stroke-opacity: 1; stroke-width: 1;"><polygon points="74.16,1023.16 75.04,191.84 105.03,208.84 104.17,1007.16 "/><g class="Window Regular" fill="#f0f0ff" id="Window" stroke="#000000" style="fill-opacity: 1; stroke-width: 1; stroke-opacity: 1;"><polygon points="74.78,435.39 74.92,304.39 104.92,304.43 104.78,435.42 "/><g class="Glass" id="Glass"><polygon points="74.78,435.39 74.92,304.39 104.92,304.43 104.78,435.42 "/></g><g class="Panel" id="Panel"><line x1="89.79211513608854" x2="89.91589202589782" y1="427.90719279880295" y2="311.9104330611203"/><line x1="74.79212367590051" x2="104.79210659627657" y1="427.8911867285101" y2="427.92319886909587"/><line x1="74.91590056570978" x2="104.91588348608583" y1="311.89442699082747" y2="311.92643913141325"/></g></g><g class="Window Regular" fill="#f0f0ff" id="Window" stroke="#000000" style="fill-opacity: 1; stroke-width: 1; stroke-opacity: 1;"><polygon points="74.73,489.86 74.78,435.39 104.78,435.42 104.73,489.89 "/><g class="Glass" id="Glass"><polygon points="74.73,489.86 74.78,435.39 104.78,435.42 104.73,489.89 "/></g><g class="Panel" id="Panel"><line x1="89.73399116728748" x2="89.77610906579567" y1="482.3777167746922" y2="442.907184258991"/><line x1="74.73399970709946" x2="104.73398262747551" y1="482.36171070439934" y2="482.3937228449852"/><line x1="74.77611760560762" x2="104.77610052598368" y1="442.8911781886982" y2="442.9231903292839"/></g></g><g class="Window Regular" fill="#f0f0ff" id="Window" stroke="#000000" style="fill-opacity: 1; stroke-width: 1; stroke-opacity: 1;"><polygon points="74.39,805.86 74.53,673.95 104.53,673.99 104.39,805.89 "/><g class="Glass" id="Glass"><polygon points="74.39,805.86 74.53,673.95 104.53,673.99 104.39,805.89 "/></g><g class="Panel" id="Panel"><line x1="89.39680110799995" x2="89.52154584950675" y1="798.3733307651619" y2="681.4695546935552"/><line x1="74.39680964781192" x2="104.39679256818798" y1="798.357324694869" y2="798.3893368354547"/><line x1="74.52155438931871" x2="104.52153730969476" y1="681.4535486232623" y2="681.4855607638481"/></g></g><g class="Window Regular" fill="#f0f0ff" id="Window" stroke="#000000" style="fill-opacity: 1; stroke-width: 1; stroke-opacity: 1;"><polygon points="74.33,858.54 74.39,804.96 104.39,805.00 104.33,858.57 "/><g class="Glass" id="Glass"><polygon points="74.33,858.54 74.39,804.96 104.39,805.00 104.33,858.57 "/></g><g class="Panel" id="Panel"><line x1="89.34058721483538" x2="89.3817485378598" y1="851.0538389713311" y2="812.4797553543776"/><line x1="74.34059575464735" x2="104.34057867502341" y1="851.0378329010382" y2="851.0698450416239"/><line x1="74.38175707767176" x2="104.38173999804782" y1="812.4637492840848" y2="812.4957614246705"/></g></g></g><g class="Wall" fill="#000000" id="Wall" stroke="#000000" style="fill-opacity: 1; stroke-opacity: 1; stroke-width: 1;"><polygon points="482.29,1035.18 482.29,572.61 473.29,590.61 473.29,1035.18 "/><g class="Door Swing Beside" fill="#ffffff" id="Door" stroke="#000000" style="fill-opacity: 1; stroke-width: 1; stroke-opacity: 1;"><polygon points="482.29,972.28 482.29,913.35 473.29,913.35 473.29,972.28 "/><g class="Panel Left Negative" fill="none" id="Panel" style=""><g class="PanelArea" fill="none" id="PanelArea" stroke="none" style=""><polygon points="482.29,972.28 482.29,913.35 473.29,913.35 473.29,972.28 "/></g><path d="M482.29,972.28 q58.93,0.00 58.93,-58.93 l-58.93,0.00Z"/></g></g><g class="Door Swing Beside" fill="#ffffff" id="Door" stroke="#000000" style="fill-opacity: 1; stroke-width: 1; stroke-opacity: 1;"><polygon points="482.29,896.02 482.29,812.20 473.29,812.20 473.29,896.02 "/><g class="Panel Left Positive" fill="none" id="Panel" style=""><g class="PanelArea" fill="none" id="PanelArea" stroke="none" style=""><polygon points="482.29,896.02 482.29,812.20 473.29,812.20 473.29,896.02 "/></g><path d="M473.29,812.20 q-83.82,0.00 -83.82,83.82 l83.82,0.00Z"/></g></g></g><g class="Wall" fill="#000000" id="Wall" stroke="#000000" style="fill-opacity: 1; stroke-opacity: 1; stroke-width: 1;"><polygon points="482.29,572.61 74.64,572.61 74.64,590.61 473.29,590.61 "/></g><g class="Wall" fill="#000000" id="Wall" stroke="#000000" style="fill-opacity: 1; stroke-opacity: 1; stroke-width: 1;"><polygon points="74.28,908.54 482.29,908.54 482.29,899.54 74.28,899.54 "/><g class="Door Swing Beside" fill="#ffffff" id="Door" stroke="#000000" style="fill-opacity: 1; stroke-width: 1; stroke-opacity: 1;"><polygon points="179.38,908.54 240.20,908.54 240.20,899.54 179.38,899.54 "/><g class="Panel Left Positive" fill="none" id="Panel" style=""><g class="PanelArea" fill="none" id="PanelArea" stroke="none" style=""><polygon points="179.38,908.54 240.20,908.54 240.20,899.54 179.38,899.54 "/></g><path d="M240.20,899.54 q0.00,-60.82 -60.82,-60.82 l0.00,60.82Z"/></g></g></g><g class="Wall" fill="#000000" id="Wall" stroke="#000000" style="fill-opacity: 1; stroke-opacity: 1; stroke-width: 1;"><polygon points="316.10,1023.16 316.10,899.54 323.10,899.54 323.10,1023.16 "/></g><g class="Wall" fill="#000000" id="Wall" stroke="#000000" style="fill-opacity: 1; stroke-opacity: 1; stroke-width: 1;"><polygon points="809.69,191.84 809.69,421.72 792.69,403.72 792.69,191.84 "/></g><g class="Wall" fill="#000000" id="Wall" stroke="#000000" style="fill-opacity: 1; stroke-opacity: 1; stroke-width: 1;"><polygon points="809.69,421.72 621.54,421.72 611.54,403.72 792.69,403.72 "/></g><g class="Wall" fill="#000000" id="Wall" stroke="#000000" style="fill-opacity: 1; stroke-opacity: 1; stroke-width: 1;"><polygon points="611.54,421.72 611.43,191.84 629.43,191.84 629.53,403.72 "/><g class="Door Swing Beside" fill="#ffffff" id="Door" stroke="#000000" style="fill-opacity: 1; stroke-width: 1; stroke-opacity: 1;"><polygon points="611.53,397.72 611.50,335.17 629.50,335.16 629.53,397.71 "/><g class="Panel Right Negative" fill="none" id="Panel" style=""><g class="PanelArea" fill="none" id="PanelArea" stroke="none" style=""><polygon points="611.53,397.72 611.50,335.17 629.50,335.16 629.53,397.71 "/></g><path d="M611.50,335.17 q-62.55,0.03 -62.52,62.58 l62.55,-0.03Z"/></g></g></g><g class="Wall" fill="#000000" id="Wall" stroke="#000000" style="fill-opacity: 1; stroke-opacity: 1; stroke-width: 1;"><polygon points="611.54,403.72 611.54,464.11 621.54,474.11 621.54,421.72 "/></g><g class="Wall" fill="#000000" id="Wall" stroke="#000000" style="fill-opacity: 1; stroke-opacity: 1; stroke-width: 1;"><polygon points="621.54,474.11 441.29,474.11 450.29,464.11 611.54,464.11 "/><g class="Door Swing Beside" fill="#ffffff" id="Door" stroke="#000000" style="fill-opacity: 1; stroke-width: 1; stroke-opacity: 1;"><polygon points="605.79,474.11 525.67,474.11 525.67,464.11 605.79,464.11 "/><g class="Panel Right Negative" fill="none" id="Panel" style=""><g class="PanelArea" fill="none" id="PanelArea" stroke="none" style=""><polygon points="605.79,474.11 525.67,474.11 525.67,464.11 605.79,464.11 "/></g><path d="M525.67,474.11 q0.00,80.13 80.13,80.13 l0.00,-80.13Z"/></g></g></g><g class="Wall" fill="#000000" id="Wall" stroke="#000000" style="fill-opacity: 1; stroke-opacity: 1; stroke-width: 1;"><polygon points="441.29,474.11 441.29,270.50 450.29,270.50 450.29,464.11 "/></g><g class="Wall" fill="#000000" id="Wall" stroke="#000000" style="fill-opacity: 1; stroke-opacity: 1; stroke-width: 1;"><polygon points="411.18,270.50 411.18,191.84 450.29,191.84 450.29,270.50 "/></g><g class="Wall" fill="#000000" id="Wall" stroke="#000000" style="fill-opacity: 1; stroke-opacity: 1; stroke-width: 1;"><polygon points="1281.10,191.84 1469.19,191.84 1469.19,209.84 1281.10,209.84 "/></g><g class="Wall" fill="#000000" id="Wall" stroke="#000000" style="fill-opacity: 1; stroke-opacity: 1; stroke-width: 1;"><polygon points="1281.10,590.62 1469.69,590.62 1469.69,572.62 1281.10,572.62 "/></g><g class="Railing" fill="#ffffff" id="Railing" stroke="#000000" style="fill-opacity: 1; stroke-opacity: 1; stroke-width: 1;"><polygon points="1469.69,572.62 1469.19,209.84 1462.19,209.85 1462.69,572.63 " style="stroke-dasharray: 0;"/></g><g class="FixedFurniture Closet" fill="#ffffff" stroke="#000000" style="fill-opacity: 1; stroke-opacity: 1;" transform="matrix(0,1,-1,0,643.4375,968.9061)">
<g class="BoundaryPolygon">
<polygon points="0.00,0.00 38.25,0.00 38.25,58.72 0.00,58.72 "/>
</g>
<g class="Direction" fill-opacity="0.9" style="display: none;">
<polygon fill="#444444" points="20.09,53.53 20.09,42.92 17.08,42.92 17.08,53.53 13.28,53.53 18.58,58.84 23.88,53.53 20.09,53.53 "/>
</g>
<g class="Name" fill-opacity="0.9" style="display: none;">

</g>
<desc>Width:60 Height:200 Depth:60 Elevation:0</desc>
</g><g class="FixedFurniture Closet" fill="#ffffff" stroke="#000000" style="fill-opacity: 1; stroke-opacity: 1;" transform="matrix(0,1,-1,0,643.4375,906.9862)">
<g class="BoundaryPolygon">
<polygon points="0.00,0.00 61.92,0.00 61.92,58.72 0.00,58.72 "/>
</g>
<g class="Direction" fill-opacity="0.9" style="display: none;">
<polygon fill="#444444" points="32.52,53.53 32.52,42.92 29.51,42.92 29.51,53.53 25.71,53.53 31.01,58.84 36.31,53.53 32.52,53.53 "/>
</g>
<g class="Name" fill-opacity="0.9" style="display: none;">

</g>
<desc>Width:60 Height:200 Depth:60 Elevation:0</desc>
</g><g class="FixedFurniture CoatCloset" fill="#ffffff" stroke="#000000" style="fill-opacity: 1; stroke-opacity: 1;" transform="matrix(0,1,-1,0,643.4375,785.0662)">
<g class="BoundaryPolygon">
<polygon points="0.00,0.00 121.92,0.00 121.92,58.72 0.00,58.72 "/>
</g>

<g class="Direction" fill-opacity="0.9" style="display: none;">
<polygon fill="#444444" points="62.49,53.36 62.49,42.74 59.48,42.74 59.48,53.36 55.68,53.36 60.98,58.66 66.29,53.36 62.49,53.36 "/>
</g>
<g class="Name" fill-opacity="0.9" style="display: none;">

</g>
<desc>Width:120 Height:200 Depth:60 Elevation:0</desc>
</g><g class="FixedFurniture Closet" fill="#ffffff" stroke="#000000" style="fill-opacity: 1; stroke-opacity: 1;" transform="matrix(0,1,-1,0,643.4374,743.6162)">
<g class="BoundaryPolygon">
<polygon points="0.00,0.00 41.45,0.00 41.45,58.72 0.00,58.72 "/>
</g>
<g class="Direction" fill-opacity="0.9" style="display: none;">
<polygon fill="#444444" points="21.77,53.53 21.77,42.92 18.76,42.92 18.76,53.53 14.96,53.53 20.26,58.84 25.56,53.53 21.77,53.53 "/>
</g>
<g class="Name" fill-opacity="0.9" style="display: none;">

</g>
<desc>Width:60 Height:200 Depth:60 Elevation:0</desc>
</g><g class="FixedFurniture Toilet" fill="#ffffff" stroke="#000000" style="fill-opacity: 1; stroke-opacity: 1;" transform="matrix(0,-1,1,0,325.8139,961.4415)">
<g class="BoundaryPolygon" fill="none" stroke="none">
<polygon points="0,0 41,0 41,71 0,71"/>
</g>
<g class="InnerPolygon">
<rect height="17.98" width="39.989" x="0.502" y="0.5"/>
<path d="M40.491,44.237S41.619,70.5,20.907,70.5C-.523,70.5.6,44.237.6,44.237L.5,18.48H40.491Z"/>
<rect height="3.03" width="6.357" x="17.318" y="7.975"/>
</g>
<desc>Width:41 Height:85 Depth:71 Elevation:0</desc>
</g><g class="FixedFurnitureSet" fill="#ffffff" id="FixedFurnitureSet" stroke="#000000" style="fill-opacity: 0.4; stroke-opacity: 0.4;" transform="matrix(-1,0,0,-1,464.7321,1007.078)"><g class="FixedFurniture BaseCabinet" fill="#ffffff" stroke="#000000" style="fill-opacity: 1; stroke-opacity: 1;" transform="matrix(1,0,0,1,0,0)">
<g class="BoundaryPolygon">
<polygon points="0.00,0.00 55.11,0.00 55.11,40.34 0.00,40.34 "/>
</g>
<g class="Direction" fill-opacity="0.9" style="display: none;">
<polygon fill="#444444" points="29.40,37.11 29.40,26.49 26.39,26.49 26.39,37.11 22.59,37.11 27.89,41.91 33.20,37.11 29.40,37.11 "/>
</g>
<g class="Name" fill-opacity="0.9" style="display: none;">

</g>
<desc>Width:60 Height:5 Depth:60 Elevation:105</desc>
</g><g class="FixedFurniture Sink" fill="#ffffff" stroke="#000000" style="fill-opacity: 1; stroke-opacity: 1;" transform="matrix(1,0,0,1,0,0)">
<g class="BoundaryPolygon" fill="none" stroke="none">
<polygon points="0.00,0.00 55.11,0.00 55.11,40.34 0.00,40.34 "/>
</g>
<g class="InnerPolygon">
<polygon points="4.59,9.70 50.52,9.70 50.52,36.77 4.59,36.77 "/>
</g>
<g class="OuterDrain" stroke-width="0.8">
<circle cx="27.555862754156898" cy="21.64737299156404" r="3.5"/>
</g>
<g class="InnerDrain" stroke-width="0.8">
<circle cx="27.555862754156898" cy="21.64737299156404" r="2"/>
</g>
<g class="Faucet">
<polygon points="24.80,3.36 30.80,3.36 30.80,17.36 24.80,17.36 "/>
</g>
<g class="Direction" fill-opacity="0.9" style="display: none;">
<polygon fill="#444444" points="29.40,37.11 29.40,26.49 26.39,26.49 26.39,37.11 22.59,37.11 27.89,41.91 33.20,37.11 29.40,37.11 "/>
</g>
<g class="Name" fill-opacity="0.9" style="display: none;">

</g>
<desc>Width:60 Height:90 Depth:60 Elevation:0</desc>
</g></g><g class="FixedFurniture CoatCloset" fill="#ffffff" stroke="#000000" style="fill-opacity: 1; stroke-opacity: 1;" transform="matrix(0,1,-1,0,315.9731,957.9361)">
<g class="BoundaryPolygon">
<polygon points="0.00,0.00 49.22,0.00 49.22,62.02 0.00,62.02 "/>
</g>

<g class="Direction" fill-opacity="0.9" style="display: none;">
<polygon fill="#444444" points="25.85,56.54 25.85,45.92 22.84,45.92 22.84,56.54 19.03,56.54 24.34,61.84 29.64,56.54 25.85,56.54 "/>
</g>
<g class="Name" fill-opacity="0.9" style="display: none;">

</g>
<desc>Width:60 Height:200 Depth:60 Elevation:0</desc>
</g><g class="FixedFurniture Closet" fill="#ffffff" stroke="#000000" style="fill-opacity: 1; stroke-opacity: 1;" transform="matrix(0,1,-1,0,315.9731,908.8861)">
<g class="BoundaryPolygon">
<polygon points="0.00,0.00 49.05,0.00 49.05,62.19 0.00,62.19 "/>
</g>
<g class="Direction" fill-opacity="0.9" style="display: none;">
<polygon fill="#444444" points="25.76,56.69 25.76,46.07 22.75,46.07 22.75,56.69 18.94,56.69 24.25,61.99 29.55,56.69 25.76,56.69 "/>
</g>
<g class="Name" fill-opacity="0.9" style="display: none;">

</g>
<desc>Width:60 Height:200 Depth:60 Elevation:0</desc>
</g><g class="FixedFurniture CoatCloset" fill="#ffffff" stroke="#000000" style="fill-opacity: 1; stroke-opacity: 1;" transform="matrix(0,-1,1,0,104.3515,1007.1561)">
<g class="BoundaryPolygon">
<polygon points="0.00,0.00 98.26,0.00 98.26,60.67 0.00,60.67 "/>
</g>

<g class="Direction" fill-opacity="0.9" style="display: none;">
<polygon fill="#444444" points="50.37,55.13 50.37,44.51 47.36,44.51 47.36,55.13 43.55,55.13 48.86,60.43 54.16,55.13 50.37,55.13 "/>
</g>
<g class="Name" fill-opacity="0.9" style="display: none;">

</g>
<desc>Width:120 Height:200 Depth:60 Elevation:0</desc>
</g><g class="FixedFurniture ElectricalAppliance SaunaStove" fill="#ffffff" stroke="#000000" style="fill-opacity: 1; stroke-opacity: 1;" transform="matrix(0,-0.6839,0.9078,0,634.0632,289.7159)">
<g class="BoundaryPolygon">
<polygon points="0,0 60,0 60,35 0,35"/>
</g>
<g class="electricitySign" fill="none">
<polyline points="0 35 39.7 17.5 21.4 17.5 60 0"/>
</g>
<g class="Direction" fill-opacity="0.9" style="display: none;">
<polygon fill="#444444" points="31.509 29.697 31.509 19.081 28.5 19.081 28.5 29.697 24.697 29.697 30 35 35.303 29.697 31.509 29.697"/>
</g>
<g class="Name" fill-opacity="0.9" style="display: none;">

</g>
<desc>Width:60 Height:60 Depth:35 Elevation:20</desc>
</g><g class="FixedFurniture SaunaBenchHigh" fill="#ffffff" stroke="#000000" style="fill-opacity: 1; stroke-opacity: 1;" transform="matrix(0,1,-1,0,792.5756,220.7865)">
<g class="BoundaryPolygon">
<polygon points="0.00,0.00 182.93,0.00 182.93,62.95 0.00,62.95 "/>
</g>

<g class="Direction" fill-opacity="0.9" style="display: none;">
<polygon fill="#444444" points="94.34,57.34 94.34,46.73 91.33,46.73 91.33,57.34 87.53,57.34 92.83,62.65 98.14,57.34 94.34,57.34 "/>
</g>
<g class="Name" fill-opacity="0.9" style="display: none;">

</g>
<desc>Width:185 Height:5 Depth:60 Elevation:105</desc>
</g><g class="FixedFurniture SaunaBenchMid" fill="#ffffff" stroke="#000000" style="fill-opacity: 1; stroke-opacity: 1;" transform="matrix(0,1,-1,0,729.4527,220.8444)">
<g class="BoundaryPolygon">
<polygon points="0.00,0.00 182.51,0.00 182.51,35.31 0.00,35.31 "/>
</g>

<g class="Direction" fill-opacity="0.9" style="display: none;">
<polygon fill="#444444" points="92.74,30.59 92.74,19.98 89.73,19.98 89.73,30.59 85.93,30.59 91.23,35.90 96.54,30.59 92.74,30.59 "/>
</g>
<g class="Name" fill-opacity="0.9" style="display: none;">

</g>
<desc>Width:185 Height:5 Depth:40 Elevation:60</desc>
</g><g class="FixedFurniture SaunaBenchLow" fill="#ffffff" stroke="#000000" style="fill-opacity: 1; stroke-opacity: 1;" transform="matrix(0,1,-1,0,694.0164,320.957)">
<g class="BoundaryPolygon">
<polygon points="0.00,0.00 82.76,0.00 82.76,32.93 0.00,32.93 "/>
</g>

<g class="Direction" fill-opacity="0.9" style="display: none;">
<polygon fill="#444444" points="42.80,28.53 42.80,17.91 39.79,17.91 39.79,28.53 35.99,28.53 41.29,33.83 46.59,28.53 42.80,28.53 "/>
</g>
<g class="Name" fill-opacity="0.9" style="display: none;">

</g>
<desc>Width:91 Height:5 Depth:40 Elevation:30</desc>
</g><g class="FixedFurniture Shower" fill="#ffffff" stroke="#000000" style="fill-opacity: 1; stroke-opacity: 1;" transform="matrix(0,1,-1,0,611.4631,242.9045)">
<g class="BoundaryPolygon" fill="none" stroke="none">
<polygon points="0,0 32,0 32,19 0,19"/>
</g>
<g class="InnerPolygon">
<rect height="6.1" width="11.2" x="3.7" y="0.5"/>
<rect height="6.1" width="11.2" x="17.6" y="0.5"/>
<rect height="6.1" width="3.4" x="28.7" y="0.5"/>
<rect height="6.1" width="3.2" x="0.5" y="0.5"/>
<path d="M14.9,8.5c0,1.5-0.4,3.3-1.6,5    c-0.4,0.6-1,1.1-1.1,1.7c-0.2,1.1,0.3,2.8,2.5,3.2c0.5,0.1,1.3,0.1,1.6,0.1h-0.1c0.3,0,1.1,0,1.6-0.1c2.2-0.4,2.7-2.1,2.5-3.2    c-0.1-0.6-0.7-1.1-1.1-1.7c-1.2-1.7-1.6-3.5-1.6-5"/>
<path d="M12.2,15.3c0.1,0.2,1.6,1.9,4.2,1.9 c2.4-0.1,3.7-1.7,3.9-1.9"/>
<path d="M14.9,0.5h2.7v8c-0.9,0-1.8,0-2.7,0l0,0 C14.9,5.9,14.9,3.2,14.9,0.5z"/>
</g>
<g class="Indicator">
<path d="M3.7,3.6C5,3.1,5.2,3,5.2,3 c0,1.1,0,0,0,1.1C5.2,4.1,5.1,4.1,3.7,3.6"/>
<path d="M28.7,3.6 C27.4,3.1,27.2,3,27.2,3c0,1.1,0,0,0,1.1C27.2,4.1,27.3,4.1,28.7,3.6"/>
</g>
<desc>Width:32 Height:97 Depth:19 Elevation:135</desc>
</g><g class="FixedFurnitureSet" fill="#ffffff" id="FixedFurnitureSet" stroke="#000000" style="fill-opacity: 0.4; stroke-opacity: 0.4;" transform="matrix(0,-1,1,0,450.3175,345.9628)"><g class="FixedFurniture BaseCabinet" fill="#ffffff" stroke="#000000" style="fill-opacity: 1; stroke-opacity: 1;" transform="matrix(1,0,0,1,0,0)">
<g class="BoundaryPolygon">
<polygon points="0.00,0.00 55.99,0.00 55.99,42.31 0.00,42.31 "/>
</g>
<g class="Direction" fill-opacity="0.9" style="display: none;">
<polygon fill="#444444" points="29.87,38.93 29.87,28.31 26.86,28.31 26.86,38.93 23.06,38.93 28.36,43.73 33.66,38.93 29.87,38.93 "/>
</g>
<g class="Name" fill-opacity="0.9" style="display: none;">

</g>
<desc>Width:60 Height:5 Depth:60 Elevation:105</desc>
</g><g class="FixedFurniture Sink" fill="#ffffff" stroke="#000000" style="fill-opacity: 1; stroke-opacity: 1;" transform="matrix(1,0,0,1,0,0)">
<g class="BoundaryPolygon" fill="none" stroke="none">
<polygon points="0.00,0.00 55.99,0.00 55.99,42.31 0.00,42.31 "/>
</g>
<g class="InnerPolygon">
<polygon points="4.67,9.70 51.32,9.70 51.32,38.58 4.67,38.58 "/>
</g>
<g class="OuterDrain" stroke-width="0.8">
<circle cx="27.994649112052286" cy="22.70901695681789" r="3.5"/>
</g>
<g class="InnerDrain" stroke-width="0.8">
<circle cx="27.994649112052286" cy="22.70901695681789" r="2"/>
</g>
<g class="Faucet">
<polygon points="25.20,3.53 31.20,3.53 31.20,17.53 25.20,17.53 "/>
</g>
<g class="Direction" fill-opacity="0.9" style="display: none;">
<polygon fill="#444444" points="29.87,38.93 29.87,28.31 26.86,28.31 26.86,38.93 23.06,38.93 28.36,43.73 33.66,38.93 29.87,38.93 "/>
</g>
<g class="Name" fill-opacity="0.9" style="display: none;">

</g>
<desc>Width:60 Height:90 Depth:60 Elevation:0</desc>
</g></g><g class="FixedFurniture Closet" fill="#ffffff" stroke="#000000" style="fill-opacity: 1; stroke-opacity: 1;" transform="matrix(0,-1,1,0,450.3175,464.106)">
<g class="BoundaryPolygon">
<polygon points="0.00,0.00 39.95,0.00 39.95,60.71 0.00,60.71 "/>
</g>
<g class="Direction" fill-opacity="0.9" style="display: none;">
<polygon fill="#444444" points="20.98,55.34 20.98,44.73 17.97,44.73 17.97,55.34 14.17,55.34 19.47,60.64 24.77,55.34 20.98,55.34 "/>
</g>
<g class="Name" fill-opacity="0.9" style="display: none;">

</g>
<desc>Width:60 Height:200 Depth:60 Elevation:0</desc>
</g><g class="FixedFurniture ElectricalAppliance SpaceForAppliance2" fill="#ffffff" stroke="#000000" style="fill-opacity: 1; stroke-opacity: 1;" transform="matrix(0,-1,1.0157,0,450.4609,424.1595)">
<g class="BoundaryPolygon">
<polygon points="0,0 60,0 60,60 0,60"/>
</g>
<g class="electricitySign" fill="none">
<path d="M0,0,30.1,39.8V19.4L59.9,60"/>
</g>
<g class="Direction" fill-opacity="0.9" style="display: none;">
<polygon fill="#444444" points="32.009 55.197 32.009 44.581 29 44.581 29 55.197 25.197 55.197 30.5 60 35.803 55.197 32.009 55.197"/>
</g>
<g class="Name" fill-opacity="0.9" style="display: none;">

</g>
<desc>Width:60 Height:90 Depth:60 Elevation:0</desc>
</g><g class="FixedFurniture Housing" fill="#ffffff" stroke="#000000" style="fill-opacity: 1; stroke-opacity: 1;" transform="matrix(1.4619,0,0,0.8996,104.997,208.8443)">
<g class="BoundaryPolygon">
<polygon points="0,0 10,0 10,60 0,60"/>
</g>
<g class="Name" fill-opacity="0.9" style="display: none;">

</g>
<desc>Width:60 Height:200 Depth:60 Elevation:0</desc>
</g><g class="FixedFurniture ElectricalAppliance Refrigerator" fill="#ffffff" stroke="#000000" style="fill-opacity: 1; stroke-opacity: 1;" transform="matrix(1,0,0,1.0244,119.6164,208.9084)">
<g class="BoundaryPolygon">
<polygon points="0,0 60,0 60,60 0,60"/>
</g>
<g class="electricitySign" fill="none">
<path d="M0,0,30,37.1v-18L60,56.3"/>
</g>
<g class="Doors">
<rect height="4" width="60" y="56"/>
</g>
<g class="Direction" fill-opacity="0.9" style="display: none;">
<polygon fill="#444444" points="32.009 55.197 32.009 44.581 29 44.581 29 55.197 25.197 55.197 30.5 60 35.803 55.197 32.009 55.197"/>
</g>
<g class="Name" fill-opacity="0.9" style="display: none;">

</g>
<desc>Width:60 Height:170 Depth:60 Elevation:0</desc>
</g><g class="FixedFurniture ElectricalAppliance Refrigerator" fill="#ffffff" stroke="#000000" style="fill-opacity: 1; stroke-opacity: 1;" transform="matrix(1.0228,0,0,1.0244,179.6164,208.9244)">
<g class="BoundaryPolygon">
<polygon points="0,0 60,0 60,60 0,60"/>
</g>
<g class="electricitySign" fill="none">
<path d="M0,0,30,37.1v-18L60,56.3"/>
</g>
<g class="Doors">
<rect height="4" width="60" y="56"/>
</g>
<g class="Direction" fill-opacity="0.9" style="display: none;">
<polygon fill="#444444" points="32.009 55.197 32.009 44.581 29 44.581 29 55.197 25.197 55.197 30.5 60 35.803 55.197 32.009 55.197"/>
</g>
<g class="Name" fill-opacity="0.9" style="display: none;">

</g>
<desc>Width:60 Height:170 Depth:60 Elevation:0</desc>
</g><g class="FixedFurniture BaseCabinet" fill="#ffffff" stroke="#000000" style="fill-opacity: 1; stroke-opacity: 1;" transform="matrix(1,0,0,1,240.6563,208.8444)"><desc>Width:60 Height:90 Depth:60 Elevation:0</desc><g class="BoundaryPolygon"><polygon points="0.00,0.00 170.53,-0.00 170.53,61.66 200.63,61.66 200.63,265.26 140.53,265.26 140.53,61.51 0.37,61.51 0.00,0.00 "/></g></g><g class="FixedFurniture ElectricalAppliance SpaceForAppliance2" fill="#ffffff" stroke="#000000" style="fill-opacity: 1; stroke-opacity: 1;" transform="matrix(0.9701,0,0,1.0244,240.9829,208.9084)">
<g class="BoundaryPolygon">
<polygon points="0,0 60,0 60,60 0,60"/>
</g>
<g class="electricitySign" fill="none">
<path d="M0,0,30.1,39.8V19.4L59.9,60"/>
</g>
<g class="Direction" fill-opacity="0.9" style="display: none;">
<polygon fill="#444444" points="32.009 55.197 32.009 44.581 29 44.581 29 55.197 25.197 55.197 30.5 60 35.803 55.197 32.009 55.197"/>
</g>
<g class="Name" fill-opacity="0.9" style="display: none;">

</g>
<desc>Width:60 Height:90 Depth:60 Elevation:0</desc>
</g><g class="FixedFurniture DoubleSink" fill="#ffffff" stroke="#000000" style="fill-opacity: 1; stroke-opacity: 1;" transform="matrix(1,0,0,1,297.7266,215.2866)">
<g class="BoundaryPolygon" fill="none" stroke="none">
<polygon points="0.00,0.00 83.51,0.00 83.51,54.14 0.00,54.14 "/>
</g>
<g class="InnerPolygonLeft">
<polygon points="5.97,9.90 39.97,9.90 39.97,49.54 5.97,49.54 "/>
</g>
<g class="InnerPolygonRight">
<polygon points="43.55,10.00 77.55,10.00 77.55,49.63 43.55,49.63 "/>
</g>
<g class="OuterDrain" stroke-width="0.8">
<circle cx="23.503277126685457" cy="29.32746152802535" r="3.5"/>
<circle cx="59.8915995817061" cy="29.32746152802535" r="3.5"/>
</g>
<g class="InnerDrain" stroke-width="0.8">
<circle cx="23.503277126685457" cy="29.32746152802535" r="2"/>
<circle cx="59.8915995817061" cy="29.32746152802535" r="2"/>
</g>
<g class="Faucet">
<polygon points="38.18,4.42 44.18,4.42 44.18,18.42 38.18,18.42 "/>
</g>
<g class="Direction" fill-opacity="0.9" style="display: none;">
<polygon fill="#444444" points="43.56,49.36 43.56,38.74 40.55,38.74 40.55,49.36 36.75,49.36 42.05,54.66 47.35,49.36 43.56,49.36 "/>
</g>
<g class="Name" fill-opacity="0.9" style="display: none;">

</g>
<desc>Width:70 Height:90 Depth:60 Elevation:0</desc>
</g><g class="FixedFurniture ElectricalAppliance IntegratedStove" fill="#ffffff" stroke="#000000" style="fill-opacity: 1; stroke-opacity: 1;" transform="matrix(0,1,-1,0,443.0917,297.6734)">
<g class="BoundaryPolygon" fill="none" stroke="none">
<polygon points="0.00,0.00 55.04,0.00 55.04,63.74 0.00,63.74 "/>
</g>
<g class="InnerPolygon">
<polygon points="2.00,2.00 53.21,2.00 53.21,61.62 2.00,61.62 "/>
</g>
<g class="OuterCircle">
<circle cx="14.677320614362644" cy="16.997858254433044" r="8"/>
<circle cx="40.362631689497256" cy="16.997858254433044" r="8"/>
<circle cx="14.677320614362644" cy="46.74411019969089" r="8"/>
<circle cx="40.362631689497256" cy="46.74411019969089" r="8"/>
</g>
<g class="Direction" fill-opacity="0.9" style="display: none;">
<polygon fill="#444444" points="29.36,58.64 29.36,48.02 26.35,48.02 26.35,58.64 22.55,58.64 27.85,63.44 33.16,58.64 29.36,58.64 "/>
</g>
<g class="Name" fill-opacity="0.9" style="display: none;">

</g>
<desc>Width:60 Height:90 Depth:30 Elevation:0</desc>
</g><g class="SelectionControls" fill="#0000ff" stroke="#0000ff" style="display: none;"><g class="rotateControl" style="display: none;"><circle cx="1375.4233467874456" cy="338.42810134366744" r="5" style="stroke : none; fill-opacity: 0.5; cursor:crosshair"/></g><g class="ResizeNControl" style="display: none;"><circle cx="0" cy="0" r="5" style="stroke : none; fill-opacity: 0.5"/></g><g class="ResizeNEControl" style="display: none;"><circle cx="0" cy="0" r="5" style="stroke : none; fill-opacity: 0.5"/></g><g class="ResizeEControl" style="display: none;"><circle cx="0" cy="0" r="5" style="stroke : none; fill-opacity: 0.5"/></g><g class="ResizeSEControl" style="display: none;"><circle cx="0" cy="0" r="5" style="stroke : none; fill-opacity: 0.5"/></g><g class="ResizeSControl" style="display: none;"><circle cx="0" cy="0" r="5" style="stroke : none; fill-opacity: 0.5"/></g><g class="ResizeSWControl" style="display: none;"><circle cx="0" cy="0" r="5" style="stroke : none; fill-opacity: 0.5"/></g><g class="ResizeWControl" style="display: none;"><circle cx="0" cy="0" r="5" style="stroke : none; fill-opacity: 0.5"/></g><g class="ResizeNWControl" style="display: none;"><circle cx="0" cy="0" r="5" style="stroke : none; fill-opacity: 0.5"/></g><g class="removeControl" style="display: none;"><polygon points="1299.15,368.43 1451.70,368.43 1451.70,408.99 1299.15,408.99 " style="stroke : none; fill-opacity: 0.1"/></g><g class="copyPasteControl" style="display: none;"><polygon style="stroke : none; fill-opacity: 0.1"/></g><g class="translateControl" style="display: none;"><polygon points="1299.15,368.43 1451.70,368.43 1451.70,408.99 1299.15,408.99 " style="stroke : none; fill-opacity: 0.1; cursor:move"/></g></g><g class="SelectionControls" fill="#0000ff" stroke="#0000ff" style="display: none;"><polygon fill="none" points="1281.10,209.85 1462.69,209.85 1462.69,572.63 1281.10,572.63 " stroke="#0000ff" style=""/><g class="rotateControl" style="display: none;"><circle cx="1371.8952074441838" cy="179.84927634366747" r="5" style="stroke : none; fill-opacity: 0.5; cursor:crosshair"/></g><g class="ResizeNControl" style="display: none;"><circle cx="0" cy="0" r="5" style="stroke : none; fill-opacity: 0.5"/></g><g class="ResizeNEControl" style="display: none;"><circle cx="0" cy="0" r="5" style="stroke : none; fill-opacity: 0.5"/></g><g class="ResizeEControl" style="display: none;"><circle cx="0" cy="0" r="5" style="stroke : none; fill-opacity: 0.5"/></g><g class="ResizeSEControl" style="display: none;"><circle cx="0" cy="0" r="5" style="stroke : none; fill-opacity: 0.5"/></g><g class="ResizeSControl" style="display: none;"><circle cx="0" cy="0" r="5" style="stroke : none; fill-opacity: 0.5"/></g><g class="ResizeSWControl" style="display: none;"><circle cx="0" cy="0" r="5" style="stroke : none; fill-opacity: 0.5"/></g><g class="ResizeWControl" style="display: none;"><circle cx="0" cy="0" r="5" style="stroke : none; fill-opacity: 0.5"/></g><g class="ResizeNWControl" style="display: none;"><circle cx="0" cy="0" r="5" style="stroke : none; fill-opacity: 0.5"/></g><g class="removeControl" style="display: none;"><polygon style="stroke : none; fill-opacity: 0.1"/></g><g class="copyPasteControl" style="display: none;"><polygon style="stroke : none; fill-opacity: 0.1"/></g><g class="translateControl" style="display: none;"><polygon style="stroke : none; fill-opacity: 0.1; cursor:move"/></g></g></g></g></g></svg>