<?xml version="1.0" encoding="utf-8"?>
<svg height="1453.959945678711" id="temp" version="1.1" viewBox="0 0 1226.2699661254883 1453.959945678711" width="1226.2699661254883" xmlns="http://www.w3.org/2000/svg" xmlns:xlink="http://www.w3.org/1999/xlink"><defs/><g class="Model v1-1" id="Model"><g class="Floor"><g class="Floorplan Floor-1" id="Floor-1" transform="matrix(1,0,0,1,0,0)"><g class="Space Undefined" fill="#ffffff" id="39ddf21b-871e-4f66-b42a-18659c87cbb6" stroke="#ffffff" style="fill-opacity: 1; stroke-opacity: 1; stroke-width: 1;"><polygon points="656.32,683.85 664.06,683.85 664.06,978.62 543.97,978.62 543.97,588.71 656.32,588.71 "/><g class="Dimension" transform="matrix(1,0,0,1,543.9666,588.7058)"><g class="Visual" style="display: none;" transform="matrix(1,0,0,1,0,0)"><g class="DimensionMark" fill="#000000" id="mark1" stroke="none" style="fill-opacity: 1; pointer-events: visible;" transform="matrix(1,0,0,1,60.0448,0)"><polygon points="-5,5,0,0,5,5"/></g><g class="DimensionMark" fill="#000000" id="mark2" stroke="none" style="fill-opacity: 1; pointer-events: visible;" transform="matrix(1,0,0,1,120.0896,194.9553)"><polygon points="-5,-5,0,0,-5,5"/></g><g class="DimensionMark" fill="#000000" id="mark3" stroke="none" style="fill-opacity: 1; pointer-events: visible;" transform="matrix(1,0,0,1,60.0448,389.9107)"><polygon points="-5,-5,0,0,5,-5"/></g><g class="DimensionMark" fill="#000000" id="mark4" stroke="none" style="fill-opacity: 1; pointer-events: visible;" transform="matrix(1,0,0,1,0,194.9553)"><polygon points="5,5,0,0,5,-5"/></g></g><g class="SpaceDimensionsLabel" transform="matrix(1,0,0,1,60.0448,180.1344)"><g class="TextLabel NameLabel" id="NameLabel" style="display: none;"/><g class="TextLabel DimensionMeasureLabel" id="DimensionMeasureLabel" style="display: none;" transform="matrix(1,0,0,1,-40.5313,79.5938)"/></g></g></g><g class="Space UserDefined" fill="#ffffff" id="b3693e3d-2bab-4c90-aa74-9f3fcd5f7112" stroke="#ffffff" style="fill-opacity: 1; stroke-opacity: 1; stroke-width: 1;"><polygon points="823.46,596.65 1028.72,596.65 1028.72,978.62 675.06,978.62 675.06,683.85 823.46,683.85 823.46,633.87 724.26,633.87 724.26,588.71 823.46,588.71 "/><g class="Dimension" transform="matrix(1,0,0,1,675.0562,596.6467)"><g class="Visual" style="display: none;" transform="matrix(1,0,0,1,0,0)"><g class="DimensionMark" fill="#000000" id="mark1" stroke="none" style="fill-opacity: 1; pointer-events: visible;" transform="matrix(1,0,0,1,176.8331,0)"><polygon points="-5,5,0,0,5,5"/></g><g class="DimensionMark" fill="#000000" id="mark2" stroke="none" style="fill-opacity: 1; pointer-events: visible;" transform="matrix(1,0,0,1,353.6661,187.0144)"><polygon points="-5,-5,0,0,-5,5"/></g><g class="DimensionMark" fill="#000000" id="mark3" stroke="none" style="fill-opacity: 1; pointer-events: visible;" transform="matrix(1,0,0,1,176.8331,381.9697)"><polygon points="-5,-5,0,0,5,-5"/></g><g class="DimensionMark" fill="#000000" id="mark4" stroke="none" style="fill-opacity: 1; pointer-events: visible;" transform="matrix(1,0,0,1,0,187.0144)"><polygon points="5,5,0,0,5,-5"/></g></g><g class="SpaceDimensionsLabel" transform="matrix(1,0,0,1,119.4163,209.261)"><g class="TextLabel NameLabel" id="NameLabel" style="display: none;"/><g class="TextLabel DimensionMeasureLabel" id="DimensionMeasureLabel" style="display: none;" transform="matrix(1,0,0,1,-80.8281,79.5938)"/></g></g></g><g class="Space Undefined" fill="#ffffff" id="bf2cc537-90fb-48ba-8d2f-b30246365689" stroke="#ffffff" style="fill-opacity: 1; stroke-opacity: 1; stroke-width: 1;"><polygon points="426.52,239.28 482.74,239.28 482.74,588.71 482.60,588.71 482.60,239.28 426.21,239.28 426.21,202.28 426.52,202.28 "/><g class="Dimension" transform="matrix(1,0,0,1,482.6036,202.276)"><g class="Visual" style="display: none;" transform="matrix(1,0,0,1,0,0)"><g class="DimensionMark" fill="#000000" id="mark1" stroke="none" style="fill-opacity: 1; pointer-events: visible;" transform="matrix(1,0,0,1,0.0009,0)"><polygon points="-5,5,0,0,5,5"/></g><g class="DimensionMark" fill="#000000" id="mark2" stroke="none" style="fill-opacity: 1; pointer-events: visible;" transform="matrix(1,0,0,1,0.1398,193.2146)"><polygon points="-5,-5,0,0,-5,5"/></g><g class="DimensionMark" fill="#000000" id="mark3" stroke="none" style="fill-opacity: 1; pointer-events: visible;" transform="matrix(1,0,0,1,0.0009,386.4296)"><polygon points="-5,-5,0,0,5,-5"/></g><g class="DimensionMark" fill="#000000" id="mark4" stroke="none" style="fill-opacity: 1; pointer-events: visible;" transform="matrix(1,0,0,1,0,193.2146)"><polygon points="5,5,0,0,5,-5"/></g></g><g class="SpaceDimensionsLabel" transform="matrix(1,0,0,1,-5.1599,37.0986)"><g class="TextLabel NameLabel" id="NameLabel" style="display: none;"/><g class="TextLabel DimensionMeasureLabel" id="DimensionMeasureLabel" style="display: none;" transform="matrix(1,0,0,1,-40.5313,79.5938)"/></g></g></g><g class="Space LivingRoom" fill="#ffffff" id="62a2e049-7808-4f4f-bc84-7309ad2fe9f9" stroke="#ffffff" style="fill-opacity: 1; stroke-opacity: 1; stroke-width: 1;"><polygon points="494.74,202.28 1028.72,202.28 1028.72,585.65 823.46,585.65 823.46,588.71 724.26,588.71 724.26,580.42 656.32,580.42 656.32,588.71 494.74,588.71 "/><g class="Dimension" transform="matrix(1,0,0,1,494.7434,202.276)"><g class="Visual" style="display: none;" transform="matrix(1,0,0,1,0,0)"><g class="DimensionMark" fill="#000000" id="mark1" stroke="none" style="fill-opacity: 1; pointer-events: visible;" transform="matrix(1,0,0,1,266.9895,0)"><polygon points="-5,5,0,0,5,5"/></g><g class="DimensionMark" fill="#000000" id="mark2" stroke="none" style="fill-opacity: 1; pointer-events: visible;" transform="matrix(1,0,0,1,533.9789,193.2149)"><polygon points="-5,-5,0,0,-5,5"/></g><g class="DimensionMark" fill="#000000" id="mark3" stroke="none" style="fill-opacity: 1; pointer-events: visible;" transform="matrix(1,0,0,1,266.9895,386.4298)"><polygon points="-5,-5,0,0,5,-5"/></g><g class="DimensionMark" fill="#000000" id="mark4" stroke="none" style="fill-opacity: 1; pointer-events: visible;" transform="matrix(1,0,0,1,0,193.2149)"><polygon points="5,5,0,0,5,-5"/></g></g><g class="SpaceDimensionsLabel" transform="matrix(1,0,0,1,256.4264,204.1465)"><g class="TextLabel NameLabel" id="NameLabel" style="display: none;"/><g class="TextLabel DimensionMeasureLabel" id="DimensionMeasureLabel" style="display: none;" transform="matrix(1,0,0,1,-114.625,79.5938)"/></g></g></g><g class="Space Bedroom" fill="#ffffff" id="f6ea26fa-ce72-4d7f-bcf5-080e2acef22c" stroke="#ffffff" style="fill-opacity: 1; stroke-opacity: 1; stroke-width: 1;"><polygon points="426.21,239.28 482.60,239.28 482.60,588.71 53.93,588.71 53.93,202.28 426.21,202.28 "/><g class="Dimension" transform="matrix(1,0,0,1,53.9263,202.276)"><g class="Visual" style="display: none;" transform="matrix(1,0,0,1,0,0)"><g class="DimensionMark" fill="#000000" id="mark1" stroke="none" style="fill-opacity: 1; pointer-events: visible;" transform="matrix(1,0,0,1,214.3391,0)"><polygon points="-5,5,0,0,5,5"/></g><g class="DimensionMark" fill="#000000" id="mark2" stroke="none" style="fill-opacity: 1; pointer-events: visible;" transform="matrix(1,0,0,1,428.6773,193.2149)"><polygon points="-5,-5,0,0,-5,5"/></g><g class="DimensionMark" fill="#000000" id="mark3" stroke="none" style="fill-opacity: 1; pointer-events: visible;" transform="matrix(1,0,0,1,214.3391,386.4298)"><polygon points="-5,-5,0,0,5,-5"/></g><g class="DimensionMark" fill="#000000" id="mark4" stroke="none" style="fill-opacity: 1; pointer-events: visible;" transform="matrix(1,0,0,1,0,193.2149)"><polygon points="5,5,0,0,5,-5"/></g></g><g class="SpaceDimensionsLabel" transform="matrix(1,0,0,1,178.4391,207.9907)"><g class="TextLabel NameLabel" id="NameLabel" style="display: none;"/><g class="TextLabel DimensionMeasureLabel" id="DimensionMeasureLabel" style="display: none;" transform="matrix(1,0,0,1,-113.7031,79.5938)"/></g></g></g><g class="Space Outdoor" fill="#ffffff" id="41c41a4a-c01c-4a07-bef6-e1ca1c7c8dc1" stroke="#000000" style="stroke-width: 1; fill-opacity: 1; stroke-opacity: 1;"><polygon points="1050.72,988.80 1050.72,192.28 1214.51,192.28 1214.51,988.80 1050.72,988.80 1050.72,988.80 "/><g class="Dimension" transform="matrix(1,0,0,1,1050.7223,192.276)"><g class="Visual" style="display: none;" transform="matrix(1,0,0,1,0,0)"><g class="DimensionMark" fill="#000000" id="mark1" stroke="none" style="fill-opacity: 1; pointer-events: visible;" transform="matrix(1,0,0,1,81.8944,0)"><polygon points="-5,5,0,0,5,5"/></g><g class="DimensionMark" fill="#000000" id="mark2" stroke="none" style="fill-opacity: 1; pointer-events: visible;" transform="matrix(1,0,0,1,163.7888,398.2633)"><polygon points="-5,-5,0,0,-5,5"/></g><g class="DimensionMark" fill="#000000" id="mark3" stroke="none" style="fill-opacity: 1; pointer-events: visible;" transform="matrix(1,0,0,1,81.8944,796.5266)"><polygon points="-5,-5,0,0,5,-5"/></g><g class="DimensionMark" fill="#000000" id="mark4" stroke="none" style="fill-opacity: 1; pointer-events: visible;" transform="matrix(1,0,0,1,0,398.2633)"><polygon points="5,5,0,0,5,-5"/></g></g><g class="SpaceDimensionsLabel" transform="matrix(1,0,0,1,81.8944,81.8944)"><g class="TextLabel NameLabel" id="NameLabel" style="display: none;"/><g class="TextLabel DimensionMeasureLabel" id="DimensionMeasureLabel" style="display: none;" transform="matrix(1,0,0,1,-56.5313,79.5938)"/></g></g></g><g class="Space Bedroom" fill="#ffffff" id="5e372368-2c10-424a-bcee-1c6e4b5523a8" stroke="#ffffff" style="fill-opacity: 1; stroke-opacity: 1; stroke-width: 1;"><polygon points="530.97,978.62 53.93,978.62 53.93,599.68 530.97,599.68 "/><g class="Dimension" transform="matrix(1,0,0,1,53.9263,599.6842)"><g class="Visual" style="display: none;" transform="matrix(1,0,0,1,0,0)"><g class="DimensionMark" fill="#000000" id="mark1" stroke="none" style="fill-opacity: 1; pointer-events: visible;" transform="matrix(1,0,0,1,238.5202,0)"><polygon points="-5,5,0,0,5,5"/></g><g class="DimensionMark" fill="#000000" id="mark2" stroke="none" style="fill-opacity: 1; pointer-events: visible;" transform="matrix(1,0,0,1,477.0403,189.4661)"><polygon points="-5,-5,0,0,-5,5"/></g><g class="DimensionMark" fill="#000000" id="mark3" stroke="none" style="fill-opacity: 1; pointer-events: visible;" transform="matrix(1,0,0,1,238.5202,378.9323)"><polygon points="-5,-5,0,0,5,-5"/></g><g class="DimensionMark" fill="#000000" id="mark4" stroke="none" style="fill-opacity: 1; pointer-events: visible;" transform="matrix(1,0,0,1,0,189.4661)"><polygon points="5,5,0,0,5,-5"/></g></g><g class="SpaceDimensionsLabel" transform="matrix(1,0,0,1,215.301,197.9095)"><g class="TextLabel NameLabel" id="NameLabel" style="display: none;"/><g class="TextLabel DimensionMeasureLabel" id="DimensionMeasureLabel" style="display: none;" transform="matrix(1,0,0,1,-113.7031,79.5938)"/></g></g></g><g class="Space Undefined" fill="#ffffff" id="3e7e7fb7-be27-4b9c-8c3f-5f7ff2f58b87" stroke="#ffffff" style="fill-opacity: 1; stroke-opacity: 1; stroke-width: 1;"><polygon points="707.07,1364.35 534.23,1364.35 534.23,1081.66 373.46,1081.66 373.46,991.62 707.07,991.62 "/><g class="Dimension" transform="matrix(1,0,0,1,373.4625,991.6165)"><g class="Visual" style="display: none;" transform="matrix(1,0,0,1,0,0)"><g class="DimensionMark" fill="#000000" id="mark1" stroke="none" style="fill-opacity: 1; pointer-events: visible;" transform="matrix(1,0,0,1,166.804,0)"><polygon points="-5,5,0,0,5,5"/></g><g class="DimensionMark" fill="#000000" id="mark2" stroke="none" style="fill-opacity: 1; pointer-events: visible;" transform="matrix(1,0,0,1,333.6079,90.0403)"><polygon points="-5,-5,0,0,-5,5"/></g><g class="DimensionMark" fill="#000000" id="mark3" stroke="none" style="fill-opacity: 1; pointer-events: visible;" transform="matrix(1,0,0,1,166.804,372.7372)"><polygon points="-5,-5,0,0,5,-5"/></g><g class="DimensionMark" fill="#000000" id="mark4" stroke="none" style="fill-opacity: 1; pointer-events: visible;" transform="matrix(1,0,0,1,0,90.0403)"><polygon points="5,5,0,0,5,-5"/></g></g><g class="SpaceDimensionsLabel" transform="matrix(1,0,0,1,246.948,86.6599)"><g class="TextLabel NameLabel" id="NameLabel" style="display: none;"/><g class="TextLabel DimensionMeasureLabel" id="DimensionMeasureLabel" style="display: none;" transform="matrix(1,0,0,1,-40.5313,79.5938)"/></g></g></g><g class="Space Kitchen" fill="#ffffff" id="bae15ace-5d48-4625-a87c-d02872b5ffbf" stroke="#ffffff" style="fill-opacity: 1; stroke-opacity: 1; stroke-width: 1;"><polygon points="362.46,1305.74 338.34,1305.74 338.34,1364.35 53.93,1364.35 53.93,991.62 362.46,991.62 "/><g class="Dimension" transform="matrix(1,0,0,1,53.9263,991.6165)"><g class="Visual" style="display: none;" transform="matrix(1,0,0,1,0,0)"><g class="DimensionMark" fill="#000000" id="mark1" stroke="none" style="fill-opacity: 1; pointer-events: visible;" transform="matrix(1,0,0,1,154.2681,0)"><polygon points="-5,5,0,0,5,5"/></g><g class="DimensionMark" fill="#000000" id="mark2" stroke="none" style="fill-opacity: 1; pointer-events: visible;" transform="matrix(1,0,0,1,308.5362,186.3686)"><polygon points="-5,-5,0,0,-5,5"/></g><g class="DimensionMark" fill="#000000" id="mark3" stroke="none" style="fill-opacity: 1; pointer-events: visible;" transform="matrix(1,0,0,1,154.2681,372.7372)"><polygon points="-5,-5,0,0,5,-5"/></g><g class="DimensionMark" fill="#000000" id="mark4" stroke="none" style="fill-opacity: 1; pointer-events: visible;" transform="matrix(1,0,0,1,0,186.3686)"><polygon points="5,5,0,0,5,-5"/></g></g><g class="SpaceDimensionsLabel" transform="matrix(1,0,0,1,141.581,168.5412)"><g class="TextLabel NameLabel" id="NameLabel" style="display: none;"/><g class="TextLabel DimensionMeasureLabel" id="DimensionMeasureLabel" style="display: none;" transform="matrix(1,0,0,1,-128.5078,79.5938)"/></g></g></g><g class="Space Undefined" fill="#ffffff" id="e11cbd0b-fa21-4c27-9e7d-cac637b4e8a0" stroke="#ffffff" style="fill-opacity: 1; stroke-opacity: 1; stroke-width: 1;"><polygon points="524.23,1247.18 373.46,1247.18 373.46,1091.66 524.23,1091.66 "/><g class="Dimension" transform="matrix(1,0,0,1,373.4625,1091.6568)"><g class="Visual" style="display: none;" transform="matrix(1,0,0,1,0,0)"><g class="DimensionMark" fill="#000000" id="mark1" stroke="none" style="fill-opacity: 1; pointer-events: visible;" transform="matrix(1,0,0,1,75.382,0)"><polygon points="-5,5,0,0,5,5"/></g><g class="DimensionMark" fill="#000000" id="mark2" stroke="none" style="fill-opacity: 1; pointer-events: visible;" transform="matrix(1,0,0,1,150.764,77.7616)"><polygon points="-5,-5,0,0,-5,5"/></g><g class="DimensionMark" fill="#000000" id="mark3" stroke="none" style="fill-opacity: 1; pointer-events: visible;" transform="matrix(1,0,0,1,75.382,155.5232)"><polygon points="-5,-5,0,0,5,-5"/></g><g class="DimensionMark" fill="#000000" id="mark4" stroke="none" style="fill-opacity: 1; pointer-events: visible;" transform="matrix(1,0,0,1,0,77.7616)"><polygon points="5,5,0,0,5,-5"/></g></g><g class="SpaceDimensionsLabel" transform="matrix(1,0,0,1,75.382,75.382)"><g class="TextLabel NameLabel" id="NameLabel" style="display: none;"/><g class="TextLabel DimensionMeasureLabel" id="DimensionMeasureLabel" style="display: none;" transform="matrix(1,0,0,1,-40.5313,79.5938)"/></g></g></g><g class="Space Undefined" fill="#ffffff" id="84cdf6e9-279e-470d-8aa4-832e0795523b" stroke="#ffffff" style="fill-opacity: 1; stroke-opacity: 1; stroke-width: 1;"><polygon points="524.23,1364.35 388.46,1364.35 388.46,1257.18 524.23,1257.18 "/><g class="Dimension" transform="matrix(1,0,0,1,388.4625,1257.18)"><g class="Visual" style="display: none;" transform="matrix(1,0,0,1,0,0)"><g class="DimensionMark" fill="#000000" id="mark1" stroke="none" style="fill-opacity: 1; pointer-events: visible;" transform="matrix(1,0,0,1,67.882,0)"><polygon points="-5,5,0,0,5,5"/></g><g class="DimensionMark" fill="#000000" id="mark2" stroke="none" style="fill-opacity: 1; pointer-events: visible;" transform="matrix(1,0,0,1,135.764,53.5868)"><polygon points="-5,-5,0,0,-5,5"/></g><g class="DimensionMark" fill="#000000" id="mark3" stroke="none" style="fill-opacity: 1; pointer-events: visible;" transform="matrix(1,0,0,1,67.882,107.1736)"><polygon points="-5,-5,0,0,5,-5"/></g><g class="DimensionMark" fill="#000000" id="mark4" stroke="none" style="fill-opacity: 1; pointer-events: visible;" transform="matrix(1,0,0,1,0,53.5868)"><polygon points="5,5,0,0,5,-5"/></g></g><g class="SpaceDimensionsLabel" transform="matrix(1,0,0,1,53.5868,53.5868)"><g class="TextLabel NameLabel" id="NameLabel" style="display: none;"/><g class="TextLabel DimensionMeasureLabel" id="DimensionMeasureLabel" style="display: none;" transform="matrix(1,0,0,1,-40.5313,79.5938)"/></g></g></g><g class="Wall External" fill="#000000" id="Wall" stroke="#000000" style="fill-opacity: 1; stroke-opacity: 1; stroke-width: 1;"><polygon points="31.93,181.28 1050.72,181.28 1028.72,202.28 53.93,202.28 "/><g class="Window Regular" fill="#f0f0ff" id="Window" stroke="#000000" style="fill-opacity: 1; stroke-width: 1; stroke-opacity: 1;"><polygon points="165.52,181.28 366.88,181.28 366.88,202.28 165.52,202.28 "/><g class="Glass" id="Glass"><polygon points="165.52,181.28 366.88,181.28 366.88,202.28 165.52,202.28 "/></g><g class="Panel" id="Panel"><line x1="173.02231026197813" x2="359.38335737448404" y1="191.77999877929688" y2="191.77999877929688"/><line x1="173.02231026197813" x2="173.02231026197813" y1="181.27999877929688" y2="202.27999877929688"/><line x1="359.38335737448404" x2="359.38335737448404" y1="181.27999877929688" y2="202.27999877929688"/></g></g></g><g class="Wall External" fill="#000000" id="Wall" stroke="#000000" style="fill-opacity: 1; stroke-opacity: 1; stroke-width: 1;"><polygon points="1050.72,181.28 1050.72,999.80 1028.72,978.62 1028.72,202.28 "/><g class="Door Swing Opposite" fill="#ffffff" id="Door" stroke="#000000" style="fill-opacity: 1; stroke-width: 1; stroke-opacity: 1;"><polygon points="1050.72,501.19 1050.72,567.34 1028.72,567.34 1028.72,501.19 "/><g class="Panel Left Negative" fill="none" id="Panel" style=""><g class="PanelArea" fill="none" id="PanelArea" stroke="none" style=""><polygon points="1050.72,501.19 1050.72,567.34 1028.72,567.34 1028.72,501.19 "/></g><path d="M1050.72,501.19 q66.15,0.00 66.15,66.15 l-66.15,0.00Z"/></g><g class="Panel Right Positive" fill="none" id="Panel" style=""><g class="PanelArea" fill="none" id="PanelArea" stroke="none" style=""><polygon points="1050.72,501.19 1050.72,567.34 1028.72,567.34 1028.72,501.19 "/></g><path d="M1028.72,501.19 q-66.15,0.00 -66.15,66.15 l66.15,0.00Z"/></g></g><g class="Window Regular" fill="#f0f0ff" id="Window" stroke="#000000" style="fill-opacity: 1; stroke-width: 1; stroke-opacity: 1;"><polygon points="1050.72,209.63 1050.72,474.23 1028.72,474.23 1028.72,209.63 "/><g class="Glass" id="Glass"><polygon points="1050.72,209.63 1050.72,474.23 1028.72,474.23 1028.72,209.63 "/></g><g class="Panel" id="Panel"><line x1="1039.719970703125" x2="1039.719970703125" y1="217.1300048828125" y2="466.7300109863281"/><line x1="1050.719970703125" x2="1028.719970703125" y1="217.1300048828125" y2="217.1300048828125"/><line x1="1050.719970703125" x2="1028.719970703125" y1="466.7300109863281" y2="466.7300109863281"/></g></g><g class="Window Regular" fill="#f0f0ff" id="Window" stroke="#000000" style="fill-opacity: 1; stroke-width: 1; stroke-opacity: 1;"><polygon points="1050.72,635.94 1050.72,947.10 1028.72,947.10 1028.72,635.94 "/><g class="Glass" id="Glass"><polygon points="1050.72,635.94 1050.72,947.10 1028.72,947.10 1028.72,635.94 "/></g><g class="Panel" id="Panel"><line x1="1039.719970703125" x2="1039.719970703125" y1="643.4400024414062" y2="939.5999755859375"/><line x1="1050.719970703125" x2="1028.719970703125" y1="643.4400024414062" y2="643.4400024414062"/><line x1="1050.719970703125" x2="1028.719970703125" y1="939.5999755859375" y2="939.5999755859375"/></g></g></g><g class="Wall External" fill="#000000" id="Wall" stroke="#000000" style="fill-opacity: 1; stroke-opacity: 1; stroke-width: 1;"><polygon points="1050.72,999.80 729.07,999.80 707.07,978.62 1028.72,978.62 "/></g><g class="Wall External" fill="#000000" id="Wall" stroke="#000000" style="fill-opacity: 1; stroke-opacity: 1; stroke-width: 1;"><polygon points="707.07,978.62 707.07,1364.35 729.07,1386.35 729.07,999.80 "/></g><g class="Wall External" fill="#000000" id="Wall" stroke="#000000" style="fill-opacity: 1; stroke-opacity: 1; stroke-width: 1;"><polygon points="729.07,1386.35 31.93,1386.35 53.93,1364.35 707.07,1364.35 "/><g class="Door Swing Beside" fill="#ffffff" id="Door" stroke="#000000" style="fill-opacity: 1; stroke-width: 1; stroke-opacity: 1;"><polygon points="620.16,1386.35 552.55,1386.35 552.55,1364.35 620.16,1364.35 "/><g class="Panel Right Negative" fill="none" id="Panel" style=""><g class="PanelArea" fill="none" id="PanelArea" stroke="none" style=""><polygon points="620.16,1386.35 552.55,1386.35 552.55,1364.35 620.16,1364.35 "/></g><path d="M552.55,1386.35 q0.00,67.61 67.61,67.61 l0.00,-67.61Z"/></g></g></g><g class="Wall External" fill="#000000" id="Wall" stroke="#000000" style="fill-opacity: 1; stroke-opacity: 1; stroke-width: 1;"><polygon points="31.93,1386.35 31.93,181.28 53.93,202.28 53.93,1364.35 "/><g class="Window Regular" fill="#f0f0ff" id="Window" stroke="#000000" style="fill-opacity: 1; stroke-width: 1; stroke-opacity: 1;"><polygon points="31.93,1291.88 31.93,1063.07 53.93,1063.07 53.93,1291.88 "/><g class="Glass" id="Glass"><polygon points="31.93,1291.88 31.93,1063.07 53.93,1063.07 53.93,1291.88 "/></g><g class="Panel" id="Panel"><line x1="42.93000030517578" x2="42.93000030517578" y1="1284.3800048828125" y2="1070.5699462890625"/><line x1="31.93000030517578" x2="53.93000030517578" y1="1284.3800048828125" y2="1284.3800048828125"/><line x1="31.93000030517578" x2="53.93000030517578" y1="1070.5699462890625" y2="1070.5699462890625"/></g></g><g class="Window Regular" fill="#f0f0ff" id="Window" stroke="#000000" style="fill-opacity: 1; stroke-width: 1; stroke-opacity: 1;"><polygon points="31.93,910.08 31.93,676.04 53.93,676.04 53.93,910.08 "/><g class="Glass" id="Glass"><polygon points="31.93,910.08 31.93,676.04 53.93,676.04 53.93,910.08 "/></g><g class="Panel" id="Panel"><line x1="42.93000030517578" x2="42.93000030517578" y1="902.5800170898438" y2="683.5399780273438"/><line x1="31.93000030517578" x2="53.93000030517578" y1="902.5800170898438" y2="902.5800170898438"/><line x1="31.93000030517578" x2="53.93000030517578" y1="683.5399780273438" y2="683.5399780273438"/></g></g></g><g class="Wall" fill="#000000" id="Wall" stroke="#000000" style="fill-opacity: 1; stroke-opacity: 1; stroke-width: 1;"><polygon points="707.07,978.62 31.93,978.62 31.93,991.62 707.07,991.62 "/><g class="Door Swing Beside" fill="#ffffff" id="Door" stroke="#000000" style="fill-opacity: 1; stroke-width: 1; stroke-opacity: 1;"><polygon points="460.53,978.62 394.49,978.62 394.49,991.62 460.53,991.62 "/><g class="Panel Right Negative" fill="none" id="Panel" style=""><g class="PanelArea" fill="none" id="PanelArea" stroke="none" style=""><polygon points="460.53,978.62 394.49,978.62 394.49,991.62 460.53,991.62 "/></g><path d="M394.49,978.62 q0.00,-66.04 66.04,-66.04 l0.00,66.04Z"/></g></g><g class="Door None Beside" fill="#ffffff" id="Door" stroke="#000000" style="fill-opacity: 1; stroke-width: 1; stroke-opacity: 1;"><polygon points="651.73,978.62 546.53,978.62 546.53,991.62 651.73,991.62 "/></g></g><g class="Wall" fill="#000000" id="Wall" stroke="#000000" style="fill-opacity: 1; stroke-opacity: 1; stroke-width: 1;"><polygon points="543.97,978.62 543.97,588.71 530.97,599.68 530.97,978.62 "/></g><g class="Wall" fill="#000000" id="Wall" stroke="#000000" style="fill-opacity: 1; stroke-opacity: 1; stroke-width: 1;"><polygon points="530.97,599.68 31.93,599.68 31.93,588.71 543.97,588.71 "/></g><g class="Wall" fill="#000000" id="Wall" stroke="#000000" style="fill-opacity: 1; stroke-opacity: 1; stroke-width: 1;"><polygon points="494.74,588.71 494.74,181.28 482.74,181.28 482.74,588.71 "/><g class="Door Swing Beside" fill="#ffffff" id="Door" stroke="#000000" style="fill-opacity: 1; stroke-width: 1; stroke-opacity: 1;"><polygon points="494.74,568.18 494.74,502.25 482.74,502.25 482.74,568.18 "/><g class="Panel Left Positive" fill="none" id="Panel" style=""><g class="PanelArea" fill="none" id="PanelArea" stroke="none" style=""><polygon points="494.74,568.18 494.74,502.25 482.74,502.25 482.74,568.18 "/></g><path d="M482.74,502.25 q-65.93,0.00 -65.93,65.93 l65.93,0.00Z"/></g></g></g><g class="Wall" fill="#000000" id="Wall" stroke="#000000" style="fill-opacity: 1; stroke-opacity: 1; stroke-width: 1;"><polygon points="482.74,202.28 426.52,202.28 426.52,239.28 482.74,239.28 "/></g><g class="Wall" fill="#000000" id="Wall" stroke="#000000" style="fill-opacity: 1; stroke-opacity: 1; stroke-width: 1;"><polygon points="724.26,580.42 724.26,633.87 656.32,683.85 656.32,580.42 "/></g><g class="Wall" fill="#000000" id="Wall" stroke="#000000" style="fill-opacity: 1; stroke-opacity: 1; stroke-width: 1;"><polygon points="724.26,633.87 823.46,633.87 823.46,683.85 656.32,683.85 "/></g><g class="Wall" fill="#000000" id="Wall" stroke="#000000" style="fill-opacity: 1; stroke-opacity: 1; stroke-width: 1;"><polygon points="675.06,978.62 675.06,683.85 664.06,683.85 664.06,978.62 "/><g class="Door Zfold Beside" fill="#ffffff" id="Door" stroke="#000000" style="fill-opacity: 1; stroke-width: 1; stroke-opacity: 1;"><polygon points="675.06,975.74 675.06,684.72 664.06,684.72 664.06,975.74 "/><g class="Panel Right Center" id="Panel"><g class="PanelArea" fill="none" id="PanelArea" stroke="none" style=""><polygon points="675.06,975.74 675.06,684.72 664.06,684.72 664.06,975.74 "/></g><path d="M664.06,975.74 L675.06,956.53 L664.06,937.33 L675.06,918.12 L664.06,898.91 L675.06,879.70 L664.06,860.50 L675.06,841.29 L664.06,822.08 L675.06,802.87 L664.06,783.67 "/></g></g></g><g class="Wall" fill="#000000" id="Wall" stroke="#000000" style="fill-opacity: 1; stroke-opacity: 1; stroke-width: 1;"><polygon points="1050.72,181.28 1214.51,181.28 1214.51,192.28 1050.72,192.28 "/></g><g class="Wall" fill="#000000" id="Wall" stroke="#000000" style="fill-opacity: 1; stroke-opacity: 1; stroke-width: 1;"><polygon points="1050.72,999.80 1215.27,999.80 1215.27,988.80 1050.72,988.80 "/></g><g class="Wall" fill="#000000" id="Wall" stroke="#000000" style="fill-opacity: 1; stroke-opacity: 1; stroke-width: 1;"><polygon points="1214.51,596.65 823.46,596.65 823.46,585.65 1214.51,585.65 "/><g class="Door Zfold Beside" fill="#ffffff" id="Door" stroke="#000000" style="fill-opacity: 1; stroke-width: 1; stroke-opacity: 1;"><polygon points="967.48,596.65 825.99,596.65 825.99,585.65 967.48,585.65 "/><g class="Panel Right Center" id="Panel"><g class="PanelArea" fill="none" id="PanelArea" stroke="none" style=""><polygon points="967.48,596.65 825.99,596.65 825.99,585.65 967.48,585.65 "/></g><path d="M967.48,585.65 L958.14,596.65 L948.80,585.65 L939.46,596.65 L930.13,585.65 L920.79,596.65 L911.45,585.65 L902.11,596.65 L892.77,585.65 L883.43,596.65 L874.10,585.65 "/></g></g><g class="Door None Beside" fill="#ffffff" id="Door" stroke="#000000" style="fill-opacity: 1; stroke-width: 1; stroke-opacity: 1;"><polygon points="1168.14,596.65 1080.16,596.65 1080.16,585.65 1168.14,585.65 "/></g></g><g class="Wall" fill="#000000" id="Wall" stroke="#000000" style="fill-opacity: 1; stroke-opacity: 1; stroke-width: 1;"><polygon points="362.46,991.62 362.46,1386.35 373.46,1386.35 373.46,991.62 "/><g class="Door Swing Beside" fill="#ffffff" id="Door" stroke="#000000" style="fill-opacity: 1; stroke-width: 1; stroke-opacity: 1;"><polygon points="362.46,1014.74 362.46,1078.47 373.46,1078.47 373.46,1014.74 "/><g class="Panel Right Negative" fill="none" id="Panel" style=""><g class="PanelArea" fill="none" id="PanelArea" stroke="none" style=""><polygon points="362.46,1014.74 362.46,1078.47 373.46,1078.47 373.46,1014.74 "/></g><path d="M362.46,1078.47 q-63.73,0.00 -63.73,-63.73 l63.73,0.00Z"/></g></g></g><g class="Wall" fill="#000000" id="Wall" stroke="#000000" style="fill-opacity: 1; stroke-opacity: 1; stroke-width: 1;"><polygon points="362.46,1364.35 362.46,1305.74 338.34,1305.74 338.34,1364.35 "/></g><g class="Wall" fill="#000000" id="Wall" stroke="#000000" style="fill-opacity: 1; stroke-opacity: 1; stroke-width: 1;"><polygon points="373.46,1364.35 373.46,1247.18 388.46,1257.18 388.46,1364.35 "/></g><g class="Wall" fill="#000000" id="Wall" stroke="#000000" style="fill-opacity: 1; stroke-opacity: 1; stroke-width: 1;"><polygon points="388.46,1257.18 524.23,1257.18 524.23,1247.18 373.46,1247.18 "/><g class="Door None Beside" fill="#ffffff" id="Door" stroke="#000000" style="fill-opacity: 1; stroke-width: 1; stroke-opacity: 1;"><polygon points="466.38,1257.18 521.29,1257.18 521.29,1247.18 466.38,1247.18 "/></g></g><g class="Wall" fill="#000000" id="Wall" stroke="#000000" style="fill-opacity: 1; stroke-opacity: 1; stroke-width: 1;"><polygon points="524.23,1386.35 524.23,1091.66 534.23,1081.66 534.23,1386.35 "/><g class="Door Swing Beside" fill="#ffffff" id="Door" stroke="#000000" style="fill-opacity: 1; stroke-width: 1; stroke-opacity: 1;"><polygon points="524.23,1201.19 524.23,1137.09 534.23,1137.09 534.23,1201.19 "/><g class="Panel Left Positive" fill="none" id="Panel" style=""><g class="PanelArea" fill="none" id="PanelArea" stroke="none" style=""><polygon points="524.23,1201.19 524.23,1137.09 534.23,1137.09 534.23,1201.19 "/></g><path d="M534.23,1137.09 q64.10,0.00 64.10,64.10 l-64.10,0.00Z"/></g></g></g><g class="Wall" fill="#000000" id="Wall" stroke="#000000" style="fill-opacity: 1; stroke-opacity: 1; stroke-width: 1;"><polygon points="524.23,1091.66 373.46,1091.66 373.46,1081.66 534.23,1081.66 "/></g><g class="Railing" fill="#ffffff" id="Railing" stroke="#000000" style="fill-opacity: 1; stroke-opacity: 1; stroke-width: 1;"><polygon points="1215.27,999.80 1214.51,181.28 1225.51,181.27 1226.27,999.79 "/></g><g class="FixedFurnitureSet" id="FixedFurnitureSet" transform="matrix(0,1,-1,0,706.8044,1236.889)"><g class="FixedFurniture Closet" fill="#ffffff" stroke="#000000" style="fill-opacity: 1; stroke-opacity: 1;" transform="matrix(1,0,0,1,0,0)">
<g class="BoundaryPolygon">
<polygon points="0.00,0.00 63.66,0.00 63.66,60.00 0.00,60.00 "/>
</g>
<g class="Direction" fill-opacity="0.9" style="display: none;">
<polygon fill="#444444" points="33.43,54.70 33.43,44.08 30.42,44.08 30.42,54.70 26.62,54.70 31.92,60.00 37.22,54.70 33.43,54.70 "/>
</g>
<g class="Name" fill-opacity="0.9" style="display: none;">

</g>
<desc>Width:60 Height:200 Depth:60 Elevation:0</desc>
</g><g class="FixedFurniture Closet" fill="#ffffff" stroke="#000000" style="fill-opacity: 1; stroke-opacity: 1;" transform="matrix(1,0,0,1,63.6608,0)">
<g class="BoundaryPolygon">
<polygon points="0.00,0.00 63.66,0.00 63.66,60.00 0.00,60.00 "/>
</g>
<g class="Direction" fill-opacity="0.9" style="display: none;">
<polygon fill="#444444" points="33.43,54.70 33.43,44.08 30.42,44.08 30.42,54.70 26.62,54.70 31.92,60.00 37.22,54.70 33.43,54.70 "/>
</g>
<g class="Name" fill-opacity="0.9" style="display: none;">

</g>
<desc>Width:60 Height:200 Depth:60 Elevation:0</desc>
</g></g><g class="FixedFurnitureSet" id="FixedFurnitureSet" transform="matrix(1,0,0,1,454.1776,1091.9536)"><g class="FixedFurniture BaseCabinet" fill="#ffffff" stroke="#000000" style="fill-opacity: 1; stroke-opacity: 1;" transform="matrix(1,0,0,1,0,0)">
<g class="BoundaryPolygon">
<polygon points="0.00,0.00 53.11,0.00 53.11,40.42 0.00,40.42 "/>
</g>
<g class="Direction" fill-opacity="0.9" style="display: none;">
<polygon fill="#444444" points="28.33,37.18 28.33,26.56 25.33,26.56 25.33,37.18 21.52,37.18 26.83,41.98 32.13,37.18 28.33,37.18 "/>
</g>
<g class="Name" fill-opacity="0.9" style="display: none;">

</g>
<desc>Width:60 Height:5 Depth:60 Elevation:105</desc>
</g><g class="FixedFurniture Sink" fill="#ffffff" stroke="#000000" style="fill-opacity: 1; stroke-opacity: 1;" transform="matrix(1,0,0,1,0,0)">
<g class="BoundaryPolygon" fill="none" stroke="none">
<polygon points="0.00,0.00 53.11,0.00 53.11,40.42 0.00,40.42 "/>
</g>
<g class="InnerPolygon">
<polygon points="4.43,9.70 48.69,9.70 48.69,36.85 4.43,36.85 "/>
</g>
<g class="OuterDrain" stroke-width="0.8">
<circle cx="26.555767121445857" cy="21.689689977234103" r="3.5"/>
</g>
<g class="InnerDrain" stroke-width="0.8">
<circle cx="26.555767121445857" cy="21.689689977234103" r="2"/>
</g>
<g class="Faucet">
<polygon points="23.90,3.37 29.90,3.37 29.90,17.37 23.90,17.37 "/>
</g>
<g class="Direction" fill-opacity="0.9" style="display: none;">
<polygon fill="#444444" points="28.33,37.18 28.33,26.56 25.33,26.56 25.33,37.18 21.52,37.18 26.83,41.98 32.13,37.18 28.33,37.18 "/>
</g>
<g class="Name" fill-opacity="0.9" style="display: none;">

</g>
<desc>Width:60 Height:90 Depth:60 Elevation:0</desc>
</g></g><g class="FixedFurnitureSet" id="FixedFurnitureSet" transform="matrix(0,1,-1,0,530.7166,727.1494)"><g class="FixedFurniture Closet" fill="#ffffff" stroke="#000000" style="fill-opacity: 1; stroke-opacity: 1;" transform="matrix(1,0,0,1,0,0)">
<g class="BoundaryPolygon">
<polygon points="0.00,0.00 63.47,0.00 63.47,54.13 0.00,54.13 "/>
</g>
<g class="Direction" fill-opacity="0.9" style="display: none;">
<polygon fill="#444444" points="33.33,49.35 33.33,38.73 30.32,38.73 30.32,49.35 26.52,49.35 31.82,54.65 37.12,49.35 33.33,49.35 "/>
</g>
<g class="Name" fill-opacity="0.9" style="display: none;">

</g>
<desc>Width:60 Height:200 Depth:60 Elevation:0</desc>
</g><g class="FixedFurniture Closet" fill="#ffffff" stroke="#000000" style="fill-opacity: 1; stroke-opacity: 1;" transform="matrix(1,0,0,1,63.466,0)">
<g class="BoundaryPolygon">
<polygon points="0.00,0.00 63.47,0.00 63.47,54.13 0.00,54.13 "/>
</g>
<g class="Direction" fill-opacity="0.9" style="display: none;">
<polygon fill="#444444" points="33.33,49.35 33.33,38.73 30.32,38.73 30.32,49.35 26.52,49.35 31.82,54.65 37.12,49.35 33.33,49.35 "/>
</g>
<g class="Name" fill-opacity="0.9" style="display: none;">

</g>
<desc>Width:60 Height:200 Depth:60 Elevation:0</desc>
</g></g><g class="FixedFurnitureSet" id="FixedFurnitureSet" transform="matrix(0,1,-1,0,482.7434,367.8272)"><g class="FixedFurniture Closet" fill="#ffffff" stroke="#000000" style="fill-opacity: 1; stroke-opacity: 1;" transform="matrix(1,0,0,1,0,0)">
<g class="BoundaryPolygon">
<polygon points="0.00,0.00 56.00,0.00 56.00,56.01 0.00,56.01 "/>
</g>
<g class="Direction" fill-opacity="0.9" style="display: none;">
<polygon fill="#444444" points="29.41,51.06 29.41,40.45 26.40,40.45 26.40,51.06 22.60,51.06 27.90,56.36 33.20,51.06 29.41,51.06 "/>
</g>
<g class="Name" fill-opacity="0.9" style="display: none;">

</g>
<desc>Width:60 Height:200 Depth:60 Elevation:0</desc>
</g><g class="FixedFurniture Closet" fill="#ffffff" stroke="#000000" style="fill-opacity: 1; stroke-opacity: 1;" transform="matrix(1,0,0,1,56.0019,0)">
<g class="BoundaryPolygon">
<polygon points="0.00,0.00 56.00,0.00 56.00,56.01 0.00,56.01 "/>
</g>
<g class="Direction" fill-opacity="0.9" style="display: none;">
<polygon fill="#444444" points="29.41,51.06 29.41,40.45 26.40,40.45 26.40,51.06 22.60,51.06 27.90,56.36 33.20,51.06 29.41,51.06 "/>
</g>
<g class="Name" fill-opacity="0.9" style="display: none;">

</g>
<desc>Width:60 Height:200 Depth:60 Elevation:0</desc>
</g></g><g class="FixedFurniture Fireplace" fill="#ffffff" stroke="#000000" style="fill-opacity: 1; stroke-opacity: 1;" transform="matrix(-1.3138,0,0,-1.1802,823.4565,633.8713)">
<g class="BoundaryPolygon">
<polygon points="0,0 75,0 75,60 0,60"/>
</g>
<g class="Lines" fill="none" stroke="#4c4c4c">
<line x1="0.629" x2="51.294" y1="9.556" y2="60.205"/>
<line x1="0.598" x2="35.942" y1="25.167" y2="60.5"/>
<line x1="0.5" x2="20.479" y1="40.841" y2="60.5"/>
<line x1="40.648" x2="75.432" y1="0.5" y2="35.274"/>
<line x1="8.329" x2="68.348" y1="0.5" y2="60.5"/>
<line x1="24.88" x2="75.5" y1="0.5" y2="51.104"/>
<line x1="56.774" x2="75.5" y1="0.5" y2="19.22"/>
</g>
<g class="FireBox">  &gt;	
		    <rect height="40.58" width="32.571" x="22.053" y="19.92"/>
</g>
<g class="Direction" fill-opacity="0.9" style="display: none;">
<polygon fill="#444444" points="39.409 54.797 39.409 44.181 36.4 44.181 36.4 54.797 32.597 54.797 37.9 60.1 43.203 54.797 39.409 54.797"/>
</g>
<g class="Name" fill-opacity="0.9" style="display: none;">

</g>
<desc>Width:75 Height:120 Depth:60 Elevation:0</desc>
</g><g class="FixedFurniture Closet" fill="#ffffff" stroke="#000000" style="fill-opacity: 1; stroke-opacity: 1;" transform="matrix(0,1,-1,0,707.0704,1084.339)">
<g class="BoundaryPolygon">
<polygon points="0.00,0.00 152.55,0.00 152.55,32.24 0.00,32.24 "/>
</g>
<g class="Direction" fill-opacity="0.9" style="display: none;">
<polygon fill="#444444" points="80.11,29.39 80.11,18.77 77.10,18.77 77.10,29.39 73.30,29.39 78.60,34.69 83.91,29.39 80.11,29.39 "/>
</g>
<g class="Name" fill-opacity="0.9" style="display: none;">

</g>
<desc>Width:60 Height:200 Depth:60 Elevation:0</desc>
</g><g class="FixedFurniture BaseCabinet" fill="#ffffff" stroke="#000000" style="fill-opacity: 1; stroke-opacity: 1;" transform="matrix(-1,0,0,-1,338.3365,1364.2443)">
<g class="BoundaryPolygon">
<polygon points="0.00,0.00 283.86,0.00 283.86,58.59 0.00,58.59 "/>
</g>
<g class="Direction" fill-opacity="0.9" style="display: none;">
<polygon fill="#444444" points="151.44,53.90 151.44,43.29 148.43,43.29 148.43,53.90 144.62,53.90 149.93,58.71 155.23,53.90 151.44,53.90 "/>
</g>
<g class="Name" fill-opacity="0.9" style="display: none;">

</g>
<desc>Width:60 Height:90 Depth:60 Elevation:0</desc>
</g><g class="FixedFurniture ElectricalAppliance IntegratedStove" fill="#ffffff" stroke="#000000" style="fill-opacity: 1; stroke-opacity: 1;" transform="matrix(-1,0,0,-1,263.3159,1364.5037)">
<g class="BoundaryPolygon" fill="none" stroke="none">
<polygon points="0.00,0.00 64.28,0.00 64.28,58.85 0.00,58.85 "/>
</g>
<g class="InnerPolygon">
<polygon points="2.00,2.00 62.13,2.00 62.13,56.89 2.00,56.89 "/>
</g>
<g class="OuterCircle">
<circle cx="17.14054586505256" cy="15.694385920463814" r="8"/>
<circle cx="47.13650112889454" cy="15.694385920463814" r="8"/>
<circle cx="17.14054586505256" cy="43.15956128127549" r="8"/>
<circle cx="47.13650112889454" cy="43.15956128127549" r="8"/>
</g>
<g class="Direction" fill-opacity="0.9" style="display: none;">
<polygon fill="#444444" points="34.29,54.14 34.29,43.53 31.28,43.53 31.28,54.14 27.48,54.14 32.78,58.95 38.08,54.14 34.29,54.14 "/>
</g>
<g class="Name" fill-opacity="0.9" style="display: none;">

</g>
<desc>Width:60 Height:90 Depth:30 Elevation:0</desc>
</g><g class="FixedFurniture BaseCabinet" fill="#ffffff" stroke="#000000" style="fill-opacity: 1; stroke-opacity: 1;" transform="matrix(0,1,-1,0,362.4469,1141.6819)">
<g class="BoundaryPolygon">
<polygon points="0.00,0.00 163.97,0.00 163.97,60.00 0.00,60.00 "/>
</g>
<g class="Direction" fill-opacity="0.9" style="display: none;">
<polygon fill="#444444" points="87.47,55.20 87.47,44.58 84.46,44.58 84.46,55.20 80.66,55.20 85.96,60.00 91.27,55.20 87.47,55.20 "/>
</g>
<g class="Name" fill-opacity="0.9" style="display: none;">

</g>
<desc>Width:60 Height:90 Depth:60 Elevation:0</desc>
</g><g class="FixedFurniture ElectricalAppliance Refrigerator" fill="#ffffff" stroke="#000000" style="fill-opacity: 1; stroke-opacity: 1;" transform="matrix(0,1,-1,0,362.4469,1080.9967)">
<g class="BoundaryPolygon">
<polygon points="0,0 60,0 60,60 0,60"/>
</g>
<g class="electricitySign" fill="none">
<path d="M0,0,30,37.1v-18L60,56.3"/>
</g>
<g class="Doors">
<rect height="4" width="60" y="56"/>
</g>
<g class="Direction" fill-opacity="0.9" style="display: none;">
<polygon fill="#444444" points="32.009 55.197 32.009 44.581 29 44.581 29 55.197 25.197 55.197 30.5 60 35.803 55.197 32.009 55.197"/>
</g>
<g class="Name" fill-opacity="0.9" style="display: none;">

</g>
<desc>Width:60 Height:170 Depth:60 Elevation:0</desc>
</g><g class="FixedFurniture ElectricalAppliance Dishwasher" fill="#ffffff" stroke="#000000" style="fill-opacity: 1; stroke-opacity: 1;" transform="matrix(0,0.9703,-1,0,362.4469,1141.6818)">
<g class="BoundaryPolygon">
<polygon points="0,0 60,0 60,60 0,60"/>
</g>
<g class="electricitySign" fill="none">
<path d="M0,0,30,38.9v-20L60,60"/>
</g>
<g class="Handle">
<path d="M10,59.6H49.8"/>
</g>
<g class="Direction" fill-opacity="0.9" style="display: none;">
<polygon fill="#444444" points="32.009 55.197 32.009 44.581 29 44.581 29 55.197 25.197 55.197 30.5 60 35.803 55.197 32.009 55.197"/>
</g>
<g class="Name" fill-opacity="0.9" style="display: none;">

</g>
<desc>Width:60 Height:90 Depth:60 Elevation:0</desc>
</g><g class="FixedFurniture Sink" fill="#ffffff" stroke="#000000" style="fill-opacity: 1; stroke-opacity: 1;" transform="matrix(0,1,-1,0,363.6443,1200.109)">
<g class="BoundaryPolygon" fill="none" stroke="none">
<polygon points="0,0 60,0 60,60 0,60"/>
</g>
<g class="InnerPolygon">
<polygon points="5 9.7 55 9.7 55 54.7 5 54.7"/>
</g>
<g class="OuterDrain" stroke-width="0.8">
<circle cx="30" cy="32.2" r="3.5"/>
</g>
<g class="InnerDrain" stroke-width="0.8">
<circle cx="30" cy="32.2" r="2"/>
</g>
<g class="Faucet">
<polygon points="27 5 33 5 33 19 27 19"/>
</g>
<g class="Direction" fill-opacity="0.9" style="display: none;">
<polygon fill="#444444" points="32.009 55.197 32.009 44.581 29 44.581 29 55.197 25.197 55.197 30.5 60 35.803 55.197 32.009 55.197"/>
</g>
<g class="Name" fill-opacity="0.9" style="display: none;">

</g>
<desc>Width:60 Height:90 Depth:60 Elevation:0</desc>
</g><g class="FixedFurniture ShowerScreen" fill="#ffffff" stroke="#000000" style="fill-opacity: 1; stroke-opacity: 1;" transform="matrix(-1,0,0,-0.8913,451.2877,1364.35)">
<g class="BoundaryPolygon">
<polygon points="0,0 2.5,0 2.5,60 0,60"/>
</g>
<g class="InnerPolygon" stroke-linejoin="round">
<rect height="60" width="2.5"/>
</g>
<desc>Width:2.5 Height:180 Depth:60 Elevation:135</desc>
</g><g class="FixedFurniture Shower" fill="#ffffff" stroke="#000000" style="fill-opacity: 1; stroke-opacity: 1;" transform="matrix(-1,0,0,-1,429.2819,1364.3536)">
<g class="BoundaryPolygon" fill="none" stroke="none">
<polygon points="0,0 32,0 32,19 0,19"/>
</g>
<g class="InnerPolygon">
<rect height="6.1" width="11.2" x="3.7" y="0.5"/>
<rect height="6.1" width="11.2" x="17.6" y="0.5"/>
<rect height="6.1" width="3.4" x="28.7" y="0.5"/>
<rect height="6.1" width="3.2" x="0.5" y="0.5"/>
<path d="M14.9,8.5c0,1.5-0.4,3.3-1.6,5    c-0.4,0.6-1,1.1-1.1,1.7c-0.2,1.1,0.3,2.8,2.5,3.2c0.5,0.1,1.3,0.1,1.6,0.1h-0.1c0.3,0,1.1,0,1.6-0.1c2.2-0.4,2.7-2.1,2.5-3.2    c-0.1-0.6-0.7-1.1-1.1-1.7c-1.2-1.7-1.6-3.5-1.6-5"/>
<path d="M12.2,15.3c0.1,0.2,1.6,1.9,4.2,1.9 c2.4-0.1,3.7-1.7,3.9-1.9"/>
<path d="M14.9,0.5h2.7v8c-0.9,0-1.8,0-2.7,0l0,0 C14.9,5.9,14.9,3.2,14.9,0.5z"/>
</g>
<g class="Indicator">
<path d="M3.7,3.6C5,3.1,5.2,3,5.2,3 c0,1.1,0,0,0,1.1C5.2,4.1,5.1,4.1,3.7,3.6"/>
<path d="M28.7,3.6 C27.4,3.1,27.2,3,27.2,3c0,1.1,0,0,0,1.1C27.2,4.1,27.3,4.1,28.7,3.6"/>
</g>
<desc>Width:32 Height:97 Depth:19 Elevation:135</desc>
</g><g class="FixedFurniture Toilet" fill="#ffffff" stroke="#000000" style="fill-opacity: 1; stroke-opacity: 1;" transform="matrix(0,-1,1,0,373.4626,1235.7692)">
<g class="BoundaryPolygon" fill="none" stroke="none">
<polygon points="0,0 41,0 41,71 0,71"/>
</g>
<g class="InnerPolygon">
<rect height="17.98" width="39.989" x="0.502" y="0.5"/>
<path d="M40.491,44.237S41.619,70.5,20.907,70.5C-.523,70.5.6,44.237.6,44.237L.5,18.48H40.491Z"/>
<rect height="3.03" width="6.357" x="17.318" y="7.975"/>
</g>
<desc>Width:41 Height:85 Depth:71 Elevation:0</desc>
</g><g class="FixedFurniture CoatCloset" fill="#ffffff" stroke="#000000" style="fill-opacity: 1; stroke-opacity: 1;" transform="matrix(0,1,-1,0,530.7166,599.6842)">
<g class="BoundaryPolygon">
<polygon points="0.00,0.00 127.47,0.00 127.47,54.16 0.00,54.16 "/>
</g>

<g class="Direction" fill-opacity="0.9" style="display: none;">
<polygon fill="#444444" points="65.34,49.21 65.34,38.59 62.33,38.59 62.33,49.21 58.52,49.21 63.83,54.51 69.13,49.21 65.34,49.21 "/>
</g>
<g class="Name" fill-opacity="0.9" style="display: none;">

</g>
<desc>Width:120 Height:200 Depth:60 Elevation:0</desc>
</g><g class="FixedFurniture CoatCloset" fill="#ffffff" stroke="#000000" style="fill-opacity: 1; stroke-opacity: 1;" transform="matrix(0,1,-1,0,530.7166,854.4243)">
<g class="BoundaryPolygon">
<polygon points="0.00,0.00 124.19,0.00 124.19,54.16 0.00,54.16 "/>
</g>

<g class="Direction" fill-opacity="0.9" style="display: none;">
<polygon fill="#444444" points="63.66,49.21 63.66,38.59 60.65,38.59 60.65,49.21 56.84,49.21 62.15,54.51 67.45,49.21 63.66,49.21 "/>
</g>
<g class="Name" fill-opacity="0.9" style="display: none;">

</g>
<desc>Width:120 Height:200 Depth:60 Elevation:0</desc>
</g><g class="FixedFurniture CoatCloset" fill="#ffffff" stroke="#000000" style="fill-opacity: 1; stroke-opacity: 1;" transform="matrix(0,1,-1,0,482.6028,239.2813)">
<g class="BoundaryPolygon">
<polygon points="0.00,0.00 128.55,0.00 128.55,56.08 0.00,56.08 "/>
</g>

<g class="Direction" fill-opacity="0.9" style="display: none;">
<polygon fill="#444444" points="65.89,50.95 65.89,40.33 62.88,40.33 62.88,50.95 59.08,50.95 64.38,56.25 69.68,50.95 65.89,50.95 "/>
</g>
<g class="Name" fill-opacity="0.9" style="display: none;">

</g>
<desc>Width:120 Height:200 Depth:60 Elevation:0</desc>
</g><g class="FixedFurniture ElectricalAppliance WashingMachine" fill="#ffffff" stroke="#000000" style="fill-opacity: 1; stroke-opacity: 1;" transform="matrix(1,0,0,1,373.46,1091.7538)">
<g class="BoundaryPolygon">
<polygon points="0,0 60,0 60,60 0,60"/>
</g>
<g class="electricitySign" fill="none">
<path d="M0,0,30,41V20.8L60,60"/>
</g>
<g class="Handle">
<path d="M2.7,59.4H57.3"/>
</g>
<g class="Direction" fill-opacity="0.9" style="display: none;">
<polygon fill="#444444" points="32.009 55.197 32.009 44.581 29 44.581 29 55.197 25.197 55.197 30.5 60 35.803 55.197 32.009 55.197"/>
</g>
<g class="Name" fill-opacity="0.9" style="display: none;">

</g>
<desc>Width:60 Height:90 Depth:60 Elevation:0</desc>
</g></g></g></g></svg>