<?xml version="1.0" encoding="utf-8"?>
<svg height="792.5999908447266" id="temp" version="1.1" viewBox="0 0 1261.107089996338 792.5999908447266" width="1261.107089996338" xmlns="http://www.w3.org/2000/svg" xmlns:xlink="http://www.w3.org/1999/xlink"><defs/><g class="Model v1-1" id="Model"><g class="Floor"><g class="Floorplan Floor-1" id="Floor-1"><g class="Space LivingRoom" fill="#ffffff" id="e85ec836-2fba-42dd-9d33-6830674b5032" stroke="#ffffff" style="fill-opacity: 1; stroke-opacity: 1; stroke-width: 1;"><polygon points="619.25,444.26 619.34,444.26 618.34,564.61 189.58,564.61 189.58,52.36 619.25,52.36 "/><g class="Dimension" transform="matrix(1,0,0,1,189.5785,52.3649)"><g class="Visual" style="display: none;" transform="matrix(1,0,0,1,0,0)"><g class="DimensionMark" fill="#000000" id="mark1" stroke="none" style="fill-opacity: 1; pointer-events: visible;" transform="matrix(1,0,0,1,214.8804,0)"><polygon points="-5,5,0,0,5,5"/></g><g class="DimensionMark" fill="#000000" id="mark2" stroke="none" style="fill-opacity: 1; pointer-events: visible;" transform="matrix(1,0,0,1,429.6725,256.1247)"><polygon points="-5,-5,0,0,-5,5"/></g><g class="DimensionMark" fill="#000000" id="mark3" stroke="none" style="fill-opacity: 1; pointer-events: visible;" transform="matrix(1,0,0,1,214.8804,512.2494)"><polygon points="-5,-5,0,0,5,-5"/></g><g class="DimensionMark" fill="#000000" id="mark4" stroke="none" style="fill-opacity: 1; pointer-events: visible;" transform="matrix(1,0,0,1,0,256.1247)"><polygon points="5,5,0,0,5,-5"/></g></g><g class="SpaceDimensionsLabel" transform="matrix(1,0,0,1,186.7058,237.6368)"><g class="TextLabel NameLabel" id="NameLabel" style="display: block;"/><g class="TextLabel DimensionMeasureLabel" id="DimensionMeasureLabel" style="display: none;" transform="matrix(1,0,0,1,-114.6172,79.7813)"/></g></g></g><g class="Space Entry Lobby" fill="#ffffff" id="eb8c54d5-9797-46ea-a222-4b932f258429" stroke="#ffffff" style="fill-opacity: 1; stroke-opacity: 1; stroke-width: 1;"><polygon points="1007.13,627.75 923.15,627.75 923.15,564.15 914.15,564.15 914.15,627.75 816.35,627.75 816.35,564.61 618.34,564.61 619.34,444.26 1007.13,444.26 "/><g class="Dimension" transform="matrix(1,0,0,1,618.5771,444.2562)"><g class="Visual" style="display: none;" transform="matrix(1,0,0,1,0,0)"><g class="DimensionMark" fill="#000000" id="mark1" stroke="none" style="fill-opacity: 1; pointer-events: visible;" transform="matrix(1,0,0,1,197.7723,0)"><polygon points="-5,5,0,0,5,5"/></g><g class="DimensionMark" fill="#000000" id="mark2" stroke="none" style="fill-opacity: 1; pointer-events: visible;" transform="matrix(1,0,0,1,388.5546,91.747)"><polygon points="-5,-5,0,0,-5,5"/></g><g class="DimensionMark" fill="#000000" id="mark3" stroke="none" style="fill-opacity: 1; pointer-events: visible;" transform="matrix(1,0,0,1,197.7723,183.4901)"><polygon points="-5,-5,0,0,5,-5"/></g><g class="DimensionMark" fill="#000000" id="mark4" stroke="none" style="fill-opacity: 1; pointer-events: visible;" transform="matrix(1,0,0,1,0,91.747)"><polygon points="5,5,0,0,5,-5"/></g></g><g class="SpaceDimensionsLabel" transform="matrix(1,0,0,1,230.0486,78.8422)"><g class="TextLabel NameLabel" id="NameLabel" style="display: block;"/><g class="TextLabel DimensionMeasureLabel" id="DimensionMeasureLabel" style="display: none;" transform="matrix(1,0,0,1,-118.9297,79.7813)"/></g></g></g><g class="Space Outdoor" fill="#ffffff" id="f90f7ded-8aab-4a25-a47b-5984478d7d5a" stroke="#000000" style="fill-opacity: 1; stroke-opacity: 1; stroke-width: 1;"><polygon points="36.34,49.76 37.63,564.61 165.63,573.75 165.58,49.76 36.34,49.76 36.34,49.76 "/><g class="Dimension" transform="matrix(1,0,0,1,36.9963,49.7644)"><g class="Visual" style="display: none;" transform="matrix(1,0,0,1,0,0)"><g class="DimensionMark" fill="#000000" id="mark1" stroke="none" style="fill-opacity: 1; pointer-events: visible;" transform="matrix(1,0,0,1,64.3174,0)"><polygon points="-5,5,0,0,5,5"/></g><g class="DimensionMark" fill="#000000" id="mark2" stroke="none" style="fill-opacity: 1; pointer-events: visible;" transform="matrix(1,0,0,1,128.6088,261.9928)"><polygon points="-5,-5,0,0,-5,5"/></g><g class="DimensionMark" fill="#000000" id="mark3" stroke="none" style="fill-opacity: 1; pointer-events: visible;" transform="matrix(1,0,0,1,64.3174,519.3967)"><polygon points="-5,-5,0,0,5,-5"/></g><g class="DimensionMark" fill="#000000" id="mark4" stroke="none" style="fill-opacity: 1; pointer-events: visible;" transform="matrix(1,0,0,1,0,261.9928)"><polygon points="5,5,0,0,5,-5"/></g></g><g class="SpaceDimensionsLabel" transform="matrix(1,0,0,1,63.9896,64.6457)"><g class="TextLabel NameLabel" id="NameLabel" style="display: block;"/><g class="TextLabel DimensionMeasureLabel" id="DimensionMeasureLabel" style="display: none;" transform="matrix(1,0,0,1,-56.7422,79.75)"/></g></g></g><g class="Space Bedroom" fill="#ffffff" id="cd238095-c5ba-4c2c-b76e-28beb10de80e" stroke="#ffffff" style="fill-opacity: 1; stroke-opacity: 1; stroke-width: 1;"><polygon points="914.15,435.26 628.25,435.26 628.25,52.36 914.15,52.36 "/><g class="Dimension" transform="matrix(1,0,0,1,628.251,52.3649)"><g class="Visual" style="display: none;" transform="matrix(1,0,0,1,0,0)"><g class="DimensionMark" fill="#000000" id="mark1" stroke="none" style="fill-opacity: 1; pointer-events: visible;" transform="matrix(1,0,0,1,142.9486,0)"><polygon points="-5,5,0,0,5,5"/></g><g class="DimensionMark" fill="#000000" id="mark2" stroke="none" style="fill-opacity: 1; pointer-events: visible;" transform="matrix(1,0,0,1,285.8973,191.4456)"><polygon points="-5,-5,0,0,-5,5"/></g><g class="DimensionMark" fill="#000000" id="mark3" stroke="none" style="fill-opacity: 1; pointer-events: visible;" transform="matrix(1,0,0,1,142.9486,382.8913)"><polygon points="-5,-5,0,0,5,-5"/></g><g class="DimensionMark" fill="#000000" id="mark4" stroke="none" style="fill-opacity: 1; pointer-events: visible;" transform="matrix(1,0,0,1,0,191.4456)"><polygon points="5,5,0,0,5,-5"/></g></g><g class="SpaceDimensionsLabel" transform="matrix(1,0,0,1,119.1086,186.0275)"><g class="TextLabel NameLabel" id="NameLabel" style="display: block;"/><g class="TextLabel DimensionMeasureLabel" id="DimensionMeasureLabel" style="display: none;" transform="matrix(1,0,0,1,-113.7031,79.7812)"/></g></g></g><g class="Space Kitchen" fill="#ffffff" id="8ce1090c-71fb-4b9a-8f9e-49b89a731d25" stroke="#ffffff" style="fill-opacity: 1; stroke-opacity: 1; stroke-width: 1;"><polygon points="618.56,768.60 189.58,768.60 189.58,573.61 618.56,573.61 "/><g class="Dimension" transform="matrix(1,0,0,1,189.5785,573.6143)"><g class="Visual" style="display: none;" transform="matrix(1,0,0,1,0,0)"><g class="DimensionMark" fill="#000000" id="mark1" stroke="none" style="fill-opacity: 1; pointer-events: visible;" transform="matrix(1,0,0,1,214.4895,0)"><polygon points="-5,5,0,0,5,5"/></g><g class="DimensionMark" fill="#000000" id="mark2" stroke="none" style="fill-opacity: 1; pointer-events: visible;" transform="matrix(1,0,0,1,428.9791,97.4915)"><polygon points="-5,-5,0,0,-5,5"/></g><g class="DimensionMark" fill="#000000" id="mark3" stroke="none" style="fill-opacity: 1; pointer-events: visible;" transform="matrix(1,0,0,1,214.4895,194.9829)"><polygon points="-5,-5,0,0,5,-5"/></g><g class="DimensionMark" fill="#000000" id="mark4" stroke="none" style="fill-opacity: 1; pointer-events: visible;" transform="matrix(1,0,0,1,0,97.4915)"><polygon points="5,5,0,0,5,-5"/></g></g><g class="SpaceDimensionsLabel" transform="matrix(1,0,0,1,301.5129,106.4497)"><g class="TextLabel NameLabel" id="NameLabel" style="display: block;"/><g class="TextLabel DimensionMeasureLabel" id="DimensionMeasureLabel" style="display: none;" transform="matrix(1,0,0,1,-128.5703,79.625)"/></g></g></g><g class="Space Bedroom" fill="#ffffff" id="cb2f92ed-2b76-46a8-81d4-2713932afa08" stroke="#ffffff" style="fill-opacity: 1; stroke-opacity: 1; stroke-width: 1;"><polygon points="1169.42,435.26 923.15,435.26 923.15,52.36 1169.42,52.36 "/><g class="Dimension" transform="matrix(1,0,0,1,923.1483,52.3649)"><g class="Visual" style="display: none;" transform="matrix(1,0,0,1,0,0)"><g class="DimensionMark" fill="#000000" id="mark1" stroke="none" style="fill-opacity: 1; pointer-events: visible;" transform="matrix(1,0,0,1,123.1378,0)"><polygon points="-5,5,0,0,5,5"/></g><g class="DimensionMark" fill="#000000" id="mark2" stroke="none" style="fill-opacity: 1; pointer-events: visible;" transform="matrix(1,0,0,1,246.2755,191.4456)"><polygon points="-5,-5,0,0,-5,5"/></g><g class="DimensionMark" fill="#000000" id="mark3" stroke="none" style="fill-opacity: 1; pointer-events: visible;" transform="matrix(1,0,0,1,123.1378,382.8913)"><polygon points="-5,-5,0,0,5,-5"/></g><g class="DimensionMark" fill="#000000" id="mark4" stroke="none" style="fill-opacity: 1; pointer-events: visible;" transform="matrix(1,0,0,1,0,191.4456)"><polygon points="5,5,0,0,5,-5"/></g></g><g class="SpaceDimensionsLabel" transform="matrix(1,0,0,1,111.2177,184.9052)"><g class="TextLabel NameLabel" id="NameLabel" style="display: block;"/><g class="TextLabel DimensionMeasureLabel" id="DimensionMeasureLabel" style="display: none;" transform="matrix(1,0,0,1,-113.7031,79.7812)"/></g></g></g><g class="Space Bath" fill="#ffffff" id="d81c789a-f893-415a-9e78-2a8ca7bc3225" stroke="#ffffff" style="fill-opacity: 1; stroke-opacity: 1; stroke-width: 1;"><polygon points="776.50,768.60 627.56,768.60 627.56,573.61 776.50,573.61 "/><g class="Dimension" transform="matrix(1,0,0,1,627.5576,573.6143)"><g class="Visual" style="display: none;" transform="matrix(1,0,0,1,0,0)"><g class="DimensionMark" fill="#000000" id="mark1" stroke="none" style="fill-opacity: 1; pointer-events: visible;" transform="matrix(1,0,0,1,74.47,0)"><polygon points="-5,5,0,0,5,5"/></g><g class="DimensionMark" fill="#000000" id="mark2" stroke="none" style="fill-opacity: 1; pointer-events: visible;" transform="matrix(1,0,0,1,148.94,97.4915)"><polygon points="-5,-5,0,0,-5,5"/></g><g class="DimensionMark" fill="#000000" id="mark3" stroke="none" style="fill-opacity: 1; pointer-events: visible;" transform="matrix(1,0,0,1,74.47,194.9829)"><polygon points="-5,-5,0,0,5,-5"/></g><g class="DimensionMark" fill="#000000" id="mark4" stroke="none" style="fill-opacity: 1; pointer-events: visible;" transform="matrix(1,0,0,1,0,97.4915)"><polygon points="5,5,0,0,5,-5"/></g></g><g class="SpaceDimensionsLabel" transform="matrix(1,0,0,1,25.1994,110.3031)"><g class="TextLabel NameLabel" id="NameLabel" style="display: block;"/><g class="TextLabel DimensionMeasureLabel" id="DimensionMeasureLabel" style="display: none;" transform="matrix(1,0,0,1,-106.2266,79.625)"/></g></g></g><g class="Space Undefined" fill="#ffffff" id="9288c493-7981-49bf-a464-4ab1205cb407" stroke="#ffffff" style="fill-opacity: 1; stroke-opacity: 1; stroke-width: 1;"><polygon points="1108.61,584.30 1016.13,584.30 1016.13,444.26 1108.61,444.26 "/><g class="Dimension" transform="matrix(1,0,0,1,1016.1317,444.2562)"><g class="Visual" style="display: none;" transform="matrix(1,0,0,1,0,0)"><g class="DimensionMark" fill="#000000" id="mark1" stroke="none" style="fill-opacity: 1; pointer-events: visible;" transform="matrix(1,0,0,1,46.2409,0)"><polygon points="-5,5,0,0,5,5"/></g><g class="DimensionMark" fill="#000000" id="mark2" stroke="none" style="fill-opacity: 1; pointer-events: visible;" transform="matrix(1,0,0,1,92.4819,70.0239)"><polygon points="-5,-5,0,0,-5,5"/></g><g class="DimensionMark" fill="#000000" id="mark3" stroke="none" style="fill-opacity: 1; pointer-events: visible;" transform="matrix(1,0,0,1,46.2409,140.0478)"><polygon points="-5,-5,0,0,5,-5"/></g><g class="DimensionMark" fill="#000000" id="mark4" stroke="none" style="fill-opacity: 1; pointer-events: visible;" transform="matrix(1,0,0,1,0,70.0239)"><polygon points="5,5,0,0,5,-5"/></g></g><g class="SpaceDimensionsLabel" transform="matrix(1,0,0,1,46.241,46.2409)"><g class="TextLabel NameLabel" id="NameLabel" style="display: block;"/><g class="TextLabel DimensionMeasureLabel" id="DimensionMeasureLabel" style="display: none;" transform="matrix(1,0,0,1,-40.5235,80.0781)"/></g></g></g><g class="Wall External" fill="#000000" id="Wall" stroke="#000000" style="fill-opacity: 1; stroke-opacity: 1; stroke-width: 1;"><polygon points="800.50,650.75 1131.61,650.75 1108.61,627.75 776.50,627.75 "/><g class="Door Swing Opposite" fill="#ffffff" id="Door" stroke="#000000" style="fill-opacity: 1; stroke-width: 1; stroke-opacity: 1;"><polygon points="836.59,650.75 904.97,650.75 904.97,627.75 836.59,627.75 "/><g class="Panel Right Negative" fill="none" id="Panel" style=""><g class="PanelArea" fill="none" id="PanelArea" stroke="none" style=""><polygon points="836.59,650.75 904.97,650.75 904.97,627.75 836.59,627.75 "/></g><path d="M904.97,650.75 q0.00,68.38 -68.38,68.38 l0.00,-68.38Z"/></g><g class="Panel Right Positive" fill="none" id="Panel" style=""><g class="PanelArea" fill="none" id="PanelArea" stroke="none" style=""><polygon points="836.59,650.75 904.97,650.75 904.97,627.75 836.59,627.75 "/></g><path d="M836.59,627.75 q0.00,-68.38 68.38,-68.38 l0.00,68.38Z"/></g></g></g><g class="Wall External" fill="#000000" id="Wall" stroke="#000000" style="fill-opacity: 1; stroke-opacity: 1; stroke-width: 1;"><polygon points="1131.61,650.75 1131.61,460.26 1108.61,435.26 1108.61,627.75 "/></g><g class="Wall External" fill="#000000" id="Wall" stroke="#000000" style="fill-opacity: 1; stroke-opacity: 1; stroke-width: 1;"><polygon points="1131.61,460.26 1193.42,460.26 1169.42,435.26 1108.61,435.26 "/></g><g class="Wall External" fill="#000000" id="Wall" stroke="#000000" style="fill-opacity: 1; stroke-opacity: 1; stroke-width: 1;"><polygon points="1193.42,460.26 1193.42,28.36 1169.42,52.36 1169.42,435.26 "/></g><g class="Wall External" fill="#000000" id="Wall" stroke="#000000" style="fill-opacity: 1; stroke-opacity: 1; stroke-width: 1;"><polygon points="1193.42,28.36 165.58,28.36 189.58,52.36 1169.42,52.36 "/><g class="Window Regular" fill="#f0f0ff" id="Window" stroke="#000000" style="fill-opacity: 1; stroke-width: 1; stroke-opacity: 1;"><polygon points="911.45,28.36 679.47,28.36 679.47,52.36 911.45,52.36 "/><g class="Glass" id="Glass"><polygon points="911.45,28.36 679.47,28.36 679.47,52.36 911.45,52.36 "/></g><g class="Panel" id="Panel"><line x1="903.9494499483244" x2="686.966634109235" y1="40.3648957294222" y2="40.364895729422216"/><line x1="903.9494499483244" x2="903.9494499483244" y1="28.364895729422205" y2="52.3648957294222"/><line x1="686.966634109235" x2="686.966634109235" y1="28.36489572942222" y2="52.364895729422216"/></g></g><g class="Window Regular" fill="#f0f0ff" id="Window" stroke="#000000" style="fill-opacity: 1; stroke-width: 1; stroke-opacity: 1;"><polygon points="1168.03,28.36 923.82,28.36 923.82,52.36 1168.03,52.36 "/><g class="Glass" id="Glass"><polygon points="1168.03,28.36 923.82,28.36 923.82,52.36 1168.03,52.36 "/></g><g class="Panel" id="Panel"><line x1="1160.5289404803275" x2="931.3246662186168" y1="40.36489572942219" y2="40.3648957294222"/><line x1="1160.5289404803275" x2="1160.5289404803275" y1="28.364895729422187" y2="52.36489572942219"/><line x1="931.3246662186168" x2="931.3246662186168" y1="28.364895729422205" y2="52.3648957294222"/></g></g></g><g class="Wall External" fill="#000000" id="Wall" stroke="#000000" style="fill-opacity: 1; stroke-opacity: 1; stroke-width: 1;"><polygon points="165.58,792.60 800.50,792.60 776.50,768.60 189.58,768.60 "/></g><g class="Wall External" fill="#000000" id="Wall" stroke="#000000" style="fill-opacity: 1; stroke-opacity: 1; stroke-width: 1;"><polygon points="800.50,792.60 800.50,650.75 776.50,627.75 776.50,768.60 "/></g><g class="Wall" fill="#000000" id="Wall" stroke="#000000" style="fill-opacity: 1; stroke-opacity: 1; stroke-width: 1;"><polygon points="1108.61,435.26 628.25,435.26 619.25,444.26 1108.61,444.26 "/><g class="Door Swing Beside" fill="#ffffff" id="Door" stroke="#000000" style="fill-opacity: 1; stroke-width: 1; stroke-opacity: 1;"><polygon points="1002.06,435.26 934.26,435.26 934.26,444.26 1002.06,444.26 "/><g class="Panel Left Negative" fill="none" id="Panel" style=""><g class="PanelArea" fill="none" id="PanelArea" stroke="none" style=""><polygon points="1002.06,435.26 934.26,435.26 934.26,444.26 1002.06,444.26 "/></g><path d="M1002.06,435.26 q0.00,-67.81 -67.81,-67.81 l0.00,67.81Z"/></g></g><g class="Door Swing Beside" fill="#ffffff" id="Door" stroke="#000000" style="fill-opacity: 1; stroke-width: 1; stroke-opacity: 1;"><polygon points="901.24,435.26 833.43,435.26 833.43,444.26 901.24,444.26 "/><g class="Panel Right Negative" fill="none" id="Panel" style=""><g class="PanelArea" fill="none" id="PanelArea" stroke="none" style=""><polygon points="901.24,435.26 833.43,435.26 833.43,444.26 901.24,444.26 "/></g><path d="M833.43,435.26 q0.00,-67.81 67.81,-67.81 l0.00,67.81Z"/></g></g></g><g class="Wall" fill="#000000" id="Wall" stroke="#000000" style="fill-opacity: 1; stroke-opacity: 1; stroke-width: 1;"><polygon points="628.25,435.26 628.25,28.36 619.25,28.36 619.25,444.26 "/></g><g class="Wall" fill="#000000" id="Wall" stroke="#000000" style="fill-opacity: 1; stroke-opacity: 1; stroke-width: 1;"><polygon points="923.15,444.26 923.15,28.36 914.15,28.36 914.15,444.26 "/></g><g class="Wall" fill="#000000" id="Wall" stroke="#000000" style="fill-opacity: 1; stroke-opacity: 1; stroke-width: 1;"><polygon points="1007.13,435.26 1007.13,650.75 1016.13,650.75 1016.13,435.26 "/><g class="Door Swing Beside" fill="#ffffff" id="Door" stroke="#000000" style="fill-opacity: 1; stroke-width: 1; stroke-opacity: 1;"><polygon points="1007.13,489.15 1007.13,554.82 1016.13,554.82 1016.13,489.15 "/><g class="Panel Left Negative" fill="none" id="Panel" style=""><g class="PanelArea" fill="none" id="PanelArea" stroke="none" style=""><polygon points="1007.13,489.15 1007.13,554.82 1016.13,554.82 1016.13,489.15 "/></g><path d="M1007.13,489.15 q-65.67,0.00 -65.67,65.67 l65.67,0.00Z"/></g></g></g><g class="Wall" fill="#000000" id="Wall" stroke="#000000" style="fill-opacity: 1; stroke-opacity: 1; stroke-width: 1;"><polygon points="1108.61,627.75 1007.13,627.75 1007.13,584.30 1108.61,584.30 "/></g><g class="Wall" fill="#000000" id="Wall" stroke="#000000" style="fill-opacity: 1; stroke-opacity: 1; stroke-width: 1;"><polygon points="923.15,650.75 923.15,564.15 914.15,564.15 914.15,650.75 "/></g><g class="Wall" fill="#000000" id="Wall" stroke="#000000" style="fill-opacity: 1; stroke-opacity: 1; stroke-width: 1;"><polygon points="776.50,627.75 776.50,573.61 816.35,564.61 816.35,627.75 "/></g><g class="Wall" fill="#000000" id="Wall" stroke="#000000" style="fill-opacity: 1; stroke-opacity: 1; stroke-width: 1;"><polygon points="816.35,564.61 382.14,564.61 382.14,573.61 776.50,573.61 "/><g class="Door Swing Beside" fill="#ffffff" id="Door" stroke="#000000" style="fill-opacity: 1; stroke-width: 1; stroke-opacity: 1;"><polygon points="717.16,564.61 648.62,564.61 648.62,573.61 717.16,573.61 "/><g class="Panel Left Negative" fill="none" id="Panel" style=""><g class="PanelArea" fill="none" id="PanelArea" stroke="none" style=""><polygon points="717.16,564.61 648.62,564.61 648.62,573.61 717.16,573.61 "/></g><path d="M717.16,564.61 q0.00,-68.54 -68.54,-68.54 l0.00,68.54Z"/></g></g></g><g class="Wall External" fill="#000000" id="Wall" stroke="#000000" style="fill-opacity: 1; stroke-opacity: 1; stroke-width: 1;"><polygon points="165.58,28.36 165.58,564.61 189.58,564.61 189.58,52.36 "/><g class="Door Swing Beside" fill="#ffffff" id="Door" stroke="#000000" style="fill-opacity: 1; stroke-width: 1; stroke-opacity: 1;"><polygon points="165.58,452.75 165.58,522.66 189.58,522.66 189.58,452.75 "/><g class="Panel Left Negative" fill="none" id="Panel" style=""><g class="PanelArea" fill="none" id="PanelArea" stroke="none" style=""><polygon points="165.58,452.75 165.58,522.66 189.58,522.66 189.58,452.75 "/></g><path d="M165.58,452.75 q-69.91,0.00 -69.91,69.91 l69.91,0.00Z"/></g></g><g class="Window Regular" fill="#f0f0ff" id="Window" stroke="#000000" style="fill-opacity: 1; stroke-width: 1; stroke-opacity: 1;"><polygon points="165.58,57.84 165.58,449.47 189.58,449.47 189.58,57.84 "/><g class="Glass" id="Glass"><polygon points="165.58,57.84 165.58,449.47 189.58,449.47 189.58,57.84 "/></g><g class="Panel" id="Panel"><line x1="177.57853793195773" x2="177.57853793195773" y1="65.33821014905135" y2="441.9702797356813"/><line x1="165.57853793195773" x2="189.57853793195773" y1="65.33821014905135" y2="65.33821014905135"/><line x1="165.57853793195773" x2="189.57853793195773" y1="441.9702797356813" y2="441.9702797356813"/></g></g></g><g class="Wall External" fill="#000000" id="Wall" stroke="#000000" style="fill-opacity: 1; stroke-opacity: 1; stroke-width: 1;"><polygon points="165.58,564.61 165.58,792.60 189.58,768.60 189.58,564.61 "/><g class="Window Regular" fill="#f0f0ff" id="Window" stroke="#000000" style="fill-opacity: 1; stroke-width: 1; stroke-opacity: 1;"><polygon points="165.58,589.30 165.58,757.53 189.58,757.53 189.58,589.30 "/><g class="Glass" id="Glass"><polygon points="165.58,589.30 165.58,757.53 189.58,757.53 189.58,589.30 "/></g><g class="Panel" id="Panel"><line x1="177.57853793195773" x2="177.57853793195773" y1="596.7998627916322" y2="750.0323242849754"/><line x1="165.57853793195773" x2="189.57853793195773" y1="596.7998627916322" y2="596.7998627916322"/><line x1="165.57853793195773" x2="189.57853793195773" y1="750.0323242849754" y2="750.0323242849754"/></g></g></g><g class="Wall" fill="#000000" id="Wall" stroke="#000000" style="fill-opacity: 1; stroke-opacity: 1; stroke-width: 1;"><polygon points="238.41,564.61 165.58,564.61 165.58,573.61 238.41,573.61 "/></g><g class="Wall External" fill="#000000" id="Wall" stroke="#000000" style="fill-opacity: 1; stroke-opacity: 1; stroke-width: 1;"><polygon points="165.58,564.61 37.63,564.61 37.63,573.61 189.58,573.61 "/></g><g class="Wall External" fill="#000000" id="Wall" stroke="#000000" style="fill-opacity: 1; stroke-opacity: 1; stroke-width: 1;"><polygon points="36.34,28.67 165.58,28.67 165.58,49.76 36.34,49.76 "/></g><g class="Wall" fill="#000000" id="Wall" stroke="#000000" style="fill-opacity: 1; stroke-opacity: 1; stroke-width: 1;"><polygon points="627.56,792.60 627.56,564.61 618.56,564.61 618.56,792.60 "/><g class="Door Swing Beside" fill="#ffffff" id="Door" stroke="#000000" style="fill-opacity: 1; stroke-width: 1; stroke-opacity: 1;"><polygon points="627.56,696.26 627.56,644.54 618.56,644.54 618.56,696.26 "/><g class="Panel Left Positive" fill="none" id="Panel" style=""><g class="PanelArea" fill="none" id="PanelArea" stroke="none" style=""><polygon points="627.56,696.26 627.56,644.54 618.56,644.54 618.56,696.26 "/></g><path d="M618.56,644.54 q-51.72,0.00 -51.72,51.72 l51.72,0.00Z"/></g></g></g><g class="FixedFurniture BaseCabinet" fill="#ffffff" stroke="#000000" style="fill-opacity: 1; stroke-opacity: 1;" transform="matrix(1,0,0,1,391.2876,573.8018)">
<g class="BoundaryPolygon">
<polygon points="0.00,0.00 227.27,0.00 227.27,53.92 0.00,53.92 "/>
</g>
<g class="Direction" fill-opacity="0.9" style="display: none;">
<polygon fill="#444444" points="121.24,49.61 121.24,38.99 118.23,38.99 118.23,49.61 114.43,49.61 119.73,54.41 125.04,49.61 121.24,49.61 "/>
</g>
<g class="Name" fill-opacity="0.9" style="display: none;">

</g>
<desc>Width:60 Height:90 Depth:60 Elevation:0</desc>
</g><g class="FixedFurniture ElectricalAppliance" fill="#ffffff" stroke="#000000" style="fill-opacity: 1; stroke-opacity: 1;" transform="matrix(0.9349,0,0,0.8959,508.2656,573.8998)">
<g class="BoundaryPolygon">
<polygon points="0,0 60,0 60,60 0,60"/>
</g>
<g class="electricitySign" fill="none">
<path d="M0,0,30.1,39.8V19.4L59.9,60"/>
</g>
<g class="Direction" fill-opacity="0.9" style="display: none;">
<polygon fill="#444444" points="32.009 55.197 32.009 44.581 29 44.581 29 55.197 25.197 55.197 30.5 60 35.803 55.197 32.009 55.197"/>
</g>
<g class="Name" fill-opacity="0.9" style="display: none;">

</g>
<desc>Width:60 Height:90 Depth:60 Elevation:0</desc>
</g><g class="FixedFurniture BaseCabinet" fill="#ffffff" stroke="#000000" style="fill-opacity: 1; stroke-opacity: 1;" transform="matrix(-1,0,0,-1,618.5576,768.1846)">
<g class="BoundaryPolygon">
<polygon points="0.00,0.00 226.87,0.00 226.87,54.89 0.00,54.89 "/>
</g>
<g class="Direction" fill-opacity="0.9" style="display: none;">
<polygon fill="#444444" points="121.03,50.50 121.03,39.88 118.02,39.88 118.02,50.50 114.22,50.50 119.52,55.30 124.83,50.50 121.03,50.50 "/>
</g>
<g class="Name" fill-opacity="0.9" style="display: none;">

</g>
<desc>Width:60 Height:90 Depth:60 Elevation:0</desc>
</g><g class="FixedFurniture Sink" fill="#ffffff" stroke="#000000" style="fill-opacity: 1; stroke-opacity: 1;" transform="matrix(-1,0,0,-1,540.3306,768.1624)">
<g class="BoundaryPolygon" fill="none" stroke="none">
<polygon points="0.00,0.00 55.13,0.00 55.13,54.63 0.00,54.63 "/>
</g>
<g class="InnerPolygon">
<polygon points="4.59,9.70 50.53,9.70 50.53,49.80 4.59,49.80 "/>
</g>
<g class="OuterDrain" stroke-width="0.8">
<circle cx="27.564295983785723" cy="29.31575103761913" r="3.5"/>
</g>
<g class="InnerDrain" stroke-width="0.8">
<circle cx="27.564295983785723" cy="29.31575103761913" r="2"/>
</g>
<g class="Faucet">
<polygon points="24.81,4.55 30.81,4.55 30.81,18.55 24.81,18.55 "/>
</g>
<g class="Direction" fill-opacity="0.9" style="display: none;">
<polygon fill="#444444" points="29.41,50.25 29.41,39.64 26.40,39.64 26.40,50.25 22.60,50.25 27.90,55.06 33.20,50.25 29.41,50.25 "/>
</g>
<g class="Name" fill-opacity="0.9" style="display: none;">

</g>
<desc>Width:60 Height:90 Depth:60 Elevation:0</desc>
</g><g class="FixedFurniture ElectricalAppliance Dishwasher" fill="#ffffff" stroke="#000000" style="fill-opacity: 1; stroke-opacity: 1;" transform="matrix(-0.9145,0,0,-0.9105,485.2021,768.3316)">
<g class="BoundaryPolygon">
<polygon points="0,0 60,0 60,60 0,60"/>
</g>
<g class="electricitySign" fill="none">
<path d="M0,0,30,38.9v-20L60,60"/>
</g>
<g class="Handle">
<path d="M10,59.6H49.8"/>
</g>
<g class="Direction" fill-opacity="0.9" style="display: none;">
<polygon fill="#444444" points="32.009 55.197 32.009 44.581 29 44.581 29 55.197 25.197 55.197 30.5 60 35.803 55.197 32.009 55.197"/>
</g>
<g class="Name" fill-opacity="0.9" style="display: none;">

</g>
<desc>Width:60 Height:90 Depth:60 Elevation:0</desc>
</g><g class="FixedFurniture ElectricalAppliance IntegratedStove" fill="#ffffff" stroke="#000000" style="fill-opacity: 1; stroke-opacity: 1;" transform="matrix(-1,0,0,-1,597.1888,770.2081)">
<g class="BoundaryPolygon" fill="none" stroke="none">
<polygon points="0.00,0.00 57.94,0.00 57.94,58.85 0.00,58.85 "/>
</g>
<g class="InnerPolygon">
<polygon points="2.00,2.00 56.01,2.00 56.01,56.88 2.00,56.88 "/>
</g>
<g class="OuterCircle">
<circle cx="15.45019776282671" cy="15.692034151903414" r="8"/>
<circle cx="42.48804384777344" cy="15.692034151903414" r="8"/>
<circle cx="15.45019776282671" cy="43.15309391773438" r="8"/>
<circle cx="42.48804384777344" cy="43.15309391773438" r="8"/>
</g>
<g class="Direction" fill-opacity="0.9" style="display: none;">
<polygon fill="#444444" points="30.91,54.13 30.91,43.52 27.90,43.52 27.90,54.13 24.10,54.13 29.40,58.94 34.70,54.13 30.91,54.13 "/>
</g>
<g class="Name" fill-opacity="0.9" style="display: none;">

</g>
<desc>Width:60 Height:90 Depth:30 Elevation:0</desc>
</g><g class="FixedFurniture Shower" fill="#ffffff" stroke="#000000" style="fill-opacity: 1; stroke-opacity: 1;" transform="matrix(0,-1,1,0,627.5575,756.9853)">
<g class="BoundaryPolygon" fill="none" stroke="none">
<polygon points="0,0 32,0 32,19 0,19"/>
</g>
<g class="InnerPolygon">
<rect height="6.1" width="11.2" x="3.7" y="0.5"/>
<rect height="6.1" width="11.2" x="17.6" y="0.5"/>
<rect height="6.1" width="3.4" x="28.7" y="0.5"/>
<rect height="6.1" width="3.2" x="0.5" y="0.5"/>
<path d="M14.9,8.5c0,1.5-0.4,3.3-1.6,5    c-0.4,0.6-1,1.1-1.1,1.7c-0.2,1.1,0.3,2.8,2.5,3.2c0.5,0.1,1.3,0.1,1.6,0.1h-0.1c0.3,0,1.1,0,1.6-0.1c2.2-0.4,2.7-2.1,2.5-3.2    c-0.1-0.6-0.7-1.1-1.1-1.7c-1.2-1.7-1.6-3.5-1.6-5"/>
<path d="M12.2,15.3c0.1,0.2,1.6,1.9,4.2,1.9 c2.4-0.1,3.7-1.7,3.9-1.9"/>
<path d="M14.9,0.5h2.7v8c-0.9,0-1.8,0-2.7,0l0,0 C14.9,5.9,14.9,3.2,14.9,0.5z"/>
</g>
<g class="Indicator">
<path d="M3.7,3.6C5,3.1,5.2,3,5.2,3 c0,1.1,0,0,0,1.1C5.2,4.1,5.1,4.1,3.7,3.6"/>
<path d="M28.7,3.6 C27.4,3.1,27.2,3,27.2,3c0,1.1,0,0,0,1.1C27.2,4.1,27.3,4.1,28.7,3.6"/>
</g>
<desc>Width:32 Height:97 Depth:19 Elevation:135</desc>
</g><g class="FixedFurniture ElectricalAppliance WashingMachine" fill="#ffffff" stroke="#000000" style="fill-opacity: 1; stroke-opacity: 1;" transform="matrix(0,0.9192,-0.925,0,776.4831,573.6142)">
<g class="BoundaryPolygon">
<polygon points="0,0 60,0 60,60 0,60"/>
</g>
<g class="electricitySign" fill="none">
<path d="M0,0,30,41V20.8L60,60"/>
</g>
<g class="Handle">
<path d="M2.7,59.4H57.3"/>
</g>
<g class="Direction" fill-opacity="0.9" style="display: none;">
<polygon fill="#444444" points="32.009 55.197 32.009 44.581 29 44.581 29 55.197 25.197 55.197 30.5 60 35.803 55.197 32.009 55.197"/>
</g>
<g class="Name" fill-opacity="0.9" style="display: none;">

</g>
<desc>Width:60 Height:90 Depth:60 Elevation:0</desc>
</g><g class="FixedFurnitureSet" fill="#ffffff" id="FixedFurnitureSet" stroke="#000000" style="fill-opacity: 0.4; stroke-opacity: 0.4;" transform="matrix(0,1,-1,0,776.4038,656.3942)"><g class="FixedFurniture BaseCabinet" fill="#ffffff" stroke="#000000" style="fill-opacity: 1; stroke-opacity: 1;" transform="matrix(1,0,0,1,0,0)">
<g class="BoundaryPolygon">
<polygon points="0.00,0.00 48.91,0.00 48.91,33.36 0.00,33.36 "/>
</g>
<g class="Direction" fill-opacity="0.9" style="display: none;">
<polygon fill="#444444" points="26.09,30.69 26.09,20.07 23.08,20.07 23.08,30.69 19.28,30.69 24.58,35.49 29.89,30.69 26.09,30.69 "/>
</g>
<g class="Name" fill-opacity="0.9" style="display: none;">

</g>
<desc>Width:60 Height:5 Depth:60 Elevation:105</desc>
</g><g class="FixedFurniture Sink" fill="#ffffff" stroke="#000000" style="fill-opacity: 1; stroke-opacity: 1;" transform="matrix(1,0,0,1,0,0)">
<g class="BoundaryPolygon" fill="none" stroke="none">
<polygon points="0.00,0.00 48.91,0.00 48.91,33.36 0.00,33.36 "/>
</g>
<g class="InnerPolygon">
<polygon points="4.08,9.70 44.84,9.70 44.84,30.41 4.08,30.41 "/>
</g>
<g class="OuterDrain" stroke-width="0.8">
<circle cx="24.4560666133109" cy="17.903974582468052" r="3.5"/>
</g>
<g class="InnerDrain" stroke-width="0.8">
<circle cx="24.4560666133109" cy="17.903974582468052" r="2"/>
</g>
<g class="Faucet">
<polygon points="22.01,2.78 28.01,2.78 28.01,16.78 22.01,16.78 "/>
</g>
<g class="Direction" fill-opacity="0.9" style="display: none;">
<polygon fill="#444444" points="26.09,30.69 26.09,20.07 23.08,20.07 23.08,30.69 19.28,30.69 24.58,35.49 29.89,30.69 26.09,30.69 "/>
</g>
<g class="Name" fill-opacity="0.9" style="display: none;">

</g>
<desc>Width:60 Height:90 Depth:60 Elevation:0</desc>
</g></g><g class="FixedFurnitureSet" fill="#ffffff" id="FixedFurnitureSet" stroke="#000000" style="fill-opacity: 0.4; stroke-opacity: 0.4;" transform="matrix(-1,0,0,-1,829.6448,435.2561)"><g class="FixedFurniture Closet" fill="#ffffff" stroke="#000000" style="fill-opacity: 1; stroke-opacity: 1;" transform="matrix(1,0,0,1,0,0)">
<g class="BoundaryPolygon">
<polygon points="0.00,0.00 50.35,0.00 50.35,51.31 0.00,51.31 "/>
</g>
<g class="Direction" fill-opacity="0.9" style="display: none;">
<polygon fill="#444444" points="26.44,46.78 26.44,36.16 23.43,36.16 23.43,46.78 19.63,46.78 24.93,52.08 30.23,46.78 26.44,46.78 "/>
</g>
<g class="Name" fill-opacity="0.9" style="display: none;">

</g>
<desc>Width:60 Height:200 Depth:60 Elevation:0</desc>
</g><g class="FixedFurniture Closet" fill="#ffffff" stroke="#000000" style="fill-opacity: 1; stroke-opacity: 1;" transform="matrix(1,0,0,1,50.3479,0)">
<g class="BoundaryPolygon">
<polygon points="0.00,0.00 50.35,0.00 50.35,51.31 0.00,51.31 "/>
</g>
<g class="Direction" fill-opacity="0.9" style="display: none;">
<polygon fill="#444444" points="26.44,46.78 26.44,36.16 23.43,36.16 23.43,46.78 19.63,46.78 24.93,52.08 30.23,46.78 26.44,46.78 "/>
</g>
<g class="Name" fill-opacity="0.9" style="display: none;">

</g>
<desc>Width:60 Height:200 Depth:60 Elevation:0</desc>
</g><g class="FixedFurniture Closet" fill="#ffffff" stroke="#000000" style="fill-opacity: 1; stroke-opacity: 1;" transform="matrix(1,0,0,1,100.6959,0)">
<g class="BoundaryPolygon">
<polygon points="0.00,0.00 50.35,0.00 50.35,51.31 0.00,51.31 "/>
</g>
<g class="Direction" fill-opacity="0.9" style="display: none;">
<polygon fill="#444444" points="26.44,46.78 26.44,36.16 23.43,36.16 23.43,46.78 19.63,46.78 24.93,52.08 30.23,46.78 26.44,46.78 "/>
</g>
<g class="Name" fill-opacity="0.9" style="display: none;">

</g>
<desc>Width:60 Height:200 Depth:60 Elevation:0</desc>
</g><g class="FixedFurniture Closet" fill="#ffffff" stroke="#000000" style="fill-opacity: 1; stroke-opacity: 1;" transform="matrix(1,0,0,1,151.0438,0)">
<g class="BoundaryPolygon">
<polygon points="0.00,0.00 50.35,0.00 50.35,51.31 0.00,51.31 "/>
</g>
<g class="Direction" fill-opacity="0.9" style="display: none;">
<polygon fill="#444444" points="26.44,46.78 26.44,36.16 23.43,36.16 23.43,46.78 19.63,46.78 24.93,52.08 30.23,46.78 26.44,46.78 "/>
</g>
<g class="Name" fill-opacity="0.9" style="display: none;">

</g>
<desc>Width:60 Height:200 Depth:60 Elevation:0</desc>
</g></g><g class="FixedFurnitureSet" fill="#ffffff" id="FixedFurnitureSet" stroke="#000000" style="fill-opacity: 0.4; stroke-opacity: 0.4;" transform="matrix(-1,0,0,-1,1169.4238,435.2562)"><g class="FixedFurniture Closet" fill="#ffffff" stroke="#000000" style="fill-opacity: 1; stroke-opacity: 1;" transform="matrix(1,0,0,1,0,0)">
<g class="BoundaryPolygon">
<polygon points="0.00,0.00 49.22,0.00 49.22,51.31 0.00,51.31 "/>
</g>
<g class="Direction" fill-opacity="0.9" style="display: none;">
<polygon fill="#444444" points="25.85,46.78 25.85,36.16 22.84,36.16 22.84,46.78 19.04,46.78 24.34,52.08 29.64,46.78 25.85,46.78 "/>
</g>
<g class="Name" fill-opacity="0.9" style="display: none;">

</g>
<desc>Width:60 Height:200 Depth:60 Elevation:0</desc>
</g><g class="FixedFurniture Closet" fill="#ffffff" stroke="#000000" style="fill-opacity: 1; stroke-opacity: 1;" transform="matrix(1,0,0,1,49.2219,0)">
<g class="BoundaryPolygon">
<polygon points="0.00,0.00 49.22,0.00 49.22,51.31 0.00,51.31 "/>
</g>
<g class="Direction" fill-opacity="0.9" style="display: none;">
<polygon fill="#444444" points="25.85,46.78 25.85,36.16 22.84,36.16 22.84,46.78 19.04,46.78 24.34,52.08 29.64,46.78 25.85,46.78 "/>
</g>
<g class="Name" fill-opacity="0.9" style="display: none;">

</g>
<desc>Width:60 Height:200 Depth:60 Elevation:0</desc>
</g><g class="FixedFurniture Closet" fill="#ffffff" stroke="#000000" style="fill-opacity: 1; stroke-opacity: 1;" transform="matrix(1,0,0,1,98.4437,0)">
<g class="BoundaryPolygon">
<polygon points="0.00,0.00 49.22,0.00 49.22,51.31 0.00,51.31 "/>
</g>
<g class="Direction" fill-opacity="0.9" style="display: none;">
<polygon fill="#444444" points="25.85,46.78 25.85,36.16 22.84,36.16 22.84,46.78 19.04,46.78 24.34,52.08 29.64,46.78 25.85,46.78 "/>
</g>
<g class="Name" fill-opacity="0.9" style="display: none;">

</g>
<desc>Width:60 Height:200 Depth:60 Elevation:0</desc>
</g></g><g class="FixedFurniture Toilet" fill="#ffffff" stroke="#000000" style="fill-opacity: 1; stroke-opacity: 1;" transform="matrix(0.9411,0,0,0.9184,1042.7209,444.2562)">
<g class="BoundaryPolygon" fill="none" stroke="none">
<polygon points="0,0 41,0 41,71 0,71"/>
</g>
<g class="InnerPolygon">
<rect height="17.98" width="39.989" x="0.502" y="0.5"/>
<path d="M40.491,44.237S41.619,70.5,20.907,70.5C-.523,70.5.6,44.237.6,44.237L.5,18.48H40.491Z"/>
<rect height="3.03" width="6.357" x="17.318" y="7.975"/>
</g>
<desc>Width:41 Height:85 Depth:71 Elevation:0</desc>
</g><g class="FixedFurnitureSet" fill="#ffffff" id="FixedFurnitureSet" stroke="#000000" style="fill-opacity: 0.4; stroke-opacity: 0.4;" transform="matrix(-1,0,0,-1,1083.0056,584.179)"><g class="FixedFurniture BaseCabinet" fill="#ffffff" stroke="#000000" style="fill-opacity: 1; stroke-opacity: 1;" transform="matrix(1,0,0,1,0,0)">
<g class="BoundaryPolygon">
<polygon points="0.00,0.00 47.31,0.00 47.31,32.86 0.00,32.86 "/>
</g>
<g class="Direction" fill-opacity="0.9" style="display: none;">
<polygon fill="#444444" points="25.24,30.23 25.24,19.62 22.23,19.62 22.23,30.23 18.43,30.23 23.73,35.03 29.03,30.23 25.24,30.23 "/>
</g>
<g class="Name" fill-opacity="0.9" style="display: none;">

</g>
<desc>Width:60 Height:5 Depth:60 Elevation:105</desc>
</g><g class="FixedFurniture Sink" fill="#ffffff" stroke="#000000" style="fill-opacity: 1; stroke-opacity: 1;" transform="matrix(1,0,0,1,0,0)">
<g class="BoundaryPolygon" fill="none" stroke="none">
<polygon points="0.00,0.00 47.31,0.00 47.31,32.86 0.00,32.86 "/>
</g>
<g class="InnerPolygon">
<polygon points="3.94,9.70 43.37,9.70 43.37,29.96 3.94,29.96 "/>
</g>
<g class="OuterDrain" stroke-width="0.8">
<circle cx="23.654721917330615" cy="17.63620165640953" r="3.5"/>
</g>
<g class="InnerDrain" stroke-width="0.8">
<circle cx="23.654721917330615" cy="17.63620165640953" r="2"/>
</g>
<g class="Faucet">
<polygon points="21.29,2.74 27.29,2.74 27.29,16.74 21.29,16.74 "/>
</g>
<g class="Direction" fill-opacity="0.9" style="display: none;">
<polygon fill="#444444" points="25.24,30.23 25.24,19.62 22.23,19.62 22.23,30.23 18.43,30.23 23.73,35.03 29.03,30.23 25.24,30.23 "/>
</g>
<g class="Name" fill-opacity="0.9" style="display: none;">

</g>
<desc>Width:60 Height:90 Depth:60 Elevation:0</desc>
</g></g><g class="SelectionControls" fill="#0000ff" stroke="#0000ff" style="display: none;"><g class="rotateControl" style="display: none;"><circle cx="401.66715043195774" cy="226.90794572942218" r="5" style="stroke : none; fill-opacity: 0.5; cursor:crosshair"/></g><g class="ResizeNControl" style="display: none;"><circle cx="0" cy="0" r="5" style="stroke : none; fill-opacity: 0.5"/></g><g class="ResizeNEControl" style="display: none;"><circle cx="0" cy="0" r="5" style="stroke : none; fill-opacity: 0.5"/></g><g class="ResizeEControl" style="display: none;"><circle cx="0" cy="0" r="5" style="stroke : none; fill-opacity: 0.5"/></g><g class="ResizeSEControl" style="display: none;"><circle cx="0" cy="0" r="5" style="stroke : none; fill-opacity: 0.5"/></g><g class="ResizeSControl" style="display: none;"><circle cx="0" cy="0" r="5" style="stroke : none; fill-opacity: 0.5"/></g><g class="ResizeSWControl" style="display: none;"><circle cx="0" cy="0" r="5" style="stroke : none; fill-opacity: 0.5"/></g><g class="ResizeWControl" style="display: none;"><circle cx="0" cy="0" r="5" style="stroke : none; fill-opacity: 0.5"/></g><g class="ResizeNWControl" style="display: none;"><circle cx="0" cy="0" r="5" style="stroke : none; fill-opacity: 0.5"/></g><g class="removeControl" style="display: none;"><polygon points="376.28,256.91 427.05,256.91 427.05,297.10 376.28,297.10 " style="stroke : none; fill-opacity: 0.1"/></g><g class="copyPasteControl" style="display: none;"><polygon style="stroke : none; fill-opacity: 0.1"/></g><g class="translateControl" style="display: none;"><polygon points="376.28,256.91 427.05,256.91 427.05,297.10 376.28,297.10 " style="stroke : none; fill-opacity: 0.1; cursor:move"/></g></g><g class="SelectionControls" fill="#0000ff" stroke="#0000ff" style="display: none;"><polygon fill="none" points="189.58,52.36 619.34,52.36 619.34,564.61 189.58,564.61 " stroke="#0000ff" style=""/><g class="rotateControl" style="display: none;"><circle cx="404.45898531965304" cy="22.364895729422216" r="5" style="stroke : none; fill-opacity: 0.5; cursor:crosshair"/></g><g class="ResizeNControl" style="display: none;"><circle cx="0" cy="0" r="5" style="stroke : none; fill-opacity: 0.5"/></g><g class="ResizeNEControl" style="display: none;"><circle cx="0" cy="0" r="5" style="stroke : none; fill-opacity: 0.5"/></g><g class="ResizeEControl" style="display: none;"><circle cx="0" cy="0" r="5" style="stroke : none; fill-opacity: 0.5"/></g><g class="ResizeSEControl" style="display: none;"><circle cx="0" cy="0" r="5" style="stroke : none; fill-opacity: 0.5"/></g><g class="ResizeSControl" style="display: none;"><circle cx="0" cy="0" r="5" style="stroke : none; fill-opacity: 0.5"/></g><g class="ResizeSWControl" style="display: none;"><circle cx="0" cy="0" r="5" style="stroke : none; fill-opacity: 0.5"/></g><g class="ResizeWControl" style="display: none;"><circle cx="0" cy="0" r="5" style="stroke : none; fill-opacity: 0.5"/></g><g class="ResizeNWControl" style="display: none;"><circle cx="0" cy="0" r="5" style="stroke : none; fill-opacity: 0.5"/></g><g class="removeControl" style="display: none;"><polygon style="stroke : none; fill-opacity: 0.1"/></g><g class="copyPasteControl" style="display: none;"><polygon style="stroke : none; fill-opacity: 0.1"/></g><g class="translateControl" style="display: none;"><polygon style="stroke : none; fill-opacity: 0.1; cursor:move"/></g></g></g></g></g></svg>