<?xml version="1.0" encoding="utf-8"?>
<svg height="943.1799697875977" id="temp" version="1.1" viewBox="0 0 1373.9100952148438 943.1799697875977" width="1373.9100952148438" xmlns="http://www.w3.org/2000/svg" xmlns:xlink="http://www.w3.org/1999/xlink"><defs/><g class="Model v1-1" id="Model"><g class="Floor"><g class="Floorplan Floor-1" id="Floor-1" transform="matrix(1,0,0,1,0,0)"><g class="Space Outdoor Balcony" fill="#ffffff" id="e765ba27-141d-4d06-8e06-d462bd850470" stroke="#000000" style="stroke-width: 1; fill-opacity: 1; stroke-opacity: 1;"><polygon points="1207.88,453.50 1360.91,453.50 1360.91,72.90 1207.88,72.90 1207.88,453.50 "/><g class="Dimension" transform="matrix(1,0,0,1,1207.8765,72.9)"><g class="Visual" style="display: none;" transform="matrix(1,0,0,1,0,0)"><g class="DimensionMark" fill="#000000" id="mark1" stroke="none" style="fill-opacity: 1; pointer-events: visible;" transform="matrix(1,0,0,1,76.5161,0)"><polygon points="-5,5,0,0,5,5"/></g><g class="DimensionMark" fill="#000000" id="mark2" stroke="none" style="fill-opacity: 1; pointer-events: visible;" transform="matrix(1,0,0,1,153.0323,190.302)"><polygon points="-5,-5,0,0,-5,5"/></g><g class="DimensionMark" fill="#000000" id="mark3" stroke="none" style="fill-opacity: 1; pointer-events: visible;" transform="matrix(1,0,0,1,76.5161,380.604)"><polygon points="-5,-5,0,0,5,-5"/></g><g class="DimensionMark" fill="#000000" id="mark4" stroke="none" style="fill-opacity: 1; pointer-events: visible;" transform="matrix(1,0,0,1,0,190.302)"><polygon points="5,5,0,0,5,-5"/></g></g><g class="SpaceDimensionsLabel" transform="matrix(1,0,0,1,-0.8011,184.7939)"><g class="TextLabel NameLabel" id="NameLabel" style="display: block;"/><g class="TextLabel DimensionMeasureLabel" id="DimensionMeasureLabel" style="display: none;" transform="matrix(1,0,0,1,-63.7344,79.5938)"/></g></g></g><g class="Space LivingRoom" fill="#ffffff" id="7bab7a9c-ac35-427b-b4ec-5816c4a15584" stroke="#ffffff" style="fill-opacity: 1; stroke-opacity: 1; stroke-width: 1;"><polygon points="1183.88,453.50 593.51,453.50 593.51,72.90 1183.88,72.90 "/><g class="Dimension" transform="matrix(1,0,0,1,593.5058,72.9)"><g class="Visual" style="display: none;" transform="matrix(1,0,0,1,0,0)"><g class="DimensionMark" fill="#000000" id="mark1" stroke="none" style="fill-opacity: 1; pointer-events: visible;" transform="matrix(1,0,0,1,295.1854,0)"><polygon points="-5,5,0,0,5,5"/></g><g class="DimensionMark" fill="#000000" id="mark2" stroke="none" style="fill-opacity: 1; pointer-events: visible;" transform="matrix(1,0,0,1,590.3707,190.302)"><polygon points="-5,-5,0,0,-5,5"/></g><g class="DimensionMark" fill="#000000" id="mark3" stroke="none" style="fill-opacity: 1; pointer-events: visible;" transform="matrix(1,0,0,1,295.1854,380.604)"><polygon points="-5,-5,0,0,5,-5"/></g><g class="DimensionMark" fill="#000000" id="mark4" stroke="none" style="fill-opacity: 1; pointer-events: visible;" transform="matrix(1,0,0,1,0,190.302)"><polygon points="5,5,0,0,5,-5"/></g></g><g class="SpaceDimensionsLabel" transform="matrix(1,0,0,1,286.2719,184.9539)"><g class="TextLabel NameLabel" id="NameLabel" style="display: block;"/><g class="TextLabel DimensionMeasureLabel" id="DimensionMeasureLabel" style="display: none;" transform="matrix(1,0,0,1,-114.625,79.5938)"/></g></g></g><g class="Space Entry Lobby" fill="#ffffff" id="7d52b63e-b2c3-42e2-bab8-4795c9acf176" stroke="#ffffff" style="fill-opacity: 1; stroke-opacity: 1; stroke-width: 1;"><polygon points="708.97,464.50 746.99,464.50 746.99,853.44 593.51,853.44 593.51,453.50 708.97,453.50 "/><g class="Dimension" transform="matrix(1,0,0,1,593.5058,453.5039)"><g class="Visual" style="display: none;" transform="matrix(1,0,0,1,0,0)"><g class="DimensionMark" fill="#000000" id="mark1" stroke="none" style="fill-opacity: 1; pointer-events: visible;" transform="matrix(1,0,0,1,76.7441,0)"><polygon points="-5,5,0,0,5,5"/></g><g class="DimensionMark" fill="#000000" id="mark2" stroke="none" style="fill-opacity: 1; pointer-events: visible;" transform="matrix(1,0,0,1,153.4883,199.9693)"><polygon points="-5,-5,0,0,-5,5"/></g><g class="DimensionMark" fill="#000000" id="mark3" stroke="none" style="fill-opacity: 1; pointer-events: visible;" transform="matrix(1,0,0,1,76.7441,399.9386)"><polygon points="-5,-5,0,0,5,-5"/></g><g class="DimensionMark" fill="#000000" id="mark4" stroke="none" style="fill-opacity: 1; pointer-events: visible;" transform="matrix(1,0,0,1,0,199.9693)"><polygon points="5,5,0,0,5,-5"/></g></g><g class="SpaceDimensionsLabel" transform="matrix(1,0,0,1,47.3299,202.6009)"><g class="TextLabel NameLabel" id="NameLabel" style="display: block;"/><g class="TextLabel DimensionMeasureLabel" id="DimensionMeasureLabel" style="display: none;" transform="matrix(1,0,0,1,-119.0781,79.5938)"/></g></g></g><g class="Space Bedroom" fill="#ffffff" id="c6e20877-7db0-41d1-9e56-33923e16f13d" stroke="#ffffff" style="fill-opacity: 1; stroke-opacity: 1; stroke-width: 1;"><polygon points="582.51,394.53 130.81,394.53 130.81,72.90 582.51,72.90 "/><g class="Dimension" transform="matrix(1,0,0,1,130.8139,72.9)"><g class="Visual" style="display: none;" transform="matrix(1,0,0,1,0,0)"><g class="DimensionMark" fill="#000000" id="mark1" stroke="none" style="fill-opacity: 1; pointer-events: visible;" transform="matrix(1,0,0,1,225.8459,0)"><polygon points="-5,5,0,0,5,5"/></g><g class="DimensionMark" fill="#000000" id="mark2" stroke="none" style="fill-opacity: 1; pointer-events: visible;" transform="matrix(1,0,0,1,451.6919,160.8141)"><polygon points="-5,-5,0,0,-5,5"/></g><g class="DimensionMark" fill="#000000" id="mark3" stroke="none" style="fill-opacity: 1; pointer-events: visible;" transform="matrix(1,0,0,1,225.8459,321.6283)"><polygon points="-5,-5,0,0,5,-5"/></g><g class="DimensionMark" fill="#000000" id="mark4" stroke="none" style="fill-opacity: 1; pointer-events: visible;" transform="matrix(1,0,0,1,0,160.8141)"><polygon points="5,5,0,0,5,-5"/></g></g><g class="SpaceDimensionsLabel" transform="matrix(1,0,0,1,199.9971,165.2709)"><g class="TextLabel NameLabel" id="NameLabel" style="display: block;"/><g class="TextLabel DimensionMeasureLabel" id="DimensionMeasureLabel" style="display: none;" transform="matrix(1,0,0,1,-113.7031,79.5938)"/></g></g></g><g class="Space Kitchen" fill="#ffffff" id="aafc1d3d-8ad7-4eda-97a2-6f75f5250a17" stroke="#ffffff" style="fill-opacity: 1; stroke-opacity: 1; stroke-width: 1;"><polygon points="582.51,853.44 130.81,853.44 130.81,587.66 582.51,587.66 "/><g class="Dimension" transform="matrix(1,0,0,1,130.8139,587.6613)"><g class="Visual" style="display: none;" transform="matrix(1,0,0,1,0,0)"><g class="DimensionMark" fill="#000000" id="mark1" stroke="none" style="fill-opacity: 1; pointer-events: visible;" transform="matrix(1,0,0,1,225.8459,0)"><polygon points="-5,5,0,0,5,5"/></g><g class="DimensionMark" fill="#000000" id="mark2" stroke="none" style="fill-opacity: 1; pointer-events: visible;" transform="matrix(1,0,0,1,451.6919,132.8906)"><polygon points="-5,-5,0,0,-5,5"/></g><g class="DimensionMark" fill="#000000" id="mark3" stroke="none" style="fill-opacity: 1; pointer-events: visible;" transform="matrix(1,0,0,1,225.8459,265.7813)"><polygon points="-5,-5,0,0,5,-5"/></g><g class="DimensionMark" fill="#000000" id="mark4" stroke="none" style="fill-opacity: 1; pointer-events: visible;" transform="matrix(1,0,0,1,0,132.8906)"><polygon points="5,5,0,0,5,-5"/></g></g><g class="SpaceDimensionsLabel" transform="matrix(1,0,0,1,227.4126,164.0876)"><g class="TextLabel NameLabel" id="NameLabel" style="display: block;"/><g class="TextLabel DimensionMeasureLabel" id="DimensionMeasureLabel" style="display: none;" transform="matrix(1,0,0,1,-128.5078,79.5938)"/></g></g></g><g class="Space Bath" fill="#ffffff" id="e2707911-8197-47d2-a0bb-c7f93aa6b1d6" stroke="#ffffff" style="fill-opacity: 1; stroke-opacity: 1; stroke-width: 1;"><polygon points="421.64,576.66 130.81,576.66 130.81,405.53 421.64,405.53 "/><g class="Dimension" transform="matrix(1,0,0,1,130.8139,405.5283)"><g class="Visual" style="display: none;" transform="matrix(1,0,0,1,0,0)"><g class="DimensionMark" fill="#000000" id="mark1" stroke="none" style="fill-opacity: 1; pointer-events: visible;" transform="matrix(1,0,0,1,145.4136,0)"><polygon points="-5,5,0,0,5,5"/></g><g class="DimensionMark" fill="#000000" id="mark2" stroke="none" style="fill-opacity: 1; pointer-events: visible;" transform="matrix(1,0,0,1,290.8272,85.5665)"><polygon points="-5,-5,0,0,-5,5"/></g><g class="DimensionMark" fill="#000000" id="mark3" stroke="none" style="fill-opacity: 1; pointer-events: visible;" transform="matrix(1,0,0,1,145.4136,171.133)"><polygon points="-5,-5,0,0,5,-5"/></g><g class="DimensionMark" fill="#000000" id="mark4" stroke="none" style="fill-opacity: 1; pointer-events: visible;" transform="matrix(1,0,0,1,0,85.5665)"><polygon points="5,5,0,0,5,-5"/></g></g><g class="SpaceDimensionsLabel" transform="matrix(1,0,0,1,110.524,90.9146)"><g class="TextLabel NameLabel" id="NameLabel" style="display: block;"/><g class="TextLabel DimensionMeasureLabel" id="DimensionMeasureLabel" style="display: none;" transform="matrix(1,0,0,1,-106.2266,79.5938)"/></g></g></g><g class="Space Bath" fill="#ffffff" id="1a54b3e0-7cd7-43d6-bacf-b48e581117e9" stroke="#ffffff" style="fill-opacity: 1; stroke-opacity: 1; stroke-width: 1;"><polygon points="582.51,576.66 432.64,576.66 432.64,405.53 582.51,405.53 "/><g class="Dimension" transform="matrix(1,0,0,1,432.6411,405.5283)"><g class="Visual" style="display: none;" transform="matrix(1,0,0,1,0,0)"><g class="DimensionMark" fill="#000000" id="mark1" stroke="none" style="fill-opacity: 1; pointer-events: visible;" transform="matrix(1,0,0,1,74.9324,0)"><polygon points="-5,5,0,0,5,5"/></g><g class="DimensionMark" fill="#000000" id="mark2" stroke="none" style="fill-opacity: 1; pointer-events: visible;" transform="matrix(1,0,0,1,149.8647,85.5665)"><polygon points="-5,-5,0,0,-5,5"/></g><g class="DimensionMark" fill="#000000" id="mark3" stroke="none" style="fill-opacity: 1; pointer-events: visible;" transform="matrix(1,0,0,1,74.9324,171.133)"><polygon points="-5,-5,0,0,5,-5"/></g><g class="DimensionMark" fill="#000000" id="mark4" stroke="none" style="fill-opacity: 1; pointer-events: visible;" transform="matrix(1,0,0,1,0,85.5665)"><polygon points="5,5,0,0,5,-5"/></g></g><g class="SpaceDimensionsLabel" transform="matrix(1,0,0,1,47.3007,94.4799)"><g class="TextLabel NameLabel" id="NameLabel" style="display: block;"/><g class="TextLabel DimensionMeasureLabel" id="DimensionMeasureLabel" style="display: none;" transform="matrix(1,0,0,1,-112.1797,79.5938)"/></g></g></g><g class="Wall External" fill="#000000" id="Wall" stroke="#000000" style="fill-opacity: 1; stroke-opacity: 1; stroke-width: 1;"><polygon points="130.81,72.90 1183.88,72.90 1207.88,48.90 106.81,48.90 "/></g><g class="Wall External" fill="#000000" id="Wall" stroke="#000000" style="fill-opacity: 1; stroke-opacity: 1; stroke-width: 1;"><polygon points="1183.88,72.90 1183.88,453.50 1207.88,477.50 1207.88,48.90 "/><g class="Door Swing Opposite" fill="#ffffff" id="Door" stroke="#000000" style="fill-opacity: 1; stroke-width: 1; stroke-opacity: 1;"><polygon points="1183.88,356.71 1183.88,421.90 1207.88,421.90 1207.88,356.71 "/><g class="Panel Left Negative" fill="none" id="Panel" style=""><g class="PanelArea" fill="none" id="PanelArea" stroke="none" style=""><polygon points="1183.88,356.71 1183.88,421.90 1207.88,421.90 1207.88,356.71 "/></g><path d="M1183.88,356.71 q-65.19,0.00 -65.19,65.19 l65.19,0.00Z"/></g><g class="Panel Right Positive" fill="none" id="Panel" style=""><g class="PanelArea" fill="none" id="PanelArea" stroke="none" style=""><polygon points="1183.88,356.71 1183.88,421.90 1207.88,421.90 1207.88,356.71 "/></g><path d="M1207.88,356.71 q65.19,0.00 65.19,65.19 l-65.19,0.00Z"/></g></g><g class="Window Regular" fill="#f0f0ff" id="Window" stroke="#000000" style="fill-opacity: 1; stroke-width: 1; stroke-opacity: 1;"><polygon points="1183.88,97.72 1183.88,340.27 1207.88,340.27 1207.88,97.72 "/><g class="Glass" id="Glass"><polygon points="1183.88,97.72 1183.88,340.27 1207.88,340.27 1207.88,97.72 "/></g><g class="Panel" id="Panel"><line x1="1195.8800048828125" x2="1195.8800048828125" y1="105.22000122070312" y2="332.7699890136719"/><line x1="1183.8800048828125" x2="1207.8800048828125" y1="105.22000122070312" y2="105.22000122070312"/><line x1="1183.8800048828125" x2="1207.8800048828125" y1="332.7699890136719" y2="332.7699890136719"/></g></g></g><g class="Wall External" fill="#000000" id="Wall" stroke="#000000" style="fill-opacity: 1; stroke-opacity: 1; stroke-width: 1;"><polygon points="1183.88,453.50 746.99,453.50 770.99,477.50 1207.88,477.50 "/></g><g class="Wall External" fill="#000000" id="Wall" stroke="#000000" style="fill-opacity: 1; stroke-opacity: 1; stroke-width: 1;"><polygon points="746.99,453.50 746.99,853.44 770.99,877.44 770.99,477.50 "/></g><g class="Wall External" fill="#000000" id="Wall" stroke="#000000" style="fill-opacity: 1; stroke-opacity: 1; stroke-width: 1;"><polygon points="746.99,853.44 130.81,853.44 106.81,877.44 770.99,877.44 "/><g class="Door Swing Opposite" fill="#ffffff" id="Door" stroke="#000000" style="fill-opacity: 1; stroke-width: 1; stroke-opacity: 1;"><polygon points="673.21,853.44 607.47,853.44 607.47,877.44 673.21,877.44 "/><g class="Panel Left Negative" fill="none" id="Panel" style=""><g class="PanelArea" fill="none" id="PanelArea" stroke="none" style=""><polygon points="673.21,853.44 607.47,853.44 607.47,877.44 673.21,877.44 "/></g><path d="M673.21,853.44 q0.00,-65.74 -65.74,-65.74 l0.00,65.74Z"/></g><g class="Panel Right Positive" fill="none" id="Panel" style=""><g class="PanelArea" fill="none" id="PanelArea" stroke="none" style=""><polygon points="673.21,853.44 607.47,853.44 607.47,877.44 673.21,877.44 "/></g><path d="M673.21,877.44 q0.00,65.74 -65.74,65.74 l0.00,-65.74Z"/></g></g></g><g class="Wall External" fill="#000000" id="Wall" stroke="#000000" style="fill-opacity: 1; stroke-opacity: 1; stroke-width: 1;"><polygon points="130.81,853.44 130.81,72.90 106.81,48.90 106.81,877.44 "/><g class="Window Regular" fill="#f0f0ff" id="Window" stroke="#000000" style="fill-opacity: 1; stroke-width: 1; stroke-opacity: 1;"><polygon points="130.81,831.29 130.81,706.47 106.81,706.47 106.81,831.29 "/><g class="Glass" id="Glass"><polygon points="130.81,831.29 130.81,706.47 106.81,706.47 106.81,831.29 "/></g><g class="Panel" id="Panel"><line x1="118.80999755859375" x2="118.80999755859375" y1="823.7899780273438" y2="713.969970703125"/><line x1="130.80999755859375" x2="106.80999755859375" y1="823.7899780273438" y2="823.7899780273438"/><line x1="130.80999755859375" x2="106.80999755859375" y1="713.969970703125" y2="713.969970703125"/></g></g><g class="Window Regular" fill="#f0f0ff" id="Window" stroke="#000000" style="fill-opacity: 1; stroke-width: 1; stroke-opacity: 1;"><polygon points="130.81,520.33 130.81,438.08 106.81,438.08 106.81,520.33 "/><g class="Glass" id="Glass"><polygon points="130.81,520.33 130.81,438.08 106.81,438.08 106.81,520.33 "/></g><g class="Panel" id="Panel"><line x1="118.80999755859375" x2="118.80999755859375" y1="512.8300170898438" y2="445.5799865722656"/><line x1="130.80999755859375" x2="106.80999755859375" y1="512.8300170898438" y2="512.8300170898438"/><line x1="130.80999755859375" x2="106.80999755859375" y1="445.5799865722656" y2="445.5799865722656"/></g></g><g class="Window Regular" fill="#f0f0ff" id="Window" stroke="#000000" style="fill-opacity: 1; stroke-width: 1; stroke-opacity: 1;"><polygon points="130.81,370.25 130.81,104.02 106.81,104.02 106.81,370.25 "/><g class="Glass" id="Glass"><polygon points="130.81,370.25 130.81,104.02 106.81,104.02 106.81,370.25 "/></g><g class="Panel" id="Panel"><line x1="118.80999755859375" x2="118.80999755859375" y1="362.75" y2="111.5199966430664"/><line x1="130.80999755859375" x2="106.80999755859375" y1="362.75" y2="362.75"/><line x1="130.80999755859375" x2="106.80999755859375" y1="111.5199966430664" y2="111.5199966430664"/></g></g></g><g class="Wall" fill="#000000" id="Wall" stroke="#000000" style="fill-opacity: 1; stroke-opacity: 1; stroke-width: 1;"><polygon points="593.51,72.90 593.51,853.44 582.51,853.44 582.51,72.90 "/><g class="Door Swing Beside" fill="#ffffff" id="Door" stroke="#000000" style="fill-opacity: 1; stroke-width: 1; stroke-opacity: 1;"><polygon points="593.51,316.70 593.51,380.35 582.51,380.35 582.51,316.70 "/><g class="Panel Right Positive" fill="none" id="Panel" style=""><g class="PanelArea" fill="none" id="PanelArea" stroke="none" style=""><polygon points="593.51,316.70 593.51,380.35 582.51,380.35 582.51,316.70 "/></g><path d="M582.51,316.70 q-63.65,0.00 -63.65,63.65 l63.65,0.00Z"/></g></g><g class="Door Swing Beside" fill="#ffffff" id="Door" stroke="#000000" style="fill-opacity: 1; stroke-width: 1; stroke-opacity: 1;"><polygon points="593.51,509.74 593.51,557.08 582.51,557.08 582.51,509.74 "/><g class="Panel Right Negative" fill="none" id="Panel" style=""><g class="PanelArea" fill="none" id="PanelArea" stroke="none" style=""><polygon points="593.51,509.74 593.51,557.08 582.51,557.08 582.51,509.74 "/></g><path d="M593.51,557.08 q47.34,0.00 47.34,-47.34 l-47.34,0.00Z"/></g></g><g class="Door None Beside" fill="#ffffff" id="Door" stroke="#000000" style="fill-opacity: 1; stroke-width: 1; stroke-opacity: 1;"><polygon points="593.51,648.60 593.51,743.80 582.51,743.80 582.51,648.60 "/></g></g><g class="Wall" fill="#000000" id="Wall" stroke="#000000" style="fill-opacity: 1; stroke-opacity: 1; stroke-width: 1;"><polygon points="593.51,587.66 106.81,587.66 106.81,576.66 593.51,576.66 "/></g><g class="Wall" fill="#000000" id="Wall" stroke="#000000" style="fill-opacity: 1; stroke-opacity: 1; stroke-width: 1;"><polygon points="432.64,587.66 432.64,405.53 421.64,394.53 421.64,587.66 "/><g class="Door Swing Beside" fill="#ffffff" id="Door" stroke="#000000" style="fill-opacity: 1; stroke-width: 1; stroke-opacity: 1;"><polygon points="432.64,479.23 432.64,430.31 421.64,430.31 421.64,479.23 "/><g class="Panel Left Positive" fill="none" id="Panel" style=""><g class="PanelArea" fill="none" id="PanelArea" stroke="none" style=""><polygon points="432.64,479.23 432.64,430.31 421.64,430.31 421.64,479.23 "/></g><path d="M421.64,430.31 q-48.92,0.00 -48.92,48.92 l48.92,0.00Z"/></g></g></g><g class="Wall" fill="#000000" id="Wall" stroke="#000000" style="fill-opacity: 1; stroke-opacity: 1; stroke-width: 1;"><polygon points="432.64,394.53 106.81,394.53 106.81,405.53 432.64,405.53 "/><g class="Door Swing Beside" fill="#ffffff" id="Door" stroke="#000000" style="fill-opacity: 1; stroke-width: 1; stroke-opacity: 1;"><polygon points="371.82,394.53 320.80,394.53 320.80,405.53 371.82,405.53 "/><g class="Panel Left Negative" fill="none" id="Panel" style=""><g class="PanelArea" fill="none" id="PanelArea" stroke="none" style=""><polygon points="371.82,394.53 320.80,394.53 320.80,405.53 371.82,405.53 "/></g><path d="M371.82,394.53 q0.00,-51.02 -51.02,-51.02 l0.00,51.02Z"/></g></g></g><g class="Wall" fill="#000000" id="Wall" stroke="#000000" style="fill-opacity: 1; stroke-opacity: 1; stroke-width: 1;"><polygon points="421.64,394.53 593.51,394.53 593.51,405.53 432.64,405.53 "/></g><g class="Wall" fill="#000000" id="Wall" stroke="#000000" style="fill-opacity: 1; stroke-opacity: 1; stroke-width: 1;"><polygon points="746.99,453.50 708.97,453.50 708.97,464.50 746.99,464.50 "/></g><g class="Wall" fill="#000000" id="Wall" stroke="#000000" style="fill-opacity: 1; stroke-opacity: 1; stroke-width: 1;"><polygon points="1207.88,477.50 1373.91,477.50 1373.91,453.50 1207.88,453.50 "/></g><g class="Wall" fill="#000000" id="Wall" stroke="#000000" style="fill-opacity: 1; stroke-opacity: 1; stroke-width: 1;"><polygon points="1207.88,48.90 1373.91,48.90 1373.91,72.90 1207.88,72.90 "/></g><g class="Railing" fill="#ffffff" id="Railing" stroke="#000000" style="fill-opacity: 1; stroke-opacity: 1; stroke-width: 1;"><polygon points="1373.91,72.90 1373.91,453.50 1360.91,453.50 1360.91,72.90 "/></g><g class="FixedFurnitureSet" id="FixedFurnitureSet" style="" transform="matrix(-1,0,0,-1,305.4449,576.5832)"><g class="FixedFurniture BaseCabinet" fill="#ffffff" stroke="#000000" style="fill-opacity: 1; stroke-opacity: 1;" transform="matrix(1,0,0,1,0,0)">
<g class="BoundaryPolygon">
<polygon points="0.00,0.00 60.00,0.00 60.00,40.45 0.00,40.45 "/>
</g>
<g class="Direction" fill-opacity="0.9" style="display: none;">
<polygon fill="#444444" points="32.01,37.21 32.01,26.60 29.00,26.60 29.00,37.21 25.20,37.21 30.50,42.01 35.80,37.21 32.01,37.21 "/>
</g>
<g class="Name" fill-opacity="0.9" style="display: none;">

</g>
<desc>Width:60 Height:5 Depth:60 Elevation:105</desc>
</g><g class="FixedFurniture Sink" fill="#ffffff" stroke="#000000" style="fill-opacity: 1; stroke-opacity: 1;" transform="matrix(1,0,0,1,0,0)">
<g class="BoundaryPolygon" fill="none" stroke="none">
<polygon points="0.00,0.00 60.00,0.00 60.00,40.45 0.00,40.45 "/>
</g>
<g class="InnerPolygon">
<polygon points="5.00,9.70 55.00,9.70 55.00,36.88 5.00,36.88 "/>
</g>
<g class="OuterDrain" stroke-width="0.8">
<circle cx="30" cy="21.707807453240086" r="3.5"/>
</g>
<g class="InnerDrain" stroke-width="0.8">
<circle cx="30" cy="21.707807453240086" r="2"/>
</g>
<g class="Faucet">
<polygon points="27.00,3.37 33.00,3.37 33.00,17.37 27.00,17.37 "/>
</g>
<g class="Direction" fill-opacity="0.9" style="display: none;">
<polygon fill="#444444" points="32.01,37.21 32.01,26.60 29.00,26.60 29.00,37.21 25.20,37.21 30.50,42.01 35.80,37.21 32.01,37.21 "/>
</g>
<g class="Name" fill-opacity="0.9" style="display: none;">

</g>
<desc>Width:60 Height:90 Depth:60 Elevation:0</desc>
</g></g><g class="FixedFurniture Shower" fill="#ffffff" stroke="#000000" style="fill-opacity: 1; stroke-opacity: 1;" transform="matrix(0,-1,1,0,130.8139,550.5415)">
<g class="BoundaryPolygon" fill="none" stroke="none">
<polygon points="0,0 32,0 32,19 0,19"/>
</g>
<g class="InnerPolygon">
<rect height="6.1" width="11.2" x="3.7" y="0.5"/>
<rect height="6.1" width="11.2" x="17.6" y="0.5"/>
<rect height="6.1" width="3.4" x="28.7" y="0.5"/>
<rect height="6.1" width="3.2" x="0.5" y="0.5"/>
<path d="M14.9,8.5c0,1.5-0.4,3.3-1.6,5    c-0.4,0.6-1,1.1-1.1,1.7c-0.2,1.1,0.3,2.8,2.5,3.2c0.5,0.1,1.3,0.1,1.6,0.1h-0.1c0.3,0,1.1,0,1.6-0.1c2.2-0.4,2.7-2.1,2.5-3.2    c-0.1-0.6-0.7-1.1-1.1-1.7c-1.2-1.7-1.6-3.5-1.6-5"/>
<path d="M12.2,15.3c0.1,0.2,1.6,1.9,4.2,1.9 c2.4-0.1,3.7-1.7,3.9-1.9"/>
<path d="M14.9,0.5h2.7v8c-0.9,0-1.8,0-2.7,0l0,0 C14.9,5.9,14.9,3.2,14.9,0.5z"/>
</g>
<g class="Indicator">
<path d="M3.7,3.6C5,3.1,5.2,3,5.2,3 c0,1.1,0,0,0,1.1C5.2,4.1,5.1,4.1,3.7,3.6"/>
<path d="M28.7,3.6 C27.4,3.1,27.2,3,27.2,3c0,1.1,0,0,0,1.1C27.2,4.1,27.3,4.1,28.7,3.6"/>
</g>
<desc>Width:32 Height:97 Depth:19 Elevation:135</desc>
</g><g class="FixedFurniture Toilet" fill="#ffffff" stroke="#000000" style="fill-opacity: 1; stroke-opacity: 1;" transform="matrix(0,-1,1,0,432.6411,558.2333)">
<g class="BoundaryPolygon" fill="none" stroke="none">
<polygon points="0,0 41,0 41,71 0,71"/>
</g>
<g class="InnerPolygon">
<rect height="17.98" width="39.989" x="0.502" y="0.5"/>
<path d="M40.491,44.237S41.619,70.5,20.907,70.5C-.523,70.5.6,44.237.6,44.237L.5,18.48H40.491Z"/>
<rect height="3.03" width="6.357" x="17.318" y="7.975"/>
</g>
<desc>Width:41 Height:85 Depth:71 Elevation:0</desc>
</g><g class="FixedFurniture BaseCabinet" fill="#ffffff" stroke="#000000" style="fill-opacity: 1; stroke-opacity: 1;" transform="matrix(1,0,0,1,472.4158,405.6063)">
<g class="BoundaryPolygon">
<polygon points="0.00,0.00 110.09,0.00 110.09,38.72 0.00,38.72 "/>
</g>
<g class="Direction" fill-opacity="0.9" style="display: none;">
<polygon fill="#444444" points="58.73,35.62 58.73,25.01 55.72,25.01 55.72,35.62 51.92,35.62 57.22,40.43 62.53,35.62 58.73,35.62 "/>
</g>
<g class="Name" fill-opacity="0.9" style="display: none;">

</g>
<desc>Width:60 Height:90 Depth:60 Elevation:0</desc>
</g><g class="FixedFurniture Sink" fill="#ffffff" stroke="#000000" style="fill-opacity: 1; stroke-opacity: 1;" transform="matrix(1,0,0,1,501.4827,405.6064)">
<g class="BoundaryPolygon" fill="none" stroke="none">
<polygon points="0.00,0.00 56.55,0.00 56.55,36.56 0.00,36.56 "/>
</g>
<g class="InnerPolygon">
<polygon points="4.71,9.70 51.83,9.70 51.83,33.33 4.71,33.33 "/>
</g>
<g class="OuterDrain" stroke-width="0.8">
<circle cx="28.272694769779925" cy="19.62078491491442" r="3.5"/>
</g>
<g class="InnerDrain" stroke-width="0.8">
<circle cx="28.272694769779925" cy="19.62078491491442" r="2"/>
</g>
<g class="Faucet">
<polygon points="25.45,3.05 31.45,3.05 31.45,17.05 25.45,17.05 "/>
</g>
<g class="Direction" fill-opacity="0.9" style="display: none;">
<polygon fill="#444444" points="30.17,33.63 30.17,23.02 27.16,23.02 27.16,33.63 23.35,33.63 28.66,38.44 33.96,33.63 30.17,33.63 "/>
</g>
<g class="Name" fill-opacity="0.9" style="display: none;">

</g>
<desc>Width:60 Height:90 Depth:60 Elevation:0</desc>
</g><g class="FixedFurniture Closet" fill="#ffffff" stroke="#000000" style="fill-opacity: 1; stroke-opacity: 1;" transform="matrix(1,0,0,1,432.6411,405.5439)">
<g class="BoundaryPolygon">
<polygon points="0.00,0.00 39.52,0.00 39.52,23.61 0.00,23.61 "/>
</g>
<g class="Direction" fill-opacity="0.9" style="display: none;">
<polygon fill="#444444" points="20.76,21.52 20.76,10.91 17.75,10.91 17.75,21.52 13.94,21.52 19.25,26.83 24.55,21.52 20.76,21.52 "/>
</g>
<g class="Name" fill-opacity="0.9" style="display: none;">

</g>
<desc>Width:60 Height:200 Depth:60 Elevation:0</desc>
</g><g class="FixedFurniture Closet" fill="#ffffff" stroke="#000000" style="fill-opacity: 1; stroke-opacity: 1;" transform="matrix(0,1,-1,0,582.2871,72.8999)">
<g class="BoundaryPolygon">
<polygon points="0.00,0.00 230.04,0.00 230.04,60.00 0.00,60.00 "/>
</g>
<g class="Direction" fill-opacity="0.9" style="display: none;">
<polygon fill="#444444" points="117.91,54.52 117.91,43.90 114.90,43.90 114.90,54.52 111.10,54.52 116.40,59.82 121.71,54.52 117.91,54.52 "/>
</g>
<g class="Name" fill-opacity="0.9" style="display: none;">

</g>
<desc>Width:120 Height:200 Depth:60 Elevation:0</desc>
</g><g class="FixedFurniture ElectricalAppliance Refrigerator" fill="#ffffff" stroke="#000000" style="fill-opacity: 1; stroke-opacity: 1;" transform="matrix(1,0,0,1,522.5058,587.6612)">
<g class="BoundaryPolygon">
<polygon points="0,0 60,0 60,60 0,60"/>
</g>
<g class="electricitySign" fill="none">
<path d="M0,0,30,37.1v-18L60,56.3"/>
</g>
<g class="Doors">
<rect height="4" width="60" y="56"/>
</g>
<g class="Direction" fill-opacity="0.9" style="display: none;">
<polygon fill="#444444" points="32.009 55.197 32.009 44.581 29 44.581 29 55.197 25.197 55.197 30.5 60 35.803 55.197 32.009 55.197"/>
</g>
<g class="Name" fill-opacity="0.9" style="display: none;">

</g>
<desc>Width:60 Height:170 Depth:60 Elevation:0</desc>
</g><g class="FixedFurniture BaseCabinet" fill="#ffffff" stroke="#000000" style="fill-opacity: 1; stroke-opacity: 1;" transform="matrix(1,0,0,1,522.5058,647.6612)"><desc>Width:60 Height:90 Depth:60 Elevation:0</desc><g class="BoundaryPolygon"><polygon points="0.00,0.00 -338.58,0.00 -338.58,205.78 -391.69,205.78 -391.69,-60.00 0.00,-60.00 "/></g></g><g class="FixedFurniture ElectricalAppliance IntegratedStove" fill="#ffffff" stroke="#000000" style="fill-opacity: 1; stroke-opacity: 1;" transform="matrix(1,0,0,1,351.5004,587.6613)">
<g class="BoundaryPolygon" fill="none" stroke="none">
<polygon points="0 0 60 0 60 60 0 60"/>
</g>
<g class="InnerPolygon">
<polygon points="2,2 58,2 58,58 2,58"/>
</g>
<g class="OuterCircle">
<circle cx="16" cy="16" r="8"/>
<circle cx="44" cy="16" r="8"/>
<circle cx="16" cy="44" r="8"/>
<circle cx="44" cy="44" r="8"/>
</g>
<g class="Direction" fill-opacity="0.9" style="display: none;">
<polygon fill="#444444" points="32.009 55.197 32.009 44.581 29 44.581 29 55.197 25.197 55.197 30.5 60 35.803 55.197 32.009 55.197"/>
</g>
<g class="Name" fill-opacity="0.9" style="display: none;">

</g>
<desc>Width:60 Height:90 Depth:30 Elevation:0</desc>
</g><g class="FixedFurniture ElectricalAppliance Dishwasher" fill="#ffffff" stroke="#000000" style="fill-opacity: 1; stroke-opacity: 1;" transform="matrix(0.9136,0,0,1,296.6843,587.6613)">
<g class="BoundaryPolygon">
<polygon points="0,0 60,0 60,60 0,60"/>
</g>
<g class="electricitySign" fill="none">
<path d="M0,0,30,38.9v-20L60,60"/>
</g>
<g class="Handle">
<path d="M10,59.6H49.8"/>
</g>
<g class="Direction" fill-opacity="0.9" style="display: none;">
<polygon fill="#444444" points="32.009 55.197 32.009 44.581 29 44.581 29 55.197 25.197 55.197 30.5 60 35.803 55.197 32.009 55.197"/>
</g>
<g class="Name" fill-opacity="0.9" style="display: none;">

</g>
<desc>Width:60 Height:90 Depth:60 Elevation:0</desc>
</g><g class="FixedFurniture Sink" fill="#ffffff" stroke="#000000" style="fill-opacity: 1; stroke-opacity: 1;" transform="matrix(1,0,0,1,195.9818,587.6612)">
<g class="BoundaryPolygon" fill="none" stroke="none">
<polygon points="0.00,0.00 55.19,0.00 55.19,60.00 0.00,60.00 "/>
</g>
<g class="InnerPolygon">
<polygon points="4.60,9.70 50.59,9.70 50.59,54.70 4.60,54.70 "/>
</g>
<g class="OuterDrain" stroke-width="0.8">
<circle cx="27.59260391869896" cy="32.2" r="3.5"/>
</g>
<g class="InnerDrain" stroke-width="0.8">
<circle cx="27.59260391869896" cy="32.2" r="2"/>
</g>
<g class="Faucet">
<polygon points="24.83,5.00 30.83,5.00 30.83,19.00 24.83,19.00 "/>
</g>
<g class="Direction" fill-opacity="0.9" style="display: none;">
<polygon fill="#444444" points="29.44,55.20 29.44,44.58 26.43,44.58 26.43,55.20 22.63,55.20 27.93,60.00 33.23,55.20 29.44,55.20 "/>
</g>
<g class="Name" fill-opacity="0.9" style="display: none;">

</g>
<desc>Width:60 Height:90 Depth:60 Elevation:0</desc>
</g><g class="FixedFurniture CoatRack" fill="#ffffff" stroke="#000000" style="fill-opacity: 1; stroke-opacity: 1;" transform="matrix(0,1,-1,0,746.9119,668.856)">
<g class="BoundaryPolygon">
<polygon points="0.00,0.00 98.27,0.00 98.27,35.08 0.00,35.08 "/>
</g>
<g class="Bar" stroke-width="0.65">
<line x1="0" x2="98.27450014903334" y1="4.911028376442806" y2="4.911028376442806"/>
<line x1="0" x2="98.27450014903334" y1="9.2374105175948" y2="9.2374105175948"/>
<line x1="0" x2="98.27450014903334" y1="13.44686341168863" y2="13.44686341168863"/>
<line x1="0" x2="98.27450014903334" y1="17.5393870587243" y2="17.5393870587243"/>
<line x1="0" x2="98.27450014903334" y1="21.748839952818134" y2="21.748839952818134"/>
<line x1="0" x2="98.27450014903334" y1="25.958292846911966" y2="25.958292846911966"/>
<line x1="0" x2="98.27450014903334" y1="30.28467498806396" y2="30.28467498806396"/>
</g>
<g class="Direction" fill-opacity="0.9" style="display: none;">
<polygon fill="#444444" points="50.78,28.88 50.78,18.26 47.78,18.26 47.78,28.88 43.97,28.88 49.28,34.18 54.58,28.88 50.78,28.88 "/>
</g>
<g class="Name" fill-opacity="0.9" style="display: none;">

</g>
<desc>Width:90 Height:30 Depth:30 Elevation:160</desc>
</g><g class="FixedFurnitureSet" fill="#ffffff" id="FixedFurnitureSet" stroke="#000000" style="fill-opacity: 0.4; stroke-opacity: 0.4;" transform="matrix(0,1,-1,0,582.3694,747.3237)"><g class="FixedFurniture Closet" fill="#ffffff" stroke="#000000" style="fill-opacity: 1; stroke-opacity: 1;" transform="matrix(1,0,0,1,0,0)">
<g class="BoundaryPolygon">
<polygon points="0.00,0.00 53.06,0.00 53.06,51.92 0.00,51.92 "/>
</g>
<g class="Direction" fill-opacity="0.9" style="display: none;">
<polygon fill="#444444" points="27.86,47.33 27.86,36.71 24.85,36.71 24.85,47.33 21.05,47.33 26.35,52.63 31.66,47.33 27.86,47.33 "/>
</g>
<g class="Name" fill-opacity="0.9" style="display: none;">

</g>
<desc>Width:60 Height:200 Depth:60 Elevation:0</desc>
</g><g class="FixedFurniture Closet" fill="#ffffff" stroke="#000000" style="fill-opacity: 1; stroke-opacity: 1;" transform="matrix(1,0,0,1,53.0563,0)">
<g class="BoundaryPolygon">
<polygon points="0.00,0.00 53.06,0.00 53.06,51.92 0.00,51.92 "/>
</g>
<g class="Direction" fill-opacity="0.9" style="display: none;">
<polygon fill="#444444" points="27.86,47.33 27.86,36.71 24.85,36.71 24.85,47.33 21.05,47.33 26.35,52.63 31.66,47.33 27.86,47.33 "/>
</g>
<g class="Name" fill-opacity="0.9" style="display: none;">

</g>
<desc>Width:60 Height:200 Depth:60 Elevation:0</desc>
</g></g></g></g></g></svg>