<?xml version="1.0" encoding="utf-8"?>
<svg height="988.4800567626953" id="temp" version="1.1" viewBox="0 0 1373.9099884033203 988.4800567626953" width="1373.9099884033203" xmlns="http://www.w3.org/2000/svg" xmlns:xlink="http://www.w3.org/1999/xlink"><defs/><g class="Model v1-1" id="Model"><g class="Floor"><g class="Floorplan Floor-1" id="Floor-1" transform="matrix(1,0,0,1,0,0)"><g class="Space Closet WalkIn" fill="#ffffff" id="a129726b-2da0-4cca-b166-4335f80d571a" stroke="#ffffff" style="fill-opacity: 1; stroke-opacity: 1; stroke-width: 1;"><polygon points="551.61,884.58 467.55,884.58 467.55,704.65 551.61,704.65 "/><g class="Dimension" transform="matrix(1,0,0,1,467.5511,704.6452)"><g class="Visual" style="display: none;" transform="matrix(1,0,0,1,0,0)"><g class="DimensionMark" fill="#000000" id="mark1" stroke="none" style="fill-opacity: 1; pointer-events: visible;" transform="matrix(1,0,0,1,42.0303,0)"><polygon points="-5,5,0,0,5,5"/></g><g class="DimensionMark" fill="#000000" id="mark2" stroke="none" style="fill-opacity: 1; pointer-events: visible;" transform="matrix(1,0,0,1,84.0606,89.9681)"><polygon points="-5,-5,0,0,-5,5"/></g><g class="DimensionMark" fill="#000000" id="mark3" stroke="none" style="fill-opacity: 1; pointer-events: visible;" transform="matrix(1,0,0,1,42.0303,179.9361)"><polygon points="-5,-5,0,0,5,-5"/></g><g class="DimensionMark" fill="#000000" id="mark4" stroke="none" style="fill-opacity: 1; pointer-events: visible;" transform="matrix(1,0,0,1,0,89.9681)"><polygon points="5,5,0,0,5,-5"/></g></g><g class="SpaceDimensionsLabel" transform="matrix(1,0,0,1,14.2547,96.5131)"><g class="TextLabel NameLabel" id="NameLabel" style="display: none;"/><g class="TextLabel DimensionMeasureLabel" id="DimensionMeasureLabel" style="display: none;" transform="matrix(1,0,0,1,-116.3359,79.5938)"/></g></g></g><g class="Space Bath" fill="#ffffff" id="873b2798-a69e-4ecb-9466-82a07bba1c2d" stroke="#ffffff" style="fill-opacity: 1; stroke-opacity: 1; stroke-width: 1;"><polygon points="713.29,365.87 467.55,365.87 467.55,149.17 713.29,149.17 "/><g class="Dimension" transform="matrix(1,0,0,1,467.5511,149.1656)"><g class="Visual" style="display: none;" transform="matrix(1,0,0,1,0,0)"><g class="DimensionMark" fill="#000000" id="mark1" stroke="none" style="fill-opacity: 1; pointer-events: visible;" transform="matrix(1,0,0,1,122.8701,0)"><polygon points="-5,5,0,0,5,5"/></g><g class="DimensionMark" fill="#000000" id="mark2" stroke="none" style="fill-opacity: 1; pointer-events: visible;" transform="matrix(1,0,0,1,245.7403,108.3528)"><polygon points="-5,-5,0,0,-5,5"/></g><g class="DimensionMark" fill="#000000" id="mark3" stroke="none" style="fill-opacity: 1; pointer-events: visible;" transform="matrix(1,0,0,1,122.8701,216.7055)"><polygon points="-5,-5,0,0,5,-5"/></g><g class="DimensionMark" fill="#000000" id="mark4" stroke="none" style="fill-opacity: 1; pointer-events: visible;" transform="matrix(1,0,0,1,0,108.3528)"><polygon points="5,5,0,0,5,-5"/></g></g><g class="SpaceDimensionsLabel" transform="matrix(1,0,0,1,85.48,127.582)"><g class="TextLabel NameLabel" id="NameLabel" style="display: none;"/><g class="TextLabel DimensionMeasureLabel" id="DimensionMeasureLabel" style="display: none;" transform="matrix(1,0,0,1,-106.2266,79.5938)"/></g></g></g><g class="Space Bedroom" fill="#ffffff" id="59552afc-1626-4fb4-a992-8b1fb1ca7f70" stroke="#ffffff" style="fill-opacity: 1; stroke-opacity: 1; stroke-width: 1;"><polygon points="456.55,884.58 143.17,884.58 143.17,522.70 456.55,522.70 "/><g class="Dimension" transform="matrix(1,0,0,1,143.1685,522.7007)"><g class="Visual" style="display: none;" transform="matrix(1,0,0,1,0,0)"><g class="DimensionMark" fill="#000000" id="mark1" stroke="none" style="fill-opacity: 1; pointer-events: visible;" transform="matrix(1,0,0,1,156.6913,0)"><polygon points="-5,5,0,0,5,5"/></g><g class="DimensionMark" fill="#000000" id="mark2" stroke="none" style="fill-opacity: 1; pointer-events: visible;" transform="matrix(1,0,0,1,313.3826,180.9403)"><polygon points="-5,-5,0,0,-5,5"/></g><g class="DimensionMark" fill="#000000" id="mark3" stroke="none" style="fill-opacity: 1; pointer-events: visible;" transform="matrix(1,0,0,1,156.6913,361.8806)"><polygon points="-5,-5,0,0,5,-5"/></g><g class="DimensionMark" fill="#000000" id="mark4" stroke="none" style="fill-opacity: 1; pointer-events: visible;" transform="matrix(1,0,0,1,0,180.9403)"><polygon points="5,5,0,0,5,-5"/></g></g><g class="SpaceDimensionsLabel" transform="matrix(1,0,0,1,127.8474,182.3303)"><g class="TextLabel NameLabel" id="NameLabel" style="display: none;"/><g class="TextLabel DimensionMeasureLabel" id="DimensionMeasureLabel" style="display: none;" transform="matrix(1,0,0,1,-113.7031,79.5938)"/></g></g></g><g class="Space Kitchen" fill="#ffffff" id="b92f1f56-5e02-4a67-8f96-c84898bf422f" stroke="#ffffff" style="fill-opacity: 1; stroke-opacity: 1; stroke-width: 1;"><polygon points="456.55,511.70 143.17,511.70 143.17,149.17 456.55,149.17 "/><g class="Dimension" transform="matrix(1,0,0,1,143.1685,149.1656)"><g class="Visual" style="display: none;" transform="matrix(1,0,0,1,0,0)"><g class="DimensionMark" fill="#000000" id="mark1" stroke="none" style="fill-opacity: 1; pointer-events: visible;" transform="matrix(1,0,0,1,156.6913,0)"><polygon points="-5,5,0,0,5,5"/></g><g class="DimensionMark" fill="#000000" id="mark2" stroke="none" style="fill-opacity: 1; pointer-events: visible;" transform="matrix(1,0,0,1,313.3826,181.2676)"><polygon points="-5,-5,0,0,-5,5"/></g><g class="DimensionMark" fill="#000000" id="mark3" stroke="none" style="fill-opacity: 1; pointer-events: visible;" transform="matrix(1,0,0,1,156.6913,362.5351)"><polygon points="-5,-5,0,0,5,-5"/></g><g class="DimensionMark" fill="#000000" id="mark4" stroke="none" style="fill-opacity: 1; pointer-events: visible;" transform="matrix(1,0,0,1,0,181.2676)"><polygon points="5,5,0,0,5,-5"/></g></g><g class="SpaceDimensionsLabel" transform="matrix(1,0,0,1,152.4181,210.1114)"><g class="TextLabel NameLabel" id="NameLabel" style="display: none;"/><g class="TextLabel DimensionMeasureLabel" id="DimensionMeasureLabel" style="display: none;" transform="matrix(1,0,0,1,-128.5078,79.5938)"/></g></g></g><g class="Space LivingRoom" fill="#ffffff" id="8b1232c0-6cc8-485d-9da4-18b5df3c4e1f" stroke="#ffffff" style="fill-opacity: 1; stroke-opacity: 1; stroke-width: 1;"><polygon points="1206.67,515.19 724.29,515.19 724.29,149.17 1206.67,149.17 "/><g class="Dimension" transform="matrix(1,0,0,1,724.2914,149.1656)"><g class="Visual" style="display: none;" transform="matrix(1,0,0,1,0,0)"><g class="DimensionMark" fill="#000000" id="mark1" stroke="none" style="fill-opacity: 1; pointer-events: visible;" transform="matrix(1,0,0,1,241.1889,0)"><polygon points="-5,5,0,0,5,5"/></g><g class="DimensionMark" fill="#000000" id="mark2" stroke="none" style="fill-opacity: 1; pointer-events: visible;" transform="matrix(1,0,0,1,482.3777,183.0116)"><polygon points="-5,-5,0,0,-5,5"/></g><g class="DimensionMark" fill="#000000" id="mark3" stroke="none" style="fill-opacity: 1; pointer-events: visible;" transform="matrix(1,0,0,1,241.1889,366.0232)"><polygon points="-5,-5,0,0,5,-5"/></g><g class="DimensionMark" fill="#000000" id="mark4" stroke="none" style="fill-opacity: 1; pointer-events: visible;" transform="matrix(1,0,0,1,0,183.0116)"><polygon points="5,5,0,0,5,-5"/></g></g><g class="SpaceDimensionsLabel" transform="matrix(1,0,0,1,236.4261,184.0799)"><g class="TextLabel NameLabel" id="NameLabel" style="display: none;"/><g class="TextLabel DimensionMeasureLabel" id="DimensionMeasureLabel" style="display: none;" transform="matrix(1,0,0,1,-114.625,79.5938)"/></g></g></g><g class="Space Outdoor" fill="#ffffff" id="6a1b46ee-dbb0-410a-86f6-cd55a62ef2dd" stroke="#000000" style="stroke-width: 1; fill-opacity: 1; stroke-opacity: 1;"><polygon points="1231.67,137.17 1367.91,137.17 1367.91,528.19 1231.67,528.19 1231.67,137.17 1231.67,137.17 "/><g class="Dimension" transform="matrix(1,0,0,1,1231.6691,137.1656)"><g class="Visual" style="display: none;" transform="matrix(1,0,0,1,0,0)"><g class="DimensionMark" fill="#000000" id="mark1" stroke="none" style="fill-opacity: 1; pointer-events: visible;" transform="matrix(1,0,0,1,68.1194,0)"><polygon points="-5,5,0,0,5,5"/></g><g class="DimensionMark" fill="#000000" id="mark2" stroke="none" style="fill-opacity: 1; pointer-events: visible;" transform="matrix(1,0,0,1,136.2387,195.5116)"><polygon points="-5,-5,0,0,-5,5"/></g><g class="DimensionMark" fill="#000000" id="mark3" stroke="none" style="fill-opacity: 1; pointer-events: visible;" transform="matrix(1,0,0,1,68.1194,391.0232)"><polygon points="-5,-5,0,0,5,-5"/></g><g class="DimensionMark" fill="#000000" id="mark4" stroke="none" style="fill-opacity: 1; pointer-events: visible;" transform="matrix(1,0,0,1,0,195.5116)"><polygon points="5,5,0,0,5,-5"/></g></g><g class="SpaceDimensionsLabel" transform="matrix(1,0,0,1,68.1193,68.1194)"><g class="TextLabel NameLabel" id="NameLabel" style="display: none;"/><g class="TextLabel DimensionMeasureLabel" id="DimensionMeasureLabel" style="display: none;" transform="matrix(1,0,0,1,-56.5313,79.5938)"/></g></g></g><g class="Space Entry Lobby" fill="#ffffff" id="401a4954-85bf-4c10-9770-5652a04a5d9b" stroke="#ffffff" style="fill-opacity: 1; stroke-opacity: 1; stroke-width: 1;"><polygon points="660.70,645.33 713.29,645.33 713.29,884.58 562.61,884.58 562.61,634.93 660.70,634.93 "/><g class="Dimension" transform="matrix(1,0,0,1,562.6117,634.9309)"><g class="Visual" style="display: none;" transform="matrix(1,0,0,1,0,0)"><g class="DimensionMark" fill="#000000" id="mark1" stroke="none" style="fill-opacity: 1; pointer-events: visible;" transform="matrix(1,0,0,1,75.3398,0)"><polygon points="-5,5,0,0,5,5"/></g><g class="DimensionMark" fill="#000000" id="mark2" stroke="none" style="fill-opacity: 1; pointer-events: visible;" transform="matrix(1,0,0,1,150.6796,124.8252)"><polygon points="-5,-5,0,0,-5,5"/></g><g class="DimensionMark" fill="#000000" id="mark3" stroke="none" style="fill-opacity: 1; pointer-events: visible;" transform="matrix(1,0,0,1,75.3398,249.6504)"><polygon points="-5,-5,0,0,5,-5"/></g><g class="DimensionMark" fill="#000000" id="mark4" stroke="none" style="fill-opacity: 1; pointer-events: visible;" transform="matrix(1,0,0,1,0,124.8252)"><polygon points="5,5,0,0,5,-5"/></g></g><g class="SpaceDimensionsLabel" transform="matrix(1,0,0,1,58.7269,111.5443)"><g class="TextLabel NameLabel" id="NameLabel" style="display: none;"/><g class="TextLabel DimensionMeasureLabel" id="DimensionMeasureLabel" style="display: none;" transform="matrix(1,0,0,1,-119.0781,79.5938)"/></g></g></g><g class="Space Hall" fill="#ffffff" id="20f47bad-b152-4ca6-bacd-551d4b67ca76" stroke="#ffffff" style="fill-opacity: 1; stroke-opacity: 1; stroke-width: 1;"><polygon points="713.29,634.33 660.70,634.33 660.70,634.93 562.61,634.93 562.61,634.33 551.61,634.33 551.61,692.37 467.55,692.37 467.55,376.87 713.29,376.87 "/><g class="Dimension" transform="matrix(1,0,0,1,467.5511,376.8711)"><g class="Visual" style="display: none;" transform="matrix(1,0,0,1,0,0)"><g class="DimensionMark" fill="#000000" id="mark1" stroke="none" style="fill-opacity: 1; pointer-events: visible;" transform="matrix(1,0,0,1,84.0606,0)"><polygon points="-5,5,0,0,5,5"/></g><g class="DimensionMark" fill="#000000" id="mark2" stroke="none" style="fill-opacity: 1; pointer-events: visible;" transform="matrix(1,0,0,1,245.7403,157.7477)"><polygon points="-5,-5,0,0,-5,5"/></g><g class="DimensionMark" fill="#000000" id="mark3" stroke="none" style="fill-opacity: 1; pointer-events: visible;" transform="matrix(1,0,0,1,84.0606,315.4954)"><polygon points="-5,-5,0,0,5,-5"/></g><g class="DimensionMark" fill="#000000" id="mark4" stroke="none" style="fill-opacity: 1; pointer-events: visible;" transform="matrix(1,0,0,1,0,157.7477)"><polygon points="5,5,0,0,5,-5"/></g></g><g class="SpaceDimensionsLabel" transform="matrix(1,0,0,1,75.8654,153.8506)"><g class="TextLabel NameLabel" id="NameLabel" style="display: none;"/><g class="TextLabel DimensionMeasureLabel" id="DimensionMeasureLabel" style="display: none;" transform="matrix(1,0,0,1,-91.0156,79.5938)"/></g></g></g><g class="Wall External" fill="#000000" id="Wall" stroke="#000000" style="fill-opacity: 1; stroke-opacity: 1; stroke-width: 1;"><polygon points="143.17,149.17 1206.67,149.17 1231.67,124.17 117.17,124.17 "/></g><g class="Wall External" fill="#000000" id="Wall" stroke="#000000" style="fill-opacity: 1; stroke-opacity: 1; stroke-width: 1;"><polygon points="1231.67,124.17 1231.67,539.19 1206.67,515.19 1206.67,149.17 "/><g class="Door Swing Opposite" fill="#ffffff" id="Door" stroke="#000000" style="fill-opacity: 1; stroke-width: 1; stroke-opacity: 1;"><polygon points="1231.67,425.63 1231.67,501.68 1206.67,501.68 1206.67,425.63 "/><g class="Panel Left Negative" fill="none" id="Panel" style=""><g class="PanelArea" fill="none" id="PanelArea" stroke="none" style=""><polygon points="1231.67,425.63 1231.67,501.68 1206.67,501.68 1206.67,425.63 "/></g><path d="M1231.67,425.63 q76.05,0.00 76.05,76.05 l-76.05,0.00Z"/></g><g class="Panel Right Positive" fill="none" id="Panel" style=""><g class="PanelArea" fill="none" id="PanelArea" stroke="none" style=""><polygon points="1231.67,425.63 1231.67,501.68 1206.67,501.68 1206.67,425.63 "/></g><path d="M1206.67,425.63 q-76.05,0.00 -76.05,76.05 l76.05,0.00Z"/></g></g><g class="Window Regular" fill="#f0f0ff" id="Window" stroke="#000000" style="fill-opacity: 1; stroke-width: 1; stroke-opacity: 1;"><polygon points="1231.67,158.59 1231.67,419.48 1206.67,419.48 1206.67,158.59 "/><g class="Glass" id="Glass"><polygon points="1231.67,158.59 1231.67,419.48 1206.67,419.48 1206.67,158.59 "/></g><g class="Panel" id="Panel"><line x1="1219.1700439453125" x2="1219.1700439453125" y1="166.08999633789062" y2="411.9800109863281"/><line x1="1231.6700439453125" x2="1206.6700439453125" y1="166.08999633789062" y2="166.08999633789062"/><line x1="1231.6700439453125" x2="1206.6700439453125" y1="411.9800109863281" y2="411.9800109863281"/></g></g></g><g class="Wall External" fill="#000000" id="Wall" stroke="#000000" style="fill-opacity: 1; stroke-opacity: 1; stroke-width: 1;"><polygon points="1231.67,539.19 736.29,539.19 713.29,515.19 1206.67,515.19 "/></g><g class="Wall External" fill="#000000" id="Wall" stroke="#000000" style="fill-opacity: 1; stroke-opacity: 1; stroke-width: 1;"><polygon points="736.29,539.19 736.29,907.58 713.29,884.58 713.29,515.19 "/></g><g class="Wall External" fill="#000000" id="Wall" stroke="#000000" style="fill-opacity: 1; stroke-opacity: 1; stroke-width: 1;"><polygon points="736.29,907.58 117.17,907.58 143.17,884.58 713.29,884.58 "/><g class="Door Swing Opposite" fill="#ffffff" id="Door" stroke="#000000" style="fill-opacity: 1; stroke-width: 1; stroke-opacity: 1;"><polygon points="650.97,907.58 570.07,907.58 570.07,884.58 650.97,884.58 "/><g class="Panel Right Negative" fill="none" id="Panel" style=""><g class="PanelArea" fill="none" id="PanelArea" stroke="none" style=""><polygon points="650.97,907.58 570.07,907.58 570.07,884.58 650.97,884.58 "/></g><path d="M570.07,907.58 q0.00,80.90 80.90,80.90 l0.00,-80.90Z"/></g><g class="Panel Left Positive" fill="none" id="Panel" style=""><g class="PanelArea" fill="none" id="PanelArea" stroke="none" style=""><polygon points="650.97,907.58 570.07,907.58 570.07,884.58 650.97,884.58 "/></g><path d="M570.07,884.58 q0.00,-80.90 80.90,-80.90 l0.00,80.90Z"/></g></g></g><g class="Wall External" fill="#000000" id="Wall" stroke="#000000" style="fill-opacity: 1; stroke-opacity: 1; stroke-width: 1;"><polygon points="143.17,884.58 143.17,149.17 117.17,124.17 117.17,907.58 "/><g class="Window Regular" fill="#f0f0ff" id="Window" stroke="#000000" style="fill-opacity: 1; stroke-width: 1; stroke-opacity: 1;"><polygon points="143.17,797.96 143.17,572.09 117.17,572.09 117.17,797.96 "/><g class="Glass" id="Glass"><polygon points="143.17,797.96 143.17,572.09 117.17,572.09 117.17,797.96 "/></g><g class="Panel" id="Panel"><line x1="130.1699981689453" x2="130.1699981689453" y1="790.4600219726562" y2="579.5900268554688"/><line x1="143.1699981689453" x2="117.16999816894531" y1="790.4600219726562" y2="790.4600219726562"/><line x1="143.1699981689453" x2="117.16999816894531" y1="579.5900268554688" y2="579.5900268554688"/></g></g><g class="Window Regular" fill="#f0f0ff" id="Window" stroke="#000000" style="fill-opacity: 1; stroke-width: 1; stroke-opacity: 1;"><polygon points="143.17,446.70 143.17,250.89 117.17,250.89 117.17,446.70 "/><g class="Glass" id="Glass"><polygon points="143.17,446.70 143.17,250.89 117.17,250.89 117.17,446.70 "/></g><g class="Panel" id="Panel"><line x1="130.1699981689453" x2="130.1699981689453" y1="439.20001220703125" y2="258.38999938964844"/><line x1="143.1699981689453" x2="117.16999816894531" y1="439.20001220703125" y2="439.20001220703125"/><line x1="143.1699981689453" x2="117.16999816894531" y1="258.38999938964844" y2="258.38999938964844"/></g></g></g><g class="Wall" fill="#000000" id="Wall" stroke="#000000" style="fill-opacity: 1; stroke-opacity: 1; stroke-width: 1;"><polygon points="713.29,515.19 713.29,124.17 724.29,124.17 724.29,515.19 "/><g class="Door Swing Beside" fill="#ffffff" id="Door" stroke="#000000" style="fill-opacity: 1; stroke-width: 1; stroke-opacity: 1;"><polygon points="713.29,459.11 713.29,387.07 724.29,387.07 724.29,459.11 "/><g class="Panel Left Negative" fill="none" id="Panel" style=""><g class="PanelArea" fill="none" id="PanelArea" stroke="none" style=""><polygon points="713.29,459.11 713.29,387.07 724.29,387.07 724.29,459.11 "/></g><path d="M713.29,459.11 q-72.04,0.00 -72.04,-72.04 l72.04,0.00Z"/></g></g></g><g class="Wall" fill="#000000" id="Wall" stroke="#000000" style="fill-opacity: 1; stroke-opacity: 1; stroke-width: 1;"><polygon points="456.55,907.58 456.55,124.17 467.55,124.17 467.55,907.58 "/><g class="Door Swing Beside" fill="#ffffff" id="Door" stroke="#000000" style="fill-opacity: 1; stroke-width: 1; stroke-opacity: 1;"><polygon points="456.55,602.92 456.55,531.51 467.55,531.51 467.55,602.92 "/><g class="Panel Left Negative" fill="none" id="Panel" style=""><g class="PanelArea" fill="none" id="PanelArea" stroke="none" style=""><polygon points="456.55,602.92 456.55,531.51 467.55,531.51 467.55,602.92 "/></g><path d="M456.55,602.92 q-71.41,0.00 -71.41,-71.41 l71.41,0.00Z"/></g></g><g class="Door Swing Beside" fill="#ffffff" id="Door" stroke="#000000" style="fill-opacity: 1; stroke-width: 1; stroke-opacity: 1;"><polygon points="456.55,445.39 456.55,382.12 467.55,382.12 467.55,445.39 "/><g class="Panel Right Positive" fill="none" id="Panel" style=""><g class="PanelArea" fill="none" id="PanelArea" stroke="none" style=""><polygon points="456.55,445.39 456.55,382.12 467.55,382.12 467.55,445.39 "/></g><path d="M467.55,445.39 q63.27,0.00 63.27,-63.27 l-63.27,0.00Z"/></g></g></g><g class="Wall" fill="#000000" id="Wall" stroke="#000000" style="fill-opacity: 1; stroke-opacity: 1; stroke-width: 1;"><polygon points="456.55,365.87 724.29,365.87 724.29,376.87 456.55,376.87 "/><g class="Door Swing Beside" fill="#ffffff" id="Door" stroke="#000000" style="fill-opacity: 1; stroke-width: 1; stroke-opacity: 1;"><polygon points="536.74,365.87 608.77,365.87 608.77,376.87 536.74,376.87 "/><g class="Panel Left Positive" fill="none" id="Panel" style=""><g class="PanelArea" fill="none" id="PanelArea" stroke="none" style=""><polygon points="536.74,365.87 608.77,365.87 608.77,376.87 536.74,376.87 "/></g><path d="M608.77,376.87 q0.00,72.03 -72.03,72.03 l0.00,-72.03Z"/></g></g></g><g class="Wall" fill="#000000" id="Wall" stroke="#000000" style="fill-opacity: 1; stroke-opacity: 1; stroke-width: 1;"><polygon points="467.55,511.70 117.17,511.70 117.17,522.70 467.55,522.70 "/></g><g class="Wall" fill="#000000" id="Wall" stroke="#000000" style="fill-opacity: 1; stroke-opacity: 1; stroke-width: 1;"><polygon points="562.61,907.58 562.61,634.33 551.61,634.33 551.61,907.58 "/><g class="Door Swing Beside" fill="#ffffff" id="Door" stroke="#000000" style="fill-opacity: 1; stroke-width: 1; stroke-opacity: 1;"><polygon points="562.61,814.59 562.61,758.41 551.61,758.41 551.61,814.59 "/><g class="Panel Right Negative" fill="none" id="Panel" style=""><g class="PanelArea" fill="none" id="PanelArea" stroke="none" style=""><polygon points="562.61,814.59 562.61,758.41 551.61,758.41 551.61,814.59 "/></g><path d="M562.61,758.41 q56.18,0.00 56.18,56.18 l-56.18,0.00Z"/></g></g></g><g class="Wall" fill="#000000" id="Wall" stroke="#000000" style="fill-opacity: 1; stroke-opacity: 1; stroke-width: 1;"><polygon points="660.70,634.33 736.29,634.33 736.29,645.33 660.70,645.33 "/></g><g class="Wall" fill="#000000" id="Wall" stroke="#000000" style="fill-opacity: 1; stroke-opacity: 1; stroke-width: 1;"><polygon points="456.55,704.65 562.61,704.65 562.61,692.38 456.55,692.38 "/></g><g class="Wall" fill="#000000" id="Wall" stroke="#000000" style="fill-opacity: 1; stroke-opacity: 1; stroke-width: 1;"><polygon points="1231.67,539.19 1373.91,539.19 1373.91,528.19 1231.67,528.19 "/></g><g class="Wall" fill="#000000" id="Wall" stroke="#000000" style="fill-opacity: 1; stroke-opacity: 1; stroke-width: 1;"><polygon points="1231.67,124.17 1373.91,124.17 1373.91,137.17 1231.67,137.17 "/></g><g class="Railing" fill="#ffffff" id="Railing" stroke="#000000" style="fill-opacity: 1; stroke-opacity: 1; stroke-width: 1;"><polygon points="1373.91,137.17 1373.91,528.19 1367.91,528.19 1367.91,137.17 "/></g><g class="Column Rectangle" fill="#000000" id="Column" stroke="none" style="fill-opacity: 1;"><polygon points="551.61,884.58 467.55,884.58 467.55,860.07 551.61,860.07 "/></g><g class="Column Rectangle" fill="#000000" id="Column" stroke="none" style="fill-opacity: 1;"><polygon points="467.69,149.18 467.69,209.20 520.94,209.20 520.94,149.18 "/></g><g class="FixedFurnitureSet" id="FixedFurnitureSet" transform="matrix(-1,0,0,-1,551.6117,692.3666)"><g class="FixedFurniture Closet" fill="#ffffff" stroke="#000000" style="fill-opacity: 1; stroke-opacity: 1;" transform="matrix(1,0,0,1,0,0)">
<g class="BoundaryPolygon">
<polygon points="0.00,0.00 41.97,0.00 41.97,57.17 0.00,57.17 "/>
</g>
<g class="Direction" fill-opacity="0.9" style="display: none;">
<polygon fill="#444444" points="22.04,52.12 22.04,41.51 19.03,41.51 19.03,52.12 15.23,52.12 20.53,57.42 25.84,52.12 22.04,52.12 "/>
</g>
<g class="Name" fill-opacity="0.9" style="display: none;">

</g>
<desc>Width:60 Height:200 Depth:60 Elevation:0</desc>
</g><g class="FixedFurniture Closet" fill="#ffffff" stroke="#000000" style="fill-opacity: 1; stroke-opacity: 1;" transform="matrix(1,0,0,1,41.9715,0)">
<g class="BoundaryPolygon">
<polygon points="0.00,0.00 41.97,0.00 41.97,57.17 0.00,57.17 "/>
</g>
<g class="Direction" fill-opacity="0.9" style="display: none;">
<polygon fill="#444444" points="22.04,52.12 22.04,41.51 19.03,41.51 19.03,52.12 15.23,52.12 20.53,57.42 25.84,52.12 22.04,52.12 "/>
</g>
<g class="Name" fill-opacity="0.9" style="display: none;">

</g>
<desc>Width:60 Height:200 Depth:60 Elevation:0</desc>
</g></g><g class="FixedFurniture CoatCloset" fill="#ffffff" stroke="#000000" style="fill-opacity: 1; stroke-opacity: 1;" transform="matrix(1,0,0,1,467.5511,704.7702)">
<g class="BoundaryPolygon">
<polygon points="0.00,0.00 83.85,0.00 83.85,48.41 0.00,48.41 "/>
</g>

<g class="Direction" fill-opacity="0.9" style="display: none;">
<polygon fill="#444444" points="42.98,43.99 42.98,33.37 39.97,33.37 39.97,43.99 36.17,43.99 41.47,49.29 46.77,43.99 42.98,43.99 "/>
</g>
<g class="Name" fill-opacity="0.9" style="display: none;">

</g>
<desc>Width:120 Height:200 Depth:60 Elevation:0</desc>
</g><g class="FixedFurniture Closet" fill="#ffffff" stroke="#000000" style="fill-opacity: 1; stroke-opacity: 1;" transform="matrix(-1,0,0,-1,551.4711,859.9137)">
<g class="BoundaryPolygon">
<polygon points="0.00,0.00 83.92,0.00 83.92,34.73 0.00,34.73 "/>
</g>
<g class="Direction" fill-opacity="0.9" style="display: none;">
<polygon fill="#444444" points="44.07,31.66 44.07,21.04 41.06,21.04 41.06,31.66 37.26,31.66 42.56,36.96 47.86,31.66 44.07,31.66 "/>
</g>
<g class="Name" fill-opacity="0.9" style="display: none;">

</g>
<desc>Width:60 Height:200 Depth:60 Elevation:0</desc>
</g><g class="FixedFurniture Closet" fill="#ffffff" stroke="#000000" style="fill-opacity: 1; stroke-opacity: 1;" transform="matrix(0,-1,1,0,467.6917,365.8712)">
<g class="BoundaryPolygon">
<polygon points="0.00,0.00 60.00,0.00 60.00,53.58 0.00,53.58 "/>
</g>
<g class="Direction" fill-opacity="0.9" style="display: none;">
<polygon fill="#444444" points="31.51,48.85 31.51,38.23 28.50,38.23 28.50,48.85 24.70,48.85 30.00,54.15 35.30,48.85 31.51,48.85 "/>
</g>
<g class="Name" fill-opacity="0.9" style="display: none;">

</g>
<desc>Width:60 Height:200 Depth:60 Elevation:0</desc>
</g><g class="FixedFurniture Toilet" fill="#ffffff" stroke="#000000" style="fill-opacity: 1; stroke-opacity: 1;" transform="matrix(0,1,-1,0,713.2913,303.5147)">
<g class="BoundaryPolygon" fill="none" stroke="none">
<polygon points="0,0 41,0 41,71 0,71"/>
</g>
<g class="InnerPolygon">
<rect height="17.98" width="39.989" x="0.502" y="0.5"/>
<path d="M40.491,44.237S41.619,70.5,20.907,70.5C-.523,70.5.6,44.237.6,44.237L.5,18.48H40.491Z"/>
<rect height="3.03" width="6.357" x="17.318" y="7.975"/>
</g>
<desc>Width:41 Height:85 Depth:71 Elevation:0</desc>
</g><g class="FixedFurniture BaseCabinet" fill="#ffffff" stroke="#000000" style="fill-opacity: 1; stroke-opacity: 1;" transform="matrix(1,0,0,1,520.936,149.1656)">
<g class="BoundaryPolygon">
<polygon points="0.00,0.00 106.09,0.00 106.09,46.74 0.00,46.74 "/>
</g>
<g class="Direction" fill-opacity="0.9" style="display: none;">
<polygon fill="#444444" points="56.60,43.00 56.60,32.38 53.59,32.38 53.59,43.00 49.78,43.00 55.09,47.80 60.39,43.00 56.60,43.00 "/>
</g>
<g class="Name" fill-opacity="0.9" style="display: none;">

</g>
<desc>Width:60 Height:90 Depth:60 Elevation:0</desc>
</g><g class="FixedFurniture Sink" fill="#ffffff" stroke="#000000" style="fill-opacity: 1; stroke-opacity: 1;" transform="matrix(1,0,0,1,551.6505,147.9224)">
<g class="BoundaryPolygon" fill="none" stroke="none">
<polygon points="0.00,0.00 64.66,0.00 64.66,47.98 0.00,47.98 "/>
</g>
<g class="InnerPolygon">
<polygon points="5.39,9.70 59.27,9.70 59.27,43.74 5.39,43.74 "/>
</g>
<g class="OuterDrain" stroke-width="0.8">
<circle cx="32.32909968915525" cy="25.749597437535265" r="3.5"/>
</g>
<g class="InnerDrain" stroke-width="0.8">
<circle cx="32.32909968915525" cy="25.749597437535265" r="2"/>
</g>
<g class="Faucet">
<polygon points="29.10,4.00 35.10,4.00 35.10,18.00 29.10,18.00 "/>
</g>
<g class="Direction" fill-opacity="0.9" style="display: none;">
<polygon fill="#444444" points="34.49,44.14 34.49,33.52 31.49,33.52 31.49,44.14 27.68,44.14 32.99,48.94 38.29,44.14 34.49,44.14 "/>
</g>
<g class="Name" fill-opacity="0.9" style="display: none;">

</g>
<desc>Width:60 Height:90 Depth:60 Elevation:0</desc>
</g><g class="FixedFurniture Shower" fill="#ffffff" stroke="#000000" style="fill-opacity: 1; stroke-opacity: 1;" transform="matrix(1,0,0,1,662.0487,149.1656)">
<g class="BoundaryPolygon" fill="none" stroke="none">
<polygon points="0,0 32,0 32,19 0,19"/>
</g>
<g class="InnerPolygon">
<rect height="6.1" width="11.2" x="3.7" y="0.5"/>
<rect height="6.1" width="11.2" x="17.6" y="0.5"/>
<rect height="6.1" width="3.4" x="28.7" y="0.5"/>
<rect height="6.1" width="3.2" x="0.5" y="0.5"/>
<path d="M14.9,8.5c0,1.5-0.4,3.3-1.6,5    c-0.4,0.6-1,1.1-1.1,1.7c-0.2,1.1,0.3,2.8,2.5,3.2c0.5,0.1,1.3,0.1,1.6,0.1h-0.1c0.3,0,1.1,0,1.6-0.1c2.2-0.4,2.7-2.1,2.5-3.2    c-0.1-0.6-0.7-1.1-1.1-1.7c-1.2-1.7-1.6-3.5-1.6-5"/>
<path d="M12.2,15.3c0.1,0.2,1.6,1.9,4.2,1.9 c2.4-0.1,3.7-1.7,3.9-1.9"/>
<path d="M14.9,0.5h2.7v8c-0.9,0-1.8,0-2.7,0l0,0 C14.9,5.9,14.9,3.2,14.9,0.5z"/>
</g>
<g class="Indicator">
<path d="M3.7,3.6C5,3.1,5.2,3,5.2,3 c0,1.1,0,0,0,1.1C5.2,4.1,5.1,4.1,3.7,3.6"/>
<path d="M28.7,3.6 C27.4,3.1,27.2,3,27.2,3c0,1.1,0,0,0,1.1C27.2,4.1,27.3,4.1,28.7,3.6"/>
</g>
<desc>Width:32 Height:97 Depth:19 Elevation:135</desc>
</g><g class="FixedFurniture BaseCabinet" fill="#ffffff" stroke="#000000" style="fill-opacity: 1; stroke-opacity: 1;" transform="matrix(1,0,0,1,143.1685,149.1812)">
<g class="BoundaryPolygon">
<polygon points="0.00,0.00 313.27,0.00 313.27,60.00 0.00,60.00 "/>
</g>
<g class="Direction" fill-opacity="0.9" style="display: none;">
<polygon fill="#444444" points="167.12,55.20 167.12,44.58 164.12,44.58 164.12,55.20 160.31,55.20 165.62,60.00 170.92,55.20 167.12,55.20 "/>
</g>
<g class="Name" fill-opacity="0.9" style="display: none;">

</g>
<desc>Width:60 Height:90 Depth:60 Elevation:0</desc>
</g><g class="FixedFurniture ElectricalAppliance IntegratedStove" fill="#ffffff" stroke="#000000" style="fill-opacity: 1; stroke-opacity: 1;" transform="matrix(1,0,0,1,257.7532,149.3062)">
<g class="BoundaryPolygon" fill="none" stroke="none">
<polygon points="0.00,0.00 66.12,0.00 66.12,60.00 0.00,60.00 "/>
</g>
<g class="InnerPolygon">
<polygon points="2.00,2.00 63.92,2.00 63.92,58.00 2.00,58.00 "/>
</g>
<g class="OuterCircle">
<circle cx="17.633183258798173" cy="16" r="8"/>
<circle cx="48.49125396169494" cy="16" r="8"/>
<circle cx="17.633183258798173" cy="44" r="8"/>
<circle cx="48.49125396169494" cy="44" r="8"/>
</g>
<g class="Direction" fill-opacity="0.9" style="display: none;">
<polygon fill="#444444" points="35.28,55.20 35.28,44.58 32.27,44.58 32.27,55.20 28.46,55.20 33.77,60.00 39.07,55.20 35.28,55.20 "/>
</g>
<g class="Name" fill-opacity="0.9" style="display: none;">

</g>
<desc>Width:60 Height:90 Depth:30 Elevation:0</desc>
</g><g class="FixedFurniture ElectricalAppliance SpaceForAppliance" fill="#ffffff" stroke="#000000" style="fill-opacity: 1; stroke-opacity: 1;" transform="matrix(0.9739,0,0,1,323.8776,149.3062)">
<g class="BoundaryPolygon">
<polygon points="0,0 60,0 60,60 0,60"/>
</g>
<g class="electricitySign" fill="none">
<path d="M0,0,30.1,39.8V19.4L59.9,60"/>
</g>
<g class="Direction" fill-opacity="0.9" style="display: none;">
<polygon fill="#444444" points="32.009 55.197 32.009 44.581 29 44.581 29 55.197 25.197 55.197 30.5 60 35.803 55.197 32.009 55.197"/>
</g>
<g class="Name" fill-opacity="0.9" style="display: none;">

</g>
<desc>Width:60 Height:90 Depth:60 Elevation:0</desc>
</g><g class="FixedFurniture Sink" fill="#ffffff" stroke="#000000" style="fill-opacity: 1; stroke-opacity: 1;" transform="matrix(1,0,0,1,381.8715,158.6715)">
<g class="BoundaryPolygon" fill="none" stroke="none">
<polygon points="0.00,0.00 64.31,0.00 64.31,52.19 0.00,52.19 "/>
</g>
<g class="InnerPolygon">
<polygon points="5.36,9.70 58.95,9.70 58.95,47.58 5.36,47.58 "/>
</g>
<g class="OuterDrain" stroke-width="0.8">
<circle cx="32.152828661943225" cy="28.007456712783423" r="3.5"/>
</g>
<g class="InnerDrain" stroke-width="0.8">
<circle cx="32.152828661943225" cy="28.007456712783423" r="2"/>
</g>
<g class="Faucet">
<polygon points="28.94,4.35 34.94,4.35 34.94,18.35 28.94,18.35 "/>
</g>
<g class="Direction" fill-opacity="0.9" style="display: none;">
<polygon fill="#444444" points="34.31,48.01 34.31,37.39 31.30,37.39 31.30,48.01 27.49,48.01 32.80,52.81 38.10,48.01 34.31,48.01 "/>
</g>
<g class="Name" fill-opacity="0.9" style="display: none;">

</g>
<desc>Width:60 Height:90 Depth:60 Elevation:0</desc>
</g><g class="FixedFurniture Closet" fill="#ffffff" stroke="#000000" style="fill-opacity: 1; stroke-opacity: 1;" transform="matrix(-1,0,0,-1,456.55,511.7)">
<g class="BoundaryPolygon">
<polygon points="0,0 60,0 60,60 0,60"/>
</g>
<g class="Direction" fill-opacity="0.9" style="display: none;">
<polygon fill="#444444" points="31.509 54.697 31.509 44.081 28.5 44.081 28.5 54.697 24.697 54.697 30 60 35.303 54.697 31.509 54.697"/>
</g>
<g class="Name" fill-opacity="0.9" style="display: none;">

</g>
<desc>Width:60 Height:200 Depth:60 Elevation:0</desc>
</g><g class="FixedFurniture ElectricalAppliance Refrigerator" fill="#ffffff" stroke="#000000" style="fill-opacity: 1; stroke-opacity: 1;" transform="matrix(-1,0,0,-1,396.5499,511.7)">
<g class="BoundaryPolygon">
<polygon points="0,0 60,0 60,60 0,60"/>
</g>
<g class="electricitySign" fill="none">
<path d="M0,0,30,37.1v-18L60,56.3"/>
</g>
<g class="Doors">
<rect height="4" width="60" y="56"/>
</g>
<g class="Direction" fill-opacity="0.9" style="display: none;">
<polygon fill="#444444" points="32.009 55.197 32.009 44.581 29 44.581 29 55.197 25.197 55.197 30.5 60 35.803 55.197 32.009 55.197"/>
</g>
<g class="Name" fill-opacity="0.9" style="display: none;">

</g>
<desc>Width:60 Height:170 Depth:60 Elevation:0</desc>
</g></g></g></g></svg>