<?xml version="1.0" encoding="utf-8"?>
<svg height="843.7199821472168" id="temp" version="1.1" viewBox="0 0 791.6099853515625 843.7199821472168" width="791.6099853515625" xmlns="http://www.w3.org/2000/svg" xmlns:xlink="http://www.w3.org/1999/xlink"><defs/><g class="Model v1-1" id="Model"><g class="Floor"><g class="Floorplan Floor-1" id="Floor-1"><g class="Space LivingRoom" fill="#ffffff" id="76a9a2de-cdd5-4df0-8b6d-41f159ce8d25" stroke="#ffffff" style="fill-opacity: 1; stroke-opacity: 1; stroke-width: 1;"><polygon points="494.62,575.23 137.75,575.23 137.75,200.45 494.62,200.45 "/><g class="Dimension" transform="matrix(1,0,0,1,137.747,200.4457)"><g class="Visual" style="display: none;" transform="matrix(1,0,0,1,0,0)"><g class="DimensionMark" fill="#000000" id="mark1" stroke="none" style="fill-opacity: 1; pointer-events: visible;" transform="matrix(1,0,0,1,178.4387,0)"><polygon points="-5,5,0,0,5,5"/></g><g class="DimensionMark" fill="#000000" id="mark2" stroke="none" style="fill-opacity: 1; pointer-events: visible;" transform="matrix(1,0,0,1,356.8773,187.3931)"><polygon points="-5,-5,0,0,-5,5"/></g><g class="DimensionMark" fill="#000000" id="mark3" stroke="none" style="fill-opacity: 1; pointer-events: visible;" transform="matrix(1,0,0,1,178.4387,374.7863)"><polygon points="-5,-5,0,0,5,-5"/></g><g class="DimensionMark" fill="#000000" id="mark4" stroke="none" style="fill-opacity: 1; pointer-events: visible;" transform="matrix(1,0,0,1,0,187.3931)"><polygon points="5,5,0,0,5,-5"/></g></g><g class="SpaceDimensionsLabel" transform="matrix(1,0,0,1,148.1418,183.065)"><g class="TextLabel NameLabel" id="NameLabel" style="display: block;"/><g class="TextLabel DimensionMeasureLabel" id="DimensionMeasureLabel" style="display: none;" transform="matrix(1,0,0,1,-114.6171,79.3594)"/></g></g></g><g class="Space Alcove" fill="#ffffff" id="8f03836f-03a9-43e2-a22e-92de3917aac0" stroke="#ffffff" style="fill-opacity: 1; stroke-opacity: 1; stroke-width: 1;"><polygon points="137.75,737.42 137.75,575.23 333.00,575.23 333.00,737.42 "/><g class="Dimension" transform="matrix(1,0,0,1,137.747,575.2319)"><g class="Visual" style="display: none;" transform="matrix(1,0,0,1,0,0)"><g class="DimensionMark" fill="#000000" id="mark1" stroke="none" style="fill-opacity: 1; pointer-events: visible;" transform="matrix(1,0,0,1,97.6262,0)"><polygon points="-5,5,0,0,5,5"/></g><g class="DimensionMark" fill="#000000" id="mark2" stroke="none" style="fill-opacity: 1; pointer-events: visible;" transform="matrix(1,0,0,1,195.2523,81.0938)"><polygon points="-5,-5,0,0,-5,5"/></g><g class="DimensionMark" fill="#000000" id="mark3" stroke="none" style="fill-opacity: 1; pointer-events: visible;" transform="matrix(1,0,0,1,97.6262,162.1876)"><polygon points="-5,-5,0,0,5,-5"/></g><g class="DimensionMark" fill="#000000" id="mark4" stroke="none" style="fill-opacity: 1; pointer-events: visible;" transform="matrix(1,0,0,1,0,81.0938)"><polygon points="5,5,0,0,5,-5"/></g></g><g class="SpaceDimensionsLabel" transform="matrix(1,0,0,1,35.2157,97.5407)"><g class="TextLabel NameLabel" id="NameLabel" style="display: block;"/><g class="TextLabel DimensionMeasureLabel" id="DimensionMeasureLabel" style="display: none;" transform="matrix(1,0,0,1,-76.8984,79.4063)"/></g></g></g><g class="Space Undefined" fill="#ffffff" id="ee54e9e5-da32-4f43-be36-f30b60d9f03b" stroke="#ffffff" style="fill-opacity: 1; stroke-opacity: 1; stroke-width: 1;"><polygon points="494.62,578.88 554.19,578.88 554.19,737.42 348.00,737.42 348.00,575.23 494.62,575.23 "/><g class="Dimension" transform="matrix(1,0,0,1,347.9993,575.2319)"><g class="Visual" style="display: none;" transform="matrix(1,0,0,1,0,0)"><g class="DimensionMark" fill="#000000" id="mark1" stroke="none" style="fill-opacity: 1; pointer-events: visible;" transform="matrix(1,0,0,1,103.0956,0)"><polygon points="-5,5,0,0,5,5"/></g><g class="DimensionMark" fill="#000000" id="mark2" stroke="none" style="fill-opacity: 1; pointer-events: visible;" transform="matrix(1,0,0,1,206.1911,81.0938)"><polygon points="-5,-5,0,0,-5,5"/></g><g class="DimensionMark" fill="#000000" id="mark3" stroke="none" style="fill-opacity: 1; pointer-events: visible;" transform="matrix(1,0,0,1,103.0956,162.1876)"><polygon points="-5,-5,0,0,5,-5"/></g><g class="DimensionMark" fill="#000000" id="mark4" stroke="none" style="fill-opacity: 1; pointer-events: visible;" transform="matrix(1,0,0,1,0,81.0938)"><polygon points="5,5,0,0,5,-5"/></g></g><g class="SpaceDimensionsLabel" transform="matrix(1,0,0,1,81.0938,81.0938)"><g class="TextLabel NameLabel" id="NameLabel" style="display: block;"/><g class="TextLabel DimensionMeasureLabel" id="DimensionMeasureLabel" style="display: none;" transform="matrix(1,0,0,1,-40.5235,79.4219)"/></g></g></g><g class="Space Outdoor Balcony" fill="#ffffff" id="7434fc22-d1e6-4638-a990-af53dc86b6dd" stroke="#000000" style="fill-opacity: 1; stroke-opacity: 1; stroke-width: 1;"><polygon points="135.50,176.79 135.54,70.48 494.66,69.58 494.62,176.79 135.50,176.79 135.50,176.79 "/><g class="Dimension" transform="matrix(1,0,0,1,135.5206,70.0338)"><g class="Visual" style="display: none;" transform="matrix(1,0,0,1,0,0)"><g class="DimensionMark" fill="#000000" id="mark1" stroke="none" style="fill-opacity: 1; pointer-events: visible;" transform="matrix(1,0,0,1,179.5624,0)"><polygon points="-5,5,0,0,5,5"/></g><g class="DimensionMark" fill="#000000" id="mark2" stroke="none" style="fill-opacity: 1; pointer-events: visible;" transform="matrix(1,0,0,1,359.1226,53.152)"><polygon points="-5,-5,0,0,-5,5"/></g><g class="DimensionMark" fill="#000000" id="mark3" stroke="none" style="fill-opacity: 1; pointer-events: visible;" transform="matrix(1,0,0,1,179.5624,106.7544)"><polygon points="-5,-5,0,0,5,-5"/></g><g class="DimensionMark" fill="#000000" id="mark4" stroke="none" style="fill-opacity: 1; pointer-events: visible;" transform="matrix(1,0,0,1,0,53.152)"><polygon points="5,5,0,0,5,-5"/></g></g><g class="SpaceDimensionsLabel" transform="matrix(1,0,0,1,97.0687,66.9931)"><g class="TextLabel NameLabel" id="NameLabel" style="display: block;"/><g class="TextLabel DimensionMeasureLabel" id="DimensionMeasureLabel" style="display: none;" transform="matrix(1,0,0,1,-63.7109,79.5937)"/></g></g></g><g class="Space Kitchen Kitchenette" fill="#ffffff" id="7767cbaa-6aae-4368-8f94-f4545c5e23e5" stroke="#ffffff" style="fill-opacity: 1; stroke-opacity: 1; stroke-width: 1;"><polygon points="766.87,465.41 509.62,465.41 509.62,200.45 766.87,200.45 "/><g class="Dimension" transform="matrix(1,0,0,1,509.6243,200.4457)"><g class="Visual" style="display: none;" transform="matrix(1,0,0,1,0,0)"><g class="DimensionMark" fill="#000000" id="mark1" stroke="none" style="fill-opacity: 1; pointer-events: visible;" transform="matrix(1,0,0,1,128.6218,0)"><polygon points="-5,5,0,0,5,5"/></g><g class="DimensionMark" fill="#000000" id="mark2" stroke="none" style="fill-opacity: 1; pointer-events: visible;" transform="matrix(1,0,0,1,257.2437,132.4844)"><polygon points="-5,-5,0,0,-5,5"/></g><g class="DimensionMark" fill="#000000" id="mark3" stroke="none" style="fill-opacity: 1; pointer-events: visible;" transform="matrix(1,0,0,1,128.6218,264.9689)"><polygon points="-5,-5,0,0,5,-5"/></g><g class="DimensionMark" fill="#000000" id="mark4" stroke="none" style="fill-opacity: 1; pointer-events: visible;" transform="matrix(1,0,0,1,0,132.4844)"><polygon points="5,5,0,0,5,-5"/></g></g><g class="SpaceDimensionsLabel" transform="matrix(1,0,0,1,102.247,135.6084)"><g class="TextLabel NameLabel" id="NameLabel" style="display: block;"/><g class="TextLabel DimensionMeasureLabel" id="DimensionMeasureLabel" style="display: none;" transform="matrix(1,0,0,1,-117.1172,79.3594)"/></g></g></g><g class="Space Bath" fill="#ffffff" id="d5b919ab-a416-47b2-9d1f-f95bc19086ff" stroke="#ffffff" style="fill-opacity: 1; stroke-opacity: 1; stroke-width: 1;"><polygon points="768.49,737.42 570.17,737.42 570.17,578.88 702.76,578.85 768.49,578.85 "/><g class="Dimension" transform="matrix(1,0,0,1,570.1701,578.8549)"><g class="Visual" style="display: none;" transform="matrix(1,0,0,1,0,0)"><g class="DimensionMark" fill="#000000" id="mark1" stroke="none" style="fill-opacity: 1; pointer-events: visible;" transform="matrix(1,0,0,1,99.1606,0)"><polygon points="-5,5,0,0,5,5"/></g><g class="DimensionMark" fill="#000000" id="mark2" stroke="none" style="fill-opacity: 1; pointer-events: visible;" transform="matrix(1,0,0,1,198.3211,79.2785)"><polygon points="-5,-5,0,0,-5,5"/></g><g class="DimensionMark" fill="#000000" id="mark3" stroke="none" style="fill-opacity: 1; pointer-events: visible;" transform="matrix(1,0,0,1,99.1606,158.5647)"><polygon points="-5,-5,0,0,5,-5"/></g><g class="DimensionMark" fill="#000000" id="mark4" stroke="none" style="fill-opacity: 1; pointer-events: visible;" transform="matrix(1,0,0,1,0,79.2785)"><polygon points="5,5,0,0,5,-5"/></g></g><g class="SpaceDimensionsLabel" transform="matrix(1,0,0,1,71.4641,106.1179)"><g class="TextLabel NameLabel" id="NameLabel" style="display: block;"/><g class="TextLabel DimensionMeasureLabel" id="DimensionMeasureLabel" style="display: none;" transform="matrix(1,0,0,1,-106.2266,79.4062)"/></g></g></g><g class="Space Closet WalkIn" fill="#ffffff" id="aa248bbf-83d0-4b04-b8d5-e58a7322a09e" stroke="#ffffff" style="fill-opacity: 1; stroke-opacity: 1; stroke-width: 1;"><polygon points="702.76,563.85 509.62,563.88 509.62,480.41 702.76,480.41 "/><g class="Dimension" transform="matrix(1,0,0,1,509.6243,480.4145)"><g class="Visual" style="display: none;" transform="matrix(1,0,0,1,0,0)"><g class="DimensionMark" fill="#000000" id="mark1" stroke="none" style="fill-opacity: 1; pointer-events: visible;" transform="matrix(1,0,0,1,96.5678,0)"><polygon points="-5,5,0,0,5,5"/></g><g class="DimensionMark" fill="#000000" id="mark2" stroke="none" style="fill-opacity: 1; pointer-events: visible;" transform="matrix(1,0,0,1,193.1344,41.7305)"><polygon points="-5,-5,0,0,-5,5"/></g><g class="DimensionMark" fill="#000000" id="mark3" stroke="none" style="fill-opacity: 1; pointer-events: visible;" transform="matrix(1,0,0,1,96.5678,83.4468)"><polygon points="-5,-5,0,0,5,-5"/></g><g class="DimensionMark" fill="#000000" id="mark4" stroke="none" style="fill-opacity: 1; pointer-events: visible;" transform="matrix(1,0,0,1,0,41.7305)"><polygon points="5,5,0,0,5,-5"/></g></g><g class="SpaceDimensionsLabel" transform="matrix(1,0,0,1,59.0429,54.7148)"><g class="TextLabel NameLabel" id="NameLabel" style="display: block;"/><g class="TextLabel DimensionMeasureLabel" id="DimensionMeasureLabel" style="display: none;" transform="matrix(1,0,0,1,-116.3281,79.4062)"/></g></g></g><g class="Wall External" fill="#000000" id="Wall" stroke="#000000" style="fill-opacity: 1; stroke-opacity: 1; stroke-width: 1;"><polygon points="112.94,176.79 791.61,176.79 766.87,200.45 137.75,200.45 "/><g class="Window Regular" fill="#f0f0ff" id="Window" stroke="#000000" style="fill-opacity: 1; stroke-width: 1; stroke-opacity: 1;"><polygon points="513.92,176.79 685.30,176.79 685.30,200.45 513.92,200.45 "/><g class="Glass" id="Glass"><polygon points="513.92,176.79 685.30,176.79 685.30,200.45 513.92,200.45 "/></g><g class="Panel" id="Panel"><line x1="521.4224632768523" x2="677.7964727517683" y1="188.61693378975852" y2="188.6169337897585"/><line x1="521.4224632768523" x2="521.4224632768523" y1="176.7881940626758" y2="200.44567351684123"/><line x1="677.7964727517683" x2="677.7964727517683" y1="176.78819406267579" y2="200.4456735168412"/></g></g><g class="Window Regular" fill="#f0f0ff" id="Window" stroke="#000000" style="fill-opacity: 1; stroke-width: 1; stroke-opacity: 1;"><polygon points="144.04,176.79 273.19,176.79 273.19,200.45 144.04,200.45 "/><g class="Glass" id="Glass"><polygon points="144.04,176.79 273.19,176.79 273.19,200.45 144.04,200.45 "/></g><g class="Panel" id="Panel"><line x1="151.5360343002598" x2="265.69474525349557" y1="188.61693378975858" y2="188.61693378975855"/><line x1="151.5360343002598" x2="151.5360343002598" y1="176.78819406267587" y2="200.44567351684128"/><line x1="265.69474525349557" x2="265.69474525349557" y1="176.78819406267584" y2="200.44567351684125"/></g></g><g class="Window Regular" fill="#f0f0ff" id="Window" stroke="#000000" style="fill-opacity: 1; stroke-width: 1; stroke-opacity: 1;"><polygon points="273.24,176.79 393.31,176.79 393.31,200.45 273.24,200.45 "/><g class="Glass" id="Glass"><polygon points="273.24,176.79 393.31,176.79 393.31,200.45 273.24,200.45 "/></g><g class="Panel" id="Panel"><line x1="280.7404311614866" x2="385.80732080922854" y1="188.61693378975855" y2="188.61693378975852"/><line x1="280.7404311614866" x2="280.7404311614866" y1="176.78819406267584" y2="200.44567351684125"/><line x1="385.80732080922854" x2="385.80732080922854" y1="176.7881940626758" y2="200.44567351684123"/></g></g><g class="Door Swing Opposite" fill="#ffffff" id="Door" stroke="#000000" style="fill-opacity: 1; stroke-width: 1; stroke-opacity: 1;"><polygon points="398.45,176.79 484.16,176.79 484.16,200.45 398.45,200.45 "/><g class="Panel Left Negative" fill="none" id="Panel" style=""><g class="PanelArea" fill="none" id="PanelArea" stroke="none" style=""><polygon points="398.45,176.79 484.16,176.79 484.16,200.45 398.45,200.45 "/></g><path d="M398.45,176.79 q0.00,-85.71 85.71,-85.71 l0.00,85.71Z"/></g><g class="Panel Right Positive" fill="none" id="Panel" style=""><g class="PanelArea" fill="none" id="PanelArea" stroke="none" style=""><polygon points="398.45,176.79 484.16,176.79 484.16,200.45 398.45,200.45 "/></g><path d="M398.45,200.45 q0.00,85.71 85.71,85.71 l0.00,-85.71Z"/></g></g></g><g class="Wall External" fill="#000000" id="Wall" stroke="#000000" style="fill-opacity: 1; stroke-opacity: 1; stroke-width: 1;"><polygon points="791.61,176.79 791.61,486.91 766.87,465.41 766.87,200.45 "/></g><g class="Wall External" fill="#000000" id="Wall" stroke="#000000" style="fill-opacity: 1; stroke-opacity: 1; stroke-width: 1;"><polygon points="791.61,486.91 723.71,486.91 702.76,465.41 766.87,465.41 "/></g><g class="Wall External" fill="#000000" id="Wall" stroke="#000000" style="fill-opacity: 1; stroke-opacity: 1; stroke-width: 1;"><polygon points="723.71,486.91 723.71,553.92 702.76,578.85 702.76,465.41 "/></g><g class="Wall External" fill="#000000" id="Wall" stroke="#000000" style="fill-opacity: 1; stroke-opacity: 1; stroke-width: 1;"><polygon points="723.71,553.92 791.61,553.92 768.49,578.85 702.76,578.85 "/></g><g class="Wall External" fill="#000000" id="Wall" stroke="#000000" style="fill-opacity: 1; stroke-opacity: 1; stroke-width: 1;"><polygon points="791.61,553.92 791.61,759.31 768.49,737.42 768.49,578.85 "/></g><g class="Wall External" fill="#000000" id="Wall" stroke="#000000" style="fill-opacity: 1; stroke-opacity: 1; stroke-width: 1;"><polygon points="791.61,759.31 112.94,759.31 137.75,737.42 768.49,737.42 "/><g class="Door Swing Opposite" fill="#ffffff" id="Door" stroke="#000000" style="fill-opacity: 1; stroke-width: 1; stroke-opacity: 1;"><polygon points="438.94,759.31 354.53,759.31 354.53,737.42 438.94,737.42 "/><g class="Panel Right Negative" fill="none" id="Panel" style=""><g class="PanelArea" fill="none" id="PanelArea" stroke="none" style=""><polygon points="438.94,759.31 354.53,759.31 354.53,737.42 438.94,737.42 "/></g><path d="M354.53,759.31 q0.00,84.41 84.41,84.41 l0.00,-84.41Z"/></g><g class="Panel Left Positive" fill="none" id="Panel" style=""><g class="PanelArea" fill="none" id="PanelArea" stroke="none" style=""><polygon points="438.94,759.31 354.53,759.31 354.53,737.42 438.94,737.42 "/></g><path d="M354.53,737.42 q0.00,-84.41 84.41,-84.41 l0.00,84.41Z"/></g></g></g><g class="Wall External" fill="#000000" id="Wall" stroke="#000000" style="fill-opacity: 1; stroke-opacity: 1; stroke-width: 1;"><polygon points="112.94,759.31 112.94,176.79 137.75,200.45 137.75,737.42 "/></g><g class="Wall" fill="#000000" id="Wall" stroke="#000000" style="fill-opacity: 1; stroke-opacity: 1; stroke-width: 1;"><polygon points="494.62,176.79 494.62,578.88 509.62,563.88 509.62,176.79 "/><g class="Door Swing Beside" fill="#ffffff" id="Door" stroke="#000000" style="fill-opacity: 1; stroke-width: 1; stroke-opacity: 1;"><polygon points="494.62,319.84 494.62,402.13 509.62,402.13 509.62,319.84 "/><g class="Panel Right Negative" fill="none" id="Panel" style=""><g class="PanelArea" fill="none" id="PanelArea" stroke="none" style=""><polygon points="494.62,319.84 494.62,402.13 509.62,402.13 509.62,319.84 "/></g><path d="M494.62,402.13 q-82.30,0.00 -82.30,-82.30 l82.30,0.00Z"/></g></g><g class="Door Swing Beside" fill="#ffffff" id="Door" stroke="#000000" style="fill-opacity: 1; stroke-width: 1; stroke-opacity: 1;"><polygon points="494.62,506.22 494.62,560.08 509.62,560.08 509.62,506.22 "/><g class="Panel Right Negative" fill="none" id="Panel" style=""><g class="PanelArea" fill="none" id="PanelArea" stroke="none" style=""><polygon points="494.62,506.22 494.62,560.08 509.62,560.08 509.62,506.22 "/></g><path d="M494.62,560.08 q-53.86,0.00 -53.86,-53.86 l53.86,0.00Z"/></g></g></g><g class="Wall" fill="#000000" id="Wall" stroke="#000000" style="fill-opacity: 1; stroke-opacity: 1; stroke-width: 1;"><polygon points="494.62,465.41 702.76,465.41 702.76,480.41 494.62,480.41 "/></g><g class="Wall" fill="#000000" id="Wall" stroke="#000000" style="fill-opacity: 1; stroke-opacity: 1; stroke-width: 1;"><polygon points="494.62,578.88 702.76,578.85 702.76,563.85 509.62,563.88 "/></g><g class="Wall" fill="#000000" id="Wall" stroke="#000000" style="fill-opacity: 1; stroke-opacity: 1; stroke-width: 1;"><polygon points="554.19,563.87 554.19,759.31 570.17,759.31 570.17,563.87 "/><g class="Door Swing Beside" fill="#ffffff" id="Door" stroke="#000000" style="fill-opacity: 1; stroke-width: 1; stroke-opacity: 1;"><polygon points="554.19,632.49 554.19,692.01 570.17,692.01 570.17,632.49 "/><g class="Panel Right Negative" fill="none" id="Panel" style=""><g class="PanelArea" fill="none" id="PanelArea" stroke="none" style=""><polygon points="554.19,632.49 554.19,692.01 570.17,692.01 570.17,632.49 "/></g><path d="M554.19,692.01 q-59.52,0.00 -59.52,-59.52 l59.52,0.00Z"/></g></g></g><g class="Wall" fill="#000000" id="Wall" stroke="#000000" style="fill-opacity: 1; stroke-opacity: 1; stroke-width: 1;"><polygon points="333.00,575.23 333.00,759.31 348.00,759.31 348.00,575.23 "/></g><g class="Wall" fill="#000000" id="Wall" stroke="#000000" style="fill-opacity: 1; stroke-opacity: 1; stroke-width: 1;"><polygon points="112.94,176.79 112.94,55.54 135.50,70.48 135.50,176.79 "/></g><g class="Wall" fill="#000000" id="Wall" stroke="#000000" style="fill-opacity: 1; stroke-opacity: 1; stroke-width: 1;"><polygon points="509.15,176.79 509.15,54.55 494.62,69.58 494.62,176.79 "/></g><g class="FixedFurniture ElectricalAppliance Refrigerator" fill="#ffffff" stroke="#000000" style="fill-opacity: 1; stroke-opacity: 1;" transform="matrix(1.0478,0,0,1.0285,704,200.5903)">
<g class="BoundaryPolygon">
<polygon points="0,0 60,0 60,60 0,60"/>
</g>
<g class="electricitySign" fill="none">
<path d="M0,0,30,37.1v-18L60,56.3"/>
</g>
<g class="Doors">
<rect height="4" width="60" y="56"/>
</g>
<g class="Direction" fill-opacity="0.9" style="display: none;">
<polygon fill="#444444" points="32.009 55.197 32.009 44.581 29 44.581 29 55.197 25.197 55.197 30.5 60 35.803 55.197 32.009 55.197"/>
</g>
<g class="Name" fill-opacity="0.9" style="display: none;">

</g>
<desc>Width:60 Height:170 Depth:60 Elevation:0</desc>
</g><g class="FixedFurniture BaseCabinet" fill="#ffffff" stroke="#000000" style="fill-opacity: 1; stroke-opacity: 1;" transform="matrix(-1,0,0,-1,767.6243,465.3677)">
<g class="BoundaryPolygon">
<polygon points="0.00,0.00 258.00,0.00 258.00,60.00 0.00,60.00 "/>
</g>
<g class="Direction" fill-opacity="0.9" style="display: none;">
<polygon fill="#444444" points="137.64,55.20 137.64,44.58 134.63,44.58 134.63,55.20 130.83,55.20 136.13,60.00 141.43,55.20 137.64,55.20 "/>
</g>
<g class="Name" fill-opacity="0.9" style="display: none;">

</g>
<desc>Width:60 Height:90 Depth:60 Elevation:0</desc>
</g><g class="FixedFurniture Sink" fill="#ffffff" stroke="#000000" style="fill-opacity: 1; stroke-opacity: 1;" transform="matrix(-1,0,0,-1,667.0605,465.4146)">
<g class="BoundaryPolygon" fill="none" stroke="none">
<polygon points="0.00,0.00 65.32,0.00 65.32,60.00 0.00,60.00 "/>
</g>
<g class="InnerPolygon">
<polygon points="5.44,9.70 59.87,9.70 59.87,54.70 5.44,54.70 "/>
</g>
<g class="OuterDrain" stroke-width="0.8">
<circle cx="32.65792129602742" cy="32.2" r="3.5"/>
</g>
<g class="InnerDrain" stroke-width="0.8">
<circle cx="32.65792129602742" cy="32.2" r="2"/>
</g>
<g class="Faucet">
<polygon points="29.39,5.00 35.39,5.00 35.39,19.00 29.39,19.00 "/>
</g>
<g class="Direction" fill-opacity="0.9" style="display: none;">
<polygon fill="#444444" points="34.84,55.20 34.84,44.58 31.84,44.58 31.84,55.20 28.03,55.20 33.34,60.00 38.64,55.20 34.84,55.20 "/>
</g>
<g class="Name" fill-opacity="0.9" style="display: none;">

</g>
<desc>Width:60 Height:90 Depth:60 Elevation:0</desc>
</g><g class="FixedFurniture ElectricalAppliance IntegratedStove" fill="#ffffff" stroke="#000000" style="fill-opacity: 1; stroke-opacity: 1;" transform="matrix(-1,0,0,-1,766.868,465.3677)">
<g class="BoundaryPolygon" fill="none" stroke="none">
<polygon points="0.00,0.00 51.24,0.00 51.24,60.00 0.00,60.00 "/>
</g>
<g class="InnerPolygon">
<polygon points="2.00,2.00 49.54,2.00 49.54,58.00 2.00,58.00 "/>
</g>
<g class="OuterCircle">
<circle cx="13.665316901876873" cy="16" r="8"/>
<circle cx="37.579621480161386" cy="16" r="8"/>
<circle cx="13.665316901876873" cy="44" r="8"/>
<circle cx="37.579621480161386" cy="44" r="8"/>
</g>
<g class="Direction" fill-opacity="0.9" style="display: none;">
<polygon fill="#444444" points="27.34,55.20 27.34,44.58 24.33,44.58 24.33,55.20 20.53,55.20 25.83,60.00 31.13,55.20 27.34,55.20 "/>
</g>
<g class="Name" fill-opacity="0.9" style="display: none;">

</g>
<desc>Width:60 Height:90 Depth:30 Elevation:0</desc>
</g><g class="FixedFurniture Closet" fill="#ffffff" stroke="#000000" style="fill-opacity: 1; stroke-opacity: 1;" transform="matrix(0,1,-1,0,702.7442,480.4145)">
<g class="BoundaryPolygon">
<polygon points="0.00,0.00 83.56,0.00 83.56,29.23 0.00,29.23 "/>
</g>
<g class="Direction" fill-opacity="0.9" style="display: none;">
<polygon fill="#444444" points="43.88,26.65 43.88,16.03 40.87,16.03 40.87,26.65 37.07,26.65 42.37,31.95 47.68,26.65 43.88,26.65 "/>
</g>
<g class="Name" fill-opacity="0.9" style="display: none;">

</g>
<desc>Width:60 Height:200 Depth:60 Elevation:0</desc>
</g><g class="FixedFurnitureSet" fill="#ffffff" id="FixedFurnitureSet" stroke="#000000" style="fill-opacity: 0.4; stroke-opacity: 0.4;" transform="matrix(1,0,0,1,625.2706,578.9798)"><g class="FixedFurniture BaseCabinet" fill="#ffffff" stroke="#000000" style="fill-opacity: 1; stroke-opacity: 1;" transform="matrix(1,0,0,1,0,0)">
<g class="BoundaryPolygon">
<polygon points="0.00,0.00 51.40,0.00 51.40,47.38 0.00,47.38 "/>
</g>
<g class="Direction" fill-opacity="0.9" style="display: none;">
<polygon fill="#444444" points="27.42,43.59 27.42,32.97 24.41,32.97 24.41,43.59 20.61,43.59 25.91,48.39 31.22,43.59 27.42,43.59 "/>
</g>
<g class="Name" fill-opacity="0.9" style="display: none;">

</g>
<desc>Width:60 Height:5 Depth:60 Elevation:105</desc>
</g><g class="FixedFurniture Sink" fill="#ffffff" stroke="#000000" style="fill-opacity: 1; stroke-opacity: 1;" transform="matrix(1,0,0,1,0,0)">
<g class="BoundaryPolygon" fill="none" stroke="none">
<polygon points="0.00,0.00 51.40,0.00 51.40,47.38 0.00,47.38 "/>
</g>
<g class="InnerPolygon">
<polygon points="4.28,9.70 47.12,9.70 47.12,43.20 4.28,43.20 "/>
</g>
<g class="OuterDrain" stroke-width="0.8">
<circle cx="25.701625675036734" cy="25.429416496817073" r="3.5"/>
</g>
<g class="InnerDrain" stroke-width="0.8">
<circle cx="25.701625675036734" cy="25.429416496817073" r="2"/>
</g>
<g class="Faucet">
<polygon points="23.13,3.95 29.13,3.95 29.13,17.95 23.13,17.95 "/>
</g>
<g class="Direction" fill-opacity="0.9" style="display: none;">
<polygon fill="#444444" points="27.42,43.59 27.42,32.97 24.41,32.97 24.41,43.59 20.61,43.59 25.91,48.39 31.22,43.59 27.42,43.59 "/>
</g>
<g class="Name" fill-opacity="0.9" style="display: none;">

</g>
<desc>Width:60 Height:90 Depth:60 Elevation:0</desc>
</g></g><g class="FixedFurniture Toilet" fill="#ffffff" stroke="#000000" style="fill-opacity: 1; stroke-opacity: 1;" transform="matrix(1,0,0,1,576.3559,578.8627)">
<g class="BoundaryPolygon" fill="none" stroke="none">
<polygon points="0,0 41,0 41,71 0,71"/>
</g>
<g class="InnerPolygon">
<rect height="17.98" width="39.989" x="0.502" y="0.5"/>
<path d="M40.491,44.237S41.619,70.5,20.907,70.5C-.523,70.5.6,44.237.6,44.237L.5,18.48H40.491Z"/>
<rect height="3.03" width="6.357" x="17.318" y="7.975"/>
</g>
<desc>Width:41 Height:85 Depth:71 Elevation:0</desc>
</g><g class="FixedFurniture Shower" fill="#ffffff" stroke="#000000" style="fill-opacity: 1; stroke-opacity: 1;" transform="matrix(-1,0,0,-1,742.0701,737.4196)">
<g class="BoundaryPolygon" fill="none" stroke="none">
<polygon points="0,0 32,0 32,19 0,19"/>
</g>
<g class="InnerPolygon">
<rect height="6.1" width="11.2" x="3.7" y="0.5"/>
<rect height="6.1" width="11.2" x="17.6" y="0.5"/>
<rect height="6.1" width="3.4" x="28.7" y="0.5"/>
<rect height="6.1" width="3.2" x="0.5" y="0.5"/>
<path d="M14.9,8.5c0,1.5-0.4,3.3-1.6,5    c-0.4,0.6-1,1.1-1.1,1.7c-0.2,1.1,0.3,2.8,2.5,3.2c0.5,0.1,1.3,0.1,1.6,0.1h-0.1c0.3,0,1.1,0,1.6-0.1c2.2-0.4,2.7-2.1,2.5-3.2    c-0.1-0.6-0.7-1.1-1.1-1.7c-1.2-1.7-1.6-3.5-1.6-5"/>
<path d="M12.2,15.3c0.1,0.2,1.6,1.9,4.2,1.9 c2.4-0.1,3.7-1.7,3.9-1.9"/>
<path d="M14.9,0.5h2.7v8c-0.9,0-1.8,0-2.7,0l0,0 C14.9,5.9,14.9,3.2,14.9,0.5z"/>
</g>
<g class="Indicator">
<path d="M3.7,3.6C5,3.1,5.2,3,5.2,3 c0,1.1,0,0,0,1.1C5.2,4.1,5.1,4.1,3.7,3.6"/>
<path d="M28.7,3.6 C27.4,3.1,27.2,3,27.2,3c0,1.1,0,0,0,1.1C27.2,4.1,27.3,4.1,28.7,3.6"/>
</g>
<desc>Width:32 Height:97 Depth:19 Elevation:135</desc>
</g><g class="FixedFurniture Closet" fill="#ffffff" stroke="#000000" style="fill-opacity: 1; stroke-opacity: 1;" transform="matrix(0,1,-1,0,553.9092,578.8732)">
<g class="BoundaryPolygon">
<polygon points="0.00,0.00 47.13,0.00 47.13,57.67 0.00,57.67 "/>
</g>
<g class="Direction" fill-opacity="0.9" style="display: none;">
<polygon fill="#444444" points="24.75,52.57 24.75,41.96 21.74,41.96 21.74,52.57 17.94,52.57 23.24,57.88 28.55,52.57 24.75,52.57 "/>
</g>
<g class="Name" fill-opacity="0.9" style="display: none;">

</g>
<desc>Width:60 Height:200 Depth:60 Elevation:0</desc>
</g><g class="FixedFurniture Closet" fill="#ffffff" stroke="#000000" style="fill-opacity: 1; stroke-opacity: 1;" transform="matrix(-1,0,0,-1,554.1904,737.4196)">
<g class="BoundaryPolygon">
<polygon points="0.00,0.00 95.16,0.00 95.16,35.23 0.00,35.23 "/>
</g>
<g class="Direction" fill-opacity="0.9" style="display: none;">
<polygon fill="#444444" points="49.97,32.12 49.97,21.50 46.96,21.50 46.96,32.12 43.16,32.12 48.46,37.42 53.77,32.12 49.97,32.12 "/>
</g>
<g class="Name" fill-opacity="0.9" style="display: none;">

</g>
<desc>Width:60 Height:200 Depth:60 Elevation:0</desc>
</g><g class="Wall" fill="#000000" id="Wall" stroke="#000000" style="fill-opacity: 1; stroke-opacity: 1; stroke-width: 1;"><polygon points="112.94,55.54 509.15,54.55 494.62,69.58 135.50,70.48 "/><g class="Window Regular" fill="#f0f0ff" id="Window" stroke="#000000" style="fill-opacity: 1; stroke-width: 1; stroke-opacity: 1;"><polygon points="136.06,55.48 494.62,54.58 494.65,69.58 136.10,70.48 "/><g class="Glass" id="Glass"><polygon points="136.06,55.48 494.62,54.58 494.65,69.58 136.10,70.48 "/></g><g class="Panel" id="Panel"><line x1="143.5780794422998" x2="487.13558934201365" y1="62.964006169958694" y2="62.10223486068596"/><line x1="143.55926668373664" x2="143.596892200863" y1="55.46402976465479" y2="70.46398257526259"/><line x1="487.1167765834505" x2="487.1544021005769" y1="54.60225845538205" y2="69.60221126598985"/></g></g></g><g class="SelectionControls" fill="#0000ff" stroke="#0000ff" style="display: none;"><g class="rotateControl" style="display: none;"><circle cx="634.7541591240508" cy="273.0384485168412" r="5" style="stroke : none; fill-opacity: 0.5; cursor:crosshair"/></g><g class="ResizeNControl" style="display: none;"><circle cx="0" cy="0" r="5" style="stroke : none; fill-opacity: 0.5"/></g><g class="ResizeNEControl" style="display: none;"><circle cx="0" cy="0" r="5" style="stroke : none; fill-opacity: 0.5"/></g><g class="ResizeEControl" style="display: none;"><circle cx="0" cy="0" r="5" style="stroke : none; fill-opacity: 0.5"/></g><g class="ResizeSEControl" style="display: none;"><circle cx="0" cy="0" r="5" style="stroke : none; fill-opacity: 0.5"/></g><g class="ResizeSControl" style="display: none;"><circle cx="0" cy="0" r="5" style="stroke : none; fill-opacity: 0.5"/></g><g class="ResizeSWControl" style="display: none;"><circle cx="0" cy="0" r="5" style="stroke : none; fill-opacity: 0.5"/></g><g class="ResizeWControl" style="display: none;"><circle cx="0" cy="0" r="5" style="stroke : none; fill-opacity: 0.5"/></g><g class="ResizeNWControl" style="display: none;"><circle cx="0" cy="0" r="5" style="stroke : none; fill-opacity: 0.5"/></g><g class="removeControl" style="display: none;"><polygon points="611.87,303.04 657.64,303.04 657.64,342.79 611.87,342.79 " style="stroke : none; fill-opacity: 0.1"/></g><g class="copyPasteControl" style="display: none;"><polygon style="stroke : none; fill-opacity: 0.1"/></g><g class="translateControl" style="display: none;"><polygon points="611.87,303.04 657.64,303.04 657.64,342.79 611.87,342.79 " style="stroke : none; fill-opacity: 0.1; cursor:move"/></g></g><g class="SelectionControls" fill="#0000ff" stroke="#0000ff" style="display: none;"><polygon fill="none" points="509.62,200.45 766.87,200.45 766.87,465.41 509.62,465.41 " stroke="#0000ff" style=""/><g class="rotateControl" style="display: none;"><circle cx="638.246203313504" cy="170.44567351684117" r="5" style="stroke : none; fill-opacity: 0.5; cursor:crosshair"/></g><g class="ResizeNControl" style="display: none;"><circle cx="0" cy="0" r="5" style="stroke : none; fill-opacity: 0.5"/></g><g class="ResizeNEControl" style="display: none;"><circle cx="0" cy="0" r="5" style="stroke : none; fill-opacity: 0.5"/></g><g class="ResizeEControl" style="display: none;"><circle cx="0" cy="0" r="5" style="stroke : none; fill-opacity: 0.5"/></g><g class="ResizeSEControl" style="display: none;"><circle cx="0" cy="0" r="5" style="stroke : none; fill-opacity: 0.5"/></g><g class="ResizeSControl" style="display: none;"><circle cx="0" cy="0" r="5" style="stroke : none; fill-opacity: 0.5"/></g><g class="ResizeSWControl" style="display: none;"><circle cx="0" cy="0" r="5" style="stroke : none; fill-opacity: 0.5"/></g><g class="ResizeWControl" style="display: none;"><circle cx="0" cy="0" r="5" style="stroke : none; fill-opacity: 0.5"/></g><g class="ResizeNWControl" style="display: none;"><circle cx="0" cy="0" r="5" style="stroke : none; fill-opacity: 0.5"/></g><g class="removeControl" style="display: none;"><polygon style="stroke : none; fill-opacity: 0.1"/></g><g class="copyPasteControl" style="display: none;"><polygon style="stroke : none; fill-opacity: 0.1"/></g><g class="translateControl" style="display: none;"><polygon style="stroke : none; fill-opacity: 0.1; cursor:move"/></g></g></g></g></g></svg>