<?xml version="1.0" encoding="utf-8"?>
<svg height="838.0899505615234" id="temp" version="1.1" viewBox="0 0 1197.8599815368652 838.0899505615234" width="1197.8599815368652" xmlns="http://www.w3.org/2000/svg" xmlns:xlink="http://www.w3.org/1999/xlink"><defs/><g class="Model v1-1" id="Model"><g class="Floor"><g class="Floorplan Floor-1" id="Floor-1" transform="matrix(1,0,0,1,0,0)"><g class="Space Undefined" fill="#ffffff" id="f9bde6d6-69bf-461f-80ab-da7ac22c406c" stroke="#ffffff" style="fill-opacity: 1; stroke-opacity: 1; stroke-width: 1;"><polygon points="476.70,510.21 375.58,510.21 375.58,387.89 476.70,387.89 "/><g class="Dimension" transform="matrix(1,0,0,1,375.5774,387.8938)"><g class="Visual" style="display: none;" transform="matrix(1,0,0,1,0,0)"><g class="DimensionMark" fill="#000000" id="mark1" stroke="none" style="fill-opacity: 1; pointer-events: visible;" transform="matrix(1,0,0,1,50.5606,0)"><polygon points="-5,5,0,0,5,5"/></g><g class="DimensionMark" fill="#000000" id="mark2" stroke="none" style="fill-opacity: 1; pointer-events: visible;" transform="matrix(1,0,0,1,101.1213,61.157)"><polygon points="-5,-5,0,0,-5,5"/></g><g class="DimensionMark" fill="#000000" id="mark3" stroke="none" style="fill-opacity: 1; pointer-events: visible;" transform="matrix(1,0,0,1,50.5606,122.3139)"><polygon points="-5,-5,0,0,5,-5"/></g><g class="DimensionMark" fill="#000000" id="mark4" stroke="none" style="fill-opacity: 1; pointer-events: visible;" transform="matrix(1,0,0,1,0,61.157)"><polygon points="5,5,0,0,5,-5"/></g></g><g class="SpaceDimensionsLabel" transform="matrix(1,0,0,1,50.5607,50.5606)"><g class="TextLabel NameLabel" id="NameLabel" style="display: none;"/><g class="TextLabel DimensionMeasureLabel" id="DimensionMeasureLabel" style="display: none;" transform="matrix(1,0,0,1,-40.5313,80.0938)"/></g></g></g><g class="Space Closet WalkIn" fill="#ffffff" id="041a756a-b771-4d7a-a0f0-758d4f1845cd" stroke="#ffffff" style="fill-opacity: 1; stroke-opacity: 1; stroke-width: 1;"><polygon points="173.94,680.77 129.15,680.77 129.15,738.92 59.63,738.92 59.63,601.68 173.94,601.68 "/><g class="Dimension" transform="matrix(1,0,0,1,59.6289,601.6805)"><g class="Visual" style="display: none;" transform="matrix(1,0,0,1,0,0)"><g class="DimensionMark" fill="#000000" id="mark1" stroke="none" style="fill-opacity: 1; pointer-events: visible;" transform="matrix(1,0,0,1,57.1559,0)"><polygon points="-5,5,0,0,5,5"/></g><g class="DimensionMark" fill="#000000" id="mark2" stroke="none" style="fill-opacity: 1; pointer-events: visible;" transform="matrix(1,0,0,1,114.3119,68.6215)"><polygon points="-5,-5,0,0,-5,5"/></g><g class="DimensionMark" fill="#000000" id="mark3" stroke="none" style="fill-opacity: 1; pointer-events: visible;" transform="matrix(1,0,0,1,57.1559,137.2431)"><polygon points="-5,-5,0,0,5,-5"/></g><g class="DimensionMark" fill="#000000" id="mark4" stroke="none" style="fill-opacity: 1; pointer-events: visible;" transform="matrix(1,0,0,1,0,68.6215)"><polygon points="5,5,0,0,5,-5"/></g></g><g class="SpaceDimensionsLabel" transform="matrix(1,0,0,1,9.955,53.9016)"><g class="TextLabel NameLabel" id="NameLabel" style="display: none;"/><g class="TextLabel DimensionMeasureLabel" id="DimensionMeasureLabel" style="display: none;" transform="matrix(1,0,0,1,-116.3359,80.0938)"/></g></g></g><g class="Space Bath" fill="#ffffff" id="c17ff10c-8ad1-4aad-8c77-68413d568043" stroke="#ffffff" style="fill-opacity: 1; stroke-opacity: 1; stroke-width: 1;"><polygon points="368.88,738.92 182.94,738.92 182.94,601.68 368.88,601.68 "/><g class="Dimension" transform="matrix(1,0,0,1,182.9408,601.6805)"><g class="Visual" style="display: none;" transform="matrix(1,0,0,1,0,0)"><g class="DimensionMark" fill="#000000" id="mark1" stroke="none" style="fill-opacity: 1; pointer-events: visible;" transform="matrix(1,0,0,1,92.9703,0)"><polygon points="-5,5,0,0,5,5"/></g><g class="DimensionMark" fill="#000000" id="mark2" stroke="none" style="fill-opacity: 1; pointer-events: visible;" transform="matrix(1,0,0,1,185.9407,68.6215)"><polygon points="-5,-5,0,0,-5,5"/></g><g class="DimensionMark" fill="#000000" id="mark3" stroke="none" style="fill-opacity: 1; pointer-events: visible;" transform="matrix(1,0,0,1,92.9703,137.2431)"><polygon points="-5,-5,0,0,5,-5"/></g><g class="DimensionMark" fill="#000000" id="mark4" stroke="none" style="fill-opacity: 1; pointer-events: visible;" transform="matrix(1,0,0,1,0,68.6215)"><polygon points="5,5,0,0,5,-5"/></g></g><g class="SpaceDimensionsLabel" transform="matrix(1,0,0,1,60.7665,43.8884)"><g class="TextLabel NameLabel" id="NameLabel" style="display: none;"/><g class="TextLabel DimensionMeasureLabel" id="DimensionMeasureLabel" style="display: none;" transform="matrix(1,0,0,1,-106.2266,80.0938)"/></g></g></g><g class="Space Bedroom" fill="#ffffff" id="32b556b6-7ef8-49f6-a2fb-b17cecbf8960" stroke="#ffffff" style="fill-opacity: 1; stroke-opacity: 1; stroke-width: 1;"><polygon points="345.65,520.21 368.88,520.21 368.88,591.68 59.63,591.68 59.63,387.22 345.65,387.22 "/><g class="Dimension" transform="matrix(1,0,0,1,59.6289,387.2174)"><g class="Visual" style="display: none;" transform="matrix(1,0,0,1,0,0)"><g class="DimensionMark" fill="#000000" id="mark1" stroke="none" style="fill-opacity: 1; pointer-events: visible;" transform="matrix(1,0,0,1,154.6263,0)"><polygon points="-5,5,0,0,5,5"/></g><g class="DimensionMark" fill="#000000" id="mark2" stroke="none" style="fill-opacity: 1; pointer-events: visible;" transform="matrix(1,0,0,1,286.0202,102.2316)"><polygon points="-5,-5,0,0,-5,5"/></g><g class="DimensionMark" fill="#000000" id="mark3" stroke="none" style="fill-opacity: 1; pointer-events: visible;" transform="matrix(1,0,0,1,154.6263,204.4631)"><polygon points="-5,-5,0,0,5,-5"/></g><g class="DimensionMark" fill="#000000" id="mark4" stroke="none" style="fill-opacity: 1; pointer-events: visible;" transform="matrix(1,0,0,1,0,102.2316)"><polygon points="5,5,0,0,5,-5"/></g></g><g class="SpaceDimensionsLabel" transform="matrix(1,0,0,1,122.1855,113.1228)"><g class="TextLabel NameLabel" id="NameLabel" style="display: none;"/><g class="TextLabel DimensionMeasureLabel" id="DimensionMeasureLabel" style="display: none;" transform="matrix(1,0,0,1,-113.7031,80.0938)"/></g></g></g><g class="Space Bedroom" fill="#ffffff" id="4f32d22d-caea-4e2a-856c-187047d4a96c" stroke="#ffffff" style="fill-opacity: 1; stroke-opacity: 1; stroke-width: 1;"><polygon points="476.70,377.89 375.58,377.89 375.58,377.22 59.63,377.22 59.63,74.89 476.70,74.89 "/><g class="Dimension" transform="matrix(1,0,0,1,59.6289,74.8852)"><g class="Visual" style="display: none;" transform="matrix(1,0,0,1,0,0)"><g class="DimensionMark" fill="#000000" id="mark1" stroke="none" style="fill-opacity: 1; pointer-events: visible;" transform="matrix(1,0,0,1,208.5349,0)"><polygon points="-5,5,0,0,5,5"/></g><g class="DimensionMark" fill="#000000" id="mark2" stroke="none" style="fill-opacity: 1; pointer-events: visible;" transform="matrix(1,0,0,1,417.0697,151.5043)"><polygon points="-5,-5,0,0,-5,5"/></g><g class="DimensionMark" fill="#000000" id="mark3" stroke="none" style="fill-opacity: 1; pointer-events: visible;" transform="matrix(1,0,0,1,208.5349,302.3322)"><polygon points="-5,-5,0,0,5,-5"/></g><g class="DimensionMark" fill="#000000" id="mark4" stroke="none" style="fill-opacity: 1; pointer-events: visible;" transform="matrix(1,0,0,1,0,151.5043)"><polygon points="5,5,0,0,5,-5"/></g></g><g class="SpaceDimensionsLabel" transform="matrix(1,0,0,1,164.3256,157.2631)"><g class="TextLabel NameLabel" id="NameLabel" style="display: none;"/><g class="TextLabel DimensionMeasureLabel" id="DimensionMeasureLabel" style="display: none;" transform="matrix(1,0,0,1,-113.7031,80.0938)"/></g></g></g><g class="Space Entry Lobby" fill="#ffffff" id="a860c432-f6a6-4128-b501-e2b018ca4a19" stroke="#ffffff" style="fill-opacity: 1; stroke-opacity: 1; stroke-width: 1;"><polygon points="603.80,738.92 378.88,738.92 378.88,520.21 486.70,520.21 486.70,387.11 603.80,387.11 "/><g class="Dimension" transform="matrix(1,0,0,1,378.8815,387.1121)"><g class="Visual" style="display: none;" transform="matrix(1,0,0,1,0,0)"><g class="DimensionMark" fill="#000000" id="mark1" stroke="none" style="fill-opacity: 1; pointer-events: visible;" transform="matrix(1,0,0,1,112.4589,0)"><polygon points="-5,5,0,0,5,5"/></g><g class="DimensionMark" fill="#000000" id="mark2" stroke="none" style="fill-opacity: 1; pointer-events: visible;" transform="matrix(1,0,0,1,224.9177,175.9058)"><polygon points="-5,-5,0,0,-5,5"/></g><g class="DimensionMark" fill="#000000" id="mark3" stroke="none" style="fill-opacity: 1; pointer-events: visible;" transform="matrix(1,0,0,1,112.4589,351.8116)"><polygon points="-5,-5,0,0,5,-5"/></g><g class="DimensionMark" fill="#000000" id="mark4" stroke="none" style="fill-opacity: 1; pointer-events: visible;" transform="matrix(1,0,0,1,0,175.9058)"><polygon points="5,5,0,0,5,-5"/></g></g><g class="SpaceDimensionsLabel" transform="matrix(1,0,0,1,115.5339,244.0501)"><g class="TextLabel NameLabel" id="NameLabel" style="display: none;"/><g class="TextLabel DimensionMeasureLabel" id="DimensionMeasureLabel" style="display: none;" transform="matrix(1,0,0,1,-119.0781,80.0938)"/></g></g></g><g class="Space LivingRoom" fill="#ffffff" id="8146d60b-f180-4c4d-a51d-c8c94dbd6022" stroke="#ffffff" style="fill-opacity: 1; stroke-opacity: 1; stroke-width: 1;"><polygon points="1044.01,387.11 486.70,387.11 486.70,74.89 1044.01,74.89 "/><g class="Dimension" transform="matrix(1,0,0,1,486.6987,74.8852)"><g class="Visual" style="display: none;" transform="matrix(1,0,0,1,0,0)"><g class="DimensionMark" fill="#000000" id="mark1" stroke="none" style="fill-opacity: 1; pointer-events: visible;" transform="matrix(1,0,0,1,278.658,0)"><polygon points="-5,5,0,0,5,5"/></g><g class="DimensionMark" fill="#000000" id="mark2" stroke="none" style="fill-opacity: 1; pointer-events: visible;" transform="matrix(1,0,0,1,557.3161,156.1134)"><polygon points="-5,-5,0,0,-5,5"/></g><g class="DimensionMark" fill="#000000" id="mark3" stroke="none" style="fill-opacity: 1; pointer-events: visible;" transform="matrix(1,0,0,1,278.658,312.2268)"><polygon points="-5,-5,0,0,5,-5"/></g><g class="DimensionMark" fill="#000000" id="mark4" stroke="none" style="fill-opacity: 1; pointer-events: visible;" transform="matrix(1,0,0,1,0,156.1134)"><polygon points="5,5,0,0,5,-5"/></g></g><g class="SpaceDimensionsLabel" transform="matrix(1,0,0,1,247.696,163.5433)"><g class="TextLabel NameLabel" id="NameLabel" style="display: none;"/><g class="TextLabel DimensionMeasureLabel" id="DimensionMeasureLabel" style="display: none;" transform="matrix(1,0,0,1,-114.625,80.0938)"/></g></g></g><g class="Space Outdoor" fill="#ffffff" id="1862b133-e45d-4193-b63d-8716c8415dce" stroke="#000000" style="stroke-width: 1; fill-opacity: 1; stroke-opacity: 1;"><polygon points="1188.86,60.89 1066.01,60.89 1066.01,616.68 1188.04,616.68 1188.04,397.37 1134.53,397.35 1134.53,387.35 1188.21,387.35 1188.86,60.89 1188.86,60.89 "/><g class="Dimension" transform="matrix(1,0,0,1,1066.0147,60.8852)"><g class="Visual" style="display: none;" transform="matrix(1,0,0,1,0,0)"><g class="DimensionMark" fill="#000000" id="mark1" stroke="none" style="fill-opacity: 1; pointer-events: visible;" transform="matrix(1,0,0,1,61.4224,0)"><polygon points="-5,5,0,0,5,5"/></g><g class="DimensionMark" fill="#000000" id="mark2" stroke="none" style="fill-opacity: 1; pointer-events: visible;" transform="matrix(1,0,0,1,122.2929,277.8955)"><polygon points="-5,-5,0,0,-5,5"/></g><g class="DimensionMark" fill="#000000" id="mark3" stroke="none" style="fill-opacity: 1; pointer-events: visible;" transform="matrix(1,0,0,1,61.4224,555.7932)"><polygon points="-5,-5,0,0,5,-5"/></g><g class="DimensionMark" fill="#000000" id="mark4" stroke="none" style="fill-opacity: 1; pointer-events: visible;" transform="matrix(1,0,0,1,0,277.8955)"><polygon points="5,5,0,0,5,-5"/></g></g><g class="SpaceDimensionsLabel" transform="matrix(1,0,0,1,61.4225,61.4225)"><g class="TextLabel NameLabel" id="NameLabel" style="display: none;"/><g class="TextLabel DimensionMeasureLabel" id="DimensionMeasureLabel" style="display: none;" transform="matrix(1,0,0,1,-56.0313,80.0938)"/></g></g></g><g class="Space Dining" fill="#ffffff" id="2514d0d3-70d3-4f32-891b-8ae3bf2b7c45" stroke="#ffffff" style="fill-opacity: 1; stroke-opacity: 1; stroke-width: 1;"><polygon points="1044.01,603.68 860.03,603.68 860.03,397.35 1044.01,397.35 "/><g class="Dimension" transform="matrix(1,0,0,1,860.028,397.3467)"><g class="Visual" style="display: none;" transform="matrix(1,0,0,1,0,0)"><g class="DimensionMark" fill="#000000" id="mark1" stroke="none" style="fill-opacity: 1; pointer-events: visible;" transform="matrix(1,0,0,1,91.9934,0)"><polygon points="-5,5,0,0,5,5"/></g><g class="DimensionMark" fill="#000000" id="mark2" stroke="none" style="fill-opacity: 1; pointer-events: visible;" transform="matrix(1,0,0,1,183.9868,103.1659)"><polygon points="-5,-5,0,0,-5,5"/></g><g class="DimensionMark" fill="#000000" id="mark3" stroke="none" style="fill-opacity: 1; pointer-events: visible;" transform="matrix(1,0,0,1,91.9934,206.3318)"><polygon points="-5,-5,0,0,5,-5"/></g><g class="DimensionMark" fill="#000000" id="mark4" stroke="none" style="fill-opacity: 1; pointer-events: visible;" transform="matrix(1,0,0,1,0,103.1659)"><polygon points="5,5,0,0,5,-5"/></g></g><g class="SpaceDimensionsLabel" transform="matrix(1,0,0,1,72.4814,109.8652)"><g class="TextLabel NameLabel" id="NameLabel" style="display: none;"/><g class="TextLabel DimensionMeasureLabel" id="DimensionMeasureLabel" style="display: none;" transform="matrix(1,0,0,1,-118.0391,80.0938)"/></g></g></g><g class="Space Kitchen" fill="#ffffff" id="41ff0d64-54e1-419a-9fe2-078cee8ed10a" stroke="#ffffff" style="fill-opacity: 1; stroke-opacity: 1; stroke-width: 1;"><polygon points="860.03,603.68 615.80,603.68 615.80,457.50 676.48,457.50 676.48,397.35 860.03,397.35 "/><g class="Dimension" transform="matrix(1,0,0,1,615.7992,397.3467)"><g class="Visual" style="display: none;" transform="matrix(1,0,0,1,0,0)"><g class="DimensionMark" fill="#000000" id="mark1" stroke="none" style="fill-opacity: 1; pointer-events: visible;" transform="matrix(1,0,0,1,122.1144,0)"><polygon points="-5,5,0,0,5,5"/></g><g class="DimensionMark" fill="#000000" id="mark2" stroke="none" style="fill-opacity: 1; pointer-events: visible;" transform="matrix(1,0,0,1,244.2288,103.1659)"><polygon points="-5,-5,0,0,-5,5"/></g><g class="DimensionMark" fill="#000000" id="mark3" stroke="none" style="fill-opacity: 1; pointer-events: visible;" transform="matrix(1,0,0,1,122.1144,206.3318)"><polygon points="-5,-5,0,0,5,-5"/></g><g class="DimensionMark" fill="#000000" id="mark4" stroke="none" style="fill-opacity: 1; pointer-events: visible;" transform="matrix(1,0,0,1,0,103.1659)"><polygon points="5,5,0,0,5,-5"/></g></g><g class="SpaceDimensionsLabel" transform="matrix(1,0,0,1,110.0297,110.6476)"><g class="TextLabel NameLabel" id="NameLabel" style="display: none;"/><g class="TextLabel DimensionMeasureLabel" id="DimensionMeasureLabel" style="display: none;" transform="matrix(1,0,0,1,-128.0078,80.0938)"/></g></g></g><g class="Wall External" fill="#000000" id="Wall" stroke="#000000" style="fill-opacity: 1; stroke-opacity: 1; stroke-width: 1;"><polygon points="1066.01,51.89 36.63,51.89 59.63,74.89 1044.01,74.89 "/></g><g class="Wall External" fill="#000000" id="Wall" stroke="#000000" style="fill-opacity: 1; stroke-opacity: 1; stroke-width: 1;"><polygon points="59.63,74.89 59.63,738.92 36.63,760.92 36.63,51.89 "/><g class="Window Regular" fill="#f0f0ff" id="Window" stroke="#000000" style="fill-opacity: 1; stroke-width: 1; stroke-opacity: 1;"><polygon points="59.63,76.18 59.63,370.26 36.63,370.26 36.63,76.18 "/><g class="Glass" id="Glass"><polygon points="59.63,76.18 59.63,370.26 36.63,370.26 36.63,76.18 "/></g><g class="Panel" id="Panel"><line x1="48.130001068115234" x2="48.130001068115234" y1="83.68000030517578" y2="362.760009765625"/><line x1="59.630001068115234" x2="36.630001068115234" y1="83.68000030517578" y2="83.68000030517578"/><line x1="59.630001068115234" x2="36.630001068115234" y1="362.760009765625" y2="362.760009765625"/></g></g><g class="Window Regular" fill="#f0f0ff" id="Window" stroke="#000000" style="fill-opacity: 1; stroke-width: 1; stroke-opacity: 1;"><polygon points="59.63,391.19 59.63,584.74 36.63,584.74 36.63,391.19 "/><g class="Glass" id="Glass"><polygon points="59.63,391.19 59.63,584.74 36.63,584.74 36.63,391.19 "/></g><g class="Panel" id="Panel"><line x1="48.130001068115234" x2="48.130001068115234" y1="398.69000244140625" y2="577.239990234375"/><line x1="59.630001068115234" x2="36.630001068115234" y1="398.69000244140625" y2="398.69000244140625"/><line x1="59.630001068115234" x2="36.630001068115234" y1="577.239990234375" y2="577.239990234375"/></g></g><g class="Window Regular" fill="#f0f0ff" id="Window" stroke="#000000" style="fill-opacity: 1; stroke-width: 1; stroke-opacity: 1;"><polygon points="59.63,603.69 59.63,729.62 36.63,729.62 36.63,603.69 "/><g class="Glass" id="Glass"><polygon points="59.63,603.69 59.63,729.62 36.63,729.62 36.63,603.69 "/></g><g class="Panel" id="Panel"><line x1="48.130001068115234" x2="48.130001068115234" y1="611.1900024414062" y2="722.1199951171875"/><line x1="59.630001068115234" x2="36.630001068115234" y1="611.1900024414062" y2="611.1900024414062"/><line x1="59.630001068115234" x2="36.630001068115234" y1="722.1199951171875" y2="722.1199951171875"/></g></g></g><g class="Wall External" fill="#000000" id="Wall" stroke="#000000" style="fill-opacity: 1; stroke-opacity: 1; stroke-width: 1;"><polygon points="36.63,760.92 625.80,760.92 603.80,738.92 59.63,738.92 "/><g class="Door Swing Opposite" fill="#ffffff" id="Door" stroke="#000000" style="fill-opacity: 1; stroke-width: 1; stroke-opacity: 1;"><polygon points="509.92,760.92 587.09,760.92 587.09,738.92 509.92,738.92 "/><g class="Panel Left Negative" fill="none" id="Panel" style=""><g class="PanelArea" fill="none" id="PanelArea" stroke="none" style=""><polygon points="509.92,760.92 587.09,760.92 587.09,738.92 509.92,738.92 "/></g><path d="M509.92,760.92 q0.00,77.17 77.17,77.17 l0.00,-77.17Z"/></g><g class="Panel Right Positive" fill="none" id="Panel" style=""><g class="PanelArea" fill="none" id="PanelArea" stroke="none" style=""><polygon points="509.92,760.92 587.09,760.92 587.09,738.92 509.92,738.92 "/></g><path d="M509.92,738.92 q0.00,-77.17 77.17,-77.17 l0.00,77.17Z"/></g></g></g><g class="Wall External" fill="#000000" id="Wall" stroke="#000000" style="fill-opacity: 1; stroke-opacity: 1; stroke-width: 1;"><polygon points="625.80,760.92 625.80,625.68 603.80,603.68 603.80,738.92 "/></g><g class="Wall External" fill="#000000" id="Wall" stroke="#000000" style="fill-opacity: 1; stroke-opacity: 1; stroke-width: 1;"><polygon points="625.80,625.68 1066.01,625.68 1044.01,603.68 603.80,603.68 "/></g><g class="Wall External" fill="#000000" id="Wall" stroke="#000000" style="fill-opacity: 1; stroke-opacity: 1; stroke-width: 1;"><polygon points="1066.01,625.68 1066.01,51.89 1044.01,74.89 1044.01,603.68 "/><g class="Door Swing Beside" fill="#ffffff" id="Door" stroke="#000000" style="fill-opacity: 1; stroke-width: 1; stroke-opacity: 1;"><polygon points="1066.01,380.25 1066.01,313.87 1044.01,313.87 1044.01,380.25 "/><g class="Panel Right Negative" fill="none" id="Panel" style=""><g class="PanelArea" fill="none" id="PanelArea" stroke="none" style=""><polygon points="1066.01,380.25 1066.01,313.87 1044.01,313.87 1044.01,380.25 "/></g><path d="M1066.01,313.87 q66.38,0.00 66.38,66.38 l-66.38,0.00Z"/></g></g><g class="Window Regular" fill="#f0f0ff" id="Window" stroke="#000000" style="fill-opacity: 1; stroke-width: 1; stroke-opacity: 1;"><polygon points="1066.01,601.89 1066.01,400.48 1044.01,400.48 1044.01,601.89 "/><g class="Glass" id="Glass"><polygon points="1066.01,601.89 1066.01,400.48 1044.01,400.48 1044.01,601.89 "/></g><g class="Panel" id="Panel"><line x1="1055.010009765625" x2="1055.010009765625" y1="594.3900146484375" y2="407.9800109863281"/><line x1="1066.010009765625" x2="1044.010009765625" y1="594.3900146484375" y2="594.3900146484375"/><line x1="1066.010009765625" x2="1044.010009765625" y1="407.9800109863281" y2="407.9800109863281"/></g></g><g class="Window Regular" fill="#f0f0ff" id="Window" stroke="#000000" style="fill-opacity: 1; stroke-width: 1; stroke-opacity: 1;"><polygon points="1066.01,308.93 1066.01,76.37 1044.01,76.37 1044.01,308.93 "/><g class="Glass" id="Glass"><polygon points="1066.01,308.93 1066.01,76.37 1044.01,76.37 1044.01,308.93 "/></g><g class="Panel" id="Panel"><line x1="1055.010009765625" x2="1055.010009765625" y1="301.42999267578125" y2="83.87000274658203"/><line x1="1066.010009765625" x2="1044.010009765625" y1="301.42999267578125" y2="301.42999267578125"/><line x1="1066.010009765625" x2="1044.010009765625" y1="83.87000274658203" y2="83.87000274658203"/></g></g></g><g class="Wall" fill="#000000" id="Wall" stroke="#000000" style="fill-opacity: 1; stroke-opacity: 1; stroke-width: 1;"><polygon points="603.80,603.68 603.80,387.11 615.80,397.35 615.80,603.68 "/><g class="Door Swing Beside" fill="#ffffff" id="Door" stroke="#000000" style="fill-opacity: 1; stroke-width: 1; stroke-opacity: 1;"><polygon points="603.80,533.02 603.80,473.62 615.80,473.62 615.80,533.02 "/><g class="Panel Right Negative" fill="none" id="Panel" style=""><g class="PanelArea" fill="none" id="PanelArea" stroke="none" style=""><polygon points="603.80,533.02 603.80,473.62 615.80,473.62 615.80,533.02 "/></g><path d="M603.80,473.62 q-59.40,0.00 -59.40,59.40 l59.40,0.00Z"/></g></g></g><g class="Wall" fill="#000000" id="Wall" stroke="#000000" style="fill-opacity: 1; stroke-opacity: 1; stroke-width: 1;"><polygon points="603.80,387.11 1064.96,387.11 1064.96,397.35 615.80,397.35 "/><g class="Door Zfold Beside" fill="#ffffff" id="Door" stroke="#000000" style="fill-opacity: 1; stroke-width: 1; stroke-opacity: 1;"><polygon points="860.72,387.11 990.00,387.11 990.00,397.35 860.72,397.35 "/><g class="Panel Right Center" id="Panel"><g class="PanelArea" fill="none" id="PanelArea" stroke="none" style=""><polygon points="860.72,387.11 990.00,387.11 990.00,397.35 860.72,397.35 "/></g><path d="M860.72,397.35 L869.25,387.11 L877.78,397.35 L886.32,387.11 L894.85,397.35 L903.38,387.11 L911.91,397.35 L920.45,387.11 L928.98,397.35 L937.51,387.11 L946.04,397.35 "/></g></g></g><g class="Wall" fill="#000000" id="Wall" stroke="#000000" style="fill-opacity: 1; stroke-opacity: 1; stroke-width: 1;"><polygon points="676.48,397.35 676.48,457.50 615.23,457.50 615.23,397.35 "/></g><g class="Wall" fill="#000000" id="Wall" stroke="#000000" style="fill-opacity: 1; stroke-opacity: 1; stroke-width: 1;"><polygon points="378.88,760.92 378.88,520.21 368.88,510.21 368.88,760.92 "/><g class="Door Swing Beside" fill="#ffffff" id="Door" stroke="#000000" style="fill-opacity: 1; stroke-width: 1; stroke-opacity: 1;"><polygon points="378.88,668.58 378.88,607.21 368.88,607.21 368.88,668.58 "/><g class="Panel Right Negative" fill="none" id="Panel" style=""><g class="PanelArea" fill="none" id="PanelArea" stroke="none" style=""><polygon points="378.88,668.58 378.88,607.21 368.88,607.21 368.88,668.58 "/></g><path d="M378.88,607.21 q61.37,0.00 61.37,61.37 l-61.37,0.00Z"/></g></g><g class="Door Swing Beside" fill="#ffffff" id="Door" stroke="#000000" style="fill-opacity: 1; stroke-width: 1; stroke-opacity: 1;"><polygon points="378.88,586.77 378.88,526.87 368.88,526.87 368.88,586.77 "/><g class="Panel Left Positive" fill="none" id="Panel" style=""><g class="PanelArea" fill="none" id="PanelArea" stroke="none" style=""><polygon points="378.88,586.77 378.88,526.87 368.88,526.87 368.88,586.77 "/></g><path d="M368.88,526.87 q-59.90,0.00 -59.90,59.90 l59.90,0.00Z"/></g></g></g><g class="Wall" fill="#000000" id="Wall" stroke="#000000" style="fill-opacity: 1; stroke-opacity: 1; stroke-width: 1;"><polygon points="378.88,520.21 345.65,520.21 375.58,510.21 378.88,510.21 "/></g><g class="Wall" fill="#000000" id="Wall" stroke="#000000" style="fill-opacity: 1; stroke-opacity: 1; stroke-width: 1;"><polygon points="345.65,520.21 345.65,387.22 375.58,377.22 375.58,510.21 "/></g><g class="Wall" fill="#000000" id="Wall" stroke="#000000" style="fill-opacity: 1; stroke-opacity: 1; stroke-width: 1;"><polygon points="345.65,387.22 36.63,387.22 36.63,377.22 375.58,377.22 "/></g><g class="Wall" fill="#000000" id="Wall" stroke="#000000" style="fill-opacity: 1; stroke-opacity: 1; stroke-width: 1;"><polygon points="355.65,377.89 476.70,377.89 486.70,387.89 355.65,387.89 "/></g><g class="Wall" fill="#000000" id="Wall" stroke="#000000" style="fill-opacity: 1; stroke-opacity: 1; stroke-width: 1;"><polygon points="486.70,377.89 486.70,520.21 476.70,510.21 476.70,377.89 "/></g><g class="Wall" fill="#000000" id="Wall" stroke="#000000" style="fill-opacity: 1; stroke-opacity: 1; stroke-width: 1;"><polygon points="476.70,510.21 368.88,510.21 378.88,520.21 486.70,520.21 "/><g class="Door Swing Beside" fill="#ffffff" id="Door" stroke="#000000" style="fill-opacity: 1; stroke-width: 1; stroke-opacity: 1;"><polygon points="473.47,510.21 415.37,510.21 415.37,520.21 473.47,520.21 "/><g class="Panel Right Positive" fill="none" id="Panel" style=""><g class="PanelArea" fill="none" id="PanelArea" stroke="none" style=""><polygon points="473.47,510.21 415.37,510.21 415.37,520.21 473.47,520.21 "/></g><path d="M473.47,520.21 q0.00,58.10 -58.10,58.10 l0.00,-58.10Z"/></g></g></g><g class="Wall" fill="#000000" id="Wall" stroke="#000000" style="fill-opacity: 1; stroke-opacity: 1; stroke-width: 1;"><polygon points="486.70,387.89 486.70,51.89 476.70,51.89 476.70,377.89 "/><g class="Door Swing Beside" fill="#ffffff" id="Door" stroke="#000000" style="fill-opacity: 1; stroke-width: 1; stroke-opacity: 1;"><polygon points="486.70,367.57 486.70,302.32 476.70,302.32 476.70,367.57 "/><g class="Panel Left Positive" fill="none" id="Panel" style=""><g class="PanelArea" fill="none" id="PanelArea" stroke="none" style=""><polygon points="486.70,367.57 486.70,302.32 476.70,302.32 476.70,367.57 "/></g><path d="M476.70,302.32 q-65.25,0.00 -65.25,65.25 l65.25,0.00Z"/></g></g></g><g class="Wall" fill="#000000" id="Wall" stroke="#000000" style="fill-opacity: 1; stroke-opacity: 1; stroke-width: 1;"><polygon points="378.88,601.68 36.63,601.68 36.63,591.68 378.88,591.68 "/><g class="Door Swing Beside" fill="#ffffff" id="Door" stroke="#000000" style="fill-opacity: 1; stroke-width: 1; stroke-opacity: 1;"><polygon points="123.79,601.68 68.39,601.68 68.39,591.68 123.79,591.68 "/><g class="Panel Right Positive" fill="none" id="Panel" style=""><g class="PanelArea" fill="none" id="PanelArea" stroke="none" style=""><polygon points="123.79,601.68 68.39,601.68 68.39,591.68 123.79,591.68 "/></g><path d="M123.79,591.68 q0.00,-55.40 -55.40,-55.40 l0.00,55.40Z"/></g></g></g><g class="Wall" fill="#000000" id="Wall" stroke="#000000" style="fill-opacity: 1; stroke-opacity: 1; stroke-width: 1;"><polygon points="182.94,760.92 182.94,591.68 173.94,591.68 173.94,760.92 "/></g><g class="Wall" fill="#000000" id="Wall" stroke="#000000" style="fill-opacity: 1; stroke-opacity: 1; stroke-width: 1;"><polygon points="129.15,760.92 129.15,680.77 174.14,680.77 174.14,760.92 "/></g><g class="Wall" fill="#000000" id="Wall" stroke="#000000" style="fill-opacity: 1; stroke-opacity: 1; stroke-width: 1;"><polygon points="1066.01,625.68 1197.86,625.68 1197.86,616.68 1066.01,616.68 "/></g><g class="Wall" fill="#000000" id="Wall" stroke="#000000" style="fill-opacity: 1; stroke-opacity: 1; stroke-width: 1;"><polygon points="1066.01,51.89 1197.86,51.89 1197.86,60.89 1066.01,60.89 "/></g><g class="Wall" fill="#000000" id="Wall" stroke="#000000" style="fill-opacity: 1; stroke-opacity: 1; stroke-width: 1;"><polygon points="1134.53,397.35 1196.48,397.35 1196.48,387.35 1134.53,387.35 "/></g><g class="Railing" fill="#ffffff" id="Railing" stroke="#000000" style="fill-opacity: 1; stroke-opacity: 1; stroke-width: 1;"><polygon points="1197.86,60.89 1197.86,625.68 1188.86,625.68 1188.86,60.89 "/></g><g class="FixedFurniture CoatCloset" fill="#ffffff" stroke="#000000" style="fill-opacity: 1; stroke-opacity: 1;" transform="matrix(-1,0,0,-1,493.8515,738.8455)">
<g class="BoundaryPolygon">
<polygon points="0.00,0.00 114.97,0.00 114.97,50.74 0.00,50.74 "/>
</g>

<g class="Direction" fill-opacity="0.9" style="display: none;">
<polygon fill="#444444" points="58.93,46.11 58.93,35.49 55.92,35.49 55.92,46.11 52.12,46.11 57.42,51.41 62.72,46.11 58.93,46.11 "/>
</g>
<g class="Name" fill-opacity="0.9" style="display: none;">

</g>
<desc>Width:120 Height:200 Depth:60 Elevation:0</desc>
</g><g class="FixedFurniture ElectricalAppliance SpaceForAppliance2" fill="#ffffff" stroke="#000000" style="fill-opacity: 1; stroke-opacity: 1;" transform="matrix(-1,0,0,-1,368.8815,738.8455)">
<g class="BoundaryPolygon">
<polygon points="0,0 60,0 60,60 0,60"/>
</g>
<g class="electricitySign" fill="none">
<path d="M0,0,30.1,39.8V19.4L59.9,60"/>
</g>
<g class="Direction" fill-opacity="0.9" style="display: none;">
<polygon fill="#444444" points="32.009 55.197 32.009 44.581 29 44.581 29 55.197 25.197 55.197 30.5 60 35.803 55.197 32.009 55.197"/>
</g>
<g class="Name" fill-opacity="0.9" style="display: none;">

</g>
<desc>Width:60 Height:90 Depth:60 Elevation:0</desc>
</g><g class="FixedFurniture Shower" fill="#ffffff" stroke="#000000" style="fill-opacity: 1; stroke-opacity: 1;" transform="matrix(-1,0,0,-1,232.4622,738.9236)">
<g class="BoundaryPolygon" fill="none" stroke="none">
<polygon points="0,0 32,0 32,19 0,19"/>
</g>
<g class="InnerPolygon">
<rect height="6.1" width="11.2" x="3.7" y="0.5"/>
<rect height="6.1" width="11.2" x="17.6" y="0.5"/>
<rect height="6.1" width="3.4" x="28.7" y="0.5"/>
<rect height="6.1" width="3.2" x="0.5" y="0.5"/>
<path d="M14.9,8.5c0,1.5-0.4,3.3-1.6,5    c-0.4,0.6-1,1.1-1.1,1.7c-0.2,1.1,0.3,2.8,2.5,3.2c0.5,0.1,1.3,0.1,1.6,0.1h-0.1c0.3,0,1.1,0,1.6-0.1c2.2-0.4,2.7-2.1,2.5-3.2    c-0.1-0.6-0.7-1.1-1.1-1.7c-1.2-1.7-1.6-3.5-1.6-5"/>
<path d="M12.2,15.3c0.1,0.2,1.6,1.9,4.2,1.9 c2.4-0.1,3.7-1.7,3.9-1.9"/>
<path d="M14.9,0.5h2.7v8c-0.9,0-1.8,0-2.7,0l0,0 C14.9,5.9,14.9,3.2,14.9,0.5z"/>
</g>
<g class="Indicator">
<path d="M3.7,3.6C5,3.1,5.2,3,5.2,3 c0,1.1,0,0,0,1.1C5.2,4.1,5.1,4.1,3.7,3.6"/>
<path d="M28.7,3.6 C27.4,3.1,27.2,3,27.2,3c0,1.1,0,0,0,1.1C27.2,4.1,27.3,4.1,28.7,3.6"/>
</g>
<desc>Width:32 Height:97 Depth:19 Elevation:135</desc>
</g><g class="FixedFurniture Misc" fill="none" stroke="#000000" style="fill-opacity: 1; stroke-opacity: 1; stroke-width: 1.8; stroke-dasharray: 5, 5;" transform="matrix(1,0,0,1,248.4373,738.8083)"><desc>Width:120 Height:200 Depth:60 Elevation:0</desc><g class="BoundaryPolygon"><path d="M0.00,0.00 L0.00,-74.67 L-65.05,-74.67 "/></g></g><g class="FixedFurniture Closet" fill="#ffffff" stroke="#000000" style="fill-opacity: 1; stroke-opacity: 1;" transform="matrix(-1,0,0,-1,128.729,738.9236)">
<g class="BoundaryPolygon">
<polygon points="0.00,0.00 69.10,0.00 69.10,57.58 0.00,57.58 "/>
</g>
<g class="Direction" fill-opacity="0.9" style="display: none;">
<polygon fill="#444444" points="36.29,52.49 36.29,41.88 33.28,41.88 33.28,52.49 29.48,52.49 34.78,57.80 40.08,52.49 36.29,52.49 "/>
</g>
<g class="Name" fill-opacity="0.9" style="display: none;">

</g>
<desc>Width:60 Height:200 Depth:60 Elevation:0</desc>
</g><g class="FixedFurniture CoatCloset" fill="#ffffff" stroke="#000000" style="fill-opacity: 1; stroke-opacity: 1;" transform="matrix(0,1,-1,0,173.9408,602.024)">
<g class="BoundaryPolygon">
<polygon points="0.00,0.00 78.75,0.00 78.75,44.39 0.00,44.39 "/>
</g>

<g class="Direction" fill-opacity="0.9" style="display: none;">
<polygon fill="#444444" points="40.36,40.33 40.36,29.72 37.36,29.72 37.36,40.33 33.55,40.33 38.86,45.64 44.16,40.33 40.36,40.33 "/>
</g>
<g class="Name" fill-opacity="0.9" style="display: none;">

</g>
<desc>Width:120 Height:200 Depth:60 Elevation:0</desc>
</g><g class="FixedFurniture Toilet" fill="#ffffff" stroke="#000000" style="fill-opacity: 1; stroke-opacity: 1;" transform="matrix(1,0,0,1,428.197,387.8937)">
<g class="BoundaryPolygon" fill="none" stroke="none">
<polygon points="0,0 41,0 41,71 0,71"/>
</g>
<g class="InnerPolygon">
<rect height="17.98" width="39.989" x="0.502" y="0.5"/>
<path d="M40.491,44.237S41.619,70.5,20.907,70.5C-.523,70.5.6,44.237.6,44.237L.5,18.48H40.491Z"/>
<rect height="3.03" width="6.357" x="17.318" y="7.975"/>
</g>
<desc>Width:41 Height:85 Depth:71 Elevation:0</desc>
</g><g class="FixedFurniture Closet" fill="#ffffff" stroke="#000000" style="fill-opacity: 1; stroke-opacity: 1;" transform="matrix(0,1,-1,0,476.6362,251.5654)">
<g class="BoundaryPolygon">
<polygon points="0.00,0.00 45.70,0.00 45.70,46.61 0.00,46.61 "/>
</g>
<g class="Direction" fill-opacity="0.9" style="display: none;">
<polygon fill="#444444" points="24.00,42.49 24.00,31.87 20.99,31.87 20.99,42.49 17.19,42.49 22.49,47.79 27.79,42.49 24.00,42.49 "/>
</g>
<g class="Name" fill-opacity="0.9" style="display: none;">

</g>
<desc>Width:60 Height:200 Depth:60 Elevation:0</desc>
</g><g class="FixedFurniture Closet" fill="#ffffff" stroke="#000000" style="fill-opacity: 1; stroke-opacity: 1;" transform="matrix(0,1,-1,0,476.6987,209.0054)">
<g class="BoundaryPolygon">
<polygon points="0.00,0.00 42.56,0.00 42.56,46.61 0.00,46.61 "/>
</g>
<g class="Direction" fill-opacity="0.9" style="display: none;">
<polygon fill="#444444" points="22.35,42.49 22.35,31.87 19.34,31.87 19.34,42.49 15.54,42.49 20.84,47.79 26.14,42.49 22.35,42.49 "/>
</g>
<g class="Name" fill-opacity="0.9" style="display: none;">

</g>
<desc>Width:60 Height:200 Depth:60 Elevation:0</desc>
</g><g class="FixedFurniture Closet" fill="#ffffff" stroke="#000000" style="fill-opacity: 1; stroke-opacity: 1;" transform="matrix(0,1,-1,0,476.6831,164.5953)">
<g class="BoundaryPolygon">
<polygon points="0.00,0.00 44.41,0.00 44.41,46.61 0.00,46.61 "/>
</g>
<g class="Direction" fill-opacity="0.9" style="display: none;">
<polygon fill="#444444" points="23.32,42.49 23.32,31.87 20.31,31.87 20.31,42.49 16.51,42.49 21.81,47.79 27.11,42.49 23.32,42.49 "/>
</g>
<g class="Name" fill-opacity="0.9" style="display: none;">

</g>
<desc>Width:60 Height:200 Depth:60 Elevation:0</desc>
</g><g class="FixedFurniture Closet" fill="#ffffff" stroke="#000000" style="fill-opacity: 1; stroke-opacity: 1;" transform="matrix(0,1,-1,0,476.6831,118.9554)">
<g class="BoundaryPolygon">
<polygon points="0.00,0.00 45.64,0.00 45.64,46.61 0.00,46.61 "/>
</g>
<g class="Direction" fill-opacity="0.9" style="display: none;">
<polygon fill="#444444" points="23.97,42.49 23.97,31.87 20.96,31.87 20.96,42.49 17.16,42.49 22.46,47.79 27.76,42.49 23.97,42.49 "/>
</g>
<g class="Name" fill-opacity="0.9" style="display: none;">

</g>
<desc>Width:60 Height:200 Depth:60 Elevation:0</desc>
</g><g class="FixedFurniture Closet" fill="#ffffff" stroke="#000000" style="fill-opacity: 1; stroke-opacity: 1;" transform="matrix(0,1,-1,0,476.6831,74.7554)">
<g class="BoundaryPolygon">
<polygon points="0.00,0.00 44.20,0.00 44.20,46.61 0.00,46.61 "/>
</g>
<g class="Direction" fill-opacity="0.9" style="display: none;">
<polygon fill="#444444" points="23.21,42.49 23.21,31.87 20.20,31.87 20.20,42.49 16.40,42.49 21.70,47.79 27.00,42.49 23.21,42.49 "/>
</g>
<g class="Name" fill-opacity="0.9" style="display: none;">

</g>
<desc>Width:60 Height:200 Depth:60 Elevation:0</desc>
</g><g class="FixedFurniture Closet" fill="#ffffff" stroke="#000000" style="fill-opacity: 1; stroke-opacity: 1;" transform="matrix(-1,0,0,-1,657.1092,603.5691)">
<g class="BoundaryPolygon">
<polygon points="0.00,0.00 41.31,0.00 41.31,60.00 0.00,60.00 "/>
</g>
<g class="Direction" fill-opacity="0.9" style="display: none;">
<polygon fill="#444444" points="21.70,54.70 21.70,44.08 18.69,44.08 18.69,54.70 14.88,54.70 20.19,60.00 25.49,54.70 21.70,54.70 "/>
</g>
<g class="Name" fill-opacity="0.9" style="display: none;">

</g>
<desc>Width:60 Height:200 Depth:60 Elevation:0</desc>
</g><g class="FixedFurniture Closet" fill="#ffffff" stroke="#000000" style="fill-opacity: 1; stroke-opacity: 1;" transform="matrix(-1,0,0,-1,708.0192,603.5691)">
<g class="BoundaryPolygon">
<polygon points="0.00,0.00 50.91,0.00 50.91,60.00 0.00,60.00 "/>
</g>
<g class="Direction" fill-opacity="0.9" style="display: none;">
<polygon fill="#444444" points="26.74,54.70 26.74,44.08 23.73,44.08 23.73,54.70 19.92,54.70 25.23,60.00 30.53,54.70 26.74,54.70 "/>
</g>
<g class="Name" fill-opacity="0.9" style="display: none;">

</g>
<desc>Width:60 Height:200 Depth:60 Elevation:0</desc>
</g><g class="FixedFurniture BaseCabinet" fill="#ffffff" stroke="#000000" style="fill-opacity: 1; stroke-opacity: 1;" transform="matrix(-1,0,0,-1,859.6792,603.5691)">
<g class="BoundaryPolygon">
<polygon points="0.00,0.00 151.66,0.00 151.66,60.00 0.00,60.00 "/>
</g>
<g class="Direction" fill-opacity="0.9" style="display: none;">
<polygon fill="#444444" points="80.91,55.20 80.91,44.58 77.90,44.58 77.90,55.20 74.10,55.20 79.40,60.00 84.70,55.20 80.91,55.20 "/>
</g>
<g class="Name" fill-opacity="0.9" style="display: none;">

</g>
<desc>Width:60 Height:90 Depth:60 Elevation:0</desc>
</g><g class="FixedFurniture BaseCabinet" fill="#ffffff" stroke="#000000" style="fill-opacity: 1; stroke-opacity: 1;" transform="matrix(1,0,0,1,676.4756,397.3466)">
<g class="BoundaryPolygon">
<polygon points="0.00,0.00 183.42,0.00 183.42,60.00 0.00,60.00 "/>
</g>
<g class="Direction" fill-opacity="0.9" style="display: none;">
<polygon fill="#444444" points="97.85,55.20 97.85,44.58 94.84,44.58 94.84,55.20 91.04,55.20 96.34,60.00 101.65,55.20 97.85,55.20 "/>
</g>
<g class="Name" fill-opacity="0.9" style="display: none;">

</g>
<desc>Width:60 Height:90 Depth:60 Elevation:0</desc>
</g><g class="FixedFurniture Sink" fill="#ffffff" stroke="#000000" style="fill-opacity: 1; stroke-opacity: 1;" transform="matrix(1,0,0,1,676.4755,397.3466)">
<g class="BoundaryPolygon" fill="none" stroke="none">
<polygon points="0.00,0.00 64.07,0.00 64.07,60.00 0.00,60.00 "/>
</g>
<g class="InnerPolygon">
<polygon points="5.34,9.70 58.73,9.70 58.73,54.70 5.34,54.70 "/>
</g>
<g class="OuterDrain" stroke-width="0.8">
<circle cx="32.035442078467455" cy="32.2" r="3.5"/>
</g>
<g class="InnerDrain" stroke-width="0.8">
<circle cx="32.035442078467455" cy="32.2" r="2"/>
</g>
<g class="Faucet">
<polygon points="28.83,5.00 34.83,5.00 34.83,19.00 28.83,19.00 "/>
</g>
<g class="Direction" fill-opacity="0.9" style="display: none;">
<polygon fill="#444444" points="34.18,55.20 34.18,44.58 31.17,44.58 31.17,55.20 27.37,55.20 32.67,60.00 37.97,55.20 34.18,55.20 "/>
</g>
<g class="Name" fill-opacity="0.9" style="display: none;">

</g>
<desc>Width:60 Height:90 Depth:60 Elevation:0</desc>
</g><g class="FixedFurniture ElectricalAppliance IntegratedStove" fill="#ffffff" stroke="#000000" style="fill-opacity: 1; stroke-opacity: 1;" transform="matrix(1,0,0,1,774.149,397.3466)">
<g class="BoundaryPolygon" fill="none" stroke="none">
<polygon points="0.00,0.00 62.74,0.00 62.74,60.00 0.00,60.00 "/>
</g>
<g class="InnerPolygon">
<polygon points="2.00,2.00 60.65,2.00 60.65,58.00 2.00,58.00 "/>
</g>
<g class="OuterCircle">
<circle cx="16.73127374844675" cy="16" r="8"/>
<circle cx="46.01100280822857" cy="16" r="8"/>
<circle cx="16.73127374844675" cy="44" r="8"/>
<circle cx="46.01100280822857" cy="44" r="8"/>
</g>
<g class="Direction" fill-opacity="0.9" style="display: none;">
<polygon fill="#444444" points="33.47,55.20 33.47,44.58 30.46,44.58 30.46,55.20 26.66,55.20 31.96,60.00 37.27,55.20 33.47,55.20 "/>
</g>
<g class="Name" fill-opacity="0.9" style="display: none;">

</g>
<desc>Width:60 Height:90 Depth:30 Elevation:0</desc>
</g><g class="FixedFurnitureSet" fill="#ffffff" id="FixedFurnitureSet" stroke="#000000" style="fill-opacity: 0.4; stroke-opacity: 0.4;" transform="matrix(-1,0,0,-1,304.561,738.8107)"><g class="FixedFurniture BaseCabinet" fill="#ffffff" stroke="#000000" style="fill-opacity: 1; stroke-opacity: 1;" transform="matrix(1,0,0,1,0,0)">
<g class="BoundaryPolygon">
<polygon points="0.00,0.00 51.17,0.00 51.17,41.06 0.00,41.06 "/>
</g>
<g class="Direction" fill-opacity="0.9" style="display: none;">
<polygon fill="#444444" points="27.30,37.77 27.30,27.16 24.29,27.16 24.29,37.77 20.49,37.77 25.79,42.58 31.09,37.77 27.30,37.77 "/>
</g>
<g class="Name" fill-opacity="0.9" style="display: none;">

</g>
<desc>Width:60 Height:5 Depth:60 Elevation:105</desc>
</g><g class="FixedFurniture Sink" fill="#ffffff" stroke="#000000" style="fill-opacity: 1; stroke-opacity: 1;" transform="matrix(1,0,0,1,0,0)">
<g class="BoundaryPolygon" fill="none" stroke="none">
<polygon points="0.00,0.00 51.17,0.00 51.17,41.06 0.00,41.06 "/>
</g>
<g class="InnerPolygon">
<polygon points="4.26,9.70 46.91,9.70 46.91,37.43 4.26,37.43 "/>
</g>
<g class="OuterDrain" stroke-width="0.8">
<circle cx="25.58552246225387" cy="22.036574277491145" r="3.5"/>
</g>
<g class="InnerDrain" stroke-width="0.8">
<circle cx="25.58552246225387" cy="22.036574277491145" r="2"/>
</g>
<g class="Faucet">
<polygon points="23.03,3.42 29.03,3.42 29.03,17.42 23.03,17.42 "/>
</g>
<g class="Direction" fill-opacity="0.9" style="display: none;">
<polygon fill="#444444" points="27.30,37.77 27.30,27.16 24.29,27.16 24.29,37.77 20.49,37.77 25.79,42.58 31.09,37.77 27.30,37.77 "/>
</g>
<g class="Name" fill-opacity="0.9" style="display: none;">

</g>
<desc>Width:60 Height:90 Depth:60 Elevation:0</desc>
</g></g><g class="FixedFurnitureSet" fill="#ffffff" id="FixedFurnitureSet" stroke="#000000" style="fill-opacity: 0.4; stroke-opacity: 0.4;" transform="matrix(0,-1,1,0,375.7207,504.0639)"><g class="FixedFurniture BaseCabinet" fill="#ffffff" stroke="#000000" style="fill-opacity: 1; stroke-opacity: 1;" transform="matrix(1,0,0,1,0,0)">
<g class="BoundaryPolygon">
<polygon points="0.00,0.00 53.85,0.00 53.85,39.36 0.00,39.36 "/>
</g>
<g class="Direction" fill-opacity="0.9" style="display: none;">
<polygon fill="#444444" points="28.73,36.21 28.73,25.59 25.72,25.59 25.72,36.21 21.92,36.21 27.22,41.01 32.52,36.21 28.73,36.21 "/>
</g>
<g class="Name" fill-opacity="0.9" style="display: none;">

</g>
<desc>Width:60 Height:5 Depth:60 Elevation:105</desc>
</g><g class="FixedFurniture Sink" fill="#ffffff" stroke="#000000" style="fill-opacity: 1; stroke-opacity: 1;" transform="matrix(1,0,0,1,0,0)">
<g class="BoundaryPolygon" fill="none" stroke="none">
<polygon points="0.00,0.00 53.85,0.00 53.85,39.36 0.00,39.36 "/>
</g>
<g class="InnerPolygon">
<polygon points="4.49,9.70 49.37,9.70 49.37,35.88 4.49,35.88 "/>
</g>
<g class="OuterDrain" stroke-width="0.8">
<circle cx="26.926906943793544" cy="21.124001651266347" r="3.5"/>
</g>
<g class="InnerDrain" stroke-width="0.8">
<circle cx="26.926906943793544" cy="21.124001651266347" r="2"/>
</g>
<g class="Faucet">
<polygon points="24.23,3.28 30.23,3.28 30.23,17.28 24.23,17.28 "/>
</g>
<g class="Direction" fill-opacity="0.9" style="display: none;">
<polygon fill="#444444" points="28.73,36.21 28.73,25.59 25.72,25.59 25.72,36.21 21.92,36.21 27.22,41.01 32.52,36.21 28.73,36.21 "/>
</g>
<g class="Name" fill-opacity="0.9" style="display: none;">

</g>
<desc>Width:60 Height:90 Depth:60 Elevation:0</desc>
</g></g></g></g></g></svg>