<?xml version="1.0" encoding="utf-8"?>
<svg height="1481.4999542236328" id="temp" version="1.1" viewBox="0 0 1027.1700592041016 1481.4999542236328" width="1027.1700592041016" xmlns="http://www.w3.org/2000/svg" xmlns:xlink="http://www.w3.org/1999/xlink"><defs/><g class="Model v1-1" id="Model"><g class="Floor"><g class="Floorplan Floor-1" id="Floor-1" transform="matrix(1,0,0,1,0,0)"><g class="Space Outdoor Terrace" fill="#ffffff" id="287705c9-c463-4079-934d-32f27ba1cf62" stroke="#000000" style="fill-opacity: 1; stroke-opacity: 1; stroke-width: 1;"><polygon points="1014.17,363.95 1014.17,108.42 233.80,108.42 233.80,363.95 1027.17,363.95 1014.17,363.95 "/><g class="Dimension" transform="matrix(1,0,0,1,233.8,108.42)"><g class="Visual" style="display: none;" transform="matrix(1,0,0,1,0,0)"><g class="DimensionMark" fill="#000000" id="mark1" stroke="none" style="fill-opacity: 1; pointer-events: visible;" transform="matrix(1,0,0,1,396.685,0)"><polygon points="-5,5,0,0,5,5"/></g><g class="DimensionMark" fill="#000000" id="mark2" stroke="none" style="fill-opacity: 1; pointer-events: visible;" transform="matrix(1,0,0,1,780.37,127.765)"><polygon points="-5,-5,0,0,-5,5"/></g><g class="DimensionMark" fill="#000000" id="mark3" stroke="none" style="fill-opacity: 1; pointer-events: visible;" transform="matrix(1,0,0,1,396.685,255.53)"><polygon points="-5,-5,0,0,5,-5"/></g><g class="DimensionMark" fill="#000000" id="mark4" stroke="none" style="fill-opacity: 1; pointer-events: visible;" transform="matrix(1,0,0,1,0,127.765)"><polygon points="5,5,0,0,5,-5"/></g></g><g class="SpaceDimensionsLabel" transform="matrix(1,0,0,1,321.3148,111.2362)"><g class="TextLabel NameLabel" id="NameLabel" style="display: block;"/><g class="TextLabel DimensionMeasureLabel" id="DimensionMeasureLabel" style="display: none;" transform="matrix(1,0,0,1,-67.6563,79.8906)"/></g></g></g><g class="Space Undefined" fill="#ffffff" id="3050e169-d6f1-4c19-a488-c3c5006b8e18" stroke="#ffffff" style="fill-opacity: 1; stroke-opacity: 1; stroke-width: 1;"><polygon points="380.49,967.90 244.80,967.90 244.80,793.32 380.49,793.32 "/><g class="Dimension" transform="matrix(1,0,0,1,244.8048,793.3243)"><g class="Visual" style="display: none;" transform="matrix(1,0,0,1,0,0)"><g class="DimensionMark" fill="#000000" id="mark1" stroke="none" style="fill-opacity: 1; pointer-events: visible;" transform="matrix(1,0,0,1,67.8411,0)"><polygon points="-5,5,0,0,5,5"/></g><g class="DimensionMark" fill="#000000" id="mark2" stroke="none" style="fill-opacity: 1; pointer-events: visible;" transform="matrix(1,0,0,1,135.6821,87.2896)"><polygon points="-5,-5,0,0,-5,5"/></g><g class="DimensionMark" fill="#000000" id="mark3" stroke="none" style="fill-opacity: 1; pointer-events: visible;" transform="matrix(1,0,0,1,67.8411,174.5792)"><polygon points="-5,-5,0,0,5,-5"/></g><g class="DimensionMark" fill="#000000" id="mark4" stroke="none" style="fill-opacity: 1; pointer-events: visible;" transform="matrix(1,0,0,1,0,87.2896)"><polygon points="5,5,0,0,5,-5"/></g></g><g class="SpaceDimensionsLabel" transform="matrix(1,0,0,1,13.9698,109.3278)"><g class="TextLabel NameLabel" id="NameLabel" style="display: block;"/><g class="TextLabel DimensionMeasureLabel" id="DimensionMeasureLabel" style="display: none;" transform="matrix(1,0,0,1,-40.5313,80.0938)"/></g></g></g><g class="Space UserDefined" fill="#ffffff" id="35b51790-f1ed-485c-9201-c47c0cac2761" stroke="#ffffff" style="fill-opacity: 1; stroke-opacity: 1; stroke-width: 1;"><polygon points="599.88,967.90 391.49,967.90 391.49,727.52 599.88,727.52 "/><g class="Dimension" transform="matrix(1,0,0,1,391.4869,727.5226)"><g class="Visual" style="display: none;" transform="matrix(1,0,0,1,0,0)"><g class="DimensionMark" fill="#000000" id="mark1" stroke="none" style="fill-opacity: 1; pointer-events: visible;" transform="matrix(1,0,0,1,104.1976,0)"><polygon points="-5,5,0,0,5,5"/></g><g class="DimensionMark" fill="#000000" id="mark2" stroke="none" style="fill-opacity: 1; pointer-events: visible;" transform="matrix(1,0,0,1,208.3952,120.1905)"><polygon points="-5,-5,0,0,-5,5"/></g><g class="DimensionMark" fill="#000000" id="mark3" stroke="none" style="fill-opacity: 1; pointer-events: visible;" transform="matrix(1,0,0,1,104.1976,240.381)"><polygon points="-5,-5,0,0,5,-5"/></g><g class="DimensionMark" fill="#000000" id="mark4" stroke="none" style="fill-opacity: 1; pointer-events: visible;" transform="matrix(1,0,0,1,0,120.1905)"><polygon points="5,5,0,0,5,-5"/></g></g><g class="SpaceDimensionsLabel" transform="matrix(1,0,0,1,27.083,119.9852)"><g class="TextLabel NameLabel" id="NameLabel" style="display: block;"/><g class="TextLabel DimensionMeasureLabel" id="DimensionMeasureLabel" style="display: none;" transform="matrix(1,0,0,1,-62.5078,80.0938)"/></g></g></g><g class="Space Storage" fill="#ffffff" id="9e8a8406-a0ba-498c-b1d9-b97f74818e00" stroke="#ffffff" style="fill-opacity: 1; stroke-opacity: 1; stroke-width: 1;"><polygon points="1003.17,1282.30 739.75,1282.30 739.75,1057.13 1003.17,1057.13 "/><g class="Dimension" transform="matrix(1,0,0,1,739.7455,1057.127)"><g class="Visual" style="display: none;" transform="matrix(1,0,0,1,0,0)"><g class="DimensionMark" fill="#000000" id="mark1" stroke="none" style="fill-opacity: 1; pointer-events: visible;" transform="matrix(1,0,0,1,131.7104,0)"><polygon points="-5,5,0,0,5,5"/></g><g class="DimensionMark" fill="#000000" id="mark2" stroke="none" style="fill-opacity: 1; pointer-events: visible;" transform="matrix(1,0,0,1,263.4208,112.5857)"><polygon points="-5,-5,0,0,-5,5"/></g><g class="DimensionMark" fill="#000000" id="mark3" stroke="none" style="fill-opacity: 1; pointer-events: visible;" transform="matrix(1,0,0,1,131.7104,225.1715)"><polygon points="-5,-5,0,0,5,-5"/></g><g class="DimensionMark" fill="#000000" id="mark4" stroke="none" style="fill-opacity: 1; pointer-events: visible;" transform="matrix(1,0,0,1,0,112.5857)"><polygon points="5,5,0,0,5,-5"/></g></g><g class="SpaceDimensionsLabel" transform="matrix(1,0,0,1,100.1969,133.9747)"><g class="TextLabel NameLabel" id="NameLabel" style="display: block;"/><g class="TextLabel DimensionMeasureLabel" id="DimensionMeasureLabel" style="display: none;" transform="matrix(1,0,0,1,-105.4531,80.0938)"/></g></g></g><g class="Space Bedroom" fill="#ffffff" id="56833cb5-60c4-4160-877b-8776946412bb" stroke="#ffffff" style="fill-opacity: 1; stroke-opacity: 1; stroke-width: 1;"><polygon points="533.03,1282.30 244.80,1282.30 244.80,978.90 533.03,978.90 "/><g class="Dimension" transform="matrix(1,0,0,1,244.8048,978.9036)"><g class="Visual" style="display: none;" transform="matrix(1,0,0,1,0,0)"><g class="DimensionMark" fill="#000000" id="mark1" stroke="none" style="fill-opacity: 1; pointer-events: visible;" transform="matrix(1,0,0,1,144.1141,0)"><polygon points="-5,5,0,0,5,5"/></g><g class="DimensionMark" fill="#000000" id="mark2" stroke="none" style="fill-opacity: 1; pointer-events: visible;" transform="matrix(1,0,0,1,288.2281,151.6975)"><polygon points="-5,-5,0,0,-5,5"/></g><g class="DimensionMark" fill="#000000" id="mark3" stroke="none" style="fill-opacity: 1; pointer-events: visible;" transform="matrix(1,0,0,1,144.1141,303.3949)"><polygon points="-5,-5,0,0,5,-5"/></g><g class="DimensionMark" fill="#000000" id="mark4" stroke="none" style="fill-opacity: 1; pointer-events: visible;" transform="matrix(1,0,0,1,0,151.6975)"><polygon points="5,5,0,0,5,-5"/></g></g><g class="SpaceDimensionsLabel" transform="matrix(1,0,0,1,121.9475,167.4288)"><g class="TextLabel NameLabel" id="NameLabel" style="display: block;"/><g class="TextLabel DimensionMeasureLabel" id="DimensionMeasureLabel" style="display: none;" transform="matrix(1,0,0,1,-113.7031,80.0938)"/></g></g></g><g class="Space Bedroom" fill="#ffffff" id="b3329644-8b68-407e-8af8-32f084dff09b" stroke="#ffffff" style="fill-opacity: 1; stroke-opacity: 1; stroke-width: 1;"><polygon points="512.46,716.52 391.49,716.52 391.49,665.03 244.80,665.03 244.80,387.95 512.46,387.95 "/><g class="Dimension" transform="matrix(1,0,0,1,244.8048,387.9479)"><g class="Visual" style="display: none;" transform="matrix(1,0,0,1,0,0)"><g class="DimensionMark" fill="#000000" id="mark1" stroke="none" style="fill-opacity: 1; pointer-events: visible;" transform="matrix(1,0,0,1,146.6821,0)"><polygon points="-5,5,0,0,5,5"/></g><g class="DimensionMark" fill="#000000" id="mark2" stroke="none" style="fill-opacity: 1; pointer-events: visible;" transform="matrix(1,0,0,1,267.6566,164.2874)"><polygon points="-5,-5,0,0,-5,5"/></g><g class="DimensionMark" fill="#000000" id="mark3" stroke="none" style="fill-opacity: 1; pointer-events: visible;" transform="matrix(1,0,0,1,146.6821,328.5747)"><polygon points="-5,-5,0,0,5,-5"/></g><g class="DimensionMark" fill="#000000" id="mark4" stroke="none" style="fill-opacity: 1; pointer-events: visible;" transform="matrix(1,0,0,1,0,164.2874)"><polygon points="5,5,0,0,5,-5"/></g></g><g class="SpaceDimensionsLabel" transform="matrix(1,0,0,1,110.1013,153.3924)"><g class="TextLabel NameLabel" id="NameLabel" style="display: block;"/><g class="TextLabel DimensionMeasureLabel" id="DimensionMeasureLabel" style="display: none;" transform="matrix(1,0,0,1,-113.7031,80.0938)"/></g></g></g><g class="Space Closet WalkIn" fill="#ffffff" id="6b4188ef-753e-437a-bb97-5ed626ed29ed" stroke="#ffffff" style="fill-opacity: 1; stroke-opacity: 1; stroke-width: 1;"><polygon points="391.49,666.18 380.49,666.18 380.49,782.32 244.80,782.32 244.80,665.03 391.49,665.03 "/><g class="Dimension" transform="matrix(1,0,0,1,244.8048,665.0302)"><g class="Visual" style="display: none;" transform="matrix(1,0,0,1,0,0)"><g class="DimensionMark" fill="#000000" id="mark1" stroke="none" style="fill-opacity: 1; pointer-events: visible;" transform="matrix(1,0,0,1,73.3411,0)"><polygon points="-5,5,0,0,5,5"/></g><g class="DimensionMark" fill="#000000" id="mark2" stroke="none" style="fill-opacity: 1; pointer-events: visible;" transform="matrix(1,0,0,1,135.6821,58.6471)"><polygon points="-5,-5,0,0,-5,5"/></g><g class="DimensionMark" fill="#000000" id="mark3" stroke="none" style="fill-opacity: 1; pointer-events: visible;" transform="matrix(1,0,0,1,73.3411,117.2942)"><polygon points="-5,-5,0,0,5,-5"/></g><g class="DimensionMark" fill="#000000" id="mark4" stroke="none" style="fill-opacity: 1; pointer-events: visible;" transform="matrix(1,0,0,1,0,58.6471)"><polygon points="5,5,0,0,5,-5"/></g></g><g class="SpaceDimensionsLabel" transform="matrix(0,-1,1,0,80.9452,69.6811)"><g class="TextLabel NameLabel" id="NameLabel" style="display: block;"/><g class="TextLabel DimensionMeasureLabel" id="DimensionMeasureLabel" style="display: none;" transform="matrix(1,0,0,1,-116.3359,80.0938)"/></g></g></g><g class="Space LivingRoom" fill="#ffffff" id="4abb9a00-9a76-4ad5-9aa1-7d8fa111686b" stroke="#ffffff" style="fill-opacity: 1; stroke-opacity: 1; stroke-width: 1;"><polygon points="1003.17,746.53 610.88,746.53 610.88,716.52 524.04,716.52 524.04,387.95 513.04,387.95 513.04,716.52 512.46,716.52 512.46,387.95 1003.17,387.95 "/><g class="Dimension" transform="matrix(1,0,0,1,512.4614,387.9479)"><g class="Visual" style="display: none;" transform="matrix(1,0,0,1,0,0)"><g class="DimensionMark" fill="#000000" id="mark1" stroke="none" style="fill-opacity: 1; pointer-events: visible;" transform="matrix(1,0,0,1,245.3525,0)"><polygon points="-5,5,0,0,5,5"/></g><g class="DimensionMark" fill="#000000" id="mark2" stroke="none" style="fill-opacity: 1; pointer-events: visible;" transform="matrix(1,0,0,1,490.705,179.2896)"><polygon points="-5,-5,0,0,-5,5"/></g><g class="DimensionMark" fill="#000000" id="mark3" stroke="none" style="fill-opacity: 1; pointer-events: visible;" transform="matrix(1,0,0,1,245.3525,358.5791)"><polygon points="-5,-5,0,0,5,-5"/></g><g class="DimensionMark" fill="#000000" id="mark4" stroke="none" style="fill-opacity: 1; pointer-events: visible;" transform="matrix(1,0,0,1,0,179.2896)"><polygon points="5,5,0,0,5,-5"/></g></g><g class="SpaceDimensionsLabel" transform="matrix(1,0,0,1,225.0499,197.0533)"><g class="TextLabel NameLabel" id="NameLabel" style="display: block;"/><g class="TextLabel DimensionMeasureLabel" id="DimensionMeasureLabel" style="display: none;" transform="matrix(1,0,0,1,-114.625,80.0938)"/></g></g></g><g class="Space Kitchen" fill="#ffffff" id="7cc0c3d9-f01e-4626-a077-c12d04a4c2ce" stroke="#ffffff" style="fill-opacity: 1; stroke-opacity: 1; stroke-width: 1;"><polygon points="1003.17,1044.13 726.75,1044.13 726.75,978.90 610.88,978.90 610.88,746.53 1003.17,746.53 "/><g class="Dimension" transform="matrix(1,0,0,1,610.8821,746.527)"><g class="Visual" style="display: none;" transform="matrix(1,0,0,1,0,0)"><g class="DimensionMark" fill="#000000" id="mark1" stroke="none" style="fill-opacity: 1; pointer-events: visible;" transform="matrix(1,0,0,1,196.1421,0)"><polygon points="-5,5,0,0,5,5"/></g><g class="DimensionMark" fill="#000000" id="mark2" stroke="none" style="fill-opacity: 1; pointer-events: visible;" transform="matrix(1,0,0,1,392.2842,148.8)"><polygon points="-5,-5,0,0,-5,5"/></g><g class="DimensionMark" fill="#000000" id="mark3" stroke="none" style="fill-opacity: 1; pointer-events: visible;" transform="matrix(1,0,0,1,196.1421,297.6)"><polygon points="-5,-5,0,0,5,-5"/></g><g class="DimensionMark" fill="#000000" id="mark4" stroke="none" style="fill-opacity: 1; pointer-events: visible;" transform="matrix(1,0,0,1,0,148.8)"><polygon points="5,5,0,0,5,-5"/></g></g><g class="SpaceDimensionsLabel" transform="matrix(1,0,0,1,217.6804,203.9585)"><g class="TextLabel NameLabel" id="NameLabel" style="display: block;"/><g class="TextLabel DimensionMeasureLabel" id="DimensionMeasureLabel" style="display: none;" transform="matrix(1,0,0,1,-128.0078,80.0938)"/></g></g></g><g class="Space Entry Lobby" fill="#ffffff" id="8a8e80e9-5fe7-493e-942c-5c03868a0156" stroke="#ffffff" style="fill-opacity: 1; stroke-opacity: 1; stroke-width: 1;"><polygon points="726.75,1282.30 544.03,1282.30 544.03,978.90 726.75,978.90 "/><g class="Dimension" transform="matrix(1,0,0,1,544.0329,978.9036)"><g class="Visual" style="display: none;" transform="matrix(1,0,0,1,0,0)"><g class="DimensionMark" fill="#000000" id="mark1" stroke="none" style="fill-opacity: 1; pointer-events: visible;" transform="matrix(1,0,0,1,91.3563,0)"><polygon points="-5,5,0,0,5,5"/></g><g class="DimensionMark" fill="#000000" id="mark2" stroke="none" style="fill-opacity: 1; pointer-events: visible;" transform="matrix(1,0,0,1,182.7126,151.6975)"><polygon points="-5,-5,0,0,-5,5"/></g><g class="DimensionMark" fill="#000000" id="mark3" stroke="none" style="fill-opacity: 1; pointer-events: visible;" transform="matrix(1,0,0,1,91.3563,303.3949)"><polygon points="-5,-5,0,0,5,-5"/></g><g class="DimensionMark" fill="#000000" id="mark4" stroke="none" style="fill-opacity: 1; pointer-events: visible;" transform="matrix(1,0,0,1,0,151.6975)"><polygon points="5,5,0,0,5,-5"/></g></g><g class="SpaceDimensionsLabel" transform="matrix(1,0,0,1,101.1332,188.3403)"><g class="TextLabel NameLabel" id="NameLabel" style="display: block;"/><g class="TextLabel DimensionMeasureLabel" id="DimensionMeasureLabel" style="display: none;" transform="matrix(1,0,0,1,-119.0781,80.0938)"/></g></g></g><g class="Space Outdoor" fill="#ffffff" id="7ea74c00-b0c5-48dc-91c3-57d9fa2a45fa" stroke="#000000" style="stroke-width: 1; fill-opacity: 1; stroke-opacity: 1;"><polygon points="599.88,1416.57 599.88,1306.30 860.61,1306.30 860.61,1416.57 599.88,1416.57 599.88,1416.57 "/><g class="Dimension" transform="matrix(1,0,0,1,599.8811,1306.2985)"><g class="Visual" style="display: none;" transform="matrix(1,0,0,1,0,0)"><g class="DimensionMark" fill="#000000" id="mark1" stroke="none" style="fill-opacity: 1; pointer-events: visible;" transform="matrix(1,0,0,1,130.3639,0)"><polygon points="-5,5,0,0,5,5"/></g><g class="DimensionMark" fill="#000000" id="mark2" stroke="none" style="fill-opacity: 1; pointer-events: visible;" transform="matrix(1,0,0,1,260.7274,55.1337)"><polygon points="-5,-5,0,0,-5,5"/></g><g class="DimensionMark" fill="#000000" id="mark3" stroke="none" style="fill-opacity: 1; pointer-events: visible;" transform="matrix(1,0,0,1,130.3639,110.2673)"><polygon points="-5,-5,0,0,5,-5"/></g><g class="DimensionMark" fill="#000000" id="mark4" stroke="none" style="fill-opacity: 1; pointer-events: visible;" transform="matrix(1,0,0,1,0,55.1337)"><polygon points="5,5,0,0,5,-5"/></g></g><g class="SpaceDimensionsLabel" transform="matrix(1,0,0,1,39.8243,83.4497)"><g class="TextLabel NameLabel" id="NameLabel" style="display: block;"/><g class="TextLabel DimensionMeasureLabel" id="DimensionMeasureLabel" style="display: none;" transform="matrix(1,0,0,1,-56.0313,80.0938)"/></g></g></g><g class="Wall External" fill="#000000" id="Wall" stroke="#000000" style="fill-opacity: 1; stroke-opacity: 1; stroke-width: 1;"><polygon points="1003.17,1282.30 1003.17,387.95 1027.17,363.95 1027.17,1306.30 "/></g><g class="Wall External" fill="#000000" id="Wall" stroke="#000000" style="fill-opacity: 1; stroke-opacity: 1; stroke-width: 1;"><polygon points="1003.17,387.95 244.80,387.95 220.80,363.95 1027.17,363.95 "/><g class="Door Swing Beside" fill="#ffffff" id="Door" stroke="#000000" style="fill-opacity: 1; stroke-width: 1; stroke-opacity: 1;"><polygon points="604.25,387.95 539.36,387.95 539.36,363.95 604.25,363.95 "/><g class="Panel Right Positive" fill="none" id="Panel" style=""><g class="PanelArea" fill="none" id="PanelArea" stroke="none" style=""><polygon points="604.25,387.95 539.36,387.95 539.36,363.95 604.25,363.95 "/></g><path d="M604.25,363.95 q0.00,-64.89 -64.89,-64.89 l0.00,64.89Z"/></g></g><g class="Window Regular" fill="#f0f0ff" id="Window" stroke="#000000" style="fill-opacity: 1; stroke-width: 1; stroke-opacity: 1;"><polygon points="500.43,387.95 353.28,387.95 353.28,363.95 500.43,363.95 "/><g class="Glass" id="Glass"><polygon points="500.43,387.95 353.28,387.95 353.28,363.95 500.43,363.95 "/></g><g class="Panel" id="Panel"><line x1="492.92999267578125" x2="360.7799987792969" y1="375.95001220703125" y2="375.95001220703125"/><line x1="492.92999267578125" x2="492.92999267578125" y1="387.95001220703125" y2="363.95001220703125"/><line x1="360.7799987792969" x2="360.7799987792969" y1="387.95001220703125" y2="363.95001220703125"/></g></g><g class="Window Regular" fill="#f0f0ff" id="Window" stroke="#000000" style="fill-opacity: 1; stroke-width: 1; stroke-opacity: 1;"><polygon points="834.19,387.95 611.46,387.95 611.46,363.95 834.19,363.95 "/><g class="Glass" id="Glass"><polygon points="834.19,387.95 611.46,387.95 611.46,363.95 834.19,363.95 "/></g><g class="Panel" id="Panel"><line x1="826.6900024414062" x2="618.9600219726562" y1="375.95001220703125" y2="375.95001220703125"/><line x1="826.6900024414062" x2="826.6900024414062" y1="387.95001220703125" y2="363.95001220703125"/><line x1="618.9600219726562" x2="618.9600219726562" y1="387.95001220703125" y2="363.95001220703125"/></g></g></g><g class="Wall External" fill="#000000" id="Wall" stroke="#000000" style="fill-opacity: 1; stroke-opacity: 1; stroke-width: 1;"><polygon points="244.80,387.95 244.80,1282.30 220.80,1306.30 220.80,363.95 "/></g><g class="Wall External" fill="#000000" id="Wall" stroke="#000000" style="fill-opacity: 1; stroke-opacity: 1; stroke-width: 1;"><polygon points="244.80,1282.30 1003.17,1282.30 1027.17,1306.30 220.80,1306.30 "/><g class="Door Swing Beside" fill="#ffffff" id="Door" stroke="#000000" style="fill-opacity: 1; stroke-width: 1; stroke-opacity: 1;"><polygon points="624.58,1282.30 692.23,1282.30 692.23,1306.30 624.58,1306.30 "/><g class="Panel Left Positive" fill="none" id="Panel" style=""><g class="PanelArea" fill="none" id="PanelArea" stroke="none" style=""><polygon points="624.58,1282.30 692.23,1282.30 692.23,1306.30 624.58,1306.30 "/></g><path d="M692.23,1306.30 q0.00,67.65 -67.65,67.65 l0.00,-67.65Z"/></g></g><g class="Door Swing Beside" fill="#ffffff" id="Door" stroke="#000000" style="fill-opacity: 1; stroke-width: 1; stroke-opacity: 1;"><polygon points="758.10,1282.30 826.64,1282.30 826.64,1306.30 758.10,1306.30 "/><g class="Panel Right Positive" fill="none" id="Panel" style=""><g class="PanelArea" fill="none" id="PanelArea" stroke="none" style=""><polygon points="758.10,1282.30 826.64,1282.30 826.64,1306.30 758.10,1306.30 "/></g><path d="M758.10,1306.30 q0.00,68.54 68.54,68.54 l0.00,-68.54Z"/></g></g><g class="Window Regular" fill="#f0f0ff" id="Window" stroke="#000000" style="fill-opacity: 1; stroke-width: 1; stroke-opacity: 1;"><polygon points="312.13,1282.30 467.02,1282.30 467.02,1306.30 312.13,1306.30 "/><g class="Glass" id="Glass"><polygon points="312.13,1282.30 467.02,1282.30 467.02,1306.30 312.13,1306.30 "/></g><g class="Panel" id="Panel"><line x1="319.6300048828125" x2="459.5199890136719" y1="1294.300048828125" y2="1294.300048828125"/><line x1="319.6300048828125" x2="319.6300048828125" y1="1282.300048828125" y2="1306.300048828125"/><line x1="459.5199890136719" x2="459.5199890136719" y1="1282.300048828125" y2="1306.300048828125"/></g></g></g><g class="Wall" fill="#000000" id="Wall" stroke="#000000" style="fill-opacity: 1; stroke-opacity: 1; stroke-width: 1;"><polygon points="220.80,967.90 599.88,967.90 610.88,978.90 220.80,978.90 "/></g><g class="Wall" fill="#000000" id="Wall" stroke="#000000" style="fill-opacity: 1; stroke-opacity: 1; stroke-width: 1;"><polygon points="599.88,967.90 599.88,727.52 610.88,716.52 610.88,978.90 "/><g class="Door Swing Beside" fill="#ffffff" id="Door" stroke="#000000" style="fill-opacity: 1; stroke-width: 1; stroke-opacity: 1;"><polygon points="599.88,878.34 599.88,830.27 610.88,830.27 610.88,878.34 "/><g class="Panel Right Positive" fill="none" id="Panel" style=""><g class="PanelArea" fill="none" id="PanelArea" stroke="none" style=""><polygon points="599.88,878.34 599.88,830.27 610.88,830.27 610.88,878.34 "/></g><path d="M610.88,878.34 q48.07,0.00 48.07,-48.07 l-48.07,0.00Z"/></g></g></g><g class="Wall" fill="#000000" id="Wall" stroke="#000000" style="fill-opacity: 1; stroke-opacity: 1; stroke-width: 1;"><polygon points="610.88,716.52 391.49,716.52 380.49,727.52 599.88,727.52 "/></g><g class="Wall" fill="#000000" id="Wall" stroke="#000000" style="fill-opacity: 1; stroke-opacity: 1; stroke-width: 1;"><polygon points="391.49,727.52 391.49,967.90 380.49,967.90 380.49,727.52 "/><g class="Door Swing Beside" fill="#ffffff" id="Door" stroke="#000000" style="fill-opacity: 1; stroke-width: 1; stroke-opacity: 1;"><polygon points="391.49,847.18 391.49,893.47 380.49,893.47 380.49,847.18 "/><g class="Panel Left Negative" fill="none" id="Panel" style=""><g class="PanelArea" fill="none" id="PanelArea" stroke="none" style=""><polygon points="391.49,847.18 391.49,893.47 380.49,893.47 380.49,847.18 "/></g><path d="M391.49,847.18 q46.29,0.00 46.29,46.29 l-46.29,0.00Z"/></g></g></g><g class="Wall" fill="#000000" id="Wall" stroke="#000000" style="fill-opacity: 1; stroke-opacity: 1; stroke-width: 1;"><polygon points="244.80,782.32 391.49,782.32 391.49,793.32 244.80,793.32 "/></g><g class="Wall" fill="#000000" id="Wall" stroke="#000000" style="fill-opacity: 1; stroke-opacity: 1; stroke-width: 1;"><polygon points="391.49,716.52 391.49,666.18 380.49,666.18 380.49,727.52 "/></g><g class="Wall" fill="#000000" id="Wall" stroke="#000000" style="fill-opacity: 1; stroke-opacity: 1; stroke-width: 1;"><polygon points="513.04,716.52 513.04,387.95 524.04,387.95 524.04,716.52 "/><g class="Door Swing Beside" fill="#ffffff" id="Door" stroke="#000000" style="fill-opacity: 1; stroke-width: 1; stroke-opacity: 1;"><polygon points="513.04,626.42 513.04,557.88 524.04,557.88 524.04,626.42 "/><g class="Panel Right Positive" fill="none" id="Panel" style=""><g class="PanelArea" fill="none" id="PanelArea" stroke="none" style=""><polygon points="513.04,626.42 513.04,557.88 524.04,557.88 524.04,626.42 "/></g><path d="M524.04,626.42 q68.54,0.00 68.54,-68.54 l-68.54,0.00Z"/></g></g></g><g class="Wall" fill="#000000" id="Wall" stroke="#000000" style="fill-opacity: 1; stroke-opacity: 1; stroke-width: 1;"><polygon points="533.03,978.90 533.03,1282.30 544.03,1282.30 544.03,978.90 "/><g class="Door Swing Beside" fill="#ffffff" id="Door" stroke="#000000" style="fill-opacity: 1; stroke-width: 1; stroke-opacity: 1;"><polygon points="533.03,994.06 533.03,1057.26 544.03,1057.26 544.03,994.06 "/><g class="Panel Right Negative" fill="none" id="Panel" style=""><g class="PanelArea" fill="none" id="PanelArea" stroke="none" style=""><polygon points="533.03,994.06 533.03,1057.26 544.03,1057.26 544.03,994.06 "/></g><path d="M533.03,1057.26 q-63.20,0.00 -63.20,-63.20 l63.20,0.00Z"/></g></g></g><g class="Wall" fill="#000000" id="Wall" stroke="#000000" style="fill-opacity: 1; stroke-opacity: 1; stroke-width: 1;"><polygon points="726.75,1282.30 726.75,1044.13 739.75,1057.13 739.75,1282.30 "/></g><g class="Wall" fill="#000000" id="Wall" stroke="#000000" style="fill-opacity: 1; stroke-opacity: 1; stroke-width: 1;"><polygon points="726.75,1044.13 1027.17,1044.13 1027.17,1057.13 739.75,1057.13 "/></g><g class="Stairs" fill="#ffffff" id="Stairs" stroke="#000000" style="fill-opacity: 1; stroke-opacity: 1;"><g class="Flight" id="Flight"><polygon points="599.88,1481.50 599.88,1416.57 860.61,1416.57 860.61,1481.50 "/><g class="WalkinLine "><path d="M730.24,1481.50 L730.24,1416.57 " fill="none" stroke="#d3d3d3" style='pointer-events: none; marker-end: url("#Marker2");'/><defs><marker fill="#d3d3d3" id="Marker2" markerHeight="12" markerWidth="12" orient="auto" refX="11" refY="6" stroke="#d3d3d3" style="pointer-events: none;" viewBox="0 0 12 12"><polygon points="0.00,0.00 0.00,12.00 10.00,6.00 0.00,0.00 "/></marker></defs></g><g class="Steps" id="Steps"><line x1="599.8800048828125" x2="860.6099853515625" y1="1481.5" y2="1481.5"/><line x1="599.8800048828125" x2="860.6099853515625" y1="1449.0349731445312" y2="1449.0349731445312"/><line x1="599.8800048828125" x2="860.6099853515625" y1="1416.5699462890625" y2="1416.5699462890625"/></g></g></g><g class="Railing" fill="#ffffff" id="Railing" stroke="#000000" style="fill-opacity: 1; stroke-opacity: 1; stroke-width: 1;"><polygon points="1027.17,363.95 1027.17,108.42 1014.17,108.42 1014.17,363.95 "/></g><g class="Railing" fill="#ffffff" id="Railing" stroke="#000000" style="fill-opacity: 1; stroke-opacity: 1; stroke-width: 1;"><polygon points="220.80,363.95 220.80,108.42 233.80,108.42 233.80,363.95 "/></g><g class="Railing" fill="#ffffff" id="Railing" stroke="#000000" style="fill-opacity: 1; stroke-opacity: 1; stroke-width: 1;"><polygon points="599.88,1306.30 599.88,1416.57 587.88,1416.57 587.88,1306.30 "/></g><g class="Railing" fill="#ffffff" id="Railing" stroke="#000000" style="fill-opacity: 1; stroke-opacity: 1; stroke-width: 1;"><polygon points="860.61,1306.30 860.61,1416.57 872.61,1416.57 872.61,1306.30 "/></g><g class="FixedFurnitureSet" id="FixedFurnitureSet" style="" transform="matrix(-1,0,0,-1,512.989,716.4914)"><g class="FixedFurniture Closet" fill="#ffffff" stroke="#000000" style="fill-opacity: 1; stroke-opacity: 1;" transform="matrix(1,0,0,1,0,0)">
<g class="BoundaryPolygon">
<polygon points="0.00,0.00 60.75,0.00 60.75,50.60 0.00,50.60 "/>
</g>
<g class="Direction" fill-opacity="0.9" style="display: none;">
<polygon fill="#444444" points="31.90,46.13 31.90,35.51 28.89,35.51 28.89,46.13 25.09,46.13 30.39,51.43 35.70,46.13 31.90,46.13 "/>
</g>
<g class="Name" fill-opacity="0.9" style="display: none;">

</g>
<desc>Width:60 Height:200 Depth:60 Elevation:0</desc>
</g><g class="FixedFurniture Closet" fill="#ffffff" stroke="#000000" style="fill-opacity: 1; stroke-opacity: 1;" transform="matrix(1,0,0,1,60.7521,0)">
<g class="BoundaryPolygon">
<polygon points="0.00,0.00 60.75,0.00 60.75,50.60 0.00,50.60 "/>
</g>
<g class="Direction" fill-opacity="0.9" style="display: none;">
<polygon fill="#444444" points="31.90,46.13 31.90,35.51 28.89,35.51 28.89,46.13 25.09,46.13 30.39,51.43 35.70,46.13 31.90,46.13 "/>
</g>
<g class="Name" fill-opacity="0.9" style="display: none;">

</g>
<desc>Width:60 Height:200 Depth:60 Elevation:0</desc>
</g></g><g class="FixedFurnitureSet" id="FixedFurnitureSet" style="" transform="matrix(0,-1,1,0,244.8048,967.9035)"><g class="FixedFurniture SaunaBenchHigh" fill="#ffffff" stroke="#000000" style="fill-opacity: 1; stroke-opacity: 1;" transform="matrix(1,0,0,1,0,0)">
<g class="BoundaryPolygon">
<polygon points="0.00,0.00 174.10,0.00 174.10,40.54 0.00,40.54 "/>
</g>

<g class="Direction" fill-opacity="0.9" style="display: none;">
<polygon fill="#444444" points="89.79,36.93 89.79,26.32 86.78,26.32 86.78,36.93 82.97,36.93 88.28,42.24 93.58,36.93 89.79,36.93 "/>
</g>
<g class="Name" fill-opacity="0.9" style="display: none;">

</g>
<desc>Width:185 Height:5 Depth:60 Elevation:105</desc>
</g><g class="FixedFurniture SaunaBenchMid" fill="#ffffff" stroke="#000000" style="fill-opacity: 1; stroke-opacity: 1;" transform="matrix(1,0,0,1,0,40.5447)">
<g class="BoundaryPolygon">
<polygon points="0.00,0.00 174.10,0.00 174.10,27.03 0.00,27.03 "/>
</g>

<g class="Direction" fill-opacity="0.9" style="display: none;">
<polygon fill="#444444" points="88.47,23.42 88.47,12.80 85.46,12.80 85.46,23.42 81.66,23.42 86.96,28.72 92.26,23.42 88.47,23.42 "/>
</g>
<g class="Name" fill-opacity="0.9" style="display: none;">

</g>
<desc>Width:185 Height:5 Depth:40 Elevation:60</desc>
</g><g class="FixedFurniture SaunaBenchLow" fill="#ffffff" stroke="#000000" style="fill-opacity: 1; stroke-opacity: 1;" transform="matrix(1,0,0,1,0,67.5745)">
<g class="BoundaryPolygon">
<polygon points="0.00,0.00 174.10,0.00 174.10,27.03 0.00,27.03 "/>
</g>

<g class="Direction" fill-opacity="0.9" style="display: none;">
<polygon fill="#444444" points="88.47,23.42 88.47,12.80 85.46,12.80 85.46,23.42 81.66,23.42 86.96,28.72 92.26,23.42 88.47,23.42 "/>
</g>
<g class="Name" fill-opacity="0.9" style="display: none;">

</g>
<desc>Width:185 Height:5 Depth:40 Elevation:30</desc>
</g></g><g class="FixedFurniture CoatCloset" fill="#ffffff" stroke="#000000" style="fill-opacity: 1; stroke-opacity: 1;" transform="matrix(-1,0,0,-1,380.1647,782.3243)">
<g class="BoundaryPolygon">
<polygon points="0.00,0.00 135.36,0.00 135.36,28.89 0.00,28.89 "/>
</g>

<g class="Direction" fill-opacity="0.9" style="display: none;">
<polygon fill="#444444" points="69.38,26.25 69.38,15.64 66.37,15.64 66.37,26.25 62.57,26.25 67.87,31.56 73.17,26.25 69.38,26.25 "/>
</g>
<g class="Name" fill-opacity="0.9" style="display: none;">

</g>
<desc>Width:120 Height:200 Depth:60 Elevation:0</desc>
</g><g class="FixedFurniture Closet" fill="#ffffff" stroke="#000000" style="fill-opacity: 1; stroke-opacity: 1;" transform="matrix(0,1,-1,0,380.4869,666.4697)">
<g class="BoundaryPolygon">
<polygon points="0.00,0.00 86.96,0.00 86.96,46.34 0.00,46.34 "/>
</g>
<g class="Direction" fill-opacity="0.9" style="display: none;">
<polygon fill="#444444" points="44.58,42.11 44.58,31.49 41.57,31.49 41.57,42.11 37.76,42.11 43.07,47.41 48.37,42.11 44.58,42.11 "/>
</g>
<g class="Name" fill-opacity="0.9" style="display: none;">

</g>
<desc>Width:120 Height:200 Depth:60 Elevation:0</desc>
</g><g class="FixedFurniture Closet" fill="#ffffff" stroke="#000000" style="fill-opacity: 1; stroke-opacity: 1;" transform="matrix(0,-1,1,0,244.8047,753.4296)">
<g class="BoundaryPolygon">
<polygon points="0.00,0.00 86.96,0.00 86.96,46.34 0.00,46.34 "/>
</g>
<g class="Direction" fill-opacity="0.9" style="display: none;">
<polygon fill="#444444" points="44.58,42.11 44.58,31.49 41.57,31.49 41.57,42.11 37.76,42.11 43.07,47.41 48.37,42.11 44.58,42.11 "/>
</g>
<g class="Name" fill-opacity="0.9" style="display: none;">

</g>
<desc>Width:120 Height:200 Depth:60 Elevation:0</desc>
</g><g class="FixedFurniture ShowerScreen" fill="#ffffff" stroke="#000000" style="fill-opacity: 1; stroke-opacity: 1;" transform="matrix(0,-1,1.3491,0,244.8047,666.4696)">
<g class="BoundaryPolygon">
<polygon points="0,0 2.5,0 2.5,60 0,60"/>
</g>
<g class="InnerPolygon" stroke-linejoin="round">
<rect height="60" width="2.5"/>
</g>
<desc>Width:2.5 Height:180 Depth:60 Elevation:135</desc>
</g><g class="FixedFurniture ShowerScreen" fill="#ffffff" stroke="#000000" style="fill-opacity: 1; stroke-opacity: 1;" transform="matrix(0,1,-1.3491,0,380.6866,660.8423)">
<g class="BoundaryPolygon">
<polygon points="0,0 2.5,0 2.5,60 0,60"/>
</g>
<g class="InnerPolygon" stroke-linejoin="round">
<rect height="60" width="2.5"/>
</g>
<desc>Width:2.5 Height:180 Depth:60 Elevation:135</desc>
</g><g class="FixedFurniture ShowerScreen" fill="#ffffff" stroke="#000000" style="fill-opacity: 1; stroke-opacity: 1;" transform="matrix(0,-1,1.2746,0,391.8831,665.0302)">
<g class="BoundaryPolygon">
<polygon points="0,0 2.5,0 2.5,60 0,60"/>
</g>
<g class="InnerPolygon" stroke-linejoin="round">
<rect height="60" width="2.5"/>
</g>
<desc>Width:2.5 Height:180 Depth:60 Elevation:135</desc>
</g><g class="FixedFurniture ShowerScreen" fill="#ffffff" stroke="#000000" style="fill-opacity: 1; stroke-opacity: 1;" transform="matrix(0,1,-1.2746,0,512.4614,659.3932)">
<g class="BoundaryPolygon">
<polygon points="0,0 2.5,0 2.5,60 0,60"/>
</g>
<g class="InnerPolygon" stroke-linejoin="round">
<rect height="60" width="2.5"/>
</g>
<desc>Width:2.5 Height:180 Depth:60 Elevation:135</desc>
</g><g class="FixedFurniture ElectricalAppliance SaunaStove" fill="#ffffff" stroke="#000000" style="fill-opacity: 1; stroke-opacity: 1;" transform="matrix(0,0.586,-1,0,380.4713,918.5309)">
<g class="BoundaryPolygon">
<polygon points="0,0 60,0 60,35 0,35"/>
</g>
<g class="electricitySign" fill="none">
<polyline points="0 35 39.7 17.5 21.4 17.5 60 0"/>
</g>
<g class="Direction" fill-opacity="0.9" style="display: none;">
<polygon fill="#444444" points="31.509 29.697 31.509 19.081 28.5 19.081 28.5 29.697 24.697 29.697 30 35 35.303 29.697 31.509 29.697"/>
</g>
<g class="Name" fill-opacity="0.9" style="display: none;">

</g>
<desc>Width:60 Height:60 Depth:35 Elevation:20</desc>
</g><g class="FixedFurniture ElectricalAppliance SpaceForAppliance2" fill="#ffffff" stroke="#000000" style="fill-opacity: 1; stroke-opacity: 1;" transform="matrix(-0.9498,0,0,-1,448.4749,967.8879)">
<g class="BoundaryPolygon">
<polygon points="0,0 60,0 60,60 0,60"/>
</g>
<g class="electricitySign" fill="none">
<path d="M0,0,30.1,39.8V19.4L59.9,60"/>
</g>
<g class="Direction" fill-opacity="0.9" style="display: none;">
<polygon fill="#444444" points="32.009 55.197 32.009 44.581 29 44.581 29 55.197 25.197 55.197 30.5 60 35.803 55.197 32.009 55.197"/>
</g>
<g class="Name" fill-opacity="0.9" style="display: none;">

</g>
<desc>Width:60 Height:90 Depth:60 Elevation:0</desc>
</g><g class="FixedFurniture Closet" fill="#ffffff" stroke="#000000" style="fill-opacity: 1; stroke-opacity: 1;" transform="matrix(-1,0,0,-1,599.8821,967.8567)">
<g class="BoundaryPolygon">
<polygon points="0.00,0.00 58.66,0.00 58.66,60.00 0.00,60.00 "/>
</g>
<g class="Direction" fill-opacity="0.9" style="display: none;">
<polygon fill="#444444" points="30.81,54.70 30.81,44.08 27.80,44.08 27.80,54.70 23.99,54.70 29.30,60.00 34.60,54.70 30.81,54.70 "/>
</g>
<g class="Name" fill-opacity="0.9" style="display: none;">

</g>
<desc>Width:60 Height:200 Depth:60 Elevation:0</desc>
</g><g class="FixedFurniture BaseCabinet" fill="#ffffff" stroke="#000000" style="fill-opacity: 1; stroke-opacity: 1;" transform="matrix(-1,0,0,-1,541.1948,967.8254)">
<g class="BoundaryPolygon">
<polygon points="0.00,0.00 92.72,0.00 92.72,41.43 0.00,41.43 "/>
</g>
<g class="Direction" fill-opacity="0.9" style="display: none;">
<polygon fill="#444444" points="49.46,38.11 49.46,27.50 46.45,27.50 46.45,38.11 42.65,38.11 47.95,42.92 53.26,38.11 49.46,38.11 "/>
</g>
<g class="Name" fill-opacity="0.9" style="display: none;">

</g>
<desc>Width:60 Height:90 Depth:60 Elevation:0</desc>
</g><g class="FixedFurniture Sink" fill="#ffffff" stroke="#000000" style="fill-opacity: 1; stroke-opacity: 1;" transform="matrix(-1,0,0,-1,527.0374,967.8255)">
<g class="BoundaryPolygon" fill="none" stroke="none">
<polygon points="0.00,0.00 60.00,0.00 60.00,39.14 0.00,39.14 "/>
</g>
<g class="InnerPolygon">
<polygon points="5.00,9.70 55.00,9.70 55.00,35.68 5.00,35.68 "/>
</g>
<g class="OuterDrain" stroke-width="0.8">
<circle cx="30" cy="21.004863422681517" r="3.5"/>
</g>
<g class="InnerDrain" stroke-width="0.8">
<circle cx="30" cy="21.004863422681517" r="2"/>
</g>
<g class="Faucet">
<polygon points="27.00,3.26 33.00,3.26 33.00,17.26 27.00,17.26 "/>
</g>
<g class="Direction" fill-opacity="0.9" style="display: none;">
<polygon fill="#444444" points="32.01,36.01 32.01,25.39 29.00,25.39 29.00,36.01 25.20,36.01 30.50,40.81 35.80,36.01 32.01,36.01 "/>
</g>
<g class="Name" fill-opacity="0.9" style="display: none;">

</g>
<desc>Width:60 Height:90 Depth:60 Elevation:0</desc>
</g><g class="FixedFurniture Toilet" fill="#ffffff" stroke="#000000" style="fill-opacity: 1; stroke-opacity: 1;" transform="matrix(0.9313,0,0,0.8264,536.1675,727.5227)">
<g class="BoundaryPolygon" fill="none" stroke="none">
<polygon points="0,0 41,0 41,71 0,71"/>
</g>
<g class="InnerPolygon">
<rect height="17.98" width="39.989" x="0.502" y="0.5"/>
<path d="M40.491,44.237S41.619,70.5,20.907,70.5C-.523,70.5.6,44.237.6,44.237L.5,18.48H40.491Z"/>
<rect height="3.03" width="6.357" x="17.318" y="7.975"/>
</g>
<desc>Width:41 Height:85 Depth:71 Elevation:0</desc>
</g><g class="FixedFurniture CoatCloset" fill="#ffffff" stroke="#000000" style="fill-opacity: 1; stroke-opacity: 1;" transform="matrix(0,1,-1,0,533.0017,1215.9255)">
<g class="BoundaryPolygon">
<polygon points="0.00,0.00 66.37,0.00 66.37,60.00 0.00,60.00 "/>
</g>

<g class="Direction" fill-opacity="0.9" style="display: none;">
<polygon fill="#444444" points="34.86,54.70 34.86,44.08 31.85,44.08 31.85,54.70 28.04,54.70 33.35,60.00 38.65,54.70 34.86,54.70 "/>
</g>
<g class="Name" fill-opacity="0.9" style="display: none;">

</g>
<desc>Width:60 Height:200 Depth:60 Elevation:0</desc>
</g><g class="FixedFurniture Closet" fill="#ffffff" stroke="#000000" style="fill-opacity: 1; stroke-opacity: 1;" transform="matrix(0,1,-1,0,533.0016,1155.9255)">
<g class="BoundaryPolygon">
<polygon points="0,0 60,0 60,60 0,60"/>
</g>
<g class="Direction" fill-opacity="0.9" style="display: none;">
<polygon fill="#444444" points="31.509 54.697 31.509 44.081 28.5 44.081 28.5 54.697 24.697 54.697 30 60 35.303 54.697 31.509 54.697"/>
</g>
<g class="Name" fill-opacity="0.9" style="display: none;">

</g>
<desc>Width:60 Height:200 Depth:60 Elevation:0</desc>
</g><g class="FixedFurniture Closet" fill="#ffffff" stroke="#000000" style="fill-opacity: 1; stroke-opacity: 1;" transform="matrix(0,-1,1,0,544.0954,1282.2985)">
<g class="BoundaryPolygon">
<polygon points="0,0 60,0 60,60 0,60"/>
</g>
<g class="Direction" fill-opacity="0.9" style="display: none;">
<polygon fill="#444444" points="31.509 54.697 31.509 44.081 28.5 44.081 28.5 54.697 24.697 54.697 30 60 35.303 54.697 31.509 54.697"/>
</g>
<g class="Name" fill-opacity="0.9" style="display: none;">

</g>
<desc>Width:60 Height:200 Depth:60 Elevation:0</desc>
</g><g class="FixedFurniture CoatCloset" fill="#ffffff" stroke="#000000" style="fill-opacity: 1; stroke-opacity: 1;" transform="matrix(0,-1,1,0,544.0329,1222.2985)">
<g class="BoundaryPolygon">
<polygon points="0.00,0.00 136.96,0.00 136.96,60.00 0.00,60.00 "/>
</g>

<g class="Direction" fill-opacity="0.9" style="display: none;">
<polygon fill="#444444" points="70.20,54.52 70.20,43.90 67.19,43.90 67.19,54.52 63.39,54.52 68.69,59.82 74.00,54.52 70.20,54.52 "/>
</g>
<g class="Name" fill-opacity="0.9" style="display: none;">

</g>
<desc>Width:120 Height:200 Depth:60 Elevation:0</desc>
</g><g class="FixedFurniture ElectricalAppliance" fill="#ffffff" stroke="#000000" style="fill-opacity: 1; stroke-opacity: 1;" transform="matrix(1,0,0,1,943.1663,1057.2988)">
<g class="BoundaryPolygon">
<polygon points="0,0 60,0 60,60 0,60"/>
</g>
<g class="electricitySign" fill="none">
<path d="M0,0,30.1,39.8V19.4L59.9,60"/>
</g>
<g class="Direction" fill-opacity="0.9" style="display: none;">
<polygon fill="#444444" points="32.009 55.197 32.009 44.581 29 44.581 29 55.197 25.197 55.197 30.5 60 35.803 55.197 32.009 55.197"/>
</g>
<g class="Name" fill-opacity="0.9" style="display: none;">

</g>
<desc>Width:60 Height:200 Depth:60 Elevation:0</desc>
</g><g class="FixedFurniture BaseCabinet" fill="#ffffff" stroke="#000000" style="fill-opacity: 1; stroke-opacity: 1;" transform="matrix(1,0,0,1,739.7463,746.527)"><desc>Width:60 Height:90 Depth:60 Elevation:0</desc><g class="BoundaryPolygon"><polygon points="0.00,0.00 263.42,0.00 263.42,297.60 203.42,297.60 203.42,80.78 0.00,80.78 -12.07,70.65 -17.27,61.74 -17.27,18.57 -12.04,9.41 0.00,-0.00 "/></g></g><g class="FixedFurniture ElectricalAppliance SpaceForAppliance" fill="#ffffff" stroke="#000000" style="fill-opacity: 1; stroke-opacity: 1;" transform="matrix(1,0,0,1,731.7634,760.6035)">
<g class="BoundaryPolygon">
<polygon points="0,0 60,0 60,60 0,60"/>
</g>
<g class="electricitySign" fill="none">
<path d="M0,0,30.1,39.8V19.4L59.9,60"/>
</g>
<g class="Direction" fill-opacity="0.9" style="display: none;">
<polygon fill="#444444" points="32.009 55.197 32.009 44.581 29 44.581 29 55.197 25.197 55.197 30.5 60 35.803 55.197 32.009 55.197"/>
</g>
<g class="Name" fill-opacity="0.9" style="display: none;">

</g>
<desc>Width:60 Height:90 Depth:60 Elevation:0</desc>
</g><g class="FixedFurniture ElectricalAppliance IntegratedStove" fill="#ffffff" stroke="#000000" style="fill-opacity: 1; stroke-opacity: 1;" transform="matrix(0,1,-1,0,1001.7254,827.3026)">
<g class="BoundaryPolygon" fill="none" stroke="none">
<polygon points="0.00,0.00 60.00,0.00 60.00,58.44 0.00,58.44 "/>
</g>
<g class="InnerPolygon">
<polygon points="2.00,2.00 58.00,2.00 58.00,56.49 2.00,56.49 "/>
</g>
<g class="OuterCircle">
<circle cx="16" cy="15.583820551516581" r="8"/>
<circle cx="44" cy="15.583820551516581" r="8"/>
<circle cx="16" cy="42.8555065166706" r="8"/>
<circle cx="44" cy="42.8555065166706" r="8"/>
</g>
<g class="Direction" fill-opacity="0.9" style="display: none;">
<polygon fill="#444444" points="32.01,53.76 32.01,43.15 29.00,43.15 29.00,53.76 25.20,53.76 30.50,58.56 35.80,53.76 32.01,53.76 "/>
</g>
<g class="Name" fill-opacity="0.9" style="display: none;">

</g>
<desc>Width:60 Height:90 Depth:30 Elevation:0</desc>
</g><g class="FixedFurniture ElectricalAppliance SpaceForAppliance" fill="#ffffff" stroke="#000000" style="fill-opacity: 1; stroke-opacity: 1;" transform="matrix(0,1,-0.974,0,1001.6063,887.3026)">
<g class="BoundaryPolygon">
<polygon points="0,0 60,0 60,60 0,60"/>
</g>
<g class="electricitySign" fill="none">
<path d="M0,0,30.1,39.8V19.4L59.9,60"/>
</g>
<g class="Direction" fill-opacity="0.9" style="display: none;">
<polygon fill="#444444" points="32.009 55.197 32.009 44.581 29 44.581 29 55.197 25.197 55.197 30.5 60 35.803 55.197 32.009 55.197"/>
</g>
<g class="Name" fill-opacity="0.9" style="display: none;">

</g>
<desc>Width:60 Height:90 Depth:60 Elevation:0</desc>
</g><g class="FixedFurniture Sink" fill="#ffffff" stroke="#000000" style="fill-opacity: 1; stroke-opacity: 1;" transform="matrix(0,1,-1,0,1002.9788,947.3027)">
<g class="BoundaryPolygon" fill="none" stroke="none">
<polygon points="0.00,0.00 70.94,0.00 70.94,60.00 0.00,60.00 "/>
</g>
<g class="InnerPolygon">
<polygon points="5.91,9.70 65.03,9.70 65.03,54.70 5.91,54.70 "/>
</g>
<g class="OuterDrain" stroke-width="0.8">
<circle cx="35.470890191440745" cy="32.2" r="3.5"/>
</g>
<g class="InnerDrain" stroke-width="0.8">
<circle cx="35.470890191440745" cy="32.2" r="2"/>
</g>
<g class="Faucet">
<polygon points="31.92,5.00 37.92,5.00 37.92,19.00 31.92,19.00 "/>
</g>
<g class="Direction" fill-opacity="0.9" style="display: none;">
<polygon fill="#444444" points="37.85,55.20 37.85,44.58 34.84,44.58 34.84,55.20 31.03,55.20 36.34,60.00 41.64,55.20 37.85,55.20 "/>
</g>
<g class="Name" fill-opacity="0.9" style="display: none;">

</g>
<desc>Width:60 Height:90 Depth:60 Elevation:0</desc>
</g><g class="FixedFurniture ShowerCab" fill="#ffffff" stroke="#000000" style="fill-opacity: 1; stroke-opacity: 1;" transform="matrix(1.0665,0,0,1,391.49,727.5201)">
<g class="BoundaryPolygon" fill="none" stroke="none">
<polygon points="0,0 85,0 85,85 0,85"/>
</g>
<g class="InnerPolygon">
<path d="M85,.1,0,0,.1,85l42.7-.1h0c34.4-.7,41.3-16.7,41.8-41.7h0Z"/>
<polyline points="42.7 84.8 42.7 83.3 42.7 83.3 1.6 83.4 1.5 1.4 83.4 1.5 83 43.1 83 43.1 84.6 43.1"/>
</g>
<g class="Name" fill-opacity="0.9" style="display: none;">

</g>
<desc>Width:85 Height:180 Depth:85 Elevation:0</desc>
</g><g class="FixedFurniture Shower" fill="#ffffff" stroke="#000000" style="fill-opacity: 1; stroke-opacity: 1;" transform="matrix(1,0,0,1,418.453,727.52)">
<g class="BoundaryPolygon" fill="none" stroke="none">
<polygon points="0,0 32,0 32,19 0,19"/>
</g>
<g class="InnerPolygon">
<rect height="6.1" width="11.2" x="3.7" y="0.5"/>
<rect height="6.1" width="11.2" x="17.6" y="0.5"/>
<rect height="6.1" width="3.4" x="28.7" y="0.5"/>
<rect height="6.1" width="3.2" x="0.5" y="0.5"/>
<path d="M14.9,8.5c0,1.5-0.4,3.3-1.6,5    c-0.4,0.6-1,1.1-1.1,1.7c-0.2,1.1,0.3,2.8,2.5,3.2c0.5,0.1,1.3,0.1,1.6,0.1h-0.1c0.3,0,1.1,0,1.6-0.1c2.2-0.4,2.7-2.1,2.5-3.2    c-0.1-0.6-0.7-1.1-1.1-1.7c-1.2-1.7-1.6-3.5-1.6-5"/>
<path d="M12.2,15.3c0.1,0.2,1.6,1.9,4.2,1.9 c2.4-0.1,3.7-1.7,3.9-1.9"/>
<path d="M14.9,0.5h2.7v8c-0.9,0-1.8,0-2.7,0l0,0 C14.9,5.9,14.9,3.2,14.9,0.5z"/>
</g>
<g class="Indicator">
<path d="M3.7,3.6C5,3.1,5.2,3,5.2,3 c0,1.1,0,0,0,1.1C5.2,4.1,5.1,4.1,3.7,3.6"/>
<path d="M28.7,3.6 C27.4,3.1,27.2,3,27.2,3c0,1.1,0,0,0,1.1C27.2,4.1,27.3,4.1,28.7,3.6"/>
</g>
<desc>Width:32 Height:97 Depth:19 Elevation:135</desc>
</g><g class="SelectionControls" fill="#0000ff" stroke="#0000ff" style="display: none;"><g class="rotateControl" style="display: none;"><circle cx="627.4429280517578" cy="156.6093231689453" r="5" style="stroke : none; fill-opacity: 0.5; cursor:crosshair"/></g><g class="ResizeNControl" style="display: none;"><circle cx="0" cy="0" r="5" style="stroke : none; fill-opacity: 0.5"/></g><g class="ResizeNEControl" style="display: none;"><circle cx="0" cy="0" r="5" style="stroke : none; fill-opacity: 0.5"/></g><g class="ResizeEControl" style="display: none;"><circle cx="0" cy="0" r="5" style="stroke : none; fill-opacity: 0.5"/></g><g class="ResizeSEControl" style="display: none;"><circle cx="0" cy="0" r="5" style="stroke : none; fill-opacity: 0.5"/></g><g class="ResizeSControl" style="display: none;"><circle cx="0" cy="0" r="5" style="stroke : none; fill-opacity: 0.5"/></g><g class="ResizeSWControl" style="display: none;"><circle cx="0" cy="0" r="5" style="stroke : none; fill-opacity: 0.5"/></g><g class="ResizeWControl" style="display: none;"><circle cx="0" cy="0" r="5" style="stroke : none; fill-opacity: 0.5"/></g><g class="ResizeNWControl" style="display: none;"><circle cx="0" cy="0" r="5" style="stroke : none; fill-opacity: 0.5"/></g><g class="removeControl" style="display: none;"><polygon points="554.08,186.61 700.80,186.61 700.80,226.89 554.08,226.89 " style="stroke : none; fill-opacity: 0.1"/></g><g class="copyPasteControl" style="display: none;"><polygon style="stroke : none; fill-opacity: 0.1"/></g><g class="translateControl" style="display: none;"><polygon points="554.08,186.61 700.80,186.61 700.80,226.89 554.08,226.89 " style="stroke : none; fill-opacity: 0.1; cursor:move"/></g></g><g class="SelectionControls" fill="#0000ff" stroke="#0000ff" style="display: none;"><polygon fill="none" points="233.80,108.42 1027.17,108.42 1027.17,363.95 233.80,363.95 " stroke="#0000ff" style=""/><g class="rotateControl" style="display: none;"><circle cx="630.4850006103516" cy="78.41999816894531" r="5" style="stroke : none; fill-opacity: 0.5; cursor:crosshair"/></g><g class="ResizeNControl" style="display: none;"><circle cx="0" cy="0" r="5" style="stroke : none; fill-opacity: 0.5"/></g><g class="ResizeNEControl" style="display: none;"><circle cx="0" cy="0" r="5" style="stroke : none; fill-opacity: 0.5"/></g><g class="ResizeEControl" style="display: none;"><circle cx="0" cy="0" r="5" style="stroke : none; fill-opacity: 0.5"/></g><g class="ResizeSEControl" style="display: none;"><circle cx="0" cy="0" r="5" style="stroke : none; fill-opacity: 0.5"/></g><g class="ResizeSControl" style="display: none;"><circle cx="0" cy="0" r="5" style="stroke : none; fill-opacity: 0.5"/></g><g class="ResizeSWControl" style="display: none;"><circle cx="0" cy="0" r="5" style="stroke : none; fill-opacity: 0.5"/></g><g class="ResizeWControl" style="display: none;"><circle cx="0" cy="0" r="5" style="stroke : none; fill-opacity: 0.5"/></g><g class="ResizeNWControl" style="display: none;"><circle cx="0" cy="0" r="5" style="stroke : none; fill-opacity: 0.5"/></g><g class="removeControl" style="display: none;"><polygon style="stroke : none; fill-opacity: 0.1"/></g><g class="copyPasteControl" style="display: none;"><polygon style="stroke : none; fill-opacity: 0.1"/></g><g class="translateControl" style="display: none;"><polygon style="stroke : none; fill-opacity: 0.1; cursor:move"/></g></g></g></g></g></svg>