<?xml version="1.0" encoding="utf-8"?>
<svg height="679.8700048923492" id="temp" version="1.1" viewBox="0 0 969.3200170993805 679.8700048923492" width="969.3200170993805" xmlns="http://www.w3.org/2000/svg" xmlns:xlink="http://www.w3.org/1999/xlink"><desc>Powered by CubiCasa</desc><defs/><g class="Model v1-1" id="Model"><g class="Floor"><g class="Floorplan Floor-1" id="Floor-1"><g class="Space Outdoor Balcony" fill="#ffffff" id="c608fc93-75e2-4a6a-bb35-53aeff834fa7" stroke="#000000" style="fill-opacity: 1; stroke-opacity: 1; stroke-width: 1;"><polygon points="961.32,164.21 7.74,164.21 7.74,7.24 961.32,7.24 961.32,164.21 "/><g class="Dimension" transform="matrix(1,0,0,1,7.7429,7.2412)"><g class="Visual" style="display: none;" transform="matrix(1,0,0,1,0,0)"><g class="DimensionMark" fill="#000000" id="mark1" stroke="none" style="fill-opacity: 1; pointer-events: visible;" transform="matrix(1,0,0,1,476.7865,0)"><polygon points="-5,5,0,0,5,5"/></g><g class="DimensionMark" fill="#000000" id="mark2" stroke="none" style="fill-opacity: 1; pointer-events: visible;" transform="matrix(1,0,0,1,953.573,78.4848)"><polygon points="-5,-5,0,0,-5,5"/></g><g class="DimensionMark" fill="#000000" id="mark3" stroke="none" style="fill-opacity: 1; pointer-events: visible;" transform="matrix(1,0,0,1,476.7865,156.9696)"><polygon points="-5,-5,0,0,5,-5"/></g><g class="DimensionMark" fill="#000000" id="mark4" stroke="none" style="fill-opacity: 1; pointer-events: visible;" transform="matrix(1,0,0,1,0,78.4848)"><polygon points="5,5,0,0,5,-5"/></g></g><g class="SpaceDimensionsLabel" transform="matrix(1,0,0,1,422.8902,57.9062)"><g class="TextLabel NameLabel" id="NameLabel" style="display: block;"/><g class="TextLabel DimensionMeasureLabel" id="DimensionMeasureLabel" style="display: none;" transform="matrix(1,0,0,1,-64.1172,79.5625)"/></g></g></g><g class="Space Bedroom" fill="#ffffff" id="fd678e90-b4e1-47fe-8d56-1b46887234a6" stroke="#ffffff" style="fill-opacity: 1; stroke-opacity: 1; stroke-width: 1;"><polygon points="280.11,396.96 279.43,396.96 279.43,183.21 270.43,183.21 270.43,519.38 13.74,519.38 13.74,183.21 280.11,183.21 "/><g class="Dimension" transform="matrix(1,0,0,1,13.7429,183.2108)"><g class="Visual" style="display: none;" transform="matrix(1,0,0,1,0,0)"><g class="DimensionMark" fill="#000000" id="mark1" stroke="none" style="fill-opacity: 1; pointer-events: visible;" transform="matrix(1,0,0,1,133.1855,0)"><polygon points="-5,5,0,0,5,5"/></g><g class="DimensionMark" fill="#000000" id="mark2" stroke="none" style="fill-opacity: 1; pointer-events: visible;" transform="matrix(1,0,0,1,266.371,168.0841)"><polygon points="-5,-5,0,0,-5,5"/></g><g class="DimensionMark" fill="#000000" id="mark3" stroke="none" style="fill-opacity: 1; pointer-events: visible;" transform="matrix(1,0,0,1,133.1855,336.1682)"><polygon points="-5,-5,0,0,5,-5"/></g><g class="DimensionMark" fill="#000000" id="mark4" stroke="none" style="fill-opacity: 1; pointer-events: visible;" transform="matrix(1,0,0,1,0,168.0841)"><polygon points="5,5,0,0,5,-5"/></g></g><g class="SpaceDimensionsLabel" style="display: block;" transform="matrix(1,0,0,1,101.3288,173.6104)"><g class="TextLabel NameLabel" id="NameLabel" style="display: block;"/><g class="TextLabel DimensionMeasureLabel" id="DimensionMeasureLabel" style="display: none;" transform="matrix(1,0,0,1,-113.6875,79.4531)"/></g></g></g><g class="Space Kitchen Kitchenette" fill="#ffffff" id="a4fb3e7e-a641-47a0-a967-787f3f26127e" stroke="#ffffff" style="fill-opacity: 1; stroke-opacity: 1; stroke-width: 1;"><polygon points="480.83,245.77 496.67,245.77 496.67,336.30 436.32,336.30 436.32,396.96 280.11,396.96 280.11,183.21 480.83,183.21 "/><g class="Dimension" transform="matrix(1,0,0,1,280.1139,183.2108)"><g class="Visual" style="display: none;" transform="matrix(1,0,0,1,0,0)"><g class="DimensionMark" fill="#000000" id="mark1" stroke="none" style="fill-opacity: 1; pointer-events: visible;" transform="matrix(1,0,0,1,108.2761,0)"><polygon points="-5,5,0,0,5,5"/></g><g class="DimensionMark" fill="#000000" id="mark2" stroke="none" style="fill-opacity: 1; pointer-events: visible;" transform="matrix(1,0,0,1,216.5522,106.8746)"><polygon points="-5,-5,0,0,-5,5"/></g><g class="DimensionMark" fill="#000000" id="mark3" stroke="none" style="fill-opacity: 1; pointer-events: visible;" transform="matrix(1,0,0,1,108.2761,213.7491)"><polygon points="-5,-5,0,0,5,-5"/></g><g class="DimensionMark" fill="#000000" id="mark4" stroke="none" style="fill-opacity: 1; pointer-events: visible;" transform="matrix(1,0,0,1,0,106.8746)"><polygon points="5,5,0,0,5,-5"/></g></g><g class="SpaceDimensionsLabel" style="display: block;" transform="matrix(1,0,0,1,82.2896,117.0124)"><g class="TextLabel NameLabel" id="NameLabel" style="display: block;"/><g class="TextLabel DimensionMeasureLabel" id="DimensionMeasureLabel" style="display: none;" transform="matrix(1,0,0,1,-117.086,79.4531)"/></g></g></g><g class="Space Entry Lobby" fill="#ffffff" id="118a6b76-32c6-422a-8fc2-1e7708c909b9" stroke="#ffffff" style="fill-opacity: 1; stroke-opacity: 1; stroke-width: 1;"><polygon points="481.67,663.87 166.67,663.87 166.67,528.38 481.67,528.38 "/><g class="Dimension" transform="matrix(1,0,0,1,166.6708,528.379)"><g class="Visual" style="display: none;" transform="matrix(1,0,0,1,0,0)"><g class="DimensionMark" fill="#000000" id="mark1" stroke="none" style="fill-opacity: 1; pointer-events: visible;" transform="matrix(1,0,0,1,157.4977,0)"><polygon points="-5,5,0,0,5,5"/></g><g class="DimensionMark" fill="#000000" id="mark2" stroke="none" style="fill-opacity: 1; pointer-events: visible;" transform="matrix(1,0,0,1,314.9953,67.7455)"><polygon points="-5,-5,0,0,-5,5"/></g><g class="DimensionMark" fill="#000000" id="mark3" stroke="none" style="fill-opacity: 1; pointer-events: visible;" transform="matrix(1,0,0,1,157.4977,135.4909)"><polygon points="-5,-5,0,0,5,-5"/></g><g class="DimensionMark" fill="#000000" id="mark4" stroke="none" style="fill-opacity: 1; pointer-events: visible;" transform="matrix(1,0,0,1,0,67.7455)"><polygon points="5,5,0,0,5,-5"/></g></g><g class="SpaceDimensionsLabel" style="display: block;" transform="matrix(1,0,0,1,96.3914,75.8021)"><g class="TextLabel NameLabel" id="NameLabel" style="display: block;"/><g class="TextLabel DimensionMeasureLabel" id="DimensionMeasureLabel" style="display: none;" transform="matrix(1,0,0,1,-118.9922,79.4531)"/></g></g></g><g class="Space Room" fill="#ffffff" id="88d6474b-c216-48a0-877f-e6370c047c5e" stroke="#ffffff" style="fill-opacity: 1; stroke-opacity: 1; stroke-width: 1;"><polygon points="953.32,663.87 496.67,663.87 496.67,183.21 953.32,183.21 "/><g class="Dimension" transform="matrix(1,0,0,1,496.6661,183.2108)"><g class="Visual" style="display: none;" transform="matrix(1,0,0,1,0,0)"><g class="DimensionMark" fill="#000000" id="mark1" stroke="none" style="fill-opacity: 1; pointer-events: visible;" transform="matrix(1,0,0,1,228.3249,0)"><polygon points="-5,5,0,0,5,5"/></g><g class="DimensionMark" fill="#000000" id="mark2" stroke="none" style="fill-opacity: 1; pointer-events: visible;" transform="matrix(1,0,0,1,456.6498,240.3296)"><polygon points="-5,-5,0,0,-5,5"/></g><g class="DimensionMark" fill="#000000" id="mark3" stroke="none" style="fill-opacity: 1; pointer-events: visible;" transform="matrix(1,0,0,1,228.3249,480.6591)"><polygon points="-5,-5,0,0,5,-5"/></g><g class="DimensionMark" fill="#000000" id="mark4" stroke="none" style="fill-opacity: 1; pointer-events: visible;" transform="matrix(1,0,0,1,0,240.3296)"><polygon points="5,5,0,0,5,-5"/></g></g><g class="SpaceDimensionsLabel" style="display: block;" transform="matrix(1,0,0,1,238.3202,253.8916)"><g class="TextLabel NameLabel" id="NameLabel" style="display: block;"/><g class="TextLabel DimensionMeasureLabel" id="DimensionMeasureLabel" style="display: none;" transform="matrix(1,0,0,1,-127.5938,79.5625)"/></g></g></g><g class="Space Undefined" fill="#ffffff" id="00ce0b6a-84c3-477a-ac45-eab980b59c5d" stroke="#ffffff" style="fill-opacity: 1; stroke-opacity: 1; stroke-width: 1;"><polygon points="481.67,519.38 279.43,519.38 279.43,406.96 481.67,406.96 "/><g class="Dimension" transform="matrix(1,0,0,1,279.4313,406.9599)"><g class="Visual" style="display: none;" transform="matrix(1,0,0,1,0,0)"><g class="DimensionMark" fill="#000000" id="mark1" stroke="none" style="fill-opacity: 1; pointer-events: visible;" transform="matrix(1,0,0,1,101.1174,0)"><polygon points="-5,5,0,0,5,5"/></g><g class="DimensionMark" fill="#000000" id="mark2" stroke="none" style="fill-opacity: 1; pointer-events: visible;" transform="matrix(1,0,0,1,202.2348,56.2095)"><polygon points="-5,-5,0,0,-5,5"/></g><g class="DimensionMark" fill="#000000" id="mark3" stroke="none" style="fill-opacity: 1; pointer-events: visible;" transform="matrix(1,0,0,1,101.1174,112.4191)"><polygon points="-5,-5,0,0,5,-5"/></g><g class="DimensionMark" fill="#000000" id="mark4" stroke="none" style="fill-opacity: 1; pointer-events: visible;" transform="matrix(1,0,0,1,0,56.2095)"><polygon points="5,5,0,0,5,-5"/></g></g><g class="SpaceDimensionsLabel" transform="matrix(1,0,0,1,56.2096,56.2096)"><g class="TextLabel NameLabel" id="NameLabel" style="display: block;"/><g class="TextLabel DimensionMeasureLabel" id="DimensionMeasureLabel" style="display: none;" transform="matrix(1,0,0,1,-40.5235,79.6875)"/></g></g></g><g class="Space Closet WalkIn" fill="#ffffff" id="67b0b174-d9ef-45ca-a8d1-2960421a959d" stroke="#ffffff" style="fill-opacity: 1; stroke-opacity: 1; stroke-width: 1;"><polygon points="157.67,663.87 13.74,663.87 13.74,528.38 157.67,528.38 "/><g class="Dimension" transform="matrix(1,0,0,1,13.7429,528.379)"><g class="Visual" style="display: none;" transform="matrix(1,0,0,1,0,0)"><g class="DimensionMark" fill="#000000" id="mark1" stroke="none" style="fill-opacity: 1; pointer-events: visible;" transform="matrix(1,0,0,1,71.964,0)"><polygon points="-5,5,0,0,5,5"/></g><g class="DimensionMark" fill="#000000" id="mark2" stroke="none" style="fill-opacity: 1; pointer-events: visible;" transform="matrix(1,0,0,1,143.9279,67.7455)"><polygon points="-5,-5,0,0,-5,5"/></g><g class="DimensionMark" fill="#000000" id="mark3" stroke="none" style="fill-opacity: 1; pointer-events: visible;" transform="matrix(1,0,0,1,71.964,135.4909)"><polygon points="-5,-5,0,0,5,-5"/></g><g class="DimensionMark" fill="#000000" id="mark4" stroke="none" style="fill-opacity: 1; pointer-events: visible;" transform="matrix(1,0,0,1,0,67.7455)"><polygon points="5,5,0,0,5,-5"/></g></g><g class="SpaceDimensionsLabel" style="display: block;" transform="matrix(1,0,0,1,50.7369,74.0117)"><g class="TextLabel NameLabel" id="NameLabel" style="display: block;"/><g class="TextLabel DimensionMeasureLabel" id="DimensionMeasureLabel" style="display: none;" transform="matrix(1,0,0,1,-116.3281,79.6875)"/></g></g></g><g class="Wall External" fill="#000000" id="Wall" stroke="#000000" style="fill-opacity: 1; stroke-opacity: 1; stroke-width: 1;"><polygon points="13.74,183.21 953.32,183.21 969.32,164.21 -0.26,164.21 "/><g class="Window Regular" fill="#f0f0ff" id="Window" stroke="#000000" style="fill-opacity: 1; stroke-width: 1; stroke-opacity: 1;"><polygon points="45.91,183.21 270.45,183.21 270.45,164.21 45.91,164.21 "/><g class="Glass" id="Glass"><polygon points="45.91,183.21 270.45,183.21 270.45,164.21 45.91,164.21 "/></g><g class="Panel" id="Panel"><line x1="53.40707836419182" x2="262.9548272450845" y1="173.71075093928107" y2="173.71075093928104"/><line x1="53.40707836419182" x2="53.40707836419182" y1="183.21075093928107" y2="164.21075093928107"/><line x1="262.9548272450845" x2="262.9548272450845" y1="183.21075093928104" y2="164.21075093928104"/></g></g><g class="Window Regular" fill="#f0f0ff" id="Window" stroke="#000000" style="fill-opacity: 1; stroke-width: 1; stroke-opacity: 1;"><polygon points="279.92,183.21 417.70,183.21 417.70,164.21 279.92,164.21 "/><g class="Glass" id="Glass"><polygon points="279.92,183.21 417.70,183.21 417.70,164.21 279.92,164.21 "/></g><g class="Panel" id="Panel"><line x1="287.42054031266315" x2="410.19925274075183" y1="173.71075093928104" y2="173.710750939281"/><line x1="287.42054031266315" x2="287.42054031266315" y1="183.21075093928104" y2="164.21075093928104"/><line x1="410.19925274075183" x2="410.19925274075183" y1="183.210750939281" y2="164.210750939281"/></g></g><g class="Window Regular" fill="#f0f0ff" id="Window" stroke="#000000" style="fill-opacity: 1; stroke-width: 1; stroke-opacity: 1;"><polygon points="586.50,183.21 926.74,183.21 926.74,164.21 586.50,164.21 "/><g class="Glass" id="Glass"><polygon points="586.50,183.21 926.74,183.21 926.74,164.21 586.50,164.21 "/></g><g class="Panel" id="Panel"><line x1="594.004473814241" x2="919.2442582909171" y1="173.71075093928098" y2="173.71075093928093"/><line x1="594.004473814241" x2="594.004473814241" y1="183.21075093928098" y2="164.21075093928098"/><line x1="919.2442582909171" x2="919.2442582909171" y1="183.21075093928093" y2="164.21075093928093"/></g></g><g class="Door Swing Beside" fill="#ffffff" id="Door" stroke="#000000" style="fill-opacity: 1; stroke-width: 1; stroke-opacity: 1;"><polygon points="504.47,183.21 581.25,183.21 581.25,164.21 504.47,164.21 "/><g class="Panel Left Positive" fill="none" id="Panel" style=""><g class="PanelArea" fill="none" id="PanelArea" stroke="none" style=""><polygon points="504.47,183.21 581.25,183.21 581.25,164.21 504.47,164.21 "/></g><path d="M581.25,164.21 q0.00,-76.78 -76.78,-76.78 l0.00,76.78Z"/></g></g></g><g class="Wall External" fill="#000000" id="Wall" stroke="#000000" style="fill-opacity: 1; stroke-opacity: 1; stroke-width: 1;"><polygon points="953.32,183.21 953.32,663.87 969.32,679.87 969.32,164.21 "/></g><g class="Wall External" fill="#000000" id="Wall" stroke="#000000" style="fill-opacity: 1; stroke-opacity: 1; stroke-width: 1;"><polygon points="953.32,663.87 13.74,663.87 -0.26,679.87 969.32,679.87 "/><g class="Door Swing Beside" fill="#ffffff" id="Door" stroke="#000000" style="fill-opacity: 1; stroke-width: 1; stroke-opacity: 1;"><polygon points="418.32,663.87 334.51,663.87 334.51,679.87 418.32,679.87 "/><g class="Panel Left Negative" fill="none" id="Panel" style=""><g class="PanelArea" fill="none" id="PanelArea" stroke="none" style=""><polygon points="418.32,663.87 334.51,663.87 334.51,679.87 418.32,679.87 "/></g><path d="M418.32,663.87 q0.00,-83.81 -83.81,-83.81 l0.00,83.81Z"/></g></g></g><g class="Wall External" fill="#000000" id="Wall" stroke="#000000" style="fill-opacity: 1; stroke-opacity: 1; stroke-width: 1;"><polygon points="13.74,663.87 13.74,183.21 -0.26,164.21 -0.26,679.87 "/></g><g class="Wall" fill="#000000" id="Wall" stroke="#000000" style="fill-opacity: 1; stroke-opacity: 1; stroke-width: 1;"><polygon points="-0.26,164.21 -0.26,0.24 7.74,0.24 7.74,164.21 "/></g><g class="Wall" fill="#000000" id="Wall" stroke="#000000" style="fill-opacity: 1; stroke-opacity: 1; stroke-width: 1;"><polygon points="969.32,164.21 969.32,0.24 961.32,0.24 961.32,164.21 "/></g><g class="Railing" fill="#ffffff" id="Railing" stroke="#000000" style="fill-opacity: 1; stroke-opacity: 1; stroke-width: 1;"><polygon points="961.32,0.24 7.74,0.24 7.74,7.24 961.32,7.24 " style="stroke-dasharray: 0;"/></g><g class="Wall" fill="#000000" id="Wall" stroke="#000000" style="fill-opacity: 1; stroke-opacity: 1; stroke-width: 1;"><polygon points="270.43,183.21 270.43,528.38 279.43,519.38 279.43,183.21 "/></g><g class="Wall" fill="#000000" id="Wall" stroke="#000000" style="fill-opacity: 1; stroke-opacity: 1; stroke-width: 1;"><polygon points="270.43,519.38 13.74,519.38 13.74,528.38 270.43,528.38 "/><g class="Door Swing Beside" fill="#ffffff" id="Door" stroke="#000000" style="fill-opacity: 1; stroke-width: 1; stroke-opacity: 1;"><polygon points="249.67,519.38 182.72,519.38 182.72,528.38 249.67,528.38 "/><g class="Panel Right Negative" fill="none" id="Panel" style=""><g class="PanelArea" fill="none" id="PanelArea" stroke="none" style=""><polygon points="249.67,519.38 182.72,519.38 182.72,528.38 249.67,528.38 "/></g><path d="M182.72,519.38 q0.00,-66.95 66.95,-66.95 l0.00,66.95Z"/></g></g></g><g class="Wall" fill="#000000" id="Wall" stroke="#000000" style="fill-opacity: 1; stroke-opacity: 1; stroke-width: 1;"><polygon points="157.67,528.38 157.67,663.87 166.67,663.87 166.67,528.38 "/><g class="Door Swing Beside" fill="#ffffff" id="Door" stroke="#000000" style="fill-opacity: 1; stroke-width: 1; stroke-opacity: 1;"><polygon points="157.67,551.19 157.67,616.92 166.67,616.92 166.67,551.19 "/><g class="Panel Left Positive" fill="none" id="Panel" style=""><g class="PanelArea" fill="none" id="PanelArea" stroke="none" style=""><polygon points="157.67,551.19 157.67,616.92 166.67,616.92 166.67,551.19 "/></g><path d="M166.67,616.92 q65.73,0.00 65.73,-65.73 l-65.73,0.00Z"/></g></g></g><g class="Wall" fill="#000000" id="Wall" stroke="#000000" style="fill-opacity: 1; stroke-opacity: 1; stroke-width: 1;"><polygon points="270.43,528.38 481.67,528.38 496.67,519.38 279.43,519.38 "/><g class="Door Swing Beside" fill="#ffffff" id="Door" stroke="#000000" style="fill-opacity: 1; stroke-width: 1; stroke-opacity: 1;"><polygon points="325.56,528.38 394.83,528.38 394.83,519.38 325.56,519.38 "/><g class="Panel Left Negative" fill="none" id="Panel" style=""><g class="PanelArea" fill="none" id="PanelArea" stroke="none" style=""><polygon points="325.56,528.38 394.83,528.38 394.83,519.38 325.56,519.38 "/></g><path d="M325.56,528.38 q0.00,69.27 69.27,69.27 l0.00,-69.27Z"/></g></g></g><g class="Wall" fill="#000000" id="Wall" stroke="#000000" style="fill-opacity: 1; stroke-opacity: 1; stroke-width: 1;"><polygon points="496.67,528.38 496.67,336.30 481.67,336.30 481.67,519.38 "/></g><g class="Wall" fill="#000000" id="Wall" stroke="#000000" style="fill-opacity: 1; stroke-opacity: 1; stroke-width: 1;"><polygon points="270.43,406.96 496.67,406.96 496.67,396.96 270.43,396.96 "/></g><g class="Wall" fill="#000000" id="Wall" stroke="#000000" style="fill-opacity: 1; stroke-opacity: 1; stroke-width: 1;"><polygon points="436.32,336.30 436.32,396.96 481.94,396.96 481.94,336.30 "/></g><g class="Wall" fill="#000000" id="Wall" stroke="#000000" style="fill-opacity: 1; stroke-opacity: 1; stroke-width: 1;"><polygon points="496.67,245.77 496.67,183.21 480.83,183.21 480.83,245.77 "/></g><g class="Wall" fill="#000000" id="Wall" stroke="#000000" style="fill-opacity: 1; stroke-opacity: 1; stroke-width: 1;"><polygon points="496.67,519.38 496.67,663.87 481.67,663.87 481.67,528.38 "/><g class="Door None Beside" fill="#ffffff" id="Door" stroke="#000000" style="fill-opacity: 1; stroke-width: 1; stroke-opacity: 1;"><polygon points="496.67,536.19 496.67,647.36 481.67,647.36 481.67,536.19 "/></g></g><g class="FixedFurniture ElectricalAppliance Refrigerator" fill="#ffffff" stroke="#000000" style="fill-opacity: 1; stroke-opacity: 1;" transform="matrix(1,0,0,1,420.8313,183.3826)">
<g class="BoundaryPolygon">
<polygon points="0,0 60,0 60,60 0,60"/>
</g>
<g class="electricitySign" fill="none">
<path d="M0,0,30,37.1v-18L60,56.3"/>
</g>
<g class="Doors">
<rect height="4" width="60" y="56"/>
</g>
<g class="Direction" fill-opacity="0.9" style="display: none;">
<polygon fill="#444444" points="32.009 55.197 32.009 44.581 29 44.581 29 55.197 25.197 55.197 30.5 60 35.803 55.197 32.009 55.197"/>
</g>
<g class="Name" fill-opacity="0.9" style="display: none;">

</g>
<desc>Width:60 Height:170 Depth:60 Elevation:0</desc>
</g><g class="FixedFurniture BaseCabinet" fill="#ffffff" stroke="#000000" style="fill-opacity: 1; stroke-opacity: 1;" transform="matrix(1,0,0,1,279.5913,183.3827)">
<g class="BoundaryPolygon">
<polygon points="0.00,0.00 141.24,0.00 141.24,60.00 0.00,60.00 "/>
</g>
<g class="Direction" fill-opacity="0.9" style="display: none;">
<polygon fill="#444444" points="75.35,55.20 75.35,44.58 72.34,44.58 72.34,55.20 68.54,55.20 73.84,60.00 79.14,55.20 75.35,55.20 "/>
</g>
<g class="Name" fill-opacity="0.9" style="display: none;">

</g>
<desc>Width:60 Height:90 Depth:60 Elevation:0</desc>
</g><g class="FixedFurniture BaseCabinet" fill="#ffffff" stroke="#000000" style="fill-opacity: 1; stroke-opacity: 1;" transform="matrix(-1,0,0,-1,436.3182,396.9599)">
<g class="BoundaryPolygon">
<polygon points="0.00,0.00 156.76,0.00 156.76,60.00 0.00,60.00 "/>
</g>
<g class="Direction" fill-opacity="0.9" style="display: none;">
<polygon fill="#444444" points="83.63,55.20 83.63,44.58 80.62,44.58 80.62,55.20 76.82,55.20 82.12,60.00 87.42,55.20 83.63,55.20 "/>
</g>
<g class="Name" fill-opacity="0.9" style="display: none;">

</g>
<desc>Width:60 Height:90 Depth:60 Elevation:0</desc>
</g><g class="FixedFurniture Sink" fill="#ffffff" stroke="#000000" style="fill-opacity: 1; stroke-opacity: 1;" transform="matrix(-1,0,0,-1,335.0473,396.9599)">
<g class="BoundaryPolygon" fill="none" stroke="none">
<polygon points="0.00,0.00 55.49,0.00 55.49,60.00 0.00,60.00 "/>
</g>
<g class="InnerPolygon">
<polygon points="4.62,9.70 50.87,9.70 50.87,54.70 4.62,54.70 "/>
</g>
<g class="OuterDrain" stroke-width="0.8">
<circle cx="27.74571300046899" cy="32.2" r="3.5"/>
</g>
<g class="InnerDrain" stroke-width="0.8">
<circle cx="27.74571300046899" cy="32.2" r="2"/>
</g>
<g class="Faucet">
<polygon points="24.97,5.00 30.97,5.00 30.97,19.00 24.97,19.00 "/>
</g>
<g class="Direction" fill-opacity="0.9" style="display: none;">
<polygon fill="#444444" points="29.60,55.20 29.60,44.58 26.59,44.58 26.59,55.20 22.79,55.20 28.09,60.00 33.40,55.20 29.60,55.20 "/>
</g>
<g class="Name" fill-opacity="0.9" style="display: none;">

</g>
<desc>Width:60 Height:90 Depth:60 Elevation:0</desc>
</g><g class="FixedFurniture ElectricalAppliance IntegratedStoveSmall" fill="#ffffff" stroke="#000000" style="fill-opacity: 1; stroke-opacity: 1;" transform="matrix(-1,0,0,-1,436.3182,396.9599)">
<g class="BoundaryPolygon" fill="none" stroke="none">
<polygon points="0.00,0.00 39.65,0.00 39.65,60.00 0.00,60.00 "/>
</g>
<g class="InnerPolygon">
<polygon points="2.00,2.00 37.17,2.00 37.17,58.00 2.00,58.00 "/>
</g>
<g class="OuterCircle">
<circle cx="19.822786929733823" cy="16" r="8"/>
<circle cx="19.822786929733823" cy="43.9" r="8"/>
</g>
<g class="Direction" fill-opacity="0.9" style="display: none;">
<polygon fill="#444444" points="39.66,55.20 39.66,44.58 36.65,44.58 36.65,55.20 32.84,55.20 38.15,60.00 43.45,55.20 39.66,55.20 "/>
</g>
<g class="Name" fill-opacity="0.9" style="display: none;">

</g>
<desc>Width:60 Height:90 Depth:30 Elevation:0</desc>
</g><g class="FixedFurniture Toilet" fill="#ffffff" stroke="#000000" style="fill-opacity: 1; stroke-opacity: 1;" transform="matrix(1,0,0,1,355.5672,406.9599)">
<g class="BoundaryPolygon" fill="none" stroke="none">
<polygon points="0,0 41,0 41,71 0,71"/>
</g>
<g class="InnerPolygon">
<rect height="17.98" width="39.989" x="0.502" y="0.5"/>
<path d="M40.491,44.237S41.619,70.5,20.907,70.5C-.523,70.5.6,44.237.6,44.237L.5,18.48H40.491Z"/>
<rect height="3.03" width="6.357" x="17.318" y="7.975"/>
</g>
<desc>Width:41 Height:85 Depth:71 Elevation:0</desc>
</g><g class="FixedFurniture ElectricalAppliance WashingMachine" fill="#ffffff" stroke="#000000" style="fill-opacity: 1; stroke-opacity: 1;" transform="matrix(0,-0.7977,1,0,279.4313,454.8219)">
<g class="BoundaryPolygon">
<polygon points="0,0 60,0 60,60 0,60"/>
</g>
<g class="electricitySign" fill="none">
<path d="M0,0,30,41V20.8L60,60"/>
</g>
<g class="Handle">
<path d="M2.7,59.4H57.3"/>
</g>
<g class="Direction" fill-opacity="0.9" style="display: none;">
<polygon fill="#444444" points="32.009 55.197 32.009 44.581 29 44.581 29 55.197 25.197 55.197 30.5 60 35.803 55.197 32.009 55.197"/>
</g>
<g class="Name" fill-opacity="0.9" style="display: none;">

</g>
<desc>Width:60 Height:90 Depth:60 Elevation:0</desc>
</g><g class="FixedFurniture Shower" fill="#ffffff" stroke="#000000" style="fill-opacity: 1; stroke-opacity: 1;" transform="matrix(1,0,0,1,425.6946,406.9599)">
<g class="BoundaryPolygon" fill="none" stroke="none">
<polygon points="0,0 32,0 32,19 0,19"/>
</g>
<g class="InnerPolygon">
<rect height="6.1" width="11.2" x="3.7" y="0.5"/>
<rect height="6.1" width="11.2" x="17.6" y="0.5"/>
<rect height="6.1" width="3.4" x="28.7" y="0.5"/>
<rect height="6.1" width="3.2" x="0.5" y="0.5"/>
<path d="M14.9,8.5c0,1.5-0.4,3.3-1.6,5    c-0.4,0.6-1,1.1-1.1,1.7c-0.2,1.1,0.3,2.8,2.5,3.2c0.5,0.1,1.3,0.1,1.6,0.1h-0.1c0.3,0,1.1,0,1.6-0.1c2.2-0.4,2.7-2.1,2.5-3.2    c-0.1-0.6-0.7-1.1-1.1-1.7c-1.2-1.7-1.6-3.5-1.6-5"/>
<path d="M12.2,15.3c0.1,0.2,1.6,1.9,4.2,1.9 c2.4-0.1,3.7-1.7,3.9-1.9"/>
<path d="M14.9,0.5h2.7v8c-0.9,0-1.8,0-2.7,0l0,0 C14.9,5.9,14.9,3.2,14.9,0.5z"/>
</g>
<g class="Indicator">
<path d="M3.7,3.6C5,3.1,5.2,3,5.2,3 c0,1.1,0,0,0,1.1C5.2,4.1,5.1,4.1,3.7,3.6"/>
<path d="M28.7,3.6 C27.4,3.1,27.2,3,27.2,3c0,1.1,0,0,0,1.1C27.2,4.1,27.3,4.1,28.7,3.6"/>
</g>
<desc>Width:32 Height:97 Depth:19 Elevation:135</desc>
</g><g class="FixedFurnitureSet" fill="#ffffff" id="FixedFurnitureSet" stroke="#000000" style="fill-opacity: 0.4; stroke-opacity: 0.4;" transform="matrix(0,-1,1,0,279.4313,514.5236)"><g class="FixedFurniture BaseCabinet" fill="#ffffff" stroke="#000000" style="fill-opacity: 1; stroke-opacity: 1;" transform="matrix(1,0,0,1,0,0)">
<g class="BoundaryPolygon">
<polygon points="0.00,0.00 54.45,0.00 54.45,40.58 0.00,40.58 "/>
</g>
<g class="Direction" fill-opacity="0.9" style="display: none;">
<polygon fill="#444444" points="29.05,37.33 29.05,26.71 26.04,26.71 26.04,37.33 22.24,37.33 27.54,42.13 32.84,37.33 29.05,37.33 "/>
</g>
<g class="Name" fill-opacity="0.9" style="display: none;">

</g>
<desc>Width:60 Height:5 Depth:60 Elevation:105</desc>
</g><g class="FixedFurniture Sink" fill="#ffffff" stroke="#000000" style="fill-opacity: 1; stroke-opacity: 1;" transform="matrix(1,0,0,1,0,0)">
<g class="BoundaryPolygon" fill="none" stroke="none">
<polygon points="0.00,0.00 54.45,0.00 54.45,40.58 0.00,40.58 "/>
</g>
<g class="InnerPolygon">
<polygon points="4.54,9.70 49.91,9.70 49.91,36.99 4.54,36.99 "/>
</g>
<g class="OuterDrain" stroke-width="0.8">
<circle cx="27.225492923654144" cy="21.777101749860694" r="3.5"/>
</g>
<g class="InnerDrain" stroke-width="0.8">
<circle cx="27.225492923654144" cy="21.777101749860694" r="2"/>
</g>
<g class="Faucet">
<polygon points="24.50,3.38 30.50,3.38 30.50,17.38 24.50,17.38 "/>
</g>
<g class="Direction" fill-opacity="0.9" style="display: none;">
<polygon fill="#444444" points="29.05,37.33 29.05,26.71 26.04,26.71 26.04,37.33 22.24,37.33 27.54,42.13 32.84,37.33 29.05,37.33 "/>
</g>
<g class="Name" fill-opacity="0.9" style="display: none;">

</g>
<desc>Width:60 Height:90 Depth:60 Elevation:0</desc>
</g></g><g class="SelectionControls" fill="#0000ff" stroke="#0000ff" style="display: none;"><g class="rotateControl" style="display: none;"><circle cx="506.5002610068764" cy="2.22551341622961" r="5" style="stroke : none; fill-opacity: 0.5; cursor:crosshair"/></g><g class="ResizeNControl" style="display: none;"><circle cx="0" cy="0" r="5" style="stroke : none; fill-opacity: 0.5"/></g><g class="ResizeNEControl" style="display: none;"><circle cx="0" cy="0" r="5" style="stroke : none; fill-opacity: 0.5"/></g><g class="ResizeEControl" style="display: none;"><circle cx="0" cy="0" r="5" style="stroke : none; fill-opacity: 0.5"/></g><g class="ResizeSEControl" style="display: none;"><circle cx="0" cy="0" r="5" style="stroke : none; fill-opacity: 0.5"/></g><g class="ResizeSControl" style="display: none;"><circle cx="0" cy="0" r="5" style="stroke : none; fill-opacity: 0.5"/></g><g class="ResizeSWControl" style="display: none;"><circle cx="0" cy="0" r="5" style="stroke : none; fill-opacity: 0.5"/></g><g class="ResizeWControl" style="display: none;"><circle cx="0" cy="0" r="5" style="stroke : none; fill-opacity: 0.5"/></g><g class="ResizeNWControl" style="display: none;"><circle cx="0" cy="0" r="5" style="stroke : none; fill-opacity: 0.5"/></g><g class="removeControl" style="display: none;"><polygon points="430.63,32.23 582.37,32.23 582.37,72.19 430.63,72.19 " style="stroke : none; fill-opacity: 0.1"/></g><g class="copyPasteControl" style="display: none;"><polygon style="stroke : none; fill-opacity: 0.1"/></g><g class="translateControl" style="display: none;"><polygon points="430.63,32.23 582.37,32.23 582.37,72.19 430.63,72.19 " style="stroke : none; fill-opacity: 0.1; cursor:move"/></g></g><g class="SelectionControls" fill="#0000ff" stroke="#0000ff" style="display: none;"><polygon fill="none" points="7.74,7.24 961.32,7.24 961.32,164.21 7.74,164.21 " stroke="#0000ff" style=""/><g class="rotateControl" style="display: none;"><circle cx="484.52937253031394" cy="-22.758811583770388" r="5" style="stroke : none; fill-opacity: 0.5; cursor:crosshair"/></g><g class="ResizeNControl" style="display: none;"><circle cx="0" cy="0" r="5" style="stroke : none; fill-opacity: 0.5"/></g><g class="ResizeNEControl" style="display: none;"><circle cx="0" cy="0" r="5" style="stroke : none; fill-opacity: 0.5"/></g><g class="ResizeEControl" style="display: none;"><circle cx="0" cy="0" r="5" style="stroke : none; fill-opacity: 0.5"/></g><g class="ResizeSEControl" style="display: none;"><circle cx="0" cy="0" r="5" style="stroke : none; fill-opacity: 0.5"/></g><g class="ResizeSControl" style="display: none;"><circle cx="0" cy="0" r="5" style="stroke : none; fill-opacity: 0.5"/></g><g class="ResizeSWControl" style="display: none;"><circle cx="0" cy="0" r="5" style="stroke : none; fill-opacity: 0.5"/></g><g class="ResizeWControl" style="display: none;"><circle cx="0" cy="0" r="5" style="stroke : none; fill-opacity: 0.5"/></g><g class="ResizeNWControl" style="display: none;"><circle cx="0" cy="0" r="5" style="stroke : none; fill-opacity: 0.5"/></g><g class="removeControl" style="display: none;"><polygon style="stroke : none; fill-opacity: 0.1"/></g><g class="copyPasteControl" style="display: none;"><polygon style="stroke : none; fill-opacity: 0.1"/></g><g class="translateControl" style="display: none;"><polygon style="stroke : none; fill-opacity: 0.1; cursor:move"/></g></g></g></g></g></svg>