<?xml version="1.0" encoding="utf-8"?>
<svg height="919.4499535560608" id="temp" version="1.1" viewBox="0 0 983.7199658155441 919.4499535560608" width="983.7199658155441" xmlns="http://www.w3.org/2000/svg" xmlns:xlink="http://www.w3.org/1999/xlink"><defs/><g class="Model v1-1" id="Model"><g class="Floor"><g class="Floorplan Floor-1" id="Floor-1" transform="matrix(1,0,0,1,0,0)"><g class="Space Outdoor Balcony" fill="#ffffff" id="47820d1d-8638-475e-9dfe-f57d1b9b694e" stroke="#000000" style="stroke-width: 1; fill-opacity: 1; stroke-opacity: 1;"><polygon points="147.38,22.45 12.05,22.45 12.05,301.75 148.94,301.75 147.38,22.45 147.38,22.45 "/><g class="Dimension" transform="matrix(1,0,0,1,12.048,22.4481)"><g class="Visual" style="display: none;" transform="matrix(1,0,0,1,0,0)"><g class="DimensionMark" fill="#000000" id="mark1" stroke="none" style="fill-opacity: 1; pointer-events: visible;" transform="matrix(1,0,0,1,68.4465,0)"><polygon points="-5,5,0,0,5,5"/></g><g class="DimensionMark" fill="#000000" id="mark2" stroke="none" style="fill-opacity: 1; pointer-events: visible;" transform="matrix(1,0,0,1,136.1104,139.657)"><polygon points="-5,-5,0,0,-5,5"/></g><g class="DimensionMark" fill="#000000" id="mark3" stroke="none" style="fill-opacity: 1; pointer-events: visible;" transform="matrix(1,0,0,1,68.4465,279.3052)"><polygon points="-5,-5,0,0,5,-5"/></g><g class="DimensionMark" fill="#000000" id="mark4" stroke="none" style="fill-opacity: 1; pointer-events: visible;" transform="matrix(1,0,0,1,0,139.657)"><polygon points="5,5,0,0,5,-5"/></g></g><g class="SpaceDimensionsLabel" transform="matrix(0,-1,1,0,78.9212,203.1)"><g class="TextLabel NameLabel" id="NameLabel" style="display: none;"/><g class="TextLabel DimensionMeasureLabel" id="DimensionMeasureLabel" style="display: none;" transform="matrix(1,0,0,1,-63.7344,80.0938)"/></g></g></g><g class="Space LivingRoom" fill="#ffffff" id="88411433-2b44-436c-93d7-44011563510d" stroke="#ffffff" style="fill-opacity: 1; stroke-opacity: 1; stroke-width: 1;"><polygon points="550.88,642.44 40.14,642.44 40.14,322.75 550.88,322.75 "/><g class="Dimension" transform="matrix(1,0,0,1,40.1389,322.7533)"><g class="Visual" style="display: none;" transform="matrix(1,0,0,1,0,0)"><g class="DimensionMark" fill="#000000" id="mark1" stroke="none" style="fill-opacity: 1; pointer-events: visible;" transform="matrix(1,0,0,1,255.3695,0)"><polygon points="-5,5,0,0,5,5"/></g><g class="DimensionMark" fill="#000000" id="mark2" stroke="none" style="fill-opacity: 1; pointer-events: visible;" transform="matrix(1,0,0,1,510.739,159.8448)"><polygon points="-5,-5,0,0,-5,5"/></g><g class="DimensionMark" fill="#000000" id="mark3" stroke="none" style="fill-opacity: 1; pointer-events: visible;" transform="matrix(1,0,0,1,255.3695,319.6897)"><polygon points="-5,-5,0,0,5,-5"/></g><g class="DimensionMark" fill="#000000" id="mark4" stroke="none" style="fill-opacity: 1; pointer-events: visible;" transform="matrix(1,0,0,1,0,159.8448)"><polygon points="5,5,0,0,5,-5"/></g></g><g class="SpaceDimensionsLabel" transform="matrix(1,0,0,1,236.4458,180.774)"><g class="TextLabel NameLabel" id="NameLabel" style="display: none;"/><g class="TextLabel DimensionMeasureLabel" id="DimensionMeasureLabel" style="display: none;" transform="matrix(1,0,0,1,-114.625,80.0938)"/></g></g></g><g class="Space Entry Lobby" fill="#ffffff" id="e8d1c88c-7e83-4d4f-83f4-3633a3b95af5" stroke="#ffffff" style="fill-opacity: 1; stroke-opacity: 1; stroke-width: 1;"><polygon points="705.09,658.44 750.69,658.44 750.69,821.91 613.57,821.91 613.57,642.44 550.88,642.44 550.88,322.75 705.09,322.75 "/><g class="Dimension" transform="matrix(1,0,0,1,550.8779,322.7533)"><g class="Visual" style="display: none;" transform="matrix(1,0,0,1,0,0)"><g class="DimensionMark" fill="#000000" id="mark1" stroke="none" style="fill-opacity: 1; pointer-events: visible;" transform="matrix(1,0,0,1,99.9061,0)"><polygon points="-5,5,0,0,5,5"/></g><g class="DimensionMark" fill="#000000" id="mark2" stroke="none" style="fill-opacity: 1; pointer-events: visible;" transform="matrix(1,0,0,1,154.2125,249.5796)"><polygon points="-5,-5,0,0,-5,5"/></g><g class="DimensionMark" fill="#000000" id="mark3" stroke="none" style="fill-opacity: 1; pointer-events: visible;" transform="matrix(1,0,0,1,99.9061,499.1592)"><polygon points="-5,-5,0,0,5,-5"/></g><g class="DimensionMark" fill="#000000" id="mark4" stroke="none" style="fill-opacity: 1; pointer-events: visible;" transform="matrix(1,0,0,1,0,249.5796)"><polygon points="5,5,0,0,5,-5"/></g></g><g class="SpaceDimensionsLabel" transform="matrix(1,0,0,1,91.4748,399.1286)"><g class="TextLabel NameLabel" id="NameLabel" style="display: none;"/><g class="TextLabel DimensionMeasureLabel" id="DimensionMeasureLabel" style="display: none;" transform="matrix(1,0,0,1,-119.0781,80.0938)"/></g></g></g><g class="Space Bedroom" fill="#ffffff" id="af61a9b7-6658-4f5c-9d5e-72811bae6b74" stroke="#ffffff" style="fill-opacity: 1; stroke-opacity: 1; stroke-width: 1;"><polygon points="556.99,301.75 170.05,301.75 168.51,24.31 556.99,24.31 "/><g class="Dimension" transform="matrix(1,0,0,1,169.2776,24.3092)"><g class="Visual" style="display: none;" transform="matrix(1,0,0,1,0,0)"><g class="DimensionMark" fill="#000000" id="mark1" stroke="none" style="fill-opacity: 1; pointer-events: visible;" transform="matrix(1,0,0,1,193.4702,0)"><polygon points="-5,5,0,0,5,5"/></g><g class="DimensionMark" fill="#000000" id="mark2" stroke="none" style="fill-opacity: 1; pointer-events: visible;" transform="matrix(1,0,0,1,387.7126,138.7178)"><polygon points="-5,-5,0,0,-5,5"/></g><g class="DimensionMark" fill="#000000" id="mark3" stroke="none" style="fill-opacity: 1; pointer-events: visible;" transform="matrix(1,0,0,1,193.4702,277.4442)"><polygon points="-5,-5,0,0,5,-5"/></g><g class="DimensionMark" fill="#000000" id="mark4" stroke="none" style="fill-opacity: 1; pointer-events: visible;" transform="matrix(1,0,0,1,0,138.7178)"><polygon points="5,5,0,0,5,-5"/></g></g><g class="SpaceDimensionsLabel" transform="matrix(1,0,0,1,146.6195,156.1113)"><g class="TextLabel NameLabel" id="NameLabel" style="display: none;"/><g class="TextLabel DimensionMeasureLabel" id="DimensionMeasureLabel" style="display: none;" transform="matrix(1,0,0,1,-113.7031,80.0938)"/></g></g></g><g class="Space Bedroom" fill="#ffffff" id="da1080fe-c80c-43c7-89c9-b55e80170538" stroke="#ffffff" style="fill-opacity: 1; stroke-opacity: 1; stroke-width: 1;"><polygon points="962.72,301.75 620.94,301.75 620.94,24.31 962.72,24.31 "/><g class="Dimension" transform="matrix(1,0,0,1,620.9433,24.3092)"><g class="Visual" style="display: none;" transform="matrix(1,0,0,1,0,0)"><g class="DimensionMark" fill="#000000" id="mark1" stroke="none" style="fill-opacity: 1; pointer-events: visible;" transform="matrix(1,0,0,1,170.8863,0)"><polygon points="-5,5,0,0,5,5"/></g><g class="DimensionMark" fill="#000000" id="mark2" stroke="none" style="fill-opacity: 1; pointer-events: visible;" transform="matrix(1,0,0,1,341.7725,138.7221)"><polygon points="-5,-5,0,0,-5,5"/></g><g class="DimensionMark" fill="#000000" id="mark3" stroke="none" style="fill-opacity: 1; pointer-events: visible;" transform="matrix(1,0,0,1,170.8863,277.4442)"><polygon points="-5,-5,0,0,5,-5"/></g><g class="DimensionMark" fill="#000000" id="mark4" stroke="none" style="fill-opacity: 1; pointer-events: visible;" transform="matrix(1,0,0,1,0,138.7221)"><polygon points="5,5,0,0,5,-5"/></g></g><g class="SpaceDimensionsLabel" transform="matrix(1,0,0,1,151.8967,161.4569)"><g class="TextLabel NameLabel" id="NameLabel" style="display: none;"/><g class="TextLabel DimensionMeasureLabel" id="DimensionMeasureLabel" style="display: none;" transform="matrix(1,0,0,1,-113.7031,80.0938)"/></g></g></g><g class="Space Kitchen" fill="#ffffff" id="d2a5fd7c-2f7d-4c18-9c20-e5d901da9e9d" stroke="#ffffff" style="fill-opacity: 1; stroke-opacity: 1; stroke-width: 1;"><polygon points="962.72,645.44 716.51,645.44 716.51,322.75 962.72,322.75 "/><g class="Dimension" transform="matrix(1,0,0,1,716.5083,322.7533)"><g class="Visual" style="display: none;" transform="matrix(1,0,0,1,0,0)"><g class="DimensionMark" fill="#000000" id="mark1" stroke="none" style="fill-opacity: 1; pointer-events: visible;" transform="matrix(1,0,0,1,123.1038,0)"><polygon points="-5,5,0,0,5,5"/></g><g class="DimensionMark" fill="#000000" id="mark2" stroke="none" style="fill-opacity: 1; pointer-events: visible;" transform="matrix(1,0,0,1,246.2075,161.3444)"><polygon points="-5,-5,0,0,-5,5"/></g><g class="DimensionMark" fill="#000000" id="mark3" stroke="none" style="fill-opacity: 1; pointer-events: visible;" transform="matrix(1,0,0,1,123.1038,322.6887)"><polygon points="-5,-5,0,0,5,-5"/></g><g class="DimensionMark" fill="#000000" id="mark4" stroke="none" style="fill-opacity: 1; pointer-events: visible;" transform="matrix(1,0,0,1,0,161.3444)"><polygon points="5,5,0,0,5,-5"/></g></g><g class="SpaceDimensionsLabel" transform="matrix(1,0,0,1,133.3403,147.6716)"><g class="TextLabel NameLabel" id="NameLabel" style="display: none;"/><g class="TextLabel DimensionMeasureLabel" id="DimensionMeasureLabel" style="display: none;" transform="matrix(1,0,0,1,-128.0078,80.0938)"/></g></g></g><g class="Space Undefined" fill="#ffffff" id="5510a6c2-3564-4020-8bf3-53e2c5e9bcc5" stroke="#ffffff" style="fill-opacity: 1; stroke-opacity: 1; stroke-width: 1;"><polygon points="962.72,821.91 762.11,821.91 762.11,704.73 813.94,704.73 813.94,658.44 962.72,658.44 "/><g class="Dimension" transform="matrix(1,0,0,1,762.1081,658.4421)"><g class="Visual" style="display: none;" transform="matrix(1,0,0,1,0,0)"><g class="DimensionMark" fill="#000000" id="mark1" stroke="none" style="fill-opacity: 1; pointer-events: visible;" transform="matrix(1,0,0,1,100.3039,0)"><polygon points="-5,5,0,0,5,5"/></g><g class="DimensionMark" fill="#000000" id="mark2" stroke="none" style="fill-opacity: 1; pointer-events: visible;" transform="matrix(1,0,0,1,200.6077,81.7352)"><polygon points="-5,-5,0,0,-5,5"/></g><g class="DimensionMark" fill="#000000" id="mark3" stroke="none" style="fill-opacity: 1; pointer-events: visible;" transform="matrix(1,0,0,1,100.3039,163.4705)"><polygon points="-5,-5,0,0,5,-5"/></g><g class="DimensionMark" fill="#000000" id="mark4" stroke="none" style="fill-opacity: 1; pointer-events: visible;" transform="matrix(1,0,0,1,0,81.7352)"><polygon points="5,5,0,0,5,-5"/></g></g><g class="SpaceDimensionsLabel" transform="matrix(1,0,0,1,42.2057,159.9471)"><g class="TextLabel NameLabel" id="NameLabel" style="display: none;"/><g class="TextLabel DimensionMeasureLabel" id="DimensionMeasureLabel" style="display: none;" transform="matrix(1,0,0,1,-40.5313,80.0938)"/></g></g></g><g class="Space Undefined" fill="#ffffff" id="9815b81e-54ee-4c87-aea2-c6bcb66cab74" stroke="#ffffff" style="fill-opacity: 1; stroke-opacity: 1; stroke-width: 1;"><polygon points="607.94,166.05 566.99,166.05 566.99,24.31 607.94,24.31 "/><g class="Dimension" transform="matrix(1,0,0,1,566.9902,24.3092)"><g class="Visual" style="display: none;" transform="matrix(1,0,0,1,0,0)"><g class="DimensionMark" fill="#000000" id="mark1" stroke="none" style="fill-opacity: 1; pointer-events: visible;" transform="matrix(1,0,0,1,20.4765,0)"><polygon points="-5,5,0,0,5,5"/></g><g class="DimensionMark" fill="#000000" id="mark2" stroke="none" style="fill-opacity: 1; pointer-events: visible;" transform="matrix(1,0,0,1,40.9531,70.8719)"><polygon points="-5,-5,0,0,-5,5"/></g><g class="DimensionMark" fill="#000000" id="mark3" stroke="none" style="fill-opacity: 1; pointer-events: visible;" transform="matrix(1,0,0,1,20.4765,141.7439)"><polygon points="-5,-5,0,0,5,-5"/></g><g class="DimensionMark" fill="#000000" id="mark4" stroke="none" style="fill-opacity: 1; pointer-events: visible;" transform="matrix(1,0,0,1,0,70.8719)"><polygon points="5,5,0,0,5,-5"/></g></g><g class="SpaceDimensionsLabel" transform="matrix(1,0,0,1,20.4766,20.4766)"><g class="TextLabel NameLabel" id="NameLabel" style="display: none;"/><g class="TextLabel DimensionMeasureLabel" id="DimensionMeasureLabel" style="display: none;" transform="matrix(1,0,0,1,-40.5313,80.0938)"/></g></g></g><g class="Space Undefined" fill="#ffffff" id="d9700443-cb4f-4e37-9cc1-d3fa73fac8b1" stroke="#ffffff" style="fill-opacity: 1; stroke-opacity: 1; stroke-width: 1;"><polygon points="609.94,301.75 569.99,301.75 569.99,179.05 609.94,179.05 "/><g class="Dimension" transform="matrix(1,0,0,1,569.9902,179.053)"><g class="Visual" style="display: none;" transform="matrix(1,0,0,1,0,0)"><g class="DimensionMark" fill="#000000" id="mark1" stroke="none" style="fill-opacity: 1; pointer-events: visible;" transform="matrix(1,0,0,1,19.9765,0)"><polygon points="-5,5,0,0,5,5"/></g><g class="DimensionMark" fill="#000000" id="mark2" stroke="none" style="fill-opacity: 1; pointer-events: visible;" transform="matrix(1,0,0,1,39.9531,61.3502)"><polygon points="-5,-5,0,0,-5,5"/></g><g class="DimensionMark" fill="#000000" id="mark3" stroke="none" style="fill-opacity: 1; pointer-events: visible;" transform="matrix(1,0,0,1,19.9765,122.7003)"><polygon points="-5,-5,0,0,5,-5"/></g><g class="DimensionMark" fill="#000000" id="mark4" stroke="none" style="fill-opacity: 1; pointer-events: visible;" transform="matrix(1,0,0,1,0,61.3502)"><polygon points="5,5,0,0,5,-5"/></g></g><g class="SpaceDimensionsLabel" transform="matrix(1,0,0,1,19.9766,19.9765)"><g class="TextLabel NameLabel" id="NameLabel" style="display: none;"/><g class="TextLabel DimensionMeasureLabel" id="DimensionMeasureLabel" style="display: none;" transform="matrix(1,0,0,1,-40.5313,80.0938)"/></g></g></g><g class="Wall External" fill="#000000" id="Wall" stroke="#000000" style="fill-opacity: 1; stroke-opacity: 1; stroke-width: 1;"><polygon points="147.38,-0.69 983.72,-0.69 962.72,24.31 168.51,24.31 "/></g><g class="Wall External" fill="#000000" id="Wall" stroke="#000000" style="fill-opacity: 1; stroke-opacity: 1; stroke-width: 1;"><polygon points="983.72,-0.69 983.72,842.91 962.72,821.91 962.72,24.31 "/><g class="Window Regular" fill="#f0f0ff" id="Window" stroke="#000000" style="fill-opacity: 1; stroke-width: 1; stroke-opacity: 1;"><polygon points="983.72,58.15 983.72,243.62 962.72,243.62 962.72,58.15 "/><g class="Glass" id="Glass"><polygon points="983.72,58.15 983.72,243.62 962.72,243.62 962.72,58.15 "/></g><g class="Panel" id="Panel"><line x1="973.219970703125" x2="973.219970703125" y1="65.6500015258789" y2="236.1199951171875"/><line x1="983.719970703125" x2="962.719970703125" y1="65.6500015258789" y2="65.6500015258789"/><line x1="983.719970703125" x2="962.719970703125" y1="236.1199951171875" y2="236.1199951171875"/></g></g><g class="Window Regular" fill="#f0f0ff" id="Window" stroke="#000000" style="fill-opacity: 1; stroke-width: 1; stroke-opacity: 1;"><polygon points="983.72,392.53 983.72,558.41 962.72,558.41 962.72,392.53 "/><g class="Glass" id="Glass"><polygon points="983.72,392.53 983.72,558.41 962.72,558.41 962.72,392.53 "/></g><g class="Panel" id="Panel"><line x1="973.219970703125" x2="973.219970703125" y1="400.0299987792969" y2="550.9099731445312"/><line x1="983.719970703125" x2="962.719970703125" y1="400.0299987792969" y2="400.0299987792969"/><line x1="983.719970703125" x2="962.719970703125" y1="550.9099731445312" y2="550.9099731445312"/></g></g><g class="Window Regular" fill="#f0f0ff" id="Window" stroke="#000000" style="fill-opacity: 1; stroke-width: 1; stroke-opacity: 1;"><polygon points="983.72,686.09 983.72,788.29 962.72,788.29 962.72,686.09 "/><g class="Glass" id="Glass"><polygon points="983.72,686.09 983.72,788.29 962.72,788.29 962.72,686.09 "/></g><g class="Panel" id="Panel"><line x1="973.219970703125" x2="973.219970703125" y1="693.5900268554688" y2="780.7899780273438"/><line x1="983.719970703125" x2="962.719970703125" y1="693.5900268554688" y2="693.5900268554688"/><line x1="983.719970703125" x2="962.719970703125" y1="780.7899780273438" y2="780.7899780273438"/></g></g></g><g class="Wall External" fill="#000000" id="Wall" stroke="#000000" style="fill-opacity: 1; stroke-opacity: 1; stroke-width: 1;"><polygon points="983.72,842.91 592.57,842.91 613.57,821.91 962.72,821.91 "/><g class="Door Swing Opposite" fill="#ffffff" id="Door" stroke="#000000" style="fill-opacity: 1; stroke-width: 1; stroke-opacity: 1;"><polygon points="700.85,842.91 624.31,842.91 624.31,821.91 700.85,821.91 "/><g class="Panel Left Negative" fill="none" id="Panel" style=""><g class="PanelArea" fill="none" id="PanelArea" stroke="none" style=""><polygon points="700.85,842.91 624.31,842.91 624.31,821.91 700.85,821.91 "/></g><path d="M700.85,842.91 q0.00,76.54 -76.54,76.54 l0.00,-76.54Z"/></g><g class="Panel Right Positive" fill="none" id="Panel" style=""><g class="PanelArea" fill="none" id="PanelArea" stroke="none" style=""><polygon points="700.85,842.91 624.31,842.91 624.31,821.91 700.85,821.91 "/></g><path d="M700.85,821.91 q0.00,-76.54 -76.54,-76.54 l0.00,76.54Z"/></g></g></g><g class="Wall External" fill="#000000" id="Wall" stroke="#000000" style="fill-opacity: 1; stroke-opacity: 1; stroke-width: 1;"><polygon points="592.57,842.91 592.57,663.44 613.57,642.44 613.57,821.91 "/></g><g class="Wall External" fill="#000000" id="Wall" stroke="#000000" style="fill-opacity: 1; stroke-opacity: 1; stroke-width: 1;"><polygon points="613.57,642.44 40.14,642.44 19.14,663.44 592.57,663.44 "/></g><g class="Wall External" fill="#000000" id="Wall" stroke="#000000" style="fill-opacity: 1; stroke-opacity: 1; stroke-width: 1;"><polygon points="19.14,663.44 19.14,301.75 40.14,322.75 40.14,642.44 "/><g class="Window Regular" fill="#f0f0ff" id="Window" stroke="#000000" style="fill-opacity: 1; stroke-width: 1; stroke-opacity: 1;"><polygon points="19.14,605.32 19.14,360.97 40.14,360.97 40.14,605.32 "/><g class="Glass" id="Glass"><polygon points="19.14,605.32 19.14,360.97 40.14,360.97 40.14,605.32 "/></g><g class="Panel" id="Panel"><line x1="29.639999389648438" x2="29.639999389648438" y1="597.8200073242188" y2="368.4700012207031"/><line x1="19.139999389648438" x2="40.13999938964844" y1="597.8200073242188" y2="597.8200073242188"/><line x1="19.139999389648438" x2="40.13999938964844" y1="368.4700012207031" y2="368.4700012207031"/></g></g></g><g class="Wall External" fill="#000000" id="Wall" stroke="#000000" style="fill-opacity: 1; stroke-opacity: 1; stroke-width: 1;"><polygon points="19.14,301.75 148.94,301.75 170.05,322.75 40.14,322.75 "/><g class="Door Swing Beside" fill="#ffffff" id="Door" stroke="#000000" style="fill-opacity: 1; stroke-width: 1; stroke-opacity: 1;"><polygon points="64.36,301.75 138.63,301.75 138.63,322.75 64.36,322.75 "/><g class="Panel Left Negative" fill="none" id="Panel" style=""><g class="PanelArea" fill="none" id="PanelArea" stroke="none" style=""><polygon points="64.36,301.75 138.63,301.75 138.63,322.75 64.36,322.75 "/></g><path d="M64.36,301.75 q0.00,-74.27 74.27,-74.27 l0.00,74.27Z"/></g></g></g><g class="Wall External" fill="#000000" id="Wall" stroke="#000000" style="fill-opacity: 1; stroke-opacity: 1; stroke-width: 1;"><polygon points="148.94,301.75 147.38,-0.69 168.51,24.31 170.05,322.75 "/><g class="Window Regular" fill="#f0f0ff" id="Window" stroke="#000000" style="fill-opacity: 1; stroke-width: 1; stroke-opacity: 1;"><polygon points="148.88,289.71 147.53,28.84 168.53,28.73 169.88,289.60 "/><g class="Glass" id="Glass"><polygon points="148.88,289.71 147.53,28.84 168.53,28.73 169.88,289.60 "/></g><g class="Panel" id="Panel"><line x1="159.34119279043566" x2="158.06881087167372" y1="282.15509920520356" y2="36.28490705089999"/><line x1="148.84119279043566" x2="169.84119279043566" y1="282.2100918809848" y2="282.1001065294223"/><line x1="147.56881087167372" x2="168.56881087167372" y1="36.339899726681224" y2="36.22989911632966"/></g></g></g><g class="Wall" fill="#000000" id="Wall" stroke="#000000" style="fill-opacity: 1; stroke-opacity: 1; stroke-width: 1;"><polygon points="170.05,322.75 983.72,322.75 983.72,301.75 170.05,301.75 "/><g class="Door Swing Beside" fill="#ffffff" id="Door" stroke="#000000" style="fill-opacity: 1; stroke-width: 1; stroke-opacity: 1;"><polygon points="463.33,322.75 539.50,322.75 539.50,301.75 463.33,301.75 "/><g class="Panel Right Positive" fill="none" id="Panel" style=""><g class="PanelArea" fill="none" id="PanelArea" stroke="none" style=""><polygon points="463.33,322.75 539.50,322.75 539.50,301.75 463.33,301.75 "/></g><path d="M463.33,301.75 q0.00,-76.17 76.17,-76.17 l0.00,76.17Z"/></g></g><g class="Door Swing Beside" fill="#ffffff" id="Door" stroke="#000000" style="fill-opacity: 1; stroke-width: 1; stroke-opacity: 1;"><polygon points="626.15,322.75 701.38,322.75 701.38,301.75 626.15,301.75 "/><g class="Panel Left Positive" fill="none" id="Panel" style=""><g class="PanelArea" fill="none" id="PanelArea" stroke="none" style=""><polygon points="626.15,322.75 701.38,322.75 701.38,301.75 626.15,301.75 "/></g><path d="M701.38,301.75 q0.00,-75.23 -75.23,-75.23 l0.00,75.23Z"/></g></g></g><g class="Wall" fill="#000000" id="Wall" stroke="#000000" style="fill-opacity: 1; stroke-opacity: 1; stroke-width: 1;"><polygon points="620.94,-0.69 620.94,179.05 607.94,179.05 607.94,-0.69 "/></g><g class="Wall" fill="#000000" id="Wall" stroke="#000000" style="fill-opacity: 1; stroke-opacity: 1; stroke-width: 1;"><polygon points="620.94,179.05 556.99,179.05 566.99,166.05 607.94,166.05 "/></g><g class="Wall" fill="#000000" id="Wall" stroke="#000000" style="fill-opacity: 1; stroke-opacity: 1; stroke-width: 1;"><polygon points="556.99,166.05 556.99,322.75 569.99,322.75 569.99,179.05 "/></g><g class="Wall" fill="#000000" id="Wall" stroke="#000000" style="fill-opacity: 1; stroke-opacity: 1; stroke-width: 1;"><polygon points="716.51,511.71 716.51,645.44 705.09,658.44 705.09,511.71 "/><g class="Door None Beside" fill="#ffffff" id="Door" stroke="#000000" style="fill-opacity: 1; stroke-width: 1; stroke-opacity: 1;"><polygon points="716.51,511.96 716.51,576.90 705.09,576.90 705.09,511.96 "/></g></g><g class="Wall" fill="#000000" id="Wall" stroke="#000000" style="fill-opacity: 1; stroke-opacity: 1; stroke-width: 1;"><polygon points="705.09,658.44 983.72,658.44 983.72,645.44 716.51,645.44 "/></g><g class="Wall" fill="#000000" id="Wall" stroke="#000000" style="fill-opacity: 1; stroke-opacity: 1; stroke-width: 1;"><polygon points="750.69,645.44 750.69,842.91 762.11,842.91 762.11,645.44 "/><g class="Door Swing Beside" fill="#ffffff" id="Door" stroke="#000000" style="fill-opacity: 1; stroke-width: 1; stroke-opacity: 1;"><polygon points="750.69,763.32 750.69,815.33 762.11,815.33 762.11,763.32 "/><g class="Panel Left Negative" fill="none" id="Panel" style=""><g class="PanelArea" fill="none" id="PanelArea" stroke="none" style=""><polygon points="750.69,763.32 750.69,815.33 762.11,815.33 762.11,763.32 "/></g><path d="M750.69,763.32 q-52.01,0.00 -52.01,52.01 l52.01,0.00Z"/></g></g></g><g class="Wall" fill="#000000" id="Wall" stroke="#000000" style="fill-opacity: 1; stroke-opacity: 1; stroke-width: 1;"><polygon points="762.11,704.73 813.94,704.73 813.94,652.00 762.11,652.00 "/></g><g class="Wall" fill="#000000" id="Wall" stroke="#000000" style="fill-opacity: 1; stroke-opacity: 1; stroke-width: 1;"><polygon points="147.38,-0.69 1.13,-0.69 12.13,22.45 147.38,22.45 "/></g><g class="Wall" fill="#000000" id="Wall" stroke="#000000" style="fill-opacity: 1; stroke-opacity: 1; stroke-width: 1;"><polygon points="556.99,179.05 556.99,-0.69 566.99,-0.69 566.99,166.05 "/><g class="Door ParallelSlide Beside" fill="#ffffff" id="Door" stroke="#000000" style="fill-opacity: 1; stroke-width: 1; stroke-opacity: 1;"><polygon points="556.99,166.56 556.99,24.43 566.99,24.43 566.99,166.56 "/><g class="Panel Center Positive" id="Panel"><g class="PanelArea" fill="none" id="PanelArea" stroke="none" style=""><polygon points="556.99,166.56 556.99,114.18 566.99,114.18 566.99,166.56 "/></g><path d="M561.99,166.56 L565.99,166.56 L565.99,114.18 L561.99,114.18  Z"/></g><g class="Panel Center Negative" id="Panel"><g class="PanelArea" fill="none" id="PanelArea" stroke="none" style=""><polygon points="556.99,124.18 556.99,66.81 566.99,66.81 566.99,124.18 "/></g><path d="M561.99,124.18 L557.99,124.18 L557.99,66.81 L561.99,66.81  Z"/></g><g class="Panel Center Positive" id="Panel"><g class="PanelArea" fill="none" id="PanelArea" stroke="none" style=""><polygon points="556.99,76.81 556.99,24.43 566.99,24.43 566.99,76.81 "/></g><path d="M561.99,76.81 L565.99,76.81 L565.99,24.43 L561.99,24.43  Z"/></g></g></g><g class="Wall" fill="#000000" id="Wall" stroke="#000000" style="fill-opacity: 1; stroke-opacity: 1; stroke-width: 1;"><polygon points="620.94,179.05 620.94,322.75 609.94,322.75 609.94,179.05 "/><g class="Door ParallelSlide Beside" fill="#ffffff" id="Door" stroke="#000000" style="fill-opacity: 1; stroke-width: 1; stroke-opacity: 1;"><polygon points="620.94,181.90 620.94,286.91 609.94,286.91 609.94,181.90 "/><g class="Panel Center Positive" id="Panel"><g class="PanelArea" fill="none" id="PanelArea" stroke="none" style=""><polygon points="620.94,181.90 620.94,221.91 609.94,221.91 609.94,181.90 "/></g><path d="M615.44,181.90 L611.44,181.90 L611.44,221.91 L615.44,221.91  Z"/></g><g class="Panel Center Negative" id="Panel"><g class="PanelArea" fill="none" id="PanelArea" stroke="none" style=""><polygon points="620.94,211.91 620.94,256.91 609.94,256.91 609.94,211.91 "/></g><path d="M615.44,211.91 L619.44,211.91 L619.44,256.91 L615.44,256.91  Z"/></g><g class="Panel Center Positive" id="Panel"><g class="PanelArea" fill="none" id="PanelArea" stroke="none" style=""><polygon points="620.94,246.91 620.94,286.91 609.94,286.91 609.94,246.91 "/></g><path d="M615.44,246.91 L611.44,246.91 L611.44,286.91 L615.44,286.91  Z"/></g></g></g><g class="Wall" fill="#000000" id="Wall" stroke="#000000" style="fill-opacity: 1; stroke-opacity: 1; stroke-width: 1;"><polygon points="1.13,-0.69 1.13,312.75 12.13,301.75 12.13,22.45 "/><g class="Window Regular" fill="#f0f0ff" id="Window" stroke="#000000" style="fill-opacity: 1; stroke-width: 1; stroke-opacity: 1;"><polygon points="1.13,22.98 1.13,300.90 12.13,300.90 12.13,22.98 "/><g class="Glass" id="Glass"><polygon points="1.13,22.98 1.13,300.90 12.13,300.90 12.13,22.98 "/></g><g class="Panel" id="Panel"><line x1="6.630000054836273" x2="6.630000054836273" y1="30.479999542236328" y2="293.3999938964844"/><line x1="1.1299999952316284" x2="12.130000114440918" y1="30.479999542236328" y2="30.479999542236328"/><line x1="1.1299999952316284" x2="12.130000114440918" y1="293.3999938964844" y2="293.3999938964844"/></g></g></g><g class="Wall" fill="#000000" id="Wall" stroke="#000000" style="fill-opacity: 1; stroke-opacity: 1; stroke-width: 1;"><polygon points="12.13,301.75 19.14,301.75 19.14,312.75 1.13,312.75 "/><g class="Window Regular" fill="#f0f0ff" id="Window" stroke="#000000" style="fill-opacity: 1; stroke-width: 1; stroke-opacity: 1;"><polygon points="11.91,301.75 19.05,301.75 19.05,312.75 11.91,312.75 "/><g class="Glass" id="Glass"><polygon points="11.91,301.75 19.05,301.75 19.05,312.75 11.91,312.75 "/></g><g class="Panel" id="Panel"><line x1="19.40999984741211" x2="11.549999237060547" y1="307.25" y2="307.25"/><line x1="19.40999984741211" x2="19.40999984741211" y1="301.75" y2="312.75"/><line x1="11.549999237060547" x2="11.549999237060547" y1="301.75" y2="312.75"/></g></g></g><g class="Railing" fill="#ffffff" id="Railing" stroke="#000000" style="fill-opacity: 1; stroke-opacity: 1; stroke-width: 1;"><polygon points="716.51,511.71 716.74,322.75 704.78,322.74 704.55,511.69 "/></g><g class="FixedFurnitureSet" id="FixedFurnitureSet" transform="matrix(0,1,-1,0,962.6533,747.4843)"><g class="FixedFurniture BaseCabinet" fill="#ffffff" stroke="#000000" style="fill-opacity: 1; stroke-opacity: 1;" transform="matrix(1,0,0,1,0,0)">
<g class="BoundaryPolygon">
<polygon points="0.00,0.00 57.32,0.00 57.32,39.91 0.00,39.91 "/>
</g>
<g class="Direction" fill-opacity="0.9" style="display: none;">
<polygon fill="#444444" points="30.58,36.72 30.58,26.10 27.57,26.10 27.57,36.72 23.77,36.72 29.07,41.52 34.37,36.72 30.58,36.72 "/>
</g>
<g class="Name" fill-opacity="0.9" style="display: none;">

</g>
<desc>Width:60 Height:5 Depth:60 Elevation:105</desc>
</g><g class="FixedFurniture Sink" fill="#ffffff" stroke="#000000" style="fill-opacity: 1; stroke-opacity: 1;" transform="matrix(1,0,0,1,0,0)">
<g class="BoundaryPolygon" fill="none" stroke="none">
<polygon points="0.00,0.00 57.32,0.00 57.32,39.91 0.00,39.91 "/>
</g>
<g class="InnerPolygon">
<polygon points="4.78,9.70 52.54,9.70 52.54,36.39 4.78,36.39 "/>
</g>
<g class="OuterDrain" stroke-width="0.8">
<circle cx="28.659458441019353" cy="21.419869752546894" r="3.5"/>
</g>
<g class="InnerDrain" stroke-width="0.8">
<circle cx="28.659458441019353" cy="21.419869752546894" r="2"/>
</g>
<g class="Faucet">
<polygon points="25.79,3.33 31.79,3.33 31.79,17.33 25.79,17.33 "/>
</g>
<g class="Direction" fill-opacity="0.9" style="display: none;">
<polygon fill="#444444" points="30.58,36.72 30.58,26.10 27.57,26.10 27.57,36.72 23.77,36.72 29.07,41.52 34.37,36.72 30.58,36.72 "/>
</g>
<g class="Name" fill-opacity="0.9" style="display: none;">

</g>
<desc>Width:60 Height:90 Depth:60 Elevation:0</desc>
</g></g><g class="FixedFurnitureSet" id="FixedFurnitureSet" transform="matrix(0,-1,1,0,716.7427,506.152)"><g class="FixedFurniture Closet" fill="#ffffff" stroke="#000000" style="fill-opacity: 1; stroke-opacity: 1;" transform="matrix(1,0,0,1,0,0)">
<g class="BoundaryPolygon">
<polygon points="0.00,0.00 61.13,0.00 61.13,60.00 0.00,60.00 "/>
</g>
<g class="Direction" fill-opacity="0.9" style="display: none;">
<polygon fill="#444444" points="32.10,54.70 32.10,44.08 29.10,44.08 29.10,54.70 25.29,54.70 30.60,60.00 35.90,54.70 32.10,54.70 "/>
</g>
<g class="Name" fill-opacity="0.9" style="display: none;">

</g>
<desc>Width:60 Height:200 Depth:60 Elevation:0</desc>
</g><g class="FixedFurniture Closet" fill="#ffffff" stroke="#000000" style="fill-opacity: 1; stroke-opacity: 1;" transform="matrix(1,0,0,1,61.1343,0)">
<g class="BoundaryPolygon">
<polygon points="0.00,0.00 61.13,0.00 61.13,60.00 0.00,60.00 "/>
</g>
<g class="Direction" fill-opacity="0.9" style="display: none;">
<polygon fill="#444444" points="32.10,54.70 32.10,44.08 29.10,44.08 29.10,54.70 25.29,54.70 30.60,60.00 35.90,54.70 32.10,54.70 "/>
</g>
<g class="Name" fill-opacity="0.9" style="display: none;">

</g>
<desc>Width:60 Height:200 Depth:60 Elevation:0</desc>
</g><g class="FixedFurniture Closet" fill="#ffffff" stroke="#000000" style="fill-opacity: 1; stroke-opacity: 1;" transform="matrix(1,0,0,1,122.2686,0)">
<g class="BoundaryPolygon">
<polygon points="0.00,0.00 61.13,0.00 61.13,60.00 0.00,60.00 "/>
</g>
<g class="Direction" fill-opacity="0.9" style="display: none;">
<polygon fill="#444444" points="32.10,54.70 32.10,44.08 29.10,44.08 29.10,54.70 25.29,54.70 30.60,60.00 35.90,54.70 32.10,54.70 "/>
</g>
<g class="Name" fill-opacity="0.9" style="display: none;">

</g>
<desc>Width:60 Height:200 Depth:60 Elevation:0</desc>
</g></g><g class="FixedFurniture Toilet" fill="#ffffff" stroke="#000000" style="fill-opacity: 1; stroke-opacity: 1;" transform="matrix(1,0,0,1,765.6529,704.7319)">
<g class="BoundaryPolygon" fill="none" stroke="none">
<polygon points="0,0 41,0 41,71 0,71"/>
</g>
<g class="InnerPolygon">
<rect height="17.98" width="39.989" x="0.502" y="0.5"/>
<path d="M40.491,44.237S41.619,70.5,20.907,70.5C-.523,70.5.6,44.237.6,44.237L.5,18.48H40.491Z"/>
<rect height="3.03" width="6.357" x="17.318" y="7.975"/>
</g>
<desc>Width:41 Height:85 Depth:71 Elevation:0</desc>
</g><g class="FixedFurniture ElectricalAppliance SpaceForAppliance" fill="#ffffff" stroke="#000000" style="fill-opacity: 1; stroke-opacity: 1;" transform="matrix(1,0,0,1,813.9443,658.442)">
<g class="BoundaryPolygon">
<polygon points="0,0 60,0 60,60 0,60"/>
</g>
<g class="electricitySign" fill="none">
<path d="M0,0,30.1,39.8V19.4L59.9,60"/>
</g>
<g class="Direction" fill-opacity="0.9" style="display: none;">
<polygon fill="#444444" points="32.009 55.197 32.009 44.581 29 44.581 29 55.197 25.197 55.197 30.5 60 35.803 55.197 32.009 55.197"/>
</g>
<g class="Name" fill-opacity="0.9" style="display: none;">

</g>
<desc>Width:60 Height:90 Depth:60 Elevation:0</desc>
</g><g class="FixedFurniture ShowerScreen" fill="#ffffff" stroke="#000000" style="fill-opacity: 1; stroke-opacity: 1;" transform="matrix(1,0,0,1,873.9443,658.4421)">
<g class="BoundaryPolygon">
<polygon points="0,0 2.5,0 2.5,60 0,60"/>
</g>
<g class="InnerPolygon" stroke-linejoin="round">
<rect height="60" width="2.5"/>
</g>
<desc>Width:2.5 Height:180 Depth:60 Elevation:135</desc>
</g><g class="FixedFurniture Misc" fill="none" stroke="#000000" style="fill-opacity: 1; stroke-opacity: 1; stroke-width: 1.8; stroke-dasharray: 5, 5;" transform="matrix(1,0,0,1,873.9443,718.4421)"><desc>Width:120 Height:200 Depth:60 Elevation:0</desc><g class="BoundaryPolygon"><path d="M0.00,0.00 L0.00,19.33 L88.77,19.33 "/></g></g><g class="FixedFurniture BaseCabinet" fill="#ffffff" stroke="#000000" style="fill-opacity: 1; stroke-opacity: 1;" transform="matrix(-1,0,0,-1,962.2983,644.9733)">
<g class="BoundaryPolygon">
<polygon points="0.00,0.00 245.79,0.00 245.79,60.00 0.00,60.00 "/>
</g>
<g class="Direction" fill-opacity="0.9" style="display: none;">
<polygon fill="#444444" points="131.13,55.20 131.13,44.58 128.12,44.58 128.12,55.20 124.32,55.20 129.62,60.00 134.92,55.20 131.13,55.20 "/>
</g>
<g class="Name" fill-opacity="0.9" style="display: none;">

</g>
<desc>Width:60 Height:90 Depth:60 Elevation:0</desc>
</g><g class="FixedFurniture ElectricalAppliance IntegratedStove" fill="#ffffff" stroke="#000000" style="fill-opacity: 1; stroke-opacity: 1;" transform="matrix(-1,0,0,-1,815.2527,645.2077)">
<g class="BoundaryPolygon" fill="none" stroke="none">
<polygon points="0.00,0.00 63.36,0.00 63.36,60.00 0.00,60.00 "/>
</g>
<g class="InnerPolygon">
<polygon points="2.00,2.00 61.25,2.00 61.25,58.00 2.00,58.00 "/>
</g>
<g class="OuterCircle">
<circle cx="16.896718753669965" cy="16" r="8"/>
<circle cx="46.46597657259242" cy="16" r="8"/>
<circle cx="16.896718753669965" cy="44" r="8"/>
<circle cx="46.46597657259242" cy="44" r="8"/>
</g>
<g class="Direction" fill-opacity="0.9" style="display: none;">
<polygon fill="#444444" points="33.80,55.20 33.80,44.58 30.79,44.58 30.79,55.20 26.99,55.20 32.29,60.00 37.60,55.20 33.80,55.20 "/>
</g>
<g class="Name" fill-opacity="0.9" style="display: none;">

</g>
<desc>Width:60 Height:90 Depth:30 Elevation:0</desc>
</g><g class="FixedFurniture Sink" fill="#ffffff" stroke="#000000" style="fill-opacity: 1; stroke-opacity: 1;" transform="matrix(-1,0,0,-1,897.7114,640.8377)">
<g class="BoundaryPolygon" fill="none" stroke="none">
<polygon points="0.00,0.00 60.00,0.00 60.00,55.25 0.00,55.25 "/>
</g>
<g class="InnerPolygon">
<polygon points="5.00,9.70 55.00,9.70 55.00,50.37 5.00,50.37 "/>
</g>
<g class="OuterDrain" stroke-width="0.8">
<circle cx="30" cy="29.653287240053405" r="3.5"/>
</g>
<g class="InnerDrain" stroke-width="0.8">
<circle cx="30" cy="29.653287240053405" r="2"/>
</g>
<g class="Faucet">
<polygon points="27.00,4.60 33.00,4.60 33.00,18.60 27.00,18.60 "/>
</g>
<g class="Direction" fill-opacity="0.9" style="display: none;">
<polygon fill="#444444" points="32.01,50.83 32.01,40.22 29.00,40.22 29.00,50.83 25.20,50.83 30.50,55.63 35.80,50.83 32.01,50.83 "/>
</g>
<g class="Name" fill-opacity="0.9" style="display: none;">

</g>
<desc>Width:60 Height:90 Depth:60 Elevation:0</desc>
</g><g class="FixedFurniture CoatCloset" fill="#ffffff" stroke="#000000" style="fill-opacity: 1; stroke-opacity: 1;" transform="matrix(0,1,-1,0,607.9433,24.3091)">
<g class="BoundaryPolygon">
<polygon points="0.00,0.00 102.31,0.00 102.31,39.79 0.00,39.79 "/>
</g>

<g class="Direction" fill-opacity="0.9" style="display: none;">
<polygon fill="#444444" points="52.44,36.15 52.44,25.53 49.43,25.53 49.43,36.15 45.63,36.15 50.93,41.45 56.24,36.15 52.44,36.15 "/>
</g>
<g class="Name" fill-opacity="0.9" style="display: none;">

</g>
<desc>Width:120 Height:200 Depth:60 Elevation:0</desc>
</g><g class="FixedFurniture Closet" fill="#ffffff" stroke="#000000" style="fill-opacity: 1; stroke-opacity: 1;" transform="matrix(0,1,-1,0,607.9433,126.463)">
<g class="BoundaryPolygon">
<polygon points="0.00,0.00 39.59,0.00 39.59,39.63 0.00,39.63 "/>
</g>
<g class="Direction" fill-opacity="0.9" style="display: none;">
<polygon fill="#444444" points="20.79,36.13 20.79,25.51 17.78,25.51 17.78,36.13 13.98,36.13 19.28,41.43 24.59,36.13 20.79,36.13 "/>
</g>
<g class="Name" fill-opacity="0.9" style="display: none;">

</g>
<desc>Width:60 Height:200 Depth:60 Elevation:0</desc>
</g><g class="FixedFurniture Closet" fill="#ffffff" stroke="#000000" style="fill-opacity: 1; stroke-opacity: 1;" transform="matrix(0,-1,1,0,569.9902,219.4804)">
<g class="BoundaryPolygon">
<polygon points="0.00,0.00 39.59,0.00 39.59,39.63 0.00,39.63 "/>
</g>
<g class="Direction" fill-opacity="0.9" style="display: none;">
<polygon fill="#444444" points="20.79,36.13 20.79,25.51 17.78,25.51 17.78,36.13 13.98,36.13 19.28,41.43 24.59,36.13 20.79,36.13 "/>
</g>
<g class="Name" fill-opacity="0.9" style="display: none;">

</g>
<desc>Width:60 Height:200 Depth:60 Elevation:0</desc>
</g><g class="FixedFurniture CoatCloset" fill="#ffffff" stroke="#000000" style="fill-opacity: 1; stroke-opacity: 1;" transform="matrix(0,-1,1,0,570.1309,301.7534)">
<g class="BoundaryPolygon">
<polygon points="0.00,0.00 82.27,0.00 82.27,39.79 0.00,39.79 "/>
</g>

<g class="Direction" fill-opacity="0.9" style="display: none;">
<polygon fill="#444444" points="42.17,36.15 42.17,25.53 39.16,25.53 39.16,36.15 35.36,36.15 40.66,41.45 45.97,36.15 42.17,36.15 "/>
</g>
<g class="Name" fill-opacity="0.9" style="display: none;">

</g>
<desc>Width:120 Height:200 Depth:60 Elevation:0</desc>
</g><g class="FixedFurniture Shower" fill="#ffffff" stroke="#000000" style="fill-opacity: 1; stroke-opacity: 1;" transform="matrix(0,1,-1,0,962.7159,681.0247)">
<g class="BoundaryPolygon" fill="none" stroke="none">
<polygon points="0,0 32,0 32,19 0,19"/>
</g>
<g class="InnerPolygon">
<rect height="6.1" width="11.2" x="3.7" y="0.5"/>
<rect height="6.1" width="11.2" x="17.6" y="0.5"/>
<rect height="6.1" width="3.4" x="28.7" y="0.5"/>
<rect height="6.1" width="3.2" x="0.5" y="0.5"/>
<path d="M14.9,8.5c0,1.5-0.4,3.3-1.6,5    c-0.4,0.6-1,1.1-1.1,1.7c-0.2,1.1,0.3,2.8,2.5,3.2c0.5,0.1,1.3,0.1,1.6,0.1h-0.1c0.3,0,1.1,0,1.6-0.1c2.2-0.4,2.7-2.1,2.5-3.2    c-0.1-0.6-0.7-1.1-1.1-1.7c-1.2-1.7-1.6-3.5-1.6-5"/>
<path d="M12.2,15.3c0.1,0.2,1.6,1.9,4.2,1.9 c2.4-0.1,3.7-1.7,3.9-1.9"/>
<path d="M14.9,0.5h2.7v8c-0.9,0-1.8,0-2.7,0l0,0 C14.9,5.9,14.9,3.2,14.9,0.5z"/>
</g>
<g class="Indicator">
<path d="M3.7,3.6C5,3.1,5.2,3,5.2,3 c0,1.1,0,0,0,1.1C5.2,4.1,5.1,4.1,3.7,3.6"/>
<path d="M28.7,3.6 C27.4,3.1,27.2,3,27.2,3c0,1.1,0,0,0,1.1C27.2,4.1,27.3,4.1,28.7,3.6"/>
</g>
<desc>Width:32 Height:97 Depth:19 Elevation:135</desc>
</g></g></g></g></svg>