<?xml version="1.0" encoding="utf-8"?>
<svg height="1180.1500244140625" id="temp" version="1.1" viewBox="0 0 1135.020004272461 1180.1500244140625" width="1135.020004272461" xmlns="http://www.w3.org/2000/svg" xmlns:xlink="http://www.w3.org/1999/xlink"><defs/><g class="Model v1-1" id="Model"><g class="Floor"><g class="Floorplan Floor-1" id="Floor-1" transform="matrix(1,0,0,1,0,0)"><g class="Space Undefined" fill="#ffffff" id="acf38654-3f61-41e3-8373-bc98ed116d4b" stroke="#ffffff" style="fill-opacity: 1; stroke-opacity: 1; stroke-width: 1;"><polygon points="934.93,1025.00 829.32,1026.16 769.17,1027.00 769.17,784.35 934.93,784.35 "/><g class="Dimension" transform="matrix(1,0,0,1,769.17,784.35)"><g class="Visual" style="display: none;" transform="matrix(1,0,0,1,0,0)"><g class="DimensionMark" fill="#000000" id="mark1" stroke="none" style="fill-opacity: 1; pointer-events: visible;" transform="matrix(1,0,0,1,82.868,0)"><polygon points="-5,5,0,0,5,5"/></g><g class="DimensionMark" fill="#000000" id="mark2" stroke="none" style="fill-opacity: 1; pointer-events: visible;" transform="matrix(1,0,0,1,165.76,121.325)"><polygon points="-5,-5,0,0,-5,5"/></g><g class="DimensionMark" fill="#000000" id="mark3" stroke="none" style="fill-opacity: 1; pointer-events: visible;" transform="matrix(1,0,0,1,82.868,241.5606)"><polygon points="-5,-5,0,0,5,-5"/></g><g class="DimensionMark" fill="#000000" id="mark4" stroke="none" style="fill-opacity: 1; pointer-events: visible;" transform="matrix(1,0,0,1,0,121.325)"><polygon points="5,5,0,0,5,-5"/></g></g><g class="SpaceDimensionsLabel" transform="matrix(1,0,0,1,82.88,82.88)"><g class="TextLabel NameLabel" id="NameLabel" style="display: block;"/><g class="TextLabel DimensionMeasureLabel" id="DimensionMeasureLabel" style="display: none;" transform="matrix(1,0,0,1,12.1485,39.8125)"/></g></g></g><g class="Space Undefined" fill="#ffffff" id="ecc31316-ab99-4ae0-87fc-37a6c0e82c21" stroke="#ffffff" style="fill-opacity: 1; stroke-opacity: 1; stroke-width: 1;"><polygon points="934.93,1026.16 829.32,1026.16 934.93,1025.00 "/><g class="Dimension" transform="matrix(1,0,0,1,829.3305,1025.5799)"><g class="Visual" style="display: none;" transform="matrix(1,0,0,1,0,0)"><g class="DimensionMark" fill="#000000" id="mark1" stroke="none" style="fill-opacity: 1; pointer-events: visible;" transform="matrix(1,0,0,1,52.8029,0)"><polygon points="-5,5,0,0,5,5"/></g><g class="DimensionMark" fill="#000000" id="mark2" stroke="none" style="fill-opacity: 1; pointer-events: visible;" transform="matrix(1,0,0,1,105.5995,0.58)"><polygon points="-5,-5,0,0,-5,5"/></g><g class="DimensionMark" fill="#000000" id="mark3" stroke="none" style="fill-opacity: 1; pointer-events: visible;" transform="matrix(1,0,0,1,52.8029,0.5801)"><polygon points="-5,-5,0,0,5,-5"/></g><g class="DimensionMark" fill="#000000" id="mark4" stroke="none" style="fill-opacity: 1; pointer-events: visible;" transform="matrix(1,0,0,1,0,0.58)"><polygon points="5,5,0,0,5,-5"/></g></g><g class="SpaceDimensionsLabel" transform="matrix(1,0,0,1,104.9768,0.0001)"><g class="TextLabel NameLabel" id="NameLabel" style="display: block;"/><g class="TextLabel DimensionMeasureLabel" id="DimensionMeasureLabel" style="display: none;" transform="matrix(1,0,0,1,12.1485,39.8125)"/></g></g></g><g class="Space DraughtLobby" fill="#ffffff" id="f6348f87-9b7e-451f-8884-98e6a8099877" stroke="#ffffff" style="fill-opacity: 1; stroke-opacity: 1; stroke-width: 1;"><polygon points="829.17,1035.16 934.93,1035.16 934.93,1046.64 943.93,1046.64 943.93,1035.16 1115.02,1035.16 1115.02,1120.70 1063.14,1120.70 1063.14,1158.15 769.17,1158.15 769.17,1027.00 829.17,1026.16 "/><g class="Dimension" transform="matrix(1,0,0,1,769.17,1035.16)"><g class="Visual" style="display: none;" transform="matrix(1,0,0,1,0,0)"><g class="DimensionMark" fill="#000000" id="mark1" stroke="none" style="fill-opacity: 1; pointer-events: visible;" transform="matrix(1,0,0,1,174.76,0)"><polygon points="-5,5,0,0,5,5"/></g><g class="DimensionMark" fill="#000000" id="mark2" stroke="none" style="fill-opacity: 1; pointer-events: visible;" transform="matrix(1,0,0,1,345.85,56.995)"><polygon points="-5,-5,0,0,-5,5"/></g><g class="DimensionMark" fill="#000000" id="mark3" stroke="none" style="fill-opacity: 1; pointer-events: visible;" transform="matrix(1,0,0,1,174.76,122.99)"><polygon points="-5,-5,0,0,5,-5"/></g><g class="DimensionMark" fill="#000000" id="mark4" stroke="none" style="fill-opacity: 1; pointer-events: visible;" transform="matrix(1,0,0,1,0,56.995)"><polygon points="5,5,0,0,5,-5"/></g></g><g class="SpaceDimensionsLabel" style="display: block;" transform="matrix(1,0,0,1,193.5868,75.9208)"><g class="TextLabel NameLabel" id="NameLabel" style="display: block;"/><g class="TextLabel DimensionMeasureLabel" id="DimensionMeasureLabel" style="display: none;" transform="matrix(1,0,0,1,-76.4063,39.8906)"/></g></g></g><g class="Space Bath" fill="#ffffff" id="51e58458-be53-452a-aaf9-a191327c0380" stroke="#ffffff" style="fill-opacity: 1; stroke-opacity: 1; stroke-width: 1;"><polygon points="1115.02,1026.16 943.93,1026.16 943.93,784.35 1115.02,784.35 "/><g class="Dimension" transform="matrix(1,0,0,1,943.9314,784.3526)"><g class="Visual" style="display: none;" transform="matrix(1,0,0,1,0,0)"><g class="DimensionMark" fill="#000000" id="mark1" stroke="none" style="fill-opacity: 1; pointer-events: visible;" transform="matrix(1,0,0,1,85.5445,0)"><polygon points="-5,5,0,0,5,5"/></g><g class="DimensionMark" fill="#000000" id="mark2" stroke="none" style="fill-opacity: 1; pointer-events: visible;" transform="matrix(1,0,0,1,171.089,120.9037)"><polygon points="-5,-5,0,0,-5,5"/></g><g class="DimensionMark" fill="#000000" id="mark3" stroke="none" style="fill-opacity: 1; pointer-events: visible;" transform="matrix(1,0,0,1,85.5445,241.8074)"><polygon points="-5,-5,0,0,5,-5"/></g><g class="DimensionMark" fill="#000000" id="mark4" stroke="none" style="fill-opacity: 1; pointer-events: visible;" transform="matrix(1,0,0,1,0,120.9037)"><polygon points="5,5,0,0,5,-5"/></g></g><g class="SpaceDimensionsLabel" transform="matrix(1,0,0,1,29.3187,137.1342)"><g class="TextLabel NameLabel" id="NameLabel" style="display: block;"/><g class="TextLabel DimensionMeasureLabel" id="DimensionMeasureLabel" style="display: none;" transform="matrix(1,0,0,1,-106.2266,80.0938)"/></g></g></g><g class="Space Kitchen" fill="#ffffff" id="3864376c-b15d-4d74-9140-b42401ee2dbb" stroke="#ffffff" style="fill-opacity: 1; stroke-opacity: 1; stroke-width: 1;"><polygon points="1115.02,711.90 1052.39,711.90 1052.39,773.35 765.20,773.35 765.20,404.56 1115.02,404.56 "/><g class="Dimension" transform="matrix(1,0,0,1,765.2046,404.5641)"><g class="Visual" style="display: none;" transform="matrix(1,0,0,1,0,0)"><g class="DimensionMark" fill="#000000" id="mark1" stroke="none" style="fill-opacity: 1; pointer-events: visible;" transform="matrix(1,0,0,1,174.9079,0)"><polygon points="-5,5,0,0,5,5"/></g><g class="DimensionMark" fill="#000000" id="mark2" stroke="none" style="fill-opacity: 1; pointer-events: visible;" transform="matrix(1,0,0,1,349.8158,184.3942)"><polygon points="-5,-5,0,0,-5,5"/></g><g class="DimensionMark" fill="#000000" id="mark3" stroke="none" style="fill-opacity: 1; pointer-events: visible;" transform="matrix(1,0,0,1,174.9079,368.7885)"><polygon points="-5,-5,0,0,5,-5"/></g><g class="DimensionMark" fill="#000000" id="mark4" stroke="none" style="fill-opacity: 1; pointer-events: visible;" transform="matrix(1,0,0,1,0,184.3942)"><polygon points="5,5,0,0,5,-5"/></g></g><g class="SpaceDimensionsLabel" transform="matrix(1,0,0,1,145.1365,170.3463)"><g class="TextLabel NameLabel" id="NameLabel" style="display: block;"/><g class="TextLabel DimensionMeasureLabel" id="DimensionMeasureLabel" style="display: none;" transform="matrix(1,0,0,1,-128.0078,80.0938)"/></g></g></g><g class="Space Bedroom" fill="#ffffff" id="ae0a45da-a9dd-487d-82fe-701d10f6cbe3" stroke="#ffffff" style="fill-opacity: 1; stroke-opacity: 1; stroke-width: 1;"><polygon points="754.20,773.35 380.82,773.35 380.82,404.56 754.20,404.56 "/><g class="Dimension" transform="matrix(1,0,0,1,380.8196,404.5641)"><g class="Visual" style="display: none;" transform="matrix(1,0,0,1,0,0)"><g class="DimensionMark" fill="#000000" id="mark1" stroke="none" style="fill-opacity: 1; pointer-events: visible;" transform="matrix(1,0,0,1,186.6925,0)"><polygon points="-5,5,0,0,5,5"/></g><g class="DimensionMark" fill="#000000" id="mark2" stroke="none" style="fill-opacity: 1; pointer-events: visible;" transform="matrix(1,0,0,1,373.385,184.3942)"><polygon points="-5,-5,0,0,-5,5"/></g><g class="DimensionMark" fill="#000000" id="mark3" stroke="none" style="fill-opacity: 1; pointer-events: visible;" transform="matrix(1,0,0,1,186.6925,368.7885)"><polygon points="-5,-5,0,0,5,-5"/></g><g class="DimensionMark" fill="#000000" id="mark4" stroke="none" style="fill-opacity: 1; pointer-events: visible;" transform="matrix(1,0,0,1,0,184.3942)"><polygon points="5,5,0,0,5,-5"/></g></g><g class="SpaceDimensionsLabel" transform="matrix(1,0,0,1,132.2702,188.2659)"><g class="TextLabel NameLabel" id="NameLabel" style="display: block;"/><g class="TextLabel DimensionMeasureLabel" id="DimensionMeasureLabel" style="display: none;" transform="matrix(1,0,0,1,-113.7031,80.0938)"/></g></g></g><g class="Space LivingRoom" fill="#ffffff" id="31182964-4940-4a8c-a139-a0357ab8623f" stroke="#ffffff" style="fill-opacity: 1; stroke-opacity: 1; stroke-width: 1;"><polygon points="769.17,1158.15 380.82,1158.15 380.82,784.35 769.17,784.35 "/><g class="Dimension" transform="matrix(1,0,0,1,380.8196,784.3526)"><g class="Visual" style="display: none;" transform="matrix(1,0,0,1,0,0)"><g class="DimensionMark" fill="#000000" id="mark1" stroke="none" style="fill-opacity: 1; pointer-events: visible;" transform="matrix(1,0,0,1,194.1748,0)"><polygon points="-5,5,0,0,5,5"/></g><g class="DimensionMark" fill="#000000" id="mark2" stroke="none" style="fill-opacity: 1; pointer-events: visible;" transform="matrix(1,0,0,1,388.3496,186.8973)"><polygon points="-5,-5,0,0,-5,5"/></g><g class="DimensionMark" fill="#000000" id="mark3" stroke="none" style="fill-opacity: 1; pointer-events: visible;" transform="matrix(1,0,0,1,194.1748,373.7947)"><polygon points="-5,-5,0,0,5,-5"/></g><g class="DimensionMark" fill="#000000" id="mark4" stroke="none" style="fill-opacity: 1; pointer-events: visible;" transform="matrix(1,0,0,1,0,186.8973)"><polygon points="5,5,0,0,5,-5"/></g></g><g class="SpaceDimensionsLabel" transform="matrix(1,0,0,1,174.0295,188.8974)"><g class="TextLabel NameLabel" id="NameLabel" style="display: block;"/><g class="TextLabel DimensionMeasureLabel" id="DimensionMeasureLabel" style="display: none;" transform="matrix(1,0,0,1,-114.625,80.0938)"/></g></g></g><g class="Space Outdoor" fill="#ffffff" id="496445b2-d147-4e0a-80fc-fbd502c93413" stroke="#000000" style="stroke-width: 1; fill-opacity: 1; stroke-opacity: 1;"><polygon points="358.82,1169.15 226.07,1169.15 226.07,784.70 358.82,784.35 358.82,1169.15 358.82,1169.15 "/><g class="Dimension" transform="matrix(1,0,0,1,226.0673,784.5273)"><g class="Visual" style="display: none;" transform="matrix(1,0,0,1,0,0)"><g class="DimensionMark" fill="#000000" id="mark1" stroke="none" style="fill-opacity: 1; pointer-events: visible;" transform="matrix(1,0,0,1,66.3766,0)"><polygon points="-5,5,0,0,5,5"/></g><g class="DimensionMark" fill="#000000" id="mark2" stroke="none" style="fill-opacity: 1; pointer-events: visible;" transform="matrix(1,0,0,1,132.7523,192.2226)"><polygon points="-5,-5,0,0,-5,5"/></g><g class="DimensionMark" fill="#000000" id="mark3" stroke="none" style="fill-opacity: 1; pointer-events: visible;" transform="matrix(1,0,0,1,66.3766,384.62)"><polygon points="-5,-5,0,0,5,-5"/></g><g class="DimensionMark" fill="#000000" id="mark4" stroke="none" style="fill-opacity: 1; pointer-events: visible;" transform="matrix(1,0,0,1,0,192.2226)"><polygon points="5,5,0,0,5,-5"/></g></g><g class="SpaceDimensionsLabel" transform="matrix(1,0,0,1,-31.255,198.9537)"><g class="TextLabel NameLabel" id="NameLabel" style="display: block;"/><g class="TextLabel DimensionMeasureLabel" id="DimensionMeasureLabel" style="display: none;" transform="matrix(1,0,0,1,-56.0313,80.0938)"/></g></g></g><g class="Wall External" fill="#000000" id="Wall" stroke="#000000" style="fill-opacity: 1; stroke-opacity: 1; stroke-width: 1;"><polygon points="1135.02,382.56 358.82,382.56 380.82,404.56 1115.02,404.56 "/><g class="Window Regular" fill="#f0f0ff" id="Window" stroke="#000000" style="fill-opacity: 1; stroke-width: 1; stroke-opacity: 1;"><polygon points="1001.05,382.56 861.75,382.56 861.75,404.56 1001.05,404.56 "/><g class="Glass" id="Glass"><polygon points="1001.05,382.56 861.75,382.56 861.75,404.56 1001.05,404.56 "/></g><g class="Panel" id="Panel"><line x1="993.5499877929688" x2="869.25" y1="393.55999755859375" y2="393.55999755859375"/><line x1="993.5499877929688" x2="993.5499877929688" y1="382.55999755859375" y2="404.55999755859375"/><line x1="869.25" x2="869.25" y1="382.55999755859375" y2="404.55999755859375"/></g></g><g class="Window Regular" fill="#f0f0ff" id="Window" stroke="#000000" style="fill-opacity: 1; stroke-width: 1; stroke-opacity: 1;"><polygon points="688.39,382.56 538.29,382.56 538.29,404.56 688.39,404.56 "/><g class="Glass" id="Glass"><polygon points="688.39,382.56 538.29,382.56 538.29,404.56 688.39,404.56 "/></g><g class="Panel" id="Panel"><line x1="680.8900146484375" x2="545.7899780273438" y1="393.55999755859375" y2="393.55999755859375"/><line x1="680.8900146484375" x2="680.8900146484375" y1="382.55999755859375" y2="404.55999755859375"/><line x1="545.7899780273438" x2="545.7899780273438" y1="382.55999755859375" y2="404.55999755859375"/></g></g></g><g class="Wall External" fill="#000000" id="Wall" stroke="#000000" style="fill-opacity: 1; stroke-opacity: 1; stroke-width: 1;"><polygon points="380.82,404.56 380.82,1158.15 358.82,1180.15 358.82,382.56 "/><g class="Door Swing Beside" fill="#ffffff" id="Door" stroke="#000000" style="fill-opacity: 1; stroke-width: 1; stroke-opacity: 1;"><polygon points="380.82,1026.81 380.82,1100.54 358.82,1100.54 358.82,1026.81 "/><g class="Panel Right Positive" fill="none" id="Panel" style=""><g class="PanelArea" fill="none" id="PanelArea" stroke="none" style=""><polygon points="380.82,1026.81 380.82,1100.54 358.82,1100.54 358.82,1026.81 "/></g><path d="M358.82,1026.81 q-73.73,0.00 -73.73,73.73 l73.73,0.00Z"/></g></g><g class="Window Regular" fill="#f0f0ff" id="Window" stroke="#000000" style="fill-opacity: 1; stroke-width: 1; stroke-opacity: 1;"><polygon points="380.82,824.70 380.82,1016.18 358.82,1016.18 358.82,824.70 "/><g class="Glass" id="Glass"><polygon points="380.82,824.70 380.82,1016.18 358.82,1016.18 358.82,824.70 "/></g><g class="Panel" id="Panel"><line x1="369.82000732421875" x2="369.82000732421875" y1="832.2000122070312" y2="1008.6799926757812"/><line x1="380.82000732421875" x2="358.82000732421875" y1="832.2000122070312" y2="832.2000122070312"/><line x1="380.82000732421875" x2="358.82000732421875" y1="1008.6799926757812" y2="1008.6799926757812"/></g></g></g><g class="Wall External" fill="#000000" id="Wall" stroke="#000000" style="fill-opacity: 1; stroke-opacity: 1; stroke-width: 1;"><polygon points="358.82,1180.15 1135.02,1180.15 1115.02,1158.15 380.82,1158.15 "/><g class="Door Swing Beside" fill="#ffffff" id="Door" stroke="#000000" style="fill-opacity: 1; stroke-width: 1; stroke-opacity: 1;"><polygon points="840.57,1180.15 913.48,1180.15 913.48,1158.15 840.57,1158.15 "/><g class="Panel Left Positive" fill="none" id="Panel" style=""><g class="PanelArea" fill="none" id="PanelArea" stroke="none" style=""><polygon points="840.57,1180.15 913.48,1180.15 913.48,1158.15 840.57,1158.15 "/></g><path d="M913.48,1158.15 q0.00,-72.91 -72.91,-72.91 l0.00,72.91Z"/></g></g></g><g class="Wall External" fill="#000000" id="Wall" stroke="#000000" style="fill-opacity: 1; stroke-opacity: 1; stroke-width: 1;"><polygon points="1135.02,1180.15 1135.02,382.56 1115.02,404.56 1115.02,1158.15 "/></g><g class="Wall" fill="#000000" id="Wall" stroke="#000000" style="fill-opacity: 1; stroke-opacity: 1; stroke-width: 1;"><polygon points="358.82,1180.15 217.42,1180.15 217.42,1169.15 358.82,1169.15 "/></g><g class="Wall" fill="#000000" id="Wall" stroke="#000000" style="fill-opacity: 1; stroke-opacity: 1; stroke-width: 1;"><polygon points="358.82,773.35 217.42,773.35 217.42,784.35 358.82,784.35 "/></g><g class="Wall" fill="#000000" id="Wall" stroke="#000000" style="fill-opacity: 1; stroke-opacity: 1; stroke-width: 1;"><polygon points="380.82,784.35 1135.02,784.35 1135.02,773.35 380.82,773.35 "/><g class="Door None Beside" fill="#ffffff" id="Door" stroke="#000000" style="fill-opacity: 1; stroke-width: 1; stroke-opacity: 1;"><polygon points="834.12,784.35 910.15,784.35 910.15,773.35 834.12,773.35 "/></g><g class="Door Swing Beside" fill="#ffffff" id="Door" stroke="#000000" style="fill-opacity: 1; stroke-width: 1; stroke-opacity: 1;"><polygon points="612.68,784.35 683.10,784.35 683.10,773.35 612.68,773.35 "/><g class="Panel Right Positive" fill="none" id="Panel" style=""><g class="PanelArea" fill="none" id="PanelArea" stroke="none" style=""><polygon points="612.68,784.35 683.10,784.35 683.10,773.35 612.68,773.35 "/></g><path d="M612.68,773.35 q0.00,-70.42 70.42,-70.42 l0.00,70.42Z"/></g></g></g><g class="Wall" fill="#000000" id="Wall" stroke="#000000" style="fill-opacity: 1; stroke-opacity: 1; stroke-width: 1;"><polygon points="765.20,784.35 765.20,382.56 754.20,382.56 754.20,784.35 "/></g><g class="Wall" fill="#000000" id="Wall" stroke="#000000" style="fill-opacity: 1; stroke-opacity: 1; stroke-width: 1;"><polygon points="1052.39,784.35 1052.39,711.90 1115.04,711.90 1115.04,784.35 "/></g><g class="Wall" fill="#000000" id="Wall" stroke="#000000" style="fill-opacity: 1; stroke-opacity: 1; stroke-width: 1;"><polygon points="1135.02,1035.16 934.93,1035.16 934.93,1026.16 1135.02,1026.16 "/></g><g class="Wall" fill="#000000" id="Wall" stroke="#000000" style="fill-opacity: 1; stroke-opacity: 1; stroke-width: 1;"><polygon points="943.93,1035.16 943.93,773.35 934.93,773.35 934.93,1035.16 "/><g class="Door Swing Beside" fill="#ffffff" id="Door" stroke="#000000" style="fill-opacity: 1; stroke-width: 1; stroke-opacity: 1;"><polygon points="943.93,906.89 943.93,854.24 934.93,854.24 934.93,906.89 "/><g class="Panel Right Positive" fill="none" id="Panel" style=""><g class="PanelArea" fill="none" id="PanelArea" stroke="none" style=""><polygon points="943.93,906.89 943.93,854.24 934.93,854.24 934.93,906.89 "/></g><path d="M934.93,906.89 q-52.65,0.00 -52.65,-52.65 l52.65,0.00Z"/></g></g></g><g class="Wall" fill="#000000" id="Wall" stroke="#000000" style="fill-opacity: 1; stroke-opacity: 1; stroke-width: 1;"><polygon points="934.93,1035.16 934.93,1046.64 943.93,1046.64 943.93,1035.16 "/></g><g class="Wall" fill="#000000" id="Wall" stroke="#000000" style="fill-opacity: 1; stroke-opacity: 1; stroke-width: 1;"><polygon points="934.93,1026.16 829.17,1026.16 829.17,1035.16 934.93,1035.16 "/><g class="Door Swing Beside" fill="#ffffff" id="Door" stroke="#000000" style="fill-opacity: 1; stroke-width: 1; stroke-opacity: 1;"><polygon points="907.72,1026.16 841.71,1026.16 841.71,1035.16 907.72,1035.16 "/><g class="Panel Left Negative" fill="none" id="Panel" style=""><g class="PanelArea" fill="none" id="PanelArea" stroke="none" style=""><polygon points="907.72,1026.16 841.71,1026.16 841.71,1035.16 907.72,1035.16 "/></g><path d="M907.72,1026.16 q0.00,-66.01 -66.01,-66.01 l0.00,66.01Z"/></g></g></g><g class="Wall" fill="#000000" id="Wall" stroke="#000000" style="fill-opacity: 1; stroke-opacity: 1; stroke-width: 1;"><polygon points="1063.14,1158.15 1115.02,1158.15 1115.02,1120.70 1063.14,1120.70 "/></g><g class="Railing" fill="#ffffff" id="Railing" stroke="#000000" style="fill-opacity: 1; stroke-opacity: 1; stroke-width: 1;"><polygon points="217.42,773.35 217.42,1180.15 226.42,1180.15 226.42,773.35 "/></g><g class="FixedFurnitureSet" id="FixedFurnitureSet" style="" transform="matrix(0,1,-1,0,1114.9735,900.8182)"><g class="FixedFurniture BaseCabinet" fill="#ffffff" stroke="#000000" style="fill-opacity: 1; stroke-opacity: 1;" transform="matrix(1,0,0,1,0,0)">
<g class="BoundaryPolygon">
<polygon points="0.00,0.00 47.94,0.00 47.94,42.59 0.00,42.59 "/>
</g>
<g class="Direction" fill-opacity="0.9" style="display: none;">
<polygon fill="#444444" points="25.57,39.18 25.57,28.56 22.56,28.56 22.56,39.18 18.76,39.18 24.06,43.98 29.37,39.18 25.57,39.18 "/>
</g>
<g class="Name" fill-opacity="0.9" style="display: none;">

</g>
<desc>Width:60 Height:5 Depth:60 Elevation:105</desc>
</g><g class="FixedFurniture Sink" fill="#ffffff" stroke="#000000" style="fill-opacity: 1; stroke-opacity: 1;" transform="matrix(1,0,0,1,0,0)">
<g class="BoundaryPolygon" fill="none" stroke="none">
<polygon points="0.00,0.00 47.94,0.00 47.94,42.59 0.00,42.59 "/>
</g>
<g class="InnerPolygon">
<polygon points="3.99,9.70 43.94,9.70 43.94,38.83 3.99,38.83 "/>
</g>
<g class="OuterDrain" stroke-width="0.8">
<circle cx="23.968843403431073" cy="22.85677290977997" r="3.5"/>
</g>
<g class="InnerDrain" stroke-width="0.8">
<circle cx="23.968843403431073" cy="22.85677290977997" r="2"/>
</g>
<g class="Faucet">
<polygon points="21.57,3.55 27.57,3.55 27.57,17.55 21.57,17.55 "/>
</g>
<g class="Direction" fill-opacity="0.9" style="display: none;">
<polygon fill="#444444" points="25.57,39.18 25.57,28.56 22.56,28.56 22.56,39.18 18.76,39.18 24.06,43.98 29.37,39.18 25.57,39.18 "/>
</g>
<g class="Name" fill-opacity="0.9" style="display: none;">

</g>
<desc>Width:60 Height:90 Depth:60 Elevation:0</desc>
</g></g><g class="FixedFurnitureSet" id="FixedFurnitureSet" style="" transform="matrix(0,1,-1,0,754.0796,650.0287)"><g class="FixedFurniture Closet" fill="#ffffff" stroke="#000000" style="fill-opacity: 1; stroke-opacity: 1;" transform="matrix(1,0,0,1,0,0)">
<g class="BoundaryPolygon">
<polygon points="0.00,0.00 61.66,0.00 61.66,58.65 0.00,58.65 "/>
</g>
<g class="Direction" fill-opacity="0.9" style="display: none;">
<polygon fill="#444444" points="32.38,53.47 32.38,42.85 29.37,42.85 29.37,53.47 25.57,53.47 30.87,58.77 36.18,53.47 32.38,53.47 "/>
</g>
<g class="Name" fill-opacity="0.9" style="display: none;">

</g>
<desc>Width:60 Height:200 Depth:60 Elevation:0</desc>
</g><g class="FixedFurniture Closet" fill="#ffffff" stroke="#000000" style="fill-opacity: 1; stroke-opacity: 1;" transform="matrix(1,0,0,1,61.6638,0)">
<g class="BoundaryPolygon">
<polygon points="0.00,0.00 61.66,0.00 61.66,58.65 0.00,58.65 "/>
</g>
<g class="Direction" fill-opacity="0.9" style="display: none;">
<polygon fill="#444444" points="32.38,53.47 32.38,42.85 29.37,42.85 29.37,53.47 25.57,53.47 30.87,58.77 36.18,53.47 32.38,53.47 "/>
</g>
<g class="Name" fill-opacity="0.9" style="display: none;">

</g>
<desc>Width:60 Height:200 Depth:60 Elevation:0</desc>
</g></g><g class="FixedFurniture CoatCloset" fill="#ffffff" stroke="#000000" style="fill-opacity: 1; stroke-opacity: 1;" transform="matrix(0,1,-1,0,1114.8641,1035.6785)">
<g class="BoundaryPolygon">
<polygon points="0.00,0.00 85.02,0.00 85.02,51.47 0.00,51.47 "/>
</g>

<g class="Direction" fill-opacity="0.9" style="display: none;">
<polygon fill="#444444" points="43.58,46.76 43.58,36.15 40.57,36.15 40.57,46.76 36.77,46.76 42.07,52.07 47.37,46.76 43.58,46.76 "/>
</g>
<g class="Name" fill-opacity="0.9" style="display: none;">

</g>
<desc>Width:120 Height:200 Depth:60 Elevation:0</desc>
</g><g class="FixedFurniture Shower" fill="#ffffff" stroke="#000000" style="fill-opacity: 1; stroke-opacity: 1;" transform="matrix(0,1,-1,0,1115.0204,981.7392)">
<g class="BoundaryPolygon" fill="none" stroke="none">
<polygon points="0,0 32,0 32,19 0,19"/>
</g>
<g class="InnerPolygon">
<rect height="6.1" width="11.2" x="3.7" y="0.5"/>
<rect height="6.1" width="11.2" x="17.6" y="0.5"/>
<rect height="6.1" width="3.4" x="28.7" y="0.5"/>
<rect height="6.1" width="3.2" x="0.5" y="0.5"/>
<path d="M14.9,8.5c0,1.5-0.4,3.3-1.6,5    c-0.4,0.6-1,1.1-1.1,1.7c-0.2,1.1,0.3,2.8,2.5,3.2c0.5,0.1,1.3,0.1,1.6,0.1h-0.1c0.3,0,1.1,0,1.6-0.1c2.2-0.4,2.7-2.1,2.5-3.2    c-0.1-0.6-0.7-1.1-1.1-1.7c-1.2-1.7-1.6-3.5-1.6-5"/>
<path d="M12.2,15.3c0.1,0.2,1.6,1.9,4.2,1.9 c2.4-0.1,3.7-1.7,3.9-1.9"/>
<path d="M14.9,0.5h2.7v8c-0.9,0-1.8,0-2.7,0l0,0 C14.9,5.9,14.9,3.2,14.9,0.5z"/>
</g>
<g class="Indicator">
<path d="M3.7,3.6C5,3.1,5.2,3,5.2,3 c0,1.1,0,0,0,1.1C5.2,4.1,5.1,4.1,3.7,3.6"/>
<path d="M28.7,3.6 C27.4,3.1,27.2,3,27.2,3c0,1.1,0,0,0,1.1C27.2,4.1,27.3,4.1,28.7,3.6"/>
</g>
<desc>Width:32 Height:97 Depth:19 Elevation:135</desc>
</g><g class="FixedFurniture Toilet" fill="#ffffff" stroke="#000000" style="fill-opacity: 1; stroke-opacity: 1;" transform="matrix(0,1,-1,0,1115.0204,799.9037)">
<g class="BoundaryPolygon" fill="none" stroke="none">
<polygon points="0,0 41,0 41,71 0,71"/>
</g>
<g class="InnerPolygon">
<rect height="17.98" width="39.989" x="0.502" y="0.5"/>
<path d="M40.491,44.237S41.619,70.5,20.907,70.5C-.523,70.5.6,44.237.6,44.237L.5,18.48H40.491Z"/>
<rect height="3.03" width="6.357" x="17.318" y="7.975"/>
</g>
<desc>Width:41 Height:85 Depth:71 Elevation:0</desc>
</g><g class="FixedFurniture BaseCabinet" fill="#ffffff" stroke="#000000" style="fill-opacity: 1; stroke-opacity: 1;" transform="matrix(1,0,0,1,921.4305,711.896)"><desc>Width:60 Height:90 Depth:60 Elevation:0</desc><g class="BoundaryPolygon"><polygon points="0.00,0.00 130.96,0.00 130.96,-249.48 193.17,-249.48 193.17,0.60 130.96,0.00 130.96,61.80 0.00,61.46 0.00,0.00 "/></g></g><g class="FixedFurniture ElectricalAppliance IntegratedStove" fill="#ffffff" stroke="#000000" style="fill-opacity: 1; stroke-opacity: 1;" transform="matrix(-1,0,0,-1,1052.3872,771.896)">
<g class="BoundaryPolygon" fill="none" stroke="none">
<polygon points="0.00,0.00 55.86,0.00 55.86,60.00 0.00,60.00 "/>
</g>
<g class="InnerPolygon">
<polygon points="2.00,2.00 54.00,2.00 54.00,58.00 2.00,58.00 "/>
</g>
<g class="OuterCircle">
<circle cx="14.897240459489085" cy="16" r="8"/>
<circle cx="40.96741126359498" cy="16" r="8"/>
<circle cx="14.897240459489085" cy="44" r="8"/>
<circle cx="40.96741126359498" cy="44" r="8"/>
</g>
<g class="Direction" fill-opacity="0.9" style="display: none;">
<polygon fill="#444444" points="29.80,55.20 29.80,44.58 26.79,44.58 26.79,55.20 22.99,55.20 28.29,60.00 33.60,55.20 29.80,55.20 "/>
</g>
<g class="Name" fill-opacity="0.9" style="display: none;">

</g>
<desc>Width:60 Height:90 Depth:30 Elevation:0</desc>
</g><g class="FixedFurniture Sink" fill="#ffffff" stroke="#000000" style="fill-opacity: 1; stroke-opacity: 1;" transform="matrix(0,1,-1,0,1114.6005,611.971)">
<g class="BoundaryPolygon" fill="none" stroke="none">
<polygon points="0.00,0.00 75.93,0.00 75.93,61.99 0.00,61.99 "/>
</g>
<g class="InnerPolygon">
<polygon points="6.33,9.70 69.60,9.70 69.60,56.52 6.33,56.52 "/>
</g>
<g class="OuterDrain" stroke-width="0.8">
<circle cx="37.963779489257526" cy="33.26847680423171" r="3.5"/>
</g>
<g class="InnerDrain" stroke-width="0.8">
<circle cx="37.963779489257526" cy="33.26847680423171" r="2"/>
</g>
<g class="Faucet">
<polygon points="34.17,5.17 40.17,5.17 40.17,19.17 34.17,19.17 "/>
</g>
<g class="Direction" fill-opacity="0.9" style="display: none;">
<polygon fill="#444444" points="40.51,57.03 40.51,46.41 37.50,46.41 37.50,57.03 33.69,57.03 39.00,61.83 44.30,57.03 40.51,57.03 "/>
</g>
<g class="Name" fill-opacity="0.9" style="display: none;">

</g>
<desc>Width:60 Height:90 Depth:60 Elevation:0</desc>
</g><g class="FixedFurniture Closet" fill="#ffffff" stroke="#000000" style="fill-opacity: 1; stroke-opacity: 1;" transform="matrix(0,1,-1,0,1115.0204,404.8359)">
<g class="BoundaryPolygon">
<polygon points="0.00,0.00 57.58,0.00 57.58,62.76 0.00,62.76 "/>
</g>
<g class="Direction" fill-opacity="0.9" style="display: none;">
<polygon fill="#444444" points="30.24,57.22 30.24,46.60 27.23,46.60 27.23,57.22 23.42,57.22 28.73,62.52 34.03,57.22 30.24,57.22 "/>
</g>
<g class="Name" fill-opacity="0.9" style="display: none;">

</g>
<desc>Width:60 Height:200 Depth:60 Elevation:0</desc>
</g><g class="FixedFurniture CoatCloset" fill="#ffffff" stroke="#000000" style="fill-opacity: 1; stroke-opacity: 1;" transform="matrix(0,1,-1,0,754.0796,529.3546)">
<g class="BoundaryPolygon">
<polygon points="0.00,0.00 120.67,0.00 120.67,58.88 0.00,58.88 "/>
</g>

<g class="Direction" fill-opacity="0.9" style="display: none;">
<polygon fill="#444444" points="61.85,53.50 61.85,42.88 58.85,42.88 58.85,53.50 55.04,53.50 60.35,58.80 65.65,53.50 61.85,53.50 "/>
</g>
<g class="Name" fill-opacity="0.9" style="display: none;">

</g>
<desc>Width:120 Height:200 Depth:60 Elevation:0</desc>
</g><g class="FixedFurniture Closet" fill="#ffffff" stroke="#000000" style="fill-opacity: 1; stroke-opacity: 1;" transform="matrix(0,1,-1,0,754.2046,475.0646)">
<g class="BoundaryPolygon">
<polygon points="0.00,0.00 54.29,0.00 54.29,58.95 0.00,58.95 "/>
</g>
<g class="Direction" fill-opacity="0.9" style="display: none;">
<polygon fill="#444444" points="28.51,53.74 28.51,43.12 25.50,43.12 25.50,53.74 21.70,53.74 27.00,59.04 32.31,53.74 28.51,53.74 "/>
</g>
<g class="Name" fill-opacity="0.9" style="display: none;">

</g>
<desc>Width:60 Height:200 Depth:60 Elevation:0</desc>
</g><g class="FixedFurniture CoatCloset" fill="#ffffff" stroke="#000000" style="fill-opacity: 1; stroke-opacity: 1;" transform="matrix(0,-1,1,0,769.1692,1158.1472)">
<g class="BoundaryPolygon">
<polygon points="0.00,0.00 131.61,0.00 131.61,60.00 0.00,60.00 "/>
</g>

<g class="Direction" fill-opacity="0.9" style="display: none;">
<polygon fill="#444444" points="67.46,54.52 67.46,43.90 64.45,43.90 64.45,54.52 60.65,54.52 65.95,59.82 71.25,54.52 67.46,54.52 "/>
</g>
<g class="Name" fill-opacity="0.9" style="display: none;">

</g>
<desc>Width:120 Height:200 Depth:60 Elevation:0</desc>
</g><g class="FixedFurniture CoatCloset" fill="#ffffff" stroke="#000000" style="fill-opacity: 1; stroke-opacity: 1;" transform="matrix(0,-1,1,0,769.1693,1026.536)">
<g class="BoundaryPolygon">
<polygon points="0.00,0.00 62.46,0.00 62.46,60.00 0.00,60.00 "/>
</g>

<g class="Direction" fill-opacity="0.9" style="display: none;">
<polygon fill="#444444" points="32.80,54.70 32.80,44.08 29.79,44.08 29.79,54.70 25.99,54.70 31.29,60.00 36.60,54.70 32.80,54.70 "/>
</g>
<g class="Name" fill-opacity="0.9" style="display: none;">

</g>
<desc>Width:60 Height:200 Depth:60 Elevation:0</desc>
</g><g class="FixedFurniture Closet" fill="#ffffff" stroke="#000000" style="fill-opacity: 1; stroke-opacity: 1;" transform="matrix(0,-1,1,0,769.2631,964.0739)">
<g class="BoundaryPolygon">
<polygon points="0.00,0.00 61.09,0.00 61.09,60.00 0.00,60.00 "/>
</g>
<g class="Direction" fill-opacity="0.9" style="display: none;">
<polygon fill="#444444" points="32.08,54.70 32.08,44.08 29.07,44.08 29.07,54.70 25.27,54.70 30.57,60.00 35.88,54.70 32.08,54.70 "/>
</g>
<g class="Name" fill-opacity="0.9" style="display: none;">

</g>
<desc>Width:60 Height:200 Depth:60 Elevation:0</desc>
</g><g class="SelectionControls" fill="#0000ff" stroke="#0000ff" style="display: none;"><g class="rotateControl" style="display: none;"><circle cx="984.1708454101563" cy="1048.0808341796876" r="5" style="stroke : none; fill-opacity: 0.5; cursor:crosshair"/></g><g class="ResizeNControl" style="display: none;"><circle cx="0" cy="0" r="5" style="stroke : none; fill-opacity: 0.5"/></g><g class="ResizeNEControl" style="display: none;"><circle cx="0" cy="0" r="5" style="stroke : none; fill-opacity: 0.5"/></g><g class="ResizeEControl" style="display: none;"><circle cx="0" cy="0" r="5" style="stroke : none; fill-opacity: 0.5"/></g><g class="ResizeSEControl" style="display: none;"><circle cx="0" cy="0" r="5" style="stroke : none; fill-opacity: 0.5"/></g><g class="ResizeSControl" style="display: none;"><circle cx="0" cy="0" r="5" style="stroke : none; fill-opacity: 0.5"/></g><g class="ResizeSWControl" style="display: none;"><circle cx="0" cy="0" r="5" style="stroke : none; fill-opacity: 0.5"/></g><g class="ResizeWControl" style="display: none;"><circle cx="0" cy="0" r="5" style="stroke : none; fill-opacity: 0.5"/></g><g class="ResizeNWControl" style="display: none;"><circle cx="0" cy="0" r="5" style="stroke : none; fill-opacity: 0.5"/></g><g class="removeControl" style="display: none;"><polygon points="962.40,1078.08 1005.94,1078.08 1005.94,1117.97 962.40,1117.97 " style="stroke : none; fill-opacity: 0.1"/></g><g class="copyPasteControl" style="display: none;"><polygon style="stroke : none; fill-opacity: 0.1"/></g><g class="translateControl" style="display: none;"><polygon points="962.40,1078.08 1005.94,1078.08 1005.94,1117.97 962.40,1117.97 " style="stroke : none; fill-opacity: 0.1; cursor:move"/></g></g><g class="SelectionControls" fill="#0000ff" stroke="#0000ff" style="display: none;"><polygon fill="none" points="769.17,1035.16 1115.02,1035.16 1115.02,1167.15 769.17,1167.15 " stroke="#0000ff" style=""/><g class="rotateControl" style="display: none;"><circle cx="942.0949859619141" cy="1005.1600341796875" r="5" style="stroke : none; fill-opacity: 0.5; cursor:crosshair"/></g><g class="ResizeNControl" style="display: none;"><circle cx="0" cy="0" r="5" style="stroke : none; fill-opacity: 0.5"/></g><g class="ResizeNEControl" style="display: none;"><circle cx="0" cy="0" r="5" style="stroke : none; fill-opacity: 0.5"/></g><g class="ResizeEControl" style="display: none;"><circle cx="0" cy="0" r="5" style="stroke : none; fill-opacity: 0.5"/></g><g class="ResizeSEControl" style="display: none;"><circle cx="0" cy="0" r="5" style="stroke : none; fill-opacity: 0.5"/></g><g class="ResizeSControl" style="display: none;"><circle cx="0" cy="0" r="5" style="stroke : none; fill-opacity: 0.5"/></g><g class="ResizeSWControl" style="display: none;"><circle cx="0" cy="0" r="5" style="stroke : none; fill-opacity: 0.5"/></g><g class="ResizeWControl" style="display: none;"><circle cx="0" cy="0" r="5" style="stroke : none; fill-opacity: 0.5"/></g><g class="ResizeNWControl" style="display: none;"><circle cx="0" cy="0" r="5" style="stroke : none; fill-opacity: 0.5"/></g><g class="removeControl" style="display: none;"><polygon style="stroke : none; fill-opacity: 0.1"/></g><g class="copyPasteControl" style="display: none;"><polygon style="stroke : none; fill-opacity: 0.1"/></g><g class="translateControl" style="display: none;"><polygon style="stroke : none; fill-opacity: 0.1; cursor:move"/></g></g></g></g></g></svg>