<?xml version="1.0" encoding="utf-8"?>
<svg height="870.5599822998047" id="temp" version="1.1" viewBox="0 0 1453.443946838379 870.5599822998047" width="1453.443946838379" xmlns="http://www.w3.org/2000/svg" xmlns:xlink="http://www.w3.org/1999/xlink"><defs/><g class="Model v1-1" id="Model"><g class="Floor"><g class="Floorplan Floor-1" id="Floor-1"><g class="Space Outdoor" fill="#ffffff" id="0c676833-cc7d-45df-ac64-a133ec38d1fd" stroke="#000000" style="fill-opacity: 1; stroke-opacity: 1; stroke-width: 1;"><polygon points="55.08,81.64 199.45,81.64 199.45,437.48 55.08,437.48 55.08,81.64 "/><g class="Dimension" transform="matrix(1,0,0,1,55.0817,81.6431)"><g class="Visual" style="display: none;" transform="matrix(1,0,0,1,0,0)"><g class="DimensionMark" fill="#000000" id="mark1" stroke="none" style="fill-opacity: 1; pointer-events: visible;" transform="matrix(1,0,0,1,72.1848,0)"><polygon points="-5,5,0,0,5,5"/></g><g class="DimensionMark" fill="#000000" id="mark2" stroke="none" style="fill-opacity: 1; pointer-events: visible;" transform="matrix(1,0,0,1,144.3695,177.9162)"><polygon points="-5,-5,0,0,-5,5"/></g><g class="DimensionMark" fill="#000000" id="mark3" stroke="none" style="fill-opacity: 1; pointer-events: visible;" transform="matrix(1,0,0,1,72.1848,355.8324)"><polygon points="-5,-5,0,0,5,-5"/></g><g class="DimensionMark" fill="#000000" id="mark4" stroke="none" style="fill-opacity: 1; pointer-events: visible;" transform="matrix(1,0,0,1,0,177.9162)"><polygon points="5,5,0,0,5,-5"/></g></g><g class="SpaceDimensionsLabel" transform="matrix(1,0,0,1,72.1847,216.5543)"><g class="TextLabel NameLabel" id="NameLabel" style="display: block;"/><g class="TextLabel DimensionMeasureLabel" id="DimensionMeasureLabel" style="display: none;" transform="matrix(1,0,0,1,-56.7265,79.6094)"/></g></g></g><g class="Space Undefined" fill="#ffffff" id="65ec4b72-d894-46e3-93aa-17640e88f2e3" stroke="#ffffff" style="fill-opacity: 1; stroke-opacity: 1; stroke-width: 1;"><polygon points="781.74,437.48 237.45,437.48 237.45,80.64 781.74,80.64 "/><g class="Dimension" transform="matrix(1,0,0,1,237.4512,80.6431)"><g class="Visual" style="display: none;" transform="matrix(1,0,0,1,0,0)"><g class="DimensionMark" fill="#000000" id="mark1" stroke="none" style="fill-opacity: 1; pointer-events: visible;" transform="matrix(1,0,0,1,272.1461,0)"><polygon points="-5,5,0,0,5,5"/></g><g class="DimensionMark" fill="#000000" id="mark2" stroke="none" style="fill-opacity: 1; pointer-events: visible;" transform="matrix(1,0,0,1,544.2922,178.4162)"><polygon points="-5,-5,0,0,-5,5"/></g><g class="DimensionMark" fill="#000000" id="mark3" stroke="none" style="fill-opacity: 1; pointer-events: visible;" transform="matrix(1,0,0,1,272.1461,356.8324)"><polygon points="-5,-5,0,0,5,-5"/></g><g class="DimensionMark" fill="#000000" id="mark4" stroke="none" style="fill-opacity: 1; pointer-events: visible;" transform="matrix(1,0,0,1,0,178.4162)"><polygon points="5,5,0,0,5,-5"/></g></g><g class="SpaceDimensionsLabel" transform="matrix(1,0,0,1,272.1461,178.4162)"><g class="TextLabel NameLabel" id="NameLabel" style="display: block;"/><g class="TextLabel DimensionMeasureLabel" id="DimensionMeasureLabel" style="display: none;" transform="matrix(1,0,0,1,-40.5235,79.7344)"/></g></g></g><g class="Space Undefined" fill="#ffffff" id="a2a67819-cde7-4555-9277-abc7f989137c" stroke="#ffffff" style="fill-opacity: 1; stroke-opacity: 1; stroke-width: 1;"><polygon points="991.16,464.15 1103.75,464.15 1103.75,558.62 981.40,558.62 981.40,838.56 803.29,838.56 803.29,437.48 781.74,437.48 781.74,338.89 991.16,338.89 "/><g class="Dimension" transform="matrix(1,0,0,1,803.2883,338.8936)"><g class="Visual" style="display: none;" transform="matrix(1,0,0,1,0,0)"><g class="DimensionMark" fill="#000000" id="mark1" stroke="none" style="fill-opacity: 1; pointer-events: visible;" transform="matrix(1,0,0,1,139.4594,0)"><polygon points="-5,5,0,0,5,5"/></g><g class="DimensionMark" fill="#000000" id="mark2" stroke="none" style="fill-opacity: 1; pointer-events: visible;" transform="matrix(1,0,0,1,300.4637,219.7298)"><polygon points="-5,-5,0,0,-5,5"/></g><g class="DimensionMark" fill="#000000" id="mark3" stroke="none" style="fill-opacity: 1; pointer-events: visible;" transform="matrix(1,0,0,1,139.4594,499.6695)"><polygon points="-5,-5,0,0,5,-5"/></g><g class="DimensionMark" fill="#000000" id="mark4" stroke="none" style="fill-opacity: 1; pointer-events: visible;" transform="matrix(1,0,0,1,0,219.7298)"><polygon points="5,5,0,0,5,-5"/></g></g><g class="SpaceDimensionsLabel" transform="matrix(1,0,0,1,97.3216,161.6333)"><g class="TextLabel NameLabel" id="NameLabel" style="display: block;"/><g class="TextLabel DimensionMeasureLabel" id="DimensionMeasureLabel" style="display: none;" transform="matrix(1,0,0,1,-40.5235,79.7344)"/></g></g></g><g class="Space Undefined" fill="#ffffff" id="f39be961-1bc6-4a3c-960b-962ccdc2103b" stroke="#ffffff" style="fill-opacity: 1; stroke-opacity: 1; stroke-width: 1;"><polygon points="1387.07,441.31 1010.16,441.31 1010.16,80.64 1387.07,80.64 "/><g class="Dimension" transform="matrix(1,0,0,1,1010.1647,80.6431)"><g class="Visual" style="display: none;" transform="matrix(1,0,0,1,0,0)"><g class="DimensionMark" fill="#000000" id="mark1" stroke="none" style="fill-opacity: 1; pointer-events: visible;" transform="matrix(1,0,0,1,188.4545,0)"><polygon points="-5,5,0,0,5,5"/></g><g class="DimensionMark" fill="#000000" id="mark2" stroke="none" style="fill-opacity: 1; pointer-events: visible;" transform="matrix(1,0,0,1,376.909,180.3345)"><polygon points="-5,-5,0,0,-5,5"/></g><g class="DimensionMark" fill="#000000" id="mark3" stroke="none" style="fill-opacity: 1; pointer-events: visible;" transform="matrix(1,0,0,1,188.4545,360.6691)"><polygon points="-5,-5,0,0,5,-5"/></g><g class="DimensionMark" fill="#000000" id="mark4" stroke="none" style="fill-opacity: 1; pointer-events: visible;" transform="matrix(1,0,0,1,0,180.3345)"><polygon points="5,5,0,0,5,-5"/></g></g><g class="SpaceDimensionsLabel" transform="matrix(1,0,0,1,188.4545,180.3346)"><g class="TextLabel NameLabel" id="NameLabel" style="display: block;"/><g class="TextLabel DimensionMeasureLabel" id="DimensionMeasureLabel" style="display: none;" transform="matrix(1,0,0,1,-40.5078,79.1719)"/></g></g></g><g class="Space Undefined" fill="#ffffff" id="239ca328-7b5b-438d-97cf-77f459316134" stroke="#ffffff" style="fill-opacity: 1; stroke-opacity: 1; stroke-width: 1;"><polygon points="1387.07,838.56 1120.75,838.56 1120.75,464.15 1387.07,464.15 "/><g class="Dimension" transform="matrix(1,0,0,1,1120.752,464.1488)"><g class="Visual" style="display: none;" transform="matrix(1,0,0,1,0,0)"><g class="DimensionMark" fill="#000000" id="mark1" stroke="none" style="fill-opacity: 1; pointer-events: visible;" transform="matrix(1,0,0,1,133.1608,0)"><polygon points="-5,5,0,0,5,5"/></g><g class="DimensionMark" fill="#000000" id="mark2" stroke="none" style="fill-opacity: 1; pointer-events: visible;" transform="matrix(1,0,0,1,266.3216,187.2071)"><polygon points="-5,-5,0,0,-5,5"/></g><g class="DimensionMark" fill="#000000" id="mark3" stroke="none" style="fill-opacity: 1; pointer-events: visible;" transform="matrix(1,0,0,1,133.1608,374.4143)"><polygon points="-5,-5,0,0,5,-5"/></g><g class="DimensionMark" fill="#000000" id="mark4" stroke="none" style="fill-opacity: 1; pointer-events: visible;" transform="matrix(1,0,0,1,0,187.2071)"><polygon points="5,5,0,0,5,-5"/></g></g><g class="SpaceDimensionsLabel" transform="matrix(1,0,0,1,133.1608,133.1609)"><g class="TextLabel NameLabel" id="NameLabel" style="display: block;"/><g class="TextLabel DimensionMeasureLabel" id="DimensionMeasureLabel" style="display: none;" transform="matrix(1,0,0,1,-40.5078,79.1719)"/></g></g></g><g class="Space Undefined" fill="#ffffff" id="02c1dd94-477b-4e29-88cf-c39473134468" stroke="#ffffff" style="fill-opacity: 1; stroke-opacity: 1; stroke-width: 1;"><polygon points="991.16,324.89 795.74,324.89 795.74,80.64 991.16,80.64 "/><g class="Dimension" transform="matrix(1,0,0,1,795.7434,80.6431)"><g class="Visual" style="display: none;" transform="matrix(1,0,0,1,0,0)"><g class="DimensionMark" fill="#000000" id="mark1" stroke="none" style="fill-opacity: 1; pointer-events: visible;" transform="matrix(1,0,0,1,97.7106,0)"><polygon points="-5,5,0,0,5,5"/></g><g class="DimensionMark" fill="#000000" id="mark2" stroke="none" style="fill-opacity: 1; pointer-events: visible;" transform="matrix(1,0,0,1,195.4213,122.1253)"><polygon points="-5,-5,0,0,-5,5"/></g><g class="DimensionMark" fill="#000000" id="mark3" stroke="none" style="fill-opacity: 1; pointer-events: visible;" transform="matrix(1,0,0,1,97.7106,244.2505)"><polygon points="-5,-5,0,0,5,-5"/></g><g class="DimensionMark" fill="#000000" id="mark4" stroke="none" style="fill-opacity: 1; pointer-events: visible;" transform="matrix(1,0,0,1,0,122.1253)"><polygon points="5,5,0,0,5,-5"/></g></g><g class="SpaceDimensionsLabel" transform="matrix(1,0,0,1,97.7107,97.7106)"><g class="TextLabel NameLabel" id="NameLabel" style="display: block;"/><g class="TextLabel DimensionMeasureLabel" id="DimensionMeasureLabel" style="display: none;" transform="matrix(1,0,0,1,-40.5078,79.1719)"/></g></g></g><g class="Space Undefined" fill="#ffffff" id="9e6b51cc-a92b-4ca2-885e-37b21bd7f6ef" stroke="#ffffff" style="fill-opacity: 1; stroke-opacity: 1; stroke-width: 1;"><polygon points="1103.75,838.56 996.40,838.56 996.40,709.75 1103.75,709.75 "/><g class="Dimension" transform="matrix(1,0,0,1,996.4003,709.7491)"><g class="Visual" style="display: none;" transform="matrix(1,0,0,1,0,0)"><g class="DimensionMark" fill="#000000" id="mark1" stroke="none" style="fill-opacity: 1; pointer-events: visible;" transform="matrix(1,0,0,1,53.6759,0)"><polygon points="-5,5,0,0,5,5"/></g><g class="DimensionMark" fill="#000000" id="mark2" stroke="none" style="fill-opacity: 1; pointer-events: visible;" transform="matrix(1,0,0,1,107.3517,64.407)"><polygon points="-5,-5,0,0,-5,5"/></g><g class="DimensionMark" fill="#000000" id="mark3" stroke="none" style="fill-opacity: 1; pointer-events: visible;" transform="matrix(1,0,0,1,53.6759,128.814)"><polygon points="-5,-5,0,0,5,-5"/></g><g class="DimensionMark" fill="#000000" id="mark4" stroke="none" style="fill-opacity: 1; pointer-events: visible;" transform="matrix(1,0,0,1,0,64.407)"><polygon points="5,5,0,0,5,-5"/></g></g><g class="SpaceDimensionsLabel" transform="matrix(1,0,0,1,53.6758,53.6759)"><g class="TextLabel NameLabel" id="NameLabel" style="display: block;"/><g class="TextLabel DimensionMeasureLabel" id="DimensionMeasureLabel" style="display: none;" transform="matrix(1,0,0,1,-40.5078,79.1719)"/></g></g></g><g class="Space Undefined" fill="#ffffff" id="5e05d18c-955c-4142-a452-9a8ee43f4ca7" stroke="#ffffff" style="fill-opacity: 1; stroke-opacity: 1; stroke-width: 1;"><polygon points="1103.75,694.75 996.40,694.75 996.40,573.62 1103.75,573.62 "/><g class="Dimension" transform="matrix(1,0,0,1,996.4003,573.6235)"><g class="Visual" style="display: none;" transform="matrix(1,0,0,1,0,0)"><g class="DimensionMark" fill="#000000" id="mark1" stroke="none" style="fill-opacity: 1; pointer-events: visible;" transform="matrix(1,0,0,1,53.6759,0)"><polygon points="-5,5,0,0,5,5"/></g><g class="DimensionMark" fill="#000000" id="mark2" stroke="none" style="fill-opacity: 1; pointer-events: visible;" transform="matrix(1,0,0,1,107.3517,60.5628)"><polygon points="-5,-5,0,0,-5,5"/></g><g class="DimensionMark" fill="#000000" id="mark3" stroke="none" style="fill-opacity: 1; pointer-events: visible;" transform="matrix(1,0,0,1,53.6759,121.1257)"><polygon points="-5,-5,0,0,5,-5"/></g><g class="DimensionMark" fill="#000000" id="mark4" stroke="none" style="fill-opacity: 1; pointer-events: visible;" transform="matrix(1,0,0,1,0,60.5628)"><polygon points="5,5,0,0,5,-5"/></g></g><g class="SpaceDimensionsLabel" transform="matrix(1,0,0,1,53.6758,53.6759)"><g class="TextLabel NameLabel" id="NameLabel" style="display: block;"/><g class="TextLabel DimensionMeasureLabel" id="DimensionMeasureLabel" style="display: none;" transform="matrix(1,0,0,1,-40.5078,79.1719)"/></g></g></g><g class="FixedFurniture Toilet" fill="#ffffff" stroke="#000000" style="fill-opacity: 1; stroke-opacity: 1;" transform="matrix(0,1,-1,0,991.1647,229.9267)">
<g class="BoundaryPolygon" fill="none" stroke="none">
<polygon points="0,0 41,0 41,71 0,71"/>
</g>
<g class="InnerPolygon">
<rect height="17.98" width="39.989" x="0.502" y="0.5"/>
<path d="M40.491,44.237S41.619,70.5,20.907,70.5C-.523,70.5.6,44.237.6,44.237L.5,18.48H40.491Z"/>
<rect height="3.03" width="6.357" x="17.318" y="7.975"/>
</g>
<desc>Width:41 Height:85 Depth:71 Elevation:0</desc>
</g><g class="Wall External" fill="#000000" id="Wall" stroke="#000000" style="fill-opacity: 1; stroke-opacity: 1; stroke-width: 1;"><polygon points="237.45,80.64 1387.07,80.64 1419.07,45.64 199.45,45.64 "/></g><g class="Wall External" fill="#000000" id="Wall" stroke="#000000" style="fill-opacity: 1; stroke-opacity: 1; stroke-width: 1;"><polygon points="1387.07,80.64 1387.07,838.56 1419.07,870.56 1419.07,45.64 "/><g class="Window Regular" fill="#f0f0ff" id="Window" stroke="#000000" style="fill-opacity: 1; stroke-width: 1; stroke-opacity: 1;"><polygon points="1387.07,192.61 1387.07,382.69 1419.07,382.69 1419.07,192.61 "/><g class="Glass" id="Glass"><polygon points="1387.07,192.61 1387.07,382.69 1419.07,382.69 1419.07,192.61 "/></g><g class="Panel" id="Panel"><line x1="1403.0736713102956" x2="1403.0736713102956" y1="200.1054364130049" y2="375.1903301386818"/><line x1="1387.0736713102956" x2="1419.0736713102956" y1="200.1054364130049" y2="200.1054364130049"/><line x1="1387.0736713102956" x2="1419.0736713102956" y1="375.1903301386818" y2="375.1903301386818"/></g></g><g class="Window Regular" fill="#f0f0ff" id="Window" stroke="#000000" style="fill-opacity: 1; stroke-width: 1; stroke-opacity: 1;"><polygon points="1387.07,521.75 1387.07,706.87 1419.07,706.87 1419.07,521.75 "/><g class="Glass" id="Glass"><polygon points="1387.07,521.75 1387.07,706.87 1419.07,706.87 1419.07,521.75 "/></g><g class="Panel" id="Panel"><line x1="1403.0736713102956" x2="1403.0736713102956" y1="529.2548354846928" y2="699.3731405382024"/><line x1="1387.0736713102956" x2="1419.0736713102956" y1="529.2548354846928" y2="529.2548354846928"/><line x1="1387.0736713102956" x2="1419.0736713102956" y1="699.3731405382024" y2="699.3731405382024"/></g></g></g><g class="Wall External" fill="#000000" id="Wall" stroke="#000000" style="fill-opacity: 1; stroke-opacity: 1; stroke-width: 1;"><polygon points="1387.07,838.56 803.29,838.56 771.29,870.56 1419.07,870.56 "/><g class="Door Swing Beside" fill="#ffffff" id="Door" stroke="#000000" style="fill-opacity: 1; stroke-width: 1; stroke-opacity: 1;"><polygon points="976.75,838.56 880.49,838.56 880.49,870.56 976.75,870.56 "/><g class="Panel Left Negative" fill="none" id="Panel" style=""><g class="PanelArea" fill="none" id="PanelArea" stroke="none" style=""><polygon points="976.75,838.56 880.49,838.56 880.49,870.56 976.75,870.56 "/></g><path d="M976.75,838.56 q0.00,-96.26 -96.26,-96.26 l0.00,96.26Z"/></g></g></g><g class="Wall External" fill="#000000" id="Wall" stroke="#000000" style="fill-opacity: 1; stroke-opacity: 1; stroke-width: 1;"><polygon points="803.29,838.56 803.29,437.48 771.29,471.48 771.29,870.56 "/></g><g class="Wall External" fill="#000000" id="Wall" stroke="#000000" style="fill-opacity: 1; stroke-opacity: 1; stroke-width: 1;"><polygon points="803.29,437.48 237.45,437.48 199.45,471.48 771.29,471.48 "/></g><g class="Wall External" fill="#000000" id="Wall" stroke="#000000" style="fill-opacity: 1; stroke-opacity: 1; stroke-width: 1;"><polygon points="237.45,437.48 237.45,80.64 199.45,45.64 199.45,471.48 "/><g class="Window Regular" fill="#f0f0ff" id="Window" stroke="#000000" style="fill-opacity: 1; stroke-width: 1; stroke-opacity: 1;"><polygon points="237.45,270.85 237.45,117.70 199.45,117.70 199.45,270.85 "/><g class="Glass" id="Glass"><polygon points="237.45,270.85 237.45,117.70 199.45,117.70 199.45,270.85 "/></g><g class="Panel" id="Panel"><line x1="218.45124564863326" x2="218.45124564863323" y1="263.35358889789063" y2="125.19957727775233"/><line x1="237.45124564863326" x2="199.45124564863326" y1="263.35358889789063" y2="263.35358889789063"/><line x1="237.45124564863323" x2="199.45124564863323" y1="125.19957727775233" y2="125.19957727775233"/></g></g><g class="Door Swing Beside" fill="#ffffff" id="Door" stroke="#000000" style="fill-opacity: 1; stroke-width: 1; stroke-opacity: 1;"><polygon points="237.45,390.66 237.45,286.02 199.45,286.02 199.45,390.66 "/><g class="Panel Right Negative" fill="none" id="Panel" style=""><g class="PanelArea" fill="none" id="PanelArea" stroke="none" style=""><polygon points="237.45,390.66 237.45,286.02 199.45,286.02 199.45,390.66 "/></g><path d="M237.45,286.02 q104.64,0.00 104.64,104.64 l-104.64,0.00Z"/></g></g></g><g class="Wall" fill="#000000" id="Wall" stroke="#000000" style="fill-opacity: 1; stroke-opacity: 1; stroke-width: 1;"><polygon points="199.45,45.64 33.90,45.64 33.90,81.64 199.45,81.64 "/></g><g class="Railing" fill="#ffffff" id="Railing" stroke="#000000" style="fill-opacity: 1; stroke-opacity: 1; stroke-width: 1;"><polygon points="33.90,81.64 33.90,437.48 55.08,437.48 55.08,81.64 " style="stroke-dasharray: 0;"/></g><g class="Wall" fill="#000000" id="Wall" stroke="#000000" style="fill-opacity: 1; stroke-opacity: 1; stroke-width: 1;"><polygon points="33.90,471.48 199.45,471.48 199.45,437.48 33.90,437.48 "/></g><g class="Wall" fill="#000000" id="Wall" stroke="#000000" style="fill-opacity: 1; stroke-opacity: 1; stroke-width: 1;"><polygon points="781.74,45.64 781.74,338.89 795.74,324.89 795.74,45.64 "/></g><g class="Wall" fill="#000000" id="Wall" stroke="#000000" style="fill-opacity: 1; stroke-opacity: 1; stroke-width: 1;"><polygon points="781.74,338.89 991.16,338.89 1010.16,324.89 795.74,324.89 "/><g class="Door Swing Beside" fill="#ffffff" id="Door" stroke="#000000" style="fill-opacity: 1; stroke-width: 1; stroke-opacity: 1;"><polygon points="858.77,338.89 928.99,338.89 928.99,324.89 858.77,324.89 "/><g class="Panel Right Negative" fill="none" id="Panel" style=""><g class="PanelArea" fill="none" id="PanelArea" stroke="none" style=""><polygon points="858.77,338.89 928.99,338.89 928.99,324.89 858.77,324.89 "/></g><path d="M928.99,338.89 q0.00,70.22 -70.22,70.22 l0.00,-70.22Z"/></g></g></g><g class="Wall" fill="#000000" id="Wall" stroke="#000000" style="fill-opacity: 1; stroke-opacity: 1; stroke-width: 1;"><polygon points="1010.16,338.89 1010.16,45.64 991.16,45.64 991.16,338.89 "/></g><g class="Wall" fill="#000000" id="Wall" stroke="#000000" style="fill-opacity: 1; stroke-opacity: 1; stroke-width: 1;"><polygon points="1010.16,324.89 1010.16,441.31 991.16,464.15 991.16,338.89 "/><g class="Door Swing Beside" fill="#ffffff" id="Door" stroke="#000000" style="fill-opacity: 1; stroke-width: 1; stroke-opacity: 1;"><polygon points="1010.16,350.93 1010.16,435.69 991.16,435.69 991.16,350.93 "/><g class="Panel Left Negative" fill="none" id="Panel" style=""><g class="PanelArea" fill="none" id="PanelArea" stroke="none" style=""><polygon points="1010.16,350.93 1010.16,435.69 991.16,435.69 991.16,350.93 "/></g><path d="M1010.16,350.93 q84.76,0.00 84.76,84.76 l-84.76,0.00Z"/></g></g></g><g class="Wall" fill="#000000" id="Wall" stroke="#000000" style="fill-opacity: 1; stroke-opacity: 1; stroke-width: 1;"><polygon points="1010.16,441.31 1419.07,441.31 1419.07,464.15 991.16,464.15 "/></g><g class="Wall" fill="#000000" id="Wall" stroke="#000000" style="fill-opacity: 1; stroke-opacity: 1; stroke-width: 1;"><polygon points="1103.75,441.31 1103.75,870.56 1120.75,870.56 1120.75,441.31 "/><g class="Door Swing Beside" fill="#ffffff" id="Door" stroke="#000000" style="fill-opacity: 1; stroke-width: 1; stroke-opacity: 1;"><polygon points="1103.75,472.51 1103.75,553.83 1120.75,553.83 1120.75,472.51 "/><g class="Panel Right Negative" fill="none" id="Panel" style=""><g class="PanelArea" fill="none" id="PanelArea" stroke="none" style=""><polygon points="1103.75,472.51 1103.75,553.83 1120.75,553.83 1120.75,472.51 "/></g><path d="M1103.75,553.83 q-81.32,0.00 -81.32,-81.32 l81.32,0.00Z"/></g></g></g><g class="Wall" fill="#000000" id="Wall" stroke="#000000" style="fill-opacity: 1; stroke-opacity: 1; stroke-width: 1;"><polygon points="1120.75,573.62 996.40,573.62 981.40,558.62 1120.75,558.62 "/></g><g class="Wall" fill="#000000" id="Wall" stroke="#000000" style="fill-opacity: 1; stroke-opacity: 1; stroke-width: 1;"><polygon points="996.40,573.62 996.40,870.56 981.40,870.56 981.40,558.62 "/><g class="Door Swing Beside" fill="#ffffff" id="Door" stroke="#000000" style="fill-opacity: 1; stroke-width: 1; stroke-opacity: 1;"><polygon points="996.40,713.07 996.40,784.64 981.40,784.64 981.40,713.07 "/><g class="Panel Right Positive" fill="none" id="Panel" style=""><g class="PanelArea" fill="none" id="PanelArea" stroke="none" style=""><polygon points="996.40,713.07 996.40,784.64 981.40,784.64 981.40,713.07 "/></g><path d="M981.40,713.07 q-71.57,0.00 -71.57,71.57 l71.57,0.00Z"/></g></g><g class="Door Swing Beside" fill="#ffffff" id="Door" stroke="#000000" style="fill-opacity: 1; stroke-width: 1; stroke-opacity: 1;"><polygon points="996.40,607.44 996.40,673.04 981.40,673.04 981.40,607.44 "/><g class="Panel Left Positive" fill="none" id="Panel" style=""><g class="PanelArea" fill="none" id="PanelArea" stroke="none" style=""><polygon points="996.40,607.44 996.40,673.04 981.40,673.04 981.40,607.44 "/></g><path d="M981.40,673.04 q-65.60,0.00 -65.60,-65.60 l65.60,0.00Z"/></g></g></g><g class="Wall" fill="#000000" id="Wall" stroke="#000000" style="fill-opacity: 1; stroke-opacity: 1; stroke-width: 1;"><polygon points="981.40,709.75 1103.75,709.75 1103.75,694.75 981.40,694.75 "/></g><g class="Column Rectangle" fill="#000000" id="Column" stroke="none" style="fill-opacity: 1;"><polygon points="961.40,74.58 961.40,206.64 996.40,206.64 996.40,74.58 "/></g><g class="FixedFurniture Bathtub" fill="#ffffff" stroke="#000000" style="fill-opacity: 1; stroke-opacity: 1;" transform="matrix(0.9479,0,0,0.8835,795.5176,80.6431)">
<g class="BoundaryPolygon">
<polygon points="0,0 175,0 175,82 0,82"/>
</g>
<g class="Tub">
<path d="M166.6,41.2c0,19.7,0,35.7-79.3,35.7S8,60.9,8,41.2,8,5.5,87.3,5.5,166.6,21.5,166.6,41.2Z"/>
</g>
<g class="Name" fill-opacity="0.9" style="display: none;">

</g>
<desc>Width:175 Height:38 Depth:82 Elevation:0</desc>
</g><g class="FixedFurniture Shower" fill="#ffffff" stroke="#000000" style="fill-opacity: 1; stroke-opacity: 1;" transform="matrix(0,1,-1,0,961.399,99.8192)">
<g class="BoundaryPolygon" fill="none" stroke="none">
<polygon points="0,0 32,0 32,19 0,19"/>
</g>
<g class="InnerPolygon">
<rect height="6.1" width="11.2" x="3.7" y="0.5"/>
<rect height="6.1" width="11.2" x="17.6" y="0.5"/>
<rect height="6.1" width="3.4" x="28.7" y="0.5"/>
<rect height="6.1" width="3.2" x="0.5" y="0.5"/>
<path d="M14.9,8.5c0,1.5-0.4,3.3-1.6,5    c-0.4,0.6-1,1.1-1.1,1.7c-0.2,1.1,0.3,2.8,2.5,3.2c0.5,0.1,1.3,0.1,1.6,0.1h-0.1c0.3,0,1.1,0,1.6-0.1c2.2-0.4,2.7-2.1,2.5-3.2    c-0.1-0.6-0.7-1.1-1.1-1.7c-1.2-1.7-1.6-3.5-1.6-5"/>
<path d="M12.2,15.3c0.1,0.2,1.6,1.9,4.2,1.9 c2.4-0.1,3.7-1.7,3.9-1.9"/>
<path d="M14.9,0.5h2.7v8c-0.9,0-1.8,0-2.7,0l0,0 C14.9,5.9,14.9,3.2,14.9,0.5z"/>
</g>
<g class="Indicator">
<path d="M3.7,3.6C5,3.1,5.2,3,5.2,3 c0,1.1,0,0,0,1.1C5.2,4.1,5.1,4.1,3.7,3.6"/>
<path d="M28.7,3.6 C27.4,3.1,27.2,3,27.2,3c0,1.1,0,0,0,1.1C27.2,4.1,27.3,4.1,28.7,3.6"/>
</g>
<desc>Width:32 Height:97 Depth:19 Elevation:135</desc>
</g><g class="FixedFurnitureSet" fill="#ffffff" id="FixedFurnitureSet" stroke="#000000" style="fill-opacity: 0.4; stroke-opacity: 0.4;" transform="matrix(0,1,-1,0,961.2437,153.0869)"><g class="FixedFurniture BaseCabinet" fill="#ffffff" stroke="#000000" style="fill-opacity: 1; stroke-opacity: 1;" transform="matrix(1,0,0,1,0,0)">
<g class="BoundaryPolygon">
<polygon points="0.00,0.00 52.71,0.00 52.71,34.76 0.00,34.76 "/>
</g>
<g class="Direction" fill-opacity="0.9" style="display: none;">
<polygon fill="#444444" points="28.12,31.98 28.12,21.36 25.11,21.36 25.11,31.98 21.31,31.98 26.61,36.78 31.91,31.98 28.12,31.98 "/>
</g>
<g class="Name" fill-opacity="0.9" style="display: none;">

</g>
<desc>Width:60 Height:5 Depth:60 Elevation:105</desc>
</g><g class="FixedFurniture Sink" fill="#ffffff" stroke="#000000" style="fill-opacity: 1; stroke-opacity: 1;" transform="matrix(1,0,0,1,0,0)">
<g class="BoundaryPolygon" fill="none" stroke="none">
<polygon points="0.00,0.00 52.71,0.00 52.71,34.76 0.00,34.76 "/>
</g>
<g class="InnerPolygon">
<polygon points="4.39,9.70 48.31,9.70 48.31,31.69 4.39,31.69 "/>
</g>
<g class="OuterDrain" stroke-width="0.8">
<circle cx="26.35259492533146" cy="18.65552704635809" r="3.5"/>
</g>
<g class="InnerDrain" stroke-width="0.8">
<circle cx="26.35259492533146" cy="18.65552704635809" r="2"/>
</g>
<g class="Faucet">
<polygon points="23.72,2.90 29.72,2.90 29.72,16.90 23.72,16.90 "/>
</g>
<g class="Direction" fill-opacity="0.9" style="display: none;">
<polygon fill="#444444" points="28.12,31.98 28.12,21.36 25.11,21.36 25.11,31.98 21.31,31.98 26.61,36.78 31.91,31.98 28.12,31.98 "/>
</g>
<g class="Name" fill-opacity="0.9" style="display: none;">

</g>
<desc>Width:60 Height:90 Depth:60 Elevation:0</desc>
</g></g><g class="FixedFurniture Closet" fill="#ffffff" stroke="#000000" style="fill-opacity: 1; stroke-opacity: 1;" transform="matrix(0,-1,1,0,1010.3522,127.7831)">
<g class="BoundaryPolygon">
<polygon points="0.00,0.00 47.14,0.00 47.14,54.02 0.00,54.02 "/>
</g>
<g class="Direction" fill-opacity="0.9" style="display: none;">
<polygon fill="#444444" points="24.76,49.24 24.76,38.63 21.75,38.63 21.75,49.24 17.94,49.24 23.25,54.55 28.55,49.24 24.76,49.24 "/>
</g>
<g class="Name" fill-opacity="0.9" style="display: none;">

</g>
<desc>Width:60 Height:200 Depth:60 Elevation:0</desc>
</g><g class="FixedFurniture Closet" fill="#ffffff" stroke="#000000" style="fill-opacity: 1; stroke-opacity: 1;" transform="matrix(0,-1,1,0,1010.3522,192.6431)">
<g class="BoundaryPolygon">
<polygon points="0.00,0.00 64.86,0.00 64.86,54.02 0.00,54.02 "/>
</g>
<g class="Direction" fill-opacity="0.9" style="display: none;">
<polygon fill="#444444" points="34.07,49.24 34.07,38.63 31.06,38.63 31.06,49.24 27.25,49.24 32.56,54.55 37.86,49.24 34.07,49.24 "/>
</g>
<g class="Name" fill-opacity="0.9" style="display: none;">

</g>
<desc>Width:60 Height:200 Depth:60 Elevation:0</desc>
</g><g class="FixedFurniture Closet" fill="#ffffff" stroke="#000000" style="fill-opacity: 1; stroke-opacity: 1;" transform="matrix(0,-1,1,0,1010.3522,266.6431)">
<g class="BoundaryPolygon">
<polygon points="0.00,0.00 74.00,0.00 74.00,54.02 0.00,54.02 "/>
</g>
<g class="Direction" fill-opacity="0.9" style="display: none;">
<polygon fill="#444444" points="38.87,49.24 38.87,38.63 35.86,38.63 35.86,49.24 32.05,49.24 37.36,54.55 42.66,49.24 38.87,49.24 "/>
</g>
<g class="Name" fill-opacity="0.9" style="display: none;">

</g>
<desc>Width:60 Height:200 Depth:60 Elevation:0</desc>
</g><g class="FixedFurniture Closet" fill="#ffffff" stroke="#000000" style="fill-opacity: 1; stroke-opacity: 1;" transform="matrix(0,-1,1,0,1010.3522,317.4931)">
<g class="BoundaryPolygon">
<polygon points="0.00,0.00 50.85,0.00 50.85,54.02 0.00,54.02 "/>
</g>
<g class="Direction" fill-opacity="0.9" style="display: none;">
<polygon fill="#444444" points="26.71,49.24 26.71,38.63 23.70,38.63 23.70,49.24 19.89,49.24 25.20,54.55 30.50,49.24 26.71,49.24 "/>
</g>
<g class="Name" fill-opacity="0.9" style="display: none;">

</g>
<desc>Width:60 Height:200 Depth:60 Elevation:0</desc>
</g><g class="FixedFurniture Closet" fill="#ffffff" stroke="#000000" style="fill-opacity: 1; stroke-opacity: 1;" transform="matrix(0,-1,1,0,803.2883,838.5631)">
<g class="BoundaryPolygon">
<polygon points="0.00,0.00 69.19,0.00 69.19,60.00 0.00,60.00 "/>
</g>
<g class="Direction" fill-opacity="0.9" style="display: none;">
<polygon fill="#444444" points="36.34,54.70 36.34,44.08 33.33,44.08 33.33,54.70 29.52,54.70 34.83,60.00 40.13,54.70 36.34,54.70 "/>
</g>
<g class="Name" fill-opacity="0.9" style="display: none;">

</g>
<desc>Width:60 Height:200 Depth:60 Elevation:0</desc>
</g><g class="FixedFurniture Closet" fill="#ffffff" stroke="#000000" style="fill-opacity: 1; stroke-opacity: 1;" transform="matrix(0,-1,1,0,803.2883,769.3712)">
<g class="BoundaryPolygon">
<polygon points="0.00,0.00 97.05,0.00 97.05,60.00 0.00,60.00 "/>
</g>
<g class="Direction" fill-opacity="0.9" style="display: none;">
<polygon fill="#444444" points="50.97,54.70 50.97,44.08 47.96,44.08 47.96,54.70 44.15,54.70 49.46,60.00 54.76,54.70 50.97,54.70 "/>
</g>
<g class="Name" fill-opacity="0.9" style="display: none;">

</g>
<desc>Width:60 Height:200 Depth:60 Elevation:0</desc>
</g><g class="FixedFurniture Closet" fill="#ffffff" stroke="#000000" style="fill-opacity: 1; stroke-opacity: 1;" transform="matrix(0,-1,1,0,803.3664,672.3183)">
<g class="BoundaryPolygon">
<polygon points="0.00,0.00 116.97,0.00 116.97,28.98 0.00,28.98 "/>
</g>
<g class="Direction" fill-opacity="0.9" style="display: none;">
<polygon fill="#444444" points="61.43,26.42 61.43,15.80 58.42,15.80 58.42,26.42 54.62,26.42 59.92,31.72 65.22,26.42 61.43,26.42 "/>
</g>
<g class="Name" fill-opacity="0.9" style="display: none;">

</g>
<desc>Width:60 Height:200 Depth:60 Elevation:0</desc>
</g><g class="FixedFurniture Toilet" fill="#ffffff" stroke="#000000" style="fill-opacity: 1; stroke-opacity: 1;" transform="matrix(-1,0,0,-1,1052.723,838.5631)">
<g class="BoundaryPolygon" fill="none" stroke="none">
<polygon points="0,0 41,0 41,71 0,71"/>
</g>
<g class="InnerPolygon">
<rect height="17.98" width="39.989" x="0.502" y="0.5"/>
<path d="M40.491,44.237S41.619,70.5,20.907,70.5C-.523,70.5.6,44.237.6,44.237L.5,18.48H40.491Z"/>
<rect height="3.03" width="6.357" x="17.318" y="7.975"/>
</g>
<desc>Width:41 Height:85 Depth:71 Elevation:0</desc>
</g><g class="FixedFurnitureSet" fill="#ffffff" id="FixedFurnitureSet" stroke="#000000" style="fill-opacity: 0.4; stroke-opacity: 0.4;" transform="matrix(0,1,-1,0,1103.6739,709.7491)"><g class="FixedFurniture BaseCabinet" fill="#ffffff" stroke="#000000" style="fill-opacity: 1; stroke-opacity: 1;" transform="matrix(1,0,0,1,0,0)">
<g class="BoundaryPolygon">
<polygon points="0.00,0.00 60.00,0.00 60.00,41.25 0.00,41.25 "/>
</g>
<g class="Direction" fill-opacity="0.9" style="display: none;">
<polygon fill="#444444" points="32.01,37.95 32.01,27.33 29.00,27.33 29.00,37.95 25.20,37.95 30.50,42.75 35.80,37.95 32.01,37.95 "/>
</g>
<g class="Name" fill-opacity="0.9" style="display: none;">

</g>
<desc>Width:60 Height:5 Depth:60 Elevation:105</desc>
</g><g class="FixedFurniture Sink" fill="#ffffff" stroke="#000000" style="fill-opacity: 1; stroke-opacity: 1;" transform="matrix(1,0,0,1,0,0)">
<g class="BoundaryPolygon" fill="none" stroke="none">
<polygon points="0.00,0.00 60.00,0.00 60.00,41.25 0.00,41.25 "/>
</g>
<g class="InnerPolygon">
<polygon points="5.00,9.70 55.00,9.70 55.00,37.61 5.00,37.61 "/>
</g>
<g class="OuterDrain" stroke-width="0.8">
<circle cx="30" cy="22.13682006226763" r="3.5"/>
</g>
<g class="InnerDrain" stroke-width="0.8">
<circle cx="30" cy="22.13682006226763" r="2"/>
</g>
<g class="Faucet">
<polygon points="27.00,3.44 33.00,3.44 33.00,17.44 27.00,17.44 "/>
</g>
<g class="Direction" fill-opacity="0.9" style="display: none;">
<polygon fill="#444444" points="32.01,37.95 32.01,27.33 29.00,27.33 29.00,37.95 25.20,37.95 30.50,42.75 35.80,37.95 32.01,37.95 "/>
</g>
<g class="Name" fill-opacity="0.9" style="display: none;">

</g>
<desc>Width:60 Height:90 Depth:60 Elevation:0</desc>
</g></g><g class="FixedFurniture Closet" fill="#ffffff" stroke="#000000" style="fill-opacity: 1; stroke-opacity: 1;" transform="matrix(0,1,-1,0,1103.6739,573.6234)">
<g class="BoundaryPolygon">
<polygon points="0.00,0.00 120.86,0.00 120.86,32.84 0.00,32.84 "/>
</g>
<g class="Direction" fill-opacity="0.9" style="display: none;">
<polygon fill="#444444" points="63.47,29.94 63.47,19.32 60.46,19.32 60.46,29.94 56.66,29.94 61.96,35.24 67.26,29.94 63.47,29.94 "/>
</g>
<g class="Name" fill-opacity="0.9" style="display: none;">

</g>
<desc>Width:60 Height:200 Depth:60 Elevation:0</desc>
</g><g class="FixedFurniture Closet" fill="#ffffff" stroke="#000000" style="fill-opacity: 1; stroke-opacity: 1;" transform="matrix(0,-1,1,0,1120.752,633.6235)">
<g class="BoundaryPolygon">
<polygon points="0,0 60,0 60,60 0,60"/>
</g>
<g class="Direction" fill-opacity="0.9" style="display: none;">
<polygon fill="#444444" points="31.509 54.697 31.509 44.081 28.5 44.081 28.5 54.697 24.697 54.697 30 60 35.303 54.697 31.509 54.697"/>
</g>
<g class="Name" fill-opacity="0.9" style="display: none;">

</g>
<desc>Width:60 Height:200 Depth:60 Elevation:0</desc>
</g><g class="FixedFurniture BaseCabinet" fill="#ffffff" stroke="#000000" style="fill-opacity: 1; stroke-opacity: 1;" transform="matrix(0,-1,1,0,1120.752,781.1834)">
<g class="BoundaryPolygon">
<polygon points="0.00,0.00 147.56,0.00 147.56,60.00 0.00,60.00 "/>
</g>
<g class="Direction" fill-opacity="0.9" style="display: none;">
<polygon fill="#444444" points="78.72,55.20 78.72,44.58 75.71,44.58 75.71,55.20 71.91,55.20 77.21,60.00 82.52,55.20 78.72,55.20 "/>
</g>
<g class="Name" fill-opacity="0.9" style="display: none;">

</g>
<desc>Width:60 Height:90 Depth:60 Elevation:0</desc>
</g><g class="FixedFurniture Closet" fill="#ffffff" stroke="#000000" style="fill-opacity: 1; stroke-opacity: 1;" transform="matrix(-1,0,0,-1,1181.4421,838.5631)">
<g class="BoundaryPolygon">
<polygon points="0.00,0.00 60.69,0.00 60.69,57.25 0.00,57.25 "/>
</g>
<g class="Direction" fill-opacity="0.9" style="display: none;">
<polygon fill="#444444" points="31.87,52.19 31.87,41.57 28.86,41.57 28.86,52.19 25.06,52.19 30.36,57.49 35.66,52.19 31.87,52.19 "/>
</g>
<g class="Name" fill-opacity="0.9" style="display: none;">

</g>
<desc>Width:60 Height:200 Depth:60 Elevation:0</desc>
</g><g class="FixedFurniture Closet" fill="#ffffff" stroke="#000000" style="fill-opacity: 1; stroke-opacity: 1;" transform="matrix(-1,0,0,-1,1235.022,838.5631)">
<g class="BoundaryPolygon">
<polygon points="0.00,0.00 53.58,0.00 53.58,57.25 0.00,57.25 "/>
</g>
<g class="Direction" fill-opacity="0.9" style="display: none;">
<polygon fill="#444444" points="28.14,52.19 28.14,41.57 25.13,41.57 25.13,52.19 21.33,52.19 26.63,57.49 31.93,52.19 28.14,52.19 "/>
</g>
<g class="Name" fill-opacity="0.9" style="display: none;">

</g>
<desc>Width:60 Height:200 Depth:60 Elevation:0</desc>
</g><g class="FixedFurniture Closet" fill="#ffffff" stroke="#000000" style="fill-opacity: 1; stroke-opacity: 1;" transform="matrix(-1,0,0,-1,1283.562,838.5631)">
<g class="BoundaryPolygon">
<polygon points="0.00,0.00 48.54,0.00 48.54,57.25 0.00,57.25 "/>
</g>
<g class="Direction" fill-opacity="0.9" style="display: none;">
<polygon fill="#444444" points="25.49,52.19 25.49,41.57 22.48,41.57 22.48,52.19 18.68,52.19 23.98,57.49 29.28,52.19 25.49,52.19 "/>
</g>
<g class="Name" fill-opacity="0.9" style="display: none;">

</g>
<desc>Width:60 Height:200 Depth:60 Elevation:0</desc>
</g><g class="FixedFurniture Closet" fill="#ffffff" stroke="#000000" style="fill-opacity: 1; stroke-opacity: 1;" transform="matrix(-1,0,0,-1,1387.1121,838.5631)">
<g class="BoundaryPolygon">
<polygon points="0.00,0.00 103.55,0.00 103.55,57.25 0.00,57.25 "/>
</g>
<g class="Direction" fill-opacity="0.9" style="display: none;">
<polygon fill="#444444" points="54.38,52.19 54.38,41.57 51.37,41.57 51.37,52.19 47.57,52.19 52.87,57.49 58.17,52.19 54.38,52.19 "/>
</g>
<g class="Name" fill-opacity="0.9" style="display: none;">

</g>
<desc>Width:60 Height:200 Depth:60 Elevation:0</desc>
</g></g></g></g></svg>