<?xml version="1.0" encoding="utf-8"?>
<svg height="788.9099769592285" id="temp" version="1.1" viewBox="0 0 973.7500152587891 788.9099769592285" width="973.7500152587891" xmlns="http://www.w3.org/2000/svg" xmlns:xlink="http://www.w3.org/1999/xlink"><defs/><g class="Model v1-1" id="Model"><g class="Floor"><g class="Floorplan Floor-1" id="Floor-1" transform="matrix(1,0,0,1,0,0)"><g class="Space Kitchen" fill="#ffffff" id="5e7a59ee-22c6-484a-bb56-2b257e37d168" stroke="#ffffff" style="fill-opacity: 1; stroke-opacity: 1; stroke-width: 1;"><polygon points="498.04,376.81 231.24,376.81 231.17,71.12 498.04,71.12 "/><g class="Dimension" transform="matrix(1,0,0,1,231.2049,71.1215)"><g class="Visual" style="display: none;" transform="matrix(1,0,0,1,0,0)"><g class="DimensionMark" fill="#000000" id="mark1" stroke="none" style="fill-opacity: 1; pointer-events: visible;" transform="matrix(1,0,0,1,133.4025,0)"><polygon points="-5,5,0,0,5,5"/></g><g class="DimensionMark" fill="#000000" id="mark2" stroke="none" style="fill-opacity: 1; pointer-events: visible;" transform="matrix(1,0,0,1,266.8397,152.844)"><polygon points="-5,-5,0,0,-5,5"/></g><g class="DimensionMark" fill="#000000" id="mark3" stroke="none" style="fill-opacity: 1; pointer-events: visible;" transform="matrix(1,0,0,1,133.4025,305.6881)"><polygon points="-5,-5,0,0,5,-5"/></g><g class="DimensionMark" fill="#000000" id="mark4" stroke="none" style="fill-opacity: 1; pointer-events: visible;" transform="matrix(1,0,0,1,0,152.844)"><polygon points="5,5,0,0,5,-5"/></g></g><g class="SpaceDimensionsLabel" transform="matrix(1,0,0,1,30.4395,191.5472)"><g class="TextLabel NameLabel" id="NameLabel" style="display: none;"/><g class="TextLabel DimensionMeasureLabel" id="DimensionMeasureLabel" style="display: none;" transform="matrix(1,0,0,1,-71.5,79.5938)"/></g></g></g><g class="Space LivingRoom" fill="#ffffff" id="ae0a87c0-8ddf-4764-8128-bb8ac44d0409" stroke="#ffffff" style="fill-opacity: 1; stroke-opacity: 1; stroke-width: 1;"><polygon points="498.04,715.97 226.00,716.00 232.24,715.99 231.24,386.95 498.04,386.95 "/><g class="Dimension" transform="matrix(1,0,0,1,231.7394,386.9549)"><g class="Visual" style="display: none;" transform="matrix(1,0,0,1,0,0)"><g class="DimensionMark" fill="#000000" id="mark1" stroke="none" style="fill-opacity: 1; pointer-events: visible;" transform="matrix(1,0,0,1,130.2829,0)"><polygon points="-5,5,0,0,5,5"/></g><g class="DimensionMark" fill="#000000" id="mark2" stroke="none" style="fill-opacity: 1; pointer-events: visible;" transform="matrix(1,0,0,1,266.3051,164.5051)"><polygon points="-5,-5,0,0,-5,5"/></g><g class="DimensionMark" fill="#000000" id="mark3" stroke="none" style="fill-opacity: 1; pointer-events: visible;" transform="matrix(1,0,0,1,130.2829,329.0302)"><polygon points="-5,-5,0,0,5,-5"/></g><g class="DimensionMark" fill="#000000" id="mark4" stroke="none" style="fill-opacity: 1; pointer-events: visible;" transform="matrix(1,0,0,1,0,164.5051)"><polygon points="5,5,0,0,5,-5"/></g></g><g class="SpaceDimensionsLabel" transform="matrix(1,0,0,1,113.6046,167.6696)"><g class="TextLabel NameLabel" id="NameLabel" style="display: none;"/><g class="TextLabel DimensionMeasureLabel" id="DimensionMeasureLabel" style="display: none;" transform="matrix(1,0,0,1,-114.625,79.5938)"/></g></g></g><g class="Space Bedroom" fill="#ffffff" id="a21fe287-6b75-476d-86e2-6e4fc5362c61" stroke="#ffffff" style="fill-opacity: 1; stroke-opacity: 1; stroke-width: 1;"><polygon points="872.67,385.27 960.75,385.27 960.75,715.91 727.69,715.94 727.69,385.27 783.79,385.27 783.79,383.01 872.67,383.01 "/><g class="Dimension" transform="matrix(1,0,0,1,727.6932,383.0116)"><g class="Visual" style="display: none;" transform="matrix(1,0,0,1,0,0)"><g class="DimensionMark" fill="#000000" id="mark1" stroke="none" style="fill-opacity: 1; pointer-events: visible;" transform="matrix(1,0,0,1,116.5265,0)"><polygon points="-5,5,0,0,5,5"/></g><g class="DimensionMark" fill="#000000" id="mark2" stroke="none" style="fill-opacity: 1; pointer-events: visible;" transform="matrix(1,0,0,1,233.053,166.4646)"><polygon points="-5,-5,0,0,-5,5"/></g><g class="DimensionMark" fill="#000000" id="mark3" stroke="none" style="fill-opacity: 1; pointer-events: visible;" transform="matrix(1,0,0,1,116.5265,332.9135)"><polygon points="-5,-5,0,0,5,-5"/></g><g class="DimensionMark" fill="#000000" id="mark4" stroke="none" style="fill-opacity: 1; pointer-events: visible;" transform="matrix(1,0,0,1,0,166.4646)"><polygon points="5,5,0,0,5,-5"/></g></g><g class="SpaceDimensionsLabel" transform="matrix(1,0,0,1,90.4655,176.2495)"><g class="TextLabel NameLabel" id="NameLabel" style="display: none;"/><g class="TextLabel DimensionMeasureLabel" id="DimensionMeasureLabel" style="display: none;" transform="matrix(1,0,0,1,-113.7031,79.5938)"/></g></g></g><g class="Space Bedroom" fill="#ffffff" id="97714a8d-7717-4f35-a4dc-013e983689f8" stroke="#ffffff" style="fill-opacity: 1; stroke-opacity: 1; stroke-width: 1;"><polygon points="960.75,374.27 872.67,374.27 872.67,383.01 783.79,383.01 783.79,374.27 727.69,374.27 727.69,71.12 960.75,71.12 "/><g class="Dimension" transform="matrix(1,0,0,1,727.6932,71.1215)"><g class="Visual" style="display: none;" transform="matrix(1,0,0,1,0,0)"><g class="DimensionMark" fill="#000000" id="mark1" stroke="none" style="fill-opacity: 1; pointer-events: visible;" transform="matrix(1,0,0,1,116.5265,0)"><polygon points="-5,5,0,0,5,5"/></g><g class="DimensionMark" fill="#000000" id="mark2" stroke="none" style="fill-opacity: 1; pointer-events: visible;" transform="matrix(1,0,0,1,233.053,155.945)"><polygon points="-5,-5,0,0,-5,5"/></g><g class="DimensionMark" fill="#000000" id="mark3" stroke="none" style="fill-opacity: 1; pointer-events: visible;" transform="matrix(1,0,0,1,116.5265,311.8901)"><polygon points="-5,-5,0,0,5,-5"/></g><g class="DimensionMark" fill="#000000" id="mark4" stroke="none" style="fill-opacity: 1; pointer-events: visible;" transform="matrix(1,0,0,1,0,155.945)"><polygon points="5,5,0,0,5,-5"/></g></g><g class="SpaceDimensionsLabel" transform="matrix(1,0,0,1,89.3797,156.7039)"><g class="TextLabel NameLabel" id="NameLabel" style="display: none;"/><g class="TextLabel DimensionMeasureLabel" id="DimensionMeasureLabel" style="display: none;" transform="matrix(1,0,0,1,-113.7031,79.5938)"/></g></g></g><g class="Space Entry Lobby" fill="#ffffff" id="079d8e50-9197-4cee-9604-e6b8e87ffd57" stroke="#ffffff" style="fill-opacity: 1; stroke-opacity: 1; stroke-width: 1;"><polygon points="716.69,715.94 508.19,715.97 508.19,266.52 716.69,266.52 "/><g class="Dimension" transform="matrix(1,0,0,1,508.1899,266.5217)"><g class="Visual" style="display: none;" transform="matrix(1,0,0,1,0,0)"><g class="DimensionMark" fill="#000000" id="mark1" stroke="none" style="fill-opacity: 1; pointer-events: visible;" transform="matrix(1,0,0,1,104.2516,0)"><polygon points="-5,5,0,0,5,5"/></g><g class="DimensionMark" fill="#000000" id="mark2" stroke="none" style="fill-opacity: 1; pointer-events: visible;" transform="matrix(1,0,0,1,208.5033,224.7242)"><polygon points="-5,-5,0,0,-5,5"/></g><g class="DimensionMark" fill="#000000" id="mark3" stroke="none" style="fill-opacity: 1; pointer-events: visible;" transform="matrix(1,0,0,1,104.2516,449.4337)"><polygon points="-5,-5,0,0,5,-5"/></g><g class="DimensionMark" fill="#000000" id="mark4" stroke="none" style="fill-opacity: 1; pointer-events: visible;" transform="matrix(1,0,0,1,0,224.7242)"><polygon points="5,5,0,0,5,-5"/></g></g><g class="SpaceDimensionsLabel" transform="matrix(1,0,0,1,92.3071,213.9407)"><g class="TextLabel NameLabel" id="NameLabel" style="display: none;"/><g class="TextLabel DimensionMeasureLabel" id="DimensionMeasureLabel" style="display: none;" transform="matrix(1,0,0,1,-119.0234,79.5938)"/></g></g></g><g class="Space Bath Shower" fill="#ffffff" id="2eba28ed-0cea-49e8-9759-2222ecc5fde4" stroke="#ffffff" style="fill-opacity: 1; stroke-opacity: 1; stroke-width: 1;"><polygon points="623.16,255.52 508.19,255.52 508.19,190.76 528.78,190.76 528.78,71.12 623.16,71.12 "/><g class="Dimension" transform="matrix(1,0,0,1,528.7836,71.1215)"><g class="Visual" style="display: none;" transform="matrix(1,0,0,1,0,0)"><g class="DimensionMark" fill="#000000" id="mark1" stroke="none" style="fill-opacity: 1; pointer-events: visible;" transform="matrix(1,0,0,1,36.8934,0)"><polygon points="-5,5,0,0,5,5"/></g><g class="DimensionMark" fill="#000000" id="mark2" stroke="none" style="fill-opacity: 1; pointer-events: visible;" transform="matrix(1,0,0,1,94.3805,92.2001)"><polygon points="-5,-5,0,0,-5,5"/></g><g class="DimensionMark" fill="#000000" id="mark3" stroke="none" style="fill-opacity: 1; pointer-events: visible;" transform="matrix(1,0,0,1,36.8934,184.4002)"><polygon points="-5,-5,0,0,5,-5"/></g><g class="DimensionMark" fill="#000000" id="mark4" stroke="none" style="fill-opacity: 1; pointer-events: visible;" transform="matrix(1,0,0,1,0,92.2001)"><polygon points="5,5,0,0,5,-5"/></g></g><g class="SpaceDimensionsLabel" transform="matrix(1,0,0,1,38.2747,108.6744)"><g class="TextLabel NameLabel" id="NameLabel" style="display: none;"/><g class="TextLabel DimensionMeasureLabel" id="DimensionMeasureLabel" style="display: none;" transform="matrix(1,0,0,1,-117.6641,79.5938)"/></g></g></g><g class="Space Closet WalkIn" fill="#ffffff" id="c1ac47af-6452-40ee-9653-23e7b17a2507" stroke="#ffffff" style="fill-opacity: 1; stroke-opacity: 1; stroke-width: 1;"><polygon points="716.69,71.12 716.69,255.52 634.16,255.52 634.16,71.12 "/><g class="Dimension" transform="matrix(1,0,0,1,634.1641,71.1215)"><g class="Visual" style="display: none;" transform="matrix(1,0,0,1,0,0)"><g class="DimensionMark" fill="#000000" id="mark1" stroke="none" style="fill-opacity: 1; pointer-events: visible;" transform="matrix(1,0,0,1,41.2645,0)"><polygon points="-5,5,0,0,5,5"/></g><g class="DimensionMark" fill="#000000" id="mark2" stroke="none" style="fill-opacity: 1; pointer-events: visible;" transform="matrix(1,0,0,1,82.529,92.2001)"><polygon points="-5,-5,0,0,-5,5"/></g><g class="DimensionMark" fill="#000000" id="mark3" stroke="none" style="fill-opacity: 1; pointer-events: visible;" transform="matrix(1,0,0,1,41.2645,184.4002)"><polygon points="-5,-5,0,0,5,-5"/></g><g class="DimensionMark" fill="#000000" id="mark4" stroke="none" style="fill-opacity: 1; pointer-events: visible;" transform="matrix(1,0,0,1,0,92.2001)"><polygon points="5,5,0,0,5,-5"/></g></g><g class="SpaceDimensionsLabel" transform="matrix(1,0,0,1,22.8047,99.8012)"><g class="TextLabel NameLabel" id="NameLabel" style="display: none;"/><g class="TextLabel DimensionMeasureLabel" id="DimensionMeasureLabel" style="display: none;" transform="matrix(1,0,0,1,-116.3359,79.5938)"/></g></g></g><g class="Space UserDefined" fill="#ffffff" id="12c81c87-56aa-48e8-92f9-7c2098e469a4" stroke="#ffffff" style="fill-opacity: 1; stroke-opacity: 1; stroke-width: 1;"><polygon points="113.45,388.15 219.16,388.15 219.18,718.01 111.21,718.01 111.21,387.37 113.45,388.15 "/><g class="Dimension" transform="matrix(1,0,0,1,111.212,388.1469)"><g class="Visual" style="display: none;" transform="matrix(1,0,0,1,0,0)"><g class="DimensionMark" fill="#000000" id="mark1" stroke="none" style="fill-opacity: 1; pointer-events: visible;" transform="matrix(1,0,0,1,53.9827,0)"><polygon points="-5,5,0,0,5,5"/></g><g class="DimensionMark" fill="#000000" id="mark2" stroke="none" style="fill-opacity: 1; pointer-events: visible;" transform="matrix(1,0,0,1,107.9576,164.545)"><polygon points="-5,-5,0,0,-5,5"/></g><g class="DimensionMark" fill="#000000" id="mark3" stroke="none" style="fill-opacity: 1; pointer-events: visible;" transform="matrix(1,0,0,1,53.9827,329.8622)"><polygon points="-5,-5,0,0,5,-5"/></g><g class="DimensionMark" fill="#000000" id="mark4" stroke="none" style="fill-opacity: 1; pointer-events: visible;" transform="matrix(1,0,0,1,0,164.545)"><polygon points="5,5,0,0,5,-5"/></g></g><g class="SpaceDimensionsLabel" transform="matrix(0,-1,1,0,36.2121,285.6267)"><g class="TextLabel NameLabel" id="NameLabel" style="display: none;"/><g class="TextLabel DimensionMeasureLabel" id="DimensionMeasureLabel" style="display: none;" transform="matrix(1,0,0,1,-19.5234,79.5938)"/></g></g></g><g class="Wall External" fill="#000000" id="Wall" stroke="#000000" style="fill-opacity: 1; stroke-opacity: 1; stroke-width: 1;"><polygon points="231.17,71.12 960.75,71.12 973.75,56.12 218.15,56.12 "/></g><g class="Wall External" fill="#000000" id="Wall" stroke="#000000" style="fill-opacity: 1; stroke-opacity: 1; stroke-width: 1;"><polygon points="960.75,71.12 960.75,715.91 973.75,728.91 973.75,56.12 "/><g class="Window Regular" fill="#f0f0ff" id="Window" stroke="#000000" style="fill-opacity: 1; stroke-width: 1; stroke-opacity: 1;"><polygon points="960.75,501.76 960.75,622.67 973.75,622.67 973.75,501.76 "/><g class="Glass" id="Glass"><polygon points="960.75,501.76 960.75,622.67 973.75,622.67 973.75,501.76 "/></g><g class="Panel" id="Panel"><line x1="967.25" x2="967.25" y1="509.260009765625" y2="615.1699829101562"/><line x1="960.75" x2="973.75" y1="509.260009765625" y2="509.260009765625"/><line x1="960.75" x2="973.75" y1="615.1699829101562" y2="615.1699829101562"/></g></g><g class="Window Regular" fill="#f0f0ff" id="Window" stroke="#000000" style="fill-opacity: 1; stroke-width: 1; stroke-opacity: 1;"><polygon points="960.75,139.77 960.75,276.16 973.75,276.16 973.75,139.77 "/><g class="Glass" id="Glass"><polygon points="960.75,139.77 960.75,276.16 973.75,276.16 973.75,139.77 "/></g><g class="Panel" id="Panel"><line x1="967.25" x2="967.25" y1="147.27000427246094" y2="268.6600036621094"/><line x1="960.75" x2="973.75" y1="147.27000427246094" y2="147.27000427246094"/><line x1="960.75" x2="973.75" y1="268.6600036621094" y2="268.6600036621094"/></g></g></g><g class="Wall External" fill="#000000" id="Wall" stroke="#000000" style="fill-opacity: 1; stroke-opacity: 1; stroke-width: 1;"><polygon points="960.75,715.91 219.24,716.01 219.24,729.01 973.75,728.91 "/><g class="Door Swing Beside" fill="#ffffff" id="Door" stroke="#000000" style="fill-opacity: 1; stroke-width: 1; stroke-opacity: 1;"><polygon points="682.90,715.91 622.90,715.91 622.90,728.91 682.90,728.91 "/><g class="Panel Right Positive" fill="none" id="Panel" style=""><g class="PanelArea" fill="none" id="PanelArea" stroke="none" style=""><polygon points="682.90,715.91 622.90,715.91 622.90,728.91 682.90,728.91 "/></g><path d="M682.90,728.91 q0.00,60.00 -60.00,60.00 l0.00,-60.00Z"/></g></g></g><g class="Wall" fill="#000000" id="Wall" stroke="#000000" style="fill-opacity: 1; stroke-opacity: 1; stroke-width: 1;"><polygon points="508.19,715.97 508.19,71.12 498.04,71.12 498.04,715.97 "/><g class="Door Swing Beside" fill="#ffffff" id="Door" stroke="#000000" style="fill-opacity: 1; stroke-width: 1; stroke-opacity: 1;"><polygon points="508.19,486.16 508.19,425.50 498.04,425.50 498.04,486.16 "/><g class="Panel Right Positive" fill="none" id="Panel" style=""><g class="PanelArea" fill="none" id="PanelArea" stroke="none" style=""><polygon points="508.19,486.16 508.19,425.50 498.04,425.50 498.04,486.16 "/></g><path d="M498.04,486.16 q-60.66,0.00 -60.66,-60.66 l60.66,0.00Z"/></g></g><g class="Door Swing Beside" fill="#ffffff" id="Door" stroke="#000000" style="fill-opacity: 1; stroke-width: 1; stroke-opacity: 1;"><polygon points="508.19,368.37 508.19,313.88 498.04,313.88 498.04,368.37 "/><g class="Panel Right Positive" fill="none" id="Panel" style=""><g class="PanelArea" fill="none" id="PanelArea" stroke="none" style=""><polygon points="508.19,368.37 508.19,313.88 498.04,313.88 498.04,368.37 "/></g><path d="M498.04,368.37 q-54.49,0.00 -54.49,-54.49 l54.49,0.00Z"/></g></g></g><g class="Wall" fill="#000000" id="Wall" stroke="#000000" style="fill-opacity: 1; stroke-opacity: 1; stroke-width: 1;"><polygon points="504.54,386.95 223.14,386.94 223.14,376.80 504.54,376.81 "/><g class="Door None Beside" fill="#ffffff" id="Door" stroke="#000000" style="fill-opacity: 1; stroke-width: 1; stroke-opacity: 1;"><polygon points="362.50,386.95 267.45,386.95 267.45,376.80 362.50,376.81 "/></g></g><g class="Wall" fill="#000000" id="Wall" stroke="#000000" style="fill-opacity: 1; stroke-opacity: 1; stroke-width: 1;"><polygon points="727.69,715.94 727.69,71.12 716.69,71.12 716.69,715.94 "/><g class="Door Swing Beside" fill="#ffffff" id="Door" stroke="#000000" style="fill-opacity: 1; stroke-width: 1; stroke-opacity: 1;"><polygon points="727.69,478.64 727.69,425.46 716.69,425.46 716.69,478.64 "/><g class="Panel Left Negative" fill="none" id="Panel" style=""><g class="PanelArea" fill="none" id="PanelArea" stroke="none" style=""><polygon points="727.69,478.64 727.69,425.46 716.69,425.46 716.69,478.64 "/></g><path d="M727.69,478.64 q53.18,0.00 53.18,-53.18 l-53.18,0.00Z"/></g></g><g class="Door Swing Beside" fill="#ffffff" id="Door" stroke="#000000" style="fill-opacity: 1; stroke-width: 1; stroke-opacity: 1;"><polygon points="727.69,362.21 727.69,310.01 716.69,310.01 716.69,362.21 "/><g class="Panel Right Negative" fill="none" id="Panel" style=""><g class="PanelArea" fill="none" id="PanelArea" stroke="none" style=""><polygon points="727.69,362.21 727.69,310.01 716.69,310.01 716.69,362.21 "/></g><path d="M727.69,310.01 q52.20,0.00 52.20,52.20 l-52.20,0.00Z"/></g></g></g><g class="Wall" fill="#000000" id="Wall" stroke="#000000" style="fill-opacity: 1; stroke-opacity: 1; stroke-width: 1;"><polygon points="508.19,266.52 716.69,266.52 716.69,255.52 508.19,255.52 "/><g class="Door Swing Beside" fill="#ffffff" id="Door" stroke="#000000" style="fill-opacity: 1; stroke-width: 1; stroke-opacity: 1;"><polygon points="649.51,266.52 698.52,266.52 698.52,255.52 649.51,255.52 "/><g class="Panel Right Negative" fill="none" id="Panel" style=""><g class="PanelArea" fill="none" id="PanelArea" stroke="none" style=""><polygon points="649.51,266.52 698.52,266.52 698.52,255.52 649.51,255.52 "/></g><path d="M698.52,266.52 q0.00,49.01 -49.01,49.01 l0.00,-49.01Z"/></g></g><g class="Door Swing Beside" fill="#ffffff" id="Door" stroke="#000000" style="fill-opacity: 1; stroke-width: 1; stroke-opacity: 1;"><polygon points="543.32,266.52 592.71,266.52 592.71,255.52 543.32,255.52 "/><g class="Panel Left Negative" fill="none" id="Panel" style=""><g class="PanelArea" fill="none" id="PanelArea" stroke="none" style=""><polygon points="543.32,266.52 592.71,266.52 592.71,255.52 543.32,255.52 "/></g><path d="M543.32,266.52 q0.00,49.39 49.39,49.39 l0.00,-49.39Z"/></g></g></g><g class="Wall" fill="#000000" id="Wall" stroke="#000000" style="fill-opacity: 1; stroke-opacity: 1; stroke-width: 1;"><polygon points="634.16,255.52 634.16,71.12 623.16,71.12 623.16,255.52 "/></g><g class="Wall" fill="#000000" id="Wall" stroke="#000000" style="fill-opacity: 1; stroke-opacity: 1; stroke-width: 1;"><polygon points="508.19,190.76 528.78,190.76 528.78,70.34 508.19,70.34 "/></g><g class="Wall" fill="#000000" id="Wall" stroke="#000000" style="fill-opacity: 1; stroke-opacity: 1; stroke-width: 1;"><polygon points="223.14,377.15 102.49,377.15 113.45,388.15 223.14,388.15 "/></g><g class="Wall" fill="#000000" id="Wall" stroke="#000000" style="fill-opacity: 1; stroke-opacity: 1; stroke-width: 1;"><polygon points="102.49,377.15 101.36,729.69 112.40,718.63 113.45,388.15 "/><g class="Window Regular" fill="#f0f0ff" id="Window" stroke="#000000" style="fill-opacity: 1; stroke-width: 1; stroke-opacity: 1;"><polygon points="102.45,391.13 101.40,716.76 112.40,716.79 113.45,391.17 "/><g class="Glass" id="Glass"><polygon points="102.45,391.13 101.40,716.76 112.40,716.79 113.45,391.17 "/></g><g class="Panel" id="Panel"><line x1="107.92581329007108" x2="106.92418518405002" y1="398.64997016521727" y2="709.2800530281421"/><line x1="102.42581329007108" x2="113.42581329007108" y1="398.62996589275633" y2="398.6699744376782"/><line x1="101.42418518405002" x2="112.42418518405002" y1="709.2600487556812" y2="709.2900170173999"/></g></g></g><g class="Wall External" fill="#000000" id="Wall" stroke="#000000" style="fill-opacity: 1; stroke-opacity: 1; stroke-width: 1;"><polygon points="232.24,715.99 231.17,71.12 218.15,56.12 219.24,716.01 "/><g class="Door Swing Beside" fill="#ffffff" id="Door" stroke="#000000" style="fill-opacity: 1; stroke-width: 1; stroke-opacity: 1;"><polygon points="231.88,501.15 231.78,437.97 218.78,437.99 218.88,501.17 "/><g class="Panel Right Positive" fill="none" id="Panel" style=""><g class="PanelArea" fill="none" id="PanelArea" stroke="none" style=""><polygon points="231.88,501.15 231.78,437.97 218.78,437.99 218.88,501.17 "/></g><path d="M218.88,501.17 q-63.18,0.10 -63.28,-63.08 l63.18,-0.10Z"/></g></g><g class="Window Regular" fill="#f0f0ff" id="Window" stroke="#000000" style="fill-opacity: 1; stroke-width: 1; stroke-opacity: 1;"><polygon points="231.58,316.71 231.35,178.84 218.35,178.86 218.58,316.73 "/><g class="Glass" id="Glass"><polygon points="231.58,316.71 231.35,178.84 218.35,178.86 218.58,316.73 "/></g><g class="Panel" id="Panel"><line x1="225.06749029397324" x2="224.86251764059708" y1="309.2200116566144" y2="186.3499956676044"/><line x1="231.56749029397324" x2="218.56749029397324" y1="309.2100018909894" y2="309.2300214222394"/><line x1="231.36251764059708" x2="218.36251764059708" y1="186.33998590197936" y2="186.3599901744403"/></g></g><g class="Window Regular" fill="#f0f0ff" id="Window" stroke="#000000" style="fill-opacity: 1; stroke-width: 1; stroke-opacity: 1;"><polygon points="232.15,663.20 231.89,506.18 218.89,506.21 219.15,663.22 "/><g class="Glass" id="Glass"><polygon points="232.15,663.20 231.89,506.18 218.89,506.21 219.15,663.22 "/></g><g class="Panel" id="Panel"><line x1="225.63757537727895" x2="225.40241790885386" y1="655.7100017363931" y2="513.6899616425131"/><line x1="232.13757537727895" x2="219.13757537727895" y1="655.7000224883462" y2="655.71998098444"/><line x1="231.90241790885386" x2="218.90241790885386" y1="513.6799823944663" y2="513.7099811737631"/></g></g></g><g class="Wall" fill="#000000" id="Wall" stroke="#000000" style="fill-opacity: 1; stroke-opacity: 1; stroke-width: 1;"><polygon points="101.36,729.69 219.24,729.01 219.18,718.01 112.40,718.63 "/></g><g class="Wall" fill="#000000" id="Wall" stroke="#000000" style="fill-opacity: 1; stroke-opacity: 1; stroke-width: 1;"><polygon points="960.75,374.27 872.67,374.27 872.67,385.27 960.75,385.27 "/></g><g class="Wall" fill="#000000" id="Wall" stroke="#000000" style="fill-opacity: 1; stroke-opacity: 1; stroke-width: 1;"><polygon points="783.79,374.27 727.69,374.27 727.69,385.27 783.79,385.27 "/></g><g class="FixedFurnitureSet" id="FixedFurnitureSet" transform="matrix(0,-1,1,0,508.5617,708.7828)"><g class="FixedFurniture CoatCloset" fill="#ffffff" stroke="#000000" style="fill-opacity: 1; stroke-opacity: 1;" transform="matrix(1,0,0,1,0,0)">
<g class="BoundaryPolygon">
<polygon points="0.00,0.00 103.67,0.00 103.67,60.00 0.00,60.00 "/>
</g>

<g class="Direction" fill-opacity="0.9" style="display: none;">
<polygon fill="#444444" points="54.44,54.70 54.44,44.08 51.44,44.08 51.44,54.70 47.63,54.70 52.94,60.00 58.24,54.70 54.44,54.70 "/>
</g>
<g class="Name" fill-opacity="0.9" style="display: none;">

</g>
<desc>Width:60 Height:200 Depth:60 Elevation:0</desc>
</g><g class="FixedFurniture CoatCloset" fill="#ffffff" stroke="#000000" style="fill-opacity: 1; stroke-opacity: 1;" transform="matrix(1,0,0,1,103.6746,0)">
<g class="BoundaryPolygon">
<polygon points="0.00,0.00 103.67,0.00 103.67,60.00 0.00,60.00 "/>
</g>

<g class="Direction" fill-opacity="0.9" style="display: none;">
<polygon fill="#444444" points="54.44,54.70 54.44,44.08 51.44,44.08 51.44,54.70 47.63,54.70 52.94,60.00 58.24,54.70 54.44,54.70 "/>
</g>
<g class="Name" fill-opacity="0.9" style="display: none;">

</g>
<desc>Width:60 Height:200 Depth:60 Elevation:0</desc>
</g></g><g class="FixedFurnitureSet" id="FixedFurnitureSet" transform="matrix(0,-1,1,0,529.0023,190.2525)"><g class="FixedFurniture BaseCabinet" fill="#ffffff" stroke="#000000" style="fill-opacity: 1; stroke-opacity: 1;" transform="matrix(1,0,0,1,0,0)">
<g class="BoundaryPolygon">
<polygon points="0.00,0.00 40.51,0.00 40.51,26.95 0.00,26.95 "/>
</g>
<g class="Direction" fill-opacity="0.9" style="display: none;">
<polygon fill="#444444" points="21.61,24.79 21.61,14.17 18.60,14.17 18.60,24.79 14.80,24.79 20.10,29.59 25.40,24.79 21.61,24.79 "/>
</g>
<g class="Name" fill-opacity="0.9" style="display: none;">

</g>
<desc>Width:60 Height:5 Depth:60 Elevation:105</desc>
</g><g class="FixedFurniture Sink" fill="#ffffff" stroke="#000000" style="fill-opacity: 1; stroke-opacity: 1;" transform="matrix(1,0,0,1,0,0)">
<g class="BoundaryPolygon" fill="none" stroke="none">
<polygon points="0.00,0.00 40.51,0.00 40.51,26.95 0.00,26.95 "/>
</g>
<g class="InnerPolygon">
<polygon points="3.38,9.70 37.13,9.70 37.13,24.57 3.38,24.57 "/>
</g>
<g class="OuterDrain" stroke-width="0.8">
<circle cx="20.253954773916103" cy="14.461172261153528" r="3.5"/>
</g>
<g class="InnerDrain" stroke-width="0.8">
<circle cx="20.253954773916103" cy="14.461172261153528" r="2"/>
</g>
<g class="Faucet">
<polygon points="18.23,2.25 24.23,2.25 24.23,16.25 18.23,16.25 "/>
</g>
<g class="Direction" fill-opacity="0.9" style="display: none;">
<polygon fill="#444444" points="21.61,24.79 21.61,14.17 18.60,14.17 18.60,24.79 14.80,24.79 20.10,29.59 25.40,24.79 21.61,24.79 "/>
</g>
<g class="Name" fill-opacity="0.9" style="display: none;">

</g>
<desc>Width:60 Height:90 Depth:60 Elevation:0</desc>
</g></g><g class="FixedFurniture Toilet" fill="#ffffff" stroke="#000000" style="fill-opacity: 1; stroke-opacity: 1;" transform="matrix(0,-0.7315,0.7918,0,508.19,237.2459)">
<g class="BoundaryPolygon" fill="none" stroke="none">
<polygon points="0,0 41,0 41,71 0,71"/>
</g>
<g class="InnerPolygon">
<rect height="17.98" width="39.989" x="0.502" y="0.5"/>
<path d="M40.491,44.237S41.619,70.5,20.907,70.5C-.523,70.5.6,44.237.6,44.237L.5,18.48H40.491Z"/>
<rect height="3.03" width="6.357" x="17.318" y="7.975"/>
</g>
<desc>Width:41 Height:85 Depth:71 Elevation:0</desc>
</g><g class="FixedFurniture Shower" fill="#ffffff" stroke="#000000" style="fill-opacity: 1; stroke-opacity: 1;" transform="matrix(0,-1,1,0,528.7836,109.8496)">
<g class="BoundaryPolygon" fill="none" stroke="none">
<polygon points="0,0 32,0 32,19 0,19"/>
</g>
<g class="InnerPolygon">
<rect height="6.1" width="11.2" x="3.7" y="0.5"/>
<rect height="6.1" width="11.2" x="17.6" y="0.5"/>
<rect height="6.1" width="3.4" x="28.7" y="0.5"/>
<rect height="6.1" width="3.2" x="0.5" y="0.5"/>
<path d="M14.9,8.5c0,1.5-0.4,3.3-1.6,5    c-0.4,0.6-1,1.1-1.1,1.7c-0.2,1.1,0.3,2.8,2.5,3.2c0.5,0.1,1.3,0.1,1.6,0.1h-0.1c0.3,0,1.1,0,1.6-0.1c2.2-0.4,2.7-2.1,2.5-3.2    c-0.1-0.6-0.7-1.1-1.1-1.7c-1.2-1.7-1.6-3.5-1.6-5"/>
<path d="M12.2,15.3c0.1,0.2,1.6,1.9,4.2,1.9 c2.4-0.1,3.7-1.7,3.9-1.9"/>
<path d="M14.9,0.5h2.7v8c-0.9,0-1.8,0-2.7,0l0,0 C14.9,5.9,14.9,3.2,14.9,0.5z"/>
</g>
<g class="Indicator">
<path d="M3.7,3.6C5,3.1,5.2,3,5.2,3 c0,1.1,0,0,0,1.1C5.2,4.1,5.1,4.1,3.7,3.6"/>
<path d="M28.7,3.6 C27.4,3.1,27.2,3,27.2,3c0,1.1,0,0,0,1.1C27.2,4.1,27.3,4.1,28.7,3.6"/>
</g>
<desc>Width:32 Height:97 Depth:19 Elevation:135</desc>
</g><g class="FixedFurniture ShowerScreen" fill="#ffffff" stroke="#000000" style="fill-opacity: 1; stroke-opacity: 1;" transform="matrix(0,-1,0.4018,0,528.7836,134.7527)">
<g class="BoundaryPolygon">
<polygon points="0,0 2.5,0 2.5,60 0,60"/>
</g>
<g class="InnerPolygon" stroke-linejoin="round">
<rect height="60" width="2.5"/>
</g>
<desc>Width:2.5 Height:180 Depth:60 Elevation:135</desc>
</g><g class="FixedFurniture ShowerScreen" fill="#ffffff" stroke="#000000" style="fill-opacity: 1; stroke-opacity: 1;" transform="matrix(1,0,0,0.4819,584.3486,71.1215)">
<g class="BoundaryPolygon">
<polygon points="0,0 2.5,0 2.5,60 0,60"/>
</g>
<g class="InnerPolygon" stroke-linejoin="round">
<rect height="60" width="2.5"/>
</g>
<desc>Width:2.5 Height:180 Depth:60 Elevation:135</desc>
</g><g class="FixedFurniture ShowerScreen" fill="#ffffff" stroke="#000000" style="fill-opacity: 1; stroke-opacity: 1;" transform="matrix(0.7071,0.7071,-0.5446,0.5446,585.0808,100.0338)">
<g class="BoundaryPolygon">
<polygon points="0,0 2.5,0 2.5,60 0,60"/>
</g>
<g class="InnerPolygon" stroke-linejoin="round">
<rect height="60" width="2.5"/>
</g>
<desc>Width:2.5 Height:180 Depth:60 Elevation:135</desc>
</g><g class="FixedFurniture ElectricalAppliance" fill="#ffffff" stroke="#000000" style="fill-opacity: 1; stroke-opacity: 1;" transform="matrix(0.6046,0,0,0.4957,586.8881,71.1215)">
<g class="BoundaryPolygon">
<polygon points="0,0 60,0 60,60 0,60"/>
</g>
<g class="electricitySign" fill="none">
<path d="M0,0,30.1,39.8V19.4L59.9,60"/>
</g>
<g class="Direction" fill-opacity="0.9" style="display: none;">
<polygon fill="#444444" points="32.009 55.197 32.009 44.581 29 44.581 29 55.197 25.197 55.197 30.5 60 35.803 55.197 32.009 55.197"/>
</g>
<g class="Name" fill-opacity="0.9" style="display: none;">

</g>
<desc>Width:60 Height:200 Depth:60 Elevation:0</desc>
</g><g class="FixedFurniture Closet" fill="#ffffff" stroke="#000000" style="fill-opacity: 1; stroke-opacity: 1;" transform="matrix(1,0,0,1,829.6104,363.7168)">
<g class="BoundaryPolygon">
<polygon points="0.00,0.00 42.75,0.00 42.75,46.63 0.00,46.63 "/>
</g>
<g class="Direction" fill-opacity="0.9" style="display: none;">
<polygon fill="#444444" points="22.45,42.51 22.45,31.90 19.44,31.90 19.44,42.51 15.64,42.51 20.94,47.81 26.25,42.51 22.45,42.51 "/>
</g>
<g class="Name" fill-opacity="0.9" style="display: none;">

</g>
<desc>Width:60 Height:200 Depth:60 Elevation:0</desc>
</g><g class="FixedFurniture Closet" fill="#ffffff" stroke="#000000" style="fill-opacity: 1; stroke-opacity: 1;" transform="matrix(-1,0,0,-1,829.6104,410.3162)">
<g class="BoundaryPolygon">
<polygon points="0.00,0.00 45.77,0.00 45.77,46.63 0.00,46.63 "/>
</g>
<g class="Direction" fill-opacity="0.9" style="display: none;">
<polygon fill="#444444" points="24.04,42.51 24.04,31.90 21.03,31.90 21.03,42.51 17.23,42.51 22.53,47.81 27.84,42.51 24.04,42.51 "/>
</g>
<g class="Name" fill-opacity="0.9" style="display: none;">

</g>
<desc>Width:60 Height:200 Depth:60 Elevation:0</desc>
</g><g class="FixedFurniture Closet" fill="#ffffff" stroke="#000000" style="fill-opacity: 1; stroke-opacity: 1;" transform="matrix(1,0,0,1,231.2197,71.1201)">
<g class="BoundaryPolygon">
<polygon points="0.00,0.00 38.89,0.00 38.89,60.00 0.00,60.00 "/>
</g>
<g class="Direction" fill-opacity="0.9" style="display: none;">
<polygon fill="#444444" points="20.42,54.70 20.42,44.08 17.41,44.08 17.41,54.70 13.61,54.70 18.91,60.00 24.22,54.70 20.42,54.70 "/>
</g>
<g class="Name" fill-opacity="0.9" style="display: none;">

</g>
<desc>Width:60 Height:200 Depth:60 Elevation:0</desc>
</g><g class="FixedFurniture ElectricalAppliance Refrigerator" fill="#ffffff" stroke="#000000" style="fill-opacity: 1; stroke-opacity: 1;" transform="matrix(1,0,0,1,270.1074,71.12)">
<g class="BoundaryPolygon">
<polygon points="0,0 60,0 60,60 0,60"/>
</g>
<g class="electricitySign" fill="none">
<path d="M0,0,30,37.1v-18L60,56.3"/>
</g>
<g class="Doors">
<rect height="4" width="60" y="56"/>
</g>
<g class="Direction" fill-opacity="0.9" style="display: none;">
<polygon fill="#444444" points="32.009 55.197 32.009 44.581 29 44.581 29 55.197 25.197 55.197 30.5 60 35.803 55.197 32.009 55.197"/>
</g>
<g class="Name" fill-opacity="0.9" style="display: none;">

</g>
<desc>Width:60 Height:170 Depth:60 Elevation:0</desc>
</g><g class="FixedFurniture BaseCabinet" fill="#ffffff" stroke="#000000" style="fill-opacity: 1; stroke-opacity: 1;" transform="matrix(1,0,0,1,330.1074,71.12)"><desc>Width:60 Height:90 Depth:60 Elevation:0</desc><g class="BoundaryPolygon"><polygon points="0.00,0.00 0.00,60.00 110.08,61.13 110.08,214.17 167.93,214.17 167.93,0.00 0.00,0.00 "/></g></g><g class="FixedFurniture ElectricalAppliance IntegratedStove" fill="#ffffff" stroke="#000000" style="fill-opacity: 1; stroke-opacity: 1;" transform="matrix(1,0,0,1,363.7015,71.2606)">
<g class="BoundaryPolygon" fill="none" stroke="none">
<polygon points="0 0 60 0 60 60 0 60"/>
</g>
<g class="InnerPolygon">
<polygon points="2,2 58,2 58,58 2,58"/>
</g>
<g class="OuterCircle">
<circle cx="16" cy="16" r="8"/>
<circle cx="44" cy="16" r="8"/>
<circle cx="16" cy="44" r="8"/>
<circle cx="44" cy="44" r="8"/>
</g>
<g class="Direction" fill-opacity="0.9" style="display: none;">
<polygon fill="#444444" points="32.009 55.197 32.009 44.581 29 44.581 29 55.197 25.197 55.197 30.5 60 35.803 55.197 32.009 55.197"/>
</g>
<g class="Name" fill-opacity="0.9" style="display: none;">

</g>
<desc>Width:60 Height:90 Depth:30 Elevation:0</desc>
</g><g class="FixedFurniture Sink" fill="#ffffff" stroke="#000000" style="fill-opacity: 1; stroke-opacity: 1;" transform="matrix(0,1,-1,0,500.1874,146.7201)">
<g class="BoundaryPolygon" fill="none" stroke="none">
<polygon points="0,0 60,0 60,60 0,60"/>
</g>
<g class="InnerPolygon">
<polygon points="5 9.7 55 9.7 55 54.7 5 54.7"/>
</g>
<g class="OuterDrain" stroke-width="0.8">
<circle cx="30" cy="32.2" r="3.5"/>
</g>
<g class="InnerDrain" stroke-width="0.8">
<circle cx="30" cy="32.2" r="2"/>
</g>
<g class="Faucet">
<polygon points="27 5 33 5 33 19 27 19"/>
</g>
<g class="Direction" fill-opacity="0.9" style="display: none;">
<polygon fill="#444444" points="32.009 55.197 32.009 44.581 29 44.581 29 55.197 25.197 55.197 30.5 60 35.803 55.197 32.009 55.197"/>
</g>
<g class="Name" fill-opacity="0.9" style="display: none;">

</g>
<desc>Width:60 Height:90 Depth:60 Elevation:0</desc>
</g><g class="FixedFurniture ElectricalAppliance Dishwasher" fill="#ffffff" stroke="#000000" style="fill-opacity: 1; stroke-opacity: 1;" transform="matrix(0,1,-0.9545,0,497.9627,206.7201)">
<g class="BoundaryPolygon">
<polygon points="0,0 60,0 60,60 0,60"/>
</g>
<g class="electricitySign" fill="none">
<path d="M0,0,30,38.9v-20L60,60"/>
</g>
<g class="Handle">
<path d="M10,59.6H49.8"/>
</g>
<g class="Direction" fill-opacity="0.9" style="display: none;">
<polygon fill="#444444" points="32.009 55.197 32.009 44.581 29 44.581 29 55.197 25.197 55.197 30.5 60 35.803 55.197 32.009 55.197"/>
</g>
<g class="Name" fill-opacity="0.9" style="display: none;">

</g>
<desc>Width:60 Height:90 Depth:60 Elevation:0</desc>
</g><g class="FixedFurniture Closet" fill="#ffffff" stroke="#000000" style="fill-opacity: 1; stroke-opacity: 1;" transform="matrix(1,0,0,1,727.69,385.4106)">
<g class="BoundaryPolygon">
<polygon points="0.00,0.00 56.15,0.00 56.15,25.06 0.00,25.06 "/>
</g>
<g class="Direction" fill-opacity="0.9" style="display: none;">
<polygon fill="#444444" points="29.49,22.84 29.49,12.23 26.48,12.23 26.48,22.84 22.68,22.84 27.98,28.14 33.28,22.84 29.49,22.84 "/>
</g>
<g class="Name" fill-opacity="0.9" style="display: none;">

</g>
<desc>Width:60 Height:200 Depth:60 Elevation:0</desc>
</g></g></g></g></svg>