<?xml version="1.0" encoding="utf-8"?>
<svg height="1036.459945678711" id="temp" version="1.1" viewBox="0 0 696.5599918365479 1036.459945678711" width="696.5599918365479" xmlns="http://www.w3.org/2000/svg" xmlns:xlink="http://www.w3.org/1999/xlink"><desc>Powered by CubiCasa</desc><defs/><g class="Model v1-1" id="Model"><g class="Floor"><g class="Floorplan Floor-1" id="Floor-1"><g class="Space Outdoor" fill="#ffffff" id="b7107770-0c53-417f-b5d0-3d42acda50de" stroke="#000000" style="fill-opacity: 1; stroke-opacity: 1; stroke-width: 1;"><polygon points="44.38,62.14 587.58,62.14 587.58,208.98 44.38,208.98 44.38,62.14 44.38,62.14 "/><g class="Dimension" transform="matrix(1,0,0,1,44.3796,62.1447)"><g class="Visual" style="display: none;" transform="matrix(1,0,0,1,0,0)"><g class="DimensionMark" fill="#000000" id="mark1" stroke="none" style="fill-opacity: 1; pointer-events: visible;" transform="matrix(1,0,0,1,271.598,0)"><polygon points="-5,5,0,0,5,5"/></g><g class="DimensionMark" fill="#000000" id="mark2" stroke="none" style="fill-opacity: 1; pointer-events: visible;" transform="matrix(1,0,0,1,543.1961,73.4155)"><polygon points="-5,-5,0,0,-5,5"/></g><g class="DimensionMark" fill="#000000" id="mark3" stroke="none" style="fill-opacity: 1; pointer-events: visible;" transform="matrix(1,0,0,1,271.598,146.8309)"><polygon points="-5,-5,0,0,5,-5"/></g><g class="DimensionMark" fill="#000000" id="mark4" stroke="none" style="fill-opacity: 1; pointer-events: visible;" transform="matrix(1,0,0,1,0,73.4155)"><polygon points="5,5,0,0,5,-5"/></g></g><g class="SpaceDimensionsLabel" transform="matrix(1,0,0,1,367.0774,73.4154)"><g class="TextLabel NameLabel" id="NameLabel" style="display: block;"/><g class="TextLabel DimensionMeasureLabel" id="DimensionMeasureLabel" style="display: none;" transform="matrix(1,0,0,1,-56.75,79.8281)"/></g></g></g><g class="Space Entry Lobby" fill="#ffffff" id="3744a8bc-1529-43a4-893b-1c69f189d424" stroke="#ffffff" style="fill-opacity: 1; stroke-opacity: 1; stroke-width: 1;"><polygon points="408.74,857.91 135.61,857.91 135.61,712.15 407.45,712.15 "/><g class="Dimension" transform="matrix(1,0,0,1,135.61,712.1469)"><g class="Visual" style="display: none;" transform="matrix(1,0,0,1,0,0)"><g class="DimensionMark" fill="#000000" id="mark1" stroke="none" style="fill-opacity: 1; pointer-events: visible;" transform="matrix(1,0,0,1,136.5663,0)"><polygon points="-5,5,0,0,5,5"/></g><g class="DimensionMark" fill="#000000" id="mark2" stroke="none" style="fill-opacity: 1; pointer-events: visible;" transform="matrix(1,0,0,1,272.4864,72.8875)"><polygon points="-5,-5,0,0,-5,5"/></g><g class="DimensionMark" fill="#000000" id="mark3" stroke="none" style="fill-opacity: 1; pointer-events: visible;" transform="matrix(1,0,0,1,136.5663,145.7635)"><polygon points="-5,-5,0,0,5,-5"/></g><g class="DimensionMark" fill="#000000" id="mark4" stroke="none" style="fill-opacity: 1; pointer-events: visible;" transform="matrix(1,0,0,1,0,72.8875)"><polygon points="5,5,0,0,5,-5"/></g></g><g class="SpaceDimensionsLabel" transform="matrix(1,0,0,1,90.3179,84.2532)"><g class="TextLabel NameLabel" id="NameLabel" style="display: block;"/><g class="TextLabel DimensionMeasureLabel" id="DimensionMeasureLabel" style="display: none;" transform="matrix(1,0,0,1,-119.2266,79.5625)"/></g></g></g><g class="Space Kitchen Open" fill="#ffffff" id="e099b96d-ad2e-4b66-97e9-2c92f8664aae" stroke="#ffffff" style="fill-opacity: 1; stroke-opacity: 1; stroke-width: 1;"><polygon points="578.58,694.55 515.08,694.55 515.08,857.91 408.74,857.91 407.45,712.15 135.61,712.15 135.61,703.15 50.38,703.15 50.38,241.98 578.58,241.98 "/><g class="Dimension" transform="matrix(1,0,0,1,50.3796,241.9756)"><g class="Visual" style="display: none;" transform="matrix(1,0,0,1,0,0)"><g class="DimensionMark" fill="#0000ff" id="mark1" stroke="none" style="fill-opacity: 1; pointer-events: visible;" transform="matrix(2,0,0,2,358.3555,0)"><polygon points="-5,5,0,0,5,5"/></g><g class="DimensionMark" fill="#0000ff" id="mark2" stroke="none" style="fill-opacity: 1; pointer-events: visible;" transform="matrix(2,0,0,2,528.1961,307.9674)"><polygon points="-5,-5,0,0,-5,5"/></g><g class="DimensionMark" fill="#0000ff" id="mark3" stroke="none" style="fill-opacity: 1; pointer-events: visible;" transform="matrix(2,0,0,2,358.3555,615.099)"><polygon points="-5,-5,0,0,5,-5"/></g><g class="DimensionMark" fill="#0000ff" id="mark4" stroke="none" style="fill-opacity: 1; pointer-events: visible;" transform="matrix(2,0,0,2,0,307.9674)"><polygon points="5,5,0,0,5,-5"/></g></g><g class="SpaceDimensionsLabel" transform="matrix(1,0,0,1,133.4213,271.1599)"><g class="TextLabel NameLabel" id="NameLabel" style="display: block;"/><g class="TextLabel DimensionMeasureLabel" id="DimensionMeasureLabel" style="display: none;" transform="matrix(1,0,0,1,-40.5156,79.7031)"/></g></g></g><g class="Space Bath" fill="#ffffff" id="83dd0177-7752-4e69-8a71-2ed36ee4b749" stroke="#ffffff" style="fill-opacity: 1; stroke-opacity: 1; stroke-width: 1;"><polygon points="674.56,1014.46 408.65,1014.46 408.65,870.91 674.56,870.91 "/><g class="Dimension" transform="matrix(1,0,0,1,408.6493,870.9104)"><g class="Visual" style="display: none;" transform="matrix(1,0,0,1,0,0)"><g class="DimensionMark" fill="#000000" id="mark1" stroke="none" style="fill-opacity: 1; pointer-events: visible;" transform="matrix(1,0,0,1,132.9545,0)"><polygon points="-5,5,0,0,5,5"/></g><g class="DimensionMark" fill="#000000" id="mark2" stroke="none" style="fill-opacity: 1; pointer-events: visible;" transform="matrix(1,0,0,1,265.9089,71.7764)"><polygon points="-5,-5,0,0,-5,5"/></g><g class="DimensionMark" fill="#000000" id="mark3" stroke="none" style="fill-opacity: 1; pointer-events: visible;" transform="matrix(1,0,0,1,132.9545,143.5528)"><polygon points="-5,-5,0,0,5,-5"/></g><g class="DimensionMark" fill="#000000" id="mark4" stroke="none" style="fill-opacity: 1; pointer-events: visible;" transform="matrix(1,0,0,1,0,71.7764)"><polygon points="5,5,0,0,5,-5"/></g></g><g class="SpaceDimensionsLabel" transform="matrix(1,0,0,1,83.9059,71.0183)"><g class="TextLabel NameLabel" id="NameLabel" style="display: block;"/><g class="TextLabel DimensionMeasureLabel" id="DimensionMeasureLabel" style="display: none;" transform="matrix(1,0,0,1,-116.1641,79.5625)"/></g></g></g><g class="Space Closet WalkIn" fill="#ffffff" id="db2fc187-aff5-4794-b498-d12dc996ff7d" stroke="#ffffff" style="fill-opacity: 1; stroke-opacity: 1; stroke-width: 1;"><polygon points="674.56,857.91 528.08,857.91 528.08,707.55 674.56,707.55 "/><g class="Dimension" transform="matrix(1,0,0,1,528.0768,707.5545)"><g class="Visual" style="display: none;" transform="matrix(1,0,0,1,0,0)"><g class="DimensionMark" fill="#000000" id="mark1" stroke="none" style="fill-opacity: 1; pointer-events: visible;" transform="matrix(1,0,0,1,73.2407,0)"><polygon points="-5,5,0,0,5,5"/></g><g class="DimensionMark" fill="#000000" id="mark2" stroke="none" style="fill-opacity: 1; pointer-events: visible;" transform="matrix(1,0,0,1,146.4815,75.178)"><polygon points="-5,-5,0,0,-5,5"/></g><g class="DimensionMark" fill="#000000" id="mark3" stroke="none" style="fill-opacity: 1; pointer-events: visible;" transform="matrix(1,0,0,1,73.2407,150.3559)"><polygon points="-5,-5,0,0,5,-5"/></g><g class="DimensionMark" fill="#000000" id="mark4" stroke="none" style="fill-opacity: 1; pointer-events: visible;" transform="matrix(1,0,0,1,0,75.178)"><polygon points="5,5,0,0,5,-5"/></g></g><g class="SpaceDimensionsLabel" transform="matrix(1,0,0,1,27.755,88.4026)"><g class="TextLabel NameLabel" id="NameLabel" style="display: block;"/><g class="TextLabel DimensionMeasureLabel" id="DimensionMeasureLabel" style="display: none;" transform="matrix(1,0,0,1,-116.3125,79.2656)"/></g></g></g><g class="Wall External" fill="#000000" id="Wall" stroke="#000000" style="fill-opacity: 1; stroke-opacity: 1; stroke-width: 1;"><polygon points="31.38,208.98 31.38,741.15 50.38,703.15 50.38,241.98 "/></g><g class="Wall External" fill="#000000" id="Wall" stroke="#000000" style="fill-opacity: 1; stroke-opacity: 1; stroke-width: 1;"><polygon points="31.38,741.15 110.61,741.15 135.61,703.15 50.38,703.15 "/></g><g class="Wall External" fill="#000000" id="Wall" stroke="#000000" style="fill-opacity: 1; stroke-opacity: 1; stroke-width: 1;"><polygon points="110.61,741.15 110.61,882.91 135.61,857.91 135.61,703.15 "/></g><g class="Wall External" fill="#000000" id="Wall" stroke="#000000" style="fill-opacity: 1; stroke-opacity: 1; stroke-width: 1;"><polygon points="110.61,882.91 389.65,882.91 408.65,857.91 135.61,857.91 "/><g class="Door Swing Beside" fill="#ffffff" id="Door" stroke="#000000" style="fill-opacity: 1; stroke-width: 1; stroke-opacity: 1;"><polygon points="209.62,882.91 300.14,882.91 300.14,857.91 209.62,857.91 "/><g class="Panel Right Negative" fill="none" id="Panel" style=""><g class="PanelArea" fill="none" id="PanelArea" stroke="none" style=""><polygon points="209.62,882.91 300.14,882.91 300.14,857.91 209.62,857.91 "/></g><path d="M300.14,882.91 q0.00,90.52 -90.52,90.52 l0.00,-90.52Z"/></g></g></g><g class="Wall External" fill="#000000" id="Wall" stroke="#000000" style="fill-opacity: 1; stroke-opacity: 1; stroke-width: 1;"><polygon points="389.65,882.91 389.65,1036.46 408.65,1014.46 408.65,857.91 "/></g><g class="Wall External" fill="#000000" id="Wall" stroke="#000000" style="fill-opacity: 1; stroke-opacity: 1; stroke-width: 1;"><polygon points="389.65,1036.46 696.56,1036.46 674.56,1014.46 408.65,1014.46 "/></g><g class="Wall External" fill="#000000" id="Wall" stroke="#000000" style="fill-opacity: 1; stroke-opacity: 1; stroke-width: 1;"><polygon points="696.56,1036.46 696.56,685.55 674.56,707.55 674.56,1014.46 "/></g><g class="Wall External" fill="#000000" id="Wall" stroke="#000000" style="fill-opacity: 1; stroke-opacity: 1; stroke-width: 1;"><polygon points="674.56,707.55 578.58,707.55 600.58,685.55 696.56,685.55 "/></g><g class="Wall External" fill="#000000" id="Wall" stroke="#000000" style="fill-opacity: 1; stroke-opacity: 1; stroke-width: 1;"><polygon points="600.58,685.55 600.58,208.98 578.58,241.98 578.58,707.55 "/></g><g class="Wall External" fill="#000000" id="Wall" stroke="#000000" style="fill-opacity: 1; stroke-opacity: 1; stroke-width: 1;"><polygon points="600.58,208.98 31.38,208.98 50.38,241.98 578.58,241.98 "/><g class="Door Swing Beside" fill="#ffffff" id="Door" stroke="#000000" style="fill-opacity: 1; stroke-width: 1; stroke-opacity: 1;"><polygon points="315.33,208.98 235.14,208.98 235.14,241.98 315.33,241.98 "/><g class="Panel Left Negative" fill="none" id="Panel" style=""><g class="PanelArea" fill="none" id="PanelArea" stroke="none" style=""><polygon points="315.33,208.98 235.14,208.98 235.14,241.98 315.33,241.98 "/></g><path d="M315.33,208.98 q0.00,-80.19 -80.19,-80.19 l0.00,80.19Z"/></g></g><g class="Window Regular" fill="#f0f0ff" id="Window" stroke="#000000" style="fill-opacity: 1; stroke-width: 1; stroke-opacity: 1;"><polygon points="224.20,208.98 151.30,208.98 151.30,241.98 224.20,241.98 "/><g class="Glass" id="Glass"><polygon points="224.20,208.98 151.30,208.98 151.30,241.98 224.20,241.98 "/></g><g class="Panel" id="Panel"><line x1="216.7018598305341" x2="158.80228096281155" y1="225.47564177408157" y2="225.47564177408157"/><line x1="216.7018598305341" x2="216.7018598305341" y1="208.97564177408157" y2="241.97564177408157"/><line x1="158.80228096281155" x2="158.80228096281155" y1="208.97564177408157" y2="241.97564177408157"/></g></g><g class="Window Regular" fill="#f0f0ff" id="Window" stroke="#000000" style="fill-opacity: 1; stroke-width: 1; stroke-opacity: 1;"><polygon points="518.84,208.98 330.51,208.98 330.51,241.98 518.84,241.98 "/><g class="Glass" id="Glass"><polygon points="518.84,208.98 330.51,208.98 330.51,241.98 518.84,241.98 "/></g><g class="Panel" id="Panel"><line x1="511.3376577542459" x2="338.0137456792961" y1="225.4756417740815" y2="225.47564177408154"/><line x1="511.3376577542459" x2="511.3376577542459" y1="208.9756417740815" y2="241.9756417740815"/><line x1="338.0137456792961" x2="338.0137456792961" y1="208.97564177408154" y2="241.97564177408154"/></g></g></g><g class="Railing" fill="#ffffff" id="Railing" stroke="#000000" style="fill-opacity: 1; stroke-opacity: 1; stroke-width: 1;"><polygon points="31.38,208.98 31.38,49.14 44.38,62.14 44.38,208.98 " style="stroke-dasharray: 159.831, 18.3848, 159.831;"/></g><g class="Railing" fill="#ffffff" id="Railing" stroke="#000000" style="fill-opacity: 1; stroke-opacity: 1; stroke-width: 1;"><polygon points="44.38,62.14 587.58,62.14 600.58,49.14 31.38,49.14 " style="stroke-dasharray: 543.196, 18.3848, 569.196, 18.3848;"/></g><g class="Railing" fill="#ffffff" id="Railing" stroke="#000000" style="fill-opacity: 1; stroke-opacity: 1; stroke-width: 1;"><polygon points="600.58,49.14 600.58,208.98 587.58,208.98 587.58,62.14 " style="stroke-dasharray: 319.662, 18.3848;"/></g><g class="Wall" fill="#000000" id="Wall" stroke="#000000" style="fill-opacity: 1; stroke-opacity: 1; stroke-width: 1;"><polygon points="408.65,857.91 674.56,857.91 674.56,870.91 408.65,870.91 "/><g class="Door Swing Beside" fill="#ffffff" id="Door" stroke="#000000" style="fill-opacity: 1; stroke-width: 1; stroke-opacity: 1;"><polygon points="433.18,857.91 511.55,857.91 511.55,870.91 433.18,870.91 "/><g class="Panel Left Negative" fill="none" id="Panel" style=""><g class="PanelArea" fill="none" id="PanelArea" stroke="none" style=""><polygon points="433.18,857.91 511.55,857.91 511.55,870.91 433.18,870.91 "/></g><path d="M433.18,857.91 q0.00,-78.37 78.37,-78.37 l0.00,78.37Z"/></g></g></g><g class="Wall" fill="#000000" id="Wall" stroke="#000000" style="fill-opacity: 1; stroke-opacity: 1; stroke-width: 1;"><polygon points="578.58,707.55 528.08,707.55 515.08,694.55 578.58,694.55 "/></g><g class="Wall" fill="#000000" id="Wall" stroke="#000000" style="fill-opacity: 1; stroke-opacity: 1; stroke-width: 1;"><polygon points="528.08,707.55 528.08,857.91 515.08,857.91 515.08,694.55 "/><g class="Door Swing Beside" fill="#ffffff" id="Door" stroke="#000000" style="fill-opacity: 1; stroke-width: 1; stroke-opacity: 1;"><polygon points="528.08,750.88 528.08,814.06 515.08,814.06 515.08,750.88 "/><g class="Panel Right Positive" fill="none" id="Panel" style=""><g class="PanelArea" fill="none" id="PanelArea" stroke="none" style=""><polygon points="528.08,750.88 528.08,814.06 515.08,814.06 515.08,750.88 "/></g><path d="M515.08,750.88 q-63.18,0.00 -63.18,63.18 l63.18,0.00Z"/></g></g></g><g class="Railing" fill="#ffffff" id="Railing" stroke="#000000" style="fill-opacity: 1; stroke-opacity: 1; stroke-width: 1;"><polygon points="135.61,703.15 407.45,703.15 407.45,712.15 135.61,712.15 " style="stroke-dasharray: 0;"/></g><g class="Railing" fill="#ffffff" id="Railing" stroke="#000000" style="fill-opacity: 1; stroke-opacity: 1; stroke-width: 1;"><polygon points="407.45,802.42 318.69,802.42 309.69,793.42 407.45,793.42 " style="stroke-dasharray: 88.7539, 12.7279, 106.754;"/></g><g class="Railing" fill="#ffffff" id="Railing" stroke="#000000" style="fill-opacity: 1; stroke-opacity: 1; stroke-width: 1;"><polygon points="318.69,802.42 318.69,857.91 309.69,857.91 309.69,793.42 " style="stroke-dasharray: 128.985, 12.7279;"/></g><g class="FixedFurniture Closet" fill="#ffffff" stroke="#000000" style="fill-opacity: 1; stroke-opacity: 1;" transform="matrix(0,-1,1,0,135.61,857.9104)">
<g class="BoundaryPolygon">
<polygon points="0.00,0.00 52.07,0.00 52.07,60.00 0.00,60.00 "/>
</g>
<g class="Direction" fill-opacity="0.9" style="display: none;">
<polygon fill="#444444" points="27.34,54.70 27.34,44.08 24.33,44.08 24.33,54.70 20.53,54.70 25.83,60.00 31.14,54.70 27.34,54.70 "/>
</g>
<g class="Name" fill-opacity="0.9" style="display: none;">

</g>
<desc>Width:60 Height:200 Depth:60 Elevation:0</desc>
</g><g class="FixedFurniture CoatCloset" fill="#ffffff" stroke="#000000" style="fill-opacity: 1; stroke-opacity: 1;" transform="matrix(0,-1,1,0,135.61,805.8434)">
<g class="BoundaryPolygon">
<polygon points="0.00,0.00 93.42,0.00 93.42,60.00 0.00,60.00 "/>
</g>

<g class="Direction" fill-opacity="0.9" style="display: none;">
<polygon fill="#444444" points="47.89,54.52 47.89,43.90 44.88,43.90 44.88,54.52 41.07,54.52 46.38,59.82 51.68,54.52 47.89,54.52 "/>
</g>
<g class="Name" fill-opacity="0.9" style="display: none;">

</g>
<desc>Width:120 Height:200 Depth:60 Elevation:0</desc>
</g><g class="Stairs" fill="#ffffff" id="Stairs" stroke="#000000" style="fill-opacity: 1; stroke-opacity: 1;"><g class="Flight" id="Flight"><polygon points="407.45,712.15 309.69,712.42 309.69,793.42 407.45,793.15 "/><g class="WalkinLine "><path d="M407.45,752.65 L309.69,752.92 " fill="none" stroke="#d3d3d3" style='pointer-events: none; marker-end: url("#Marker2");'/><defs><marker fill="#d3d3d3" id="Marker2" markerHeight="12" markerWidth="12" orient="auto" refX="11" refY="6" stroke="#d3d3d3" style="pointer-events: none;" viewBox="0 0 12 12"><polygon points="0.00,0.00 0.00,12.00 10.00,6.00 0.00,0.00 "/></marker></defs></g><g class="Steps" id="Steps"><line x1="407.44534310821996" x2="407.44534310821996" y1="712.1468981625915" y2="793.1453689941411"/><line x1="374.8607065615195" x2="374.8607065615195" y1="712.237706254472" y2="793.2361770860216"/><line x1="342.2760700148191" x2="342.2760700148191" y1="712.3285143463524" y2="793.3269851779021"/><line x1="309.69143346811865" x2="309.69143346811865" y1="712.4193224382329" y2="793.4177932697826"/></g></g></g><g class="FixedFurniture CoatCloset" fill="#ffffff" stroke="#000000" style="fill-opacity: 1; stroke-opacity: 1;" transform="matrix(0,1,-1,0,674.5582,707.5545)">
<g class="BoundaryPolygon">
<polygon points="0.00,0.00 150.15,0.00 150.15,60.00 0.00,60.00 "/>
</g>

<g class="Direction" fill-opacity="0.9" style="display: none;">
<polygon fill="#444444" points="76.96,54.52 76.96,43.90 73.95,43.90 73.95,54.52 70.15,54.52 75.45,59.82 80.75,54.52 76.96,54.52 "/>
</g>
<g class="Name" fill-opacity="0.9" style="display: none;">

</g>
<desc>Width:120 Height:200 Depth:60 Elevation:0</desc>
</g><g class="FixedFurniture Closet" fill="#ffffff" stroke="#000000" style="fill-opacity: 1; stroke-opacity: 1;" transform="matrix(1,0,0,1,528.0767,707.5545)">
<g class="BoundaryPolygon">
<polygon points="0.00,0.00 86.58,0.00 86.58,34.61 0.00,34.61 "/>
</g>
<g class="Direction" fill-opacity="0.9" style="display: none;">
<polygon fill="#444444" points="45.47,31.55 45.47,20.94 42.46,20.94 42.46,31.55 38.65,31.55 43.96,36.86 49.26,31.55 45.47,31.55 "/>
</g>
<g class="Name" fill-opacity="0.9" style="display: none;">

</g>
<desc>Width:60 Height:200 Depth:60 Elevation:0</desc>
</g><g class="FixedFurniture Closet" fill="#ffffff" stroke="#000000" style="fill-opacity: 1; stroke-opacity: 1;" transform="matrix(-1,0,0,-1,614.5582,857.9105)">
<g class="BoundaryPolygon">
<polygon points="0.00,0.00 86.58,0.00 86.58,27.53 0.00,27.53 "/>
</g>
<g class="Direction" fill-opacity="0.9" style="display: none;">
<polygon fill="#444444" points="45.47,25.10 45.47,14.49 42.46,14.49 42.46,25.10 38.65,25.10 43.96,30.41 49.26,25.10 45.47,25.10 "/>
</g>
<g class="Name" fill-opacity="0.9" style="display: none;">

</g>
<desc>Width:60 Height:200 Depth:60 Elevation:0</desc>
</g><g class="FixedFurniture ElectricalAppliance Refrigerator" fill="#ffffff" stroke="#000000" style="fill-opacity: 1; stroke-opacity: 1;" transform="matrix(0,0.9405,-1,0,578.5757,638.1245)">
<g class="BoundaryPolygon">
<polygon points="0,0 60,0 60,60 0,60"/>
</g>
<g class="electricitySign" fill="none">
<path d="M0,0,30,37.1v-18L60,56.3"/>
</g>
<g class="Doors">
<rect height="4" width="60" y="56"/>
</g>
<g class="Direction" fill-opacity="0.9" style="display: none;">
<polygon fill="#444444" points="32.009 55.197 32.009 44.581 29 44.581 29 55.197 25.197 55.197 30.5 60 35.803 55.197 32.009 55.197"/>
</g>
<g class="Name" fill-opacity="0.9" style="display: none;">

</g>
<desc>Width:60 Height:170 Depth:60 Elevation:0</desc>
</g><g class="FixedFurniture BaseCabinet" fill="#ffffff" stroke="#000000" style="fill-opacity: 1; stroke-opacity: 1;" transform="matrix(1,0,0,1,578.5757,638.1245)"><desc>Width:60 Height:90 Depth:60 Elevation:0</desc><g class="BoundaryPolygon"><polygon points="0.00,0.00 -60.00,0.00 -60.00,-277.79 -50.30,-285.93 -0.28,-285.93 0.00,0.00 "/></g></g><g class="FixedFurniture ElectricalAppliance IntegratedStove" fill="#ffffff" stroke="#000000" style="fill-opacity: 1; stroke-opacity: 1;" transform="matrix(0,1,-1,0,578.5027,527.1597)">
<g class="BoundaryPolygon" fill="none" stroke="none">
<polygon points="0.00,0.00 59.17,0.00 59.17,60.00 0.00,60.00 "/>
</g>
<g class="InnerPolygon">
<polygon points="2.00,2.00 57.19,2.00 57.19,58.00 2.00,58.00 "/>
</g>
<g class="OuterCircle">
<circle cx="15.777472054209529" cy="16" r="8"/>
<circle cx="43.388048149076205" cy="16" r="8"/>
<circle cx="15.777472054209529" cy="44" r="8"/>
<circle cx="43.388048149076205" cy="44" r="8"/>
</g>
<g class="Direction" fill-opacity="0.9" style="display: none;">
<polygon fill="#444444" points="31.56,55.20 31.56,44.58 28.55,44.58 28.55,55.20 24.75,55.20 30.05,60.00 35.36,55.20 31.56,55.20 "/>
</g>
<g class="Name" fill-opacity="0.9" style="display: none;">

</g>
<desc>Width:60 Height:90 Depth:30 Elevation:0</desc>
</g><g class="FixedFurniture DoubleSinkRight" fill="#ffffff" stroke="#000000" style="fill-opacity: 1; stroke-opacity: 1;" transform="matrix(0,1,-1,0,578.5757,425.9859)">
<g class="BoundaryPolygon" fill="none" stroke="none">
<polygon points="0,0 70,0 70,60 0,60 0,0"/>
</g>
<g class="InnerPolygonLeft">
<polygon points="5 9.9 25 9.9 25 54.9 5 54.9"/>
</g>
<g class="InnerPolygonRight">
<polygon points="28 10 65 10 65 55 28 55"/>
</g>
<g class="OuterDrain" stroke-width="0.8">
<circle cx="15" cy="32.5" r="3.5"/>
<circle cx="46" cy="32.5" r="3.5"/>
</g>
<g class="InnerDrain" stroke-width="0.8">
<circle cx="15" cy="32.5" r="2"/>
<circle cx="46" cy="32.5" r="2"/>
</g>
<g class="Faucet">
<polygon points="32 4.9 38 4.9 38 18.9 32 18.9"/>
</g>
<g class="Direction" fill-opacity="0.9" style="display: none;">
<polygon fill="#444444" points="36.509 54.697 36.509 44.081 33.5 44.081 33.5 54.697 29.697 54.697 35 60 40.303 54.697 36.509 54.697"/>
</g>
<g class="Name" fill-opacity="0.9" style="display: none;">

</g>
<desc>Width:70 Height:90 Depth:60 Elevation:0</desc>
</g><g class="FixedFurniture ElectricalAppliance SpaceForAppliance2" fill="#ffffff" stroke="#000000" style="fill-opacity: 1; stroke-opacity: 1;" transform="matrix(0,0.8818,-1,0,578.5756,373.0779)">
<g class="BoundaryPolygon">
<polygon points="0,0 60,0 60,60 0,60"/>
</g>
<g class="electricitySign" fill="none">
<path d="M0,0,30.1,39.8V19.4L59.9,60"/>
</g>
<g class="Direction" fill-opacity="0.9" style="display: none;">
<polygon fill="#444444" points="32.009 55.197 32.009 44.581 29 44.581 29 55.197 25.197 55.197 30.5 60 35.803 55.197 32.009 55.197"/>
</g>
<g class="Name" fill-opacity="0.9" style="display: none;">

</g>
<desc>Width:60 Height:90 Depth:60 Elevation:0</desc>
</g><g class="FixedFurniture Toilet" fill="#ffffff" stroke="#000000" style="fill-opacity: 1; stroke-opacity: 1;" transform="matrix(-1,0,0,-1,455.119,1014.4632)">
<g class="BoundaryPolygon" fill="none" stroke="none">
<polygon points="0,0 41,0 41,71 0,71"/>
</g>
<g class="InnerPolygon">
<rect height="17.98" width="39.989" x="0.502" y="0.5"/>
<path d="M40.491,44.237S41.619,70.5,20.907,70.5C-.523,70.5.6,44.237.6,44.237L.5,18.48H40.491Z"/>
<rect height="3.03" width="6.357" x="17.318" y="7.975"/>
</g>
<desc>Width:41 Height:85 Depth:71 Elevation:0</desc>
</g><g class="FixedFurnitureSet" fill="#ffffff" id="FixedFurnitureSet" stroke="#000000" style="fill-opacity: 0.4; stroke-opacity: 0.4;" transform="matrix(-1,0,0,-1,525.1054,1014.385)"><g class="FixedFurniture BaseCabinet" fill="#ffffff" stroke="#000000" style="fill-opacity: 1; stroke-opacity: 1;" transform="matrix(1,0,0,1,0,0)">
<g class="BoundaryPolygon">
<polygon points="0.00,0.00 60.00,0.00 60.00,47.93 0.00,47.93 "/>
</g>
<g class="Direction" fill-opacity="0.9" style="display: none;">
<polygon fill="#444444" points="32.01,44.09 32.01,33.48 29.00,33.48 29.00,44.09 25.20,44.09 30.50,48.90 35.80,44.09 32.01,44.09 "/>
</g>
<g class="Name" fill-opacity="0.9" style="display: none;">

</g>
<desc>Width:60 Height:5 Depth:60 Elevation:105</desc>
</g><g class="FixedFurniture Sink" fill="#ffffff" stroke="#000000" style="fill-opacity: 1; stroke-opacity: 1;" transform="matrix(1,0,0,1,0,0)">
<g class="BoundaryPolygon" fill="none" stroke="none">
<polygon points="0.00,0.00 60.00,0.00 60.00,47.93 0.00,47.93 "/>
</g>
<g class="InnerPolygon">
<polygon points="5.00,9.70 55.00,9.70 55.00,43.70 5.00,43.70 "/>
</g>
<g class="OuterDrain" stroke-width="0.8">
<circle cx="30" cy="25.72201845785682" r="3.5"/>
</g>
<g class="InnerDrain" stroke-width="0.8">
<circle cx="30" cy="25.72201845785682" r="2"/>
</g>
<g class="Faucet">
<polygon points="27.00,3.99 33.00,3.99 33.00,17.99 27.00,17.99 "/>
</g>
<g class="Direction" fill-opacity="0.9" style="display: none;">
<polygon fill="#444444" points="32.01,44.09 32.01,33.48 29.00,33.48 29.00,44.09 25.20,44.09 30.50,48.90 35.80,44.09 32.01,44.09 "/>
</g>
<g class="Name" fill-opacity="0.9" style="display: none;">

</g>
<desc>Width:60 Height:90 Depth:60 Elevation:0</desc>
</g></g><g class="FixedFurniture ElectricalAppliance SpaceForAppliance2" fill="#ffffff" stroke="#000000" style="fill-opacity: 1; stroke-opacity: 1;" transform="matrix(0,0.8053,-1,0,674.4645,870.9104)">
<g class="BoundaryPolygon">
<polygon points="0,0 60,0 60,60 0,60"/>
</g>
<g class="electricitySign" fill="none">
<path d="M0,0,30.1,39.8V19.4L59.9,60"/>
</g>
<g class="Direction" fill-opacity="0.9" style="display: none;">
<polygon fill="#444444" points="32.009 55.197 32.009 44.581 29 44.581 29 55.197 25.197 55.197 30.5 60 35.803 55.197 32.009 55.197"/>
</g>
<g class="Name" fill-opacity="0.9" style="display: none;">

</g>
<desc>Width:60 Height:90 Depth:60 Elevation:0</desc>
</g><g class="FixedFurniture Shower" fill="#ffffff" stroke="#000000" style="fill-opacity: 1; stroke-opacity: 1;" transform="matrix(-1,0,0,-1,653.0696,1014.4632)">
<g class="BoundaryPolygon" fill="none" stroke="none">
<polygon points="0,0 32,0 32,19 0,19"/>
</g>
<g class="InnerPolygon">
<rect height="6.1" width="11.2" x="3.7" y="0.5"/>
<rect height="6.1" width="11.2" x="17.6" y="0.5"/>
<rect height="6.1" width="3.4" x="28.7" y="0.5"/>
<rect height="6.1" width="3.2" x="0.5" y="0.5"/>
<path d="M14.9,8.5c0,1.5-0.4,3.3-1.6,5    c-0.4,0.6-1,1.1-1.1,1.7c-0.2,1.1,0.3,2.8,2.5,3.2c0.5,0.1,1.3,0.1,1.6,0.1h-0.1c0.3,0,1.1,0,1.6-0.1c2.2-0.4,2.7-2.1,2.5-3.2    c-0.1-0.6-0.7-1.1-1.1-1.7c-1.2-1.7-1.6-3.5-1.6-5"/>
<path d="M12.2,15.3c0.1,0.2,1.6,1.9,4.2,1.9 c2.4-0.1,3.7-1.7,3.9-1.9"/>
<path d="M14.9,0.5h2.7v8c-0.9,0-1.8,0-2.7,0l0,0 C14.9,5.9,14.9,3.2,14.9,0.5z"/>
</g>
<g class="Indicator">
<path d="M3.7,3.6C5,3.1,5.2,3,5.2,3 c0,1.1,0,0,0,1.1C5.2,4.1,5.1,4.1,3.7,3.6"/>
<path d="M28.7,3.6 C27.4,3.1,27.2,3,27.2,3c0,1.1,0,0,0,1.1C27.2,4.1,27.3,4.1,28.7,3.6"/>
</g>
<desc>Width:32 Height:97 Depth:19 Elevation:135</desc>
</g><g class="FixedFurniture ShowerScreen" fill="#ffffff" stroke="#000000" style="fill-opacity: 1; stroke-opacity: 1;" transform="matrix(0,1,-0.8926,0,674.5583,933.6155)">
<g class="BoundaryPolygon">
<polygon points="0,0 2.5,0 2.5,60 0,60"/>
</g>
<g class="InnerPolygon" stroke-linejoin="round">
<rect height="60" width="2.5"/>
</g>
<desc>Width:2.5 Height:180 Depth:60 Elevation:135</desc>
</g><g class="FixedFurniture ShowerScreen" fill="#ffffff" stroke="#000000" style="fill-opacity: 1; stroke-opacity: 1;" transform="matrix(-1,0,0,-0.8926,596.9863,1014.4632)">
<g class="BoundaryPolygon">
<polygon points="0,0 2.5,0 2.5,60 0,60"/>
</g>
<g class="InnerPolygon" stroke-linejoin="round">
<rect height="60" width="2.5"/>
</g>
<desc>Width:2.5 Height:180 Depth:60 Elevation:135</desc>
</g><g class="SelectionControls" fill="#0000ff" stroke="#0000ff" style="display: block;"><g class="rotateControl" style="display: block;"><circle cx="295.76186162094905" cy="450.4636667740815" r="5" style="stroke : none; fill-opacity: 0.5; cursor:crosshair"/></g><g class="ResizeNControl" style="display: none;"><circle cx="0" cy="0" r="5" style="stroke : none; fill-opacity: 0.5"/></g><g class="ResizeNEControl" style="display: none;"><circle cx="0" cy="0" r="5" style="stroke : none; fill-opacity: 0.5"/></g><g class="ResizeEControl" style="display: none;"><circle cx="0" cy="0" r="5" style="stroke : none; fill-opacity: 0.5"/></g><g class="ResizeSEControl" style="display: none;"><circle cx="0" cy="0" r="5" style="stroke : none; fill-opacity: 0.5"/></g><g class="ResizeSControl" style="display: none;"><circle cx="0" cy="0" r="5" style="stroke : none; fill-opacity: 0.5"/></g><g class="ResizeSWControl" style="display: none;"><circle cx="0" cy="0" r="5" style="stroke : none; fill-opacity: 0.5"/></g><g class="ResizeWControl" style="display: none;"><circle cx="0" cy="0" r="5" style="stroke : none; fill-opacity: 0.5"/></g><g class="ResizeNWControl" style="display: none;"><circle cx="0" cy="0" r="5" style="stroke : none; fill-opacity: 0.5"/></g><g class="removeControl" style="display: block;"><polygon points="182.64,480.46 408.88,480.46 408.88,520.14 182.64,520.14 " style="stroke : none; fill-opacity: 0.1"/></g><g class="copyPasteControl" style="display: none;"><polygon style="stroke : none; fill-opacity: 0.1"/></g><g class="translateControl" style="display: block;"><polygon points="182.64,480.46 408.88,480.46 408.88,520.14 182.64,520.14 " style="stroke : none; fill-opacity: 0.1; cursor:move"/></g></g><g class="SelectionControls" fill="#0000ff" stroke="#0000ff" style="display: block;"><polygon fill="none" points="50.38,241.98 578.58,241.98 578.58,857.91 50.38,857.91 " stroke="#0000ff" style=""/><g class="rotateControl" style="display: block;"><circle cx="314.4776770994647" cy="211.97564177408154" r="5" style="stroke : none; fill-opacity: 0.5; cursor:crosshair"/></g><g class="ResizeNControl" style="display: none;"><circle cx="0" cy="0" r="5" style="stroke : none; fill-opacity: 0.5"/></g><g class="ResizeNEControl" style="display: none;"><circle cx="0" cy="0" r="5" style="stroke : none; fill-opacity: 0.5"/></g><g class="ResizeEControl" style="display: none;"><circle cx="0" cy="0" r="5" style="stroke : none; fill-opacity: 0.5"/></g><g class="ResizeSEControl" style="display: none;"><circle cx="0" cy="0" r="5" style="stroke : none; fill-opacity: 0.5"/></g><g class="ResizeSControl" style="display: none;"><circle cx="0" cy="0" r="5" style="stroke : none; fill-opacity: 0.5"/></g><g class="ResizeSWControl" style="display: none;"><circle cx="0" cy="0" r="5" style="stroke : none; fill-opacity: 0.5"/></g><g class="ResizeWControl" style="display: none;"><circle cx="0" cy="0" r="5" style="stroke : none; fill-opacity: 0.5"/></g><g class="ResizeNWControl" style="display: none;"><circle cx="0" cy="0" r="5" style="stroke : none; fill-opacity: 0.5"/></g><g class="removeControl" style="display: none;"><polygon style="stroke : none; fill-opacity: 0.1"/></g><g class="copyPasteControl" style="display: none;"><polygon style="stroke : none; fill-opacity: 0.1"/></g><g class="translateControl" style="display: none;"><polygon style="stroke : none; fill-opacity: 0.1; cursor:move"/></g></g></g></g></g></svg>