<?xml version="1.0" encoding="utf-8"?>
<svg height="940.0800094604492" id="temp" version="1.1" viewBox="0 0 753.5100154876709 940.0800094604492" width="753.5100154876709" xmlns="http://www.w3.org/2000/svg" xmlns:xlink="http://www.w3.org/1999/xlink"><defs/><g class="Model v1-1" id="Model"><g class="Floor"><g class="Floorplan Floor-1" id="Floor-1"><g class="Space Outdoor Balcony" fill="#ffffff" id="47c23773-0c05-4761-ae84-54e04e55fa6f" stroke="#000000" style="fill-opacity: 1; stroke-opacity: 1; stroke-width: 1;"><polygon points="157.84,43.32 33.12,43.32 33.12,247.43 157.84,247.43 157.84,43.32 "/><g class="Dimension" transform="matrix(1,0,0,1,33.1202,43.3241)"><g class="Visual" style="display: none;" transform="matrix(1,0,0,1,0,0)"><g class="DimensionMark" fill="#000000" id="mark1" stroke="none" style="fill-opacity: 1; pointer-events: visible;" transform="matrix(1,0,0,1,62.3611,0)"><polygon points="-5,5,0,0,5,5"/></g><g class="DimensionMark" fill="#000000" id="mark2" stroke="none" style="fill-opacity: 1; pointer-events: visible;" transform="matrix(1,0,0,1,124.7223,102.0546)"><polygon points="-5,-5,0,0,-5,5"/></g><g class="DimensionMark" fill="#000000" id="mark3" stroke="none" style="fill-opacity: 1; pointer-events: visible;" transform="matrix(1,0,0,1,62.3611,204.1092)"><polygon points="-5,-5,0,0,5,-5"/></g><g class="DimensionMark" fill="#000000" id="mark4" stroke="none" style="fill-opacity: 1; pointer-events: visible;" transform="matrix(1,0,0,1,0,102.0546)"><polygon points="5,5,0,0,5,-5"/></g></g><g class="SpaceDimensionsLabel" transform="matrix(0,-1,1,0,50.9156,178.8863)"><g class="TextLabel NameLabel" id="NameLabel" style="display: block;"/><g class="TextLabel DimensionMeasureLabel" id="DimensionMeasureLabel" style="display: none;" transform="matrix(1,0,0,1,-64.1172,79.6875)"/></g></g></g><g class="Space LivingRoom" fill="#ffffff" id="ea915388-66c8-45b9-a9fb-2271de6551d1" stroke="#ffffff" style="fill-opacity: 1; stroke-opacity: 1; stroke-width: 1;"><polygon points="325.04,277.43 577.86,277.43 577.86,611.08 65.53,611.08 65.53,267.43 325.04,267.43 "/><g class="Dimension" transform="matrix(1,0,0,1,65.532,267.4333)"><g class="Visual" style="display: none;" transform="matrix(1,0,0,1,0,0)"><g class="DimensionMark" fill="#000000" id="mark1" stroke="none" style="fill-opacity: 1; pointer-events: visible;" transform="matrix(1,0,0,1,256.1618,0)"><polygon points="-5,5,0,0,5,5"/></g><g class="DimensionMark" fill="#000000" id="mark2" stroke="none" style="fill-opacity: 1; pointer-events: visible;" transform="matrix(1,0,0,1,512.3237,171.8255)"><polygon points="-5,-5,0,0,-5,5"/></g><g class="DimensionMark" fill="#000000" id="mark3" stroke="none" style="fill-opacity: 1; pointer-events: visible;" transform="matrix(1,0,0,1,256.1618,343.6509)"><polygon points="-5,-5,0,0,5,-5"/></g><g class="DimensionMark" fill="#000000" id="mark4" stroke="none" style="fill-opacity: 1; pointer-events: visible;" transform="matrix(1,0,0,1,0,171.8255)"><polygon points="5,5,0,0,5,-5"/></g></g><g class="SpaceDimensionsLabel" transform="matrix(1,0,0,1,238.7575,200.9263)"><g class="TextLabel NameLabel" id="NameLabel" style="display: block;"/><g class="TextLabel DimensionMeasureLabel" id="DimensionMeasureLabel" style="display: none;" transform="matrix(1,0,0,1,-114.6016,79.6875)"/></g></g></g><g class="Space Kitchen" fill="#ffffff" id="04a7dae8-0047-405c-ab82-562c5c5ca115" stroke="#ffffff" style="fill-opacity: 1; stroke-opacity: 1; stroke-width: 1;"><polygon points="732.51,202.70 577.86,202.70 577.86,267.43 177.84,267.43 177.84,45.32 732.51,45.32 "/><g class="Dimension" transform="matrix(1,0,0,1,177.8424,45.3241)"><g class="Visual" style="display: none;" transform="matrix(1,0,0,1,0,0)"><g class="DimensionMark" fill="#000000" id="mark1" stroke="none" style="fill-opacity: 1; pointer-events: visible;" transform="matrix(1,0,0,1,277.3337,0)"><polygon points="-5,5,0,0,5,5"/></g><g class="DimensionMark" fill="#000000" id="mark2" stroke="none" style="fill-opacity: 1; pointer-events: visible;" transform="matrix(1,0,0,1,554.6673,111.0546)"><polygon points="-5,-5,0,0,-5,5"/></g><g class="DimensionMark" fill="#000000" id="mark3" stroke="none" style="fill-opacity: 1; pointer-events: visible;" transform="matrix(1,0,0,1,277.3337,222.1092)"><polygon points="-5,-5,0,0,5,-5"/></g><g class="DimensionMark" fill="#000000" id="mark4" stroke="none" style="fill-opacity: 1; pointer-events: visible;" transform="matrix(1,0,0,1,0,111.0546)"><polygon points="5,5,0,0,5,-5"/></g></g><g class="SpaceDimensionsLabel" transform="matrix(1,0,0,1,256.559,120.7549)"><g class="TextLabel NameLabel" id="NameLabel" style="display: block;"/><g class="TextLabel DimensionMeasureLabel" id="DimensionMeasureLabel" style="display: none;" transform="matrix(1,0,0,1,-128.3438,79.6875)"/></g></g></g><g class="Space Bedroom" fill="#ffffff" id="87353683-325f-4eb3-b715-0277f97e9a6d" stroke="#ffffff" style="fill-opacity: 1; stroke-opacity: 1; stroke-width: 1;"><polygon points="577.86,695.10 526.36,695.10 526.36,901.89 65.53,901.89 65.53,621.08 577.86,621.08 "/><g class="Dimension" transform="matrix(1,0,0,1,65.532,621.0843)"><g class="Visual" style="display: none;" transform="matrix(1,0,0,1,0,0)"><g class="DimensionMark" fill="#000000" id="mark1" stroke="none" style="fill-opacity: 1; pointer-events: visible;" transform="matrix(1,0,0,1,256.1618,0)"><polygon points="-5,5,0,0,5,5"/></g><g class="DimensionMark" fill="#000000" id="mark2" stroke="none" style="fill-opacity: 1; pointer-events: visible;" transform="matrix(1,0,0,1,460.8302,140.4012)"><polygon points="-5,-5,0,0,-5,5"/></g><g class="DimensionMark" fill="#000000" id="mark3" stroke="none" style="fill-opacity: 1; pointer-events: visible;" transform="matrix(1,0,0,1,256.1618,280.8024)"><polygon points="-5,-5,0,0,5,-5"/></g><g class="DimensionMark" fill="#000000" id="mark4" stroke="none" style="fill-opacity: 1; pointer-events: visible;" transform="matrix(1,0,0,1,0,140.4012)"><polygon points="5,5,0,0,5,-5"/></g></g><g class="SpaceDimensionsLabel" transform="matrix(1,0,0,1,194.7229,157.8617)"><g class="TextLabel NameLabel" id="NameLabel" style="display: block;"/><g class="TextLabel DimensionMeasureLabel" id="DimensionMeasureLabel" style="display: none;" transform="matrix(1,0,0,1,-113.6797,79.6875)"/></g></g></g><g class="Space Entry Lobby" fill="#ffffff" id="ca7ea61d-124e-4393-ba92-2864bfb71530" stroke="#ffffff" style="fill-opacity: 1; stroke-opacity: 1; stroke-width: 1;"><polygon points="732.51,861.39 575.34,861.39 575.34,901.89 536.36,901.89 536.36,705.10 587.86,705.10 587.86,509.80 732.51,509.80 "/><g class="Dimension" transform="matrix(1,0,0,1,536.3622,509.801)"><g class="Visual" style="display: none;" transform="matrix(1,0,0,1,0,0)"><g class="DimensionMark" fill="#000000" id="mark1" stroke="none" style="fill-opacity: 1; pointer-events: visible;" transform="matrix(1,0,0,1,98.0738,0)"><polygon points="-5,5,0,0,5,5"/></g><g class="DimensionMark" fill="#000000" id="mark2" stroke="none" style="fill-opacity: 1; pointer-events: visible;" transform="matrix(1,0,0,1,196.1476,196.0428)"><polygon points="-5,-5,0,0,-5,5"/></g><g class="DimensionMark" fill="#000000" id="mark3" stroke="none" style="fill-opacity: 1; pointer-events: visible;" transform="matrix(1,0,0,1,98.0738,351.5939)"><polygon points="-5,-5,0,0,5,-5"/></g><g class="DimensionMark" fill="#000000" id="mark4" stroke="none" style="fill-opacity: 1; pointer-events: visible;" transform="matrix(1,0,0,1,0,196.0428)"><polygon points="5,5,0,0,5,-5"/></g></g><g class="SpaceDimensionsLabel" transform="matrix(1,0,0,1,105.5299,159.9461)"><g class="TextLabel NameLabel" id="NameLabel" style="display: block;"/><g class="TextLabel DimensionMeasureLabel" id="DimensionMeasureLabel" style="display: none;" transform="matrix(1,0,0,1,-119.1718,79.1875)"/></g></g></g><g class="Space Bath" fill="#ffffff" id="da3d5f03-152c-46b5-bd49-f3ddd9171d78" stroke="#ffffff" style="fill-opacity: 1; stroke-opacity: 1; stroke-width: 1;"><polygon points="732.51,499.80 587.86,499.80 587.86,212.70 732.51,212.70 "/><g class="Dimension" transform="matrix(1,0,0,1,587.8557,212.6955)"><g class="Visual" style="display: none;" transform="matrix(1,0,0,1,0,0)"><g class="DimensionMark" fill="#000000" id="mark1" stroke="none" style="fill-opacity: 1; pointer-events: visible;" transform="matrix(1,0,0,1,72.327,0)"><polygon points="-5,5,0,0,5,5"/></g><g class="DimensionMark" fill="#000000" id="mark2" stroke="none" style="fill-opacity: 1; pointer-events: visible;" transform="matrix(1,0,0,1,144.6541,143.5527)"><polygon points="-5,-5,0,0,-5,5"/></g><g class="DimensionMark" fill="#000000" id="mark3" stroke="none" style="fill-opacity: 1; pointer-events: visible;" transform="matrix(1,0,0,1,72.327,287.1055)"><polygon points="-5,-5,0,0,5,-5"/></g><g class="DimensionMark" fill="#000000" id="mark4" stroke="none" style="fill-opacity: 1; pointer-events: visible;" transform="matrix(1,0,0,1,0,143.5527)"><polygon points="5,5,0,0,5,-5"/></g></g><g class="SpaceDimensionsLabel" transform="matrix(1,0,0,1,5.8548,173.9603)"><g class="TextLabel NameLabel" id="NameLabel" style="display: block;"/><g class="TextLabel DimensionMeasureLabel" id="DimensionMeasureLabel" style="display: none;" transform="matrix(1,0,0,1,-106.2031,79.6875)"/></g></g></g><g class="Wall External" fill="#000000" id="Wall" stroke="#000000" style="fill-opacity: 1; stroke-opacity: 1; stroke-width: 1;"><polygon points="177.84,45.32 732.51,45.32 753.51,23.32 157.84,23.32 "/></g><g class="Wall External" fill="#000000" id="Wall" stroke="#000000" style="fill-opacity: 1; stroke-opacity: 1; stroke-width: 1;"><polygon points="732.51,45.32 732.51,861.39 753.51,882.39 753.51,23.32 "/></g><g class="Wall External" fill="#000000" id="Wall" stroke="#000000" style="fill-opacity: 1; stroke-opacity: 1; stroke-width: 1;"><polygon points="732.51,861.39 575.34,861.39 595.34,882.39 753.51,882.39 "/><g class="Door Swing Opposite" fill="#ffffff" id="Door" stroke="#000000" style="fill-opacity: 1; stroke-width: 1; stroke-opacity: 1;"><polygon points="673.04,861.39 615.36,861.39 615.36,882.39 673.04,882.39 "/><g class="Panel Left Negative" fill="none" id="Panel" style=""><g class="PanelArea" fill="none" id="PanelArea" stroke="none" style=""><polygon points="673.04,861.39 615.36,861.39 615.36,882.39 673.04,882.39 "/></g><path d="M673.04,861.39 q0.00,-57.69 -57.69,-57.69 l0.00,57.69Z"/></g><g class="Panel Right Positive" fill="none" id="Panel" style=""><g class="PanelArea" fill="none" id="PanelArea" stroke="none" style=""><polygon points="673.04,861.39 615.36,861.39 615.36,882.39 673.04,882.39 "/></g><path d="M673.04,882.39 q0.00,57.69 -57.69,57.69 l0.00,-57.69Z"/></g></g></g><g class="Wall External" fill="#000000" id="Wall" stroke="#000000" style="fill-opacity: 1; stroke-opacity: 1; stroke-width: 1;"><polygon points="595.34,882.39 595.34,921.89 575.34,901.89 575.34,861.39 "/></g><g class="Wall External" fill="#000000" id="Wall" stroke="#000000" style="fill-opacity: 1; stroke-opacity: 1; stroke-width: 1;"><polygon points="575.34,901.89 65.53,901.89 45.53,921.89 595.34,921.89 "/></g><g class="Wall External" fill="#000000" id="Wall" stroke="#000000" style="fill-opacity: 1; stroke-opacity: 1; stroke-width: 1;"><polygon points="65.53,901.89 65.53,267.43 45.53,247.43 45.53,921.89 "/><g class="Window Regular" fill="#f0f0ff" id="Window" stroke="#000000" style="fill-opacity: 1; stroke-width: 1; stroke-opacity: 1;"><polygon points="65.53,812.85 65.53,651.16 45.53,651.16 45.53,812.85 "/><g class="Glass" id="Glass"><polygon points="65.53,812.85 65.53,651.16 45.53,651.16 45.53,812.85 "/></g><g class="Panel" id="Panel"><line x1="55.5319949256061" x2="55.531994925606085" y1="805.3502271882686" y2="658.658691591134"/><line x1="65.5319949256061" x2="45.5319949256061" y1="805.3502271882686" y2="805.3502271882686"/><line x1="65.53199492560609" x2="45.531994925606085" y1="658.658691591134" y2="658.658691591134"/></g></g><g class="Window Regular" fill="#f0f0ff" id="Window" stroke="#000000" style="fill-opacity: 1; stroke-width: 1; stroke-opacity: 1;"><polygon points="65.53,596.23 65.53,313.61 45.53,313.61 45.53,596.23 "/><g class="Glass" id="Glass"><polygon points="65.53,596.23 65.53,313.61 45.53,313.61 45.53,596.23 "/></g><g class="Panel" id="Panel"><line x1="55.531994925606085" x2="55.53199492560604" y1="588.7250223179037" y2="321.1103459226772"/><line x1="65.53199492560609" x2="45.531994925606085" y1="588.7250223179037" y2="588.7250223179037"/><line x1="65.53199492560604" x2="45.53199492560604" y1="321.1103459226772" y2="321.1103459226772"/></g></g></g><g class="Wall External" fill="#000000" id="Wall" stroke="#000000" style="fill-opacity: 1; stroke-opacity: 1; stroke-width: 1;"><polygon points="65.53,267.43 177.84,267.43 157.84,247.43 45.53,247.43 "/></g><g class="Wall External" fill="#000000" id="Wall" stroke="#000000" style="fill-opacity: 1; stroke-opacity: 1; stroke-width: 1;"><polygon points="177.84,267.43 177.84,45.32 157.84,23.32 157.84,247.43 "/><g class="Window Regular" fill="#f0f0ff" id="Window" stroke="#000000" style="fill-opacity: 1; stroke-width: 1; stroke-opacity: 1;"><polygon points="177.84,151.31 177.84,52.53 157.84,52.53 157.84,151.31 "/><g class="Glass" id="Glass"><polygon points="177.84,151.31 177.84,52.53 157.84,52.53 157.84,151.31 "/></g><g class="Panel" id="Panel"><line x1="167.84244696111662" x2="167.8424469611166" y1="143.80880018879898" y2="60.027800458600126"/><line x1="177.84244696111662" x2="157.84244696111662" y1="143.80880018879898" y2="143.80880018879898"/><line x1="177.8424469611166" x2="157.8424469611166" y1="60.027800458600126" y2="60.02780045860013"/></g></g><g class="Door Swing Opposite" fill="#ffffff" id="Door" stroke="#000000" style="fill-opacity: 1; stroke-width: 1; stroke-opacity: 1;"><polygon points="177.84,208.20 177.84,156.22 157.84,156.22 157.84,208.20 "/><g class="Panel Right Negative" fill="none" id="Panel" style=""><g class="PanelArea" fill="none" id="PanelArea" stroke="none" style=""><polygon points="177.84,208.20 177.84,156.22 157.84,156.22 157.84,208.20 "/></g><path d="M177.84,156.22 q51.98,0.00 51.98,51.98 l-51.98,0.00Z"/></g><g class="Panel Left Positive" fill="none" id="Panel" style=""><g class="PanelArea" fill="none" id="PanelArea" stroke="none" style=""><polygon points="177.84,208.20 177.84,156.22 157.84,156.22 157.84,208.20 "/></g><path d="M157.84,156.22 q-51.98,0.00 -51.98,51.98 l51.98,0.00Z"/></g></g></g><g class="Wall" fill="#000000" id="Wall" stroke="#000000" style="fill-opacity: 1; stroke-opacity: 1; stroke-width: 1;"><polygon points="157.84,23.32 23.12,23.32 23.12,43.32 157.84,43.32 "/></g><g class="Railing" fill="#ffffff" id="Railing" stroke="#000000" style="fill-opacity: 1; stroke-opacity: 1; stroke-width: 1;"><polygon points="45.53,247.43 33.12,247.43 23.12,257.43 45.53,257.43 " style="stroke-dasharray: 12.4118, 14.1421, 32.4118;"/></g><g class="Railing" fill="#ffffff" id="Railing" stroke="#000000" style="fill-opacity: 1; stroke-opacity: 1; stroke-width: 1;"><polygon points="23.12,257.43 23.12,43.32 33.12,43.32 33.12,247.43 " style="stroke-dasharray: 428.218, 14.1421;"/></g><g class="Wall" fill="#000000" id="Wall" stroke="#000000" style="fill-opacity: 1; stroke-opacity: 1; stroke-width: 1;"><polygon points="536.36,921.89 536.36,705.10 526.36,695.10 526.36,921.89 "/></g><g class="Wall" fill="#000000" id="Wall" stroke="#000000" style="fill-opacity: 1; stroke-opacity: 1; stroke-width: 1;"><polygon points="526.36,695.10 577.86,695.10 587.86,705.10 536.36,705.10 "/></g><g class="Wall" fill="#000000" id="Wall" stroke="#000000" style="fill-opacity: 1; stroke-opacity: 1; stroke-width: 1;"><polygon points="577.86,695.10 577.86,202.70 587.86,212.70 587.86,705.10 "/><g class="Door Swing Beside" fill="#ffffff" id="Door" stroke="#000000" style="fill-opacity: 1; stroke-width: 1; stroke-opacity: 1;"><polygon points="577.86,693.31 577.86,639.81 587.86,639.81 587.86,693.31 "/><g class="Panel Left Negative" fill="none" id="Panel" style=""><g class="PanelArea" fill="none" id="PanelArea" stroke="none" style=""><polygon points="577.86,693.31 577.86,639.81 587.86,639.81 587.86,693.31 "/></g><path d="M577.86,693.31 q-53.50,0.00 -53.50,-53.50 l53.50,0.00Z"/></g></g><g class="Door Swing Beside" fill="#ffffff" id="Door" stroke="#000000" style="fill-opacity: 1; stroke-width: 1; stroke-opacity: 1;"><polygon points="577.86,599.34 577.86,545.91 587.86,545.91 587.86,599.34 "/><g class="Panel Right Negative" fill="none" id="Panel" style=""><g class="PanelArea" fill="none" id="PanelArea" stroke="none" style=""><polygon points="577.86,599.34 577.86,545.91 587.86,545.91 587.86,599.34 "/></g><path d="M577.86,545.91 q-53.43,0.00 -53.43,53.43 l53.43,0.00Z"/></g></g></g><g class="Wall" fill="#000000" id="Wall" stroke="#000000" style="fill-opacity: 1; stroke-opacity: 1; stroke-width: 1;"><polygon points="587.86,212.70 753.51,212.70 753.51,202.70 577.86,202.70 "/><g class="Door Swing Beside" fill="#ffffff" id="Door" stroke="#000000" style="fill-opacity: 1; stroke-width: 1; stroke-opacity: 1;"><polygon points="600.52,212.70 651.57,212.70 651.57,202.70 600.52,202.70 "/><g class="Panel Right Negative" fill="none" id="Panel" style=""><g class="PanelArea" fill="none" id="PanelArea" stroke="none" style=""><polygon points="600.52,212.70 651.57,212.70 651.57,202.70 600.52,202.70 "/></g><path d="M651.57,212.70 q0.00,51.05 -51.05,51.05 l0.00,-51.05Z"/></g></g></g><g class="Wall" fill="#000000" id="Wall" stroke="#000000" style="fill-opacity: 1; stroke-opacity: 1; stroke-width: 1;"><polygon points="587.86,621.08 45.53,621.08 45.53,611.08 587.86,611.08 "/></g><g class="Wall" fill="#000000" id="Wall" stroke="#000000" style="fill-opacity: 1; stroke-opacity: 1; stroke-width: 1;"><polygon points="577.86,509.80 753.51,509.80 753.51,499.80 577.86,499.80 "/><g class="Door Swing Beside" fill="#ffffff" id="Door" stroke="#000000" style="fill-opacity: 1; stroke-width: 1; stroke-opacity: 1;"><polygon points="598.41,509.80 653.51,509.80 653.51,499.80 598.41,499.80 "/><g class="Panel Right Negative" fill="none" id="Panel" style=""><g class="PanelArea" fill="none" id="PanelArea" stroke="none" style=""><polygon points="598.41,509.80 653.51,509.80 653.51,499.80 598.41,499.80 "/></g><path d="M653.51,509.80 q0.00,55.09 -55.09,55.09 l0.00,-55.09Z"/></g></g></g><g class="Wall" fill="#000000" id="Wall" stroke="#000000" style="fill-opacity: 1; stroke-opacity: 1; stroke-width: 1;"><polygon points="587.86,267.43 325.04,267.43 325.04,277.43 587.86,277.43 "/></g><g class="FixedFurniture Closet" fill="#ffffff" stroke="#000000" style="fill-opacity: 1; stroke-opacity: 1;" transform="matrix(0,1,-1,0,732.4316,757.7149)">
<g class="BoundaryPolygon">
<polygon points="0.00,0.00 103.68,0.00 103.68,39.48 0.00,39.48 "/>
</g>
<g class="Direction" fill-opacity="0.9" style="display: none;">
<polygon fill="#444444" points="53.14,35.87 53.14,25.25 50.13,25.25 50.13,35.87 46.33,35.87 51.63,41.17 56.94,35.87 53.14,35.87 "/>
</g>
<g class="Name" fill-opacity="0.9" style="display: none;">

</g>
<desc>Width:120 Height:200 Depth:60 Elevation:0</desc>
</g><g class="FixedFurnitureSet" fill="#ffffff" id="FixedFurnitureSet" stroke="#000000" style="fill-opacity: 0.4; stroke-opacity: 0.4;" transform="matrix(0,-1,1,0,536.3622,848.5682)"><g class="FixedFurniture Closet" fill="#ffffff" stroke="#000000" style="fill-opacity: 1; stroke-opacity: 1;" transform="matrix(1,0,0,1,0,0)">
<g class="BoundaryPolygon">
<polygon points="0.00,0.00 47.82,0.00 47.82,51.31 0.00,51.31 "/>
</g>
<g class="Direction" fill-opacity="0.9" style="display: none;">
<polygon fill="#444444" points="25.11,46.77 25.11,36.16 22.11,36.16 22.11,46.77 18.30,46.77 23.61,52.07 28.91,46.77 25.11,46.77 "/>
</g>
<g class="Name" fill-opacity="0.9" style="display: none;">

</g>
<desc>Width:60 Height:200 Depth:60 Elevation:0</desc>
</g><g class="FixedFurniture Closet" fill="#ffffff" stroke="#000000" style="fill-opacity: 1; stroke-opacity: 1;" transform="matrix(1,0,0,1,47.8235,0)">
<g class="BoundaryPolygon">
<polygon points="0.00,0.00 47.82,0.00 47.82,51.31 0.00,51.31 "/>
</g>
<g class="Direction" fill-opacity="0.9" style="display: none;">
<polygon fill="#444444" points="25.11,46.77 25.11,36.16 22.11,36.16 22.11,46.77 18.30,46.77 23.61,52.07 28.91,46.77 25.11,46.77 "/>
</g>
<g class="Name" fill-opacity="0.9" style="display: none;">

</g>
<desc>Width:60 Height:200 Depth:60 Elevation:0</desc>
</g><g class="FixedFurniture Closet" fill="#ffffff" stroke="#000000" style="fill-opacity: 1; stroke-opacity: 1;" transform="matrix(1,0,0,1,95.6469,0)">
<g class="BoundaryPolygon">
<polygon points="0.00,0.00 47.82,0.00 47.82,51.31 0.00,51.31 "/>
</g>
<g class="Direction" fill-opacity="0.9" style="display: none;">
<polygon fill="#444444" points="25.11,46.77 25.11,36.16 22.11,36.16 22.11,46.77 18.30,46.77 23.61,52.07 28.91,46.77 25.11,46.77 "/>
</g>
<g class="Name" fill-opacity="0.9" style="display: none;">

</g>
<desc>Width:60 Height:200 Depth:60 Elevation:0</desc>
</g></g><g class="FixedFurnitureSet" fill="#ffffff" id="FixedFurnitureSet" stroke="#000000" style="fill-opacity: 0.4; stroke-opacity: 0.4;" transform="matrix(0,1,-1,0,526.3622,695.6599)"><g class="FixedFurniture Closet" fill="#ffffff" stroke="#000000" style="fill-opacity: 1; stroke-opacity: 1;" transform="matrix(1,0,0,1,0,0)">
<g class="BoundaryPolygon">
<polygon points="0.00,0.00 51.56,0.00 51.56,54.00 0.00,54.00 "/>
</g>
<g class="Direction" fill-opacity="0.9" style="display: none;">
<polygon fill="#444444" points="27.07,49.22 27.07,38.61 24.07,38.61 24.07,49.22 20.26,49.22 25.57,54.53 30.87,49.22 27.07,49.22 "/>
</g>
<g class="Name" fill-opacity="0.9" style="display: none;">

</g>
<desc>Width:60 Height:200 Depth:60 Elevation:0</desc>
</g><g class="FixedFurniture Closet" fill="#ffffff" stroke="#000000" style="fill-opacity: 1; stroke-opacity: 1;" transform="matrix(1,0,0,1,51.5556,0)">
<g class="BoundaryPolygon">
<polygon points="0.00,0.00 51.56,0.00 51.56,54.00 0.00,54.00 "/>
</g>
<g class="Direction" fill-opacity="0.9" style="display: none;">
<polygon fill="#444444" points="27.07,49.22 27.07,38.61 24.07,38.61 24.07,49.22 20.26,49.22 25.57,54.53 30.87,49.22 27.07,49.22 "/>
</g>
<g class="Name" fill-opacity="0.9" style="display: none;">

</g>
<desc>Width:60 Height:200 Depth:60 Elevation:0</desc>
</g><g class="FixedFurniture Closet" fill="#ffffff" stroke="#000000" style="fill-opacity: 1; stroke-opacity: 1;" transform="matrix(1,0,0,1,103.1111,0)">
<g class="BoundaryPolygon">
<polygon points="0.00,0.00 51.56,0.00 51.56,54.00 0.00,54.00 "/>
</g>
<g class="Direction" fill-opacity="0.9" style="display: none;">
<polygon fill="#444444" points="27.07,49.22 27.07,38.61 24.07,38.61 24.07,49.22 20.26,49.22 25.57,54.53 30.87,49.22 27.07,49.22 "/>
</g>
<g class="Name" fill-opacity="0.9" style="display: none;">

</g>
<desc>Width:60 Height:200 Depth:60 Elevation:0</desc>
</g><g class="FixedFurniture Closet" fill="#ffffff" stroke="#000000" style="fill-opacity: 1; stroke-opacity: 1;" transform="matrix(1,0,0,1,154.6667,0)">
<g class="BoundaryPolygon">
<polygon points="0.00,0.00 51.56,0.00 51.56,54.00 0.00,54.00 "/>
</g>
<g class="Direction" fill-opacity="0.9" style="display: none;">
<polygon fill="#444444" points="27.07,49.22 27.07,38.61 24.07,38.61 24.07,49.22 20.26,49.22 25.57,54.53 30.87,49.22 27.07,49.22 "/>
</g>
<g class="Name" fill-opacity="0.9" style="display: none;">

</g>
<desc>Width:60 Height:200 Depth:60 Elevation:0</desc>
</g></g><g class="FixedFurniture Closet" fill="#ffffff" stroke="#000000" style="fill-opacity: 1; stroke-opacity: 1;" transform="matrix(1,0,0,1,587.8622,848.5682)"><desc>Width:120 Height:200 Depth:60 Elevation:0</desc><g class="BoundaryPolygon"><polygon points="0.00,0.00 -51.50,0.00 -51.50,53.40 -12.53,53.32 -12.53,12.83 0.00,12.83 0.00,0.00 "/></g></g><g class="FixedFurniture Shower" fill="#ffffff" stroke="#000000" style="fill-opacity: 1; stroke-opacity: 1;" transform="matrix(0,1,-1,0,732.5097,438.936)">
<g class="BoundaryPolygon" fill="none" stroke="none">
<polygon points="0,0 32,0 32,19 0,19"/>
</g>
<g class="InnerPolygon">
<rect height="6.1" width="11.2" x="3.7" y="0.5"/>
<rect height="6.1" width="11.2" x="17.6" y="0.5"/>
<rect height="6.1" width="3.4" x="28.7" y="0.5"/>
<rect height="6.1" width="3.2" x="0.5" y="0.5"/>
<path d="M14.9,8.5c0,1.5-0.4,3.3-1.6,5    c-0.4,0.6-1,1.1-1.1,1.7c-0.2,1.1,0.3,2.8,2.5,3.2c0.5,0.1,1.3,0.1,1.6,0.1h-0.1c0.3,0,1.1,0,1.6-0.1c2.2-0.4,2.7-2.1,2.5-3.2    c-0.1-0.6-0.7-1.1-1.1-1.7c-1.2-1.7-1.6-3.5-1.6-5"/>
<path d="M12.2,15.3c0.1,0.2,1.6,1.9,4.2,1.9 c2.4-0.1,3.7-1.7,3.9-1.9"/>
<path d="M14.9,0.5h2.7v8c-0.9,0-1.8,0-2.7,0l0,0 C14.9,5.9,14.9,3.2,14.9,0.5z"/>
</g>
<g class="Indicator">
<path d="M3.7,3.6C5,3.1,5.2,3,5.2,3 c0,1.1,0,0,0,1.1C5.2,4.1,5.1,4.1,3.7,3.6"/>
<path d="M28.7,3.6 C27.4,3.1,27.2,3,27.2,3c0,1.1,0,0,0,1.1C27.2,4.1,27.3,4.1,28.7,3.6"/>
</g>
<desc>Width:32 Height:97 Depth:19 Elevation:135</desc>
</g><g class="FixedFurniture ElectricalAppliance SpaceForAppliance2" fill="#ffffff" stroke="#000000" style="fill-opacity: 1; stroke-opacity: 1;" transform="matrix(0,1,-1,0,732.4785,363.0758)">
<g class="BoundaryPolygon">
<polygon points="0,0 60,0 60,60 0,60"/>
</g>
<g class="electricitySign" fill="none">
<path d="M0,0,30.1,39.8V19.4L59.9,60"/>
</g>
<g class="Direction" fill-opacity="0.9" style="display: none;">
<polygon fill="#444444" points="32.009 55.197 32.009 44.581 29 44.581 29 55.197 25.197 55.197 30.5 60 35.803 55.197 32.009 55.197"/>
</g>
<g class="Name" fill-opacity="0.9" style="display: none;">

</g>
<desc>Width:60 Height:90 Depth:60 Elevation:0</desc>
</g><g class="FixedFurnitureSet" fill="#ffffff" id="FixedFurnitureSet" stroke="#000000" style="fill-opacity: 0.4; stroke-opacity: 0.4;" transform="matrix(0,1,-1,0,732.4785,289.4246)"><g class="FixedFurniture BaseCabinet" fill="#ffffff" stroke="#000000" style="fill-opacity: 1; stroke-opacity: 1;" transform="matrix(1,0,0,1,0,0)">
<g class="BoundaryPolygon">
<polygon points="0.00,0.00 49.06,0.00 49.06,41.41 0.00,41.41 "/>
</g>
<g class="Direction" fill-opacity="0.9" style="display: none;">
<polygon fill="#444444" points="26.17,38.10 26.17,27.48 23.16,27.48 23.16,38.10 19.36,38.10 24.66,42.90 29.97,38.10 26.17,38.10 "/>
</g>
<g class="Name" fill-opacity="0.9" style="display: none;">

</g>
<desc>Width:60 Height:5 Depth:60 Elevation:105</desc>
</g><g class="FixedFurniture Sink" fill="#ffffff" stroke="#000000" style="fill-opacity: 1; stroke-opacity: 1;" transform="matrix(1,0,0,1,0,0)">
<g class="BoundaryPolygon" fill="none" stroke="none">
<polygon points="0.00,0.00 49.06,0.00 49.06,41.41 0.00,41.41 "/>
</g>
<g class="InnerPolygon">
<polygon points="4.09,9.70 44.97,9.70 44.97,37.75 4.09,37.75 "/>
</g>
<g class="OuterDrain" stroke-width="0.8">
<circle cx="24.52989993735998" cy="22.224086540629614" r="3.5"/>
</g>
<g class="InnerDrain" stroke-width="0.8">
<circle cx="24.52989993735998" cy="22.224086540629614" r="2"/>
</g>
<g class="Faucet">
<polygon points="22.08,3.45 28.08,3.45 28.08,17.45 22.08,17.45 "/>
</g>
<g class="Direction" fill-opacity="0.9" style="display: none;">
<polygon fill="#444444" points="26.17,38.10 26.17,27.48 23.16,27.48 23.16,38.10 19.36,38.10 24.66,42.90 29.97,38.10 26.17,38.10 "/>
</g>
<g class="Name" fill-opacity="0.9" style="display: none;">

</g>
<desc>Width:60 Height:90 Depth:60 Elevation:0</desc>
</g></g><g class="FixedFurniture Toilet" fill="#ffffff" stroke="#000000" style="fill-opacity: 1; stroke-opacity: 1;" transform="matrix(0,1,-1,0,732.5097,228.7322)">
<g class="BoundaryPolygon" fill="none" stroke="none">
<polygon points="0,0 41,0 41,71 0,71"/>
</g>
<g class="InnerPolygon">
<rect height="17.98" width="39.989" x="0.502" y="0.5"/>
<path d="M40.491,44.237S41.619,70.5,20.907,70.5C-.523,70.5.6,44.237.6,44.237L.5,18.48H40.491Z"/>
<rect height="3.03" width="6.357" x="17.318" y="7.975"/>
</g>
<desc>Width:41 Height:85 Depth:71 Elevation:0</desc>
</g><g class="FixedFurniture Closet" fill="#ffffff" stroke="#000000" style="fill-opacity: 1; stroke-opacity: 1;" transform="matrix(-1,0,0,-1,525.7131,267.4021)">
<g class="BoundaryPolygon">
<polygon points="0.00,0.00 56.22,0.00 56.22,63.89 0.00,63.89 "/>
</g>
<g class="Direction" fill-opacity="0.9" style="display: none;">
<polygon fill="#444444" points="29.52,58.24 29.52,47.63 26.51,47.63 26.51,58.24 22.71,58.24 28.01,63.55 33.32,58.24 29.52,58.24 "/>
</g>
<g class="Name" fill-opacity="0.9" style="display: none;">

</g>
<desc>Width:60 Height:200 Depth:60 Elevation:0</desc>
</g><g class="FixedFurniture ElectricalAppliance Refrigerator" fill="#ffffff" stroke="#000000" style="fill-opacity: 1; stroke-opacity: 1;" transform="matrix(-0.869,0,0,-1.0653,577.8557,267.4333)">
<g class="BoundaryPolygon">
<polygon points="0,0 60,0 60,60 0,60"/>
</g>
<g class="electricitySign" fill="none">
<path d="M0,0,30,37.1v-18L60,56.3"/>
</g>
<g class="Doors">
<rect height="4" width="60" y="56"/>
</g>
<g class="Direction" fill-opacity="0.9" style="display: none;">
<polygon fill="#444444" points="32.009 55.197 32.009 44.581 29 44.581 29 55.197 25.197 55.197 30.5 60 35.803 55.197 32.009 55.197"/>
</g>
<g class="Name" fill-opacity="0.9" style="display: none;">

</g>
<desc>Width:60 Height:170 Depth:60 Elevation:0</desc>
</g><g class="FixedFurniture BaseCabinet" fill="#ffffff" stroke="#000000" style="fill-opacity: 1; stroke-opacity: 1;" transform="matrix(1,0,0,1,732.5097,202.6955)"><desc>Width:60 Height:90 Depth:60 Elevation:0</desc><g class="BoundaryPolygon"><polygon points="0.00,0.00 -61.66,0.00 -61.66,-98.33 -265.93,-98.33 -265.93,-157.35 0.00,-157.37 0.00,0.00 "/></g></g><g class="FixedFurniture ElectricalAppliance IntegratedStove" fill="#ffffff" stroke="#000000" style="fill-opacity: 1; stroke-opacity: 1;" transform="matrix(1,0,0,1,612.261,44.3655)">
<g class="BoundaryPolygon" fill="none" stroke="none">
<polygon points="0.00,0.00 60.46,0.00 60.46,60.00 0.00,60.00 "/>
</g>
<g class="InnerPolygon">
<polygon points="2.00,2.00 58.45,2.00 58.45,58.00 2.00,58.00 "/>
</g>
<g class="OuterCircle">
<circle cx="16.123246086220583" cy="16" r="8"/>
<circle cx="44.33892673710659" cy="16" r="8"/>
<circle cx="16.123246086220583" cy="44" r="8"/>
<circle cx="44.33892673710659" cy="44" r="8"/>
</g>
<g class="Direction" fill-opacity="0.9" style="display: none;">
<polygon fill="#444444" points="32.26,55.20 32.26,44.58 29.25,44.58 29.25,55.20 25.44,55.20 30.75,60.00 36.05,55.20 32.26,55.20 "/>
</g>
<g class="Name" fill-opacity="0.9" style="display: none;">

</g>
<desc>Width:60 Height:90 Depth:30 Elevation:0</desc>
</g><g class="FixedFurniture DoubleSink" fill="#ffffff" stroke="#000000" style="fill-opacity: 1; stroke-opacity: 1;" transform="matrix(0,1,-1,0,732.4004,116.0674)">
<g class="BoundaryPolygon" fill="none" stroke="none">
<polygon points="0.00,0.00 70.00,0.00 70.00,56.09 0.00,56.09 "/>
</g>
<g class="InnerPolygonLeft">
<polygon points="5.00,9.90 33.50,9.90 33.50,51.33 5.00,51.33 "/>
</g>
<g class="InnerPolygonRight">
<polygon points="36.50,10.00 65.00,10.00 65.00,51.42 36.50,51.42 "/>
</g>
<g class="OuterDrain" stroke-width="0.8">
<circle cx="19.7" cy="30.3840856343008" r="3.5"/>
<circle cx="50.2" cy="30.3840856343008" r="3.5"/>
</g>
<g class="InnerDrain" stroke-width="0.8">
<circle cx="19.7" cy="30.3840856343008" r="2"/>
<circle cx="50.2" cy="30.3840856343008" r="2"/>
</g>
<g class="Faucet">
<polygon points="32.00,4.58 38.00,4.58 38.00,18.58 32.00,18.58 "/>
</g>
<g class="Direction" fill-opacity="0.9" style="display: none;">
<polygon fill="#444444" points="36.51,51.14 36.51,40.52 33.50,40.52 33.50,51.14 29.70,51.14 35.00,56.44 40.30,51.14 36.51,51.14 "/>
</g>
<g class="Name" fill-opacity="0.9" style="display: none;">

</g>
<desc>Width:70 Height:90 Depth:60 Elevation:0</desc>
</g><g class="SelectionControls" fill="#0000ff" stroke="#0000ff" style="display: none;"><g class="rotateControl" style="display: none;"><circle cx="70.45764365174341" cy="40.49167027634343" r="5" style="stroke : none; fill-opacity: 0.5; cursor:crosshair"/></g><g class="ResizeNControl" style="display: none;"><circle cx="0" cy="0" r="5" style="stroke : none; fill-opacity: 0.5"/></g><g class="ResizeNEControl" style="display: none;"><circle cx="0" cy="0" r="5" style="stroke : none; fill-opacity: 0.5"/></g><g class="ResizeEControl" style="display: none;"><circle cx="0" cy="0" r="5" style="stroke : none; fill-opacity: 0.5"/></g><g class="ResizeSEControl" style="display: none;"><circle cx="0" cy="0" r="5" style="stroke : none; fill-opacity: 0.5"/></g><g class="ResizeSControl" style="display: none;"><circle cx="0" cy="0" r="5" style="stroke : none; fill-opacity: 0.5"/></g><g class="ResizeSWControl" style="display: none;"><circle cx="0" cy="0" r="5" style="stroke : none; fill-opacity: 0.5"/></g><g class="ResizeWControl" style="display: none;"><circle cx="0" cy="0" r="5" style="stroke : none; fill-opacity: 0.5"/></g><g class="ResizeNWControl" style="display: none;"><circle cx="0" cy="0" r="5" style="stroke : none; fill-opacity: 0.5"/></g><g class="removeControl" style="display: none;"><polygon points="50.41,70.49 90.50,70.49 90.50,222.21 50.41,222.21 " style="stroke : none; fill-opacity: 0.1"/></g><g class="copyPasteControl" style="display: none;"><polygon style="stroke : none; fill-opacity: 0.1"/></g><g class="translateControl" style="display: none;"><polygon points="50.41,70.49 90.50,70.49 90.50,222.21 50.41,222.21 " style="stroke : none; fill-opacity: 0.1; cursor:move"/></g></g><g class="SelectionControls" fill="#0000ff" stroke="#0000ff" style="display: none;"><polygon fill="none" points="33.12,43.32 157.84,43.32 157.84,247.43 33.12,247.43 " stroke="#0000ff" style=""/><g class="rotateControl" style="display: none;"><circle cx="95.48131748597191" cy="13.324120276343415" r="5" style="stroke : none; fill-opacity: 0.5; cursor:crosshair"/></g><g class="ResizeNControl" style="display: none;"><circle cx="0" cy="0" r="5" style="stroke : none; fill-opacity: 0.5"/></g><g class="ResizeNEControl" style="display: none;"><circle cx="0" cy="0" r="5" style="stroke : none; fill-opacity: 0.5"/></g><g class="ResizeEControl" style="display: none;"><circle cx="0" cy="0" r="5" style="stroke : none; fill-opacity: 0.5"/></g><g class="ResizeSEControl" style="display: none;"><circle cx="0" cy="0" r="5" style="stroke : none; fill-opacity: 0.5"/></g><g class="ResizeSControl" style="display: none;"><circle cx="0" cy="0" r="5" style="stroke : none; fill-opacity: 0.5"/></g><g class="ResizeSWControl" style="display: none;"><circle cx="0" cy="0" r="5" style="stroke : none; fill-opacity: 0.5"/></g><g class="ResizeWControl" style="display: none;"><circle cx="0" cy="0" r="5" style="stroke : none; fill-opacity: 0.5"/></g><g class="ResizeNWControl" style="display: none;"><circle cx="0" cy="0" r="5" style="stroke : none; fill-opacity: 0.5"/></g><g class="removeControl" style="display: none;"><polygon style="stroke : none; fill-opacity: 0.1"/></g><g class="copyPasteControl" style="display: none;"><polygon style="stroke : none; fill-opacity: 0.1"/></g><g class="translateControl" style="display: none;"><polygon style="stroke : none; fill-opacity: 0.1; cursor:move"/></g></g></g></g></g></svg>