<?xml version="1.0" encoding="utf-8"?>
<svg height="1403.3000030517578" id="temp" version="1.1" viewBox="0 0 997.4300689697266 1403.3000030517578" width="997.4300689697266" xmlns="http://www.w3.org/2000/svg" xmlns:xlink="http://www.w3.org/1999/xlink"><defs/><g class="Model v1-1" id="Model"><g class="Floor"><g class="Floorplan Floor-1" id="Floor-1"><g class="Space Entry Lobby" fill="#ffffff" id="b34c9d85-db63-4cc9-823e-4d34849f1459" stroke="#ffffff" style="fill-opacity: 1; stroke-opacity: 1; stroke-width: 1;"><polygon points="724.14,670.13 724.14,847.86 977.43,847.86 977.43,1022.85 616.28,1022.85 616.28,670.13 "/><g class="Dimension" transform="matrix(1,0,0,1,616.2802,670.1278)"><g class="Visual" style="display: none;" transform="matrix(1,0,0,1,0,0)"><g class="DimensionMark" fill="#000000" id="mark1" stroke="none" style="fill-opacity: 1; pointer-events: visible;" transform="matrix(1,0,0,1,107.8555,0)"><polygon points="-5,5,0,0,5,5"/></g><g class="DimensionMark" fill="#000000" id="mark2" stroke="none" style="fill-opacity: 1; pointer-events: visible;" transform="matrix(1,0,0,1,361.1539,177.7312)"><polygon points="-5,-5,0,0,-5,5"/></g><g class="DimensionMark" fill="#000000" id="mark3" stroke="none" style="fill-opacity: 1; pointer-events: visible;" transform="matrix(1,0,0,1,107.8555,352.7259)"><polygon points="-5,-5,0,0,5,-5"/></g><g class="DimensionMark" fill="#000000" id="mark4" stroke="none" style="fill-opacity: 1; pointer-events: visible;" transform="matrix(1,0,0,1,0,177.7312)"><polygon points="5,5,0,0,5,-5"/></g></g><g class="SpaceDimensionsLabel" transform="matrix(1,0,0,1,173.4971,276.4266)"><g class="TextLabel NameLabel" id="NameLabel" style="display: block;"/><g class="TextLabel DimensionMeasureLabel" id="DimensionMeasureLabel" style="display: none;" transform="matrix(1,0,0,1,-119.1875,79.75)"/></g></g></g><g class="Space Bath" fill="#ffffff" id="41ce0dff-bd6a-468e-875f-f98910428666" stroke="#ffffff" style="fill-opacity: 1; stroke-opacity: 1; stroke-width: 1;"><polygon points="977.43,836.86 735.14,836.86 735.14,670.13 977.43,670.13 "/><g class="Dimension" transform="matrix(1,0,0,1,735.1359,670.1278)"><g class="Visual" style="display: none;" transform="matrix(1,0,0,1,0,0)"><g class="DimensionMark" fill="#000000" id="mark1" stroke="none" style="fill-opacity: 1; pointer-events: visible;" transform="matrix(1,0,0,1,121.1491,0)"><polygon points="-5,5,0,0,5,5"/></g><g class="DimensionMark" fill="#000000" id="mark2" stroke="none" style="fill-opacity: 1; pointer-events: visible;" transform="matrix(1,0,0,1,242.2982,83.3656)"><polygon points="-5,-5,0,0,-5,5"/></g><g class="DimensionMark" fill="#000000" id="mark3" stroke="none" style="fill-opacity: 1; pointer-events: visible;" transform="matrix(1,0,0,1,121.1491,166.7312)"><polygon points="-5,-5,0,0,5,-5"/></g><g class="DimensionMark" fill="#000000" id="mark4" stroke="none" style="fill-opacity: 1; pointer-events: visible;" transform="matrix(1,0,0,1,0,83.3656)"><polygon points="5,5,0,0,5,-5"/></g></g><g class="SpaceDimensionsLabel" transform="matrix(1,0,0,1,114.5153,122.0945)"><g class="TextLabel NameLabel" id="NameLabel" style="display: block;"/><g class="TextLabel DimensionMeasureLabel" id="DimensionMeasureLabel" style="display: none;" transform="matrix(1,0,0,1,-116.1562,79.9687)"/></g></g></g><g class="Space Room" fill="#ffffff" id="dcc70f99-347b-4306-be84-537f25b62057" stroke="#ffffff" style="fill-opacity: 1; stroke-opacity: 1; stroke-width: 1;"><polygon points="603.28,1022.85 226.41,1022.85 226.41,670.13 603.28,670.13 "/><g class="Dimension" transform="matrix(1,0,0,1,226.408,670.13)"><g class="Visual" style="display: none;" transform="matrix(1,0,0,1,0,0)"><g class="DimensionMark" fill="#000000" id="mark1" stroke="none" style="fill-opacity: 1; pointer-events: visible;" transform="matrix(1,0,0,1,188.4361,0)"><polygon points="-5,5,0,0,5,5"/></g><g class="DimensionMark" fill="#000000" id="mark2" stroke="none" style="fill-opacity: 1; pointer-events: visible;" transform="matrix(1,0,0,1,376.8722,176.3618)"><polygon points="-5,-5,0,0,-5,5"/></g><g class="DimensionMark" fill="#000000" id="mark3" stroke="none" style="fill-opacity: 1; pointer-events: visible;" transform="matrix(1,0,0,1,188.4361,352.7237)"><polygon points="-5,-5,0,0,5,-5"/></g><g class="DimensionMark" fill="#000000" id="mark4" stroke="none" style="fill-opacity: 1; pointer-events: visible;" transform="matrix(1,0,0,1,0,176.3618)"><polygon points="5,5,0,0,5,-5"/></g></g><g class="SpaceDimensionsLabel" transform="matrix(1,0,0,1,182.3618,176.3619)"><g class="TextLabel NameLabel" id="NameLabel" style="display: block;"/><g class="TextLabel DimensionMeasureLabel" id="DimensionMeasureLabel" style="display: none;" transform="matrix(1,0,0,1,-127.5859,79.9687)"/></g></g></g><g class="Space Room" fill="#ffffff" id="48ab24c3-3018-4a0e-b37a-d957481987f8" stroke="#ffffff" style="fill-opacity: 1; stroke-opacity: 1; stroke-width: 1;"><polygon points="603.28,659.13 226.41,659.13 226.41,299.80 603.28,299.80 "/><g class="Dimension" transform="matrix(1,0,0,1,226.408,299.7969)"><g class="Visual" style="display: none;" transform="matrix(1,0,0,1,0,0)"><g class="DimensionMark" fill="#000000" id="mark1" stroke="none" style="fill-opacity: 1; pointer-events: visible;" transform="matrix(1,0,0,1,188.4361,0)"><polygon points="-5,5,0,0,5,5"/></g><g class="DimensionMark" fill="#000000" id="mark2" stroke="none" style="fill-opacity: 1; pointer-events: visible;" transform="matrix(1,0,0,1,376.8722,179.6654)"><polygon points="-5,-5,0,0,-5,5"/></g><g class="DimensionMark" fill="#000000" id="mark3" stroke="none" style="fill-opacity: 1; pointer-events: visible;" transform="matrix(1,0,0,1,188.4361,359.3309)"><polygon points="-5,-5,0,0,5,-5"/></g><g class="DimensionMark" fill="#000000" id="mark4" stroke="none" style="fill-opacity: 1; pointer-events: visible;" transform="matrix(1,0,0,1,0,179.6654)"><polygon points="5,5,0,0,5,-5"/></g></g><g class="SpaceDimensionsLabel" transform="matrix(1,0,0,1,182.6654,171.6655)"><g class="TextLabel NameLabel" id="NameLabel" style="display: block;"/><g class="TextLabel DimensionMeasureLabel" id="DimensionMeasureLabel" style="display: none;" transform="matrix(1,0,0,1,-127.5859,79.9687)"/></g></g></g><g class="Space Kitchen" fill="#ffffff" id="af5d2173-ac7c-442c-9e41-f3442dd069b5" stroke="#ffffff" style="fill-opacity: 1; stroke-opacity: 1; stroke-width: 1;"><polygon points="977.43,659.13 735.14,659.13 735.14,599.08 724.14,599.08 724.14,659.13 616.28,659.13 616.28,299.80 977.43,299.80 "/><g class="Dimension" transform="matrix(1,0,0,1,616.2802,299.7969)"><g class="Visual" style="display: none;" transform="matrix(1,0,0,1,0,0)"><g class="DimensionMark" fill="#000000" id="mark1" stroke="none" style="fill-opacity: 1; pointer-events: visible;" transform="matrix(1,0,0,1,180.5769,0)"><polygon points="-5,5,0,0,5,5"/></g><g class="DimensionMark" fill="#000000" id="mark2" stroke="none" style="fill-opacity: 1; pointer-events: visible;" transform="matrix(1,0,0,1,361.1539,179.6654)"><polygon points="-5,-5,0,0,-5,5"/></g><g class="DimensionMark" fill="#000000" id="mark3" stroke="none" style="fill-opacity: 1; pointer-events: visible;" transform="matrix(1,0,0,1,180.5769,359.3309)"><polygon points="-5,-5,0,0,5,-5"/></g><g class="DimensionMark" fill="#000000" id="mark4" stroke="none" style="fill-opacity: 1; pointer-events: visible;" transform="matrix(1,0,0,1,0,179.6654)"><polygon points="5,5,0,0,5,-5"/></g></g><g class="SpaceDimensionsLabel" transform="matrix(1,0,0,1,177.8441,172.2796)"><g class="TextLabel NameLabel" id="NameLabel" style="display: block;"/><g class="TextLabel DimensionMeasureLabel" id="DimensionMeasureLabel" style="display: none;" transform="matrix(1,0,0,1,-128.5703,79.375)"/></g></g></g><g class="Space Room" fill="#ffffff" id="4ef7fb90-f3ec-4c17-a511-64dc6765b6fb" stroke="#ffffff" style="fill-opacity: 1; stroke-opacity: 1; stroke-width: 1;"><polygon points="822.54,1383.30 382.04,1383.30 382.04,1035.85 822.54,1035.85 "/><g class="Dimension" transform="matrix(1,0,0,1,382.0358,1035.8537)"><g class="Visual" style="display: none;" transform="matrix(1,0,0,1,0,0)"><g class="DimensionMark" fill="#000000" id="mark1" stroke="none" style="fill-opacity: 1; pointer-events: visible;" transform="matrix(1,0,0,1,220.2528,0)"><polygon points="-5,5,0,0,5,5"/></g><g class="DimensionMark" fill="#000000" id="mark2" stroke="none" style="fill-opacity: 1; pointer-events: visible;" transform="matrix(1,0,0,1,440.5057,173.7237)"><polygon points="-5,-5,0,0,-5,5"/></g><g class="DimensionMark" fill="#000000" id="mark3" stroke="none" style="fill-opacity: 1; pointer-events: visible;" transform="matrix(1,0,0,1,220.2528,347.4475)"><polygon points="-5,-5,0,0,5,-5"/></g><g class="DimensionMark" fill="#000000" id="mark4" stroke="none" style="fill-opacity: 1; pointer-events: visible;" transform="matrix(1,0,0,1,0,173.7237)"><polygon points="5,5,0,0,5,-5"/></g></g><g class="SpaceDimensionsLabel" transform="matrix(1,0,0,1,212.5122,182.6578)"><g class="TextLabel NameLabel" id="NameLabel" style="display: block;"/><g class="TextLabel DimensionMeasureLabel" id="DimensionMeasureLabel" style="display: none;" transform="matrix(1,0,0,1,-127.5938,80.0625)"/></g></g></g><g class="Wall External" fill="#000000" id="Wall" stroke="#000000" style="fill-opacity: 1; stroke-opacity: 1; stroke-width: 1;"><polygon points="226.41,1022.85 226.41,299.80 206.41,279.80 206.41,1042.85 "/><g class="Window Regular" fill="#f0f0ff" id="Window" stroke="#000000" style="fill-opacity: 1; stroke-width: 1; stroke-opacity: 1;"><polygon points="226.41,592.84 226.41,357.16 206.41,357.16 206.41,592.84 "/><g class="Glass" id="Glass"><polygon points="226.41,592.84 226.41,357.16 206.41,357.16 206.41,592.84 "/></g><g class="Panel" id="Panel"><line x1="216.40797993999192" x2="216.4079799399919" y1="585.3393093054294" y2="364.6552685292628"/><line x1="226.40797993999192" x2="206.40797993999192" y1="585.3393093054294" y2="585.3393093054294"/><line x1="226.4079799399919" x2="206.4079799399919" y1="364.6552685292628" y2="364.6552685292628"/></g></g><g class="Window Regular" fill="#f0f0ff" id="Window" stroke="#000000" style="fill-opacity: 1; stroke-width: 1; stroke-opacity: 1;"><polygon points="226.41,949.59 226.41,758.55 206.41,758.55 206.41,949.59 "/><g class="Glass" id="Glass"><polygon points="226.41,949.59 226.41,758.55 206.41,758.55 206.41,949.59 "/></g><g class="Panel" id="Panel"><line x1="216.40797993999195" x2="216.40797993999192" y1="942.0876396351787" y2="766.0546804944864"/><line x1="226.40797993999195" x2="206.40797993999195" y1="942.0876396351787" y2="942.0876396351787"/><line x1="226.40797993999192" x2="206.40797993999192" y1="766.0546804944864" y2="766.0546804944864"/></g></g></g><g class="Wall External" fill="#000000" id="Wall" stroke="#000000" style="fill-opacity: 1; stroke-opacity: 1; stroke-width: 1;"><polygon points="226.41,299.80 977.43,299.80 997.43,279.80 206.41,279.80 "/><g class="Door Swing Beside" fill="#ffffff" id="Door" stroke="#000000" style="fill-opacity: 1; stroke-width: 1; stroke-opacity: 1;"><polygon points="842.05,299.80 893.39,299.80 893.39,279.80 842.05,279.80 "/><g class="Panel Left Negative" fill="none" id="Panel" style=""><g class="PanelArea" fill="none" id="PanelArea" stroke="none" style=""><polygon points="842.05,299.80 893.39,299.80 893.39,279.80 842.05,279.80 "/></g><path d="M842.05,299.80 q0.00,51.34 51.34,51.34 l0.00,-51.34Z"/></g></g><g class="Window Regular" fill="#f0f0ff" id="Window" stroke="#000000" style="fill-opacity: 1; stroke-width: 1; stroke-opacity: 1;"><polygon points="656.70,299.80 829.77,299.80 829.77,279.80 656.70,279.80 "/><g class="Glass" id="Glass"><polygon points="656.70,299.80 829.77,299.80 829.77,279.80 656.70,279.80 "/></g><g class="Panel" id="Panel"><line x1="664.1958847697938" x2="822.2688064244592" y1="289.7969172254987" y2="289.79691722549865"/><line x1="664.1958847697938" x2="664.1958847697938" y1="299.7969172254987" y2="279.7969172254987"/><line x1="822.2688064244592" x2="822.2688064244592" y1="299.79691722549865" y2="279.79691722549865"/></g></g></g><g class="Wall External" fill="#000000" id="Wall" stroke="#000000" style="fill-opacity: 1; stroke-opacity: 1; stroke-width: 1;"><polygon points="977.43,299.80 977.43,1022.85 997.43,1042.85 997.43,279.80 "/></g><g class="Wall External" fill="#000000" id="Wall" stroke="#000000" style="fill-opacity: 1; stroke-opacity: 1; stroke-width: 1;"><polygon points="977.43,1022.85 822.54,1022.85 842.54,1042.85 997.43,1042.85 "/><g class="Door Swing Opposite" fill="#ffffff" id="Door" stroke="#000000" style="fill-opacity: 1; stroke-width: 1; stroke-opacity: 1;"><polygon points="923.24,1022.85 850.82,1022.85 850.82,1042.85 923.24,1042.85 "/><g class="Panel Right Negative" fill="none" id="Panel" style=""><g class="PanelArea" fill="none" id="PanelArea" stroke="none" style=""><polygon points="923.24,1022.85 850.82,1022.85 850.82,1042.85 923.24,1042.85 "/></g><path d="M850.82,1022.85 q0.00,-72.41 72.41,-72.41 l0.00,72.41Z"/></g><g class="Panel Right Positive" fill="none" id="Panel" style=""><g class="PanelArea" fill="none" id="PanelArea" stroke="none" style=""><polygon points="923.24,1022.85 850.82,1022.85 850.82,1042.85 923.24,1042.85 "/></g><path d="M923.24,1042.85 q0.00,72.41 -72.41,72.41 l0.00,-72.41Z"/></g></g></g><g class="Wall External" fill="#000000" id="Wall" stroke="#000000" style="fill-opacity: 1; stroke-opacity: 1; stroke-width: 1;"><polygon points="842.54,1042.85 842.54,1403.30 822.54,1383.30 822.54,1022.85 "/></g><g class="Wall External" fill="#000000" id="Wall" stroke="#000000" style="fill-opacity: 1; stroke-opacity: 1; stroke-width: 1;"><polygon points="822.54,1383.30 382.04,1383.30 362.04,1403.30 842.54,1403.30 "/></g><g class="Wall External" fill="#000000" id="Wall" stroke="#000000" style="fill-opacity: 1; stroke-opacity: 1; stroke-width: 1;"><polygon points="382.04,1383.30 382.04,1022.85 362.04,1042.85 362.04,1403.30 "/><g class="Window Regular" fill="#f0f0ff" id="Window" stroke="#000000" style="fill-opacity: 1; stroke-width: 1; stroke-opacity: 1;"><polygon points="382.04,1329.14 382.04,1106.95 362.04,1106.95 362.04,1329.14 "/><g class="Glass" id="Glass"><polygon points="382.04,1329.14 382.04,1106.95 362.04,1106.95 362.04,1329.14 "/></g><g class="Panel" id="Panel"><line x1="372.0358464496477" x2="372.03584644964764" y1="1321.643347302418" y2="1114.4460015188854"/><line x1="382.0358464496477" x2="362.0358464496477" y1="1321.643347302418" y2="1321.643347302418"/><line x1="382.03584644964764" x2="362.03584644964764" y1="1114.4460015188854" y2="1114.4460015188854"/></g></g></g><g class="Wall External" fill="#000000" id="Wall" stroke="#000000" style="fill-opacity: 1; stroke-opacity: 1; stroke-width: 1;"><polygon points="382.04,1022.85 226.41,1022.85 206.41,1042.85 362.04,1042.85 "/></g><g class="Wall" fill="#000000" id="Wall" stroke="#000000" style="fill-opacity: 1; stroke-opacity: 1; stroke-width: 1;"><polygon points="382.04,1022.85 822.54,1022.85 822.54,1035.85 382.04,1035.85 "/><g class="Door Swing Beside" fill="#ffffff" id="Door" stroke="#000000" style="fill-opacity: 1; stroke-width: 1; stroke-opacity: 1;"><polygon points="626.97,1022.85 677.78,1022.85 677.78,1035.85 626.97,1035.85 "/><g class="Panel Right Negative" fill="none" id="Panel" style=""><g class="PanelArea" fill="none" id="PanelArea" stroke="none" style=""><polygon points="626.97,1022.85 677.78,1022.85 677.78,1035.85 626.97,1035.85 "/></g><path d="M677.78,1022.85 q0.00,-50.80 -50.80,-50.80 l0.00,50.80Z"/></g></g></g><g class="Wall" fill="#000000" id="Wall" stroke="#000000" style="fill-opacity: 1; stroke-opacity: 1; stroke-width: 1;"><polygon points="616.28,1022.85 616.28,299.80 603.28,299.80 603.28,1022.85 "/><g class="Door Swing Beside" fill="#ffffff" id="Door" stroke="#000000" style="fill-opacity: 1; stroke-width: 1; stroke-opacity: 1;"><polygon points="616.28,789.56 616.28,739.39 603.28,739.39 603.28,789.56 "/><g class="Panel Right Positive" fill="none" id="Panel" style=""><g class="PanelArea" fill="none" id="PanelArea" stroke="none" style=""><polygon points="616.28,789.56 616.28,739.39 603.28,739.39 603.28,789.56 "/></g><path d="M603.28,789.56 q-50.17,0.00 -50.17,-50.17 l50.17,0.00Z"/></g></g><g class="Door Swing Beside" fill="#ffffff" id="Door" stroke="#000000" style="fill-opacity: 1; stroke-width: 1; stroke-opacity: 1;"><polygon points="616.28,589.27 616.28,537.38 603.28,537.38 603.28,589.27 "/><g class="Panel Left Positive" fill="none" id="Panel" style=""><g class="PanelArea" fill="none" id="PanelArea" stroke="none" style=""><polygon points="616.28,589.27 616.28,537.38 603.28,537.38 603.28,589.27 "/></g><path d="M603.28,537.38 q-51.90,0.00 -51.90,51.90 l51.90,0.00Z"/></g></g></g><g class="Wall" fill="#000000" id="Wall" stroke="#000000" style="fill-opacity: 1; stroke-opacity: 1; stroke-width: 1;"><polygon points="616.28,279.80 616.28,111.92 603.28,111.92 603.28,279.80 "/></g><g class="Wall" fill="#000000" id="Wall" stroke="#000000" style="fill-opacity: 1; stroke-opacity: 1; stroke-width: 1;"><polygon points="997.43,279.80 997.43,111.92 977.80,111.92 977.80,279.80 "/></g><g class="Railing" fill="#ffffff" id="Railing" stroke="#000000" style="fill-opacity: 1; stroke-opacity: 1; stroke-width: 1;"><polygon points="616.28,111.92 977.80,111.92 977.80,122.92 616.28,122.92 " style="stroke-dasharray: 0;"/></g><g class="Wall" fill="#000000" id="Wall" stroke="#000000" style="fill-opacity: 1; stroke-opacity: 1; stroke-width: 1;"><polygon points="226.41,659.13 603.28,659.13 603.28,670.13 226.41,670.13 "/></g><g class="Wall" fill="#000000" id="Wall" stroke="#000000" style="fill-opacity: 1; stroke-opacity: 1; stroke-width: 1;"><polygon points="616.28,670.13 977.43,670.13 977.43,659.13 616.28,659.13 "/><g class="Door Swing Beside" fill="#ffffff" id="Door" stroke="#000000" style="fill-opacity: 1; stroke-width: 1; stroke-opacity: 1;"><polygon points="627.04,670.13 678.86,670.13 678.86,659.13 627.04,659.13 "/><g class="Panel Right Negative" fill="none" id="Panel" style=""><g class="PanelArea" fill="none" id="PanelArea" stroke="none" style=""><polygon points="627.04,670.13 678.86,670.13 678.86,659.13 627.04,659.13 "/></g><path d="M678.86,670.13 q0.00,51.83 -51.83,51.83 l0.00,-51.83Z"/></g></g><g class="Door Swing Beside" fill="#ffffff" id="Door" stroke="#000000" style="fill-opacity: 1; stroke-width: 1; stroke-opacity: 1;"><polygon points="679.08,670.13 708.44,670.13 708.44,659.13 679.08,659.13 "/><g class="Panel Left Negative" fill="none" id="Panel" style=""><g class="PanelArea" fill="none" id="PanelArea" stroke="none" style=""><polygon points="679.08,670.13 708.44,670.13 708.44,659.13 679.08,659.13 "/></g><path d="M679.08,670.13 q0.00,29.36 29.36,29.36 l0.00,-29.36Z"/></g></g></g><g class="Wall" fill="#000000" id="Wall" stroke="#000000" style="fill-opacity: 1; stroke-opacity: 1; stroke-width: 1;"><polygon points="724.14,670.13 724.14,847.86 735.14,836.86 735.14,670.13 "/></g><g class="Wall" fill="#000000" id="Wall" stroke="#000000" style="fill-opacity: 1; stroke-opacity: 1; stroke-width: 1;"><polygon points="735.14,836.86 977.43,836.86 977.43,847.86 724.14,847.86 "/><g class="Door Swing Beside" fill="#ffffff" id="Door" stroke="#000000" style="fill-opacity: 1; stroke-width: 1; stroke-opacity: 1;"><polygon points="839.66,836.86 891.90,836.86 891.90,847.86 839.66,847.86 "/><g class="Panel Right Positive" fill="none" id="Panel" style=""><g class="PanelArea" fill="none" id="PanelArea" stroke="none" style=""><polygon points="839.66,836.86 891.90,836.86 891.90,847.86 839.66,847.86 "/></g><path d="M839.66,847.86 q0.00,52.24 52.24,52.24 l0.00,-52.24Z"/></g></g></g><g class="Column FreeShape" fill="#000000" id="Column" stroke="none" style="fill-opacity: 1;"><polygon points="735.14,670.13 977.43,670.13 977.43,701.26 735.14,701.26 735.14,670.13 "/></g><g class="FixedFurnitureSet" fill="#ffffff" id="FixedFurnitureSet" stroke="#000000" style="fill-opacity: 0.4; stroke-opacity: 0.4;" transform="matrix(0,1,-1,0,822.5415,1211.7962)"><g class="FixedFurniture Closet" fill="#ffffff" stroke="#000000" style="fill-opacity: 1; stroke-opacity: 1;" transform="matrix(1,0,0,1,0,0)">
<g class="BoundaryPolygon">
<polygon points="0.00,0.00 57.17,0.00 57.17,60.00 0.00,60.00 "/>
</g>
<g class="Direction" fill-opacity="0.9" style="display: none;">
<polygon fill="#444444" points="30.02,54.70 30.02,44.08 27.01,44.08 27.01,54.70 23.21,54.70 28.51,60.00 33.82,54.70 30.02,54.70 "/>
</g>
<g class="Name" fill-opacity="0.9" style="display: none;">

</g>
<desc>Width:60 Height:200 Depth:60 Elevation:0</desc>
</g><g class="FixedFurniture Closet" fill="#ffffff" stroke="#000000" style="fill-opacity: 1; stroke-opacity: 1;" transform="matrix(1,0,0,1,57.1675,0)">
<g class="BoundaryPolygon">
<polygon points="0.00,0.00 57.17,0.00 57.17,60.00 0.00,60.00 "/>
</g>
<g class="Direction" fill-opacity="0.9" style="display: none;">
<polygon fill="#444444" points="30.02,54.70 30.02,44.08 27.01,44.08 27.01,54.70 23.21,54.70 28.51,60.00 33.82,54.70 30.02,54.70 "/>
</g>
<g class="Name" fill-opacity="0.9" style="display: none;">

</g>
<desc>Width:60 Height:200 Depth:60 Elevation:0</desc>
</g><g class="FixedFurniture Closet" fill="#ffffff" stroke="#000000" style="fill-opacity: 1; stroke-opacity: 1;" transform="matrix(1,0,0,1,114.335,0)">
<g class="BoundaryPolygon">
<polygon points="0.00,0.00 57.17,0.00 57.17,60.00 0.00,60.00 "/>
</g>
<g class="Direction" fill-opacity="0.9" style="display: none;">
<polygon fill="#444444" points="30.02,54.70 30.02,44.08 27.01,44.08 27.01,54.70 23.21,54.70 28.51,60.00 33.82,54.70 30.02,54.70 "/>
</g>
<g class="Name" fill-opacity="0.9" style="display: none;">

</g>
<desc>Width:60 Height:200 Depth:60 Elevation:0</desc>
</g></g><g class="FixedFurniture CoatCloset" fill="#ffffff" stroke="#000000" style="fill-opacity: 1; stroke-opacity: 1;" transform="matrix(0,1,-1,0,977.3872,899.4637)">
<g class="BoundaryPolygon">
<polygon points="0.00,0.00 123.39,0.00 123.39,39.44 0.00,39.44 "/>
</g>

<g class="Direction" fill-opacity="0.9" style="display: none;">
<polygon fill="#444444" points="63.25,35.83 63.25,25.22 60.24,25.22 60.24,35.83 56.43,35.83 61.74,41.14 67.04,35.83 63.25,35.83 "/>
</g>
<g class="Name" fill-opacity="0.9" style="display: none;">

</g>
<desc>Width:120 Height:200 Depth:60 Elevation:0</desc>
</g><g class="FixedFurniture Shower" fill="#ffffff" stroke="#000000" style="fill-opacity: 1; stroke-opacity: 1;" transform="matrix(1,0,0,1,930.9203,701.26)">
<g class="BoundaryPolygon" fill="none" stroke="none">
<polygon points="0,0 32,0 32,19 0,19"/>
</g>
<g class="InnerPolygon">
<rect height="6.1" width="11.2" x="3.7" y="0.5"/>
<rect height="6.1" width="11.2" x="17.6" y="0.5"/>
<rect height="6.1" width="3.4" x="28.7" y="0.5"/>
<rect height="6.1" width="3.2" x="0.5" y="0.5"/>
<path d="M14.9,8.5c0,1.5-0.4,3.3-1.6,5    c-0.4,0.6-1,1.1-1.1,1.7c-0.2,1.1,0.3,2.8,2.5,3.2c0.5,0.1,1.3,0.1,1.6,0.1h-0.1c0.3,0,1.1,0,1.6-0.1c2.2-0.4,2.7-2.1,2.5-3.2    c-0.1-0.6-0.7-1.1-1.1-1.7c-1.2-1.7-1.6-3.5-1.6-5"/>
<path d="M12.2,15.3c0.1,0.2,1.6,1.9,4.2,1.9 c2.4-0.1,3.7-1.7,3.9-1.9"/>
<path d="M14.9,0.5h2.7v8c-0.9,0-1.8,0-2.7,0l0,0 C14.9,5.9,14.9,3.2,14.9,0.5z"/>
</g>
<g class="Indicator">
<path d="M3.7,3.6C5,3.1,5.2,3,5.2,3 c0,1.1,0,0,0,1.1C5.2,4.1,5.1,4.1,3.7,3.6"/>
<path d="M28.7,3.6 C27.4,3.1,27.2,3,27.2,3c0,1.1,0,0,0,1.1C27.2,4.1,27.3,4.1,28.7,3.6"/>
</g>
<desc>Width:32 Height:97 Depth:19 Elevation:135</desc>
</g><g class="FixedFurnitureSet" fill="#ffffff" id="FixedFurnitureSet" stroke="#000000" style="fill-opacity: 0.4; stroke-opacity: 0.4;" transform="matrix(1,0,0,1,859.7011,701.26)"><g class="FixedFurniture BaseCabinet" fill="#ffffff" stroke="#000000" style="fill-opacity: 1; stroke-opacity: 1;" transform="matrix(1,0,0,1,0,0)">
<g class="BoundaryPolygon">
<polygon points="0.00,0.00 48.41,0.00 48.41,38.00 0.00,38.00 "/>
</g>
<g class="Direction" fill-opacity="0.9" style="display: none;">
<polygon fill="#444444" points="25.83,34.96 25.83,24.34 22.82,24.34 22.82,34.96 19.01,34.96 24.32,39.76 29.62,34.96 25.83,34.96 "/>
</g>
<g class="Name" fill-opacity="0.9" style="display: none;">

</g>
<desc>Width:60 Height:5 Depth:60 Elevation:105</desc>
</g><g class="FixedFurniture Sink" fill="#ffffff" stroke="#000000" style="fill-opacity: 1; stroke-opacity: 1;" transform="matrix(1,0,0,1,0,0)">
<g class="BoundaryPolygon" fill="none" stroke="none">
<polygon points="0.00,0.00 48.41,0.00 48.41,38.00 0.00,38.00 "/>
</g>
<g class="InnerPolygon">
<polygon points="4.03,9.70 44.38,9.70 44.38,34.64 4.03,34.64 "/>
</g>
<g class="OuterDrain" stroke-width="0.8">
<circle cx="24.205131993312676" cy="20.392874587956403" r="3.5"/>
</g>
<g class="InnerDrain" stroke-width="0.8">
<circle cx="24.205131993312676" cy="20.392874587956403" r="2"/>
</g>
<g class="Faucet">
<polygon points="21.78,3.17 27.78,3.17 27.78,17.17 21.78,17.17 "/>
</g>
<g class="Direction" fill-opacity="0.9" style="display: none;">
<polygon fill="#444444" points="25.83,34.96 25.83,24.34 22.82,24.34 22.82,34.96 19.01,34.96 24.32,39.76 29.62,34.96 25.83,34.96 "/>
</g>
<g class="Name" fill-opacity="0.9" style="display: none;">

</g>
<desc>Width:60 Height:90 Depth:60 Elevation:0</desc>
</g></g><g class="FixedFurniture Toilet" fill="#ffffff" stroke="#000000" style="fill-opacity: 1; stroke-opacity: 1;" transform="matrix(0.9473,0,0,0.9198,806.7388,701.26)">
<g class="BoundaryPolygon" fill="none" stroke="none">
<polygon points="0,0 41,0 41,71 0,71"/>
</g>
<g class="InnerPolygon">
<rect height="17.98" width="39.989" x="0.502" y="0.5"/>
<path d="M40.491,44.237S41.619,70.5,20.907,70.5C-.523,70.5.6,44.237.6,44.237L.5,18.48H40.491Z"/>
<rect height="3.03" width="6.357" x="17.318" y="7.975"/>
</g>
<desc>Width:41 Height:85 Depth:71 Elevation:0</desc>
</g><g class="FixedFurniture ElectricalAppliance WashingMachine" fill="#ffffff" stroke="#000000" style="fill-opacity: 1; stroke-opacity: 1;" transform="matrix(0.9378,0,0,0.938,735.1356,701.3479)">
<g class="BoundaryPolygon">
<polygon points="0,0 60,0 60,60 0,60"/>
</g>
<g class="electricitySign" fill="none">
<path d="M0,0,30,41V20.8L60,60"/>
</g>
<g class="Handle">
<path d="M2.7,59.4H57.3"/>
</g>
<g class="Direction" fill-opacity="0.9" style="display: none;">
<polygon fill="#444444" points="32.009 55.197 32.009 44.581 29 44.581 29 55.197 25.197 55.197 30.5 60 35.803 55.197 32.009 55.197"/>
</g>
<g class="Name" fill-opacity="0.9" style="display: none;">

</g>
<desc>Width:60 Height:90 Depth:60 Elevation:0</desc>
</g><g class="FixedFurnitureSet" fill="#ffffff" id="FixedFurnitureSet" stroke="#000000" style="fill-opacity: 0.4; stroke-opacity: 0.4;" transform="matrix(0,1,-1,0,822.5415,1036.0822)"><g class="FixedFurniture Closet" fill="#ffffff" stroke="#000000" style="fill-opacity: 1; stroke-opacity: 1;" transform="matrix(1,0,0,1,0,0)">
<g class="BoundaryPolygon">
<polygon points="0.00,0.00 58.57,0.00 58.57,60.00 0.00,60.00 "/>
</g>
<g class="Direction" fill-opacity="0.9" style="display: none;">
<polygon fill="#444444" points="30.76,54.70 30.76,44.08 27.75,44.08 27.75,54.70 23.95,54.70 29.25,60.00 34.56,54.70 30.76,54.70 "/>
</g>
<g class="Name" fill-opacity="0.9" style="display: none;">

</g>
<desc>Width:60 Height:200 Depth:60 Elevation:0</desc>
</g><g class="FixedFurniture Closet" fill="#ffffff" stroke="#000000" style="fill-opacity: 1; stroke-opacity: 1;" transform="matrix(1,0,0,1,58.572,0)">
<g class="BoundaryPolygon">
<polygon points="0.00,0.00 58.57,0.00 58.57,60.00 0.00,60.00 "/>
</g>
<g class="Direction" fill-opacity="0.9" style="display: none;">
<polygon fill="#444444" points="30.76,54.70 30.76,44.08 27.75,44.08 27.75,54.70 23.95,54.70 29.25,60.00 34.56,54.70 30.76,54.70 "/>
</g>
<g class="Name" fill-opacity="0.9" style="display: none;">

</g>
<desc>Width:60 Height:200 Depth:60 Elevation:0</desc>
</g><g class="FixedFurniture Closet" fill="#ffffff" stroke="#000000" style="fill-opacity: 1; stroke-opacity: 1;" transform="matrix(1,0,0,1,117.1441,0)">
<g class="BoundaryPolygon">
<polygon points="0.00,0.00 58.57,0.00 58.57,60.00 0.00,60.00 "/>
</g>
<g class="Direction" fill-opacity="0.9" style="display: none;">
<polygon fill="#444444" points="30.76,54.70 30.76,44.08 27.75,44.08 27.75,54.70 23.95,54.70 29.25,60.00 34.56,54.70 30.76,54.70 "/>
</g>
<g class="Name" fill-opacity="0.9" style="display: none;">

</g>
<desc>Width:60 Height:200 Depth:60 Elevation:0</desc>
</g></g><g class="Wall" fill="#000000" id="Wall" stroke="#000000" style="fill-opacity: 1; stroke-opacity: 1; stroke-width: 1;"><polygon points="735.14,659.13 735.14,599.08 724.14,599.08 724.14,659.13 "/></g><g class="FixedFurnitureSet" fill="#ffffff" id="FixedFurnitureSet" stroke="#000000" style="fill-opacity: 0.4; stroke-opacity: 0.4;" transform="matrix(0,1,-1,0,977.434,299.7969)"><g class="FixedFurniture Closet" fill="#ffffff" stroke="#000000" style="fill-opacity: 1; stroke-opacity: 1;" transform="matrix(1,0,0,1,0,0)">
<g class="BoundaryPolygon">
<polygon points="0.00,0.00 53.13,0.00 53.13,60.00 0.00,60.00 "/>
</g>
<g class="Direction" fill-opacity="0.9" style="display: none;">
<polygon fill="#444444" points="27.90,54.70 27.90,44.08 24.89,44.08 24.89,54.70 21.09,54.70 26.39,60.00 31.69,54.70 27.90,54.70 "/>
</g>
<g class="Name" fill-opacity="0.9" style="display: none;">

</g>
<desc>Width:60 Height:200 Depth:60 Elevation:0</desc>
</g><g class="FixedFurniture Closet" fill="#ffffff" stroke="#000000" style="fill-opacity: 1; stroke-opacity: 1;" transform="matrix(1,0,0,1,53.1265,0)">
<g class="BoundaryPolygon">
<polygon points="0.00,0.00 53.13,0.00 53.13,60.00 0.00,60.00 "/>
</g>
<g class="Direction" fill-opacity="0.9" style="display: none;">
<polygon fill="#444444" points="27.90,54.70 27.90,44.08 24.89,44.08 24.89,54.70 21.09,54.70 26.39,60.00 31.69,54.70 27.90,54.70 "/>
</g>
<g class="Name" fill-opacity="0.9" style="display: none;">

</g>
<desc>Width:60 Height:200 Depth:60 Elevation:0</desc>
</g></g><g class="FixedFurniture ElectricalAppliance Refrigerator" fill="#ffffff" stroke="#000000" style="fill-opacity: 1; stroke-opacity: 1;" transform="matrix(0,0.8812,-1,0,977.3559,406.0535)">
<g class="BoundaryPolygon">
<polygon points="0,0 60,0 60,60 0,60"/>
</g>
<g class="electricitySign" fill="none">
<path d="M0,0,30,37.1v-18L60,56.3"/>
</g>
<g class="Doors">
<rect height="4" width="60" y="56"/>
</g>
<g class="Direction" fill-opacity="0.9" style="display: none;">
<polygon fill="#444444" points="32.009 55.197 32.009 44.581 29 44.581 29 55.197 25.197 55.197 30.5 60 35.803 55.197 32.009 55.197"/>
</g>
<g class="Name" fill-opacity="0.9" style="display: none;">

</g>
<desc>Width:60 Height:170 Depth:60 Elevation:0</desc>
</g><g class="FixedFurniture BaseCabinet" fill="#ffffff" stroke="#000000" style="fill-opacity: 1; stroke-opacity: 1;" transform="matrix(1,0,0,1,977.3559,458.3752)"><desc>Width:60 Height:90 Depth:60 Elevation:0</desc><g class="BoundaryPolygon"><polygon points="0.00,0.00 -60.08,0.00 -60.08,140.16 -242.22,140.16 -242.22,200.20 0.00,200.20 "/></g></g><g class="FixedFurniture ElectricalAppliance IntegratedStove" fill="#ffffff" stroke="#000000" style="fill-opacity: 1; stroke-opacity: 1;" transform="matrix(-1,0,0,-1,918.3722,659.1122)">
<g class="BoundaryPolygon" fill="none" stroke="none">
<polygon points="0.00,0.00 65.33,0.00 65.33,60.00 0.00,60.00 "/>
</g>
<g class="InnerPolygon">
<polygon points="2.00,2.00 63.15,2.00 63.15,58.00 2.00,58.00 "/>
</g>
<g class="OuterCircle">
<circle cx="17.42012157386696" cy="16" r="8"/>
<circle cx="47.90533432813414" cy="16" r="8"/>
<circle cx="17.42012157386696" cy="44" r="8"/>
<circle cx="47.90533432813414" cy="44" r="8"/>
</g>
<g class="Direction" fill-opacity="0.9" style="display: none;">
<polygon fill="#444444" points="34.85,55.20 34.85,44.58 31.84,44.58 31.84,55.20 28.04,55.20 33.34,60.00 38.64,55.20 34.85,55.20 "/>
</g>
<g class="Name" fill-opacity="0.9" style="display: none;">

</g>
<desc>Width:60 Height:90 Depth:30 Elevation:0</desc>
</g><g class="FixedFurniture Sink" fill="#ffffff" stroke="#000000" style="fill-opacity: 1; stroke-opacity: 1;" transform="matrix(-1,0,0,-1,800.2859,659.0854)">
<g class="BoundaryPolygon" fill="none" stroke="none">
<polygon points="0.00,0.00 65.15,0.00 65.15,60.00 0.00,60.00 "/>
</g>
<g class="InnerPolygon">
<polygon points="5.43,9.70 59.72,9.70 59.72,54.70 5.43,54.70 "/>
</g>
<g class="OuterDrain" stroke-width="0.8">
<circle cx="32.57667695722974" cy="32.2" r="3.5"/>
</g>
<g class="InnerDrain" stroke-width="0.8">
<circle cx="32.57667695722974" cy="32.2" r="2"/>
</g>
<g class="Faucet">
<polygon points="29.32,5.00 35.32,5.00 35.32,19.00 29.32,19.00 "/>
</g>
<g class="Direction" fill-opacity="0.9" style="display: none;">
<polygon fill="#444444" points="34.76,55.20 34.76,44.58 31.75,44.58 31.75,55.20 27.95,55.20 33.25,60.00 38.55,55.20 34.76,55.20 "/>
</g>
<g class="Name" fill-opacity="0.9" style="display: none;">

</g>
<desc>Width:60 Height:90 Depth:60 Elevation:0</desc>
</g><g class="SelectionControls" fill="#0000ff" stroke="#0000ff" style="display: none;"><g class="rotateControl" style="display: none;"><circle cx="805.553970258785" cy="409.2640172254987" r="5" style="stroke : none; fill-opacity: 0.5; cursor:crosshair"/></g><g class="ResizeNControl" style="display: none;"><circle cx="0" cy="0" r="5" style="stroke : none; fill-opacity: 0.5"/></g><g class="ResizeNEControl" style="display: none;"><circle cx="0" cy="0" r="5" style="stroke : none; fill-opacity: 0.5"/></g><g class="ResizeEControl" style="display: none;"><circle cx="0" cy="0" r="5" style="stroke : none; fill-opacity: 0.5"/></g><g class="ResizeSEControl" style="display: none;"><circle cx="0" cy="0" r="5" style="stroke : none; fill-opacity: 0.5"/></g><g class="ResizeSControl" style="display: none;"><circle cx="0" cy="0" r="5" style="stroke : none; fill-opacity: 0.5"/></g><g class="ResizeSWControl" style="display: none;"><circle cx="0" cy="0" r="5" style="stroke : none; fill-opacity: 0.5"/></g><g class="ResizeWControl" style="display: none;"><circle cx="0" cy="0" r="5" style="stroke : none; fill-opacity: 0.5"/></g><g class="ResizeNWControl" style="display: none;"><circle cx="0" cy="0" r="5" style="stroke : none; fill-opacity: 0.5"/></g><g class="removeControl" style="display: none;"><polygon points="794.12,439.26 816.98,439.26 816.98,479.05 794.12,479.05 " style="stroke : none; fill-opacity: 0.1"/></g><g class="copyPasteControl" style="display: none;"><polygon style="stroke : none; fill-opacity: 0.1"/></g><g class="translateControl" style="display: none;"><polygon points="794.12,439.26 816.98,439.26 816.98,479.05 794.12,479.05 " style="stroke : none; fill-opacity: 0.1; cursor:move"/></g></g><g class="SelectionControls" fill="#0000ff" stroke="#0000ff" style="display: none;"><polygon fill="none" points="616.28,299.80 977.43,299.80 977.43,659.13 616.28,659.13 " stroke="#0000ff" style=""/><g class="rotateControl" style="display: none;"><circle cx="796.8571328320271" cy="269.7969172254987" r="5" style="stroke : none; fill-opacity: 0.5; cursor:crosshair"/></g><g class="ResizeNControl" style="display: none;"><circle cx="0" cy="0" r="5" style="stroke : none; fill-opacity: 0.5"/></g><g class="ResizeNEControl" style="display: none;"><circle cx="0" cy="0" r="5" style="stroke : none; fill-opacity: 0.5"/></g><g class="ResizeEControl" style="display: none;"><circle cx="0" cy="0" r="5" style="stroke : none; fill-opacity: 0.5"/></g><g class="ResizeSEControl" style="display: none;"><circle cx="0" cy="0" r="5" style="stroke : none; fill-opacity: 0.5"/></g><g class="ResizeSControl" style="display: none;"><circle cx="0" cy="0" r="5" style="stroke : none; fill-opacity: 0.5"/></g><g class="ResizeSWControl" style="display: none;"><circle cx="0" cy="0" r="5" style="stroke : none; fill-opacity: 0.5"/></g><g class="ResizeWControl" style="display: none;"><circle cx="0" cy="0" r="5" style="stroke : none; fill-opacity: 0.5"/></g><g class="ResizeNWControl" style="display: none;"><circle cx="0" cy="0" r="5" style="stroke : none; fill-opacity: 0.5"/></g><g class="removeControl" style="display: none;"><polygon style="stroke : none; fill-opacity: 0.1"/></g><g class="copyPasteControl" style="display: none;"><polygon style="stroke : none; fill-opacity: 0.1"/></g><g class="translateControl" style="display: none;"><polygon style="stroke : none; fill-opacity: 0.1; cursor:move"/></g></g></g></g></g></svg>