<?xml version="1.0" encoding="utf-8"?>
<svg height="813.4299850463867" id="temp" version="1.1" viewBox="0 0 1086.370002746582 813.4299850463867" width="1086.370002746582" xmlns="http://www.w3.org/2000/svg" xmlns:xlink="http://www.w3.org/1999/xlink"><defs/><g class="Model v1-1" id="Model"><g class="Floor"><g class="Floorplan Floor-1" id="Floor-1"><g class="Space LivingRoom" fill="#ffffff" id="e6116933-061d-4119-87f8-cd1d74eb4efe" stroke="#ffffff" style="fill-opacity: 1; stroke-opacity: 1; stroke-width: 1;"><polygon points="763.75,704.69 408.27,704.69 408.27,127.39 763.75,127.39 "/><g class="Dimension" transform="matrix(1,0,0,1,408.2721,127.3881)"><g class="Visual" style="display: none;" transform="matrix(1,0,0,1,0,0)"><g class="DimensionMark" fill="#000000" id="mark1" stroke="none" style="fill-opacity: 1; pointer-events: visible;" transform="matrix(1,0,0,1,177.7394,0)"><polygon points="-5,5,0,0,5,5"/></g><g class="DimensionMark" fill="#000000" id="mark2" stroke="none" style="fill-opacity: 1; pointer-events: visible;" transform="matrix(1,0,0,1,355.4788,288.6502)"><polygon points="-5,-5,0,0,-5,5"/></g><g class="DimensionMark" fill="#000000" id="mark3" stroke="none" style="fill-opacity: 1; pointer-events: visible;" transform="matrix(1,0,0,1,177.7394,577.3004)"><polygon points="-5,-5,0,0,5,-5"/></g><g class="DimensionMark" fill="#000000" id="mark4" stroke="none" style="fill-opacity: 1; pointer-events: visible;" transform="matrix(1,0,0,1,0,288.6502)"><polygon points="5,5,0,0,5,-5"/></g></g><g class="SpaceDimensionsLabel" transform="matrix(1,0,0,1,161.3762,259.4303)"><g class="TextLabel NameLabel" id="NameLabel" style="display: block;"/><g class="TextLabel DimensionMeasureLabel" id="DimensionMeasureLabel" style="display: none;" transform="matrix(1,0,0,1,-114.6094,79.3281)"/></g></g></g><g class="Space Entry Lobby" fill="#ffffff" id="de890b2a-c0df-483e-84e5-a75c4d8d0344" stroke="#ffffff" style="fill-opacity: 1; stroke-opacity: 1; stroke-width: 1;"><polygon points="863.52,569.24 1061.37,569.24 1061.37,704.69 763.75,704.69 763.75,533.11 773.75,533.11 773.75,406.20 863.52,406.20 "/><g class="Dimension" transform="matrix(1,0,0,1,763.7509,406.1959)"><g class="Visual" style="display: none;" transform="matrix(1,0,0,1,0,0)"><g class="DimensionMark" fill="#000000" id="mark1" stroke="none" style="fill-opacity: 1; pointer-events: visible;" transform="matrix(1,0,0,1,99.7728,0)"><polygon points="-5,5,0,0,5,5"/></g><g class="DimensionMark" fill="#000000" id="mark2" stroke="none" style="fill-opacity: 1; pointer-events: visible;" transform="matrix(1,0,0,1,297.619,163.0431)"><polygon points="-5,-5,0,0,-5,5"/></g><g class="DimensionMark" fill="#000000" id="mark3" stroke="none" style="fill-opacity: 1; pointer-events: visible;" transform="matrix(1,0,0,1,99.7728,298.4926)"><polygon points="-5,-5,0,0,5,-5"/></g><g class="DimensionMark" fill="#000000" id="mark4" stroke="none" style="fill-opacity: 1; pointer-events: visible;" transform="matrix(1,0,0,1,0,163.0431)"><polygon points="5,5,0,0,5,-5"/></g></g><g class="SpaceDimensionsLabel" transform="matrix(1,0,0,1,82.1009,245.3836)"><g class="TextLabel NameLabel" id="NameLabel" style="display: block;"/><g class="TextLabel DimensionMeasureLabel" id="DimensionMeasureLabel" style="display: none;" transform="matrix(1,0,0,1,-119.1484,80.3281)"/></g></g></g><g class="Space Room" fill="#ffffff" id="cf5550ee-79df-41e9-bd18-9cd03ead512a" stroke="#ffffff" style="fill-opacity: 1; stroke-opacity: 1; stroke-width: 1;"><polygon points="398.27,562.98 91.12,562.98 91.12,127.39 398.27,127.39 "/><g class="Dimension" transform="matrix(1,0,0,1,91.1201,127.3881)"><g class="Visual" style="display: none;" transform="matrix(1,0,0,1,0,0)"><g class="DimensionMark" fill="#000000" id="mark1" stroke="none" style="fill-opacity: 1; pointer-events: visible;" transform="matrix(1,0,0,1,153.576,0)"><polygon points="-5,5,0,0,5,5"/></g><g class="DimensionMark" fill="#000000" id="mark2" stroke="none" style="fill-opacity: 1; pointer-events: visible;" transform="matrix(1,0,0,1,307.152,217.7981)"><polygon points="-5,-5,0,0,-5,5"/></g><g class="DimensionMark" fill="#000000" id="mark3" stroke="none" style="fill-opacity: 1; pointer-events: visible;" transform="matrix(1,0,0,1,153.576,435.5962)"><polygon points="-5,-5,0,0,5,-5"/></g><g class="DimensionMark" fill="#000000" id="mark4" stroke="none" style="fill-opacity: 1; pointer-events: visible;" transform="matrix(1,0,0,1,0,217.7981)"><polygon points="5,5,0,0,5,-5"/></g></g><g class="SpaceDimensionsLabel" transform="matrix(1,0,0,1,152.4072,217.7981)"><g class="TextLabel NameLabel" id="NameLabel" style="display: block;"/><g class="TextLabel DimensionMeasureLabel" id="DimensionMeasureLabel" style="display: none;" transform="matrix(1,0,0,1,-127.5937,79.3281)"/></g></g></g><g class="Space Kitchen" fill="#ffffff" id="0840522e-e7c4-4b71-bb81-e3c0d846ea87" stroke="#ffffff" style="fill-opacity: 1; stroke-opacity: 1; stroke-width: 1;"><polygon points="1061.37,393.27 773.75,393.27 773.75,127.39 1061.37,127.39 "/><g class="Dimension" transform="matrix(1,0,0,1,773.7509,127.3881)"><g class="Visual" style="display: none;" transform="matrix(1,0,0,1,0,0)"><g class="DimensionMark" fill="#000000" id="mark1" stroke="none" style="fill-opacity: 1; pointer-events: visible;" transform="matrix(1,0,0,1,143.8095,0)"><polygon points="-5,5,0,0,5,5"/></g><g class="DimensionMark" fill="#000000" id="mark2" stroke="none" style="fill-opacity: 1; pointer-events: visible;" transform="matrix(1,0,0,1,287.619,132.9418)"><polygon points="-5,-5,0,0,-5,5"/></g><g class="DimensionMark" fill="#000000" id="mark3" stroke="none" style="fill-opacity: 1; pointer-events: visible;" transform="matrix(1,0,0,1,143.8095,265.8836)"><polygon points="-5,-5,0,0,5,-5"/></g><g class="DimensionMark" fill="#000000" id="mark4" stroke="none" style="fill-opacity: 1; pointer-events: visible;" transform="matrix(1,0,0,1,0,132.9418)"><polygon points="5,5,0,0,5,-5"/></g></g><g class="SpaceDimensionsLabel" transform="matrix(1,0,0,1,45.6304,128.2666)"><g class="TextLabel NameLabel" id="NameLabel" style="display: block;"/><g class="TextLabel DimensionMeasureLabel" id="DimensionMeasureLabel" style="display: none;" transform="matrix(1,0,0,1,-70.9219,79.3281)"/></g></g></g><g class="Space Bath" fill="#ffffff" id="d0c20178-6f9f-496b-a5bb-ce8808b3a068" stroke="#ffffff" style="fill-opacity: 1; stroke-opacity: 1; stroke-width: 1;"><polygon points="1061.37,558.24 874.52,558.24 874.52,406.20 1061.37,406.20 "/><g class="Dimension" transform="matrix(1,0,0,1,874.5237,406.1959)"><g class="Visual" style="display: none;" transform="matrix(1,0,0,1,0,0)"><g class="DimensionMark" fill="#000000" id="mark1" stroke="none" style="fill-opacity: 1; pointer-events: visible;" transform="matrix(1,0,0,1,93.4231,0)"><polygon points="-5,5,0,0,5,5"/></g><g class="DimensionMark" fill="#000000" id="mark2" stroke="none" style="fill-opacity: 1; pointer-events: visible;" transform="matrix(1,0,0,1,186.8462,76.0216)"><polygon points="-5,-5,0,0,-5,5"/></g><g class="DimensionMark" fill="#000000" id="mark3" stroke="none" style="fill-opacity: 1; pointer-events: visible;" transform="matrix(1,0,0,1,93.4231,152.0431)"><polygon points="-5,-5,0,0,5,-5"/></g><g class="DimensionMark" fill="#000000" id="mark4" stroke="none" style="fill-opacity: 1; pointer-events: visible;" transform="matrix(1,0,0,1,0,76.0216)"><polygon points="5,5,0,0,5,-5"/></g></g><g class="SpaceDimensionsLabel" transform="matrix(1,0,0,1,64.3336,109.9167)"><g class="TextLabel NameLabel" id="NameLabel" style="display: block;"/><g class="TextLabel DimensionMeasureLabel" id="DimensionMeasureLabel" style="display: none;" transform="matrix(1,0,0,1,-106.2109,79.3281)"/></g></g></g><g class="Space Undefined" fill="#ffffff" id="93cd0a2e-3a29-46e7-b93a-f514e0d6ad0c" stroke="#ffffff" style="fill-opacity: 1; stroke-opacity: 1; stroke-width: 1;"><polygon points="279.71,704.69 91.12,704.69 91.12,573.98 279.71,573.98 "/><g class="Dimension" transform="matrix(1,0,0,1,91.1201,573.9843)"><g class="Visual" style="display: none;" transform="matrix(1,0,0,1,0,0)"><g class="DimensionMark" fill="#000000" id="mark1" stroke="none" style="fill-opacity: 1; pointer-events: visible;" transform="matrix(1,0,0,1,94.2959,0)"><polygon points="-5,5,0,0,5,5"/></g><g class="DimensionMark" fill="#000000" id="mark2" stroke="none" style="fill-opacity: 1; pointer-events: visible;" transform="matrix(1,0,0,1,188.5919,65.3521)"><polygon points="-5,-5,0,0,-5,5"/></g><g class="DimensionMark" fill="#000000" id="mark3" stroke="none" style="fill-opacity: 1; pointer-events: visible;" transform="matrix(1,0,0,1,94.2959,130.7042)"><polygon points="-5,-5,0,0,5,-5"/></g><g class="DimensionMark" fill="#000000" id="mark4" stroke="none" style="fill-opacity: 1; pointer-events: visible;" transform="matrix(1,0,0,1,0,65.3521)"><polygon points="5,5,0,0,5,-5"/></g></g><g class="SpaceDimensionsLabel" transform="matrix(1,0,0,1,-0.3767,72.3649)"><g class="TextLabel NameLabel" id="NameLabel" style="display: block;"/><g class="TextLabel DimensionMeasureLabel" id="DimensionMeasureLabel" style="display: none;" transform="matrix(1,0,0,1,-40.5234,79.3281)"/></g></g></g><g class="Space Closet WalkIn" fill="#ffffff" id="fe60cd52-a6a4-4429-9f40-bd3cbfcd80cb" stroke="#ffffff" style="fill-opacity: 1; stroke-opacity: 1; stroke-width: 1;"><polygon points="398.27,704.69 290.71,704.69 290.71,573.98 398.27,573.98 "/><g class="Dimension" transform="matrix(1,0,0,1,290.712,573.9843)"><g class="Visual" style="display: none;" transform="matrix(1,0,0,1,0,0)"><g class="DimensionMark" fill="#000000" id="mark1" stroke="none" style="fill-opacity: 1; pointer-events: visible;" transform="matrix(1,0,0,1,53.7801,0)"><polygon points="-5,5,0,0,5,5"/></g><g class="DimensionMark" fill="#000000" id="mark2" stroke="none" style="fill-opacity: 1; pointer-events: visible;" transform="matrix(1,0,0,1,107.5601,65.3521)"><polygon points="-5,-5,0,0,-5,5"/></g><g class="DimensionMark" fill="#000000" id="mark3" stroke="none" style="fill-opacity: 1; pointer-events: visible;" transform="matrix(1,0,0,1,53.7801,130.7042)"><polygon points="-5,-5,0,0,5,-5"/></g><g class="DimensionMark" fill="#000000" id="mark4" stroke="none" style="fill-opacity: 1; pointer-events: visible;" transform="matrix(1,0,0,1,0,65.3521)"><polygon points="5,5,0,0,5,-5"/></g></g><g class="SpaceDimensionsLabel" transform="matrix(1,0,0,1,31.5729,80.6624)"><g class="TextLabel NameLabel" id="NameLabel" style="display: block;"/><g class="TextLabel DimensionMeasureLabel" id="DimensionMeasureLabel" style="display: none;" transform="matrix(1,0,0,1,-116.3125,80.3281)"/></g></g></g><g class="Wall External" fill="#000000" id="Wall" stroke="#000000" style="fill-opacity: 1; stroke-opacity: 1; stroke-width: 1;"><polygon points="91.12,127.39 1061.37,127.39 1086.37,75.39 66.12,75.39 "/><g class="Window Regular" fill="#f0f0ff" id="Window" stroke="#000000" style="fill-opacity: 1; stroke-width: 1; stroke-opacity: 1;"><polygon points="134.25,127.39 333.71,127.39 333.71,75.39 134.25,75.39 "/><g class="Glass" id="Glass"><polygon points="134.25,127.39 333.71,127.39 333.71,75.39 134.25,75.39 "/></g><g class="Panel" id="Panel"><line x1="141.7522376178704" x2="326.21320108878245" y1="101.38811142074087" y2="101.38811142074083"/><line x1="141.7522376178704" x2="141.7522376178704" y1="127.38811142074087" y2="75.38811142074088"/><line x1="326.2132010887825" x2="326.2132010887825" y1="127.38811142074083" y2="75.38811142074084"/></g></g><g class="Window Regular" fill="#f0f0ff" id="Window" stroke="#000000" style="fill-opacity: 1; stroke-width: 1; stroke-opacity: 1;"><polygon points="463.63,127.39 692.74,127.39 692.74,75.39 463.63,75.39 "/><g class="Glass" id="Glass"><polygon points="463.63,127.39 692.74,127.39 692.74,75.39 463.63,75.39 "/></g><g class="Panel" id="Panel"><line x1="471.13233721923484" x2="685.2428469928541" y1="101.38811142074081" y2="101.38811142074077"/><line x1="471.13233721923484" x2="471.13233721923484" y1="127.38811142074081" y2="75.38811142074081"/><line x1="685.2428469928541" x2="685.2428469928541" y1="127.38811142074077" y2="75.38811142074077"/></g></g><g class="Window Regular" fill="#f0f0ff" id="Window" stroke="#000000" style="fill-opacity: 1; stroke-width: 1; stroke-opacity: 1;"><polygon points="812.42,127.39 975.76,127.39 975.76,75.39 812.42,75.39 "/><g class="Glass" id="Glass"><polygon points="812.42,127.39 975.76,127.39 975.76,75.39 812.42,75.39 "/></g><g class="Panel" id="Panel"><line x1="819.9194120790692" x2="968.2617284588495" y1="101.38811142074076" y2="101.38811142074073"/><line x1="819.9194120790692" x2="819.9194120790692" y1="127.38811142074076" y2="75.38811142074076"/><line x1="968.2617284588495" x2="968.2617284588495" y1="127.38811142074073" y2="75.38811142074073"/></g></g></g><g class="Wall External" fill="#000000" id="Wall" stroke="#000000" style="fill-opacity: 1; stroke-opacity: 1; stroke-width: 1;"><polygon points="1086.37,75.39 1086.37,728.69 1061.37,704.69 1061.37,127.39 "/></g><g class="Wall External" fill="#000000" id="Wall" stroke="#000000" style="fill-opacity: 1; stroke-opacity: 1; stroke-width: 1;"><polygon points="1086.37,728.69 66.12,728.69 91.12,704.69 1061.37,704.69 "/><g class="Door Swing Opposite" fill="#ffffff" id="Door" stroke="#000000" style="fill-opacity: 1; stroke-width: 1; stroke-opacity: 1;"><polygon points="1052.03,728.69 967.29,728.69 967.29,704.69 1052.03,704.69 "/><g class="Panel Left Negative" fill="none" id="Panel" style=""><g class="PanelArea" fill="none" id="PanelArea" stroke="none" style=""><polygon points="1052.03,728.69 967.29,728.69 967.29,704.69 1052.03,704.69 "/></g><path d="M1052.03,728.69 q0.00,84.74 -84.74,84.74 l0.00,-84.74Z"/></g><g class="Panel Left Positive" fill="none" id="Panel" style=""><g class="PanelArea" fill="none" id="PanelArea" stroke="none" style=""><polygon points="1052.03,728.69 967.29,728.69 967.29,704.69 1052.03,704.69 "/></g><path d="M967.29,704.69 q0.00,-84.74 84.74,-84.74 l0.00,84.74Z"/></g></g></g><g class="Wall External" fill="#000000" id="Wall" stroke="#000000" style="fill-opacity: 1; stroke-opacity: 1; stroke-width: 1;"><polygon points="91.12,704.69 91.12,127.39 66.12,75.39 66.12,728.69 "/></g><g class="Wall" fill="#000000" id="Wall" stroke="#000000" style="fill-opacity: 1; stroke-opacity: 1; stroke-width: 1;"><polygon points="408.27,728.69 408.27,75.39 398.27,75.39 398.27,728.69 "/><g class="Door Swing Beside" fill="#ffffff" id="Door" stroke="#000000" style="fill-opacity: 1; stroke-width: 1; stroke-opacity: 1;"><polygon points="408.27,492.81 408.27,411.53 398.27,411.53 398.27,492.81 "/><g class="Panel Right Negative" fill="none" id="Panel" style=""><g class="PanelArea" fill="none" id="PanelArea" stroke="none" style=""><polygon points="408.27,492.81 408.27,411.53 398.27,411.53 398.27,492.81 "/></g><path d="M408.27,411.53 q81.28,0.00 81.28,81.28 l-81.28,0.00Z"/></g></g></g><g class="Wall" fill="#000000" id="Wall" stroke="#000000" style="fill-opacity: 1; stroke-opacity: 1; stroke-width: 1;"><polygon points="773.75,75.39 773.75,533.11 763.75,533.11 763.75,75.39 "/></g><g class="Wall" fill="#000000" id="Wall" stroke="#000000" style="fill-opacity: 1; stroke-opacity: 1; stroke-width: 1;"><polygon points="763.75,393.27 1086.37,393.27 1086.37,406.20 763.75,406.20 "/><g class="Door Swing Beside" fill="#ffffff" id="Door" stroke="#000000" style="fill-opacity: 1; stroke-width: 1; stroke-opacity: 1;"><polygon points="789.39,393.27 858.98,393.27 858.98,406.20 789.39,406.20 "/><g class="Panel Left Positive" fill="none" id="Panel" style=""><g class="PanelArea" fill="none" id="PanelArea" stroke="none" style=""><polygon points="789.39,393.27 858.98,393.27 858.98,406.20 789.39,406.20 "/></g><path d="M858.98,406.20 q0.00,69.59 -69.59,69.59 l0.00,-69.59Z"/></g></g></g><g class="Wall" fill="#000000" id="Wall" stroke="#000000" style="fill-opacity: 1; stroke-opacity: 1; stroke-width: 1;"><polygon points="874.52,393.27 874.52,558.24 863.52,569.24 863.52,393.27 "/><g class="Door Swing Beside" fill="#ffffff" id="Door" stroke="#000000" style="fill-opacity: 1; stroke-width: 1; stroke-opacity: 1;"><polygon points="874.52,469.69 874.52,528.24 863.52,528.24 863.52,469.69 "/><g class="Panel Left Positive" fill="none" id="Panel" style=""><g class="PanelArea" fill="none" id="PanelArea" stroke="none" style=""><polygon points="874.52,469.69 874.52,528.24 863.52,528.24 863.52,469.69 "/></g><path d="M863.52,528.24 q-58.55,0.00 -58.55,-58.55 l58.55,0.00Z"/></g></g></g><g class="Wall" fill="#000000" id="Wall" stroke="#000000" style="fill-opacity: 1; stroke-opacity: 1; stroke-width: 1;"><polygon points="863.52,569.24 1086.37,569.24 1086.37,558.24 874.52,558.24 "/></g><g class="Wall" fill="#000000" id="Wall" stroke="#000000" style="fill-opacity: 1; stroke-opacity: 1; stroke-width: 1;"><polygon points="66.12,573.98 408.27,573.98 408.27,562.98 66.12,562.98 "/><g class="Door Swing Beside" fill="#ffffff" id="Door" stroke="#000000" style="fill-opacity: 1; stroke-width: 1; stroke-opacity: 1;"><polygon points="312.98,573.98 373.79,573.98 373.79,562.98 312.98,562.98 "/><g class="Panel Right Positive" fill="none" id="Panel" style=""><g class="PanelArea" fill="none" id="PanelArea" stroke="none" style=""><polygon points="312.98,573.98 373.79,573.98 373.79,562.98 312.98,562.98 "/></g><path d="M312.98,562.98 q0.00,-60.81 60.81,-60.81 l0.00,60.81Z"/></g></g><g class="Door Swing Beside" fill="#ffffff" id="Door" stroke="#000000" style="fill-opacity: 1; stroke-width: 1; stroke-opacity: 1;"><polygon points="214.24,573.98 273.84,573.98 273.84,562.98 214.24,562.98 "/><g class="Panel Left Positive" fill="none" id="Panel" style=""><g class="PanelArea" fill="none" id="PanelArea" stroke="none" style=""><polygon points="214.24,573.98 273.84,573.98 273.84,562.98 214.24,562.98 "/></g><path d="M273.84,562.98 q0.00,-59.61 -59.61,-59.61 l0.00,59.61Z"/></g></g></g><g class="Wall" fill="#000000" id="Wall" stroke="#000000" style="fill-opacity: 1; stroke-opacity: 1; stroke-width: 1;"><polygon points="290.71,562.98 290.71,728.69 279.71,728.69 279.71,562.98 "/></g><g class="Column Rectangle" fill="#000000" id="Column" stroke="none" style="fill-opacity: 1;"><polygon points="91.12,573.98 91.12,597.77 98.22,597.77 98.22,573.98 "/></g><g class="Column Rectangle" fill="#000000" id="Column" stroke="none" style="fill-opacity: 1;"><polygon points="398.27,573.98 398.27,596.20 378.58,596.20 378.58,573.98 "/></g><g class="Column Rectangle" fill="#000000" id="Column" stroke="none" style="fill-opacity: 1;"><polygon points="751.68,533.11 751.68,569.55 783.09,569.55 783.09,533.11 "/></g><g class="Column Rectangle" fill="#000000" id="Column" stroke="none" style="fill-opacity: 1;"><polygon points="874.52,558.24 874.52,528.69 927.20,528.69 927.20,558.24 "/></g><g class="FixedFurniture Toilet" fill="#ffffff" stroke="#000000" style="fill-opacity: 1; stroke-opacity: 1;" transform="matrix(1,0,0,1,882.4095,409.5416)">
<g class="BoundaryPolygon" fill="none" stroke="none">
<polygon points="0,0 41,0 41,71 0,71"/>
</g>
<g class="InnerPolygon">
<rect height="17.98" width="39.989" x="0.502" y="0.5"/>
<path d="M40.491,44.237S41.619,70.5,20.907,70.5C-.523,70.5.6,44.237.6,44.237L.5,18.48H40.491Z"/>
<rect height="3.03" width="6.357" x="17.318" y="7.975"/>
</g>
<desc>Width:41 Height:85 Depth:71 Elevation:0</desc>
</g><g class="FixedFurnitureSet" fill="#ffffff" id="FixedFurnitureSet" stroke="#000000" style="fill-opacity: 0.4; stroke-opacity: 0.4;" transform="matrix(1,0,0,1,927.2838,406.1959)"><g class="FixedFurniture BaseCabinet" fill="#ffffff" stroke="#000000" style="fill-opacity: 1; stroke-opacity: 1;" transform="matrix(1,0,0,1,0,0)">
<g class="BoundaryPolygon">
<polygon points="0.00,0.00 56.13,0.00 56.13,41.40 0.00,41.40 "/>
</g>
<g class="Direction" fill-opacity="0.9" style="display: none;">
<polygon fill="#444444" points="29.94,38.09 29.94,27.47 26.93,27.47 26.93,38.09 23.13,38.09 28.43,42.89 33.74,38.09 29.94,38.09 "/>
</g>
<g class="Name" fill-opacity="0.9" style="display: none;">

</g>
<desc>Width:60 Height:5 Depth:60 Elevation:105</desc>
</g><g class="FixedFurniture Sink" fill="#ffffff" stroke="#000000" style="fill-opacity: 1; stroke-opacity: 1;" transform="matrix(1,0,0,1,0,0)">
<g class="BoundaryPolygon" fill="none" stroke="none">
<polygon points="0.00,0.00 56.13,0.00 56.13,41.40 0.00,41.40 "/>
</g>
<g class="InnerPolygon">
<polygon points="4.68,9.70 51.45,9.70 51.45,37.75 4.68,37.75 "/>
</g>
<g class="OuterDrain" stroke-width="0.8">
<circle cx="28.062843772728314" cy="22.21977111709628" r="3.5"/>
</g>
<g class="InnerDrain" stroke-width="0.8">
<circle cx="28.062843772728314" cy="22.21977111709628" r="2"/>
</g>
<g class="Faucet">
<polygon points="25.26,3.45 31.26,3.45 31.26,17.45 25.26,17.45 "/>
</g>
<g class="Direction" fill-opacity="0.9" style="display: none;">
<polygon fill="#444444" points="29.94,38.09 29.94,27.47 26.93,27.47 26.93,38.09 23.13,38.09 28.43,42.89 33.74,38.09 29.94,38.09 "/>
</g>
<g class="Name" fill-opacity="0.9" style="display: none;">

</g>
<desc>Width:60 Height:90 Depth:60 Elevation:0</desc>
</g></g><g class="FixedFurniture ElectricalAppliance SpaceForAppliance2" fill="#ffffff" stroke="#000000" style="fill-opacity: 1; stroke-opacity: 1;" transform="matrix(1.0065,0,0,0.8515,997.7024,411.8777)">
<g class="BoundaryPolygon">
<polygon points="0,0 60,0 60,60 0,60"/>
</g>
<g class="electricitySign" fill="none">
<path d="M0,0,30.1,39.8V19.4L59.9,60"/>
</g>
<g class="Direction" fill-opacity="0.9" style="display: none;">
<polygon fill="#444444" points="32.009 55.197 32.009 44.581 29 44.581 29 55.197 25.197 55.197 30.5 60 35.803 55.197 32.009 55.197"/>
</g>
<g class="Name" fill-opacity="0.9" style="display: none;">

</g>
<desc>Width:60 Height:90 Depth:60 Elevation:0</desc>
</g><g class="FixedFurniture Shower" fill="#ffffff" stroke="#000000" style="fill-opacity: 1; stroke-opacity: 1;" transform="matrix(-1,0,0,-1,1033.5291,558.239)">
<g class="BoundaryPolygon" fill="none" stroke="none">
<polygon points="0,0 32,0 32,19 0,19"/>
</g>
<g class="InnerPolygon">
<rect height="6.1" width="11.2" x="3.7" y="0.5"/>
<rect height="6.1" width="11.2" x="17.6" y="0.5"/>
<rect height="6.1" width="3.4" x="28.7" y="0.5"/>
<rect height="6.1" width="3.2" x="0.5" y="0.5"/>
<path d="M14.9,8.5c0,1.5-0.4,3.3-1.6,5    c-0.4,0.6-1,1.1-1.1,1.7c-0.2,1.1,0.3,2.8,2.5,3.2c0.5,0.1,1.3,0.1,1.6,0.1h-0.1c0.3,0,1.1,0,1.6-0.1c2.2-0.4,2.7-2.1,2.5-3.2    c-0.1-0.6-0.7-1.1-1.1-1.7c-1.2-1.7-1.6-3.5-1.6-5"/>
<path d="M12.2,15.3c0.1,0.2,1.6,1.9,4.2,1.9 c2.4-0.1,3.7-1.7,3.9-1.9"/>
<path d="M14.9,0.5h2.7v8c-0.9,0-1.8,0-2.7,0l0,0 C14.9,5.9,14.9,3.2,14.9,0.5z"/>
</g>
<g class="Indicator">
<path d="M3.7,3.6C5,3.1,5.2,3,5.2,3 c0,1.1,0,0,0,1.1C5.2,4.1,5.1,4.1,3.7,3.6"/>
<path d="M28.7,3.6 C27.4,3.1,27.2,3,27.2,3c0,1.1,0,0,0,1.1C27.2,4.1,27.3,4.1,28.7,3.6"/>
</g>
<desc>Width:32 Height:97 Depth:19 Elevation:135</desc>
</g><g class="FixedFurniture CoatRack" fill="#ffffff" stroke="#000000" style="fill-opacity: 1; stroke-opacity: 1;" transform="matrix(1,0,0,1,923.7159,569.239)">
<g class="BoundaryPolygon">
<polygon points="0.00,0.00 137.65,0.00 137.65,33.49 0.00,33.49 "/>
</g>
<g class="Bar" stroke-width="0.65">
<line x1="0" x2="137.65404319088344" y1="4.688163369272464" y2="4.688163369272464"/>
<line x1="0" x2="137.65404319088344" y1="8.818212051726777" y2="8.818212051726777"/>
<line x1="0" x2="137.65404319088344" y1="12.836637796817463" y2="12.836637796817463"/>
<line x1="0" x2="137.65404319088344" y1="16.74344060454452" y2="16.74344060454452"/>
<line x1="0" x2="137.65404319088344" y1="20.761866349635206" y2="20.761866349635206"/>
<line x1="0" x2="137.65404319088344" y1="24.780292094725887" y2="24.780292094725887"/>
<line x1="0" x2="137.65404319088344" y1="28.910340777180195" y2="28.910340777180195"/>
</g>
<g class="Direction" fill-opacity="0.9" style="display: none;">
<polygon fill="#444444" points="71.14,27.57 71.14,16.95 68.13,16.95 68.13,27.57 64.32,27.57 69.63,32.87 74.93,27.57 71.14,27.57 "/>
</g>
<g class="Name" fill-opacity="0.9" style="display: none;">

</g>
<desc>Width:90 Height:30 Depth:30 Elevation:160</desc>
</g><g class="FixedFurniture ElectricalAppliance Refrigerator" fill="#ffffff" stroke="#000000" style="fill-opacity: 1; stroke-opacity: 1;" transform="matrix(0,1,-1,0,1061.198,127.3881)">
<g class="BoundaryPolygon">
<polygon points="0,0 60,0 60,60 0,60"/>
</g>
<g class="electricitySign" fill="none">
<path d="M0,0,30,37.1v-18L60,56.3"/>
</g>
<g class="Doors">
<rect height="4" width="60" y="56"/>
</g>
<g class="Direction" fill-opacity="0.9" style="display: none;">
<polygon fill="#444444" points="32.009 55.197 32.009 44.581 29 44.581 29 55.197 25.197 55.197 30.5 60 35.803 55.197 32.009 55.197"/>
</g>
<g class="Name" fill-opacity="0.9" style="display: none;">

</g>
<desc>Width:60 Height:170 Depth:60 Elevation:0</desc>
</g><g class="FixedFurniture BaseCabinet" fill="#ffffff" stroke="#000000" style="fill-opacity: 1; stroke-opacity: 1;" transform="matrix(-1,0,0,-1,995.97,393.2717)">
<g class="BoundaryPolygon">
<polygon points="0.00,0.00 131.43,0.00 131.43,60.00 0.00,60.00 "/>
</g>
<g class="Direction" fill-opacity="0.9" style="display: none;">
<polygon fill="#444444" points="70.12,55.20 70.12,44.58 67.11,44.58 67.11,55.20 63.31,55.20 68.61,60.00 73.91,55.20 70.12,55.20 "/>
</g>
<g class="Name" fill-opacity="0.9" style="display: none;">

</g>
<desc>Width:60 Height:90 Depth:60 Elevation:0</desc>
</g><g class="Column Rectangle" fill="#000000" id="Column" stroke="none" style="fill-opacity: 1;"><polygon points="1061.20,393.10 1061.20,332.93 995.97,332.93 995.97,393.10 "/></g><g class="FixedFurniture BaseCabinet" fill="#ffffff" stroke="#000000" style="fill-opacity: 1; stroke-opacity: 1;" transform="matrix(0,1,-1,0,1061.198,187.3881)">
<g class="BoundaryPolygon">
<polygon points="0.00,0.00 145.62,0.00 145.62,60.00 0.00,60.00 "/>
</g>
<g class="Direction" fill-opacity="0.9" style="display: none;">
<polygon fill="#444444" points="77.69,55.20 77.69,44.58 74.68,44.58 74.68,55.20 70.88,55.20 76.18,60.00 81.48,55.20 77.69,55.20 "/>
</g>
<g class="Name" fill-opacity="0.9" style="display: none;">

</g>
<desc>Width:60 Height:90 Depth:60 Elevation:0</desc>
</g><g class="FixedFurniture SideSink" fill="#ffffff" stroke="#000000" style="fill-opacity: 1; stroke-opacity: 1;" transform="matrix(-1,0,0,-1,997.4732,399.4975)">
<g class="BoundaryPolygon" fill="none" stroke="none">
<polygon points="0.00,0.00 48.83,0.00 48.83,66.41 0.00,66.41 0.00,0.00 "/>
</g>
<g class="InnerPolygonTop">
<polygon points="5.10,11.07 40.77,11.07 40.77,31.88 5.10,31.88 "/>
</g>
<g class="InnerPolygonBottom">
<polygon points="5.00,34.64 40.69,34.64 40.69,60.88 5.00,60.88 "/>
</g>
<g class="OuterDrain" stroke-width="0.8">
<circle cx="22.381012706294715" cy="21.47656478268514" r="3.5"/>
<circle cx="22.381012706294715" cy="48.19968510162383" r="3.5"/>
</g>
<g class="InnerDrain" stroke-width="0.8">
<circle cx="22.381012706294715" cy="21.47656478268514" r="2"/>
<circle cx="22.381012706294715" cy="48.19968510162383" r="2"/>
</g>
<g class="Faucet">
<polygon points="44.84,29.89 44.84,35.89 30.84,35.89 30.84,29.89 44.84,29.89 "/>
</g>
<g class="Direction" fill-opacity="0.9" style="display: none;">
<polygon fill="#444444" points="23.61,60.54 23.61,49.93 20.60,49.93 20.60,60.54 16.80,60.54 22.10,65.85 27.40,60.54 23.61,60.54 "/>
</g>
<g class="Name" fill-opacity="0.9" style="display: none;">

</g>
<desc>Width:60 Height:90 Depth:60 Elevation:0</desc>
</g><g class="FixedFurniture ElectricalAppliance IntegratedStove" fill="#ffffff" stroke="#000000" style="fill-opacity: 1; stroke-opacity: 1;" transform="matrix(0,1,-1,0,1061.198,267.572)">
<g class="BoundaryPolygon" fill="none" stroke="none">
<polygon points="0.00,0.00 65.40,0.00 65.40,60.00 0.00,60.00 "/>
</g>
<g class="InnerPolygon">
<polygon points="2.00,2.00 63.22,2.00 63.22,58.00 2.00,58.00 "/>
</g>
<g class="OuterCircle">
<circle cx="17.439065979027003" cy="16" r="8"/>
<circle cx="47.95743144232423" cy="16" r="8"/>
<circle cx="17.439065979027003" cy="44" r="8"/>
<circle cx="47.95743144232423" cy="44" r="8"/>
</g>
<g class="Direction" fill-opacity="0.9" style="display: none;">
<polygon fill="#444444" points="34.89,55.20 34.89,44.58 31.88,44.58 31.88,55.20 28.08,55.20 33.38,60.00 38.68,55.20 34.89,55.20 "/>
</g>
<g class="Name" fill-opacity="0.9" style="display: none;">

</g>
<desc>Width:60 Height:90 Depth:30 Elevation:0</desc>
</g><g class="SelectionControls" fill="#0000ff" stroke="#0000ff" style="display: none;"><g class="rotateControl" style="display: none;"><circle cx="866.6877152520888" cy="588.1107663760531" r="5" style="stroke : none; fill-opacity: 0.5; cursor:crosshair"/></g><g class="ResizeNControl" style="display: none;"><circle cx="0" cy="0" r="5" style="stroke : none; fill-opacity: 0.5"/></g><g class="ResizeNEControl" style="display: none;"><circle cx="0" cy="0" r="5" style="stroke : none; fill-opacity: 0.5"/></g><g class="ResizeEControl" style="display: none;"><circle cx="0" cy="0" r="5" style="stroke : none; fill-opacity: 0.5"/></g><g class="ResizeSEControl" style="display: none;"><circle cx="0" cy="0" r="5" style="stroke : none; fill-opacity: 0.5"/></g><g class="ResizeSControl" style="display: none;"><circle cx="0" cy="0" r="5" style="stroke : none; fill-opacity: 0.5"/></g><g class="ResizeSWControl" style="display: none;"><circle cx="0" cy="0" r="5" style="stroke : none; fill-opacity: 0.5"/></g><g class="ResizeWControl" style="display: none;"><circle cx="0" cy="0" r="5" style="stroke : none; fill-opacity: 0.5"/></g><g class="ResizeNWControl" style="display: none;"><circle cx="0" cy="0" r="5" style="stroke : none; fill-opacity: 0.5"/></g><g class="removeControl" style="display: none;"><polygon points="845.85,618.11 887.52,618.11 887.52,658.83 845.85,658.83 " style="stroke : none; fill-opacity: 0.1"/></g><g class="copyPasteControl" style="display: none;"><polygon style="stroke : none; fill-opacity: 0.1"/></g><g class="translateControl" style="display: none;"><polygon points="845.85,618.11 887.52,618.11 887.52,658.83 845.85,658.83 " style="stroke : none; fill-opacity: 0.1; cursor:move"/></g></g><g class="SelectionControls" fill="#0000ff" stroke="#0000ff" style="display: none;"><polygon fill="none" points="763.75,406.20 1061.37,406.20 1061.37,704.69 763.75,704.69 " stroke="#0000ff" style=""/><g class="rotateControl" style="display: none;"><circle cx="912.5603717706435" cy="376.19591637605305" r="5" style="stroke : none; fill-opacity: 0.5; cursor:crosshair"/></g><g class="ResizeNControl" style="display: none;"><circle cx="0" cy="0" r="5" style="stroke : none; fill-opacity: 0.5"/></g><g class="ResizeNEControl" style="display: none;"><circle cx="0" cy="0" r="5" style="stroke : none; fill-opacity: 0.5"/></g><g class="ResizeEControl" style="display: none;"><circle cx="0" cy="0" r="5" style="stroke : none; fill-opacity: 0.5"/></g><g class="ResizeSEControl" style="display: none;"><circle cx="0" cy="0" r="5" style="stroke : none; fill-opacity: 0.5"/></g><g class="ResizeSControl" style="display: none;"><circle cx="0" cy="0" r="5" style="stroke : none; fill-opacity: 0.5"/></g><g class="ResizeSWControl" style="display: none;"><circle cx="0" cy="0" r="5" style="stroke : none; fill-opacity: 0.5"/></g><g class="ResizeWControl" style="display: none;"><circle cx="0" cy="0" r="5" style="stroke : none; fill-opacity: 0.5"/></g><g class="ResizeNWControl" style="display: none;"><circle cx="0" cy="0" r="5" style="stroke : none; fill-opacity: 0.5"/></g><g class="removeControl" style="display: none;"><polygon style="stroke : none; fill-opacity: 0.1"/></g><g class="copyPasteControl" style="display: none;"><polygon style="stroke : none; fill-opacity: 0.1"/></g><g class="translateControl" style="display: none;"><polygon style="stroke : none; fill-opacity: 0.1; cursor:move"/></g></g></g></g></g></svg>