<?xml version="1.0" encoding="utf-8"?>
<svg height="1036.7000751495361" id="temp" version="1.1" viewBox="0 0 1463.353359222412 1036.7000751495361" width="1463.353359222412" xmlns="http://www.w3.org/2000/svg" xmlns:xlink="http://www.w3.org/1999/xlink"><defs/><g class="Model v1-1" id="Model"><g class="Floor"><g class="Floorplan Floor-1" id="Floor-1"><g class="Space Kitchen" fill="#ffffff" id="feb83700-bf5d-4407-8d8d-df7fee0582bb" stroke="#ffffff" style="fill-opacity: 1; stroke-opacity: 1; stroke-width: 1;"><polygon points="1001.69,523.73 711.14,523.73 711.14,298.38 999.69,298.38 "/><g class="Dimension" transform="matrix(1,0,0,1,711.1443,298.3838)"><g class="Visual" style="display: none;" transform="matrix(1,0,0,1,0,0)"><g class="DimensionMark" fill="#000000" id="mark1" stroke="none" style="fill-opacity: 1; pointer-events: visible;" transform="matrix(1,0,0,1,145.2736,0)"><polygon points="-5,5,0,0,5,5"/></g><g class="DimensionMark" fill="#000000" id="mark2" stroke="none" style="fill-opacity: 1; pointer-events: visible;" transform="matrix(1,0,0,1,289.5473,112.6803)"><polygon points="-5,-5,0,0,-5,5"/></g><g class="DimensionMark" fill="#000000" id="mark3" stroke="none" style="fill-opacity: 1; pointer-events: visible;" transform="matrix(1,0,0,1,145.2736,225.3428)"><polygon points="-5,-5,0,0,5,-5"/></g><g class="DimensionMark" fill="#000000" id="mark4" stroke="none" style="fill-opacity: 1; pointer-events: visible;" transform="matrix(1,0,0,1,0,112.6803)"><polygon points="5,5,0,0,5,-5"/></g></g><g class="SpaceDimensionsLabel" style="display: block;" transform="matrix(1,0,0,1,138.2435,124.2951)"><g class="TextLabel NameLabel" id="NameLabel" style="display: block;"/><g class="TextLabel DimensionMeasureLabel" id="DimensionMeasureLabel" style="display: none;" transform="matrix(1,0,0,1,-128.5547,79.3125)"/></g></g></g><g class="Space Dining" fill="#ffffff" id="36631003-618c-4c10-a36a-f97247f853ee" stroke="#ffffff" style="fill-opacity: 1; stroke-opacity: 1; stroke-width: 1;"><polygon points="1230.01,523.73 1001.69,523.73 999.69,298.38 1230.01,298.38 "/><g class="Dimension" transform="matrix(1,0,0,1,1000.6914,298.3838)"><g class="Visual" style="display: none;" transform="matrix(1,0,0,1,0,0)"><g class="DimensionMark" fill="#000000" id="mark1" stroke="none" style="fill-opacity: 1; pointer-events: visible;" transform="matrix(1,0,0,1,114.1584,0)"><polygon points="-5,5,0,0,5,5"/></g><g class="DimensionMark" fill="#000000" id="mark2" stroke="none" style="fill-opacity: 1; pointer-events: visible;" transform="matrix(1,0,0,1,229.3168,112.6625)"><polygon points="-5,-5,0,0,-5,5"/></g><g class="DimensionMark" fill="#000000" id="mark3" stroke="none" style="fill-opacity: 1; pointer-events: visible;" transform="matrix(1,0,0,1,114.1584,225.3428)"><polygon points="-5,-5,0,0,5,-5"/></g><g class="DimensionMark" fill="#000000" id="mark4" stroke="none" style="fill-opacity: 1; pointer-events: visible;" transform="matrix(1,0,0,1,0,112.6625)"><polygon points="5,5,0,0,5,-5"/></g></g><g class="SpaceDimensionsLabel" style="display: block;" transform="matrix(1,0,0,1,101.8716,125.2937)"><g class="TextLabel NameLabel" id="NameLabel" style="display: block;"/><g class="TextLabel DimensionMeasureLabel" id="DimensionMeasureLabel" style="display: none;" transform="matrix(1,0,0,1,-118.4375,79.3125)"/></g></g></g><g class="Space Entry Lobby" fill="#ffffff" id="9f8c73fd-4208-438f-a3c2-f652a30d7ee9" stroke="#ffffff" style="fill-opacity: 1; stroke-opacity: 1; stroke-width: 1;"><polygon points="699.14,378.52 711.14,378.52 711.14,523.73 766.67,523.73 766.67,916.65 581.88,916.65 581.88,515.25 460.92,515.25 460.92,361.03 699.14,361.03 "/><g class="Dimension" transform="matrix(1,0,0,1,581.8797,361.0339)"><g class="Visual" style="display: none;" transform="matrix(1,0,0,1,0,0)"><g class="DimensionMark" fill="#000000" id="mark1" stroke="none" style="fill-opacity: 1; pointer-events: visible;" transform="matrix(1,0,0,1,31.9177,0)"><polygon points="-5,5,0,0,5,5"/></g><g class="DimensionMark" fill="#000000" id="mark2" stroke="none" style="fill-opacity: 1; pointer-events: visible;" transform="matrix(1,0,0,1,184.792,277.808)"><polygon points="-5,-5,0,0,-5,5"/></g><g class="DimensionMark" fill="#000000" id="mark3" stroke="none" style="fill-opacity: 1; pointer-events: visible;" transform="matrix(1,0,0,1,31.9177,555.6159)"><polygon points="-5,-5,0,0,5,-5"/></g><g class="DimensionMark" fill="#000000" id="mark4" stroke="none" style="fill-opacity: 1; pointer-events: visible;" transform="matrix(1,0,0,1,0,277.808)"><polygon points="5,5,0,0,5,-5"/></g></g><g class="SpaceDimensionsLabel" style="display: block;" transform="matrix(1,0,0,1,59.6851,288.1837)"><g class="TextLabel NameLabel" id="NameLabel" style="display: block;"/><g class="TextLabel DimensionMeasureLabel" id="DimensionMeasureLabel" style="display: none;" transform="matrix(1,0,0,1,-118.9922,79.3125)"/></g></g></g><g class="Space LivingRoom" fill="#ffffff" id="111beac1-9d0b-48a4-b98d-5fb4ab11bf9c" stroke="#ffffff" style="fill-opacity: 1; stroke-opacity: 1; stroke-width: 1;"><polygon points="1230.01,916.65 766.67,916.65 766.67,523.73 1230.01,523.73 "/><g class="Dimension" transform="matrix(1,0,0,1,766.6717,523.7266)"><g class="Visual" style="display: none;" transform="matrix(1,0,0,1,0,0)"><g class="DimensionMark" fill="#000000" id="mark1" stroke="none" style="fill-opacity: 1; pointer-events: visible;" transform="matrix(1,0,0,1,231.6683,0)"><polygon points="-5,5,0,0,5,5"/></g><g class="DimensionMark" fill="#000000" id="mark2" stroke="none" style="fill-opacity: 1; pointer-events: visible;" transform="matrix(1,0,0,1,463.3365,196.4616)"><polygon points="-5,-5,0,0,-5,5"/></g><g class="DimensionMark" fill="#000000" id="mark3" stroke="none" style="fill-opacity: 1; pointer-events: visible;" transform="matrix(1,0,0,1,231.6683,392.9232)"><polygon points="-5,-5,0,0,5,-5"/></g><g class="DimensionMark" fill="#000000" id="mark4" stroke="none" style="fill-opacity: 1; pointer-events: visible;" transform="matrix(1,0,0,1,0,196.4616)"><polygon points="5,5,0,0,5,-5"/></g></g><g class="SpaceDimensionsLabel" style="display: block;" transform="matrix(1,0,0,1,220.8713,211.5724)"><g class="TextLabel NameLabel" id="NameLabel" style="display: block;"/><g class="TextLabel DimensionMeasureLabel" id="DimensionMeasureLabel" style="display: none;" transform="matrix(1,0,0,1,-114.6093,79.3125)"/></g></g></g><g class="Space Bath" fill="#ffffff" id="a66d85ef-813d-44bc-aebf-028ee0bb8733" stroke="#ffffff" style="fill-opacity: 1; stroke-opacity: 1; stroke-width: 1;"><polygon points="584.15,242.71 566.73,242.71 566.73,350.03 460.92,350.03 461.00,119.00 584.15,107.00 "/><g class="Dimension" transform="matrix(1,0,0,1,460.9635,112.9473)"><g class="Visual" style="display: none;" transform="matrix(1,0,0,1,0,0)"><g class="DimensionMark" fill="#000000" id="mark1" stroke="none" style="fill-opacity: 1; pointer-events: visible;" transform="matrix(1,0,0,1,62.1521,0)"><polygon points="-5,5,0,0,5,5"/></g><g class="DimensionMark" fill="#000000" id="mark2" stroke="none" style="fill-opacity: 1; pointer-events: visible;" transform="matrix(1,0,0,1,123.1856,115.5697)"><polygon points="-5,-5,0,0,-5,5"/></g><g class="DimensionMark" fill="#000000" id="mark3" stroke="none" style="fill-opacity: 1; pointer-events: visible;" transform="matrix(1,0,0,1,62.1521,237.0866)"><polygon points="-5,-5,0,0,5,-5"/></g><g class="DimensionMark" fill="#000000" id="mark4" stroke="none" style="fill-opacity: 1; pointer-events: visible;" transform="matrix(1,0,0,1,0,115.5697)"><polygon points="5,5,0,0,5,-5"/></g></g><g class="SpaceDimensionsLabel" style="display: block;" transform="matrix(1,0,0,1,29.0161,171.7231)"><g class="TextLabel NameLabel" id="NameLabel" style="display: block;"/><g class="TextLabel DimensionMeasureLabel" id="DimensionMeasureLabel" style="display: none;" transform="matrix(1,0,0,1,-116.1718,79.3594)"/></g></g></g><g class="Space Bath" fill="#ffffff" id="4e18fba0-5590-4520-a47a-f244f1f362e0" stroke="#ffffff" style="fill-opacity: 1; stroke-opacity: 1; stroke-width: 1;"><polygon points="699.14,350.03 584.15,350.03 584.15,107.00 699.14,95.99 "/><g class="Dimension" transform="matrix(1,0,0,1,584.1492,101.4428)"><g class="Visual" style="display: none;" transform="matrix(1,0,0,1,0,0)"><g class="DimensionMark" fill="#000000" id="mark1" stroke="none" style="fill-opacity: 1; pointer-events: visible;" transform="matrix(1,0,0,1,58.0202,0)"><polygon points="-5,5,0,0,5,5"/></g><g class="DimensionMark" fill="#000000" id="mark2" stroke="none" style="fill-opacity: 1; pointer-events: visible;" transform="matrix(1,0,0,1,114.9951,121.567)"><polygon points="-5,-5,0,0,-5,5"/></g><g class="DimensionMark" fill="#000000" id="mark3" stroke="none" style="fill-opacity: 1; pointer-events: visible;" transform="matrix(1,0,0,1,58.0202,248.5911)"><polygon points="-5,-5,0,0,5,-5"/></g><g class="DimensionMark" fill="#000000" id="mark4" stroke="none" style="fill-opacity: 1; pointer-events: visible;" transform="matrix(1,0,0,1,0,121.567)"><polygon points="5,5,0,0,5,-5"/></g></g><g class="SpaceDimensionsLabel" style="display: block;" transform="matrix(1,0,0,1,41.5483,185.2633)"><g class="TextLabel NameLabel" id="NameLabel" style="display: block;"/><g class="TextLabel DimensionMeasureLabel" id="DimensionMeasureLabel" style="display: none;" transform="matrix(1,0,0,1,-112.1718,79.3593)"/></g></g></g><g class="Space Bedroom" fill="#ffffff" id="d343a94a-66f5-4429-b2b8-54aa4e4d99f9" stroke="#ffffff" style="fill-opacity: 1; stroke-opacity: 1; stroke-width: 1;"><polygon points="448.92,430.81 64.91,430.81 64.91,157.26 449.00,120.00 "/><g class="Dimension" transform="matrix(1,0,0,1,64.9143,138.4564)"><g class="Visual" style="display: none;" transform="matrix(1,0,0,1,0,0)"><g class="DimensionMark" fill="#000000" id="mark1" stroke="none" style="fill-opacity: 1; pointer-events: visible;" transform="matrix(1,0,0,1,193.8333,0)"><polygon points="-5,5,0,0,5,5"/></g><g class="DimensionMark" fill="#000000" id="mark2" stroke="none" style="fill-opacity: 1; pointer-events: visible;" transform="matrix(1,0,0,1,384.048,136.9503)"><polygon points="-5,-5,0,0,-5,5"/></g><g class="DimensionMark" fill="#000000" id="mark3" stroke="none" style="fill-opacity: 1; pointer-events: visible;" transform="matrix(1,0,0,1,193.8333,292.3569)"><polygon points="-5,-5,0,0,5,-5"/></g><g class="DimensionMark" fill="#000000" id="mark4" stroke="none" style="fill-opacity: 1; pointer-events: visible;" transform="matrix(1,0,0,1,0,136.9503)"><polygon points="5,5,0,0,5,-5"/></g></g><g class="SpaceDimensionsLabel" style="display: block;" transform="matrix(1,0,0,1,164.9003,166.4354)"><g class="TextLabel NameLabel" id="NameLabel" style="display: block;"/><g class="TextLabel DimensionMeasureLabel" id="DimensionMeasureLabel" style="display: none;" transform="matrix(1,0,0,1,-113.6875,80.6875)"/></g></g></g><g class="Space Bedroom" fill="#ffffff" id="7599804d-73ce-4c87-8bd6-e22d2ebc5cad" stroke="#ffffff" style="fill-opacity: 1; stroke-opacity: 1; stroke-width: 1;"><polygon points="1230.01,284.36 845.84,284.36 845.84,82.00 1230.01,44.50 "/><g class="Dimension" transform="matrix(1,0,0,1,845.8384,63.0722)"><g class="Visual" style="display: none;" transform="matrix(1,0,0,1,0,0)"><g class="DimensionMark" fill="#000000" id="mark1" stroke="none" style="fill-opacity: 1; pointer-events: visible;" transform="matrix(1,0,0,1,193.898,0)"><polygon points="-5,5,0,0,5,5"/></g><g class="DimensionMark" fill="#000000" id="mark2" stroke="none" style="fill-opacity: 1; pointer-events: visible;" transform="matrix(1,0,0,1,384.1698,101.3563)"><polygon points="-5,-5,0,0,-5,5"/></g><g class="DimensionMark" fill="#000000" id="mark3" stroke="none" style="fill-opacity: 1; pointer-events: visible;" transform="matrix(1,0,0,1,193.898,221.2864)"><polygon points="-5,-5,0,0,5,-5"/></g><g class="DimensionMark" fill="#000000" id="mark4" stroke="none" style="fill-opacity: 1; pointer-events: visible;" transform="matrix(1,0,0,1,0,101.3563)"><polygon points="5,5,0,0,5,-5"/></g></g><g class="SpaceDimensionsLabel" style="display: block;" transform="matrix(1,0,0,1,159.4752,113.1427)"><g class="TextLabel NameLabel" id="NameLabel" style="display: block;"/><g class="TextLabel DimensionMeasureLabel" id="DimensionMeasureLabel" style="display: none;" transform="matrix(1,0,0,1,-113.7032,79.5)"/></g></g></g><g class="Space Bedroom" fill="#ffffff" id="72333fd2-180f-443e-b9cd-f01eaccbb5f4" stroke="#ffffff" style="fill-opacity: 1; stroke-opacity: 1; stroke-width: 1;"><polygon points="448.92,655.60 64.91,655.60 64.91,442.81 448.92,442.81 "/><g class="Dimension" transform="matrix(1,0,0,1,64.9143,442.8133)"><g class="Visual" style="display: none;" transform="matrix(1,0,0,1,0,0)"><g class="DimensionMark" fill="#000000" id="mark1" stroke="none" style="fill-opacity: 1; pointer-events: visible;" transform="matrix(1,0,0,1,192.0051,0)"><polygon points="-5,5,0,0,5,5"/></g><g class="DimensionMark" fill="#000000" id="mark2" stroke="none" style="fill-opacity: 1; pointer-events: visible;" transform="matrix(1,0,0,1,384.0095,106.3946)"><polygon points="-5,-5,0,0,-5,5"/></g><g class="DimensionMark" fill="#000000" id="mark3" stroke="none" style="fill-opacity: 1; pointer-events: visible;" transform="matrix(1,0,0,1,192.0051,212.7891)"><polygon points="-5,-5,0,0,5,-5"/></g><g class="DimensionMark" fill="#000000" id="mark4" stroke="none" style="fill-opacity: 1; pointer-events: visible;" transform="matrix(1,0,0,1,0,106.3946)"><polygon points="5,5,0,0,5,-5"/></g></g><g class="SpaceDimensionsLabel" style="display: block;" transform="matrix(1,0,0,1,156.8502,114.4674)"><g class="TextLabel NameLabel" id="NameLabel" style="display: block;"/><g class="TextLabel DimensionMeasureLabel" id="DimensionMeasureLabel" style="display: none;" transform="matrix(1,0,0,1,-113.6875,80.6875)"/></g></g></g><g class="Space Outdoor Balcony Glazed" fill="#ffffff" id="44ed7594-c622-486f-8fe3-0cbd9f22755a" stroke="#000000" style="fill-opacity: 1; stroke-opacity: 1; stroke-width: 1;"><polygon points="1456.35,901.07 1254.01,901.07 1254.01,571.52 1456.35,571.52 "/><g class="Dimension" transform="matrix(1,0,0,1,1254.0082,571.5209)"><g class="Visual" style="display: none;" transform="matrix(1,0,0,1,0,0)"><g class="DimensionMark" fill="#000000" id="mark1" stroke="none" style="fill-opacity: 1; pointer-events: visible;" transform="matrix(1,0,0,1,101.1726,0)"><polygon points="-5,5,0,0,5,5"/></g><g class="DimensionMark" fill="#000000" id="mark2" stroke="none" style="fill-opacity: 1; pointer-events: visible;" transform="matrix(1,0,0,1,202.3452,164.7741)"><polygon points="-5,-5,0,0,-5,5"/></g><g class="DimensionMark" fill="#000000" id="mark3" stroke="none" style="fill-opacity: 1; pointer-events: visible;" transform="matrix(1,0,0,1,101.1726,329.5482)"><polygon points="-5,-5,0,0,5,-5"/></g><g class="DimensionMark" fill="#000000" id="mark4" stroke="none" style="fill-opacity: 1; pointer-events: visible;" transform="matrix(1,0,0,1,0,164.7741)"><polygon points="5,5,0,0,5,-5"/></g></g><g class="SpaceDimensionsLabel" style="display: block;" transform="matrix(0,-1,1,0,124.3167,334.7018)"><g class="TextLabel NameLabel" id="NameLabel" style="display: block;"/><g class="TextLabel DimensionMeasureLabel" id="DimensionMeasureLabel" style="display: none;" transform="matrix(1,0,0,1,32.7187,79.5157)"/></g></g></g><g class="Space Sauna" fill="#ffffff" id="30219d5d-8554-41ec-8906-e9d12ca41c76" stroke="#ffffff" style="fill-opacity: 1; stroke-opacity: 1; stroke-width: 1;"><polygon points="836.84,240.56 711.14,240.56 711.14,95.00 836.84,82.55 "/><g class="Dimension" transform="matrix(1,0,0,1,711.1443,88.7149)"><g class="Visual" style="display: none;" transform="matrix(1,0,0,1,0,0)"><g class="DimensionMark" fill="#000000" id="mark1" stroke="none" style="fill-opacity: 1; pointer-events: visible;" transform="matrix(1,0,0,1,63.4576,0)"><polygon points="-5,5,0,0,5,5"/></g><g class="DimensionMark" fill="#000000" id="mark2" stroke="none" style="fill-opacity: 1; pointer-events: visible;" transform="matrix(1,0,0,1,125.6941,72.8382)"><polygon points="-5,-5,0,0,-5,5"/></g><g class="DimensionMark" fill="#000000" id="mark3" stroke="none" style="fill-opacity: 1; pointer-events: visible;" transform="matrix(1,0,0,1,63.4576,151.8406)"><polygon points="-5,-5,0,0,5,-5"/></g><g class="DimensionMark" fill="#000000" id="mark4" stroke="none" style="fill-opacity: 1; pointer-events: visible;" transform="matrix(1,0,0,1,0,72.8382)"><polygon points="5,5,0,0,5,-5"/></g></g><g class="SpaceDimensionsLabel" style="display: block;" transform="matrix(1,0,0,1,5.3942,97.2429)"><g class="TextLabel NameLabel" id="NameLabel" style="display: block;"/><g class="TextLabel DimensionMeasureLabel" id="DimensionMeasureLabel" style="display: none;" transform="matrix(1,0,0,1,-81.6719,79.3593)"/></g></g></g><g class="Space Closet WalkIn" fill="#ffffff" id="14feb2ce-5741-488c-9a3a-c733931ea267" stroke="#ffffff" style="fill-opacity: 1; stroke-opacity: 1; stroke-width: 1;"><polygon points="564.88,655.60 460.92,655.60 460.92,527.25 564.88,527.25 "/><g class="Dimension" transform="matrix(1,0,0,1,460.9231,527.2544)"><g class="Visual" style="display: none;" transform="matrix(1,0,0,1,0,0)"><g class="DimensionMark" fill="#000000" id="mark1" stroke="none" style="fill-opacity: 1; pointer-events: visible;" transform="matrix(1,0,0,1,51.9783,0)"><polygon points="-5,5,0,0,5,5"/></g><g class="DimensionMark" fill="#000000" id="mark2" stroke="none" style="fill-opacity: 1; pointer-events: visible;" transform="matrix(1,0,0,1,103.9566,64.174)"><polygon points="-5,-5,0,0,-5,5"/></g><g class="DimensionMark" fill="#000000" id="mark3" stroke="none" style="fill-opacity: 1; pointer-events: visible;" transform="matrix(1,0,0,1,51.9783,128.348)"><polygon points="-5,-5,0,0,5,-5"/></g><g class="DimensionMark" fill="#000000" id="mark4" stroke="none" style="fill-opacity: 1; pointer-events: visible;" transform="matrix(1,0,0,1,0,64.174)"><polygon points="5,5,0,0,5,-5"/></g></g><g class="SpaceDimensionsLabel" style="display: block;" transform="matrix(1,0,0,1,26.662,75.4257)"><g class="TextLabel NameLabel" id="NameLabel" style="display: block;"/><g class="TextLabel DimensionMeasureLabel" id="DimensionMeasureLabel" style="display: none;" transform="matrix(1,0,0,1,-116.3125,79.3125)"/></g></g></g><g class="Wall External" fill="#000000" id="Wall" stroke="#000000" style="fill-opacity: 1; stroke-opacity: 1; stroke-width: 1;"><polygon points="1230.01,916.65 581.88,916.65 565.88,938.65 1254.01,938.65 "/><g class="Door Swing Opposite" fill="#ffffff" id="Door" stroke="#000000" style="fill-opacity: 1; stroke-width: 1; stroke-opacity: 1;"><polygon points="694.36,916.65 596.30,916.65 596.30,938.65 694.36,938.65 "/><g class="Panel Left Negative" fill="none" id="Panel" style=""><g class="PanelArea" fill="none" id="PanelArea" stroke="none" style=""><polygon points="694.36,916.65 596.30,916.65 596.30,938.65 694.36,938.65 "/></g><path d="M694.36,916.65 q0.00,-98.05 -98.05,-98.05 l0.00,98.05Z"/></g><g class="Panel Right Positive" fill="none" id="Panel" style=""><g class="PanelArea" fill="none" id="PanelArea" stroke="none" style=""><polygon points="694.36,916.65 596.30,916.65 596.30,938.65 694.36,938.65 "/></g><path d="M694.36,938.65 q0.00,98.05 -98.05,98.05 l0.00,-98.05Z"/></g></g></g><g class="Wall External" fill="#000000" id="Wall" stroke="#000000" style="fill-opacity: 1; stroke-opacity: 1; stroke-width: 1;"><polygon points="581.88,916.65 581.88,655.60 565.88,676.60 565.88,938.65 "/></g><g class="Wall External" fill="#000000" id="Wall" stroke="#000000" style="fill-opacity: 1; stroke-opacity: 1; stroke-width: 1;"><polygon points="581.88,655.60 64.91,655.60 40.91,676.60 565.88,676.60 "/></g><g class="Wall External" fill="#000000" id="Wall" stroke="#000000" style="fill-opacity: 1; stroke-opacity: 1; stroke-width: 1;"><polygon points="64.91,655.60 64.91,157.26 40.91,135.47 40.91,676.60 "/><g class="Window Regular" fill="#f0f0ff" id="Window" stroke="#000000" style="fill-opacity: 1; stroke-width: 1; stroke-opacity: 1;"><polygon points="64.91,414.98 64.91,247.18 40.91,247.18 40.91,414.98 "/><g class="Glass" id="Glass"><polygon points="64.91,414.98 64.91,247.18 40.91,247.18 40.91,414.98 "/></g><g class="Panel" id="Panel"><line x1="52.91426593806372" x2="52.91426593806371" y1="407.4789045178997" y2="254.67536662056932"/><line x1="64.91426593806372" x2="40.91426593806372" y1="407.4789045178997" y2="407.4789045178997"/><line x1="64.9142659380637" x2="40.91426593806371" y1="254.67536662056932" y2="254.67536662056932"/></g></g><g class="Window Regular" fill="#f0f0ff" id="Window" stroke="#000000" style="fill-opacity: 1; stroke-width: 1; stroke-opacity: 1;"><polygon points="64.91,596.43 64.91,481.15 40.91,481.15 40.91,596.43 "/><g class="Glass" id="Glass"><polygon points="64.91,596.43 64.91,481.15 40.91,481.15 40.91,596.43 "/></g><g class="Panel" id="Panel"><line x1="52.91426593806375" x2="52.914265938063735" y1="588.9250100091704" y2="488.64534019286333"/><line x1="64.91426593806375" x2="40.91426593806375" y1="588.9250100091704" y2="588.9250100091704"/><line x1="64.91426593806374" x2="40.914265938063735" y1="488.64534019286333" y2="488.64534019286333"/></g></g></g><g class="Wall External" fill="#000000" id="Wall" stroke="#000000" style="fill-opacity: 1; stroke-opacity: 1; stroke-width: 1;"><polygon points="1230.01,44.50 1230.01,916.65 1254.01,938.65 1254.01,18.06 "/><g class="Window Regular" fill="#f0f0ff" id="Window" stroke="#000000" style="fill-opacity: 1; stroke-width: 1; stroke-opacity: 1;"><polygon points="1230.01,681.01 1230.01,878.14 1254.01,878.14 1254.01,681.01 "/><g class="Glass" id="Glass"><polygon points="1230.01,681.01 1230.01,878.14 1254.01,878.14 1254.01,681.01 "/></g><g class="Panel" id="Panel"><line x1="1242.0082093771346" x2="1242.0082093771346" y1="688.5088940891198" y2="870.6439447083412"/><line x1="1230.0082093771346" x2="1254.0082093771346" y1="688.5088940891198" y2="688.5088940891198"/><line x1="1230.0082093771346" x2="1254.0082093771346" y1="870.6439447083412" y2="870.6439447083412"/></g></g><g class="Door Swing Beside" fill="#ffffff" id="Door" stroke="#000000" style="fill-opacity: 1; stroke-width: 1; stroke-opacity: 1;"><polygon points="1230.01,588.92 1230.01,676.23 1254.01,676.23 1254.01,588.92 "/><g class="Panel Left Positive" fill="none" id="Panel" style=""><g class="PanelArea" fill="none" id="PanelArea" stroke="none" style=""><polygon points="1230.01,588.92 1230.01,676.23 1254.01,676.23 1254.01,588.92 "/></g><path d="M1254.01,676.23 q87.31,0.00 87.31,-87.31 l-87.31,0.00Z"/></g></g><g class="Window Regular" fill="#f0f0ff" id="Window" stroke="#000000" style="fill-opacity: 1; stroke-width: 1; stroke-opacity: 1;"><polygon points="1230.01,363.14 1230.01,505.02 1254.01,505.02 1254.01,363.14 "/><g class="Glass" id="Glass"><polygon points="1230.01,363.14 1230.01,505.02 1254.01,505.02 1254.01,363.14 "/></g><g class="Panel" id="Panel"><line x1="1242.0082093771346" x2="1242.0082093771346" y1="370.6371631150358" y2="497.519812614535"/><line x1="1230.0082093771346" x2="1254.0082093771346" y1="370.6371631150358" y2="370.6371631150358"/><line x1="1230.0082093771346" x2="1254.0082093771346" y1="497.519812614535" y2="497.519812614535"/></g></g></g><g class="Wall" fill="#000000" id="Wall" stroke="#000000" style="fill-opacity: 1; stroke-opacity: 1; stroke-width: 1;"><polygon points="1254.01,571.52 1456.35,571.52 1463.35,554.52 1254.01,554.52 "/></g><g class="Wall" fill="#000000" id="Wall" stroke="#000000" style="fill-opacity: 1; stroke-opacity: 1; stroke-width: 1;"><polygon points="1456.35,901.07 1254.01,901.07 1254.01,918.07 1463.35,918.07 "/></g><g class="Wall" fill="#000000" id="Wall" stroke="#000000" style="fill-opacity: 1; stroke-opacity: 1; stroke-width: 1;"><polygon points="581.88,655.60 581.88,515.25 564.88,527.25 564.88,655.60 "/></g><g class="Wall" fill="#000000" id="Wall" stroke="#000000" style="fill-opacity: 1; stroke-opacity: 1; stroke-width: 1;"><polygon points="581.88,515.25 460.92,515.25 448.92,527.25 564.88,527.25 "/><g class="Door Swing Beside" fill="#ffffff" id="Door" stroke="#000000" style="fill-opacity: 1; stroke-width: 1; stroke-opacity: 1;"><polygon points="555.74,515.25 477.31,515.25 477.31,527.25 555.74,527.25 "/><g class="Panel Left Negative" fill="none" id="Panel" style=""><g class="PanelArea" fill="none" id="PanelArea" stroke="none" style=""><polygon points="555.74,515.25 477.31,515.25 477.31,527.25 555.74,527.25 "/></g><path d="M555.74,515.25 q0.00,-78.43 -78.43,-78.43 l0.00,78.43Z"/></g></g></g><g class="Wall" fill="#000000" id="Wall" stroke="#000000" style="fill-opacity: 1; stroke-opacity: 1; stroke-width: 1;"><polygon points="448.92,515.25 448.92,676.60 460.92,676.60 460.92,527.25 "/></g><g class="Wall" fill="#000000" id="Wall" stroke="#000000" style="fill-opacity: 1; stroke-opacity: 1; stroke-width: 1;"><polygon points="448.92,527.25 448.87,95.99 460.87,95.99 460.92,515.25 "/><g class="Door Swing Beside" fill="#ffffff" id="Door" stroke="#000000" style="fill-opacity: 1; stroke-width: 1; stroke-opacity: 1;"><polygon points="448.92,514.90 448.92,446.92 460.92,446.92 460.92,514.90 "/><g class="Panel Left Negative" fill="none" id="Panel" style=""><g class="PanelArea" fill="none" id="PanelArea" stroke="none" style=""><polygon points="448.92,514.90 448.92,446.92 460.92,446.92 460.92,514.90 "/></g><path d="M448.92,514.90 q-67.98,0.01 -67.98,-67.97 l67.98,-0.01Z"/></g></g><g class="Door Swing Beside" fill="#ffffff" id="Door" stroke="#000000" style="fill-opacity: 1; stroke-width: 1; stroke-opacity: 1;"><polygon points="448.91,428.33 448.91,363.26 460.91,363.26 460.91,428.33 "/><g class="Panel Right Negative" fill="none" id="Panel" style=""><g class="PanelArea" fill="none" id="PanelArea" stroke="none" style=""><polygon points="448.91,428.33 448.91,363.26 460.91,363.26 460.91,428.33 "/></g><path d="M448.91,363.26 q-65.07,0.01 -65.06,65.08 l65.07,-0.01Z"/></g></g></g><g class="Wall" fill="#000000" id="Wall" stroke="#000000" style="fill-opacity: 1; stroke-opacity: 1; stroke-width: 1;"><polygon points="40.91,442.81 460.91,442.81 460.91,430.81 40.91,430.81 "/></g><g class="Wall" fill="#000000" id="Wall" stroke="#000000" style="fill-opacity: 1; stroke-opacity: 1; stroke-width: 1;"><polygon points="699.14,71.77 699.14,378.52 711.14,378.52 711.14,71.77 "/><g class="Door Swing Beside" fill="#ffffff" id="Door" stroke="#000000" style="fill-opacity: 1; stroke-width: 1; stroke-opacity: 1;"><polygon points="699.14,166.88 699.14,236.60 711.14,236.60 711.14,166.88 "/><g class="Panel Left Negative" fill="none" id="Panel" style=""><g class="PanelArea" fill="none" id="PanelArea" stroke="none" style=""><polygon points="699.14,166.88 699.14,236.60 711.14,236.60 711.14,166.88 "/></g><path d="M699.14,166.88 q-69.72,0.00 -69.72,69.72 l69.72,0.00Z"/></g></g></g><g class="Wall" fill="#000000" id="Wall" stroke="#000000" style="fill-opacity: 1; stroke-opacity: 1; stroke-width: 1;"><polygon points="699.14,458.83 699.14,531.76 711.14,523.73 711.14,458.83 "/></g><g class="Wall" fill="#000000" id="Wall" stroke="#000000" style="fill-opacity: 1; stroke-opacity: 1; stroke-width: 1;"><polygon points="699.14,531.76 1001.72,531.76 1001.72,523.73 711.14,523.73 "/></g><g class="Wall" fill="#000000" id="Wall" stroke="#000000" style="fill-opacity: 1; stroke-opacity: 1; stroke-width: 1;"><polygon points="460.91,361.03 711.14,361.03 711.14,350.03 460.91,350.03 "/><g class="Door Swing Beside" fill="#ffffff" id="Door" stroke="#000000" style="fill-opacity: 1; stroke-width: 1; stroke-opacity: 1;"><polygon points="487.19,361.03 565.62,361.03 565.62,350.03 487.19,350.03 "/><g class="Panel Right Negative" fill="none" id="Panel" style=""><g class="PanelArea" fill="none" id="PanelArea" stroke="none" style=""><polygon points="487.19,361.03 565.62,361.03 565.62,350.03 487.19,350.03 "/></g><path d="M565.62,361.03 q0.00,78.43 -78.43,78.43 l0.00,-78.43Z"/></g></g><g class="Door Swing Beside" fill="#ffffff" id="Door" stroke="#000000" style="fill-opacity: 1; stroke-width: 1; stroke-opacity: 1;"><polygon points="584.79,361.03 661.48,361.03 661.48,350.03 584.79,350.03 "/><g class="Panel Right Negative" fill="none" id="Panel" style=""><g class="PanelArea" fill="none" id="PanelArea" stroke="none" style=""><polygon points="584.79,361.03 661.48,361.03 661.48,350.03 584.79,350.03 "/></g><path d="M661.48,361.03 q0.00,76.69 -76.69,76.69 l0.00,-76.69Z"/></g></g></g><g class="Wall" fill="#000000" id="Wall" stroke="#000000" style="fill-opacity: 1; stroke-opacity: 1; stroke-width: 1;"><polygon points="566.73,361.03 566.73,242.71 584.15,242.71 584.15,361.03 "/></g><g class="Wall External" fill="#000000" id="Wall" stroke="#000000" style="fill-opacity: 1; stroke-opacity: 1; stroke-width: 1;"><polygon points="64.91,157.26 836.84,82.55 834.53,58.66 40.91,135.47 "/></g><g class="Wall External" fill="#000000" id="Wall" stroke="#000000" style="fill-opacity: 1; stroke-opacity: 1; stroke-width: 1;"><polygon points="836.84,82.55 1230.01,44.50 1254.01,18.06 834.53,58.66 "/><g class="Window Regular" fill="#f0f0ff" id="Window" stroke="#000000" style="fill-opacity: 1; stroke-width: 1; stroke-opacity: 1;"><polygon points="963.42,70.30 1134.44,53.75 1132.13,29.86 961.10,46.41 "/><g class="Glass" id="Glass"><polygon points="963.42,70.30 1134.44,53.75 1132.13,29.86 961.10,46.41 "/></g><g class="Panel" id="Panel"><line x1="969.7260758477348" x2="1125.8165902841313" y1="57.63333168914661" y2="42.526362375013335"/><line x1="970.8820750246546" x2="968.570076670815" y1="69.57752131854217" y2="45.68914205975104"/><line x1="1126.972589461051" x2="1124.6605911072113" y1="54.470552004408894" y2="30.58217274561776"/></g></g></g><g class="Wall" fill="#000000" id="Wall" stroke="#000000" style="fill-opacity: 1; stroke-opacity: 1; stroke-width: 1;"><polygon points="711.14,298.38 845.84,298.38 845.84,240.56 711.14,240.56 "/></g><g class="Wall" fill="#000000" id="Wall" stroke="#000000" style="fill-opacity: 1; stroke-opacity: 1; stroke-width: 1;"><polygon points="845.84,298.38 1254.01,298.38 1254.01,284.36 845.84,284.36 "/><g class="Door Swing Beside" fill="#ffffff" id="Door" stroke="#000000" style="fill-opacity: 1; stroke-width: 1; stroke-opacity: 1;"><polygon points="1004.55,298.38 1083.15,298.38 1083.15,284.36 1004.55,284.36 "/><g class="Panel Left Positive" fill="none" id="Panel" style=""><g class="PanelArea" fill="none" id="PanelArea" stroke="none" style=""><polygon points="1004.55,298.38 1083.15,298.38 1083.15,284.36 1004.55,284.36 "/></g><path d="M1083.15,284.36 q0.00,-78.60 -78.60,-78.60 l0.00,78.60Z"/></g></g></g><g class="Wall" fill="#000000" id="Wall" stroke="#000000" style="fill-opacity: 1; stroke-opacity: 1; stroke-width: 1;"><polygon points="836.84,58.44 836.84,284.36 845.84,284.36 845.84,58.44 "/></g><g class="FixedFurniture CoatCloset" fill="#ffffff" stroke="#000000" style="fill-opacity: 1; stroke-opacity: 1;" transform="matrix(0,1,-1,0,448.7589,128.3862)">
<g class="BoundaryPolygon">
<polygon points="0.00,0.00 98.17,0.00 98.17,60.00 0.00,60.00 "/>
</g>

<g class="Direction" fill-opacity="0.9" style="display: none;">
<polygon fill="#444444" points="50.32,54.52 50.32,43.90 47.31,43.90 47.31,54.52 43.51,54.52 48.81,59.82 54.11,54.52 50.32,54.52 "/>
</g>
<g class="Name" fill-opacity="0.9" style="display: none;">

</g>
<desc>Width:120 Height:200 Depth:60 Elevation:0</desc>
</g><g class="FixedFurnitureSet" fill="#ffffff" id="FixedFurnitureSet" stroke="#000000" style="fill-opacity: 0.4; stroke-opacity: 0.4;" transform="matrix(0,1,-1,0,448.7714,226.5534)"><g class="FixedFurniture Closet" fill="#ffffff" stroke="#000000" style="fill-opacity: 1; stroke-opacity: 1;" transform="matrix(1,0,0,1,0,0)">
<g class="BoundaryPolygon">
<polygon points="0.00,0.00 58.21,0.00 58.21,60.00 0.00,60.00 "/>
</g>
<g class="Direction" fill-opacity="0.9" style="display: none;">
<polygon fill="#444444" points="30.57,54.70 30.57,44.08 27.56,44.08 27.56,54.70 23.76,54.70 29.06,60.00 34.36,54.70 30.57,54.70 "/>
</g>
<g class="Name" fill-opacity="0.9" style="display: none;">

</g>
<desc>Width:60 Height:200 Depth:60 Elevation:0</desc>
</g><g class="FixedFurniture Closet" fill="#ffffff" stroke="#000000" style="fill-opacity: 1; stroke-opacity: 1;" transform="matrix(1,0,0,1,58.2137,0)">
<g class="BoundaryPolygon">
<polygon points="0.00,0.00 58.21,0.00 58.21,60.00 0.00,60.00 "/>
</g>
<g class="Direction" fill-opacity="0.9" style="display: none;">
<polygon fill="#444444" points="30.57,54.70 30.57,44.08 27.56,44.08 27.56,54.70 23.76,54.70 29.06,60.00 34.36,54.70 30.57,54.70 "/>
</g>
<g class="Name" fill-opacity="0.9" style="display: none;">

</g>
<desc>Width:60 Height:200 Depth:60 Elevation:0</desc>
</g></g><g class="FixedFurnitureSet" fill="#ffffff" id="FixedFurnitureSet" stroke="#000000" style="fill-opacity: 0.4; stroke-opacity: 0.4;" transform="matrix(0,1,-1,0,448.9231,538.7072)"><g class="FixedFurniture Closet" fill="#ffffff" stroke="#000000" style="fill-opacity: 1; stroke-opacity: 1;" transform="matrix(1,0,0,1,0,0)">
<g class="BoundaryPolygon">
<polygon points="0.00,0.00 58.45,0.00 58.45,60.00 0.00,60.00 "/>
</g>
<g class="Direction" fill-opacity="0.9" style="display: none;">
<polygon fill="#444444" points="30.69,54.70 30.69,44.08 27.68,44.08 27.68,54.70 23.88,54.70 29.18,60.00 34.49,54.70 30.69,54.70 "/>
</g>
<g class="Name" fill-opacity="0.9" style="display: none;">

</g>
<desc>Width:60 Height:200 Depth:60 Elevation:0</desc>
</g><g class="FixedFurniture Closet" fill="#ffffff" stroke="#000000" style="fill-opacity: 1; stroke-opacity: 1;" transform="matrix(1,0,0,1,58.4452,0)">
<g class="BoundaryPolygon">
<polygon points="0.00,0.00 58.45,0.00 58.45,60.00 0.00,60.00 "/>
</g>
<g class="Direction" fill-opacity="0.9" style="display: none;">
<polygon fill="#444444" points="30.69,54.70 30.69,44.08 27.68,44.08 27.68,54.70 23.88,54.70 29.18,60.00 34.49,54.70 30.69,54.70 "/>
</g>
<g class="Name" fill-opacity="0.9" style="display: none;">

</g>
<desc>Width:60 Height:200 Depth:60 Elevation:0</desc>
</g></g><g class="FixedFurnitureSet" fill="#ffffff" id="FixedFurnitureSet" stroke="#000000" style="fill-opacity: 0.4; stroke-opacity: 0.4;" transform="matrix(0,1,-1,0,767.1121,800.7255)"><g class="FixedFurniture Closet" fill="#ffffff" stroke="#000000" style="fill-opacity: 1; stroke-opacity: 1;" transform="matrix(1,0,0,1,0,0)">
<g class="BoundaryPolygon">
<polygon points="0.00,0.00 57.96,0.00 57.96,60.00 0.00,60.00 "/>
</g>
<g class="Direction" fill-opacity="0.9" style="display: none;">
<polygon fill="#444444" points="30.44,54.70 30.44,44.08 27.43,44.08 27.43,54.70 23.63,54.70 28.93,60.00 34.23,54.70 30.44,54.70 "/>
</g>
<g class="Name" fill-opacity="0.9" style="display: none;">

</g>
<desc>Width:60 Height:200 Depth:60 Elevation:0</desc>
</g><g class="FixedFurniture Closet" fill="#ffffff" stroke="#000000" style="fill-opacity: 1; stroke-opacity: 1;" transform="matrix(1,0,0,1,57.9644,0)">
<g class="BoundaryPolygon">
<polygon points="0.00,0.00 57.96,0.00 57.96,60.00 0.00,60.00 "/>
</g>
<g class="Direction" fill-opacity="0.9" style="display: none;">
<polygon fill="#444444" points="30.44,54.70 30.44,44.08 27.43,44.08 27.43,54.70 23.63,54.70 28.93,60.00 34.23,54.70 30.44,54.70 "/>
</g>
<g class="Name" fill-opacity="0.9" style="display: none;">

</g>
<desc>Width:60 Height:200 Depth:60 Elevation:0</desc>
</g></g><g class="FixedFurniture CoatCloset" fill="#ffffff" stroke="#000000" style="fill-opacity: 1; stroke-opacity: 1;" transform="matrix(0,1,-1,0,766.9402,684.464)">
<g class="BoundaryPolygon">
<polygon points="0.00,0.00 116.26,0.00 116.26,60.00 0.00,60.00 "/>
</g>

<g class="Direction" fill-opacity="0.9" style="display: none;">
<polygon fill="#444444" points="59.59,54.52 59.59,43.90 56.58,43.90 56.58,54.52 52.78,54.52 58.08,59.82 63.39,54.52 59.59,54.52 "/>
</g>
<g class="Name" fill-opacity="0.9" style="display: none;">

</g>
<desc>Width:120 Height:200 Depth:60 Elevation:0</desc>
</g><g class="FixedFurniture ElectricalAppliance" fill="#ffffff" stroke="#000000" style="fill-opacity: 1; stroke-opacity: 1;" transform="matrix(-0.9358,0,0,-1,767.2923,523.7266)">
<g class="BoundaryPolygon">
<polygon points="0,0 60,0 60,60 0,60"/>
</g>
<g class="electricitySign" fill="none">
<path d="M0,0,30.1,39.8V19.4L59.9,60"/>
</g>
<g class="Direction" fill-opacity="0.9" style="display: none;">
<polygon fill="#444444" points="32.009 55.197 32.009 44.581 29 44.581 29 55.197 25.197 55.197 30.5 60 35.803 55.197 32.009 55.197"/>
</g>
<g class="Name" fill-opacity="0.9" style="display: none;">

</g>
<desc>Width:60 Height:200 Depth:60 Elevation:0</desc>
</g><g class="FixedFurniture ElectricalAppliance Refrigerator" fill="#ffffff" stroke="#000000" style="fill-opacity: 1; stroke-opacity: 1;" transform="matrix(-1,0,0,-1,827.2923,523.7266)">
<g class="BoundaryPolygon">
<polygon points="0,0 60,0 60,60 0,60"/>
</g>
<g class="electricitySign" fill="none">
<path d="M0,0,30,37.1v-18L60,56.3"/>
</g>
<g class="Doors">
<rect height="4" width="60" y="56"/>
</g>
<g class="Direction" fill-opacity="0.9" style="display: none;">
<polygon fill="#444444" points="32.009 55.197 32.009 44.581 29 44.581 29 55.197 25.197 55.197 30.5 60 35.803 55.197 32.009 55.197"/>
</g>
<g class="Name" fill-opacity="0.9" style="display: none;">

</g>
<desc>Width:60 Height:170 Depth:60 Elevation:0</desc>
</g><g class="FixedFurniture BaseCabinet" fill="#ffffff" stroke="#000000" style="fill-opacity: 1; stroke-opacity: 1;" transform="matrix(-1,0,0,-1,1000.6322,523.7266)">
<g class="BoundaryPolygon">
<polygon points="0.00,0.00 173.34,0.00 173.34,60.00 0.00,60.00 "/>
</g>
<g class="Direction" fill-opacity="0.9" style="display: none;">
<polygon fill="#444444" points="92.48,55.20 92.48,44.58 89.47,44.58 89.47,55.20 85.66,55.20 90.97,60.00 96.27,55.20 92.48,55.20 "/>
</g>
<g class="Name" fill-opacity="0.9" style="display: none;">

</g>
<desc>Width:60 Height:90 Depth:60 Elevation:0</desc>
</g><g class="FixedFurniture BaseCabinet" fill="#ffffff" stroke="#000000" style="fill-opacity: 1; stroke-opacity: 1;" transform="matrix(1,0,0,1,711.1443,298.3838)">
<g class="BoundaryPolygon">
<polygon points="0.00,0.00 288.89,0.00 288.89,60.00 0.00,60.00 "/>
</g>
<g class="Direction" fill-opacity="0.9" style="display: none;">
<polygon fill="#444444" points="154.12,55.20 154.12,44.58 151.11,44.58 151.11,55.20 147.31,55.20 152.61,60.00 157.91,55.20 154.12,55.20 "/>
</g>
<g class="Name" fill-opacity="0.9" style="display: none;">

</g>
<desc>Width:60 Height:90 Depth:60 Elevation:0</desc>
</g><g class="FixedFurniture ElectricalAppliance Dishwasher" fill="#ffffff" stroke="#000000" style="fill-opacity: 1; stroke-opacity: 1;" transform="matrix(0.9449,0,0,1,711.1443,298.3837)">
<g class="BoundaryPolygon">
<polygon points="0,0 60,0 60,60 0,60"/>
</g>
<g class="electricitySign" fill="none">
<path d="M0,0,30,38.9v-20L60,60"/>
</g>
<g class="Handle">
<path d="M10,59.6H49.8"/>
</g>
<g class="Direction" fill-opacity="0.9" style="display: none;">
<polygon fill="#444444" points="32.009 55.197 32.009 44.581 29 44.581 29 55.197 25.197 55.197 30.5 60 35.803 55.197 32.009 55.197"/>
</g>
<g class="Name" fill-opacity="0.9" style="display: none;">

</g>
<desc>Width:60 Height:90 Depth:60 Elevation:0</desc>
</g><g class="FixedFurniture ElectricalAppliance IntegratedStove" fill="#ffffff" stroke="#000000" style="fill-opacity: 1; stroke-opacity: 1;" transform="matrix(1,0,0,1,882.1732,298.3994)">
<g class="BoundaryPolygon" fill="none" stroke="none">
<polygon points="0.00,0.00 63.11,0.00 63.11,60.00 0.00,60.00 "/>
</g>
<g class="InnerPolygon">
<polygon points="2.00,2.00 61.01,2.00 61.01,58.00 2.00,58.00 "/>
</g>
<g class="OuterCircle">
<circle cx="16.829522365450416" cy="16" r="8"/>
<circle cx="46.281186504988646" cy="16" r="8"/>
<circle cx="16.829522365450416" cy="44" r="8"/>
<circle cx="46.281186504988646" cy="44" r="8"/>
</g>
<g class="Direction" fill-opacity="0.9" style="display: none;">
<polygon fill="#444444" points="33.67,55.20 33.67,44.58 30.66,44.58 30.66,55.20 26.86,55.20 32.16,60.00 37.46,55.20 33.67,55.20 "/>
</g>
<g class="Name" fill-opacity="0.9" style="display: none;">

</g>
<desc>Width:60 Height:90 Depth:30 Elevation:0</desc>
</g><g class="FixedFurniture Sink" fill="#ffffff" stroke="#000000" style="fill-opacity: 1; stroke-opacity: 1;" transform="matrix(1,0,0,1,771.1442,298.3995)">
<g class="BoundaryPolygon" fill="none" stroke="none">
<polygon points="0.00,0.00 49.25,0.00 49.25,60.00 0.00,60.00 "/>
</g>
<g class="InnerPolygon">
<polygon points="4.10,9.70 45.15,9.70 45.15,54.70 4.10,54.70 "/>
</g>
<g class="OuterDrain" stroke-width="0.8">
<circle cx="24.626280223862125" cy="32.2" r="3.5"/>
</g>
<g class="InnerDrain" stroke-width="0.8">
<circle cx="24.626280223862125" cy="32.2" r="2"/>
</g>
<g class="Faucet">
<polygon points="22.16,5.00 28.16,5.00 28.16,19.00 22.16,19.00 "/>
</g>
<g class="Direction" fill-opacity="0.9" style="display: none;">
<polygon fill="#444444" points="26.28,55.20 26.28,44.58 23.27,44.58 23.27,55.20 19.46,55.20 24.77,60.00 30.07,55.20 26.28,55.20 "/>
</g>
<g class="Name" fill-opacity="0.9" style="display: none;">

</g>
<desc>Width:60 Height:90 Depth:60 Elevation:0</desc>
</g><g class="Wall" fill="#000000" id="Wall" stroke="#000000" style="fill-opacity: 1; stroke-opacity: 1; stroke-width: 1;"><polygon points="1463.35,554.52 1463.35,918.07 1456.35,901.07 1456.35,571.52 "/><g class="Window Regular" fill="#f0f0ff" id="Window" stroke="#000000" style="fill-opacity: 1; stroke-width: 1; stroke-opacity: 1;"><polygon points="1463.35,572.74 1463.35,899.15 1456.35,899.15 1456.35,572.74 "/><g class="Glass" id="Glass"><polygon points="1463.35,572.74 1463.35,899.15 1456.35,899.15 1456.35,572.74 "/></g><g class="Panel" id="Panel"><line x1="1459.8534358181496" x2="1459.8534358181496" y1="580.2438858161786" y2="891.6533765734239"/><line x1="1463.3534358181496" x2="1456.3534358181496" y1="580.2438858161786" y2="580.2438858161786"/><line x1="1463.3534358181496" x2="1456.3534358181496" y1="891.6533765734239" y2="891.6533765734239"/></g></g></g><g class="SelectionControls" fill="#0000ff" stroke="#0000ff" style="display: none;"><g class="rotateControl" style="display: none;"><circle cx="1365.3561593771346" cy="530.8164825916635" r="5" style="stroke : none; fill-opacity: 0.5; cursor:crosshair"/></g><g class="ResizeNControl" style="display: none;"><circle cx="0" cy="0" r="5" style="stroke : none; fill-opacity: 0.5"/></g><g class="ResizeNEControl" style="display: none;"><circle cx="0" cy="0" r="5" style="stroke : none; fill-opacity: 0.5"/></g><g class="ResizeEControl" style="display: none;"><circle cx="0" cy="0" r="5" style="stroke : none; fill-opacity: 0.5"/></g><g class="ResizeSEControl" style="display: none;"><circle cx="0" cy="0" r="5" style="stroke : none; fill-opacity: 0.5"/></g><g class="ResizeSControl" style="display: none;"><circle cx="0" cy="0" r="5" style="stroke : none; fill-opacity: 0.5"/></g><g class="ResizeSWControl" style="display: none;"><circle cx="0" cy="0" r="5" style="stroke : none; fill-opacity: 0.5"/></g><g class="ResizeWControl" style="display: none;"><circle cx="0" cy="0" r="5" style="stroke : none; fill-opacity: 0.5"/></g><g class="ResizeNWControl" style="display: none;"><circle cx="0" cy="0" r="5" style="stroke : none; fill-opacity: 0.5"/></g><g class="removeControl" style="display: none;"><polygon points="1345.40,560.82 1385.31,560.82 1385.31,906.22 1345.40,906.22 " style="stroke : none; fill-opacity: 0.1"/></g><g class="copyPasteControl" style="display: none;"><polygon style="stroke : none; fill-opacity: 0.1"/></g><g class="translateControl" style="display: none;"><polygon points="1345.40,560.82 1385.31,560.82 1385.31,906.22 1345.40,906.22 " style="stroke : none; fill-opacity: 0.1; cursor:move"/></g></g><g class="SelectionControls" fill="#0000ff" stroke="#0000ff" style="display: none;"><polygon fill="none" points="1254.01,571.52 1456.35,571.52 1456.35,901.07 1254.01,901.07 " stroke="#0000ff" style=""/><g class="rotateControl" style="display: none;"><circle cx="1355.180809169615" cy="541.5209325916635" r="5" style="stroke : none; fill-opacity: 0.5; cursor:crosshair"/></g><g class="ResizeNControl" style="display: none;"><circle cx="0" cy="0" r="5" style="stroke : none; fill-opacity: 0.5"/></g><g class="ResizeNEControl" style="display: none;"><circle cx="0" cy="0" r="5" style="stroke : none; fill-opacity: 0.5"/></g><g class="ResizeEControl" style="display: none;"><circle cx="0" cy="0" r="5" style="stroke : none; fill-opacity: 0.5"/></g><g class="ResizeSEControl" style="display: none;"><circle cx="0" cy="0" r="5" style="stroke : none; fill-opacity: 0.5"/></g><g class="ResizeSControl" style="display: none;"><circle cx="0" cy="0" r="5" style="stroke : none; fill-opacity: 0.5"/></g><g class="ResizeSWControl" style="display: none;"><circle cx="0" cy="0" r="5" style="stroke : none; fill-opacity: 0.5"/></g><g class="ResizeWControl" style="display: none;"><circle cx="0" cy="0" r="5" style="stroke : none; fill-opacity: 0.5"/></g><g class="ResizeNWControl" style="display: none;"><circle cx="0" cy="0" r="5" style="stroke : none; fill-opacity: 0.5"/></g><g class="removeControl" style="display: none;"><polygon style="stroke : none; fill-opacity: 0.1"/></g><g class="copyPasteControl" style="display: none;"><polygon style="stroke : none; fill-opacity: 0.1"/></g><g class="translateControl" style="display: none;"><polygon style="stroke : none; fill-opacity: 0.1; cursor:move"/></g></g></g></g></g></svg>