<?xml version="1.0" encoding="utf-8"?>
<svg height="1367.6598815917969" id="temp" version="1.1" viewBox="0 0 863.9799652099609 1367.6598815917969" width="863.9799652099609" xmlns="http://www.w3.org/2000/svg" xmlns:xlink="http://www.w3.org/1999/xlink"><desc>Powered by CubiCasa</desc><defs/><g class="Model v1-1" id="Model"><g class="Floor"><g class="Floorplan Floor-1" id="Floor-1" transform="matrix(1,0,0,1,0,0)"><g class="Space Undefined" fill="#ffffff" id="69961960-a16b-41f9-b478-24f60a3cdcdd" stroke="#ffffff" style="fill-opacity: 1; stroke-opacity: 1; stroke-width: 1;"><polygon points="584.53,1261.08 447.99,1261.08 447.99,1165.06 584.53,1165.06 "/><g class="Dimension" transform="matrix(1,0,0,1,447.9868,1165.0614)"><g class="Visual" style="display: none;" transform="matrix(1,0,0,1,0,0)"><g class="DimensionMark" fill="#000000" id="mark1" stroke="none" style="fill-opacity: 1; pointer-events: visible;" transform="matrix(1,0,0,1,68.2702,0)"><polygon points="-5,5,0,0,5,5"/></g><g class="DimensionMark" fill="#000000" id="mark2" stroke="none" style="fill-opacity: 1; pointer-events: visible;" transform="matrix(1,0,0,1,136.5405,48.0105)"><polygon points="-5,-5,0,0,-5,5"/></g><g class="DimensionMark" fill="#000000" id="mark3" stroke="none" style="fill-opacity: 1; pointer-events: visible;" transform="matrix(1,0,0,1,68.2702,96.0211)"><polygon points="-5,-5,0,0,5,-5"/></g><g class="DimensionMark" fill="#000000" id="mark4" stroke="none" style="fill-opacity: 1; pointer-events: visible;" transform="matrix(1,0,0,1,0,48.0105)"><polygon points="5,5,0,0,5,-5"/></g></g><g class="SpaceDimensionsLabel" transform="matrix(1,0,0,1,48.0106,48.0106)"><g class="TextLabel NameLabel" id="NameLabel" style="display: block;"/><g class="TextLabel DimensionMeasureLabel" id="DimensionMeasureLabel" style="display: none;" transform="matrix(1,0,0,1,-40.5313,80.8438)"/></g></g></g><g class="Space Undefined" fill="#ffffff" id="b47d3fc1-3dc9-4cb8-a066-c078df3490a1" stroke="#ffffff" style="fill-opacity: 1; stroke-opacity: 1; stroke-width: 1;"><polygon points="219.51,535.93 54.40,535.93 54.60,350.11 219.51,350.11 "/><g class="Dimension" transform="matrix(1,0,0,1,54.4965,350.1059)"><g class="Visual" style="display: none;" transform="matrix(1,0,0,1,0,0)"><g class="DimensionMark" fill="#000000" id="mark1" stroke="none" style="fill-opacity: 1; pointer-events: visible;" transform="matrix(1,0,0,1,82.4595,0)"><polygon points="-5,5,0,0,5,5"/></g><g class="DimensionMark" fill="#000000" id="mark2" stroke="none" style="fill-opacity: 1; pointer-events: visible;" transform="matrix(1,0,0,1,165.0181,92.9098)"><polygon points="-5,-5,0,0,-5,5"/></g><g class="DimensionMark" fill="#000000" id="mark3" stroke="none" style="fill-opacity: 1; pointer-events: visible;" transform="matrix(1,0,0,1,82.4595,185.8193)"><polygon points="-5,-5,0,0,5,-5"/></g><g class="DimensionMark" fill="#000000" id="mark4" stroke="none" style="fill-opacity: 1; pointer-events: visible;" transform="matrix(1,0,0,1,0,92.9098)"><polygon points="5,5,0,0,5,-5"/></g></g><g class="SpaceDimensionsLabel" transform="matrix(1,0,0,1,82.509,92.9282)"><g class="TextLabel NameLabel" id="NameLabel" style="display: block;"/><g class="TextLabel DimensionMeasureLabel" id="DimensionMeasureLabel" style="display: none;" transform="matrix(1,0,0,1,-40.5313,80.8438)"/></g></g></g><g class="Space Closet WalkIn" fill="#ffffff" id="de5fc553-55c4-46d1-9ac6-640307c0367a" stroke="#ffffff" style="fill-opacity: 1; stroke-opacity: 1; stroke-width: 1;"><polygon points="381.76,995.83 54.40,995.83 54.40,893.16 381.76,893.16 "/><g class="Dimension" transform="matrix(1,0,0,1,54.3975,893.1551)"><g class="Visual" style="display: none;" transform="matrix(1,0,0,1,0,0)"><g class="DimensionMark" fill="#000000" id="mark1" stroke="none" style="fill-opacity: 1; pointer-events: visible;" transform="matrix(1,0,0,1,163.683,0)"><polygon points="-5,5,0,0,5,5"/></g><g class="DimensionMark" fill="#000000" id="mark2" stroke="none" style="fill-opacity: 1; pointer-events: visible;" transform="matrix(1,0,0,1,327.3661,51.3399)"><polygon points="-5,-5,0,0,-5,5"/></g><g class="DimensionMark" fill="#000000" id="mark3" stroke="none" style="fill-opacity: 1; pointer-events: visible;" transform="matrix(1,0,0,1,163.683,102.6797)"><polygon points="-5,-5,0,0,5,-5"/></g><g class="DimensionMark" fill="#000000" id="mark4" stroke="none" style="fill-opacity: 1; pointer-events: visible;" transform="matrix(1,0,0,1,0,51.3399)"><polygon points="5,5,0,0,5,-5"/></g></g><g class="SpaceDimensionsLabel" transform="matrix(1,0,0,1,136.6119,64.1306)"><g class="TextLabel NameLabel" id="NameLabel" style="display: block;"/><g class="TextLabel DimensionMeasureLabel" id="DimensionMeasureLabel" style="display: none;" transform="matrix(1,0,0,1,-116.3359,80.8438)"/></g></g></g><g class="Space UserDefined" fill="#ffffff" id="6e1e2f82-78d9-4e30-b357-ddbb1f0f9450" stroke="#ffffff" style="fill-opacity: 1; stroke-opacity: 1; stroke-width: 1;"><polygon points="224.51,885.16 54.40,885.16 54.40,544.93 224.51,544.93 "/><g class="Dimension" transform="matrix(1,0,0,1,54.3975,544.9253)"><g class="Visual" style="display: none;" transform="matrix(1,0,0,1,0,0)"><g class="DimensionMark" fill="#000000" id="mark1" stroke="none" style="fill-opacity: 1; pointer-events: visible;" transform="matrix(1,0,0,1,85.0586,0)"><polygon points="-5,5,0,0,5,5"/></g><g class="DimensionMark" fill="#000000" id="mark2" stroke="none" style="fill-opacity: 1; pointer-events: visible;" transform="matrix(1,0,0,1,170.1171,170.1149)"><polygon points="-5,-5,0,0,-5,5"/></g><g class="DimensionMark" fill="#000000" id="mark3" stroke="none" style="fill-opacity: 1; pointer-events: visible;" transform="matrix(1,0,0,1,85.0586,340.2298)"><polygon points="-5,-5,0,0,5,-5"/></g><g class="DimensionMark" fill="#000000" id="mark4" stroke="none" style="fill-opacity: 1; pointer-events: visible;" transform="matrix(1,0,0,1,0,170.1149)"><polygon points="5,5,0,0,5,-5"/></g></g><g class="SpaceDimensionsLabel" transform="matrix(1,0,0,1,46.7529,175.0468)"><g class="TextLabel NameLabel" id="NameLabel" style="display: block;"/><g class="TextLabel DimensionMeasureLabel" id="DimensionMeasureLabel" style="display: none;" transform="matrix(1,0,0,1,-82.3359,80.8438)"/></g></g></g><g class="Space Bedroom" fill="#ffffff" id="b71c15db-a77f-4257-820e-bf265180b1a4" stroke="#ffffff" style="fill-opacity: 1; stroke-opacity: 1; stroke-width: 1;"><polygon points="437.99,1261.08 54.40,1261.08 54.40,1005.83 437.99,1005.83 "/><g class="Dimension" transform="matrix(1,0,0,1,54.3975,1005.8348)"><g class="Visual" style="display: none;" transform="matrix(1,0,0,1,0,0)"><g class="DimensionMark" fill="#000000" id="mark1" stroke="none" style="fill-opacity: 1; pointer-events: visible;" transform="matrix(1,0,0,1,191.7947,0)"><polygon points="-5,5,0,0,5,5"/></g><g class="DimensionMark" fill="#000000" id="mark2" stroke="none" style="fill-opacity: 1; pointer-events: visible;" transform="matrix(1,0,0,1,383.5894,127.6238)"><polygon points="-5,-5,0,0,-5,5"/></g><g class="DimensionMark" fill="#000000" id="mark3" stroke="none" style="fill-opacity: 1; pointer-events: visible;" transform="matrix(1,0,0,1,191.7947,255.2477)"><polygon points="-5,-5,0,0,5,-5"/></g><g class="DimensionMark" fill="#000000" id="mark4" stroke="none" style="fill-opacity: 1; pointer-events: visible;" transform="matrix(1,0,0,1,0,127.6238)"><polygon points="5,5,0,0,5,-5"/></g></g><g class="SpaceDimensionsLabel" transform="matrix(1,0,0,1,163.6754,149.2548)"><g class="TextLabel NameLabel" id="NameLabel" style="display: block;"/><g class="TextLabel DimensionMeasureLabel" id="DimensionMeasureLabel" style="display: none;" transform="matrix(1,0,0,1,-113.7031,80.8438)"/></g></g></g><g class="Space Bedroom" fill="#ffffff" id="ee05533d-23d6-4f40-8071-6f881df4b582" stroke="#ffffff" style="fill-opacity: 1; stroke-opacity: 1; stroke-width: 1;"><polygon points="840.98,1261.08 594.53,1261.08 594.53,796.94 840.98,796.94 "/><g class="Dimension" transform="matrix(1,0,0,1,594.5273,796.937)"><g class="Visual" style="display: none;" transform="matrix(1,0,0,1,0,0)"><g class="DimensionMark" fill="#000000" id="mark1" stroke="none" style="fill-opacity: 1; pointer-events: visible;" transform="matrix(1,0,0,1,123.2249,0)"><polygon points="-5,5,0,0,5,5"/></g><g class="DimensionMark" fill="#000000" id="mark2" stroke="none" style="fill-opacity: 1; pointer-events: visible;" transform="matrix(1,0,0,1,246.4499,232.0728)"><polygon points="-5,-5,0,0,-5,5"/></g><g class="DimensionMark" fill="#000000" id="mark3" stroke="none" style="fill-opacity: 1; pointer-events: visible;" transform="matrix(1,0,0,1,123.2249,464.1455)"><polygon points="-5,-5,0,0,5,-5"/></g><g class="DimensionMark" fill="#000000" id="mark4" stroke="none" style="fill-opacity: 1; pointer-events: visible;" transform="matrix(1,0,0,1,0,232.0728)"><polygon points="5,5,0,0,5,-5"/></g></g><g class="SpaceDimensionsLabel" transform="matrix(1,0,0,1,95.8258,222.7271)"><g class="TextLabel NameLabel" id="NameLabel" style="display: block;"/><g class="TextLabel DimensionMeasureLabel" id="DimensionMeasureLabel" style="display: none;" transform="matrix(1,0,0,1,-113.7031,80.8438)"/></g></g></g><g class="Space Undefined" fill="#ffffff" id="4b2713a5-5bd0-4ae6-933e-c0ca6c4ee001" stroke="#ffffff" style="fill-opacity: 1; stroke-opacity: 1; stroke-width: 1;"><polygon points="488.68,556.80 488.68,797.80 415.56,797.80 415.56,788.80 481.16,788.80 481.16,556.80 "/><g class="Dimension" transform="matrix(1,0,0,1,481.1595,556.801)"><g class="Visual" style="display: none;" transform="matrix(1,0,0,1,0,0)"><g class="DimensionMark" fill="#000000" id="mark1" stroke="none" style="fill-opacity: 1; pointer-events: visible;" transform="matrix(1,0,0,1,0,0)"><polygon points="-5,5,0,0,5,5"/></g><g class="DimensionMark" fill="#000000" id="mark2" stroke="none" style="fill-opacity: 1; pointer-events: visible;" transform="matrix(1,0,0,1,7.5194,120.497)"><polygon points="-5,-5,0,0,-5,5"/></g><g class="DimensionMark" fill="#000000" id="mark3" stroke="none" style="fill-opacity: 1; pointer-events: visible;" transform="matrix(1,0,0,1,0,240.994)"><polygon points="-5,-5,0,0,5,-5"/></g><g class="DimensionMark" fill="#000000" id="mark4" stroke="none" style="fill-opacity: 1; pointer-events: visible;" transform="matrix(1,0,0,1,0,120.497)"><polygon points="5,5,0,0,5,-5"/></g></g><g class="SpaceDimensionsLabel" transform="matrix(1,0,0,1,2.3779,235.9345)"><g class="TextLabel NameLabel" id="NameLabel" style="display: block;"/><g class="TextLabel DimensionMeasureLabel" id="DimensionMeasureLabel" style="display: none;" transform="matrix(1,0,0,1,-40.5313,80.8438)"/></g></g></g><g class="Space LivingRoom" fill="#ffffff" id="f4774a4b-dff6-4343-88f0-f4818eb8893a" stroke="#ffffff" style="fill-opacity: 1; stroke-opacity: 1; stroke-width: 1;"><polygon points="840.98,786.94 584.53,786.94 584.53,1157.06 447.99,1157.06 447.99,995.83 390.76,995.83 390.76,885.16 231.51,885.16 231.51,797.18 331.99,797.18 331.99,797.00 488.67,797.00 488.68,457.70 231.51,457.70 231.51,350.11 840.98,350.11 "/><g class="Dimension" transform="matrix(1,0,0,1,231.5146,350.1059)"><g class="Visual" style="display: none;" transform="matrix(1,0,0,1,0,0)"><g class="DimensionMark" fill="#000000" id="mark1" stroke="none" style="fill-opacity: 1; pointer-events: visible;" transform="matrix(1,0,0,1,304.7313,0)"><polygon points="-5,5,0,0,5,5"/></g><g class="DimensionMark" fill="#000000" id="mark2" stroke="none" style="fill-opacity: 1; pointer-events: visible;" transform="matrix(1,0,0,1,609.4627,447.0758)"><polygon points="-5,-5,0,0,-5,5"/></g><g class="DimensionMark" fill="#000000" id="mark3" stroke="none" style="fill-opacity: 1; pointer-events: visible;" transform="matrix(1,0,0,1,304.7313,806.9554)"><polygon points="-5,-5,0,0,5,-5"/></g><g class="DimensionMark" fill="#000000" id="mark4" stroke="none" style="fill-opacity: 1; pointer-events: visible;" transform="matrix(1,0,0,1,0,447.0758)"><polygon points="5,5,0,0,5,-5"/></g></g><g class="SpaceDimensionsLabel" transform="matrix(1,0,0,1,404.5381,214.0199)"><g class="TextLabel NameLabel" id="NameLabel" style="display: block;"/><g class="TextLabel DimensionMeasureLabel" id="DimensionMeasureLabel" style="display: none;" transform="matrix(1,0,0,1,-114.625,80.8438)"/></g></g></g><g class="Space Kitchen" fill="#ffffff" id="c911fe9c-91fe-4314-b29b-4a7074c69a1d" stroke="#ffffff" style="fill-opacity: 1; stroke-opacity: 1; stroke-width: 1;"><polygon points="488.67,797.00 331.99,797.00 331.99,790.18 231.51,790.18 231.51,457.70 488.68,457.70 "/><g class="Dimension" transform="matrix(1,0,0,1,231.5146,457.7017)"><g class="Visual" style="display: none;" transform="matrix(1,0,0,1,0,0)"><g class="DimensionMark" fill="#000000" id="mark1" stroke="none" style="fill-opacity: 1; pointer-events: visible;" transform="matrix(1,0,0,1,128.5821,0)"><polygon points="-5,5,0,0,5,5"/></g><g class="DimensionMark" fill="#000000" id="mark2" stroke="none" style="fill-opacity: 1; pointer-events: visible;" transform="matrix(1,0,0,1,257.16,169.6485)"><polygon points="-5,-5,0,0,-5,5"/></g><g class="DimensionMark" fill="#000000" id="mark3" stroke="none" style="fill-opacity: 1; pointer-events: visible;" transform="matrix(1,0,0,1,128.5821,339.2969)"><polygon points="-5,-5,0,0,5,-5"/></g><g class="DimensionMark" fill="#000000" id="mark4" stroke="none" style="fill-opacity: 1; pointer-events: visible;" transform="matrix(1,0,0,1,0,169.6485)"><polygon points="5,5,0,0,5,-5"/></g></g><g class="SpaceDimensionsLabel" transform="matrix(1,0,0,1,111.8103,181.2937)"><g class="TextLabel NameLabel" id="NameLabel" style="display: block;"/><g class="TextLabel DimensionMeasureLabel" id="DimensionMeasureLabel" style="display: none;" transform="matrix(1,0,0,1,-128.5781,80.8438)"/></g></g></g><g class="Wall External" fill="#000000" id="Wall" stroke="#000000" style="fill-opacity: 1; stroke-opacity: 1; stroke-width: 1;"><polygon points="31.60,327.11 863.98,327.11 840.98,350.11 54.60,350.11 "/><g class="Door Swing Beside" fill="#ffffff" id="Door" stroke="#000000" style="fill-opacity: 1; stroke-width: 1; stroke-opacity: 1;"><polygon points="519.51,327.11 603.49,327.11 603.49,350.11 519.51,350.11 "/><g class="Panel Right Negative" fill="none" id="Panel" style=""><g class="PanelArea" fill="none" id="PanelArea" stroke="none" style=""><polygon points="519.51,327.11 603.49,327.11 603.49,350.11 519.51,350.11 "/></g><path d="M603.49,327.11 q0.00,-83.98 -83.98,-83.98 l0.00,83.98Z"/></g></g><g class="Window Regular" fill="#f0f0ff" id="Window" stroke="#000000" style="fill-opacity: 1; stroke-width: 1; stroke-opacity: 1;"><polygon points="144.44,327.11 213.27,327.11 213.27,350.11 144.44,350.11 "/><g class="Glass" id="Glass"><polygon points="144.44,327.11 213.27,327.11 213.27,350.11 144.44,350.11 "/></g><g class="Panel" id="Panel"><line x1="151.94000244140625" x2="205.77000427246094" y1="338.6099853515625" y2="338.6099853515625"/><line x1="151.94000244140625" x2="151.94000244140625" y1="327.1099853515625" y2="350.1099853515625"/><line x1="205.77000427246094" x2="205.77000427246094" y1="327.1099853515625" y2="350.1099853515625"/></g></g><g class="Window Regular" fill="#f0f0ff" id="Window" stroke="#000000" style="fill-opacity: 1; stroke-width: 1; stroke-opacity: 1;"><polygon points="275.15,327.11 438.69,327.11 438.69,350.11 275.15,350.11 "/><g class="Glass" id="Glass"><polygon points="275.15,327.11 438.69,327.11 438.69,350.11 275.15,350.11 "/></g><g class="Panel" id="Panel"><line x1="282.6499938964844" x2="431.19000244140625" y1="338.6099853515625" y2="338.6099853515625"/><line x1="282.6499938964844" x2="282.6499938964844" y1="327.1099853515625" y2="350.1099853515625"/><line x1="431.19000244140625" x2="431.19000244140625" y1="327.1099853515625" y2="350.1099853515625"/></g></g><g class="Window Regular" fill="#f0f0ff" id="Window" stroke="#000000" style="fill-opacity: 1; stroke-width: 1; stroke-opacity: 1;"><polygon points="621.17,327.11 814.39,327.11 814.39,350.11 621.17,350.11 "/><g class="Glass" id="Glass"><polygon points="621.17,327.11 814.39,327.11 814.39,350.11 621.17,350.11 "/></g><g class="Panel" id="Panel"><line x1="628.6699829101562" x2="806.8900146484375" y1="338.6099853515625" y2="338.6099853515625"/><line x1="628.6699829101562" x2="628.6699829101562" y1="327.1099853515625" y2="350.1099853515625"/><line x1="806.8900146484375" x2="806.8900146484375" y1="327.1099853515625" y2="350.1099853515625"/></g></g></g><g class="Wall External" fill="#000000" id="Wall" stroke="#000000" style="fill-opacity: 1; stroke-opacity: 1; stroke-width: 1;"><polygon points="863.98,327.11 863.98,1284.08 840.98,1261.08 840.98,350.11 "/></g><g class="Wall External" fill="#000000" id="Wall" stroke="#000000" style="fill-opacity: 1; stroke-opacity: 1; stroke-width: 1;"><polygon points="863.98,1284.08 31.39,1284.08 54.40,1261.08 840.98,1261.08 "/><g class="Door Swing Beside" fill="#ffffff" id="Door" stroke="#000000" style="fill-opacity: 1; stroke-width: 1; stroke-opacity: 1;"><polygon points="542.57,1284.08 458.99,1284.08 458.99,1261.08 542.57,1261.08 "/><g class="Panel Left Negative" fill="none" id="Panel" style=""><g class="PanelArea" fill="none" id="PanelArea" stroke="none" style=""><polygon points="542.57,1284.08 458.99,1284.08 458.99,1261.08 542.57,1261.08 "/></g><path d="M542.57,1284.08 q0.00,83.58 -83.58,83.58 l0.00,-83.58Z"/></g></g><g class="Window Regular" fill="#f0f0ff" id="Window" stroke="#000000" style="fill-opacity: 1; stroke-width: 1; stroke-opacity: 1;"><polygon points="762.41,1284.08 600.32,1284.08 600.32,1261.08 762.41,1261.08 "/><g class="Glass" id="Glass"><polygon points="762.41,1284.08 600.32,1284.08 600.32,1261.08 762.41,1261.08 "/></g><g class="Panel" id="Panel"><line x1="754.9099731445312" x2="607.8200073242188" y1="1272.5799560546875" y2="1272.5799560546875"/><line x1="754.9099731445312" x2="754.9099731445312" y1="1284.0799560546875" y2="1261.0799560546875"/><line x1="607.8200073242188" x2="607.8200073242188" y1="1284.0799560546875" y2="1261.0799560546875"/></g></g><g class="Window Regular" fill="#f0f0ff" id="Window" stroke="#000000" style="fill-opacity: 1; stroke-width: 1; stroke-opacity: 1;"><polygon points="421.00,1284.08 234.09,1284.08 234.09,1261.08 421.00,1261.08 "/><g class="Glass" id="Glass"><polygon points="421.00,1284.08 234.09,1284.08 234.09,1261.08 421.00,1261.08 "/></g><g class="Panel" id="Panel"><line x1="413.5" x2="241.58999633789062" y1="1272.5799560546875" y2="1272.5799560546875"/><line x1="413.5" x2="413.5" y1="1284.0799560546875" y2="1261.0799560546875"/><line x1="241.58999633789062" x2="241.58999633789062" y1="1284.0799560546875" y2="1261.0799560546875"/></g></g></g><g class="Wall External" fill="#000000" id="Wall" stroke="#000000" style="fill-opacity: 1; stroke-opacity: 1; stroke-width: 1;"><polygon points="31.39,1284.08 31.60,327.11 54.60,350.11 54.40,1261.08 "/></g><g class="Wall" fill="#000000" id="Wall" stroke="#000000" style="fill-opacity: 1; stroke-opacity: 1; stroke-width: 1;"><polygon points="31.46,995.83 447.99,995.83 437.99,1005.83 31.46,1005.83 "/><g class="Door Swing Beside" fill="#ffffff" id="Door" stroke="#000000" style="fill-opacity: 1; stroke-width: 1; stroke-opacity: 1;"><polygon points="150.55,995.83 220.52,995.83 220.52,1005.83 150.55,1005.83 "/><g class="Panel Left Positive" fill="none" id="Panel" style=""><g class="PanelArea" fill="none" id="PanelArea" stroke="none" style=""><polygon points="150.55,995.83 220.52,995.83 220.52,1005.83 150.55,1005.83 "/></g><path d="M220.52,1005.83 q0.00,69.97 -69.97,69.97 l0.00,-69.97Z"/></g></g></g><g class="Wall" fill="#000000" id="Wall" stroke="#000000" style="fill-opacity: 1; stroke-opacity: 1; stroke-width: 1;"><polygon points="447.99,995.83 447.99,1284.08 437.99,1284.08 437.99,1005.83 "/><g class="Door Swing Beside" fill="#ffffff" id="Door" stroke="#000000" style="fill-opacity: 1; stroke-width: 1; stroke-opacity: 1;"><polygon points="447.99,1073.29 447.99,1151.27 437.99,1151.27 437.99,1073.29 "/><g class="Panel Left Positive" fill="none" id="Panel" style=""><g class="PanelArea" fill="none" id="PanelArea" stroke="none" style=""><polygon points="447.99,1073.29 447.99,1151.27 437.99,1151.27 437.99,1073.29 "/></g><path d="M437.99,1151.27 q-77.98,0.00 -77.98,-77.98 l77.98,0.00Z"/></g></g></g><g class="Wall" fill="#000000" id="Wall" stroke="#000000" style="fill-opacity: 1; stroke-opacity: 1; stroke-width: 1;"><polygon points="594.53,1284.08 594.53,796.94 584.53,786.94 584.53,1284.08 "/><g class="Door Swing Beside" fill="#ffffff" id="Door" stroke="#000000" style="fill-opacity: 1; stroke-width: 1; stroke-opacity: 1;"><polygon points="594.53,963.78 594.53,889.31 584.53,889.31 584.53,963.78 "/><g class="Panel Left Negative" fill="none" id="Panel" style=""><g class="PanelArea" fill="none" id="PanelArea" stroke="none" style=""><polygon points="594.53,963.78 594.53,889.31 584.53,889.31 584.53,963.78 "/></g><path d="M594.53,963.78 q74.47,0.00 74.47,-74.47 l-74.47,0.00Z"/></g></g></g><g class="Wall" fill="#000000" id="Wall" stroke="#000000" style="fill-opacity: 1; stroke-opacity: 1; stroke-width: 1;"><polygon points="584.53,786.94 863.98,786.94 863.98,796.94 594.53,796.94 "/></g><g class="Wall" fill="#000000" id="Wall" stroke="#000000" style="fill-opacity: 1; stroke-opacity: 1; stroke-width: 1;"><polygon points="437.99,1157.06 594.53,1157.06 594.53,1165.06 437.99,1165.06 "/><g class="Door Swing Beside" fill="#ffffff" id="Door" stroke="#000000" style="fill-opacity: 1; stroke-width: 1; stroke-opacity: 1;"><polygon points="458.01,1157.06 540.80,1157.06 540.80,1165.06 458.01,1165.06 "/><g class="Panel Left Positive" fill="none" id="Panel" style=""><g class="PanelArea" fill="none" id="PanelArea" stroke="none" style=""><polygon points="458.01,1157.06 540.80,1157.06 540.80,1165.06 458.01,1165.06 "/></g><path d="M540.80,1165.06 q0.00,82.79 -82.79,82.79 l0.00,-82.79Z"/></g></g></g><g class="Wall" fill="#000000" id="Wall" stroke="#000000" style="fill-opacity: 1; stroke-opacity: 1; stroke-width: 1;"><polygon points="390.76,1005.83 390.76,885.16 381.76,893.16 381.76,1005.83 "/></g><g class="Wall" fill="#000000" id="Wall" stroke="#000000" style="fill-opacity: 1; stroke-opacity: 1; stroke-width: 1;"><polygon points="390.76,885.16 31.48,885.16 31.48,893.16 381.76,893.16 "/><g class="Door Swing Beside" fill="#ffffff" id="Door" stroke="#000000" style="fill-opacity: 1; stroke-width: 1; stroke-opacity: 1;"><polygon points="373.05,885.16 304.83,885.16 304.83,893.16 373.05,893.16 "/><g class="Panel Left Negative" fill="none" id="Panel" style=""><g class="PanelArea" fill="none" id="PanelArea" stroke="none" style=""><polygon points="373.05,885.16 304.83,885.16 304.83,893.16 373.05,893.16 "/></g><path d="M373.05,885.16 q0.00,-68.22 -68.22,-68.22 l0.00,68.22Z"/></g></g></g><g class="Wall" fill="#000000" id="Wall" stroke="#000000" style="fill-opacity: 1; stroke-opacity: 1; stroke-width: 1;"><polygon points="231.51,327.11 231.51,544.93 219.51,535.93 219.51,327.11 "/></g><g class="Wall" fill="#000000" id="Wall" stroke="#000000" style="fill-opacity: 1; stroke-opacity: 1; stroke-width: 1;"><polygon points="231.51,535.93 231.51,885.16 224.51,885.16 224.51,535.93 "/><g class="Door Swing Beside" fill="#ffffff" id="Door" stroke="#000000" style="fill-opacity: 1; stroke-width: 1; stroke-opacity: 1;"><polygon points="231.51,808.39 231.51,879.81 224.51,879.81 224.51,808.39 "/><g class="Panel Right Negative" fill="none" id="Panel" style=""><g class="PanelArea" fill="none" id="PanelArea" stroke="none" style=""><polygon points="231.51,808.39 231.51,879.81 224.51,879.81 224.51,808.39 "/></g><path d="M231.51,879.81 q71.42,0.00 71.42,-71.42 l-71.42,0.00Z"/></g></g></g><g class="Wall" fill="#000000" id="Wall" stroke="#000000" style="fill-opacity: 1; stroke-opacity: 1; stroke-width: 1;"><polygon points="224.51,797.18 331.99,797.18 331.99,790.18 224.51,790.18 "/></g><g class="Wall" fill="#000000" id="Wall" stroke="#000000" style="fill-opacity: 1; stroke-opacity: 1; stroke-width: 1;"><polygon points="231.51,544.93 31.55,544.93 31.55,535.93 219.51,535.93 "/><g class="Door Swing Beside" fill="#ffffff" id="Door" stroke="#000000" style="fill-opacity: 1; stroke-width: 1; stroke-opacity: 1;"><polygon points="209.76,544.93 135.34,544.93 135.34,535.93 209.76,535.93 "/><g class="Panel Right Negative" fill="none" id="Panel" style=""><g class="PanelArea" fill="none" id="PanelArea" stroke="none" style=""><polygon points="209.76,544.93 135.34,544.93 135.34,535.93 209.76,535.93 "/></g><path d="M135.34,544.93 q0.00,74.42 74.42,74.42 l0.00,-74.42Z"/></g></g></g><g class="Wall" fill="#000000" id="Wall" stroke="#000000" style="fill-opacity: 1; stroke-opacity: 1; stroke-width: 1;"><polygon points="488.68,556.80 488.68,797.80 481.16,788.80 481.16,556.80 "/></g><g class="Wall" fill="#000000" id="Wall" stroke="#000000" style="fill-opacity: 1; stroke-opacity: 1; stroke-width: 1;"><polygon points="488.68,797.80 415.56,797.80 415.56,788.80 481.16,788.80 "/></g><g class="FixedFurnitureSet" id="FixedFurnitureSet" transform="matrix(0,-1,1,0,54.6368,762.2937)"><g class="FixedFurniture BaseCabinet" fill="#ffffff" stroke="#000000" style="fill-opacity: 1; stroke-opacity: 1;" transform="matrix(1,0,0,1,0,0)">
<g class="BoundaryPolygon">
<polygon points="0.00,0.00 53.93,0.00 53.93,38.81 0.00,38.81 "/>
</g>
<g class="Direction" fill-opacity="0.9" style="display: none;">
<polygon fill="#444444" points="28.77,35.70 28.77,25.08 25.76,25.08 25.76,35.70 21.96,35.70 27.26,40.50 32.57,35.70 28.77,35.70 "/>
</g>
<g class="Name" fill-opacity="0.9" style="display: none;">

</g>
<desc>Width:60 Height:5 Depth:60 Elevation:105</desc>
</g><g class="FixedFurniture Sink" fill="#ffffff" stroke="#000000" style="fill-opacity: 1; stroke-opacity: 1;" transform="matrix(1,0,0,1,0,0)">
<g class="BoundaryPolygon" fill="none" stroke="none">
<polygon points="0.00,0.00 53.93,0.00 53.93,38.81 0.00,38.81 "/>
</g>
<g class="InnerPolygon">
<polygon points="4.49,9.70 49.44,9.70 49.44,35.38 4.49,35.38 "/>
</g>
<g class="OuterDrain" stroke-width="0.8">
<circle cx="26.96616181280149" cy="20.826575843749783" r="3.5"/>
</g>
<g class="InnerDrain" stroke-width="0.8">
<circle cx="26.96616181280149" cy="20.826575843749783" r="2"/>
</g>
<g class="Faucet">
<polygon points="24.27,3.23 30.27,3.23 30.27,17.23 24.27,17.23 "/>
</g>
<g class="Direction" fill-opacity="0.9" style="display: none;">
<polygon fill="#444444" points="28.77,35.70 28.77,25.08 25.76,25.08 25.76,35.70 21.96,35.70 27.26,40.50 32.57,35.70 28.77,35.70 "/>
</g>
<g class="Name" fill-opacity="0.9" style="display: none;">

</g>
<desc>Width:60 Height:90 Depth:60 Elevation:0</desc>
</g></g><g class="FixedFurniture ElectricalAppliance WashingMachine" fill="#ffffff" stroke="#000000" style="fill-opacity: 1; stroke-opacity: 1;" transform="matrix(0,-1,1,0,54.6105,885.1552)">
<g class="BoundaryPolygon">
<polygon points="0,0 60,0 60,60 0,60"/>
</g>
<g class="electricitySign" fill="none">
<path d="M0,0,30,41V20.8L60,60"/>
</g>
<g class="Handle">
<path d="M2.7,59.4H57.3"/>
</g>
<g class="Direction" fill-opacity="0.9" style="display: none;">
<polygon fill="#444444" points="32.009 55.197 32.009 44.581 29 44.581 29 55.197 25.197 55.197 30.5 60 35.803 55.197 32.009 55.197"/>
</g>
<g class="Name" fill-opacity="0.9" style="display: none;">

</g>
<desc>Width:60 Height:90 Depth:60 Elevation:0</desc>
</g><g class="FixedFurniture Toilet" fill="#ffffff" stroke="#000000" style="fill-opacity: 1; stroke-opacity: 1;" transform="matrix(0,-1,1,0,54.499,814.3954)">
<g class="BoundaryPolygon" fill="none" stroke="none">
<polygon points="0,0 41,0 41,71 0,71"/>
</g>
<g class="InnerPolygon">
<rect height="17.98" width="39.989" x="0.502" y="0.5"/>
<path d="M40.491,44.237S41.619,70.5,20.907,70.5C-.523,70.5.6,44.237.6,44.237L.5,18.48H40.491Z"/>
<rect height="3.03" width="6.357" x="17.318" y="7.975"/>
</g>
<desc>Width:41 Height:85 Depth:71 Elevation:0</desc>
</g><g class="FixedFurniture ShowerScreen" fill="#ffffff" stroke="#000000" style="fill-opacity: 1; stroke-opacity: 1;" transform="matrix(0,-1,1.4298,0,54.5269,666.9198)">
<g class="BoundaryPolygon">
<polygon points="0,0 2.5,0 2.5,60 0,60"/>
</g>
<g class="InnerPolygon" stroke-linejoin="round">
<rect height="60" width="2.5"/>
</g>
<desc>Width:2.5 Height:180 Depth:60 Elevation:135</desc>
</g><g class="FixedFurniture Shower" fill="#ffffff" stroke="#000000" style="fill-opacity: 1; stroke-opacity: 1;" transform="matrix(1,0,0,1,82.1957,544.9253)">
<g class="BoundaryPolygon" fill="none" stroke="none">
<polygon points="0,0 32,0 32,19 0,19"/>
</g>
<g class="InnerPolygon">
<rect height="6.1" width="11.2" x="3.7" y="0.5"/>
<rect height="6.1" width="11.2" x="17.6" y="0.5"/>
<rect height="6.1" width="3.4" x="28.7" y="0.5"/>
<rect height="6.1" width="3.2" x="0.5" y="0.5"/>
<path d="M14.9,8.5c0,1.5-0.4,3.3-1.6,5    c-0.4,0.6-1,1.1-1.1,1.7c-0.2,1.1,0.3,2.8,2.5,3.2c0.5,0.1,1.3,0.1,1.6,0.1h-0.1c0.3,0,1.1,0,1.6-0.1c2.2-0.4,2.7-2.1,2.5-3.2    c-0.1-0.6-0.7-1.1-1.1-1.7c-1.2-1.7-1.6-3.5-1.6-5"/>
<path d="M12.2,15.3c0.1,0.2,1.6,1.9,4.2,1.9 c2.4-0.1,3.7-1.7,3.9-1.9"/>
<path d="M14.9,0.5h2.7v8c-0.9,0-1.8,0-2.7,0l0,0 C14.9,5.9,14.9,3.2,14.9,0.5z"/>
</g>
<g class="Indicator">
<path d="M3.7,3.6C5,3.1,5.2,3,5.2,3 c0,1.1,0,0,0,1.1C5.2,4.1,5.1,4.1,3.7,3.6"/>
<path d="M28.7,3.6 C27.4,3.1,27.2,3,27.2,3c0,1.1,0,0,0,1.1C27.2,4.1,27.3,4.1,28.7,3.6"/>
</g>
<desc>Width:32 Height:97 Depth:19 Elevation:135</desc>
</g><g class="FixedFurniture SaunaBenchHigh" fill="#ffffff" stroke="#000000" style="fill-opacity: 1; stroke-opacity: 1;" transform="matrix(0,-1,1,0,54.7785,535.1059)">
<g class="BoundaryPolygon">
<polygon points="0.00,0.00 185.00,0.00 185.00,53.12 0.00,53.12 "/>
</g>

<g class="Direction" fill-opacity="0.9" style="display: none;">
<polygon fill="#444444" points="95.41,48.39 95.41,37.77 92.40,37.77 92.40,48.39 88.60,48.39 93.90,53.69 99.20,48.39 95.41,48.39 "/>
</g>
<g class="Name" fill-opacity="0.9" style="display: none;">

</g>
<desc>Width:185 Height:5 Depth:60 Elevation:105</desc>
</g><g class="FixedFurniture SaunaBenchMid" fill="#ffffff" stroke="#000000" style="fill-opacity: 1; stroke-opacity: 1;" transform="matrix(0,-1,1,0,108.1026,535.9252)">
<g class="BoundaryPolygon">
<polygon points="0 0 185 0 185 40 0 40"/>
</g>

<g class="Direction" fill-opacity="0.9" style="display: none;">
<polygon fill="#444444" points="94.009 34.656 94.009 24.04 91 24.04 91 34.656 87.197 34.656 92.5 39.96 97.803 34.656 94.009 34.656"/>
</g>
<g class="Name" fill-opacity="0.9" style="display: none;">

</g>
<desc>Width:185 Height:5 Depth:40 Elevation:60</desc>
</g><g class="FixedFurniture SaunaBenchLow" fill="#ffffff" stroke="#000000" style="fill-opacity: 1; stroke-opacity: 1;" transform="matrix(0,-1,1,0,148.3058,521.3253)">
<g class="BoundaryPolygon">
<polygon points="0.00,0.00 87.81,0.00 87.81,40.00 0.00,40.00 "/>
</g>

<g class="Direction" fill-opacity="0.9" style="display: none;">
<polygon fill="#444444" points="45.41,34.66 45.41,24.04 42.40,24.04 42.40,34.66 38.60,34.66 43.90,39.96 49.21,34.66 45.41,34.66 "/>
</g>
<g class="Name" fill-opacity="0.9" style="display: none;">

</g>
<desc>Width:91 Height:5 Depth:40 Elevation:30</desc>
</g><g class="FixedFurniture ElectricalAppliance SaunaStove" fill="#ffffff" stroke="#000000" style="fill-opacity: 1; stroke-opacity: 1;" transform="matrix(0,0.885,-1.2882,0,219.5145,358.6942)">
<g class="BoundaryPolygon">
<polygon points="0,0 60,0 60,35 0,35"/>
</g>
<g class="electricitySign" fill="none">
<polyline points="0 35 39.7 17.5 21.4 17.5 60 0"/>
</g>
<g class="Direction" fill-opacity="0.9" style="display: none;">
<polygon fill="#444444" points="31.509 29.697 31.509 19.081 28.5 19.081 28.5 29.697 24.697 29.697 30 35 35.303 29.697 31.509 29.697"/>
</g>
<g class="Name" fill-opacity="0.9" style="display: none;">

</g>
<desc>Width:60 Height:60 Depth:35 Elevation:20</desc>
</g><g class="FixedFurniture BaseCabinet" fill="#ffffff" stroke="#000000" style="fill-opacity: 1; stroke-opacity: 1;" transform="matrix(0,-1,1,0,231.5302,790.1817)">
<g class="BoundaryPolygon">
<polygon points="0.00,0.00 332.48,0.00 332.48,60.00 0.00,60.00 "/>
</g>
<g class="Direction" fill-opacity="0.9" style="display: none;">
<polygon fill="#444444" points="177.37,55.20 177.37,44.58 174.37,44.58 174.37,55.20 170.56,55.20 175.87,60.00 181.17,55.20 177.37,55.20 "/>
</g>
<g class="Name" fill-opacity="0.9" style="display: none;">

</g>
<desc>Width:60 Height:90 Depth:60 Elevation:0</desc>
</g><g class="FixedFurniture ElectricalAppliance Dishwasher" fill="#ffffff" stroke="#000000" style="fill-opacity: 1; stroke-opacity: 1;" transform="matrix(0,-0.9065,1,0,231.5302,790.1817)">
<g class="BoundaryPolygon">
<polygon points="0,0 60,0 60,60 0,60"/>
</g>
<g class="electricitySign" fill="none">
<path d="M0,0,30,38.9v-20L60,60"/>
</g>
<g class="Handle">
<path d="M10,59.6H49.8"/>
</g>
<g class="Direction" fill-opacity="0.9" style="display: none;">
<polygon fill="#444444" points="32.009 55.197 32.009 44.581 29 44.581 29 55.197 25.197 55.197 30.5 60 35.803 55.197 32.009 55.197"/>
</g>
<g class="Name" fill-opacity="0.9" style="display: none;">

</g>
<desc>Width:60 Height:90 Depth:60 Elevation:0</desc>
</g><g class="FixedFurniture DoubleSink" fill="#ffffff" stroke="#000000" style="fill-opacity: 1; stroke-opacity: 1;" transform="matrix(0,-1,1,0,231.5302,731.0522)">
<g class="BoundaryPolygon" fill="none" stroke="none">
<polygon points="0,0 70,0 70,60 0,60"/>
</g>
<g class="InnerPolygonLeft">
<polygon points="5 9.9 33.5 9.9 33.5 54.9 5 54.9"/>
</g>
<g class="InnerPolygonRight">
<polygon points="36.5 10 65 10 65 55 36.5 55"/>
</g>
<g class="OuterDrain" stroke-width="0.8">
<circle cx="19.7" cy="32.5" r="3.5"/>
<circle cx="50.2" cy="32.5" r="3.5"/>
</g>
<g class="InnerDrain" stroke-width="0.8">
<circle cx="19.7" cy="32.5" r="2"/>
<circle cx="50.2" cy="32.5" r="2"/>
</g>
<g class="Faucet">
<polygon points="32 4.9 38 4.9 38 18.9 32 18.9"/>
</g>
<g class="Direction" fill-opacity="0.9" style="display: none;">
<polygon fill="#444444" points="36.509 54.697 36.509 44.081 33.5 44.081 33.5 54.697 29.697 54.697 35 60 40.303 54.697 36.509 54.697"/>
</g>
<g class="Name" fill-opacity="0.9" style="display: none;">

</g>
<desc>Width:70 Height:90 Depth:60 Elevation:0</desc>
</g><g class="FixedFurniture ElectricalAppliance IntegratedStove" fill="#ffffff" stroke="#000000" style="fill-opacity: 1; stroke-opacity: 1;" transform="matrix(0,-1,1,0,231.5301,665.7916)">
<g class="BoundaryPolygon" fill="none" stroke="none">
<polygon points="0 0 60 0 60 60 0 60"/>
</g>
<g class="InnerPolygon">
<polygon points="2,2 58,2 58,58 2,58"/>
</g>
<g class="OuterCircle">
<circle cx="16" cy="16" r="8"/>
<circle cx="44" cy="16" r="8"/>
<circle cx="16" cy="44" r="8"/>
<circle cx="44" cy="44" r="8"/>
</g>
<g class="Direction" fill-opacity="0.9" style="display: none;">
<polygon fill="#444444" points="32.009 55.197 32.009 44.581 29 44.581 29 55.197 25.197 55.197 30.5 60 35.803 55.197 32.009 55.197"/>
</g>
<g class="Name" fill-opacity="0.9" style="display: none;">

</g>
<desc>Width:60 Height:90 Depth:30 Elevation:0</desc>
</g><g class="FixedFurniture ElectricalAppliance Refrigerator" fill="#ffffff" stroke="#000000" style="fill-opacity: 1; stroke-opacity: 1;" transform="matrix(0,0.8713,-0.9074,0,481.1601,736.517)">
<g class="BoundaryPolygon">
<polygon points="0,0 60,0 60,60 0,60"/>
</g>
<g class="electricitySign" fill="none">
<path d="M0,0,30,37.1v-18L60,56.3"/>
</g>
<g class="Doors">
<rect height="4" width="60" y="56"/>
</g>
<g class="Direction" fill-opacity="0.9" style="display: none;">
<polygon fill="#444444" points="32.009 55.197 32.009 44.581 29 44.581 29 55.197 25.197 55.197 30.5 60 35.803 55.197 32.009 55.197"/>
</g>
<g class="Name" fill-opacity="0.9" style="display: none;">

</g>
<desc>Width:60 Height:170 Depth:60 Elevation:0</desc>
</g><g class="FixedFurniture Closet" fill="#ffffff" stroke="#000000" style="fill-opacity: 1; stroke-opacity: 1;" transform="matrix(0,1,-1,0,481.1126,680.227)">
<g class="BoundaryPolygon">
<polygon points="0.00,0.00 56.29,0.00 56.29,54.75 0.00,54.75 "/>
</g>
<g class="Direction" fill-opacity="0.9" style="display: none;">
<polygon fill="#444444" points="29.56,49.91 29.56,39.30 26.55,39.30 26.55,49.91 22.75,49.91 28.05,55.22 33.36,49.91 29.56,49.91 "/>
</g>
<g class="Name" fill-opacity="0.9" style="display: none;">

</g>
<desc>Width:60 Height:200 Depth:60 Elevation:0</desc>
</g><g class="FixedFurniture BaseCabinet" fill="#ffffff" stroke="#000000" style="fill-opacity: 1; stroke-opacity: 1;" transform="matrix(0,1,-1,0,481.1595,556.4269)">
<g class="BoundaryPolygon">
<polygon points="0.00,0.00 123.80,0.00 123.80,54.80 0.00,54.80 "/>
</g>
<g class="Direction" fill-opacity="0.9" style="display: none;">
<polygon fill="#444444" points="66.05,50.41 66.05,39.80 63.04,39.80 63.04,50.41 59.23,50.41 64.54,55.22 69.84,50.41 66.05,50.41 "/>
</g>
<g class="Name" fill-opacity="0.9" style="display: none;">

</g>
<desc>Width:60 Height:90 Depth:60 Elevation:0</desc>
</g></g></g></g></svg>