<?xml version="1.0" encoding="utf-8"?>
<svg height="842.649974822998" id="temp" version="1.1" viewBox="0 0 1250.3399658203125 842.649974822998" width="1250.3399658203125" xmlns="http://www.w3.org/2000/svg" xmlns:xlink="http://www.w3.org/1999/xlink"><defs/><g class="Model v1-1" id="Model"><g class="Floor"><g class="Floorplan Floor-1" id="Floor-1"><g class="Space Outdoor" fill="#ffffff" id="01fa0062-9863-4c23-b7b8-eafd94b10d17" stroke="#000000" style="fill-opacity: 1; stroke-opacity: 1; stroke-width: 1;"><polygon points="934.08,181.01 934.08,53.55 1232.10,53.55 1232.10,181.46 934.08,181.01 934.08,181.01 "/><g class="Dimension" transform="matrix(1,0,0,1,934.0785,53.5528)"><g class="Visual" style="display: none;" transform="matrix(1,0,0,1,0,0)"><g class="DimensionMark" fill="#000000" id="mark1" stroke="none" style="fill-opacity: 1; pointer-events: visible;" transform="matrix(1,0,0,1,149.01,0)"><polygon points="-5,5,0,0,5,5"/></g><g class="DimensionMark" fill="#000000" id="mark2" stroke="none" style="fill-opacity: 1; pointer-events: visible;" transform="matrix(1,0,0,1,298.0194,63.9533)"><polygon points="-5,-5,0,0,-5,5"/></g><g class="DimensionMark" fill="#000000" id="mark3" stroke="none" style="fill-opacity: 1; pointer-events: visible;" transform="matrix(1,0,0,1,149.01,127.6812)"><polygon points="-5,-5,0,0,5,-5"/></g><g class="DimensionMark" fill="#000000" id="mark4" stroke="none" style="fill-opacity: 1; pointer-events: visible;" transform="matrix(1,0,0,1,0,63.9533)"><polygon points="5,5,0,0,5,-5"/></g></g><g class="SpaceDimensionsLabel" transform="matrix(1,0,0,1,110.9803,70.6171)"><g class="TextLabel NameLabel" id="NameLabel" style="display: block;"/><g class="TextLabel DimensionMeasureLabel" id="DimensionMeasureLabel" style="display: none;" transform="matrix(1,0,0,1,-57.2891,79.6719)"/></g></g></g><g class="Space LivingRoom" fill="#ffffff" id="a04969e6-0228-46ad-9f44-2943ff7cb94e" stroke="#ffffff" style="fill-opacity: 1; stroke-opacity: 1; stroke-width: 1;"><polygon points="922.21,177.25 890.19,177.25 890.19,554.65 461.00,554.65 461.00,88.41 922.21,88.41 "/><g class="Dimension" transform="matrix(1,0,0,1,460.996,88.4147)"><g class="Visual" style="display: none;" transform="matrix(1,0,0,1,0,0)"><g class="DimensionMark" fill="#000000" id="mark1" stroke="none" style="fill-opacity: 1; pointer-events: visible;" transform="matrix(1,0,0,1,230.6054,0)"><polygon points="-5,5,0,0,5,5"/></g><g class="DimensionMark" fill="#000000" id="mark2" stroke="none" style="fill-opacity: 1; pointer-events: visible;" transform="matrix(1,0,0,1,429.1982,233.1178)"><polygon points="-5,-5,0,0,-5,5"/></g><g class="DimensionMark" fill="#000000" id="mark3" stroke="none" style="fill-opacity: 1; pointer-events: visible;" transform="matrix(1,0,0,1,230.6054,466.2356)"><polygon points="-5,-5,0,0,5,-5"/></g><g class="DimensionMark" fill="#000000" id="mark4" stroke="none" style="fill-opacity: 1; pointer-events: visible;" transform="matrix(1,0,0,1,0,233.1178)"><polygon points="5,5,0,0,5,-5"/></g></g><g class="SpaceDimensionsLabel" style="display: block;" transform="matrix(1,0,0,1,192.6773,236.0102)"><g class="TextLabel NameLabel" id="NameLabel" style="display: block;"/><g class="TextLabel DimensionMeasureLabel" id="DimensionMeasureLabel" style="display: none;" transform="matrix(1,0,0,1,-114.6093,79.6719)"/></g></g></g><g class="Space Entry Lobby" fill="#ffffff" id="df0f4310-961b-4431-aace-7679a81d1ed1" stroke="#ffffff" style="fill-opacity: 1; stroke-opacity: 1; stroke-width: 1;"><polygon points="1015.86,720.47 844.36,720.47 844.36,659.42 831.36,659.42 831.36,720.47 461.00,720.47 461.00,568.65 1015.86,568.65 "/><g class="Dimension" transform="matrix(1,0,0,1,460.996,568.6503)"><g class="Visual" style="display: none;" transform="matrix(1,0,0,1,0,0)"><g class="DimensionMark" fill="#000000" id="mark1" stroke="none" style="fill-opacity: 1; pointer-events: visible;" transform="matrix(1,0,0,1,277.4328,0)"><polygon points="-5,5,0,0,5,5"/></g><g class="DimensionMark" fill="#000000" id="mark2" stroke="none" style="fill-opacity: 1; pointer-events: visible;" transform="matrix(1,0,0,1,554.8656,75.9095)"><polygon points="-5,-5,0,0,-5,5"/></g><g class="DimensionMark" fill="#000000" id="mark3" stroke="none" style="fill-opacity: 1; pointer-events: visible;" transform="matrix(1,0,0,1,277.4328,151.819)"><polygon points="-5,-5,0,0,5,-5"/></g><g class="DimensionMark" fill="#000000" id="mark4" stroke="none" style="fill-opacity: 1; pointer-events: visible;" transform="matrix(1,0,0,1,0,75.9095)"><polygon points="5,5,0,0,5,-5"/></g></g><g class="SpaceDimensionsLabel" style="display: block;" transform="matrix(1,0,0,1,195.5832,77.0828)"><g class="TextLabel NameLabel" id="NameLabel" style="display: block;"/><g class="TextLabel DimensionMeasureLabel" id="DimensionMeasureLabel" style="display: none;" transform="matrix(1,0,0,1,-119.1485,80.2969)"/></g></g></g><g class="Space Bedroom" fill="#ffffff" id="33ddfd77-9f89-4663-b47a-56ca1b3b4848" stroke="#ffffff" style="fill-opacity: 1; stroke-opacity: 1; stroke-width: 1;"><polygon points="434.00,437.92 80.81,437.92 81.38,88.41 434.00,88.41 "/><g class="Dimension" transform="matrix(1,0,0,1,81.0943,88.4147)"><g class="Visual" style="display: none;" transform="matrix(1,0,0,1,0,0)"><g class="DimensionMark" fill="#000000" id="mark1" stroke="none" style="fill-opacity: 1; pointer-events: visible;" transform="matrix(1,0,0,1,176.3095,0)"><polygon points="-5,5,0,0,5,5"/></g><g class="DimensionMark" fill="#000000" id="mark2" stroke="none" style="fill-opacity: 1; pointer-events: visible;" transform="matrix(1,0,0,1,352.9017,174.7525)"><polygon points="-5,-5,0,0,-5,5"/></g><g class="DimensionMark" fill="#000000" id="mark3" stroke="none" style="fill-opacity: 1; pointer-events: visible;" transform="matrix(1,0,0,1,176.3095,349.504)"><polygon points="-5,-5,0,0,5,-5"/></g><g class="DimensionMark" fill="#000000" id="mark4" stroke="none" style="fill-opacity: 1; pointer-events: visible;" transform="matrix(1,0,0,1,0,174.7525)"><polygon points="5,5,0,0,5,-5"/></g></g><g class="SpaceDimensionsLabel" style="display: block;" transform="matrix(1,0,0,1,143.5572,155.6991)"><g class="TextLabel NameLabel" id="NameLabel" style="display: block;"/><g class="TextLabel DimensionMeasureLabel" id="DimensionMeasureLabel" style="display: none;" transform="matrix(1,0,0,1,-113.6875,79.2813)"/></g></g></g><g class="Space Kitchen" fill="#ffffff" id="e5711fa7-9989-4b64-975b-710f620b97fb" stroke="#ffffff" style="fill-opacity: 1; stroke-opacity: 1; stroke-width: 1;"><polygon points="1210.46,555.65 922.00,555.65 922.00,216.25 1210.46,216.25 "/><g class="Dimension" transform="matrix(1,0,0,1,922.0026,216.2547)"><g class="Visual" style="display: none;" transform="matrix(1,0,0,1,0,0)"><g class="DimensionMark" fill="#000000" id="mark1" stroke="none" style="fill-opacity: 1; pointer-events: visible;" transform="matrix(1,0,0,1,144.2263,0)"><polygon points="-5,5,0,0,5,5"/></g><g class="DimensionMark" fill="#000000" id="mark2" stroke="none" style="fill-opacity: 1; pointer-events: visible;" transform="matrix(1,0,0,1,288.4526,169.6978)"><polygon points="-5,-5,0,0,-5,5"/></g><g class="DimensionMark" fill="#000000" id="mark3" stroke="none" style="fill-opacity: 1; pointer-events: visible;" transform="matrix(1,0,0,1,144.2263,339.3955)"><polygon points="-5,-5,0,0,5,-5"/></g><g class="DimensionMark" fill="#000000" id="mark4" stroke="none" style="fill-opacity: 1; pointer-events: visible;" transform="matrix(1,0,0,1,0,169.6978)"><polygon points="5,5,0,0,5,-5"/></g></g><g class="SpaceDimensionsLabel" style="display: block;" transform="matrix(1,0,0,1,114.4724,188.2939)"><g class="TextLabel NameLabel" id="NameLabel" style="display: block;"/><g class="TextLabel DimensionMeasureLabel" id="DimensionMeasureLabel" style="display: none;" transform="matrix(1,0,0,1,-128.414,79.2812)"/></g></g></g><g class="Space Bedroom" fill="#ffffff" id="a7244de1-158c-46c1-925a-a952b55bf49b" stroke="#ffffff" style="fill-opacity: 1; stroke-opacity: 1; stroke-width: 1;"><polygon points="434.00,659.10 373.07,659.10 373.07,720.47 79.81,720.47 80.81,451.92 434.00,451.92 "/><g class="Dimension" transform="matrix(1,0,0,1,80.3116,451.9187)"><g class="Visual" style="display: none;" transform="matrix(1,0,0,1,0,0)"><g class="DimensionMark" fill="#000000" id="mark1" stroke="none" style="fill-opacity: 1; pointer-events: visible;" transform="matrix(1,0,0,1,176.5922,0)"><polygon points="-5,5,0,0,5,5"/></g><g class="DimensionMark" fill="#000000" id="mark2" stroke="none" style="fill-opacity: 1; pointer-events: visible;" transform="matrix(1,0,0,1,353.6844,134.2771)"><polygon points="-5,-5,0,0,-5,5"/></g><g class="DimensionMark" fill="#000000" id="mark3" stroke="none" style="fill-opacity: 1; pointer-events: visible;" transform="matrix(1,0,0,1,176.5922,268.5506)"><polygon points="-5,-5,0,0,5,-5"/></g><g class="DimensionMark" fill="#000000" id="mark4" stroke="none" style="fill-opacity: 1; pointer-events: visible;" transform="matrix(1,0,0,1,0,134.2771)"><polygon points="5,5,0,0,5,-5"/></g></g><g class="SpaceDimensionsLabel" style="display: block;" transform="matrix(1,0,0,1,122.45,141.0704)"><g class="TextLabel NameLabel" id="NameLabel" style="display: block;"/><g class="TextLabel DimensionMeasureLabel" id="DimensionMeasureLabel" style="display: none;" transform="matrix(1,0,0,1,-113.6797,79.9218)"/></g></g></g><g class="Space Bath" fill="#ffffff" id="79d4c570-a8b5-4f51-b63a-94b1e640b15c" stroke="#ffffff" style="fill-opacity: 1; stroke-opacity: 1; stroke-width: 1;"><polygon points="1210.46,720.47 1028.86,720.47 1028.86,568.65 1210.46,568.65 "/><g class="Dimension" transform="matrix(1,0,0,1,1028.8616,568.6503)"><g class="Visual" style="display: none;" transform="matrix(1,0,0,1,0,0)"><g class="DimensionMark" fill="#000000" id="mark1" stroke="none" style="fill-opacity: 1; pointer-events: visible;" transform="matrix(1,0,0,1,90.7968,0)"><polygon points="-5,5,0,0,5,5"/></g><g class="DimensionMark" fill="#000000" id="mark2" stroke="none" style="fill-opacity: 1; pointer-events: visible;" transform="matrix(1,0,0,1,181.5936,75.9095)"><polygon points="-5,-5,0,0,-5,5"/></g><g class="DimensionMark" fill="#000000" id="mark3" stroke="none" style="fill-opacity: 1; pointer-events: visible;" transform="matrix(1,0,0,1,90.7968,151.819)"><polygon points="-5,-5,0,0,5,-5"/></g><g class="DimensionMark" fill="#000000" id="mark4" stroke="none" style="fill-opacity: 1; pointer-events: visible;" transform="matrix(1,0,0,1,0,75.9095)"><polygon points="5,5,0,0,5,-5"/></g></g><g class="SpaceDimensionsLabel" style="display: block;" transform="matrix(1,0,0,1,41.1967,64.7518)"><g class="TextLabel NameLabel" id="NameLabel" style="display: block;"/><g class="TextLabel DimensionMeasureLabel" id="DimensionMeasureLabel" style="display: none;" transform="matrix(1,0,0,1,-116.1562,79.4843)"/></g></g></g><g class="Wall External" fill="#000000" id="Wall" stroke="#000000" style="fill-opacity: 1; stroke-opacity: 1; stroke-width: 1;"><polygon points="37.24,46.41 944.21,46.41 922.21,88.41 81.38,88.41 "/><g class="Window Regular" fill="#f0f0ff" id="Window" stroke="#000000" style="fill-opacity: 1; stroke-width: 1; stroke-opacity: 1;"><polygon points="553.02,46.41 892.34,46.41 892.34,88.41 553.02,88.41 "/><g class="Glass" id="Glass"><polygon points="553.02,46.41 892.34,46.41 892.34,88.41 553.02,88.41 "/></g><g class="Panel" id="Panel"><line x1="560.5207507590968" x2="884.8420925426315" y1="67.41472126076846" y2="67.41472126076845"/><line x1="560.5207507590968" x2="560.5207507590968" y1="46.41472126076845" y2="88.41472126076846"/><line x1="884.8420925426315" x2="884.8420925426315" y1="46.41472126076843" y2="88.41472126076843"/></g></g></g><g class="Wall External" fill="#000000" id="Wall" stroke="#000000" style="fill-opacity: 1; stroke-opacity: 1; stroke-width: 1;"><polygon points="944.21,46.41 944.21,176.25 922.21,216.25 922.21,88.41 "/><g class="Door Swing Beside" fill="#ffffff" id="Door" stroke="#000000" style="fill-opacity: 1; stroke-width: 1; stroke-opacity: 1;"><polygon points="944.21,90.89 944.21,170.73 922.21,170.73 922.21,90.89 "/><g class="Panel Left Negative" fill="none" id="Panel" style=""><g class="PanelArea" fill="none" id="PanelArea" stroke="none" style=""><polygon points="944.21,90.89 944.21,170.73 922.21,170.73 922.21,90.89 "/></g><path d="M944.21,90.89 q79.84,0.00 79.84,79.84 l-79.84,0.00Z"/></g></g></g><g class="Wall External" fill="#000000" id="Wall" stroke="#000000" style="fill-opacity: 1; stroke-opacity: 1; stroke-width: 1;"><polygon points="944.21,176.25 1238.46,176.25 1210.46,216.25 922.21,216.25 "/><g class="Window Regular" fill="#f0f0ff" id="Window" stroke="#000000" style="fill-opacity: 1; stroke-width: 1; stroke-opacity: 1;"><polygon points="992.14,176.25 1158.21,176.25 1158.21,216.25 992.14,216.25 "/><g class="Glass" id="Glass"><polygon points="992.14,176.25 1158.21,176.25 1158.21,216.25 992.14,216.25 "/></g><g class="Panel" id="Panel"><line x1="999.6424961552866" x2="1150.710352839934" y1="196.25473757324085" y2="196.25473757324082"/><line x1="999.6424961552866" x2="999.6424961552866" y1="176.25473757324085" y2="216.25473757324085"/><line x1="1150.710352839934" x2="1150.710352839934" y1="176.25473757324082" y2="216.25473757324082"/></g></g></g><g class="Wall External" fill="#000000" id="Wall" stroke="#000000" style="fill-opacity: 1; stroke-opacity: 1; stroke-width: 1;"><polygon points="1238.46,176.25 1238.46,748.47 1210.46,720.47 1210.46,216.25 "/></g><g class="Wall External" fill="#000000" id="Wall" stroke="#000000" style="fill-opacity: 1; stroke-opacity: 1; stroke-width: 1;"><polygon points="1238.46,748.47 35.50,748.47 79.81,720.47 1210.46,720.47 "/><g class="Door Swing Opposite" fill="#ffffff" id="Door" stroke="#000000" style="fill-opacity: 1; stroke-width: 1; stroke-opacity: 1;"><polygon points="823.57,748.47 729.39,748.47 729.39,720.47 823.57,720.47 "/><g class="Panel Left Negative" fill="none" id="Panel" style=""><g class="PanelArea" fill="none" id="PanelArea" stroke="none" style=""><polygon points="823.57,748.47 729.39,748.47 729.39,720.47 823.57,720.47 "/></g><path d="M823.57,748.47 q0.00,94.18 -94.18,94.18 l0.00,-94.18Z"/></g><g class="Panel Right Positive" fill="none" id="Panel" style=""><g class="PanelArea" fill="none" id="PanelArea" stroke="none" style=""><polygon points="823.57,748.47 729.39,748.47 729.39,720.47 823.57,720.47 "/></g><path d="M823.57,720.47 q0.00,-94.18 -94.18,-94.18 l0.00,94.18Z"/></g></g></g><g class="Wall External" fill="#000000" id="Wall" stroke="#000000" style="fill-opacity: 1; stroke-opacity: 1; stroke-width: 1;"><polygon points="35.50,748.47 37.24,46.41 81.38,88.41 79.81,720.47 "/><g class="Window Regular" fill="#f0f0ff" id="Window" stroke="#000000" style="fill-opacity: 1; stroke-width: 1; stroke-opacity: 1;"><polygon points="36.55,324.39 36.96,159.96 81.20,160.07 80.79,324.50 "/><g class="Glass" id="Glass"><polygon points="36.55,324.39 36.96,159.96 81.20,160.07 80.79,324.50 "/></g><g class="Panel" id="Panel"><line x1="58.692121026868335" x2="59.062204152109565" y1="316.9469996133609" y2="167.51692582818904"/><line x1="36.57338709414065" x2="80.81085495959601" y1="316.8922196753414" y2="317.0017795513804"/><line x1="36.94347021938188" x2="81.18093808483725" y1="167.46214589016955" y2="167.5717057662086"/></g></g><g class="Window Regular" fill="#f0f0ff" id="Window" stroke="#000000" style="fill-opacity: 1; stroke-width: 1; stroke-opacity: 1;"><polygon points="35.69,675.38 36.09,511.75 80.33,511.86 79.92,675.48 "/><g class="Glass" id="Glass"><polygon points="35.69,675.38 36.09,511.75 80.33,511.86 79.92,675.48 "/></g><g class="Panel" id="Panel"><line x1="57.822865293694534" x2="58.19095287606456" y1="667.9301693044258" y2="519.3058445473746"/><line x1="35.704131360966855" x2="79.94159922642221" y1="667.8753893664062" y2="667.9849492424453"/><line x1="36.07221894333688" x2="80.30968680879225" y1="519.2510646093549" y2="519.3606244853939"/></g></g></g><g class="Wall" fill="#000000" id="Wall" stroke="#000000" style="fill-opacity: 1; stroke-opacity: 1; stroke-width: 1;"><polygon points="922.21,216.25 922.00,216.25 890.19,177.25 922.21,177.25 "/></g><g class="Wall" fill="#000000" id="Wall" stroke="#000000" style="fill-opacity: 1; stroke-opacity: 1; stroke-width: 1;"><polygon points="890.19,177.25 890.19,568.65 922.00,555.65 922.00,216.25 "/></g><g class="Wall" fill="#000000" id="Wall" stroke="#000000" style="fill-opacity: 1; stroke-opacity: 1; stroke-width: 1;"><polygon points="461.00,46.41 461.00,748.47 434.00,748.47 434.00,46.41 "/><g class="Door Swing Beside" fill="#ffffff" id="Door" stroke="#000000" style="fill-opacity: 1; stroke-width: 1; stroke-opacity: 1;"><polygon points="461.00,577.27 461.00,657.44 434.00,657.44 434.00,577.27 "/><g class="Panel Right Negative" fill="none" id="Panel" style=""><g class="PanelArea" fill="none" id="PanelArea" stroke="none" style=""><polygon points="461.00,577.27 461.00,657.44 434.00,657.44 434.00,577.27 "/></g><path d="M461.00,657.44 q80.17,0.00 80.17,-80.17 l-80.17,0.00Z"/></g></g><g class="Door Swing Beside" fill="#ffffff" id="Door" stroke="#000000" style="fill-opacity: 1; stroke-width: 1; stroke-opacity: 1;"><polygon points="461.00,282.46 461.00,368.36 434.00,368.36 434.00,282.46 "/><g class="Panel Right Positive" fill="none" id="Panel" style=""><g class="PanelArea" fill="none" id="PanelArea" stroke="none" style=""><polygon points="461.00,282.46 461.00,368.36 434.00,368.36 434.00,282.46 "/></g><path d="M434.00,282.46 q-85.90,0.00 -85.90,85.90 l85.90,0.00Z"/></g></g></g><g class="Wall" fill="#000000" id="Wall" stroke="#000000" style="fill-opacity: 1; stroke-opacity: 1; stroke-width: 1;"><polygon points="36.24,451.92 461.00,451.92 461.00,437.92 36.24,437.92 "/></g><g class="Wall" fill="#000000" id="Wall" stroke="#000000" style="fill-opacity: 1; stroke-opacity: 1; stroke-width: 1;"><polygon points="922.00,568.65 434.00,568.65 434.00,554.65 922.00,554.65 "/><g class="Door Swing Beside" fill="#ffffff" id="Door" stroke="#000000" style="fill-opacity: 1; stroke-width: 1; stroke-opacity: 1;"><polygon points="750.12,568.65 601.95,568.65 601.95,554.65 750.12,554.65 "/><g class="Panel Left Positive" fill="none" id="Panel" style=""><g class="PanelArea" fill="none" id="PanelArea" stroke="none" style=""><polygon points="750.12,568.65 676.04,568.65 676.04,554.65 750.12,554.65 "/></g><path d="M676.04,554.65 q0.00,-74.09 74.09,-74.09 l0.00,74.09Z"/></g><g class="Panel Right Positive" fill="none" id="Panel" style=""><g class="PanelArea" fill="none" id="PanelArea" stroke="none" style=""><polygon points="676.04,568.65 601.95,568.65 601.95,554.65 676.04,554.65 "/></g><path d="M676.04,554.65 q0.00,-74.09 -74.09,-74.09 l0.00,74.09Z"/></g></g></g><g class="Wall" fill="#000000" id="Wall" stroke="#000000" style="fill-opacity: 1; stroke-opacity: 1; stroke-width: 1;"><polygon points="890.19,568.65 1238.46,568.65 1238.46,555.65 922.00,555.65 "/><g class="Door Swing Beside" fill="#ffffff" id="Door" stroke="#000000" style="fill-opacity: 1; stroke-width: 1; stroke-opacity: 1;"><polygon points="929.54,568.65 1010.58,568.65 1010.58,555.65 929.54,555.65 "/><g class="Panel Left Positive" fill="none" id="Panel" style=""><g class="PanelArea" fill="none" id="PanelArea" stroke="none" style=""><polygon points="929.54,568.65 1010.58,568.65 1010.58,555.65 929.54,555.65 "/></g><path d="M1010.58,555.65 q0.00,-81.04 -81.04,-81.04 l0.00,81.04Z"/></g></g></g><g class="Wall" fill="#000000" id="Wall" stroke="#000000" style="fill-opacity: 1; stroke-opacity: 1; stroke-width: 1;"><polygon points="1015.86,555.65 1015.86,748.47 1028.86,748.47 1028.86,555.65 "/><g class="Door Swing Beside" fill="#ffffff" id="Door" stroke="#000000" style="fill-opacity: 1; stroke-width: 1; stroke-opacity: 1;"><polygon points="1015.86,577.65 1015.86,649.21 1028.86,649.21 1028.86,577.65 "/><g class="Panel Left Negative" fill="none" id="Panel" style=""><g class="PanelArea" fill="none" id="PanelArea" stroke="none" style=""><polygon points="1015.86,577.65 1015.86,649.21 1028.86,649.21 1028.86,577.65 "/></g><path d="M1015.86,577.65 q-71.56,0.00 -71.56,71.56 l71.56,0.00Z"/></g></g></g><g class="Railing" fill="#ffffff" id="Railing" stroke="#000000" style="fill-opacity: 1; stroke-opacity: 1; stroke-width: 1;"><polygon points="944.21,46.41 1237.97,46.41 1224.97,59.41 944.21,59.41 " style="stroke-dasharray: 293.764, 18.3848, 293.764;"/></g><g class="Railing" fill="#ffffff" id="Railing" stroke="#000000" style="fill-opacity: 1; stroke-opacity: 1; stroke-width: 1;"><polygon points="1237.97,46.41 1237.97,176.25 1224.97,176.25 1224.97,59.41 " style="stroke-dasharray: 259.68, 18.3848;"/></g><g class="Column Rectangle" fill="#000000" id="Column" stroke="none" style="fill-opacity: 1;"><polygon points="1217.03,39.99 1217.03,85.05 1250.34,85.05 1250.34,39.99 "/></g><g class="Wall" fill="#000000" id="Wall" stroke="#000000" style="fill-opacity: 1; stroke-opacity: 1; stroke-width: 1;"><polygon points="373.07,748.47 373.07,659.10 438.50,659.10 438.50,748.47 "/></g><g class="Wall" fill="#000000" id="Wall" stroke="#000000" style="fill-opacity: 1; stroke-opacity: 1; stroke-width: 1;"><polygon points="831.36,748.47 831.36,659.42 844.36,659.42 844.36,748.47 "/></g><g class="FixedFurniture BaseCabinet" fill="#ffffff" stroke="#000000" style="fill-opacity: 1; stroke-opacity: 1;" transform="matrix(1,0,0,1,982.6551,216.3947)"><desc>Width:60 Height:90 Depth:60 Elevation:0</desc><g class="BoundaryPolygon"><polygon points="0.00,0.00 0.00,61.98 168.70,61.98 168.70,310.75 227.14,310.75 227.80,-0.14 0.00,0.00 "/></g></g><g class="Wall" fill="#000000" id="Wall" stroke="#000000" style="fill-opacity: 1; stroke-opacity: 1; stroke-width: 1;"><polygon points="1151.18,527.22 1238.46,527.22 1238.46,560.47 1151.18,560.47 "/></g><g class="FixedFurniture Closet" fill="#ffffff" stroke="#000000" style="fill-opacity: 1; stroke-opacity: 1;" transform="matrix(1,0,0,1,922.659,216.3328)">
<g class="BoundaryPolygon">
<polygon points="0.00,0.00 60.00,0.00 60.00,62.13 0.00,62.13 "/>
</g>
<g class="Direction" fill-opacity="0.9" style="display: none;">
<polygon fill="#444444" points="31.51,56.64 31.51,46.02 28.50,46.02 28.50,56.64 24.70,56.64 30.00,61.94 35.30,56.64 31.51,56.64 "/>
</g>
<g class="Name" fill-opacity="0.9" style="display: none;">

</g>
<desc>Width:60 Height:200 Depth:60 Elevation:0</desc>
</g><g class="FixedFurniture ElectricalAppliance IntegratedStove" fill="#ffffff" stroke="#000000" style="fill-opacity: 1; stroke-opacity: 1;" transform="matrix(0,1,-1,0,1212.0373,468.9617)">
<g class="BoundaryPolygon" fill="none" stroke="none">
<polygon points="0.00,0.00 60.00,0.00 60.00,62.39 0.00,62.39 "/>
</g>
<g class="InnerPolygon">
<polygon points="2.00,2.00 58.00,2.00 58.00,60.31 2.00,60.31 "/>
</g>
<g class="OuterCircle">
<circle cx="16" cy="16.6366284976762" r="8"/>
<circle cx="44" cy="16.6366284976762" r="8"/>
<circle cx="16" cy="45.75072836860954" r="8"/>
<circle cx="44" cy="45.75072836860954" r="8"/>
</g>
<g class="Direction" fill-opacity="0.9" style="display: none;">
<polygon fill="#444444" points="32.01,57.39 32.01,46.78 29.00,46.78 29.00,57.39 25.20,57.39 30.50,62.20 35.80,57.39 32.01,57.39 "/>
</g>
<g class="Name" fill-opacity="0.9" style="display: none;">

</g>
<desc>Width:60 Height:90 Depth:30 Elevation:0</desc>
</g><g class="FixedFurniture ElectricalAppliance Refrigerator" fill="#ffffff" stroke="#000000" style="fill-opacity: 1; stroke-opacity: 1;" transform="matrix(0,1.0432,-0.9762,0,1210.3942,216.274)">
<g class="BoundaryPolygon">
<polygon points="0,0 60,0 60,60 0,60"/>
</g>
<g class="electricitySign" fill="none">
<path d="M0,0,30,37.1v-18L60,56.3"/>
</g>
<g class="Doors">
<rect height="4" width="60" y="56"/>
</g>
<g class="Direction" fill-opacity="0.9" style="display: none;">
<polygon fill="#444444" points="32.009 55.197 32.009 44.581 29 44.581 29 55.197 25.197 55.197 30.5 60 35.803 55.197 32.009 55.197"/>
</g>
<g class="Name" fill-opacity="0.9" style="display: none;">

</g>
<desc>Width:60 Height:170 Depth:60 Elevation:0</desc>
</g><g class="FixedFurniture Closet" fill="#ffffff" stroke="#000000" style="fill-opacity: 1; stroke-opacity: 1;" transform="matrix(0,1,-1,0,1210.3302,278.866)">
<g class="BoundaryPolygon">
<polygon points="0.00,0.00 51.16,0.00 51.16,58.53 0.00,58.53 "/>
</g>
<g class="Direction" fill-opacity="0.9" style="display: none;">
<polygon fill="#444444" points="26.87,53.35 26.87,42.74 23.86,42.74 23.86,53.35 20.06,53.35 25.36,58.66 30.66,53.35 26.87,53.35 "/>
</g>
<g class="Name" fill-opacity="0.9" style="display: none;">

</g>
<desc>Width:60 Height:200 Depth:60 Elevation:0</desc>
</g><g class="FixedFurniture SideSink" fill="#ffffff" stroke="#000000" style="fill-opacity: 1; stroke-opacity: 1;" transform="matrix(0,1,-1,0,1215.4414,382.2597)">
<g class="BoundaryPolygon" fill="none" stroke="none">
<polygon points="0.00,0.00 54.54,0.00 54.54,62.04 0.00,62.04 0.00,0.00 "/>
</g>
<g class="InnerPolygonTop">
<polygon points="5.10,10.34 45.54,10.34 45.54,29.79 5.10,29.79 "/>
</g>
<g class="InnerPolygonBottom">
<polygon points="5.00,32.37 45.45,32.37 45.45,56.87 5.00,56.87 "/>
</g>
<g class="OuterDrain" stroke-width="0.8">
<circle cx="24.99895947341495" cy="20.064224636489048" r="3.5"/>
<circle cx="24.99895947341495" cy="45.02998124107366" r="3.5"/>
</g>
<g class="InnerDrain" stroke-width="0.8">
<circle cx="24.99895947341495" cy="20.064224636489048" r="2"/>
<circle cx="24.99895947341495" cy="45.02998124107366" r="2"/>
</g>
<g class="Faucet">
<polygon points="50.09,27.92 50.09,33.92 36.09,33.92 36.09,27.92 50.09,27.92 "/>
</g>
<g class="Direction" fill-opacity="0.9" style="display: none;">
<polygon fill="#444444" points="26.37,56.56 26.37,45.94 23.36,45.94 23.36,56.56 19.56,56.56 24.86,61.86 30.16,56.56 26.37,56.56 "/>
</g>
<g class="Name" fill-opacity="0.9" style="display: none;">

</g>
<desc>Width:60 Height:90 Depth:60 Elevation:0</desc>
</g><g class="FixedFurniture Bathtub" fill="#ffffff" stroke="#000000" style="fill-opacity: 1; stroke-opacity: 1;" transform="matrix(0,0.863,-0.8354,0,1210.4552,569.4443)">
<g class="BoundaryPolygon">
<polygon points="0,0 175,0 175,82 0,82"/>
</g>
<g class="Tub">
<path d="M166.6,41.2c0,19.7,0,35.7-79.3,35.7S8,60.9,8,41.2,8,5.5,87.3,5.5,166.6,21.5,166.6,41.2Z"/>
</g>
<g class="Name" fill-opacity="0.9" style="display: none;">

</g>
<desc>Width:175 Height:38 Depth:82 Elevation:0</desc>
</g><g class="FixedFurniture Shower" fill="#ffffff" stroke="#000000" style="fill-opacity: 1; stroke-opacity: 1;" transform="matrix(-1,0,0,-1,1193.4281,720.4769)">
<g class="BoundaryPolygon" fill="none" stroke="none">
<polygon points="0,0 32,0 32,19 0,19"/>
</g>
<g class="InnerPolygon">
<rect height="6.1" width="11.2" x="3.7" y="0.5"/>
<rect height="6.1" width="11.2" x="17.6" y="0.5"/>
<rect height="6.1" width="3.4" x="28.7" y="0.5"/>
<rect height="6.1" width="3.2" x="0.5" y="0.5"/>
<path d="M14.9,8.5c0,1.5-0.4,3.3-1.6,5    c-0.4,0.6-1,1.1-1.1,1.7c-0.2,1.1,0.3,2.8,2.5,3.2c0.5,0.1,1.3,0.1,1.6,0.1h-0.1c0.3,0,1.1,0,1.6-0.1c2.2-0.4,2.7-2.1,2.5-3.2    c-0.1-0.6-0.7-1.1-1.1-1.7c-1.2-1.7-1.6-3.5-1.6-5"/>
<path d="M12.2,15.3c0.1,0.2,1.6,1.9,4.2,1.9 c2.4-0.1,3.7-1.7,3.9-1.9"/>
<path d="M14.9,0.5h2.7v8c-0.9,0-1.8,0-2.7,0l0,0 C14.9,5.9,14.9,3.2,14.9,0.5z"/>
</g>
<g class="Indicator">
<path d="M3.7,3.6C5,3.1,5.2,3,5.2,3 c0,1.1,0,0,0,1.1C5.2,4.1,5.1,4.1,3.7,3.6"/>
<path d="M28.7,3.6 C27.4,3.1,27.2,3,27.2,3c0,1.1,0,0,0,1.1C27.2,4.1,27.3,4.1,28.7,3.6"/>
</g>
<desc>Width:32 Height:97 Depth:19 Elevation:135</desc>
</g><g class="FixedFurnitureSet" fill="#ffffff" id="FixedFurnitureSet" stroke="#000000" style="fill-opacity: 0.4; stroke-opacity: 0.4;" transform="matrix(-1,0,0,-1,1141.9516,720.3599)"><g class="FixedFurniture BaseCabinet" fill="#ffffff" stroke="#000000" style="fill-opacity: 1; stroke-opacity: 1;" transform="matrix(1,0,0,1,0,0)">
<g class="BoundaryPolygon">
<polygon points="0.00,0.00 52.96,0.00 52.96,37.17 0.00,37.17 "/>
</g>
<g class="Direction" fill-opacity="0.9" style="display: none;">
<polygon fill="#444444" points="28.25,34.19 28.25,23.58 25.25,23.58 25.25,34.19 21.44,34.19 26.75,39.00 32.05,34.19 28.25,34.19 "/>
</g>
<g class="Name" fill-opacity="0.9" style="display: none;">

</g>
<desc>Width:60 Height:5 Depth:60 Elevation:105</desc>
</g><g class="FixedFurniture Sink" fill="#ffffff" stroke="#000000" style="fill-opacity: 1; stroke-opacity: 1;" transform="matrix(1,0,0,1,0,0)">
<g class="BoundaryPolygon" fill="none" stroke="none">
<polygon points="0.00,0.00 52.96,0.00 52.96,37.17 0.00,37.17 "/>
</g>
<g class="InnerPolygon">
<polygon points="4.41,9.70 48.55,9.70 48.55,33.89 4.41,33.89 "/>
</g>
<g class="OuterDrain" stroke-width="0.8">
<circle cx="26.481332899289054" cy="19.948050546544472" r="3.5"/>
</g>
<g class="InnerDrain" stroke-width="0.8">
<circle cx="26.481332899289054" cy="19.948050546544472" r="2"/>
</g>
<g class="Faucet">
<polygon points="23.83,3.10 29.83,3.10 29.83,17.10 23.83,17.10 "/>
</g>
<g class="Direction" fill-opacity="0.9" style="display: none;">
<polygon fill="#444444" points="28.25,34.19 28.25,23.58 25.25,23.58 25.25,34.19 21.44,34.19 26.75,39.00 32.05,34.19 28.25,34.19 "/>
</g>
<g class="Name" fill-opacity="0.9" style="display: none;">

</g>
<desc>Width:60 Height:90 Depth:60 Elevation:0</desc>
</g></g><g class="FixedFurniture Toilet" fill="#ffffff" stroke="#000000" style="fill-opacity: 1; stroke-opacity: 1;" transform="matrix(-1,0,0,-1,1081.5905,720.4692)">
<g class="BoundaryPolygon" fill="none" stroke="none">
<polygon points="0,0 41,0 41,71 0,71"/>
</g>
<g class="InnerPolygon">
<rect height="17.98" width="39.989" x="0.502" y="0.5"/>
<path d="M40.491,44.237S41.619,70.5,20.907,70.5C-.523,70.5.6,44.237.6,44.237L.5,18.48H40.491Z"/>
<rect height="3.03" width="6.357" x="17.318" y="7.975"/>
</g>
<desc>Width:41 Height:85 Depth:71 Elevation:0</desc>
</g><g class="FixedFurnitureSet" fill="#ffffff" id="FixedFurnitureSet" stroke="#000000" style="fill-opacity: 0.4; stroke-opacity: 0.4;" transform="matrix(-1,0,0,-1,1014.3742,720.2662)"><g class="FixedFurniture Closet" fill="#ffffff" stroke="#000000" style="fill-opacity: 1; stroke-opacity: 1;" transform="matrix(1,0,0,1,0,0)">
<g class="BoundaryPolygon">
<polygon points="0.00,0.00 56.67,0.00 56.67,60.00 0.00,60.00 "/>
</g>
<g class="Direction" fill-opacity="0.9" style="display: none;">
<polygon fill="#444444" points="29.76,54.70 29.76,44.08 26.75,44.08 26.75,54.70 22.95,54.70 28.25,60.00 33.55,54.70 29.76,54.70 "/>
</g>
<g class="Name" fill-opacity="0.9" style="display: none;">

</g>
<desc>Width:60 Height:200 Depth:60 Elevation:0</desc>
</g><g class="FixedFurniture Closet" fill="#ffffff" stroke="#000000" style="fill-opacity: 1; stroke-opacity: 1;" transform="matrix(1,0,0,1,56.67,0)">
<g class="BoundaryPolygon">
<polygon points="0.00,0.00 56.67,0.00 56.67,60.00 0.00,60.00 "/>
</g>
<g class="Direction" fill-opacity="0.9" style="display: none;">
<polygon fill="#444444" points="29.76,54.70 29.76,44.08 26.75,44.08 26.75,54.70 22.95,54.70 28.25,60.00 33.55,54.70 29.76,54.70 "/>
</g>
<g class="Name" fill-opacity="0.9" style="display: none;">

</g>
<desc>Width:60 Height:200 Depth:60 Elevation:0</desc>
</g><g class="FixedFurniture Closet" fill="#ffffff" stroke="#000000" style="fill-opacity: 1; stroke-opacity: 1;" transform="matrix(1,0,0,1,113.34,0)">
<g class="BoundaryPolygon">
<polygon points="0.00,0.00 56.67,0.00 56.67,60.00 0.00,60.00 "/>
</g>
<g class="Direction" fill-opacity="0.9" style="display: none;">
<polygon fill="#444444" points="29.76,54.70 29.76,44.08 26.75,44.08 26.75,54.70 22.95,54.70 28.25,60.00 33.55,54.70 29.76,54.70 "/>
</g>
<g class="Name" fill-opacity="0.9" style="display: none;">

</g>
<desc>Width:60 Height:200 Depth:60 Elevation:0</desc>
</g></g><g class="FixedFurniture CoatRack" fill="#ffffff" stroke="#000000" style="fill-opacity: 1; stroke-opacity: 1;" transform="matrix(-1,0,0,-1,592.9687,720.4693)">
<g class="BoundaryPolygon">
<polygon points="0.00,0.00 131.97,0.00 131.97,30.00 0.00,30.00 "/>
</g>
<g class="Bar" stroke-width="0.65">
<line x1="0" x2="131.97262311477874" y1="4.2" y2="4.2"/>
<line x1="0" x2="131.97262311477874" y1="7.9" y2="7.9"/>
<line x1="0" x2="131.97262311477874" y1="11.5" y2="11.5"/>
<line x1="0" x2="131.97262311477874" y1="15" y2="15"/>
<line x1="0" x2="131.97262311477874" y1="18.6" y2="18.6"/>
<line x1="0" x2="131.97262311477874" y1="22.2" y2="22.2"/>
<line x1="0" x2="131.97262311477874" y1="25.9" y2="25.9"/>
</g>
<g class="Direction" fill-opacity="0.9" style="display: none;">
<polygon fill="#444444" points="68.20,24.70 68.20,14.08 65.19,14.08 65.19,24.70 61.39,24.70 66.69,30.00 71.99,24.70 68.20,24.70 "/>
</g>
<g class="Name" fill-opacity="0.9" style="display: none;">

</g>
<desc>Width:90 Height:30 Depth:30 Elevation:160</desc>
</g><g class="FixedFurnitureSet" fill="#ffffff" id="FixedFurnitureSet" stroke="#000000" style="fill-opacity: 0.4; stroke-opacity: 0.4;" transform="matrix(0,1,-1,0,433.8398,451.9187)"><g class="FixedFurniture Closet" fill="#ffffff" stroke="#000000" style="fill-opacity: 1; stroke-opacity: 1;" transform="matrix(1,0,0,1,0,0)">
<g class="BoundaryPolygon">
<polygon points="0,0 60,0 60,60 0,60"/>
</g>
<g class="Direction" fill-opacity="0.9" style="display: none;">
<polygon fill="#444444" points="31.509 54.697 31.509 44.081 28.5 44.081 28.5 54.697 24.697 54.697 30 60 35.303 54.697 31.509 54.697"/>
</g>
<g class="Name" fill-opacity="0.9" style="display: none;">

</g>
<desc>Width:60 Height:200 Depth:60 Elevation:0</desc>
</g><g class="FixedFurniture Closet" fill="#ffffff" stroke="#000000" style="fill-opacity: 1; stroke-opacity: 1;" transform="matrix(1,0,0,1,60,0)">
<g class="BoundaryPolygon">
<polygon points="0 0 60 0 60 60 0 60"/>
</g>
<g class="Direction" fill-opacity="0.9" style="display: none;">
<polygon fill="#444444" points="31.509 54.697 31.509 44.081 28.5 44.081 28.5 54.697 24.697 54.697 30 60 35.303 54.697 31.509 54.697"/>
</g>
<g class="Name" fill-opacity="0.9" style="display: none;">

</g>
<desc>Width:60 Height:200 Depth:60 Elevation:0</desc>
</g></g><g class="FixedFurnitureSet" fill="#ffffff" id="FixedFurnitureSet" stroke="#000000" style="fill-opacity: 0.4; stroke-opacity: 0.4;" transform="matrix(-1,0,0,-1,260.5952,437.9032)"><g class="FixedFurniture Closet" fill="#ffffff" stroke="#000000" style="fill-opacity: 1; stroke-opacity: 1;" transform="matrix(1,0,0,1,0,0)">
<g class="BoundaryPolygon">
<polygon points="0,0 60,0 60,60 0,60"/>
</g>
<g class="Direction" fill-opacity="0.9" style="display: none;">
<polygon fill="#444444" points="31.509 54.697 31.509 44.081 28.5 44.081 28.5 54.697 24.697 54.697 30 60 35.303 54.697 31.509 54.697"/>
</g>
<g class="Name" fill-opacity="0.9" style="display: none;">

</g>
<desc>Width:60 Height:200 Depth:60 Elevation:0</desc>
</g><g class="FixedFurniture Closet" fill="#ffffff" stroke="#000000" style="fill-opacity: 1; stroke-opacity: 1;" transform="matrix(1,0,0,1,60,0)">
<g class="BoundaryPolygon">
<polygon points="0 0 60 0 60 60 0 60"/>
</g>
<g class="Direction" fill-opacity="0.9" style="display: none;">
<polygon fill="#444444" points="31.509 54.697 31.509 44.081 28.5 44.081 28.5 54.697 24.697 54.697 30 60 35.303 54.697 31.509 54.697"/>
</g>
<g class="Name" fill-opacity="0.9" style="display: none;">

</g>
<desc>Width:60 Height:200 Depth:60 Elevation:0</desc>
</g><g class="FixedFurniture Closet" fill="#ffffff" stroke="#000000" style="fill-opacity: 1; stroke-opacity: 1;" transform="matrix(1,0,0,1,120,0)">
<g class="BoundaryPolygon">
<polygon points="0 0 60 0 60 60 0 60"/>
</g>
<g class="Direction" fill-opacity="0.9" style="display: none;">
<polygon fill="#444444" points="31.509 54.697 31.509 44.081 28.5 44.081 28.5 54.697 24.697 54.697 30 60 35.303 54.697 31.509 54.697"/>
</g>
<g class="Name" fill-opacity="0.9" style="display: none;">

</g>
<desc>Width:60 Height:200 Depth:60 Elevation:0</desc>
</g></g><g class="FixedFurnitureSet" fill="#ffffff" id="FixedFurnitureSet" stroke="#000000" style="fill-opacity: 0.4; stroke-opacity: 0.4;" transform="matrix(-1,0,0,-1,432.7039,437.9031)"><g class="FixedFurniture Closet" fill="#ffffff" stroke="#000000" style="fill-opacity: 1; stroke-opacity: 1;" transform="matrix(1,0,0,1,0,0)">
<g class="BoundaryPolygon">
<polygon points="0.00,0.00 57.37,0.00 57.37,60.00 0.00,60.00 "/>
</g>
<g class="Direction" fill-opacity="0.9" style="display: none;">
<polygon fill="#444444" points="30.13,54.70 30.13,44.08 27.12,44.08 27.12,54.70 23.32,54.70 28.62,60.00 33.92,54.70 30.13,54.70 "/>
</g>
<g class="Name" fill-opacity="0.9" style="display: none;">

</g>
<desc>Width:60 Height:200 Depth:60 Elevation:0</desc>
</g><g class="FixedFurniture Closet" fill="#ffffff" stroke="#000000" style="fill-opacity: 1; stroke-opacity: 1;" transform="matrix(1,0,0,1,57.3693,0)">
<g class="BoundaryPolygon">
<polygon points="0.00,0.00 57.37,0.00 57.37,60.00 0.00,60.00 "/>
</g>
<g class="Direction" fill-opacity="0.9" style="display: none;">
<polygon fill="#444444" points="30.13,54.70 30.13,44.08 27.12,44.08 27.12,54.70 23.32,54.70 28.62,60.00 33.92,54.70 30.13,54.70 "/>
</g>
<g class="Name" fill-opacity="0.9" style="display: none;">

</g>
<desc>Width:60 Height:200 Depth:60 Elevation:0</desc>
</g><g class="FixedFurniture Closet" fill="#ffffff" stroke="#000000" style="fill-opacity: 1; stroke-opacity: 1;" transform="matrix(1,0,0,1,114.7387,0)">
<g class="BoundaryPolygon">
<polygon points="0.00,0.00 57.37,0.00 57.37,60.00 0.00,60.00 "/>
</g>
<g class="Direction" fill-opacity="0.9" style="display: none;">
<polygon fill="#444444" points="30.13,54.70 30.13,44.08 27.12,44.08 27.12,54.70 23.32,54.70 28.62,60.00 33.92,54.70 30.13,54.70 "/>
</g>
<g class="Name" fill-opacity="0.9" style="display: none;">

</g>
<desc>Width:60 Height:200 Depth:60 Elevation:0</desc>
</g></g><g class="SelectionControls" fill="#0000ff" stroke="#0000ff" style="display: none;"><g class="rotateControl" style="display: none;"><circle cx="1127.7541288851376" cy="60.85743734800238" r="5" style="stroke : none; fill-opacity: 0.5; cursor:crosshair"/></g><g class="ResizeNControl" style="display: none;"><circle cx="0" cy="0" r="5" style="stroke : none; fill-opacity: 0.5"/></g><g class="ResizeNEControl" style="display: none;"><circle cx="0" cy="0" r="5" style="stroke : none; fill-opacity: 0.5"/></g><g class="ResizeEControl" style="display: none;"><circle cx="0" cy="0" r="5" style="stroke : none; fill-opacity: 0.5"/></g><g class="ResizeSEControl" style="display: none;"><circle cx="0" cy="0" r="5" style="stroke : none; fill-opacity: 0.5"/></g><g class="ResizeSControl" style="display: none;"><circle cx="0" cy="0" r="5" style="stroke : none; fill-opacity: 0.5"/></g><g class="ResizeSWControl" style="display: none;"><circle cx="0" cy="0" r="5" style="stroke : none; fill-opacity: 0.5"/></g><g class="ResizeWControl" style="display: none;"><circle cx="0" cy="0" r="5" style="stroke : none; fill-opacity: 0.5"/></g><g class="ResizeNWControl" style="display: none;"><circle cx="0" cy="0" r="5" style="stroke : none; fill-opacity: 0.5"/></g><g class="removeControl" style="display: none;"><polygon points="1045.06,90.86 1210.45,90.86 1210.45,130.94 1045.06,130.94 " style="stroke : none; fill-opacity: 0.1"/></g><g class="copyPasteControl" style="display: none;"><polygon style="stroke : none; fill-opacity: 0.1"/></g><g class="translateControl" style="display: none;"><polygon points="1045.06,90.86 1210.45,90.86 1210.45,130.94 1045.06,130.94 " style="stroke : none; fill-opacity: 0.1; cursor:move"/></g></g><g class="SelectionControls" fill="#0000ff" stroke="#0000ff" style="display: none;"><polygon fill="none" points="934.08,53.55 1232.10,53.55 1232.10,181.46 934.08,181.46 " stroke="#0000ff" style=""/><g class="rotateControl" style="display: none;"><circle cx="1083.0882209749814" cy="23.552837348002384" r="5" style="stroke : none; fill-opacity: 0.5; cursor:crosshair"/></g><g class="ResizeNControl" style="display: none;"><circle cx="0" cy="0" r="5" style="stroke : none; fill-opacity: 0.5"/></g><g class="ResizeNEControl" style="display: none;"><circle cx="0" cy="0" r="5" style="stroke : none; fill-opacity: 0.5"/></g><g class="ResizeEControl" style="display: none;"><circle cx="0" cy="0" r="5" style="stroke : none; fill-opacity: 0.5"/></g><g class="ResizeSEControl" style="display: none;"><circle cx="0" cy="0" r="5" style="stroke : none; fill-opacity: 0.5"/></g><g class="ResizeSControl" style="display: none;"><circle cx="0" cy="0" r="5" style="stroke : none; fill-opacity: 0.5"/></g><g class="ResizeSWControl" style="display: none;"><circle cx="0" cy="0" r="5" style="stroke : none; fill-opacity: 0.5"/></g><g class="ResizeWControl" style="display: none;"><circle cx="0" cy="0" r="5" style="stroke : none; fill-opacity: 0.5"/></g><g class="ResizeNWControl" style="display: none;"><circle cx="0" cy="0" r="5" style="stroke : none; fill-opacity: 0.5"/></g><g class="removeControl" style="display: none;"><polygon style="stroke : none; fill-opacity: 0.1"/></g><g class="copyPasteControl" style="display: none;"><polygon style="stroke : none; fill-opacity: 0.1"/></g><g class="translateControl" style="display: none;"><polygon style="stroke : none; fill-opacity: 0.1; cursor:move"/></g></g></g></g></g></svg>