<?xml version="1.0" encoding="utf-8"?>
<svg height="1109.8699760437012" id="temp" version="1.1" viewBox="0 0 1386.043643951416 1109.8699760437012" width="1386.043643951416" xmlns="http://www.w3.org/2000/svg" xmlns:xlink="http://www.w3.org/1999/xlink"><defs/><g class="Model v1-1" id="Model"><g class="Floor"><g class="Floorplan Floor-1" id="Floor-1"><g class="Space Undefined" fill="#ffffff" id="8f6dd4af-a697-418b-9c04-e0d7f5097323" stroke="#ffffff" style="fill-opacity: 1; stroke-opacity: 1; stroke-width: 1;"><polygon points="624.35,430.64 754.11,430.64 754.11,595.37 746.80,595.37 746.80,631.40 769.11,631.40 769.11,719.69 992.47,719.69 992.47,631.40 1104.68,631.40 1104.68,869.18 606.23,869.18 606.23,922.29 558.58,922.29 558.58,536.60 "/><g class="Dimension" transform="matrix(1,0,0,1,558.5765,430.6381)"><g class="Visual" style="display: none;" transform="matrix(1,0,0,1,0,0)"><g class="DimensionMark" fill="#000000" id="mark1" stroke="none" style="fill-opacity: 1; pointer-events: visible;" transform="matrix(1,0,0,1,195.5341,0)"><polygon points="-5,5,0,0,5,5"/></g><g class="DimensionMark" fill="#000000" id="mark2" stroke="none" style="fill-opacity: 1; pointer-events: visible;" transform="matrix(1,0,0,1,546.1025,245.8246)"><polygon points="-5,-5,0,0,-5,5"/></g><g class="DimensionMark" fill="#000000" id="mark3" stroke="none" style="fill-opacity: 1; pointer-events: visible;" transform="matrix(1,0,0,1,195.5341,438.5406)"><polygon points="-5,-5,0,0,5,-5"/></g><g class="DimensionMark" fill="#000000" id="mark4" stroke="none" style="fill-opacity: 1; pointer-events: visible;" transform="matrix(1,0,0,1,0,245.8246)"><polygon points="5,5,0,0,5,-5"/></g></g><g class="SpaceDimensionsLabel" transform="matrix(1,0,0,1,108.9886,328.8863)"><g class="TextLabel NameLabel" id="NameLabel" style="display: block;"/><g class="TextLabel DimensionMeasureLabel" id="DimensionMeasureLabel" style="display: none;" transform="matrix(1,0,0,1,-19.3203,40.2968)"/></g></g></g><g class="Space Storage" fill="#ffffff" id="b5d6e54c-6121-4a89-977e-fe131835e9c7" stroke="#ffffff" style="fill-opacity: 1; stroke-opacity: 1; stroke-width: 1;"><polygon points="977.47,719.69 769.11,719.69 769.11,631.40 977.47,631.40 "/><g class="Dimension" transform="matrix(1,0,0,1,769.1106,631.3982)"><g class="Visual" style="display: none;" transform="matrix(1,0,0,1,0,0)"><g class="DimensionMark" fill="#000000" id="mark1" stroke="none" style="fill-opacity: 1; pointer-events: visible;" transform="matrix(1,0,0,1,104.1788,0)"><polygon points="-5,5,0,0,5,5"/></g><g class="DimensionMark" fill="#000000" id="mark2" stroke="none" style="fill-opacity: 1; pointer-events: visible;" transform="matrix(1,0,0,1,208.3575,44.1481)"><polygon points="-5,-5,0,0,-5,5"/></g><g class="DimensionMark" fill="#000000" id="mark3" stroke="none" style="fill-opacity: 1; pointer-events: visible;" transform="matrix(1,0,0,1,104.1788,88.2962)"><polygon points="-5,-5,0,0,5,-5"/></g><g class="DimensionMark" fill="#000000" id="mark4" stroke="none" style="fill-opacity: 1; pointer-events: visible;" transform="matrix(1,0,0,1,0,44.1481)"><polygon points="5,5,0,0,5,-5"/></g></g><g class="SpaceDimensionsLabel" style="display: block;" transform="matrix(1,0,0,1,67.083,54.5731)"><g class="TextLabel NameLabel" id="NameLabel" style="display: block;"/><g class="TextLabel DimensionMeasureLabel" id="DimensionMeasureLabel" style="display: none;" transform="matrix(1,0,0,1,-74.4218,40.2969)"/></g></g></g><g class="Space Undefined" fill="#ffffff" id="8985b5bf-cff6-4606-a579-ed438af438cb" stroke="#ffffff" style="fill-opacity: 1; stroke-opacity: 1; stroke-width: 1;"><polygon points="1268.68,730.22 1119.68,730.22 1119.68,595.37 1268.68,595.37 "/><g class="Dimension" transform="matrix(1,0,0,1,1119.679,595.366)"><g class="Visual" style="display: none;" transform="matrix(1,0,0,1,0,0)"><g class="DimensionMark" fill="#000000" id="mark1" stroke="none" style="fill-opacity: 1; pointer-events: visible;" transform="matrix(1,0,0,1,74.4985,0)"><polygon points="-5,5,0,0,5,5"/></g><g class="DimensionMark" fill="#000000" id="mark2" stroke="none" style="fill-opacity: 1; pointer-events: visible;" transform="matrix(1,0,0,1,148.9969,67.4273)"><polygon points="-5,-5,0,0,-5,5"/></g><g class="DimensionMark" fill="#000000" id="mark3" stroke="none" style="fill-opacity: 1; pointer-events: visible;" transform="matrix(1,0,0,1,74.4985,134.8546)"><polygon points="-5,-5,0,0,5,-5"/></g><g class="DimensionMark" fill="#000000" id="mark4" stroke="none" style="fill-opacity: 1; pointer-events: visible;" transform="matrix(1,0,0,1,0,67.4273)"><polygon points="5,5,0,0,5,-5"/></g></g><g class="SpaceDimensionsLabel" transform="matrix(1,0,0,1,67.4272,67.4273)"><g class="TextLabel NameLabel" id="NameLabel" style="display: block;"/><g class="TextLabel DimensionMeasureLabel" id="DimensionMeasureLabel" style="display: none;" transform="matrix(1,0,0,1,-40.5235,80.0781)"/></g></g></g><g class="Space Kitchen" fill="#ffffff" id="028bc357-3520-47a4-b78f-0e7c6b17b78c" stroke="#ffffff" style="fill-opacity: 1; stroke-opacity: 1; stroke-width: 1;"><polygon points="1268.68,595.37 992.47,595.37 992.47,430.64 1003.01,430.64 1003.01,40.02 1268.68,40.02 "/><g class="Dimension" transform="matrix(1,0,0,1,1003.0068,40.0238)"><g class="Visual" style="display: none;" transform="matrix(1,0,0,1,0,0)"><g class="DimensionMark" fill="#000000" id="mark1" stroke="none" style="fill-opacity: 1; pointer-events: visible;" transform="matrix(1,0,0,1,127.5653,0)"><polygon points="-5,5,0,0,5,5"/></g><g class="DimensionMark" fill="#000000" id="mark2" stroke="none" style="fill-opacity: 1; pointer-events: visible;" transform="matrix(1,0,0,1,265.6691,277.6711)"><polygon points="-5,-5,0,0,-5,5"/></g><g class="DimensionMark" fill="#000000" id="mark3" stroke="none" style="fill-opacity: 1; pointer-events: visible;" transform="matrix(1,0,0,1,127.5653,555.3422)"><polygon points="-5,-5,0,0,5,-5"/></g><g class="DimensionMark" fill="#000000" id="mark4" stroke="none" style="fill-opacity: 1; pointer-events: visible;" transform="matrix(1,0,0,1,0,277.6711)"><polygon points="5,5,0,0,5,-5"/></g></g><g class="SpaceDimensionsLabel" style="display: block;" transform="matrix(1,0,0,1,122.3465,302.2319)"><g class="TextLabel NameLabel" id="NameLabel" style="display: block;"/><g class="TextLabel DimensionMeasureLabel" id="DimensionMeasureLabel" style="display: none;" transform="matrix(1,0,0,1,-128.1953,80.0781)"/></g></g></g><g class="Space Bedroom" fill="#ffffff" id="c33d9e40-9210-4c16-8cd1-ef831e958ef1" stroke="#ffffff" style="fill-opacity: 1; stroke-opacity: 1; stroke-width: 1;"><polygon points="988.01,415.64 631.01,415.64 631.01,40.02 988.01,40.02 "/><g class="Dimension" transform="matrix(1,0,0,1,631.0052,40.0238)"><g class="Visual" style="display: none;" transform="matrix(1,0,0,1,0,0)"><g class="DimensionMark" fill="#000000" id="mark1" stroke="none" style="fill-opacity: 1; pointer-events: visible;" transform="matrix(1,0,0,1,178.5008,0)"><polygon points="-5,5,0,0,5,5"/></g><g class="DimensionMark" fill="#000000" id="mark2" stroke="none" style="fill-opacity: 1; pointer-events: visible;" transform="matrix(1,0,0,1,357.0016,187.8072)"><polygon points="-5,-5,0,0,-5,5"/></g><g class="DimensionMark" fill="#000000" id="mark3" stroke="none" style="fill-opacity: 1; pointer-events: visible;" transform="matrix(1,0,0,1,178.5008,375.6143)"><polygon points="-5,-5,0,0,5,-5"/></g><g class="DimensionMark" fill="#000000" id="mark4" stroke="none" style="fill-opacity: 1; pointer-events: visible;" transform="matrix(1,0,0,1,0,187.8072)"><polygon points="5,5,0,0,5,-5"/></g></g><g class="SpaceDimensionsLabel" style="display: block;" transform="matrix(1,0,0,1,162.2035,203.8522)"><g class="TextLabel NameLabel" id="NameLabel" style="display: block;"/><g class="TextLabel DimensionMeasureLabel" id="DimensionMeasureLabel" style="display: none;" transform="matrix(1,0,0,1,-113.6875,79.4219)"/></g></g></g><g class="Space LivingRoom" fill="#ffffff" id="613fce7d-0302-4f94-a18d-3d6fda273ea6" stroke="#ffffff" style="fill-opacity: 1; stroke-opacity: 1; stroke-width: 1;"><polygon points="616.01,415.64 550.58,521.60 57.56,521.60 57.56,40.02 616.01,40.02 "/><g class="Dimension" transform="matrix(1,0,0,1,57.5603,40.0238)"><g class="Visual" style="display: none;" transform="matrix(1,0,0,1,0,0)"><g class="DimensionMark" fill="#000000" id="mark1" stroke="none" style="fill-opacity: 1; pointer-events: visible;" transform="matrix(1,0,0,1,279.2224,0)"><polygon points="-5,5,0,0,5,5"/></g><g class="DimensionMark" fill="#000000" id="mark2" stroke="none" style="fill-opacity: 1; pointer-events: visible;" transform="matrix(1,0,0,1,558.4449,240.7859)"><polygon points="-5,-5,0,0,-5,5"/></g><g class="DimensionMark" fill="#000000" id="mark3" stroke="none" style="fill-opacity: 1; pointer-events: visible;" transform="matrix(1,0,0,1,279.2224,481.5719)"><polygon points="-5,-5,0,0,5,-5"/></g><g class="DimensionMark" fill="#000000" id="mark4" stroke="none" style="fill-opacity: 1; pointer-events: visible;" transform="matrix(1,0,0,1,0,240.7859)"><polygon points="5,5,0,0,5,-5"/></g></g><g class="SpaceDimensionsLabel" style="display: block;" transform="matrix(1,0,0,1,255.2725,251.6509)"><g class="TextLabel NameLabel" id="NameLabel" style="display: block;"/><g class="TextLabel DimensionMeasureLabel" id="DimensionMeasureLabel" style="display: none;" transform="matrix(1,0,0,1,-114.6015,79.4219)"/></g></g></g><g class="Space Office" fill="#ffffff" id="5eee2d79-d4cb-4edb-b047-9965404de76d" stroke="#ffffff" style="fill-opacity: 1; stroke-opacity: 1; stroke-width: 1;"><polygon points="543.58,922.29 57.56,922.29 57.56,536.60 543.58,536.60 "/><g class="Dimension" transform="matrix(1,0,0,1,57.5603,536.5957)"><g class="Visual" style="display: none;" transform="matrix(1,0,0,1,0,0)"><g class="DimensionMark" fill="#000000" id="mark1" stroke="none" style="fill-opacity: 1; pointer-events: visible;" transform="matrix(1,0,0,1,243.0081,0)"><polygon points="-5,5,0,0,5,5"/></g><g class="DimensionMark" fill="#000000" id="mark2" stroke="none" style="fill-opacity: 1; pointer-events: visible;" transform="matrix(1,0,0,1,486.0162,192.8458)"><polygon points="-5,-5,0,0,-5,5"/></g><g class="DimensionMark" fill="#000000" id="mark3" stroke="none" style="fill-opacity: 1; pointer-events: visible;" transform="matrix(1,0,0,1,243.0081,385.6915)"><polygon points="-5,-5,0,0,5,-5"/></g><g class="DimensionMark" fill="#000000" id="mark4" stroke="none" style="fill-opacity: 1; pointer-events: visible;" transform="matrix(1,0,0,1,0,192.8458)"><polygon points="5,5,0,0,5,-5"/></g></g><g class="SpaceDimensionsLabel" style="display: block;" transform="matrix(1,0,0,1,203.1702,208.3323)"><g class="TextLabel NameLabel" id="NameLabel" style="display: block;"/><g class="TextLabel DimensionMeasureLabel" id="DimensionMeasureLabel" style="display: none;" transform="matrix(1,0,0,1,-95.1797,79.4219)"/></g></g></g><g class="Space Bath" fill="#ffffff" id="c3298af6-bd9c-4f59-a9ef-80bfa14c4009" stroke="#ffffff" style="fill-opacity: 1; stroke-opacity: 1; stroke-width: 1;"><polygon points="790.79,884.18 790.79,1094.87 621.23,1094.87 621.23,884.18 "/><g class="Dimension" transform="matrix(1,0,0,1,621.2291,884.1787)"><g class="Visual" style="display: none;" transform="matrix(1,0,0,1,0,0)"><g class="DimensionMark" fill="#000000" id="mark1" stroke="none" style="fill-opacity: 1; pointer-events: visible;" transform="matrix(1,0,0,1,84.7787,0)"><polygon points="-5,5,0,0,5,5"/></g><g class="DimensionMark" fill="#000000" id="mark2" stroke="none" style="fill-opacity: 1; pointer-events: visible;" transform="matrix(1,0,0,1,169.5574,105.3461)"><polygon points="-5,-5,0,0,-5,5"/></g><g class="DimensionMark" fill="#000000" id="mark3" stroke="none" style="fill-opacity: 1; pointer-events: visible;" transform="matrix(1,0,0,1,84.7787,210.6923)"><polygon points="-5,-5,0,0,5,-5"/></g><g class="DimensionMark" fill="#000000" id="mark4" stroke="none" style="fill-opacity: 1; pointer-events: visible;" transform="matrix(1,0,0,1,0,105.3461)"><polygon points="5,5,0,0,5,-5"/></g></g><g class="SpaceDimensionsLabel" style="display: block;" transform="matrix(1,0,0,1,76.9081,130.0824)"><g class="TextLabel NameLabel" id="NameLabel" style="display: block;"/><g class="TextLabel DimensionMeasureLabel" id="DimensionMeasureLabel" style="display: none;" transform="matrix(1,0,0,1,-106.2187,80.0781)"/></g></g></g><g class="Space Undefined" fill="#ffffff" id="5e643d6a-9a0a-46b0-9994-e32e7fa3dcba" stroke="#ffffff" style="fill-opacity: 1; stroke-opacity: 1; stroke-width: 1;"><polygon points="977.47,595.37 769.11,595.37 769.11,430.64 977.47,430.64 "/><g class="Dimension" transform="matrix(1,0,0,1,769.1106,430.6381)"><g class="Visual" style="display: none;" transform="matrix(1,0,0,1,0,0)"><g class="DimensionMark" fill="#000000" id="mark1" stroke="none" style="fill-opacity: 1; pointer-events: visible;" transform="matrix(1,0,0,1,104.1788,0)"><polygon points="-5,5,0,0,5,5"/></g><g class="DimensionMark" fill="#000000" id="mark2" stroke="none" style="fill-opacity: 1; pointer-events: visible;" transform="matrix(1,0,0,1,208.3575,82.3639)"><polygon points="-5,-5,0,0,-5,5"/></g><g class="DimensionMark" fill="#000000" id="mark3" stroke="none" style="fill-opacity: 1; pointer-events: visible;" transform="matrix(1,0,0,1,104.1788,164.7279)"><polygon points="-5,-5,0,0,5,-5"/></g><g class="DimensionMark" fill="#000000" id="mark4" stroke="none" style="fill-opacity: 1; pointer-events: visible;" transform="matrix(1,0,0,1,0,82.3639)"><polygon points="5,5,0,0,5,-5"/></g></g><g class="SpaceDimensionsLabel" style="display: block;" transform="matrix(1,0,0,1,71.1202,96.9808)"><g class="TextLabel NameLabel" id="NameLabel" style="display: block;"/><g class="TextLabel DimensionMeasureLabel" id="DimensionMeasureLabel" style="display: none;" transform="matrix(1,0,0,1,-40.5234,79.9062)"/></g></g></g><g class="Space Bath" fill="#ffffff" id="727634eb-04b1-48ba-b0b3-0747617e8cd9" stroke="#ffffff" style="fill-opacity: 1; stroke-opacity: 1; stroke-width: 1;"><polygon points="1219.66,869.18 1119.68,869.18 1119.68,745.22 1219.66,745.22 "/><g class="Dimension" transform="matrix(1,0,0,1,1119.679,745.2205)"><g class="Visual" style="display: none;" transform="matrix(1,0,0,1,0,0)"><g class="DimensionMark" fill="#000000" id="mark1" stroke="none" style="fill-opacity: 1; pointer-events: visible;" transform="matrix(1,0,0,1,49.9897,0)"><polygon points="-5,5,0,0,5,5"/></g><g class="DimensionMark" fill="#000000" id="mark2" stroke="none" style="fill-opacity: 1; pointer-events: visible;" transform="matrix(1,0,0,1,99.9795,61.9791)"><polygon points="-5,-5,0,0,-5,5"/></g><g class="DimensionMark" fill="#000000" id="mark3" stroke="none" style="fill-opacity: 1; pointer-events: visible;" transform="matrix(1,0,0,1,49.9897,123.9582)"><polygon points="-5,-5,0,0,5,-5"/></g><g class="DimensionMark" fill="#000000" id="mark4" stroke="none" style="fill-opacity: 1; pointer-events: visible;" transform="matrix(1,0,0,1,0,61.9791)"><polygon points="5,5,0,0,5,-5"/></g></g><g class="SpaceDimensionsLabel" style="display: block;" transform="matrix(0,1,-1,0,6.3419,45.2075)"><g class="TextLabel NameLabel" id="NameLabel" style="display: block;"/><g class="TextLabel DimensionMeasureLabel" id="DimensionMeasureLabel" style="display: none;" transform="matrix(1,0,0,1,-112.1641,79.9063)"/></g></g></g><g class="Wall External" fill="#000000" id="Wall" stroke="#000000" style="fill-opacity: 1; stroke-opacity: 1; stroke-width: 1;"><polygon points="57.56,40.02 57.56,922.29 42.56,937.29 42.56,25.02 "/><g class="Window Regular" fill="#f0f0ff" id="Window" stroke="#000000" style="fill-opacity: 1; stroke-width: 1; stroke-opacity: 1;"><polygon points="57.56,182.85 57.56,357.02 42.56,357.02 42.56,182.85 "/><g class="Glass" id="Glass"><polygon points="57.56,182.85 57.56,357.02 42.56,357.02 42.56,182.85 "/></g><g class="Panel" id="Panel"><line x1="50.06030190759202" x2="50.06030190759202" y1="190.34969242671792" y2="349.51660715103304"/><line x1="57.56030190759202" x2="42.56030190759202" y1="190.34969242671792" y2="190.34969242671792"/><line x1="57.56030190759202" x2="42.56030190759202" y1="349.51660715103304" y2="349.51660715103304"/></g></g><g class="Window Regular" fill="#f0f0ff" id="Window" stroke="#000000" style="fill-opacity: 1; stroke-width: 1; stroke-opacity: 1;"><polygon points="57.56,602.66 57.56,779.85 42.56,779.85 42.56,602.66 "/><g class="Glass" id="Glass"><polygon points="57.56,602.66 57.56,779.85 42.56,779.85 42.56,602.66 "/></g><g class="Panel" id="Panel"><line x1="50.06030190759202" x2="50.06030190759202" y1="610.1624290743447" y2="772.3495793141103"/><line x1="57.56030190759202" x2="42.56030190759202" y1="610.1624290743447" y2="610.1624290743447"/><line x1="57.56030190759202" x2="42.56030190759202" y1="772.3495793141103" y2="772.3495793141103"/></g></g></g><g class="Wall External" fill="#000000" id="Wall" stroke="#000000" style="fill-opacity: 1; stroke-opacity: 1; stroke-width: 1;"><polygon points="57.56,922.29 621.23,922.29 606.23,937.29 42.56,937.29 "/></g><g class="Wall External" fill="#000000" id="Wall" stroke="#000000" style="fill-opacity: 1; stroke-opacity: 1; stroke-width: 1;"><polygon points="621.23,922.29 621.23,1094.87 606.23,1109.87 606.23,937.29 "/></g><g class="Wall External" fill="#000000" id="Wall" stroke="#000000" style="fill-opacity: 1; stroke-opacity: 1; stroke-width: 1;"><polygon points="621.23,1094.87 790.79,1094.87 805.79,1109.87 606.23,1109.87 "/></g><g class="Wall External" fill="#000000" id="Wall" stroke="#000000" style="fill-opacity: 1; stroke-opacity: 1; stroke-width: 1;"><polygon points="790.79,1094.87 790.79,869.18 805.79,884.18 805.79,1109.87 "/></g><g class="Wall External" fill="#000000" id="Wall" stroke="#000000" style="fill-opacity: 1; stroke-opacity: 1; stroke-width: 1;"><polygon points="790.79,869.18 1219.66,869.18 1234.66,884.18 805.79,884.18 "/><g class="Door Swing Beside" fill="#ffffff" id="Door" stroke="#000000" style="fill-opacity: 1; stroke-width: 1; stroke-opacity: 1;"><polygon points="962.71,869.18 1083.55,869.18 1083.55,884.18 962.71,884.18 "/><g class="Panel Right Positive" fill="none" id="Panel" style=""><g class="PanelArea" fill="none" id="PanelArea" stroke="none" style=""><polygon points="962.71,869.18 1083.55,869.18 1083.55,884.18 962.71,884.18 "/></g><path d="M962.71,884.18 q0.00,120.85 120.85,120.85 l0.00,-120.85Z"/></g></g></g><g class="Wall External" fill="#000000" id="Wall" stroke="#000000" style="fill-opacity: 1; stroke-opacity: 1; stroke-width: 1;"><polygon points="1219.66,869.18 1219.66,730.22 1234.66,745.22 1234.66,884.18 "/></g><g class="Wall External" fill="#000000" id="Wall" stroke="#000000" style="fill-opacity: 1; stroke-opacity: 1; stroke-width: 1;"><polygon points="1219.66,730.22 1268.68,730.22 1283.68,745.22 1234.66,745.22 "/></g><g class="Wall External" fill="#000000" id="Wall" stroke="#000000" style="fill-opacity: 1; stroke-opacity: 1; stroke-width: 1;"><polygon points="1268.68,730.22 1268.68,40.02 1283.68,25.02 1283.68,745.22 "/></g><g class="Wall External" fill="#000000" id="Wall" stroke="#000000" style="fill-opacity: 1; stroke-opacity: 1; stroke-width: 1;"><polygon points="1268.68,40.02 57.56,40.02 42.56,25.02 1283.68,25.02 "/><g class="Window Regular" fill="#f0f0ff" id="Window" stroke="#000000" style="fill-opacity: 1; stroke-width: 1; stroke-opacity: 1;"><polygon points="357.01,40.02 192.91,40.02 192.91,25.02 357.01,25.02 "/><g class="Glass" id="Glass"><polygon points="357.01,40.02 192.91,40.02 192.91,25.02 357.01,25.02 "/></g><g class="Panel" id="Panel"><line x1="349.5123673184613" x2="200.4129043123146" y1="32.523788783493124" y2="32.523788783493146"/><line x1="349.5123673184613" x2="349.5123673184613" y1="40.023788783493124" y2="25.023788783493124"/><line x1="200.4129043123146" x2="200.4129043123146" y1="40.023788783493146" y2="25.023788783493146"/></g></g><g class="Window Regular" fill="#f0f0ff" id="Window" stroke="#000000" style="fill-opacity: 1; stroke-width: 1; stroke-opacity: 1;"><polygon points="833.93,40.02 661.71,40.02 661.71,25.02 833.93,25.02 "/><g class="Glass" id="Glass"><polygon points="833.93,40.02 661.71,40.02 661.71,25.02 833.93,25.02 "/></g><g class="Panel" id="Panel"><line x1="826.4252795790028" x2="669.2123043522199" y1="32.52378878349307" y2="32.52378878349309"/><line x1="826.4252795790028" x2="826.4252795790028" y1="40.02378878349307" y2="25.023788783493067"/><line x1="669.2123043522199" x2="669.2123043522199" y1="40.02378878349309" y2="25.02378878349309"/></g></g><g class="Window Regular" fill="#f0f0ff" id="Window" stroke="#000000" style="fill-opacity: 1; stroke-width: 1; stroke-opacity: 1;"><polygon points="1207.47,40.02 1036.92,40.02 1036.92,25.02 1207.47,25.02 "/><g class="Glass" id="Glass"><polygon points="1207.47,40.02 1036.92,40.02 1036.92,25.02 1207.47,25.02 "/></g><g class="Panel" id="Panel"><line x1="1199.9693659404786" x2="1044.4202841941478" y1="32.52378878349302" y2="32.52378878349304"/><line x1="1199.9693659404786" x2="1199.9693659404786" y1="40.02378878349302" y2="25.023788783493018"/><line x1="1044.4202841941478" x2="1044.4202841941478" y1="40.02378878349304" y2="25.02378878349304"/></g></g></g><g class="Wall" fill="#000000" id="Wall" stroke="#000000" style="fill-opacity: 1; stroke-opacity: 1; stroke-width: 1;"><polygon points="621.23,922.29 621.23,884.18 606.23,869.18 606.23,922.29 "/></g><g class="Wall" fill="#000000" id="Wall" stroke="#000000" style="fill-opacity: 1; stroke-opacity: 1; stroke-width: 1;"><polygon points="621.23,884.18 790.79,884.18 790.79,869.18 606.23,869.18 "/><g class="Door Swing Beside" fill="#ffffff" id="Door" stroke="#000000" style="fill-opacity: 1; stroke-width: 1; stroke-opacity: 1;"><polygon points="660.21,884.18 749.13,884.18 749.13,869.18 660.21,869.18 "/><g class="Panel Left Positive" fill="none" id="Panel" style=""><g class="PanelArea" fill="none" id="PanelArea" stroke="none" style=""><polygon points="660.21,884.18 749.13,884.18 749.13,869.18 660.21,869.18 "/></g><path d="M749.13,869.18 q0.00,-88.93 -88.93,-88.93 l0.00,88.93Z"/></g></g></g><g class="Wall" fill="#000000" id="Wall" stroke="#000000" style="fill-opacity: 1; stroke-opacity: 1; stroke-width: 1;"><polygon points="543.58,922.29 543.58,536.60 558.58,521.60 558.58,922.29 "/><g class="Door Swing Beside" fill="#ffffff" id="Door" stroke="#000000" style="fill-opacity: 1; stroke-width: 1; stroke-opacity: 1;"><polygon points="543.58,741.65 543.58,650.44 558.58,650.44 558.58,741.65 "/><g class="Panel Left Positive" fill="none" id="Panel" style=""><g class="PanelArea" fill="none" id="PanelArea" stroke="none" style=""><polygon points="543.58,741.65 543.58,650.44 558.58,650.44 558.58,741.65 "/></g><path d="M558.58,650.44 q91.21,0.00 91.21,91.21 l-91.21,0.00Z"/></g></g></g><g class="Wall" fill="#000000" id="Wall" stroke="#000000" style="fill-opacity: 1; stroke-opacity: 1; stroke-width: 1;"><polygon points="543.58,532.32 616.01,415.64 624.35,430.64 558.58,536.60 "/><g class="Door None Beside" fill="#ffffff" id="Door" stroke="#000000" style="fill-opacity: 1; stroke-width: 1; stroke-opacity: 1;"><polygon points="553.70,516.01 606.04,431.69 618.78,439.60 566.44,523.92 "/></g></g><g class="Wall" fill="#000000" id="Wall" stroke="#000000" style="fill-opacity: 1; stroke-opacity: 1; stroke-width: 1;"><polygon points="616.01,415.64 616.01,40.02 631.01,40.02 631.01,419.92 "/></g><g class="Wall" fill="#000000" id="Wall" stroke="#000000" style="fill-opacity: 1; stroke-opacity: 1; stroke-width: 1;"><polygon points="543.58,536.60 57.56,536.60 57.56,521.60 558.58,521.60 "/><g class="Door Swing Beside" fill="#ffffff" id="Door" stroke="#000000" style="fill-opacity: 1; stroke-width: 1; stroke-opacity: 1;"><polygon points="441.44,536.60 345.70,536.60 345.70,521.60 441.44,521.60 "/><g class="Panel Left Positive" fill="none" id="Panel" style=""><g class="PanelArea" fill="none" id="PanelArea" stroke="none" style=""><polygon points="441.44,536.60 345.70,536.60 345.70,521.60 441.44,521.60 "/></g><path d="M345.70,521.60 q0.00,-95.74 95.74,-95.74 l0.00,95.74Z"/></g></g><g class="Door Swing Beside" fill="#ffffff" id="Door" stroke="#000000" style="fill-opacity: 1; stroke-width: 1; stroke-opacity: 1;"><polygon points="322.20,536.60 227.34,536.60 227.34,521.60 322.20,521.60 "/><g class="Panel Right Positive" fill="none" id="Panel" style=""><g class="PanelArea" fill="none" id="PanelArea" stroke="none" style=""><polygon points="322.20,536.60 227.34,536.60 227.34,521.60 322.20,521.60 "/></g><path d="M322.20,521.60 q0.00,-94.87 -94.87,-94.87 l0.00,94.87Z"/></g></g></g><g class="Wall" fill="#000000" id="Wall" stroke="#000000" style="fill-opacity: 1; stroke-opacity: 1; stroke-width: 1;"><polygon points="616.01,415.64 988.01,415.64 1003.01,430.64 624.35,430.64 "/><g class="Door Swing Beside" fill="#ffffff" id="Door" stroke="#000000" style="fill-opacity: 1; stroke-width: 1; stroke-opacity: 1;"><polygon points="655.54,415.64 748.66,415.64 748.66,430.64 655.54,430.64 "/><g class="Panel Left Negative" fill="none" id="Panel" style=""><g class="PanelArea" fill="none" id="PanelArea" stroke="none" style=""><polygon points="655.54,415.64 748.66,415.64 748.66,430.64 655.54,430.64 "/></g><path d="M655.54,415.64 q0.00,-93.12 93.12,-93.12 l0.00,93.12Z"/></g></g></g><g class="Wall" fill="#000000" id="Wall" stroke="#000000" style="fill-opacity: 1; stroke-opacity: 1; stroke-width: 1;"><polygon points="988.01,415.64 988.01,40.02 1003.01,40.02 1003.01,430.64 "/></g><g class="Wall" fill="#000000" id="Wall" stroke="#000000" style="fill-opacity: 1; stroke-opacity: 1; stroke-width: 1;"><polygon points="746.80,595.37 1119.68,595.37 1104.68,631.40 746.80,631.40 "/><g class="Door None Beside" fill="#ffffff" id="Door" stroke="#000000" style="fill-opacity: 1; stroke-width: 1; stroke-opacity: 1;"><polygon points="999.48,595.37 1090.16,595.37 1090.16,631.40 999.48,631.40 "/></g><g class="Door ParallelSlide Beside" fill="#ffffff" id="Door" stroke="#000000" style="fill-opacity: 1; stroke-width: 1; stroke-opacity: 1;"><polygon points="776.89,595.37 972.18,595.37 972.18,631.40 776.89,631.40 "/><g class="Panel Right Negative" id="Panel"><g class="PanelArea" fill="none" id="PanelArea" stroke="none" style=""><polygon points="776.89,595.37 880.37,595.37 880.37,631.40 776.89,631.40 "/></g><path d="M776.89,613.38 L776.89,609.38 L880.37,609.38 L880.37,613.38  Z"/></g><g class="Panel Left Positive" id="Panel"><g class="PanelArea" fill="none" id="PanelArea" stroke="none" style=""><polygon points="855.64,595.37 959.11,595.37 959.11,631.40 855.64,631.40 "/></g><path d="M855.64,613.38 L855.64,617.38 L959.11,617.38 L959.11,613.38  Z"/></g></g></g><g class="Wall" fill="#000000" id="Wall" stroke="#000000" style="fill-opacity: 1; stroke-opacity: 1; stroke-width: 1;"><polygon points="1119.68,595.37 1119.68,869.18 1104.68,869.18 1104.68,631.40 "/><g class="Door Swing Beside" fill="#ffffff" id="Door" stroke="#000000" style="fill-opacity: 1; stroke-width: 1; stroke-opacity: 1;"><polygon points="1119.68,757.61 1119.68,849.57 1104.68,849.57 1104.68,757.61 "/><g class="Panel Right Positive" fill="none" id="Panel" style=""><g class="PanelArea" fill="none" id="PanelArea" stroke="none" style=""><polygon points="1119.68,757.61 1119.68,849.57 1104.68,849.57 1104.68,757.61 "/></g><path d="M1104.68,757.61 q-91.97,0.00 -91.97,91.97 l91.97,0.00Z"/></g></g></g><g class="Wall" fill="#000000" id="Wall" stroke="#000000" style="fill-opacity: 1; stroke-opacity: 1; stroke-width: 1;"><polygon points="992.47,631.40 992.47,725.69 977.47,719.69 977.47,631.40 "/></g><g class="Wall" fill="#000000" id="Wall" stroke="#000000" style="fill-opacity: 1; stroke-opacity: 1; stroke-width: 1;"><polygon points="769.11,631.40 769.11,719.69 754.11,725.69 754.11,631.40 "/></g><g class="Wall" fill="#000000" id="Wall" stroke="#000000" style="fill-opacity: 1; stroke-opacity: 1; stroke-width: 1;"><polygon points="1219.66,730.22 1119.68,730.22 1119.68,745.22 1219.66,745.22 "/></g><g class="Column Rectangle" fill="#000000" id="Column" stroke="none" style="fill-opacity: 1;"><polygon points="606.23,922.29 558.58,922.29 558.58,869.18 606.23,869.18 "/></g><g class="Column Rectangle" fill="#000000" id="Column" stroke="none" style="fill-opacity: 1;"><polygon points="1268.68,619.60 1176.27,619.60 1176.27,507.69 1268.68,507.69 "/></g><g class="Wall" fill="#000000" id="Wall" stroke="#000000" style="fill-opacity: 1; stroke-opacity: 1; stroke-width: 1;"><polygon points="769.11,595.37 769.11,430.64 754.11,430.64 754.11,595.37 "/><g class="Door None Beside" fill="#ffffff" id="Door" stroke="#000000" style="fill-opacity: 1; stroke-width: 1; stroke-opacity: 1;"><polygon points="769.11,548.75 769.11,459.10 754.11,459.10 754.11,548.75 "/></g></g><g class="Wall" fill="#000000" id="Wall" stroke="#000000" style="fill-opacity: 1; stroke-opacity: 1; stroke-width: 1;"><polygon points="977.47,595.37 977.47,430.64 992.47,430.64 992.47,595.37 "/><g class="Door None Beside" fill="#ffffff" id="Door" stroke="#000000" style="fill-opacity: 1; stroke-width: 1; stroke-opacity: 1;"><polygon points="977.47,528.59 977.47,447.98 992.47,447.98 992.47,528.59 "/></g></g><g class="FixedFurnitureSet" fill="#ffffff" id="FixedFurnitureSet" stroke="#000000" style="fill-opacity: 0.4; stroke-opacity: 0.4;" transform="matrix(0,-1,1,0,621.3541,1020.566)"><g class="FixedFurniture BaseCabinet" fill="#ffffff" stroke="#000000" style="fill-opacity: 1; stroke-opacity: 1;" transform="matrix(1,0,0,1,0,0)">
<g class="BoundaryPolygon">
<polygon points="0.00,0.00 64.72,0.00 64.72,45.87 0.00,45.87 "/>
</g>
<g class="Direction" fill-opacity="0.9" style="display: none;">
<polygon fill="#444444" points="34.53,42.20 34.53,31.58 31.52,31.58 31.52,42.20 27.71,42.20 33.02,47.00 38.32,42.20 34.53,42.20 "/>
</g>
<g class="Name" fill-opacity="0.9" style="display: none;">

</g>
<desc>Width:60 Height:5 Depth:60 Elevation:105</desc>
</g><g class="FixedFurniture Sink" fill="#ffffff" stroke="#000000" style="fill-opacity: 1; stroke-opacity: 1;" transform="matrix(1,0,0,1,0,0)">
<g class="BoundaryPolygon" fill="none" stroke="none">
<polygon points="0.00,0.00 64.72,0.00 64.72,45.87 0.00,45.87 "/>
</g>
<g class="InnerPolygon">
<polygon points="5.39,9.70 59.33,9.70 59.33,41.82 5.39,41.82 "/>
</g>
<g class="OuterDrain" stroke-width="0.8">
<circle cx="32.35945345382338" cy="24.618354972496054" r="3.5"/>
</g>
<g class="InnerDrain" stroke-width="0.8">
<circle cx="32.35945345382338" cy="24.618354972496054" r="2"/>
</g>
<g class="Faucet">
<polygon points="29.12,3.82 35.12,3.82 35.12,17.82 29.12,17.82 "/>
</g>
<g class="Direction" fill-opacity="0.9" style="display: none;">
<polygon fill="#444444" points="34.53,42.20 34.53,31.58 31.52,31.58 31.52,42.20 27.71,42.20 33.02,47.00 38.32,42.20 34.53,42.20 "/>
</g>
<g class="Name" fill-opacity="0.9" style="display: none;">

</g>
<desc>Width:60 Height:90 Depth:60 Elevation:0</desc>
</g></g><g class="FixedFurniture Shower" fill="#ffffff" stroke="#000000" style="fill-opacity: 1; stroke-opacity: 1;" transform="matrix(-1,0,0,-1,680.7748,1094.8709)">
<g class="BoundaryPolygon" fill="none" stroke="none">
<polygon points="0,0 32,0 32,19 0,19"/>
</g>
<g class="InnerPolygon">
<rect height="6.1" width="11.2" x="3.7" y="0.5"/>
<rect height="6.1" width="11.2" x="17.6" y="0.5"/>
<rect height="6.1" width="3.4" x="28.7" y="0.5"/>
<rect height="6.1" width="3.2" x="0.5" y="0.5"/>
<path d="M14.9,8.5c0,1.5-0.4,3.3-1.6,5    c-0.4,0.6-1,1.1-1.1,1.7c-0.2,1.1,0.3,2.8,2.5,3.2c0.5,0.1,1.3,0.1,1.6,0.1h-0.1c0.3,0,1.1,0,1.6-0.1c2.2-0.4,2.7-2.1,2.5-3.2    c-0.1-0.6-0.7-1.1-1.1-1.7c-1.2-1.7-1.6-3.5-1.6-5"/>
<path d="M12.2,15.3c0.1,0.2,1.6,1.9,4.2,1.9 c2.4-0.1,3.7-1.7,3.9-1.9"/>
<path d="M14.9,0.5h2.7v8c-0.9,0-1.8,0-2.7,0l0,0 C14.9,5.9,14.9,3.2,14.9,0.5z"/>
</g>
<g class="Indicator">
<path d="M3.7,3.6C5,3.1,5.2,3,5.2,3 c0,1.1,0,0,0,1.1C5.2,4.1,5.1,4.1,3.7,3.6"/>
<path d="M28.7,3.6 C27.4,3.1,27.2,3,27.2,3c0,1.1,0,0,0,1.1C27.2,4.1,27.3,4.1,28.7,3.6"/>
</g>
<desc>Width:32 Height:97 Depth:19 Elevation:135</desc>
</g><g class="FixedFurnitureSet" fill="#ffffff" id="FixedFurnitureSet" stroke="#000000" style="fill-opacity: 0.4; stroke-opacity: 0.4;" transform="matrix(1,0,0,1,1145.3403,745.4705)"><g class="FixedFurniture BaseCabinet" fill="#ffffff" stroke="#000000" style="fill-opacity: 1; stroke-opacity: 1;" transform="matrix(1,0,0,1,0,0)">
<g class="BoundaryPolygon">
<polygon points="0.00,0.00 48.86,0.00 48.86,38.92 0.00,38.92 "/>
</g>
<g class="Direction" fill-opacity="0.9" style="display: none;">
<polygon fill="#444444" points="26.06,35.80 26.06,25.19 23.06,25.19 23.06,35.80 19.25,35.80 24.56,40.60 29.86,35.80 26.06,35.80 "/>
</g>
<g class="Name" fill-opacity="0.9" style="display: none;">

</g>
<desc>Width:60 Height:5 Depth:60 Elevation:105</desc>
</g><g class="FixedFurniture Sink" fill="#ffffff" stroke="#000000" style="fill-opacity: 1; stroke-opacity: 1;" transform="matrix(1,0,0,1,0,0)">
<g class="BoundaryPolygon" fill="none" stroke="none">
<polygon points="0.00,0.00 48.86,0.00 48.86,38.92 0.00,38.92 "/>
</g>
<g class="InnerPolygon">
<polygon points="4.07,9.70 44.79,9.70 44.79,35.48 4.07,35.48 "/>
</g>
<g class="OuterDrain" stroke-width="0.8">
<circle cx="24.428681336898777" cy="20.885368437891024" r="3.5"/>
</g>
<g class="InnerDrain" stroke-width="0.8">
<circle cx="24.428681336898777" cy="20.885368437891024" r="2"/>
</g>
<g class="Faucet">
<polygon points="21.99,3.24 27.99,3.24 27.99,17.24 21.99,17.24 "/>
</g>
<g class="Direction" fill-opacity="0.9" style="display: none;">
<polygon fill="#444444" points="26.06,35.80 26.06,25.19 23.06,25.19 23.06,35.80 19.25,35.80 24.56,40.60 29.86,35.80 26.06,35.80 "/>
</g>
<g class="Name" fill-opacity="0.9" style="display: none;">

</g>
<desc>Width:60 Height:90 Depth:60 Elevation:0</desc>
</g></g><g class="FixedFurniture Toilet" fill="#ffffff" stroke="#000000" style="fill-opacity: 1; stroke-opacity: 1;" transform="matrix(0,0.9321,-0.9215,0,1219.6584,813.0629)">
<g class="BoundaryPolygon" fill="none" stroke="none">
<polygon points="0,0 41,0 41,71 0,71"/>
</g>
<g class="InnerPolygon">
<rect height="17.98" width="39.989" x="0.502" y="0.5"/>
<path d="M40.491,44.237S41.619,70.5,20.907,70.5C-.523,70.5.6,44.237.6,44.237L.5,18.48H40.491Z"/>
<rect height="3.03" width="6.357" x="17.318" y="7.975"/>
</g>
<desc>Width:41 Height:85 Depth:71 Elevation:0</desc>
</g><g class="FixedFurniture ElectricalAppliance" fill="#ffffff" stroke="#000000" style="fill-opacity: 1; stroke-opacity: 1;" transform="matrix(-1.2262,0,0,-0.835,1268.6759,730.2205)">
<g class="BoundaryPolygon">
<polygon points="0,0 60,0 60,60 0,60"/>
</g>
<g class="electricitySign" fill="none">
<path d="M0,0,30.1,39.8V19.4L59.9,60"/>
</g>
<g class="Direction" fill-opacity="0.9" style="display: none;">
<polygon fill="#444444" points="32.009 55.197 32.009 44.581 29 44.581 29 55.197 25.197 55.197 30.5 60 35.803 55.197 32.009 55.197"/>
</g>
<g class="Name" fill-opacity="0.9" style="display: none;">

</g>
<desc>Width:60 Height:200 Depth:60 Elevation:0</desc>
</g><g class="FixedFurniture ElectricalAppliance WashingMachine" fill="#ffffff" stroke="#000000" style="fill-opacity: 1; stroke-opacity: 1;" transform="matrix(-1.2349,0,0,-0.8349,1195.1042,730.2205)">
<g class="BoundaryPolygon">
<polygon points="0,0 60,0 60,60 0,60"/>
</g>
<g class="electricitySign" fill="none">
<path d="M0,0,30,41V20.8L60,60"/>
</g>
<g class="Handle">
<path d="M2.7,59.4H57.3"/>
</g>
<g class="Direction" fill-opacity="0.9" style="display: none;">
<polygon fill="#444444" points="32.009 55.197 32.009 44.581 29 44.581 29 55.197 25.197 55.197 30.5 60 35.803 55.197 32.009 55.197"/>
</g>
<g class="Name" fill-opacity="0.9" style="display: none;">

</g>
<desc>Width:60 Height:90 Depth:60 Elevation:0</desc>
</g><g class="FixedFurniture ElectricalAppliance Refrigerator" fill="#ffffff" stroke="#000000" style="fill-opacity: 1; stroke-opacity: 1;" transform="matrix(0,1,-1,0,1268.6759,180.57)">
<g class="BoundaryPolygon">
<polygon points="0,0 60,0 60,60 0,60"/>
</g>
<g class="electricitySign" fill="none">
<path d="M0,0,30,37.1v-18L60,56.3"/>
</g>
<g class="Doors">
<rect height="4" width="60" y="56"/>
</g>
<g class="Direction" fill-opacity="0.9" style="display: none;">
<polygon fill="#444444" points="32.009 55.197 32.009 44.581 29 44.581 29 55.197 25.197 55.197 30.5 60 35.803 55.197 32.009 55.197"/>
</g>
<g class="Name" fill-opacity="0.9" style="display: none;">

</g>
<desc>Width:60 Height:170 Depth:60 Elevation:0</desc>
</g><g class="FixedFurniture BaseCabinet" fill="#ffffff" stroke="#000000" style="fill-opacity: 1; stroke-opacity: 1;" transform="matrix(0,1,-1,0,1268.6759,240.57)">
<g class="BoundaryPolygon">
<polygon points="0.00,0.00 267.12,0.00 267.12,60.00 0.00,60.00 "/>
</g>
<g class="Direction" fill-opacity="0.9" style="display: none;">
<polygon fill="#444444" points="142.50,55.20 142.50,44.58 139.49,44.58 139.49,55.20 135.69,55.20 140.99,60.00 146.30,55.20 142.50,55.20 "/>
</g>
<g class="Name" fill-opacity="0.9" style="display: none;">

</g>
<desc>Width:60 Height:90 Depth:60 Elevation:0</desc>
</g><g class="FixedFurniture DoubleSink" fill="#ffffff" stroke="#000000" style="fill-opacity: 1; stroke-opacity: 1;" transform="matrix(0,1,-1,0,1268.6759,299.3738)">
<g class="BoundaryPolygon" fill="none" stroke="none">
<polygon points="0.00,0.00 64.08,0.00 64.08,57.31 0.00,57.31 "/>
</g>
<g class="InnerPolygonLeft">
<polygon points="4.58,9.90 30.67,9.90 30.67,52.44 4.58,52.44 "/>
</g>
<g class="InnerPolygonRight">
<polygon points="33.41,10.00 59.51,10.00 59.51,52.53 33.41,52.53 "/>
</g>
<g class="OuterDrain" stroke-width="0.8">
<circle cx="18.03461358337987" cy="31.043011037605446" r="3.5"/>
<circle cx="45.95622344597309" cy="31.043011037605446" r="3.5"/>
</g>
<g class="InnerDrain" stroke-width="0.8">
<circle cx="18.03461358337987" cy="31.043011037605446" r="2"/>
<circle cx="45.95622344597309" cy="31.043011037605446" r="2"/>
</g>
<g class="Faucet">
<polygon points="29.29,4.68 35.29,4.68 35.29,18.68 29.29,18.68 "/>
</g>
<g class="Direction" fill-opacity="0.9" style="display: none;">
<polygon fill="#444444" points="33.42,52.24 33.42,41.63 30.41,41.63 30.41,52.24 26.61,52.24 31.91,57.55 37.22,52.24 33.42,52.24 "/>
</g>
<g class="Name" fill-opacity="0.9" style="display: none;">

</g>
<desc>Width:70 Height:90 Depth:60 Elevation:0</desc>
</g><g class="FixedFurniture ElectricalAppliance IntegratedStove" fill="#ffffff" stroke="#000000" style="fill-opacity: 1; stroke-opacity: 1;" transform="matrix(0,1,-1,0,1268.6759,404.4194)">
<g class="BoundaryPolygon" fill="none" stroke="none">
<polygon points="0 0 60 0 60 60 0 60"/>
</g>
<g class="InnerPolygon">
<polygon points="2,2 58,2 58,58 2,58"/>
</g>
<g class="OuterCircle">
<circle cx="16" cy="16" r="8"/>
<circle cx="44" cy="16" r="8"/>
<circle cx="16" cy="44" r="8"/>
<circle cx="44" cy="44" r="8"/>
</g>
<g class="Direction" fill-opacity="0.9" style="display: none;">
<polygon fill="#444444" points="32.009 55.197 32.009 44.581 29 44.581 29 55.197 25.197 55.197 30.5 60 35.803 55.197 32.009 55.197"/>
</g>
<g class="Name" fill-opacity="0.9" style="display: none;">

</g>
<desc>Width:60 Height:90 Depth:30 Elevation:0</desc>
</g><g class="FixedFurniture BaseCabinet" fill="#ffffff" stroke="#000000" style="fill-opacity: 1; stroke-opacity: 1;" transform="matrix(1,0,0,1,1003.0068,430.6381)"><desc>Width:60 Height:90 Depth:60 Elevation:0</desc><g class="BoundaryPolygon"><polygon points="0.00,0.00 57.15,0.00 57.15,-228.18 0.15,-248.93 0.00,0.00 "/></g></g><g class="SelectionControls" fill="#0000ff" stroke="#0000ff" style="display: none;"><g class="rotateControl" style="display: none;"><circle cx="870.0764461661316" cy="622.627585892139" r="5" style="stroke : none; fill-opacity: 0.5; cursor:crosshair"/></g><g class="ResizeNControl" style="display: none;"><circle cx="0" cy="0" r="5" style="stroke : none; fill-opacity: 0.5"/></g><g class="ResizeNEControl" style="display: none;"><circle cx="0" cy="0" r="5" style="stroke : none; fill-opacity: 0.5"/></g><g class="ResizeEControl" style="display: none;"><circle cx="0" cy="0" r="5" style="stroke : none; fill-opacity: 0.5"/></g><g class="ResizeSEControl" style="display: none;"><circle cx="0" cy="0" r="5" style="stroke : none; fill-opacity: 0.5"/></g><g class="ResizeSControl" style="display: none;"><circle cx="0" cy="0" r="5" style="stroke : none; fill-opacity: 0.5"/></g><g class="ResizeSWControl" style="display: none;"><circle cx="0" cy="0" r="5" style="stroke : none; fill-opacity: 0.5"/></g><g class="ResizeWControl" style="display: none;"><circle cx="0" cy="0" r="5" style="stroke : none; fill-opacity: 0.5"/></g><g class="ResizeNWControl" style="display: none;"><circle cx="0" cy="0" r="5" style="stroke : none; fill-opacity: 0.5"/></g><g class="removeControl" style="display: none;"><polygon points="836.19,652.63 903.96,652.63 903.96,692.92 836.19,692.92 " style="stroke : none; fill-opacity: 0.1"/></g><g class="copyPasteControl" style="display: none;"><polygon style="stroke : none; fill-opacity: 0.1"/></g><g class="translateControl" style="display: none;"><polygon points="836.19,652.63 903.96,652.63 903.96,692.92 836.19,692.92 " style="stroke : none; fill-opacity: 0.1; cursor:move"/></g></g><g class="SelectionControls" fill="#0000ff" stroke="#0000ff" style="display: none;"><polygon fill="none" points="769.11,631.40 977.47,631.40 977.47,719.69 769.11,719.69 " stroke="#0000ff" style=""/><g class="rotateControl" style="display: none;"><circle cx="873.2893827506043" cy="601.398235892139" r="5" style="stroke : none; fill-opacity: 0.5; cursor:crosshair"/></g><g class="ResizeNControl" style="display: none;"><circle cx="0" cy="0" r="5" style="stroke : none; fill-opacity: 0.5"/></g><g class="ResizeNEControl" style="display: none;"><circle cx="0" cy="0" r="5" style="stroke : none; fill-opacity: 0.5"/></g><g class="ResizeEControl" style="display: none;"><circle cx="0" cy="0" r="5" style="stroke : none; fill-opacity: 0.5"/></g><g class="ResizeSEControl" style="display: none;"><circle cx="0" cy="0" r="5" style="stroke : none; fill-opacity: 0.5"/></g><g class="ResizeSControl" style="display: none;"><circle cx="0" cy="0" r="5" style="stroke : none; fill-opacity: 0.5"/></g><g class="ResizeSWControl" style="display: none;"><circle cx="0" cy="0" r="5" style="stroke : none; fill-opacity: 0.5"/></g><g class="ResizeWControl" style="display: none;"><circle cx="0" cy="0" r="5" style="stroke : none; fill-opacity: 0.5"/></g><g class="ResizeNWControl" style="display: none;"><circle cx="0" cy="0" r="5" style="stroke : none; fill-opacity: 0.5"/></g><g class="removeControl" style="display: none;"><polygon style="stroke : none; fill-opacity: 0.1"/></g><g class="copyPasteControl" style="display: none;"><polygon style="stroke : none; fill-opacity: 0.1"/></g><g class="translateControl" style="display: none;"><polygon style="stroke : none; fill-opacity: 0.1; cursor:move"/></g></g><g class="Wall" fill="#000000" id="Wall" stroke="#000000" style="fill-opacity: 1; stroke-opacity: 1; stroke-width: 1;"><polygon points="769.11,719.69 977.47,719.69 992.47,725.69 754.11,725.69 "/></g></g></g></g></svg>