<?xml version="1.0" encoding="utf-8"?>
<svg height="1201.3000526428223" id="temp" version="1.1" viewBox="0 0 913.0900440216064 1201.3000526428223" width="913.0900440216064" xmlns="http://www.w3.org/2000/svg" xmlns:xlink="http://www.w3.org/1999/xlink"><defs/><g class="Model v1-1" id="Model"><g class="Floor"><g class="Floorplan Floor-1" id="Floor-1"><g class="Space Outdoor Balcony" fill="#ffffff" id="648398bb-60dd-4224-90d0-3ac43c3f1a28" stroke="#000000" style="fill-opacity: 1; stroke-opacity: 1; stroke-width: 1;"><polygon points="176.62,802.67 33.67,802.67 33.67,407.39 176.62,407.39 176.62,802.67 "/><g class="Dimension" transform="matrix(1,0,0,1,33.6661,407.3914)"><g class="Visual" style="display: none;" transform="matrix(1,0,0,1,0,0)"><g class="DimensionMark" fill="#000000" id="mark1" stroke="none" style="fill-opacity: 1; pointer-events: visible;" transform="matrix(1,0,0,1,71.4762,0)"><polygon points="-5,5,0,0,5,5"/></g><g class="DimensionMark" fill="#000000" id="mark2" stroke="none" style="fill-opacity: 1; pointer-events: visible;" transform="matrix(1,0,0,1,142.9525,197.6402)"><polygon points="-5,-5,0,0,-5,5"/></g><g class="DimensionMark" fill="#000000" id="mark3" stroke="none" style="fill-opacity: 1; pointer-events: visible;" transform="matrix(1,0,0,1,71.4762,395.2803)"><polygon points="-5,-5,0,0,5,-5"/></g><g class="DimensionMark" fill="#000000" id="mark4" stroke="none" style="fill-opacity: 1; pointer-events: visible;" transform="matrix(1,0,0,1,0,197.6402)"><polygon points="5,5,0,0,5,-5"/></g></g><g class="SpaceDimensionsLabel" transform="matrix(0.0349,-0.9994,0.9994,0.0349,79.189,280.4635)"><g class="TextLabel NameLabel" id="NameLabel" style="display: block;"/><g class="TextLabel DimensionMeasureLabel" id="DimensionMeasureLabel" style="display: none;" transform="matrix(1,0,0,1,-64.1093,78.7812)"/></g></g></g><g class="Space LivingRoom" fill="#ffffff" id="ed3e4abc-288d-4ea0-a028-cc95924a0faf" stroke="#ffffff" style="fill-opacity: 1; stroke-opacity: 1; stroke-width: 1;"><polygon points="678.58,802.67 198.62,802.67 198.62,407.39 678.58,407.39 "/><g class="Dimension" transform="matrix(1,0,0,1,198.6185,407.3914)"><g class="Visual" style="display: none;" transform="matrix(1,0,0,1,0,0)"><g class="DimensionMark" fill="#000000" id="mark1" stroke="none" style="fill-opacity: 1; pointer-events: visible;" transform="matrix(1,0,0,1,239.9786,0)"><polygon points="-5,5,0,0,5,5"/></g><g class="DimensionMark" fill="#000000" id="mark2" stroke="none" style="fill-opacity: 1; pointer-events: visible;" transform="matrix(1,0,0,1,479.9572,197.6402)"><polygon points="-5,-5,0,0,-5,5"/></g><g class="DimensionMark" fill="#000000" id="mark3" stroke="none" style="fill-opacity: 1; pointer-events: visible;" transform="matrix(1,0,0,1,239.9786,395.2803)"><polygon points="-5,-5,0,0,5,-5"/></g><g class="DimensionMark" fill="#000000" id="mark4" stroke="none" style="fill-opacity: 1; pointer-events: visible;" transform="matrix(1,0,0,1,0,197.6402)"><polygon points="5,5,0,0,5,-5"/></g></g><g class="SpaceDimensionsLabel" transform="matrix(1,0,0,1,224.2616,201.5694)"><g class="TextLabel NameLabel" id="NameLabel" style="display: block;"/><g class="TextLabel DimensionMeasureLabel" id="DimensionMeasureLabel" style="display: none;" transform="matrix(1,0,0,1,-114.6016,78.8906)"/></g></g></g><g class="Space Bedroom" fill="#ffffff" id="67fcda61-8026-4996-b847-3deab3bafc53" stroke="#ffffff" style="fill-opacity: 1; stroke-opacity: 1; stroke-width: 1;"><polygon points="592.28,1179.30 198.62,1179.30 198.62,812.67 592.28,812.67 "/><g class="Dimension" transform="matrix(1,0,0,1,198.6185,812.6717)"><g class="Visual" style="display: none;" transform="matrix(1,0,0,1,0,0)"><g class="DimensionMark" fill="#000000" id="mark1" stroke="none" style="fill-opacity: 1; pointer-events: visible;" transform="matrix(1,0,0,1,196.8297,0)"><polygon points="-5,5,0,0,5,5"/></g><g class="DimensionMark" fill="#000000" id="mark2" stroke="none" style="fill-opacity: 1; pointer-events: visible;" transform="matrix(1,0,0,1,393.6594,183.3122)"><polygon points="-5,-5,0,0,-5,5"/></g><g class="DimensionMark" fill="#000000" id="mark3" stroke="none" style="fill-opacity: 1; pointer-events: visible;" transform="matrix(1,0,0,1,196.8297,366.6244)"><polygon points="-5,-5,0,0,5,-5"/></g><g class="DimensionMark" fill="#000000" id="mark4" stroke="none" style="fill-opacity: 1; pointer-events: visible;" transform="matrix(1,0,0,1,0,183.3122)"><polygon points="5,5,0,0,5,-5"/></g></g><g class="SpaceDimensionsLabel" transform="matrix(1,0,0,1,173.5123,206.1785)"><g class="TextLabel NameLabel" id="NameLabel" style="display: block;"/><g class="TextLabel DimensionMeasureLabel" id="DimensionMeasureLabel" style="display: none;" transform="matrix(1,0,0,1,-113.6641,78.7813)"/></g></g></g><g class="Space Dining" fill="#ffffff" id="48bf88a9-ca2b-477c-931d-1e2ae69f67f3" stroke="#ffffff" style="fill-opacity: 1; stroke-opacity: 1; stroke-width: 1;"><polygon points="578.03,397.39 198.62,397.39 198.62,57.28 578.03,57.28 "/><g class="Dimension" transform="matrix(1,0,0,1,198.6185,57.2775)"><g class="Visual" style="display: none;" transform="matrix(1,0,0,1,0,0)"><g class="DimensionMark" fill="#0000ff" id="mark1" stroke="none" style="fill-opacity: 1; pointer-events: visible;" transform="matrix(2,0,0,2,189.7047,0)"><polygon points="-5,5,0,0,5,5"/></g><g class="DimensionMark" fill="#0000ff" id="mark2" stroke="none" style="fill-opacity: 1; pointer-events: visible;" transform="matrix(2,0,0,2,379.4094,170.057)"><polygon points="-5,-5,0,0,-5,5"/></g><g class="DimensionMark" fill="#0000ff" id="mark3" stroke="none" style="fill-opacity: 1; pointer-events: visible;" transform="matrix(2,0,0,2,189.7047,340.1139)"><polygon points="-5,-5,0,0,5,-5"/></g><g class="DimensionMark" fill="#0000ff" id="mark4" stroke="none" style="fill-opacity: 1; pointer-events: visible;" transform="matrix(2,0,0,2,0,170.057)"><polygon points="5,5,0,0,5,-5"/></g></g><g class="SpaceDimensionsLabel" transform="matrix(1,0,0,1,182.1363,176.8846)"><g class="TextLabel NameLabel" id="NameLabel" style="display: block;"/><g class="TextLabel DimensionMeasureLabel" id="DimensionMeasureLabel" style="display: none;" transform="matrix(1,0,0,1,-116.1171,78.8906)"/></g></g></g><g class="Space Kitchen" fill="#ffffff" id="dfcabee8-2ead-46fc-8475-a371ee8aaee0" stroke="#ffffff" style="fill-opacity: 1; stroke-opacity: 1; stroke-width: 1;"><polygon points="891.09,338.32 827.75,338.32 827.75,397.39 588.03,397.39 588.03,57.28 891.09,57.28 "/><g class="Dimension" transform="matrix(1,0,0,1,588.0279,57.2775)"><g class="Visual" style="display: none;" transform="matrix(1,0,0,1,0,0)"><g class="DimensionMark" fill="#000000" id="mark1" stroke="none" style="fill-opacity: 1; pointer-events: visible;" transform="matrix(1,0,0,1,151.5313,0)"><polygon points="-5,5,0,0,5,5"/></g><g class="DimensionMark" fill="#000000" id="mark2" stroke="none" style="fill-opacity: 1; pointer-events: visible;" transform="matrix(1,0,0,1,303.0627,170.057)"><polygon points="-5,-5,0,0,-5,5"/></g><g class="DimensionMark" fill="#000000" id="mark3" stroke="none" style="fill-opacity: 1; pointer-events: visible;" transform="matrix(1,0,0,1,151.5313,340.1139)"><polygon points="-5,-5,0,0,5,-5"/></g><g class="DimensionMark" fill="#000000" id="mark4" stroke="none" style="fill-opacity: 1; pointer-events: visible;" transform="matrix(1,0,0,1,0,170.057)"><polygon points="5,5,0,0,5,-5"/></g></g><g class="SpaceDimensionsLabel" transform="matrix(1,0,0,1,129.3442,202.2449)"><g class="TextLabel NameLabel" id="NameLabel" style="display: block;"/><g class="TextLabel DimensionMeasureLabel" id="DimensionMeasureLabel" style="display: none;" transform="matrix(1,0,0,1,-128.1016,79.2188)"/></g></g></g><g class="Space Entry Lobby" fill="#ffffff" id="8c4a3d34-5617-484d-9525-15bccb936d79" stroke="#ffffff" style="fill-opacity: 1; stroke-opacity: 1; stroke-width: 1;"><polygon points="891.09,802.67 688.58,802.67 688.58,407.39 891.09,407.39 "/><g class="Dimension" transform="matrix(1,0,0,1,688.5757,407.3914)"><g class="Visual" style="display: none;" transform="matrix(1,0,0,1,0,0)"><g class="DimensionMark" fill="#000000" id="mark1" stroke="none" style="fill-opacity: 1; pointer-events: visible;" transform="matrix(1,0,0,1,101.2574,0)"><polygon points="-5,5,0,0,5,5"/></g><g class="DimensionMark" fill="#000000" id="mark2" stroke="none" style="fill-opacity: 1; pointer-events: visible;" transform="matrix(1,0,0,1,202.5149,197.6402)"><polygon points="-5,-5,0,0,-5,5"/></g><g class="DimensionMark" fill="#000000" id="mark3" stroke="none" style="fill-opacity: 1; pointer-events: visible;" transform="matrix(1,0,0,1,101.2574,395.2803)"><polygon points="-5,-5,0,0,5,-5"/></g><g class="DimensionMark" fill="#000000" id="mark4" stroke="none" style="fill-opacity: 1; pointer-events: visible;" transform="matrix(1,0,0,1,0,197.6402)"><polygon points="5,5,0,0,5,-5"/></g></g><g class="SpaceDimensionsLabel" transform="matrix(1,0,0,1,70.5029,245.8039)"><g class="TextLabel NameLabel" id="NameLabel" style="display: block;"/><g class="TextLabel DimensionMeasureLabel" id="DimensionMeasureLabel" style="display: none;" transform="matrix(1,0,0,1,-118.4609,79.2188)"/></g></g></g><g class="Space Bath Shower" fill="#ffffff" id="c552185e-0b2c-453a-8557-d50e6591775e" stroke="#ffffff" style="fill-opacity: 1; stroke-opacity: 1; stroke-width: 1;"><polygon points="762.93,1024.22 602.28,1024.22 602.28,812.67 762.93,812.67 "/><g class="Dimension" transform="matrix(1,0,0,1,602.2779,812.6717)"><g class="Visual" style="display: none;" transform="matrix(1,0,0,1,0,0)"><g class="DimensionMark" fill="#000000" id="mark1" stroke="none" style="fill-opacity: 1; pointer-events: visible;" transform="matrix(1,0,0,1,80.3242,0)"><polygon points="-5,5,0,0,5,5"/></g><g class="DimensionMark" fill="#000000" id="mark2" stroke="none" style="fill-opacity: 1; pointer-events: visible;" transform="matrix(1,0,0,1,160.6483,105.7741)"><polygon points="-5,-5,0,0,-5,5"/></g><g class="DimensionMark" fill="#000000" id="mark3" stroke="none" style="fill-opacity: 1; pointer-events: visible;" transform="matrix(1,0,0,1,80.3242,211.5482)"><polygon points="-5,-5,0,0,5,-5"/></g><g class="DimensionMark" fill="#000000" id="mark4" stroke="none" style="fill-opacity: 1; pointer-events: visible;" transform="matrix(1,0,0,1,0,105.7741)"><polygon points="5,5,0,0,5,-5"/></g></g><g class="SpaceDimensionsLabel" transform="matrix(1,0,0,1,80.3241,90.124)"><g class="TextLabel NameLabel" id="NameLabel" style="display: block;"/><g class="TextLabel DimensionMeasureLabel" id="DimensionMeasureLabel" style="display: none;" transform="matrix(1,0,0,1,-117.6563,79.7656)"/></g></g></g><g class="Space Closet WalkIn" fill="#ffffff" id="5c582b48-b2dd-4f21-8ac0-63713790dab4" stroke="#ffffff" style="fill-opacity: 1; stroke-opacity: 1; stroke-width: 1;"><polygon points="762.93,1179.30 602.28,1179.30 602.28,1092.94 681.07,1092.94 681.07,1034.22 762.93,1034.22 "/><g class="Dimension" transform="matrix(1,0,0,1,602.2779,1034.2199)"><g class="Visual" style="display: none;" transform="matrix(1,0,0,1,0,0)"><g class="DimensionMark" fill="#000000" id="mark1" stroke="none" style="fill-opacity: 1; pointer-events: visible;" transform="matrix(1,0,0,1,80.3242,0)"><polygon points="-5,5,0,0,5,5"/></g><g class="DimensionMark" fill="#000000" id="mark2" stroke="none" style="fill-opacity: 1; pointer-events: visible;" transform="matrix(1,0,0,1,160.6483,72.5381)"><polygon points="-5,-5,0,0,-5,5"/></g><g class="DimensionMark" fill="#000000" id="mark3" stroke="none" style="fill-opacity: 1; pointer-events: visible;" transform="matrix(1,0,0,1,80.3242,145.0762)"><polygon points="-5,-5,0,0,5,-5"/></g><g class="DimensionMark" fill="#000000" id="mark4" stroke="none" style="fill-opacity: 1; pointer-events: visible;" transform="matrix(1,0,0,1,0,72.5381)"><polygon points="5,5,0,0,5,-5"/></g></g><g class="SpaceDimensionsLabel" transform="matrix(1,0,0,1,33.5506,114.7377)"><g class="TextLabel NameLabel" id="NameLabel" style="display: block;"/><g class="TextLabel DimensionMeasureLabel" id="DimensionMeasureLabel" style="display: none;" transform="matrix(1,0,0,1,-116.2969,78.6875)"/></g></g></g><g class="Wall External" fill="#000000" id="Wall" stroke="#000000" style="fill-opacity: 1; stroke-opacity: 1; stroke-width: 1;"><polygon points="784.93,1201.30 176.62,1201.30 198.62,1179.30 762.93,1179.30 "/></g><g class="Wall External" fill="#000000" id="Wall" stroke="#000000" style="fill-opacity: 1; stroke-opacity: 1; stroke-width: 1;"><polygon points="176.62,1201.30 176.62,35.28 198.62,57.28 198.62,1179.30 "/><g class="Window Regular" fill="#f0f0ff" id="Window" stroke="#000000" style="fill-opacity: 1; stroke-width: 1; stroke-opacity: 1;"><polygon points="176.62,321.65 176.62,118.03 198.62,118.03 198.62,321.65 "/><g class="Glass" id="Glass"><polygon points="176.62,321.65 176.62,118.03 198.62,118.03 198.62,321.65 "/></g><g class="Panel" id="Panel"><line x1="187.6185085575612" x2="187.61850855756117" y1="314.14967702374224" y2="125.52977103617786"/><line x1="176.6185085575612" x2="198.6185085575612" y1="314.14967702374224" y2="314.14967702374224"/><line x1="176.61850855756117" x2="198.61850855756117" y1="125.52977103617786" y2="125.52977103617786"/></g></g><g class="Door Swing Beside" fill="#ffffff" id="Door" stroke="#000000" style="fill-opacity: 1; stroke-width: 1; stroke-opacity: 1;"><polygon points="176.62,541.62 176.62,464.59 198.62,464.59 198.62,541.62 "/><g class="Panel Right Positive" fill="none" id="Panel" style=""><g class="PanelArea" fill="none" id="PanelArea" stroke="none" style=""><polygon points="176.62,541.62 176.62,464.59 198.62,464.59 198.62,541.62 "/></g><path d="M198.62,541.62 q77.03,0.00 77.03,-77.03 l-77.03,0.00Z"/></g></g><g class="Window Regular" fill="#f0f0ff" id="Window" stroke="#000000" style="fill-opacity: 1; stroke-width: 1; stroke-opacity: 1;"><polygon points="176.62,762.99 176.62,541.62 198.62,541.62 198.62,762.99 "/><g class="Glass" id="Glass"><polygon points="176.62,762.99 176.62,541.62 198.62,541.62 198.62,762.99 "/></g><g class="Panel" id="Panel"><line x1="187.61850855756126" x2="187.61850855756123" y1="755.4920680488798" y2="549.117456141039"/><line x1="176.61850855756126" x2="198.61850855756126" y1="755.4920680488798" y2="755.4920680488798"/><line x1="176.61850855756123" x2="198.61850855756123" y1="549.117456141039" y2="549.117456141039"/></g></g><g class="Window Regular" fill="#f0f0ff" id="Window" stroke="#000000" style="fill-opacity: 1; stroke-width: 1; stroke-opacity: 1;"><polygon points="176.62,1101.79 176.62,910.63 198.62,910.63 198.62,1101.79 "/><g class="Glass" id="Glass"><polygon points="176.62,1101.79 176.62,910.63 198.62,910.63 198.62,1101.79 "/></g><g class="Panel" id="Panel"><line x1="187.6185085575613" x2="187.61850855756128" y1="1094.2863288794474" y2="918.1347947053213"/><line x1="176.6185085575613" x2="198.6185085575613" y1="1094.2863288794474" y2="1094.2863288794474"/><line x1="176.61850855756128" x2="198.61850855756128" y1="918.1347947053213" y2="918.1347947053213"/></g></g></g><g class="Wall External" fill="#000000" id="Wall" stroke="#000000" style="fill-opacity: 1; stroke-opacity: 1; stroke-width: 1;"><polygon points="176.62,35.28 913.09,35.28 891.09,57.28 198.62,57.28 "/><g class="Window Regular" fill="#f0f0ff" id="Window" stroke="#000000" style="fill-opacity: 1; stroke-width: 1; stroke-opacity: 1;"><polygon points="725.98,35.28 847.47,35.28 847.47,57.28 725.98,57.28 "/><g class="Glass" id="Glass"><polygon points="725.98,35.28 847.47,35.28 847.47,57.28 725.98,57.28 "/></g><g class="Panel" id="Panel"><line x1="733.4827261090857" x2="839.9679288043185" y1="46.277468865959364" y2="46.27746886595934"/><line x1="733.4827261090857" x2="733.4827261090857" y1="35.277468865959364" y2="57.277468865959364"/><line x1="839.9679288043185" x2="839.9679288043185" y1="35.27746886595934" y2="57.27746886595934"/></g></g></g><g class="Wall External" fill="#000000" id="Wall" stroke="#000000" style="fill-opacity: 1; stroke-opacity: 1; stroke-width: 1;"><polygon points="913.09,35.28 913.09,826.00 891.09,802.67 891.09,57.28 "/></g><g class="Wall External" fill="#000000" id="Wall" stroke="#000000" style="fill-opacity: 1; stroke-opacity: 1; stroke-width: 1;"><polygon points="913.09,826.00 784.93,826.00 762.93,802.67 891.09,802.67 "/><g class="Door Swing Beside" fill="#ffffff" id="Door" stroke="#000000" style="fill-opacity: 1; stroke-width: 1; stroke-opacity: 1;"><polygon points="868.52,826.00 793.02,826.00 793.02,802.67 868.52,802.67 "/><g class="Panel Left Negative" fill="none" id="Panel" style=""><g class="PanelArea" fill="none" id="PanelArea" stroke="none" style=""><polygon points="868.52,826.00 793.02,826.00 793.02,802.67 868.52,802.67 "/></g><path d="M868.52,826.00 q0.00,75.50 -75.50,75.50 l0.00,-75.50Z"/></g></g></g><g class="Wall External" fill="#000000" id="Wall" stroke="#000000" style="fill-opacity: 1; stroke-opacity: 1; stroke-width: 1;"><polygon points="784.93,826.00 784.93,1201.30 762.93,1179.30 762.93,802.67 "/></g><g class="Wall" fill="#000000" id="Wall" stroke="#000000" style="fill-opacity: 1; stroke-opacity: 1; stroke-width: 1;"><polygon points="913.09,407.39 23.67,407.39 23.67,397.39 913.09,397.39 "/><g class="Door None Beside" fill="#ffffff" id="Door" stroke="#000000" style="fill-opacity: 1; stroke-width: 1; stroke-opacity: 1;"><polygon points="485.93,407.39 270.92,407.39 270.92,397.39 485.93,397.39 "/></g><g class="Door Swing Beside" fill="#ffffff" id="Door" stroke="#000000" style="fill-opacity: 1; stroke-width: 1; stroke-opacity: 1;"><polygon points="808.66,407.39 738.43,407.39 738.43,397.39 808.66,397.39 "/><g class="Panel Right Negative" fill="none" id="Panel" style=""><g class="PanelArea" fill="none" id="PanelArea" stroke="none" style=""><polygon points="808.66,407.39 738.43,407.39 738.43,397.39 808.66,397.39 "/></g><path d="M738.43,407.39 q0.00,70.23 70.23,70.23 l0.00,-70.23Z"/></g></g></g><g class="Wall" fill="#000000" id="Wall" stroke="#000000" style="fill-opacity: 1; stroke-opacity: 1; stroke-width: 1;"><polygon points="588.03,397.39 588.03,35.28 578.03,35.28 578.03,397.39 "/><g class="Door Swing Beside" fill="#ffffff" id="Door" stroke="#000000" style="fill-opacity: 1; stroke-width: 1; stroke-opacity: 1;"><polygon points="588.03,209.16 588.03,143.00 578.03,143.00 578.03,209.16 "/><g class="Panel Right Positive" fill="none" id="Panel" style=""><g class="PanelArea" fill="none" id="PanelArea" stroke="none" style=""><polygon points="588.03,209.16 588.03,143.00 578.03,143.00 578.03,209.16 "/></g><path d="M578.03,209.16 q-66.16,0.00 -66.16,-66.16 l66.16,0.00Z"/></g></g></g><g class="Wall" fill="#000000" id="Wall" stroke="#000000" style="fill-opacity: 1; stroke-opacity: 1; stroke-width: 1;"><polygon points="762.93,802.67 23.67,802.67 23.67,812.67 762.93,812.67 "/><g class="Door Swing Beside" fill="#ffffff" id="Door" stroke="#000000" style="fill-opacity: 1; stroke-width: 1; stroke-opacity: 1;"><polygon points="750.35,802.67 696.52,802.67 696.52,812.67 750.35,812.67 "/><g class="Panel Left Negative" fill="none" id="Panel" style=""><g class="PanelArea" fill="none" id="PanelArea" stroke="none" style=""><polygon points="750.35,802.67 696.52,802.67 696.52,812.67 750.35,812.67 "/></g><path d="M750.35,802.67 q0.00,-53.83 -53.83,-53.83 l0.00,53.83Z"/></g></g><g class="Door Swing Beside" fill="#ffffff" id="Door" stroke="#000000" style="fill-opacity: 1; stroke-width: 1; stroke-opacity: 1;"><polygon points="357.92,802.67 289.59,802.67 289.59,812.67 357.92,812.67 "/><g class="Panel Right Positive" fill="none" id="Panel" style=""><g class="PanelArea" fill="none" id="PanelArea" stroke="none" style=""><polygon points="357.92,802.67 289.59,802.67 289.59,812.67 357.92,812.67 "/></g><path d="M357.92,812.67 q0.00,68.32 -68.32,68.32 l0.00,-68.32Z"/></g></g></g><g class="Wall" fill="#000000" id="Wall" stroke="#000000" style="fill-opacity: 1; stroke-opacity: 1; stroke-width: 1;"><polygon points="678.58,802.67 678.58,407.39 688.58,407.39 688.58,802.67 "/><g class="Door None Beside" fill="#ffffff" id="Door" stroke="#000000" style="fill-opacity: 1; stroke-width: 1; stroke-opacity: 1;"><polygon points="678.58,518.20 678.58,408.09 688.58,408.09 688.58,518.20 "/></g></g><g class="Wall" fill="#000000" id="Wall" stroke="#000000" style="fill-opacity: 1; stroke-opacity: 1; stroke-width: 1;"><polygon points="602.28,812.67 602.28,1201.30 592.28,1201.30 592.28,812.67 "/><g class="Door Swing Beside" fill="#ffffff" id="Door" stroke="#000000" style="fill-opacity: 1; stroke-width: 1; stroke-opacity: 1;"><polygon points="602.28,1110.02 602.28,1171.81 592.28,1171.81 592.28,1110.02 "/><g class="Panel Right Positive" fill="none" id="Panel" style=""><g class="PanelArea" fill="none" id="PanelArea" stroke="none" style=""><polygon points="602.28,1110.02 602.28,1171.81 592.28,1171.81 592.28,1110.02 "/></g><path d="M592.28,1110.02 q-61.79,0.00 -61.79,61.79 l61.79,0.00Z"/></g></g></g><g class="Wall" fill="#000000" id="Wall" stroke="#000000" style="fill-opacity: 1; stroke-opacity: 1; stroke-width: 1;"><polygon points="602.28,1024.22 784.93,1024.22 784.93,1034.22 602.28,1034.22 "/></g><g class="Wall" fill="#000000" id="Wall" stroke="#000000" style="fill-opacity: 1; stroke-opacity: 1; stroke-width: 1;"><polygon points="602.28,1034.22 681.07,1034.22 681.07,1092.94 602.28,1092.94 "/></g><g class="Wall" fill="#000000" id="Wall" stroke="#000000" style="fill-opacity: 1; stroke-opacity: 1; stroke-width: 1;"><polygon points="891.09,397.39 891.09,338.32 827.75,338.32 827.75,397.39 "/></g><g class="Railing" fill="#ffffff" id="Railing" stroke="#000000" style="fill-opacity: 1; stroke-opacity: 1; stroke-width: 1;"><polygon points="23.67,802.67 23.67,407.39 33.67,407.39 33.67,802.67 " style="stroke-dasharray: 0;"/></g><g class="FixedFurniture Closet" fill="#ffffff" stroke="#000000" style="fill-opacity: 1; stroke-opacity: 1;" transform="matrix(0,1,-1,0,891.0906,407.3914)">
<g class="BoundaryPolygon">
<polygon points="0.00,0.00 50.93,0.00 50.93,62.91 0.00,62.91 "/>
</g>
<g class="Direction" fill-opacity="0.9" style="display: none;">
<polygon fill="#444444" points="26.75,57.35 26.75,46.74 23.74,46.74 23.74,57.35 19.94,57.35 25.24,62.66 30.54,57.35 26.75,57.35 "/>
</g>
<g class="Name" fill-opacity="0.9" style="display: none;">

</g>
<desc>Width:60 Height:200 Depth:60 Elevation:0</desc>
</g><g class="FixedFurniture CoatCloset" fill="#ffffff" stroke="#000000" style="fill-opacity: 1; stroke-opacity: 1;" transform="matrix(0,1,-1,0,890.9343,458.3238)">
<g class="BoundaryPolygon">
<polygon points="0.00,0.00 105.40,0.00 105.40,62.71 0.00,62.71 "/>
</g>

<g class="Direction" fill-opacity="0.9" style="display: none;">
<polygon fill="#444444" points="54.02,56.97 54.02,46.36 51.01,46.36 51.01,56.97 47.21,56.97 52.51,62.28 57.82,56.97 54.02,56.97 "/>
</g>
<g class="Name" fill-opacity="0.9" style="display: none;">

</g>
<desc>Width:120 Height:200 Depth:60 Elevation:0</desc>
</g><g class="FixedFurniture Closet" fill="#ffffff" stroke="#000000" style="fill-opacity: 1; stroke-opacity: 1;" transform="matrix(0,1,-1,0,891.0905,563.7204)">
<g class="BoundaryPolygon">
<polygon points="0.00,0.00 53.52,0.00 53.52,62.91 0.00,62.91 "/>
</g>
<g class="Direction" fill-opacity="0.9" style="display: none;">
<polygon fill="#444444" points="28.11,57.35 28.11,46.74 25.10,46.74 25.10,57.35 21.30,57.35 26.60,62.66 31.90,57.35 28.11,57.35 "/>
</g>
<g class="Name" fill-opacity="0.9" style="display: none;">

</g>
<desc>Width:60 Height:200 Depth:60 Elevation:0</desc>
</g><g class="FixedFurniture ElectricalAppliance Refrigerator" fill="#ffffff" stroke="#000000" style="fill-opacity: 1; stroke-opacity: 1;" transform="matrix(1,0,0,1,588.0279,57.2775)">
<g class="BoundaryPolygon">
<polygon points="0,0 60,0 60,60 0,60"/>
</g>
<g class="electricitySign" fill="none">
<path d="M0,0,30,37.1v-18L60,56.3"/>
</g>
<g class="Doors">
<rect height="4" width="60" y="56"/>
</g>
<g class="Direction" fill-opacity="0.9" style="display: none;">
<polygon fill="#444444" points="32.009 55.197 32.009 44.581 29 44.581 29 55.197 25.197 55.197 30.5 60 35.803 55.197 32.009 55.197"/>
</g>
<g class="Name" fill-opacity="0.9" style="display: none;">

</g>
<desc>Width:60 Height:170 Depth:60 Elevation:0</desc>
</g><g class="FixedFurniture Closet" fill="#ffffff" stroke="#000000" style="fill-opacity: 1; stroke-opacity: 1;" transform="matrix(1,0,0,1,648.0279,57.3869)">
<g class="BoundaryPolygon">
<polygon points="0.00,0.00 43.84,0.00 43.84,60.00 0.00,60.00 "/>
</g>
<g class="Direction" fill-opacity="0.9" style="display: none;">
<polygon fill="#444444" points="23.02,54.70 23.02,44.08 20.01,44.08 20.01,54.70 16.21,54.70 21.51,60.00 26.81,54.70 23.02,54.70 "/>
</g>
<g class="Name" fill-opacity="0.9" style="display: none;">

</g>
<desc>Width:60 Height:200 Depth:60 Elevation:0</desc>
</g><g class="FixedFurniture BaseCabinet" fill="#ffffff" stroke="#000000" style="fill-opacity: 1; stroke-opacity: 1;" transform="matrix(1,0,0,1,891.0905,338.3223)"><desc>Width:60 Height:90 Depth:60 Elevation:0</desc><g class="BoundaryPolygon"><polygon points="0.00,0.00 -0.00,-280.94 -199.22,-280.94 -199.22,-220.83 -62.91,-220.83 -62.91,0.00 0.00,0.00 "/></g></g><g class="FixedFurniture DoubleSinkRight" fill="#ffffff" stroke="#000000" style="fill-opacity: 1; stroke-opacity: 1;" transform="matrix(0,1,-1,0,892.3012,128.2941)">
<g class="BoundaryPolygon" fill="none" stroke="none">
<polygon points="0.00,0.00 73.42,0.00 73.42,60.00 0.00,60.00 0.00,0.00 "/>
</g>
<g class="InnerPolygonLeft">
<polygon points="5.24,9.90 26.22,9.90 26.22,54.90 5.24,54.90 "/>
</g>
<g class="InnerPolygonRight">
<polygon points="29.37,10.00 68.17,10.00 68.17,55.00 29.37,55.00 "/>
</g>
<g class="OuterDrain" stroke-width="0.8">
<circle cx="15.732266395775993" cy="32.5" r="3.5"/>
<circle cx="48.245616947046386" cy="32.5" r="3.5"/>
</g>
<g class="InnerDrain" stroke-width="0.8">
<circle cx="15.732266395775993" cy="32.5" r="2"/>
<circle cx="48.245616947046386" cy="32.5" r="2"/>
</g>
<g class="Faucet">
<polygon points="33.56,4.90 39.56,4.90 39.56,18.90 33.56,18.90 "/>
</g>
<g class="Direction" fill-opacity="0.9" style="display: none;">
<polygon fill="#444444" points="38.29,54.70 38.29,44.08 35.28,44.08 35.28,54.70 31.48,54.70 36.78,60.00 42.09,54.70 38.29,54.70 "/>
</g>
<g class="Name" fill-opacity="0.9" style="display: none;">

</g>
<desc>Width:70 Height:90 Depth:60 Elevation:0</desc>
</g><g class="FixedFurniture ElectricalAppliance IntegratedStove" fill="#ffffff" stroke="#000000" style="fill-opacity: 1; stroke-opacity: 1;" transform="matrix(0,1,-1,0,891.0906,234.224)">
<g class="BoundaryPolygon" fill="none" stroke="none">
<polygon points="0.00,0.00 60.00,0.00 60.00,61.60 0.00,61.60 "/>
</g>
<g class="InnerPolygon">
<polygon points="2.00,2.00 58.00,2.00 58.00,59.55 2.00,59.55 "/>
</g>
<g class="OuterCircle">
<circle cx="16" cy="16.42790422993839" r="8"/>
<circle cx="44" cy="16.42790422993839" r="8"/>
<circle cx="16" cy="45.17673663233057" r="8"/>
<circle cx="44" cy="45.17673663233057" r="8"/>
</g>
<g class="Direction" fill-opacity="0.9" style="display: none;">
<polygon fill="#444444" points="32.01,56.67 32.01,46.06 29.00,46.06 29.00,56.67 25.20,56.67 30.50,61.48 35.80,56.67 32.01,56.67 "/>
</g>
<g class="Name" fill-opacity="0.9" style="display: none;">

</g>
<desc>Width:60 Height:90 Depth:30 Elevation:0</desc>
</g><g class="FixedFurniture ElectricalAppliance SpaceForAppliance2" fill="#ffffff" stroke="#000000" style="fill-opacity: 1; stroke-opacity: 1;" transform="matrix(1,0,0,1,735.0891,57.4923)">
<g class="BoundaryPolygon">
<polygon points="0,0 60,0 60,60 0,60"/>
</g>
<g class="electricitySign" fill="none">
<path d="M0,0,30.1,39.8V19.4L59.9,60"/>
</g>
<g class="Direction" fill-opacity="0.9" style="display: none;">
<polygon fill="#444444" points="32.009 55.197 32.009 44.581 29 44.581 29 55.197 25.197 55.197 30.5 60 35.803 55.197 32.009 55.197"/>
</g>
<g class="Name" fill-opacity="0.9" style="display: none;">

</g>
<desc>Width:60 Height:90 Depth:60 Elevation:0</desc>
</g><g class="FixedFurniture Closet" fill="#ffffff" stroke="#000000" style="fill-opacity: 1; stroke-opacity: 1;" transform="matrix(0,1,-1,0,592.2154,952.9055)">
<g class="BoundaryPolygon">
<polygon points="0.00,0.00 58.58,0.00 58.58,60.00 0.00,60.00 "/>
</g>
<g class="Direction" fill-opacity="0.9" style="display: none;">
<polygon fill="#444444" points="30.76,54.70 30.76,44.08 27.75,44.08 27.75,54.70 23.95,54.70 29.25,60.00 34.56,54.70 30.76,54.70 "/>
</g>
<g class="Name" fill-opacity="0.9" style="display: none;">

</g>
<desc>Width:60 Height:200 Depth:60 Elevation:0</desc>
</g><g class="FixedFurniture CoatCloset" fill="#ffffff" stroke="#000000" style="fill-opacity: 1; stroke-opacity: 1;" transform="matrix(0,1,-1,0,592.2153,812.6717)">
<g class="BoundaryPolygon">
<polygon points="0.00,0.00 140.23,0.00 140.23,60.00 0.00,60.00 "/>
</g>

<g class="Direction" fill-opacity="0.9" style="display: none;">
<polygon fill="#444444" points="71.88,54.52 71.88,43.90 68.87,43.90 68.87,54.52 65.07,54.52 70.37,59.82 75.67,54.52 71.88,54.52 "/>
</g>
<g class="Name" fill-opacity="0.9" style="display: none;">

</g>
<desc>Width:120 Height:200 Depth:60 Elevation:0</desc>
</g><g class="FixedFurniture Closet" fill="#ffffff" stroke="#000000" style="fill-opacity: 1; stroke-opacity: 1;" transform="matrix(1,0,0,1,681.0651,1034.2199)">
<g class="BoundaryPolygon">
<polygon points="0.00,0.00 82.04,0.00 82.04,58.51 0.00,58.51 "/>
</g>
<g class="Direction" fill-opacity="0.9" style="display: none;">
<polygon fill="#444444" points="43.08,53.34 43.08,42.72 40.08,42.72 40.08,53.34 36.27,53.34 41.58,58.64 46.88,53.34 43.08,53.34 "/>
</g>
<g class="Name" fill-opacity="0.9" style="display: none;">

</g>
<desc>Width:60 Height:200 Depth:60 Elevation:0</desc>
</g><g class="FixedFurniture CoatCloset" fill="#ffffff" stroke="#000000" style="fill-opacity: 1; stroke-opacity: 1;" transform="matrix(0,1,-1,0,762.7699,1092.7262)">
<g class="BoundaryPolygon">
<polygon points="0.00,0.00 86.57,0.00 86.57,40.98 0.00,40.98 "/>
</g>

<g class="Direction" fill-opacity="0.9" style="display: none;">
<polygon fill="#444444" points="44.37,37.23 44.37,26.61 41.36,26.61 41.36,37.23 37.56,37.23 42.86,42.53 48.17,37.23 44.37,37.23 "/>
</g>
<g class="Name" fill-opacity="0.9" style="display: none;">

</g>
<desc>Width:120 Height:200 Depth:60 Elevation:0</desc>
</g><g class="FixedFurniture Toilet" fill="#ffffff" stroke="#000000" style="fill-opacity: 1; stroke-opacity: 1;" transform="matrix(0,-1,1,0,602.2779,870.7763)">
<g class="BoundaryPolygon" fill="none" stroke="none">
<polygon points="0,0 41,0 41,71 0,71"/>
</g>
<g class="InnerPolygon">
<rect height="17.98" width="39.989" x="0.502" y="0.5"/>
<path d="M40.491,44.237S41.619,70.5,20.907,70.5C-.523,70.5.6,44.237.6,44.237L.5,18.48H40.491Z"/>
<rect height="3.03" width="6.357" x="17.318" y="7.975"/>
</g>
<desc>Width:41 Height:85 Depth:71 Elevation:0</desc>
</g><g class="FixedFurnitureSet" fill="#ffffff" id="FixedFurnitureSet" stroke="#000000" style="fill-opacity: 0.4; stroke-opacity: 0.4;" transform="matrix(0,-1,1,0,602.3404,945.5537)"><g class="FixedFurniture BaseCabinet" fill="#ffffff" stroke="#000000" style="fill-opacity: 1; stroke-opacity: 1;" transform="matrix(1,0,0,1,0,0)">
<g class="BoundaryPolygon">
<polygon points="0.00,0.00 55.74,0.00 55.74,40.14 0.00,40.14 "/>
</g>
<g class="Direction" fill-opacity="0.9" style="display: none;">
<polygon fill="#444444" points="29.74,36.92 29.74,26.31 26.73,26.31 26.73,36.92 22.92,36.92 28.23,41.73 33.53,36.92 29.74,36.92 "/>
</g>
<g class="Name" fill-opacity="0.9" style="display: none;">

</g>
<desc>Width:60 Height:5 Depth:60 Elevation:105</desc>
</g><g class="FixedFurniture Sink" fill="#ffffff" stroke="#000000" style="fill-opacity: 1; stroke-opacity: 1;" transform="matrix(1,0,0,1,0,0)">
<g class="BoundaryPolygon" fill="none" stroke="none">
<polygon points="0.00,0.00 55.74,0.00 55.74,40.14 0.00,40.14 "/>
</g>
<g class="InnerPolygon">
<polygon points="4.64,9.70 51.09,9.70 51.09,36.59 4.64,36.59 "/>
</g>
<g class="OuterDrain" stroke-width="0.8">
<circle cx="27.869414279090332" cy="21.53923781631826" r="3.5"/>
</g>
<g class="InnerDrain" stroke-width="0.8">
<circle cx="27.869414279090332" cy="21.53923781631826" r="2"/>
</g>
<g class="Faucet">
<polygon points="25.08,3.34 31.08,3.34 31.08,17.34 25.08,17.34 "/>
</g>
<g class="Direction" fill-opacity="0.9" style="display: none;">
<polygon fill="#444444" points="29.74,36.92 29.74,26.31 26.73,26.31 26.73,36.92 22.92,36.92 28.23,41.73 33.53,36.92 29.74,36.92 "/>
</g>
<g class="Name" fill-opacity="0.9" style="display: none;">

</g>
<desc>Width:60 Height:90 Depth:60 Elevation:0</desc>
</g></g><g class="FixedFurniture Shower" fill="#ffffff" stroke="#000000" style="fill-opacity: 1; stroke-opacity: 1;" transform="matrix(0,-1,1,0,602.2779,1007.114)">
<g class="BoundaryPolygon" fill="none" stroke="none">
<polygon points="0,0 32,0 32,19 0,19"/>
</g>
<g class="InnerPolygon">
<rect height="6.1" width="11.2" x="3.7" y="0.5"/>
<rect height="6.1" width="11.2" x="17.6" y="0.5"/>
<rect height="6.1" width="3.4" x="28.7" y="0.5"/>
<rect height="6.1" width="3.2" x="0.5" y="0.5"/>
<path d="M14.9,8.5c0,1.5-0.4,3.3-1.6,5    c-0.4,0.6-1,1.1-1.1,1.7c-0.2,1.1,0.3,2.8,2.5,3.2c0.5,0.1,1.3,0.1,1.6,0.1h-0.1c0.3,0,1.1,0,1.6-0.1c2.2-0.4,2.7-2.1,2.5-3.2    c-0.1-0.6-0.7-1.1-1.1-1.7c-1.2-1.7-1.6-3.5-1.6-5"/>
<path d="M12.2,15.3c0.1,0.2,1.6,1.9,4.2,1.9 c2.4-0.1,3.7-1.7,3.9-1.9"/>
<path d="M14.9,0.5h2.7v8c-0.9,0-1.8,0-2.7,0l0,0 C14.9,5.9,14.9,3.2,14.9,0.5z"/>
</g>
<g class="Indicator">
<path d="M3.7,3.6C5,3.1,5.2,3,5.2,3 c0,1.1,0,0,0,1.1C5.2,4.1,5.1,4.1,3.7,3.6"/>
<path d="M28.7,3.6 C27.4,3.1,27.2,3,27.2,3c0,1.1,0,0,0,1.1C27.2,4.1,27.3,4.1,28.7,3.6"/>
</g>
<desc>Width:32 Height:97 Depth:19 Elevation:135</desc>
</g><g class="FixedFurniture ElectricalAppliance SpaceForAppliance2" fill="#ffffff" stroke="#000000" style="fill-opacity: 1; stroke-opacity: 1;" transform="matrix(-1.0237,0,0,-1.0236,762.9261,1024.076)">
<g class="BoundaryPolygon">
<polygon points="0,0 60,0 60,60 0,60"/>
</g>
<g class="electricitySign" fill="none">
<path d="M0,0,30.1,39.8V19.4L59.9,60"/>
</g>
<g class="Direction" fill-opacity="0.9" style="display: none;">
<polygon fill="#444444" points="32.009 55.197 32.009 44.581 29 44.581 29 55.197 25.197 55.197 30.5 60 35.803 55.197 32.009 55.197"/>
</g>
<g class="Name" fill-opacity="0.9" style="display: none;">

</g>
<desc>Width:60 Height:90 Depth:60 Elevation:0</desc>
</g><g class="FixedFurniture Misc" fill="none" stroke="#000000" style="fill-opacity: 1; stroke-opacity: 1; stroke-width: 1.8; stroke-dasharray: 5, 5;" transform="matrix(1,0,0,1,694.6618,1024.1561)"><desc>Width:120 Height:200 Depth:60 Elevation:0</desc><g class="BoundaryPolygon"><path d="M0.00,0.00 L0.51,-56.64 L-1.14,-60.83 L-4.32,-64.76 L-8.25,-68.45 L-13.71,-70.73 L-19.18,-71.24 L-92.21,-71.24 "/></g></g><g class="SelectionControls" fill="#0000ff" stroke="#0000ff" style="display: block;"><g class="rotateControl" style="display: block;"><circle cx="392.4813710575612" cy="171.5839438659594" r="5" style="stroke : none; fill-opacity: 0.5; cursor:crosshair"/></g><g class="ResizeNControl" style="display: none;"><circle cx="0" cy="0" r="5" style="stroke : none; fill-opacity: 0.5"/></g><g class="ResizeNEControl" style="display: none;"><circle cx="0" cy="0" r="5" style="stroke : none; fill-opacity: 0.5"/></g><g class="ResizeEControl" style="display: none;"><circle cx="0" cy="0" r="5" style="stroke : none; fill-opacity: 0.5"/></g><g class="ResizeSEControl" style="display: none;"><circle cx="0" cy="0" r="5" style="stroke : none; fill-opacity: 0.5"/></g><g class="ResizeSControl" style="display: none;"><circle cx="0" cy="0" r="5" style="stroke : none; fill-opacity: 0.5"/></g><g class="ResizeSWControl" style="display: none;"><circle cx="0" cy="0" r="5" style="stroke : none; fill-opacity: 0.5"/></g><g class="ResizeWControl" style="display: none;"><circle cx="0" cy="0" r="5" style="stroke : none; fill-opacity: 0.5"/></g><g class="ResizeNWControl" style="display: none;"><circle cx="0" cy="0" r="5" style="stroke : none; fill-opacity: 0.5"/></g><g class="removeControl" style="display: block;"><polygon points="380.75,201.58 404.21,201.58 404.21,240.68 380.75,240.68 " style="stroke : none; fill-opacity: 0.1"/></g><g class="copyPasteControl" style="display: none;"><polygon style="stroke : none; fill-opacity: 0.1"/></g><g class="translateControl" style="display: block;"><polygon points="380.75,201.58 404.21,201.58 404.21,240.68 380.75,240.68 " style="stroke : none; fill-opacity: 0.1; cursor:move"/></g></g><g class="SelectionControls" fill="#0000ff" stroke="#0000ff" style="display: block;"><polygon fill="none" points="198.62,57.28 578.03,57.28 578.03,397.39 198.62,397.39 " stroke="#0000ff" style=""/><g class="rotateControl" style="display: block;"><circle cx="388.32320521283464" cy="27.2774688659594" r="5" style="stroke : none; fill-opacity: 0.5; cursor:crosshair"/></g><g class="ResizeNControl" style="display: none;"><circle cx="0" cy="0" r="5" style="stroke : none; fill-opacity: 0.5"/></g><g class="ResizeNEControl" style="display: none;"><circle cx="0" cy="0" r="5" style="stroke : none; fill-opacity: 0.5"/></g><g class="ResizeEControl" style="display: none;"><circle cx="0" cy="0" r="5" style="stroke : none; fill-opacity: 0.5"/></g><g class="ResizeSEControl" style="display: none;"><circle cx="0" cy="0" r="5" style="stroke : none; fill-opacity: 0.5"/></g><g class="ResizeSControl" style="display: none;"><circle cx="0" cy="0" r="5" style="stroke : none; fill-opacity: 0.5"/></g><g class="ResizeSWControl" style="display: none;"><circle cx="0" cy="0" r="5" style="stroke : none; fill-opacity: 0.5"/></g><g class="ResizeWControl" style="display: none;"><circle cx="0" cy="0" r="5" style="stroke : none; fill-opacity: 0.5"/></g><g class="ResizeNWControl" style="display: none;"><circle cx="0" cy="0" r="5" style="stroke : none; fill-opacity: 0.5"/></g><g class="removeControl" style="display: none;"><polygon style="stroke : none; fill-opacity: 0.1"/></g><g class="copyPasteControl" style="display: none;"><polygon style="stroke : none; fill-opacity: 0.1"/></g><g class="translateControl" style="display: none;"><polygon style="stroke : none; fill-opacity: 0.1; cursor:move"/></g></g></g></g></g></svg>