<?xml version="1.0" encoding="utf-8"?>
<svg height="1014.4800415039062" id="temp" version="1.1" viewBox="0 0 1095.6339836120605 1014.4800415039062" width="1095.6339836120605" xmlns="http://www.w3.org/2000/svg" xmlns:xlink="http://www.w3.org/1999/xlink"><defs/><g class="Model v1-1" id="Model"><g class="Floor"><g class="Floorplan Floor-1" id="Floor-1" transform="matrix(1,0,0,1,0,0)"><g class="Space Undefined" fill="#ffffff" id="0d82ee88-7815-44dd-a9bd-9ad2d80bad5c" stroke="#ffffff" style="fill-opacity: 1; stroke-opacity: 1; stroke-width: 1;"><polygon points="968.52,875.01 824.56,875.01 824.56,699.31 968.52,699.31 "/><g class="Dimension" transform="matrix(1,0,0,1,824.56,699.3108)"><g class="Visual" style="display: none;" transform="matrix(1,0,0,1,0,0)"><g class="DimensionMark" fill="#000000" id="mark1" stroke="none" style="fill-opacity: 1; pointer-events: visible;" transform="matrix(1,0,0,1,71.9802,0)"><polygon points="-5,5,0,0,5,5"/></g><g class="DimensionMark" fill="#000000" id="mark2" stroke="none" style="fill-opacity: 1; pointer-events: visible;" transform="matrix(1,0,0,1,143.9604,87.8473)"><polygon points="-5,-5,0,0,-5,5"/></g><g class="DimensionMark" fill="#000000" id="mark3" stroke="none" style="fill-opacity: 1; pointer-events: visible;" transform="matrix(1,0,0,1,71.9802,175.6946)"><polygon points="-5,-5,0,0,5,-5"/></g><g class="DimensionMark" fill="#000000" id="mark4" stroke="none" style="fill-opacity: 1; pointer-events: visible;" transform="matrix(1,0,0,1,0,87.8473)"><polygon points="5,5,0,0,5,-5"/></g></g><g class="SpaceDimensionsLabel" transform="matrix(1,0,0,1,71.9802,71.9802)"><g class="TextLabel NameLabel" id="NameLabel" style="display: block;"/><g class="TextLabel DimensionMeasureLabel" id="DimensionMeasureLabel" style="display: none;" transform="matrix(1,0,0,1,-40.5313,79.5938)"/></g></g></g><g class="Space Bath" fill="#ffffff" id="f18a470d-4925-4c18-8494-b3f396643020" stroke="#ffffff" style="fill-opacity: 1; stroke-opacity: 1; stroke-width: 1;"><polygon points="814.56,895.71 414.80,895.71 414.80,699.31 814.56,699.31 "/><g class="Dimension" transform="matrix(1,0,0,1,414.8,699.3108)"><g class="Visual" style="display: none;" transform="matrix(1,0,0,1,0,0)"><g class="DimensionMark" fill="#000000" id="mark1" stroke="none" style="fill-opacity: 1; pointer-events: visible;" transform="matrix(1,0,0,1,199.88,0)"><polygon points="-5,5,0,0,5,5"/></g><g class="DimensionMark" fill="#000000" id="mark2" stroke="none" style="fill-opacity: 1; pointer-events: visible;" transform="matrix(1,0,0,1,399.76,98.2012)"><polygon points="-5,-5,0,0,-5,5"/></g><g class="DimensionMark" fill="#000000" id="mark3" stroke="none" style="fill-opacity: 1; pointer-events: visible;" transform="matrix(1,0,0,1,199.88,196.4024)"><polygon points="-5,-5,0,0,5,-5"/></g><g class="DimensionMark" fill="#000000" id="mark4" stroke="none" style="fill-opacity: 1; pointer-events: visible;" transform="matrix(1,0,0,1,0,98.2012)"><polygon points="5,5,0,0,5,-5"/></g></g><g class="SpaceDimensionsLabel" transform="matrix(1,0,0,1,163.1695,104.6493)"><g class="TextLabel NameLabel" id="NameLabel" style="display: block;"/><g class="TextLabel DimensionMeasureLabel" id="DimensionMeasureLabel" style="display: none;" transform="matrix(1,0,0,1,-106.2031,79.6407)"/></g></g></g><g class="Space Room" fill="#ffffff" id="765cb103-44e4-4669-ada7-ff5cda1b2b7a" stroke="#ffffff" style="fill-opacity: 1; stroke-opacity: 1; stroke-width: 1;"><polygon points="968.52,689.31 613.77,689.31 613.77,443.61 681.07,443.61 681.07,262.31 968.52,262.31 "/><g class="Dimension" transform="matrix(1,0,0,1,613.772,262.3131)"><g class="Visual" style="display: none;" transform="matrix(1,0,0,1,0,0)"><g class="DimensionMark" fill="#000000" id="mark1" stroke="none" style="fill-opacity: 1; pointer-events: visible;" transform="matrix(1,0,0,1,177.3742,0)"><polygon points="-5,5,0,0,5,5"/></g><g class="DimensionMark" fill="#000000" id="mark2" stroke="none" style="fill-opacity: 1; pointer-events: visible;" transform="matrix(1,0,0,1,354.7484,213.4988)"><polygon points="-5,-5,0,0,-5,5"/></g><g class="DimensionMark" fill="#000000" id="mark3" stroke="none" style="fill-opacity: 1; pointer-events: visible;" transform="matrix(1,0,0,1,177.3742,426.9977)"><polygon points="-5,-5,0,0,5,-5"/></g><g class="DimensionMark" fill="#000000" id="mark4" stroke="none" style="fill-opacity: 1; pointer-events: visible;" transform="matrix(1,0,0,1,0,213.4988)"><polygon points="5,5,0,0,5,-5"/></g></g><g class="SpaceDimensionsLabel" transform="matrix(1,0,0,1,199.5631,240.1851)"><g class="TextLabel NameLabel" id="NameLabel" style="display: block;"/><g class="TextLabel DimensionMeasureLabel" id="DimensionMeasureLabel" style="display: none;" transform="matrix(1,0,0,1,-127.6094,79.5938)"/></g></g></g><g class="Space Outdoor" fill="#ffffff" id="6e7aacdb-7d0e-4c16-a464-58a84b640c51" stroke="#000000" style="stroke-width: 1; fill-opacity: 1; stroke-opacity: 1;"><polygon points="715.07,29.50 1001.52,29.50 1001.52,219.31 715.07,219.31 715.07,29.50 715.07,29.50 "/><g class="Dimension" transform="matrix(1,0,0,1,715.0668,29.5027)"><g class="Visual" style="display: none;" transform="matrix(1,0,0,1,0,0)"><g class="DimensionMark" fill="#000000" id="mark1" stroke="none" style="fill-opacity: 1; pointer-events: visible;" transform="matrix(1,0,0,1,143.2268,0)"><polygon points="-5,5,0,0,5,5"/></g><g class="DimensionMark" fill="#000000" id="mark2" stroke="none" style="fill-opacity: 1; pointer-events: visible;" transform="matrix(1,0,0,1,286.4537,94.9052)"><polygon points="-5,-5,0,0,-5,5"/></g><g class="DimensionMark" fill="#000000" id="mark3" stroke="none" style="fill-opacity: 1; pointer-events: visible;" transform="matrix(1,0,0,1,143.2268,189.8104)"><polygon points="-5,-5,0,0,5,-5"/></g><g class="DimensionMark" fill="#000000" id="mark4" stroke="none" style="fill-opacity: 1; pointer-events: visible;" transform="matrix(1,0,0,1,0,94.9052)"><polygon points="5,5,0,0,5,-5"/></g></g><g class="SpaceDimensionsLabel" transform="matrix(1,0,0,1,80.3543,122.15)"><g class="TextLabel NameLabel" id="NameLabel" style="display: block;"/><g class="TextLabel DimensionMeasureLabel" id="DimensionMeasureLabel" style="display: none;" transform="matrix(1,0,0,1,-56.5313,79.5938)"/></g></g></g><g class="Space Kitchen" fill="#ffffff" id="442311da-175a-4aaf-b722-837ca0de9001" stroke="#ffffff" style="fill-opacity: 1; stroke-opacity: 1; stroke-width: 1;"><polygon points="669.07,395.98 533.31,395.98 533.31,403.98 593.82,403.98 593.82,689.31 343.53,689.31 343.53,395.51 669.07,395.51 "/><g class="Dimension" transform="matrix(1,0,0,1,343.5289,395.5108)"><g class="Visual" style="display: none;" transform="matrix(1,0,0,1,0,0)"><g class="DimensionMark" fill="#000000" id="mark1" stroke="none" style="fill-opacity: 1; pointer-events: visible;" transform="matrix(1,0,0,1,162.7705,0)"><polygon points="-5,5,0,0,5,5"/></g><g class="DimensionMark" fill="#000000" id="mark2" stroke="none" style="fill-opacity: 1; pointer-events: visible;" transform="matrix(1,0,0,1,250.2925,146.9)"><polygon points="-5,-5,0,0,-5,5"/></g><g class="DimensionMark" fill="#000000" id="mark3" stroke="none" style="fill-opacity: 1; pointer-events: visible;" transform="matrix(1,0,0,1,162.7705,293.8)"><polygon points="-5,-5,0,0,5,-5"/></g><g class="DimensionMark" fill="#000000" id="mark4" stroke="none" style="fill-opacity: 1; pointer-events: visible;" transform="matrix(1,0,0,1,0,146.9)"><polygon points="5,5,0,0,5,-5"/></g></g><g class="SpaceDimensionsLabel" transform="matrix(1,0,0,1,114.6158,167.6083)"><g class="TextLabel NameLabel" id="NameLabel" style="display: block;"/><g class="TextLabel DimensionMeasureLabel" id="DimensionMeasureLabel" style="display: none;" transform="matrix(1,0,0,1,-128.5078,79.5938)"/></g></g></g><g class="Space Room" fill="#ffffff" id="78dbc646-d935-468c-af86-c7246963dcc1" stroke="#ffffff" style="fill-opacity: 1; stroke-opacity: 1; stroke-width: 1;"><polygon points="669.07,63.50 669.00,262.00 669.07,262.31 669.07,395.51 92.80,395.51 92.80,63.50 "/><g class="Dimension" transform="matrix(1,0,0,1,92.7989,63.5027)"><g class="Visual" style="display: none;" transform="matrix(1,0,0,1,0,0)"><g class="DimensionMark" fill="#000000" id="mark1" stroke="none" style="fill-opacity: 1; pointer-events: visible;" transform="matrix(1,0,0,1,288.1355,0)"><polygon points="-5,5,0,0,5,5"/></g><g class="DimensionMark" fill="#000000" id="mark2" stroke="none" style="fill-opacity: 1; pointer-events: visible;" transform="matrix(1,0,0,1,576.212,166.004)"><polygon points="-5,-5,0,0,-5,5"/></g><g class="DimensionMark" fill="#000000" id="mark3" stroke="none" style="fill-opacity: 1; pointer-events: visible;" transform="matrix(1,0,0,1,288.1355,332.0081)"><polygon points="-5,-5,0,0,5,-5"/></g><g class="DimensionMark" fill="#000000" id="mark4" stroke="none" style="fill-opacity: 1; pointer-events: visible;" transform="matrix(1,0,0,1,0,166.004)"><polygon points="5,5,0,0,5,-5"/></g></g><g class="SpaceDimensionsLabel" transform="matrix(1,0,0,1,294.7409,161.0978)"><g class="TextLabel NameLabel" id="NameLabel" style="display: block;"/><g class="TextLabel DimensionMeasureLabel" id="DimensionMeasureLabel" style="display: none;" transform="matrix(1,0,0,1,-127.5859,79.6406)"/></g></g></g><g class="Space Entry Lobby" fill="#ffffff" id="40e44910-ca42-41e2-8064-11150dc48ddb" stroke="#ffffff" style="fill-opacity: 1; stroke-opacity: 1; stroke-width: 1;"><polygon points="343.53,689.31 239.87,689.31 239.87,699.31 343.53,699.31 343.53,699.47 404.80,699.47 404.80,895.71 92.80,895.71 92.80,395.51 343.53,395.51 "/><g class="Dimension" transform="matrix(1,0,0,1,92.7989,395.5108)"><g class="Visual" style="display: none;" transform="matrix(1,0,0,1,0,0)"><g class="DimensionMark" fill="#000000" id="mark1" stroke="none" style="fill-opacity: 1; pointer-events: visible;" transform="matrix(1,0,0,1,156.0005,0)"><polygon points="-5,5,0,0,5,5"/></g><g class="DimensionMark" fill="#000000" id="mark2" stroke="none" style="fill-opacity: 1; pointer-events: visible;" transform="matrix(1,0,0,1,312.0011,303.9562)"><polygon points="-5,-5,0,0,-5,5"/></g><g class="DimensionMark" fill="#000000" id="mark3" stroke="none" style="fill-opacity: 1; pointer-events: visible;" transform="matrix(1,0,0,1,156.0005,500.2024)"><polygon points="-5,-5,0,0,5,-5"/></g><g class="DimensionMark" fill="#000000" id="mark4" stroke="none" style="fill-opacity: 1; pointer-events: visible;" transform="matrix(1,0,0,1,0,303.9562)"><polygon points="5,5,0,0,5,-5"/></g></g><g class="SpaceDimensionsLabel" transform="matrix(1,0,0,1,134.8365,381.8969)"><g class="TextLabel NameLabel" id="NameLabel" style="display: block;"/><g class="TextLabel DimensionMeasureLabel" id="DimensionMeasureLabel" style="display: none;" transform="matrix(1,0,0,1,-119.2188,80.8749)"/></g></g></g><g class="Wall External" fill="#000000" id="Wall" stroke="#000000" style="fill-opacity: 1; stroke-opacity: 1; stroke-width: 1;"><polygon points="92.80,63.50 669.07,63.50 715.07,17.50 46.80,17.50 "/><g class="Window Regular" fill="#f0f0ff" id="Window" stroke="#000000" style="fill-opacity: 1; stroke-width: 1; stroke-opacity: 1;"><polygon points="388.10,63.50 668.02,63.50 668.02,17.50 388.10,17.50 "/><g class="Glass" id="Glass"><polygon points="388.10,63.50 668.02,63.50 668.02,17.50 388.10,17.50 "/></g><g class="Panel" id="Panel"><line x1="395.6000061035156" x2="660.52001953125" y1="40.5" y2="40.5"/><line x1="395.6000061035156" x2="395.6000061035156" y1="63.5" y2="17.5"/><line x1="660.52001953125" x2="660.52001953125" y1="63.5" y2="17.5"/></g></g></g><g class="Wall External" fill="#000000" id="Wall" stroke="#000000" style="fill-opacity: 1; stroke-opacity: 1; stroke-width: 1;"><polygon points="715.07,17.50 715.07,219.31 669.07,262.31 669.07,63.50 "/><g class="Door Swing Beside" fill="#ffffff" id="Door" stroke="#000000" style="fill-opacity: 1; stroke-width: 1; stroke-opacity: 1;"><polygon points="715.07,127.00 715.07,202.91 669.07,202.91 669.07,127.00 "/><g class="Panel Left Negative" fill="none" id="Panel" style=""><g class="PanelArea" fill="none" id="PanelArea" stroke="none" style=""><polygon points="715.07,127.00 715.07,202.91 669.07,202.91 669.07,127.00 "/></g><path d="M715.07,127.00 q75.91,0.00 75.91,75.91 l-75.91,0.00Z"/></g></g><g class="Window Regular" fill="#f0f0ff" id="Window" stroke="#000000" style="fill-opacity: 1; stroke-width: 1; stroke-opacity: 1;"><polygon points="715.07,65.03 715.07,125.76 669.07,125.76 669.07,65.03 "/><g class="Glass" id="Glass"><polygon points="715.07,65.03 715.07,125.76 669.07,125.76 669.07,65.03 "/></g><g class="Panel" id="Panel"><line x1="692.0700073242188" x2="692.0700073242188" y1="72.52999877929688" y2="118.26000213623047"/><line x1="715.0700073242188" x2="669.0700073242188" y1="72.52999877929688" y2="72.52999877929688"/><line x1="715.0700073242188" x2="669.0700073242188" y1="118.26000213623047" y2="118.26000213623047"/></g></g></g><g class="Wall External" fill="#000000" id="Wall" stroke="#000000" style="fill-opacity: 1; stroke-opacity: 1; stroke-width: 1;"><polygon points="669.07,262.31 968.52,262.31 1013.52,219.31 715.07,219.31 "/><g class="Window Regular" fill="#f0f0ff" id="Window" stroke="#000000" style="fill-opacity: 1; stroke-width: 1; stroke-opacity: 1;"><polygon points="742.51,262.31 952.60,262.31 952.60,219.31 742.51,219.31 "/><g class="Glass" id="Glass"><polygon points="742.51,262.31 952.60,262.31 952.60,219.31 742.51,219.31 "/></g><g class="Panel" id="Panel"><line x1="750.010009765625" x2="945.0999755859375" y1="240.80999755859375" y2="240.80999755859375"/><line x1="750.010009765625" x2="750.010009765625" y1="262.30999755859375" y2="219.30999755859375"/><line x1="945.0999755859375" x2="945.0999755859375" y1="262.30999755859375" y2="219.30999755859375"/></g></g></g><g class="Wall External" fill="#000000" id="Wall" stroke="#000000" style="fill-opacity: 1; stroke-opacity: 1; stroke-width: 1;"><polygon points="1013.52,219.31 1013.52,940.71 968.52,875.01 968.52,262.31 "/></g><g class="Wall External" fill="#000000" id="Wall" stroke="#000000" style="fill-opacity: 1; stroke-opacity: 1; stroke-width: 1;"><polygon points="92.80,895.71 92.80,63.50 46.80,17.50 46.80,940.71 "/></g><g class="Wall" fill="#000000" id="Wall" stroke="#000000" style="fill-opacity: 1; stroke-opacity: 1; stroke-width: 1;"><polygon points="1013.52,699.31 239.87,699.31 239.87,689.31 1013.52,689.31 "/><g class="Door Swing Beside" fill="#ffffff" id="Door" stroke="#000000" style="fill-opacity: 1; stroke-width: 1; stroke-opacity: 1;"><polygon points="765.59,699.31 699.47,699.31 699.47,689.31 765.59,689.31 "/><g class="Panel Right Positive" fill="none" id="Panel" style=""><g class="PanelArea" fill="none" id="PanelArea" stroke="none" style=""><polygon points="765.59,699.31 699.47,699.31 699.47,689.31 765.59,689.31 "/></g><path d="M765.59,689.31 q0.00,-66.12 -66.12,-66.12 l0.00,66.12Z"/></g></g></g><g class="Wall" fill="#000000" id="Wall" stroke="#000000" style="fill-opacity: 1; stroke-opacity: 1; stroke-width: 1;"><polygon points="414.80,940.71 414.80,689.31 404.80,689.31 404.80,940.71 "/><g class="Door Swing Beside" fill="#ffffff" id="Door" stroke="#000000" style="fill-opacity: 1; stroke-width: 1; stroke-opacity: 1;"><polygon points="414.80,785.34 414.80,718.50 404.80,718.50 404.80,785.34 "/><g class="Panel Right Positive" fill="none" id="Panel" style=""><g class="PanelArea" fill="none" id="PanelArea" stroke="none" style=""><polygon points="414.80,785.34 414.80,718.50 404.80,718.50 404.80,785.34 "/></g><path d="M404.80,785.34 q-66.84,0.00 -66.84,-66.84 l66.84,0.00Z"/></g></g></g><g class="Wall" fill="#000000" id="Wall" stroke="#000000" style="fill-opacity: 1; stroke-opacity: 1; stroke-width: 1;"><polygon points="814.56,940.71 814.56,689.31 824.56,689.31 824.56,895.71 "/><g class="Door Swing Beside" fill="#ffffff" id="Door" stroke="#000000" style="fill-opacity: 1; stroke-width: 1; stroke-opacity: 1;"><polygon points="814.56,779.81 814.56,712.55 824.56,712.55 824.56,779.81 "/><g class="Panel Left Negative" fill="none" id="Panel" style=""><g class="PanelArea" fill="none" id="PanelArea" stroke="none" style=""><polygon points="814.56,779.81 814.56,712.55 824.56,712.55 824.56,779.81 "/></g><path d="M814.56,779.81 q-67.26,0.00 -67.26,-67.26 l67.26,0.00Z"/></g></g></g><g class="Wall" fill="#000000" id="Wall" stroke="#000000" style="fill-opacity: 1; stroke-opacity: 1; stroke-width: 1;"><polygon points="669.07,262.31 669.07,395.98 681.07,443.61 681.07,262.31 "/><g class="Door Swing Beside" fill="#ffffff" id="Door" stroke="#000000" style="fill-opacity: 1; stroke-width: 1; stroke-opacity: 1;"><polygon points="669.07,306.05 669.07,381.28 681.07,381.28 681.07,306.05 "/><g class="Panel Left Negative" fill="none" id="Panel" style=""><g class="PanelArea" fill="none" id="PanelArea" stroke="none" style=""><polygon points="669.07,306.05 669.07,381.28 681.07,381.28 681.07,306.05 "/></g><path d="M669.07,306.05 q-75.23,0.00 -75.23,75.23 l75.23,0.00Z"/></g></g></g><g class="Wall" fill="#000000" id="Wall" stroke="#000000" style="fill-opacity: 1; stroke-opacity: 1; stroke-width: 1;"><polygon points="669.07,395.98 593.82,395.98 593.82,443.61 681.07,443.61 "/></g><g class="Wall" fill="#000000" id="Wall" stroke="#000000" style="fill-opacity: 1; stroke-opacity: 1; stroke-width: 1;"><polygon points="593.82,395.98 593.82,699.31 613.77,699.31 613.77,443.61 "/></g><g class="Wall" fill="#000000" id="Wall" stroke="#000000" style="fill-opacity: 1; stroke-opacity: 1; stroke-width: 1;"><polygon points="593.82,395.98 533.31,395.98 533.31,403.98 593.82,403.98 "/></g><g class="Wall External" fill="#000000" id="Wall" stroke="#000000" style="fill-opacity: 1; stroke-opacity: 1; stroke-width: 1;"><polygon points="1013.52,940.71 814.56,940.71 814.56,875.01 968.52,875.01 "/></g><g class="Wall External" fill="#000000" id="Wall" stroke="#000000" style="fill-opacity: 1; stroke-opacity: 1; stroke-width: 1;"><polygon points="814.56,940.71 46.80,940.71 92.80,895.71 814.56,895.71 "/><g class="Door Swing Opposite" fill="#ffffff" id="Door" stroke="#000000" style="fill-opacity: 1; stroke-width: 1; stroke-opacity: 1;"><polygon points="205.72,940.71 131.95,940.71 131.95,895.71 205.72,895.71 "/><g class="Panel Right Negative" fill="none" id="Panel" style=""><g class="PanelArea" fill="none" id="PanelArea" stroke="none" style=""><polygon points="205.72,940.71 131.95,940.71 131.95,895.71 205.72,895.71 "/></g><path d="M131.95,940.71 q0.00,73.77 73.77,73.77 l0.00,-73.77Z"/></g><g class="Panel Left Positive" fill="none" id="Panel" style=""><g class="PanelArea" fill="none" id="PanelArea" stroke="none" style=""><polygon points="205.72,940.71 131.95,940.71 131.95,895.71 205.72,895.71 "/></g><path d="M131.95,895.71 q0.00,-73.77 73.77,-73.77 l0.00,73.77Z"/></g></g></g><g class="Railing" fill="#ffffff" id="Railing" stroke="#000000" style="fill-opacity: 1; stroke-opacity: 1; stroke-width: 1;"><polygon points="1013.52,219.31 1013.52,17.50 1001.52,29.50 1001.52,219.31 " style="stroke-dasharray: 201.81, 16.9706, 201.81;"/></g><g class="Railing" fill="#ffffff" id="Railing" stroke="#000000" style="fill-opacity: 1; stroke-opacity: 1; stroke-width: 1;"><polygon points="1013.52,17.50 715.07,17.50 715.07,29.50 1001.52,29.50 " style="stroke-dasharray: 596.9, 16.9706;"/></g><g class="Column FreeShape" fill="#000000" id="Column" stroke="none" style="fill-opacity: 1;"><polygon points="414.80,940.71 414.80,817.75 414.80,940.71 "/></g><g class="Column FreeShape" fill="#000000" id="Column" stroke="none" style="fill-opacity: 1;"><polygon points="814.56,940.71 814.56,793.77 814.56,940.71 "/></g><g class="Column FreeShape" fill="#000000" id="Column" stroke="none" style="fill-opacity: 1;"><polygon points="669.07,262.31 669.07,364.55 669.07,262.31 "/></g><g class="Column Rectangle" fill="#000000" id="Column" stroke="none" style="fill-opacity: 1;"><polygon points="404.80,895.71 239.87,895.71 239.87,887.08 404.80,887.08 "/></g><g class="FixedFurnitureSet" id="FixedFurnitureSet" style="" transform="matrix(1,0,0,1,551.3135,699.467)"><g class="FixedFurniture Closet" fill="#ffffff" stroke="#000000" style="fill-opacity: 1; stroke-opacity: 1;" transform="matrix(1,0,0,1,0,0)">
<g class="BoundaryPolygon">
<polygon points="0.00,0.00 31.63,0.00 31.63,35.75 0.00,35.75 "/>
</g>
<g class="Direction" fill-opacity="0.9" style="display: none;">
<polygon fill="#444444" points="16.61,32.59 16.61,21.97 13.60,21.97 13.60,32.59 9.80,32.59 15.10,37.89 20.40,32.59 16.61,32.59 "/>
</g>
<g class="Name" fill-opacity="0.9" style="display: none;">

</g>
<desc>Width:60 Height:200 Depth:60 Elevation:0</desc>
</g><g class="FixedFurniture Closet" fill="#ffffff" stroke="#000000" style="fill-opacity: 1; stroke-opacity: 1;" transform="matrix(1,0,0,1,31.6293,0)">
<g class="BoundaryPolygon">
<polygon points="0.00,0.00 31.63,0.00 31.63,35.75 0.00,35.75 "/>
</g>
<g class="Direction" fill-opacity="0.9" style="display: none;">
<polygon fill="#444444" points="16.61,32.59 16.61,21.97 13.60,21.97 13.60,32.59 9.80,32.59 15.10,37.89 20.40,32.59 16.61,32.59 "/>
</g>
<g class="Name" fill-opacity="0.9" style="display: none;">

</g>
<desc>Width:60 Height:200 Depth:60 Elevation:0</desc>
</g><g class="FixedFurniture Closet" fill="#ffffff" stroke="#000000" style="fill-opacity: 1; stroke-opacity: 1;" transform="matrix(1,0,0,1,63.2587,0)">
<g class="BoundaryPolygon">
<polygon points="0.00,0.00 31.63,0.00 31.63,35.75 0.00,35.75 "/>
</g>
<g class="Direction" fill-opacity="0.9" style="display: none;">
<polygon fill="#444444" points="16.61,32.59 16.61,21.97 13.60,21.97 13.60,32.59 9.80,32.59 15.10,37.89 20.40,32.59 16.61,32.59 "/>
</g>
<g class="Name" fill-opacity="0.9" style="display: none;">

</g>
<desc>Width:60 Height:200 Depth:60 Elevation:0</desc>
</g><g class="FixedFurniture Closet" fill="#ffffff" stroke="#000000" style="fill-opacity: 1; stroke-opacity: 1;" transform="matrix(1,0,0,1,94.888,0)">
<g class="BoundaryPolygon">
<polygon points="0.00,0.00 31.63,0.00 31.63,35.75 0.00,35.75 "/>
</g>
<g class="Direction" fill-opacity="0.9" style="display: none;">
<polygon fill="#444444" points="16.61,32.59 16.61,21.97 13.60,21.97 13.60,32.59 9.80,32.59 15.10,37.89 20.40,32.59 16.61,32.59 "/>
</g>
<g class="Name" fill-opacity="0.9" style="display: none;">

</g>
<desc>Width:60 Height:200 Depth:60 Elevation:0</desc>
</g></g><g class="FixedFurniture Closet" fill="#ffffff" stroke="#000000" style="fill-opacity: 1; stroke-opacity: 1;" transform="matrix(-1,0,0,-1,404.8,887.0175)">
<g class="BoundaryPolygon">
<polygon points="0.00,0.00 164.13,0.00 164.13,64.09 0.00,64.09 "/>
</g>
<g class="Direction" fill-opacity="0.9" style="display: none;">
<polygon fill="#444444" points="86.19,58.42 86.19,47.81 83.18,47.81 83.18,58.42 79.38,58.42 84.68,63.72 89.99,58.42 86.19,58.42 "/>
</g>
<g class="Name" fill-opacity="0.9" style="display: none;">

</g>
<desc>Width:60 Height:200 Depth:60 Elevation:0</desc>
</g><g class="FixedFurniture BaseCabinet" fill="#ffffff" stroke="#000000" style="fill-opacity: 1; stroke-opacity: 1;" transform="matrix(-1,0,0,-1,549.43,895.7131)">
<g class="BoundaryPolygon">
<polygon points="0.00,0.00 134.63,0.00 134.63,60.00 0.00,60.00 "/>
</g>
<g class="Direction" fill-opacity="0.9" style="display: none;">
<polygon fill="#444444" points="71.82,55.20 71.82,44.58 68.81,44.58 68.81,55.20 65.01,55.20 70.31,60.00 75.61,55.20 71.82,55.20 "/>
</g>
<g class="Name" fill-opacity="0.9" style="display: none;">

</g>
<desc>Width:60 Height:90 Depth:60 Elevation:0</desc>
</g><g class="FixedFurniture ElectricalAppliance SpaceForAppliance2" fill="#ffffff" stroke="#000000" style="fill-opacity: 1; stroke-opacity: 1;" transform="matrix(-1,0,0,-1,474.8042,895.7132)">
<g class="BoundaryPolygon">
<polygon points="0,0 60,0 60,60 0,60"/>
</g>
<g class="electricitySign" fill="none">
<path d="M0,0,30.1,39.8V19.4L59.9,60"/>
</g>
<g class="Direction" fill-opacity="0.9" style="display: none;">
<polygon fill="#444444" points="32.009 55.197 32.009 44.581 29 44.581 29 55.197 25.197 55.197 30.5 60 35.803 55.197 32.009 55.197"/>
</g>
<g class="Name" fill-opacity="0.9" style="display: none;">

</g>
<desc>Width:60 Height:90 Depth:60 Elevation:0</desc>
</g><g class="FixedFurniture ElectricalAppliance SpaceForAppliance2" fill="#ffffff" stroke="#000000" style="fill-opacity: 1; stroke-opacity: 1;" transform="matrix(-1,0,0,-1,534.8042,895.7131)">
<g class="BoundaryPolygon">
<polygon points="0,0 60,0 60,60 0,60"/>
</g>
<g class="electricitySign" fill="none">
<path d="M0,0,30.1,39.8V19.4L59.9,60"/>
</g>
<g class="Direction" fill-opacity="0.9" style="display: none;">
<polygon fill="#444444" points="32.009 55.197 32.009 44.581 29 44.581 29 55.197 25.197 55.197 30.5 60 35.803 55.197 32.009 55.197"/>
</g>
<g class="Name" fill-opacity="0.9" style="display: none;">

</g>
<desc>Width:60 Height:90 Depth:60 Elevation:0</desc>
</g><g class="FixedFurniture BaseCabinet" fill="#ffffff" stroke="#000000" style="fill-opacity: 1; stroke-opacity: 1;" transform="matrix(-1,0,0,-1,658.06,895.6663)">
<g class="BoundaryPolygon">
<polygon points="0.00,0.00 108.63,0.00 108.63,39.33 0.00,39.33 "/>
</g>
<g class="Direction" fill-opacity="0.9" style="display: none;">
<polygon fill="#444444" points="57.95,36.18 57.95,25.56 54.94,25.56 54.94,36.18 51.14,36.18 56.44,40.98 61.75,36.18 57.95,36.18 "/>
</g>
<g class="Name" fill-opacity="0.9" style="display: none;">

</g>
<desc>Width:60 Height:90 Depth:60 Elevation:0</desc>
</g><g class="FixedFurniture Sink" fill="#ffffff" stroke="#000000" style="fill-opacity: 1; stroke-opacity: 1;" transform="matrix(-1,0,0,-1,627.233,896.6174)">
<g class="BoundaryPolygon" fill="none" stroke="none">
<polygon points="0.00,0.00 53.33,0.00 53.33,38.57 0.00,38.57 "/>
</g>
<g class="InnerPolygon">
<polygon points="4.44,9.70 48.89,9.70 48.89,35.16 4.44,35.16 "/>
</g>
<g class="OuterDrain" stroke-width="0.8">
<circle cx="26.664843923837907" cy="20.69889448883754" r="3.5"/>
</g>
<g class="InnerDrain" stroke-width="0.8">
<circle cx="26.664843923837907" cy="20.69889448883754" r="2"/>
</g>
<g class="Faucet">
<polygon points="24.00,3.21 30.00,3.21 30.00,17.21 24.00,17.21 "/>
</g>
<g class="Direction" fill-opacity="0.9" style="display: none;">
<polygon fill="#444444" points="28.45,35.48 28.45,24.87 25.44,24.87 25.44,35.48 21.64,35.48 26.94,40.28 32.24,35.48 28.45,35.48 "/>
</g>
<g class="Name" fill-opacity="0.9" style="display: none;">

</g>
<desc>Width:60 Height:90 Depth:60 Elevation:0</desc>
</g><g class="FixedFurniture Toilet" fill="#ffffff" stroke="#000000" style="fill-opacity: 1; stroke-opacity: 1;" transform="matrix(-1,0,0,-1,712.9867,895.7131)">
<g class="BoundaryPolygon" fill="none" stroke="none">
<polygon points="0,0 41,0 41,71 0,71"/>
</g>
<g class="InnerPolygon">
<rect height="17.98" width="39.989" x="0.502" y="0.5"/>
<path d="M40.491,44.237S41.619,70.5,20.907,70.5C-.523,70.5.6,44.237.6,44.237L.5,18.48H40.491Z"/>
<rect height="3.03" width="6.357" x="17.318" y="7.975"/>
</g>
<desc>Width:41 Height:85 Depth:71 Elevation:0</desc>
</g><g class="FixedFurniture Shower" fill="#ffffff" stroke="#000000" style="fill-opacity: 1; stroke-opacity: 1;" transform="matrix(0,1,-1,0,814.56,846.1281)">
<g class="BoundaryPolygon" fill="none" stroke="none">
<polygon points="0,0 32,0 32,19 0,19"/>
</g>
<g class="InnerPolygon">
<rect height="6.1" width="11.2" x="3.7" y="0.5"/>
<rect height="6.1" width="11.2" x="17.6" y="0.5"/>
<rect height="6.1" width="3.4" x="28.7" y="0.5"/>
<rect height="6.1" width="3.2" x="0.5" y="0.5"/>
<path d="M14.9,8.5c0,1.5-0.4,3.3-1.6,5    c-0.4,0.6-1,1.1-1.1,1.7c-0.2,1.1,0.3,2.8,2.5,3.2c0.5,0.1,1.3,0.1,1.6,0.1h-0.1c0.3,0,1.1,0,1.6-0.1c2.2-0.4,2.7-2.1,2.5-3.2    c-0.1-0.6-0.7-1.1-1.1-1.7c-1.2-1.7-1.6-3.5-1.6-5"/>
<path d="M12.2,15.3c0.1,0.2,1.6,1.9,4.2,1.9 c2.4-0.1,3.7-1.7,3.9-1.9"/>
<path d="M14.9,0.5h2.7v8c-0.9,0-1.8,0-2.7,0l0,0 C14.9,5.9,14.9,3.2,14.9,0.5z"/>
</g>
<g class="Indicator">
<path d="M3.7,3.6C5,3.1,5.2,3,5.2,3 c0,1.1,0,0,0,1.1C5.2,4.1,5.1,4.1,3.7,3.6"/>
<path d="M28.7,3.6 C27.4,3.1,27.2,3,27.2,3c0,1.1,0,0,0,1.1C27.2,4.1,27.3,4.1,28.7,3.6"/>
</g>
<desc>Width:32 Height:97 Depth:19 Elevation:135</desc>
</g><g class="FixedFurniture Misc" fill="none" stroke="#000000" style="fill-opacity: 1; stroke-opacity: 1; stroke-width: 1.8; stroke-dasharray: 5, 5;" transform="matrix(1,0,0,1,723.6915,895.7131)"><desc>Width:120 Height:200 Depth:60 Elevation:0</desc><g class="BoundaryPolygon"><path d="M0.00,0.00 L0.00,-88.07 L90.87,-88.07 "/></g></g><g class="FixedFurniture SaunaBenchHigh" fill="#ffffff" stroke="#000000" style="fill-opacity: 1; stroke-opacity: 1;" transform="matrix(-1,0,0,-1,968.4899,874.9741)">
<g class="BoundaryPolygon">
<polygon points="0.00,0.00 143.93,0.00 143.93,47.41 0.00,47.41 "/>
</g>

<g class="Direction" fill-opacity="0.9" style="display: none;">
<polygon fill="#444444" points="74.23,43.19 74.23,32.57 71.22,32.57 71.22,43.19 67.41,43.19 72.72,48.49 78.02,43.19 74.23,43.19 "/>
</g>
<g class="Name" fill-opacity="0.9" style="display: none;">

</g>
<desc>Width:185 Height:5 Depth:60 Elevation:105</desc>
</g><g class="FixedFurniture SaunaBenchMid" fill="#ffffff" stroke="#000000" style="fill-opacity: 1; stroke-opacity: 1;" transform="matrix(-1,0,0,-1,968.5204,827.5309)">
<g class="BoundaryPolygon">
<polygon points="0.00,0.00 143.88,0.00 143.88,32.61 0.00,32.61 "/>
</g>

<g class="Direction" fill-opacity="0.9" style="display: none;">
<polygon fill="#444444" points="73.11,28.26 73.11,17.64 70.10,17.64 70.10,28.26 66.30,28.26 71.60,33.56 76.91,28.26 73.11,28.26 "/>
</g>
<g class="Name" fill-opacity="0.9" style="display: none;">

</g>
<desc>Width:185 Height:5 Depth:40 Elevation:60</desc>
</g><g class="FixedFurniture Closet" fill="#ffffff" stroke="#000000" style="fill-opacity: 1; stroke-opacity: 1;" transform="matrix(0,-1,1,0,613.8814,506.5366)">
<g class="BoundaryPolygon">
<polygon points="0.00,0.00 62.93,0.00 62.93,66.68 0.00,66.68 "/>
</g>
<g class="Direction" fill-opacity="0.9" style="display: none;">
<polygon fill="#444444" points="33.05,60.78 33.05,50.17 30.04,50.17 30.04,60.78 26.23,60.78 31.54,66.09 36.84,60.78 33.05,60.78 "/>
</g>
<g class="Name" fill-opacity="0.9" style="display: none;">

</g>
<desc>Width:60 Height:200 Depth:60 Elevation:0</desc>
</g><g class="FixedFurniture Closet" fill="#ffffff" stroke="#000000" style="fill-opacity: 1; stroke-opacity: 1;" transform="matrix(0,-1,1,0,613.8502,564.4166)">
<g class="BoundaryPolygon">
<polygon points="0.00,0.00 57.88,0.00 57.88,66.68 0.00,66.68 "/>
</g>
<g class="Direction" fill-opacity="0.9" style="display: none;">
<polygon fill="#444444" points="30.40,60.78 30.40,50.17 27.39,50.17 27.39,60.78 23.58,60.78 28.89,66.09 34.19,60.78 30.40,60.78 "/>
</g>
<g class="Name" fill-opacity="0.9" style="display: none;">

</g>
<desc>Width:60 Height:200 Depth:60 Elevation:0</desc>
</g><g class="FixedFurniture Closet" fill="#ffffff" stroke="#000000" style="fill-opacity: 1; stroke-opacity: 1;" transform="matrix(0,-1,1,0,613.819,621.3066)">
<g class="BoundaryPolygon">
<polygon points="0.00,0.00 56.89,0.00 56.89,66.68 0.00,66.68 "/>
</g>
<g class="Direction" fill-opacity="0.9" style="display: none;">
<polygon fill="#444444" points="29.88,60.78 29.88,50.17 26.87,50.17 26.87,60.78 23.06,60.78 28.37,66.09 33.67,60.78 29.88,60.78 "/>
</g>
<g class="Name" fill-opacity="0.9" style="display: none;">

</g>
<desc>Width:60 Height:200 Depth:60 Elevation:0</desc>
</g><g class="FixedFurniture Closet" fill="#ffffff" stroke="#000000" style="fill-opacity: 1; stroke-opacity: 1;" transform="matrix(0,-1,1,0,613.8502,689.2866)">
<g class="BoundaryPolygon">
<polygon points="0.00,0.00 67.98,0.00 67.98,66.68 0.00,66.68 "/>
</g>
<g class="Direction" fill-opacity="0.9" style="display: none;">
<polygon fill="#444444" points="35.71,60.78 35.71,50.17 32.70,50.17 32.70,60.78 28.89,60.78 34.20,66.09 39.50,60.78 35.71,60.78 "/>
</g>
<g class="Name" fill-opacity="0.9" style="display: none;">

</g>
<desc>Width:60 Height:200 Depth:60 Elevation:0</desc>
</g><g class="FixedFurniture BaseCabinet" fill="#ffffff" stroke="#000000" style="fill-opacity: 1; stroke-opacity: 1;" transform="matrix(0,-1,1,0,343.5289,689.3107)">
<g class="BoundaryPolygon">
<polygon points="0.00,0.00 293.80,0.00 293.80,60.00 0.00,60.00 "/>
</g>
<g class="Direction" fill-opacity="0.9" style="display: none;">
<polygon fill="#444444" points="156.74,55.20 156.74,44.58 153.73,44.58 153.73,55.20 149.92,55.20 155.23,60.00 160.53,55.20 156.74,55.20 "/>
</g>
<g class="Name" fill-opacity="0.9" style="display: none;">

</g>
<desc>Width:60 Height:90 Depth:60 Elevation:0</desc>
</g><g class="FixedFurniture ElectricalAppliance SpaceForAppliance2" fill="#ffffff" stroke="#000000" style="fill-opacity: 1; stroke-opacity: 1;" transform="matrix(0,-1.0124,1,0,343.529,664.4345)">
<g class="BoundaryPolygon">
<polygon points="0,0 60,0 60,60 0,60"/>
</g>
<g class="electricitySign" fill="none">
<path d="M0,0,30.1,39.8V19.4L59.9,60"/>
</g>
<g class="Direction" fill-opacity="0.9" style="display: none;">
<polygon fill="#444444" points="32.009 55.197 32.009 44.581 29 44.581 29 55.197 25.197 55.197 30.5 60 35.803 55.197 32.009 55.197"/>
</g>
<g class="Name" fill-opacity="0.9" style="display: none;">

</g>
<desc>Width:60 Height:90 Depth:60 Elevation:0</desc>
</g><g class="FixedFurniture BaseCabinet" fill="#ffffff" stroke="#000000" style="fill-opacity: 1; stroke-opacity: 1;" transform="matrix(0,1,-1,0,593.8673,403.9762)">
<g class="BoundaryPolygon">
<polygon points="0.00,0.00 224.81,0.00 224.81,60.00 0.00,60.00 "/>
</g>
<g class="Direction" fill-opacity="0.9" style="display: none;">
<polygon fill="#444444" points="119.93,55.20 119.93,44.58 116.92,44.58 116.92,55.20 113.12,55.20 118.42,60.00 123.73,55.20 119.93,55.20 "/>
</g>
<g class="Name" fill-opacity="0.9" style="display: none;">

</g>
<desc>Width:60 Height:90 Depth:60 Elevation:0</desc>
</g><g class="FixedFurniture ElectricalAppliance IntegratedStove" fill="#ffffff" stroke="#000000" style="fill-opacity: 1; stroke-opacity: 1;" transform="matrix(0,1,-1,0,593.6652,424.234)">
<g class="BoundaryPolygon" fill="none" stroke="none">
<polygon points="0.00,0.00 64.49,0.00 64.49,60.00 0.00,60.00 "/>
</g>
<g class="InnerPolygon">
<polygon points="2.00,2.00 62.34,2.00 62.34,58.00 2.00,58.00 "/>
</g>
<g class="OuterCircle">
<circle cx="17.197476414835318" cy="16" r="8"/>
<circle cx="47.29306014079713" cy="16" r="8"/>
<circle cx="17.197476414835318" cy="44" r="8"/>
<circle cx="47.29306014079713" cy="44" r="8"/>
</g>
<g class="Direction" fill-opacity="0.9" style="display: none;">
<polygon fill="#444444" points="34.40,55.20 34.40,44.58 31.40,44.58 31.40,55.20 27.59,55.20 32.90,60.00 38.20,55.20 34.40,55.20 "/>
</g>
<g class="Name" fill-opacity="0.9" style="display: none;">

</g>
<desc>Width:60 Height:90 Depth:30 Elevation:0</desc>
</g><g class="FixedFurniture ElectricalAppliance SpaceForAppliance2" fill="#ffffff" stroke="#000000" style="fill-opacity: 1; stroke-opacity: 1;" transform="matrix(0,1,-1,0,593.8672,486.7045)">
<g class="BoundaryPolygon">
<polygon points="0,0 60,0 60,60 0,60"/>
</g>
<g class="electricitySign" fill="none">
<path d="M0,0,30.1,39.8V19.4L59.9,60"/>
</g>
<g class="Direction" fill-opacity="0.9" style="display: none;">
<polygon fill="#444444" points="32.009 55.197 32.009 44.581 29 44.581 29 55.197 25.197 55.197 30.5 60 35.803 55.197 32.009 55.197"/>
</g>
<g class="Name" fill-opacity="0.9" style="display: none;">

</g>
<desc>Width:60 Height:90 Depth:60 Elevation:0</desc>
</g><g class="FixedFurniture DoubleSinkRight" fill="#ffffff" stroke="#000000" style="fill-opacity: 1; stroke-opacity: 1;" transform="matrix(0,1,-1,0,593.237,546.3696)">
<g class="BoundaryPolygon" fill="none" stroke="none">
<polygon points="0.00,0.00 63.54,0.00 63.54,56.57 0.00,56.57 0.00,0.00 "/>
</g>
<g class="InnerPolygonLeft">
<polygon points="4.54,9.90 22.69,9.90 22.69,51.76 4.54,51.76 "/>
</g>
<g class="InnerPolygonRight">
<polygon points="25.41,10.00 59.00,10.00 59.00,51.86 25.41,51.86 "/>
</g>
<g class="OuterDrain" stroke-width="0.8">
<circle cx="13.614823909029788" cy="30.643256725820198" r="3.5"/>
<circle cx="41.752126654358015" cy="30.643256725820198" r="3.5"/>
</g>
<g class="InnerDrain" stroke-width="0.8">
<circle cx="13.614823909029788" cy="30.643256725820198" r="2"/>
<circle cx="41.752126654358015" cy="30.643256725820198" r="2"/>
</g>
<g class="Faucet">
<polygon points="29.04,4.62 35.04,4.62 35.04,18.62 29.04,18.62 "/>
</g>
<g class="Direction" fill-opacity="0.9" style="display: none;">
<polygon fill="#444444" points="33.14,51.57 33.14,40.96 30.13,40.96 30.13,51.57 26.33,51.57 31.63,56.88 36.93,51.57 33.14,51.57 "/>
</g>
<g class="Name" fill-opacity="0.9" style="display: none;">

</g>
<desc>Width:70 Height:90 Depth:60 Elevation:0</desc>
</g><g class="FixedFurniture ElectricalAppliance Refrigerator" fill="#ffffff" stroke="#000000" style="fill-opacity: 1; stroke-opacity: 1;" transform="matrix(0,1,-1,0,593.8215,628.9051)">
<g class="BoundaryPolygon">
<polygon points="0,0 60,0 60,60 0,60"/>
</g>
<g class="electricitySign" fill="none">
<path d="M0,0,30,37.1v-18L60,56.3"/>
</g>
<g class="Doors">
<rect height="4" width="60" y="56"/>
</g>
<g class="Direction" fill-opacity="0.9" style="display: none;">
<polygon fill="#444444" points="32.009 55.197 32.009 44.581 29 44.581 29 55.197 25.197 55.197 30.5 60 35.803 55.197 32.009 55.197"/>
</g>
<g class="Name" fill-opacity="0.9" style="display: none;">

</g>
<desc>Width:60 Height:170 Depth:60 Elevation:0</desc>
</g><g class="Column Rectangle" fill="#000000" id="Column" stroke="none" style="fill-opacity: 1;"><polygon points="998.45,34.17 1010.45,34.17 1010.45,22.17 998.45,22.17 "/></g><g class="FixedFurniture ElectricalAppliance SaunaStoveRound" fill="#ffffff" stroke="#000000" style="fill-opacity: 1; stroke-opacity: 1;" transform="matrix(0.7623,0,0,0.715,895.4592,760.5741)">
<g class="BoundaryPolygon" fill="none" stroke="none">
<polygon points="0,0 40,0 40,40 0,40"/>
</g>
<g class="InnerCircle">
<circle cx="20.5" cy="20.5" r="20"/>
</g>
<g class="electricitySign" fill="none">
<polyline points="2.5 30.5 30.5 20.5 10.5 20.5 38.5 10.5"/>
</g>
<g class="Name" fill-opacity="0.9" style="display: none;">

</g>
<desc>Width:60 Height:60 Depth:35 Elevation:20</desc>
</g><g class="SelectionControls" fill="#0000ff" stroke="#0000ff" style="display: none;"><g class="rotateControl" style="display: none;"><circle cx="399.930425" cy="161.459875" r="5" style="stroke : none; fill-opacity: 0.5; cursor:crosshair"/></g><g class="ResizeNControl" style="display: none;"><circle cx="0" cy="0" r="5" style="stroke : none; fill-opacity: 0.5"/></g><g class="ResizeNEControl" style="display: none;"><circle cx="0" cy="0" r="5" style="stroke : none; fill-opacity: 0.5"/></g><g class="ResizeEControl" style="display: none;"><circle cx="0" cy="0" r="5" style="stroke : none; fill-opacity: 0.5"/></g><g class="ResizeSEControl" style="display: none;"><circle cx="0" cy="0" r="5" style="stroke : none; fill-opacity: 0.5"/></g><g class="ResizeSControl" style="display: none;"><circle cx="0" cy="0" r="5" style="stroke : none; fill-opacity: 0.5"/></g><g class="ResizeSWControl" style="display: none;"><circle cx="0" cy="0" r="5" style="stroke : none; fill-opacity: 0.5"/></g><g class="ResizeWControl" style="display: none;"><circle cx="0" cy="0" r="5" style="stroke : none; fill-opacity: 0.5"/></g><g class="ResizeNWControl" style="display: none;"><circle cx="0" cy="0" r="5" style="stroke : none; fill-opacity: 0.5"/></g><g class="removeControl" style="display: none;"><polygon points="387.54,191.46 412.32,191.46 412.32,231.51 387.54,231.51 " style="stroke : none; fill-opacity: 0.1"/></g><g class="copyPasteControl" style="display: none;"><polygon style="stroke : none; fill-opacity: 0.1"/></g><g class="translateControl" style="display: none;"><polygon points="387.54,191.46 412.32,191.46 412.32,231.51 387.54,231.51 " style="stroke : none; fill-opacity: 0.1; cursor:move"/></g></g><g class="SelectionControls" fill="#0000ff" stroke="#0000ff" style="display: none;"><polygon fill="none" points="92.80,63.50 669.01,63.50 669.01,395.51 92.80,395.51 " stroke="#0000ff" style=""/><g class="rotateControl" style="display: none;"><circle cx="380.9048875488281" cy="33.5027" r="5" style="stroke : none; fill-opacity: 0.5; cursor:crosshair"/></g><g class="ResizeNControl" style="display: none;"><circle cx="0" cy="0" r="5" style="stroke : none; fill-opacity: 0.5"/></g><g class="ResizeNEControl" style="display: none;"><circle cx="0" cy="0" r="5" style="stroke : none; fill-opacity: 0.5"/></g><g class="ResizeEControl" style="display: none;"><circle cx="0" cy="0" r="5" style="stroke : none; fill-opacity: 0.5"/></g><g class="ResizeSEControl" style="display: none;"><circle cx="0" cy="0" r="5" style="stroke : none; fill-opacity: 0.5"/></g><g class="ResizeSControl" style="display: none;"><circle cx="0" cy="0" r="5" style="stroke : none; fill-opacity: 0.5"/></g><g class="ResizeSWControl" style="display: none;"><circle cx="0" cy="0" r="5" style="stroke : none; fill-opacity: 0.5"/></g><g class="ResizeWControl" style="display: none;"><circle cx="0" cy="0" r="5" style="stroke : none; fill-opacity: 0.5"/></g><g class="ResizeNWControl" style="display: none;"><circle cx="0" cy="0" r="5" style="stroke : none; fill-opacity: 0.5"/></g><g class="removeControl" style="display: none;"><polygon style="stroke : none; fill-opacity: 0.1"/></g><g class="copyPasteControl" style="display: none;"><polygon style="stroke : none; fill-opacity: 0.1"/></g><g class="translateControl" style="display: none;"><polygon style="stroke : none; fill-opacity: 0.1; cursor:move"/></g></g></g></g></g></svg>