<?xml version="1.0" encoding="utf-8"?>
<svg height="1192.9399757385254" id="temp" version="1.1" viewBox="0 0 1521.6099853515625 1192.9399757385254" width="1521.6099853515625" xmlns="http://www.w3.org/2000/svg" xmlns:xlink="http://www.w3.org/1999/xlink"><defs/><g class="Model v1-1" id="Model"><g class="Floor"><g class="Floorplan Floor-1" id="Floor-1" transform="matrix(1,0,0,1,0,0)"><g class="Space Bath" fill="#ffffff" id="3a783e68-99e8-45cc-bfa6-abfba5dfdd50" stroke="#ffffff" style="fill-opacity: 1; stroke-opacity: 1; stroke-width: 1;"><polygon points="910.41,900.08 703.23,900.08 703.23,751.42 910.41,751.42 "/><g class="Dimension" transform="matrix(1,0,0,1,703.2316,751.4247)"><g class="Visual" style="display: none;" transform="matrix(1,0,0,1,0,0)"><g class="DimensionMark" fill="#000000" id="mark1" stroke="none" style="fill-opacity: 1; pointer-events: visible;" transform="matrix(1,0,0,1,103.591,0)"><polygon points="-5,5,0,0,5,5"/></g><g class="DimensionMark" fill="#000000" id="mark2" stroke="none" style="fill-opacity: 1; pointer-events: visible;" transform="matrix(1,0,0,1,207.1819,74.3281)"><polygon points="-5,-5,0,0,-5,5"/></g><g class="DimensionMark" fill="#000000" id="mark3" stroke="none" style="fill-opacity: 1; pointer-events: visible;" transform="matrix(1,0,0,1,103.591,148.6562)"><polygon points="-5,-5,0,0,5,-5"/></g><g class="DimensionMark" fill="#000000" id="mark4" stroke="none" style="fill-opacity: 1; pointer-events: visible;" transform="matrix(1,0,0,1,0,74.3281)"><polygon points="5,5,0,0,5,-5"/></g></g><g class="SpaceDimensionsLabel" transform="matrix(1,0,0,1,81.3846,87.3703)"><g class="TextLabel NameLabel" id="NameLabel" style="display: block;"/><g class="TextLabel DimensionMeasureLabel" id="DimensionMeasureLabel" style="display: none;" transform="matrix(1,0,0,1,-112.1719,79.7499)"/></g></g></g><g class="Space LivingRoom" fill="#ffffff" id="a49a2f38-c11f-4000-9613-dfa6f137f6d9" stroke="#ffffff" style="fill-opacity: 1; stroke-opacity: 1; stroke-width: 1;"><polygon points="910.41,737.42 689.23,737.42 689.23,811.14 383.27,811.14 383.27,472.81 910.41,472.81 "/><g class="Dimension" transform="matrix(1,0,0,1,383.2714,472.809)"><g class="Visual" style="display: none;" transform="matrix(1,0,0,1,0,0)"><g class="DimensionMark" fill="#000000" id="mark1" stroke="none" style="fill-opacity: 1; pointer-events: visible;" transform="matrix(1,0,0,1,263.571,0)"><polygon points="-5,5,0,0,5,5"/></g><g class="DimensionMark" fill="#000000" id="mark2" stroke="none" style="fill-opacity: 1; pointer-events: visible;" transform="matrix(1,0,0,1,527.1421,169.1679)"><polygon points="-5,-5,0,0,-5,5"/></g><g class="DimensionMark" fill="#000000" id="mark3" stroke="none" style="fill-opacity: 1; pointer-events: visible;" transform="matrix(1,0,0,1,263.571,338.3358)"><polygon points="-5,-5,0,0,5,-5"/></g><g class="DimensionMark" fill="#000000" id="mark4" stroke="none" style="fill-opacity: 1; pointer-events: visible;" transform="matrix(1,0,0,1,0,169.1679)"><polygon points="5,5,0,0,5,-5"/></g></g><g class="SpaceDimensionsLabel" transform="matrix(1,0,0,1,226.152,155.4784)"><g class="TextLabel NameLabel" id="NameLabel" style="display: block;"/><g class="TextLabel DimensionMeasureLabel" id="DimensionMeasureLabel" style="display: none;" transform="matrix(1,0,0,1,-114.625,80.0938)"/></g></g></g><g class="Space Entry Lobby" fill="#ffffff" id="39cca61f-8f91-4bff-b2e1-dc9b14aefe5d" stroke="#ffffff" style="fill-opacity: 1; stroke-opacity: 1; stroke-width: 1;"><polygon points="689.23,914.08 910.41,914.08 910.41,1084.86 605.82,1084.86 605.82,1024.64 591.82,1024.64 591.82,883.50 605.82,883.50 605.82,811.14 689.23,811.14 "/><g class="Dimension" transform="matrix(1,0,0,1,591.8164,811.1448)"><g class="Visual" style="display: none;" transform="matrix(1,0,0,1,0,0)"><g class="DimensionMark" fill="#000000" id="mark1" stroke="none" style="fill-opacity: 1; pointer-events: visible;" transform="matrix(1,0,0,1,97.4152,0)"><polygon points="-5,5,0,0,5,5"/></g><g class="DimensionMark" fill="#000000" id="mark2" stroke="none" style="fill-opacity: 1; pointer-events: visible;" transform="matrix(1,0,0,1,318.5971,136.8561)"><polygon points="-5,-5,0,0,-5,5"/></g><g class="DimensionMark" fill="#000000" id="mark3" stroke="none" style="fill-opacity: 1; pointer-events: visible;" transform="matrix(1,0,0,1,97.4152,273.7121)"><polygon points="-5,-5,0,0,5,-5"/></g><g class="DimensionMark" fill="#000000" id="mark4" stroke="none" style="fill-opacity: 1; pointer-events: visible;" transform="matrix(1,0,0,1,0,136.8561)"><polygon points="5,5,0,0,5,-5"/></g></g><g class="SpaceDimensionsLabel" transform="matrix(1,0,0,1,253.286,202.4735)"><g class="TextLabel NameLabel" id="NameLabel" style="display: block;"/><g class="TextLabel DimensionMeasureLabel" id="DimensionMeasureLabel" style="display: none;" transform="matrix(1,0,0,1,-119.0781,80.0938)"/></g></g></g><g class="Space Kitchen" fill="#ffffff" id="91d1f521-14c8-4b8f-953b-38e72251c38c" stroke="#ffffff" style="fill-opacity: 1; stroke-opacity: 1; stroke-width: 1;"><polygon points="591.82,1084.86 383.27,1084.86 383.27,825.14 591.82,825.14 "/><g class="Dimension" transform="matrix(1,0,0,1,383.2714,825.1448)"><g class="Visual" style="display: none;" transform="matrix(1,0,0,1,0,0)"><g class="DimensionMark" fill="#000000" id="mark1" stroke="none" style="fill-opacity: 1; pointer-events: visible;" transform="matrix(1,0,0,1,104.2725,0)"><polygon points="-5,5,0,0,5,5"/></g><g class="DimensionMark" fill="#000000" id="mark2" stroke="none" style="fill-opacity: 1; pointer-events: visible;" transform="matrix(1,0,0,1,208.545,129.8561)"><polygon points="-5,-5,0,0,-5,5"/></g><g class="DimensionMark" fill="#000000" id="mark3" stroke="none" style="fill-opacity: 1; pointer-events: visible;" transform="matrix(1,0,0,1,104.2725,259.7121)"><polygon points="-5,-5,0,0,5,-5"/></g><g class="DimensionMark" fill="#000000" id="mark4" stroke="none" style="fill-opacity: 1; pointer-events: visible;" transform="matrix(1,0,0,1,0,129.8561)"><polygon points="5,5,0,0,5,-5"/></g></g><g class="SpaceDimensionsLabel" transform="matrix(1,0,0,1,68.155,143.3997)"><g class="TextLabel NameLabel" id="NameLabel" style="display: block;"/><g class="TextLabel DimensionMeasureLabel" id="DimensionMeasureLabel" style="display: none;" transform="matrix(1,0,0,1,-70.9375,80.0938)"/></g></g></g><g class="Space Outdoor Terrace" fill="#ffffff" id="10ef0c40-1828-4cb2-baf4-9d9a43cf2ee1" stroke="#000000" style="stroke-width: 1; fill-opacity: 1; stroke-opacity: 1;"><polygon points="918.27,457.61 918.27,175.31 375.83,175.31 375.83,457.61 918.27,457.61 918.27,457.61 "/><g class="Dimension" transform="matrix(1,0,0,1,375.8317,175.306)"><g class="Visual" style="display: none;" transform="matrix(1,0,0,1,0,0)"><g class="DimensionMark" fill="#000000" id="mark1" stroke="none" style="fill-opacity: 1; pointer-events: visible;" transform="matrix(1,0,0,1,271.2212,0)"><polygon points="-5,5,0,0,5,5"/></g><g class="DimensionMark" fill="#000000" id="mark2" stroke="none" style="fill-opacity: 1; pointer-events: visible;" transform="matrix(1,0,0,1,542.4424,141.1545)"><polygon points="-5,-5,0,0,-5,5"/></g><g class="DimensionMark" fill="#000000" id="mark3" stroke="none" style="fill-opacity: 1; pointer-events: visible;" transform="matrix(1,0,0,1,271.2212,282.3088)"><polygon points="-5,-5,0,0,5,-5"/></g><g class="DimensionMark" fill="#000000" id="mark4" stroke="none" style="fill-opacity: 1; pointer-events: visible;" transform="matrix(1,0,0,1,0,141.1545)"><polygon points="5,5,0,0,5,-5"/></g></g><g class="SpaceDimensionsLabel" transform="matrix(1,0,0,1,220.3671,143.7402)"><g class="TextLabel NameLabel" id="NameLabel" style="display: block;"/><g class="TextLabel DimensionMeasureLabel" id="DimensionMeasureLabel" style="display: none;" transform="matrix(1,0,0,1,-67.9063,80.0938)"/></g></g></g><g class="Space Outdoor Garden" fill="#ffffff" id="b0f76cdc-7ff4-4257-84f1-057ce26f71aa" stroke="#000000" style="stroke-width: 1; fill-opacity: 1; stroke-opacity: 1;"><polygon points="375.65,174.85 375.65,-59.66 917.79,-59.66 917.79,175.55 375.65,174.85 375.65,174.85 "/><g class="Dimension" transform="matrix(1,0,0,1,375.6478,-59.6612)"><g class="Visual" style="display: none;" transform="matrix(1,0,0,1,0,0)"><g class="DimensionMark" fill="#000000" id="mark1" stroke="none" style="fill-opacity: 1; pointer-events: visible;" transform="matrix(1,0,0,1,271.0693,0)"><polygon points="-5,5,0,0,5,5"/></g><g class="DimensionMark" fill="#000000" id="mark2" stroke="none" style="fill-opacity: 1; pointer-events: visible;" transform="matrix(1,0,0,1,542.1376,117.6069)"><polygon points="-5,-5,0,0,-5,5"/></g><g class="DimensionMark" fill="#000000" id="mark3" stroke="none" style="fill-opacity: 1; pointer-events: visible;" transform="matrix(1,0,0,1,271.0693,234.8608)"><polygon points="-5,-5,0,0,5,-5"/></g><g class="DimensionMark" fill="#000000" id="mark4" stroke="none" style="fill-opacity: 1; pointer-events: visible;" transform="matrix(1,0,0,1,0,117.6069)"><polygon points="5,5,0,0,5,-5"/></g></g><g class="SpaceDimensionsLabel" transform="matrix(1,0,0,1,244.9461,119.7138)"><g class="TextLabel NameLabel" id="NameLabel" style="display: block;"/><g class="TextLabel DimensionMeasureLabel" id="DimensionMeasureLabel" style="display: none;" transform="matrix(1,0,0,1,-98.7188,80.0938)"/></g></g></g><g class="Wall External" fill="#000000" id="Wall" stroke="#000000" style="fill-opacity: 1; stroke-opacity: 1; stroke-width: 1;"><polygon points="383.27,472.81 910.41,472.81 925.41,457.81 368.27,457.81 "/><g class="Door Swing Beside" fill="#ffffff" id="Door" stroke="#000000" style="fill-opacity: 1; stroke-width: 1; stroke-opacity: 1;"><polygon points="605.87,472.81 690.05,472.81 690.05,457.81 605.87,457.81 "/><g class="Panel Right Positive" fill="none" id="Panel" style=""><g class="PanelArea" fill="none" id="PanelArea" stroke="none" style=""><polygon points="605.87,472.81 690.05,472.81 690.05,457.81 605.87,457.81 "/></g><path d="M605.87,457.81 q0.00,-84.18 84.18,-84.18 l0.00,84.18Z"/></g></g><g class="Window Regular" fill="#f0f0ff" id="Window" stroke="#000000" style="fill-opacity: 1; stroke-width: 1; stroke-opacity: 1;"><polygon points="384.07,472.81 598.71,472.81 598.71,457.81 384.07,457.81 "/><g class="Glass" id="Glass"><polygon points="384.07,472.81 598.71,472.81 598.71,457.81 384.07,457.81 "/></g><g class="Panel" id="Panel"><line x1="391.57000732421875" x2="591.2100219726562" y1="465.30999755859375" y2="465.30999755859375"/><line x1="391.57000732421875" x2="391.57000732421875" y1="472.80999755859375" y2="457.80999755859375"/><line x1="591.2100219726562" x2="591.2100219726562" y1="472.80999755859375" y2="457.80999755859375"/></g></g><g class="Window Regular" fill="#f0f0ff" id="Window" stroke="#000000" style="fill-opacity: 1; stroke-width: 1; stroke-opacity: 1;"><polygon points="694.75,472.81 909.39,472.81 909.39,457.81 694.75,457.81 "/><g class="Glass" id="Glass"><polygon points="694.75,472.81 909.39,472.81 909.39,457.81 694.75,457.81 "/></g><g class="Panel" id="Panel"><line x1="702.25" x2="901.8900146484375" y1="465.30999755859375" y2="465.30999755859375"/><line x1="702.25" x2="702.25" y1="472.80999755859375" y2="457.80999755859375"/><line x1="901.8900146484375" x2="901.8900146484375" y1="472.80999755859375" y2="457.80999755859375"/></g></g></g><g class="Wall External" fill="#000000" id="Wall" stroke="#000000" style="fill-opacity: 1; stroke-opacity: 1; stroke-width: 1;"><polygon points="910.41,472.81 910.41,1084.86 925.41,1099.86 925.41,457.81 "/></g><g class="Wall External" fill="#000000" id="Wall" stroke="#000000" style="fill-opacity: 1; stroke-opacity: 1; stroke-width: 1;"><polygon points="910.41,1084.86 383.27,1084.86 368.27,1099.86 925.41,1099.86 "/><g class="Door Swing Beside" fill="#ffffff" id="Door" stroke="#000000" style="fill-opacity: 1; stroke-width: 1; stroke-opacity: 1;"><polygon points="909.17,1084.86 816.09,1084.86 816.09,1099.86 909.17,1099.86 "/><g class="Panel Left Positive" fill="none" id="Panel" style=""><g class="PanelArea" fill="none" id="PanelArea" stroke="none" style=""><polygon points="909.17,1084.86 816.09,1084.86 816.09,1099.86 909.17,1099.86 "/></g><path d="M816.09,1099.86 q0.00,93.08 93.08,93.08 l0.00,-93.08Z"/></g></g><g class="Window Regular" fill="#f0f0ff" id="Window" stroke="#000000" style="fill-opacity: 1; stroke-width: 1; stroke-opacity: 1;"><polygon points="544.44,1084.86 413.53,1084.86 413.53,1099.86 544.44,1099.86 "/><g class="Glass" id="Glass"><polygon points="544.44,1084.86 413.53,1084.86 413.53,1099.86 544.44,1099.86 "/></g><g class="Panel" id="Panel"><line x1="536.9400024414062" x2="421.0299987792969" y1="1092.3599853515625" y2="1092.3599853515625"/><line x1="536.9400024414062" x2="536.9400024414062" y1="1084.8599853515625" y2="1099.8599853515625"/><line x1="421.0299987792969" x2="421.0299987792969" y1="1084.8599853515625" y2="1099.8599853515625"/></g></g></g><g class="Wall External" fill="#000000" id="Wall" stroke="#000000" style="fill-opacity: 1; stroke-opacity: 1; stroke-width: 1;"><polygon points="383.27,1084.86 383.27,472.81 368.27,457.81 368.27,1099.86 "/></g><g class="Wall" fill="#000000" id="Wall" stroke="#000000" style="fill-opacity: 1; stroke-opacity: 1; stroke-width: 1;"><polygon points="368.27,825.14 591.82,825.14 605.82,811.14 368.27,811.14 "/></g><g class="Wall" fill="#000000" id="Wall" stroke="#000000" style="fill-opacity: 1; stroke-opacity: 1; stroke-width: 1;"><polygon points="591.82,825.14 591.82,883.50 605.82,883.50 605.82,811.14 "/></g><g class="Wall" fill="#000000" id="Wall" stroke="#000000" style="fill-opacity: 1; stroke-opacity: 1; stroke-width: 1;"><polygon points="925.41,751.42 703.23,751.42 689.23,737.42 925.41,737.42 "/></g><g class="Wall" fill="#000000" id="Wall" stroke="#000000" style="fill-opacity: 1; stroke-opacity: 1; stroke-width: 1;"><polygon points="703.23,751.42 703.23,900.08 689.23,914.08 689.23,737.42 "/><g class="Door Swing Beside" fill="#ffffff" id="Door" stroke="#000000" style="fill-opacity: 1; stroke-width: 1; stroke-opacity: 1;"><polygon points="703.23,814.15 703.23,895.58 689.23,895.58 689.23,814.15 "/><g class="Panel Left Positive" fill="none" id="Panel" style=""><g class="PanelArea" fill="none" id="PanelArea" stroke="none" style=""><polygon points="703.23,814.15 703.23,895.58 689.23,895.58 689.23,814.15 "/></g><path d="M689.23,895.58 q-81.43,0.00 -81.43,-81.43 l81.43,0.00Z"/></g></g></g><g class="Wall" fill="#000000" id="Wall" stroke="#000000" style="fill-opacity: 1; stroke-opacity: 1; stroke-width: 1;"><polygon points="689.23,914.08 925.41,914.08 925.41,900.08 703.23,900.08 "/></g><g class="Wall" fill="#000000" id="Wall" stroke="#000000" style="fill-opacity: 1; stroke-opacity: 1; stroke-width: 1;"><polygon points="605.82,1084.86 605.82,1024.64 591.82,1024.64 591.82,1084.86 "/></g><g class="Stairs" fill="#ffffff" id="Stairs" stroke="#000000" style="fill-opacity: 1; stroke-opacity: 1;"><g class="Flight" id="Flight"><polygon points="689.23,991.75 814.66,991.75 814.66,914.08 689.23,914.08 "/><g class="WalkinLine "><path d="M689.23,952.92 L814.66,952.92 " fill="none" stroke="#d3d3d3" style='pointer-events: none; marker-end: url("#Marker2");'/><defs><marker fill="#d3d3d3" id="Marker2" markerHeight="12" markerWidth="12" orient="auto" refX="11" refY="6" stroke="#d3d3d3" style="pointer-events: none;" viewBox="0 0 12 12"><polygon points="0.00,0.00 0.00,12.00 10.00,6.00 0.00,0.00 "/></marker></defs></g><g class="Steps" id="Steps"><line x1="689.22998046875" x2="689.22998046875" y1="991.75" y2="914.0800170898438"/><line x1="714.3159790039062" x2="714.3159790039062" y1="991.75" y2="914.0800170898438"/><line x1="739.4019775390625" x2="739.4019775390625" y1="991.75" y2="914.0800170898438"/><line x1="764.4879760742188" x2="764.4879760742188" y1="991.75" y2="914.0800170898438"/><line x1="789.573974609375" x2="789.573974609375" y1="991.75" y2="914.0800170898438"/><line x1="814.6599731445312" x2="814.6599731445312" y1="991.75" y2="914.0800170898438"/></g></g></g><g class="Railing" fill="#ffffff" id="Railing" stroke="#000000" style="fill-opacity: 1; stroke-opacity: 1; stroke-width: 1;"><polygon points="689.23,1005.75 815.30,1005.75 815.30,991.75 689.23,991.75 "/></g><g class="FixedFurnitureSet" id="FixedFurnitureSet" style="" transform="matrix(1,0,0,1,769.4075,751.5653)"><g class="FixedFurniture BaseCabinet" fill="#ffffff" stroke="#000000" style="fill-opacity: 1; stroke-opacity: 1;" transform="matrix(1,0,0,1,0,0)">
<g class="BoundaryPolygon">
<polygon points="0.00,0.00 60.00,0.00 60.00,42.33 0.00,42.33 "/>
</g>
<g class="Direction" fill-opacity="0.9" style="display: none;">
<polygon fill="#444444" points="32.01,38.94 32.01,28.33 29.00,28.33 29.00,38.94 25.20,38.94 30.50,43.74 35.80,38.94 32.01,38.94 "/>
</g>
<g class="Name" fill-opacity="0.9" style="display: none;">

</g>
<desc>Width:60 Height:5 Depth:60 Elevation:105</desc>
</g><g class="FixedFurniture Sink" fill="#ffffff" stroke="#000000" style="fill-opacity: 1; stroke-opacity: 1;" transform="matrix(1,0,0,1,0,0)">
<g class="BoundaryPolygon" fill="none" stroke="none">
<polygon points="0.00,0.00 60.00,0.00 60.00,42.33 0.00,42.33 "/>
</g>
<g class="InnerPolygon">
<polygon points="5.00,9.70 55.00,9.70 55.00,38.59 5.00,38.59 "/>
</g>
<g class="OuterDrain" stroke-width="0.8">
<circle cx="30" cy="22.717218208675128" r="3.5"/>
</g>
<g class="InnerDrain" stroke-width="0.8">
<circle cx="30" cy="22.717218208675128" r="2"/>
</g>
<g class="Faucet">
<polygon points="27.00,3.53 33.00,3.53 33.00,17.53 27.00,17.53 "/>
</g>
<g class="Direction" fill-opacity="0.9" style="display: none;">
<polygon fill="#444444" points="32.01,38.94 32.01,28.33 29.00,28.33 29.00,38.94 25.20,38.94 30.50,43.74 35.80,38.94 32.01,38.94 "/>
</g>
<g class="Name" fill-opacity="0.9" style="display: none;">

</g>
<desc>Width:60 Height:90 Depth:60 Elevation:0</desc>
</g></g><g class="FixedFurniture CoatCloset" fill="#ffffff" stroke="#000000" style="fill-opacity: 1; stroke-opacity: 1;" transform="matrix(-1,0,0,-1,814.6611,1084.8569)">
<g class="BoundaryPolygon">
<polygon points="0.00,0.00 110.55,0.00 110.55,37.84 0.00,37.84 "/>
</g>

<g class="Direction" fill-opacity="0.9" style="display: none;">
<polygon fill="#444444" points="56.67,34.38 56.67,23.77 53.66,23.77 53.66,34.38 49.86,34.38 55.16,39.68 60.46,34.38 56.67,34.38 "/>
</g>
<g class="Name" fill-opacity="0.9" style="display: none;">

</g>
<desc>Width:120 Height:200 Depth:60 Elevation:0</desc>
</g><g class="FixedFurniture ElectricalAppliance Refrigerator" fill="#ffffff" stroke="#000000" style="fill-opacity: 1; stroke-opacity: 1;" transform="matrix(-0.9758,0,0,-1,591.8164,1084.7319)">
<g class="BoundaryPolygon">
<polygon points="0,0 60,0 60,60 0,60"/>
</g>
<g class="electricitySign" fill="none">
<path d="M0,0,30,37.1v-18L60,56.3"/>
</g>
<g class="Doors">
<rect height="4" width="60" y="56"/>
</g>
<g class="Direction" fill-opacity="0.9" style="display: none;">
<polygon fill="#444444" points="32.009 55.197 32.009 44.581 29 44.581 29 55.197 25.197 55.197 30.5 60 35.803 55.197 32.009 55.197"/>
</g>
<g class="Name" fill-opacity="0.9" style="display: none;">

</g>
<desc>Width:60 Height:170 Depth:60 Elevation:0</desc>
</g><g class="FixedFurniture BaseCabinet" fill="#ffffff" stroke="#000000" style="fill-opacity: 1; stroke-opacity: 1;" transform="matrix(1,0,0,1,591.8164,825.1448)"><desc>Width:60 Height:90 Depth:60 Elevation:0</desc><g class="BoundaryPolygon"><polygon points="0.00,0.00 -208.54,0.00 -208.54,259.59 -58.55,259.59 -58.55,199.46 -149.08,199.46 -149.08,58.35 0.00,58.35 0.00,-0.00 "/></g></g><g class="FixedFurniture ElectricalAppliance IntegratedStove" fill="#ffffff" stroke="#000000" style="fill-opacity: 1; stroke-opacity: 1;" transform="matrix(0,-1,1,0,383.2764,959.2153)">
<g class="BoundaryPolygon" fill="none" stroke="none">
<polygon points="0.00,0.00 52.79,0.00 52.79,60.00 0.00,60.00 "/>
</g>
<g class="InnerPolygon">
<polygon points="2.00,2.00 51.03,2.00 51.03,58.00 2.00,58.00 "/>
</g>
<g class="OuterCircle">
<circle cx="14.077918562243934" cy="16" r="8"/>
<circle cx="38.714276046170816" cy="16" r="8"/>
<circle cx="14.077918562243934" cy="44" r="8"/>
<circle cx="38.714276046170816" cy="44" r="8"/>
</g>
<g class="Direction" fill-opacity="0.9" style="display: none;">
<polygon fill="#444444" points="28.16,55.20 28.16,44.58 25.15,44.58 25.15,55.20 21.35,55.20 26.65,60.00 31.96,55.20 28.16,55.20 "/>
</g>
<g class="Name" fill-opacity="0.9" style="display: none;">

</g>
<desc>Width:60 Height:90 Depth:30 Elevation:0</desc>
</g><g class="FixedFurniture Sink" fill="#ffffff" stroke="#000000" style="fill-opacity: 1; stroke-opacity: 1;" transform="matrix(0,-1,1,0,383.2714,1025.6296)">
<g class="BoundaryPolygon" fill="none" stroke="none">
<polygon points="0.00,0.00 54.55,0.00 54.55,60.00 0.00,60.00 "/>
</g>
<g class="InnerPolygon">
<polygon points="4.55,9.70 50.00,9.70 50.00,54.70 4.55,54.70 "/>
</g>
<g class="OuterDrain" stroke-width="0.8">
<circle cx="27.275369788092966" cy="32.2" r="3.5"/>
</g>
<g class="InnerDrain" stroke-width="0.8">
<circle cx="27.275369788092966" cy="32.2" r="2"/>
</g>
<g class="Faucet">
<polygon points="24.55,5.00 30.55,5.00 30.55,19.00 24.55,19.00 "/>
</g>
<g class="Direction" fill-opacity="0.9" style="display: none;">
<polygon fill="#444444" points="29.10,55.20 29.10,44.58 26.09,44.58 26.09,55.20 22.29,55.20 27.59,60.00 32.90,55.20 29.10,55.20 "/>
</g>
<g class="Name" fill-opacity="0.9" style="display: none;">

</g>
<desc>Width:60 Height:90 Depth:60 Elevation:0</desc>
</g><g class="FixedFurniture ElectricalAppliance Dishwasher" fill="#ffffff" stroke="#000000" style="fill-opacity: 1; stroke-opacity: 1;" transform="matrix(-0.8607,0,0,-1,494.0965,1084.7944)">
<g class="BoundaryPolygon">
<polygon points="0,0 60,0 60,60 0,60"/>
</g>
<g class="electricitySign" fill="none">
<path d="M0,0,30,38.9v-20L60,60"/>
</g>
<g class="Handle">
<path d="M10,59.6H49.8"/>
</g>
<g class="Direction" fill-opacity="0.9" style="display: none;">
<polygon fill="#444444" points="32.009 55.197 32.009 44.581 29 44.581 29 55.197 25.197 55.197 30.5 60 35.803 55.197 32.009 55.197"/>
</g>
<g class="Name" fill-opacity="0.9" style="display: none;">

</g>
<desc>Width:60 Height:90 Depth:60 Elevation:0</desc>
</g><g class="FixedFurniture Closet" fill="#ffffff" stroke="#000000" style="fill-opacity: 1; stroke-opacity: 1;" transform="matrix(-1,0,0,-1,833.5277,899.9403)">
<g class="BoundaryPolygon">
<polygon points="0.00,0.00 39.86,0.00 39.86,44.41 0.00,44.41 "/>
</g>
<g class="Direction" fill-opacity="0.9" style="display: none;">
<polygon fill="#444444" points="20.93,40.48 20.93,29.87 17.92,29.87 17.92,40.48 14.12,40.48 19.42,45.79 24.73,40.48 20.93,40.48 "/>
</g>
<g class="Name" fill-opacity="0.9" style="display: none;">

</g>
<desc>Width:60 Height:200 Depth:60 Elevation:0</desc>
</g><g class="FixedFurniture Toilet" fill="#ffffff" stroke="#000000" style="fill-opacity: 1; stroke-opacity: 1;" transform="matrix(1,0,0,0.9315,717.3934,751.42)">
<g class="BoundaryPolygon" fill="none" stroke="none">
<polygon points="0,0 41,0 41,71 0,71"/>
</g>
<g class="InnerPolygon">
<rect height="17.98" width="39.989" x="0.502" y="0.5"/>
<path d="M40.491,44.237S41.619,70.5,20.907,70.5C-.523,70.5.6,44.237.6,44.237L.5,18.48H40.491Z"/>
<rect height="3.03" width="6.357" x="17.318" y="7.975"/>
</g>
<desc>Width:41 Height:85 Depth:71 Elevation:0</desc>
</g><g class="FixedFurniture Shower" fill="#ffffff" stroke="#000000" style="fill-opacity: 1; stroke-opacity: 1;" transform="matrix(1,0,0,1,858.4832,751.4248)">
<g class="BoundaryPolygon" fill="none" stroke="none">
<polygon points="0,0 32,0 32,19 0,19"/>
</g>
<g class="InnerPolygon">
<rect height="6.1" width="11.2" x="3.7" y="0.5"/>
<rect height="6.1" width="11.2" x="17.6" y="0.5"/>
<rect height="6.1" width="3.4" x="28.7" y="0.5"/>
<rect height="6.1" width="3.2" x="0.5" y="0.5"/>
<path d="M14.9,8.5c0,1.5-0.4,3.3-1.6,5    c-0.4,0.6-1,1.1-1.1,1.7c-0.2,1.1,0.3,2.8,2.5,3.2c0.5,0.1,1.3,0.1,1.6,0.1h-0.1c0.3,0,1.1,0,1.6-0.1c2.2-0.4,2.7-2.1,2.5-3.2    c-0.1-0.6-0.7-1.1-1.1-1.7c-1.2-1.7-1.6-3.5-1.6-5"/>
<path d="M12.2,15.3c0.1,0.2,1.6,1.9,4.2,1.9 c2.4-0.1,3.7-1.7,3.9-1.9"/>
<path d="M14.9,0.5h2.7v8c-0.9,0-1.8,0-2.7,0l0,0 C14.9,5.9,14.9,3.2,14.9,0.5z"/>
</g>
<g class="Indicator">
<path d="M3.7,3.6C5,3.1,5.2,3,5.2,3 c0,1.1,0,0,0,1.1C5.2,4.1,5.1,4.1,3.7,3.6"/>
<path d="M28.7,3.6 C27.4,3.1,27.2,3,27.2,3c0,1.1,0,0,0,1.1C27.2,4.1,27.3,4.1,28.7,3.6"/>
</g>
<desc>Width:32 Height:97 Depth:19 Elevation:135</desc>
</g><g class="SelectionControls" fill="#0000ff" stroke="#0000ff" style="display: none;"><g class="rotateControl" style="display: none;"><circle cx="812.4443249999999" cy="775.6387500000001" r="5" style="stroke : none; fill-opacity: 0.5; cursor:crosshair"/></g><g class="ResizeNControl" style="display: none;"><circle cx="0" cy="0" r="5" style="stroke : none; fill-opacity: 0.5"/></g><g class="ResizeNEControl" style="display: none;"><circle cx="0" cy="0" r="5" style="stroke : none; fill-opacity: 0.5"/></g><g class="ResizeEControl" style="display: none;"><circle cx="0" cy="0" r="5" style="stroke : none; fill-opacity: 0.5"/></g><g class="ResizeSEControl" style="display: none;"><circle cx="0" cy="0" r="5" style="stroke : none; fill-opacity: 0.5"/></g><g class="ResizeSControl" style="display: none;"><circle cx="0" cy="0" r="5" style="stroke : none; fill-opacity: 0.5"/></g><g class="ResizeSWControl" style="display: none;"><circle cx="0" cy="0" r="5" style="stroke : none; fill-opacity: 0.5"/></g><g class="ResizeWControl" style="display: none;"><circle cx="0" cy="0" r="5" style="stroke : none; fill-opacity: 0.5"/></g><g class="ResizeNWControl" style="display: none;"><circle cx="0" cy="0" r="5" style="stroke : none; fill-opacity: 0.5"/></g><g class="removeControl" style="display: none;"><polygon points="784.62,805.64 840.27,805.64 840.27,845.80 784.62,845.80 " style="stroke : none; fill-opacity: 0.1"/></g><g class="copyPasteControl" style="display: none;"><polygon style="stroke : none; fill-opacity: 0.1"/></g><g class="translateControl" style="display: none;"><polygon points="784.62,805.64 840.27,805.64 840.27,845.80 784.62,845.80 " style="stroke : none; fill-opacity: 0.1; cursor:move"/></g></g><g class="SelectionControls" fill="#0000ff" stroke="#0000ff" style="display: none;"><polygon fill="none" points="703.23,751.42 910.41,751.42 910.41,900.08 703.23,900.08 " stroke="#0000ff" style=""/><g class="rotateControl" style="display: none;"><circle cx="806.822550012207" cy="721.4247" r="5" style="stroke : none; fill-opacity: 0.5; cursor:crosshair"/></g><g class="ResizeNControl" style="display: none;"><circle cx="0" cy="0" r="5" style="stroke : none; fill-opacity: 0.5"/></g><g class="ResizeNEControl" style="display: none;"><circle cx="0" cy="0" r="5" style="stroke : none; fill-opacity: 0.5"/></g><g class="ResizeEControl" style="display: none;"><circle cx="0" cy="0" r="5" style="stroke : none; fill-opacity: 0.5"/></g><g class="ResizeSEControl" style="display: none;"><circle cx="0" cy="0" r="5" style="stroke : none; fill-opacity: 0.5"/></g><g class="ResizeSControl" style="display: none;"><circle cx="0" cy="0" r="5" style="stroke : none; fill-opacity: 0.5"/></g><g class="ResizeSWControl" style="display: none;"><circle cx="0" cy="0" r="5" style="stroke : none; fill-opacity: 0.5"/></g><g class="ResizeWControl" style="display: none;"><circle cx="0" cy="0" r="5" style="stroke : none; fill-opacity: 0.5"/></g><g class="ResizeNWControl" style="display: none;"><circle cx="0" cy="0" r="5" style="stroke : none; fill-opacity: 0.5"/></g><g class="removeControl" style="display: none;"><polygon style="stroke : none; fill-opacity: 0.1"/></g><g class="copyPasteControl" style="display: none;"><polygon style="stroke : none; fill-opacity: 0.1"/></g><g class="translateControl" style="display: none;"><polygon style="stroke : none; fill-opacity: 0.1; cursor:move"/></g></g></g></g><g class="Floor" style="display: none;"><g class="Floorplan Floor-2" id="Floor-2" transform="matrix(1,0,0,1,0,0)"><g class="Space Closet WalkIn" fill="#ffffff" id="50aa14ca-2477-44e8-b05d-6e36856be0d9" stroke="#ffffff" style="fill-opacity: 1; stroke-opacity: 1; stroke-width: 1;"><polygon points="1507.61,900.74 1296.00,900.74 1296.00,750.91 1507.61,750.91 "/><g class="Dimension" transform="matrix(1,0,0,1,1296.0041,750.9087)"><g class="Visual" style="display: none;" transform="matrix(1,0,0,1,0,0)"><g class="DimensionMark" fill="#000000" id="mark1" stroke="none" style="fill-opacity: 1; pointer-events: visible;" transform="matrix(1,0,0,1,105.804,0)"><polygon points="-5,5,0,0,5,5"/></g><g class="DimensionMark" fill="#000000" id="mark2" stroke="none" style="fill-opacity: 1; pointer-events: visible;" transform="matrix(1,0,0,1,211.6081,74.9161)"><polygon points="-5,-5,0,0,-5,5"/></g><g class="DimensionMark" fill="#000000" id="mark3" stroke="none" style="fill-opacity: 1; pointer-events: visible;" transform="matrix(1,0,0,1,105.804,149.8323)"><polygon points="-5,-5,0,0,5,-5"/></g><g class="DimensionMark" fill="#000000" id="mark4" stroke="none" style="fill-opacity: 1; pointer-events: visible;" transform="matrix(1,0,0,1,0,74.9161)"><polygon points="5,5,0,0,5,-5"/></g></g><g class="SpaceDimensionsLabel" transform="matrix(1,0,0,1,79.7835,83.0284)"><g class="TextLabel NameLabel" id="NameLabel" style="display: none;"/><g class="TextLabel DimensionMeasureLabel" id="DimensionMeasureLabel" style="display: none;" transform="matrix(1,0,0,1,-116.3359,80.0938)"/></g></g></g><g class="Space Bedroom" fill="#ffffff" id="a7be4a98-bab1-4282-81ee-6209f848a05f" stroke="#ffffff" style="fill-opacity: 1; stroke-opacity: 1; stroke-width: 1;"><polygon points="1181.38,736.91 983.72,736.91 983.72,473.21 1181.38,473.21 "/><g class="Dimension" transform="matrix(1,0,0,1,983.7201,473.212)"><g class="Visual" style="display: none;" transform="matrix(1,0,0,1,0,0)"><g class="DimensionMark" fill="#000000" id="mark1" stroke="none" style="fill-opacity: 1; pointer-events: visible;" transform="matrix(1,0,0,1,98.8296,0)"><polygon points="-5,5,0,0,5,5"/></g><g class="DimensionMark" fill="#000000" id="mark2" stroke="none" style="fill-opacity: 1; pointer-events: visible;" transform="matrix(1,0,0,1,197.6591,131.8483)"><polygon points="-5,-5,0,0,-5,5"/></g><g class="DimensionMark" fill="#000000" id="mark3" stroke="none" style="fill-opacity: 1; pointer-events: visible;" transform="matrix(1,0,0,1,98.8296,263.6966)"><polygon points="-5,-5,0,0,5,-5"/></g><g class="DimensionMark" fill="#000000" id="mark4" stroke="none" style="fill-opacity: 1; pointer-events: visible;" transform="matrix(1,0,0,1,0,131.8483)"><polygon points="5,5,0,0,5,-5"/></g></g><g class="SpaceDimensionsLabel" transform="matrix(1,0,0,1,72.8705,132.9008)"><g class="TextLabel NameLabel" id="NameLabel" style="display: none;"/><g class="TextLabel DimensionMeasureLabel" id="DimensionMeasureLabel" style="display: none;" transform="matrix(1,0,0,1,-113.7031,80.0938)"/></g></g></g><g class="Space Bedroom" fill="#ffffff" id="56e6a66d-9b57-4303-8b2c-308b2720f608" stroke="#ffffff" style="fill-opacity: 1; stroke-opacity: 1; stroke-width: 1;"><polygon points="1507.61,736.91 1195.38,736.91 1195.38,473.21 1507.61,473.21 "/><g class="Dimension" transform="matrix(1,0,0,1,1195.3792,473.212)"><g class="Visual" style="display: none;" transform="matrix(1,0,0,1,0,0)"><g class="DimensionMark" fill="#000000" id="mark1" stroke="none" style="fill-opacity: 1; pointer-events: visible;" transform="matrix(1,0,0,1,156.1165,0)"><polygon points="-5,5,0,0,5,5"/></g><g class="DimensionMark" fill="#000000" id="mark2" stroke="none" style="fill-opacity: 1; pointer-events: visible;" transform="matrix(1,0,0,1,312.2329,131.8483)"><polygon points="-5,-5,0,0,-5,5"/></g><g class="DimensionMark" fill="#000000" id="mark3" stroke="none" style="fill-opacity: 1; pointer-events: visible;" transform="matrix(1,0,0,1,156.1165,263.6966)"><polygon points="-5,-5,0,0,5,-5"/></g><g class="DimensionMark" fill="#000000" id="mark4" stroke="none" style="fill-opacity: 1; pointer-events: visible;" transform="matrix(1,0,0,1,0,131.8483)"><polygon points="5,5,0,0,5,-5"/></g></g><g class="SpaceDimensionsLabel" transform="matrix(1,0,0,1,141.5829,138.3381)"><g class="TextLabel NameLabel" id="NameLabel" style="display: none;"/><g class="TextLabel DimensionMeasureLabel" id="DimensionMeasureLabel" style="display: none;" transform="matrix(1,0,0,1,-113.7031,80.0938)"/></g></g></g><g class="Space Hall" fill="#ffffff" id="38c89ae3-5a94-45cc-8548-0c5255b16e85" stroke="#ffffff" style="fill-opacity: 1; stroke-opacity: 1; stroke-width: 1;"><polygon points="1282.00,914.74 1507.61,914.74 1507.61,1084.57 983.72,1084.57 983.72,750.91 1282.00,750.91 "/><g class="Dimension" transform="matrix(1,0,0,1,983.7201,750.9087)"><g class="Visual" style="display: none;" transform="matrix(1,0,0,1,0,0)"><g class="DimensionMark" fill="#000000" id="mark1" stroke="none" style="fill-opacity: 1; pointer-events: visible;" transform="matrix(1,0,0,1,261.946,0)"><polygon points="-5,5,0,0,5,5"/></g><g class="DimensionMark" fill="#000000" id="mark2" stroke="none" style="fill-opacity: 1; pointer-events: visible;" transform="matrix(1,0,0,1,523.8921,166.8285)"><polygon points="-5,-5,0,0,-5,5"/></g><g class="DimensionMark" fill="#000000" id="mark3" stroke="none" style="fill-opacity: 1; pointer-events: visible;" transform="matrix(1,0,0,1,261.946,333.657)"><polygon points="-5,-5,0,0,5,-5"/></g><g class="DimensionMark" fill="#000000" id="mark4" stroke="none" style="fill-opacity: 1; pointer-events: visible;" transform="matrix(1,0,0,1,0,166.8285)"><polygon points="5,5,0,0,5,-5"/></g></g><g class="SpaceDimensionsLabel" transform="matrix(1,0,0,1,98.7783,172.415)"><g class="TextLabel NameLabel" id="NameLabel" style="display: none;"/><g class="TextLabel DimensionMeasureLabel" id="DimensionMeasureLabel" style="display: none;" transform="matrix(1,0,0,1,-91.0156,80.0938)"/></g></g></g><g class="Space Outdoor Balcony" fill="#ffffff" id="fd55c1bc-2f19-4517-aa4a-dc58fbc3093c" stroke="#000000" style="stroke-width: 1; fill-opacity: 1; stroke-opacity: 1;"><polygon points="983.72,459.21 983.72,314.69 1507.61,314.69 1507.61,459.21 983.72,459.21 983.72,459.21 "/><g class="Dimension" transform="matrix(1,0,0,1,983.7201,314.6914)"><g class="Visual" style="display: none;" transform="matrix(1,0,0,1,0,0)"><g class="DimensionMark" fill="#000000" id="mark1" stroke="none" style="fill-opacity: 1; pointer-events: visible;" transform="matrix(1,0,0,1,261.946,0)"><polygon points="-5,5,0,0,5,5"/></g><g class="DimensionMark" fill="#000000" id="mark2" stroke="none" style="fill-opacity: 1; pointer-events: visible;" transform="matrix(1,0,0,1,523.8921,72.2603)"><polygon points="-5,-5,0,0,-5,5"/></g><g class="DimensionMark" fill="#000000" id="mark3" stroke="none" style="fill-opacity: 1; pointer-events: visible;" transform="matrix(1,0,0,1,261.946,144.5206)"><polygon points="-5,-5,0,0,5,-5"/></g><g class="DimensionMark" fill="#000000" id="mark4" stroke="none" style="fill-opacity: 1; pointer-events: visible;" transform="matrix(1,0,0,1,0,72.2603)"><polygon points="5,5,0,0,5,-5"/></g></g><g class="SpaceDimensionsLabel" transform="matrix(1,0,0,1,180.8843,38.8327)"><g class="TextLabel NameLabel" id="NameLabel" style="display: none;"/><g class="TextLabel DimensionMeasureLabel" id="DimensionMeasureLabel" style="display: none;" transform="matrix(1,0,0,1,-63.7344,80.0938)"/></g></g></g><g class="Wall External" fill="#000000" id="Wall" stroke="#000000" style="fill-opacity: 1; stroke-opacity: 1; stroke-width: 1;"><polygon points="983.72,473.21 1507.61,473.21 1521.61,459.21 969.72,459.21 "/><g class="Door Swing Beside" fill="#ffffff" id="Door" stroke="#000000" style="fill-opacity: 1; stroke-width: 1; stroke-opacity: 1;"><polygon points="1196.56,473.21 1290.07,473.21 1290.07,459.21 1196.56,459.21 "/><g class="Panel Left Positive" fill="none" id="Panel" style=""><g class="PanelArea" fill="none" id="PanelArea" stroke="none" style=""><polygon points="1196.56,473.21 1290.07,473.21 1290.07,459.21 1196.56,459.21 "/></g><path d="M1290.07,459.21 q0.00,-93.51 -93.51,-93.51 l0.00,93.51Z"/></g></g><g class="Window Regular" fill="#f0f0ff" id="Window" stroke="#000000" style="fill-opacity: 1; stroke-width: 1; stroke-opacity: 1;"><polygon points="1038.19,473.21 1179.32,473.21 1179.32,459.21 1038.19,459.21 "/><g class="Glass" id="Glass"><polygon points="1038.19,473.21 1179.32,473.21 1179.32,459.21 1038.19,459.21 "/></g><g class="Panel" id="Panel"><line x1="1045.68994140625" x2="1171.8199462890625" y1="466.2099914550781" y2="466.2099914550781"/><line x1="1045.68994140625" x2="1045.68994140625" y1="473.2099914550781" y2="459.2099914550781"/><line x1="1171.8199462890625" x2="1171.8199462890625" y1="473.2099914550781" y2="459.2099914550781"/></g></g><g class="Window Regular" fill="#f0f0ff" id="Window" stroke="#000000" style="fill-opacity: 1; stroke-width: 1; stroke-opacity: 1;"><polygon points="1300.80,473.21 1441.27,473.21 1441.27,459.21 1300.80,459.21 "/><g class="Glass" id="Glass"><polygon points="1300.80,473.21 1441.27,473.21 1441.27,459.21 1300.80,459.21 "/></g><g class="Panel" id="Panel"><line x1="1308.300048828125" x2="1433.77001953125" y1="466.2099914550781" y2="466.2099914550781"/><line x1="1308.300048828125" x2="1308.300048828125" y1="473.2099914550781" y2="459.2099914550781"/><line x1="1433.77001953125" x2="1433.77001953125" y1="473.2099914550781" y2="459.2099914550781"/></g></g></g><g class="Wall External" fill="#000000" id="Wall" stroke="#000000" style="fill-opacity: 1; stroke-opacity: 1; stroke-width: 1;"><polygon points="1507.61,473.21 1507.61,1084.57 1521.61,1098.57 1521.61,459.21 "/></g><g class="Wall External" fill="#000000" id="Wall" stroke="#000000" style="fill-opacity: 1; stroke-opacity: 1; stroke-width: 1;"><polygon points="1507.61,1084.57 983.72,1084.57 969.72,1098.57 1521.61,1098.57 "/><g class="Window Regular" fill="#f0f0ff" id="Window" stroke="#000000" style="fill-opacity: 1; stroke-width: 1; stroke-opacity: 1;"><polygon points="1182.36,1084.57 1011.59,1084.57 1011.59,1098.57 1182.36,1098.57 "/><g class="Glass" id="Glass"><polygon points="1182.36,1084.57 1011.59,1084.57 1011.59,1098.57 1182.36,1098.57 "/></g><g class="Panel" id="Panel"><line x1="1174.8599853515625" x2="1019.0900268554688" y1="1091.5699462890625" y2="1091.5699462890625"/><line x1="1174.8599853515625" x2="1174.8599853515625" y1="1084.5699462890625" y2="1098.5699462890625"/><line x1="1019.0900268554688" x2="1019.0900268554688" y1="1084.5699462890625" y2="1098.5699462890625"/></g></g><g class="Window Regular" fill="#f0f0ff" id="Window" stroke="#000000" style="fill-opacity: 1; stroke-width: 1; stroke-opacity: 1;"><polygon points="1388.66,1084.57 1217.88,1084.57 1217.88,1098.57 1388.66,1098.57 "/><g class="Glass" id="Glass"><polygon points="1388.66,1084.57 1217.88,1084.57 1217.88,1098.57 1388.66,1098.57 "/></g><g class="Panel" id="Panel"><line x1="1381.1600341796875" x2="1225.3800048828125" y1="1091.5699462890625" y2="1091.5699462890625"/><line x1="1381.1600341796875" x2="1381.1600341796875" y1="1084.5699462890625" y2="1098.5699462890625"/><line x1="1225.3800048828125" x2="1225.3800048828125" y1="1084.5699462890625" y2="1098.5699462890625"/></g></g></g><g class="Wall External" fill="#000000" id="Wall" stroke="#000000" style="fill-opacity: 1; stroke-opacity: 1; stroke-width: 1;"><polygon points="983.72,1084.57 983.72,473.21 969.72,459.21 969.72,1098.57 "/></g><g class="Wall" fill="#000000" id="Wall" stroke="#000000" style="fill-opacity: 1; stroke-opacity: 1; stroke-width: 1;"><polygon points="969.72,750.91 1521.61,750.91 1521.61,736.91 969.72,736.91 "/><g class="Door Swing Beside" fill="#ffffff" id="Door" stroke="#000000" style="fill-opacity: 1; stroke-width: 1; stroke-opacity: 1;"><polygon points="1094.88,750.91 1168.90,750.91 1168.90,736.91 1094.88,736.91 "/><g class="Panel Right Positive" fill="none" id="Panel" style=""><g class="PanelArea" fill="none" id="PanelArea" stroke="none" style=""><polygon points="1094.88,750.91 1168.90,750.91 1168.90,736.91 1094.88,736.91 "/></g><path d="M1094.88,736.91 q0.00,-74.02 74.02,-74.02 l0.00,74.02Z"/></g></g><g class="Door Swing Beside" fill="#ffffff" id="Door" stroke="#000000" style="fill-opacity: 1; stroke-width: 1; stroke-opacity: 1;"><polygon points="1205.34,750.91 1279.65,750.91 1279.65,736.91 1205.34,736.91 "/><g class="Panel Left Positive" fill="none" id="Panel" style=""><g class="PanelArea" fill="none" id="PanelArea" stroke="none" style=""><polygon points="1205.34,750.91 1279.65,750.91 1279.65,736.91 1205.34,736.91 "/></g><path d="M1279.65,736.91 q0.00,-74.31 -74.31,-74.31 l0.00,74.31Z"/></g></g></g><g class="Wall" fill="#000000" id="Wall" stroke="#000000" style="fill-opacity: 1; stroke-opacity: 1; stroke-width: 1;"><polygon points="1282.00,736.91 1282.00,914.74 1296.00,900.74 1296.00,736.91 "/><g class="Door Swing Beside" fill="#ffffff" id="Door" stroke="#000000" style="fill-opacity: 1; stroke-width: 1; stroke-opacity: 1;"><polygon points="1282.00,805.50 1282.00,898.75 1296.00,898.75 1296.00,805.50 "/><g class="Panel Right Negative" fill="none" id="Panel" style=""><g class="PanelArea" fill="none" id="PanelArea" stroke="none" style=""><polygon points="1282.00,805.50 1282.00,898.75 1296.00,898.75 1296.00,805.50 "/></g><path d="M1282.00,898.75 q-93.25,0.00 -93.25,-93.25 l93.25,0.00Z"/></g></g></g><g class="Wall" fill="#000000" id="Wall" stroke="#000000" style="fill-opacity: 1; stroke-opacity: 1; stroke-width: 1;"><polygon points="1282.00,914.74 1521.61,914.74 1521.61,900.74 1296.00,900.74 "/></g><g class="Wall" fill="#000000" id="Wall" stroke="#000000" style="fill-opacity: 1; stroke-opacity: 1; stroke-width: 1;"><polygon points="1181.38,459.21 1181.38,750.91 1195.38,750.91 1195.38,459.21 "/></g><g class="Stairs" fill="#ffffff" id="Stairs" stroke="#000000" style="fill-opacity: 1; stroke-opacity: 1;"><g class="Flight" id="Flight"><polygon points="1282.00,914.74 1410.45,914.74 1410.45,998.28 1282.00,998.28 "/><g class="WalkinLine "><path d="M1282.00,956.51 L1410.45,956.51 " fill="none" stroke="#d3d3d3" style="pointer-events: none; marker-end: none;"/><defs><marker fill="#d3d3d3" id="Marker3" markerHeight="12" markerWidth="12" orient="auto" refX="11" refY="6" stroke="#d3d3d3" style="pointer-events: none;" viewBox="0 0 12 12"><polygon points="0.00,0.00 0.00,12.00 10.00,6.00 0.00,0.00 "/></marker></defs></g><g class="Steps" id="Steps"><line x1="1282" x2="1282" y1="914.739990234375" y2="998.280029296875"/><line x1="1307.689990234375" x2="1307.689990234375" y1="914.739990234375" y2="998.280029296875"/><line x1="1333.37998046875" x2="1333.37998046875" y1="914.739990234375" y2="998.280029296875"/><line x1="1359.069970703125" x2="1359.069970703125" y1="914.739990234375" y2="998.280029296875"/><line x1="1384.7599609375" x2="1384.7599609375" y1="914.739990234375" y2="998.280029296875"/><line x1="1410.449951171875" x2="1410.449951171875" y1="914.739990234375" y2="998.280029296875"/></g></g><g class="Winding" id="Winding"><polygon points="1410.45,998.28 1410.45,914.74 1507.61,914.74 1507.61,998.28 "/><g class="WalkinLine "><path d="M1410.45,956.51 L1459.03,956.51 L1459.03,998.28 " fill="none" stroke="#d3d3d3" style="pointer-events: none; marker-end: none;"/><defs><marker fill="#d3d3d3" id="Marker4" markerHeight="12" markerWidth="12" orient="auto" refX="11" refY="6" stroke="#d3d3d3" style="pointer-events: none;" viewBox="0 0 12 12"><polygon points="0.00,0.00 0.00,12.00 10.00,6.00 0.00,0.00 "/></marker></defs></g><g class="Steps" id="Steps"><line x1="1410.449951171875" x2="1410.449951171875" y1="998.280029296875" y2="914.739990234375"/><line x1="1410.449951171875" x2="1507.6099853515625" y1="998.280029296875" y2="998.280029296875"/></g></g><g class="Winding" id="Winding"><polygon points="1410.45,998.28 1507.61,998.28 1507.61,1084.57 1410.45,1084.57 "/><g class="WalkinLine "><path d="M1459.03,998.28 L1459.03,1041.42 L1410.45,1041.42 " fill="none" stroke="#d3d3d3" style="pointer-events: none; marker-end: none;"/><defs><marker fill="#d3d3d3" id="Marker5" markerHeight="12" markerWidth="12" orient="auto" refX="11" refY="6" stroke="#d3d3d3" style="pointer-events: none;" viewBox="0 0 12 12"><polygon points="0.00,0.00 0.00,12.00 10.00,6.00 0.00,0.00 "/></marker></defs></g><g class="Steps" id="Steps"><line x1="1410.449951171875" x2="1507.6099853515625" y1="998.280029296875" y2="998.280029296875"/><line x1="1410.449951171875" x2="1410.449951171875" y1="998.280029296875" y2="1084.5699462890625"/></g></g><g class="Flight" id="Flight"><polygon points="1410.45,1084.57 1282.00,1084.57 1282.00,998.28 1410.45,998.28 "/><g class="WalkinLine "><path d="M1410.45,1041.42 L1282.00,1041.42 " fill="none" stroke="#d3d3d3" style='pointer-events: none; marker-end: url("#Marker6");'/><defs><marker fill="#d3d3d3" id="Marker6" markerHeight="12" markerWidth="12" orient="auto" refX="11" refY="6" stroke="#d3d3d3" style="pointer-events: none;" viewBox="0 0 12 12"><polygon points="0.00,0.00 0.00,12.00 10.00,6.00 0.00,0.00 "/></marker></defs></g><g class="Steps" id="Steps"><line x1="1410.449951171875" x2="1410.449951171875" y1="1084.5699462890625" y2="998.280029296875"/><line x1="1384.7599609375" x2="1384.7599609375" y1="1084.5699462890625" y2="998.280029296875"/><line x1="1359.069970703125" x2="1359.069970703125" y1="1084.5699462890625" y2="998.280029296875"/><line x1="1333.37998046875" x2="1333.37998046875" y1="1084.5699462890625" y2="998.280029296875"/><line x1="1307.689990234375" x2="1307.689990234375" y1="1084.5699462890625" y2="998.280029296875"/><line x1="1282" x2="1282" y1="1084.5699462890625" y2="998.280029296875"/></g></g></g><g class="Railing" fill="#ffffff" id="Railing" stroke="#000000" style="fill-opacity: 1; stroke-opacity: 1; stroke-width: 1;"><polygon points="969.72,459.21 969.72,300.69 983.72,314.69 983.72,459.21 " style="stroke-dasharray: 158.52, 19.799, 158.52;"/></g><g class="Railing" fill="#ffffff" id="Railing" stroke="#000000" style="fill-opacity: 1; stroke-opacity: 1; stroke-width: 1;"><polygon points="983.72,314.69 1507.61,314.69 1521.61,300.69 969.72,300.69 " style="stroke-dasharray: 523.89, 19.799, 551.89, 19.799;"/></g><g class="Railing" fill="#ffffff" id="Railing" stroke="#000000" style="fill-opacity: 1; stroke-opacity: 1; stroke-width: 1;"><polygon points="1507.61,314.69 1507.61,459.21 1521.61,459.21 1521.61,300.69 " style="stroke-dasharray: 317.04, 19.799;"/></g><g class="Railing" fill="#ffffff" id="Railing" stroke="#000000" style="fill-opacity: 1; stroke-opacity: 1; stroke-width: 1;"><polygon points="1282.00,914.74 1282.00,1005.17 1296.00,991.17 1296.00,914.74 " style="stroke-dasharray: 90.43, 19.799, 90.43;"/></g><g class="Railing" fill="#ffffff" id="Railing" stroke="#000000" style="fill-opacity: 1; stroke-opacity: 1; stroke-width: 1;"><polygon points="1282.00,1005.17 1410.45,1005.17 1410.45,991.17 1296.00,991.17 " style="stroke-dasharray: 256.9, 19.799;"/></g></g></g><g class="FloorsCompose" style="display: none;"><g class="ComposeElement" transform="matrix(1,0,0,1,0,0)"><use xlink:href="#Floor-1"/><g class="TextLabel" id="FloorNumberLabel" transform="matrix(1,0,0,1,371.1961,1151.623)"/></g><g class="ComposeElement" transform="matrix(1,0,0,1,0,0)"><use xlink:href="#Floor-2"/><g class="TextLabel" id="FloorNumberLabel" transform="matrix(1,0,0,1,972.2615,1145.7852)"/></g></g></g></svg>