<?xml version="1.0" encoding="utf-8"?>
<svg height="895.9700355529785" id="temp" version="1.1" viewBox="0 0 1128.0200729370117 895.9700355529785" width="1128.0200729370117" xmlns="http://www.w3.org/2000/svg" xmlns:xlink="http://www.w3.org/1999/xlink"><defs/><g class="Model v1-1" id="Model"><g class="Floor"><g class="Floorplan Floor-1" id="Floor-1"><g class="Space LivingRoom" fill="#ffffff" id="a484704b-f4dc-4c2d-9dce-2e265247f85a" stroke="#ffffff" style="fill-opacity: 1; stroke-opacity: 1; stroke-width: 1;"><polygon points="420.07,798.01 62.82,798.01 62.82,263.74 420.07,263.74 "/><g class="Dimension" transform="matrix(1,0,0,1,62.8181,263.7358)"><g class="Visual" style="display: none;" transform="matrix(1,0,0,1,0,0)"><g class="DimensionMark" fill="#000000" id="mark1" stroke="none" style="fill-opacity: 1; pointer-events: visible;" transform="matrix(1,0,0,1,178.6274,0)"><polygon points="-5,5,0,0,5,5"/></g><g class="DimensionMark" fill="#000000" id="mark2" stroke="none" style="fill-opacity: 1; pointer-events: visible;" transform="matrix(1,0,0,1,357.2549,267.1378)"><polygon points="-5,-5,0,0,-5,5"/></g><g class="DimensionMark" fill="#000000" id="mark3" stroke="none" style="fill-opacity: 1; pointer-events: visible;" transform="matrix(1,0,0,1,178.6274,534.2756)"><polygon points="-5,-5,0,0,5,-5"/></g><g class="DimensionMark" fill="#000000" id="mark4" stroke="none" style="fill-opacity: 1; pointer-events: visible;" transform="matrix(1,0,0,1,0,267.1378)"><polygon points="5,5,0,0,5,-5"/></g></g><g class="SpaceDimensionsLabel" transform="matrix(1,0,0,1,168.2645,268.0014)"><g class="TextLabel NameLabel" id="NameLabel" style="display: block;"/><g class="TextLabel DimensionMeasureLabel" id="DimensionMeasureLabel" style="display: none;" transform="matrix(1,0,0,1,-112.6953,79.3125)"/></g></g></g><g class="Space Room" fill="#ffffff" id="0cd49634-aca2-48c4-86e9-328ce86e1432" stroke="#ffffff" style="fill-opacity: 1; stroke-opacity: 1; stroke-width: 1;"><polygon points="792.34,646.52 428.07,646.52 428.07,263.74 792.34,263.74 "/><g class="Dimension" transform="matrix(1,0,0,1,428.0729,263.7358)"><g class="Visual" style="display: none;" transform="matrix(1,0,0,1,0,0)"><g class="DimensionMark" fill="#000000" id="mark1" stroke="none" style="fill-opacity: 1; pointer-events: visible;" transform="matrix(1,0,0,1,182.1349,0)"><polygon points="-5,5,0,0,5,5"/></g><g class="DimensionMark" fill="#000000" id="mark2" stroke="none" style="fill-opacity: 1; pointer-events: visible;" transform="matrix(1,0,0,1,364.2697,191.3914)"><polygon points="-5,-5,0,0,-5,5"/></g><g class="DimensionMark" fill="#000000" id="mark3" stroke="none" style="fill-opacity: 1; pointer-events: visible;" transform="matrix(1,0,0,1,182.1349,382.7828)"><polygon points="-5,-5,0,0,5,-5"/></g><g class="DimensionMark" fill="#000000" id="mark4" stroke="none" style="fill-opacity: 1; pointer-events: visible;" transform="matrix(1,0,0,1,0,191.3914)"><polygon points="5,5,0,0,5,-5"/></g></g><g class="SpaceDimensionsLabel" transform="matrix(1,0,0,1,179.5441,175.2263)"><g class="TextLabel NameLabel" id="NameLabel" style="display: block;"/><g class="TextLabel DimensionMeasureLabel" id="DimensionMeasureLabel" style="display: none;" transform="matrix(1,0,0,1,-125.6484,79.3125)"/></g></g></g><g class="Space Kitchen" fill="#ffffff" id="fd912d84-4528-4b5d-a5ab-e49629a3dcbb" stroke="#ffffff" style="fill-opacity: 1; stroke-opacity: 1; stroke-width: 1;"><polygon points="1110.02,524.71 1045.02,524.71 1045.02,593.06 890.81,593.06 890.81,646.52 800.34,646.52 800.34,263.74 1110.02,263.74 "/><g class="Dimension" transform="matrix(1,0,0,1,800.3426,263.7358)"><g class="Visual" style="display: none;" transform="matrix(1,0,0,1,0,0)"><g class="DimensionMark" fill="#000000" id="mark1" stroke="none" style="fill-opacity: 1; pointer-events: visible;" transform="matrix(1,0,0,1,154.8383,0)"><polygon points="-5,5,0,0,5,5"/></g><g class="DimensionMark" fill="#000000" id="mark2" stroke="none" style="fill-opacity: 1; pointer-events: visible;" transform="matrix(1,0,0,1,309.6765,191.3914)"><polygon points="-5,-5,0,0,-5,5"/></g><g class="DimensionMark" fill="#000000" id="mark3" stroke="none" style="fill-opacity: 1; pointer-events: visible;" transform="matrix(1,0,0,1,154.8383,329.3215)"><polygon points="-5,-5,0,0,5,-5"/></g><g class="DimensionMark" fill="#000000" id="mark4" stroke="none" style="fill-opacity: 1; pointer-events: visible;" transform="matrix(1,0,0,1,0,191.3914)"><polygon points="5,5,0,0,5,-5"/></g></g><g class="SpaceDimensionsLabel" transform="matrix(1,0,0,1,117.0963,142.14)"><g class="TextLabel NameLabel" id="NameLabel" style="display: block;"/><g class="TextLabel DimensionMeasureLabel" id="DimensionMeasureLabel" style="display: none;" transform="matrix(1,0,0,1,-126.9453,79.3125)"/></g></g></g><g class="Space Undefined" fill="#ffffff" id="c8f4b97f-f924-41d4-b963-fe2240e360b3" stroke="#ffffff" style="fill-opacity: 1; stroke-opacity: 1; stroke-width: 1;"><polygon points="890.81,798.01 428.07,798.01 428.07,654.52 890.81,654.52 "/><g class="Dimension" transform="matrix(1,0,0,1,428.0729,654.5186)"><g class="Visual" style="display: none;" transform="matrix(1,0,0,1,0,0)"><g class="DimensionMark" fill="#000000" id="mark1" stroke="none" style="fill-opacity: 1; pointer-events: visible;" transform="matrix(1,0,0,1,231.3665,0)"><polygon points="-5,5,0,0,5,5"/></g><g class="DimensionMark" fill="#000000" id="mark2" stroke="none" style="fill-opacity: 1; pointer-events: visible;" transform="matrix(1,0,0,1,462.7329,71.7464)"><polygon points="-5,-5,0,0,-5,5"/></g><g class="DimensionMark" fill="#000000" id="mark3" stroke="none" style="fill-opacity: 1; pointer-events: visible;" transform="matrix(1,0,0,1,231.3665,143.4928)"><polygon points="-5,-5,0,0,5,-5"/></g><g class="DimensionMark" fill="#000000" id="mark4" stroke="none" style="fill-opacity: 1; pointer-events: visible;" transform="matrix(1,0,0,1,0,71.7464)"><polygon points="5,5,0,0,5,-5"/></g></g><g class="SpaceDimensionsLabel" transform="matrix(1,0,0,1,215.2391,71.7464)"><g class="TextLabel NameLabel" id="NameLabel" style="display: block;"/><g class="TextLabel DimensionMeasureLabel" id="DimensionMeasureLabel" style="display: none;" transform="matrix(1,0,0,1,-40.8594,79.2812)"/></g></g></g><g class="Space UserDefined" fill="#ffffff" id="48721e11-d9dc-4266-99a5-cd07d8d896cc" stroke="#ffffff" style="fill-opacity: 1; stroke-opacity: 1; stroke-width: 1;"><polygon points="898.81,797.96 898.52,600.06 1110.02,600.06 1110.02,798.01 898.81,797.96 "/><g class="Dimension" transform="matrix(1,0,0,1,898.6625,600.0574)"><g class="Visual" style="display: none;" transform="matrix(1,0,0,1,0,0)"><g class="DimensionMark" fill="#000000" id="mark1" stroke="none" style="fill-opacity: 1; pointer-events: visible;" transform="matrix(1,0,0,1,105.6066,0)"><polygon points="-5,5,0,0,5,5"/></g><g class="DimensionMark" fill="#000000" id="mark2" stroke="none" style="fill-opacity: 1; pointer-events: visible;" transform="matrix(1,0,0,1,211.3566,98.9768)"><polygon points="-5,-5,0,0,-5,5"/></g><g class="DimensionMark" fill="#000000" id="mark3" stroke="none" style="fill-opacity: 1; pointer-events: visible;" transform="matrix(1,0,0,1,105.6066,197.9306)"><polygon points="-5,-5,0,0,5,-5"/></g><g class="DimensionMark" fill="#000000" id="mark4" stroke="none" style="fill-opacity: 1; pointer-events: visible;" transform="matrix(1,0,0,1,0,98.9768)"><polygon points="5,5,0,0,5,-5"/></g></g><g class="SpaceDimensionsLabel" transform="matrix(1,0,0,1,50.4136,123.1231)"><g class="TextLabel NameLabel" id="NameLabel" style="display: block;"/><g class="TextLabel DimensionMeasureLabel" id="DimensionMeasureLabel" style="display: none;" transform="matrix(1,0,0,1,-79.0156,79.3125)"/></g></g></g><g class="Space Outdoor" fill="#ffffff" id="3536e59e-7979-4d21-ab22-427c3d95bdc7" stroke="#000000" style="fill-opacity: 1; stroke-opacity: 1; stroke-width: 1;"><polygon points="60.30,245.74 60.30,59.62 420.07,59.62 420.07,245.74 60.30,245.74 "/><g class="Dimension" transform="matrix(1,0,0,1,60.2961,59.6248)"><g class="Visual" style="display: none;" transform="matrix(1,0,0,1,0,0)"><g class="DimensionMark" fill="#000000" id="mark1" stroke="none" style="fill-opacity: 1; pointer-events: visible;" transform="matrix(1,0,0,1,179.8884,0)"><polygon points="-5,5,0,0,5,5"/></g><g class="DimensionMark" fill="#000000" id="mark2" stroke="none" style="fill-opacity: 1; pointer-events: visible;" transform="matrix(1,0,0,1,359.7768,93.0555)"><polygon points="-5,-5,0,0,-5,5"/></g><g class="DimensionMark" fill="#000000" id="mark3" stroke="none" style="fill-opacity: 1; pointer-events: visible;" transform="matrix(1,0,0,1,179.8884,186.111)"><polygon points="-5,-5,0,0,5,-5"/></g><g class="DimensionMark" fill="#000000" id="mark4" stroke="none" style="fill-opacity: 1; pointer-events: visible;" transform="matrix(1,0,0,1,0,93.0555)"><polygon points="5,5,0,0,5,-5"/></g></g><g class="SpaceDimensionsLabel" transform="matrix(1,0,0,1,179.8884,93.0555)"><g class="TextLabel NameLabel" id="NameLabel" style="display: block;"/><g class="TextLabel DimensionMeasureLabel" id="DimensionMeasureLabel" style="display: none;" transform="matrix(1,0,0,1,-55.9844,79.5469)"/></g></g></g><g class="Wall External" fill="#000000" id="Wall" stroke="#000000" style="fill-opacity: 1; stroke-opacity: 1; stroke-width: 1;"><polygon points="62.82,798.01 1110.02,798.01 1128.02,816.01 44.82,816.01 "/><g class="Door Swing Opposite" fill="#ffffff" id="Door" stroke="#000000" style="fill-opacity: 1; stroke-width: 1; stroke-opacity: 1;"><polygon points="553.37,798.01 633.33,798.01 633.33,816.01 553.37,816.01 "/><g class="Panel Right Negative" fill="none" id="Panel" style=""><g class="PanelArea" fill="none" id="PanelArea" stroke="none" style=""><polygon points="553.37,798.01 633.33,798.01 633.33,816.01 553.37,816.01 "/></g><path d="M633.33,798.01 q0.00,-79.96 -79.96,-79.96 l0.00,79.96Z"/></g><g class="Panel Left Positive" fill="none" id="Panel" style=""><g class="PanelArea" fill="none" id="PanelArea" stroke="none" style=""><polygon points="553.37,798.01 633.33,798.01 633.33,816.01 553.37,816.01 "/></g><path d="M633.33,816.01 q0.00,79.96 -79.96,79.96 l0.00,-79.96Z"/></g></g></g><g class="Wall External" fill="#000000" id="Wall" stroke="#000000" style="fill-opacity: 1; stroke-opacity: 1; stroke-width: 1;"><polygon points="1128.02,816.01 1128.02,600.06 1110.02,600.06 1110.02,798.01 "/></g><g class="Wall External" fill="#000000" id="Wall" stroke="#000000" style="fill-opacity: 1; stroke-opacity: 1; stroke-width: 1;"><polygon points="1128.02,600.06 1128.02,524.71 1045.02,524.71 1045.02,593.06 "/></g><g class="Wall External" fill="#000000" id="Wall" stroke="#000000" style="fill-opacity: 1; stroke-opacity: 1; stroke-width: 1;"><polygon points="1128.02,524.71 1128.02,245.74 1110.02,263.74 1110.02,524.71 "/></g><g class="Wall External" fill="#000000" id="Wall" stroke="#000000" style="fill-opacity: 1; stroke-opacity: 1; stroke-width: 1;"><polygon points="1110.02,263.74 62.82,263.74 44.82,245.74 1128.02,245.74 "/><g class="Door Swing Beside" fill="#ffffff" id="Door" stroke="#000000" style="fill-opacity: 1; stroke-width: 1; stroke-opacity: 1;"><polygon points="400.99,263.74 327.94,263.74 327.94,245.74 400.99,245.74 "/><g class="Panel Left Positive" fill="none" id="Panel" style=""><g class="PanelArea" fill="none" id="PanelArea" stroke="none" style=""><polygon points="400.99,263.74 327.94,263.74 327.94,245.74 400.99,245.74 "/></g><path d="M327.94,245.74 q0.00,-73.05 73.05,-73.05 l0.00,73.05Z"/></g></g><g class="Window Regular" fill="#f0f0ff" id="Window" stroke="#000000" style="fill-opacity: 1; stroke-width: 1; stroke-opacity: 1;"><polygon points="295.26,263.74 106.11,263.74 106.11,245.74 295.26,245.74 "/><g class="Glass" id="Glass"><polygon points="295.26,263.74 106.11,263.74 106.11,245.74 295.26,245.74 "/></g><g class="Panel" id="Panel"><line x1="287.76304553373086" x2="113.60503451844443" y1="254.73580158473754" y2="254.73580158473754"/><line x1="287.76304553373086" x2="287.76304553373086" y1="263.73580158473754" y2="245.73580158473754"/><line x1="113.60503451844443" x2="113.60503451844443" y1="263.73580158473754" y2="245.73580158473754"/></g></g><g class="Window Regular" fill="#f0f0ff" id="Window" stroke="#000000" style="fill-opacity: 1; stroke-width: 1; stroke-opacity: 1;"><polygon points="703.57,263.74 517.49,263.74 517.49,245.74 703.57,245.74 "/><g class="Glass" id="Glass"><polygon points="703.57,263.74 517.49,263.74 517.49,245.74 703.57,245.74 "/></g><g class="Panel" id="Panel"><line x1="696.0675327252636" x2="524.985261726486" y1="254.7358015847375" y2="254.73580158473754"/><line x1="696.0675327252636" x2="696.0675327252636" y1="263.7358015847375" y2="245.7358015847375"/><line x1="524.985261726486" x2="524.985261726486" y1="263.73580158473754" y2="245.73580158473754"/></g></g><g class="Window Regular" fill="#f0f0ff" id="Window" stroke="#000000" style="fill-opacity: 1; stroke-width: 1; stroke-opacity: 1;"><polygon points="1008.83,263.74 849.67,263.74 849.67,245.74 1008.83,245.74 "/><g class="Glass" id="Glass"><polygon points="1008.83,263.74 849.67,263.74 849.67,245.74 1008.83,245.74 "/></g><g class="Panel" id="Panel"><line x1="1001.3347234972457" x2="857.1651776429194" y1="254.7358015847375" y2="254.7358015847375"/><line x1="1001.3347234972457" x2="1001.3347234972457" y1="263.7358015847375" y2="245.7358015847375"/><line x1="857.1651776429194" x2="857.1651776429194" y1="263.7358015847375" y2="245.7358015847375"/></g></g></g><g class="Wall External" fill="#000000" id="Wall" stroke="#000000" style="fill-opacity: 1; stroke-opacity: 1; stroke-width: 1;"><polygon points="62.82,263.74 62.82,798.01 44.82,816.01 44.82,245.74 "/></g><g class="Wall" fill="#000000" id="Wall" stroke="#000000" style="fill-opacity: 1; stroke-opacity: 1; stroke-width: 1;"><polygon points="1128.02,600.06 898.81,600.06 890.81,593.06 1045.02,593.06 "/></g><g class="Wall" fill="#000000" id="Wall" stroke="#000000" style="fill-opacity: 1; stroke-opacity: 1; stroke-width: 1;"><polygon points="898.81,600.06 898.81,798.01 890.81,798.01 890.81,593.06 "/><g class="Door Swing Beside" fill="#ffffff" id="Door" stroke="#000000" style="fill-opacity: 1; stroke-width: 1; stroke-opacity: 1;"><polygon points="898.81,674.33 898.81,738.77 890.81,738.77 890.81,674.33 "/><g class="Panel Left Positive" fill="none" id="Panel" style=""><g class="PanelArea" fill="none" id="PanelArea" stroke="none" style=""><polygon points="898.81,674.33 898.81,738.77 890.81,738.77 890.81,674.33 "/></g><path d="M890.81,738.77 q-64.44,0.00 -64.44,-64.44 l64.44,0.00Z"/></g></g></g><g class="Wall" fill="#000000" id="Wall" stroke="#000000" style="fill-opacity: 1; stroke-opacity: 1; stroke-width: 1;"><polygon points="890.81,654.52 428.07,654.52 420.07,646.52 890.81,646.52 "/><g class="Door Swing Beside" fill="#ffffff" id="Door" stroke="#000000" style="fill-opacity: 1; stroke-width: 1; stroke-opacity: 1;"><polygon points="878.61,654.52 815.86,654.52 815.86,646.52 878.61,646.52 "/><g class="Panel Right Positive" fill="none" id="Panel" style=""><g class="PanelArea" fill="none" id="PanelArea" stroke="none" style=""><polygon points="878.61,654.52 815.86,654.52 815.86,646.52 878.61,646.52 "/></g><path d="M878.61,646.52 q0.00,-62.75 -62.75,-62.75 l0.00,62.75Z"/></g></g><g class="Door Swing Beside" fill="#ffffff" id="Door" stroke="#000000" style="fill-opacity: 1; stroke-width: 1; stroke-opacity: 1;"><polygon points="781.11,654.52 714.98,654.52 714.98,646.52 781.11,646.52 "/><g class="Panel Left Positive" fill="none" id="Panel" style=""><g class="PanelArea" fill="none" id="PanelArea" stroke="none" style=""><polygon points="781.11,654.52 714.98,654.52 714.98,646.52 781.11,646.52 "/></g><path d="M714.98,646.52 q0.00,-66.13 66.13,-66.13 l0.00,66.13Z"/></g></g></g><g class="Wall" fill="#000000" id="Wall" stroke="#000000" style="fill-opacity: 1; stroke-opacity: 1; stroke-width: 1;"><polygon points="428.07,654.52 428.07,263.74 420.07,263.74 420.07,654.52 "/></g><g class="Wall" fill="#000000" id="Wall" stroke="#000000" style="fill-opacity: 1; stroke-opacity: 1; stroke-width: 1;"><polygon points="420.07,646.52 420.07,798.01 428.07,798.01 428.07,654.52 "/><g class="Door Swing Beside" fill="#ffffff" id="Door" stroke="#000000" style="fill-opacity: 1; stroke-width: 1; stroke-opacity: 1;"><polygon points="420.07,672.20 420.07,729.56 428.07,729.56 428.07,672.20 "/><g class="Panel Left Negative" fill="none" id="Panel" style=""><g class="PanelArea" fill="none" id="PanelArea" stroke="none" style=""><polygon points="420.07,672.20 420.07,729.56 428.07,729.56 428.07,672.20 "/></g><path d="M420.07,672.20 q-57.37,0.00 -57.37,57.37 l57.37,0.00Z"/></g></g></g><g class="Wall" fill="#000000" id="Wall" stroke="#000000" style="fill-opacity: 1; stroke-opacity: 1; stroke-width: 1;"><polygon points="428.07,245.74 428.07,59.62 420.07,59.62 420.07,245.74 "/></g><g class="Wall" fill="#000000" id="Wall" stroke="#000000" style="fill-opacity: 1; stroke-opacity: 1; stroke-width: 1;"><polygon points="60.30,245.74 60.30,59.62 52.30,59.62 52.30,245.74 "/></g><g class="Railing" fill="#ffffff" id="Railing" stroke="#000000" style="fill-opacity: 1; stroke-opacity: 1; stroke-width: 1;"><polygon points="52.30,59.62 428.07,59.62 428.07,51.62 52.30,51.62 " style="stroke-dasharray: 0;"/></g><g class="Wall" fill="#000000" id="Wall" stroke="#000000" style="fill-opacity: 1; stroke-opacity: 1; stroke-width: 1;"><polygon points="792.34,654.52 792.34,263.74 800.34,263.74 800.34,654.52 "/></g><g class="FixedFurniture Closet" fill="#ffffff" stroke="#000000" style="fill-opacity: 1; stroke-opacity: 1;" transform="matrix(-1,0,0,-1,781.8384,797.9646)">
<g class="BoundaryPolygon">
<polygon points="0.00,0.00 60.00,0.00 60.00,62.53 0.00,62.53 "/>
</g>
<g class="Direction" fill-opacity="0.9" style="display: none;">
<polygon fill="#444444" points="31.51,57.00 31.51,46.38 28.50,46.38 28.50,57.00 24.70,57.00 30.00,62.30 35.30,57.00 31.51,57.00 "/>
</g>
<g class="Name" fill-opacity="0.9" style="display: none;">

</g>
<desc>Width:60 Height:200 Depth:60 Elevation:0</desc>
</g><g class="FixedFurniture CoatCloset" fill="#ffffff" stroke="#000000" style="fill-opacity: 1; stroke-opacity: 1;" transform="matrix(-1,0,0,-1,721.8384,797.9645)">
<g class="BoundaryPolygon">
<polygon points="0.00,0.00 65.73,0.00 65.73,62.51 0.00,62.51 "/>
</g>

<g class="Direction" fill-opacity="0.9" style="display: none;">
<polygon fill="#444444" points="33.69,56.80 33.69,46.18 30.68,46.18 30.68,56.80 26.88,56.80 32.18,62.10 37.49,56.80 33.69,56.80 "/>
</g>
<g class="Name" fill-opacity="0.9" style="display: none;">

</g>
<desc>Width:120 Height:200 Depth:60 Elevation:0</desc>
</g><g class="FixedFurniture Toilet" fill="#ffffff" stroke="#000000" style="fill-opacity: 1; stroke-opacity: 1;" transform="matrix(1,0,0,1,907.7162,600.0574)">
<g class="BoundaryPolygon" fill="none" stroke="none">
<polygon points="0,0 41,0 41,71 0,71"/>
</g>
<g class="InnerPolygon">
<rect height="17.98" width="39.989" x="0.502" y="0.5"/>
<path d="M40.491,44.237S41.619,70.5,20.907,70.5C-.523,70.5.6,44.237.6,44.237L.5,18.48H40.491Z"/>
<rect height="3.03" width="6.357" x="17.318" y="7.975"/>
</g>
<desc>Width:41 Height:85 Depth:71 Elevation:0</desc>
</g><g class="FixedFurnitureSet" fill="#ffffff" id="FixedFurnitureSet" stroke="#000000" style="fill-opacity: 0.4; stroke-opacity: 0.4;" transform="matrix(1,0,0,1,973.8748,600.0573)"><g class="FixedFurniture BaseCabinet" fill="#ffffff" stroke="#000000" style="fill-opacity: 1; stroke-opacity: 1;" transform="matrix(1,0,0,1,0,0)">
<g class="BoundaryPolygon">
<polygon points="0.00,0.00 41.88,0.00 41.88,37.99 0.00,37.99 "/>
</g>
<g class="Direction" fill-opacity="0.9" style="display: none;">
<polygon fill="#444444" points="22.34,34.95 22.34,24.34 19.33,24.34 19.33,34.95 15.53,34.95 20.83,39.76 26.14,34.95 22.34,34.95 "/>
</g>
<g class="Name" fill-opacity="0.9" style="display: none;">

</g>
<desc>Width:60 Height:5 Depth:60 Elevation:105</desc>
</g><g class="FixedFurniture Sink" fill="#ffffff" stroke="#000000" style="fill-opacity: 1; stroke-opacity: 1;" transform="matrix(1,0,0,1,0,0)">
<g class="BoundaryPolygon" fill="none" stroke="none">
<polygon points="0.00,0.00 41.88,0.00 41.88,37.99 0.00,37.99 "/>
</g>
<g class="InnerPolygon">
<polygon points="3.49,9.70 38.39,9.70 38.39,34.64 3.49,34.64 "/>
</g>
<g class="OuterDrain" stroke-width="0.8">
<circle cx="20.939005487943994" cy="20.390503819287005" r="3.5"/>
</g>
<g class="InnerDrain" stroke-width="0.8">
<circle cx="20.939005487943994" cy="20.390503819287005" r="2"/>
</g>
<g class="Faucet">
<polygon points="18.85,3.17 24.85,3.17 24.85,17.17 18.85,17.17 "/>
</g>
<g class="Direction" fill-opacity="0.9" style="display: none;">
<polygon fill="#444444" points="22.34,34.95 22.34,24.34 19.33,24.34 19.33,34.95 15.53,34.95 20.83,39.76 26.14,34.95 22.34,34.95 "/>
</g>
<g class="Name" fill-opacity="0.9" style="display: none;">

</g>
<desc>Width:60 Height:90 Depth:60 Elevation:0</desc>
</g></g><g class="FixedFurniture Shower" fill="#ffffff" stroke="#000000" style="fill-opacity: 1; stroke-opacity: 1;" transform="matrix(1,0,0,1,1059.2456,600.0574)">
<g class="BoundaryPolygon" fill="none" stroke="none">
<polygon points="0,0 32,0 32,19 0,19"/>
</g>
<g class="InnerPolygon">
<rect height="6.1" width="11.2" x="3.7" y="0.5"/>
<rect height="6.1" width="11.2" x="17.6" y="0.5"/>
<rect height="6.1" width="3.4" x="28.7" y="0.5"/>
<rect height="6.1" width="3.2" x="0.5" y="0.5"/>
<path d="M14.9,8.5c0,1.5-0.4,3.3-1.6,5    c-0.4,0.6-1,1.1-1.1,1.7c-0.2,1.1,0.3,2.8,2.5,3.2c0.5,0.1,1.3,0.1,1.6,0.1h-0.1c0.3,0,1.1,0,1.6-0.1c2.2-0.4,2.7-2.1,2.5-3.2    c-0.1-0.6-0.7-1.1-1.1-1.7c-1.2-1.7-1.6-3.5-1.6-5"/>
<path d="M12.2,15.3c0.1,0.2,1.6,1.9,4.2,1.9 c2.4-0.1,3.7-1.7,3.9-1.9"/>
<path d="M14.9,0.5h2.7v8c-0.9,0-1.8,0-2.7,0l0,0 C14.9,5.9,14.9,3.2,14.9,0.5z"/>
</g>
<g class="Indicator">
<path d="M3.7,3.6C5,3.1,5.2,3,5.2,3 c0,1.1,0,0,0,1.1C5.2,4.1,5.1,4.1,3.7,3.6"/>
<path d="M28.7,3.6 C27.4,3.1,27.2,3,27.2,3c0,1.1,0,0,0,1.1C27.2,4.1,27.3,4.1,28.7,3.6"/>
</g>
<desc>Width:32 Height:97 Depth:19 Elevation:135</desc>
</g><g class="FixedFurniture Closet" fill="#ffffff" stroke="#000000" style="fill-opacity: 1; stroke-opacity: 1;" transform="matrix(-1,0,0,-1,511.483,646.5186)">
<g class="BoundaryPolygon">
<polygon points="0.00,0.00 83.41,0.00 83.41,54.29 0.00,54.29 "/>
</g>
<g class="Direction" fill-opacity="0.9" style="display: none;">
<polygon fill="#444444" points="43.80,49.49 43.80,38.88 40.80,38.88 40.80,49.49 36.99,49.49 42.30,54.79 47.60,49.49 43.80,49.49 "/>
</g>
<g class="Name" fill-opacity="0.9" style="display: none;">

</g>
<desc>Width:60 Height:200 Depth:60 Elevation:0</desc>
</g><g class="FixedFurniture CoatCloset" fill="#ffffff" stroke="#000000" style="fill-opacity: 1; stroke-opacity: 1;" transform="matrix(-1,0,0,-1,687.573,646.2843)">
<g class="BoundaryPolygon">
<polygon points="0.00,0.00 120.00,0.00 120.00,54.17 0.00,54.17 "/>
</g>

<g class="Direction" fill-opacity="0.9" style="display: none;">
<polygon fill="#444444" points="61.51,49.21 61.51,38.60 58.50,38.60 58.50,49.21 54.70,49.21 60.00,54.52 65.30,49.21 61.51,49.21 "/>
</g>
<g class="Name" fill-opacity="0.9" style="display: none;">

</g>
<desc>Width:120 Height:200 Depth:60 Elevation:0</desc>
</g><g class="FixedFurniture BaseCabinet" fill="#ffffff" stroke="#000000" style="fill-opacity: 1; stroke-opacity: 1;" transform="matrix(-1,0,0,-1,1045.0191,592.948)">
<g class="BoundaryPolygon">
<polygon points="0.00,0.00 146.29,0.00 146.29,68.28 0.00,68.28 "/>
</g>
<g class="Direction" fill-opacity="0.9" style="display: none;">
<polygon fill="#444444" points="78.04,62.81 78.04,52.20 75.03,52.20 75.03,62.81 71.23,62.81 76.53,67.62 81.84,62.81 78.04,62.81 "/>
</g>
<g class="Name" fill-opacity="0.9" style="display: none;">

</g>
<desc>Width:60 Height:90 Depth:60 Elevation:0</desc>
</g><g class="FixedFurniture Sink" fill="#ffffff" stroke="#000000" style="fill-opacity: 1; stroke-opacity: 1;" transform="matrix(-1,0,0,-1,1010.3558,591.8114)">
<g class="BoundaryPolygon" fill="none" stroke="none">
<polygon points="0.00,0.00 79.72,0.00 79.72,66.56 0.00,66.56 "/>
</g>
<g class="InnerPolygon">
<polygon points="6.64,9.70 73.08,9.70 73.08,60.68 6.64,60.68 "/>
</g>
<g class="OuterDrain" stroke-width="0.8">
<circle cx="39.86185326004723" cy="35.721931756053294" r="3.5"/>
</g>
<g class="InnerDrain" stroke-width="0.8">
<circle cx="39.86185326004723" cy="35.721931756053294" r="2"/>
</g>
<g class="Faucet">
<polygon points="35.88,5.55 41.88,5.55 41.88,19.55 35.88,19.55 "/>
</g>
<g class="Direction" fill-opacity="0.9" style="display: none;">
<polygon fill="#444444" points="42.53,61.23 42.53,50.62 39.52,50.62 39.52,61.23 35.72,61.23 41.02,66.04 46.33,61.23 42.53,61.23 "/>
</g>
<g class="Name" fill-opacity="0.9" style="display: none;">

</g>
<desc>Width:60 Height:90 Depth:60 Elevation:0</desc>
</g><g class="FixedFurniture BaseCabinet" fill="#ffffff" stroke="#000000" style="fill-opacity: 1; stroke-opacity: 1;" transform="matrix(0,1,-1,0,1110.0191,341.5604)">
<g class="BoundaryPolygon">
<polygon points="0.00,0.00 183.15,0.00 183.15,64.46 0.00,64.46 "/>
</g>
<g class="Direction" fill-opacity="0.9" style="display: none;">
<polygon fill="#444444" points="97.71,59.30 97.71,48.68 94.70,48.68 94.70,59.30 90.90,59.30 96.20,64.10 101.50,59.30 97.71,59.30 "/>
</g>
<g class="Name" fill-opacity="0.9" style="display: none;">

</g>
<desc>Width:60 Height:90 Depth:60 Elevation:0</desc>
</g><g class="FixedFurniture Housing" fill="#ffffff" stroke="#000000" style="fill-opacity: 1; stroke-opacity: 1;" transform="matrix(0,1.7385,-1.076,0,1109.8515,263.7358)">
<g class="BoundaryPolygon">
<polygon points="0,0 10,0 10,60 0,60"/>
</g>
<g class="Name" fill-opacity="0.9" style="display: none;">

</g>
<desc>Width:60 Height:200 Depth:60 Elevation:0</desc>
</g><g class="FixedFurniture ElectricalAppliance Refrigerator" fill="#ffffff" stroke="#000000" style="fill-opacity: 1; stroke-opacity: 1;" transform="matrix(0,1,-1.0736,0,1109.8514,281.5604)">
<g class="BoundaryPolygon">
<polygon points="0,0 60,0 60,60 0,60"/>
</g>
<g class="electricitySign" fill="none">
<path d="M0,0,30,37.1v-18L60,56.3"/>
</g>
<g class="Doors">
<rect height="4" width="60" y="56"/>
</g>
<g class="Direction" fill-opacity="0.9" style="display: none;">
<polygon fill="#444444" points="32.009 55.197 32.009 44.581 29 44.581 29 55.197 25.197 55.197 30.5 60 35.803 55.197 32.009 55.197"/>
</g>
<g class="Name" fill-opacity="0.9" style="display: none;">

</g>
<desc>Width:60 Height:170 Depth:60 Elevation:0</desc>
</g><g class="FixedFurniture ElectricalAppliance IntegratedStove" fill="#ffffff" stroke="#000000" style="fill-opacity: 1; stroke-opacity: 1;" transform="matrix(0,1,-1,0,1109.9878,441.3168)">
<g class="BoundaryPolygon" fill="none" stroke="none">
<polygon points="0.00,0.00 72.18,0.00 72.18,64.29 0.00,64.29 "/>
</g>
<g class="InnerPolygon">
<polygon points="2.00,2.00 69.77,2.00 69.77,62.15 2.00,62.15 "/>
</g>
<g class="OuterCircle">
<circle cx="19.247981648102872" cy="17.14426543193356" r="8"/>
<circle cx="52.931949532282914" cy="17.14426543193356" r="8"/>
<circle cx="19.247981648102872" cy="47.14672993781729" r="8"/>
<circle cx="52.931949532282914" cy="47.14672993781729" r="8"/>
</g>
<g class="Direction" fill-opacity="0.9" style="display: none;">
<polygon fill="#444444" points="38.51,59.14 38.51,48.53 35.50,48.53 35.50,59.14 31.69,59.14 37.00,63.95 42.30,59.14 38.51,59.14 "/>
</g>
<g class="Name" fill-opacity="0.9" style="display: none;">

</g>
<desc>Width:60 Height:90 Depth:30 Elevation:0</desc>
</g><g class="FixedFurniture CoatCloset" fill="#ffffff" stroke="#000000" style="fill-opacity: 1; stroke-opacity: 1;" transform="matrix(-1,0,0,-1,890.5571,797.9645)">
<g class="BoundaryPolygon">
<polygon points="0.00,0.00 108.71,0.00 108.71,30.05 0.00,30.05 "/>
</g>

<g class="Direction" fill-opacity="0.9" style="display: none;">
<polygon fill="#444444" points="55.72,27.31 55.72,16.69 52.71,16.69 52.71,27.31 48.91,27.31 54.21,32.61 59.52,27.31 55.72,27.31 "/>
</g>
<g class="Name" fill-opacity="0.9" style="display: none;">

</g>
<desc>Width:120 Height:200 Depth:60 Elevation:0</desc>
</g><g class="FixedFurniture Closet" fill="#ffffff" stroke="#000000" style="fill-opacity: 1; stroke-opacity: 1;" transform="matrix(-1,0,0,-1,567.573,646.5186)">
<g class="BoundaryPolygon">
<polygon points="0.00,0.00 56.09,0.00 56.09,54.29 0.00,54.29 "/>
</g>
<g class="Direction" fill-opacity="0.9" style="display: none;">
<polygon fill="#444444" points="29.46,49.49 29.46,38.88 26.46,38.88 26.46,49.49 22.65,49.49 27.96,54.79 33.26,49.49 29.46,49.49 "/>
</g>
<g class="Name" fill-opacity="0.9" style="display: none;">

</g>
<desc>Width:60 Height:200 Depth:60 Elevation:0</desc>
</g><g class="SelectionControls" fill="#0000ff" stroke="#0000ff" style="display: none;"><g class="rotateControl" style="display: none;"><circle cx="1008.2245497842077" cy="660.3679517037568" r="5" style="stroke : none; fill-opacity: 0.5; cursor:crosshair"/></g><g class="ResizeNControl" style="display: none;"><circle cx="0" cy="0" r="5" style="stroke : none; fill-opacity: 0.5"/></g><g class="ResizeNEControl" style="display: none;"><circle cx="0" cy="0" r="5" style="stroke : none; fill-opacity: 0.5"/></g><g class="ResizeEControl" style="display: none;"><circle cx="0" cy="0" r="5" style="stroke : none; fill-opacity: 0.5"/></g><g class="ResizeSEControl" style="display: none;"><circle cx="0" cy="0" r="5" style="stroke : none; fill-opacity: 0.5"/></g><g class="ResizeSControl" style="display: none;"><circle cx="0" cy="0" r="5" style="stroke : none; fill-opacity: 0.5"/></g><g class="ResizeSWControl" style="display: none;"><circle cx="0" cy="0" r="5" style="stroke : none; fill-opacity: 0.5"/></g><g class="ResizeWControl" style="display: none;"><circle cx="0" cy="0" r="5" style="stroke : none; fill-opacity: 0.5"/></g><g class="ResizeNWControl" style="display: none;"><circle cx="0" cy="0" r="5" style="stroke : none; fill-opacity: 0.5"/></g><g class="removeControl" style="display: none;"><polygon points="949.08,690.37 1067.37,690.37 1067.37,730.09 949.08,730.09 " style="stroke : none; fill-opacity: 0.1"/></g><g class="copyPasteControl" style="display: none;"><polygon style="stroke : none; fill-opacity: 0.1"/></g><g class="translateControl" style="display: none;"><polygon points="949.08,690.37 1067.37,690.37 1067.37,730.09 949.08,730.09 " style="stroke : none; fill-opacity: 0.1; cursor:move"/></g></g><g class="SelectionControls" fill="#0000ff" stroke="#0000ff" style="display: none;"><polygon fill="none" points="898.66,600.06 1110.16,600.06 1110.16,798.01 898.66,798.01 " stroke="#0000ff" style=""/><g class="rotateControl" style="display: none;"><circle cx="1004.4125122842079" cy="570.0573517037568" r="5" style="stroke : none; fill-opacity: 0.5; cursor:crosshair"/></g><g class="ResizeNControl" style="display: none;"><circle cx="0" cy="0" r="5" style="stroke : none; fill-opacity: 0.5"/></g><g class="ResizeNEControl" style="display: none;"><circle cx="0" cy="0" r="5" style="stroke : none; fill-opacity: 0.5"/></g><g class="ResizeEControl" style="display: none;"><circle cx="0" cy="0" r="5" style="stroke : none; fill-opacity: 0.5"/></g><g class="ResizeSEControl" style="display: none;"><circle cx="0" cy="0" r="5" style="stroke : none; fill-opacity: 0.5"/></g><g class="ResizeSControl" style="display: none;"><circle cx="0" cy="0" r="5" style="stroke : none; fill-opacity: 0.5"/></g><g class="ResizeSWControl" style="display: none;"><circle cx="0" cy="0" r="5" style="stroke : none; fill-opacity: 0.5"/></g><g class="ResizeWControl" style="display: none;"><circle cx="0" cy="0" r="5" style="stroke : none; fill-opacity: 0.5"/></g><g class="ResizeNWControl" style="display: none;"><circle cx="0" cy="0" r="5" style="stroke : none; fill-opacity: 0.5"/></g><g class="removeControl" style="display: none;"><polygon style="stroke : none; fill-opacity: 0.1"/></g><g class="copyPasteControl" style="display: none;"><polygon style="stroke : none; fill-opacity: 0.1"/></g><g class="translateControl" style="display: none;"><polygon style="stroke : none; fill-opacity: 0.1; cursor:move"/></g></g></g></g></g></svg>