<?xml version="1.0" encoding="utf-8"?>
<svg height="1253.6799926757812" id="temp" version="1.1" viewBox="0 0 1243.2499465942383 1253.6799926757812" width="1243.2499465942383" xmlns="http://www.w3.org/2000/svg" xmlns:xlink="http://www.w3.org/1999/xlink"><defs/><g class="Model v1-1" id="Model"><g class="Floor"><g class="Floorplan Floor-1" id="Floor-1"><g class="Space Outdoor Balcony" fill="#ffffff" id="99bf3057-f9de-4cc8-a331-09c03fd46930" stroke="#000000" style="fill-opacity: 1; stroke-opacity: 1; stroke-width: 1;"><polygon points="110.18,522.15 269.77,522.15 269.77,874.65 110.18,874.65 110.18,522.15 110.18,522.15 "/><g class="Dimension" transform="matrix(1,0,0,1,110.1763,522.1535)"><g class="Visual" style="display: none;" transform="matrix(1,0,0,1,0,0)"><g class="DimensionMark" fill="#000000" id="mark1" stroke="none" style="fill-opacity: 1; pointer-events: visible;" transform="matrix(1,0,0,1,79.7974,0)"><polygon points="-5,5,0,0,5,5"/></g><g class="DimensionMark" fill="#000000" id="mark2" stroke="none" style="fill-opacity: 1; pointer-events: visible;" transform="matrix(1,0,0,1,159.5948,176.2503)"><polygon points="-5,-5,0,0,-5,5"/></g><g class="DimensionMark" fill="#000000" id="mark3" stroke="none" style="fill-opacity: 1; pointer-events: visible;" transform="matrix(1,0,0,1,79.7974,352.5006)"><polygon points="-5,-5,0,0,5,-5"/></g><g class="DimensionMark" fill="#000000" id="mark4" stroke="none" style="fill-opacity: 1; pointer-events: visible;" transform="matrix(1,0,0,1,0,176.2503)"><polygon points="5,5,0,0,5,-5"/></g></g><g class="SpaceDimensionsLabel" transform="matrix(1,0,0,1,3.0136,207.6834)"><g class="TextLabel NameLabel" id="NameLabel" style="display: block;"/><g class="TextLabel DimensionMeasureLabel" id="DimensionMeasureLabel" style="display: none;" transform="matrix(1,0,0,1,-63.7109,79.9844)"/></g></g></g><g class="Space Entry Lobby" fill="#ffffff" id="583b60c0-3b91-4bdb-a18a-93666ff30f32" stroke="#ffffff" style="fill-opacity: 1; stroke-opacity: 1; stroke-width: 1;"><polygon points="783.34,522.12 869.32,522.12 869.32,612.05 869.30,612.05 869.30,1126.72 766.97,1126.72 766.97,874.65 700.46,874.65 700.46,511.12 783.34,511.12 "/><g class="Dimension" transform="matrix(1,0,0,1,700.4624,511.1223)"><g class="Visual" style="display: none;" transform="matrix(1,0,0,1,0,0)"><g class="DimensionMark" fill="#000000" id="mark1" stroke="none" style="fill-opacity: 1; pointer-events: visible;" transform="matrix(1,0,0,1,82.8743,0)"><polygon points="-5,5,0,0,5,5"/></g><g class="DimensionMark" fill="#000000" id="mark2" stroke="none" style="fill-opacity: 1; pointer-events: visible;" transform="matrix(1,0,0,1,168.8349,307.7999)"><polygon points="-5,-5,0,0,-5,5"/></g><g class="DimensionMark" fill="#000000" id="mark3" stroke="none" style="fill-opacity: 1; pointer-events: visible;" transform="matrix(1,0,0,1,82.8743,615.5999)"><polygon points="-5,-5,0,0,5,-5"/></g><g class="DimensionMark" fill="#000000" id="mark4" stroke="none" style="fill-opacity: 1; pointer-events: visible;" transform="matrix(1,0,0,1,0,307.7999)"><polygon points="5,5,0,0,5,-5"/></g></g><g class="SpaceDimensionsLabel" transform="matrix(1,0,0,1,99.3747,382.4967)"><g class="TextLabel NameLabel" id="NameLabel" style="display: block;"/><g class="TextLabel DimensionMeasureLabel" id="DimensionMeasureLabel" style="display: none;" transform="matrix(1,0,0,1,-118.7734,79.9844)"/></g></g></g><g class="Space Kitchen" fill="#ffffff" id="0797f066-acf0-41d1-9b59-680b94b8a057" stroke="#ffffff" style="fill-opacity: 1; stroke-opacity: 1; stroke-width: 1;"><polygon points="1221.22,879.17 959.22,879.17 881.30,879.00 881.30,612.05 869.32,612.05 869.32,522.12 1221.22,522.12 "/><g class="Dimension" transform="matrix(1,0,0,1,881.2973,522.1223)"><g class="Visual" style="display: none;" transform="matrix(1,0,0,1,0,0)"><g class="DimensionMark" fill="#000000" id="mark1" stroke="none" style="fill-opacity: 1; pointer-events: visible;" transform="matrix(1,0,0,1,163.9743,0)"><polygon points="-5,5,0,0,5,5"/></g><g class="DimensionMark" fill="#000000" id="mark2" stroke="none" style="fill-opacity: 1; pointer-events: visible;" transform="matrix(1,0,0,1,339.9259,178.5237)"><polygon points="-5,-5,0,0,-5,5"/></g><g class="DimensionMark" fill="#000000" id="mark3" stroke="none" style="fill-opacity: 1; pointer-events: visible;" transform="matrix(1,0,0,1,163.9743,357.0474)"><polygon points="-5,-5,0,0,5,-5"/></g><g class="DimensionMark" fill="#000000" id="mark4" stroke="none" style="fill-opacity: 1; pointer-events: visible;" transform="matrix(1,0,0,1,0,178.5237)"><polygon points="5,5,0,0,5,-5"/></g></g><g class="SpaceDimensionsLabel" transform="matrix(1,0,0,1,197.1601,171.8897)"><g class="TextLabel NameLabel" id="NameLabel" style="display: block;"/><g class="TextLabel DimensionMeasureLabel" id="DimensionMeasureLabel" style="display: none;" transform="matrix(1,0,0,1,-128.3047,79.9844)"/></g></g></g><g class="Space LivingRoom" fill="#ffffff" id="db0c0de7-085f-40d8-b446-a18437247c39" stroke="#ffffff" style="fill-opacity: 1; stroke-opacity: 1; stroke-width: 1;"><polygon points="783.34,511.12 292.77,511.12 292.77,154.43 783.34,154.43 "/><g class="Dimension" transform="matrix(1,0,0,1,292.7711,154.4281)"><g class="Visual" style="display: none;" transform="matrix(1,0,0,1,0,0)"><g class="DimensionMark" fill="#000000" id="mark1" stroke="none" style="fill-opacity: 1; pointer-events: visible;" transform="matrix(1,0,0,1,245.2828,0)"><polygon points="-5,5,0,0,5,5"/></g><g class="DimensionMark" fill="#000000" id="mark2" stroke="none" style="fill-opacity: 1; pointer-events: visible;" transform="matrix(1,0,0,1,490.5656,178.3471)"><polygon points="-5,-5,0,0,-5,5"/></g><g class="DimensionMark" fill="#000000" id="mark3" stroke="none" style="fill-opacity: 1; pointer-events: visible;" transform="matrix(1,0,0,1,245.2828,356.6942)"><polygon points="-5,-5,0,0,5,-5"/></g><g class="DimensionMark" fill="#000000" id="mark4" stroke="none" style="fill-opacity: 1; pointer-events: visible;" transform="matrix(1,0,0,1,0,178.3471)"><polygon points="5,5,0,0,5,-5"/></g></g><g class="SpaceDimensionsLabel" transform="matrix(1,0,0,1,237.2828,186.3471)"><g class="TextLabel NameLabel" id="NameLabel" style="display: block;"/><g class="TextLabel DimensionMeasureLabel" id="DimensionMeasureLabel" style="display: none;" transform="matrix(1,0,0,1,-114.5937,79.4844)"/></g></g></g><g class="Space Room" fill="#ffffff" id="7d6b9c2e-dfdd-4344-93b8-6a26f4c11115" stroke="#ffffff" style="fill-opacity: 1; stroke-opacity: 1; stroke-width: 1;"><polygon points="753.97,1229.68 292.77,1229.68 292.77,887.65 753.97,887.65 "/><g class="Dimension" transform="matrix(1,0,0,1,292.7711,887.654)"><g class="Visual" style="display: none;" transform="matrix(1,0,0,1,0,0)"><g class="DimensionMark" fill="#000000" id="mark1" stroke="none" style="fill-opacity: 1; pointer-events: visible;" transform="matrix(1,0,0,1,230.6012,0)"><polygon points="-5,5,0,0,5,5"/></g><g class="DimensionMark" fill="#000000" id="mark2" stroke="none" style="fill-opacity: 1; pointer-events: visible;" transform="matrix(1,0,0,1,461.2024,171.0105)"><polygon points="-5,-5,0,0,-5,5"/></g><g class="DimensionMark" fill="#000000" id="mark3" stroke="none" style="fill-opacity: 1; pointer-events: visible;" transform="matrix(1,0,0,1,230.6012,342.0211)"><polygon points="-5,-5,0,0,5,-5"/></g><g class="DimensionMark" fill="#000000" id="mark4" stroke="none" style="fill-opacity: 1; pointer-events: visible;" transform="matrix(1,0,0,1,0,171.0105)"><polygon points="5,5,0,0,5,-5"/></g></g><g class="SpaceDimensionsLabel" transform="matrix(1,0,0,1,205.8934,187.0321)"><g class="TextLabel NameLabel" id="NameLabel" style="display: block;"/><g class="TextLabel DimensionMeasureLabel" id="DimensionMeasureLabel" style="display: none;" transform="matrix(1,0,0,1,-127.5781,79.9843)"/></g></g></g><g class="Space Room" fill="#ffffff" id="b943d8aa-36df-4105-86c5-0b4d2b2f032c" stroke="#ffffff" style="fill-opacity: 1; stroke-opacity: 1; stroke-width: 1;"><polygon points="1221.22,511.12 794.34,511.12 794.34,154.43 1221.22,154.43 "/><g class="Dimension" transform="matrix(1,0,0,1,794.3367,154.4281)"><g class="Visual" style="display: none;" transform="matrix(1,0,0,1,0,0)"><g class="DimensionMark" fill="#000000" id="mark1" stroke="none" style="fill-opacity: 1; pointer-events: visible;" transform="matrix(1,0,0,1,213.4433,0)"><polygon points="-5,5,0,0,5,5"/></g><g class="DimensionMark" fill="#000000" id="mark2" stroke="none" style="fill-opacity: 1; pointer-events: visible;" transform="matrix(1,0,0,1,426.8865,178.3471)"><polygon points="-5,-5,0,0,-5,5"/></g><g class="DimensionMark" fill="#000000" id="mark3" stroke="none" style="fill-opacity: 1; pointer-events: visible;" transform="matrix(1,0,0,1,213.4433,356.6942)"><polygon points="-5,-5,0,0,5,-5"/></g><g class="DimensionMark" fill="#000000" id="mark4" stroke="none" style="fill-opacity: 1; pointer-events: visible;" transform="matrix(1,0,0,1,0,178.3471)"><polygon points="5,5,0,0,5,-5"/></g></g><g class="SpaceDimensionsLabel" transform="matrix(1,0,0,1,215.4432,186.3471)"><g class="TextLabel NameLabel" id="NameLabel" style="display: block;"/><g class="TextLabel DimensionMeasureLabel" id="DimensionMeasureLabel" style="display: none;" transform="matrix(1,0,0,1,-127.5703,79.1563)"/></g></g></g><g class="Space Room" fill="#ffffff" id="cd2de890-1c62-4d35-bea8-64d0c358977f" stroke="#ffffff" style="fill-opacity: 1; stroke-opacity: 1; stroke-width: 1;"><polygon points="689.46,874.65 292.77,874.65 292.77,522.12 689.46,522.12 "/><g class="Dimension" transform="matrix(1,0,0,1,292.7711,522.1223)"><g class="Visual" style="display: none;" transform="matrix(1,0,0,1,0,0)"><g class="DimensionMark" fill="#000000" id="mark1" stroke="none" style="fill-opacity: 1; pointer-events: visible;" transform="matrix(1,0,0,1,198.3456,0)"><polygon points="-5,5,0,0,5,5"/></g><g class="DimensionMark" fill="#000000" id="mark2" stroke="none" style="fill-opacity: 1; pointer-events: visible;" transform="matrix(1,0,0,1,396.6913,176.2659)"><polygon points="-5,-5,0,0,-5,5"/></g><g class="DimensionMark" fill="#000000" id="mark3" stroke="none" style="fill-opacity: 1; pointer-events: visible;" transform="matrix(1,0,0,1,198.3456,352.5317)"><polygon points="-5,-5,0,0,5,-5"/></g><g class="DimensionMark" fill="#000000" id="mark4" stroke="none" style="fill-opacity: 1; pointer-events: visible;" transform="matrix(1,0,0,1,0,176.2659)"><polygon points="5,5,0,0,5,-5"/></g></g><g class="SpaceDimensionsLabel" transform="matrix(1,0,0,1,187.801,204.1846)"><g class="TextLabel NameLabel" id="NameLabel" style="display: block;"/><g class="TextLabel DimensionMeasureLabel" id="DimensionMeasureLabel" style="display: none;" transform="matrix(1,0,0,1,-127.5782,79.9844)"/></g></g></g><g class="Space Bath" fill="#ffffff" id="6a87663e-f48a-4d64-85a3-9c5a3bb67589" stroke="#ffffff" style="fill-opacity: 1; stroke-opacity: 1; stroke-width: 1;"><polygon points="1046.73,1126.72 881.30,1126.72 881.30,891.00 1046.73,891.00 "/><g class="Dimension" transform="matrix(1,0,0,1,881.2973,891)"><g class="Visual" style="display: none;" transform="matrix(1,0,0,1,0,0)"><g class="DimensionMark" fill="#000000" id="mark1" stroke="none" style="fill-opacity: 1; pointer-events: visible;" transform="matrix(1,0,0,1,82.7154,0)"><polygon points="-5,5,0,0,5,5"/></g><g class="DimensionMark" fill="#000000" id="mark2" stroke="none" style="fill-opacity: 1; pointer-events: visible;" transform="matrix(1,0,0,1,165.4307,117.8611)"><polygon points="-5,-5,0,0,-5,5"/></g><g class="DimensionMark" fill="#000000" id="mark3" stroke="none" style="fill-opacity: 1; pointer-events: visible;" transform="matrix(1,0,0,1,82.7154,235.7222)"><polygon points="-5,-5,0,0,5,-5"/></g><g class="DimensionMark" fill="#000000" id="mark4" stroke="none" style="fill-opacity: 1; pointer-events: visible;" transform="matrix(1,0,0,1,0,117.8611)"><polygon points="5,5,0,0,5,-5"/></g></g><g class="SpaceDimensionsLabel" transform="matrix(1,0,0,1,60.8721,130.0665)"><g class="TextLabel NameLabel" id="NameLabel" style="display: block;"/><g class="TextLabel DimensionMeasureLabel" id="DimensionMeasureLabel" style="display: none;" transform="matrix(1,0,0,1,-112.1407,79.9844)"/></g></g></g><g class="Space Bath Shower" fill="#ffffff" id="f5f49981-1a19-4432-9b3c-ab9bec164391" stroke="#ffffff" style="fill-opacity: 1; stroke-opacity: 1; stroke-width: 1;"><polygon points="1221.22,891.74 1221.22,1126.72 1058.73,1126.72 1058.73,891.00 "/><g class="Dimension" transform="matrix(1,0,0,1,1058.728,891.3704)"><g class="Visual" style="display: none;" transform="matrix(1,0,0,1,0,0)"><g class="DimensionMark" fill="#000000" id="mark1" stroke="none" style="fill-opacity: 1; pointer-events: visible;" transform="matrix(1,0,0,1,81.2459,0)"><polygon points="-5,5,0,0,5,5"/></g><g class="DimensionMark" fill="#000000" id="mark2" stroke="none" style="fill-opacity: 1; pointer-events: visible;" transform="matrix(1,0,0,1,162.4952,117.4907)"><polygon points="-5,-5,0,0,-5,5"/></g><g class="DimensionMark" fill="#000000" id="mark3" stroke="none" style="fill-opacity: 1; pointer-events: visible;" transform="matrix(1,0,0,1,81.2459,235.3518)"><polygon points="-5,-5,0,0,5,-5"/></g><g class="DimensionMark" fill="#000000" id="mark4" stroke="none" style="fill-opacity: 1; pointer-events: visible;" transform="matrix(1,0,0,1,0,117.4907)"><polygon points="5,5,0,0,5,-5"/></g></g><g class="SpaceDimensionsLabel" transform="matrix(1,0,0,1,93.205,128.6758)"><g class="TextLabel NameLabel" id="NameLabel" style="display: block;"/><g class="TextLabel DimensionMeasureLabel" id="DimensionMeasureLabel" style="display: none;" transform="matrix(1,0,0,1,-117.625,79.9843)"/></g></g></g><g class="Wall External" fill="#000000" id="Wall" stroke="#000000" style="fill-opacity: 1; stroke-opacity: 1; stroke-width: 1;"><polygon points="292.77,1229.68 292.77,154.43 269.77,132.43 269.77,1253.68 "/><g class="Door Swing Beside" fill="#ffffff" id="Door" stroke="#000000" style="fill-opacity: 1; stroke-width: 1; stroke-opacity: 1;"><polygon points="292.77,694.47 292.77,622.02 269.77,622.02 269.77,694.47 "/><g class="Panel Right Positive" fill="none" id="Panel" style=""><g class="PanelArea" fill="none" id="PanelArea" stroke="none" style=""><polygon points="292.77,694.47 292.77,622.02 269.77,622.02 269.77,694.47 "/></g><path d="M269.77,694.47 q-72.45,0.00 -72.45,-72.45 l72.45,0.00Z"/></g></g><g class="Window Regular" fill="#f0f0ff" id="Window" stroke="#000000" style="fill-opacity: 1; stroke-width: 1; stroke-opacity: 1;"><polygon points="292.77,870.05 292.77,698.15 269.77,698.15 269.77,870.05 "/><g class="Glass" id="Glass"><polygon points="292.77,870.05 292.77,698.15 269.77,698.15 269.77,870.05 "/></g><g class="Panel" id="Panel"><line x1="281.27110632565984" x2="281.27110632565984" y1="862.5545638146347" y2="705.6488742061009"/><line x1="292.77110632565984" x2="269.77110632565984" y1="862.5545638146347" y2="862.5545638146347"/><line x1="292.77110632565984" x2="269.77110632565984" y1="705.6488742061009" y2="705.6488742061009"/></g></g><g class="Window Regular" fill="#f0f0ff" id="Window" stroke="#000000" style="fill-opacity: 1; stroke-width: 1; stroke-opacity: 1;"><polygon points="292.77,1161.71 292.77,980.75 269.77,980.75 269.77,1161.71 "/><g class="Glass" id="Glass"><polygon points="292.77,1161.71 292.77,980.75 269.77,980.75 269.77,1161.71 "/></g><g class="Panel" id="Panel"><line x1="281.2711063256599" x2="281.2711063256599" y1="1154.2087914064912" y2="988.2514070583942"/><line x1="292.7711063256599" x2="269.7711063256599" y1="1154.2087914064912" y2="1154.2087914064912"/><line x1="292.7711063256599" x2="269.7711063256599" y1="988.2514070583937" y2="988.2514070583937"/></g></g><g class="Window Regular" fill="#f0f0ff" id="Window" stroke="#000000" style="fill-opacity: 1; stroke-width: 1; stroke-opacity: 1;"><polygon points="292.77,423.57 292.77,236.65 269.77,236.65 269.77,423.57 "/><g class="Glass" id="Glass"><polygon points="292.77,423.57 292.77,236.65 269.77,236.65 269.77,423.57 "/></g><g class="Panel" id="Panel"><line x1="281.27110632565984" x2="281.2711063256598" y1="416.0734962310976" y2="244.14624831049287"/><line x1="292.77110632565984" x2="269.77110632565984" y1="416.0734962310976" y2="416.0734962310976"/><line x1="292.7711063256598" x2="269.7711063256598" y1="244.14624831049287" y2="244.14624831049287"/></g></g></g><g class="Wall External" fill="#000000" id="Wall" stroke="#000000" style="fill-opacity: 1; stroke-opacity: 1; stroke-width: 1;"><polygon points="292.77,154.43 1221.22,154.43 1243.22,132.43 269.77,132.43 "/></g><g class="Wall External" fill="#000000" id="Wall" stroke="#000000" style="fill-opacity: 1; stroke-opacity: 1; stroke-width: 1;"><polygon points="1221.22,154.43 1221.22,1126.72 1243.22,1150.72 1243.22,132.43 "/><g class="Window Regular" fill="#f0f0ff" id="Window" stroke="#000000" style="fill-opacity: 1; stroke-width: 1; stroke-opacity: 1;"><polygon points="1221.22,963.49 1221.22,1016.05 1243.22,1016.05 1243.22,963.49 "/><g class="Glass" id="Glass"><polygon points="1221.22,963.49 1221.22,1016.05 1243.22,1016.05 1243.22,963.49 "/></g><g class="Panel" id="Panel"><line x1="1232.2231878987054" x2="1232.2231878987054" y1="970.9863757850701" y2="1008.5513903133194"/><line x1="1221.2231878987054" x2="1243.2231878987054" y1="970.9863757850701" y2="970.9863757850701"/><line x1="1221.2231878987054" x2="1243.2231878987054" y1="1008.5513903133194" y2="1008.5513903133194"/></g></g><g class="Window Regular" fill="#f0f0ff" id="Window" stroke="#000000" style="fill-opacity: 1; stroke-width: 1; stroke-opacity: 1;"><polygon points="1221.22,579.69 1221.22,768.14 1243.22,768.14 1243.22,579.69 "/><g class="Glass" id="Glass"><polygon points="1221.22,579.69 1221.22,768.14 1243.22,768.14 1243.22,579.69 "/></g><g class="Panel" id="Panel"><line x1="1232.2231878987054" x2="1232.2231878987054" y1="587.1855570624625" y2="760.6403230570043"/><line x1="1221.2231878987054" x2="1243.2231878987054" y1="587.1855570624625" y2="587.1855570624625"/><line x1="1221.2231878987054" x2="1243.2231878987054" y1="760.6403230570043" y2="760.6403230570043"/></g></g><g class="Window Regular" fill="#f0f0ff" id="Window" stroke="#000000" style="fill-opacity: 1; stroke-width: 1; stroke-opacity: 1;"><polygon points="1221.22,245.93 1221.22,433.42 1243.22,433.42 1243.22,245.93 "/><g class="Glass" id="Glass"><polygon points="1221.22,245.93 1221.22,433.42 1243.22,433.42 1243.22,245.93 "/></g><g class="Panel" id="Panel"><line x1="1232.2231878987054" x2="1232.2231878987054" y1="253.433032168611" y2="425.9179356211072"/><line x1="1221.2231878987054" x2="1243.2231878987054" y1="253.433032168611" y2="253.433032168611"/><line x1="1221.2231878987054" x2="1243.2231878987054" y1="425.9179356211073" y2="425.9179356211073"/></g></g></g><g class="Wall External" fill="#000000" id="Wall" stroke="#000000" style="fill-opacity: 1; stroke-opacity: 1; stroke-width: 1;"><polygon points="1221.22,1126.72 753.97,1126.72 774.97,1150.72 1243.22,1150.72 "/><g class="Door Swing Opposite" fill="#ffffff" id="Door" stroke="#000000" style="fill-opacity: 1; stroke-width: 1; stroke-opacity: 1;"><polygon points="859.80,1126.72 784.71,1126.72 784.71,1150.72 859.80,1150.72 "/><g class="Panel Left Negative" fill="none" id="Panel" style=""><g class="PanelArea" fill="none" id="PanelArea" stroke="none" style=""><polygon points="859.80,1126.72 784.71,1126.72 784.71,1150.72 859.80,1150.72 "/></g><path d="M859.80,1126.72 q0.00,-75.09 -75.09,-75.09 l0.00,75.09Z"/></g><g class="Panel Right Positive" fill="none" id="Panel" style=""><g class="PanelArea" fill="none" id="PanelArea" stroke="none" style=""><polygon points="859.80,1126.72 784.71,1126.72 784.71,1150.72 859.80,1150.72 "/></g><path d="M859.80,1150.72 q0.00,75.09 -75.09,75.09 l0.00,-75.09Z"/></g></g></g><g class="Wall External" fill="#000000" id="Wall" stroke="#000000" style="fill-opacity: 1; stroke-opacity: 1; stroke-width: 1;"><polygon points="753.97,1126.72 753.97,1229.68 774.97,1253.68 774.97,1150.72 "/></g><g class="Wall External" fill="#000000" id="Wall" stroke="#000000" style="fill-opacity: 1; stroke-opacity: 1; stroke-width: 1;"><polygon points="753.97,1229.68 292.77,1229.68 269.77,1253.68 774.97,1253.68 "/></g><g class="Wall" fill="#000000" id="Wall" stroke="#000000" style="fill-opacity: 1; stroke-opacity: 1; stroke-width: 1;"><polygon points="753.97,1150.72 753.97,887.65 766.97,874.65 766.97,1150.72 "/><g class="Door Swing Beside" fill="#ffffff" id="Door" stroke="#000000" style="fill-opacity: 1; stroke-width: 1; stroke-opacity: 1;"><polygon points="753.97,966.04 753.97,899.65 766.97,899.65 766.97,966.04 "/><g class="Panel Left Negative" fill="none" id="Panel" style=""><g class="PanelArea" fill="none" id="PanelArea" stroke="none" style=""><polygon points="753.97,966.04 753.97,899.65 766.97,899.65 766.97,966.04 "/></g><path d="M753.97,966.04 q-66.40,0.00 -66.40,-66.40 l66.40,0.00Z"/></g></g></g><g class="Wall" fill="#000000" id="Wall" stroke="#000000" style="fill-opacity: 1; stroke-opacity: 1; stroke-width: 1;"><polygon points="753.97,887.65 269.77,887.65 269.77,874.65 766.97,874.65 "/></g><g class="Wall" fill="#000000" id="Wall" stroke="#000000" style="fill-opacity: 1; stroke-opacity: 1; stroke-width: 1;"><polygon points="269.77,522.12 689.46,522.12 700.46,511.12 269.77,511.12 "/></g><g class="Wall" fill="#000000" id="Wall" stroke="#000000" style="fill-opacity: 1; stroke-opacity: 1; stroke-width: 1;"><polygon points="689.46,522.12 689.46,887.65 700.46,887.65 700.46,511.12 "/><g class="Door Swing Beside" fill="#ffffff" id="Door" stroke="#000000" style="fill-opacity: 1; stroke-width: 1; stroke-opacity: 1;"><polygon points="689.46,616.59 689.46,684.31 700.46,684.31 700.46,616.59 "/><g class="Panel Left Positive" fill="none" id="Panel" style=""><g class="PanelArea" fill="none" id="PanelArea" stroke="none" style=""><polygon points="689.46,616.59 689.46,684.31 700.46,684.31 700.46,616.59 "/></g><path d="M700.46,684.31 q67.72,0.00 67.72,-67.72 l-67.72,0.00Z"/></g></g></g><g class="Wall" fill="#000000" id="Wall" stroke="#000000" style="fill-opacity: 1; stroke-opacity: 1; stroke-width: 1;"><polygon points="269.77,522.12 99.18,522.12 99.18,511.12 269.77,511.12 "/></g><g class="Wall" fill="#000000" id="Wall" stroke="#000000" style="fill-opacity: 1; stroke-opacity: 1; stroke-width: 1;"><polygon points="269.77,874.65 99.18,874.65 99.18,886.65 269.77,886.65 "/></g><g class="Railing" fill="#ffffff" id="Railing" stroke="#000000" style="fill-opacity: 1; stroke-opacity: 1; stroke-width: 1;"><polygon points="99.18,874.65 99.18,522.12 110.18,522.12 110.18,874.65 " style="stroke-dasharray: 0;"/></g><g class="Wall" fill="#000000" id="Wall" stroke="#000000" style="fill-opacity: 1; stroke-opacity: 1; stroke-width: 1;"><polygon points="794.34,132.43 794.34,511.12 783.34,522.12 783.34,132.43 "/></g><g class="Wall" fill="#000000" id="Wall" stroke="#000000" style="fill-opacity: 1; stroke-opacity: 1; stroke-width: 1;"><polygon points="794.34,511.12 1243.22,511.12 1243.22,522.12 783.34,522.12 "/><g class="Door Swing Beside" fill="#ffffff" id="Door" stroke="#000000" style="fill-opacity: 1; stroke-width: 1; stroke-opacity: 1;"><polygon points="800.63,511.12 864.44,511.12 864.44,522.12 800.63,522.12 "/><g class="Panel Right Negative" fill="none" id="Panel" style=""><g class="PanelArea" fill="none" id="PanelArea" stroke="none" style=""><polygon points="800.63,511.12 864.44,511.12 864.44,522.12 800.63,522.12 "/></g><path d="M864.44,511.12 q0.00,-63.80 -63.80,-63.80 l0.00,63.80Z"/></g></g></g><g class="Wall" fill="#000000" id="Wall" stroke="#000000" style="fill-opacity: 1; stroke-opacity: 1; stroke-width: 1;"><polygon points="869.30,612.05 869.30,1150.72 881.30,1150.72 881.30,612.05 "/><g class="Door Swing Beside" fill="#ffffff" id="Door" stroke="#000000" style="fill-opacity: 1; stroke-width: 1; stroke-opacity: 1;"><polygon points="869.30,947.68 869.30,1015.26 881.30,1015.26 881.30,947.68 "/><g class="Panel Left Negative" fill="none" id="Panel" style=""><g class="PanelArea" fill="none" id="PanelArea" stroke="none" style=""><polygon points="869.30,947.68 869.30,1015.26 881.30,1015.26 881.30,947.68 "/></g><path d="M869.30,947.68 q-67.58,0.00 -67.58,67.58 l67.58,0.00Z"/></g></g></g><g class="Wall" fill="#000000" id="Wall" stroke="#000000" style="fill-opacity: 1; stroke-opacity: 1; stroke-width: 1;"><polygon points="869.29,890.65 1243.21,891.74 1243.25,879.74 869.32,878.65 "/></g><g class="Wall" fill="#000000" id="Wall" stroke="#000000" style="fill-opacity: 1; stroke-opacity: 1; stroke-width: 1;"><polygon points="1046.73,879.17 1046.73,1150.72 1058.73,1150.72 1058.73,879.17 "/><g class="Door Swing Beside" fill="#ffffff" id="Door" stroke="#000000" style="fill-opacity: 1; stroke-width: 1; stroke-opacity: 1;"><polygon points="1046.73,948.86 1046.73,1015.66 1058.73,1015.66 1058.73,948.86 "/><g class="Panel Right Positive" fill="none" id="Panel" style=""><g class="PanelArea" fill="none" id="PanelArea" stroke="none" style=""><polygon points="1046.73,948.86 1046.73,1015.66 1058.73,1015.66 1058.73,948.86 "/></g><path d="M1058.73,948.86 q66.79,0.00 66.79,66.79 l-66.79,0.00Z"/></g></g></g><g class="FixedFurnitureSet" fill="#ffffff" id="FixedFurnitureSet" stroke="#000000" style="fill-opacity: 0.4; stroke-opacity: 0.4;" transform="matrix(0,1,-1,0,753.9736,1049.6751)"><g class="FixedFurniture Closet" fill="#ffffff" stroke="#000000" style="fill-opacity: 1; stroke-opacity: 1;" transform="matrix(1,0,0,1,0,0)">
<g class="BoundaryPolygon">
<polygon points="0.00,0.00 60.00,0.00 60.00,65.08 0.00,65.08 "/>
</g>
<g class="Direction" fill-opacity="0.9" style="display: none;">
<polygon fill="#444444" points="31.51,59.33 31.51,48.71 28.50,48.71 28.50,59.33 24.70,59.33 30.00,64.63 35.30,59.33 31.51,59.33 "/>
</g>
<g class="Name" fill-opacity="0.9" style="display: none;">

</g>
<desc>Width:60 Height:200 Depth:60 Elevation:0</desc>
</g><g class="FixedFurniture Closet" fill="#ffffff" stroke="#000000" style="fill-opacity: 1; stroke-opacity: 1;" transform="matrix(1,0,0,1,60,0)">
<g class="BoundaryPolygon">
<polygon points="0.00,0.00 60.00,0.00 60.00,65.08 0.00,65.08 "/>
</g>
<g class="Direction" fill-opacity="0.9" style="display: none;">
<polygon fill="#444444" points="31.51,59.33 31.51,48.71 28.50,48.71 28.50,59.33 24.70,59.33 30.00,64.63 35.30,59.33 31.51,59.33 "/>
</g>
<g class="Name" fill-opacity="0.9" style="display: none;">

</g>
<desc>Width:60 Height:200 Depth:60 Elevation:0</desc>
</g><g class="FixedFurniture Closet" fill="#ffffff" stroke="#000000" style="fill-opacity: 1; stroke-opacity: 1;" transform="matrix(1,0,0,1,120,0)">
<g class="BoundaryPolygon">
<polygon points="0.00,0.00 60.00,0.00 60.00,65.08 0.00,65.08 "/>
</g>
<g class="Direction" fill-opacity="0.9" style="display: none;">
<polygon fill="#444444" points="31.51,59.33 31.51,48.71 28.50,48.71 28.50,59.33 24.70,59.33 30.00,64.63 35.30,59.33 31.51,59.33 "/>
</g>
<g class="Name" fill-opacity="0.9" style="display: none;">

</g>
<desc>Width:60 Height:200 Depth:60 Elevation:0</desc>
</g></g><g class="FixedFurnitureSet" fill="#ffffff" id="FixedFurnitureSet" stroke="#000000" style="fill-opacity: 0.4; stroke-opacity: 0.4;" transform="matrix(1,0,0,1,559.8844,522.1535)"><g class="FixedFurniture Closet" fill="#ffffff" stroke="#000000" style="fill-opacity: 1; stroke-opacity: 1;" transform="matrix(1,0,0,1,0,0)">
<g class="BoundaryPolygon">
<polygon points="0.00,0.00 43.19,0.00 43.19,60.00 0.00,60.00 "/>
</g>
<g class="Direction" fill-opacity="0.9" style="display: none;">
<polygon fill="#444444" points="22.68,54.70 22.68,44.08 19.67,44.08 19.67,54.70 15.87,54.70 21.17,60.00 26.48,54.70 22.68,54.70 "/>
</g>
<g class="Name" fill-opacity="0.9" style="display: none;">

</g>
<desc>Width:60 Height:200 Depth:60 Elevation:0</desc>
</g><g class="FixedFurniture Closet" fill="#ffffff" stroke="#000000" style="fill-opacity: 1; stroke-opacity: 1;" transform="matrix(1,0,0,1,43.194,0)">
<g class="BoundaryPolygon">
<polygon points="0.00,0.00 43.19,0.00 43.19,60.00 0.00,60.00 "/>
</g>
<g class="Direction" fill-opacity="0.9" style="display: none;">
<polygon fill="#444444" points="22.68,54.70 22.68,44.08 19.67,44.08 19.67,54.70 15.87,54.70 21.17,60.00 26.48,54.70 22.68,54.70 "/>
</g>
<g class="Name" fill-opacity="0.9" style="display: none;">

</g>
<desc>Width:60 Height:200 Depth:60 Elevation:0</desc>
</g><g class="FixedFurniture Closet" fill="#ffffff" stroke="#000000" style="fill-opacity: 1; stroke-opacity: 1;" transform="matrix(1,0,0,1,86.388,0)">
<g class="BoundaryPolygon">
<polygon points="0.00,0.00 43.19,0.00 43.19,60.00 0.00,60.00 "/>
</g>
<g class="Direction" fill-opacity="0.9" style="display: none;">
<polygon fill="#444444" points="22.68,54.70 22.68,44.08 19.67,44.08 19.67,54.70 15.87,54.70 21.17,60.00 26.48,54.70 22.68,54.70 "/>
</g>
<g class="Name" fill-opacity="0.9" style="display: none;">

</g>
<desc>Width:60 Height:200 Depth:60 Elevation:0</desc>
</g></g><g class="FixedFurniture Closet" fill="#ffffff" stroke="#000000" style="fill-opacity: 1; stroke-opacity: 1;" transform="matrix(0,-1,1,0,700.4624,874.6541)">
<g class="BoundaryPolygon">
<polygon points="0.00,0.00 183.14,0.00 183.14,66.10 0.00,66.10 "/>
</g>
<g class="Direction" fill-opacity="0.9" style="display: none;">
<polygon fill="#444444" points="93.87,60.06 93.87,49.45 90.86,49.45 90.86,60.06 87.06,60.06 92.36,65.37 97.67,60.06 93.87,60.06 "/>
</g>
<g class="Name" fill-opacity="0.9" style="display: none;">

</g>
<desc>Width:120 Height:200 Depth:60 Elevation:0</desc>
</g><g class="FixedFurnitureSet" fill="#ffffff" id="FixedFurnitureSet" stroke="#000000" style="fill-opacity: 0.4; stroke-opacity: 0.4;" transform="matrix(1,0,0,1,892.0994,890.9523)"><g class="FixedFurniture BaseCabinet" fill="#ffffff" stroke="#000000" style="fill-opacity: 1; stroke-opacity: 1;" transform="matrix(1,0,0,1,0,0)">
<g class="BoundaryPolygon">
<polygon points="0.00,0.00 52.11,0.00 52.11,37.38 0.00,37.38 "/>
</g>
<g class="Direction" fill-opacity="0.9" style="display: none;">
<polygon fill="#444444" points="27.80,34.39 27.80,23.77 24.79,23.77 24.79,34.39 20.99,34.39 26.29,39.19 31.59,34.39 27.80,34.39 "/>
</g>
<g class="Name" fill-opacity="0.9" style="display: none;">

</g>
<desc>Width:60 Height:5 Depth:60 Elevation:105</desc>
</g><g class="FixedFurniture Sink" fill="#ffffff" stroke="#000000" style="fill-opacity: 1; stroke-opacity: 1;" transform="matrix(1,0,0,1,0,0)">
<g class="BoundaryPolygon" fill="none" stroke="none">
<polygon points="0.00,0.00 52.11,0.00 52.11,37.38 0.00,37.38 "/>
</g>
<g class="InnerPolygon">
<polygon points="4.34,9.70 47.77,9.70 47.77,34.08 4.34,34.08 "/>
</g>
<g class="OuterDrain" stroke-width="0.8">
<circle cx="26.05608922889607" cy="20.061359721227756" r="3.5"/>
</g>
<g class="InnerDrain" stroke-width="0.8">
<circle cx="26.05608922889607" cy="20.061359721227756" r="2"/>
</g>
<g class="Faucet">
<polygon points="23.45,3.12 29.45,3.12 29.45,17.12 23.45,17.12 "/>
</g>
<g class="Direction" fill-opacity="0.9" style="display: none;">
<polygon fill="#444444" points="27.80,34.39 27.80,23.77 24.79,23.77 24.79,34.39 20.99,34.39 26.29,39.19 31.59,34.39 27.80,34.39 "/>
</g>
<g class="Name" fill-opacity="0.9" style="display: none;">

</g>
<desc>Width:60 Height:90 Depth:60 Elevation:0</desc>
</g></g><g class="FixedFurniture Toilet" fill="#ffffff" stroke="#000000" style="fill-opacity: 1; stroke-opacity: 1;" transform="matrix(1,0,0,0.8611,970.1224,891.0067)">
<g class="BoundaryPolygon" fill="none" stroke="none">
<polygon points="0,0 41,0 41,71 0,71"/>
</g>
<g class="InnerPolygon">
<rect height="17.98" width="39.989" x="0.502" y="0.5"/>
<path d="M40.491,44.237S41.619,70.5,20.907,70.5C-.523,70.5.6,44.237.6,44.237L.5,18.48H40.491Z"/>
<rect height="3.03" width="6.357" x="17.318" y="7.975"/>
</g>
<desc>Width:41 Height:85 Depth:71 Elevation:0</desc>
</g><g class="FixedFurniture BaseCabinet" fill="#ffffff" stroke="#000000" style="fill-opacity: 1; stroke-opacity: 1;" transform="matrix(-1,0,0,-1,1046.1272,1126.7222)">
<g class="BoundaryPolygon">
<polygon points="0.00,0.00 164.83,0.00 164.83,55.01 0.00,55.01 "/>
</g>
<g class="Direction" fill-opacity="0.9" style="display: none;">
<polygon fill="#444444" points="87.93,50.60 87.93,39.99 84.93,39.99 84.93,50.60 81.12,50.60 86.43,55.41 91.73,50.60 87.93,50.60 "/>
</g>
<g class="Name" fill-opacity="0.9" style="display: none;">

</g>
<desc>Width:60 Height:90 Depth:60 Elevation:0</desc>
</g><g class="FixedFurniture ElectricalAppliance Refrigerator" fill="#ffffff" stroke="#000000" style="fill-opacity: 1; stroke-opacity: 1;" transform="matrix(-0.9537,0,0,-0.9827,1221.2232,879.4095)">
<g class="BoundaryPolygon">
<polygon points="0,0 60,0 60,60 0,60"/>
</g>
<g class="electricitySign" fill="none">
<path d="M0,0,30,37.1v-18L60,56.3"/>
</g>
<g class="Doors">
<rect height="4" width="60" y="56"/>
</g>
<g class="Direction" fill-opacity="0.9" style="display: none;">
<polygon fill="#444444" points="32.009 55.197 32.009 44.581 29 44.581 29 55.197 25.197 55.197 30.5 60 35.803 55.197 32.009 55.197"/>
</g>
<g class="Name" fill-opacity="0.9" style="display: none;">

</g>
<desc>Width:60 Height:170 Depth:60 Elevation:0</desc>
</g><g class="FixedFurniture BaseCabinet" fill="#ffffff" stroke="#000000" style="fill-opacity: 1; stroke-opacity: 1;" transform="matrix(-1,0,0,-1,1164.0024,879.0289)">
<g class="BoundaryPolygon">
<polygon points="0.00,0.00 223.94,0.00 223.94,58.70 0.00,58.70 "/>
</g>
<g class="Direction" fill-opacity="0.9" style="display: none;">
<polygon fill="#444444" points="119.47,54.00 119.47,43.38 116.46,43.38 116.46,54.00 112.66,54.00 117.96,58.80 123.26,54.00 119.47,54.00 "/>
</g>
<g class="Name" fill-opacity="0.9" style="display: none;">

</g>
<desc>Width:60 Height:90 Depth:60 Elevation:0</desc>
</g><g class="FixedFurniture BaseCabinet" fill="#ffffff" stroke="#000000" style="fill-opacity: 1; stroke-opacity: 1;" transform="matrix(0,-1,1,0,881.2973,819.42)">
<g class="BoundaryPolygon">
<polygon points="0.00,0.00 207.17,0.00 207.17,58.70 0.00,58.70 "/>
</g>
<g class="Direction" fill-opacity="0.9" style="display: none;">
<polygon fill="#444444" points="110.52,54.00 110.52,43.38 107.51,43.38 107.51,54.00 103.71,54.00 109.01,58.80 114.31,54.00 110.52,54.00 "/>
</g>
<g class="Name" fill-opacity="0.9" style="display: none;">

</g>
<desc>Width:60 Height:90 Depth:60 Elevation:0</desc>
</g><g class="Column Rectangle" fill="#000000" id="Column" stroke="none" style="fill-opacity: 1;"><polygon points="869.32,819.42 940.22,819.42 940.22,891.01 869.32,891.01 "/></g><g class="FixedFurniture ElectricalAppliance IntegratedStove" fill="#ffffff" stroke="#000000" style="fill-opacity: 1; stroke-opacity: 1;" transform="matrix(0,-1,1,0,880.7873,796.525)">
<g class="BoundaryPolygon" fill="none" stroke="none">
<polygon points="0.00,0.00 60.00,0.00 60.00,59.14 0.00,59.14 "/>
</g>
<g class="InnerPolygon">
<polygon points="2.00,2.00 58.00,2.00 58.00,57.17 2.00,57.17 "/>
</g>
<g class="OuterCircle">
<circle cx="16" cy="15.771028677899391" r="8"/>
<circle cx="44" cy="15.771028677899391" r="8"/>
<circle cx="16" cy="43.37032886422332" r="8"/>
<circle cx="44" cy="43.37032886422332" r="8"/>
</g>
<g class="Direction" fill-opacity="0.9" style="display: none;">
<polygon fill="#444444" points="32.01,54.41 32.01,43.79 29.00,43.79 29.00,54.41 25.20,54.41 30.50,59.21 35.80,54.41 32.01,54.41 "/>
</g>
<g class="Name" fill-opacity="0.9" style="display: none;">

</g>
<desc>Width:60 Height:90 Depth:30 Elevation:0</desc>
</g><g class="FixedFurniture Sink" fill="#ffffff" stroke="#000000" style="fill-opacity: 1; stroke-opacity: 1;" transform="matrix(-1,0,0,-1,1047.3779,880.3336)">
<g class="BoundaryPolygon" fill="none" stroke="none">
<polygon points="0,0 60,0 60,60 0,60"/>
</g>
<g class="InnerPolygon">
<polygon points="5 9.7 55 9.7 55 54.7 5 54.7"/>
</g>
<g class="OuterDrain" stroke-width="0.8">
<circle cx="30" cy="32.2" r="3.5"/>
</g>
<g class="InnerDrain" stroke-width="0.8">
<circle cx="30" cy="32.2" r="2"/>
</g>
<g class="Faucet">
<polygon points="27 5 33 5 33 19 27 19"/>
</g>
<g class="Direction" fill-opacity="0.9" style="display: none;">
<polygon fill="#444444" points="32.009 55.197 32.009 44.581 29 44.581 29 55.197 25.197 55.197 30.5 60 35.803 55.197 32.009 55.197"/>
</g>
<g class="Name" fill-opacity="0.9" style="display: none;">

</g>
<desc>Width:60 Height:90 Depth:60 Elevation:0</desc>
</g><g class="FixedFurniture ElectricalAppliance SpaceForAppliance2" fill="#ffffff" stroke="#000000" style="fill-opacity: 1; stroke-opacity: 1;" transform="matrix(-0.9466,0,0,-0.9751,1104.1739,878.8396)">
<g class="BoundaryPolygon">
<polygon points="0,0 60,0 60,60 0,60"/>
</g>
<g class="electricitySign" fill="none">
<path d="M0,0,30.1,39.8V19.4L59.9,60"/>
</g>
<g class="Direction" fill-opacity="0.9" style="display: none;">
<polygon fill="#444444" points="32.009 55.197 32.009 44.581 29 44.581 29 55.197 25.197 55.197 30.5 60 35.803 55.197 32.009 55.197"/>
</g>
<g class="Name" fill-opacity="0.9" style="display: none;">

</g>
<desc>Width:60 Height:90 Depth:60 Elevation:0</desc>
</g><g class="SelectionControls" fill="#0000ff" stroke="#0000ff" style="display: none;"><g class="rotateControl" style="display: none;"><circle cx="1022.1704837278917" cy="278.00955299357895" r="5" style="stroke : none; fill-opacity: 0.5; cursor:crosshair"/></g><g class="ResizeNControl" style="display: none;"><circle cx="0" cy="0" r="5" style="stroke : none; fill-opacity: 0.5"/></g><g class="ResizeNEControl" style="display: none;"><circle cx="0" cy="0" r="5" style="stroke : none; fill-opacity: 0.5"/></g><g class="ResizeEControl" style="display: none;"><circle cx="0" cy="0" r="5" style="stroke : none; fill-opacity: 0.5"/></g><g class="ResizeSEControl" style="display: none;"><circle cx="0" cy="0" r="5" style="stroke : none; fill-opacity: 0.5"/></g><g class="ResizeSControl" style="display: none;"><circle cx="0" cy="0" r="5" style="stroke : none; fill-opacity: 0.5"/></g><g class="ResizeSWControl" style="display: none;"><circle cx="0" cy="0" r="5" style="stroke : none; fill-opacity: 0.5"/></g><g class="ResizeWControl" style="display: none;"><circle cx="0" cy="0" r="5" style="stroke : none; fill-opacity: 0.5"/></g><g class="ResizeNWControl" style="display: none;"><circle cx="0" cy="0" r="5" style="stroke : none; fill-opacity: 0.5"/></g><g class="removeControl" style="display: none;"><polygon points="1009.78,308.01 1034.56,308.01 1034.56,347.56 1009.78,347.56 " style="stroke : none; fill-opacity: 0.1"/></g><g class="copyPasteControl" style="display: none;"><polygon style="stroke : none; fill-opacity: 0.1"/></g><g class="translateControl" style="display: none;"><polygon points="1009.78,308.01 1034.56,308.01 1034.56,347.56 1009.78,347.56 " style="stroke : none; fill-opacity: 0.1; cursor:move"/></g></g><g class="SelectionControls" fill="#0000ff" stroke="#0000ff" style="display: none;"><polygon fill="none" points="794.34,154.43 1221.22,154.43 1221.22,511.12 794.34,511.12 " stroke="#0000ff" style=""/><g class="rotateControl" style="display: none;"><circle cx="1007.7799112913681" cy="124.42807799357894" r="5" style="stroke : none; fill-opacity: 0.5; cursor:crosshair"/></g><g class="ResizeNControl" style="display: none;"><circle cx="0" cy="0" r="5" style="stroke : none; fill-opacity: 0.5"/></g><g class="ResizeNEControl" style="display: none;"><circle cx="0" cy="0" r="5" style="stroke : none; fill-opacity: 0.5"/></g><g class="ResizeEControl" style="display: none;"><circle cx="0" cy="0" r="5" style="stroke : none; fill-opacity: 0.5"/></g><g class="ResizeSEControl" style="display: none;"><circle cx="0" cy="0" r="5" style="stroke : none; fill-opacity: 0.5"/></g><g class="ResizeSControl" style="display: none;"><circle cx="0" cy="0" r="5" style="stroke : none; fill-opacity: 0.5"/></g><g class="ResizeSWControl" style="display: none;"><circle cx="0" cy="0" r="5" style="stroke : none; fill-opacity: 0.5"/></g><g class="ResizeWControl" style="display: none;"><circle cx="0" cy="0" r="5" style="stroke : none; fill-opacity: 0.5"/></g><g class="ResizeNWControl" style="display: none;"><circle cx="0" cy="0" r="5" style="stroke : none; fill-opacity: 0.5"/></g><g class="removeControl" style="display: none;"><polygon style="stroke : none; fill-opacity: 0.1"/></g><g class="copyPasteControl" style="display: none;"><polygon style="stroke : none; fill-opacity: 0.1"/></g><g class="translateControl" style="display: none;"><polygon style="stroke : none; fill-opacity: 0.1; cursor:move"/></g></g></g></g></g></svg>