<?xml version="1.0" encoding="utf-8"?>
<svg height="711.7899511754513" id="temp" version="1.1" viewBox="0 0 1137.3000106811523 711.7899511754513" width="1137.3000106811523" xmlns="http://www.w3.org/2000/svg" xmlns:xlink="http://www.w3.org/1999/xlink"><defs/><g class="Model v1-1" id="Model"><g class="Floor"><g class="Floorplan Floor-1" id="Floor-1"><g class="Space Kitchen Kitchenette" fill="#ffffff" id="ceadeac6-7b55-4991-9a83-2b25264c929e" stroke="#ffffff" style="fill-opacity: 1; stroke-opacity: 1; stroke-width: 1;"><polygon points="785.44,192.83 603.49,192.83 603.49,183.83 546.33,183.83 546.33,21.15 785.44,21.15 "/><g class="Dimension" transform="matrix(1,0,0,1,546.3275,21.1549)"><g class="Visual" style="display: none;" transform="matrix(1,0,0,1,0,0)"><g class="DimensionMark" fill="#000000" id="mark1" stroke="none" style="fill-opacity: 1; pointer-events: visible;" transform="matrix(1,0,0,1,119.5559,0)"><polygon points="-5,5,0,0,5,5"/></g><g class="DimensionMark" fill="#000000" id="mark2" stroke="none" style="fill-opacity: 1; pointer-events: visible;" transform="matrix(1,0,0,1,239.1117,85.8393)"><polygon points="-5,-5,0,0,-5,5"/></g><g class="DimensionMark" fill="#000000" id="mark3" stroke="none" style="fill-opacity: 1; pointer-events: visible;" transform="matrix(1,0,0,1,119.5559,171.6785)"><polygon points="-5,-5,0,0,5,-5"/></g><g class="DimensionMark" fill="#000000" id="mark4" stroke="none" style="fill-opacity: 1; pointer-events: visible;" transform="matrix(1,0,0,1,0,85.8393)"><polygon points="5,5,0,0,5,-5"/></g></g><g class="SpaceDimensionsLabel" transform="matrix(1,0,0,1,108.8956,108.1764)"><g class="TextLabel NameLabel" id="NameLabel" style="display: block;"/><g class="TextLabel DimensionMeasureLabel" id="DimensionMeasureLabel" style="display: none;" transform="matrix(1,0,0,1,-117.0391,79.8281)"/></g></g></g><g class="Space Dining" fill="#ffffff" id="853232f3-9752-4eb3-96be-c559b9523c63" stroke="#ffffff" style="fill-opacity: 1; stroke-opacity: 1; stroke-width: 1;"><polygon points="927.89,192.83 785.44,192.83 785.44,21.15 927.89,21.15 "/><g class="Dimension" transform="matrix(1,0,0,1,785.4392,21.1549)"><g class="Visual" style="display: none;" transform="matrix(1,0,0,1,0,0)"><g class="DimensionMark" fill="#000000" id="mark1" stroke="none" style="fill-opacity: 1; pointer-events: visible;" transform="matrix(1,0,0,1,71.2242,0)"><polygon points="-5,5,0,0,5,5"/></g><g class="DimensionMark" fill="#000000" id="mark2" stroke="none" style="fill-opacity: 1; pointer-events: visible;" transform="matrix(1,0,0,1,142.4483,85.8393)"><polygon points="-5,-5,0,0,-5,5"/></g><g class="DimensionMark" fill="#000000" id="mark3" stroke="none" style="fill-opacity: 1; pointer-events: visible;" transform="matrix(1,0,0,1,71.2242,171.6785)"><polygon points="-5,-5,0,0,5,-5"/></g><g class="DimensionMark" fill="#000000" id="mark4" stroke="none" style="fill-opacity: 1; pointer-events: visible;" transform="matrix(1,0,0,1,0,85.8393)"><polygon points="5,5,0,0,5,-5"/></g></g><g class="SpaceDimensionsLabel" transform="matrix(1,0,0,1,51.7347,108.3345)"><g class="TextLabel NameLabel" id="NameLabel" style="display: block;"/><g class="TextLabel DimensionMeasureLabel" id="DimensionMeasureLabel" style="display: none;" transform="matrix(1,0,0,1,-118.6328,79.7031)"/></g></g></g><g class="Space LivingRoom" fill="#ffffff" id="ed3405b0-9084-4740-9d34-46cf3415db35" stroke="#ffffff" style="fill-opacity: 1; stroke-opacity: 1; stroke-width: 1;"><polygon points="927.89,528.83 678.66,528.83 679.00,529.00 547.03,529.00 546.03,322.11 546.03,192.83 927.89,192.83 "/><g class="Dimension" transform="matrix(1,0,0,1,546.2184,192.8334)"><g class="Visual" style="display: none;" transform="matrix(1,0,0,1,0,0)"><g class="DimensionMark" fill="#000000" id="mark1" stroke="none" style="fill-opacity: 1; pointer-events: visible;" transform="matrix(1,0,0,1,190.7408,0)"><polygon points="-5,5,0,0,5,5"/></g><g class="DimensionMark" fill="#000000" id="mark2" stroke="none" style="fill-opacity: 1; pointer-events: visible;" transform="matrix(1,0,0,1,381.6691,168.0824)"><polygon points="-5,-5,0,0,-5,5"/></g><g class="DimensionMark" fill="#000000" id="mark3" stroke="none" style="fill-opacity: 1; pointer-events: visible;" transform="matrix(1,0,0,1,190.7408,335.9992)"><polygon points="-5,-5,0,0,5,-5"/></g><g class="DimensionMark" fill="#000000" id="mark4" stroke="none" style="fill-opacity: 1; pointer-events: visible;" transform="matrix(1,0,0,1,0,168.0824)"><polygon points="5,5,0,0,5,-5"/></g></g><g class="SpaceDimensionsLabel" transform="matrix(1,0,0,1,174.436,189.2201)"><g class="TextLabel NameLabel" id="NameLabel" style="display: block;"/><g class="TextLabel DimensionMeasureLabel" id="DimensionMeasureLabel" style="display: none;" transform="matrix(1,0,0,1,-114.625,79.4688)"/></g></g></g><g class="Space Entry Lobby" fill="#ffffff" id="2835bc9f-cf35-488d-8352-7ea74c5c773a" stroke="#ffffff" style="fill-opacity: 1; stroke-opacity: 1; stroke-width: 1;"><polygon points="546.03,322.11 537.33,322.11 537.33,437.54 359.96,437.54 359.96,192.83 546.03,192.83 "/><g class="Dimension" transform="matrix(1,0,0,1,359.9593,192.8334)"><g class="Visual" style="display: none;" transform="matrix(1,0,0,1,0,0)"><g class="DimensionMark" fill="#000000" id="mark1" stroke="none" style="fill-opacity: 1; pointer-events: visible;" transform="matrix(1,0,0,1,93.0358,0)"><polygon points="-5,5,0,0,5,5"/></g><g class="DimensionMark" fill="#000000" id="mark2" stroke="none" style="fill-opacity: 1; pointer-events: visible;" transform="matrix(1,0,0,1,186.0715,122.3525)"><polygon points="-5,-5,0,0,-5,5"/></g><g class="DimensionMark" fill="#000000" id="mark3" stroke="none" style="fill-opacity: 1; pointer-events: visible;" transform="matrix(1,0,0,1,93.0358,244.705)"><polygon points="-5,-5,0,0,5,-5"/></g><g class="DimensionMark" fill="#000000" id="mark4" stroke="none" style="fill-opacity: 1; pointer-events: visible;" transform="matrix(1,0,0,1,0,122.3525)"><polygon points="5,5,0,0,5,-5"/></g></g><g class="SpaceDimensionsLabel" transform="matrix(1,0,0,1,71.0314,132.5842)"><g class="TextLabel NameLabel" id="NameLabel" style="display: block;"/><g class="TextLabel DimensionMeasureLabel" id="DimensionMeasureLabel" style="display: none;" transform="matrix(1,0,0,1,-119.2344,79.7187)"/></g></g></g><g class="Space Undefined" fill="#ffffff" id="15294a43-6ac0-4fc3-9c4b-c8e1c5944d7b" stroke="#ffffff" style="fill-opacity: 1; stroke-opacity: 1; stroke-width: 1;"><polygon points="547.03,529.00 546.33,529.00 546.03,322.11 "/><g class="Dimension" transform="matrix(1,0,0,1,546.1792,322.1101)"><g class="Visual" style="display: none;" transform="matrix(1,0,0,1,0,0)"><g class="DimensionMark" fill="#000000" id="mark1" stroke="none" style="fill-opacity: 1; pointer-events: visible;" transform="matrix(1,0,0,1,0.1483,0)"><polygon points="-5,5,0,0,5,5"/></g><g class="DimensionMark" fill="#000000" id="mark2" stroke="none" style="fill-opacity: 1; pointer-events: visible;" transform="matrix(1,0,0,1,0.3517,103.4459)"><polygon points="-5,-5,0,0,-5,5"/></g><g class="DimensionMark" fill="#000000" id="mark3" stroke="none" style="fill-opacity: 1; pointer-events: visible;" transform="matrix(1,0,0,1,0.1483,206.8895)"><polygon points="-5,-5,0,0,5,-5"/></g><g class="DimensionMark" fill="#000000" id="mark4" stroke="none" style="fill-opacity: 1; pointer-events: visible;" transform="matrix(1,0,0,1,0,103.4459)"><polygon points="5,5,0,0,5,-5"/></g></g><g class="SpaceDimensionsLabel" transform="matrix(1,0,0,1,0.3517,159.4975)"><g class="TextLabel NameLabel" id="NameLabel" style="display: block;"/><g class="TextLabel DimensionMeasureLabel" id="DimensionMeasureLabel" style="display: none;" transform="matrix(1,0,0,1,-40.5235,79.7187)"/></g></g></g><g class="Space Bedroom" fill="#ffffff" id="61193d79-bd08-49e9-bee8-123764052c7d" stroke="#ffffff" style="fill-opacity: 1; stroke-opacity: 1; stroke-width: 1;"><polygon points="72.01,529.04 72.01,192.83 350.96,192.83 350.96,529.04 "/><g class="Dimension" transform="matrix(1,0,0,1,72.0088,192.8334)"><g class="Visual" style="display: none;" transform="matrix(1,0,0,1,0,0)"><g class="DimensionMark" fill="#000000" id="mark1" stroke="none" style="fill-opacity: 1; pointer-events: visible;" transform="matrix(1,0,0,1,139.4753,0)"><polygon points="-5,5,0,0,5,5"/></g><g class="DimensionMark" fill="#000000" id="mark2" stroke="none" style="fill-opacity: 1; pointer-events: visible;" transform="matrix(1,0,0,1,278.9506,168.1012)"><polygon points="-5,-5,0,0,-5,5"/></g><g class="DimensionMark" fill="#000000" id="mark3" stroke="none" style="fill-opacity: 1; pointer-events: visible;" transform="matrix(1,0,0,1,139.4753,336.2024)"><polygon points="-5,-5,0,0,5,-5"/></g><g class="DimensionMark" fill="#000000" id="mark4" stroke="none" style="fill-opacity: 1; pointer-events: visible;" transform="matrix(1,0,0,1,0,168.1012)"><polygon points="5,5,0,0,5,-5"/></g></g><g class="SpaceDimensionsLabel" transform="matrix(1,0,0,1,117.4378,197.2286)"><g class="TextLabel NameLabel" id="NameLabel" style="display: block;"/><g class="TextLabel DimensionMeasureLabel" id="DimensionMeasureLabel" style="display: none;" transform="matrix(1,0,0,1,-113.6875,79.7968)"/></g></g></g><g class="Space Outdoor Terrace" fill="#ffffff" id="5cfa51c2-42a0-4f4b-9ad8-2cdc264eebf3" stroke="#000000" style="fill-opacity: 1; stroke-opacity: 1; stroke-width: 1;"><polygon points="947.84,-0.16 947.89,548.83 1136.93,548.83 1136.93,0.17 947.84,-0.16 947.84,-0.16 "/><g class="Dimension" transform="matrix(1,0,0,1,947.8616,0.0051)"><g class="Visual" style="display: none;" transform="matrix(1,0,0,1,0,0)"><g class="DimensionMark" fill="#000000" id="mark1" stroke="none" style="fill-opacity: 1; pointer-events: visible;" transform="matrix(1,0,0,1,94.5201,0)"><polygon points="-5,5,0,0,5,5"/></g><g class="DimensionMark" fill="#000000" id="mark2" stroke="none" style="fill-opacity: 1; pointer-events: visible;" transform="matrix(1,0,0,1,189.0667,274.3293)"><polygon points="-5,-5,0,0,-5,5"/></g><g class="DimensionMark" fill="#000000" id="mark3" stroke="none" style="fill-opacity: 1; pointer-events: visible;" transform="matrix(1,0,0,1,94.5201,548.8275)"><polygon points="-5,-5,0,0,5,-5"/></g><g class="DimensionMark" fill="#000000" id="mark4" stroke="none" style="fill-opacity: 1; pointer-events: visible;" transform="matrix(1,0,0,1,0,274.3293)"><polygon points="5,5,0,0,5,-5"/></g></g><g class="SpaceDimensionsLabel" transform="matrix(1,0,0,1,20.1583,333.11)"><g class="TextLabel NameLabel" id="NameLabel" style="display: block;"/><g class="TextLabel DimensionMeasureLabel" id="DimensionMeasureLabel" style="display: none;" transform="matrix(1,0,0,1,-67.6484,79.2656)"/></g></g></g><g class="Space Outdoor" fill="#ffffff" id="dd0d2768-cc8d-46ea-8778-177cce31aed5" stroke="#000000" style="fill-opacity: 1; stroke-opacity: 1; stroke-width: 1;"><polygon points="481.66,549.04 317.67,549.04 317.67,711.48 481.66,711.79 481.66,549.04 481.66,549.04 "/><g class="Dimension" transform="matrix(1,0,0,1,317.6676,549.0358)"><g class="Visual" style="display: none;" transform="matrix(1,0,0,1,0,0)"><g class="DimensionMark" fill="#000000" id="mark1" stroke="none" style="fill-opacity: 1; pointer-events: visible;" transform="matrix(1,0,0,1,81.9972,0)"><polygon points="-5,5,0,0,5,5"/></g><g class="DimensionMark" fill="#000000" id="mark2" stroke="none" style="fill-opacity: 1; pointer-events: visible;" transform="matrix(1,0,0,1,163.9937,81.3764)"><polygon points="-5,-5,0,0,-5,5"/></g><g class="DimensionMark" fill="#000000" id="mark3" stroke="none" style="fill-opacity: 1; pointer-events: visible;" transform="matrix(1,0,0,1,81.9972,162.5997)"><polygon points="-5,-5,0,0,5,-5"/></g><g class="DimensionMark" fill="#000000" id="mark4" stroke="none" style="fill-opacity: 1; pointer-events: visible;" transform="matrix(1,0,0,1,0,81.3764)"><polygon points="5,5,0,0,5,-5"/></g></g><g class="SpaceDimensionsLabel" transform="matrix(1,0,0,1,82.0226,81.2998)"><g class="TextLabel NameLabel" id="NameLabel" style="display: block;"/><g class="TextLabel DimensionMeasureLabel" id="DimensionMeasureLabel" style="display: none;" transform="matrix(1,0,0,1,-57.3125,79.7187)"/></g></g></g><g class="Space Bath" fill="#ffffff" id="f461cecb-77e0-4881-98f8-0950599e55cb" stroke="#ffffff" style="fill-opacity: 1; stroke-opacity: 1; stroke-width: 1;"><polygon points="537.33,183.83 256.18,183.83 256.18,21.15 537.33,21.15 "/><g class="Dimension" transform="matrix(1,0,0,1,256.1797,21.1549)"><g class="Visual" style="display: none;" transform="matrix(1,0,0,1,0,0)"><g class="DimensionMark" fill="#000000" id="mark1" stroke="none" style="fill-opacity: 1; pointer-events: visible;" transform="matrix(1,0,0,1,140.5739,0)"><polygon points="-5,5,0,0,5,5"/></g><g class="DimensionMark" fill="#000000" id="mark2" stroke="none" style="fill-opacity: 1; pointer-events: visible;" transform="matrix(1,0,0,1,281.1478,81.3393)"><polygon points="-5,-5,0,0,-5,5"/></g><g class="DimensionMark" fill="#000000" id="mark3" stroke="none" style="fill-opacity: 1; pointer-events: visible;" transform="matrix(1,0,0,1,140.5739,162.6785)"><polygon points="-5,-5,0,0,5,-5"/></g><g class="DimensionMark" fill="#000000" id="mark4" stroke="none" style="fill-opacity: 1; pointer-events: visible;" transform="matrix(1,0,0,1,0,81.3393)"><polygon points="5,5,0,0,5,-5"/></g></g><g class="SpaceDimensionsLabel" transform="matrix(1,0,0,1,113.2396,90.1689)"><g class="TextLabel NameLabel" id="NameLabel" style="display: block;"/><g class="TextLabel DimensionMeasureLabel" id="DimensionMeasureLabel" style="display: none;" transform="matrix(1,0,0,1,-106.2266,79.7187)"/></g></g></g><g class="Space Storage" fill="#ffffff" id="105cfc62-79d1-4baf-a583-0d7352ab2bd3" stroke="#ffffff" style="fill-opacity: 1; stroke-opacity: 1; stroke-width: 1;"><polygon points="678.66,701.09 492.75,701.09 492.75,548.98 546.33,548.98 678.66,548.83 "/><g class="Dimension" transform="matrix(1,0,0,1,492.7475,548.9377)"><g class="Visual" style="display: none;" transform="matrix(1,0,0,1,0,0)"><g class="DimensionMark" fill="#000000" id="mark1" stroke="none" style="fill-opacity: 1; pointer-events: visible;" transform="matrix(1,0,0,1,92.9551,0)"><polygon points="-5,5,0,0,5,5"/></g><g class="DimensionMark" fill="#000000" id="mark2" stroke="none" style="fill-opacity: 1; pointer-events: visible;" transform="matrix(1,0,0,1,185.9099,76.0235)"><polygon points="-5,-5,0,0,-5,5"/></g><g class="DimensionMark" fill="#000000" id="mark3" stroke="none" style="fill-opacity: 1; pointer-events: visible;" transform="matrix(1,0,0,1,92.9551,152.1522)"><polygon points="-5,-5,0,0,5,-5"/></g><g class="DimensionMark" fill="#000000" id="mark4" stroke="none" style="fill-opacity: 1; pointer-events: visible;" transform="matrix(1,0,0,1,0,76.0235)"><polygon points="5,5,0,0,5,-5"/></g></g><g class="SpaceDimensionsLabel" transform="matrix(1,0,0,1,56.9507,116.896)"><g class="TextLabel NameLabel" id="NameLabel" style="display: block;"/><g class="TextLabel DimensionMeasureLabel" id="DimensionMeasureLabel" style="display: none;" transform="matrix(1,0,0,1,-106.1719,79.4688)"/></g></g></g><g class="Space Undefined" fill="#ffffff" id="a373d0a9-008c-4948-86b2-9e372d1290d6" stroke="#ffffff" style="fill-opacity: 1; stroke-opacity: 1; stroke-width: 1;"><polygon points="242.75,183.83 72.01,183.83 72.01,21.31 242.75,21.15 "/><g class="Dimension" transform="matrix(1,0,0,1,72.0088,21.2307)"><g class="Visual" style="display: none;" transform="matrix(1,0,0,1,0,0)"><g class="DimensionMark" fill="#000000" id="mark1" stroke="none" style="fill-opacity: 1; pointer-events: visible;" transform="matrix(1,0,0,1,85.3688,0)"><polygon points="-5,5,0,0,5,5"/></g><g class="DimensionMark" fill="#000000" id="mark2" stroke="none" style="fill-opacity: 1; pointer-events: visible;" transform="matrix(1,0,0,1,170.7374,81.2634)"><polygon points="-5,-5,0,0,-5,5"/></g><g class="DimensionMark" fill="#000000" id="mark3" stroke="none" style="fill-opacity: 1; pointer-events: visible;" transform="matrix(1,0,0,1,85.3688,162.6026)"><polygon points="-5,-5,0,0,5,-5"/></g><g class="DimensionMark" fill="#000000" id="mark4" stroke="none" style="fill-opacity: 1; pointer-events: visible;" transform="matrix(1,0,0,1,0,81.2634)"><polygon points="5,5,0,0,5,-5"/></g></g><g class="SpaceDimensionsLabel" transform="matrix(1,0,0,1,85.382,81.3013)"><g class="TextLabel NameLabel" id="NameLabel" style="display: block;"/><g class="TextLabel DimensionMeasureLabel" id="DimensionMeasureLabel" style="display: none;" transform="matrix(1,0,0,1,-40.5078,80.25)"/></g></g></g><g class="Space DraughtLobby" fill="#ffffff" id="d549d0f1-fc17-4e50-b3d8-f5a55ac7ba3d" stroke="#ffffff" style="fill-opacity: 1; stroke-opacity: 1; stroke-width: 1;"><polygon points="537.33,498.48 480.80,498.48 480.80,528.78 537.33,528.78 537.33,529.00 472.75,529.03 359.96,529.04 359.96,446.54 537.33,446.54 "/><g class="Dimension" transform="matrix(1,0,0,1,359.9593,446.5383)"><g class="Visual" style="display: none;" transform="matrix(1,0,0,1,0,0)"><g class="DimensionMark" fill="#000000" id="mark1" stroke="none" style="fill-opacity: 1; pointer-events: visible;" transform="matrix(1,0,0,1,88.6841,0)"><polygon points="-5,5,0,0,5,5"/></g><g class="DimensionMark" fill="#000000" id="mark2" stroke="none" style="fill-opacity: 1; pointer-events: visible;" transform="matrix(1,0,0,1,177.3682,41.2487)"><polygon points="-5,-5,0,0,-5,5"/></g><g class="DimensionMark" fill="#000000" id="mark3" stroke="none" style="fill-opacity: 1; pointer-events: visible;" transform="matrix(1,0,0,1,88.6841,82.4947)"><polygon points="-5,-5,0,0,5,-5"/></g><g class="DimensionMark" fill="#000000" id="mark4" stroke="none" style="fill-opacity: 1; pointer-events: visible;" transform="matrix(1,0,0,1,0,41.2487)"><polygon points="5,5,0,0,5,-5"/></g></g><g class="SpaceDimensionsLabel" transform="matrix(1,0,0,1,41.2487,52.0965)"><g class="TextLabel NameLabel" id="NameLabel" style="display: block;"/><g class="TextLabel DimensionMeasureLabel" id="DimensionMeasureLabel" style="display: none;" transform="matrix(1,0,0,1,-118.6094,79.8125)"/></g></g></g><g class="Wall External" fill="#000000" id="Wall" stroke="#000000" style="fill-opacity: 1; stroke-opacity: 1; stroke-width: 1;"><polygon points="72.01,21.31 72.01,529.04 52.01,549.04 52.01,1.31 "/><g class="Window Regular" fill="#f0f0ff" id="Window" stroke="#000000" style="fill-opacity: 1; stroke-width: 1; stroke-opacity: 1;"><polygon points="72.01,108.91 72.01,176.71 52.01,176.71 52.01,108.91 "/><g class="Glass" id="Glass"><polygon points="72.01,108.91 72.01,176.71 52.01,176.71 52.01,108.91 "/></g><g class="Panel" id="Panel"><line x1="62.00875128402278" x2="62.00875128402278" y1="116.40676688798101" y2="169.20884580011955"/><line x1="72.00875128402278" x2="52.00875128402278" y1="116.40676688798101" y2="116.40676688798101"/><line x1="72.00875128402278" x2="52.00875128402278" y1="169.20884580011955" y2="169.20884580011955"/></g></g><g class="Window Regular" fill="#f0f0ff" id="Window" stroke="#000000" style="fill-opacity: 1; stroke-width: 1; stroke-opacity: 1;"><polygon points="72.01,273.62 72.01,304.43 52.01,304.43 52.01,273.62 "/><g class="Glass" id="Glass"><polygon points="72.01,273.62 72.01,304.43 52.01,304.43 52.01,273.62 "/></g><g class="Panel" id="Panel"><line x1="62.00875128402279" x2="62.00875128402279" y1="281.1226515916194" y2="296.9335367276502"/><line x1="72.0087512840228" x2="52.00875128402279" y1="281.1226515916194" y2="281.1226515916194"/><line x1="72.0087512840228" x2="52.00875128402279" y1="296.9335367276502" y2="296.9335367276502"/></g></g><g class="Window Regular" fill="#f0f0ff" id="Window" stroke="#000000" style="fill-opacity: 1; stroke-width: 1; stroke-opacity: 1;"><polygon points="72.01,304.43 72.01,422.54 52.01,422.54 52.01,304.43 "/><g class="Glass" id="Glass"><polygon points="72.01,304.43 72.01,422.54 52.01,422.54 52.01,304.43 "/></g><g class="Panel" id="Panel"><line x1="62.00875128402279" x2="62.00875128402281" y1="311.9335367276502" y2="415.04193152992286"/><line x1="72.0087512840228" x2="52.00875128402279" y1="311.9335367276502" y2="311.9335367276502"/><line x1="72.00875128402281" x2="52.00875128402281" y1="415.04193152992286" y2="415.04193152992286"/></g></g></g><g class="Wall External" fill="#000000" id="Wall" stroke="#000000" style="fill-opacity: 1; stroke-opacity: 1; stroke-width: 1;"><polygon points="52.01,549.04 481.66,549.04 492.75,529.04 72.01,529.04 "/><g class="Door Swing Beside" fill="#ffffff" id="Door" stroke="#000000" style="fill-opacity: 1; stroke-width: 1; stroke-opacity: 1;"><polygon points="393.01,549.04 455.68,549.04 455.68,529.04 393.01,529.04 "/><g class="Panel Left Negative" fill="none" id="Panel" style=""><g class="PanelArea" fill="none" id="PanelArea" stroke="none" style=""><polygon points="393.01,549.04 455.68,549.04 455.68,529.04 393.01,529.04 "/></g><path d="M393.01,549.04 q0.00,62.67 62.67,62.67 l0.00,-62.67Z"/></g></g></g><g class="Wall External" fill="#000000" id="Wall" stroke="#000000" style="fill-opacity: 1; stroke-opacity: 1; stroke-width: 1;"><polygon points="492.75,529.04 492.75,701.09 481.66,711.79 481.66,549.04 "/><g class="Door Swing Beside" fill="#ffffff" id="Door" stroke="#000000" style="fill-opacity: 1; stroke-width: 1; stroke-opacity: 1;"><polygon points="492.75,622.57 492.75,685.89 481.66,685.89 481.66,622.57 "/><g class="Panel Right Positive" fill="none" id="Panel" style=""><g class="PanelArea" fill="none" id="PanelArea" stroke="none" style=""><polygon points="492.75,622.57 492.75,685.89 481.66,685.89 481.66,622.57 "/></g><path d="M481.66,622.57 q-63.32,0.00 -63.32,63.32 l63.32,0.00Z"/></g></g></g><g class="Wall External" fill="#000000" id="Wall" stroke="#000000" style="fill-opacity: 1; stroke-opacity: 1; stroke-width: 1;"><polygon points="481.66,711.79 688.58,711.79 678.66,701.09 492.75,701.09 "/></g><g class="Wall External" fill="#000000" id="Wall" stroke="#000000" style="fill-opacity: 1; stroke-opacity: 1; stroke-width: 1;"><polygon points="688.58,711.79 688.58,548.83 678.66,528.83 678.66,701.09 "/></g><g class="Wall External" fill="#000000" id="Wall" stroke="#000000" style="fill-opacity: 1; stroke-opacity: 1; stroke-width: 1;"><polygon points="678.66,528.83 927.89,528.83 947.89,548.83 688.58,548.83 "/></g><g class="Wall External" fill="#000000" id="Wall" stroke="#000000" style="fill-opacity: 1; stroke-opacity: 1; stroke-width: 1;"><polygon points="947.89,548.83 947.89,1.15 927.89,21.15 927.89,528.83 "/><g class="Window Regular" fill="#f0f0ff" id="Window" stroke="#000000" style="fill-opacity: 1; stroke-width: 1; stroke-opacity: 1;"><polygon points="947.89,469.70 947.89,435.50 927.89,435.50 927.89,469.70 "/><g class="Glass" id="Glass"><polygon points="947.89,469.70 947.89,435.50 927.89,435.50 927.89,469.70 "/></g><g class="Panel" id="Panel"><line x1="937.8875533911125" x2="937.8875533911125" y1="462.19591123492" y2="442.9976321120287"/><line x1="947.8875533911125" x2="927.8875533911125" y1="462.19591123492" y2="462.19591123492"/><line x1="947.8875533911125" x2="927.8875533911125" y1="442.9976321120287" y2="442.9976321120287"/></g></g><g class="Window Regular" fill="#f0f0ff" id="Window" stroke="#000000" style="fill-opacity: 1; stroke-width: 1; stroke-opacity: 1;"><polygon points="947.89,435.50 947.89,313.16 927.89,313.16 927.89,435.50 "/><g class="Glass" id="Glass"><polygon points="947.89,435.50 947.89,313.16 927.89,313.16 927.89,435.50 "/></g><g class="Panel" id="Panel"><line x1="937.8875533911125" x2="937.8875533911125" y1="427.99763461395656" y2="320.65945597841414"/><line x1="947.8875533911125" x2="927.8875533911125" y1="427.99763461395656" y2="427.99763461395656"/><line x1="947.8875533911125" x2="927.8875533911125" y1="320.6594559784142" y2="320.6594559784142"/></g></g><g class="Window Regular" fill="#f0f0ff" id="Window" stroke="#000000" style="fill-opacity: 1; stroke-width: 1; stroke-opacity: 1;"><polygon points="947.89,175.43 947.89,94.81 927.89,94.81 927.89,175.43 "/><g class="Glass" id="Glass"><polygon points="947.89,175.43 947.89,94.81 927.89,94.81 927.89,175.43 "/></g><g class="Panel" id="Panel"><line x1="937.8875533911124" x2="937.8875533911124" y1="167.92632812984323" y2="102.30883301144314"/><line x1="947.8875533911124" x2="927.8875533911124" y1="167.92632812984323" y2="167.92632812984323"/><line x1="947.8875533911124" x2="927.8875533911124" y1="102.30883301144314" y2="102.30883301144314"/></g></g><g class="Door Swing Opposite" fill="#ffffff" id="Door" stroke="#000000" style="fill-opacity: 1; stroke-width: 1; stroke-opacity: 1;"><polygon points="947.89,307.34 947.89,244.55 927.89,244.55 927.89,307.34 "/><g class="Panel Left Negative" fill="none" id="Panel" style=""><g class="PanelArea" fill="none" id="PanelArea" stroke="none" style=""><polygon points="947.89,307.34 947.89,244.55 927.89,244.55 927.89,307.34 "/></g><path d="M947.89,307.34 q62.79,0.00 62.79,-62.79 l-62.79,0.00Z"/></g><g class="Panel Right Positive" fill="none" id="Panel" style=""><g class="PanelArea" fill="none" id="PanelArea" stroke="none" style=""><polygon points="947.89,307.34 947.89,244.55 927.89,244.55 927.89,307.34 "/></g><path d="M927.89,307.34 q-62.79,0.00 -62.79,-62.79 l62.79,0.00Z"/></g></g></g><g class="Wall External" fill="#000000" id="Wall" stroke="#000000" style="fill-opacity: 1; stroke-opacity: 1; stroke-width: 1;"><polygon points="927.89,21.15 72.01,21.31 52.01,1.31 947.89,1.15 "/></g><g class="Wall" fill="#000000" id="Wall" stroke="#000000" style="fill-opacity: 1; stroke-opacity: 1; stroke-width: 1;"><polygon points="52.01,192.83 603.49,192.83 603.49,183.83 52.01,183.83 "/><g class="Door Swing Beside" fill="#ffffff" id="Door" stroke="#000000" style="fill-opacity: 1; stroke-width: 1; stroke-opacity: 1;"><polygon points="376.31,192.83 439.01,192.83 439.01,183.83 376.31,183.83 "/><g class="Panel Right Negative" fill="none" id="Panel" style=""><g class="PanelArea" fill="none" id="PanelArea" stroke="none" style=""><polygon points="376.31,192.83 439.01,192.83 439.01,183.83 376.31,183.83 "/></g><path d="M439.01,192.83 q0.00,62.70 -62.70,62.70 l0.00,-62.70Z"/></g></g></g><g class="Wall" fill="#000000" id="Wall" stroke="#000000" style="fill-opacity: 1; stroke-opacity: 1; stroke-width: 1;"><polygon points="256.18,192.83 256.18,1.27 242.75,1.27 242.75,192.83 "/><g class="Door Swing Beside" fill="#ffffff" id="Door" stroke="#000000" style="fill-opacity: 1; stroke-width: 1; stroke-opacity: 1;"><polygon points="256.18,176.20 256.18,115.07 242.75,115.07 242.75,176.20 "/><g class="Panel Right Negative" fill="none" id="Panel" style=""><g class="PanelArea" fill="none" id="PanelArea" stroke="none" style=""><polygon points="256.18,176.20 256.18,115.07 242.75,115.07 242.75,176.20 "/></g><path d="M256.18,115.07 q61.13,0.00 61.13,61.13 l-61.13,-0.00Z"/></g></g></g><g class="Wall" fill="#000000" id="Wall" stroke="#000000" style="fill-opacity: 1; stroke-opacity: 1; stroke-width: 1;"><polygon points="546.33,192.83 546.33,1.22 537.33,1.22 537.33,192.83 "/></g><g class="Wall" fill="#000000" id="Wall" stroke="#000000" style="fill-opacity: 1; stroke-opacity: 1; stroke-width: 1;"><polygon points="546.33,322.11 546.33,549.04 537.33,549.04 537.33,322.11 "/></g><g class="Wall" fill="#000000" id="Wall" stroke="#000000" style="fill-opacity: 1; stroke-opacity: 1; stroke-width: 1;"><polygon points="350.96,192.83 350.96,549.04 359.96,549.04 359.96,192.83 "/><g class="Door Swing Beside" fill="#ffffff" id="Door" stroke="#000000" style="fill-opacity: 1; stroke-width: 1; stroke-opacity: 1;"><polygon points="350.96,261.33 350.96,325.10 359.96,325.10 359.96,261.33 "/><g class="Panel Right Negative" fill="none" id="Panel" style=""><g class="PanelArea" fill="none" id="PanelArea" stroke="none" style=""><polygon points="350.96,261.33 350.96,325.10 359.96,325.10 359.96,261.33 "/></g><path d="M350.96,325.10 q-63.78,0.00 -63.78,-63.78 l63.78,0.00Z"/></g></g></g><g class="Wall" fill="#000000" id="Wall" stroke="#000000" style="fill-opacity: 1; stroke-opacity: 1; stroke-width: 1;"><polygon points="472.75,529.03 688.58,528.83 688.60,548.78 472.77,548.98 "/></g><g class="Wall" fill="#000000" id="Wall" stroke="#000000" style="fill-opacity: 1; stroke-opacity: 1; stroke-width: 1;"><polygon points="350.96,437.54 546.33,437.54 546.33,446.54 350.96,446.54 "/><g class="Door Swing Beside" fill="#ffffff" id="Door" stroke="#000000" style="fill-opacity: 1; stroke-width: 1; stroke-opacity: 1;"><polygon points="391.93,437.54 457.47,437.54 457.47,446.54 391.93,446.54 "/><g class="Panel Left Negative" fill="none" id="Panel" style=""><g class="PanelArea" fill="none" id="PanelArea" stroke="none" style=""><polygon points="391.93,437.54 457.47,437.54 457.47,446.54 391.93,446.54 "/></g><path d="M391.93,437.54 q0.00,-65.53 65.53,-65.53 l0.00,65.53Z"/></g></g></g><g class="Wall" fill="#000000" id="Wall" stroke="#000000" style="fill-opacity: 1; stroke-opacity: 1; stroke-width: 1;"><polygon points="537.33,498.48 480.80,498.48 480.80,528.78 537.33,528.78 "/></g><g class="Railing" fill="#ffffff" id="Railing" stroke="#000000" style="fill-opacity: 1; stroke-opacity: 1; stroke-width: 1;"><polygon points="603.49,192.83 783.95,192.83 783.95,183.83 603.49,183.83 " style="stroke-dasharray: 0;"/></g><g class="FixedFurniture ElectricalAppliance WashingMachine" fill="#ffffff" stroke="#000000" style="fill-opacity: 1; stroke-opacity: 1;" transform="matrix(1,0,0,1,477.3274,21.3072)">
<g class="BoundaryPolygon">
<polygon points="0,0 60,0 60,60 0,60"/>
</g>
<g class="electricitySign" fill="none">
<path d="M0,0,30,41V20.8L60,60"/>
</g>
<g class="Handle">
<path d="M2.7,59.4H57.3"/>
</g>
<g class="Direction" fill-opacity="0.9" style="display: none;">
<polygon fill="#444444" points="32.009 55.197 32.009 44.581 29 44.581 29 55.197 25.197 55.197 30.5 60 35.803 55.197 32.009 55.197"/>
</g>
<g class="Name" fill-opacity="0.9" style="display: none;">

</g>
<desc>Width:60 Height:90 Depth:60 Elevation:0</desc>
</g><g class="FixedFurniture Shower" fill="#ffffff" stroke="#000000" style="fill-opacity: 1; stroke-opacity: 1;" transform="matrix(0,-1,1,0,256.1797,84.19)">
<g class="BoundaryPolygon" fill="none" stroke="none">
<polygon points="0,0 32,0 32,19 0,19"/>
</g>
<g class="InnerPolygon">
<rect height="6.1" width="11.2" x="3.7" y="0.5"/>
<rect height="6.1" width="11.2" x="17.6" y="0.5"/>
<rect height="6.1" width="3.4" x="28.7" y="0.5"/>
<rect height="6.1" width="3.2" x="0.5" y="0.5"/>
<path d="M14.9,8.5c0,1.5-0.4,3.3-1.6,5    c-0.4,0.6-1,1.1-1.1,1.7c-0.2,1.1,0.3,2.8,2.5,3.2c0.5,0.1,1.3,0.1,1.6,0.1h-0.1c0.3,0,1.1,0,1.6-0.1c2.2-0.4,2.7-2.1,2.5-3.2    c-0.1-0.6-0.7-1.1-1.1-1.7c-1.2-1.7-1.6-3.5-1.6-5"/>
<path d="M12.2,15.3c0.1,0.2,1.6,1.9,4.2,1.9 c2.4-0.1,3.7-1.7,3.9-1.9"/>
<path d="M14.9,0.5h2.7v8c-0.9,0-1.8,0-2.7,0l0,0 C14.9,5.9,14.9,3.2,14.9,0.5z"/>
</g>
<g class="Indicator">
<path d="M3.7,3.6C5,3.1,5.2,3,5.2,3 c0,1.1,0,0,0,1.1C5.2,4.1,5.1,4.1,3.7,3.6"/>
<path d="M28.7,3.6 C27.4,3.1,27.2,3,27.2,3c0,1.1,0,0,0,1.1C27.2,4.1,27.3,4.1,28.7,3.6"/>
</g>
<desc>Width:32 Height:97 Depth:19 Elevation:135</desc>
</g><g class="FixedFurniture Toilet" fill="#ffffff" stroke="#000000" style="fill-opacity: 1; stroke-opacity: 1;" transform="matrix(0,1,-1,0,537.3274,130.4112)">
<g class="BoundaryPolygon" fill="none" stroke="none">
<polygon points="0,0 41,0 41,71 0,71"/>
</g>
<g class="InnerPolygon">
<rect height="17.98" width="39.989" x="0.502" y="0.5"/>
<path d="M40.491,44.237S41.619,70.5,20.907,70.5C-.523,70.5.6,44.237.6,44.237L.5,18.48H40.491Z"/>
<rect height="3.03" width="6.357" x="17.318" y="7.975"/>
</g>
<desc>Width:41 Height:85 Depth:71 Elevation:0</desc>
</g><g class="FixedFurniture BaseCabinet" fill="#ffffff" stroke="#000000" style="fill-opacity: 1; stroke-opacity: 1;" transform="matrix(1,0,0,1,347.0303,21.2475)">
<g class="BoundaryPolygon">
<polygon points="0.00,0.00 117.16,0.00 117.16,37.55 0.00,37.55 "/>
</g>
<g class="Direction" fill-opacity="0.9" style="display: none;">
<polygon fill="#444444" points="62.50,34.55 62.50,23.93 59.49,23.93 59.49,34.55 55.69,34.55 60.99,39.35 66.30,34.55 62.50,34.55 "/>
</g>
<g class="Name" fill-opacity="0.9" style="display: none;">

</g>
<desc>Width:60 Height:90 Depth:60 Elevation:0</desc>
</g><g class="FixedFurniture Sink" fill="#ffffff" stroke="#000000" style="fill-opacity: 1; stroke-opacity: 1;" transform="matrix(1,0,0,1,369.1344,16.4761)">
<g class="BoundaryPolygon" fill="none" stroke="none">
<polygon points="0.00,0.00 57.73,0.00 57.73,38.04 0.00,38.04 "/>
</g>
<g class="InnerPolygon">
<polygon points="4.81,9.70 52.92,9.70 52.92,34.68 4.81,34.68 "/>
</g>
<g class="OuterDrain" stroke-width="0.8">
<circle cx="28.862921515302624" cy="20.41500335498353" r="3.5"/>
</g>
<g class="InnerDrain" stroke-width="0.8">
<circle cx="28.862921515302624" cy="20.41500335498353" r="2"/>
</g>
<g class="Faucet">
<polygon points="25.98,3.17 31.98,3.17 31.98,17.17 25.98,17.17 "/>
</g>
<g class="Direction" fill-opacity="0.9" style="display: none;">
<polygon fill="#444444" points="30.80,35.00 30.80,24.38 27.79,24.38 27.79,35.00 23.98,35.00 29.29,39.80 34.59,35.00 30.80,35.00 "/>
</g>
<g class="Name" fill-opacity="0.9" style="display: none;">

</g>
<desc>Width:60 Height:90 Depth:60 Elevation:0</desc>
</g><g class="FixedFurniture SaunaBenchHigh" fill="#ffffff" stroke="#000000" style="fill-opacity: 1; stroke-opacity: 1;" transform="matrix(1,0,0,1,72.3799,21.4166)">
<g class="BoundaryPolygon">
<polygon points="0.00,0.00 170.37,0.00 170.37,60.00 0.00,60.00 "/>
</g>

<g class="Direction" fill-opacity="0.9" style="display: none;">
<polygon fill="#444444" points="87.86,54.66 87.86,44.04 84.85,44.04 84.85,54.66 81.05,54.66 86.35,59.96 91.66,54.66 87.86,54.66 "/>
</g>
<g class="Name" fill-opacity="0.9" style="display: none;">

</g>
<desc>Width:185 Height:5 Depth:60 Elevation:105</desc>
</g><g class="FixedFurniture SaunaBenchMid" fill="#ffffff" stroke="#000000" style="fill-opacity: 1; stroke-opacity: 1;" transform="matrix(1,0,0,1,72.3657,81.5103)">
<g class="BoundaryPolygon">
<polygon points="0.00,0.00 170.36,0.00 170.36,30.72 0.00,30.72 "/>
</g>

<g class="Direction" fill-opacity="0.9" style="display: none;">
<polygon fill="#444444" points="86.57,26.61 86.57,16.00 83.56,16.00 83.56,26.61 79.76,26.61 85.06,31.92 90.37,26.61 86.57,26.61 "/>
</g>
<g class="Name" fill-opacity="0.9" style="display: none;">

</g>
<desc>Width:185 Height:5 Depth:40 Elevation:60</desc>
</g><g class="FixedFurniture ElectricalAppliance SaunaStove" fill="#ffffff" stroke="#000000" style="fill-opacity: 1; stroke-opacity: 1;" transform="matrix(-0.489,0,0,-0.8544,132.1567,166.0326)">
<g class="BoundaryPolygon">
<polygon points="0,0 60,0 60,35 0,35"/>
</g>
<g class="electricitySign" fill="none">
<polyline points="0 35 39.7 17.5 21.4 17.5 60 0"/>
</g>
<g class="Direction" fill-opacity="0.9" style="display: none;">
<polygon fill="#444444" points="31.509 29.697 31.509 19.081 28.5 19.081 28.5 29.697 24.697 29.697 30 35 35.303 29.697 31.509 29.697"/>
</g>
<g class="Name" fill-opacity="0.9" style="display: none;">

</g>
<desc>Width:60 Height:60 Depth:35 Elevation:20</desc>
</g><g class="FixedFurnitureSet" fill="#ffffff" id="FixedFurnitureSet" stroke="#000000" style="fill-opacity: 0.4; stroke-opacity: 0.4;" transform="matrix(1,0,0,1,244.2632,192.8334)"><g class="FixedFurniture Closet" fill="#ffffff" stroke="#000000" style="fill-opacity: 1; stroke-opacity: 1;" transform="matrix(1,0,0,1,0,0)">
<g class="BoundaryPolygon">
<polygon points="0.00,0.00 53.35,0.00 53.35,55.26 0.00,55.26 "/>
</g>
<g class="Direction" fill-opacity="0.9" style="display: none;">
<polygon fill="#444444" points="28.01,50.37 28.01,39.76 25.01,39.76 25.01,50.37 21.20,50.37 26.51,55.68 31.81,50.37 28.01,50.37 "/>
</g>
<g class="Name" fill-opacity="0.9" style="display: none;">

</g>
<desc>Width:60 Height:200 Depth:60 Elevation:0</desc>
</g><g class="FixedFurniture Closet" fill="#ffffff" stroke="#000000" style="fill-opacity: 1; stroke-opacity: 1;" transform="matrix(1,0,0,1,53.3461,0)">
<g class="BoundaryPolygon">
<polygon points="0.00,0.00 53.35,0.00 53.35,55.26 0.00,55.26 "/>
</g>
<g class="Direction" fill-opacity="0.9" style="display: none;">
<polygon fill="#444444" points="28.01,50.37 28.01,39.76 25.01,39.76 25.01,50.37 21.20,50.37 26.51,55.68 31.81,50.37 28.01,50.37 "/>
</g>
<g class="Name" fill-opacity="0.9" style="display: none;">

</g>
<desc>Width:60 Height:200 Depth:60 Elevation:0</desc>
</g></g><g class="FixedFurniture CoatCloset" fill="#ffffff" stroke="#000000" style="fill-opacity: 1; stroke-opacity: 1;" transform="matrix(1,0,0,1,191.5673,192.8959)">
<g class="BoundaryPolygon">
<polygon points="0.00,0.00 52.70,0.00 52.70,55.13 0.00,55.13 "/>
</g>

<g class="Direction" fill-opacity="0.9" style="display: none;">
<polygon fill="#444444" points="27.67,50.26 27.67,39.64 24.66,39.64 24.66,50.26 20.86,50.26 26.16,55.56 31.47,50.26 27.67,50.26 "/>
</g>
<g class="Name" fill-opacity="0.9" style="display: none;">

</g>
<desc>Width:60 Height:200 Depth:60 Elevation:0</desc>
</g><g class="FixedFurniture CoatCloset" fill="#ffffff" stroke="#000000" style="fill-opacity: 1; stroke-opacity: 1;" transform="matrix(1,0,0,1,90.1272,192.8958)">
<g class="BoundaryPolygon">
<polygon points="0.00,0.00 101.44,0.00 101.44,55.13 0.00,55.13 "/>
</g>

<g class="Direction" fill-opacity="0.9" style="display: none;">
<polygon fill="#444444" points="53.26,50.26 53.26,39.64 50.25,39.64 50.25,50.26 46.45,50.26 51.75,55.56 57.06,50.26 53.26,50.26 "/>
</g>
<g class="Name" fill-opacity="0.9" style="display: none;">

</g>
<desc>Width:60 Height:200 Depth:60 Elevation:0</desc>
</g><g class="FixedFurniture Housing" fill="#ffffff" stroke="#000000" style="fill-opacity: 1; stroke-opacity: 1;" transform="matrix(1.8021,0,0,0.9208,71.6696,192.7876)">
<g class="BoundaryPolygon">
<polygon points="0,0 10,0 10,60 0,60"/>
</g>
<g class="Name" fill-opacity="0.9" style="display: none;">

</g>
<desc>Width:60 Height:200 Depth:60 Elevation:0</desc>
</g><g class="FixedFurniture Closet" fill="#ffffff" stroke="#000000" style="fill-opacity: 1; stroke-opacity: 1;" transform="matrix(0,1,-1,0,537.3119,446.9123)">
<g class="BoundaryPolygon">
<polygon points="0.00,0.00 52.06,0.00 52.06,57.34 0.00,57.34 "/>
</g>
<g class="Direction" fill-opacity="0.9" style="display: none;">
<polygon fill="#444444" points="27.34,52.27 27.34,41.65 24.33,41.65 24.33,52.27 20.53,52.27 25.83,57.57 31.13,52.27 27.34,52.27 "/>
</g>
<g class="Name" fill-opacity="0.9" style="display: none;">

</g>
<desc>Width:60 Height:200 Depth:60 Elevation:0</desc>
</g><g class="FixedFurniture CoatCloset" fill="#ffffff" stroke="#000000" style="fill-opacity: 1; stroke-opacity: 1;" transform="matrix(0,1,-1,0,537.3275,336.9665)">
<g class="BoundaryPolygon">
<polygon points="0.00,0.00 100.57,0.00 100.57,57.74 0.00,57.74 "/>
</g>

<g class="Direction" fill-opacity="0.9" style="display: none;">
<polygon fill="#444444" points="51.55,52.46 51.55,41.85 48.54,41.85 48.54,52.46 44.74,52.46 50.04,57.77 55.34,52.46 51.55,52.46 "/>
</g>
<g class="Name" fill-opacity="0.9" style="display: none;">

</g>
<desc>Width:120 Height:200 Depth:60 Elevation:0</desc>
</g><g class="FixedFurniture Closet" fill="#ffffff" stroke="#000000" style="fill-opacity: 1; stroke-opacity: 1;" transform="matrix(1,0,0,1,492.7463,548.9928)">
<g class="BoundaryPolygon">
<polygon points="0.00,0.00 70.86,0.00 70.86,60.00 0.00,60.00 "/>
</g>
<g class="Direction" fill-opacity="0.9" style="display: none;">
<polygon fill="#444444" points="37.21,54.70 37.21,44.08 34.20,44.08 34.20,54.70 30.40,54.70 35.70,60.00 41.01,54.70 37.21,54.70 "/>
</g>
<g class="Name" fill-opacity="0.9" style="display: none;">

</g>
<desc>Width:60 Height:200 Depth:60 Elevation:0</desc>
</g><g class="FixedFurniture CoatCloset" fill="#ffffff" stroke="#000000" style="fill-opacity: 1; stroke-opacity: 1;" transform="matrix(1,0,0,1,563.6062,548.9053)">
<g class="BoundaryPolygon">
<polygon points="0.00,0.00 114.57,0.00 114.57,60.00 0.00,60.00 "/>
</g>

<g class="Direction" fill-opacity="0.9" style="display: none;">
<polygon fill="#444444" points="58.73,54.52 58.73,43.90 55.72,43.90 55.72,54.52 51.91,54.52 57.22,59.82 62.52,54.52 58.73,54.52 "/>
</g>
<g class="Name" fill-opacity="0.9" style="display: none;">

</g>
<desc>Width:120 Height:200 Depth:60 Elevation:0</desc>
</g><g class="FixedFurniture ElectricalAppliance Refrigerator" fill="#ffffff" stroke="#000000" style="fill-opacity: 1; stroke-opacity: 1;" transform="matrix(0,-0.9518,0.9614,0,546.4176,183.8333)">
<g class="BoundaryPolygon">
<polygon points="0,0 60,0 60,60 0,60"/>
</g>
<g class="electricitySign" fill="none">
<path d="M0,0,30,37.1v-18L60,56.3"/>
</g>
<g class="Doors">
<rect height="4" width="60" y="56"/>
</g>
<g class="Direction" fill-opacity="0.9" style="display: none;">
<polygon fill="#444444" points="32.009 55.197 32.009 44.581 29 44.581 29 55.197 25.197 55.197 30.5 60 35.803 55.197 32.009 55.197"/>
</g>
<g class="Name" fill-opacity="0.9" style="display: none;">

</g>
<desc>Width:60 Height:170 Depth:60 Elevation:0</desc>
</g><g class="FixedFurniture BaseCabinet" fill="#ffffff" stroke="#000000" style="fill-opacity: 1; stroke-opacity: 1;" transform="matrix(1,0,0,1,604.1917,126.7253)"><desc>Width:60 Height:90 Depth:60 Elevation:0</desc><g class="BoundaryPolygon"><polygon points="0.00,0.00 0.00,-48.27 179.36,-48.27 179.36,-105.52 -57.71,-105.52 -57.77,0.00 0.00,0.00 "/></g></g><g class="FixedFurniture ElectricalAppliance IntegratedStove" fill="#ffffff" stroke="#000000" style="fill-opacity: 1; stroke-opacity: 1;" transform="matrix(1,0,0,1,683.3857,19.4486)">
<g class="BoundaryPolygon" fill="none" stroke="none">
<polygon points="0.00,0.00 60.71,0.00 60.71,61.16 0.00,61.16 "/>
</g>
<g class="InnerPolygon">
<polygon points="2.00,2.00 58.69,2.00 58.69,59.12 2.00,59.12 "/>
</g>
<g class="OuterCircle">
<circle cx="16.19059199881954" cy="16.30863593427282" r="8"/>
<circle cx="44.52412799675374" cy="16.30863593427282" r="8"/>
<circle cx="16.19059199881954" cy="44.84874881925023" r="8"/>
<circle cx="44.52412799675374" cy="44.84874881925023" r="8"/>
</g>
<g class="Direction" fill-opacity="0.9" style="display: none;">
<polygon fill="#444444" points="32.39,56.26 32.39,45.65 29.38,45.65 29.38,56.26 25.58,56.26 30.88,61.06 36.18,56.26 32.39,56.26 "/>
</g>
<g class="Name" fill-opacity="0.9" style="display: none;">

</g>
<desc>Width:60 Height:90 Depth:30 Elevation:0</desc>
</g><g class="FixedFurniture Sink" fill="#ffffff" stroke="#000000" style="fill-opacity: 1; stroke-opacity: 1;" transform="matrix(1,0,0,1,628.6607,26.171)">
<g class="BoundaryPolygon" fill="none" stroke="none">
<polygon points="0.00,0.00 55.07,0.00 55.07,42.77 0.00,42.77 "/>
</g>
<g class="InnerPolygon">
<polygon points="4.59,9.70 50.49,9.70 50.49,39.00 4.59,39.00 "/>
</g>
<g class="OuterDrain" stroke-width="0.8">
<circle cx="27.537332234387993" cy="22.955800125003208" r="3.5"/>
</g>
<g class="InnerDrain" stroke-width="0.8">
<circle cx="27.537332234387993" cy="22.955800125003208" r="2"/>
</g>
<g class="Faucet">
<polygon points="24.78,3.56 30.78,3.56 30.78,17.56 24.78,17.56 "/>
</g>
<g class="Direction" fill-opacity="0.9" style="display: none;">
<polygon fill="#444444" points="29.38,39.35 29.38,28.73 26.37,28.73 26.37,39.35 22.57,39.35 27.87,44.15 33.18,39.35 29.38,39.35 "/>
</g>
<g class="Name" fill-opacity="0.9" style="display: none;">

</g>
<desc>Width:60 Height:90 Depth:60 Elevation:0</desc>
</g><g class="Railing" fill="#ffffff" id="Railing" stroke="#000000" style="fill-opacity: 1; stroke-opacity: 1; stroke-width: 1;"><polygon points="1137.29,549.69 1137.29,313.65 1126.29,313.65 1126.29,549.69 " style="stroke-dasharray: 0;"/></g><g class="Column Rectangle" fill="#000000" id="Column" stroke="none" style="fill-opacity: 1;"><polygon points="1126.29,549.69 1137.29,549.69 1137.29,536.99 1126.29,536.99 "/></g><g class="Column Rectangle" fill="#000000" id="Column" stroke="none" style="fill-opacity: 1;" transform="matrix(1,0,0,1,0,0)"><polygon points="1126.30,326.36 1137.30,326.36 1137.30,313.66 1126.30,313.66 "/></g><g class="Column Rectangle" fill="#000000" id="Column" stroke="none" style="fill-opacity: 1;" transform="matrix(1,0,0,1,0,0)"><polygon points="1126.08,13.01 1137.08,13.01 1137.08,0.31 1126.08,0.31 "/></g><g class="SelectionControls" fill="#0000ff" stroke="#0000ff" style="display: none;"><g class="rotateControl" style="display: none;"><circle cx="583.5341767632832" cy="602.7087326669041" r="5" style="stroke : none; fill-opacity: 0.5; cursor:crosshair"/></g><g class="ResizeNControl" style="display: none;"><circle cx="0" cy="0" r="5" style="stroke : none; fill-opacity: 0.5"/></g><g class="ResizeNEControl" style="display: none;"><circle cx="0" cy="0" r="5" style="stroke : none; fill-opacity: 0.5"/></g><g class="ResizeEControl" style="display: none;"><circle cx="0" cy="0" r="5" style="stroke : none; fill-opacity: 0.5"/></g><g class="ResizeSEControl" style="display: none;"><circle cx="0" cy="0" r="5" style="stroke : none; fill-opacity: 0.5"/></g><g class="ResizeSControl" style="display: none;"><circle cx="0" cy="0" r="5" style="stroke : none; fill-opacity: 0.5"/></g><g class="ResizeSWControl" style="display: none;"><circle cx="0" cy="0" r="5" style="stroke : none; fill-opacity: 0.5"/></g><g class="ResizeWControl" style="display: none;"><circle cx="0" cy="0" r="5" style="stroke : none; fill-opacity: 0.5"/></g><g class="ResizeNWControl" style="display: none;"><circle cx="0" cy="0" r="5" style="stroke : none; fill-opacity: 0.5"/></g><g class="removeControl" style="display: none;"><polygon points="549.70,632.71 617.37,632.71 617.37,672.57 549.70,672.57 " style="stroke : none; fill-opacity: 0.1"/></g><g class="copyPasteControl" style="display: none;"><polygon style="stroke : none; fill-opacity: 0.1"/></g><g class="translateControl" style="display: none;"><polygon points="549.70,632.71 617.37,632.71 617.37,672.57 549.70,672.57 " style="stroke : none; fill-opacity: 0.1; cursor:move"/></g></g><g class="SelectionControls" fill="#0000ff" stroke="#0000ff" style="display: none;"><polygon fill="none" points="492.75,548.94 678.66,548.94 678.66,701.20 492.75,701.20 " stroke="#0000ff" style=""/><g class="rotateControl" style="display: none;"><circle cx="585.7024876885762" cy="518.9377326669041" r="5" style="stroke : none; fill-opacity: 0.5; cursor:crosshair"/></g><g class="ResizeNControl" style="display: none;"><circle cx="0" cy="0" r="5" style="stroke : none; fill-opacity: 0.5"/></g><g class="ResizeNEControl" style="display: none;"><circle cx="0" cy="0" r="5" style="stroke : none; fill-opacity: 0.5"/></g><g class="ResizeEControl" style="display: none;"><circle cx="0" cy="0" r="5" style="stroke : none; fill-opacity: 0.5"/></g><g class="ResizeSEControl" style="display: none;"><circle cx="0" cy="0" r="5" style="stroke : none; fill-opacity: 0.5"/></g><g class="ResizeSControl" style="display: none;"><circle cx="0" cy="0" r="5" style="stroke : none; fill-opacity: 0.5"/></g><g class="ResizeSWControl" style="display: none;"><circle cx="0" cy="0" r="5" style="stroke : none; fill-opacity: 0.5"/></g><g class="ResizeWControl" style="display: none;"><circle cx="0" cy="0" r="5" style="stroke : none; fill-opacity: 0.5"/></g><g class="ResizeNWControl" style="display: none;"><circle cx="0" cy="0" r="5" style="stroke : none; fill-opacity: 0.5"/></g><g class="removeControl" style="display: none;"><polygon style="stroke : none; fill-opacity: 0.1"/></g><g class="copyPasteControl" style="display: none;"><polygon style="stroke : none; fill-opacity: 0.1"/></g><g class="translateControl" style="display: none;"><polygon style="stroke : none; fill-opacity: 0.1; cursor:move"/></g></g></g></g></g></svg>