<?xml version="1.0" encoding="utf-8"?>
<svg height="921.3100128173828" id="temp" version="1.1" viewBox="0 0 1724.7400188446045 921.3100128173828" width="1724.7400188446045" xmlns="http://www.w3.org/2000/svg" xmlns:xlink="http://www.w3.org/1999/xlink"><defs/><g class="Model v1-1" id="Model"><g class="Floor"><g class="Floorplan Floor-1" id="Floor-1" transform="matrix(1,0,0,1,0,0)"><g class="Space Undefined" fill="#ffffff" id="e459d3ec-2503-42c6-afee-a04e7fb5a041" stroke="#ffffff" style="fill-opacity: 1; stroke-opacity: 1; stroke-width: 1;"><polygon points="1541.43,143.23 1560.86,149.91 1640.39,218.51 1670.13,282.86 1664.88,387.02 1639.49,437.12 1568.99,500.85 1535.55,512.78 898.08,512.78 898.08,827.06 758.88,827.06 758.88,672.91 687.62,672.91 687.62,480.17 660.62,480.17 660.62,311.83 901.99,311.83 901.99,383.49 943.99,383.49 943.99,87.36 1541.43,87.36 "/><g class="Dimension" transform="matrix(1,0,0,1,660.6199,87.3637)"><g class="Visual" style="display: none;" transform="matrix(1,0,0,1,0,0)"><g class="DimensionMark" fill="#000000" id="mark1" stroke="none" style="fill-opacity: 1; pointer-events: visible;" transform="matrix(1,0,0,1,237.4626,0)"><polygon points="-5,5,0,0,5,5"/></g><g class="DimensionMark" fill="#000000" id="mark2" stroke="none" style="fill-opacity: 1; pointer-events: visible;" transform="matrix(1,0,0,1,978.8704,349.7578)"><polygon points="-5,-5,0,0,-5,5"/></g><g class="DimensionMark" fill="#000000" id="mark3" stroke="none" style="fill-opacity: 1; pointer-events: visible;" transform="matrix(1,0,0,1,237.4626,739.6935)"><polygon points="-5,-5,0,0,5,-5"/></g><g class="DimensionMark" fill="#000000" id="mark4" stroke="none" style="fill-opacity: 1; pointer-events: visible;" transform="matrix(1,0,0,1,0,349.7578)"><polygon points="5,5,0,0,5,-5"/></g></g><g class="SpaceDimensionsLabel" transform="matrix(1,0,0,1,715.1333,212.3729)"><g class="TextLabel NameLabel" id="NameLabel" style="display: none;"/><g class="TextLabel DimensionMeasureLabel" id="DimensionMeasureLabel" style="display: none;" transform="matrix(1,0,0,1,-40.5313,79.5938)"/></g></g></g><g class="Space Undefined" fill="#ffffff" id="16424dd8-84da-4f39-9870-0444532812f8" stroke="#ffffff" style="fill-opacity: 1; stroke-opacity: 1; stroke-width: 1;"><polygon points="646.62,480.17 80.72,480.17 80.72,87.36 646.62,87.36 "/><g class="Dimension" transform="matrix(1,0,0,1,80.7166,87.3637)"><g class="Visual" style="display: none;" transform="matrix(1,0,0,1,0,0)"><g class="DimensionMark" fill="#000000" id="mark1" stroke="none" style="fill-opacity: 1; pointer-events: visible;" transform="matrix(1,0,0,1,282.9516,0)"><polygon points="-5,5,0,0,5,5"/></g><g class="DimensionMark" fill="#000000" id="mark2" stroke="none" style="fill-opacity: 1; pointer-events: visible;" transform="matrix(1,0,0,1,565.9033,196.4051)"><polygon points="-5,-5,0,0,-5,5"/></g><g class="DimensionMark" fill="#000000" id="mark3" stroke="none" style="fill-opacity: 1; pointer-events: visible;" transform="matrix(1,0,0,1,282.9516,392.8101)"><polygon points="-5,-5,0,0,5,-5"/></g><g class="DimensionMark" fill="#000000" id="mark4" stroke="none" style="fill-opacity: 1; pointer-events: visible;" transform="matrix(1,0,0,1,0,196.4051)"><polygon points="5,5,0,0,5,-5"/></g></g><g class="SpaceDimensionsLabel" transform="matrix(1,0,0,1,282.9517,196.405)"><g class="TextLabel NameLabel" id="NameLabel" style="display: none;"/><g class="TextLabel DimensionMeasureLabel" id="DimensionMeasureLabel" style="display: none;" transform="matrix(1,0,0,1,-40.5313,79.5938)"/></g></g></g><g class="Space Undefined" fill="#ffffff" id="de932373-cb18-4fa1-9811-b356ce0d51fc" stroke="#ffffff" style="fill-opacity: 1; stroke-opacity: 1; stroke-width: 1;"><polygon points="1535.55,843.32 1310.83,843.32 1310.83,679.03 1299.83,679.03 1299.83,738.53 1152.61,738.53 1152.61,522.78 1535.55,522.78 "/><g class="Dimension" transform="matrix(1,0,0,1,1152.6051,522.7768)"><g class="Visual" style="display: none;" transform="matrix(1,0,0,1,0,0)"><g class="DimensionMark" fill="#000000" id="mark1" stroke="none" style="fill-opacity: 1; pointer-events: visible;" transform="matrix(1,0,0,1,191.472,0)"><polygon points="-5,5,0,0,5,5"/></g><g class="DimensionMark" fill="#000000" id="mark2" stroke="none" style="fill-opacity: 1; pointer-events: visible;" transform="matrix(1,0,0,1,382.944,160.274)"><polygon points="-5,-5,0,0,-5,5"/></g><g class="DimensionMark" fill="#000000" id="mark3" stroke="none" style="fill-opacity: 1; pointer-events: visible;" transform="matrix(1,0,0,1,191.472,320.5481)"><polygon points="-5,-5,0,0,5,-5"/></g><g class="DimensionMark" fill="#000000" id="mark4" stroke="none" style="fill-opacity: 1; pointer-events: visible;" transform="matrix(1,0,0,1,0,160.274)"><polygon points="5,5,0,0,5,-5"/></g></g><g class="SpaceDimensionsLabel" transform="matrix(1,0,0,1,267.3321,115.8231)"><g class="TextLabel NameLabel" id="NameLabel" style="display: none;"/><g class="TextLabel DimensionMeasureLabel" id="DimensionMeasureLabel" style="display: none;" transform="matrix(1,0,0,1,-40.5313,79.5938)"/></g></g></g><g class="Space Undefined" fill="#ffffff" id="e6155914-6337-44e2-954f-a5e292b30f8b" stroke="#ffffff" style="fill-opacity: 1; stroke-opacity: 1; stroke-width: 1;"><polygon points="901.99,298.83 660.62,298.83 660.62,87.36 901.99,87.36 "/><g class="Dimension" transform="matrix(1,0,0,1,660.6199,87.3637)"><g class="Visual" style="display: none;" transform="matrix(1,0,0,1,0,0)"><g class="DimensionMark" fill="#000000" id="mark1" stroke="none" style="fill-opacity: 1; pointer-events: visible;" transform="matrix(1,0,0,1,120.6848,0)"><polygon points="-5,5,0,0,5,5"/></g><g class="DimensionMark" fill="#000000" id="mark2" stroke="none" style="fill-opacity: 1; pointer-events: visible;" transform="matrix(1,0,0,1,241.3695,105.7334)"><polygon points="-5,-5,0,0,-5,5"/></g><g class="DimensionMark" fill="#000000" id="mark3" stroke="none" style="fill-opacity: 1; pointer-events: visible;" transform="matrix(1,0,0,1,120.6848,211.4668)"><polygon points="-5,-5,0,0,5,-5"/></g><g class="DimensionMark" fill="#000000" id="mark4" stroke="none" style="fill-opacity: 1; pointer-events: visible;" transform="matrix(1,0,0,1,0,105.7334)"><polygon points="5,5,0,0,5,-5"/></g></g><g class="SpaceDimensionsLabel" transform="matrix(1,0,0,1,120.6847,105.7334)"><g class="TextLabel NameLabel" id="NameLabel" style="display: none;"/><g class="TextLabel DimensionMeasureLabel" id="DimensionMeasureLabel" style="display: none;" transform="matrix(1,0,0,1,-40.5313,79.5938)"/></g></g></g><g class="Space Undefined" fill="#ffffff" id="12fec327-0d90-4ca9-9d07-ec5ad4383cd2" stroke="#ffffff" style="fill-opacity: 1; stroke-opacity: 1; stroke-width: 1;"><polygon points="1138.61,844.32 939.08,844.32 939.08,672.91 1138.61,672.91 "/><g class="Dimension" transform="matrix(1,0,0,1,939.0825,672.9103)"><g class="Visual" style="display: none;" transform="matrix(1,0,0,1,0,0)"><g class="DimensionMark" fill="#000000" id="mark1" stroke="none" style="fill-opacity: 1; pointer-events: visible;" transform="matrix(1,0,0,1,99.7613,0)"><polygon points="-5,5,0,0,5,5"/></g><g class="DimensionMark" fill="#000000" id="mark2" stroke="none" style="fill-opacity: 1; pointer-events: visible;" transform="matrix(1,0,0,1,199.5226,85.7073)"><polygon points="-5,-5,0,0,-5,5"/></g><g class="DimensionMark" fill="#000000" id="mark3" stroke="none" style="fill-opacity: 1; pointer-events: visible;" transform="matrix(1,0,0,1,99.7613,171.4145)"><polygon points="-5,-5,0,0,5,-5"/></g><g class="DimensionMark" fill="#000000" id="mark4" stroke="none" style="fill-opacity: 1; pointer-events: visible;" transform="matrix(1,0,0,1,0,85.7073)"><polygon points="5,5,0,0,5,-5"/></g></g><g class="SpaceDimensionsLabel" transform="matrix(1,0,0,1,85.7073,85.7072)"><g class="TextLabel NameLabel" id="NameLabel" style="display: none;"/><g class="TextLabel DimensionMeasureLabel" id="DimensionMeasureLabel" style="display: none;" transform="matrix(1,0,0,1,-40.5313,79.5938)"/></g></g></g><g class="Space Undefined" fill="#ffffff" id="16d4b0cc-aab6-471f-946d-26506e010a1b" stroke="#ffffff" style="fill-opacity: 1; stroke-opacity: 1; stroke-width: 1;"><polygon points="1138.61,659.80 939.08,659.80 939.08,522.78 1138.61,522.78 "/><g class="Dimension" transform="matrix(1,0,0,1,939.0825,522.7768)"><g class="Visual" style="display: none;" transform="matrix(1,0,0,1,0,0)"><g class="DimensionMark" fill="#000000" id="mark1" stroke="none" style="fill-opacity: 1; pointer-events: visible;" transform="matrix(1,0,0,1,99.7613,0)"><polygon points="-5,5,0,0,5,5"/></g><g class="DimensionMark" fill="#000000" id="mark2" stroke="none" style="fill-opacity: 1; pointer-events: visible;" transform="matrix(1,0,0,1,199.5226,68.5127)"><polygon points="-5,-5,0,0,-5,5"/></g><g class="DimensionMark" fill="#000000" id="mark3" stroke="none" style="fill-opacity: 1; pointer-events: visible;" transform="matrix(1,0,0,1,99.7613,137.0254)"><polygon points="-5,-5,0,0,5,-5"/></g><g class="DimensionMark" fill="#000000" id="mark4" stroke="none" style="fill-opacity: 1; pointer-events: visible;" transform="matrix(1,0,0,1,0,68.5127)"><polygon points="5,5,0,0,5,-5"/></g></g><g class="SpaceDimensionsLabel" transform="matrix(1,0,0,1,68.5127,68.5127)"><g class="TextLabel NameLabel" id="NameLabel" style="display: none;"/><g class="TextLabel DimensionMeasureLabel" id="DimensionMeasureLabel" style="display: none;" transform="matrix(1,0,0,1,-40.5313,79.5938)"/></g></g></g><g class="Space Undefined" fill="#ffffff" id="3c8a7cc5-36af-44a0-9334-409c9f919dbc" stroke="#ffffff" style="fill-opacity: 1; stroke-opacity: 1; stroke-width: 1;"><polygon points="747.88,827.06 687.62,827.06 687.62,773.91 747.88,773.91 "/><g class="Dimension" transform="matrix(1,0,0,1,687.6199,773.9103)"><g class="Visual" style="display: none;" transform="matrix(1,0,0,1,0,0)"><g class="DimensionMark" fill="#000000" id="mark1" stroke="none" style="fill-opacity: 1; pointer-events: visible;" transform="matrix(1,0,0,1,30.128,0)"><polygon points="-5,5,0,0,5,5"/></g><g class="DimensionMark" fill="#000000" id="mark2" stroke="none" style="fill-opacity: 1; pointer-events: visible;" transform="matrix(1,0,0,1,60.256,26.5735)"><polygon points="-5,-5,0,0,-5,5"/></g><g class="DimensionMark" fill="#000000" id="mark3" stroke="none" style="fill-opacity: 1; pointer-events: visible;" transform="matrix(1,0,0,1,30.128,53.147)"><polygon points="-5,-5,0,0,5,-5"/></g><g class="DimensionMark" fill="#000000" id="mark4" stroke="none" style="fill-opacity: 1; pointer-events: visible;" transform="matrix(1,0,0,1,0,26.5735)"><polygon points="5,5,0,0,5,-5"/></g></g><g class="SpaceDimensionsLabel" transform="matrix(1,0,0,1,26.5735,26.5735)"><g class="TextLabel NameLabel" id="NameLabel" style="display: none;"/><g class="TextLabel DimensionMeasureLabel" id="DimensionMeasureLabel" style="display: none;" transform="matrix(1,0,0,1,-40.5313,79.5938)"/></g></g></g><g class="Wall External" fill="#000000" id="Wall" stroke="#000000" style="fill-opacity: 1; stroke-opacity: 1; stroke-width: 1;"><polygon points="613.16,520.17 646.62,520.17 687.62,480.17 613.16,480.17 "/></g><g class="Wall External" fill="#000000" id="Wall" stroke="#000000" style="fill-opacity: 1; stroke-opacity: 1; stroke-width: 1;"><polygon points="646.62,520.17 646.62,839.06 687.62,827.06 687.62,480.17 "/></g><g class="Wall External" fill="#000000" id="Wall" stroke="#000000" style="fill-opacity: 1; stroke-opacity: 1; stroke-width: 1;"><polygon points="687.62,827.06 939.08,827.06 898.08,839.06 646.62,839.06 "/><g class="Door Swing Beside" fill="#ffffff" id="Door" stroke="#000000" style="fill-opacity: 1; stroke-width: 1; stroke-opacity: 1;"><polygon points="811.87,827.06 894.12,827.06 894.12,839.06 811.87,839.06 "/><g class="Panel Left Positive" fill="none" id="Panel" style=""><g class="PanelArea" fill="none" id="PanelArea" stroke="none" style=""><polygon points="811.87,827.06 894.12,827.06 894.12,839.06 811.87,839.06 "/></g><path d="M894.12,839.06 q0.00,82.25 -82.25,82.25 l0.00,-82.25Z"/></g></g></g><g class="Wall External" fill="#000000" id="Wall" stroke="#000000" style="fill-opacity: 1; stroke-opacity: 1; stroke-width: 1;"><polygon points="898.08,839.06 898.08,855.32 939.08,844.32 939.08,827.06 "/></g><g class="Wall External" fill="#000000" id="Wall" stroke="#000000" style="fill-opacity: 1; stroke-opacity: 1; stroke-width: 1;"><polygon points="898.08,855.32 1151.61,855.32 1138.61,844.32 939.08,844.32 "/></g><g class="Wall External" fill="#000000" id="Wall" stroke="#000000" style="fill-opacity: 1; stroke-opacity: 1; stroke-width: 1;"><polygon points="1151.61,855.32 1151.61,750.53 1138.61,738.53 1138.61,844.32 "/></g><g class="Wall External" fill="#000000" id="Wall" stroke="#000000" style="fill-opacity: 1; stroke-opacity: 1; stroke-width: 1;"><polygon points="1151.61,750.53 1298.83,750.53 1310.83,738.53 1138.61,738.53 "/></g><g class="Wall External" fill="#000000" id="Wall" stroke="#000000" style="fill-opacity: 1; stroke-opacity: 1; stroke-width: 1;"><polygon points="1298.83,750.53 1298.83,855.32 1310.83,843.32 1310.83,738.53 "/></g><g class="Wall External" fill="#000000" id="Wall" stroke="#000000" style="fill-opacity: 1; stroke-opacity: 1; stroke-width: 1;"><polygon points="1298.83,855.32 1591.55,855.32 1535.55,843.32 1310.83,843.32 "/></g><g class="Wall External" fill="#000000" id="Wall" stroke="#000000" style="fill-opacity: 1; stroke-opacity: 1; stroke-width: 1;"><polygon points="1535.55,843.32 1535.55,512.78 1591.55,550.14 1591.55,855.32 "/><g class="Window Regular" fill="#f0f0ff" id="Window" stroke="#000000" style="fill-opacity: 1; stroke-width: 1; stroke-opacity: 1;"><polygon points="1535.55,676.54 1535.55,593.41 1591.55,593.41 1591.55,676.54 "/><g class="Glass" id="Glass"><polygon points="1535.55,676.54 1535.55,593.41 1591.55,593.41 1591.55,676.54 "/></g><g class="Panel" id="Panel"><line x1="1563.550048828125" x2="1563.550048828125" y1="669.0399780273438" y2="600.9099731445312"/><line x1="1535.550048828125" x2="1591.550048828125" y1="669.0399780273438" y2="669.0399780273438"/><line x1="1535.550048828125" x2="1591.550048828125" y1="600.9099731445312" y2="600.9099731445312"/></g></g><g class="Window Regular" fill="#f0f0ff" id="Window" stroke="#000000" style="fill-opacity: 1; stroke-width: 1; stroke-opacity: 1;"><polygon points="1535.55,823.28 1535.55,730.70 1591.55,730.70 1591.55,823.28 "/><g class="Glass" id="Glass"><polygon points="1535.55,823.28 1535.55,730.70 1591.55,730.70 1591.55,823.28 "/></g><g class="Panel" id="Panel"><line x1="1563.550048828125" x2="1563.550048828125" y1="815.780029296875" y2="738.2000122070312"/><line x1="1535.550048828125" x2="1591.550048828125" y1="815.780029296875" y2="815.780029296875"/><line x1="1535.550048828125" x2="1591.550048828125" y1="738.2000122070312" y2="738.2000122070312"/></g></g></g><g class="Wall External" fill="#000000" id="Wall" stroke="#000000" style="fill-opacity: 1; stroke-opacity: 1; stroke-width: 1;"><polygon points="1535.55,512.78 1568.99,500.85 1597.24,548.11 1591.55,550.14 "/></g><g class="Wall External" fill="#000000" id="Wall" stroke="#000000" style="fill-opacity: 1; stroke-opacity: 1; stroke-width: 1;"><polygon points="1568.99,500.85 1639.49,437.12 1683.13,470.46 1597.24,548.11 "/><g class="Window Regular" fill="#f0f0ff" id="Window" stroke="#000000" style="fill-opacity: 1; stroke-width: 1; stroke-opacity: 1;"><polygon points="1570.98,499.05 1636.36,439.95 1672.57,480.01 1607.20,539.11 "/><g class="Glass" id="Glass"><polygon points="1570.98,499.05 1636.36,439.95 1672.57,480.01 1607.20,539.11 "/></g><g class="Panel" id="Panel"><line x1="1594.6537428138797" x2="1648.9061937095578" y1="514.0506341720204" y2="465.00936338657345"/><line x1="1576.5437574623172" x2="1612.7637281654422" y1="494.0206353927235" y2="534.0806329513173"/><line x1="1630.7962083579953" x2="1667.0061692954953" y1="444.9793646072765" y2="485.0393621658703"/></g></g></g><g class="Wall External" fill="#000000" id="Wall" stroke="#000000" style="fill-opacity: 1; stroke-opacity: 1; stroke-width: 1;"><polygon points="1639.49,437.12 1664.88,387.02 1718.23,401.20 1683.13,470.46 "/></g><g class="Wall External" fill="#000000" id="Wall" stroke="#000000" style="fill-opacity: 1; stroke-opacity: 1; stroke-width: 1;"><polygon points="1664.88,387.02 1670.13,282.86 1724.74,272.29 1718.23,401.20 "/><g class="Window Regular" fill="#f0f0ff" id="Window" stroke="#000000" style="fill-opacity: 1; stroke-width: 1; stroke-opacity: 1;"><polygon points="1665.16,381.46 1670.01,285.34 1723.94,288.06 1719.09,384.18 "/><g class="Glass" id="Glass"><polygon points="1665.16,381.46 1670.01,285.34 1723.94,288.06 1719.09,384.18 "/></g><g class="Panel" id="Panel"><line x1="1692.5029505050993" x2="1696.5970250808384" y1="375.32952122470846" y2="294.1904677889635"/><line x1="1665.5379846847868" x2="1719.4679163254118" y1="373.9695206143569" y2="376.68952183506"/><line x1="1669.6320592605257" x2="1723.5619909011507" y1="292.83046717861185" y2="295.550468399315"/></g></g></g><g class="Wall External" fill="#000000" id="Wall" stroke="#000000" style="fill-opacity: 1; stroke-opacity: 1; stroke-width: 1;"><polygon points="1670.13,282.86 1640.39,218.51 1684.50,185.25 1724.74,272.29 "/></g><g class="Wall External" fill="#000000" id="Wall" stroke="#000000" style="fill-opacity: 1; stroke-opacity: 1; stroke-width: 1;"><polygon points="1640.39,218.51 1560.86,149.91 1588.25,102.22 1684.50,185.25 "/><g class="Window Regular" fill="#f0f0ff" id="Window" stroke="#000000" style="fill-opacity: 1; stroke-width: 1; stroke-opacity: 1;"><polygon points="1636.28,214.96 1563.52,152.20 1598.79,111.31 1671.55,174.08 "/><g class="Glass" id="Glass"><polygon points="1636.28,214.96 1563.52,152.20 1598.79,111.31 1671.55,174.08 "/></g><g class="Panel" id="Panel"><line x1="1648.2358489384553" x2="1586.8342194209195" y1="189.62135144388103" y2="136.65864733541585"/><line x1="1630.6008391728303" x2="1665.8708587040803" y1="210.06135388528728" y2="169.18134900247478"/><line x1="1569.1992096552947" x2="1604.4692291865447" y1="157.0986497768221" y2="116.20865038717366"/></g></g></g><g class="Wall External" fill="#000000" id="Wall" stroke="#000000" style="fill-opacity: 1; stroke-opacity: 1; stroke-width: 1;"><polygon points="1560.86,149.91 1541.43,143.23 1595.43,104.69 1588.25,102.22 "/></g><g class="Wall External" fill="#000000" id="Wall" stroke="#000000" style="fill-opacity: 1; stroke-opacity: 1; stroke-width: 1;"><polygon points="1541.43,143.23 1541.43,87.36 1595.43,34.36 1595.43,104.69 "/></g><g class="Wall External" fill="#000000" id="Wall" stroke="#000000" style="fill-opacity: 1; stroke-opacity: 1; stroke-width: 1;"><polygon points="80.72,480.17 613.16,480.17 613.16,520.17 30.72,520.17 "/></g><g class="Wall External" fill="#000000" id="Wall" stroke="#000000" style="fill-opacity: 1; stroke-opacity: 1; stroke-width: 1;"><polygon points="80.72,480.17 80.72,87.36 30.72,34.36 30.72,520.17 "/><g class="Window Regular" fill="#f0f0ff" id="Window" stroke="#000000" style="fill-opacity: 1; stroke-width: 1; stroke-opacity: 1;"><polygon points="80.72,366.78 80.72,124.25 30.72,124.25 30.72,366.78 "/><g class="Glass" id="Glass"><polygon points="80.72,366.78 80.72,124.25 30.72,124.25 30.72,366.78 "/></g><g class="Panel" id="Panel"><line x1="55.72000026702881" x2="55.72000026702881" y1="359.2799987792969" y2="131.75"/><line x1="80.72000122070312" x2="30.719999313354492" y1="359.2799987792969" y2="359.2799987792969"/><line x1="80.72000122070312" x2="30.719999313354492" y1="131.75" y2="131.75"/></g></g></g><g class="Wall" fill="#000000" id="Wall" stroke="#000000" style="fill-opacity: 1; stroke-opacity: 1; stroke-width: 1;"><polygon points="646.62,480.17 646.62,78.30 660.62,78.30 660.62,480.17 "/><g class="Door Swing Beside" fill="#ffffff" id="Door" stroke="#000000" style="fill-opacity: 1; stroke-width: 1; stroke-opacity: 1;"><polygon points="646.62,469.51 646.62,389.54 660.62,389.54 660.62,469.51 "/><g class="Panel Right Negative" fill="none" id="Panel" style=""><g class="PanelArea" fill="none" id="PanelArea" stroke="none" style=""><polygon points="646.62,469.51 646.62,389.54 660.62,389.54 660.62,469.51 "/></g><path d="M646.62,389.54 q-79.97,0.00 -79.97,79.97 l79.97,0.00Z"/></g></g><g class="Door Swing Beside" fill="#ffffff" id="Door" stroke="#000000" style="fill-opacity: 1; stroke-width: 1; stroke-opacity: 1;"><polygon points="646.62,225.70 646.62,138.46 660.62,138.46 660.62,225.70 "/><g class="Panel Left Negative" fill="none" id="Panel" style=""><g class="PanelArea" fill="none" id="PanelArea" stroke="none" style=""><polygon points="646.62,225.70 646.62,138.46 660.62,138.46 660.62,225.70 "/></g><path d="M646.62,225.70 q-87.24,0.00 -87.24,-87.24 l87.24,0.00Z"/></g></g></g><g class="Wall" fill="#000000" id="Wall" stroke="#000000" style="fill-opacity: 1; stroke-opacity: 1; stroke-width: 1;"><polygon points="943.99,383.49 943.99,78.30 901.99,78.30 901.99,383.49 "/></g><g class="Wall" fill="#000000" id="Wall" stroke="#000000" style="fill-opacity: 1; stroke-opacity: 1; stroke-width: 1;"><polygon points="660.62,298.83 943.99,298.83 943.99,311.83 660.62,311.83 "/></g><g class="Wall" fill="#000000" id="Wall" stroke="#000000" style="fill-opacity: 1; stroke-opacity: 1; stroke-width: 1;"><polygon points="1535.55,512.78 1138.61,512.78 1138.61,522.78 1535.55,522.78 "/><g class="Door None Beside" fill="#ffffff" id="Door" stroke="#000000" style="fill-opacity: 1; stroke-width: 1; stroke-opacity: 1;"><polygon points="1475.63,512.78 1368.32,512.78 1368.32,522.78 1475.63,522.78 "/></g></g><g class="Wall" fill="#000000" id="Wall" stroke="#000000" style="fill-opacity: 1; stroke-opacity: 1; stroke-width: 1;"><polygon points="1138.61,512.78 1138.61,738.53 1152.61,738.53 1152.61,522.78 "/><g class="Door Swing Beside" fill="#ffffff" id="Door" stroke="#000000" style="fill-opacity: 1; stroke-width: 1; stroke-opacity: 1;"><polygon points="1138.61,586.46 1138.61,655.85 1152.61,655.85 1152.61,586.46 "/><g class="Panel Left Positive" fill="none" id="Panel" style=""><g class="PanelArea" fill="none" id="PanelArea" stroke="none" style=""><polygon points="1138.61,586.46 1138.61,655.85 1152.61,655.85 1152.61,586.46 "/></g><path d="M1152.61,655.85 q69.39,0.00 69.39,-69.39 l-69.39,0.00Z"/></g></g></g><g class="Wall" fill="#000000" id="Wall" stroke="#000000" style="fill-opacity: 1; stroke-opacity: 1; stroke-width: 1;"><polygon points="1310.83,738.53 1310.83,679.03 1299.83,679.03 1299.83,738.53 "/></g><g class="Wall" fill="#000000" id="Wall" stroke="#000000" style="fill-opacity: 1; stroke-opacity: 1; stroke-width: 1;"><polygon points="939.08,827.06 939.08,659.80 898.08,659.80 898.08,827.06 "/></g><g class="Wall" fill="#000000" id="Wall" stroke="#000000" style="fill-opacity: 1; stroke-opacity: 1; stroke-width: 1;"><polygon points="898.08,659.80 1152.61,659.80 1152.61,672.91 898.08,672.91 "/><g class="Door Swing Beside" fill="#ffffff" id="Door" stroke="#000000" style="fill-opacity: 1; stroke-width: 1; stroke-opacity: 1;"><polygon points="1002.07,659.80 1075.32,659.80 1075.32,672.91 1002.07,672.91 "/><g class="Panel Right Negative" fill="none" id="Panel" style=""><g class="PanelArea" fill="none" id="PanelArea" stroke="none" style=""><polygon points="1002.07,659.80 1075.32,659.80 1075.32,672.91 1002.07,672.91 "/></g><path d="M1075.32,659.80 q0.00,-73.25 -73.25,-73.25 l0.00,73.25Z"/></g></g></g><g class="Wall" fill="#000000" id="Wall" stroke="#000000" style="fill-opacity: 1; stroke-opacity: 1; stroke-width: 1;"><polygon points="1138.61,512.78 898.08,512.78 939.08,522.78 1138.61,522.78 "/></g><g class="Wall" fill="#000000" id="Wall" stroke="#000000" style="fill-opacity: 1; stroke-opacity: 1; stroke-width: 1;"><polygon points="898.08,512.78 898.08,659.80 939.08,659.80 939.08,522.78 "/><g class="Door Swing Beside" fill="#ffffff" id="Door" stroke="#000000" style="fill-opacity: 1; stroke-width: 1; stroke-opacity: 1;"><polygon points="898.08,581.31 898.08,658.42 939.08,658.42 939.08,581.31 "/><g class="Panel Left Negative" fill="none" id="Panel" style=""><g class="PanelArea" fill="none" id="PanelArea" stroke="none" style=""><polygon points="898.08,581.31 898.08,658.42 939.08,658.42 939.08,581.31 "/></g><path d="M898.08,581.31 q-77.11,0.00 -77.11,77.11 l77.11,0.00Z"/></g></g></g><g class="Wall" fill="#000000" id="Wall" stroke="#000000" style="fill-opacity: 1; stroke-opacity: 1; stroke-width: 1;"><polygon points="687.62,672.91 758.88,672.91 747.88,773.91 687.62,773.91 "/></g><g class="Wall" fill="#000000" id="Wall" stroke="#000000" style="fill-opacity: 1; stroke-opacity: 1; stroke-width: 1;"><polygon points="758.88,672.91 758.88,827.06 747.88,827.06 747.88,773.91 "/><g class="Door Swing Beside" fill="#ffffff" id="Door" stroke="#000000" style="fill-opacity: 1; stroke-width: 1; stroke-opacity: 1;"><polygon points="758.88,777.29 758.88,824.20 747.88,824.20 747.88,777.29 "/><g class="Panel Left Negative" fill="none" id="Panel" style=""><g class="PanelArea" fill="none" id="PanelArea" stroke="none" style=""><polygon points="758.88,777.29 758.88,824.20 747.88,824.20 747.88,777.29 "/></g><path d="M758.88,777.29 q46.91,0.00 46.91,46.91 l-46.91,0.00Z"/></g></g></g><g class="Wall External" fill="#000000" id="Wall" stroke="#000000" style="fill-opacity: 1; stroke-opacity: 1; stroke-width: 1;"><polygon points="80.72,87.36 1541.43,87.36 1595.43,34.36 30.72,34.36 "/></g><g class="Column Rectangle" fill="#000000" id="Column" stroke="none" style="fill-opacity: 1;"><polygon points="901.99,383.49 901.99,311.83 888.98,311.83 888.98,383.49 "/></g><g class="FixedFurniture FireplaceCorner" fill="#ffffff" stroke="#000000" style="fill-opacity: 1; stroke-opacity: 1;" transform="matrix(0,-1.4842,1.6745,0,944.1464,199.4208)">
<g class="BoundaryPolygon" fill="none" stroke="none">
<polygon points="0,0 75,0 75,75, 0,75"/>
</g>
<g class="OverlayPolygon">
<polygon points="33.933 75.5 75.5 75.5 75.5 0.5 0.5 0.5 0.5 41.735 33.933 75.5"/>
</g>
<g class="Lines" fill="none" stroke="#4c4c4c">
<line x1="41.978" x2="75.5" y1="0.5" y2="34.026"/>
<line x1="9.726" x2="75.5" y1="0.5" y2="66.237"/>
<line x1="0.5" x2="67.386" y1="8.611" y2="75.5"/>
<line x1="26.284" x2="75.183" y1="0.5" y2="49.404"/>
<line x1="0.5" x2="50.143" y1="25.759" y2="75.4"/>
<line x1="59.944" x2="75.5" y1="0.5" y2="16.058"/>
</g>
<g class="FireBox">
<polygon points="0.739 41.989 34.215 8.38 67.304 41.602 33.829 75.21 0.739 41.989"/>
</g>
<g class="Direction" fill-opacity="0.9" style="display: none;">
<polygon fill="#444444" points="35.459 70.197 35.459 59.581 32.45 59.581 32.45 70.197 28.647 70.197 33.95 75.5 39.253 70.197 35.459 70.197"/>
</g>
<g class="Name" fill-opacity="0.9" style="display: none;">

</g>
<desc>Width:75 Height:120 Depth:75 Elevation:0</desc>
</g><g class="FixedFurniture BaseCabinet" fill="#ffffff" stroke="#000000" style="fill-opacity: 1; stroke-opacity: 1;" transform="matrix(1,0,0,1,1204.24,522.8113)">
<g class="BoundaryPolygon">
<polygon points="0.00,0.00 162.66,0.00 162.66,60.00 0.00,60.00 "/>
</g>
<g class="Direction" fill-opacity="0.9" style="display: none;">
<polygon fill="#444444" points="86.78,55.20 86.78,44.58 83.77,44.58 83.77,55.20 79.97,55.20 85.27,60.00 90.57,55.20 86.78,55.20 "/>
</g>
<g class="Name" fill-opacity="0.9" style="display: none;">

</g>
<desc>Width:60 Height:90 Depth:60 Elevation:0</desc>
</g><g class="FixedFurniture Closet" fill="#ffffff" stroke="#000000" style="fill-opacity: 1; stroke-opacity: 1;" transform="matrix(1,0,0,1,660.6199,311.8618)">
<g class="BoundaryPolygon">
<polygon points="0.00,0.00 228.36,0.00 228.36,71.67 0.00,71.67 "/>
</g>
<g class="Direction" fill-opacity="0.9" style="display: none;">
<polygon fill="#444444" points="117.05,65.12 117.05,54.50 114.04,54.50 114.04,65.12 110.24,65.12 115.54,70.42 120.84,65.12 117.05,65.12 "/>
</g>
<g class="Name" fill-opacity="0.9" style="display: none;">

</g>
<desc>Width:120 Height:200 Depth:60 Elevation:0</desc>
</g><g class="FixedFurniture Closet" fill="#ffffff" stroke="#000000" style="fill-opacity: 1; stroke-opacity: 1;" transform="matrix(-1,0,0,-1,901.8899,298.6899)">
<g class="BoundaryPolygon">
<polygon points="0.00,0.00 241.27,0.00 241.27,58.04 0.00,58.04 "/>
</g>
<g class="Direction" fill-opacity="0.9" style="display: none;">
<polygon fill="#444444" points="123.67,52.73 123.67,42.11 120.66,42.11 120.66,52.73 116.86,52.73 122.16,58.03 127.46,52.73 123.67,52.73 "/>
</g>
<g class="Name" fill-opacity="0.9" style="display: none;">

</g>
<desc>Width:120 Height:200 Depth:60 Elevation:0</desc>
</g><g class="FixedFurniture BaseCabinet" fill="#ffffff" stroke="#000000" style="fill-opacity: 1; stroke-opacity: 1;" transform="matrix(1,0,0,1,939.0825,522.8237)">
<g class="BoundaryPolygon">
<polygon points="0.00,0.00 198.86,0.00 198.86,60.00 0.00,60.00 "/>
</g>
<g class="Direction" fill-opacity="0.9" style="display: none;">
<polygon fill="#444444" points="106.09,55.20 106.09,44.58 103.08,44.58 103.08,55.20 99.28,55.20 104.58,60.00 109.88,55.20 106.09,55.20 "/>
</g>
<g class="Name" fill-opacity="0.9" style="display: none;">

</g>
<desc>Width:60 Height:90 Depth:60 Elevation:0</desc>
</g><g class="FixedFurniture ElectricalAppliance SpaceForAppliance" fill="#ffffff" stroke="#000000" style="fill-opacity: 1; stroke-opacity: 1;" transform="matrix(1,0,0,1,1078.6051,522.8237)">
<g class="BoundaryPolygon">
<polygon points="0,0 60,0 60,60 0,60"/>
</g>
<g class="electricitySign" fill="none">
<path d="M0,0,30.1,39.8V19.4L59.9,60"/>
</g>
<g class="Direction" fill-opacity="0.9" style="display: none;">
<polygon fill="#444444" points="32.009 55.197 32.009 44.581 29 44.581 29 55.197 25.197 55.197 30.5 60 35.803 55.197 32.009 55.197"/>
</g>
<g class="Name" fill-opacity="0.9" style="display: none;">

</g>
<desc>Width:60 Height:90 Depth:60 Elevation:0</desc>
</g><g class="FixedFurniture Shower" fill="#ffffff" stroke="#000000" style="fill-opacity: 1; stroke-opacity: 1;" transform="matrix(0,-1,1,0,939.0825,827.0532)">
<g class="BoundaryPolygon" fill="none" stroke="none">
<polygon points="0,0 32,0 32,19 0,19"/>
</g>
<g class="InnerPolygon">
<rect height="6.1" width="11.2" x="3.7" y="0.5"/>
<rect height="6.1" width="11.2" x="17.6" y="0.5"/>
<rect height="6.1" width="3.4" x="28.7" y="0.5"/>
<rect height="6.1" width="3.2" x="0.5" y="0.5"/>
<path d="M14.9,8.5c0,1.5-0.4,3.3-1.6,5    c-0.4,0.6-1,1.1-1.1,1.7c-0.2,1.1,0.3,2.8,2.5,3.2c0.5,0.1,1.3,0.1,1.6,0.1h-0.1c0.3,0,1.1,0,1.6-0.1c2.2-0.4,2.7-2.1,2.5-3.2    c-0.1-0.6-0.7-1.1-1.1-1.7c-1.2-1.7-1.6-3.5-1.6-5"/>
<path d="M12.2,15.3c0.1,0.2,1.6,1.9,4.2,1.9 c2.4-0.1,3.7-1.7,3.9-1.9"/>
<path d="M14.9,0.5h2.7v8c-0.9,0-1.8,0-2.7,0l0,0 C14.9,5.9,14.9,3.2,14.9,0.5z"/>
</g>
<g class="Indicator">
<path d="M3.7,3.6C5,3.1,5.2,3,5.2,3 c0,1.1,0,0,0,1.1C5.2,4.1,5.1,4.1,3.7,3.6"/>
<path d="M28.7,3.6 C27.4,3.1,27.2,3,27.2,3c0,1.1,0,0,0,1.1C27.2,4.1,27.3,4.1,28.7,3.6"/>
</g>
<desc>Width:32 Height:97 Depth:19 Elevation:135</desc>
</g><g class="FixedFurniture Toilet" fill="#ffffff" stroke="#000000" style="fill-opacity: 1; stroke-opacity: 1;" transform="matrix(0,-1,0.8571,0,939.08,748.0979)">
<g class="BoundaryPolygon" fill="none" stroke="none">
<polygon points="0,0 41,0 41,71 0,71"/>
</g>
<g class="InnerPolygon">
<rect height="17.98" width="39.989" x="0.502" y="0.5"/>
<path d="M40.491,44.237S41.619,70.5,20.907,70.5C-.523,70.5.6,44.237.6,44.237L.5,18.48H40.491Z"/>
<rect height="3.03" width="6.357" x="17.318" y="7.975"/>
</g>
<desc>Width:41 Height:85 Depth:71 Elevation:0</desc>
</g><g class="FixedFurniture ShowerScreen" fill="#ffffff" stroke="#000000" style="fill-opacity: 1; stroke-opacity: 1;" transform="matrix(-1,0,0,-1.111,1009.6222,844.3249)">
<g class="BoundaryPolygon">
<polygon points="0,0 2.5,0 2.5,60 0,60"/>
</g>
<g class="InnerPolygon" stroke-linejoin="round">
<rect height="60" width="2.5"/>
</g>
<desc>Width:2.5 Height:180 Depth:60 Elevation:135</desc>
</g><g class="FixedFurniture ShowerScreen" fill="#ffffff" stroke="#000000" style="fill-opacity: 1; stroke-opacity: 1;" transform="matrix(0,-1,1.1163,0,939.0825,780.2812)">
<g class="BoundaryPolygon">
<polygon points="0,0 2.5,0 2.5,60 0,60"/>
</g>
<g class="InnerPolygon" stroke-linejoin="round">
<rect height="60" width="2.5"/>
</g>
<desc>Width:2.5 Height:180 Depth:60 Elevation:135</desc>
</g><g class="FixedFurniture BaseCabinet" fill="#ffffff" stroke="#000000" style="fill-opacity: 1; stroke-opacity: 1;" transform="matrix(0,1,-1,0,1138.5582,672.8249)">
<g class="BoundaryPolygon">
<polygon points="0.00,0.00 171.50,0.00 171.50,47.50 0.00,47.50 "/>
</g>
<g class="Direction" fill-opacity="0.9" style="display: none;">
<polygon fill="#444444" points="91.49,43.69 91.49,33.08 88.48,33.08 88.48,43.69 84.68,43.69 89.98,48.50 95.28,43.69 91.49,43.69 "/>
</g>
<g class="Name" fill-opacity="0.9" style="display: none;">

</g>
<desc>Width:60 Height:90 Depth:60 Elevation:0</desc>
</g><g class="FixedFurniture RoundSink" fill="#ffffff" stroke="#000000" style="fill-opacity: 1; stroke-opacity: 1;" transform="matrix(0,1.2558,-0.7117,0,1135.1308,726.0652)">
<g class="BoundaryPolygon" fill="none" stroke="none">
<polygon points="0,0 46,0 46,50 0,50"/>
</g>
<g class="InnerPolygon">
<circle cx="23" cy="27" r="23"/>
</g>
<g class="OuterDrain">
<circle cx="23" cy="27" r="3.5"/>
</g>
<g class="InnerDrain">
<circle cx="23" cy="27" r="2"/>
</g>
<g class="Faucet">
<polygon points="20 0 26 0 26 14 20 14 20 0"/>
</g>
<g class="Name" fill-opacity="0.9" style="display: none;">

</g>
<desc>Width:46 Height:90 Depth:50 Elevation:60</desc>
</g><g class="FixedFurniture ElectricalAppliance Refrigerator" fill="#ffffff" stroke="#000000" style="fill-opacity: 1; stroke-opacity: 1;" transform="matrix(0.8605,0,0,1,1152.61,522.78)">
<g class="BoundaryPolygon">
<polygon points="0,0 60,0 60,60 0,60"/>
</g>
<g class="electricitySign" fill="none">
<path d="M0,0,30,37.1v-18L60,56.3"/>
</g>
<g class="Doors">
<rect height="4" width="60" y="56"/>
</g>
<g class="Direction" fill-opacity="0.9" style="display: none;">
<polygon fill="#444444" points="32.009 55.197 32.009 44.581 29 44.581 29 55.197 25.197 55.197 30.5 60 35.803 55.197 32.009 55.197"/>
</g>
<g class="Name" fill-opacity="0.9" style="display: none;">

</g>
<desc>Width:60 Height:170 Depth:60 Elevation:0</desc>
</g><g class="FixedFurniture BaseCabinet" fill="#ffffff" stroke="#000000" style="fill-opacity: 1; stroke-opacity: 1;" transform="matrix(-1,0,0,-1,1299.4151,738.3759)">
<g class="BoundaryPolygon">
<polygon points="0.00,0.00 146.81,0.00 146.81,60.00 0.00,60.00 "/>
</g>
<g class="Direction" fill-opacity="0.9" style="display: none;">
<polygon fill="#444444" points="78.32,55.20 78.32,44.58 75.31,44.58 75.31,55.20 71.51,55.20 76.81,60.00 82.11,55.20 78.32,55.20 "/>
</g>
<g class="Name" fill-opacity="0.9" style="display: none;">

</g>
<desc>Width:60 Height:90 Depth:60 Elevation:0</desc>
</g><g class="FixedFurniture ElectricalAppliance IntegratedStove" fill="#ffffff" stroke="#000000" style="fill-opacity: 1; stroke-opacity: 1;" transform="matrix(-1,0,0,-1,1253.3458,738.2196)">
<g class="BoundaryPolygon" fill="none" stroke="none">
<polygon points="0 0 60 0 60 60 0 60"/>
</g>
<g class="InnerPolygon">
<polygon points="2,2 58,2 58,58 2,58"/>
</g>
<g class="OuterCircle">
<circle cx="16" cy="16" r="8"/>
<circle cx="44" cy="16" r="8"/>
<circle cx="16" cy="44" r="8"/>
<circle cx="44" cy="44" r="8"/>
</g>
<g class="Direction" fill-opacity="0.9" style="display: none;">
<polygon fill="#444444" points="32.009 55.197 32.009 44.581 29 44.581 29 55.197 25.197 55.197 30.5 60 35.803 55.197 32.009 55.197"/>
</g>
<g class="Name" fill-opacity="0.9" style="display: none;">

</g>
<desc>Width:60 Height:90 Depth:30 Elevation:0</desc>
</g><g class="FixedFurniture Closet" fill="#ffffff" stroke="#000000" style="fill-opacity: 1; stroke-opacity: 1;" transform="matrix(1,0,0,1,1475.5492,522.7767)">
<g class="BoundaryPolygon">
<polygon points="0,0 60,0 60,60 0,60"/>
</g>
<g class="Direction" fill-opacity="0.9" style="display: none;">
<polygon fill="#444444" points="31.509 54.697 31.509 44.081 28.5 44.081 28.5 54.697 24.697 54.697 30 60 35.303 54.697 31.509 54.697"/>
</g>
<g class="Name" fill-opacity="0.9" style="display: none;">

</g>
<desc>Width:60 Height:200 Depth:60 Elevation:0</desc>
</g><g class="FixedFurniture Closet" fill="#ffffff" stroke="#000000" style="fill-opacity: 1; stroke-opacity: 1;" transform="matrix(0,-1,1,0,687.8759,827.0572)">
<g class="BoundaryPolygon">
<polygon points="0.00,0.00 52.48,0.00 52.48,60.00 0.00,60.00 "/>
</g>
<g class="Direction" fill-opacity="0.9" style="display: none;">
<polygon fill="#444444" points="27.56,54.70 27.56,44.08 24.55,44.08 24.55,54.70 20.75,54.70 26.05,60.00 31.35,54.70 27.56,54.70 "/>
</g>
<g class="Name" fill-opacity="0.9" style="display: none;">

</g>
<desc>Width:60 Height:200 Depth:60 Elevation:0</desc>
</g><g class="FixedFurniture ShowerScreen" fill="#ffffff" stroke="#000000" style="fill-opacity: 1; stroke-opacity: 1;" transform="matrix(0,-1,1.5199,0,660.6199,386.0305)">
<g class="BoundaryPolygon">
<polygon points="0,0 2.5,0 2.5,60 0,60"/>
</g>
<g class="InnerPolygon" stroke-linejoin="round">
<rect height="60" width="2.5"/>
</g>
<desc>Width:2.5 Height:180 Depth:60 Elevation:135</desc>
</g><g class="FixedFurniture ShowerScreen" fill="#ffffff" stroke="#000000" style="fill-opacity: 1; stroke-opacity: 1;" transform="matrix(0,1,-1.5199,0,888.9293,383.5305)">
<g class="BoundaryPolygon">
<polygon points="0,0 2.5,0 2.5,60 0,60"/>
</g>
<g class="InnerPolygon" stroke-linejoin="round">
<rect height="60" width="2.5"/>
</g>
<desc>Width:2.5 Height:180 Depth:60 Elevation:135</desc>
</g><g class="FixedFurniture ShowerScreen" fill="#ffffff" stroke="#000000" style="fill-opacity: 1; stroke-opacity: 1;" transform="matrix(0,1,-1.5199,0,820.1646,387.2917)">
<g class="BoundaryPolygon">
<polygon points="0,0 2.5,0 2.5,60 0,60"/>
</g>
<g class="InnerPolygon" stroke-linejoin="round">
<rect height="60" width="2.5"/>
</g>
<desc>Width:2.5 Height:180 Depth:60 Elevation:135</desc>
</g><g class="FixedFurniture ShowerScreen" fill="#ffffff" stroke="#000000" style="fill-opacity: 1; stroke-opacity: 1;" transform="matrix(0,1,-1.5199,0,901.9894,238.1512)">
<g class="BoundaryPolygon">
<polygon points="0,0 2.5,0 2.5,60 0,60"/>
</g>
<g class="InnerPolygon" stroke-linejoin="round">
<rect height="60" width="2.5"/>
</g>
<desc>Width:2.5 Height:180 Depth:60 Elevation:135</desc>
</g><g class="FixedFurniture ShowerScreen" fill="#ffffff" stroke="#000000" style="fill-opacity: 1; stroke-opacity: 1;" transform="matrix(0,-1,1.5199,0,661.895,240.6512)">
<g class="BoundaryPolygon">
<polygon points="0,0 2.5,0 2.5,60 0,60"/>
</g>
<g class="InnerPolygon" stroke-linejoin="round">
<rect height="60" width="2.5"/>
</g>
<desc>Width:2.5 Height:180 Depth:60 Elevation:135</desc>
</g><g class="FixedFurniture ShowerScreen" fill="#ffffff" stroke="#000000" style="fill-opacity: 1; stroke-opacity: 1;" transform="matrix(0,-1,1.5199,0,737.2013,237.3804)">
<g class="BoundaryPolygon">
<polygon points="0,0 2.5,0 2.5,60 0,60"/>
</g>
<g class="InnerPolygon" stroke-linejoin="round">
<rect height="60" width="2.5"/>
</g>
<desc>Width:2.5 Height:180 Depth:60 Elevation:135</desc>
</g><g class="FixedFurniture Closet" fill="#ffffff" stroke="#000000" style="fill-opacity: 1; stroke-opacity: 1;" transform="matrix(1,0,0,1,251.9335,87.61)">
<g class="BoundaryPolygon">
<polygon points="0.00,0.00 234.45,0.00 234.45,73.13 0.00,73.13 "/>
</g>
<g class="Direction" fill-opacity="0.9" style="display: none;">
<polygon fill="#444444" points="120.17,66.45 120.17,55.83 117.16,55.83 117.16,66.45 113.36,66.45 118.66,71.75 123.97,66.45 120.17,66.45 "/>
</g>
<g class="Name" fill-opacity="0.9" style="display: none;">

</g>
<desc>Width:120 Height:200 Depth:60 Elevation:0</desc>
</g><g class="FixedFurniture ShowerScreen" fill="#ffffff" stroke="#000000" style="fill-opacity: 1; stroke-opacity: 1;" transform="matrix(0,-1,2.0902,0,252.0282,163.2431)">
<g class="BoundaryPolygon">
<polygon points="0,0 2.5,0 2.5,60 0,60"/>
</g>
<g class="InnerPolygon" stroke-linejoin="round">
<rect height="60" width="2.5"/>
</g>
<desc>Width:2.5 Height:180 Depth:60 Elevation:135</desc>
</g><g class="FixedFurniture ShowerScreen" fill="#ffffff" stroke="#000000" style="fill-opacity: 1; stroke-opacity: 1;" transform="matrix(0,-1,2.0902,0,360.8019,165.8876)">
<g class="BoundaryPolygon">
<polygon points="0,0 2.5,0 2.5,60 0,60"/>
</g>
<g class="InnerPolygon" stroke-linejoin="round">
<rect height="60" width="2.5"/>
</g>
<desc>Width:2.5 Height:180 Depth:60 Elevation:135</desc>
</g><g class="FixedFurniture ElectricalAppliance Dishwasher" fill="#ffffff" stroke="#000000" style="fill-opacity: 1; stroke-opacity: 1;" transform="matrix(1,0,0,0.9887,1306.9,522.8113)">
<g class="BoundaryPolygon">
<polygon points="0,0 60,0 60,60 0,60"/>
</g>
<g class="electricitySign" fill="none">
<path d="M0,0,30,38.9v-20L60,60"/>
</g>
<g class="Handle">
<path d="M10,59.6H49.8"/>
</g>
<g class="Direction" fill-opacity="0.9" style="display: none;">
<polygon fill="#444444" points="32.009 55.197 32.009 44.581 29 44.581 29 55.197 25.197 55.197 30.5 60 35.803 55.197 32.009 55.197"/>
</g>
<g class="Name" fill-opacity="0.9" style="display: none;">

</g>
<desc>Width:60 Height:90 Depth:60 Elevation:0</desc>
</g><g class="FixedFurniture RoundSink" fill="#ffffff" stroke="#000000" style="fill-opacity: 1; stroke-opacity: 1;" transform="matrix(1,0,0,1,1209.9345,527.3491)">
<g class="BoundaryPolygon" fill="none" stroke="none">
<polygon points="0,0 46,0 46,50 0,50"/>
</g>
<g class="InnerPolygon">
<circle cx="23" cy="27" r="23"/>
</g>
<g class="OuterDrain">
<circle cx="23" cy="27" r="3.5"/>
</g>
<g class="InnerDrain">
<circle cx="23" cy="27" r="2"/>
</g>
<g class="Faucet">
<polygon points="20 0 26 0 26 14 20 14 20 0"/>
</g>
<g class="Name" fill-opacity="0.9" style="display: none;">

</g>
<desc>Width:46 Height:90 Depth:50 Elevation:60</desc>
</g><g class="Wall" fill="#000000" id="Wall" stroke="#000000" style="fill-opacity: 1; stroke-opacity: 1; stroke-width: 1;"><polygon points="486.21,87.36 486.21,165.89 497.21,154.89 497.21,87.36 "/></g><g class="Wall" fill="#000000" id="Wall" stroke="#000000" style="fill-opacity: 1; stroke-opacity: 1; stroke-width: 1;"><polygon points="486.21,165.89 556.30,165.89 545.30,154.89 497.21,154.89 "/><g class="Door Swing Beside" fill="#ffffff" id="Door" stroke="#000000" style="fill-opacity: 1; stroke-width: 1; stroke-opacity: 1;"><polygon points="497.96,165.89 541.98,165.89 541.98,154.89 497.96,154.89 "/><g class="Panel Left Negative" fill="none" id="Panel" style=""><g class="PanelArea" fill="none" id="PanelArea" stroke="none" style=""><polygon points="497.96,165.89 541.98,165.89 541.98,154.89 497.96,154.89 "/></g><path d="M497.96,165.89 q0.00,44.03 44.03,44.03 l0.00,-44.03Z"/></g></g></g><g class="Wall" fill="#000000" id="Wall" stroke="#000000" style="fill-opacity: 1; stroke-opacity: 1; stroke-width: 1;"><polygon points="556.30,165.89 556.30,87.36 545.30,87.36 545.30,154.89 "/></g><g class="Wall" fill="#000000" id="Wall" stroke="#000000" style="fill-opacity: 1; stroke-opacity: 1; stroke-width: 1;"><polygon points="252.03,87.36 252.03,165.89 241.03,154.89 241.03,87.36 "/></g><g class="Wall" fill="#000000" id="Wall" stroke="#000000" style="fill-opacity: 1; stroke-opacity: 1; stroke-width: 1;"><polygon points="252.03,165.89 185.20,165.89 196.20,154.89 241.03,154.89 "/><g class="Door Swing Beside" fill="#ffffff" id="Door" stroke="#000000" style="fill-opacity: 1; stroke-width: 1; stroke-opacity: 1;"><polygon points="237.24,165.89 199.50,165.89 199.50,154.89 237.24,154.89 "/><g class="Panel Left Negative" fill="none" id="Panel" style=""><g class="PanelArea" fill="none" id="PanelArea" stroke="none" style=""><polygon points="237.24,165.89 199.50,165.89 199.50,154.89 237.24,154.89 "/></g><path d="M237.24,165.89 q0.00,37.74 -37.74,37.74 l0.00,-37.74Z"/></g></g></g><g class="Wall" fill="#000000" id="Wall" stroke="#000000" style="fill-opacity: 1; stroke-opacity: 1; stroke-width: 1;"><polygon points="185.20,165.89 185.20,34.36 196.20,34.36 196.20,154.89 "/></g><g class="FixedFurniture Closet" fill="#ffffff" stroke="#000000" style="fill-opacity: 1; stroke-opacity: 1;" transform="matrix(1,0,0,1,196.2005,87.36)">
<g class="BoundaryPolygon">
<polygon points="0.00,0.00 44.56,0.00 44.56,67.43 0.00,67.43 "/>
</g>
<g class="Direction" fill-opacity="0.9" style="display: none;">
<polygon fill="#444444" points="23.40,61.47 23.40,50.86 20.39,50.86 20.39,61.47 16.59,61.47 21.89,66.78 27.20,61.47 23.40,61.47 "/>
</g>
<g class="Name" fill-opacity="0.9" style="display: none;">

</g>
<desc>Width:60 Height:200 Depth:60 Elevation:0</desc>
</g><g class="FixedFurniture Closet" fill="#ffffff" stroke="#000000" style="fill-opacity: 1; stroke-opacity: 1;" transform="matrix(1,0,0,1,497.2139,87.4576)">
<g class="BoundaryPolygon">
<polygon points="0.00,0.00 48.47,0.00 48.47,67.43 0.00,67.43 "/>
</g>
<g class="Direction" fill-opacity="0.9" style="display: none;">
<polygon fill="#444444" points="25.45,61.47 25.45,50.86 22.44,50.86 22.44,61.47 18.64,61.47 23.94,66.78 29.25,61.47 25.45,61.47 "/>
</g>
<g class="Name" fill-opacity="0.9" style="display: none;">

</g>
<desc>Width:60 Height:200 Depth:60 Elevation:0</desc>
</g></g></g></g></svg>