<?xml version="1.0" encoding="utf-8"?>
<svg height="849.3399620056152" id="temp" version="1.1" viewBox="0 0 1032.390037536621 849.3399620056152" width="1032.390037536621" xmlns="http://www.w3.org/2000/svg" xmlns:xlink="http://www.w3.org/1999/xlink"><defs/><g class="Model v1-1" id="Model"><g class="Floor"><g class="Floorplan Floor-1" id="Floor-1" transform="matrix(1,0,0,1,0,0)"><g class="Space Undefined" fill="#ffffff" id="c82b1fde-02cd-4e13-81e9-59e860154b8a" stroke="#ffffff" style="fill-opacity: 1; stroke-opacity: 1; stroke-width: 1;"><polygon points="279.08,499.05 276.54,499.05 276.54,490.37 52.71,490.37 52.71,489.26 122.80,489.26 122.80,66.38 279.08,66.38 "/><g class="Dimension" transform="matrix(1,0,0,1,122.8045,66.3838)"><g class="Visual" style="display: none;" transform="matrix(1,0,0,1,0,0)"><g class="DimensionMark" fill="#000000" id="mark1" stroke="none" style="fill-opacity: 1; pointer-events: visible;" transform="matrix(1,0,0,1,43.0931,0)"><polygon points="-5,5,0,0,5,5"/></g><g class="DimensionMark" fill="#000000" id="mark2" stroke="none" style="fill-opacity: 1; pointer-events: visible;" transform="matrix(1,0,0,1,156.2763,216.3319)"><polygon points="-5,-5,0,0,-5,5"/></g><g class="DimensionMark" fill="#000000" id="mark3" stroke="none" style="fill-opacity: 1; pointer-events: visible;" transform="matrix(1,0,0,1,43.0931,423.984)"><polygon points="-5,-5,0,0,5,-5"/></g><g class="DimensionMark" fill="#000000" id="mark4" stroke="none" style="fill-opacity: 1; pointer-events: visible;" transform="matrix(1,0,0,1,0,216.3319)"><polygon points="5,5,0,0,5,-5"/></g></g><g class="SpaceDimensionsLabel" transform="matrix(1,0,0,1,13.8498,204.4527)"><g class="TextLabel NameLabel" id="NameLabel" style="display: block;"/><g class="TextLabel DimensionMeasureLabel" id="DimensionMeasureLabel" style="display: none;" transform="matrix(1,0,0,1,-40.5313,79.5938)"/></g></g></g><g class="Space LivingRoom" fill="#ffffff" id="4fb6b24c-96fc-4cb6-a1a3-b36543e357c8" stroke="#ffffff" style="fill-opacity: 1; stroke-opacity: 1; stroke-width: 1;"><polygon points="506.44,593.30 443.33,593.30 443.33,499.05 279.08,499.05 279.08,66.38 506.44,66.38 "/><g class="Dimension" transform="matrix(1,0,0,1,279.0808,66.3838)"><g class="Visual" style="display: none;" transform="matrix(1,0,0,1,0,0)"><g class="DimensionMark" fill="#000000" id="mark1" stroke="none" style="fill-opacity: 1; pointer-events: visible;" transform="matrix(1,0,0,1,164.2472,0)"><polygon points="-5,5,0,0,5,5"/></g><g class="DimensionMark" fill="#000000" id="mark2" stroke="none" style="fill-opacity: 1; pointer-events: visible;" transform="matrix(1,0,0,1,227.3615,263.456)"><polygon points="-5,-5,0,0,-5,5"/></g><g class="DimensionMark" fill="#000000" id="mark3" stroke="none" style="fill-opacity: 1; pointer-events: visible;" transform="matrix(1,0,0,1,164.2472,526.9119)"><polygon points="-5,-5,0,0,5,-5"/></g><g class="DimensionMark" fill="#000000" id="mark4" stroke="none" style="fill-opacity: 1; pointer-events: visible;" transform="matrix(1,0,0,1,0,263.456)"><polygon points="5,5,0,0,5,-5"/></g></g><g class="SpaceDimensionsLabel" transform="matrix(1,0,0,1,55.4292,225.9789)"><g class="TextLabel NameLabel" id="NameLabel" style="display: block;"/><g class="TextLabel DimensionMeasureLabel" id="DimensionMeasureLabel" style="display: none;" transform="matrix(1,0,0,1,-114.625,79.5938)"/></g></g></g><g class="Space Entry Lobby" fill="#ffffff" id="66fb6a79-4a9b-49ef-b91b-1b8fb06f9586" stroke="#ffffff" style="fill-opacity: 1; stroke-opacity: 1; stroke-width: 1;"><polygon points="276.54,499.05 265.08,499.05 265.08,594.43 144.75,594.43 144.75,596.41 52.71,596.41 52.71,490.37 276.54,490.37 "/><g class="Dimension" transform="matrix(1,0,0,1,52.7144,490.3678)"><g class="Visual" style="display: none;" transform="matrix(1,0,0,1,0,0)"><g class="DimensionMark" fill="#000000" id="mark1" stroke="none" style="fill-opacity: 1; pointer-events: visible;" transform="matrix(1,0,0,1,111.9136,0)"><polygon points="-5,5,0,0,5,5"/></g><g class="DimensionMark" fill="#000000" id="mark2" stroke="none" style="fill-opacity: 1; pointer-events: visible;" transform="matrix(1,0,0,1,212.3664,53.019)"><polygon points="-5,-5,0,0,-5,5"/></g><g class="DimensionMark" fill="#000000" id="mark3" stroke="none" style="fill-opacity: 1; pointer-events: visible;" transform="matrix(1,0,0,1,111.9136,104.0668)"><polygon points="-5,-5,0,0,5,-5"/></g><g class="DimensionMark" fill="#000000" id="mark4" stroke="none" style="fill-opacity: 1; pointer-events: visible;" transform="matrix(1,0,0,1,0,53.019)"><polygon points="5,5,0,0,5,-5"/></g></g><g class="SpaceDimensionsLabel" transform="matrix(1,0,0,1,87.7999,56.1633)"><g class="TextLabel NameLabel" id="NameLabel" style="display: block;"/><g class="TextLabel DimensionMeasureLabel" id="DimensionMeasureLabel" style="display: none;" transform="matrix(1,0,0,1,-119.0781,79.5938)"/></g></g></g><g class="Space Closet WalkIn" fill="#ffffff" id="4d337692-3fe7-4998-b852-78937b47b7cf" stroke="#ffffff" style="fill-opacity: 1; stroke-opacity: 1; stroke-width: 1;"><polygon points="144.75,730.59 52.71,730.59 52.71,596.41 144.75,596.41 "/><g class="Dimension" transform="matrix(1,0,0,1,52.7144,596.4059)"><g class="Visual" style="display: none;" transform="matrix(1,0,0,1,0,0)"><g class="DimensionMark" fill="#000000" id="mark1" stroke="none" style="fill-opacity: 1; pointer-events: visible;" transform="matrix(1,0,0,1,46.0183,0)"><polygon points="-5,5,0,0,5,5"/></g><g class="DimensionMark" fill="#000000" id="mark2" stroke="none" style="fill-opacity: 1; pointer-events: visible;" transform="matrix(1,0,0,1,92.0367,67.0946)"><polygon points="-5,-5,0,0,-5,5"/></g><g class="DimensionMark" fill="#000000" id="mark3" stroke="none" style="fill-opacity: 1; pointer-events: visible;" transform="matrix(1,0,0,1,46.0183,134.1891)"><polygon points="-5,-5,0,0,5,-5"/></g><g class="DimensionMark" fill="#000000" id="mark4" stroke="none" style="fill-opacity: 1; pointer-events: visible;" transform="matrix(1,0,0,1,0,67.0946)"><polygon points="5,5,0,0,5,-5"/></g></g><g class="SpaceDimensionsLabel" transform="matrix(1,0,0,1,22.6432,82.8242)"><g class="TextLabel NameLabel" id="NameLabel" style="display: block;"/><g class="TextLabel DimensionMeasureLabel" id="DimensionMeasureLabel" style="display: none;" transform="matrix(1,0,0,1,-116.3359,79.5938)"/></g></g></g><g class="Space Bath" fill="#ffffff" id="db7d4db4-1054-4e94-ba1c-6f3388bd0a94" stroke="#ffffff" style="fill-opacity: 1; stroke-opacity: 1; stroke-width: 1;"><polygon points="429.33,525.72 386.01,525.72 386.01,568.95 429.33,568.95 429.33,593.30 391.36,593.30 353.00,639.01 353.00,730.59 279.08,730.59 279.08,510.98 429.33,510.98 "/><g class="Dimension" transform="matrix(1,0,0,1,279.0808,510.9772)"><g class="Visual" style="display: none;" transform="matrix(1,0,0,1,0,0)"><g class="DimensionMark" fill="#000000" id="mark1" stroke="none" style="fill-opacity: 1; pointer-events: visible;" transform="matrix(1,0,0,1,73.9195,0)"><polygon points="-5,5,0,0,5,5"/></g><g class="DimensionMark" fill="#000000" id="mark2" stroke="none" style="fill-opacity: 1; pointer-events: visible;" transform="matrix(1,0,0,1,150.2472,82.3185)"><polygon points="-5,-5,0,0,-5,5"/></g><g class="DimensionMark" fill="#000000" id="mark3" stroke="none" style="fill-opacity: 1; pointer-events: visible;" transform="matrix(1,0,0,1,73.9195,219.6178)"><polygon points="-5,-5,0,0,5,-5"/></g><g class="DimensionMark" fill="#000000" id="mark4" stroke="none" style="fill-opacity: 1; pointer-events: visible;" transform="matrix(1,0,0,1,0,82.3185)"><polygon points="5,5,0,0,5,-5"/></g></g><g class="SpaceDimensionsLabel" transform="matrix(0,1,-1,0,9.3071,38.9338)"><g class="TextLabel NameLabel" id="NameLabel" style="display: block;"/><g class="TextLabel DimensionMeasureLabel" id="DimensionMeasureLabel" style="display: none;" transform="matrix(1,0,0,1,-106.2266,79.5938)"/></g></g></g><g class="Space Undefined" fill="#ffffff" id="69d1be18-3889-4b3f-90a5-a1fc464eb3cb" stroke="#ffffff" style="fill-opacity: 1; stroke-opacity: 1; stroke-width: 1;"><polygon points="506.44,730.59 367.00,730.59 367.00,644.10 397.89,607.30 506.44,607.30 "/><g class="Dimension" transform="matrix(1,0,0,1,367.0003,607.2958)"><g class="Visual" style="display: none;" transform="matrix(1,0,0,1,0,0)"><g class="DimensionMark" fill="#000000" id="mark1" stroke="none" style="fill-opacity: 1; pointer-events: visible;" transform="matrix(1,0,0,1,69.721,0)"><polygon points="-5,5,0,0,5,5"/></g><g class="DimensionMark" fill="#000000" id="mark2" stroke="none" style="fill-opacity: 1; pointer-events: visible;" transform="matrix(1,0,0,1,139.442,61.6496)"><polygon points="-5,-5,0,0,-5,5"/></g><g class="DimensionMark" fill="#000000" id="mark3" stroke="none" style="fill-opacity: 1; pointer-events: visible;" transform="matrix(1,0,0,1,69.721,123.2992)"><polygon points="-5,-5,0,0,5,-5"/></g><g class="DimensionMark" fill="#000000" id="mark4" stroke="none" style="fill-opacity: 1; pointer-events: visible;" transform="matrix(1,0,0,1,0,61.6496)"><polygon points="5,5,0,0,5,-5"/></g></g><g class="SpaceDimensionsLabel" transform="matrix(1,0,0,1,61.6496,61.6496)"><g class="TextLabel NameLabel" id="NameLabel" style="display: block;"/><g class="TextLabel DimensionMeasureLabel" id="DimensionMeasureLabel" style="display: none;" transform="matrix(1,0,0,1,-40.5313,79.5938)"/></g></g></g><g class="Space Undefined" fill="#ffffff" id="5fb2c203-8932-478d-9a6a-54e8bd2e9d84" stroke="#ffffff" style="fill-opacity: 1; stroke-opacity: 1; stroke-width: 1;"><polygon points="265.08,730.59 158.75,730.59 158.75,608.43 265.08,608.43 "/><g class="Dimension" transform="matrix(1,0,0,1,158.7511,608.4346)"><g class="Visual" style="display: none;" transform="matrix(1,0,0,1,0,0)"><g class="DimensionMark" fill="#000000" id="mark1" stroke="none" style="fill-opacity: 1; pointer-events: visible;" transform="matrix(1,0,0,1,53.1649,0)"><polygon points="-5,5,0,0,5,5"/></g><g class="DimensionMark" fill="#000000" id="mark2" stroke="none" style="fill-opacity: 1; pointer-events: visible;" transform="matrix(1,0,0,1,106.3297,61.0802)"><polygon points="-5,-5,0,0,-5,5"/></g><g class="DimensionMark" fill="#000000" id="mark3" stroke="none" style="fill-opacity: 1; pointer-events: visible;" transform="matrix(1,0,0,1,53.1649,122.1604)"><polygon points="-5,-5,0,0,5,-5"/></g><g class="DimensionMark" fill="#000000" id="mark4" stroke="none" style="fill-opacity: 1; pointer-events: visible;" transform="matrix(1,0,0,1,0,61.0802)"><polygon points="5,5,0,0,5,-5"/></g></g><g class="SpaceDimensionsLabel" transform="matrix(1,0,0,1,-26.1356,86.5545)"><g class="TextLabel NameLabel" id="NameLabel" style="display: block;"/><g class="TextLabel DimensionMeasureLabel" id="DimensionMeasureLabel" style="display: none;" transform="matrix(1,0,0,1,-40.5313,79.5938)"/></g></g></g><g class="Wall External" fill="#000000" id="Wall" stroke="#000000" style="fill-opacity: 1; stroke-opacity: 1; stroke-width: 1;"><polygon points="95.30,38.38 534.44,38.38 506.44,66.38 122.80,66.38 "/></g><g class="Wall External" fill="#000000" id="Wall" stroke="#000000" style="fill-opacity: 1; stroke-opacity: 1; stroke-width: 1;"><polygon points="534.44,38.38 534.44,756.42 506.44,730.59 506.44,66.38 "/><g class="Window Regular" fill="#f0f0ff" id="Window" stroke="#000000" style="fill-opacity: 1; stroke-width: 1; stroke-opacity: 1;"><polygon points="534.44,138.08 534.44,221.27 506.44,221.27 506.44,138.08 "/><g class="Glass" id="Glass"><polygon points="534.44,138.08 534.44,221.27 506.44,221.27 506.44,138.08 "/></g><g class="Panel" id="Panel"><line x1="520.4400024414062" x2="520.4400024414062" y1="145.5800018310547" y2="213.77000427246094"/><line x1="534.4400024414062" x2="506.44000244140625" y1="145.5800018310547" y2="145.5800018310547"/><line x1="534.4400024414062" x2="506.44000244140625" y1="213.77000427246094" y2="213.77000427246094"/></g></g><g class="Window Regular" fill="#f0f0ff" id="Window" stroke="#000000" style="fill-opacity: 1; stroke-width: 1; stroke-opacity: 1;"><polygon points="534.44,302.39 534.44,389.05 506.44,389.05 506.44,302.39 "/><g class="Glass" id="Glass"><polygon points="534.44,302.39 534.44,389.05 506.44,389.05 506.44,302.39 "/></g><g class="Panel" id="Panel"><line x1="520.4400024414062" x2="520.4400024414062" y1="309.8900146484375" y2="381.54998779296875"/><line x1="534.4400024414062" x2="506.44000244140625" y1="309.8900146484375" y2="309.8900146484375"/><line x1="534.4400024414062" x2="506.44000244140625" y1="381.54998779296875" y2="381.54998779296875"/></g></g></g><g class="Wall External" fill="#000000" id="Wall" stroke="#000000" style="fill-opacity: 1; stroke-opacity: 1; stroke-width: 1;"><polygon points="506.44,730.59 52.71,730.59 27.29,756.42 534.44,756.42 "/><g class="Door Swing Beside" fill="#ffffff" id="Door" stroke="#000000" style="fill-opacity: 1; stroke-width: 1; stroke-opacity: 1;"><polygon points="259.41,730.59 166.49,730.59 166.49,756.42 259.41,756.42 "/><g class="Panel Left Positive" fill="none" id="Panel" style=""><g class="PanelArea" fill="none" id="PanelArea" stroke="none" style=""><polygon points="259.41,730.59 166.49,730.59 166.49,756.42 259.41,756.42 "/></g><path d="M166.49,756.42 q0.00,92.92 92.92,92.92 l0.00,-92.92Z"/></g></g></g><g class="Wall External" fill="#000000" id="Wall" stroke="#000000" style="fill-opacity: 1; stroke-opacity: 1; stroke-width: 1;"><polygon points="27.29,756.42 27.29,465.26 52.71,489.26 52.71,730.59 "/></g><g class="Wall External" fill="#000000" id="Wall" stroke="#000000" style="fill-opacity: 1; stroke-opacity: 1; stroke-width: 1;"><polygon points="27.29,465.26 95.30,465.26 122.80,489.26 52.71,489.26 "/></g><g class="Wall External" fill="#000000" id="Wall" stroke="#000000" style="fill-opacity: 1; stroke-opacity: 1; stroke-width: 1;"><polygon points="122.80,489.26 122.80,66.38 95.30,38.38 95.30,465.26 "/></g><g class="Wall" fill="#000000" id="Wall" stroke="#000000" style="fill-opacity: 1; stroke-opacity: 1; stroke-width: 1;"><polygon points="265.08,751.72 265.08,499.05 279.08,510.98 279.08,751.72 "/><g class="Door Swing Beside" fill="#ffffff" id="Door" stroke="#000000" style="fill-opacity: 1; stroke-width: 1; stroke-opacity: 1;"><polygon points="265.08,583.50 265.08,517.72 279.08,517.72 279.08,583.50 "/><g class="Panel Right Negative" fill="none" id="Panel" style=""><g class="PanelArea" fill="none" id="PanelArea" stroke="none" style=""><polygon points="265.08,583.50 265.08,517.72 279.08,517.72 279.08,583.50 "/></g><path d="M265.08,517.72 q-65.78,0.00 -65.78,65.78 l65.78,0.00Z"/></g></g></g><g class="Wall" fill="#000000" id="Wall" stroke="#000000" style="fill-opacity: 1; stroke-opacity: 1; stroke-width: 1;"><polygon points="265.08,499.05 443.33,499.05 429.33,510.98 279.08,510.98 "/></g><g class="Wall" fill="#000000" id="Wall" stroke="#000000" style="fill-opacity: 1; stroke-opacity: 1; stroke-width: 1;"><polygon points="443.33,499.05 443.33,605.03 429.33,605.03 429.33,510.98 "/></g><g class="Wall" fill="#000000" id="Wall" stroke="#000000" style="fill-opacity: 1; stroke-opacity: 1; stroke-width: 1;"><polygon points="353.00,756.42 353.00,639.01 367.00,644.10 367.00,756.42 "/></g><g class="Wall" fill="#000000" id="Wall" stroke="#000000" style="fill-opacity: 1; stroke-opacity: 1; stroke-width: 1;"><polygon points="353.00,639.01 391.36,593.30 397.89,607.30 367.00,644.10 "/><g class="Door Swing Beside" fill="#ffffff" id="Door" stroke="#000000" style="fill-opacity: 1; stroke-width: 1; stroke-opacity: 1;"><polygon points="357.35,633.82 386.23,599.41 396.95,608.41 368.07,642.82 "/><g class="Panel Left Negative" fill="none" id="Panel" style=""><g class="PanelArea" fill="none" id="PanelArea" stroke="none" style=""><polygon points="357.35,633.82 386.23,599.41 396.95,608.41 368.07,642.82 "/></g><path d="M357.35,633.82 q-34.41,-28.89 -5.53,-63.30 l34.41,28.89Z"/></g></g></g><g class="Wall" fill="#000000" id="Wall" stroke="#000000" style="fill-opacity: 1; stroke-opacity: 1; stroke-width: 1;"><polygon points="391.36,593.30 534.44,593.30 534.44,607.30 397.89,607.30 "/></g><g class="Wall" fill="#000000" id="Wall" stroke="#000000" style="fill-opacity: 1; stroke-opacity: 1; stroke-width: 1;"><polygon points="144.75,756.42 144.75,594.43 158.75,608.43 158.75,756.42 "/></g><g class="Wall" fill="#000000" id="Wall" stroke="#000000" style="fill-opacity: 1; stroke-opacity: 1; stroke-width: 1;"><polygon points="144.75,594.43 279.08,594.43 279.08,608.43 158.75,608.43 "/><g class="Door None Beside" fill="#ffffff" id="Door" stroke="#000000" style="fill-opacity: 1; stroke-width: 1; stroke-opacity: 1;"><polygon points="167.50,594.43 257.99,594.43 257.99,608.43 167.50,608.43 "/></g></g><g class="Stairs" fill="#ffffff" id="Stairs" stroke="#000000" style="fill-opacity: 1; stroke-opacity: 1;"><g class="Flight" id="Flight"><polygon points="443.99,499.99 443.99,561.92 507.11,561.92 507.11,499.99 "/><g class="WalkinLine "><path d="M475.55,499.99 L475.55,561.92 " fill="none" stroke="#d3d3d3" style='pointer-events: none; marker-end: url("#Marker2");'/><defs><marker fill="#d3d3d3" id="Marker2" markerHeight="12" markerWidth="12" orient="auto" refX="11" refY="6" stroke="#d3d3d3" style="pointer-events: none;" viewBox="0 0 12 12"><polygon points="0.00,0.00 0.00,12.00 10.00,6.00 0.00,0.00 "/></marker></defs></g><g class="Steps" id="Steps"><line x1="443.989990234375" x2="507.1099853515625" y1="499.989990234375" y2="499.989990234375"/><line x1="443.989990234375" x2="507.1099853515625" y1="515.4724884033203" y2="515.4724884033203"/><line x1="443.989990234375" x2="507.1099853515625" y1="530.9549865722656" y2="530.9549865722656"/><line x1="443.989990234375" x2="507.1099853515625" y1="546.4374847412109" y2="546.4374847412109"/><line x1="443.989990234375" x2="507.1099853515625" y1="561.9199829101562" y2="561.9199829101562"/></g></g></g><g class="FixedFurnitureSet" id="FixedFurnitureSet" style="" transform="matrix(0,-1,1,0,279.1746,667.4846)"><g class="FixedFurniture BaseCabinet" fill="#ffffff" stroke="#000000" style="fill-opacity: 1; stroke-opacity: 1;" transform="matrix(1,0,0,1,0,0)">
<g class="BoundaryPolygon">
<polygon points="0.00,0.00 47.55,0.00 47.55,39.42 0.00,39.42 "/>
</g>
<g class="Direction" fill-opacity="0.9" style="display: none;">
<polygon fill="#444444" points="25.37,36.26 25.37,25.65 22.36,25.65 22.36,36.26 18.56,36.26 23.86,41.07 29.16,36.26 25.37,36.26 "/>
</g>
<g class="Name" fill-opacity="0.9" style="display: none;">

</g>
<desc>Width:60 Height:5 Depth:60 Elevation:105</desc>
</g><g class="FixedFurniture Sink" fill="#ffffff" stroke="#000000" style="fill-opacity: 1; stroke-opacity: 1;" transform="matrix(1,0,0,1,0,0)">
<g class="BoundaryPolygon" fill="none" stroke="none">
<polygon points="0.00,0.00 47.55,0.00 47.55,39.42 0.00,39.42 "/>
</g>
<g class="InnerPolygon">
<polygon points="3.96,9.70 43.59,9.70 43.59,35.94 3.96,35.94 "/>
</g>
<g class="OuterDrain" stroke-width="0.8">
<circle cx="23.775542210544113" cy="21.15479878087181" r="3.5"/>
</g>
<g class="InnerDrain" stroke-width="0.8">
<circle cx="23.775542210544113" cy="21.15479878087181" r="2"/>
</g>
<g class="Faucet">
<polygon points="21.40,3.28 27.40,3.28 27.40,17.28 21.40,17.28 "/>
</g>
<g class="Direction" fill-opacity="0.9" style="display: none;">
<polygon fill="#444444" points="25.37,36.26 25.37,25.65 22.36,25.65 22.36,36.26 18.56,36.26 23.86,41.07 29.16,36.26 25.37,36.26 "/>
</g>
<g class="Name" fill-opacity="0.9" style="display: none;">

</g>
<desc>Width:60 Height:90 Depth:60 Elevation:0</desc>
</g></g><g class="FixedFurnitureSet" id="FixedFurnitureSet" style="" transform="matrix(0,1,-1,0,507.1878,607.2958)"><g class="FixedFurniture SaunaBenchHigh" fill="#ffffff" stroke="#000000" style="fill-opacity: 1; stroke-opacity: 1;" transform="matrix(1,0,0,1,0,0)">
<g class="BoundaryPolygon">
<polygon points="0.00,0.00 123.51,0.00 123.51,26.93 0.00,26.93 "/>
</g>

<g class="Direction" fill-opacity="0.9" style="display: none;">
<polygon fill="#444444" points="63.70,24.53 63.70,13.92 60.69,13.92 60.69,24.53 56.89,24.53 62.19,29.84 67.49,24.53 63.70,24.53 "/>
</g>
<g class="Name" fill-opacity="0.9" style="display: none;">

</g>
<desc>Width:185 Height:5 Depth:60 Elevation:105</desc>
</g><g class="FixedFurniture SaunaBenchMid" fill="#ffffff" stroke="#000000" style="fill-opacity: 1; stroke-opacity: 1;" transform="matrix(1,0,0,1,0,26.9302)">
<g class="BoundaryPolygon">
<polygon points="0.00,0.00 123.51,0.00 123.51,17.95 0.00,17.95 "/>
</g>

<g class="Direction" fill-opacity="0.9" style="display: none;">
<polygon fill="#444444" points="62.76,15.55 62.76,4.94 59.75,4.94 59.75,15.55 55.95,15.55 61.25,20.86 66.56,15.55 62.76,15.55 "/>
</g>
<g class="Name" fill-opacity="0.9" style="display: none;">

</g>
<desc>Width:185 Height:5 Depth:40 Elevation:60</desc>
</g><g class="FixedFurniture SaunaBenchLow" fill="#ffffff" stroke="#000000" style="fill-opacity: 1; stroke-opacity: 1;" transform="matrix(1,0,0,1,0,44.8836)">
<g class="BoundaryPolygon">
<polygon points="0.00,0.00 123.51,0.00 123.51,17.95 0.00,17.95 "/>
</g>

<g class="Direction" fill-opacity="0.9" style="display: none;">
<polygon fill="#444444" points="62.76,15.55 62.76,4.94 59.75,4.94 59.75,15.55 55.95,15.55 61.25,20.86 66.56,15.55 62.76,15.55 "/>
</g>
<g class="Name" fill-opacity="0.9" style="display: none;">

</g>
<desc>Width:185 Height:5 Depth:40 Elevation:30</desc>
</g></g><g class="FixedFurniture Shower" fill="#ffffff" stroke="#000000" style="fill-opacity: 1; stroke-opacity: 1;" transform="matrix(0,-1,1,0,279.0808,712.3495)">
<g class="BoundaryPolygon" fill="none" stroke="none">
<polygon points="0,0 32,0 32,19 0,19"/>
</g>
<g class="InnerPolygon">
<rect height="6.1" width="11.2" x="3.7" y="0.5"/>
<rect height="6.1" width="11.2" x="17.6" y="0.5"/>
<rect height="6.1" width="3.4" x="28.7" y="0.5"/>
<rect height="6.1" width="3.2" x="0.5" y="0.5"/>
<path d="M14.9,8.5c0,1.5-0.4,3.3-1.6,5    c-0.4,0.6-1,1.1-1.1,1.7c-0.2,1.1,0.3,2.8,2.5,3.2c0.5,0.1,1.3,0.1,1.6,0.1h-0.1c0.3,0,1.1,0,1.6-0.1c2.2-0.4,2.7-2.1,2.5-3.2    c-0.1-0.6-0.7-1.1-1.1-1.7c-1.2-1.7-1.6-3.5-1.6-5"/>
<path d="M12.2,15.3c0.1,0.2,1.6,1.9,4.2,1.9 c2.4-0.1,3.7-1.7,3.9-1.9"/>
<path d="M14.9,0.5h2.7v8c-0.9,0-1.8,0-2.7,0l0,0 C14.9,5.9,14.9,3.2,14.9,0.5z"/>
</g>
<g class="Indicator">
<path d="M3.7,3.6C5,3.1,5.2,3,5.2,3 c0,1.1,0,0,0,1.1C5.2,4.1,5.1,4.1,3.7,3.6"/>
<path d="M28.7,3.6 C27.4,3.1,27.2,3,27.2,3c0,1.1,0,0,0,1.1C27.2,4.1,27.3,4.1,28.7,3.6"/>
</g>
<desc>Width:32 Height:97 Depth:19 Elevation:135</desc>
</g><g class="FixedFurniture Toilet" fill="#ffffff" stroke="#000000" style="fill-opacity: 1; stroke-opacity: 1;" transform="matrix(0,1,-0.9279,0,381.4306,522.3508)">
<g class="BoundaryPolygon" fill="none" stroke="none">
<polygon points="0,0 41,0 41,71 0,71"/>
</g>
<g class="InnerPolygon">
<rect height="17.98" width="39.989" x="0.502" y="0.5"/>
<path d="M40.491,44.237S41.619,70.5,20.907,70.5C-.523,70.5.6,44.237.6,44.237L.5,18.48H40.491Z"/>
<rect height="3.03" width="6.357" x="17.318" y="7.975"/>
</g>
<desc>Width:41 Height:85 Depth:71 Elevation:0</desc>
</g><g class="FixedFurniture ElectricalAppliance SaunaStove" fill="#ffffff" stroke="#000000" style="fill-opacity: 1; stroke-opacity: 1;" transform="matrix(0,-0.6231,1,0,374.8858,725.0952)">
<g class="BoundaryPolygon">
<polygon points="0,0 60,0 60,35 0,35"/>
</g>
<g class="electricitySign" fill="none">
<polyline points="0 35 39.7 17.5 21.4 17.5 60 0"/>
</g>
<g class="Direction" fill-opacity="0.9" style="display: none;">
<polygon fill="#444444" points="31.509 29.697 31.509 19.081 28.5 19.081 28.5 29.697 24.697 29.697 30 35 35.303 29.697 31.509 29.697"/>
</g>
<g class="Name" fill-opacity="0.9" style="display: none;">

</g>
<desc>Width:60 Height:60 Depth:35 Elevation:20</desc>
</g><g class="FixedFurniture BaseCabinet" fill="#ffffff" stroke="#000000" style="fill-opacity: 1; stroke-opacity: 1;" transform="matrix(0,-1,1,0,122.8,419.2441)">
<g class="BoundaryPolygon">
<polygon points="0.00,0.00 240.50,0.00 240.50,70.75 0.00,70.75 "/>
</g>
<g class="Direction" fill-opacity="0.9" style="display: none;">
<polygon fill="#444444" points="128.30,65.09 128.30,54.47 125.30,54.47 125.30,65.09 121.49,65.09 126.80,69.89 132.10,65.09 128.30,65.09 "/>
</g>
<g class="Name" fill-opacity="0.9" style="display: none;">

</g>
<desc>Width:60 Height:90 Depth:60 Elevation:0</desc>
</g><g class="FixedFurniture ElectricalAppliance IntegratedStove" fill="#ffffff" stroke="#000000" style="fill-opacity: 1; stroke-opacity: 1;" transform="matrix(0,-1,1,0,122.6048,313.5011)">
<g class="BoundaryPolygon" fill="none" stroke="none">
<polygon points="0.00,0.00 73.35,0.00 73.35,73.05 0.00,73.05 "/>
</g>
<g class="InnerPolygon">
<polygon points="2.00,2.00 70.90,2.00 70.90,70.62 2.00,70.62 "/>
</g>
<g class="OuterCircle">
<circle cx="19.55890474650285" cy="19.481058139495683" r="8"/>
<circle cx="53.78698805288284" cy="19.481058139495683" r="8"/>
<circle cx="19.55890474650285" cy="53.572909883613136" r="8"/>
<circle cx="53.78698805288284" cy="53.572909883613136" r="8"/>
</g>
<g class="Direction" fill-opacity="0.9" style="display: none;">
<polygon fill="#444444" points="39.13,67.21 39.13,56.59 36.12,56.59 36.12,67.21 32.32,67.21 37.62,72.01 42.92,67.21 39.13,67.21 "/>
</g>
<g class="Name" fill-opacity="0.9" style="display: none;">

</g>
<desc>Width:60 Height:90 Depth:30 Elevation:0</desc>
</g><g class="FixedFurniture Sink" fill="#ffffff" stroke="#000000" style="fill-opacity: 1; stroke-opacity: 1;" transform="matrix(0,-1,1,0,124.4165,419.2442)">
<g class="BoundaryPolygon" fill="none" stroke="none">
<polygon points="0.00,0.00 74.96,0.00 74.96,69.11 0.00,69.11 "/>
</g>
<g class="InnerPolygon">
<polygon points="6.25,9.70 68.71,9.70 68.71,63.01 6.25,63.01 "/>
</g>
<g class="OuterDrain" stroke-width="0.8">
<circle cx="37.48090613561879" cy="37.08890462324536" r="3.5"/>
</g>
<g class="InnerDrain" stroke-width="0.8">
<circle cx="37.48090613561879" cy="37.08890462324536" r="2"/>
</g>
<g class="Faucet">
<polygon points="33.73,5.76 39.73,5.76 39.73,19.76 33.73,19.76 "/>
</g>
<g class="Direction" fill-opacity="0.9" style="display: none;">
<polygon fill="#444444" points="39.99,63.58 39.99,52.96 36.98,52.96 36.98,63.58 33.18,63.58 38.48,68.38 43.78,63.58 39.99,63.58 "/>
</g>
<g class="Name" fill-opacity="0.9" style="display: none;">

</g>
<desc>Width:60 Height:90 Depth:60 Elevation:0</desc>
</g><g class="FixedFurniture FireplaceCorner" fill="#ffffff" stroke="#000000" style="fill-opacity: 1; stroke-opacity: 1;" transform="matrix(0,-1.3298,0.9191,0,122.8,166.7799)">
<g class="BoundaryPolygon" fill="none" stroke="none">
<polygon points="0,0 75,0 75,75, 0,75"/>
</g>
<g class="OverlayPolygon">
<polygon points="33.933 75.5 75.5 75.5 75.5 0.5 0.5 0.5 0.5 41.735 33.933 75.5"/>
</g>
<g class="Lines" fill="none" stroke="#4c4c4c">
<line x1="41.978" x2="75.5" y1="0.5" y2="34.026"/>
<line x1="9.726" x2="75.5" y1="0.5" y2="66.237"/>
<line x1="0.5" x2="67.386" y1="8.611" y2="75.5"/>
<line x1="26.284" x2="75.183" y1="0.5" y2="49.404"/>
<line x1="0.5" x2="50.143" y1="25.759" y2="75.4"/>
<line x1="59.944" x2="75.5" y1="0.5" y2="16.058"/>
</g>
<g class="FireBox">
<polygon points="0.739 41.989 34.215 8.38 67.304 41.602 33.829 75.21 0.739 41.989"/>
</g>
<g class="Direction" fill-opacity="0.9" style="display: none;">
<polygon fill="#444444" points="35.459 70.197 35.459 59.581 32.45 59.581 32.45 70.197 28.647 70.197 33.95 75.5 39.253 70.197 35.459 70.197"/>
</g>
<g class="Name" fill-opacity="0.9" style="display: none;">

</g>
<desc>Width:75 Height:120 Depth:75 Elevation:0</desc>
</g><g class="FixedFurniture ElectricalAppliance Refrigerator" fill="#ffffff" stroke="#000000" style="fill-opacity: 1; stroke-opacity: 1;" transform="matrix(0,-1.1597,1.1756,0,122.8367,488.8262)">
<g class="BoundaryPolygon">
<polygon points="0,0 60,0 60,60 0,60"/>
</g>
<g class="electricitySign" fill="none">
<path d="M0,0,30,37.1v-18L60,56.3"/>
</g>
<g class="Doors">
<rect height="4" width="60" y="56"/>
</g>
<g class="Direction" fill-opacity="0.9" style="display: none;">
<polygon fill="#444444" points="32.009 55.197 32.009 44.581 29 44.581 29 55.197 25.197 55.197 30.5 60 35.803 55.197 32.009 55.197"/>
</g>
<g class="Name" fill-opacity="0.9" style="display: none;">

</g>
<desc>Width:60 Height:170 Depth:60 Elevation:0</desc>
</g><g class="FixedFurniture ElectricalAppliance SpaceForAppliance2" fill="#ffffff" stroke="#000000" style="fill-opacity: 1; stroke-opacity: 1;" transform="matrix(0,0.7037,-0.7223,0,429.2736,525.72)">
<g class="BoundaryPolygon">
<polygon points="0,0 60,0 60,60 0,60"/>
</g>
<g class="electricitySign" fill="none">
<path d="M0,0,30.1,39.8V19.4L59.9,60"/>
</g>
<g class="Direction" fill-opacity="0.9" style="display: none;">
<polygon fill="#444444" points="32.009 55.197 32.009 44.581 29 44.581 29 55.197 25.197 55.197 30.5 60 35.803 55.197 32.009 55.197"/>
</g>
<g class="Name" fill-opacity="0.9" style="display: none;">

</g>
<desc>Width:60 Height:90 Depth:60 Elevation:0</desc>
</g></g></g><g class="Floor" style="display: none;"><g class="Floorplan Floor-2" id="Floor-2" transform="matrix(1,0,0,1,0,0)"><g class="Space Bedroom" fill="#ffffff" id="55622299-1233-46d4-a77e-96cd498a9e92" stroke="#ffffff" style="fill-opacity: 1; stroke-opacity: 1; stroke-width: 1;"><polygon points="1006.39,728.62 621.93,728.62 621.07,490.73 1006.39,490.73 "/><g class="Dimension" transform="matrix(1,0,0,1,621.5038,490.7265)"><g class="Visual" style="display: none;" transform="matrix(1,0,0,1,0,0)"><g class="DimensionMark" fill="#000000" id="mark1" stroke="none" style="fill-opacity: 1; pointer-events: visible;" transform="matrix(1,0,0,1,192.2294,0)"><polygon points="-5,5,0,0,5,5"/></g><g class="DimensionMark" fill="#000000" id="mark2" stroke="none" style="fill-opacity: 1; pointer-events: visible;" transform="matrix(1,0,0,1,384.8881,118.9457)"><polygon points="-5,-5,0,0,-5,5"/></g><g class="DimensionMark" fill="#000000" id="mark3" stroke="none" style="fill-opacity: 1; pointer-events: visible;" transform="matrix(1,0,0,1,192.2294,237.8946)"><polygon points="-5,-5,0,0,5,-5"/></g><g class="DimensionMark" fill="#000000" id="mark4" stroke="none" style="fill-opacity: 1; pointer-events: visible;" transform="matrix(1,0,0,1,0,118.9457)"><polygon points="5,5,0,0,5,-5"/></g></g><g class="SpaceDimensionsLabel" transform="matrix(1,0,0,1,122.4733,120.3563)"><g class="TextLabel NameLabel" id="NameLabel" style="display: block;"/><g class="TextLabel DimensionMeasureLabel" id="DimensionMeasureLabel" style="display: none;" transform="matrix(1,0,0,1,-113.6797,79.7501)"/></g></g></g><g class="Wall External" fill="#000000" id="Wall" stroke="#000000" style="fill-opacity: 1; stroke-opacity: 1; stroke-width: 1;"><polygon points="594.98,464.73 1032.39,464.73 1006.39,490.73 621.07,490.73 "/></g><g class="Wall External" fill="#000000" id="Wall" stroke="#000000" style="fill-opacity: 1; stroke-opacity: 1; stroke-width: 1;"><polygon points="1032.39,464.73 1032.39,754.62 1006.39,728.62 1006.39,490.73 "/></g><g class="Wall External" fill="#000000" id="Wall" stroke="#000000" style="fill-opacity: 1; stroke-opacity: 1; stroke-width: 1;"><polygon points="1032.39,754.62 596.03,754.62 621.93,728.62 1006.39,728.62 "/><g class="Window Regular" fill="#f0f0ff" id="Window" stroke="#000000" style="fill-opacity: 1; stroke-width: 1; stroke-opacity: 1;"><polygon points="703.46,754.62 630.06,754.62 630.06,728.62 703.46,728.62 "/><g class="Glass" id="Glass"><polygon points="703.46,754.62 630.06,754.62 630.06,728.62 703.46,728.62 "/></g><g class="Panel" id="Panel"><line x1="695.9600219726562" x2="637.5599975585938" y1="741.6199951171875" y2="741.6199951171875"/><line x1="695.9600219726562" x2="695.9600219726562" y1="754.6199951171875" y2="728.6199951171875"/><line x1="637.5599975585938" x2="637.5599975585938" y1="754.6199951171875" y2="728.6199951171875"/></g></g></g><g class="Wall External" fill="#000000" id="Wall" stroke="#000000" style="fill-opacity: 1; stroke-opacity: 1; stroke-width: 1;"><polygon points="596.03,754.62 594.98,464.73 621.07,490.73 621.93,728.62 "/></g><g class="Stairs" fill="#ffffff" id="Stairs" stroke="#000000" style="fill-opacity: 1; stroke-opacity: 1;"><g class="Flight" id="Flight"><polygon points="1006.70,497.23 1006.70,666.19 942.29,666.19 942.29,497.23 "/><g class="WalkinLine "><path d="M974.49,497.23 L974.49,666.19 " fill="none" stroke="#d3d3d3" style="pointer-events: none; marker-end: none;"/><defs><marker fill="#d3d3d3" id="Marker3" markerHeight="12" markerWidth="12" orient="auto" refX="11" refY="6" stroke="#d3d3d3" style="pointer-events: none;" viewBox="0 0 12 12"><polygon points="0.00,0.00 0.00,12.00 10.00,6.00 0.00,0.00 "/></marker></defs></g><g class="Steps" id="Steps"><line x1="1006.7000122070312" x2="942.2899780273438" y1="497.2300109863281" y2="497.2300109863281"/><line x1="1006.7000122070312" x2="942.2899780273438" y1="511.3100102742513" y2="511.3100102742513"/><line x1="1006.7000122070312" x2="942.2899780273438" y1="525.3900095621744" y2="525.3900095621744"/><line x1="1006.7000122070312" x2="942.2899780273438" y1="539.4700088500977" y2="539.4700088500977"/><line x1="1006.7000122070312" x2="942.2899780273438" y1="553.5500081380209" y2="553.5500081380209"/><line x1="1006.7000122070312" x2="942.2899780273438" y1="567.630007425944" y2="567.630007425944"/><line x1="1006.7000122070312" x2="942.2899780273438" y1="581.7100067138672" y2="581.7100067138672"/><line x1="1006.7000122070312" x2="942.2899780273438" y1="595.7900060017904" y2="595.7900060017904"/><line x1="1006.7000122070312" x2="942.2899780273438" y1="609.8700052897135" y2="609.8700052897135"/><line x1="1006.7000122070312" x2="942.2899780273438" y1="623.9500045776367" y2="623.9500045776367"/><line x1="1006.7000122070312" x2="942.2899780273438" y1="638.0300038655599" y2="638.0300038655599"/><line x1="1006.7000122070312" x2="942.2899780273438" y1="652.1100031534831" y2="652.1100031534831"/><line x1="1006.7000122070312" x2="942.2899780273438" y1="666.1900024414062" y2="666.1900024414062"/></g></g><g class="Winding" id="Winding"><polygon points="942.62,666.19 1006.70,666.19 1006.39,728.62 942.32,728.62 "/><g class="WalkinLine "><path d="M974.66,666.19 L974.51,697.40 L942.47,697.40 " fill="none" stroke="#d3d3d3" style='pointer-events: none; marker-end: url("#Marker4");'/><defs><marker fill="#d3d3d3" id="Marker4" markerHeight="12" markerWidth="12" orient="auto" refX="11" refY="6" stroke="#d3d3d3" style="pointer-events: none;" viewBox="0 0 12 12"><polygon points="0.00,0.00 0.00,12.00 10.00,6.00 0.00,0.00 "/></marker></defs></g><g class="Steps" id="Steps"><line x1="942.6199951171875" x2="1006.7000122070312" y1="666.1900024414062" y2="666.1900024414062"/><line x1="942.6199951171875" x2="1006.5450134277344" y1="666.1900024414062" y2="697.4049987792969"/><line x1="942.6199951171875" x2="1006.3900146484375" y1="666.1900024414062" y2="728.6199951171875"/><line x1="942.6199951171875" x2="974.3550109863281" y1="666.1900024414062" y2="728.6199951171875"/><line x1="942.6199951171875" x2="942.3200073242188" y1="666.1900024414062" y2="728.6199951171875"/></g></g></g><g class="Railing" fill="#ffffff" id="Railing" stroke="#000000" style="fill-opacity: 1; stroke-opacity: 1; stroke-width: 1;"><polygon points="943.79,666.96 943.79,496.86 938.60,490.73 938.60,666.96 " style="stroke-dasharray: 170.1, 8.03198, 181.42;"/></g><g class="Railing" fill="#ffffff" id="Railing" stroke="#000000" style="fill-opacity: 1; stroke-opacity: 1; stroke-width: 1;"><polygon points="938.60,490.73 1006.39,490.73 1006.39,496.86 943.79,496.86 " style="stroke-dasharray: 136.52, 8.03198;"/></g><g class="FixedFurniture Closet" fill="#ffffff" stroke="#000000" style="fill-opacity: 1; stroke-opacity: 1;" transform="matrix(0,-1,1,0,621.4928,662.1344)">
<g class="BoundaryPolygon">
<polygon points="0.00,0.00 108.92,0.00 108.92,34.05 0.00,34.05 "/>
</g>
<g class="Direction" fill-opacity="0.9" style="display: none;">
<polygon fill="#444444" points="55.83,30.94 55.83,20.32 52.82,20.32 52.82,30.94 49.02,30.94 54.32,36.24 59.62,30.94 55.83,30.94 "/>
</g>
<g class="Name" fill-opacity="0.9" style="display: none;">

</g>
<desc>Width:120 Height:200 Depth:60 Elevation:0</desc>
</g><g class="FixedFurnitureSet" fill="#ffffff" id="FixedFurnitureSet" stroke="#000000" style="fill-opacity: 0.4; stroke-opacity: 0.4;" transform="matrix(0,1,-1,0,938.6,490.73)"><g class="FixedFurniture Closet" fill="#ffffff" stroke="#000000" style="fill-opacity: 1; stroke-opacity: 1;" transform="matrix(1,0,0,1,0,0)">
<g class="BoundaryPolygon">
<polygon points="0,0 60,0 60,60 0,60"/>
</g>
<g class="Direction" fill-opacity="0.9" style="display: none;">
<polygon fill="#444444" points="31.509 54.697 31.509 44.081 28.5 44.081 28.5 54.697 24.697 54.697 30 60 35.303 54.697 31.509 54.697"/>
</g>
<g class="Name" fill-opacity="0.9" style="display: none;">

</g>
<desc>Width:60 Height:200 Depth:60 Elevation:0</desc>
</g><g class="FixedFurniture Closet" fill="#ffffff" stroke="#000000" style="fill-opacity: 1; stroke-opacity: 1;" transform="matrix(1,0,0,1,60,0)">
<g class="BoundaryPolygon">
<polygon points="0 0 60 0 60 60 0 60"/>
</g>
<g class="Direction" fill-opacity="0.9" style="display: none;">
<polygon fill="#444444" points="31.509 54.697 31.509 44.081 28.5 44.081 28.5 54.697 24.697 54.697 30 60 35.303 54.697 31.509 54.697"/>
</g>
<g class="Name" fill-opacity="0.9" style="display: none;">

</g>
<desc>Width:60 Height:200 Depth:60 Elevation:0</desc>
</g></g><g class="SelectionControls" fill="#0000ff" stroke="#0000ff" style="display: none;"><g class="rotateControl" style="display: none;"><circle cx="770.273975" cy="548.160925" r="5" style="stroke : none; fill-opacity: 0.5; cursor:crosshair"/></g><g class="ResizeNControl" style="display: none;"><circle cx="0" cy="0" r="5" style="stroke : none; fill-opacity: 0.5"/></g><g class="ResizeNEControl" style="display: none;"><circle cx="0" cy="0" r="5" style="stroke : none; fill-opacity: 0.5"/></g><g class="ResizeEControl" style="display: none;"><circle cx="0" cy="0" r="5" style="stroke : none; fill-opacity: 0.5"/></g><g class="ResizeSEControl" style="display: none;"><circle cx="0" cy="0" r="5" style="stroke : none; fill-opacity: 0.5"/></g><g class="ResizeSControl" style="display: none;"><circle cx="0" cy="0" r="5" style="stroke : none; fill-opacity: 0.5"/></g><g class="ResizeSWControl" style="display: none;"><circle cx="0" cy="0" r="5" style="stroke : none; fill-opacity: 0.5"/></g><g class="ResizeWControl" style="display: none;"><circle cx="0" cy="0" r="5" style="stroke : none; fill-opacity: 0.5"/></g><g class="ResizeNWControl" style="display: none;"><circle cx="0" cy="0" r="5" style="stroke : none; fill-opacity: 0.5"/></g><g class="removeControl" style="display: none;"><polygon points="743.98,578.16 796.57,578.16 796.57,618.32 743.98,618.32 " style="stroke : none; fill-opacity: 0.1"/></g><g class="copyPasteControl" style="display: none;"><polygon style="stroke : none; fill-opacity: 0.1"/></g><g class="translateControl" style="display: none;"><polygon points="743.98,578.16 796.57,578.16 796.57,618.32 743.98,618.32 " style="stroke : none; fill-opacity: 0.1; cursor:move"/></g></g><g class="SelectionControls" fill="#0000ff" stroke="#0000ff" style="display: none;"><polygon fill="none" points="621.50,490.73 1006.39,490.73 1006.39,728.62 621.50,728.62 " stroke="#0000ff" style=""/><g class="rotateControl" style="display: none;"><circle cx="813.9478460205078" cy="460.7265" r="5" style="stroke : none; fill-opacity: 0.5; cursor:crosshair"/></g><g class="ResizeNControl" style="display: none;"><circle cx="0" cy="0" r="5" style="stroke : none; fill-opacity: 0.5"/></g><g class="ResizeNEControl" style="display: none;"><circle cx="0" cy="0" r="5" style="stroke : none; fill-opacity: 0.5"/></g><g class="ResizeEControl" style="display: none;"><circle cx="0" cy="0" r="5" style="stroke : none; fill-opacity: 0.5"/></g><g class="ResizeSEControl" style="display: none;"><circle cx="0" cy="0" r="5" style="stroke : none; fill-opacity: 0.5"/></g><g class="ResizeSControl" style="display: none;"><circle cx="0" cy="0" r="5" style="stroke : none; fill-opacity: 0.5"/></g><g class="ResizeSWControl" style="display: none;"><circle cx="0" cy="0" r="5" style="stroke : none; fill-opacity: 0.5"/></g><g class="ResizeWControl" style="display: none;"><circle cx="0" cy="0" r="5" style="stroke : none; fill-opacity: 0.5"/></g><g class="ResizeNWControl" style="display: none;"><circle cx="0" cy="0" r="5" style="stroke : none; fill-opacity: 0.5"/></g><g class="removeControl" style="display: none;"><polygon style="stroke : none; fill-opacity: 0.1"/></g><g class="copyPasteControl" style="display: none;"><polygon style="stroke : none; fill-opacity: 0.1"/></g><g class="translateControl" style="display: none;"><polygon style="stroke : none; fill-opacity: 0.1; cursor:move"/></g></g></g></g><g class="FloorsCompose" style="display: none;"><g class="ComposeElement" transform="matrix(1,0,0,1,0,0)"><use xlink:href="#Floor-1"/><g class="TextLabel" id="FloorNumberLabel" transform="matrix(1,0,0,1,390.4206,786.7975)"/></g><g class="ComposeElement" transform="matrix(1,0,0,1,0,0)"><use xlink:href="#Floor-2"/><g class="TextLabel" id="FloorNumberLabel" transform="matrix(1,0,0,1,895.577,790.879)"/></g></g></g></svg>