<?xml version="1.0" encoding="utf-8"?>
<svg height="819.7499885559082" id="temp" version="1.1" viewBox="0 0 1174.749984741211 819.7499885559082" width="1174.749984741211" xmlns="http://www.w3.org/2000/svg" xmlns:xlink="http://www.w3.org/1999/xlink"><defs/><g class="Model v1-1" id="Model"><g class="Floor"><g class="Floorplan Floor-1" id="Floor-1"><g class="Space Kitchen" fill="#ffffff" id="d3f80cd2-3dcc-4714-ac02-657231e4e95b" stroke="#ffffff" style="fill-opacity: 1; stroke-opacity: 1; stroke-width: 1;"><polygon points="842.16,794.75 602.61,794.75 602.61,483.67 842.16,483.67 "/><g class="Dimension" transform="matrix(1,0,0,1,602.6105,483.6713)"><g class="Visual" style="display: none;" transform="matrix(1,0,0,1,0,0)"><g class="DimensionMark" fill="#000000" id="mark1" stroke="none" style="fill-opacity: 1; pointer-events: visible;" transform="matrix(1,0,0,1,119.773,0)"><polygon points="-5,5,0,0,5,5"/></g><g class="DimensionMark" fill="#000000" id="mark2" stroke="none" style="fill-opacity: 1; pointer-events: visible;" transform="matrix(1,0,0,1,239.5459,155.5382)"><polygon points="-5,-5,0,0,-5,5"/></g><g class="DimensionMark" fill="#000000" id="mark3" stroke="none" style="fill-opacity: 1; pointer-events: visible;" transform="matrix(1,0,0,1,119.773,311.0764)"><polygon points="-5,-5,0,0,5,-5"/></g><g class="DimensionMark" fill="#000000" id="mark4" stroke="none" style="fill-opacity: 1; pointer-events: visible;" transform="matrix(1,0,0,1,0,155.5382)"><polygon points="5,5,0,0,5,-5"/></g></g><g class="SpaceDimensionsLabel" transform="matrix(1,0,0,1,108.0801,159.7901)"><g class="TextLabel NameLabel" id="NameLabel" style="display: block;"/><g class="TextLabel DimensionMeasureLabel" id="DimensionMeasureLabel" style="display: none;" transform="matrix(1,0,0,1,-128.3047,79.9844)"/></g></g></g><g class="Space Dining" fill="#ffffff" id="bac13f25-1e86-450d-a1c5-7676cb55c111" stroke="#ffffff" style="fill-opacity: 1; stroke-opacity: 1; stroke-width: 1;"><polygon points="949.20,545.77 1086.88,545.77 1086.88,794.75 842.16,794.75 842.16,483.67 949.20,483.67 "/><g class="Dimension" transform="matrix(1,0,0,1,842.1564,483.6713)"><g class="Visual" style="display: none;" transform="matrix(1,0,0,1,0,0)"><g class="DimensionMark" fill="#000000" id="mark1" stroke="none" style="fill-opacity: 1; pointer-events: visible;" transform="matrix(1,0,0,1,107.0461,0)"><polygon points="-5,5,0,0,5,5"/></g><g class="DimensionMark" fill="#000000" id="mark2" stroke="none" style="fill-opacity: 1; pointer-events: visible;" transform="matrix(1,0,0,1,244.7216,155.5382)"><polygon points="-5,-5,0,0,-5,5"/></g><g class="DimensionMark" fill="#000000" id="mark3" stroke="none" style="fill-opacity: 1; pointer-events: visible;" transform="matrix(1,0,0,1,107.0461,311.0764)"><polygon points="-5,-5,0,0,5,-5"/></g><g class="DimensionMark" fill="#000000" id="mark4" stroke="none" style="fill-opacity: 1; pointer-events: visible;" transform="matrix(1,0,0,1,0,155.5382)"><polygon points="5,5,0,0,5,-5"/></g></g><g class="SpaceDimensionsLabel" transform="matrix(1,0,0,1,77.2374,196.775)"><g class="TextLabel NameLabel" id="NameLabel" style="display: block;"/><g class="TextLabel DimensionMeasureLabel" id="DimensionMeasureLabel" style="display: none;" transform="matrix(1,0,0,1,-91.8281,79.2187)"/></g></g></g><g class="Space Outdoor Balcony" fill="#ffffff" id="9d9a8849-a49c-45ee-ad72-b7f589d5dfe0" stroke="#000000" style="fill-opacity: 1; stroke-opacity: 1; stroke-width: 1;"><polygon points="979.20,515.77 1087.88,515.77 1087.88,459.80 1116.88,459.80 1116.88,474.67 1165.75,474.67 1165.75,72.05 1116.88,72.05 1116.88,92.05 979.20,92.05 979.20,515.77 979.20,515.77 "/><g class="Dimension" transform="matrix(1,0,0,1,979.2025,92.0478)"><g class="Visual" style="display: none;" transform="matrix(1,0,0,1,0,0)"><g class="DimensionMark" fill="#000000" id="mark1" stroke="none" style="fill-opacity: 1; pointer-events: visible;" transform="matrix(1,0,0,1,93.2735,0)"><polygon points="-5,5,0,0,5,5"/></g><g class="DimensionMark" fill="#000000" id="mark2" stroke="none" style="fill-opacity: 1; pointer-events: visible;" transform="matrix(1,0,0,1,186.547,201.8588)"><polygon points="-5,-5,0,0,-5,5"/></g><g class="DimensionMark" fill="#000000" id="mark3" stroke="none" style="fill-opacity: 1; pointer-events: visible;" transform="matrix(1,0,0,1,93.2735,423.7175)"><polygon points="-5,-5,0,0,5,-5"/></g><g class="DimensionMark" fill="#000000" id="mark4" stroke="none" style="fill-opacity: 1; pointer-events: visible;" transform="matrix(1,0,0,1,0,201.8588)"><polygon points="5,5,0,0,5,-5"/></g></g><g class="SpaceDimensionsLabel" transform="matrix(1,0,0,1,14.6487,203.6599)"><g class="TextLabel NameLabel" id="NameLabel" style="display: block;"/><g class="TextLabel DimensionMeasureLabel" id="DimensionMeasureLabel" style="display: none;" transform="matrix(1,0,0,1,-63.7266,79.9843)"/></g></g></g><g class="Space LivingRoom" fill="#ffffff" id="74b300d6-2eb0-4b23-bd4c-58487f657baa" stroke="#ffffff" style="fill-opacity: 1; stroke-opacity: 1; stroke-width: 1;"><polygon points="949.20,469.67 449.25,469.67 449.25,93.05 949.20,93.05 "/><g class="Dimension" transform="matrix(1,0,0,1,449.2503,93.0478)"><g class="Visual" style="display: none;" transform="matrix(1,0,0,1,0,0)"><g class="DimensionMark" fill="#000000" id="mark1" stroke="none" style="fill-opacity: 1; pointer-events: visible;" transform="matrix(1,0,0,1,249.9761,0)"><polygon points="-5,5,0,0,5,5"/></g><g class="DimensionMark" fill="#000000" id="mark2" stroke="none" style="fill-opacity: 1; pointer-events: visible;" transform="matrix(1,0,0,1,499.9522,188.3117)"><polygon points="-5,-5,0,0,-5,5"/></g><g class="DimensionMark" fill="#000000" id="mark3" stroke="none" style="fill-opacity: 1; pointer-events: visible;" transform="matrix(1,0,0,1,249.9761,376.6235)"><polygon points="-5,-5,0,0,5,-5"/></g><g class="DimensionMark" fill="#000000" id="mark4" stroke="none" style="fill-opacity: 1; pointer-events: visible;" transform="matrix(1,0,0,1,0,188.3117)"><polygon points="5,5,0,0,5,-5"/></g></g><g class="SpaceDimensionsLabel" transform="matrix(1,0,0,1,246.6065,187.1886)"><g class="TextLabel NameLabel" id="NameLabel" style="display: block;"/><g class="TextLabel DimensionMeasureLabel" id="DimensionMeasureLabel" style="display: none;" transform="matrix(1,0,0,1,-114.5859,80.0156)"/></g></g></g><g class="Space Entry Lobby" fill="#ffffff" id="2b4b7cc8-163c-4d78-8d8f-780c68151723" stroke="#ffffff" style="fill-opacity: 1; stroke-opacity: 1; stroke-width: 1;"><polygon points="582.92,483.67 588.61,483.67 588.61,630.60 85.14,630.60 85.14,483.67 449.25,483.67 449.25,469.67 582.92,469.67 "/><g class="Dimension" transform="matrix(1,0,0,1,85.1443,483.6713)"><g class="Visual" style="display: none;" transform="matrix(1,0,0,1,0,0)"><g class="DimensionMark" fill="#000000" id="mark1" stroke="none" style="fill-opacity: 1; pointer-events: visible;" transform="matrix(1,0,0,1,251.7331,0)"><polygon points="-5,5,0,0,5,5"/></g><g class="DimensionMark" fill="#000000" id="mark2" stroke="none" style="fill-opacity: 1; pointer-events: visible;" transform="matrix(1,0,0,1,503.4662,66.4634)"><polygon points="-5,-5,0,0,-5,5"/></g><g class="DimensionMark" fill="#000000" id="mark3" stroke="none" style="fill-opacity: 1; pointer-events: visible;" transform="matrix(1,0,0,1,251.7331,146.9267)"><polygon points="-5,-5,0,0,5,-5"/></g><g class="DimensionMark" fill="#000000" id="mark4" stroke="none" style="fill-opacity: 1; pointer-events: visible;" transform="matrix(1,0,0,1,0,66.4634)"><polygon points="5,5,0,0,5,-5"/></g></g><g class="SpaceDimensionsLabel" transform="matrix(1,0,0,1,110.9802,86.334)"><g class="TextLabel NameLabel" id="NameLabel" style="display: block;"/><g class="TextLabel DimensionMeasureLabel" id="DimensionMeasureLabel" style="display: none;" transform="matrix(1,0,0,1,-118.6094,79.2188)"/></g></g></g><g class="Space Bedroom" fill="#ffffff" id="fd77db88-0309-4726-ba28-b0414f613d7c" stroke="#ffffff" style="fill-opacity: 1; stroke-opacity: 1; stroke-width: 1;"><polygon points="435.25,469.67 85.14,469.67 85.14,93.05 435.25,93.05 "/><g class="Dimension" transform="matrix(1,0,0,1,85.1443,93.0478)"><g class="Visual" style="display: none;" transform="matrix(1,0,0,1,0,0)"><g class="DimensionMark" fill="#000000" id="mark1" stroke="none" style="fill-opacity: 1; pointer-events: visible;" transform="matrix(1,0,0,1,175.053,0)"><polygon points="-5,5,0,0,5,5"/></g><g class="DimensionMark" fill="#000000" id="mark2" stroke="none" style="fill-opacity: 1; pointer-events: visible;" transform="matrix(1,0,0,1,350.106,188.3117)"><polygon points="-5,-5,0,0,-5,5"/></g><g class="DimensionMark" fill="#000000" id="mark3" stroke="none" style="fill-opacity: 1; pointer-events: visible;" transform="matrix(1,0,0,1,175.053,376.6235)"><polygon points="-5,-5,0,0,5,-5"/></g><g class="DimensionMark" fill="#000000" id="mark4" stroke="none" style="fill-opacity: 1; pointer-events: visible;" transform="matrix(1,0,0,1,0,188.3117)"><polygon points="5,5,0,0,5,-5"/></g></g><g class="SpaceDimensionsLabel" transform="matrix(1,0,0,1,152.5888,189.435)"><g class="TextLabel NameLabel" id="NameLabel" style="display: block;"/><g class="TextLabel DimensionMeasureLabel" id="DimensionMeasureLabel" style="display: none;" transform="matrix(1,0,0,1,-113.6719,80.0156)"/></g></g></g><g class="Space Bath" fill="#ffffff" id="93b59d4c-fc21-4786-be35-39fd2d5cf92a" stroke="#ffffff" style="fill-opacity: 1; stroke-opacity: 1; stroke-width: 1;"><polygon points="588.61,794.75 364.85,794.75 364.85,644.60 588.61,644.60 "/><g class="Dimension" transform="matrix(1,0,0,1,364.8528,644.598)"><g class="Visual" style="display: none;" transform="matrix(1,0,0,1,0,0)"><g class="DimensionMark" fill="#000000" id="mark1" stroke="none" style="fill-opacity: 1; pointer-events: visible;" transform="matrix(1,0,0,1,111.8789,0)"><polygon points="-5,5,0,0,5,5"/></g><g class="DimensionMark" fill="#000000" id="mark2" stroke="none" style="fill-opacity: 1; pointer-events: visible;" transform="matrix(1,0,0,1,223.7577,75.0748)"><polygon points="-5,-5,0,0,-5,5"/></g><g class="DimensionMark" fill="#000000" id="mark3" stroke="none" style="fill-opacity: 1; pointer-events: visible;" transform="matrix(1,0,0,1,111.8789,150.1496)"><polygon points="-5,-5,0,0,5,-5"/></g><g class="DimensionMark" fill="#000000" id="mark4" stroke="none" style="fill-opacity: 1; pointer-events: visible;" transform="matrix(1,0,0,1,0,75.0748)"><polygon points="5,5,0,0,5,-5"/></g></g><g class="SpaceDimensionsLabel" transform="matrix(1,0,0,1,90.1076,66.8751)"><g class="TextLabel NameLabel" id="NameLabel" style="display: block;"/><g class="TextLabel DimensionMeasureLabel" id="DimensionMeasureLabel" style="display: none;" transform="matrix(1,0,0,1,-116.1485,79.2187)"/></g></g></g><g class="Space Closet WalkIn" fill="#ffffff" id="7835e72e-db0d-4701-8e28-f533275cc7f3" stroke="#ffffff" style="fill-opacity: 1; stroke-opacity: 1; stroke-width: 1;"><polygon points="350.85,794.75 206.33,794.75 206.33,644.60 350.85,644.60 "/><g class="Dimension" transform="matrix(1,0,0,1,206.3293,644.598)"><g class="Visual" style="display: none;" transform="matrix(1,0,0,1,0,0)"><g class="DimensionMark" fill="#000000" id="mark1" stroke="none" style="fill-opacity: 1; pointer-events: visible;" transform="matrix(1,0,0,1,72.2618,0)"><polygon points="-5,5,0,0,5,5"/></g><g class="DimensionMark" fill="#000000" id="mark2" stroke="none" style="fill-opacity: 1; pointer-events: visible;" transform="matrix(1,0,0,1,144.5235,75.0748)"><polygon points="-5,-5,0,0,-5,5"/></g><g class="DimensionMark" fill="#000000" id="mark3" stroke="none" style="fill-opacity: 1; pointer-events: visible;" transform="matrix(1,0,0,1,72.2618,150.1496)"><polygon points="-5,-5,0,0,5,-5"/></g><g class="DimensionMark" fill="#000000" id="mark4" stroke="none" style="fill-opacity: 1; pointer-events: visible;" transform="matrix(1,0,0,1,0,75.0748)"><polygon points="5,5,0,0,5,-5"/></g></g><g class="SpaceDimensionsLabel" transform="matrix(1,0,0,1,50.3958,59.9622)"><g class="TextLabel NameLabel" id="NameLabel" style="display: block;"/><g class="TextLabel DimensionMeasureLabel" id="DimensionMeasureLabel" style="display: none;" transform="matrix(1,0,0,1,-116.2969,79.2188)"/></g></g></g><g class="Wall External" fill="#000000" id="Wall" stroke="#000000" style="fill-opacity: 1; stroke-opacity: 1; stroke-width: 1;"><polygon points="85.14,93.05 949.20,93.05 979.20,63.05 69.14,63.05 "/><g class="Window Regular" fill="#f0f0ff" id="Window" stroke="#000000" style="fill-opacity: 1; stroke-width: 1; stroke-opacity: 1;"><polygon points="120.83,93.05 340.81,93.05 340.81,63.05 120.83,63.05 "/><g class="Glass" id="Glass"><polygon points="120.83,93.05 340.81,93.05 340.81,63.05 120.83,63.05 "/></g><g class="Panel" id="Panel"><line x1="128.33160231949427" x2="333.31384363934376" y1="78.04777800069678" y2="78.04777800069672"/><line x1="128.33160231949427" x2="128.33160231949427" y1="93.04777800069678" y2="63.04777800069678"/><line x1="333.31384363934376" x2="333.31384363934376" y1="93.04777800069672" y2="63.047778000696724"/></g></g><g class="Window Regular" fill="#f0f0ff" id="Window" stroke="#000000" style="fill-opacity: 1; stroke-width: 1; stroke-opacity: 1;"><polygon points="451.17,93.05 533.57,93.05 533.57,63.05 451.17,63.05 "/><g class="Glass" id="Glass"><polygon points="451.17,93.05 533.57,93.05 533.57,63.05 451.17,63.05 "/></g><g class="Panel" id="Panel"><line x1="458.67296924098616" x2="526.0743817903776" y1="78.04777800069671" y2="78.0477780006967"/><line x1="458.67296924098616" x2="458.67296924098616" y1="93.04777800069671" y2="63.04777800069671"/><line x1="526.0743817903776" x2="526.0743817903776" y1="93.0477780006967" y2="63.047778000696695"/></g></g></g><g class="Wall External" fill="#000000" id="Wall" stroke="#000000" style="fill-opacity: 1; stroke-opacity: 1; stroke-width: 1;"><polygon points="979.20,63.05 979.20,515.77 949.20,545.77 949.20,93.05 "/><g class="Window Regular" fill="#f0f0ff" id="Window" stroke="#000000" style="fill-opacity: 1; stroke-width: 1; stroke-opacity: 1;"><polygon points="979.20,107.12 979.20,360.52 949.20,360.52 949.20,107.12 "/><g class="Glass" id="Glass"><polygon points="979.20,107.12 979.20,360.52 949.20,360.52 949.20,107.12 "/></g><g class="Panel" id="Panel"><line x1="964.2024904302851" x2="964.2024904302851" y1="114.61698806077227" y2="353.02299380555587"/><line x1="979.2024904302851" x2="949.2024904302851" y1="114.61698806077227" y2="114.61698806077227"/><line x1="979.2024904302851" x2="949.2024904302851" y1="353.02299380555587" y2="353.02299380555587"/></g></g><g class="Door Swing Opposite" fill="#ffffff" id="Door" stroke="#000000" style="fill-opacity: 1; stroke-width: 1; stroke-opacity: 1;"><polygon points="979.20,369.19 979.20,456.66 949.20,456.66 949.20,369.19 "/><g class="Panel Left Negative" fill="none" id="Panel" style=""><g class="PanelArea" fill="none" id="PanelArea" stroke="none" style=""><polygon points="979.20,369.19 979.20,456.66 949.20,456.66 949.20,369.19 "/></g><path d="M979.20,369.19 q87.47,0.00 87.47,87.47 l-87.47,0.00Z"/></g><g class="Panel Right Positive" fill="none" id="Panel" style=""><g class="PanelArea" fill="none" id="PanelArea" stroke="none" style=""><polygon points="979.20,369.19 979.20,456.66 949.20,456.66 949.20,369.19 "/></g><path d="M949.20,369.19 q-87.47,0.00 -87.47,87.47 l87.47,0.00Z"/></g></g></g><g class="Wall External" fill="#000000" id="Wall" stroke="#000000" style="fill-opacity: 1; stroke-opacity: 1; stroke-width: 1;"><polygon points="949.20,545.77 1086.88,545.77 1116.88,515.77 979.20,515.77 "/></g><g class="Wall External" fill="#000000" id="Wall" stroke="#000000" style="fill-opacity: 1; stroke-opacity: 1; stroke-width: 1;"><polygon points="1116.88,515.77 1116.88,819.75 1086.88,794.75 1086.88,545.77 "/><g class="Window Regular" fill="#f0f0ff" id="Window" stroke="#000000" style="fill-opacity: 1; stroke-width: 1; stroke-opacity: 1;"><polygon points="1116.88,557.78 1116.88,778.00 1086.88,778.00 1086.88,557.78 "/><g class="Glass" id="Glass"><polygon points="1116.88,557.78 1116.88,778.00 1086.88,778.00 1086.88,557.78 "/></g><g class="Panel" id="Panel"><line x1="1101.8780085267065" x2="1101.8780085267065" y1="565.2803431275253" y2="770.5036697529943"/><line x1="1116.8780085267065" x2="1086.8780085267065" y1="565.2803431275253" y2="565.2803431275253"/><line x1="1116.8780085267065" x2="1086.8780085267065" y1="770.5036697529943" y2="770.5036697529943"/></g></g></g><g class="Wall External" fill="#000000" id="Wall" stroke="#000000" style="fill-opacity: 1; stroke-opacity: 1; stroke-width: 1;"><polygon points="1116.88,819.75 190.33,819.75 206.33,794.75 1086.88,794.75 "/></g><g class="Wall External" fill="#000000" id="Wall" stroke="#000000" style="fill-opacity: 1; stroke-opacity: 1; stroke-width: 1;"><polygon points="206.33,794.75 206.33,630.60 190.33,646.60 190.33,819.75 "/></g><g class="Wall External" fill="#000000" id="Wall" stroke="#000000" style="fill-opacity: 1; stroke-opacity: 1; stroke-width: 1;"><polygon points="206.33,630.60 85.14,630.60 69.14,646.60 190.33,646.60 "/><g class="Door Swing Opposite" fill="#ffffff" id="Door" stroke="#000000" style="fill-opacity: 1; stroke-width: 1; stroke-opacity: 1;"><polygon points="179.97,630.60 94.87,630.60 94.87,646.60 179.97,646.60 "/><g class="Panel Left Negative" fill="none" id="Panel" style=""><g class="PanelArea" fill="none" id="PanelArea" stroke="none" style=""><polygon points="179.97,630.60 94.87,630.60 94.87,646.60 179.97,646.60 "/></g><path d="M179.97,630.60 q0.00,-85.11 -85.11,-85.11 l0.00,85.11Z"/></g><g class="Panel Left Positive" fill="none" id="Panel" style=""><g class="PanelArea" fill="none" id="PanelArea" stroke="none" style=""><polygon points="179.97,630.60 94.87,630.60 94.87,646.60 179.97,646.60 "/></g><path d="M94.87,646.60 q0.00,85.11 85.11,85.11 l0.00,-85.11Z"/></g></g></g><g class="Wall External" fill="#000000" id="Wall" stroke="#000000" style="fill-opacity: 1; stroke-opacity: 1; stroke-width: 1;"><polygon points="85.14,630.60 85.14,93.05 69.14,63.05 69.14,646.60 "/></g><g class="Wall" fill="#000000" id="Wall" stroke="#000000" style="fill-opacity: 1; stroke-opacity: 1; stroke-width: 1;"><polygon points="1116.88,515.77 1116.88,459.80 1087.88,459.80 1087.88,515.77 "/></g><g class="Wall" fill="#000000" id="Wall" stroke="#000000" style="fill-opacity: 1; stroke-opacity: 1; stroke-width: 1;"><polygon points="979.20,63.05 1116.88,63.05 1116.88,92.05 979.20,92.05 "/></g><g class="Wall" fill="#000000" id="Wall" stroke="#000000" style="fill-opacity: 1; stroke-opacity: 1; stroke-width: 1;"><polygon points="206.33,630.60 588.61,630.60 602.61,644.60 206.33,644.60 "/><g class="Door Swing Beside" fill="#ffffff" id="Door" stroke="#000000" style="fill-opacity: 1; stroke-width: 1; stroke-opacity: 1;"><polygon points="251.24,630.60 315.32,630.60 315.32,644.60 251.24,644.60 "/><g class="Panel Left Negative" fill="none" id="Panel" style=""><g class="PanelArea" fill="none" id="PanelArea" stroke="none" style=""><polygon points="251.24,630.60 315.32,630.60 315.32,644.60 251.24,644.60 "/></g><path d="M251.24,630.60 q0.00,-64.09 64.09,-64.09 l0.00,64.09Z"/></g></g><g class="Door Swing Beside" fill="#ffffff" id="Door" stroke="#000000" style="fill-opacity: 1; stroke-width: 1; stroke-opacity: 1;"><polygon points="439.91,630.60 503.99,630.60 503.99,644.60 439.91,644.60 "/><g class="Panel Left Negative" fill="none" id="Panel" style=""><g class="PanelArea" fill="none" id="PanelArea" stroke="none" style=""><polygon points="439.91,630.60 503.99,630.60 503.99,644.60 439.91,644.60 "/></g><path d="M439.91,630.60 q0.00,-64.09 64.09,-64.09 l0.00,64.09Z"/></g></g></g><g class="Wall" fill="#000000" id="Wall" stroke="#000000" style="fill-opacity: 1; stroke-opacity: 1; stroke-width: 1;"><polygon points="602.61,630.60 602.61,819.75 588.61,819.75 588.61,644.60 "/></g><g class="Wall" fill="#000000" id="Wall" stroke="#000000" style="fill-opacity: 1; stroke-opacity: 1; stroke-width: 1;"><polygon points="364.85,630.60 364.85,819.75 350.85,819.75 350.85,630.60 "/></g><g class="Wall" fill="#000000" id="Wall" stroke="#000000" style="fill-opacity: 1; stroke-opacity: 1; stroke-width: 1;"><polygon points="602.61,644.60 602.61,469.67 588.61,483.67 588.61,630.60 "/><g class="Door Swing Beside" fill="#ffffff" id="Door" stroke="#000000" style="fill-opacity: 1; stroke-width: 1; stroke-opacity: 1;"><polygon points="602.61,623.23 602.61,545.55 588.61,545.55 588.61,623.23 "/><g class="Panel Left Positive" fill="none" id="Panel" style=""><g class="PanelArea" fill="none" id="PanelArea" stroke="none" style=""><polygon points="602.61,623.23 602.61,545.55 588.61,545.55 588.61,623.23 "/></g><path d="M588.61,545.55 q-77.68,0.00 -77.68,77.68 l77.68,0.00Z"/></g></g></g><g class="Wall" fill="#000000" id="Wall" stroke="#000000" style="fill-opacity: 1; stroke-opacity: 1; stroke-width: 1;"><polygon points="602.61,483.67 979.20,483.67 979.20,469.67 602.61,469.67 "/><g class="Door Swing Beside" fill="#ffffff" id="Door" stroke="#000000" style="fill-opacity: 1; stroke-width: 1; stroke-opacity: 1;"><polygon points="852.92,483.67 944.43,483.67 944.43,469.67 852.92,469.67 "/><g class="Panel Right Negative" fill="none" id="Panel" style=""><g class="PanelArea" fill="none" id="PanelArea" stroke="none" style=""><polygon points="852.92,483.67 944.43,483.67 944.43,469.67 852.92,469.67 "/></g><path d="M944.43,483.67 q0.00,91.51 -91.51,91.51 l0.00,-91.51Z"/></g></g></g><g class="Wall" fill="#000000" id="Wall" stroke="#000000" style="fill-opacity: 1; stroke-opacity: 1; stroke-width: 1;"><polygon points="602.61,469.67 582.92,469.67 582.92,483.67 588.61,483.67 "/></g><g class="Wall" fill="#000000" id="Wall" stroke="#000000" style="fill-opacity: 1; stroke-opacity: 1; stroke-width: 1;"><polygon points="449.25,483.67 69.14,483.67 69.14,469.67 435.25,469.67 "/><g class="Door Swing Beside" fill="#ffffff" id="Door" stroke="#000000" style="fill-opacity: 1; stroke-width: 1; stroke-opacity: 1;"><polygon points="372.74,483.67 286.61,483.67 286.61,469.67 372.74,469.67 "/><g class="Panel Left Negative" fill="none" id="Panel" style=""><g class="PanelArea" fill="none" id="PanelArea" stroke="none" style=""><polygon points="372.74,483.67 286.61,483.67 286.61,469.67 372.74,469.67 "/></g><path d="M372.74,483.67 q0.00,86.13 -86.13,86.13 l0.00,-86.13Z"/></g></g></g><g class="Wall" fill="#000000" id="Wall" stroke="#000000" style="fill-opacity: 1; stroke-opacity: 1; stroke-width: 1;"><polygon points="449.25,483.67 449.25,63.05 435.25,63.05 435.25,469.67 "/></g><g class="Railing" fill="#ffffff" id="Railing" stroke="#000000" style="fill-opacity: 1; stroke-opacity: 1; stroke-width: 1;"><polygon points="1116.88,483.67 1174.75,483.67 1165.75,474.67 1116.88,474.67 " style="stroke-dasharray: 57.8715, 12.7279, 57.8715;"/></g><g class="Railing" fill="#ffffff" id="Railing" stroke="#000000" style="fill-opacity: 1; stroke-opacity: 1; stroke-width: 1;"><polygon points="1174.75,483.67 1174.75,63.05 1165.75,72.05 1165.75,474.67 " style="stroke-dasharray: 420.623, 12.7279, 402.623, 12.7279;"/></g><g class="Railing" fill="#ffffff" id="Railing" stroke="#000000" style="fill-opacity: 1; stroke-opacity: 1; stroke-width: 1;"><polygon points="1174.75,63.05 1116.88,63.05 1116.88,72.05 1165.75,72.05 " style="stroke-dasharray: 115.743, 12.7279;"/></g><g class="FixedFurniture Closet" fill="#ffffff" stroke="#000000" style="fill-opacity: 1; stroke-opacity: 1;" transform="matrix(1,0,0,1,92.3984,483.765)">
<g class="BoundaryPolygon">
<polygon points="0.00,0.00 121.30,0.00 121.30,27.62 0.00,27.62 "/>
</g>
<g class="Direction" fill-opacity="0.9" style="display: none;">
<polygon fill="#444444" points="62.17,25.09 62.17,14.48 59.17,14.48 59.17,25.09 55.36,25.09 60.67,30.39 65.97,25.09 62.17,25.09 "/>
</g>
<g class="Name" fill-opacity="0.9" style="display: none;">

</g>
<desc>Width:120 Height:200 Depth:60 Elevation:0</desc>
</g><g class="FixedFurniture Closet" fill="#ffffff" stroke="#000000" style="fill-opacity: 1; stroke-opacity: 1;" transform="matrix(1,0,0,1,206.3293,644.598)"><desc>Width:120 Height:200 Depth:60 Elevation:0</desc><g class="BoundaryPolygon"><polygon points="0.00,0.00 0.00,150.15 144.52,150.15 144.52,0.00 112.18,0.00 112.18,94.85 40.83,94.85 40.83,0.00 -0.00,0.00 "/></g></g><g class="FixedFurniture Bathtub" fill="#ffffff" stroke="#000000" style="fill-opacity: 1; stroke-opacity: 1;" transform="matrix(0,-0.8592,0.8525,0,365.0126,794.7476)">
<g class="BoundaryPolygon">
<polygon points="0,0 175,0 175,82 0,82"/>
</g>
<g class="Tub">
<path d="M166.6,41.2c0,19.7,0,35.7-79.3,35.7S8,60.9,8,41.2,8,5.5,87.3,5.5,166.6,21.5,166.6,41.2Z"/>
</g>
<g class="Name" fill-opacity="0.9" style="display: none;">

</g>
<desc>Width:175 Height:38 Depth:82 Elevation:0</desc>
</g><g class="FixedFurniture Shower" fill="#ffffff" stroke="#000000" style="fill-opacity: 1; stroke-opacity: 1;" transform="matrix(-1,0,0,-1,414.3277,794.7476)">
<g class="BoundaryPolygon" fill="none" stroke="none">
<polygon points="0,0 32,0 32,19 0,19"/>
</g>
<g class="InnerPolygon">
<rect height="6.1" width="11.2" x="3.7" y="0.5"/>
<rect height="6.1" width="11.2" x="17.6" y="0.5"/>
<rect height="6.1" width="3.4" x="28.7" y="0.5"/>
<rect height="6.1" width="3.2" x="0.5" y="0.5"/>
<path d="M14.9,8.5c0,1.5-0.4,3.3-1.6,5    c-0.4,0.6-1,1.1-1.1,1.7c-0.2,1.1,0.3,2.8,2.5,3.2c0.5,0.1,1.3,0.1,1.6,0.1h-0.1c0.3,0,1.1,0,1.6-0.1c2.2-0.4,2.7-2.1,2.5-3.2    c-0.1-0.6-0.7-1.1-1.1-1.7c-1.2-1.7-1.6-3.5-1.6-5"/>
<path d="M12.2,15.3c0.1,0.2,1.6,1.9,4.2,1.9 c2.4-0.1,3.7-1.7,3.9-1.9"/>
<path d="M14.9,0.5h2.7v8c-0.9,0-1.8,0-2.7,0l0,0 C14.9,5.9,14.9,3.2,14.9,0.5z"/>
</g>
<g class="Indicator">
<path d="M3.7,3.6C5,3.1,5.2,3,5.2,3 c0,1.1,0,0,0,1.1C5.2,4.1,5.1,4.1,3.7,3.6"/>
<path d="M28.7,3.6 C27.4,3.1,27.2,3,27.2,3c0,1.1,0,0,0,1.1C27.2,4.1,27.3,4.1,28.7,3.6"/>
</g>
<desc>Width:32 Height:97 Depth:19 Elevation:135</desc>
</g><g class="FixedFurnitureSet" fill="#ffffff" id="FixedFurnitureSet" stroke="#000000" style="fill-opacity: 0.4; stroke-opacity: 0.4;" transform="matrix(-1,0,0,-1,493.6709,794.6383)"><g class="FixedFurniture BaseCabinet" fill="#ffffff" stroke="#000000" style="fill-opacity: 1; stroke-opacity: 1;" transform="matrix(1,0,0,1,0,0)">
<g class="BoundaryPolygon">
<polygon points="0.00,0.00 58.75,0.00 58.75,39.99 0.00,39.99 "/>
</g>
<g class="Direction" fill-opacity="0.9" style="display: none;">
<polygon fill="#444444" points="31.34,36.79 31.34,26.17 28.33,26.17 28.33,36.79 24.53,36.79 29.83,41.59 35.13,36.79 31.34,36.79 "/>
</g>
<g class="Name" fill-opacity="0.9" style="display: none;">

</g>
<desc>Width:60 Height:5 Depth:60 Elevation:105</desc>
</g><g class="FixedFurniture Sink" fill="#ffffff" stroke="#000000" style="fill-opacity: 1; stroke-opacity: 1;" transform="matrix(1,0,0,1,0,0)">
<g class="BoundaryPolygon" fill="none" stroke="none">
<polygon points="0.00,0.00 58.75,0.00 58.75,39.99 0.00,39.99 "/>
</g>
<g class="InnerPolygon">
<polygon points="4.90,9.70 53.85,9.70 53.85,36.46 4.90,36.46 "/>
</g>
<g class="OuterDrain" stroke-width="0.8">
<circle cx="29.373619597342607" cy="21.462534057321733" r="3.5"/>
</g>
<g class="InnerDrain" stroke-width="0.8">
<circle cx="29.373619597342607" cy="21.462534057321733" r="2"/>
</g>
<g class="Faucet">
<polygon points="26.44,3.33 32.44,3.33 32.44,17.33 26.44,17.33 "/>
</g>
<g class="Direction" fill-opacity="0.9" style="display: none;">
<polygon fill="#444444" points="31.34,36.79 31.34,26.17 28.33,26.17 28.33,36.79 24.53,36.79 29.83,41.59 35.13,36.79 31.34,36.79 "/>
</g>
<g class="Name" fill-opacity="0.9" style="display: none;">

</g>
<desc>Width:60 Height:90 Depth:60 Elevation:0</desc>
</g></g><g class="FixedFurniture ElectricalAppliance SpaceForAppliance2" fill="#ffffff" stroke="#000000" style="fill-opacity: 1; stroke-opacity: 1;" transform="matrix(0,0.8051,-0.8121,0,580.096,741.3037)">
<g class="BoundaryPolygon">
<polygon points="0,0 60,0 60,60 0,60"/>
</g>
<g class="electricitySign" fill="none">
<path d="M0,0,30.1,39.8V19.4L59.9,60"/>
</g>
<g class="Direction" fill-opacity="0.9" style="display: none;">
<polygon fill="#444444" points="32.009 55.197 32.009 44.581 29 44.581 29 55.197 25.197 55.197 30.5 60 35.803 55.197 32.009 55.197"/>
</g>
<g class="Name" fill-opacity="0.9" style="display: none;">

</g>
<desc>Width:60 Height:90 Depth:60 Elevation:0</desc>
</g><g class="FixedFurniture Toilet" fill="#ffffff" stroke="#000000" style="fill-opacity: 1; stroke-opacity: 1;" transform="matrix(0,1,-1,0,588.6105,656.9305)">
<g class="BoundaryPolygon" fill="none" stroke="none">
<polygon points="0,0 41,0 41,71 0,71"/>
</g>
<g class="InnerPolygon">
<rect height="17.98" width="39.989" x="0.502" y="0.5"/>
<path d="M40.491,44.237S41.619,70.5,20.907,70.5C-.523,70.5.6,44.237.6,44.237L.5,18.48H40.491Z"/>
<rect height="3.03" width="6.357" x="17.318" y="7.975"/>
</g>
<desc>Width:41 Height:85 Depth:71 Elevation:0</desc>
</g><g class="FixedFurniture Closet" fill="#ffffff" stroke="#000000" style="fill-opacity: 1; stroke-opacity: 1;" transform="matrix(1,0,0,1,602.6105,483.6712)">
<g class="BoundaryPolygon">
<polygon points="0.00,0.00 55.56,0.00 55.56,55.11 0.00,55.11 "/>
</g>
<g class="Direction" fill-opacity="0.9" style="display: none;">
<polygon fill="#444444" points="29.18,50.24 29.18,39.62 26.17,39.62 26.17,50.24 22.37,50.24 27.67,55.54 32.97,50.24 29.18,50.24 "/>
</g>
<g class="Name" fill-opacity="0.9" style="display: none;">

</g>
<desc>Width:60 Height:200 Depth:60 Elevation:0</desc>
</g><g class="FixedFurniture Closet" fill="#ffffff" stroke="#000000" style="fill-opacity: 1; stroke-opacity: 1;" transform="matrix(1,0,0,1,658.1751,483.6713)">
<g class="BoundaryPolygon">
<polygon points="0.00,0.00 63.99,0.00 63.99,55.11 0.00,55.11 "/>
</g>
<g class="Direction" fill-opacity="0.9" style="display: none;">
<polygon fill="#444444" points="33.61,50.24 33.61,39.62 30.60,39.62 30.60,50.24 26.80,50.24 32.10,55.54 37.40,50.24 33.61,50.24 "/>
</g>
<g class="Name" fill-opacity="0.9" style="display: none;">

</g>
<desc>Width:60 Height:200 Depth:60 Elevation:0</desc>
</g><g class="FixedFurniture Closet" fill="#ffffff" stroke="#000000" style="fill-opacity: 1; stroke-opacity: 1;" transform="matrix(1,0,0,1,722.1624,483.6712)">
<g class="BoundaryPolygon">
<polygon points="0.00,0.00 58.22,0.00 58.22,55.11 0.00,55.11 "/>
</g>
<g class="Direction" fill-opacity="0.9" style="display: none;">
<polygon fill="#444444" points="30.58,50.24 30.58,39.62 27.57,39.62 27.57,50.24 23.77,50.24 29.07,55.54 34.37,50.24 30.58,50.24 "/>
</g>
<g class="Name" fill-opacity="0.9" style="display: none;">

</g>
<desc>Width:60 Height:200 Depth:60 Elevation:0</desc>
</g><g class="FixedFurniture Closet" fill="#ffffff" stroke="#000000" style="fill-opacity: 1; stroke-opacity: 1;" transform="matrix(1,0,0,1,780.3864,483.6712)">
<g class="BoundaryPolygon">
<polygon points="0.00,0.00 61.77,0.00 61.77,55.11 0.00,55.11 "/>
</g>
<g class="Direction" fill-opacity="0.9" style="display: none;">
<polygon fill="#444444" points="32.44,50.24 32.44,39.62 29.43,39.62 29.43,50.24 25.63,50.24 30.93,55.54 36.23,50.24 32.44,50.24 "/>
</g>
<g class="Name" fill-opacity="0.9" style="display: none;">

</g>
<desc>Width:60 Height:200 Depth:60 Elevation:0</desc>
</g><g class="FixedFurnitureSet" fill="#ffffff" id="FixedFurnitureSet" stroke="#000000" style="fill-opacity: 0.4; stroke-opacity: 0.4;" transform="matrix(0,1,-1,0,435.141,282.4075)"><g class="FixedFurniture Closet" fill="#ffffff" stroke="#000000" style="fill-opacity: 1; stroke-opacity: 1;" transform="matrix(1,0,0,1,0,0)">
<g class="BoundaryPolygon">
<polygon points="0.00,0.00 62.42,0.00 62.42,60.00 0.00,60.00 "/>
</g>
<g class="Direction" fill-opacity="0.9" style="display: none;">
<polygon fill="#444444" points="32.78,54.70 32.78,44.08 29.77,44.08 29.77,54.70 25.97,54.70 31.27,60.00 36.57,54.70 32.78,54.70 "/>
</g>
<g class="Name" fill-opacity="0.9" style="display: none;">

</g>
<desc>Width:60 Height:200 Depth:60 Elevation:0</desc>
</g><g class="FixedFurniture Closet" fill="#ffffff" stroke="#000000" style="fill-opacity: 1; stroke-opacity: 1;" transform="matrix(1,0,0,1,62.4219,0)">
<g class="BoundaryPolygon">
<polygon points="0.00,0.00 62.42,0.00 62.42,60.00 0.00,60.00 "/>
</g>
<g class="Direction" fill-opacity="0.9" style="display: none;">
<polygon fill="#444444" points="32.78,54.70 32.78,44.08 29.77,44.08 29.77,54.70 25.97,54.70 31.27,60.00 36.57,54.70 32.78,54.70 "/>
</g>
<g class="Name" fill-opacity="0.9" style="display: none;">

</g>
<desc>Width:60 Height:200 Depth:60 Elevation:0</desc>
</g><g class="FixedFurniture Closet" fill="#ffffff" stroke="#000000" style="fill-opacity: 1; stroke-opacity: 1;" transform="matrix(1,0,0,1,124.8438,0)">
<g class="BoundaryPolygon">
<polygon points="0.00,0.00 62.42,0.00 62.42,60.00 0.00,60.00 "/>
</g>
<g class="Direction" fill-opacity="0.9" style="display: none;">
<polygon fill="#444444" points="32.78,54.70 32.78,44.08 29.77,44.08 29.77,54.70 25.97,54.70 31.27,60.00 36.57,54.70 32.78,54.70 "/>
</g>
<g class="Name" fill-opacity="0.9" style="display: none;">

</g>
<desc>Width:60 Height:200 Depth:60 Elevation:0</desc>
</g></g><g class="Column Rectangle" fill="#000000" id="Column" stroke="none" style="fill-opacity: 1;"><polygon points="602.34,794.98 668.67,794.98 668.67,763.82 602.34,763.82 "/></g><g class="FixedFurniture BaseCabinet" fill="#ffffff" stroke="#000000" style="fill-opacity: 1; stroke-opacity: 1;" transform="matrix(1,0,0,1,602.34,794.98)"><desc>Width:60 Height:90 Depth:60 Elevation:0</desc><g class="BoundaryPolygon"><polygon points="0.00,0.00 0.00,-167.70 56.25,-167.70 56.25,-62.27 175.54,-62.27 175.54,-167.65 239.40,-167.65 239.40,-0.54 0.00,0.00 "/></g></g><g class="FixedFurniture ElectricalAppliance IntegratedStove" fill="#ffffff" stroke="#000000" style="fill-opacity: 1; stroke-opacity: 1;" transform="matrix(0,-1,1,0,602.5062,734.3883)">
<g class="BoundaryPolygon" fill="none" stroke="none">
<polygon points="0.00,0.00 61.38,0.00 61.38,56.11 0.00,56.11 "/>
</g>
<g class="InnerPolygon">
<polygon points="2.00,2.00 59.34,2.00 59.34,54.24 2.00,54.24 "/>
</g>
<g class="OuterCircle">
<circle cx="16.368490864848532" cy="14.962048507366832" r="8"/>
<circle cx="45.01334987833346" cy="14.962048507366832" r="8"/>
<circle cx="16.368490864848532" cy="41.1456333952588" r="8"/>
<circle cx="45.01334987833346" cy="41.1456333952588" r="8"/>
</g>
<g class="Direction" fill-opacity="0.9" style="display: none;">
<polygon fill="#444444" points="32.75,51.62 32.75,41.00 29.74,41.00 29.74,51.62 25.93,51.62 31.24,56.42 36.54,51.62 32.75,51.62 "/>
</g>
<g class="Name" fill-opacity="0.9" style="display: none;">

</g>
<desc>Width:60 Height:90 Depth:30 Elevation:0</desc>
</g><g class="FixedFurniture DoubleSink" fill="#ffffff" stroke="#000000" style="fill-opacity: 1; stroke-opacity: 1;" transform="matrix(-1,0,0,-1,785.1583,795.789)">
<g class="BoundaryPolygon" fill="none" stroke="none">
<polygon points="0.00,0.00 66.64,0.00 66.64,52.21 0.00,52.21 "/>
</g>
<g class="InnerPolygonLeft">
<polygon points="4.76,9.90 31.89,9.90 31.89,47.77 4.76,47.77 "/>
</g>
<g class="InnerPolygonRight">
<polygon points="34.75,10.00 61.88,10.00 61.88,47.86 34.75,47.86 "/>
</g>
<g class="OuterDrain" stroke-width="0.8">
<circle cx="18.755322671457172" cy="28.27836532503906" r="3.5"/>
<circle cx="47.79275117295178" cy="28.27836532503906" r="3.5"/>
</g>
<g class="InnerDrain" stroke-width="0.8">
<circle cx="18.755322671457172" cy="28.27836532503906" r="2"/>
<circle cx="47.79275117295178" cy="28.27836532503906" r="2"/>
</g>
<g class="Faucet">
<polygon points="30.47,4.26 36.47,4.26 36.47,18.26 30.47,18.26 "/>
</g>
<g class="Direction" fill-opacity="0.9" style="display: none;">
<polygon fill="#444444" points="34.76,47.59 34.76,36.98 31.75,36.98 31.75,47.59 27.95,47.59 33.25,52.90 38.55,47.59 34.76,47.59 "/>
</g>
<g class="Name" fill-opacity="0.9" style="display: none;">

</g>
<desc>Width:70 Height:90 Depth:60 Elevation:0</desc>
</g><g class="SelectionControls" fill="#0000ff" stroke="#0000ff" style="display: none;"><g class="rotateControl" style="display: none;"><circle cx="478.7806656951977" cy="648.6762099603335" r="5" style="stroke : none; fill-opacity: 0.5; cursor:crosshair"/></g><g class="ResizeNControl" style="display: none;"><circle cx="0" cy="0" r="5" style="stroke : none; fill-opacity: 0.5"/></g><g class="ResizeNEControl" style="display: none;"><circle cx="0" cy="0" r="5" style="stroke : none; fill-opacity: 0.5"/></g><g class="ResizeEControl" style="display: none;"><circle cx="0" cy="0" r="5" style="stroke : none; fill-opacity: 0.5"/></g><g class="ResizeSEControl" style="display: none;"><circle cx="0" cy="0" r="5" style="stroke : none; fill-opacity: 0.5"/></g><g class="ResizeSControl" style="display: none;"><circle cx="0" cy="0" r="5" style="stroke : none; fill-opacity: 0.5"/></g><g class="ResizeSWControl" style="display: none;"><circle cx="0" cy="0" r="5" style="stroke : none; fill-opacity: 0.5"/></g><g class="ResizeWControl" style="display: none;"><circle cx="0" cy="0" r="5" style="stroke : none; fill-opacity: 0.5"/></g><g class="ResizeNWControl" style="display: none;"><circle cx="0" cy="0" r="5" style="stroke : none; fill-opacity: 0.5"/></g><g class="removeControl" style="display: none;"><polygon points="454.96,678.68 502.60,678.68 502.60,718.30 454.96,718.30 " style="stroke : none; fill-opacity: 0.1"/></g><g class="copyPasteControl" style="display: none;"><polygon style="stroke : none; fill-opacity: 0.1"/></g><g class="translateControl" style="display: none;"><polygon points="454.96,678.68 502.60,678.68 502.60,718.30 454.96,718.30 " style="stroke : none; fill-opacity: 0.1; cursor:move"/></g></g><g class="SelectionControls" fill="#0000ff" stroke="#0000ff" style="display: none;"><polygon fill="none" points="364.85,644.60 588.61,644.60 588.61,794.75 364.85,794.75 " stroke="#0000ff" style=""/><g class="rotateControl" style="display: none;"><circle cx="476.731606039436" cy="614.5979849603335" r="5" style="stroke : none; fill-opacity: 0.5; cursor:crosshair"/></g><g class="ResizeNControl" style="display: none;"><circle cx="0" cy="0" r="5" style="stroke : none; fill-opacity: 0.5"/></g><g class="ResizeNEControl" style="display: none;"><circle cx="0" cy="0" r="5" style="stroke : none; fill-opacity: 0.5"/></g><g class="ResizeEControl" style="display: none;"><circle cx="0" cy="0" r="5" style="stroke : none; fill-opacity: 0.5"/></g><g class="ResizeSEControl" style="display: none;"><circle cx="0" cy="0" r="5" style="stroke : none; fill-opacity: 0.5"/></g><g class="ResizeSControl" style="display: none;"><circle cx="0" cy="0" r="5" style="stroke : none; fill-opacity: 0.5"/></g><g class="ResizeSWControl" style="display: none;"><circle cx="0" cy="0" r="5" style="stroke : none; fill-opacity: 0.5"/></g><g class="ResizeWControl" style="display: none;"><circle cx="0" cy="0" r="5" style="stroke : none; fill-opacity: 0.5"/></g><g class="ResizeNWControl" style="display: none;"><circle cx="0" cy="0" r="5" style="stroke : none; fill-opacity: 0.5"/></g><g class="removeControl" style="display: none;"><polygon style="stroke : none; fill-opacity: 0.1"/></g><g class="copyPasteControl" style="display: none;"><polygon style="stroke : none; fill-opacity: 0.1"/></g><g class="translateControl" style="display: none;"><polygon style="stroke : none; fill-opacity: 0.1; cursor:move"/></g></g></g></g></g></svg>