<?xml version="1.0" encoding="utf-8"?>
<svg height="950.3499603271484" id="temp" version="1.1" viewBox="0 0 1492.7800521850586 950.3499603271484" width="1492.7800521850586" xmlns="http://www.w3.org/2000/svg" xmlns:xlink="http://www.w3.org/1999/xlink"><defs/><g class="Model v1-1" id="Model"><g class="Floor"><g class="Floorplan Floor-1" id="Floor-1"><g class="Space Kitchen" fill="#ffffff" id="0592996c-3197-43aa-9959-2c52f8dd9173" stroke="#ffffff" style="fill-opacity: 1; stroke-opacity: 1; stroke-width: 1;"><polygon points="901.30,401.00 710.37,401.51 603.91,401.51 603.91,113.38 901.30,113.38 "/><g class="Dimension" transform="matrix(1,0,0,1,603.9064,113.3752)"><g class="Visual" style="display: none;" transform="matrix(1,0,0,1,0,0)"><g class="DimensionMark" fill="#000000" id="mark1" stroke="none" style="fill-opacity: 1; pointer-events: visible;" transform="matrix(1,0,0,1,148.6968,0)"><polygon points="-5,5,0,0,5,5"/></g><g class="DimensionMark" fill="#000000" id="mark2" stroke="none" style="fill-opacity: 1; pointer-events: visible;" transform="matrix(1,0,0,1,297.3942,144.0694)"><polygon points="-5,-5,0,0,-5,5"/></g><g class="DimensionMark" fill="#000000" id="mark3" stroke="none" style="fill-opacity: 1; pointer-events: visible;" transform="matrix(1,0,0,1,148.6968,288.0251)"><polygon points="-5,-5,0,0,5,-5"/></g><g class="DimensionMark" fill="#000000" id="mark4" stroke="none" style="fill-opacity: 1; pointer-events: visible;" transform="matrix(1,0,0,1,0,144.0694)"><polygon points="5,5,0,0,5,-5"/></g></g><g class="SpaceDimensionsLabel" transform="matrix(1,0,0,1,96.3403,190.93)"><g class="TextLabel NameLabel" id="NameLabel" style="display: block;"/><g class="TextLabel DimensionMeasureLabel" id="DimensionMeasureLabel" style="display: none;" transform="matrix(1,0,0,1,-70.9141,79.8437)"/></g></g></g><g class="Space Dining" fill="#ffffff" id="24c97b57-f9b8-44c3-9d12-39e7f86bd5e5" stroke="#ffffff" style="fill-opacity: 1; stroke-opacity: 1; stroke-width: 1;"><polygon points="1108.48,401.00 901.30,401.00 901.30,113.38 1108.48,113.38 "/><g class="Dimension" transform="matrix(1,0,0,1,901.3006,113.3752)"><g class="Visual" style="display: none;" transform="matrix(1,0,0,1,0,0)"><g class="DimensionMark" fill="#000000" id="mark1" stroke="none" style="fill-opacity: 1; pointer-events: visible;" transform="matrix(1,0,0,1,103.5887,0)"><polygon points="-5,5,0,0,5,5"/></g><g class="DimensionMark" fill="#000000" id="mark2" stroke="none" style="fill-opacity: 1; pointer-events: visible;" transform="matrix(1,0,0,1,207.1775,143.8124)"><polygon points="-5,-5,0,0,-5,5"/></g><g class="DimensionMark" fill="#000000" id="mark3" stroke="none" style="fill-opacity: 1; pointer-events: visible;" transform="matrix(1,0,0,1,103.5887,287.6248)"><polygon points="-5,-5,0,0,5,-5"/></g><g class="DimensionMark" fill="#000000" id="mark4" stroke="none" style="fill-opacity: 1; pointer-events: visible;" transform="matrix(1,0,0,1,0,143.8124)"><polygon points="5,5,0,0,5,-5"/></g></g><g class="SpaceDimensionsLabel" transform="matrix(1,0,0,1,55.3044,153.2143)"><g class="TextLabel NameLabel" id="NameLabel" style="display: block;"/><g class="TextLabel DimensionMeasureLabel" id="DimensionMeasureLabel" style="display: none;" transform="matrix(1,0,0,1,-91.3828,79.8437)"/></g></g></g><g class="Space LivingRoom" fill="#ffffff" id="643ba336-379d-493b-99e8-76e4ae0c5796" stroke="#ffffff" style="fill-opacity: 1; stroke-opacity: 1; stroke-width: 1;"><polygon points="1108.48,404.62 1089.60,404.62 1089.60,416.62 1108.48,416.62 1108.48,540.90 1089.60,540.90 1089.60,552.90 1108.48,552.90 1108.48,902.56 597.97,902.56 597.97,653.02 603.91,653.02 603.91,413.51 724.06,413.51 724.06,401.51 710.37,401.51 1108.48,401.00 "/><g class="Dimension" transform="matrix(1,0,0,1,597.9723,401.3295)"><g class="Visual" style="display: none;" transform="matrix(1,0,0,1,0,0)"><g class="DimensionMark" fill="#000000" id="mark1" stroke="none" style="fill-opacity: 1; pointer-events: visible;" transform="matrix(1,0,0,1,255.2533,0)"><polygon points="-5,5,0,0,5,5"/></g><g class="DimensionMark" fill="#000000" id="mark2" stroke="none" style="fill-opacity: 1; pointer-events: visible;" transform="matrix(1,0,0,1,510.5058,251.6929)"><polygon points="-5,-5,0,0,-5,5"/></g><g class="DimensionMark" fill="#000000" id="mark3" stroke="none" style="fill-opacity: 1; pointer-events: visible;" transform="matrix(1,0,0,1,255.2533,501.2269)"><polygon points="-5,-5,0,0,5,-5"/></g><g class="DimensionMark" fill="#000000" id="mark4" stroke="none" style="fill-opacity: 1; pointer-events: visible;" transform="matrix(1,0,0,1,0,251.6929)"><polygon points="5,5,0,0,5,-5"/></g></g><g class="SpaceDimensionsLabel" transform="matrix(1,0,0,1,257.1456,249.5973)"><g class="TextLabel NameLabel" id="NameLabel" style="display: block;"/><g class="TextLabel DimensionMeasureLabel" id="DimensionMeasureLabel" style="display: none;" transform="matrix(1,0,0,1,-114.6015,79.8438)"/></g></g></g><g class="Space Entry Lobby" fill="#ffffff" id="fe1f6882-ece3-4eab-a996-d51d9a82e3d4" stroke="#ffffff" style="fill-opacity: 1; stroke-opacity: 1; stroke-width: 1;"><polygon points="597.97,790.39 584.82,790.39 584.82,902.56 428.73,902.56 428.73,653.02 597.97,653.02 "/><g class="Dimension" transform="matrix(1,0,0,1,428.7325,653.0224)"><g class="Visual" style="display: none;" transform="matrix(1,0,0,1,0,0)"><g class="DimensionMark" fill="#000000" id="mark1" stroke="none" style="fill-opacity: 1; pointer-events: visible;" transform="matrix(1,0,0,1,84.6199,0)"><polygon points="-5,5,0,0,5,5"/></g><g class="DimensionMark" fill="#000000" id="mark2" stroke="none" style="fill-opacity: 1; pointer-events: visible;" transform="matrix(1,0,0,1,169.2398,124.767)"><polygon points="-5,-5,0,0,-5,5"/></g><g class="DimensionMark" fill="#000000" id="mark3" stroke="none" style="fill-opacity: 1; pointer-events: visible;" transform="matrix(1,0,0,1,84.6199,249.5341)"><polygon points="-5,-5,0,0,5,-5"/></g><g class="DimensionMark" fill="#000000" id="mark4" stroke="none" style="fill-opacity: 1; pointer-events: visible;" transform="matrix(1,0,0,1,0,124.767)"><polygon points="5,5,0,0,5,-5"/></g></g><g class="SpaceDimensionsLabel" transform="matrix(1,0,0,1,60.4777,114.127)"><g class="TextLabel NameLabel" id="NameLabel" style="display: block;"/><g class="TextLabel DimensionMeasureLabel" id="DimensionMeasureLabel" style="display: none;" transform="matrix(1,0,0,1,-118.8203,79.8437)"/></g></g></g><g class="Space Outdoor" fill="#ffffff" id="d8b38a55-b4dc-48cd-b57a-f5966b0c7c84" stroke="#000000" style="fill-opacity: 1; stroke-opacity: 1; stroke-width: 1;"><polygon points="286.72,108.38 123.98,108.38 123.98,907.56 286.72,907.56 286.72,108.38 286.72,108.38 "/><g class="Dimension" transform="matrix(1,0,0,1,123.9759,108.3752)"><g class="Visual" style="display: none;" transform="matrix(1,0,0,1,0,0)"><g class="DimensionMark" fill="#000000" id="mark1" stroke="none" style="fill-opacity: 1; pointer-events: visible;" transform="matrix(1,0,0,1,81.3719,0)"><polygon points="-5,5,0,0,5,5"/></g><g class="DimensionMark" fill="#000000" id="mark2" stroke="none" style="fill-opacity: 1; pointer-events: visible;" transform="matrix(1,0,0,1,162.7437,399.5906)"><polygon points="-5,-5,0,0,-5,5"/></g><g class="DimensionMark" fill="#000000" id="mark3" stroke="none" style="fill-opacity: 1; pointer-events: visible;" transform="matrix(1,0,0,1,81.3719,799.1812)"><polygon points="-5,-5,0,0,5,-5"/></g><g class="DimensionMark" fill="#000000" id="mark4" stroke="none" style="fill-opacity: 1; pointer-events: visible;" transform="matrix(1,0,0,1,0,399.5906)"><polygon points="5,5,0,0,5,-5"/></g></g><g class="SpaceDimensionsLabel" transform="matrix(1,0,0,1,81.3718,399.5906)"><g class="TextLabel NameLabel" id="NameLabel" style="display: block;"/><g class="TextLabel DimensionMeasureLabel" id="DimensionMeasureLabel" style="display: none;" transform="matrix(1,0,0,1,-56.6562,79.375)"/></g></g></g><g class="Space Bath" fill="#ffffff" id="652469ea-8c63-424a-8b1a-42fb842feb22" stroke="#ffffff" style="fill-opacity: 1; stroke-opacity: 1; stroke-width: 1;"><polygon points="424.60,359.56 592.91,359.56 592.91,642.02 308.72,642.02 308.72,113.38 424.60,113.38 "/><g class="Dimension" transform="matrix(1,0,0,1,308.7196,113.3752)"><g class="Visual" style="display: none;" transform="matrix(1,0,0,1,0,0)"><g class="DimensionMark" fill="#000000" id="mark1" stroke="none" style="fill-opacity: 1; pointer-events: visible;" transform="matrix(1,0,0,1,115.8838,0)"><polygon points="-5,5,0,0,5,5"/></g><g class="DimensionMark" fill="#000000" id="mark2" stroke="none" style="fill-opacity: 1; pointer-events: visible;" transform="matrix(1,0,0,1,284.1868,264.3236)"><polygon points="-5,-5,0,0,-5,5"/></g><g class="DimensionMark" fill="#000000" id="mark3" stroke="none" style="fill-opacity: 1; pointer-events: visible;" transform="matrix(1,0,0,1,115.8838,528.6472)"><polygon points="-5,-5,0,0,5,-5"/></g><g class="DimensionMark" fill="#000000" id="mark4" stroke="none" style="fill-opacity: 1; pointer-events: visible;" transform="matrix(1,0,0,1,0,264.3236)"><polygon points="5,5,0,0,5,-5"/></g></g><g class="SpaceDimensionsLabel" transform="matrix(1,0,0,1,91.3577,384.7441)"><g class="TextLabel NameLabel" id="NameLabel" style="display: block;"/><g class="TextLabel DimensionMeasureLabel" id="DimensionMeasureLabel" style="display: none;" transform="matrix(1,0,0,1,-106.2031,79.8437)"/></g></g></g><g class="Space Bedroom" fill="#ffffff" id="074c039f-4a6e-48e7-ab71-006202a9ac2e" stroke="#ffffff" style="fill-opacity: 1; stroke-opacity: 1; stroke-width: 1;"><polygon points="1470.78,540.90 1120.48,540.90 1120.48,416.62 1137.25,416.62 1137.25,404.62 1120.48,404.62 1120.48,113.38 1470.78,113.38 "/><g class="Dimension" transform="matrix(1,0,0,1,1120.4781,113.3752)"><g class="Visual" style="display: none;" transform="matrix(1,0,0,1,0,0)"><g class="DimensionMark" fill="#000000" id="mark1" stroke="none" style="fill-opacity: 1; pointer-events: visible;" transform="matrix(1,0,0,1,175.1499,0)"><polygon points="-5,5,0,0,5,5"/></g><g class="DimensionMark" fill="#000000" id="mark2" stroke="none" style="fill-opacity: 1; pointer-events: visible;" transform="matrix(1,0,0,1,350.2998,213.7642)"><polygon points="-5,-5,0,0,-5,5"/></g><g class="DimensionMark" fill="#000000" id="mark3" stroke="none" style="fill-opacity: 1; pointer-events: visible;" transform="matrix(1,0,0,1,175.1499,427.5283)"><polygon points="-5,-5,0,0,5,-5"/></g><g class="DimensionMark" fill="#000000" id="mark4" stroke="none" style="fill-opacity: 1; pointer-events: visible;" transform="matrix(1,0,0,1,0,213.7642)"><polygon points="5,5,0,0,5,-5"/></g></g><g class="SpaceDimensionsLabel" transform="matrix(1,0,0,1,168.4437,218.0692)"><g class="TextLabel NameLabel" id="NameLabel" style="display: block;"/><g class="TextLabel DimensionMeasureLabel" id="DimensionMeasureLabel" style="display: none;" transform="matrix(1,0,0,1,-113.6797,79.8438)"/></g></g></g><g class="Space Bedroom" fill="#ffffff" id="6f3f507b-d3af-47ec-a956-5bf58df2a8b0" stroke="#ffffff" style="fill-opacity: 1; stroke-opacity: 1; stroke-width: 1;"><polygon points="1470.78,902.56 1120.48,902.56 1120.48,552.90 1470.78,552.90 "/><g class="Dimension" transform="matrix(1,0,0,1,1120.4781,552.9035)"><g class="Visual" style="display: none;" transform="matrix(1,0,0,1,0,0)"><g class="DimensionMark" fill="#000000" id="mark1" stroke="none" style="fill-opacity: 1; pointer-events: visible;" transform="matrix(1,0,0,1,175.1499,0)"><polygon points="-5,5,0,0,5,5"/></g><g class="DimensionMark" fill="#000000" id="mark2" stroke="none" style="fill-opacity: 1; pointer-events: visible;" transform="matrix(1,0,0,1,350.2998,174.8265)"><polygon points="-5,-5,0,0,-5,5"/></g><g class="DimensionMark" fill="#000000" id="mark3" stroke="none" style="fill-opacity: 1; pointer-events: visible;" transform="matrix(1,0,0,1,175.1499,349.6529)"><polygon points="-5,-5,0,0,5,-5"/></g><g class="DimensionMark" fill="#000000" id="mark4" stroke="none" style="fill-opacity: 1; pointer-events: visible;" transform="matrix(1,0,0,1,0,174.8265)"><polygon points="5,5,0,0,5,-5"/></g></g><g class="SpaceDimensionsLabel" transform="matrix(1,0,0,1,168.1203,192.2624)"><g class="TextLabel NameLabel" id="NameLabel" style="display: block;"/><g class="TextLabel DimensionMeasureLabel" id="DimensionMeasureLabel" style="display: none;" transform="matrix(1,0,0,1,-113.6797,79.8437)"/></g></g></g><g class="Space Sauna" fill="#ffffff" id="e4169d55-cf9d-48d7-94a3-7732473ecfd8" stroke="#ffffff" style="fill-opacity: 1; stroke-opacity: 1; stroke-width: 1;"><polygon points="592.91,347.56 436.60,347.56 436.60,113.38 592.91,113.38 "/><g class="Dimension" transform="matrix(1,0,0,1,436.6034,113.3752)"><g class="Visual" style="display: none;" transform="matrix(1,0,0,1,0,0)"><g class="DimensionMark" fill="#000000" id="mark1" stroke="none" style="fill-opacity: 1; pointer-events: visible;" transform="matrix(1,0,0,1,78.1515,0)"><polygon points="-5,5,0,0,5,5"/></g><g class="DimensionMark" fill="#000000" id="mark2" stroke="none" style="fill-opacity: 1; pointer-events: visible;" transform="matrix(1,0,0,1,156.303,117.0935)"><polygon points="-5,-5,0,0,-5,5"/></g><g class="DimensionMark" fill="#000000" id="mark3" stroke="none" style="fill-opacity: 1; pointer-events: visible;" transform="matrix(1,0,0,1,78.1515,234.187)"><polygon points="-5,-5,0,0,5,-5"/></g><g class="DimensionMark" fill="#000000" id="mark4" stroke="none" style="fill-opacity: 1; pointer-events: visible;" transform="matrix(1,0,0,1,0,117.0935)"><polygon points="5,5,0,0,5,-5"/></g></g><g class="SpaceDimensionsLabel" transform="matrix(1,0,0,1,15.1137,184.155)"><g class="TextLabel NameLabel" id="NameLabel" style="display: block;"/><g class="TextLabel DimensionMeasureLabel" id="DimensionMeasureLabel" style="display: none;" transform="matrix(1,0,0,1,-80.9375,79.8437)"/></g></g></g><g class="Space Undefined" fill="#ffffff" id="f463a129-892d-48c7-88be-1ec87b0cfc39" stroke="#ffffff" style="fill-opacity: 1; stroke-opacity: 1; stroke-width: 1;"><polygon points="417.73,902.56 308.72,902.56 308.72,653.02 417.73,653.02 "/><g class="Dimension" transform="matrix(1,0,0,1,308.7196,653.0224)"><g class="Visual" style="display: none;" transform="matrix(1,0,0,1,0,0)"><g class="DimensionMark" fill="#000000" id="mark1" stroke="none" style="fill-opacity: 1; pointer-events: visible;" transform="matrix(1,0,0,1,54.5065,0)"><polygon points="-5,5,0,0,5,5"/></g><g class="DimensionMark" fill="#000000" id="mark2" stroke="none" style="fill-opacity: 1; pointer-events: visible;" transform="matrix(1,0,0,1,109.0129,124.767)"><polygon points="-5,-5,0,0,-5,5"/></g><g class="DimensionMark" fill="#000000" id="mark3" stroke="none" style="fill-opacity: 1; pointer-events: visible;" transform="matrix(1,0,0,1,54.5065,249.5341)"><polygon points="-5,-5,0,0,5,-5"/></g><g class="DimensionMark" fill="#000000" id="mark4" stroke="none" style="fill-opacity: 1; pointer-events: visible;" transform="matrix(1,0,0,1,0,124.767)"><polygon points="5,5,0,0,5,-5"/></g></g><g class="SpaceDimensionsLabel" transform="matrix(1,0,0,1,54.5064,54.5065)"><g class="TextLabel NameLabel" id="NameLabel" style="display: block;"/><g class="TextLabel DimensionMeasureLabel" id="DimensionMeasureLabel" style="display: none;" transform="matrix(1,0,0,1,-40.4531,79.1406)"/></g></g></g><g class="Wall External" fill="#000000" id="Wall" stroke="#000000" style="fill-opacity: 1; stroke-opacity: 1; stroke-width: 1;"><polygon points="308.72,113.38 1470.78,113.38 1492.78,91.38 286.72,91.38 "/><g class="Window Regular" fill="#f0f0ff" id="Window" stroke="#000000" style="fill-opacity: 1; stroke-width: 1; stroke-opacity: 1;"><polygon points="470.82,113.38 569.94,113.38 569.94,91.38 470.82,91.38 "/><g class="Glass" id="Glass"><polygon points="470.82,113.38 569.94,113.38 569.94,91.38 470.82,91.38 "/></g><g class="Panel" id="Panel"><line x1="478.3245786909514" x2="562.4445159930152" y1="102.37521702483271" y2="102.3752170248327"/><line x1="478.3245786909514" x2="478.3245786909514" y1="113.37521702483271" y2="91.37521702483271"/><line x1="562.4445159930152" x2="562.4445159930152" y1="113.3752170248327" y2="91.3752170248327"/></g></g><g class="Window Regular" fill="#f0f0ff" id="Window" stroke="#000000" style="fill-opacity: 1; stroke-width: 1; stroke-opacity: 1;"><polygon points="908.01,113.38 1072.76,113.38 1072.76,91.38 908.01,91.38 "/><g class="Glass" id="Glass"><polygon points="908.01,113.38 1072.76,113.38 1072.76,91.38 908.01,91.38 "/></g><g class="Panel" id="Panel"><line x1="915.510809243907" x2="1065.2607387672747" y1="102.37521702483261" y2="102.37521702483258"/><line x1="915.510809243907" x2="915.510809243907" y1="113.37521702483261" y2="91.37521702483261"/><line x1="1065.2607387672747" x2="1065.2607387672747" y1="113.37521702483258" y2="91.37521702483258"/></g></g><g class="Window Regular" fill="#f0f0ff" id="Window" stroke="#000000" style="fill-opacity: 1; stroke-width: 1; stroke-opacity: 1;"><polygon points="1237.51,113.38 1392.63,113.38 1392.63,91.38 1237.51,91.38 "/><g class="Glass" id="Glass"><polygon points="1237.51,113.38 1392.63,113.38 1392.63,91.38 1237.51,91.38 "/></g><g class="Panel" id="Panel"><line x1="1245.0106682906421" x2="1385.1323551795272" y1="102.37521702483254" y2="102.3752170248325"/><line x1="1245.0106682906421" x2="1245.0106682906421" y1="113.37521702483254" y2="91.37521702483254"/><line x1="1385.1323551795272" x2="1385.1323551795272" y1="113.3752170248325" y2="91.3752170248325"/></g></g></g><g class="Wall External" fill="#000000" id="Wall" stroke="#000000" style="fill-opacity: 1; stroke-opacity: 1; stroke-width: 1;"><polygon points="1492.78,91.38 1492.78,924.56 1470.78,902.56 1470.78,113.38 "/></g><g class="Wall External" fill="#000000" id="Wall" stroke="#000000" style="fill-opacity: 1; stroke-opacity: 1; stroke-width: 1;"><polygon points="1492.78,924.56 286.72,924.56 308.72,902.56 1470.78,902.56 "/><g class="Window Regular" fill="#f0f0ff" id="Window" stroke="#000000" style="fill-opacity: 1; stroke-width: 1; stroke-opacity: 1;"><polygon points="1369.81,924.56 1192.69,924.56 1192.69,902.56 1369.81,902.56 "/><g class="Glass" id="Glass"><polygon points="1369.81,924.56 1192.69,924.56 1192.69,902.56 1369.81,902.56 "/></g><g class="Panel" id="Panel"><line x1="1362.305444665948" x2="1200.1943829089005" y1="913.5564538084849" y2="913.5564538084849"/><line x1="1362.305444665948" x2="1362.305444665948" y1="924.5564538084849" y2="902.5564538084849"/><line x1="1200.1943829089005" x2="1200.1943829089005" y1="924.5564538084849" y2="902.5564538084849"/></g></g><g class="Window Regular" fill="#f0f0ff" id="Window" stroke="#000000" style="fill-opacity: 1; stroke-width: 1; stroke-opacity: 1;"><polygon points="942.03,924.56 762.01,924.56 762.01,902.56 942.03,902.56 "/><g class="Glass" id="Glass"><polygon points="942.03,924.56 762.01,924.56 762.01,902.56 942.03,902.56 "/></g><g class="Panel" id="Panel"><line x1="934.5290004221503" x2="769.5144786362987" y1="913.5564538084849" y2="913.556453808485"/><line x1="934.5290004221503" x2="934.5290004221503" y1="924.5564538084849" y2="902.5564538084849"/><line x1="769.5144786362987" x2="769.5144786362987" y1="924.556453808485" y2="902.556453808485"/></g></g></g><g class="Wall External" fill="#000000" id="Wall" stroke="#000000" style="fill-opacity: 1; stroke-opacity: 1; stroke-width: 1;"><polygon points="308.72,902.56 308.72,113.38 286.72,91.38 286.72,924.56 "/><g class="Door Swing Beside" fill="#ffffff" id="Door" stroke="#000000" style="fill-opacity: 1; stroke-width: 1; stroke-opacity: 1;"><polygon points="308.72,794.11 308.72,726.21 286.72,726.21 286.72,794.11 "/><g class="Panel Left Positive" fill="none" id="Panel" style=""><g class="PanelArea" fill="none" id="PanelArea" stroke="none" style=""><polygon points="308.72,794.11 308.72,726.21 286.72,726.21 286.72,794.11 "/></g><path d="M286.72,726.21 q-67.90,0.00 -67.90,67.90 l67.90,0.00Z"/></g></g><g class="Window Regular" fill="#f0f0ff" id="Window" stroke="#000000" style="fill-opacity: 1; stroke-width: 1; stroke-opacity: 1;"><polygon points="308.72,531.20 308.72,438.87 286.72,438.87 286.72,531.20 "/><g class="Glass" id="Glass"><polygon points="308.72,531.20 308.72,438.87 286.72,438.87 286.72,531.20 "/></g><g class="Panel" id="Panel"><line x1="297.7196066529535" x2="297.7196066529534" y1="523.7006153298228" y2="446.3725360302974"/><line x1="308.7196066529535" x2="286.7196066529535" y1="523.7006153298228" y2="523.7006153298228"/><line x1="308.7196066529534" x2="286.7196066529534" y1="446.3725360302974" y2="446.3725360302974"/></g></g><g class="Window Regular" fill="#f0f0ff" id="Window" stroke="#000000" style="fill-opacity: 1; stroke-width: 1; stroke-opacity: 1;"><polygon points="308.72,343.23 308.72,248.01 286.72,248.01 286.72,343.23 "/><g class="Glass" id="Glass"><polygon points="308.72,343.23 308.72,248.01 286.72,248.01 286.72,343.23 "/></g><g class="Panel" id="Panel"><line x1="297.7196066529534" x2="297.7196066529534" y1="335.73223863930934" y2="255.50596850975398"/><line x1="308.7196066529534" x2="286.7196066529534" y1="335.73223863930934" y2="335.73223863930934"/><line x1="308.7196066529534" x2="286.7196066529534" y1="255.50596850975398" y2="255.50596850975398"/></g></g></g><g class="Wall" fill="#000000" id="Wall" stroke="#000000" style="fill-opacity: 1; stroke-opacity: 1; stroke-width: 1;"><polygon points="286.72,653.02 603.91,653.02 592.91,642.02 286.72,642.02 "/><g class="Door Swing Beside" fill="#ffffff" id="Door" stroke="#000000" style="fill-opacity: 1; stroke-width: 1; stroke-opacity: 1;"><polygon points="478.55,653.02 547.37,653.02 547.37,642.02 478.55,642.02 "/><g class="Panel Left Negative" fill="none" id="Panel" style=""><g class="PanelArea" fill="none" id="PanelArea" stroke="none" style=""><polygon points="478.55,653.02 547.37,653.02 547.37,642.02 478.55,642.02 "/></g><path d="M478.55,653.02 q0.00,68.82 68.82,68.82 l0.00,-68.82Z"/></g></g></g><g class="Wall" fill="#000000" id="Wall" stroke="#000000" style="fill-opacity: 1; stroke-opacity: 1; stroke-width: 1;"><polygon points="603.91,653.02 603.91,91.38 592.91,91.38 592.91,642.02 "/></g><g class="Wall" fill="#000000" id="Wall" stroke="#000000" style="fill-opacity: 1; stroke-opacity: 1; stroke-width: 1;"><polygon points="428.73,924.56 428.73,642.02 417.73,642.02 417.73,924.56 "/><g class="Door Swing Beside" fill="#ffffff" id="Door" stroke="#000000" style="fill-opacity: 1; stroke-width: 1; stroke-opacity: 1;"><polygon points="428.73,789.00 428.73,723.62 417.73,723.62 417.73,789.00 "/><g class="Panel Left Positive" fill="none" id="Panel" style=""><g class="PanelArea" fill="none" id="PanelArea" stroke="none" style=""><polygon points="428.73,789.00 428.73,723.62 417.73,723.62 417.73,789.00 "/></g><path d="M417.73,723.62 q-65.37,0.00 -65.37,65.37 l65.37,0.00Z"/></g></g></g><g class="Wall" fill="#000000" id="Wall" stroke="#000000" style="fill-opacity: 1; stroke-opacity: 1; stroke-width: 1;"><polygon points="597.97,924.56 597.97,790.39 584.82,790.39 584.82,924.56 "/></g><g class="Wall" fill="#000000" id="Wall" stroke="#000000" style="fill-opacity: 1; stroke-opacity: 1; stroke-width: 1;"><polygon points="1120.48,924.56 1120.48,91.38 1108.48,91.38 1108.48,924.56 "/><g class="Door Swing Beside" fill="#ffffff" id="Door" stroke="#000000" style="fill-opacity: 1; stroke-width: 1; stroke-opacity: 1;"><polygon points="1120.48,657.53 1120.48,590.57 1108.48,590.57 1108.48,657.53 "/><g class="Panel Left Negative" fill="none" id="Panel" style=""><g class="PanelArea" fill="none" id="PanelArea" stroke="none" style=""><polygon points="1120.48,657.53 1120.48,590.57 1108.48,590.57 1108.48,657.53 "/></g><path d="M1120.48,657.53 q66.96,0.00 66.96,-66.96 l-66.96,0.00Z"/></g></g><g class="Door Swing Beside" fill="#ffffff" id="Door" stroke="#000000" style="fill-opacity: 1; stroke-width: 1; stroke-opacity: 1;"><polygon points="1120.48,510.23 1120.48,442.55 1108.48,442.55 1108.48,510.23 "/><g class="Panel Right Negative" fill="none" id="Panel" style=""><g class="PanelArea" fill="none" id="PanelArea" stroke="none" style=""><polygon points="1120.48,510.23 1120.48,442.55 1108.48,442.55 1108.48,510.23 "/></g><path d="M1120.48,442.55 q67.68,0.00 67.68,67.68 l-67.68,0.00Z"/></g></g></g><g class="Wall" fill="#000000" id="Wall" stroke="#000000" style="fill-opacity: 1; stroke-opacity: 1; stroke-width: 1;"><polygon points="1089.60,552.90 1492.78,552.90 1492.78,540.90 1089.60,540.90 "/></g><g class="Wall" fill="#000000" id="Wall" stroke="#000000" style="fill-opacity: 1; stroke-opacity: 1; stroke-width: 1;"><polygon points="1089.60,416.62 1137.25,416.62 1137.25,404.62 1089.60,404.62 "/></g><g class="Wall" fill="#000000" id="Wall" stroke="#000000" style="fill-opacity: 1; stroke-opacity: 1; stroke-width: 1;"><polygon points="424.60,91.38 424.60,359.56 436.60,347.56 436.60,91.38 "/><g class="Door Swing Beside" fill="#ffffff" id="Door" stroke="#000000" style="fill-opacity: 1; stroke-width: 1; stroke-opacity: 1;"><polygon points="424.60,264.39 424.60,332.49 436.60,332.49 436.60,264.39 "/><g class="Panel Left Negative" fill="none" id="Panel" style=""><g class="PanelArea" fill="none" id="PanelArea" stroke="none" style=""><polygon points="424.60,264.39 424.60,332.49 436.60,332.49 436.60,264.39 "/></g><path d="M424.60,264.39 q-68.10,0.00 -68.10,68.10 l68.10,0.00Z"/></g></g><g class="Window Regular" fill="#f0f0ff" id="Window" stroke="#000000" style="fill-opacity: 1; stroke-width: 1; stroke-opacity: 1;"><polygon points="424.60,116.42 424.60,259.59 436.60,259.59 436.60,116.42 "/><g class="Glass" id="Glass"><polygon points="424.60,116.42 424.60,259.59 436.60,259.59 436.60,116.42 "/></g><g class="Panel" id="Panel"><line x1="430.60339291518244" x2="430.6033929151824" y1="123.92102802357073" y2="252.08562833745145"/><line x1="424.60339291518244" x2="436.60339291518244" y1="123.92102802357073" y2="123.92102802357073"/><line x1="424.6033929151824" x2="436.6033929151824" y1="252.08562833745145" y2="252.08562833745145"/></g></g></g><g class="Wall" fill="#000000" id="Wall" stroke="#000000" style="fill-opacity: 1; stroke-opacity: 1; stroke-width: 1;"><polygon points="424.60,359.56 603.91,359.56 603.91,347.56 436.60,347.56 "/></g><g class="Wall" fill="#000000" id="Wall" stroke="#000000" style="fill-opacity: 1; stroke-opacity: 1; stroke-width: 1;"><polygon points="603.91,413.51 724.06,413.51 724.06,401.51 603.91,401.51 "/></g><g class="Column Rectangle" fill="#000000" id="Column" stroke="none" style="fill-opacity: 1;"><polygon points="592.91,359.56 538.55,359.56 538.55,444.98 592.91,444.98 "/></g><g class="FixedFurniture CoatCloset" fill="#ffffff" stroke="#000000" style="fill-opacity: 1; stroke-opacity: 1;" transform="matrix(0,-1,1,0,1120.525,226.2452)">
<g class="BoundaryPolygon">
<polygon points="0.00,0.00 112.87,0.00 112.87,60.00 0.00,60.00 "/>
</g>

<g class="Direction" fill-opacity="0.9" style="display: none;">
<polygon fill="#444444" points="57.85,54.52 57.85,43.90 54.84,43.90 54.84,54.52 51.04,54.52 56.34,59.82 61.65,54.52 57.85,54.52 "/>
</g>
<g class="Name" fill-opacity="0.9" style="display: none;">

</g>
<desc>Width:120 Height:200 Depth:60 Elevation:0</desc>
</g><g class="FixedFurniture Closet" fill="#ffffff" stroke="#000000" style="fill-opacity: 1; stroke-opacity: 1;" transform="matrix(0,-1,1,0,1120.5249,284.2751)">
<g class="BoundaryPolygon">
<polygon points="0.00,0.00 58.03,0.00 58.03,60.00 0.00,60.00 "/>
</g>
<g class="Direction" fill-opacity="0.9" style="display: none;">
<polygon fill="#444444" points="30.48,54.70 30.48,44.08 27.47,44.08 27.47,54.70 23.66,54.70 28.97,60.00 34.27,54.70 30.48,54.70 "/>
</g>
<g class="Name" fill-opacity="0.9" style="display: none;">

</g>
<desc>Width:60 Height:200 Depth:60 Elevation:0</desc>
</g><g class="FixedFurniture Closet" fill="#ffffff" stroke="#000000" style="fill-opacity: 1; stroke-opacity: 1;" transform="matrix(0,-1,1,0,1120.5249,343.7851)">
<g class="BoundaryPolygon">
<polygon points="0.00,0.00 59.51,0.00 59.51,60.00 0.00,60.00 "/>
</g>
<g class="Direction" fill-opacity="0.9" style="display: none;">
<polygon fill="#444444" points="31.26,54.70 31.26,44.08 28.25,44.08 28.25,54.70 24.44,54.70 29.75,60.00 35.05,54.70 31.26,54.70 "/>
</g>
<g class="Name" fill-opacity="0.9" style="display: none;">

</g>
<desc>Width:60 Height:200 Depth:60 Elevation:0</desc>
</g><g class="FixedFurniture Closet" fill="#ffffff" stroke="#000000" style="fill-opacity: 1; stroke-opacity: 1;" transform="matrix(0,-1,1,0,1120.5406,404.5151)">
<g class="BoundaryPolygon">
<polygon points="0.00,0.00 60.73,0.00 60.73,60.00 0.00,60.00 "/>
</g>
<g class="Direction" fill-opacity="0.9" style="display: none;">
<polygon fill="#444444" points="31.90,54.70 31.90,44.08 28.89,44.08 28.89,54.70 25.08,54.70 30.39,60.00 35.69,54.70 31.90,54.70 "/>
</g>
<g class="Name" fill-opacity="0.9" style="display: none;">

</g>
<desc>Width:60 Height:200 Depth:60 Elevation:0</desc>
</g><g class="FixedFurnitureSet" fill="#ffffff" id="FixedFurnitureSet" stroke="#000000" style="fill-opacity: 0.4; stroke-opacity: 0.4;" transform="matrix(1,0,0,1,1290.7778,552.9036)"><g class="FixedFurniture Closet" fill="#ffffff" stroke="#000000" style="fill-opacity: 1; stroke-opacity: 1;" transform="matrix(1,0,0,1,0,0)">
<g class="BoundaryPolygon">
<polygon points="0.00,0.00 60.00,0.00 60.00,58.06 0.00,58.06 "/>
</g>
<g class="Direction" fill-opacity="0.9" style="display: none;">
<polygon fill="#444444" points="31.51,52.93 31.51,42.31 28.50,42.31 28.50,52.93 24.70,52.93 30.00,58.23 35.30,52.93 31.51,52.93 "/>
</g>
<g class="Name" fill-opacity="0.9" style="display: none;">

</g>
<desc>Width:60 Height:200 Depth:60 Elevation:0</desc>
</g><g class="FixedFurniture Closet" fill="#ffffff" stroke="#000000" style="fill-opacity: 1; stroke-opacity: 1;" transform="matrix(1,0,0,1,60,0)">
<g class="BoundaryPolygon">
<polygon points="0.00,0.00 60.00,0.00 60.00,58.06 0.00,58.06 "/>
</g>
<g class="Direction" fill-opacity="0.9" style="display: none;">
<polygon fill="#444444" points="31.51,52.93 31.51,42.31 28.50,42.31 28.50,52.93 24.70,52.93 30.00,58.23 35.30,52.93 31.51,52.93 "/>
</g>
<g class="Name" fill-opacity="0.9" style="display: none;">

</g>
<desc>Width:60 Height:200 Depth:60 Elevation:0</desc>
</g><g class="FixedFurniture Closet" fill="#ffffff" stroke="#000000" style="fill-opacity: 1; stroke-opacity: 1;" transform="matrix(1,0,0,1,120,0)">
<g class="BoundaryPolygon">
<polygon points="0.00,0.00 60.00,0.00 60.00,58.06 0.00,58.06 "/>
</g>
<g class="Direction" fill-opacity="0.9" style="display: none;">
<polygon fill="#444444" points="31.51,52.93 31.51,42.31 28.50,42.31 28.50,52.93 24.70,52.93 30.00,58.23 35.30,52.93 31.51,52.93 "/>
</g>
<g class="Name" fill-opacity="0.9" style="display: none;">

</g>
<desc>Width:60 Height:200 Depth:60 Elevation:0</desc>
</g></g><g class="FixedFurniture Closet" fill="#ffffff" stroke="#000000" style="fill-opacity: 1; stroke-opacity: 1;" transform="matrix(-1,0,0,-1,584.7725,902.4314)">
<g class="BoundaryPolygon">
<polygon points="0.00,0.00 156.04,0.00 156.04,73.33 0.00,73.33 "/>
</g>
<g class="Direction" fill-opacity="0.9" style="display: none;">
<polygon fill="#444444" points="79.98,66.63 79.98,56.02 76.97,56.02 76.97,66.63 73.17,66.63 78.47,71.94 83.78,66.63 79.98,66.63 "/>
</g>
<g class="Name" fill-opacity="0.9" style="display: none;">

</g>
<desc>Width:120 Height:200 Depth:60 Elevation:0</desc>
</g><g class="FixedFurnitureSet" fill="#ffffff" id="FixedFurnitureSet" stroke="#000000" style="fill-opacity: 0.4; stroke-opacity: 0.4;" transform="matrix(0,1,-1,0,592.8908,550.1976)"><g class="FixedFurniture BaseCabinet" fill="#ffffff" stroke="#000000" style="fill-opacity: 1; stroke-opacity: 1;" transform="matrix(1,0,0,1,0,0)">
<g class="BoundaryPolygon">
<polygon points="0.00,0.00 60.00,0.00 60.00,41.96 0.00,41.96 "/>
</g>
<g class="Direction" fill-opacity="0.9" style="display: none;">
<polygon fill="#444444" points="32.01,38.60 32.01,27.99 29.00,27.99 29.00,38.60 25.20,38.60 30.50,43.41 35.80,38.60 32.01,38.60 "/>
</g>
<g class="Name" fill-opacity="0.9" style="display: none;">

</g>
<desc>Width:60 Height:5 Depth:60 Elevation:105</desc>
</g><g class="FixedFurniture Sink" fill="#ffffff" stroke="#000000" style="fill-opacity: 1; stroke-opacity: 1;" transform="matrix(1,0,0,1,0,0)">
<g class="BoundaryPolygon" fill="none" stroke="none">
<polygon points="0.00,0.00 60.00,0.00 60.00,41.96 0.00,41.96 "/>
</g>
<g class="InnerPolygon">
<polygon points="5.00,9.70 55.00,9.70 55.00,38.26 5.00,38.26 "/>
</g>
<g class="OuterDrain" stroke-width="0.8">
<circle cx="30" cy="22.52032410690888" r="3.5"/>
</g>
<g class="InnerDrain" stroke-width="0.8">
<circle cx="30" cy="22.52032410690888" r="2"/>
</g>
<g class="Faucet">
<polygon points="27.00,3.50 33.00,3.50 33.00,17.50 27.00,17.50 "/>
</g>
<g class="Direction" fill-opacity="0.9" style="display: none;">
<polygon fill="#444444" points="32.01,38.60 32.01,27.99 29.00,27.99 29.00,38.60 25.20,38.60 30.50,43.41 35.80,38.60 32.01,38.60 "/>
</g>
<g class="Name" fill-opacity="0.9" style="display: none;">

</g>
<desc>Width:60 Height:90 Depth:60 Elevation:0</desc>
</g></g><g class="FixedFurniture SaunaBenchHigh" fill="#ffffff" stroke="#000000" style="fill-opacity: 1; stroke-opacity: 1;" transform="matrix(1,0,0,1,436.6034,113.4377)">
<g class="BoundaryPolygon">
<polygon points="0.00,0.00 156.28,0.00 156.28,60.00 0.00,60.00 "/>
</g>

<g class="Direction" fill-opacity="0.9" style="display: none;">
<polygon fill="#444444" points="80.60,54.66 80.60,44.04 77.59,44.04 77.59,54.66 73.79,54.66 79.09,59.96 84.39,54.66 80.60,54.66 "/>
</g>
<g class="Name" fill-opacity="0.9" style="display: none;">

</g>
<desc>Width:185 Height:5 Depth:60 Elevation:105</desc>
</g><g class="FixedFurniture SaunaBenchMid" fill="#ffffff" stroke="#000000" style="fill-opacity: 1; stroke-opacity: 1;" transform="matrix(1,0,0,1,436.5643,173.4377)">
<g class="BoundaryPolygon">
<polygon points="0.00,0.00 156.34,0.00 156.34,40.00 0.00,40.00 "/>
</g>

<g class="Direction" fill-opacity="0.9" style="display: none;">
<polygon fill="#444444" points="79.45,34.66 79.45,24.04 76.44,24.04 76.44,34.66 72.63,34.66 77.94,39.96 83.24,34.66 79.45,34.66 "/>
</g>
<g class="Name" fill-opacity="0.9" style="display: none;">

</g>
<desc>Width:185 Height:5 Depth:40 Elevation:60</desc>
</g><g class="FixedFurniture FireplaceCorner" fill="#ffffff" stroke="#000000" style="fill-opacity: 1; stroke-opacity: 1;" transform="matrix(0,-1.554,1.4096,0,603.9064,530.841)">
<g class="BoundaryPolygon" fill="none" stroke="none">
<polygon points="0,0 75,0 75,75, 0,75"/>
</g>
<g class="OverlayPolygon">
<polygon points="33.933 75.5 75.5 75.5 75.5 0.5 0.5 0.5 0.5 41.735 33.933 75.5"/>
</g>
<g class="Lines" fill="none" stroke="#4c4c4c">
<line x1="41.978" x2="75.5" y1="0.5" y2="34.026"/>
<line x1="9.726" x2="75.5" y1="0.5" y2="66.237"/>
<line x1="0.5" x2="67.386" y1="8.611" y2="75.5"/>
<line x1="26.284" x2="75.183" y1="0.5" y2="49.404"/>
<line x1="0.5" x2="50.143" y1="25.759" y2="75.4"/>
<line x1="59.944" x2="75.5" y1="0.5" y2="16.058"/>
</g>
<g class="FireBox">
<polygon points="0.739 41.989 34.215 8.38 67.304 41.602 33.829 75.21 0.739 41.989"/>
</g>
<g class="Direction" fill-opacity="0.9" style="display: none;">
<polygon fill="#444444" points="35.459 70.197 35.459 59.581 32.45 59.581 32.45 70.197 28.647 70.197 33.95 75.5 39.253 70.197 35.459 70.197"/>
</g>
<g class="Name" fill-opacity="0.9" style="display: none;">

</g>
<desc>Width:75 Height:120 Depth:75 Elevation:0</desc>
</g><g class="FixedFurniture BaseCabinet" fill="#ffffff" stroke="#000000" style="fill-opacity: 1; stroke-opacity: 1;" transform="matrix(1,0,0,1,664.0464,401.3752)"><desc>Width:60 Height:90 Depth:60 Elevation:0</desc><g class="BoundaryPolygon"><polygon points="0.00,0.00 0.00,-225.75 177.59,-225.75 177.59,-165.75 237.73,-165.75 237.73,-288.00 -60.14,-288.00 -60.14,0.00 0.00,0.00 "/></g></g><g class="FixedFurniture ElectricalAppliance Heater" fill="#ffffff" stroke="#000000" style="fill-opacity: 1; stroke-opacity: 1;" transform="matrix(0,-1.1993,1,0,604.0464,392.3788)">
<g class="BoundaryPolygon">
<polygon points="0 0 60 0 60 60 0 60"/>
</g>
<g class="heaterSign">
<path d="M0,0,60,60"/>
<path d="M16.5,24.2,36,43.5"/>
<path d="M24.1,16.6,43.6,36"/>
</g>
<g class="Direction" fill-opacity="0.9" style="display: none;">
<polygon fill="#444444" points="31.509 54.697 31.509 44.081 28.5 44.081 28.5 54.697 24.697 54.697 30 60 35.303 54.697 31.509 54.697"/>
</g>
<g class="Name" fill-opacity="0.9" style="display: none;">

</g>
<desc>Width:60 Height:90 Depth:60 Elevation:0</desc>
</g><g class="FixedFurniture ElectricalAppliance IntegratedStove" fill="#ffffff" stroke="#000000" style="fill-opacity: 1; stroke-opacity: 1;" transform="matrix(0,-1,1,0,603.9064,294.8526)">
<g class="BoundaryPolygon" fill="none" stroke="none">
<polygon points="0.00,0.00 62.52,0.00 62.52,60.00 0.00,60.00 "/>
</g>
<g class="InnerPolygon">
<polygon points="2.00,2.00 60.43,2.00 60.43,58.00 2.00,58.00 "/>
</g>
<g class="OuterCircle">
<circle cx="16.671624992142686" cy="16" r="8"/>
<circle cx="45.84696872839239" cy="16" r="8"/>
<circle cx="16.671624992142686" cy="44" r="8"/>
<circle cx="45.84696872839239" cy="44" r="8"/>
</g>
<g class="Direction" fill-opacity="0.9" style="display: none;">
<polygon fill="#444444" points="33.35,55.20 33.35,44.58 30.34,44.58 30.34,55.20 26.54,55.20 31.84,60.00 37.15,55.20 33.35,55.20 "/>
</g>
<g class="Name" fill-opacity="0.9" style="display: none;">

</g>
<desc>Width:60 Height:90 Depth:30 Elevation:0</desc>
</g><g class="FixedFurniture Sink" fill="#ffffff" stroke="#000000" style="fill-opacity: 1; stroke-opacity: 1;" transform="matrix(1,0,0,1,760.6273,113.3752)">
<g class="BoundaryPolygon" fill="none" stroke="none">
<polygon points="0.00,0.00 67.51,0.00 67.51,60.00 0.00,60.00 "/>
</g>
<g class="InnerPolygon">
<polygon points="5.63,9.70 61.88,9.70 61.88,54.70 5.63,54.70 "/>
</g>
<g class="OuterDrain" stroke-width="0.8">
<circle cx="33.75427876467255" cy="32.2" r="3.5"/>
</g>
<g class="InnerDrain" stroke-width="0.8">
<circle cx="33.75427876467255" cy="32.2" r="2"/>
</g>
<g class="Faucet">
<polygon points="30.38,5.00 36.38,5.00 36.38,19.00 30.38,19.00 "/>
</g>
<g class="Direction" fill-opacity="0.9" style="display: none;">
<polygon fill="#444444" points="36.01,55.20 36.01,44.58 33.01,44.58 33.01,55.20 29.20,55.20 34.51,60.00 39.81,55.20 36.01,55.20 "/>
</g>
<g class="Name" fill-opacity="0.9" style="display: none;">

</g>
<desc>Width:60 Height:90 Depth:60 Elevation:0</desc>
</g><g class="FixedFurniture Toilet" fill="#ffffff" stroke="#000000" style="fill-opacity: 1; stroke-opacity: 1;" transform="matrix(0,1,-1,0,592.9064,478.7654)">
<g class="BoundaryPolygon" fill="none" stroke="none">
<polygon points="0,0 41,0 41,71 0,71"/>
</g>
<g class="InnerPolygon">
<rect height="17.98" width="39.989" x="0.502" y="0.5"/>
<path d="M40.491,44.237S41.619,70.5,20.907,70.5C-.523,70.5.6,44.237.6,44.237L.5,18.48H40.491Z"/>
<rect height="3.03" width="6.357" x="17.318" y="7.975"/>
</g>
<desc>Width:41 Height:85 Depth:71 Elevation:0</desc>
</g><g class="FixedFurniture Shower" fill="#ffffff" stroke="#000000" style="fill-opacity: 1; stroke-opacity: 1;" transform="matrix(1,0,0,1,357.2449,113.3752)">
<g class="BoundaryPolygon" fill="none" stroke="none">
<polygon points="0,0 32,0 32,19 0,19"/>
</g>
<g class="InnerPolygon">
<rect height="6.1" width="11.2" x="3.7" y="0.5"/>
<rect height="6.1" width="11.2" x="17.6" y="0.5"/>
<rect height="6.1" width="3.4" x="28.7" y="0.5"/>
<rect height="6.1" width="3.2" x="0.5" y="0.5"/>
<path d="M14.9,8.5c0,1.5-0.4,3.3-1.6,5    c-0.4,0.6-1,1.1-1.1,1.7c-0.2,1.1,0.3,2.8,2.5,3.2c0.5,0.1,1.3,0.1,1.6,0.1h-0.1c0.3,0,1.1,0,1.6-0.1c2.2-0.4,2.7-2.1,2.5-3.2    c-0.1-0.6-0.7-1.1-1.1-1.7c-1.2-1.7-1.6-3.5-1.6-5"/>
<path d="M12.2,15.3c0.1,0.2,1.6,1.9,4.2,1.9 c2.4-0.1,3.7-1.7,3.9-1.9"/>
<path d="M14.9,0.5h2.7v8c-0.9,0-1.8,0-2.7,0l0,0 C14.9,5.9,14.9,3.2,14.9,0.5z"/>
</g>
<g class="Indicator">
<path d="M3.7,3.6C5,3.1,5.2,3,5.2,3 c0,1.1,0,0,0,1.1C5.2,4.1,5.1,4.1,3.7,3.6"/>
<path d="M28.7,3.6 C27.4,3.1,27.2,3,27.2,3c0,1.1,0,0,0,1.1C27.2,4.1,27.3,4.1,28.7,3.6"/>
</g>
<desc>Width:32 Height:97 Depth:19 Elevation:135</desc>
</g><g class="FixedFurniture BaseCabinet" fill="#ffffff" stroke="#000000" style="fill-opacity: 1; stroke-opacity: 1;" transform="matrix(1,0,0,1,1180.525,113.3753)">
<g class="BoundaryPolygon">
<polygon points="0.00,0.00 289.72,0.00 289.72,60.00 0.00,60.00 "/>
</g>
<g class="Direction" fill-opacity="0.9" style="display: none;">
<polygon fill="#444444" points="154.56,55.20 154.56,44.58 151.55,44.58 151.55,55.20 147.75,55.20 153.05,60.00 158.36,55.20 154.56,55.20 "/>
</g>
<g class="Name" fill-opacity="0.9" style="display: none;">

</g>
<desc>Width:60 Height:90 Depth:60 Elevation:0</desc>
</g><g class="Wall" fill="#000000" id="Wall" stroke="#000000" style="fill-opacity: 1; stroke-opacity: 1; stroke-width: 1;"><polygon points="286.72,91.38 123.98,91.38 123.98,108.38 286.72,108.38 "/></g><g class="Wall" fill="#000000" id="Wall" stroke="#000000" style="fill-opacity: 1; stroke-opacity: 1; stroke-width: 1;"><polygon points="286.72,924.56 123.98,924.56 123.98,907.56 286.72,907.56 "/></g><g class="FixedFurniture ElectricalAppliance" fill="#ffffff" stroke="#000000" style="fill-opacity: 1; stroke-opacity: 1;" transform="matrix(1,0,0,1,478.55,359.609)">
<g class="BoundaryPolygon">
<polygon points="0,0 60,0 60,60 0,60"/>
</g>
<g class="electricitySign" fill="none">
<path d="M0,0,30.1,39.8V19.4L59.9,60"/>
</g>
<g class="Direction" fill-opacity="0.9" style="display: none;">
<polygon fill="#444444" points="32.009 55.197 32.009 44.581 29 44.581 29 55.197 25.197 55.197 30.5 60 35.803 55.197 32.009 55.197"/>
</g>
<g class="Name" fill-opacity="0.9" style="display: none;">

</g>
<desc>Width:60 Height:90 Depth:60 Elevation:0</desc>
</g><g class="FixedFurniture ElectricalAppliance" fill="#ffffff" stroke="#000000" style="fill-opacity: 1; stroke-opacity: 1;" transform="matrix(1,0,0,1,700.6273,113.3753)">
<g class="BoundaryPolygon">
<polygon points="0,0 60,0 60,60 0,60"/>
</g>
<g class="electricitySign" fill="none">
<path d="M0,0,30.1,39.8V19.4L59.9,60"/>
</g>
<g class="Direction" fill-opacity="0.9" style="display: none;">
<polygon fill="#444444" points="32.009 55.197 32.009 44.581 29 44.581 29 55.197 25.197 55.197 30.5 60 35.803 55.197 32.009 55.197"/>
</g>
<g class="Name" fill-opacity="0.9" style="display: none;">

</g>
<desc>Width:60 Height:90 Depth:60 Elevation:0</desc>
</g><g class="Wall" fill="#000000" id="Wall" stroke="#000000" style="fill-opacity: 1; stroke-opacity: 1; stroke-width: 1;"><polygon points="286.72,924.56 286.72,949.46 303.72,949.46 303.72,924.56 "/></g><g class="Wall" fill="#000000" id="Wall" stroke="#000000" style="fill-opacity: 1; stroke-opacity: 1; stroke-width: 1;"><polygon points="597.97,924.56 597.97,950.35 584.97,950.35 584.97,924.56 "/></g><g class="Wall" fill="#000000" id="Wall" stroke="#000000" style="fill-opacity: 1; stroke-opacity: 1; stroke-width: 1;"><polygon points="1120.48,924.56 1120.48,948.09 1108.48,948.09 1108.48,924.56 "/></g><g class="Wall" fill="#000000" id="Wall" stroke="#000000" style="fill-opacity: 1; stroke-opacity: 1; stroke-width: 1;"><polygon points="1492.78,924.56 1492.78,950.35 1480.78,950.35 1480.78,924.56 "/></g><g class="Wall" fill="#000000" id="Wall" stroke="#000000" style="fill-opacity: 1; stroke-opacity: 1; stroke-width: 1;"><polygon points="1492.78,91.38 1492.78,68.69 1481.78,68.69 1481.78,91.38 "/></g><g class="Wall" fill="#000000" id="Wall" stroke="#000000" style="fill-opacity: 1; stroke-opacity: 1; stroke-width: 1;"><polygon points="1120.52,91.38 1120.52,68.66 1108.52,68.66 1108.52,91.38 "/></g><g class="Wall" fill="#000000" id="Wall" stroke="#000000" style="fill-opacity: 1; stroke-opacity: 1; stroke-width: 1;"><polygon points="603.91,91.38 603.91,68.63 592.91,68.63 592.91,91.38 "/></g><g class="Wall" fill="#000000" id="Wall" stroke="#000000" style="fill-opacity: 1; stroke-opacity: 1; stroke-width: 1;"><polygon points="286.72,91.38 286.72,66.33 297.72,66.33 297.72,91.38 "/></g><g class="Wall" fill="#000000" id="Wall" stroke="#000000" style="fill-opacity: 1; stroke-opacity: 1; stroke-width: 1;"><polygon points="286.72,653.02 262.83,653.02 262.83,642.02 286.72,642.02 "/></g><g class="SelectionControls" fill="#0000ff" stroke="#0000ff" style="display: none;"><g class="rotateControl" style="display: none;"><circle cx="880.4928731673422" cy="587.4112142663772" r="5" style="stroke : none; fill-opacity: 0.5; cursor:crosshair"/></g><g class="ResizeNControl" style="display: none;"><circle cx="0" cy="0" r="5" style="stroke : none; fill-opacity: 0.5"/></g><g class="ResizeNEControl" style="display: none;"><circle cx="0" cy="0" r="5" style="stroke : none; fill-opacity: 0.5"/></g><g class="ResizeEControl" style="display: none;"><circle cx="0" cy="0" r="5" style="stroke : none; fill-opacity: 0.5"/></g><g class="ResizeSEControl" style="display: none;"><circle cx="0" cy="0" r="5" style="stroke : none; fill-opacity: 0.5"/></g><g class="ResizeSControl" style="display: none;"><circle cx="0" cy="0" r="5" style="stroke : none; fill-opacity: 0.5"/></g><g class="ResizeSWControl" style="display: none;"><circle cx="0" cy="0" r="5" style="stroke : none; fill-opacity: 0.5"/></g><g class="ResizeWControl" style="display: none;"><circle cx="0" cy="0" r="5" style="stroke : none; fill-opacity: 0.5"/></g><g class="ResizeNWControl" style="display: none;"><circle cx="0" cy="0" r="5" style="stroke : none; fill-opacity: 0.5"/></g><g class="removeControl" style="display: none;"><polygon points="855.12,617.41 905.87,617.41 905.87,657.65 855.12,657.65 " style="stroke : none; fill-opacity: 0.1"/></g><g class="copyPasteControl" style="display: none;"><polygon style="stroke : none; fill-opacity: 0.1"/></g><g class="translateControl" style="display: none;"><polygon points="855.12,617.41 905.87,617.41 905.87,657.65 855.12,657.65 " style="stroke : none; fill-opacity: 0.1; cursor:move"/></g></g><g class="SelectionControls" fill="#0000ff" stroke="#0000ff" style="display: none;"><polygon fill="none" points="597.97,401.33 1108.48,401.33 1108.48,902.89 597.97,902.89 " stroke="#0000ff" style=""/><g class="rotateControl" style="display: none;"><circle cx="853.225172337264" cy="371.3295392663772" r="5" style="stroke : none; fill-opacity: 0.5; cursor:crosshair"/></g><g class="ResizeNControl" style="display: none;"><circle cx="0" cy="0" r="5" style="stroke : none; fill-opacity: 0.5"/></g><g class="ResizeNEControl" style="display: none;"><circle cx="0" cy="0" r="5" style="stroke : none; fill-opacity: 0.5"/></g><g class="ResizeEControl" style="display: none;"><circle cx="0" cy="0" r="5" style="stroke : none; fill-opacity: 0.5"/></g><g class="ResizeSEControl" style="display: none;"><circle cx="0" cy="0" r="5" style="stroke : none; fill-opacity: 0.5"/></g><g class="ResizeSControl" style="display: none;"><circle cx="0" cy="0" r="5" style="stroke : none; fill-opacity: 0.5"/></g><g class="ResizeSWControl" style="display: none;"><circle cx="0" cy="0" r="5" style="stroke : none; fill-opacity: 0.5"/></g><g class="ResizeWControl" style="display: none;"><circle cx="0" cy="0" r="5" style="stroke : none; fill-opacity: 0.5"/></g><g class="ResizeNWControl" style="display: none;"><circle cx="0" cy="0" r="5" style="stroke : none; fill-opacity: 0.5"/></g><g class="removeControl" style="display: none;"><polygon style="stroke : none; fill-opacity: 0.1"/></g><g class="copyPasteControl" style="display: none;"><polygon style="stroke : none; fill-opacity: 0.1"/></g><g class="translateControl" style="display: none;"><polygon style="stroke : none; fill-opacity: 0.1; cursor:move"/></g></g></g></g></g></svg>