<?xml version="1.0" encoding="utf-8"?>
<svg height="737.9600410461426" id="temp" version="1.1" viewBox="0 0 1011.0699768066406 737.9600410461426" width="1011.0699768066406" xmlns="http://www.w3.org/2000/svg" xmlns:xlink="http://www.w3.org/1999/xlink"><desc>Powered by CubiCasa</desc><defs/><g class="Model v1-1" id="Model"><g class="Floor"><g class="Floorplan Floor-1" id="Floor-1" transform="matrix(1,0,0,1,0,0)"><g class="Space Undefined" fill="#ffffff" id="5261e891-6a11-4367-aea5-fa1794defe49" stroke="#ffffff" style="fill-opacity: 1; stroke-opacity: 1; stroke-width: 1;"><polygon points="985.07,429.19 907.42,429.19 907.42,357.59 985.07,357.59 "/><g class="Dimension" transform="matrix(1,0,0,1,907.4239,357.589)"><g class="Visual" style="display: none;" transform="matrix(1,0,0,1,0,0)"><g class="DimensionMark" fill="#000000" id="mark1" stroke="none" style="fill-opacity: 1; pointer-events: visible;" transform="matrix(1,0,0,1,38.824,0)"><polygon points="-5,5,0,0,5,5"/></g><g class="DimensionMark" fill="#000000" id="mark2" stroke="none" style="fill-opacity: 1; pointer-events: visible;" transform="matrix(1,0,0,1,77.648,35.8024)"><polygon points="-5,-5,0,0,-5,5"/></g><g class="DimensionMark" fill="#000000" id="mark3" stroke="none" style="fill-opacity: 1; pointer-events: visible;" transform="matrix(1,0,0,1,38.824,71.6049)"><polygon points="-5,-5,0,0,5,-5"/></g><g class="DimensionMark" fill="#000000" id="mark4" stroke="none" style="fill-opacity: 1; pointer-events: visible;" transform="matrix(1,0,0,1,0,35.8024)"><polygon points="5,5,0,0,5,-5"/></g></g><g class="SpaceDimensionsLabel" transform="matrix(1,0,0,1,35.8025,35.8025)"><g class="TextLabel NameLabel" id="NameLabel" style="display: none;"/><g class="TextLabel DimensionMeasureLabel" id="DimensionMeasureLabel" style="display: none;" transform="matrix(1,0,0,1,-40.5313,79.5938)"/></g></g></g><g class="Space Closet WalkIn" fill="#ffffff" id="387b452b-060f-4896-8c05-739f758bfdbe" stroke="#ffffff" style="fill-opacity: 1; stroke-opacity: 1; stroke-width: 1;"><polygon points="542.11,643.21 359.77,643.21 359.77,524.09 542.11,524.09 "/><g class="Dimension" transform="matrix(1,0,0,1,359.7653,524.0934)"><g class="Visual" style="display: none;" transform="matrix(1,0,0,1,0,0)"><g class="DimensionMark" fill="#000000" id="mark1" stroke="none" style="fill-opacity: 1; pointer-events: visible;" transform="matrix(1,0,0,1,91.1734,0)"><polygon points="-5,5,0,0,5,5"/></g><g class="DimensionMark" fill="#000000" id="mark2" stroke="none" style="fill-opacity: 1; pointer-events: visible;" transform="matrix(1,0,0,1,182.3468,59.5588)"><polygon points="-5,-5,0,0,-5,5"/></g><g class="DimensionMark" fill="#000000" id="mark3" stroke="none" style="fill-opacity: 1; pointer-events: visible;" transform="matrix(1,0,0,1,91.1734,119.1175)"><polygon points="-5,-5,0,0,5,-5"/></g><g class="DimensionMark" fill="#000000" id="mark4" stroke="none" style="fill-opacity: 1; pointer-events: visible;" transform="matrix(1,0,0,1,0,59.5588)"><polygon points="5,5,0,0,5,-5"/></g></g><g class="SpaceDimensionsLabel" transform="matrix(1,0,0,1,61.997,76.0896)"><g class="TextLabel NameLabel" id="NameLabel" style="display: none;"/><g class="TextLabel DimensionMeasureLabel" id="DimensionMeasureLabel" style="display: none;" transform="matrix(1,0,0,1,-116.3359,79.5938)"/></g></g></g><g class="Space Bath" fill="#ffffff" id="d24d994f-ad32-4b65-9ab8-e59c17fe0c81" stroke="#ffffff" style="fill-opacity: 1; stroke-opacity: 1; stroke-width: 1;"><polygon points="896.42,513.95 717.09,513.95 717.09,357.59 896.42,357.59 "/><g class="Dimension" transform="matrix(1,0,0,1,717.0949,357.589)"><g class="Visual" style="display: none;" transform="matrix(1,0,0,1,0,0)"><g class="DimensionMark" fill="#000000" id="mark1" stroke="none" style="fill-opacity: 1; pointer-events: visible;" transform="matrix(1,0,0,1,89.6645,0)"><polygon points="-5,5,0,0,5,5"/></g><g class="DimensionMark" fill="#000000" id="mark2" stroke="none" style="fill-opacity: 1; pointer-events: visible;" transform="matrix(1,0,0,1,179.3291,78.1817)"><polygon points="-5,-5,0,0,-5,5"/></g><g class="DimensionMark" fill="#000000" id="mark3" stroke="none" style="fill-opacity: 1; pointer-events: visible;" transform="matrix(1,0,0,1,89.6645,156.3634)"><polygon points="-5,-5,0,0,5,-5"/></g><g class="DimensionMark" fill="#000000" id="mark4" stroke="none" style="fill-opacity: 1; pointer-events: visible;" transform="matrix(1,0,0,1,0,78.1817)"><polygon points="5,5,0,0,5,-5"/></g></g><g class="SpaceDimensionsLabel" transform="matrix(1,0,0,1,69.8689,102.6773)"><g class="TextLabel NameLabel" id="NameLabel" style="display: none;"/><g class="TextLabel DimensionMeasureLabel" id="DimensionMeasureLabel" style="display: none;" transform="matrix(1,0,0,1,-106.2266,79.5938)"/></g></g></g><g class="Space Kitchen Kitchenette" fill="#ffffff" id="39a05b19-140f-4187-98be-d5743525b719" stroke="#ffffff" style="fill-opacity: 1; stroke-opacity: 1; stroke-width: 1;"><polygon points="985.07,346.59 717.09,346.59 717.09,138.09 985.07,138.09 "/><g class="Dimension" transform="matrix(1,0,0,1,717.0949,138.0935)"><g class="Visual" style="display: none;" transform="matrix(1,0,0,1,0,0)"><g class="DimensionMark" fill="#000000" id="mark1" stroke="none" style="fill-opacity: 1; pointer-events: visible;" transform="matrix(1,0,0,1,133.9885,0)"><polygon points="-5,5,0,0,5,5"/></g><g class="DimensionMark" fill="#000000" id="mark2" stroke="none" style="fill-opacity: 1; pointer-events: visible;" transform="matrix(1,0,0,1,267.9771,104.2478)"><polygon points="-5,-5,0,0,-5,5"/></g><g class="DimensionMark" fill="#000000" id="mark3" stroke="none" style="fill-opacity: 1; pointer-events: visible;" transform="matrix(1,0,0,1,133.9885,208.4955)"><polygon points="-5,-5,0,0,5,-5"/></g><g class="DimensionMark" fill="#000000" id="mark4" stroke="none" style="fill-opacity: 1; pointer-events: visible;" transform="matrix(1,0,0,1,0,104.2478)"><polygon points="5,5,0,0,5,-5"/></g></g><g class="SpaceDimensionsLabel" transform="matrix(1,0,0,1,109.4249,125.4268)"><g class="TextLabel NameLabel" id="NameLabel" style="display: none;"/><g class="TextLabel DimensionMeasureLabel" id="DimensionMeasureLabel" style="display: none;" transform="matrix(1,0,0,1,-116.9766,79.5938)"/></g></g></g><g class="Space Entry Lobby" fill="#ffffff" id="5dd7cbd3-a92b-4167-b6a9-2cb1f81d608a" stroke="#ffffff" style="fill-opacity: 1; stroke-opacity: 1; stroke-width: 1;"><polygon points="985.07,643.21 553.11,643.21 553.11,524.09 689.98,524.95 821.42,524.95 907.42,525.11 907.42,458.83 985.07,458.83 "/><g class="Dimension" transform="matrix(1,0,0,1,553.1121,524.9525)"><g class="Visual" style="display: none;" transform="matrix(1,0,0,1,0,0)"><g class="DimensionMark" fill="#000000" id="mark1" stroke="none" style="fill-opacity: 1; pointer-events: visible;" transform="matrix(1,0,0,1,215.9799,0)"><polygon points="-5,5,0,0,5,5"/></g><g class="DimensionMark" fill="#000000" id="mark2" stroke="none" style="fill-opacity: 1; pointer-events: visible;" transform="matrix(1,0,0,1,431.9598,26.0691)"><polygon points="-5,-5,0,0,-5,5"/></g><g class="DimensionMark" fill="#000000" id="mark3" stroke="none" style="fill-opacity: 1; pointer-events: visible;" transform="matrix(1,0,0,1,215.9799,118.2585)"><polygon points="-5,-5,0,0,5,-5"/></g><g class="DimensionMark" fill="#000000" id="mark4" stroke="none" style="fill-opacity: 1; pointer-events: visible;" transform="matrix(1,0,0,1,0,26.0691)"><polygon points="5,5,0,0,5,-5"/></g></g><g class="SpaceDimensionsLabel" transform="matrix(1,0,0,1,226.3198,80.2291)"><g class="TextLabel NameLabel" id="NameLabel" style="display: none;"/><g class="TextLabel DimensionMeasureLabel" id="DimensionMeasureLabel" style="display: none;" transform="matrix(1,0,0,1,-119.1797,79.5938)"/></g></g></g><g class="Space LivingRoom" fill="#ffffff" id="6daa9a94-46c1-42ee-a03f-6faec633ee42" stroke="#ffffff" style="fill-opacity: 1; stroke-opacity: 1; stroke-width: 1;"><polygon points="706.09,513.95 689.98,513.95 689.98,524.95 553.11,524.09 553.11,513.09 348.77,513.09 348.77,643.21 85.47,643.21 85.47,201.62 706.09,201.02 "/><g class="Dimension" transform="matrix(1,0,0,1,85.4652,201.3213)"><g class="Visual" style="display: none;" transform="matrix(1,0,0,1,0,0)"><g class="DimensionMark" fill="#000000" id="mark1" stroke="none" style="fill-opacity: 1; pointer-events: visible;" transform="matrix(1,0,0,1,263.3002,0)"><polygon points="-5,5,0,0,5,5"/></g><g class="DimensionMark" fill="#000000" id="mark2" stroke="none" style="fill-opacity: 1; pointer-events: visible;" transform="matrix(1,0,0,1,620.6297,220.7937)"><polygon points="-5,-5,0,0,-5,5"/></g><g class="DimensionMark" fill="#000000" id="mark3" stroke="none" style="fill-opacity: 1; pointer-events: visible;" transform="matrix(1,0,0,1,263.3002,441.8897)"><polygon points="-5,-5,0,0,5,-5"/></g><g class="DimensionMark" fill="#000000" id="mark4" stroke="none" style="fill-opacity: 1; pointer-events: visible;" transform="matrix(1,0,0,1,0,220.7937)"><polygon points="5,5,0,0,5,-5"/></g></g><g class="SpaceDimensionsLabel" transform="matrix(1,0,0,1,277.643,191.2901)"><g class="TextLabel NameLabel" id="NameLabel" style="display: none;"/><g class="TextLabel DimensionMeasureLabel" id="DimensionMeasureLabel" style="display: none;" transform="matrix(1,0,0,1,-114.625,79.5938)"/></g></g></g><g class="Space Undefined" fill="#ffffff" id="0928ff4f-e7dd-463c-a483-7285391dfb03" stroke="#ffffff" style="fill-opacity: 1; stroke-opacity: 1; stroke-width: 1;"><polygon points="907.42,525.11 821.42,524.95 907.42,524.95 "/><g class="Dimension" transform="matrix(1,0,0,1,821.424,524.9525)"><g class="Visual" style="display: none;" transform="matrix(1,0,0,1,0,0)"><g class="DimensionMark" fill="#000000" id="mark1" stroke="none" style="fill-opacity: 1; pointer-events: visible;" transform="matrix(1,0,0,1,43,0)"><polygon points="-5,5,0,0,5,5"/></g><g class="DimensionMark" fill="#000000" id="mark2" stroke="none" style="fill-opacity: 1; pointer-events: visible;" transform="matrix(1,0,0,1,85.9999,0)"><polygon points="-5,-5,0,0,-5,5"/></g><g class="DimensionMark" fill="#000000" id="mark3" stroke="none" style="fill-opacity: 1; pointer-events: visible;" transform="matrix(1,0,0,1,43,0.0783)"><polygon points="-5,-5,0,0,5,-5"/></g><g class="DimensionMark" fill="#000000" id="mark4" stroke="none" style="fill-opacity: 1; pointer-events: visible;" transform="matrix(1,0,0,1,0,0)"><polygon points="5,5,0,0,5,-5"/></g></g><g class="SpaceDimensionsLabel" transform="matrix(1,0,0,1,85.7855,0.0784)"><g class="TextLabel NameLabel" id="NameLabel" style="display: none;"/><g class="TextLabel DimensionMeasureLabel" id="DimensionMeasureLabel" style="display: none;" transform="matrix(1,0,0,1,-40.5313,79.5938)"/></g></g></g><g class="Space Undefined" fill="#ffffff" id="13eef51a-6a01-4277-8b96-3a013926f373" stroke="#ffffff" style="fill-opacity: 1; stroke-opacity: 1; stroke-width: 1;"><polygon points="985.07,458.83 907.42,458.83 907.42,458.79 985.07,458.79 "/><g class="Dimension" transform="matrix(1,0,0,1,907.4239,458.7854)"><g class="Visual" style="display: none;" transform="matrix(1,0,0,1,0,0)"><g class="DimensionMark" fill="#000000" id="mark1" stroke="none" style="fill-opacity: 1; pointer-events: visible;" transform="matrix(1,0,0,1,38.824,0)"><polygon points="-5,5,0,0,5,5"/></g><g class="DimensionMark" fill="#000000" id="mark2" stroke="none" style="fill-opacity: 1; pointer-events: visible;" transform="matrix(1,0,0,1,77.648,0.0234)"><polygon points="-5,-5,0,0,-5,5"/></g><g class="DimensionMark" fill="#000000" id="mark3" stroke="none" style="fill-opacity: 1; pointer-events: visible;" transform="matrix(1,0,0,1,38.824,0.0469)"><polygon points="-5,-5,0,0,5,-5"/></g><g class="DimensionMark" fill="#000000" id="mark4" stroke="none" style="fill-opacity: 1; pointer-events: visible;" transform="matrix(1,0,0,1,0,0.0234)"><polygon points="5,5,0,0,5,-5"/></g></g><g class="SpaceDimensionsLabel" transform="matrix(1,0,0,1,0.0235,0.0235)"><g class="TextLabel NameLabel" id="NameLabel" style="display: none;"/><g class="TextLabel DimensionMeasureLabel" id="DimensionMeasureLabel" style="display: none;" transform="matrix(1,0,0,1,-40.5313,79.5938)"/></g></g></g><g class="Space Outdoor Balcony" fill="#ffffff" id="78bd6c99-1cc0-43fb-971f-be642b4b230a" stroke="#000000" style="stroke-width: 1; fill-opacity: 1; stroke-opacity: 1;"><polygon points="64.47,176.64 64.47,112.24 83.02,112.24 83.02,54.48 695.17,54.48 695.17,116.09 679.09,116.09 679.43,176.09 64.47,176.64 64.47,176.64 "/><g class="Dimension" transform="matrix(1,0,0,1,64.4652,54.4785)"><g class="Visual" style="display: none;" transform="matrix(1,0,0,1,0,0)"><g class="DimensionMark" fill="#000000" id="mark1" stroke="none" style="fill-opacity: 1; pointer-events: visible;" transform="matrix(1,0,0,1,315.3518,0)"><polygon points="-5,5,0,0,5,5"/></g><g class="DimensionMark" fill="#000000" id="mark2" stroke="none" style="fill-opacity: 1; pointer-events: visible;" transform="matrix(1,0,0,1,630.7041,61.0826)"><polygon points="-5,-5,0,0,-5,5"/></g><g class="DimensionMark" fill="#000000" id="mark3" stroke="none" style="fill-opacity: 1; pointer-events: visible;" transform="matrix(1,0,0,1,315.3518,121.8798)"><polygon points="-5,-5,0,0,5,-5"/></g><g class="DimensionMark" fill="#000000" id="mark4" stroke="none" style="fill-opacity: 1; pointer-events: visible;" transform="matrix(1,0,0,1,0,61.0826)"><polygon points="5,5,0,0,5,-5"/></g></g><g class="SpaceDimensionsLabel" transform="matrix(1,0,0,1,260.2659,43.8304)"><g class="TextLabel NameLabel" id="NameLabel" style="display: none;"/><g class="TextLabel DimensionMeasureLabel" id="DimensionMeasureLabel" style="display: none;" transform="matrix(1,0,0,1,-64.1328,79.5938)"/></g></g></g><g class="Wall External" fill="#000000" id="Wall" stroke="#000000" style="fill-opacity: 1; stroke-opacity: 1; stroke-width: 1;"><polygon points="64.47,176.64 64.47,664.21 85.47,643.21 85.47,201.62 "/></g><g class="Wall External" fill="#000000" id="Wall" stroke="#000000" style="fill-opacity: 1; stroke-opacity: 1; stroke-width: 1;"><polygon points="64.47,664.21 1006.07,664.21 985.07,643.21 85.47,643.21 "/><g class="Door Swing Opposite" fill="#ffffff" id="Door" stroke="#000000" style="fill-opacity: 1; stroke-width: 1; stroke-opacity: 1;"><polygon points="844.05,664.21 917.80,664.21 917.80,643.21 844.05,643.21 "/><g class="Panel Right Negative" fill="none" id="Panel" style=""><g class="PanelArea" fill="none" id="PanelArea" stroke="none" style=""><polygon points="844.05,664.21 917.80,664.21 917.80,643.21 844.05,643.21 "/></g><path d="M917.80,664.21 q0.00,73.75 -73.75,73.75 l0.00,-73.75Z"/></g><g class="Panel Right Positive" fill="none" id="Panel" style=""><g class="PanelArea" fill="none" id="PanelArea" stroke="none" style=""><polygon points="844.05,664.21 917.80,664.21 917.80,643.21 844.05,643.21 "/></g><path d="M844.05,643.21 q0.00,-73.75 73.75,-73.75 l0.00,73.75Z"/></g></g></g><g class="Wall External" fill="#000000" id="Wall" stroke="#000000" style="fill-opacity: 1; stroke-opacity: 1; stroke-width: 1;"><polygon points="1006.07,664.21 1006.07,116.09 985.07,138.09 985.07,643.21 "/></g><g class="Wall External" fill="#000000" id="Wall" stroke="#000000" style="fill-opacity: 1; stroke-opacity: 1; stroke-width: 1;"><polygon points="1006.07,116.09 679.09,116.09 717.09,138.09 985.07,138.09 "/><g class="Window Regular" fill="#f0f0ff" id="Window" stroke="#000000" style="fill-opacity: 1; stroke-width: 1; stroke-opacity: 1;"><polygon points="981.58,116.09 717.15,116.09 717.15,138.09 981.58,138.09 "/><g class="Glass" id="Glass"><polygon points="981.58,116.09 717.15,116.09 717.15,138.09 981.58,138.09 "/></g><g class="Panel" id="Panel"><line x1="974.0800170898438" x2="724.6500244140625" y1="127.08999633789062" y2="127.08999633789062"/><line x1="974.0800170898438" x2="974.0800170898438" y1="116.08999633789062" y2="138.08999633789062"/><line x1="724.6500244140625" x2="724.6500244140625" y1="116.08999633789062" y2="138.08999633789062"/></g></g></g><g class="Wall External" fill="#000000" id="Wall" stroke="#000000" style="fill-opacity: 1; stroke-opacity: 1; stroke-width: 1;"><polygon points="679.09,116.09 679.09,176.06 717.09,201.02 717.09,138.09 "/></g><g class="Wall External" fill="#000000" id="Wall" stroke="#000000" style="fill-opacity: 1; stroke-opacity: 1; stroke-width: 1;"><polygon points="679.09,176.06 64.47,176.64 85.47,201.62 717.09,201.02 "/><g class="Door Swing Opposite" fill="#ffffff" id="Door" stroke="#000000" style="fill-opacity: 1; stroke-width: 1; stroke-opacity: 1;"><polygon points="444.64,176.28 372.73,176.35 372.76,201.35 444.67,201.28 "/><g class="Panel Right Negative" fill="none" id="Panel" style=""><g class="PanelArea" fill="none" id="PanelArea" stroke="none" style=""><polygon points="444.64,176.28 372.73,176.35 372.76,201.35 444.67,201.28 "/></g><path d="M372.73,176.35 q-0.09,-71.91 71.82,-71.98 l0.09,71.91Z"/></g><g class="Panel Left Positive" fill="none" id="Panel" style=""><g class="PanelArea" fill="none" id="PanelArea" stroke="none" style=""><polygon points="444.64,176.28 372.73,176.35 372.76,201.35 444.67,201.28 "/></g><path d="M372.76,201.35 q0.09,71.91 72.00,71.84 l-0.09,-71.91Z"/></g></g><g class="Window Regular" fill="#f0f0ff" id="Window" stroke="#000000" style="fill-opacity: 1; stroke-width: 1; stroke-opacity: 1;"><polygon points="356.52,176.36 106.64,176.60 106.67,201.60 356.55,201.36 "/><g class="Glass" id="Glass"><polygon points="356.52,176.36 106.64,176.60 106.67,201.60 356.55,201.36 "/></g><g class="Panel" id="Panel"><line x1="349.0349918627967" x2="114.15499531982044" y1="188.86720422986164" y2="189.09280248400552"/><line x1="349.01999247314825" x2="349.0499912524451" y1="176.36720422986164" y2="201.36720422986164"/><line x1="114.13999593017203" x2="114.16999470946891" y1="176.59280248400555" y2="201.59280248400555"/></g></g><g class="Window Regular" fill="#f0f0ff" id="Window" stroke="#000000" style="fill-opacity: 1; stroke-width: 1; stroke-opacity: 1;"><polygon points="673.73,176.06 467.04,176.26 467.06,201.26 673.75,201.06 "/><g class="Glass" id="Glass"><polygon points="673.73,176.06 467.04,176.26 467.06,201.26 673.75,201.06 "/></g><g class="Panel" id="Panel"><line x1="666.2399937454402" x2="474.5500147994818" y1="188.56725469059515" y2="188.75273737483457"/><line x1="666.2299839798152" x2="666.2500035110652" y1="176.06725469059515" y2="201.06725469059515"/><line x1="474.54000503385674" x2="474.5599940475286" y1="176.25273737483454" y2="201.25273737483454"/></g></g></g><g class="Wall" fill="#000000" id="Wall" stroke="#000000" style="fill-opacity: 1; stroke-opacity: 1; stroke-width: 1;"><polygon points="348.77,664.21 348.77,513.09 359.77,524.09 359.77,664.21 "/></g><g class="Wall" fill="#000000" id="Wall" stroke="#000000" style="fill-opacity: 1; stroke-opacity: 1; stroke-width: 1;"><polygon points="348.77,513.09 553.11,513.09 542.11,524.09 359.77,524.09 "/></g><g class="Wall" fill="#000000" id="Wall" stroke="#000000" style="fill-opacity: 1; stroke-opacity: 1; stroke-width: 1;"><polygon points="553.11,513.09 553.11,664.21 542.11,664.21 542.11,524.09 "/><g class="Door Swing Beside" fill="#ffffff" id="Door" stroke="#000000" style="fill-opacity: 1; stroke-width: 1; stroke-opacity: 1;"><polygon points="553.11,529.92 553.11,586.07 542.11,586.07 542.11,529.92 "/><g class="Panel Right Negative" fill="none" id="Panel" style=""><g class="PanelArea" fill="none" id="PanelArea" stroke="none" style=""><polygon points="553.11,529.92 553.11,586.07 542.11,586.07 542.11,529.92 "/></g><path d="M553.11,586.07 q56.15,0.00 56.15,-56.15 l-56.15,0.00Z"/></g></g></g><g class="Wall" fill="#000000" id="Wall" stroke="#000000" style="fill-opacity: 1; stroke-opacity: 1; stroke-width: 1;"><polygon points="717.09,201.02 717.09,357.59 706.09,357.59 706.09,201.02 "/><g class="Door Slide Beside" fill="#ffffff" id="Door" stroke="#000000" style="fill-opacity: 1; stroke-width: 1; stroke-opacity: 1;"><polygon points="717.09,202.94 717.09,275.57 706.09,275.57 706.09,202.94 "/><g class="Panel Left Positive" id="Panel"><g class="PanelArea" fill="none" id="PanelArea" stroke="none" style=""><polygon points="717.09,202.94 717.09,275.57 706.09,275.57 706.09,202.94 "/></g><path d="M702.09,239.26 L698.09,239.26 L698.09,311.89 L702.09,311.89  Z"/></g></g></g><g class="Wall" fill="#000000" id="Wall" stroke="#000000" style="fill-opacity: 1; stroke-opacity: 1; stroke-width: 1;"><polygon points="717.09,357.59 1006.07,357.59 1006.07,346.59 717.09,346.59 "/><g class="WallPropertyControl" fill="#0000ff" stroke="#0000ff" style=""><g class="translateControl" style="display: block;"><polygon points="717.09,357.59 1006.07,357.59 1006.07,346.59 717.09,346.59 " style="stroke : none; fill-opacity: 0.1; cursor:move"/></g><g class="ResizeNControl" style="display: block;"><circle cx="861.5800170898438" cy="357.5899963378906" r="5" style="stroke: none; fill-opacity: 0.5; cursor: s-resize;"/></g><g class="ResizeEControl" style="display: block;"><circle cx="1006.0700073242188" cy="352.0899963378906" r="5" style="stroke: none; fill-opacity: 0.5; cursor: w-resize;"/></g><g class="ResizeSControl" style="display: block;"><circle cx="861.5800170898438" cy="346.5899963378906" r="5" style="stroke: none; fill-opacity: 0.5; cursor: n-resize;"/></g><g class="ResizeWControl" style="display: none;"><circle cx="896.4199829101562" cy="408.40488603014535" r="5" style="stroke: none; fill-opacity: 0.5; cursor: e-resize;"/></g><g class="wallNormalFlipControl"><polygon style="stroke : none; fill-opacity: 0.1"/></g><g class="wallDepthControl"><polygon style="stroke : none; fill-opacity: 0.1"/></g></g></g><g class="Wall" fill="#000000" id="Wall" stroke="#000000" style="fill-opacity: 1; stroke-opacity: 1; stroke-width: 1;"><polygon points="689.98,524.95 907.42,524.95 896.42,513.95 689.98,513.95 "/><g class="Door Swing Beside" fill="#ffffff" id="Door" stroke="#000000" style="fill-opacity: 1; stroke-width: 1; stroke-opacity: 1;"><polygon points="816.50,524.95 882.65,524.95 882.65,513.95 816.50,513.95 "/><g class="Panel Left Negative" fill="none" id="Panel" style=""><g class="PanelArea" fill="none" id="PanelArea" stroke="none" style=""><polygon points="816.50,524.95 882.65,524.95 882.65,513.95 816.50,513.95 "/></g><path d="M816.50,524.95 q0.00,66.15 66.15,66.15 l0.00,-66.15Z"/></g></g></g><g class="Wall" fill="#000000" id="Wall" stroke="#000000" style="fill-opacity: 1; stroke-opacity: 1; stroke-width: 1;"><polygon points="907.42,524.95 907.42,346.59 896.42,346.59 896.42,513.95 "/></g><g class="Wall" fill="#000000" id="Wall" stroke="#000000" style="fill-opacity: 1; stroke-opacity: 1; stroke-width: 1;"><polygon points="706.09,357.59 706.09,524.95 717.09,524.95 717.09,357.59 "/></g><g class="Wall" fill="#000000" id="Wall" stroke="#000000" style="fill-opacity: 1; stroke-opacity: 1; stroke-width: 1;"><polygon points="64.47,176.64 64.47,112.24 101.47,112.24 101.47,176.64 "/></g><g class="Wall" fill="#000000" id="Wall" stroke="#000000" style="fill-opacity: 1; stroke-opacity: 1; stroke-width: 1;"><polygon points="896.42,458.79 1006.07,458.79 1006.07,358.02 896.42,358.02 "/></g><g class="Railing" fill="#ffffff" id="Railing" stroke="#000000" style="fill-opacity: 1; stroke-opacity: 1; stroke-width: 1;"><polygon points="83.02,112.24 83.02,54.48 93.02,64.48 93.02,112.24 " style="stroke-dasharray: 57.76, 14.1421, 57.76;"/></g><g class="Railing" fill="#ffffff" id="Railing" stroke="#000000" style="fill-opacity: 1; stroke-opacity: 1; stroke-width: 1;"><polygon points="93.02,64.48 685.17,64.48 695.17,54.48 83.02,54.48 " style="stroke-dasharray: 592.15, 14.1421, 612.15, 14.1421;"/></g><g class="Railing" fill="#ffffff" id="Railing" stroke="#000000" style="fill-opacity: 1; stroke-opacity: 1; stroke-width: 1;"><polygon points="685.17,64.48 685.17,116.09 695.17,116.09 695.17,54.48 " style="stroke-dasharray: 123.22, 14.1421;"/></g><g class="FixedFurnitureSet" id="FixedFurnitureSet" transform="matrix(1,0,0,1,772.3212,357.589)"><g class="FixedFurniture BaseCabinet" fill="#ffffff" stroke="#000000" style="fill-opacity: 1; stroke-opacity: 1;" transform="matrix(1,0,0,1,0,0)">
<g class="BoundaryPolygon">
<polygon points="0.00,0.00 60.00,0.00 60.00,37.45 0.00,37.45 "/>
</g>
<g class="Direction" fill-opacity="0.9" style="display: none;">
<polygon fill="#444444" points="32.01,34.45 32.01,23.84 29.00,23.84 29.00,34.45 25.20,34.45 30.50,39.26 35.80,34.45 32.01,34.45 "/>
</g>
<g class="Name" fill-opacity="0.9" style="display: none;">

</g>
<desc>Width:60 Height:5 Depth:60 Elevation:105</desc>
</g><g class="FixedFurniture Sink" fill="#ffffff" stroke="#000000" style="fill-opacity: 1; stroke-opacity: 1;" transform="matrix(1,0,0,1,0,0)">
<g class="BoundaryPolygon" fill="none" stroke="none">
<polygon points="0.00,0.00 60.00,0.00 60.00,37.45 0.00,37.45 "/>
</g>
<g class="InnerPolygon">
<polygon points="5.00,9.70 55.00,9.70 55.00,34.14 5.00,34.14 "/>
</g>
<g class="OuterDrain" stroke-width="0.8">
<circle cx="30" cy="20.099824479983646" r="3.5"/>
</g>
<g class="InnerDrain" stroke-width="0.8">
<circle cx="30" cy="20.099824479983646" r="2"/>
</g>
<g class="Faucet">
<polygon points="27.00,3.12 33.00,3.12 33.00,17.12 27.00,17.12 "/>
</g>
<g class="Direction" fill-opacity="0.9" style="display: none;">
<polygon fill="#444444" points="32.01,34.45 32.01,23.84 29.00,23.84 29.00,34.45 25.20,34.45 30.50,39.26 35.80,34.45 32.01,34.45 "/>
</g>
<g class="Name" fill-opacity="0.9" style="display: none;">

</g>
<desc>Width:60 Height:90 Depth:60 Elevation:0</desc>
</g></g><g class="FixedFurniture Toilet" fill="#ffffff" stroke="#000000" style="fill-opacity: 1; stroke-opacity: 1;" transform="matrix(1,0,0,1,847.1032,357.589)">
<g class="BoundaryPolygon" fill="none" stroke="none">
<polygon points="0,0 41,0 41,71 0,71"/>
</g>
<g class="InnerPolygon">
<rect height="17.98" width="39.989" x="0.502" y="0.5"/>
<path d="M40.491,44.237S41.619,70.5,20.907,70.5C-.523,70.5.6,44.237.6,44.237L.5,18.48H40.491Z"/>
<rect height="3.03" width="6.357" x="17.318" y="7.975"/>
</g>
<desc>Width:41 Height:85 Depth:71 Elevation:0</desc>
</g><g class="FixedFurniture Shower" fill="#ffffff" stroke="#000000" style="fill-opacity: 1; stroke-opacity: 1;" transform="matrix(-1,0,0,-1,761.052,513.9524)">
<g class="BoundaryPolygon" fill="none" stroke="none">
<polygon points="0,0 32,0 32,19 0,19"/>
</g>
<g class="InnerPolygon">
<rect height="6.1" width="11.2" x="3.7" y="0.5"/>
<rect height="6.1" width="11.2" x="17.6" y="0.5"/>
<rect height="6.1" width="3.4" x="28.7" y="0.5"/>
<rect height="6.1" width="3.2" x="0.5" y="0.5"/>
<path d="M14.9,8.5c0,1.5-0.4,3.3-1.6,5    c-0.4,0.6-1,1.1-1.1,1.7c-0.2,1.1,0.3,2.8,2.5,3.2c0.5,0.1,1.3,0.1,1.6,0.1h-0.1c0.3,0,1.1,0,1.6-0.1c2.2-0.4,2.7-2.1,2.5-3.2    c-0.1-0.6-0.7-1.1-1.1-1.7c-1.2-1.7-1.6-3.5-1.6-5"/>
<path d="M12.2,15.3c0.1,0.2,1.6,1.9,4.2,1.9 c2.4-0.1,3.7-1.7,3.9-1.9"/>
<path d="M14.9,0.5h2.7v8c-0.9,0-1.8,0-2.7,0l0,0 C14.9,5.9,14.9,3.2,14.9,0.5z"/>
</g>
<g class="Indicator">
<path d="M3.7,3.6C5,3.1,5.2,3,5.2,3 c0,1.1,0,0,0,1.1C5.2,4.1,5.1,4.1,3.7,3.6"/>
<path d="M28.7,3.6 C27.4,3.1,27.2,3,27.2,3c0,1.1,0,0,0,1.1C27.2,4.1,27.3,4.1,28.7,3.6"/>
</g>
<desc>Width:32 Height:97 Depth:19 Elevation:135</desc>
</g><g class="FixedFurniture BaseCabinet" fill="#ffffff" stroke="#000000" style="fill-opacity: 1; stroke-opacity: 1;" transform="matrix(1,0,0,1,717.0949,138.0935)">
<g class="BoundaryPolygon">
<polygon points="0.00,0.00 268.15,0.00 268.15,60.00 0.00,60.00 "/>
</g>
<g class="Direction" fill-opacity="0.9" style="display: none;">
<polygon fill="#444444" points="143.05,55.20 143.05,44.58 140.04,44.58 140.04,55.20 136.24,55.20 141.54,60.00 146.85,55.20 143.05,55.20 "/>
</g>
<g class="Name" fill-opacity="0.9" style="display: none;">

</g>
<desc>Width:60 Height:90 Depth:60 Elevation:0</desc>
</g><g class="FixedFurniture Closet" fill="#ffffff" stroke="#000000" style="fill-opacity: 1; stroke-opacity: 1;" transform="matrix(-1,0,0,-1,750.7749,346.589)">
<g class="BoundaryPolygon">
<polygon points="0.00,0.00 33.68,0.00 33.68,60.00 0.00,60.00 "/>
</g>
<g class="Direction" fill-opacity="0.9" style="display: none;">
<polygon fill="#444444" points="17.68,54.70 17.68,44.08 14.68,44.08 14.68,54.70 10.87,54.70 16.18,60.00 21.48,54.70 17.68,54.70 "/>
</g>
<g class="Name" fill-opacity="0.9" style="display: none;">

</g>
<desc>Width:60 Height:200 Depth:60 Elevation:0</desc>
</g><g class="FixedFurniture ElectricalAppliance Refrigerator" fill="#ffffff" stroke="#000000" style="fill-opacity: 1; stroke-opacity: 1;" transform="matrix(-1,0,0,-1,810.7749,346.589)">
<g class="BoundaryPolygon">
<polygon points="0,0 60,0 60,60 0,60"/>
</g>
<g class="electricitySign" fill="none">
<path d="M0,0,30,37.1v-18L60,56.3"/>
</g>
<g class="Doors">
<rect height="4" width="60" y="56"/>
</g>
<g class="Direction" fill-opacity="0.9" style="display: none;">
<polygon fill="#444444" points="32.009 55.197 32.009 44.581 29 44.581 29 55.197 25.197 55.197 30.5 60 35.803 55.197 32.009 55.197"/>
</g>
<g class="Name" fill-opacity="0.9" style="display: none;">

</g>
<desc>Width:60 Height:170 Depth:60 Elevation:0</desc>
</g><g class="FixedFurniture BaseCabinet" fill="#ffffff" stroke="#000000" style="fill-opacity: 1; stroke-opacity: 1;" transform="matrix(-1,0,0,-1,985.3949,346.589)">
<g class="BoundaryPolygon">
<polygon points="0.00,0.00 174.62,0.00 174.62,60.00 0.00,60.00 "/>
</g>
<g class="Direction" fill-opacity="0.9" style="display: none;">
<polygon fill="#444444" points="93.16,55.20 93.16,44.58 90.15,44.58 90.15,55.20 86.35,55.20 91.65,60.00 96.95,55.20 93.16,55.20 "/>
</g>
<g class="Name" fill-opacity="0.9" style="display: none;">

</g>
<desc>Width:60 Height:90 Depth:60 Elevation:0</desc>
</g><g class="FixedFurniture ElectricalAppliance SpaceForAppliance" fill="#ffffff" stroke="#000000" style="fill-opacity: 1; stroke-opacity: 1;" transform="matrix(-0.9634,0,0,-1,868.5789,346.589)">
<g class="BoundaryPolygon">
<polygon points="0,0 60,0 60,60 0,60"/>
</g>
<g class="electricitySign" fill="none">
<path d="M0,0,30.1,39.8V19.4L59.9,60"/>
</g>
<g class="Direction" fill-opacity="0.9" style="display: none;">
<polygon fill="#444444" points="32.009 55.197 32.009 44.581 29 44.581 29 55.197 25.197 55.197 30.5 60 35.803 55.197 32.009 55.197"/>
</g>
<g class="Name" fill-opacity="0.9" style="display: none;">

</g>
<desc>Width:60 Height:90 Depth:60 Elevation:0</desc>
</g><g class="FixedFurniture Sink" fill="#ffffff" stroke="#000000" style="fill-opacity: 1; stroke-opacity: 1;" transform="matrix(-1,0,0,-1,924.4069,347.1374)">
<g class="BoundaryPolygon" fill="none" stroke="none">
<polygon points="0.00,0.00 55.61,0.00 55.61,60.00 0.00,60.00 "/>
</g>
<g class="InnerPolygon">
<polygon points="4.63,9.70 50.98,9.70 50.98,54.70 4.63,54.70 "/>
</g>
<g class="OuterDrain" stroke-width="0.8">
<circle cx="27.806267422941545" cy="32.2" r="3.5"/>
</g>
<g class="InnerDrain" stroke-width="0.8">
<circle cx="27.806267422941545" cy="32.2" r="2"/>
</g>
<g class="Faucet">
<polygon points="25.03,5.00 31.03,5.00 31.03,19.00 25.03,19.00 "/>
</g>
<g class="Direction" fill-opacity="0.9" style="display: none;">
<polygon fill="#444444" points="29.67,55.20 29.67,44.58 26.66,44.58 26.66,55.20 22.86,55.20 28.16,60.00 33.46,55.20 29.67,55.20 "/>
</g>
<g class="Name" fill-opacity="0.9" style="display: none;">

</g>
<desc>Width:60 Height:90 Depth:60 Elevation:0</desc>
</g><g class="FixedFurniture ElectricalAppliance IntegratedStove" fill="#ffffff" stroke="#000000" style="fill-opacity: 1; stroke-opacity: 1;" transform="matrix(-1,0,0,-1,987.7786,348.3822)">
<g class="BoundaryPolygon" fill="none" stroke="none">
<polygon points="0.00,0.00 62.84,0.00 62.84,63.73 0.00,63.73 "/>
</g>
<g class="InnerPolygon">
<polygon points="2.00,2.00 60.75,2.00 60.75,61.61 2.00,61.61 "/>
</g>
<g class="OuterCircle">
<circle cx="16.75816094823087" cy="16.99477780632984" r="8"/>
<circle cx="46.0849426076349" cy="16.99477780632984" r="8"/>
<circle cx="16.75816094823087" cy="46.73563896740706" r="8"/>
<circle cx="46.0849426076349" cy="46.73563896740706" r="8"/>
</g>
<g class="Direction" fill-opacity="0.9" style="display: none;">
<polygon fill="#444444" points="33.53,58.63 33.53,48.01 30.52,48.01 30.52,58.63 26.71,58.63 32.02,63.43 37.32,58.63 33.53,58.63 "/>
</g>
<g class="Name" fill-opacity="0.9" style="display: none;">

</g>
<desc>Width:60 Height:90 Depth:30 Elevation:0</desc>
</g><g class="FixedFurniture CoatRack" fill="#ffffff" stroke="#000000" style="fill-opacity: 1; stroke-opacity: 1;" transform="matrix(1,0,0,1,907.4239,459.0666)">
<g class="BoundaryPolygon">
<polygon points="0.00,0.00 78.01,0.00 78.01,32.28 0.00,32.28 "/>
</g>
<g class="Bar" stroke-width="0.65">
<line x1="0" x2="78.01435233528451" y1="4.518947401262235" y2="4.518947401262235"/>
<line x1="0" x2="78.01435233528451" y1="8.499924873802778" y2="8.499924873802778"/>
<line x1="0" x2="78.01435233528451" y1="12.373308360598978" y2="12.373308360598978"/>
<line x1="0" x2="78.01435233528451" y1="16.13909786165084" y2="16.13909786165084"/>
<line x1="0" x2="78.01435233528451" y1="20.01248134844705" y2="20.01248134844705"/>
<line x1="0" x2="78.01435233528451" y1="23.885864835243243" y2="23.885864835243243"/>
<line x1="0" x2="78.01435233528451" y1="27.866842307783784" y2="27.866842307783784"/>
</g>
<g class="Direction" fill-opacity="0.9" style="display: none;">
<polygon fill="#444444" points="40.32,26.57 40.32,15.96 37.31,15.96 37.31,26.57 33.50,26.57 38.81,31.88 44.11,26.57 40.32,26.57 "/>
</g>
<g class="Name" fill-opacity="0.9" style="display: none;">

</g>
<desc>Width:90 Height:30 Depth:30 Elevation:160</desc>
</g></g></g></g></svg>