<?xml version="1.0" encoding="utf-8"?>
<svg height="900.4399795532227" id="temp" version="1.1" viewBox="0 0 1090.0400085449219 900.4399795532227" width="1090.0400085449219" xmlns="http://www.w3.org/2000/svg" xmlns:xlink="http://www.w3.org/1999/xlink"><desc>Powered by CubiCasa</desc><defs/><g class="Model v1-1" id="Model"><g class="Floor"><g class="Floorplan Floor-1" id="Floor-1" transform="matrix(1,0,0,1,0,0)"><g class="Space Undefined" fill="#ffffff" id="c0c4edcc-03df-4226-9c68-552722162d48" stroke="#ffffff" style="fill-opacity: 1; stroke-opacity: 1; stroke-width: 1;"><polygon points="189.05,278.78 155.03,278.78 155.03,208.08 189.05,208.08 "/><g class="Dimension" transform="matrix(1,0,0,1,155.0296,208.0756)"><g class="Visual" style="display: none;" transform="matrix(1,0,0,1,0,0)"><g class="DimensionMark" fill="#000000" id="mark1" stroke="none" style="fill-opacity: 1; pointer-events: visible;" transform="matrix(1,0,0,1,17.0097,0)"><polygon points="-5,5,0,0,5,5"/></g><g class="DimensionMark" fill="#000000" id="mark2" stroke="none" style="fill-opacity: 1; pointer-events: visible;" transform="matrix(1,0,0,1,34.0195,35.3509)"><polygon points="-5,-5,0,0,-5,5"/></g><g class="DimensionMark" fill="#000000" id="mark3" stroke="none" style="fill-opacity: 1; pointer-events: visible;" transform="matrix(1,0,0,1,17.0097,70.7018)"><polygon points="-5,-5,0,0,5,-5"/></g><g class="DimensionMark" fill="#000000" id="mark4" stroke="none" style="fill-opacity: 1; pointer-events: visible;" transform="matrix(1,0,0,1,0,35.3509)"><polygon points="5,5,0,0,5,-5"/></g></g><g class="SpaceDimensionsLabel" transform="matrix(1,0,0,1,17.0098,17.0098)"><g class="TextLabel NameLabel" id="NameLabel" style="display: none;"/><g class="TextLabel DimensionMeasureLabel" id="DimensionMeasureLabel" style="display: none;" transform="matrix(1,0,0,1,-40.5313,79.5938)"/></g></g></g><g class="Space Undefined" fill="#ffffff" id="b74b63cb-07e0-4033-b277-19dedc14429c" stroke="#ffffff" style="fill-opacity: 1; stroke-opacity: 1; stroke-width: 1;"><polygon points="721.27,204.40 692.53,204.40 692.53,119.27 721.27,119.27 "/><g class="Dimension" transform="matrix(1,0,0,1,692.5259,119.2731)"><g class="Visual" style="display: none;" transform="matrix(1,0,0,1,0,0)"><g class="DimensionMark" fill="#000000" id="mark1" stroke="none" style="fill-opacity: 1; pointer-events: visible;" transform="matrix(1,0,0,1,14.3714,0)"><polygon points="-5,5,0,0,5,5"/></g><g class="DimensionMark" fill="#000000" id="mark2" stroke="none" style="fill-opacity: 1; pointer-events: visible;" transform="matrix(1,0,0,1,28.7427,42.5642)"><polygon points="-5,-5,0,0,-5,5"/></g><g class="DimensionMark" fill="#000000" id="mark3" stroke="none" style="fill-opacity: 1; pointer-events: visible;" transform="matrix(1,0,0,1,14.3714,85.1285)"><polygon points="-5,-5,0,0,5,-5"/></g><g class="DimensionMark" fill="#000000" id="mark4" stroke="none" style="fill-opacity: 1; pointer-events: visible;" transform="matrix(1,0,0,1,0,42.5642)"><polygon points="5,5,0,0,5,-5"/></g></g><g class="SpaceDimensionsLabel" transform="matrix(1,0,0,1,14.3713,14.3714)"><g class="TextLabel NameLabel" id="NameLabel" style="display: none;"/><g class="TextLabel DimensionMeasureLabel" id="DimensionMeasureLabel" style="display: none;" transform="matrix(1,0,0,1,-40.5313,79.5938)"/></g></g></g><g class="Space Undefined" fill="#ffffff" id="5d09413b-8adf-453b-8d08-57d918d722eb" stroke="#ffffff" style="fill-opacity: 1; stroke-opacity: 1; stroke-width: 1;"><polygon points="295.43,200.08 241.97,200.08 241.97,119.27 295.43,119.27 "/><g class="Dimension" transform="matrix(1,0,0,1,241.9716,119.2731)"><g class="Visual" style="display: none;" transform="matrix(1,0,0,1,0,0)"><g class="DimensionMark" fill="#000000" id="mark1" stroke="none" style="fill-opacity: 1; pointer-events: visible;" transform="matrix(1,0,0,1,26.7289,0)"><polygon points="-5,5,0,0,5,5"/></g><g class="DimensionMark" fill="#000000" id="mark2" stroke="none" style="fill-opacity: 1; pointer-events: visible;" transform="matrix(1,0,0,1,53.4578,40.4012)"><polygon points="-5,-5,0,0,-5,5"/></g><g class="DimensionMark" fill="#000000" id="mark3" stroke="none" style="fill-opacity: 1; pointer-events: visible;" transform="matrix(1,0,0,1,26.7289,80.8024)"><polygon points="-5,-5,0,0,5,-5"/></g><g class="DimensionMark" fill="#000000" id="mark4" stroke="none" style="fill-opacity: 1; pointer-events: visible;" transform="matrix(1,0,0,1,0,40.4012)"><polygon points="5,5,0,0,5,-5"/></g></g><g class="SpaceDimensionsLabel" transform="matrix(1,0,0,1,26.7289,40.4012)"><g class="TextLabel NameLabel" id="NameLabel" style="display: none;"/><g class="TextLabel DimensionMeasureLabel" id="DimensionMeasureLabel" style="display: none;" transform="matrix(1,0,0,1,-40.5313,79.5938)"/></g></g></g><g class="Space Undefined" fill="#ffffff" id="295ec33b-562c-499b-8444-9bb2746cfc71" stroke="#ffffff" style="fill-opacity: 1; stroke-opacity: 1; stroke-width: 1;"><polygon points="619.23,781.91 591.32,781.91 591.32,797.25 619.23,797.25 619.23,797.45 531.14,797.45 531.14,780.23 491.95,780.23 491.95,610.88 619.23,610.88 "/><g class="Dimension" transform="matrix(1,0,0,1,491.9501,610.8833)"><g class="Visual" style="display: none;" transform="matrix(1,0,0,1,0,0)"><g class="DimensionMark" fill="#000000" id="mark1" stroke="none" style="fill-opacity: 1; pointer-events: visible;" transform="matrix(1,0,0,1,63.6406,0)"><polygon points="-5,5,0,0,5,5"/></g><g class="DimensionMark" fill="#000000" id="mark2" stroke="none" style="fill-opacity: 1; pointer-events: visible;" transform="matrix(1,0,0,1,127.2812,93.2814)"><polygon points="-5,-5,0,0,-5,5"/></g><g class="DimensionMark" fill="#000000" id="mark3" stroke="none" style="fill-opacity: 1; pointer-events: visible;" transform="matrix(1,0,0,1,63.6406,186.5629)"><polygon points="-5,-5,0,0,5,-5"/></g><g class="DimensionMark" fill="#000000" id="mark4" stroke="none" style="fill-opacity: 1; pointer-events: visible;" transform="matrix(1,0,0,1,0,93.2814)"><polygon points="5,5,0,0,5,-5"/></g></g><g class="SpaceDimensionsLabel" transform="matrix(1,0,0,1,5.9231,107.2494)"><g class="TextLabel NameLabel" id="NameLabel" style="display: none;"/><g class="TextLabel DimensionMeasureLabel" id="DimensionMeasureLabel" style="display: none;" transform="matrix(1,0,0,1,-40.5313,79.5938)"/></g></g></g><g class="Space Entry Lobby" fill="#ffffff" id="ee044634-2239-463e-ae60-4f66209f3d69" stroke="#ffffff" style="fill-opacity: 1; stroke-opacity: 1; stroke-width: 1;"><polygon points="480.95,797.45 344.62,797.45 344.62,728.60 371.07,728.60 371.07,610.93 451.07,610.88 480.95,610.88 "/><g class="Dimension" transform="matrix(1,0,0,1,344.6165,610.9065)"><g class="Visual" style="display: none;" transform="matrix(1,0,0,1,0,0)"><g class="DimensionMark" fill="#000000" id="mark1" stroke="none" style="fill-opacity: 1; pointer-events: visible;" transform="matrix(1,0,0,1,68.1669,0)"><polygon points="-5,5,0,0,5,5"/></g><g class="DimensionMark" fill="#000000" id="mark2" stroke="none" style="fill-opacity: 1; pointer-events: visible;" transform="matrix(1,0,0,1,136.3337,117.6921)"><polygon points="-5,-5,0,0,-5,5"/></g><g class="DimensionMark" fill="#000000" id="mark3" stroke="none" style="fill-opacity: 1; pointer-events: visible;" transform="matrix(1,0,0,1,68.1669,186.5397)"><polygon points="-5,-5,0,0,5,-5"/></g><g class="DimensionMark" fill="#000000" id="mark4" stroke="none" style="fill-opacity: 1; pointer-events: visible;" transform="matrix(1,0,0,1,0,117.6921)"><polygon points="5,5,0,0,5,-5"/></g></g><g class="SpaceDimensionsLabel" transform="matrix(1,0,0,1,51.5281,106.3424)"><g class="TextLabel NameLabel" id="NameLabel" style="display: none;"/><g class="TextLabel DimensionMeasureLabel" id="DimensionMeasureLabel" style="display: none;" transform="matrix(1,0,0,1,-119.1797,79.5938)"/></g></g></g><g class="Space Entry Lobby" fill="#ffffff" id="c1874df5-2f78-493b-a29d-fe4e95f9cd6a" stroke="#ffffff" style="fill-opacity: 1; stroke-opacity: 1; stroke-width: 1;"><polygon points="850.47,797.45 630.23,797.45 630.23,610.88 721.27,610.69 850.47,610.60 "/><g class="Dimension" transform="matrix(1,0,0,1,630.2313,610.6739)"><g class="Visual" style="display: none;" transform="matrix(1,0,0,1,0,0)"><g class="DimensionMark" fill="#000000" id="mark1" stroke="none" style="fill-opacity: 1; pointer-events: visible;" transform="matrix(1,0,0,1,110.1181,0)"><polygon points="-5,5,0,0,5,5"/></g><g class="DimensionMark" fill="#000000" id="mark2" stroke="none" style="fill-opacity: 1; pointer-events: visible;" transform="matrix(1,0,0,1,220.2361,93.3477)"><polygon points="-5,-5,0,0,-5,5"/></g><g class="DimensionMark" fill="#000000" id="mark3" stroke="none" style="fill-opacity: 1; pointer-events: visible;" transform="matrix(1,0,0,1,110.1181,186.7723)"><polygon points="-5,-5,0,0,5,-5"/></g><g class="DimensionMark" fill="#000000" id="mark4" stroke="none" style="fill-opacity: 1; pointer-events: visible;" transform="matrix(1,0,0,1,0,93.3477)"><polygon points="5,5,0,0,5,-5"/></g></g><g class="SpaceDimensionsLabel" transform="matrix(1,0,0,1,98.8077,106.4811)"><g class="TextLabel NameLabel" id="NameLabel" style="display: none;"/><g class="TextLabel DimensionMeasureLabel" id="DimensionMeasureLabel" style="display: none;" transform="matrix(1,0,0,1,-119.1797,79.5938)"/></g></g></g><g class="Space Bedroom" fill="#ffffff" id="335b2818-2687-4bbd-856b-925e92b8bfe8" stroke="#ffffff" style="fill-opacity: 1; stroke-opacity: 1; stroke-width: 1;"><polygon points="1066.04,599.59 732.27,599.59 732.27,215.34 1066.04,215.34 "/><g class="Dimension" transform="matrix(1,0,0,1,732.2705,215.3375)"><g class="Visual" style="display: none;" transform="matrix(1,0,0,1,0,0)"><g class="DimensionMark" fill="#000000" id="mark1" stroke="none" style="fill-opacity: 1; pointer-events: visible;" transform="matrix(1,0,0,1,166.8865,0)"><polygon points="-5,5,0,0,5,5"/></g><g class="DimensionMark" fill="#000000" id="mark2" stroke="none" style="fill-opacity: 1; pointer-events: visible;" transform="matrix(1,0,0,1,333.773,192.1259)"><polygon points="-5,-5,0,0,-5,5"/></g><g class="DimensionMark" fill="#000000" id="mark3" stroke="none" style="fill-opacity: 1; pointer-events: visible;" transform="matrix(1,0,0,1,166.8865,384.2519)"><polygon points="-5,-5,0,0,5,-5"/></g><g class="DimensionMark" fill="#000000" id="mark4" stroke="none" style="fill-opacity: 1; pointer-events: visible;" transform="matrix(1,0,0,1,0,192.1259)"><polygon points="5,5,0,0,5,-5"/></g></g><g class="SpaceDimensionsLabel" transform="matrix(1,0,0,1,140.3863,169.0066)"><g class="TextLabel NameLabel" id="NameLabel" style="display: none;"/><g class="TextLabel DimensionMeasureLabel" id="DimensionMeasureLabel" style="display: none;" transform="matrix(1,0,0,1,-113.7031,79.5938)"/></g></g></g><g class="Space Alcove" fill="#ffffff" id="e123ed11-3f0c-4848-bb6c-e12ca197e7ea" stroke="#ffffff" style="fill-opacity: 1; stroke-opacity: 1; stroke-width: 1;"><polygon points="1066.04,797.45 861.47,797.45 861.47,599.59 732.27,599.75 732.27,599.59 1066.04,599.59 "/><g class="Dimension" transform="matrix(1,0,0,1,732.2705,599.5894)"><g class="Visual" style="display: none;" transform="matrix(1,0,0,1,0,0)"><g class="DimensionMark" fill="#000000" id="mark1" stroke="none" style="fill-opacity: 1; pointer-events: visible;" transform="matrix(1,0,0,1,166.8865,0)"><polygon points="-5,5,0,0,5,5"/></g><g class="DimensionMark" fill="#000000" id="mark2" stroke="none" style="fill-opacity: 1; pointer-events: visible;" transform="matrix(1,0,0,1,333.773,0.1614)"><polygon points="-5,-5,0,0,-5,5"/></g><g class="DimensionMark" fill="#000000" id="mark3" stroke="none" style="fill-opacity: 1; pointer-events: visible;" transform="matrix(1,0,0,1,166.8865,197.8568)"><polygon points="-5,-5,0,0,5,-5"/></g><g class="DimensionMark" fill="#000000" id="mark4" stroke="none" style="fill-opacity: 1; pointer-events: visible;" transform="matrix(1,0,0,1,0,0.1614)"><polygon points="5,5,0,0,5,-5"/></g></g><g class="SpaceDimensionsLabel" transform="matrix(1,0,0,1,181.6161,114.8031)"><g class="TextLabel NameLabel" id="NameLabel" style="display: none;"/><g class="TextLabel DimensionMeasureLabel" id="DimensionMeasureLabel" style="display: none;" transform="matrix(1,0,0,1,-77.0625,79.5938)"/></g></g></g><g class="Space LivingRoom" fill="#ffffff" id="8dd8d9b9-ded3-40af-8bdb-830c9c6e2ac7" stroke="#ffffff" style="fill-opacity: 1; stroke-opacity: 1; stroke-width: 1;"><polygon points="440.35,212.82 489.35,212.82 489.35,119.27 681.53,119.27 681.53,215.40 721.27,215.40 721.27,599.75 630.23,599.85 630.23,599.75 619.23,599.75 619.23,599.85 480.95,599.85 480.95,599.95 451.35,599.95 451.35,212.82 440.35,212.82 440.35,599.95 439.38,599.95 439.38,119.27 440.35,119.27 "/><g class="Dimension" transform="matrix(1,0,0,1,439.3788,119.2731)"><g class="Visual" style="display: none;" transform="matrix(1,0,0,1,0,0)"><g class="DimensionMark" fill="#000000" id="mark1" stroke="none" style="fill-opacity: 1; pointer-events: visible;" transform="matrix(1,0,0,1,140.9459,0)"><polygon points="-5,5,0,0,5,5"/></g><g class="DimensionMark" fill="#000000" id="mark2" stroke="none" style="fill-opacity: 1; pointer-events: visible;" transform="matrix(1,0,0,1,281.8917,240.3385)"><polygon points="-5,-5,0,0,-5,5"/></g><g class="DimensionMark" fill="#000000" id="mark3" stroke="none" style="fill-opacity: 1; pointer-events: visible;" transform="matrix(1,0,0,1,140.9459,480.5742)"><polygon points="-5,-5,0,0,5,-5"/></g><g class="DimensionMark" fill="#000000" id="mark4" stroke="none" style="fill-opacity: 1; pointer-events: visible;" transform="matrix(1,0,0,1,0,240.3385)"><polygon points="5,5,0,0,5,-5"/></g></g><g class="SpaceDimensionsLabel" transform="matrix(1,0,0,1,124.7419,278.3855)"><g class="TextLabel NameLabel" id="NameLabel" style="display: none;"/><g class="TextLabel DimensionMeasureLabel" id="DimensionMeasureLabel" style="display: none;" transform="matrix(1,0,0,1,-114.625,79.5938)"/></g></g></g><g class="Space Kitchen" fill="#ffffff" id="97fc7117-b34b-4146-a051-d35da1fef859" stroke="#ffffff" style="fill-opacity: 1; stroke-opacity: 1; stroke-width: 1;"><polygon points="439.38,599.95 197.05,599.95 197.05,208.08 303.43,208.08 303.43,119.27 439.38,119.27 "/><g class="Dimension" transform="matrix(1,0,0,1,197.0491,119.2731)"><g class="Visual" style="display: none;" transform="matrix(1,0,0,1,0,0)"><g class="DimensionMark" fill="#000000" id="mark1" stroke="none" style="fill-opacity: 1; pointer-events: visible;" transform="matrix(1,0,0,1,121.1649,0)"><polygon points="-5,5,0,0,5,5"/></g><g class="DimensionMark" fill="#000000" id="mark2" stroke="none" style="fill-opacity: 1; pointer-events: visible;" transform="matrix(1,0,0,1,242.3297,240.3385)"><polygon points="-5,-5,0,0,-5,5"/></g><g class="DimensionMark" fill="#000000" id="mark3" stroke="none" style="fill-opacity: 1; pointer-events: visible;" transform="matrix(1,0,0,1,121.1649,480.677)"><polygon points="-5,-5,0,0,5,-5"/></g><g class="DimensionMark" fill="#000000" id="mark4" stroke="none" style="fill-opacity: 1; pointer-events: visible;" transform="matrix(1,0,0,1,0,240.3385)"><polygon points="5,5,0,0,5,-5"/></g></g><g class="SpaceDimensionsLabel" transform="matrix(1,0,0,1,122.6982,260.9897)"><g class="TextLabel NameLabel" id="NameLabel" style="display: none;"/><g class="TextLabel DimensionMeasureLabel" id="DimensionMeasureLabel" style="display: none;" transform="matrix(1,0,0,1,-128.4141,79.5938)"/></g></g></g><g class="Wall External" fill="#000000" id="Wall" stroke="#000000" style="fill-opacity: 1; stroke-opacity: 1; stroke-width: 1;"><polygon points="192.97,71.27 769.27,71.27 721.27,119.27 241.97,119.27 "/><g class="Window Regular" fill="#f0f0ff" id="Window" stroke="#000000" style="fill-opacity: 1; stroke-width: 1; stroke-opacity: 1;"><polygon points="325.38,71.27 430.26,71.27 430.26,119.27 325.38,119.27 "/><g class="Glass" id="Glass"><polygon points="325.38,71.27 430.26,71.27 430.26,119.27 325.38,119.27 "/></g><g class="Panel" id="Panel"><line x1="332.8800048828125" x2="422.760009765625" y1="95.2699966430664" y2="95.2699966430664"/><line x1="332.8800048828125" x2="332.8800048828125" y1="71.2699966430664" y2="119.2699966430664"/><line x1="422.760009765625" x2="422.760009765625" y1="71.2699966430664" y2="119.2699966430664"/></g></g><g class="Window Regular" fill="#f0f0ff" id="Window" stroke="#000000" style="fill-opacity: 1; stroke-width: 1; stroke-opacity: 1;"><polygon points="526.66,71.27 638.94,71.27 638.94,119.27 526.66,119.27 "/><g class="Glass" id="Glass"><polygon points="526.66,71.27 638.94,71.27 638.94,119.27 526.66,119.27 "/></g><g class="Panel" id="Panel"><line x1="534.1599731445312" x2="631.4400024414062" y1="95.2699966430664" y2="95.2699966430664"/><line x1="534.1599731445312" x2="534.1599731445312" y1="71.2699966430664" y2="119.2699966430664"/><line x1="631.4400024414062" x2="631.4400024414062" y1="71.2699966430664" y2="119.2699966430664"/></g></g></g><g class="Wall External" fill="#000000" id="Wall" stroke="#000000" style="fill-opacity: 1; stroke-opacity: 1; stroke-width: 1;"><polygon points="769.27,71.27 769.27,167.34 721.27,215.34 721.27,119.27 "/></g><g class="Wall External" fill="#000000" id="Wall" stroke="#000000" style="fill-opacity: 1; stroke-opacity: 1; stroke-width: 1;"><polygon points="721.27,215.34 1066.04,215.34 1090.04,167.34 769.27,167.34 "/><g class="Window Regular" fill="#f0f0ff" id="Window" stroke="#000000" style="fill-opacity: 1; stroke-width: 1; stroke-opacity: 1;"><polygon points="888.58,215.34 1031.69,215.34 1031.69,167.34 888.58,167.34 "/><g class="Glass" id="Glass"><polygon points="888.58,215.34 1031.69,215.34 1031.69,167.34 888.58,167.34 "/></g><g class="Panel" id="Panel"><line x1="896.0800170898438" x2="1024.18994140625" y1="191.33999633789062" y2="191.33999633789062"/><line x1="896.0800170898438" x2="896.0800170898438" y1="215.33999633789062" y2="167.33999633789062"/><line x1="1024.18994140625" x2="1024.18994140625" y1="215.33999633789062" y2="167.33999633789062"/></g></g></g><g class="Wall External" fill="#000000" id="Wall" stroke="#000000" style="fill-opacity: 1; stroke-opacity: 1; stroke-width: 1;"><polygon points="1090.04,167.34 1090.04,829.45 1066.04,797.45 1066.04,215.34 "/></g><g class="Wall External" fill="#000000" id="Wall" stroke="#000000" style="fill-opacity: 1; stroke-opacity: 1; stroke-width: 1;"><polygon points="1090.04,829.45 318.62,829.45 344.62,797.45 1066.04,797.45 "/><g class="Door Swing Beside" fill="#ffffff" id="Door" stroke="#000000" style="fill-opacity: 1; stroke-width: 1; stroke-opacity: 1;"><polygon points="447.08,829.45 381.47,829.45 381.47,797.45 447.08,797.45 "/><g class="Panel Right Negative" fill="none" id="Panel" style=""><g class="PanelArea" fill="none" id="PanelArea" stroke="none" style=""><polygon points="447.08,829.45 381.47,829.45 381.47,797.45 447.08,797.45 "/></g><path d="M381.47,829.45 q0.00,65.61 65.61,65.61 l0.00,-65.61Z"/></g></g><g class="Door Swing Beside" fill="#ffffff" id="Door" stroke="#000000" style="fill-opacity: 1; stroke-width: 1; stroke-opacity: 1;"><polygon points="780.52,829.45 709.53,829.45 709.53,797.45 780.52,797.45 "/><g class="Panel Right Negative" fill="none" id="Panel" style=""><g class="PanelArea" fill="none" id="PanelArea" stroke="none" style=""><polygon points="780.52,829.45 709.53,829.45 709.53,797.45 780.52,797.45 "/></g><path d="M709.53,829.45 q0.00,70.99 70.99,70.99 l0.00,-70.99Z"/></g></g></g><g class="Wall External" fill="#000000" id="Wall" stroke="#000000" style="fill-opacity: 1; stroke-opacity: 1; stroke-width: 1;"><polygon points="318.62,829.45 318.62,623.95 344.62,599.95 344.62,797.45 "/></g><g class="Wall External" fill="#000000" id="Wall" stroke="#000000" style="fill-opacity: 1; stroke-opacity: 1; stroke-width: 1;"><polygon points="344.62,599.95 197.05,599.95 173.05,623.95 318.62,623.95 "/></g><g class="Wall External" fill="#000000" id="Wall" stroke="#000000" style="fill-opacity: 1; stroke-opacity: 1; stroke-width: 1;"><polygon points="173.05,623.95 173.05,302.78 197.05,278.78 197.05,599.95 "/></g><g class="Wall External" fill="#000000" id="Wall" stroke="#000000" style="fill-opacity: 1; stroke-opacity: 1; stroke-width: 1;"><polygon points="197.05,278.78 155.03,278.78 131.03,302.78 173.05,302.78 "/></g><g class="Wall External" fill="#000000" id="Wall" stroke="#000000" style="fill-opacity: 1; stroke-opacity: 1; stroke-width: 1;"><polygon points="131.03,302.78 131.03,159.08 155.03,208.08 155.03,278.78 "/></g><g class="Wall External" fill="#000000" id="Wall" stroke="#000000" style="fill-opacity: 1; stroke-opacity: 1; stroke-width: 1;"><polygon points="131.03,159.08 192.97,159.08 241.97,208.08 155.03,208.08 "/></g><g class="Wall External" fill="#000000" id="Wall" stroke="#000000" style="fill-opacity: 1; stroke-opacity: 1; stroke-width: 1;"><polygon points="192.97,159.08 192.97,71.27 241.97,119.27 241.97,208.08 "/></g><g class="Wall" fill="#000000" id="Wall" stroke="#000000" style="fill-opacity: 1; stroke-opacity: 1; stroke-width: 1;"><polygon points="440.35,71.27 440.35,212.82 489.35,212.82 489.35,71.27 "/></g><g class="Wall" fill="#000000" id="Wall" stroke="#000000" style="fill-opacity: 1; stroke-opacity: 1; stroke-width: 1;"><polygon points="440.35,212.82 440.35,610.88 451.35,610.88 451.35,212.82 "/><g class="Door None Beside" fill="#ffffff" id="Door" stroke="#000000" style="fill-opacity: 1; stroke-width: 1; stroke-opacity: 1;"><polygon points="440.35,435.47 440.35,523.35 451.35,523.35 451.35,435.47 "/></g></g><g class="Wall" fill="#000000" id="Wall" stroke="#000000" style="fill-opacity: 1; stroke-opacity: 1; stroke-width: 1;"><polygon points="721.27,215.34 721.27,610.69 732.27,610.69 732.27,215.34 "/><g class="Door Swing Beside" fill="#ffffff" id="Door" stroke="#000000" style="fill-opacity: 1; stroke-width: 1; stroke-opacity: 1;"><polygon points="721.27,319.15 721.27,386.10 732.27,386.10 732.27,319.15 "/><g class="Panel Left Negative" fill="none" id="Panel" style=""><g class="PanelArea" fill="none" id="PanelArea" stroke="none" style=""><polygon points="721.27,319.15 721.27,386.10 732.27,386.10 732.27,319.15 "/></g><path d="M721.27,319.15 q-66.95,0.00 -66.95,66.95 l66.95,0.00Z"/></g></g></g><g class="Wall" fill="#000000" id="Wall" stroke="#000000" style="fill-opacity: 1; stroke-opacity: 1; stroke-width: 1;"><polygon points="861.47,829.05 861.47,599.59 850.47,610.60 850.47,829.05 "/></g><g class="Wall" fill="#000000" id="Wall" stroke="#000000" style="fill-opacity: 1; stroke-opacity: 1; stroke-width: 1;"><polygon points="861.47,599.59 344.62,599.95 371.07,610.93 850.47,610.60 "/><g class="Door Swing Beside" fill="#ffffff" id="Door" stroke="#000000" style="fill-opacity: 1; stroke-width: 1; stroke-opacity: 1;"><polygon points="838.36,599.61 770.57,599.65 770.58,610.65 838.37,610.61 "/><g class="Panel Left Positive" fill="none" id="Panel" style=""><g class="PanelArea" fill="none" id="PanelArea" stroke="none" style=""><polygon points="838.36,599.61 770.57,599.65 770.58,610.65 838.37,610.61 "/></g><path d="M770.58,610.65 q0.06,67.79 67.85,67.75 l-0.06,-67.79Z"/></g></g><g class="Door Swing Beside" fill="#ffffff" id="Door" stroke="#000000" style="fill-opacity: 1; stroke-width: 1; stroke-opacity: 1;"><polygon points="706.97,599.70 638.35,599.75 638.35,610.75 706.98,610.70 "/><g class="Panel Right Positive" fill="none" id="Panel" style=""><g class="PanelArea" fill="none" id="PanelArea" stroke="none" style=""><polygon points="706.97,599.70 638.35,599.75 638.35,610.75 706.98,610.70 "/></g><path d="M706.97,610.70 q0.00,68.62 -68.62,68.67 l0.00,-68.62Z"/></g></g><g class="Door Swing Beside" fill="#ffffff" id="Door" stroke="#000000" style="fill-opacity: 1; stroke-width: 1; stroke-opacity: 1;"><polygon points="432.47,599.89 375.56,599.93 375.57,610.93 432.48,610.89 "/><g class="Panel Right Negative" fill="none" id="Panel" style=""><g class="PanelArea" fill="none" id="PanelArea" stroke="none" style=""><polygon points="432.47,599.89 375.56,599.93 375.57,610.93 432.48,610.89 "/></g><path d="M375.56,599.93 q-0.05,-56.91 56.86,-56.95 l0.05,56.91Z"/></g></g></g><g class="Wall" fill="#000000" id="Wall" stroke="#000000" style="fill-opacity: 1; stroke-opacity: 1; stroke-width: 1;"><polygon points="491.95,599.85 491.95,829.05 480.95,829.05 480.95,599.85 "/></g><g class="Wall" fill="#000000" id="Wall" stroke="#000000" style="fill-opacity: 1; stroke-opacity: 1; stroke-width: 1;"><polygon points="630.23,599.75 630.23,829.05 619.23,829.05 619.23,599.75 "/><g class="Door Swing Beside" fill="#ffffff" id="Door" stroke="#000000" style="fill-opacity: 1; stroke-width: 1; stroke-opacity: 1;"><polygon points="630.23,693.24 630.23,762.70 619.23,762.70 619.23,693.24 "/><g class="Panel Left Negative" fill="none" id="Panel" style=""><g class="PanelArea" fill="none" id="PanelArea" stroke="none" style=""><polygon points="630.23,693.24 630.23,762.70 619.23,762.70 619.23,693.24 "/></g><path d="M630.23,693.24 q69.46,0.00 69.46,69.46 l-69.46,0.00Z"/></g></g></g><g class="Wall" fill="#000000" id="Wall" stroke="#000000" style="fill-opacity: 1; stroke-opacity: 1; stroke-width: 1;"><polygon points="619.23,781.91 591.32,781.91 591.32,797.25 619.23,797.25 "/></g><g class="Wall" fill="#000000" id="Wall" stroke="#000000" style="fill-opacity: 1; stroke-opacity: 1; stroke-width: 1;"><polygon points="480.95,780.23 531.14,780.23 531.14,799.51 480.95,799.51 "/></g><g class="Wall" fill="#000000" id="Wall" stroke="#000000" style="fill-opacity: 1; stroke-opacity: 1; stroke-width: 1;"><polygon points="344.62,599.95 344.62,728.60 371.07,728.60 371.07,610.93 "/></g><g class="Wall" fill="#000000" id="Wall" stroke="#000000" style="fill-opacity: 1; stroke-opacity: 1; stroke-width: 1;"><polygon points="726.77,204.40 692.53,204.40 681.53,215.40 726.77,215.40 "/></g><g class="Wall" fill="#000000" id="Wall" stroke="#000000" style="fill-opacity: 1; stroke-opacity: 1; stroke-width: 1;"><polygon points="681.53,215.40 681.53,71.27 692.53,71.27 692.53,204.40 "/><g class="Door Swing Beside" fill="#ffffff" id="Door" stroke="#000000" style="fill-opacity: 1; stroke-width: 1; stroke-opacity: 1;"><polygon points="681.53,192.75 681.53,137.84 692.53,137.84 692.53,192.75 "/><g class="Panel Right Negative" fill="none" id="Panel" style=""><g class="PanelArea" fill="none" id="PanelArea" stroke="none" style=""><polygon points="681.53,192.75 681.53,137.84 692.53,137.84 692.53,192.75 "/></g><path d="M681.53,137.84 q-54.91,0.00 -54.91,54.91 l54.91,0.00Z"/></g></g></g><g class="Wall" fill="#000000" id="Wall" stroke="#000000" style="fill-opacity: 1; stroke-opacity: 1; stroke-width: 1;"><polygon points="241.97,208.08 303.43,208.08 295.43,200.08 241.97,200.08 "/><g class="Door Swing Beside" fill="#ffffff" id="Door" stroke="#000000" style="fill-opacity: 1; stroke-width: 1; stroke-opacity: 1;"><polygon points="247.40,208.08 283.36,208.08 283.36,200.08 247.40,200.08 "/><g class="Panel Right Negative" fill="none" id="Panel" style=""><g class="PanelArea" fill="none" id="PanelArea" stroke="none" style=""><polygon points="247.40,208.08 283.36,208.08 283.36,200.08 247.40,200.08 "/></g><path d="M283.36,208.08 q0.00,35.96 -35.96,35.96 l0.00,-35.96Z"/></g></g></g><g class="Wall" fill="#000000" id="Wall" stroke="#000000" style="fill-opacity: 1; stroke-opacity: 1; stroke-width: 1;"><polygon points="303.43,208.08 303.43,71.27 295.43,71.27 295.43,200.08 "/></g><g class="Wall" fill="#000000" id="Wall" stroke="#000000" style="fill-opacity: 1; stroke-opacity: 1; stroke-width: 1;"><polygon points="197.05,278.78 197.05,208.08 189.05,208.08 189.05,278.78 "/><g class="Door Swing Beside" fill="#ffffff" id="Door" stroke="#000000" style="fill-opacity: 1; stroke-width: 1; stroke-opacity: 1;"><polygon points="197.05,272.66 197.05,217.32 189.05,217.32 189.05,272.66 "/><g class="Panel Right Negative" fill="none" id="Panel" style=""><g class="PanelArea" fill="none" id="PanelArea" stroke="none" style=""><polygon points="197.05,272.66 197.05,217.32 189.05,217.32 189.05,272.66 "/></g><path d="M197.05,217.32 q55.34,0.00 55.34,55.34 l-55.34,0.00Z"/></g></g></g><g class="FixedFurniture Toilet" fill="#ffffff" stroke="#000000" style="fill-opacity: 1; stroke-opacity: 1;" transform="matrix(-1,0,0,-1,584.011,797.9462)">
<g class="BoundaryPolygon" fill="rgb(255, 255, 255)" stroke="rgb(0, 0, 0)">
<rect height="17.98" width="39.989" x="0.502" y="0.5"/>
<path d="M40.491,44.237S41.619,70.5,20.907,70.5C-.523,70.5.6,44.237.6,44.237L.5,18.48H40.491Z"/>
<rect height="3.03" width="6.357" x="17.318" y="7.975"/>
</g>
<desc>Width:40 Height:85 Depth:70 Elevation:0</desc>
</g><g class="FixedFurniture Closet" fill="#ffffff" stroke="#000000" style="fill-opacity: 1; stroke-opacity: 1;" transform="matrix(0,1,-1,0,480.9345,610.8677)">
<g class="BoundaryPolygon" fill="rgb(255, 255, 255)" stroke="rgb(0, 0, 0)">
<polygon points="0.00,0.00 120.00,0.00 120.00,34.10 0.00,34.10 "/>
</g>
<g class="Direction" fill-opacity="0.9" style="display: none;">
<polygon fill="#444444" points="61.51,30.98 61.51,20.36 58.50,20.36 58.50,30.98 54.70,30.98 60.00,36.28 65.30,30.98 61.51,30.98 "/>
</g>
<g class="Name" fill-opacity="0.9" style="display: none;">

</g>
<desc>Width:120 Height:200 Depth:60 Elevation:0</desc>
</g><g class="FixedFurniture CoatCloset" fill="#ffffff" stroke="#000000" style="fill-opacity: 1; stroke-opacity: 1;" transform="matrix(0,1,-1,0,850.4518,708.9062)">
<g class="BoundaryPolygon" fill="rgb(255, 255, 255)" stroke="rgb(0, 0, 0)">
<polygon points="0.00,0.00 88.54,0.00 88.54,56.30 0.00,56.30 "/>
</g>

<g class="Direction" fill-opacity="0.9" style="display: none;">
<polygon fill="#444444" points="45.38,51.15 45.38,40.54 42.37,40.54 42.37,51.15 38.57,51.15 43.87,56.46 49.18,51.15 45.38,51.15 "/>
</g>
<g class="Name" fill-opacity="0.9" style="display: none;">

</g>
<desc>Width:120 Height:200 Depth:60 Elevation:0</desc>
</g><g class="FixedFurniture Shower" fill="#ffffff" stroke="#000000" style="fill-opacity: 1; stroke-opacity: 1;" transform="matrix(0,-1,1,0,491.4502,666.8025)">
<g class="BoundaryPolygon" fill="rgb(255, 255, 255)" stroke="rgb(0, 0, 0)" stroke-linejoin="round">
<rect height="6.1" width="11.2" x="3.7" y="0.5"/>
<rect height="6.1" width="11.2" x="17.6" y="0.5"/>
<rect height="6.1" width="3.4" x="28.7" y="0.5"/>
<rect height="6.1" width="3.2" x="0.5" y="0.5"/>
<path d="M14.9,8.5c0,1.5-0.4,3.3-1.6,5    c-0.4,0.6-1,1.1-1.1,1.7c-0.2,1.1,0.3,2.8,2.5,3.2c0.5,0.1,1.3,0.1,1.6,0.1h-0.1c0.3,0,1.1,0,1.6-0.1c2.2-0.4,2.7-2.1,2.5-3.2    c-0.1-0.6-0.7-1.1-1.1-1.7c-1.2-1.7-1.6-3.5-1.6-5"/>
<path d="M12.2,15.3c0.1,0.2,1.6,1.9,4.2,1.9 c2.4-0.1,3.7-1.7,3.9-1.9"/>
<path d="M14.9,0.5h2.7v8c-0.9,0-1.8,0-2.7,0l0,0 C14.9,5.9,14.9,3.2,14.9,0.5z"/>
</g>
<g class="Indicator" fill="rgb(255, 255, 255)" stroke="rgb(0, 0, 0)" stroke-linejoin="round" stroke-width="0.5">
<path d="M3.7,3.6C5,3.1,5.2,3,5.2,3 c0,1.1,0,0,0,1.1C5.2,4.1,5.1,4.1,3.7,3.6"/>
<path d="M28.7,3.6 C27.4,3.1,27.2,3,27.2,3c0,1.1,0,0,0,1.1C27.2,4.1,27.3,4.1,28.7,3.6"/>
</g>
<desc>Width:35 Height:97 Depth:20 Elevation:135</desc>
</g><g class="FixedFurniture ElectricalAppliance WashingMachine" fill="#ffffff" stroke="#000000" style="fill-opacity: 1; stroke-opacity: 1;" transform="matrix(1.0288,0,0,1.0719,557.5034,610.7801)">
<g class="BoundaryPolygon" fill="rgb(255, 255, 255)" stroke="rgb(0, 0, 0)">
<polygon points="0,0 60,0 60,60 0,60"/>
</g>
<g class="electricitySign" fill="none" stroke="rgb(0, 0, 0)">
<path d="M0,0,30,41V20.8L60,60"/>
</g>
<g class="Handle" fill="rgb(255, 255, 255)" stroke="rgb(0, 0, 0)">
<path d="M2.7,59.4H57.3"/>
</g>
<g class="Direction" fill-opacity="0.9" style="display: none;">
<polygon fill="#444444" points="32.009 55.197 32.009 44.581 29 44.581 29 55.197 25.197 55.197 30.5 60 35.803 55.197 32.009 55.197"/>
</g>
<g class="Name" fill-opacity="0.9" style="display: none;">

</g>
<desc>Width:60 Height:90 Depth:60 Elevation:0</desc>
</g><g class="FixedFurniture Misc" fill="none" stroke="#000000" style="fill-opacity: 1; stroke-opacity: 1; stroke-width: 1.8; stroke-dasharray: 5, 5;" transform="matrix(1,0,0,1,490.426,700.1848)"><desc>Width:120 Height:200 Depth:60 Elevation:0</desc><g class="BoundaryPolygon"><path d="M0.00,0.00 L40.42,0.00 L65.94,-27.44 " fill="none" stroke="#000000" style=""/></g></g><g class="FixedFurniture BaseCabinet" fill="#ffffff" stroke="#000000" style="fill-opacity: 1; stroke-opacity: 1;" transform="matrix(1,0,0,1,362.719,539.6201)"><desc>Width:60 Height:90 Depth:60 Elevation:0</desc><g class="BoundaryPolygon"><polygon fill="#ffffff" points="0.00,0.00 -105.34,0.00 -105.34,-135.33 -165.67,-135.33 -165.67,60.33 0.00,60.33 0.00,0.00 " stroke="#000000" style=""/></g></g><g class="FixedFurniture Sink" fill="#ffffff" stroke="#000000" style="fill-opacity: 1; stroke-opacity: 1;" transform="matrix(-1,0,0,-1,299.4204,599.622)">
<g class="InnerPolygon" fill="rgb(255, 255, 255)" stroke="rgb(0, 0, 0)">
<polygon points="5.00,9.70 45.52,9.70 45.52,49.62 5.00,49.62 "/>
</g>
<g class="OuterDrain" fill="rgb(255, 255, 255)" stroke="rgb(0, 0, 0)" stroke-width="0.8">
<circle cx="24.82694356084852" cy="29.208800586474926" r="3.5"/>
</g>
<g class="InnerDrain" fill="rgb(255, 255, 255)" stroke="rgb(0, 0, 0)" stroke-width="0.8">
<circle cx="24.82694356084852" cy="29.208800586474926" r="2"/>
</g>
<g class="Faucet" fill="rgb(255, 255, 255)" stroke="rgb(0, 0, 0)">
<polygon points="22.34,4.54 28.34,4.54 28.34,18.54 22.34,18.54 "/>
</g>
<g class="Direction" fill-opacity="0.9" style="display: none;">
<polygon fill="#444444" points="26.49,50.07 26.49,39.45 23.48,39.45 23.48,50.07 19.68,50.07 24.98,54.87 30.28,50.07 26.49,50.07 "/>
</g>
<g class="Name" fill-opacity="0.9" style="display: none;">

</g>
<desc>Width:60 Height:90 Depth:60 Elevation:0</desc>
</g><g class="FixedFurniture ElectricalAppliance IntegratedStove" fill="#ffffff" stroke="#000000" style="fill-opacity: 1; stroke-opacity: 1;" transform="matrix(-1,0,0,-1,364.719,599.6201)">
<g class="BoundaryPolygon" fill="rgb(255, 255, 255)" stroke="rgb(0, 0, 0)">
<polygon points="2.00,2.00 64.88,2.00 64.88,58.00 2.00,58.00 "/>
</g>
<g class="OuterCircle" fill="rgb(255, 255, 255)" stroke="rgb(0, 0, 0)" stroke-width="0.8">
<circle cx="17.89769971665522" cy="16" r="8"/>
<circle cx="49.21867422080186" cy="16" r="8"/>
<circle cx="17.89769971665522" cy="43.9" r="8"/>
<circle cx="49.21867422080186" cy="44" r="8"/>
</g>
<g class="Direction" fill-opacity="0.9" style="display: none;">
<polygon fill="#444444" points="35.81,55.20 35.81,44.58 32.80,44.58 32.80,55.20 28.99,55.20 34.30,60.00 39.60,55.20 35.81,55.20 "/>
</g>
<g class="Name" fill-opacity="0.9" style="display: none;">

</g>
<desc>Width:60 Height:90 Depth:30 Elevation:0</desc>
</g><g class="FixedFurniture ElectricalAppliance Refrigerator" fill="#ffffff" stroke="#000000" style="fill-opacity: 1; stroke-opacity: 1;" transform="matrix(0,-1.0654,1,0,197.049,404.2901)">
<g class="BoundaryPolygon" fill="rgb(255, 255, 255)" stroke="rgb(0, 0, 0)">
<polygon points="0,0 60,0 60,60 0,60"/>
</g>
<g class="electricitySign" fill="none" stroke="rgb(0, 0, 0)">
<path d="M0,0,30,37.1v-18L60,56.3"/>
</g>
<g class="Doors" fill="rgb(255, 255, 255)" stroke="rgb(0, 0, 0)">
<rect height="4" width="60" y="56"/>
</g>
<g class="Direction" fill-opacity="0.9" style="display: none;">
<polygon fill="#444444" points="32.009 55.197 32.009 44.581 29 44.581 29 55.197 25.197 55.197 30.5 60 35.803 55.197 32.009 55.197"/>
</g>
<g class="Name" fill-opacity="0.9" style="display: none;">

</g>
<desc>Width:60 Height:170 Depth:60 Elevation:0</desc>
</g><g class="FixedFurniture BaseCabinetRound" fill="#ffffff" stroke="#000000" style="fill-opacity: 1; stroke-opacity: 1;" transform="matrix(0,-0.6864,0.6708,0,492.0759,780.234)">
<g class="BoundaryPath" fill="rgb(255, 255, 255)" stroke="rgb(0, 0, 0)">
<path d="M0,60A60.048,60.048,0,0,0,60,0H0V60Z"/>
</g>
<g class="Name" fill-opacity="0.9" style="display: none;">

</g>
<desc>Width:60 Height:90 Depth:60 Elevation:0</desc>
</g><g class="FixedFurniture CornerSink" fill="#ffffff" stroke="#000000" style="fill-opacity: 1; stroke-opacity: 1;" transform="matrix(-1,0,0,-1,530.73,780.38)">
<g class="InnerPolygon" fill="rgb(255, 255, 255)" stroke="rgb(0, 0, 0)">
<path d="M4.00,4.00 q0.00,31.66 31.35,31.66 l0.00,-31.66Z"/>
</g>
<g class="OuterDrain" fill="rgb(255, 255, 255)" stroke="rgb(0, 0, 0)" stroke-width="0.8">
<circle cx="23.048018768084027" cy="15.494181553323493" r="3.5"/>
</g>
<g class="InnerDrain" fill="rgb(255, 255, 255)" stroke="rgb(0, 0, 0)" stroke-width="0.8">
<circle cx="23.048018768084027" cy="15.494181553323493" r="2"/>
</g>
<g class="Faucet" fill="rgb(255, 255, 255)" stroke="rgb(0, 0, 0)">
<polygon points="24.63,10.05 34.53,0.15 38.78,4.39 28.88,14.29 "/>
</g>
<desc>Width:40 Height:30 Depth:40 Elevation:80</desc>
</g></g></g></g></svg>