<?xml version="1.0" encoding="utf-8"?>
<svg height="921.4144134521484" id="temp" version="1.1" viewBox="0 0 1298.1150512695312 921.4144134521484" width="1298.1150512695312" xmlns="http://www.w3.org/2000/svg" xmlns:xlink="http://www.w3.org/1999/xlink"><defs/><g class="Model v1-1" id="Model"><g class="Floor"><g class="Floorplan Floor-1" id="Floor-1"><g class="Space Room" fill="#ffffff" id="69734fc4-a5fe-4f3b-98a1-bc763ab759ec" stroke="#ffffff" style="fill-opacity: 1; stroke-opacity: 1; stroke-width: 1;"><polygon points="1073.98,488.89 509.03,488.89 509.03,118.26 510.22,118.26 510.22,54.39 1073.98,54.39 "/><g class="Dimension" transform="matrix(1,0,0,1,509.0345,54.3858)"><g class="Visual" style="display: none;" transform="matrix(1,0,0,1,0,0)"><g class="DimensionMark" fill="#000000" id="mark1" stroke="none" style="fill-opacity: 1; pointer-events: visible;" transform="matrix(1,0,0,1,282.4718,0)"><polygon points="-5,5,0,0,5,5"/></g><g class="DimensionMark" fill="#000000" id="mark2" stroke="none" style="fill-opacity: 1; pointer-events: visible;" transform="matrix(1,0,0,1,564.9436,217.253)"><polygon points="-5,-5,0,0,-5,5"/></g><g class="DimensionMark" fill="#000000" id="mark3" stroke="none" style="fill-opacity: 1; pointer-events: visible;" transform="matrix(1,0,0,1,282.4718,434.5059)"><polygon points="-5,-5,0,0,5,-5"/></g><g class="DimensionMark" fill="#000000" id="mark4" stroke="none" style="fill-opacity: 1; pointer-events: visible;" transform="matrix(1,0,0,1,0,217.253)"><polygon points="5,5,0,0,5,-5"/></g></g><g class="SpaceDimensionsLabel" transform="matrix(1,0,0,1,305.4415,211.0643)"><g class="TextLabel NameLabel" id="NameLabel" style="display: block;"/><g class="TextLabel DimensionMeasureLabel" id="DimensionMeasureLabel" style="display: none;" transform="matrix(1,0,0,1,-127.5625,78.2656)"/></g></g></g><g class="Space Kitchen Kitchenette" fill="#ffffff" id="28a89684-5347-4e75-a03c-48358b0283ed" stroke="#ffffff" style="fill-opacity: 1; stroke-opacity: 1; stroke-width: 1;"><polygon points="1073.98,580.26 872.19,739.82 749.81,767.00 749.81,712.39 678.02,712.39 678.02,635.07 750.00,635.07 750.00,503.89 1073.98,503.89 "/><g class="Dimension" transform="matrix(1,0,0,1,678.0241,503.8917)"><g class="Visual" style="display: none;" transform="matrix(1,0,0,1,0,0)"><g class="DimensionMark" fill="#000000" id="mark1" stroke="none" style="fill-opacity: 1; pointer-events: visible;" transform="matrix(1,0,0,1,192.0466,0)"><polygon points="-5,5,0,0,5,5"/></g><g class="DimensionMark" fill="#000000" id="mark2" stroke="none" style="fill-opacity: 1; pointer-events: visible;" transform="matrix(1,0,0,1,369.1042,131.1764)"><polygon points="-5,-5,0,0,-5,5"/></g><g class="DimensionMark" fill="#000000" id="mark3" stroke="none" style="fill-opacity: 1; pointer-events: visible;" transform="matrix(1,0,0,1,192.0466,236.4029)"><polygon points="-5,-5,0,0,5,-5"/></g><g class="DimensionMark" fill="#000000" id="mark4" stroke="none" style="fill-opacity: 1; pointer-events: visible;" transform="matrix(1,0,0,1,0,131.1764)"><polygon points="5,5,0,0,5,-5"/></g></g><g class="SpaceDimensionsLabel" transform="matrix(1,0,0,1,160.2599,94.5049)"><g class="TextLabel NameLabel" id="NameLabel" style="display: block;"/><g class="TextLabel DimensionMeasureLabel" id="DimensionMeasureLabel" style="display: none;" transform="matrix(1,0,0,1,-116.9219,78.2656)"/></g></g></g><g class="Space Entry Lobby" fill="#ffffff" id="6ecb3f95-a6ac-4ee6-93dc-3edec32038f1" stroke="#ffffff" style="fill-opacity: 1; stroke-opacity: 1; stroke-width: 1;"><polygon points="663.02,621.07 662.63,621.07 662.63,635.07 663.02,635.07 663.02,712.39 662.83,712.39 662.83,726.39 663.02,726.39 663.00,784.00 443.15,821.48 415.19,828.00 415.19,664.48 459.97,664.48 490.48,652.34 509.03,629.31 509.03,503.89 662.02,503.89 "/><g class="Dimension" transform="matrix(1,0,0,1,415.1881,503.8917)"><g class="Visual" style="display: none;" transform="matrix(1,0,0,1,0,0)"><g class="DimensionMark" fill="#000000" id="mark1" stroke="none" style="fill-opacity: 1; pointer-events: visible;" transform="matrix(1,0,0,1,120.1278,0)"><polygon points="-5,5,0,0,5,5"/></g><g class="DimensionMark" fill="#000000" id="mark2" stroke="none" style="fill-opacity: 1; pointer-events: visible;" transform="matrix(1,0,0,1,247.8361,162.0541)"><polygon points="-5,-5,0,0,-5,5"/></g><g class="DimensionMark" fill="#000000" id="mark3" stroke="none" style="fill-opacity: 1; pointer-events: visible;" transform="matrix(1,0,0,1,120.1278,301.8755)"><polygon points="-5,-5,0,0,5,-5"/></g><g class="DimensionMark" fill="#000000" id="mark4" stroke="none" style="fill-opacity: 1; pointer-events: visible;" transform="matrix(1,0,0,1,0,162.0541)"><polygon points="5,5,0,0,5,-5"/></g></g><g class="SpaceDimensionsLabel" transform="matrix(1,0,0,1,113.7031,189.5686)"><g class="TextLabel NameLabel" id="NameLabel" style="display: block;"/><g class="TextLabel DimensionMeasureLabel" id="DimensionMeasureLabel" style="display: none;" transform="matrix(1,0,0,1,-119.3125,79.7031)"/></g></g></g><g class="Space Undefined" fill="#ffffff" id="a501af87-5f72-4078-bb7c-85df1a6a15fd" stroke="#ffffff" style="fill-opacity: 1; stroke-opacity: 1; stroke-width: 1;"><polygon points="401.00,831.00 269.19,861.69 269.19,664.48 401.19,664.48 "/><g class="Dimension" transform="matrix(1,0,0,1,269.1911,664.4794)"><g class="Visual" style="display: none;" transform="matrix(1,0,0,1,0,0)"><g class="DimensionMark" fill="#000000" id="mark1" stroke="none" style="fill-opacity: 1; pointer-events: visible;" transform="matrix(1,0,0,1,62.6048,0)"><polygon points="-5,5,0,0,5,5"/></g><g class="DimensionMark" fill="#000000" id="mark2" stroke="none" style="fill-opacity: 1; pointer-events: visible;" transform="matrix(1,0,0,1,131.8856,98.6046)"><polygon points="-5,-5,0,0,-5,5"/></g><g class="DimensionMark" fill="#000000" id="mark3" stroke="none" style="fill-opacity: 1; pointer-events: visible;" transform="matrix(1,0,0,1,62.6048,182.6333)"><polygon points="-5,-5,0,0,5,-5"/></g><g class="DimensionMark" fill="#000000" id="mark4" stroke="none" style="fill-opacity: 1; pointer-events: visible;" transform="matrix(1,0,0,1,0,98.6046)"><polygon points="5,5,0,0,5,-5"/></g></g><g class="SpaceDimensionsLabel" transform="matrix(1,0,0,1,65.9985,65.9985)"><g class="TextLabel NameLabel" id="NameLabel" style="display: block;"/><g class="TextLabel DimensionMeasureLabel" id="DimensionMeasureLabel" style="display: none;" transform="matrix(1,0,0,1,-40.5,80.3594)"/></g></g></g><g class="Space Undefined" fill="#ffffff" id="1b5ed13a-8f92-4cb8-a6f8-07c4bbf5ced5" stroke="#ffffff" style="fill-opacity: 1; stroke-opacity: 1; stroke-width: 1;"><polygon points="736.00,621.07 678.02,621.07 677.02,503.89 736.00,503.89 "/><g class="Dimension" transform="matrix(1,0,0,1,677.524,503.8917)"><g class="Visual" style="display: none;" transform="matrix(1,0,0,1,0,0)"><g class="DimensionMark" fill="#000000" id="mark1" stroke="none" style="fill-opacity: 1; pointer-events: visible;" transform="matrix(1,0,0,1,28.9883,0)"><polygon points="-5,5,0,0,5,5"/></g><g class="DimensionMark" fill="#000000" id="mark2" stroke="none" style="fill-opacity: 1; pointer-events: visible;" transform="matrix(1,0,0,1,58.4766,58.5839)"><polygon points="-5,-5,0,0,-5,5"/></g><g class="DimensionMark" fill="#000000" id="mark3" stroke="none" style="fill-opacity: 1; pointer-events: visible;" transform="matrix(1,0,0,1,28.9883,117.1764)"><polygon points="-5,-5,0,0,5,-5"/></g><g class="DimensionMark" fill="#000000" id="mark4" stroke="none" style="fill-opacity: 1; pointer-events: visible;" transform="matrix(1,0,0,1,0,58.5839)"><polygon points="5,5,0,0,5,-5"/></g></g><g class="SpaceDimensionsLabel" transform="matrix(1,0,0,1,29.2376,58.4212)"><g class="TextLabel NameLabel" id="NameLabel" style="display: block;"/><g class="TextLabel DimensionMeasureLabel" id="DimensionMeasureLabel" style="display: none;" transform="matrix(1,0,0,1,-40.5,80.3594)"/></g></g></g><g class="Space Undefined" fill="#ffffff" id="d0ac81bf-8dfe-426c-b803-b595dbc470a1" stroke="#ffffff" style="fill-opacity: 1; stroke-opacity: 1; stroke-width: 1;"><polygon points="734.57,726.39 734.57,770.59 735.04,770.59 711.00,776.00 710.63,775.94 678.00,781.00 678.02,726.39 "/><g class="Dimension" transform="matrix(1,0,0,1,678.012,726.3878)"><g class="Visual" style="display: none;" transform="matrix(1,0,0,1,0,0)"><g class="DimensionMark" fill="#000000" id="mark1" stroke="none" style="fill-opacity: 1; pointer-events: visible;" transform="matrix(1,0,0,1,27.8384,0)"><polygon points="-5,5,0,0,5,5"/></g><g class="DimensionMark" fill="#000000" id="mark2" stroke="none" style="fill-opacity: 1; pointer-events: visible;" transform="matrix(1,0,0,1,56.5567,27.3054)"><polygon points="-5,-5,0,0,-5,5"/></g><g class="DimensionMark" fill="#000000" id="mark3" stroke="none" style="fill-opacity: 1; pointer-events: visible;" transform="matrix(1,0,0,1,27.8384,50.2922)"><polygon points="-5,-5,0,0,5,-5"/></g><g class="DimensionMark" fill="#000000" id="mark4" stroke="none" style="fill-opacity: 1; pointer-events: visible;" transform="matrix(1,0,0,1,0,27.3054)"><polygon points="5,5,0,0,5,-5"/></g></g><g class="SpaceDimensionsLabel" transform="matrix(1,0,0,1,27.326,25.053)"><g class="TextLabel NameLabel" id="NameLabel" style="display: block;"/><g class="TextLabel DimensionMeasureLabel" id="DimensionMeasureLabel" style="display: none;" transform="matrix(1,0,0,1,-40.5,80.3594)"/></g></g></g><g class="Space Undefined" fill="#ffffff" id="53618d26-10ce-43ce-92a7-a7a054506730" stroke="#ffffff" style="fill-opacity: 1; stroke-opacity: 1; stroke-width: 1;"><polygon points="1108.41,161.86 1089.98,161.86 1089.98,97.82 1108.41,97.82 "/><g class="Dimension" transform="matrix(1,0,0,1,1089.9781,97.8194)"><g class="Visual" style="display: none;" transform="matrix(1,0,0,1,0,0)"><g class="DimensionMark" fill="#000000" id="mark1" stroke="none" style="fill-opacity: 1; pointer-events: visible;" transform="matrix(1,0,0,1,9.215,0)"><polygon points="-5,5,0,0,5,5"/></g><g class="DimensionMark" fill="#000000" id="mark2" stroke="none" style="fill-opacity: 1; pointer-events: visible;" transform="matrix(1,0,0,1,18.4301,32.0221)"><polygon points="-5,-5,0,0,-5,5"/></g><g class="DimensionMark" fill="#000000" id="mark3" stroke="none" style="fill-opacity: 1; pointer-events: visible;" transform="matrix(1,0,0,1,9.215,64.0442)"><polygon points="-5,-5,0,0,5,-5"/></g><g class="DimensionMark" fill="#000000" id="mark4" stroke="none" style="fill-opacity: 1; pointer-events: visible;" transform="matrix(1,0,0,1,0,32.0221)"><polygon points="5,5,0,0,5,-5"/></g></g><g class="SpaceDimensionsLabel" transform="matrix(1,0,0,1,9.2151,9.215)"><g class="TextLabel NameLabel" id="NameLabel" style="display: block;"/><g class="TextLabel DimensionMeasureLabel" id="DimensionMeasureLabel" style="display: none;" transform="matrix(1,0,0,1,-40.5,80.3594)"/></g></g></g><g class="Wall External" fill="#000000" id="Wall" stroke="#000000" style="fill-opacity: 1; stroke-opacity: 1; stroke-width: 1;"><polygon points="1122.98,38.39 1122.98,97.82 1073.98,97.82 1073.98,54.39 "/></g><g class="Wall External" fill="#000000" id="Wall" stroke="#000000" style="fill-opacity: 1; stroke-opacity: 1; stroke-width: 1;"><polygon points="1122.98,97.82 1122.98,161.86 1108.41,161.86 1108.41,97.82 "/></g><g class="Wall External" fill="#000000" id="Wall" stroke="#000000" style="fill-opacity: 1; stroke-opacity: 1; stroke-width: 1;"><polygon points="1122.98,161.86 1122.98,561.91 1073.98,580.26 1073.98,161.86 "/><g class="Window Regular" fill="#f0f0ff" id="Window" stroke="#000000" style="fill-opacity: 1; stroke-width: 1; stroke-opacity: 1;"><polygon points="1122.98,211.76 1122.98,458.46 1073.98,458.46 1073.98,211.76 "/><g class="Glass" id="Glass"><polygon points="1122.98,211.76 1122.98,458.46 1073.98,458.46 1073.98,211.76 "/></g><g class="Panel" id="Panel"><line x1="1098.4781115343608" x2="1098.4781115343608" y1="219.26386752032687" y2="450.9569679520805"/><line x1="1122.9781115343608" x2="1073.9781115343608" y1="219.26386752032687" y2="219.26386752032687"/><line x1="1122.9781115343608" x2="1073.9781115343608" y1="450.9569679520805" y2="450.9569679520805"/></g></g><g class="Window Regular" fill="#f0f0ff" id="Window" stroke="#000000" style="fill-opacity: 1; stroke-width: 1; stroke-opacity: 1;"><polygon points="1122.98,504.78 1122.98,557.25 1073.98,557.25 1073.98,504.78 "/><g class="Glass" id="Glass"><polygon points="1122.98,504.78 1122.98,557.25 1073.98,557.25 1073.98,504.78 "/></g><g class="Panel" id="Panel"><line x1="1098.4781115343608" x2="1098.4781115343608" y1="512.2816904313464" y2="549.7458339620814"/><line x1="1122.9781115343608" x2="1073.9781115343608" y1="512.2816904313464" y2="512.2816904313464"/><line x1="1122.9781115343608" x2="1073.9781115343608" y1="549.7458339620814" y2="549.7458339620814"/></g></g></g><g class="Wall External" fill="#000000" id="Wall" stroke="#000000" style="fill-opacity: 1; stroke-opacity: 1; stroke-width: 1;"><polygon points="1122.98,561.91 883.89,750.97 872.19,739.82 1073.98,580.26 "/></g><g class="Wall External" fill="#000000" id="Wall" stroke="#000000" style="fill-opacity: 1; stroke-opacity: 1; stroke-width: 1;"><polygon points="664.30,800.06 446.29,837.17 443.15,821.48 710.63,775.94 "/><g class="Door Swing Beside" fill="#ffffff" id="Door" stroke="#000000" style="fill-opacity: 1; stroke-width: 1; stroke-opacity: 1;"><polygon points="558.00,818.16 457.23,835.31 454.55,819.54 555.31,802.38 "/><g class="Panel Right Negative" fill="none" id="Panel" style=""><g class="PanelArea" fill="none" id="PanelArea" stroke="none" style=""><polygon points="558.00,818.16 457.23,835.31 454.55,819.54 555.31,802.38 "/></g><path d="M457.23,835.31 q17.16,100.76 117.92,83.61 l-17.16,-100.76Z"/></g></g></g><g class="Wall External" fill="#000000" id="Wall" stroke="#000000" style="fill-opacity: 1; stroke-opacity: 1; stroke-width: 1;"><polygon points="446.29,837.17 253.19,881.81 269.19,861.69 443.15,821.48 "/></g><g class="Wall External" fill="#000000" id="Wall" stroke="#000000" style="fill-opacity: 1; stroke-opacity: 1; stroke-width: 1;"><polygon points="253.19,881.81 253.19,649.66 269.19,664.48 269.19,861.69 "/></g><g class="Wall External" fill="#000000" id="Wall" stroke="#000000" style="fill-opacity: 1; stroke-opacity: 1; stroke-width: 1;"><polygon points="253.19,649.66 455.91,649.66 459.97,664.48 269.19,664.48 "/></g><g class="Wall External" fill="#000000" id="Wall" stroke="#000000" style="fill-opacity: 1; stroke-opacity: 1; stroke-width: 1;"><polygon points="455.91,649.66 480.59,639.84 490.48,652.34 459.97,664.48 "/></g><g class="Wall External" fill="#000000" id="Wall" stroke="#000000" style="fill-opacity: 1; stroke-opacity: 1; stroke-width: 1;"><polygon points="480.59,639.84 493.84,623.39 509.03,629.31 490.48,652.34 "/></g><g class="Wall External" fill="#000000" id="Wall" stroke="#000000" style="fill-opacity: 1; stroke-opacity: 1; stroke-width: 1;"><polygon points="493.84,623.39 493.84,102.26 509.03,82.46 509.03,629.31 "/></g><g class="Wall External" fill="#000000" id="Wall" stroke="#000000" style="fill-opacity: 1; stroke-opacity: 1; stroke-width: 1;"><polygon points="493.95,38.39 1122.98,38.39 1073.98,54.39 509.08,54.39 "/></g><g class="Wall" fill="#000000" id="Wall" stroke="#000000" style="fill-opacity: 1; stroke-opacity: 1; stroke-width: 1;"><polygon points="1073.98,161.86 1073.98,97.82 1089.98,97.82 1089.98,161.86 "/><g class="Door Swing Beside" fill="#ffffff" id="Door" stroke="#000000" style="fill-opacity: 1; stroke-width: 1; stroke-opacity: 1;"><polygon points="1073.98,157.92 1073.98,100.07 1089.98,100.07 1089.98,157.92 "/><g class="Panel Left Negative" fill="none" id="Panel" style=""><g class="PanelArea" fill="none" id="PanelArea" stroke="none" style=""><polygon points="1073.98,157.92 1073.98,100.07 1089.98,100.07 1089.98,157.92 "/></g><path d="M1073.98,157.92 q-57.86,0.00 -57.86,-57.86 l57.86,0.00Z"/></g></g></g><g class="Wall" fill="#000000" id="Wall" stroke="#000000" style="fill-opacity: 1; stroke-opacity: 1; stroke-width: 1;"><polygon points="493.84,503.89 1122.98,503.89 1122.98,488.89 493.84,488.89 "/><g class="Door Swing Beside" fill="#ffffff" id="Door" stroke="#000000" style="fill-opacity: 1; stroke-width: 1; stroke-opacity: 1;"><polygon points="563.17,503.89 644.35,503.89 644.35,488.89 563.17,488.89 "/><g class="Panel Right Positive" fill="none" id="Panel" style=""><g class="PanelArea" fill="none" id="PanelArea" stroke="none" style=""><polygon points="563.17,503.89 644.35,503.89 644.35,488.89 563.17,488.89 "/></g><path d="M563.17,488.89 q0.00,-81.18 81.18,-81.18 l0.00,81.18Z"/></g></g><g class="Door Swing Beside" fill="#ffffff" id="Door" stroke="#000000" style="fill-opacity: 1; stroke-width: 1; stroke-opacity: 1;"><polygon points="789.18,503.89 854.68,503.89 854.68,488.89 789.18,488.89 "/><g class="Panel Left Positive" fill="none" id="Panel" style=""><g class="PanelArea" fill="none" id="PanelArea" stroke="none" style=""><polygon points="789.18,503.89 854.68,503.89 854.68,488.89 789.18,488.89 "/></g><path d="M854.68,488.89 q0.00,-65.50 -65.50,-65.50 l0.00,65.50Z"/></g></g><g class="Window Regular" fill="#f0f0ff" id="Window" stroke="#000000" style="fill-opacity: 1; stroke-width: 1; stroke-opacity: 1;"><polygon points="862.52,503.89 939.09,503.89 939.09,488.89 862.52,488.89 "/><g class="Glass" id="Glass"><polygon points="862.52,503.89 939.09,503.89 939.09,488.89 862.52,488.89 "/></g><g class="Panel" id="Panel"><line x1="870.0231033433477" x2="931.5913696322691" y1="496.39171302059526" y2="496.39171302059526"/><line x1="870.0231033433477" x2="870.0231033433477" y1="503.89171302059526" y2="488.89171302059526"/><line x1="931.5913696322691" x2="931.5913696322691" y1="503.89171302059526" y2="488.89171302059526"/></g></g></g><g class="Wall External" fill="#000000" id="Wall" stroke="#000000" style="fill-opacity: 1; stroke-opacity: 1; stroke-width: 1;"><polygon points="883.89,750.97 676.97,797.22 674.04,784.12 872.19,739.82 "/></g><g class="Wall External" fill="#000000" id="Wall" stroke="#000000" style="fill-opacity: 1; stroke-opacity: 1; stroke-width: 1;"><polygon points="676.97,797.22 664.30,800.06 710.63,775.94 674.04,784.12 "/></g><g class="Wall" fill="#000000" id="Wall" stroke="#000000" style="fill-opacity: 1; stroke-opacity: 1; stroke-width: 1;"><polygon points="662.24,488.89 663.02,784.34 678.02,784.30 677.24,488.85 "/><g class="Door Swing Beside" fill="#ffffff" id="Door" stroke="#000000" style="fill-opacity: 1; stroke-width: 1; stroke-opacity: 1;"><polygon points="662.64,639.95 662.82,706.82 677.82,706.78 677.64,639.91 "/><g class="Panel Left Negative" fill="none" id="Panel" style=""><g class="PanelArea" fill="none" id="PanelArea" stroke="none" style=""><polygon points="662.64,639.95 662.82,706.82 677.82,706.78 677.64,639.91 "/></g><path d="M662.64,639.95 q-66.87,0.18 -66.69,67.04 l66.87,-0.18Z"/></g></g><g class="Door Swing Beside" fill="#ffffff" id="Door" stroke="#000000" style="fill-opacity: 1; stroke-width: 1; stroke-opacity: 1;"><polygon points="662.29,508.50 662.58,616.89 677.58,616.85 677.29,508.46 "/><g class="Panel Right Negative" fill="none" id="Panel" style=""><g class="PanelArea" fill="none" id="PanelArea" stroke="none" style=""><polygon points="662.29,508.50 662.44,562.70 677.44,562.66 677.29,508.46 "/></g><path d="M662.44,562.70 q-54.20,0.14 -54.34,-54.05 l54.20,-0.14Z"/></g><g class="Panel Left Negative" fill="none" id="Panel" style=""><g class="PanelArea" fill="none" id="PanelArea" stroke="none" style=""><polygon points="662.44,562.70 662.58,616.89 677.58,616.85 677.44,562.66 "/></g><path d="M662.44,562.70 q-54.20,0.14 -54.05,54.34 l54.20,-0.14Z"/></g></g></g><g class="Wall" fill="#000000" id="Wall" stroke="#000000" style="fill-opacity: 1; stroke-opacity: 1; stroke-width: 1;"><polygon points="662.63,635.07 750.00,635.07 736.00,621.07 662.63,621.07 "/></g><g class="Wall" fill="#000000" id="Wall" stroke="#000000" style="fill-opacity: 1; stroke-opacity: 1; stroke-width: 1;"><polygon points="750.00,635.07 750.00,488.89 736.00,488.89 736.00,621.07 "/></g><g class="Wall" fill="#000000" id="Wall" stroke="#000000" style="fill-opacity: 1; stroke-opacity: 1; stroke-width: 1;"><polygon points="734.57,770.59 734.57,726.39 749.81,712.39 749.81,770.59 "/></g><g class="Wall" fill="#000000" id="Wall" stroke="#000000" style="fill-opacity: 1; stroke-opacity: 1; stroke-width: 1;"><polygon points="749.81,712.39 662.83,712.39 662.83,726.39 734.57,726.39 "/><g class="Door Swing Beside" fill="#ffffff" id="Door" stroke="#000000" style="fill-opacity: 1; stroke-width: 1; stroke-opacity: 1;"><polygon points="734.76,712.39 683.56,712.39 683.56,726.39 734.76,726.39 "/><g class="Panel Left Negative" fill="none" id="Panel" style=""><g class="PanelArea" fill="none" id="PanelArea" stroke="none" style=""><polygon points="734.76,712.39 683.56,712.39 683.56,726.39 734.76,726.39 "/></g><path d="M734.76,712.39 q0.00,-51.20 -51.20,-51.20 l-0.00,51.20Z"/></g></g></g><g class="Wall" fill="#000000" id="Wall" stroke="#000000" style="fill-opacity: 1; stroke-opacity: 1; stroke-width: 1;"><polygon points="401.19,831.18 401.19,649.66 415.19,649.66 415.19,831.18 "/><g class="Door Swing Beside" fill="#ffffff" id="Door" stroke="#000000" style="fill-opacity: 1; stroke-width: 1; stroke-opacity: 1;"><polygon points="401.19,734.95 401.19,676.37 415.19,676.37 415.19,734.95 "/><g class="Panel Right Positive" fill="none" id="Panel" style=""><g class="PanelArea" fill="none" id="PanelArea" stroke="none" style=""><polygon points="401.19,734.95 401.19,676.37 415.19,676.37 415.19,734.95 "/></g><path d="M415.19,734.95 q58.58,0.00 58.58,-58.58 l-58.58,0.00Z"/></g></g></g><g class="Column FreeShape" fill="#000000" id="Column" stroke="none" style="fill-opacity: 1;"><polygon points="269.19,861.69 401.19,831.18 401.19,822.60 269.29,822.60 269.19,861.69 269.19,861.69 "/></g><g class="Column FreeShape" fill="#000000" id="Column" stroke="none" style="fill-opacity: 1;"><polygon points="415.03,827.79 443.15,821.48 445.29,820.87 429.51,767.48 415.00,767.48 415.03,827.79 415.03,827.79 "/></g><g class="Column FreeShape" fill="#000000" id="Column" stroke="none" style="fill-opacity: 1;"><polygon points="663.02,784.34 663.02,770.37 558.96,770.37 558.96,802.19 663.02,784.34 663.02,784.34 "/></g><g class="FixedFurniture Shower" fill="#ffffff" stroke="#000000" style="fill-opacity: 1; stroke-opacity: 1;" transform="matrix(0,-1,1,0,269.1911,814.9441)">
<g class="BoundaryPolygon" fill="none" stroke="none">
<polygon points="0,0 32,0 32,19 0,19"/>
</g>
<g class="InnerPolygon">
<rect height="6.1" width="11.2" x="3.7" y="0.5"/>
<rect height="6.1" width="11.2" x="17.6" y="0.5"/>
<rect height="6.1" width="3.4" x="28.7" y="0.5"/>
<rect height="6.1" width="3.2" x="0.5" y="0.5"/>
<path d="M14.9,8.5c0,1.5-0.4,3.3-1.6,5    c-0.4,0.6-1,1.1-1.1,1.7c-0.2,1.1,0.3,2.8,2.5,3.2c0.5,0.1,1.3,0.1,1.6,0.1h-0.1c0.3,0,1.1,0,1.6-0.1c2.2-0.4,2.7-2.1,2.5-3.2    c-0.1-0.6-0.7-1.1-1.1-1.7c-1.2-1.7-1.6-3.5-1.6-5"/>
<path d="M12.2,15.3c0.1,0.2,1.6,1.9,4.2,1.9 c2.4-0.1,3.7-1.7,3.9-1.9"/>
<path d="M14.9,0.5h2.7v8c-0.9,0-1.8,0-2.7,0l0,0 C14.9,5.9,14.9,3.2,14.9,0.5z"/>
</g>
<g class="Indicator">
<path d="M3.7,3.6C5,3.1,5.2,3,5.2,3 c0,1.1,0,0,0,1.1C5.2,4.1,5.1,4.1,3.7,3.6"/>
<path d="M28.7,3.6 C27.4,3.1,27.2,3,27.2,3c0,1.1,0,0,0,1.1C27.2,4.1,27.3,4.1,28.7,3.6"/>
</g>
<desc>Width:32 Height:97 Depth:19 Elevation:135</desc>
</g><g class="FixedFurnitureSet" fill="#ffffff" id="FixedFurnitureSet" stroke="#000000" style="fill-opacity: 0.4; stroke-opacity: 0.4;" transform="matrix(0,-1,1,0,269.2692,771.0358)"><g class="FixedFurniture BaseCabinet" fill="#ffffff" stroke="#000000" style="fill-opacity: 1; stroke-opacity: 1;" transform="matrix(1,0,0,1,0,0)">
<g class="BoundaryPolygon">
<polygon points="0.00,0.00 47.11,0.00 47.11,37.87 0.00,37.87 "/>
</g>
<g class="Direction" fill-opacity="0.9" style="display: none;">
<polygon fill="#444444" points="25.13,34.84 25.13,24.22 22.12,24.22 22.12,34.84 18.32,34.84 23.62,39.64 28.92,34.84 25.13,34.84 "/>
</g>
<g class="Name" fill-opacity="0.9" style="display: none;">

</g>
<desc>Width:60 Height:5 Depth:60 Elevation:105</desc>
</g><g class="FixedFurniture Sink" fill="#ffffff" stroke="#000000" style="fill-opacity: 1; stroke-opacity: 1;" transform="matrix(1,0,0,1,0,0)">
<g class="BoundaryPolygon" fill="none" stroke="none">
<polygon points="0.00,0.00 47.11,0.00 47.11,37.87 0.00,37.87 "/>
</g>
<g class="InnerPolygon">
<polygon points="3.93,9.70 43.18,9.70 43.18,34.52 3.93,34.52 "/>
</g>
<g class="OuterDrain" stroke-width="0.8">
<circle cx="23.55301353469676" cy="20.32211908447121" r="3.5"/>
</g>
<g class="InnerDrain" stroke-width="0.8">
<circle cx="23.55301353469676" cy="20.32211908447121" r="2"/>
</g>
<g class="Faucet">
<polygon points="21.20,3.16 27.20,3.16 27.20,17.16 21.20,17.16 "/>
</g>
<g class="Direction" fill-opacity="0.9" style="display: none;">
<polygon fill="#444444" points="25.13,34.84 25.13,24.22 22.12,24.22 22.12,34.84 18.32,34.84 23.62,39.64 28.92,34.84 25.13,34.84 "/>
</g>
<g class="Name" fill-opacity="0.9" style="display: none;">

</g>
<desc>Width:60 Height:90 Depth:60 Elevation:0</desc>
</g></g><g class="FixedFurniture Toilet" fill="#ffffff" stroke="#000000" style="fill-opacity: 1; stroke-opacity: 1;" transform="matrix(0,-0.9116,0.9319,0,269.1911,721.9111)">
<g class="BoundaryPolygon" fill="none" stroke="none">
<polygon points="0,0 41,0 41,71 0,71"/>
</g>
<g class="InnerPolygon">
<rect height="17.98" width="39.989" x="0.502" y="0.5"/>
<path d="M40.491,44.237S41.619,70.5,20.907,70.5C-.523,70.5.6,44.237.6,44.237L.5,18.48H40.491Z"/>
<rect height="3.03" width="6.357" x="17.318" y="7.975"/>
</g>
<desc>Width:41 Height:85 Depth:71 Elevation:0</desc>
</g><g class="FixedFurnitureSet" fill="#ffffff" id="FixedFurnitureSet" stroke="#000000" style="fill-opacity: 0.4; stroke-opacity: 0.4;" transform="matrix(0,1,-1,0,735.8601,503.8918)"><g class="FixedFurniture Closet" fill="#ffffff" stroke="#000000" style="fill-opacity: 1; stroke-opacity: 1;" transform="matrix(1,0,0,1,0,0)">
<g class="BoundaryPolygon">
<polygon points="0.00,0.00 58.70,0.00 58.70,58.56 0.00,58.56 "/>
</g>
<g class="Direction" fill-opacity="0.9" style="display: none;">
<polygon fill="#444444" points="30.83,53.38 30.83,42.77 27.82,42.77 27.82,53.38 24.01,53.38 29.32,58.68 34.62,53.38 30.83,53.38 "/>
</g>
<g class="Name" fill-opacity="0.9" style="display: none;">

</g>
<desc>Width:60 Height:200 Depth:60 Elevation:0</desc>
</g><g class="FixedFurniture Closet" fill="#ffffff" stroke="#000000" style="fill-opacity: 1; stroke-opacity: 1;" transform="matrix(1,0,0,1,58.6977,0)">
<g class="BoundaryPolygon">
<polygon points="0.00,0.00 58.70,0.00 58.70,58.56 0.00,58.56 "/>
</g>
<g class="Direction" fill-opacity="0.9" style="display: none;">
<polygon fill="#444444" points="30.83,53.38 30.83,42.77 27.82,42.77 27.82,53.38 24.01,53.38 29.32,58.68 34.62,53.38 30.83,53.38 "/>
</g>
<g class="Name" fill-opacity="0.9" style="display: none;">

</g>
<desc>Width:60 Height:200 Depth:60 Elevation:0</desc>
</g></g><g class="FixedFurniture Closet" fill="#ffffff" stroke="#000000" style="fill-opacity: 1; stroke-opacity: 1;" transform="matrix(0,1,-1,0,1108.2519,97.8194)">
<g class="BoundaryPolygon">
<polygon points="0.00,0.00 64.23,0.00 64.23,18.59 0.00,18.59 "/>
</g>
<g class="Direction" fill-opacity="0.9" style="display: none;">
<polygon fill="#444444" points="33.73,16.95 33.73,6.33 30.72,6.33 30.72,16.95 26.92,16.95 32.22,22.25 37.53,16.95 33.73,16.95 "/>
</g>
<g class="Name" fill-opacity="0.9" style="display: none;">

</g>
<desc>Width:60 Height:200 Depth:60 Elevation:0</desc>
</g><g class="FixedFurniture BaseCabinet" fill="#ffffff" stroke="#000000" style="fill-opacity: 1; stroke-opacity: 1;" transform="matrix(1,0,0,1,1073.9781,503.8917)"><desc>Width:60 Height:90 Depth:60 Elevation:0</desc><g class="BoundaryPolygon"><polygon points="0.00,0.00 -58.28,0.00 -58.28,49.42 -183.83,146.92 -148.13,193.61 0.00,76.37 0.00,0.00 "/></g></g><g class="FixedFurniture Sink" fill="#ffffff" stroke="#000000" style="fill-opacity: 1; stroke-opacity: 1;" transform="matrix(-0.788,0.6157,-0.6157,-0.788,1008.5039,628.9523)">
<g class="BoundaryPolygon" fill="none" stroke="none">
<polygon points="0.00,0.00 49.67,0.00 49.67,48.61 0.00,48.61 "/>
</g>
<g class="InnerPolygon">
<polygon points="4.14,9.70 45.53,9.70 45.53,44.32 4.14,44.32 "/>
</g>
<g class="OuterDrain" stroke-width="0.8">
<circle cx="24.834023704134157" cy="26.089960762747346" r="3.5"/>
</g>
<g class="InnerDrain" stroke-width="0.8">
<circle cx="24.834023704134157" cy="26.089960762747346" r="2"/>
</g>
<g class="Faucet">
<polygon points="22.35,4.05 28.35,4.05 28.35,18.05 22.35,18.05 "/>
</g>
<g class="Direction" fill-opacity="0.9" style="display: none;">
<polygon fill="#444444" points="26.50,44.72 26.50,34.11 23.49,34.11 23.49,44.72 19.69,44.72 24.99,49.53 30.29,44.72 26.50,44.72 "/>
</g>
<g class="Name" fill-opacity="0.9" style="display: none;">

</g>
<desc>Width:60 Height:90 Depth:60 Elevation:0</desc>
</g><g class="FixedFurniture ElectricalAppliance HighHeater" fill="#ffffff" stroke="#000000" style="fill-opacity: 1; stroke-opacity: 1;" transform="matrix(-0.788,0.6157,-0.6082,-0.7785,926.4863,697.5707)">
<g class="BoundaryPolygon">
<polygon points="0 0 60 0 60 60 0 60"/>
</g>
<g class="heaterSign" fill="none" stroke="#000000">
<path d="M0,0,60,60"/>
<path d="M16.5,24.2,36,43.5"/>
<path d="M24.1,16.6,43.6,36"/>
</g>
<g class="Direction" fill-opacity="0.9" style="display: none;">
<polygon fill="#444444" points="31.509 54.697 31.509 44.081 28.5 44.081 28.5 54.697 24.697 54.697 30 60 35.303 54.697 31.509 54.697"/>
</g>
<g class="Name" fill-opacity="0.9" style="display: none;">

</g>
<desc>Width:60 Height:180 Depth:60 Elevation:0</desc>
</g><g class="FixedFurniture Closet" fill="#ffffff" stroke="#000000" style="fill-opacity: 1; stroke-opacity: 1;" transform="matrix(1,0,0,1,734.5687,726.3892)"><desc>Width:120 Height:200 Depth:60 Elevation:0</desc><g class="BoundaryPolygon"><polygon points="0.00,0.00 0.00,44.20 -56.37,55.14 -56.37,0.04 0.00,0.00 "/></g></g><g class="FixedFurniture Closet" fill="#ffffff" stroke="#000000" style="fill-opacity: 1; stroke-opacity: 1;" transform="matrix(1,0,0,1,749.8133,712.3897)"><desc>Width:120 Height:200 Depth:60 Elevation:0</desc><g class="BoundaryPolygon"><polygon points="0.00,0.00 24.24,0.00 24.24,49.31 -0.01,54.55 0.00,0.00 "/></g></g><g class="SelectionControls" fill="#0000ff" stroke="#0000ff" style="display: none;"><g class="rotateControl" style="display: none;"><circle cx="550.1489933019363" cy="630.9759380205953" r="5" style="stroke : none; fill-opacity: 0.5; cursor:crosshair"/></g><g class="ResizeNControl" style="display: none;"><circle cx="0" cy="0" r="5" style="stroke : none; fill-opacity: 0.5"/></g><g class="ResizeNEControl" style="display: none;"><circle cx="0" cy="0" r="5" style="stroke : none; fill-opacity: 0.5"/></g><g class="ResizeEControl" style="display: none;"><circle cx="0" cy="0" r="5" style="stroke : none; fill-opacity: 0.5"/></g><g class="ResizeSEControl" style="display: none;"><circle cx="0" cy="0" r="5" style="stroke : none; fill-opacity: 0.5"/></g><g class="ResizeSControl" style="display: none;"><circle cx="0" cy="0" r="5" style="stroke : none; fill-opacity: 0.5"/></g><g class="ResizeSWControl" style="display: none;"><circle cx="0" cy="0" r="5" style="stroke : none; fill-opacity: 0.5"/></g><g class="ResizeWControl" style="display: none;"><circle cx="0" cy="0" r="5" style="stroke : none; fill-opacity: 0.5"/></g><g class="ResizeNWControl" style="display: none;"><circle cx="0" cy="0" r="5" style="stroke : none; fill-opacity: 0.5"/></g><g class="removeControl" style="display: none;"><polygon points="528.89,660.98 571.41,660.98 571.41,699.65 528.89,699.65 " style="stroke : none; fill-opacity: 0.1"/></g><g class="copyPasteControl" style="display: none;"><polygon style="stroke : none; fill-opacity: 0.1"/></g><g class="translateControl" style="display: none;"><polygon points="528.89,660.98 571.41,660.98 571.41,699.65 528.89,699.65 " style="stroke : none; fill-opacity: 0.1; cursor:move"/></g></g><g class="SelectionControls" fill="#0000ff" stroke="#0000ff" style="display: none;"><polygon fill="none" points="415.19,503.89 663.02,503.89 663.02,828.00 415.19,828.00 " stroke="#0000ff" style=""/><g class="rotateControl" style="display: none;"><circle cx="539.1061334752762" cy="473.8917130205953" r="5" style="stroke : none; fill-opacity: 0.5; cursor:crosshair"/></g><g class="ResizeNControl" style="display: none;"><circle cx="0" cy="0" r="5" style="stroke : none; fill-opacity: 0.5"/></g><g class="ResizeNEControl" style="display: none;"><circle cx="0" cy="0" r="5" style="stroke : none; fill-opacity: 0.5"/></g><g class="ResizeEControl" style="display: none;"><circle cx="0" cy="0" r="5" style="stroke : none; fill-opacity: 0.5"/></g><g class="ResizeSEControl" style="display: none;"><circle cx="0" cy="0" r="5" style="stroke : none; fill-opacity: 0.5"/></g><g class="ResizeSControl" style="display: none;"><circle cx="0" cy="0" r="5" style="stroke : none; fill-opacity: 0.5"/></g><g class="ResizeSWControl" style="display: none;"><circle cx="0" cy="0" r="5" style="stroke : none; fill-opacity: 0.5"/></g><g class="ResizeWControl" style="display: none;"><circle cx="0" cy="0" r="5" style="stroke : none; fill-opacity: 0.5"/></g><g class="ResizeNWControl" style="display: none;"><circle cx="0" cy="0" r="5" style="stroke : none; fill-opacity: 0.5"/></g><g class="removeControl" style="display: none;"><polygon style="stroke : none; fill-opacity: 0.1"/></g><g class="copyPasteControl" style="display: none;"><polygon style="stroke : none; fill-opacity: 0.1"/></g><g class="translateControl" style="display: none;"><polygon style="stroke : none; fill-opacity: 0.1; cursor:move"/></g></g><g class="Wall External" fill="#000000" id="Wall" stroke="#000000" style="fill-opacity: 1; stroke-opacity: 1; stroke-width: 1;"><polygon points="493.84,102.26 493.95,38.39 509.08,54.39 509.03,82.46 "/></g></g></g></g></svg>