<?xml version="1.0" encoding="utf-8"?>
<svg height="1090.8700466156006" id="temp" version="1.1" viewBox="0 0 1659.3001098632812 1090.8700466156006" width="1659.3001098632812" xmlns="http://www.w3.org/2000/svg" xmlns:xlink="http://www.w3.org/1999/xlink"><defs/><g class="Model v1-1" id="Model"><g class="Floor"><g class="Floorplan Floor-1" id="Floor-1"><g class="Space Closet WalkIn" fill="#ffffff" id="7000ecda-c7da-4590-8d10-ef99c3460e09" stroke="#ffffff" style="fill-opacity: 1; stroke-opacity: 1; stroke-width: 1;"><polygon points="967.48,535.72 813.41,535.72 813.41,409.64 967.48,409.64 "/><g class="Dimension" transform="matrix(1,0,0,1,813.415,409.6399)"><g class="Visual" style="display: none;" transform="matrix(1,0,0,1,0,0)"><g class="DimensionMark" fill="#000000" id="mark1" stroke="none" style="fill-opacity: 1; pointer-events: visible;" transform="matrix(1,0,0,1,77.0325,0)"><polygon points="-5,5,0,0,5,5"/></g><g class="DimensionMark" fill="#000000" id="mark2" stroke="none" style="fill-opacity: 1; pointer-events: visible;" transform="matrix(1,0,0,1,154.0651,63.0384)"><polygon points="-5,-5,0,0,-5,5"/></g><g class="DimensionMark" fill="#000000" id="mark3" stroke="none" style="fill-opacity: 1; pointer-events: visible;" transform="matrix(1,0,0,1,77.0325,126.0768)"><polygon points="-5,-5,0,0,5,-5"/></g><g class="DimensionMark" fill="#000000" id="mark4" stroke="none" style="fill-opacity: 1; pointer-events: visible;" transform="matrix(1,0,0,1,0,63.0384)"><polygon points="5,5,0,0,5,-5"/></g></g><g class="SpaceDimensionsLabel" transform="matrix(1,0,0,1,68.0971,60.5091)"><g class="TextLabel NameLabel" id="NameLabel" style="display: block;"/><g class="TextLabel DimensionMeasureLabel" id="DimensionMeasureLabel" style="display: none;" transform="matrix(1,0,0,1,-116.3281,79.625)"/></g></g></g><g class="Space Bath" fill="#ffffff" id="5cc522b7-0f5a-4476-8f90-52e6f6dccb9d" stroke="#ffffff" style="fill-opacity: 1; stroke-opacity: 1; stroke-width: 1;"><polygon points="967.48,649.49 813.41,649.49 813.41,549.72 967.48,549.72 "/><g class="Dimension" transform="matrix(1,0,0,1,813.415,549.7167)"><g class="Visual" style="display: none;" transform="matrix(1,0,0,1,0,0)"><g class="DimensionMark" fill="#000000" id="mark1" stroke="none" style="fill-opacity: 1; pointer-events: visible;" transform="matrix(1,0,0,1,77.0325,0)"><polygon points="-5,5,0,0,5,5"/></g><g class="DimensionMark" fill="#000000" id="mark2" stroke="none" style="fill-opacity: 1; pointer-events: visible;" transform="matrix(1,0,0,1,154.0651,49.8865)"><polygon points="-5,-5,0,0,-5,5"/></g><g class="DimensionMark" fill="#000000" id="mark3" stroke="none" style="fill-opacity: 1; pointer-events: visible;" transform="matrix(1,0,0,1,77.0325,99.7731)"><polygon points="-5,-5,0,0,5,-5"/></g><g class="DimensionMark" fill="#000000" id="mark4" stroke="none" style="fill-opacity: 1; pointer-events: visible;" transform="matrix(1,0,0,1,0,49.8865)"><polygon points="5,5,0,0,5,-5"/></g></g><g class="SpaceDimensionsLabel" style="display: block;" transform="matrix(1,0,0,1,79.9737,78.3414)"><g class="TextLabel NameLabel" id="NameLabel" style="display: block;"/><g class="TextLabel DimensionMeasureLabel" id="DimensionMeasureLabel" style="display: none;" transform="matrix(1,0,0,1,-112.1562,80.3281)"/></g></g></g><g class="Space Bedroom" fill="#ffffff" id="3d9fd2c0-7747-4f68-bf3b-8ed33d09dba1" stroke="#ffffff" style="fill-opacity: 1; stroke-opacity: 1; stroke-width: 1;"><polygon points="1487.17,771.64 983.61,771.64 983.61,409.64 967.61,409.64 967.61,649.49 967.48,649.49 967.48,549.72 967.61,549.72 967.61,535.72 967.48,535.72 967.48,409.64 1487.17,409.64 "/><g class="Dimension" transform="matrix(1,0,0,1,967.4801,409.6399)"><g class="Visual" style="display: none;" transform="matrix(1,0,0,1,0,0)"><g class="DimensionMark" fill="#000000" id="mark1" stroke="none" style="fill-opacity: 1; pointer-events: visible;" transform="matrix(1,0,0,1,259.8471,0)"><polygon points="-5,5,0,0,5,5"/></g><g class="DimensionMark" fill="#000000" id="mark2" stroke="none" style="fill-opacity: 1; pointer-events: visible;" transform="matrix(1,0,0,1,519.6942,181.0007)"><polygon points="-5,-5,0,0,-5,5"/></g><g class="DimensionMark" fill="#000000" id="mark3" stroke="none" style="fill-opacity: 1; pointer-events: visible;" transform="matrix(1,0,0,1,259.8471,362.0013)"><polygon points="-5,-5,0,0,5,-5"/></g><g class="DimensionMark" fill="#000000" id="mark4" stroke="none" style="fill-opacity: 1; pointer-events: visible;" transform="matrix(1,0,0,1,0,181.0007)"><polygon points="5,5,0,0,5,-5"/></g></g><g class="SpaceDimensionsLabel" transform="matrix(1,0,0,1,259.4095,182.8104)"><g class="TextLabel NameLabel" id="NameLabel" style="display: block;"/><g class="TextLabel DimensionMeasureLabel" id="DimensionMeasureLabel" style="display: none;" transform="matrix(1,0,0,1,-113.6875,80.3281)"/></g></g></g><g class="Space Bedroom" fill="#ffffff" id="7c7b1360-a4bb-4e36-b0f4-b4b642bed162" stroke="#ffffff" style="fill-opacity: 1; stroke-opacity: 1; stroke-width: 1;"><polygon points="627.63,771.64 308.84,771.64 308.84,409.64 627.63,409.64 "/><g class="Dimension" transform="matrix(1,0,0,1,308.8389,409.6399)"><g class="Visual" style="display: none;" transform="matrix(1,0,0,1,0,0)"><g class="DimensionMark" fill="#000000" id="mark1" stroke="none" style="fill-opacity: 1; pointer-events: visible;" transform="matrix(1,0,0,1,159.3972,0)"><polygon points="-5,5,0,0,5,5"/></g><g class="DimensionMark" fill="#000000" id="mark2" stroke="none" style="fill-opacity: 1; pointer-events: visible;" transform="matrix(1,0,0,1,318.7944,181.0007)"><polygon points="-5,-5,0,0,-5,5"/></g><g class="DimensionMark" fill="#000000" id="mark3" stroke="none" style="fill-opacity: 1; pointer-events: visible;" transform="matrix(1,0,0,1,159.3972,362.0013)"><polygon points="-5,-5,0,0,5,-5"/></g><g class="DimensionMark" fill="#000000" id="mark4" stroke="none" style="fill-opacity: 1; pointer-events: visible;" transform="matrix(1,0,0,1,0,181.0007)"><polygon points="5,5,0,0,5,-5"/></g></g><g class="SpaceDimensionsLabel" transform="matrix(1,0,0,1,141.7995,177.175)"><g class="TextLabel NameLabel" id="NameLabel" style="display: block;"/><g class="TextLabel DimensionMeasureLabel" id="DimensionMeasureLabel" style="display: none;" transform="matrix(1,0,0,1,-113.7031,79.625)"/></g></g></g><g class="Space Undefined" fill="#ffffff" id="1578dc44-c271-45fe-a9e2-73f9663c5d00" stroke="#ffffff" style="fill-opacity: 1; stroke-opacity: 1; stroke-width: 1;"><polygon points="871.66,388.64 799.41,388.64 799.41,663.49 967.61,663.49 967.61,771.64 957.06,771.64 957.06,796.64 968.61,796.64 968.61,891.08 827.28,891.08 827.28,771.64 641.63,771.64 641.63,262.08 871.66,262.08 "/><g class="Dimension" transform="matrix(1,0,0,1,641.6333,262.085)"><g class="Visual" style="display: none;" transform="matrix(1,0,0,1,0,0)"><g class="DimensionMark" fill="#000000" id="mark1" stroke="none" style="fill-opacity: 1; pointer-events: visible;" transform="matrix(1,0,0,1,185.6503,0)"><polygon points="-5,5,0,0,5,5"/></g><g class="DimensionMark" fill="#000000" id="mark2" stroke="none" style="fill-opacity: 1; pointer-events: visible;" transform="matrix(1,0,0,1,325.9805,401.4048)"><polygon points="-5,-5,0,0,-5,5"/></g><g class="DimensionMark" fill="#000000" id="mark3" stroke="none" style="fill-opacity: 1; pointer-events: visible;" transform="matrix(1,0,0,1,185.6503,628.9932)"><polygon points="-5,-5,0,0,5,-5"/></g><g class="DimensionMark" fill="#000000" id="mark4" stroke="none" style="fill-opacity: 1; pointer-events: visible;" transform="matrix(1,0,0,1,0,401.4048)"><polygon points="5,5,0,0,5,-5"/></g></g><g class="SpaceDimensionsLabel" transform="matrix(1,0,0,1,84.2996,84.2997)"><g class="TextLabel NameLabel" id="NameLabel" style="display: block;"/><g class="TextLabel DimensionMeasureLabel" id="DimensionMeasureLabel" style="display: none;" transform="matrix(1,0,0,1,-40.5156,79.2187)"/></g></g></g><g class="Space LivingRoom" fill="#ffffff" id="3826f1e3-abce-404c-8d7f-60b566df6f11" stroke="#ffffff" style="fill-opacity: 1; stroke-opacity: 1; stroke-width: 1;"><polygon points="1487.17,388.64 871.66,388.64 872.00,262.00 871.66,34.55 1487.17,34.55 "/><g class="Dimension" transform="matrix(1,0,0,1,871.9237,34.5519)"><g class="Visual" style="display: none;" transform="matrix(1,0,0,1,0,0)"><g class="DimensionMark" fill="#000000" id="mark1" stroke="none" style="fill-opacity: 1; pointer-events: visible;" transform="matrix(1,0,0,1,307.4913,0)"><polygon points="-5,5,0,0,5,5"/></g><g class="DimensionMark" fill="#000000" id="mark2" stroke="none" style="fill-opacity: 1; pointer-events: visible;" transform="matrix(1,0,0,1,615.2506,177.0436)"><polygon points="-5,-5,0,0,-5,5"/></g><g class="DimensionMark" fill="#000000" id="mark3" stroke="none" style="fill-opacity: 1; pointer-events: visible;" transform="matrix(1,0,0,1,307.4913,354.088)"><polygon points="-5,-5,0,0,5,-5"/></g><g class="DimensionMark" fill="#000000" id="mark4" stroke="none" style="fill-opacity: 1; pointer-events: visible;" transform="matrix(1,0,0,1,0,177.0436)"><polygon points="5,5,0,0,5,-5"/></g></g><g class="SpaceDimensionsLabel" transform="matrix(1,0,0,1,302.3459,167.5764)"><g class="TextLabel NameLabel" id="NameLabel" style="display: block;"/><g class="TextLabel DimensionMeasureLabel" id="DimensionMeasureLabel" style="display: none;" transform="matrix(1,0,0,1,-114.6172,79.75)"/></g></g></g><g class="Space Bedroom" fill="#ffffff" id="0f985e29-904b-4367-ab4a-f15cb022bbb6" stroke="#ffffff" style="fill-opacity: 1; stroke-opacity: 1; stroke-width: 1;"><polygon points="1487.17,1066.87 984.61,1066.87 984.61,796.64 1487.17,796.64 "/><g class="Dimension" transform="matrix(1,0,0,1,984.6139,796.6412)"><g class="Visual" style="display: none;" transform="matrix(1,0,0,1,0,0)"><g class="DimensionMark" fill="#000000" id="mark1" stroke="none" style="fill-opacity: 1; pointer-events: visible;" transform="matrix(1,0,0,1,251.2802,0)"><polygon points="-5,5,0,0,5,5"/></g><g class="DimensionMark" fill="#000000" id="mark2" stroke="none" style="fill-opacity: 1; pointer-events: visible;" transform="matrix(1,0,0,1,502.5604,135.1144)"><polygon points="-5,-5,0,0,-5,5"/></g><g class="DimensionMark" fill="#000000" id="mark3" stroke="none" style="fill-opacity: 1; pointer-events: visible;" transform="matrix(1,0,0,1,251.2802,270.2288)"><polygon points="-5,-5,0,0,5,-5"/></g><g class="DimensionMark" fill="#000000" id="mark4" stroke="none" style="fill-opacity: 1; pointer-events: visible;" transform="matrix(1,0,0,1,0,135.1144)"><polygon points="5,5,0,0,5,-5"/></g></g><g class="SpaceDimensionsLabel" transform="matrix(1,0,0,1,242.2159,132.2943)"><g class="TextLabel NameLabel" id="NameLabel" style="display: block;"/><g class="TextLabel DimensionMeasureLabel" id="DimensionMeasureLabel" style="display: none;" transform="matrix(1,0,0,1,-113.7031,79.6094)"/></g></g></g><g class="Space Kitchen" fill="#ffffff" id="d118a638-f851-4187-8990-be8228414d84" stroke="#ffffff" style="fill-opacity: 1; stroke-opacity: 1; stroke-width: 1;"><polygon points="627.63,388.64 308.84,388.64 308.84,34.55 627.63,34.55 "/><g class="Dimension" transform="matrix(1,0,0,1,308.8389,34.5519)"><g class="Visual" style="display: none;" transform="matrix(1,0,0,1,0,0)"><g class="DimensionMark" fill="#000000" id="mark1" stroke="none" style="fill-opacity: 1; pointer-events: visible;" transform="matrix(1,0,0,1,159.3972,0)"><polygon points="-5,5,0,0,5,5"/></g><g class="DimensionMark" fill="#000000" id="mark2" stroke="none" style="fill-opacity: 1; pointer-events: visible;" transform="matrix(1,0,0,1,318.7944,177.044)"><polygon points="-5,-5,0,0,-5,5"/></g><g class="DimensionMark" fill="#000000" id="mark3" stroke="none" style="fill-opacity: 1; pointer-events: visible;" transform="matrix(1,0,0,1,159.3972,354.088)"><polygon points="-5,-5,0,0,5,-5"/></g><g class="DimensionMark" fill="#000000" id="mark4" stroke="none" style="fill-opacity: 1; pointer-events: visible;" transform="matrix(1,0,0,1,0,177.044)"><polygon points="5,5,0,0,5,-5"/></g></g><g class="SpaceDimensionsLabel" transform="matrix(1,0,0,1,146.4361,197.4115)"><g class="TextLabel NameLabel" id="NameLabel" style="display: block;"/><g class="TextLabel DimensionMeasureLabel" id="DimensionMeasureLabel" style="display: none;" transform="matrix(1,0,0,1,-128.1641,79.7187)"/></g></g></g><g class="Space Bath" fill="#ffffff" id="b32979bf-b8ac-4c19-8bff-f2176ad7fa28" stroke="#ffffff" style="fill-opacity: 1; stroke-opacity: 1; stroke-width: 1;"><polygon points="857.66,248.08 641.63,248.08 641.63,34.55 857.66,34.55 "/><g class="Dimension" transform="matrix(1,0,0,1,641.6333,34.5519)"><g class="Visual" style="display: none;" transform="matrix(1,0,0,1,0,0)"><g class="DimensionMark" fill="#000000" id="mark1" stroke="none" style="fill-opacity: 1; pointer-events: visible;" transform="matrix(1,0,0,1,108.0112,0)"><polygon points="-5,5,0,0,5,5"/></g><g class="DimensionMark" fill="#000000" id="mark2" stroke="none" style="fill-opacity: 1; pointer-events: visible;" transform="matrix(1,0,0,1,216.0224,106.7666)"><polygon points="-5,-5,0,0,-5,5"/></g><g class="DimensionMark" fill="#000000" id="mark3" stroke="none" style="fill-opacity: 1; pointer-events: visible;" transform="matrix(1,0,0,1,108.0112,213.5331)"><polygon points="-5,-5,0,0,5,-5"/></g><g class="DimensionMark" fill="#000000" id="mark4" stroke="none" style="fill-opacity: 1; pointer-events: visible;" transform="matrix(1,0,0,1,0,106.7666)"><polygon points="5,5,0,0,5,-5"/></g></g><g class="SpaceDimensionsLabel" transform="matrix(1,0,0,1,93.9759,128.0597)"><g class="TextLabel NameLabel" id="NameLabel" style="display: block;"/><g class="TextLabel DimensionMeasureLabel" id="DimensionMeasureLabel" style="display: none;" transform="matrix(1,0,0,1,-116.1563,79.5625)"/></g></g></g><g class="Space Closet WalkIn" fill="#ffffff" id="559ef636-e3ab-4c8e-abcb-6df5372e848f" stroke="#ffffff" style="fill-opacity: 1; stroke-opacity: 1; stroke-width: 1;"><polygon points="968.61,1066.87 827.28,1066.87 827.28,907.08 968.61,907.08 "/><g class="Dimension" transform="matrix(1,0,0,1,827.2836,907.0782)"><g class="Visual" style="display: none;" transform="matrix(1,0,0,1,0,0)"><g class="DimensionMark" fill="#000000" id="mark1" stroke="none" style="fill-opacity: 1; pointer-events: visible;" transform="matrix(1,0,0,1,70.6651,0)"><polygon points="-5,5,0,0,5,5"/></g><g class="DimensionMark" fill="#000000" id="mark2" stroke="none" style="fill-opacity: 1; pointer-events: visible;" transform="matrix(1,0,0,1,141.3302,79.8959)"><polygon points="-5,-5,0,0,-5,5"/></g><g class="DimensionMark" fill="#000000" id="mark3" stroke="none" style="fill-opacity: 1; pointer-events: visible;" transform="matrix(1,0,0,1,70.6651,159.7918)"><polygon points="-5,-5,0,0,5,-5"/></g><g class="DimensionMark" fill="#000000" id="mark4" stroke="none" style="fill-opacity: 1; pointer-events: visible;" transform="matrix(1,0,0,1,0,79.8959)"><polygon points="5,5,0,0,5,-5"/></g></g><g class="SpaceDimensionsLabel" transform="matrix(1,0,0,1,48.8902,87.615)"><g class="TextLabel NameLabel" id="NameLabel" style="display: block;"/><g class="TextLabel DimensionMeasureLabel" id="DimensionMeasureLabel" style="display: none;" transform="matrix(1,0,0,1,-116.3203,79.3125)"/></g></g></g><g class="Wall External" fill="#000000" id="Wall" stroke="#000000" style="fill-opacity: 1; stroke-opacity: 1; stroke-width: 1;"><polygon points="308.84,771.64 308.84,34.55 277.84,6.68 277.84,796.64 "/><g class="Window Regular" fill="#f0f0ff" id="Window" stroke="#000000" style="fill-opacity: 1; stroke-width: 1; stroke-opacity: 1;"><polygon points="308.84,313.77 308.84,117.93 277.84,117.93 277.84,313.77 "/><g class="Glass" id="Glass"><polygon points="308.84,313.77 308.84,117.93 277.84,117.93 277.84,313.77 "/></g><g class="Panel" id="Panel"><line x1="293.338924657327" x2="293.33892465732697" y1="306.2653338332867" y2="125.42826742773502"/><line x1="308.838924657327" x2="277.838924657327" y1="306.2653338332867" y2="306.2653338332867"/><line x1="308.83892465732697" x2="277.83892465732697" y1="125.42826742773502" y2="125.42826742773502"/></g></g><g class="Window Regular" fill="#f0f0ff" id="Window" stroke="#000000" style="fill-opacity: 1; stroke-width: 1; stroke-opacity: 1;"><polygon points="308.84,695.93 308.84,490.02 277.84,490.02 277.84,695.93 "/><g class="Glass" id="Glass"><polygon points="308.84,695.93 308.84,490.02 277.84,490.02 277.84,695.93 "/></g><g class="Panel" id="Panel"><line x1="293.3389246573271" x2="293.338924657327" y1="688.4273163914594" y2="497.5187103300356"/><line x1="308.8389246573271" x2="277.8389246573271" y1="688.4273163914594" y2="688.4273163914594"/><line x1="308.838924657327" x2="277.838924657327" y1="497.5187103300363" y2="497.5187103300363"/></g></g></g><g class="Wall External" fill="#000000" id="Wall" stroke="#000000" style="fill-opacity: 1; stroke-opacity: 1; stroke-width: 1;"><polygon points="308.84,34.55 1487.17,34.55 1515.05,6.68 277.84,6.68 "/><g class="Window Regular" fill="#f0f0ff" id="Window" stroke="#000000" style="fill-opacity: 1; stroke-width: 1; stroke-opacity: 1;"><polygon points="930.52,34.55 1139.23,34.55 1139.23,6.68 930.52,6.68 "/><g class="Glass" id="Glass"><polygon points="930.52,34.55 1139.23,34.55 1139.23,6.68 930.52,6.68 "/></g><g class="Panel" id="Panel"><line x1="938.0218928347088" x2="1131.7282521754823" y1="20.614883966693903" y2="20.61488396669387"/><line x1="938.0218928347088" x2="938.0218928347088" y1="34.551859987171156" y2="6.677907946216645"/><line x1="1131.7282521754823" x2="1131.7282521754823" y1="34.55185998717112" y2="6.677907946216611"/></g></g><g class="Window Regular" fill="#f0f0ff" id="Window" stroke="#000000" style="fill-opacity: 1; stroke-width: 1; stroke-opacity: 1;"><polygon points="657.47,34.55 799.03,34.55 799.03,6.68 657.47,6.68 "/><g class="Glass" id="Glass"><polygon points="657.47,34.55 799.03,34.55 799.03,6.68 657.47,6.68 "/></g><g class="Panel" id="Panel"><line x1="664.9690688178251" x2="791.5312911052669" y1="20.614883966693952" y2="20.614883966693935"/><line x1="664.9690688178251" x2="664.9690688178251" y1="34.551859987171206" y2="6.677907946216695"/><line x1="791.5312911052669" x2="791.5312911052669" y1="34.551859987171184" y2="6.677907946216675"/></g></g></g><g class="Wall External" fill="#000000" id="Wall" stroke="#000000" style="fill-opacity: 1; stroke-opacity: 1; stroke-width: 1;"><polygon points="1487.17,34.55 1487.17,1066.87 1515.05,1090.87 1515.05,6.68 "/><g class="Window Regular" fill="#f0f0ff" id="Window" stroke="#000000" style="fill-opacity: 1; stroke-width: 1; stroke-opacity: 1;"><polygon points="1487.17,835.80 1487.17,1025.75 1515.05,1025.75 1515.05,835.80 "/><g class="Glass" id="Glass"><polygon points="1487.17,835.80 1487.17,1025.75 1515.05,1025.75 1515.05,835.80 "/></g><g class="Panel" id="Panel"><line x1="1501.111269725727" x2="1501.111269725727" y1="843.2998486355092" y2="1018.2539570095819"/><line x1="1487.1742937052497" x2="1515.0482457462042" y1="843.2998486355092" y2="843.2998486355092"/><line x1="1487.1742937052497" x2="1515.0482457462042" y1="1018.2539570095819" y2="1018.2539570095819"/></g></g><g class="Window Regular" fill="#f0f0ff" id="Window" stroke="#000000" style="fill-opacity: 1; stroke-width: 1; stroke-opacity: 1;"><polygon points="1487.17,482.66 1487.17,685.37 1515.05,685.37 1515.05,482.66 "/><g class="Glass" id="Glass"><polygon points="1487.17,482.66 1487.17,685.37 1515.05,685.37 1515.05,482.66 "/></g><g class="Panel" id="Panel"><line x1="1501.111269725727" x2="1501.111269725727" y1="490.163697352235" y2="677.8664291964458"/><line x1="1487.1742937052497" x2="1515.0482457462042" y1="490.163697352235" y2="490.163697352235"/><line x1="1487.1742937052497" x2="1515.0482457462042" y1="677.8664291964456" y2="677.8664291964456"/></g></g><g class="Door Swing Opposite" fill="#ffffff" id="Door" stroke="#000000" style="fill-opacity: 1; stroke-width: 1; stroke-opacity: 1;"><polygon points="1487.17,257.25 1487.17,342.49 1515.05,342.49 1515.05,257.25 "/><g class="Panel Left Negative" fill="none" id="Panel" style=""><g class="PanelArea" fill="none" id="PanelArea" stroke="none" style=""><polygon points="1487.17,257.25 1487.17,342.49 1515.05,342.49 1515.05,257.25 "/></g><path d="M1487.17,257.25 q-85.24,0.00 -85.24,85.24 l85.24,0.00Z"/></g><g class="Panel Right Positive" fill="none" id="Panel" style=""><g class="PanelArea" fill="none" id="PanelArea" stroke="none" style=""><polygon points="1487.17,257.25 1487.17,342.49 1515.05,342.49 1515.05,257.25 "/></g><path d="M1515.05,257.25 q85.24,0.00 85.24,85.24 l-85.24,0.00Z"/></g></g><g class="Window Regular" fill="#f0f0ff" id="Window" stroke="#000000" style="fill-opacity: 1; stroke-width: 1; stroke-opacity: 1;"><polygon points="1487.17,64.25 1487.17,246.71 1515.05,246.71 1515.05,64.25 "/><g class="Glass" id="Glass"><polygon points="1487.17,64.25 1487.17,246.71 1515.05,246.71 1515.05,64.25 "/></g><g class="Panel" id="Panel"><line x1="1501.111269725727" x2="1501.111269725727" y1="71.75142556157084" y2="239.21395532345514"/><line x1="1487.1742937052497" x2="1515.0482457462042" y1="71.75142556157084" y2="71.75142556157084"/><line x1="1487.1742937052497" x2="1515.0482457462042" y1="239.21395532345514" y2="239.21395532345514"/></g></g></g><g class="Wall External" fill="#000000" id="Wall" stroke="#000000" style="fill-opacity: 1; stroke-opacity: 1; stroke-width: 1;"><polygon points="1487.17,1066.87 827.28,1066.87 802.28,1090.87 1515.05,1090.87 "/></g><g class="Wall External" fill="#000000" id="Wall" stroke="#000000" style="fill-opacity: 1; stroke-opacity: 1; stroke-width: 1;"><polygon points="827.28,1066.87 827.28,771.64 802.28,796.64 802.28,1090.87 "/></g><g class="Wall External" fill="#000000" id="Wall" stroke="#000000" style="fill-opacity: 1; stroke-opacity: 1; stroke-width: 1;"><polygon points="827.28,771.64 308.84,771.64 277.84,796.64 802.28,796.64 "/><g class="Door Swing Opposite" fill="#ffffff" id="Door" stroke="#000000" style="fill-opacity: 1; stroke-width: 1; stroke-opacity: 1;"><polygon points="759.00,771.64 661.64,771.64 661.64,796.64 759.00,796.64 "/><g class="Panel Left Negative" fill="none" id="Panel" style=""><g class="PanelArea" fill="none" id="PanelArea" stroke="none" style=""><polygon points="759.00,771.64 661.64,771.64 661.64,796.64 759.00,796.64 "/></g><path d="M759.00,771.64 q0.00,-97.36 -97.36,-97.36 l0.00,97.36Z"/></g><g class="Panel Right Positive" fill="none" id="Panel" style=""><g class="PanelArea" fill="none" id="PanelArea" stroke="none" style=""><polygon points="759.00,771.64 661.64,771.64 661.64,796.64 759.00,796.64 "/></g><path d="M759.00,796.64 q0.00,97.36 -97.36,97.36 l0.00,-97.36Z"/></g></g></g><g class="Wall" fill="#000000" id="Wall" stroke="#000000" style="fill-opacity: 1; stroke-opacity: 1; stroke-width: 1;"><polygon points="957.06,796.64 1487.17,796.64 1487.17,771.64 957.06,771.64 "/></g><g class="Wall" fill="#000000" id="Wall" stroke="#000000" style="fill-opacity: 1; stroke-opacity: 1; stroke-width: 1;"><polygon points="827.28,907.08 968.61,907.08 984.61,891.08 827.28,891.08 "/><g class="Door None Beside" fill="#ffffff" id="Door" stroke="#000000" style="fill-opacity: 1; stroke-width: 1; stroke-opacity: 1;"><polygon points="863.66,907.08 936.27,907.08 936.27,891.08 863.66,891.08 "/></g></g><g class="Wall" fill="#000000" id="Wall" stroke="#000000" style="fill-opacity: 1; stroke-opacity: 1; stroke-width: 1;"><polygon points="968.61,891.08 968.61,1066.87 984.61,1066.87 984.61,891.08 "/></g><g class="Wall" fill="#000000" id="Wall" stroke="#000000" style="fill-opacity: 1; stroke-opacity: 1; stroke-width: 1;"><polygon points="984.61,891.08 984.61,796.64 968.61,796.64 968.61,891.08 "/><g class="Door None Beside" fill="#ffffff" id="Door" stroke="#000000" style="fill-opacity: 1; stroke-width: 1; stroke-opacity: 1;"><polygon points="984.61,888.50 984.61,798.44 968.61,798.44 968.61,888.50 "/></g></g><g class="Wall" fill="#000000" id="Wall" stroke="#000000" style="fill-opacity: 1; stroke-opacity: 1; stroke-width: 1;"><polygon points="983.61,771.64 983.61,409.64 967.61,409.64 967.61,771.64 "/><g class="Door None Beside" fill="#ffffff" id="Door" stroke="#000000" style="fill-opacity: 1; stroke-width: 1; stroke-opacity: 1;"><polygon points="983.61,769.23 983.61,666.60 967.61,666.60 967.61,769.23 "/></g><g class="Door None Beside" fill="#ffffff" id="Door" stroke="#000000" style="fill-opacity: 1; stroke-width: 1; stroke-opacity: 1;"><polygon points="983.61,498.65 983.61,428.47 967.61,428.47 967.61,498.65 "/></g></g><g class="Wall" fill="#000000" id="Wall" stroke="#000000" style="fill-opacity: 1; stroke-opacity: 1; stroke-width: 1;"><polygon points="1515.05,409.64 1659.30,409.64 1659.30,388.64 1515.05,388.64 "/></g><g class="Wall" fill="#000000" id="Wall" stroke="#000000" style="fill-opacity: 1; stroke-opacity: 1; stroke-width: 1;"><polygon points="1515.05,6.68 1659.30,6.68 1659.30,27.68 1515.05,27.68 "/></g><g class="Railing" fill="#ffffff" id="Railing" stroke="#000000" style="fill-opacity: 1; stroke-opacity: 1; stroke-width: 1;"><polygon points="1659.30,27.68 1659.30,388.64 1644.30,388.64 1644.30,27.68 " style="stroke-dasharray: 0;"/></g><g class="Wall" fill="#000000" id="Wall" stroke="#000000" style="fill-opacity: 1; stroke-opacity: 1; stroke-width: 1;"><polygon points="967.61,663.49 799.41,663.49 813.41,649.49 967.61,649.49 "/><g class="Door None Beside" fill="#ffffff" id="Door" stroke="#000000" style="fill-opacity: 1; stroke-width: 1; stroke-opacity: 1;"><polygon points="956.56,663.49 887.59,663.49 887.59,649.49 956.56,649.49 "/></g></g><g class="Wall" fill="#000000" id="Wall" stroke="#000000" style="fill-opacity: 1; stroke-opacity: 1; stroke-width: 1;"><polygon points="813.41,649.49 813.41,409.64 799.41,388.64 799.41,663.49 "/></g><g class="Wall" fill="#000000" id="Wall" stroke="#000000" style="fill-opacity: 1; stroke-opacity: 1; stroke-width: 1;"><polygon points="813.41,549.72 967.61,549.72 967.61,535.72 813.41,535.72 "/></g><g class="Wall" fill="#000000" id="Wall" stroke="#000000" style="fill-opacity: 1; stroke-opacity: 1; stroke-width: 1;"><polygon points="641.63,771.64 641.63,409.64 627.63,409.64 627.63,771.64 "/><g class="Door None Beside" fill="#ffffff" id="Door" stroke="#000000" style="fill-opacity: 1; stroke-width: 1; stroke-opacity: 1;"><polygon points="641.63,507.41 641.63,420.58 627.63,420.58 627.63,507.41 "/></g></g><g class="Wall" fill="#000000" id="Wall" stroke="#000000" style="fill-opacity: 1; stroke-opacity: 1; stroke-width: 1;"><polygon points="641.63,409.64 641.63,34.55 627.63,34.55 627.63,388.64 "/><g class="Door None Beside" fill="#ffffff" id="Door" stroke="#000000" style="fill-opacity: 1; stroke-width: 1; stroke-opacity: 1;"><polygon points="641.63,385.85 641.63,299.79 627.63,299.79 627.63,385.85 "/></g></g><g class="Wall" fill="#000000" id="Wall" stroke="#000000" style="fill-opacity: 1; stroke-opacity: 1; stroke-width: 1;"><polygon points="641.63,262.08 871.66,262.08 857.66,248.08 641.63,248.08 "/><g class="Door None Beside" fill="#ffffff" id="Door" stroke="#000000" style="fill-opacity: 1; stroke-width: 1; stroke-opacity: 1;"><polygon points="726.84,262.08 800.93,262.08 800.93,248.08 726.84,248.08 "/></g></g><g class="Wall" fill="#000000" id="Wall" stroke="#000000" style="fill-opacity: 1; stroke-opacity: 1; stroke-width: 1;"><polygon points="871.66,262.08 871.66,34.55 857.66,34.55 857.66,248.08 "/></g><g class="Column FreeShape" fill="#000000" id="Column" stroke="none" style="fill-opacity: 1;"><polygon points="813.41,535.72 846.58,535.72 846.58,508.58 813.41,508.58 813.41,535.72 "/></g><g class="Wall" fill="#000000" id="Wall" stroke="#000000" style="fill-opacity: 1; stroke-opacity: 1; stroke-width: 1;"><polygon points="641.63,409.64 308.84,409.64 308.84,388.64 627.63,388.64 "/></g><g class="Wall" fill="#000000" id="Wall" stroke="#000000" style="fill-opacity: 1; stroke-opacity: 1; stroke-width: 1;"><polygon points="813.41,409.64 1487.17,409.64 1487.17,388.64 799.41,388.64 "/><g class="Door None Beside" fill="#ffffff" id="Door" stroke="#000000" style="fill-opacity: 1; stroke-width: 1; stroke-opacity: 1;"><polygon points="1047.53,409.64 1133.20,409.64 1133.20,388.64 1047.53,388.64 "/></g></g><g class="FixedFurniture CoatCloset" fill="#ffffff" stroke="#000000" style="fill-opacity: 1; stroke-opacity: 1;" transform="matrix(0,-1,1,0,827.3774,1066.87)">
<g class="BoundaryPolygon">
<polygon points="0.00,0.00 159.79,0.00 159.79,31.11 0.00,31.11 "/>
</g>

<g class="Direction" fill-opacity="0.9" style="display: none;">
<polygon fill="#444444" points="81.91,28.26 81.91,17.65 78.90,17.65 78.90,28.26 75.09,28.26 80.40,33.57 85.70,28.26 81.91,28.26 "/>
</g>
<g class="Name" fill-opacity="0.9" style="display: none;">

</g>
<desc>Width:120 Height:200 Depth:60 Elevation:0</desc>
</g><g class="FixedFurniture Closet" fill="#ffffff" stroke="#000000" style="fill-opacity: 1; stroke-opacity: 1;" transform="matrix(0,1,-1,0,968.5201,907.0782)">
<g class="BoundaryPolygon">
<polygon points="0.00,0.00 159.86,0.00 159.86,29.84 0.00,29.84 "/>
</g>
<g class="Direction" fill-opacity="0.9" style="display: none;">
<polygon fill="#444444" points="83.95,27.20 83.95,16.59 80.94,16.59 80.94,27.20 77.14,27.20 82.44,32.51 87.74,27.20 83.95,27.20 "/>
</g>
<g class="Name" fill-opacity="0.9" style="display: none;">

</g>
<desc>Width:60 Height:200 Depth:60 Elevation:0</desc>
</g><g class="FixedFurniture Toilet" fill="#ffffff" stroke="#000000" style="fill-opacity: 1; stroke-opacity: 1;" transform="matrix(0,-1,1,0,813.415,632.3432)">
<g class="BoundaryPolygon" fill="none" stroke="none">
<polygon points="0,0 41,0 41,71 0,71"/>
</g>
<g class="InnerPolygon">
<rect height="17.98" width="39.989" x="0.502" y="0.5"/>
<path d="M40.491,44.237S41.619,70.5,20.907,70.5C-.523,70.5.6,44.237.6,44.237L.5,18.48H40.491Z"/>
<rect height="3.03" width="6.357" x="17.318" y="7.975"/>
</g>
<desc>Width:41 Height:85 Depth:71 Elevation:0</desc>
</g><g class="FixedFurnitureSet" fill="#ffffff" id="FixedFurnitureSet" stroke="#000000" style="fill-opacity: 0.4; stroke-opacity: 0.4;" transform="matrix(1,0,0,1,894.5853,549.7792)"><g class="FixedFurniture BaseCabinet" fill="#ffffff" stroke="#000000" style="fill-opacity: 1; stroke-opacity: 1;" transform="matrix(1,0,0,1,0,0)">
<g class="BoundaryPolygon">
<polygon points="0.00,0.00 62.63,0.00 62.63,42.89 0.00,42.89 "/>
</g>
<g class="Direction" fill-opacity="0.9" style="display: none;">
<polygon fill="#444444" points="33.41,39.46 33.41,28.84 30.40,28.84 30.40,39.46 26.60,39.46 31.90,44.26 37.21,39.46 33.41,39.46 "/>
</g>
<g class="Name" fill-opacity="0.9" style="display: none;">

</g>
<desc>Width:60 Height:5 Depth:60 Elevation:105</desc>
</g><g class="FixedFurniture Sink" fill="#ffffff" stroke="#000000" style="fill-opacity: 1; stroke-opacity: 1;" transform="matrix(1,0,0,1,0,0)">
<g class="BoundaryPolygon" fill="none" stroke="none">
<polygon points="0.00,0.00 62.63,0.00 62.63,42.89 0.00,42.89 "/>
</g>
<g class="InnerPolygon">
<polygon points="5.22,9.70 57.41,9.70 57.41,39.10 5.22,39.10 "/>
</g>
<g class="OuterDrain" stroke-width="0.8">
<circle cx="31.316105753346825" cy="23.01796886081698" r="3.5"/>
</g>
<g class="InnerDrain" stroke-width="0.8">
<circle cx="31.316105753346825" cy="23.01796886081698" r="2"/>
</g>
<g class="Faucet">
<polygon points="28.18,3.57 34.18,3.57 34.18,17.57 28.18,17.57 "/>
</g>
<g class="Direction" fill-opacity="0.9" style="display: none;">
<polygon fill="#444444" points="33.41,39.46 33.41,28.84 30.40,28.84 30.40,39.46 26.60,39.46 31.90,44.26 37.21,39.46 33.41,39.46 "/>
</g>
<g class="Name" fill-opacity="0.9" style="display: none;">

</g>
<desc>Width:60 Height:90 Depth:60 Elevation:0</desc>
</g></g><g class="FixedFurniture Closet" fill="#ffffff" stroke="#000000" style="fill-opacity: 1; stroke-opacity: 1;" transform="matrix(-1,0,0,-1,967.4801,535.7166)">
<g class="BoundaryPolygon">
<polygon points="0.00,0.00 120.90,0.00 120.90,26.69 0.00,26.69 "/>
</g>
<g class="Direction" fill-opacity="0.9" style="display: none;">
<polygon fill="#444444" points="63.49,24.34 63.49,13.72 60.48,13.72 60.48,24.34 56.68,24.34 61.98,29.64 67.29,24.34 63.49,24.34 "/>
</g>
<g class="Name" fill-opacity="0.9" style="display: none;">

</g>
<desc>Width:60 Height:200 Depth:60 Elevation:0</desc>
</g><g class="FixedFurniture Toilet" fill="#ffffff" stroke="#000000" style="fill-opacity: 1; stroke-opacity: 1;" transform="matrix(0,-1,1,0,641.6333,234.9453)">
<g class="BoundaryPolygon" fill="none" stroke="none">
<polygon points="0,0 41,0 41,71 0,71"/>
</g>
<g class="InnerPolygon">
<rect height="17.98" width="39.989" x="0.502" y="0.5"/>
<path d="M40.491,44.237S41.619,70.5,20.907,70.5C-.523,70.5.6,44.237.6,44.237L.5,18.48H40.491Z"/>
<rect height="3.03" width="6.357" x="17.318" y="7.975"/>
</g>
<desc>Width:41 Height:85 Depth:71 Elevation:0</desc>
</g><g class="FixedFurnitureSet" fill="#ffffff" id="FixedFurnitureSet" stroke="#000000" style="fill-opacity: 0.4; stroke-opacity: 0.4;" transform="matrix(0,-1,1,0,641.6333,170.1242)"><g class="FixedFurniture BaseCabinet" fill="#ffffff" stroke="#000000" style="fill-opacity: 1; stroke-opacity: 1;" transform="matrix(1,0,0,1,0,0)">
<g class="BoundaryPolygon">
<polygon points="0.00,0.00 63.13,0.00 63.13,38.66 0.00,38.66 "/>
</g>
<g class="Direction" fill-opacity="0.9" style="display: none;">
<polygon fill="#444444" points="33.68,35.57 33.68,24.95 30.67,24.95 30.67,35.57 26.87,35.57 32.17,40.37 37.47,35.57 33.68,35.57 "/>
</g>
<g class="Name" fill-opacity="0.9" style="display: none;">

</g>
<desc>Width:60 Height:5 Depth:60 Elevation:105</desc>
</g><g class="FixedFurniture Sink" fill="#ffffff" stroke="#000000" style="fill-opacity: 1; stroke-opacity: 1;" transform="matrix(1,0,0,1,0,0)">
<g class="BoundaryPolygon" fill="none" stroke="none">
<polygon points="0.00,0.00 63.13,0.00 63.13,38.66 0.00,38.66 "/>
</g>
<g class="InnerPolygon">
<polygon points="5.26,9.70 57.87,9.70 57.87,35.25 5.26,35.25 "/>
</g>
<g class="OuterDrain" stroke-width="0.8">
<circle cx="31.565030140661182" cy="20.749806700878526" r="3.5"/>
</g>
<g class="InnerDrain" stroke-width="0.8">
<circle cx="31.565030140661182" cy="20.749806700878526" r="2"/>
</g>
<g class="Faucet">
<polygon points="28.41,3.22 34.41,3.22 34.41,17.22 28.41,17.22 "/>
</g>
<g class="Direction" fill-opacity="0.9" style="display: none;">
<polygon fill="#444444" points="33.68,35.57 33.68,24.95 30.67,24.95 30.67,35.57 26.87,35.57 32.17,40.37 37.47,35.57 33.68,35.57 "/>
</g>
<g class="Name" fill-opacity="0.9" style="display: none;">

</g>
<desc>Width:60 Height:90 Depth:60 Elevation:0</desc>
</g></g><g class="FixedFurniture Shower" fill="#ffffff" stroke="#000000" style="fill-opacity: 1; stroke-opacity: 1;" transform="matrix(0,-1,1,0,641.6333,85.1799)">
<g class="BoundaryPolygon" fill="none" stroke="none">
<polygon points="0,0 32,0 32,19 0,19"/>
</g>
<g class="InnerPolygon">
<rect height="6.1" width="11.2" x="3.7" y="0.5"/>
<rect height="6.1" width="11.2" x="17.6" y="0.5"/>
<rect height="6.1" width="3.4" x="28.7" y="0.5"/>
<rect height="6.1" width="3.2" x="0.5" y="0.5"/>
<path d="M14.9,8.5c0,1.5-0.4,3.3-1.6,5    c-0.4,0.6-1,1.1-1.1,1.7c-0.2,1.1,0.3,2.8,2.5,3.2c0.5,0.1,1.3,0.1,1.6,0.1h-0.1c0.3,0,1.1,0,1.6-0.1c2.2-0.4,2.7-2.1,2.5-3.2    c-0.1-0.6-0.7-1.1-1.1-1.7c-1.2-1.7-1.6-3.5-1.6-5"/>
<path d="M12.2,15.3c0.1,0.2,1.6,1.9,4.2,1.9 c2.4-0.1,3.7-1.7,3.9-1.9"/>
<path d="M14.9,0.5h2.7v8c-0.9,0-1.8,0-2.7,0l0,0 C14.9,5.9,14.9,3.2,14.9,0.5z"/>
</g>
<g class="Indicator">
<path d="M3.7,3.6C5,3.1,5.2,3,5.2,3 c0,1.1,0,0,0,1.1C5.2,4.1,5.1,4.1,3.7,3.6"/>
<path d="M28.7,3.6 C27.4,3.1,27.2,3,27.2,3c0,1.1,0,0,0,1.1C27.2,4.1,27.3,4.1,28.7,3.6"/>
</g>
<desc>Width:32 Height:97 Depth:19 Elevation:135</desc>
</g><g class="FixedFurniture Closet" fill="#ffffff" stroke="#000000" style="fill-opacity: 1; stroke-opacity: 1;" transform="matrix(0,1,-1,0,857.6557,34.5518)">
<g class="BoundaryPolygon">
<polygon points="0.00,0.00 72.52,0.00 72.52,52.89 0.00,52.89 "/>
</g>
<g class="Direction" fill-opacity="0.9" style="display: none;">
<polygon fill="#444444" points="38.08,48.21 38.08,37.60 35.08,37.60 35.08,48.21 31.27,48.21 36.58,53.52 41.88,48.21 38.08,48.21 "/>
</g>
<g class="Name" fill-opacity="0.9" style="display: none;">

</g>
<desc>Width:60 Height:200 Depth:60 Elevation:0</desc>
</g><g class="FixedFurniture ElectricalAppliance Refrigerator" fill="#ffffff" stroke="#000000" style="fill-opacity: 1; stroke-opacity: 1;" transform="matrix(1,0,0,1,308.8389,34.6456)">
<g class="BoundaryPolygon">
<polygon points="0,0 60,0 60,60 0,60"/>
</g>
<g class="electricitySign" fill="none">
<path d="M0,0,30,37.1v-18L60,56.3"/>
</g>
<g class="Doors">
<rect height="4" width="60" y="56"/>
</g>
<g class="Direction" fill-opacity="0.9" style="display: none;">
<polygon fill="#444444" points="32.009 55.197 32.009 44.581 29 44.581 29 55.197 25.197 55.197 30.5 60 35.803 55.197 32.009 55.197"/>
</g>
<g class="Name" fill-opacity="0.9" style="display: none;">

</g>
<desc>Width:60 Height:170 Depth:60 Elevation:0</desc>
</g><g class="FixedFurniture BaseCabinet" fill="#ffffff" stroke="#000000" style="fill-opacity: 1; stroke-opacity: 1;" transform="matrix(1,0,0,1,368.8389,34.6457)">
<g class="BoundaryPolygon">
<polygon points="0.00,0.00 198.78,0.00 198.78,60.00 0.00,60.00 "/>
</g>
<g class="Direction" fill-opacity="0.9" style="display: none;">
<polygon fill="#444444" points="106.05,55.20 106.05,44.58 103.04,44.58 103.04,55.20 99.23,55.20 104.54,60.00 109.84,55.20 106.05,55.20 "/>
</g>
<g class="Name" fill-opacity="0.9" style="display: none;">

</g>
<desc>Width:60 Height:90 Depth:60 Elevation:0</desc>
</g><g class="FixedFurniture ElectricalAppliance IntegratedStove" fill="#ffffff" stroke="#000000" style="fill-opacity: 1; stroke-opacity: 1;" transform="matrix(1,0,0,1,508.7062,34.7394)">
<g class="BoundaryPolygon" fill="none" stroke="none">
<polygon points="0 0 60 0 60 60 0 60"/>
</g>
<g class="InnerPolygon">
<polygon points="2,2 58,2 58,58 2,58"/>
</g>
<g class="OuterCircle">
<circle cx="16" cy="16" r="8"/>
<circle cx="44" cy="16" r="8"/>
<circle cx="16" cy="44" r="8"/>
<circle cx="44" cy="44" r="8"/>
</g>
<g class="Direction" fill-opacity="0.9" style="display: none;">
<polygon fill="#444444" points="32.009 55.197 32.009 44.581 29 44.581 29 55.197 25.197 55.197 30.5 60 35.803 55.197 32.009 55.197"/>
</g>
<g class="Name" fill-opacity="0.9" style="display: none;">

</g>
<desc>Width:60 Height:90 Depth:30 Elevation:0</desc>
</g><g class="FixedFurniture BaseCabinet" fill="#ffffff" stroke="#000000" style="fill-opacity: 1; stroke-opacity: 1;" transform="matrix(0,1,-1,0,627.5709,94.8207)">
<g class="BoundaryPolygon">
<polygon points="0.00,0.00 166.64,0.00 166.64,60.00 0.00,60.00 "/>
</g>
<g class="Direction" fill-opacity="0.9" style="display: none;">
<polygon fill="#444444" points="88.90,55.20 88.90,44.58 85.89,44.58 85.89,55.20 82.09,55.20 87.39,60.00 92.69,55.20 88.90,55.20 "/>
</g>
<g class="Name" fill-opacity="0.9" style="display: none;">

</g>
<desc>Width:60 Height:90 Depth:60 Elevation:0</desc>
</g><g class="FixedFurniture DoubleSink" fill="#ffffff" stroke="#000000" style="fill-opacity: 1; stroke-opacity: 1;" transform="matrix(0,1,-1,0,627.5708,145.7809)">
<g class="BoundaryPolygon" fill="none" stroke="none">
<polygon points="0,0 70,0 70,60 0,60"/>
</g>
<g class="InnerPolygonLeft">
<polygon points="5 9.9 33.5 9.9 33.5 54.9 5 54.9"/>
</g>
<g class="InnerPolygonRight">
<polygon points="36.5 10 65 10 65 55 36.5 55"/>
</g>
<g class="OuterDrain" stroke-width="0.8">
<circle cx="19.7" cy="32.5" r="3.5"/>
<circle cx="50.2" cy="32.5" r="3.5"/>
</g>
<g class="InnerDrain" stroke-width="0.8">
<circle cx="19.7" cy="32.5" r="2"/>
<circle cx="50.2" cy="32.5" r="2"/>
</g>
<g class="Faucet">
<polygon points="32 4.9 38 4.9 38 18.9 32 18.9"/>
</g>
<g class="Direction" fill-opacity="0.9" style="display: none;">
<polygon fill="#444444" points="36.509 54.697 36.509 44.081 33.5 44.081 33.5 54.697 29.697 54.697 35 60 40.303 54.697 36.509 54.697"/>
</g>
<g class="Name" fill-opacity="0.9" style="display: none;">

</g>
<desc>Width:70 Height:90 Depth:60 Elevation:0</desc>
</g><g class="FixedFurniture Closet" fill="#ffffff" stroke="#000000" style="fill-opacity: 1; stroke-opacity: 1;" transform="matrix(0,-1,1,0,813.415,508.58)">
<g class="BoundaryPolygon">
<polygon points="0.00,0.00 98.65,0.00 98.65,32.56 0.00,32.56 "/>
</g>
<g class="Direction" fill-opacity="0.9" style="display: none;">
<polygon fill="#444444" points="51.81,29.69 51.81,19.07 48.80,19.07 48.80,29.69 45.00,29.69 50.30,34.99 55.61,29.69 51.81,29.69 "/>
</g>
<g class="Name" fill-opacity="0.9" style="display: none;">

</g>
<desc>Width:60 Height:200 Depth:60 Elevation:0</desc>
</g><g class="Column FreeShape" fill="#000000" id="Column" stroke="none" style="fill-opacity: 1;"><polygon points="567.40,34.65 627.57,34.65 627.57,94.82 567.40,94.82 567.40,34.65 "/></g><g class="SelectionControls" fill="#0000ff" stroke="#0000ff" style="display: none;"><g class="rotateControl" style="display: none;"><circle cx="1199.6524227346533" cy="139.19075998717113" r="5" style="stroke : none; fill-opacity: 0.5; cursor:crosshair"/></g><g class="ResizeNControl" style="display: none;"><circle cx="0" cy="0" r="5" style="stroke : none; fill-opacity: 0.5"/></g><g class="ResizeNEControl" style="display: none;"><circle cx="0" cy="0" r="5" style="stroke : none; fill-opacity: 0.5"/></g><g class="ResizeEControl" style="display: none;"><circle cx="0" cy="0" r="5" style="stroke : none; fill-opacity: 0.5"/></g><g class="ResizeSEControl" style="display: none;"><circle cx="0" cy="0" r="5" style="stroke : none; fill-opacity: 0.5"/></g><g class="ResizeSControl" style="display: none;"><circle cx="0" cy="0" r="5" style="stroke : none; fill-opacity: 0.5"/></g><g class="ResizeSWControl" style="display: none;"><circle cx="0" cy="0" r="5" style="stroke : none; fill-opacity: 0.5"/></g><g class="ResizeWControl" style="display: none;"><circle cx="0" cy="0" r="5" style="stroke : none; fill-opacity: 0.5"/></g><g class="ResizeNWControl" style="display: none;"><circle cx="0" cy="0" r="5" style="stroke : none; fill-opacity: 0.5"/></g><g class="removeControl" style="display: none;"><polygon points="1174.27,169.19 1225.04,169.19 1225.04,208.91 1174.27,208.91 " style="stroke : none; fill-opacity: 0.1"/></g><g class="copyPasteControl" style="display: none;"><polygon style="stroke : none; fill-opacity: 0.1"/></g><g class="translateControl" style="display: none;"><polygon points="1174.27,169.19 1225.04,169.19 1225.04,208.91 1174.27,208.91 " style="stroke : none; fill-opacity: 0.1; cursor:move"/></g></g><g class="SelectionControls" fill="#0000ff" stroke="#0000ff" style="display: none;"><polygon fill="none" points="871.92,34.55 1487.44,34.55 1487.44,388.64 871.92,388.64 " stroke="#0000ff" style=""/><g class="rotateControl" style="display: none;"><circle cx="1179.6829570608252" cy="4.551859987171113" r="5" style="stroke : none; fill-opacity: 0.5; cursor:crosshair"/></g><g class="ResizeNControl" style="display: none;"><circle cx="0" cy="0" r="5" style="stroke : none; fill-opacity: 0.5"/></g><g class="ResizeNEControl" style="display: none;"><circle cx="0" cy="0" r="5" style="stroke : none; fill-opacity: 0.5"/></g><g class="ResizeEControl" style="display: none;"><circle cx="0" cy="0" r="5" style="stroke : none; fill-opacity: 0.5"/></g><g class="ResizeSEControl" style="display: none;"><circle cx="0" cy="0" r="5" style="stroke : none; fill-opacity: 0.5"/></g><g class="ResizeSControl" style="display: none;"><circle cx="0" cy="0" r="5" style="stroke : none; fill-opacity: 0.5"/></g><g class="ResizeSWControl" style="display: none;"><circle cx="0" cy="0" r="5" style="stroke : none; fill-opacity: 0.5"/></g><g class="ResizeWControl" style="display: none;"><circle cx="0" cy="0" r="5" style="stroke : none; fill-opacity: 0.5"/></g><g class="ResizeNWControl" style="display: none;"><circle cx="0" cy="0" r="5" style="stroke : none; fill-opacity: 0.5"/></g><g class="removeControl" style="display: none;"><polygon style="stroke : none; fill-opacity: 0.1"/></g><g class="copyPasteControl" style="display: none;"><polygon style="stroke : none; fill-opacity: 0.1"/></g><g class="translateControl" style="display: none;"><polygon style="stroke : none; fill-opacity: 0.1; cursor:move"/></g></g></g></g></g></svg>