<?xml version="1.0" encoding="utf-8"?>
<svg height="659.0099945068359" id="temp" version="1.1" viewBox="0 0 1067.6200246810913 659.0099945068359" width="1067.6200246810913" xmlns="http://www.w3.org/2000/svg" xmlns:xlink="http://www.w3.org/1999/xlink"><desc>Powered by CubiCasa</desc><defs/><g class="Model v1-1" id="Model"><g class="Floor"><g class="Floorplan Floor-1" id="Floor-1" transform="matrix(1,0,0,1,0,0)"><g class="Space Outdoor" fill="#ffffff" id="2e677eb2-2d20-41e1-8cc6-cc47f37e1a5c" stroke="#000000" style="stroke-width: 1; fill-opacity: 1; stroke-opacity: 1;"><polygon points="37.47,88.14 131.80,88.14 131.80,411.28 37.47,411.28 37.47,88.14 37.47,88.14 "/><g class="Dimension" transform="matrix(1,0,0,1,37.4658,88.1369)"><g class="Visual" style="display: none;" transform="matrix(1,0,0,1,0,0)"><g class="DimensionMark" fill="#000000" id="mark1" stroke="none" style="fill-opacity: 1; pointer-events: visible;" transform="matrix(1,0,0,1,47.1658,0)"><polygon points="-5,5,0,0,5,5"/></g><g class="DimensionMark" fill="#000000" id="mark2" stroke="none" style="fill-opacity: 1; pointer-events: visible;" transform="matrix(1,0,0,1,94.3316,161.5704)"><polygon points="-5,-5,0,0,-5,5"/></g><g class="DimensionMark" fill="#000000" id="mark3" stroke="none" style="fill-opacity: 1; pointer-events: visible;" transform="matrix(1,0,0,1,47.1658,323.1409)"><polygon points="-5,-5,0,0,5,-5"/></g><g class="DimensionMark" fill="#000000" id="mark4" stroke="none" style="fill-opacity: 1; pointer-events: visible;" transform="matrix(1,0,0,1,0,161.5704)"><polygon points="5,5,0,0,5,-5"/></g></g><g class="SpaceDimensionsLabel" transform="matrix(1,0,0,1,-77.0137,149.013)"><g class="TextLabel NameLabel" id="NameLabel" style="display: none;"/><g class="TextLabel DimensionMeasureLabel" id="DimensionMeasureLabel" style="display: none;" transform="matrix(1,0,0,1,-56.0313,80.0938)"/></g></g></g><g class="Space Undefined" fill="#ffffff" id="d34c58c1-e9e1-43a4-82f4-ab41a54ab623" stroke="#ffffff" style="fill-opacity: 1; stroke-opacity: 1; stroke-width: 1;"><polygon points="670.78,635.01 559.81,635.01 559.81,423.28 670.78,423.28 "/><g class="Dimension" transform="matrix(1,0,0,1,559.811,423.2777)"><g class="Visual" style="display: none;" transform="matrix(1,0,0,1,0,0)"><g class="DimensionMark" fill="#000000" id="mark1" stroke="none" style="fill-opacity: 1; pointer-events: visible;" transform="matrix(1,0,0,1,55.4831,0)"><polygon points="-5,5,0,0,5,5"/></g><g class="DimensionMark" fill="#000000" id="mark2" stroke="none" style="fill-opacity: 1; pointer-events: visible;" transform="matrix(1,0,0,1,110.9662,105.8672)"><polygon points="-5,-5,0,0,-5,5"/></g><g class="DimensionMark" fill="#000000" id="mark3" stroke="none" style="fill-opacity: 1; pointer-events: visible;" transform="matrix(1,0,0,1,55.4831,211.7343)"><polygon points="-5,-5,0,0,5,-5"/></g><g class="DimensionMark" fill="#000000" id="mark4" stroke="none" style="fill-opacity: 1; pointer-events: visible;" transform="matrix(1,0,0,1,0,105.8672)"><polygon points="5,5,0,0,5,-5"/></g></g><g class="SpaceDimensionsLabel" transform="matrix(1,0,0,1,26.6087,60.103)"><g class="TextLabel NameLabel" id="NameLabel" style="display: none;"/><g class="TextLabel DimensionMeasureLabel" id="DimensionMeasureLabel" style="display: none;" transform="matrix(1,0,0,1,-40.5313,80.0938)"/></g></g></g><g class="Space Undefined" fill="#ffffff" id="945457a9-ed9b-472f-b7ae-c3193366b952" stroke="#ffffff" style="fill-opacity: 1; stroke-opacity: 1; stroke-width: 1;"><polygon points="547.81,635.01 428.53,635.01 428.53,423.28 547.81,423.28 "/><g class="Dimension" transform="matrix(1,0,0,1,428.53,423.28)"><g class="Visual" style="display: none;" transform="matrix(1,0,0,1,0,0)"><g class="DimensionMark" fill="#000000" id="mark1" stroke="none" style="fill-opacity: 1; pointer-events: visible;" transform="matrix(1,0,0,1,59.64,0)"><polygon points="-5,5,0,0,5,5"/></g><g class="DimensionMark" fill="#000000" id="mark2" stroke="none" style="fill-opacity: 1; pointer-events: visible;" transform="matrix(1,0,0,1,119.28,105.865)"><polygon points="-5,-5,0,0,-5,5"/></g><g class="DimensionMark" fill="#000000" id="mark3" stroke="none" style="fill-opacity: 1; pointer-events: visible;" transform="matrix(1,0,0,1,59.64,211.73)"><polygon points="-5,-5,0,0,5,-5"/></g><g class="DimensionMark" fill="#000000" id="mark4" stroke="none" style="fill-opacity: 1; pointer-events: visible;" transform="matrix(1,0,0,1,0,105.865)"><polygon points="5,5,0,0,5,-5"/></g></g><g class="SpaceDimensionsLabel" transform="matrix(1,0,0,1,-0.4188,125.4737)"><g class="TextLabel NameLabel" id="NameLabel" style="display: none;"/><g class="TextLabel DimensionMeasureLabel" id="DimensionMeasureLabel" style="display: none;" transform="matrix(1,0,0,1,-40.5313,80.0938)"/></g></g></g><g class="Space Bedroom" fill="#ffffff" id="bd66ac04-88e3-458d-9534-89732ec6bc56" stroke="#ffffff" style="fill-opacity: 1; stroke-opacity: 1; stroke-width: 1;"><polygon points="503.96,326.41 547.81,326.41 547.81,411.28 157.80,411.28 157.80,88.14 503.96,88.14 "/><g class="Dimension" transform="matrix(1,0,0,1,157.8,88.14)"><g class="Visual" style="display: none;" transform="matrix(1,0,0,1,0,0)"><g class="DimensionMark" fill="#000000" id="mark1" stroke="none" style="fill-opacity: 1; pointer-events: visible;" transform="matrix(1,0,0,1,195.005,0)"><polygon points="-5,5,0,0,5,5"/></g><g class="DimensionMark" fill="#000000" id="mark2" stroke="none" style="fill-opacity: 1; pointer-events: visible;" transform="matrix(1,0,0,1,346.16,161.57)"><polygon points="-5,-5,0,0,-5,5"/></g><g class="DimensionMark" fill="#000000" id="mark3" stroke="none" style="fill-opacity: 1; pointer-events: visible;" transform="matrix(1,0,0,1,195.005,323.14)"><polygon points="-5,-5,0,0,5,-5"/></g><g class="DimensionMark" fill="#000000" id="mark4" stroke="none" style="fill-opacity: 1; pointer-events: visible;" transform="matrix(1,0,0,1,0,161.57)"><polygon points="5,5,0,0,5,-5"/></g></g><g class="SpaceDimensionsLabel" transform="matrix(1,0,0,1,130.9631,165.6124)"><g class="TextLabel NameLabel" id="NameLabel" style="display: none;"/><g class="TextLabel DimensionMeasureLabel" id="DimensionMeasureLabel" style="display: none;" transform="matrix(1,0,0,1,-113.7031,80.0938)"/></g></g></g><g class="Space Kitchen" fill="#ffffff" id="e6fb33bf-8425-4643-b9dc-1d130ac48e5f" stroke="#ffffff" style="fill-opacity: 1; stroke-opacity: 1; stroke-width: 1;"><polygon points="1031.62,635.01 741.53,635.01 741.53,574.65 682.78,574.65 682.78,423.28 791.42,423.28 791.42,411.28 1031.62,411.28 "/><g class="Dimension" transform="matrix(1,0,0,1,682.78,411.28)"><g class="Visual" style="display: none;" transform="matrix(1,0,0,1,0,0)"><g class="DimensionMark" fill="#000000" id="mark1" stroke="none" style="fill-opacity: 1; pointer-events: visible;" transform="matrix(1,0,0,1,174.42,0)"><polygon points="-5,5,0,0,5,5"/></g><g class="DimensionMark" fill="#000000" id="mark2" stroke="none" style="fill-opacity: 1; pointer-events: visible;" transform="matrix(1,0,0,1,348.84,111.865)"><polygon points="-5,-5,0,0,-5,5"/></g><g class="DimensionMark" fill="#000000" id="mark3" stroke="none" style="fill-opacity: 1; pointer-events: visible;" transform="matrix(1,0,0,1,174.42,223.73)"><polygon points="-5,-5,0,0,5,-5"/></g><g class="DimensionMark" fill="#000000" id="mark4" stroke="none" style="fill-opacity: 1; pointer-events: visible;" transform="matrix(1,0,0,1,0,111.865)"><polygon points="5,5,0,0,5,-5"/></g></g><g class="SpaceDimensionsLabel" transform="matrix(1,0,0,1,127.6467,98.1702)"><g class="TextLabel NameLabel" id="NameLabel" style="display: none;"/><g class="TextLabel DimensionMeasureLabel" id="DimensionMeasureLabel" style="display: none;" transform="matrix(1,0,0,1,-70.9375,80.0938)"/></g></g></g><g class="Space LivingRoom" fill="#ffffff" id="342fe9fa-289f-47aa-8697-af9945fc01a3" stroke="#ffffff" style="fill-opacity: 1; stroke-opacity: 1; stroke-width: 1;"><polygon points="1031.62,411.28 682.78,411.28 682.78,361.09 670.78,361.09 670.78,411.28 559.81,411.28 559.81,314.41 515.96,314.41 515.96,88.14 1031.62,88.14 "/><g class="Dimension" transform="matrix(1,0,0,1,515.96,88.14)"><g class="Visual" style="display: none;" transform="matrix(1,0,0,1,0,0)"><g class="DimensionMark" fill="#000000" id="mark1" stroke="none" style="fill-opacity: 1; pointer-events: visible;" transform="matrix(1,0,0,1,257.83,0)"><polygon points="-5,5,0,0,5,5"/></g><g class="DimensionMark" fill="#000000" id="mark2" stroke="none" style="fill-opacity: 1; pointer-events: visible;" transform="matrix(1,0,0,1,515.66,161.57)"><polygon points="-5,-5,0,0,-5,5"/></g><g class="DimensionMark" fill="#000000" id="mark3" stroke="none" style="fill-opacity: 1; pointer-events: visible;" transform="matrix(1,0,0,1,257.83,323.14)"><polygon points="-5,-5,0,0,5,-5"/></g><g class="DimensionMark" fill="#000000" id="mark4" stroke="none" style="fill-opacity: 1; pointer-events: visible;" transform="matrix(1,0,0,1,0,161.57)"><polygon points="5,5,0,0,5,-5"/></g></g><g class="SpaceDimensionsLabel" transform="matrix(1,0,0,1,255.3206,166.6283)"><g class="TextLabel NameLabel" id="NameLabel" style="display: none;"/><g class="TextLabel DimensionMeasureLabel" id="DimensionMeasureLabel" style="display: none;" transform="matrix(1,0,0,1,-114.625,80.0938)"/></g></g></g><g class="Wall External" fill="#000000" id="Wall" stroke="#000000" style="fill-opacity: 1; stroke-opacity: 1; stroke-width: 1;"><polygon points="157.80,88.14 1031.62,88.14 1067.62,52.14 131.80,52.14 "/></g><g class="Wall External" fill="#000000" id="Wall" stroke="#000000" style="fill-opacity: 1; stroke-opacity: 1; stroke-width: 1;"><polygon points="1031.62,88.14 1031.62,635.01 1067.62,659.01 1067.62,52.14 "/><g class="Window Regular" fill="#f0f0ff" id="Window" stroke="#000000" style="fill-opacity: 1; stroke-width: 1; stroke-opacity: 1;"><polygon points="1031.62,175.63 1031.62,329.52 1067.62,329.52 1067.62,175.63 "/><g class="Glass" id="Glass"><polygon points="1031.62,175.63 1031.62,329.52 1067.62,329.52 1067.62,175.63 "/></g><g class="Panel" id="Panel"><line x1="1049.6199951171875" x2="1049.6199951171875" y1="183.1300048828125" y2="322.0199890136719"/><line x1="1031.6199951171875" x2="1067.6199951171875" y1="183.1300048828125" y2="183.1300048828125"/><line x1="1031.6199951171875" x2="1067.6199951171875" y1="322.0199890136719" y2="322.0199890136719"/></g></g><g class="Window Regular" fill="#f0f0ff" id="Window" stroke="#000000" style="fill-opacity: 1; stroke-width: 1; stroke-opacity: 1;"><polygon points="1031.62,461.42 1031.62,581.45 1067.62,581.45 1067.62,461.42 "/><g class="Glass" id="Glass"><polygon points="1031.62,461.42 1031.62,581.45 1067.62,581.45 1067.62,461.42 "/></g><g class="Panel" id="Panel"><line x1="1049.6199951171875" x2="1049.6199951171875" y1="468.9200134277344" y2="573.9500122070312"/><line x1="1031.6199951171875" x2="1067.6199951171875" y1="468.9200134277344" y2="468.9200134277344"/><line x1="1031.6199951171875" x2="1067.6199951171875" y1="573.9500122070312" y2="573.9500122070312"/></g></g></g><g class="Wall External" fill="#000000" id="Wall" stroke="#000000" style="fill-opacity: 1; stroke-opacity: 1; stroke-width: 1;"><polygon points="1067.62,659.01 741.53,659.01 741.53,635.01 1031.62,635.01 "/></g><g class="Wall External" fill="#000000" id="Wall" stroke="#000000" style="fill-opacity: 1; stroke-opacity: 1; stroke-width: 1;"><polygon points="741.53,659.01 670.78,659.01 670.78,574.65 741.53,574.65 "/></g><g class="Wall External" fill="#000000" id="Wall" stroke="#000000" style="fill-opacity: 1; stroke-opacity: 1; stroke-width: 1;"><polygon points="670.78,659.01 410.53,659.01 428.53,635.01 670.78,635.01 "/><g class="Door None Beside" fill="#ffffff" id="Door" stroke="#000000" style="fill-opacity: 1; stroke-width: 1; stroke-opacity: 1;"><polygon points="667.35,659.01 593.53,659.01 593.53,635.01 667.35,635.01 "/></g></g><g class="Wall External" fill="#000000" id="Wall" stroke="#000000" style="fill-opacity: 1; stroke-opacity: 1; stroke-width: 1;"><polygon points="428.53,635.01 428.53,411.28 410.53,434.28 410.53,659.01 "/></g><g class="Wall External" fill="#000000" id="Wall" stroke="#000000" style="fill-opacity: 1; stroke-opacity: 1; stroke-width: 1;"><polygon points="428.53,411.28 157.80,411.28 131.80,434.28 410.53,434.28 "/></g><g class="Wall External" fill="#000000" id="Wall" stroke="#000000" style="fill-opacity: 1; stroke-opacity: 1; stroke-width: 1;"><polygon points="157.80,411.28 157.80,88.14 131.80,52.14 131.80,434.28 "/><g class="Door Swing Opposite" fill="#ffffff" id="Door" stroke="#000000" style="fill-opacity: 1; stroke-width: 1; stroke-opacity: 1;"><polygon points="157.80,401.73 157.80,326.38 131.80,326.38 131.80,401.73 "/><g class="Panel Right Negative" fill="none" id="Panel" style=""><g class="PanelArea" fill="none" id="PanelArea" stroke="none" style=""><polygon points="157.80,401.73 157.80,326.38 131.80,326.38 131.80,401.73 "/></g><path d="M157.80,326.38 q75.35,0.00 75.35,75.35 l-75.35,0.00Z"/></g><g class="Panel Left Positive" fill="none" id="Panel" style=""><g class="PanelArea" fill="none" id="PanelArea" stroke="none" style=""><polygon points="157.80,401.73 157.80,326.38 131.80,326.38 131.80,401.73 "/></g><path d="M131.80,326.38 q-75.35,0.00 -75.35,75.35 l75.35,0.00Z"/></g></g><g class="Window Regular" fill="#f0f0ff" id="Window" stroke="#000000" style="fill-opacity: 1; stroke-width: 1; stroke-opacity: 1;"><polygon points="157.80,321.36 157.80,134.89 131.80,134.89 131.80,321.36 "/><g class="Glass" id="Glass"><polygon points="157.80,321.36 157.80,134.89 131.80,134.89 131.80,321.36 "/></g><g class="Panel" id="Panel"><line x1="144.8000030517578" x2="144.8000030517578" y1="313.8599853515625" y2="142.38999938964844"/><line x1="157.8000030517578" x2="131.8000030517578" y1="313.8599853515625" y2="313.8599853515625"/><line x1="157.8000030517578" x2="131.8000030517578" y1="142.38999938964844" y2="142.38999938964844"/></g></g></g><g class="Wall" fill="#000000" id="Wall" stroke="#000000" style="fill-opacity: 1; stroke-opacity: 1; stroke-width: 1;"><polygon points="131.80,52.14 36.15,52.14 36.15,87.14 131.80,87.14 "/></g><g class="Wall" fill="#000000" id="Wall" stroke="#000000" style="fill-opacity: 1; stroke-opacity: 1; stroke-width: 1;"><polygon points="131.80,434.28 61.04,434.28 61.04,411.28 131.80,411.28 "/></g><g class="Wall" fill="#000000" id="Wall" stroke="#000000" style="fill-opacity: 1; stroke-opacity: 1; stroke-width: 1;"><polygon points="428.53,411.28 791.42,411.28 791.42,423.28 428.53,423.28 "/><g class="Door None Beside" fill="#ffffff" id="Door" stroke="#000000" style="fill-opacity: 1; stroke-width: 1; stroke-opacity: 1;"><polygon points="560.96,411.28 663.55,411.28 663.55,423.28 560.96,423.28 "/></g></g><g class="Wall" fill="#000000" id="Wall" stroke="#000000" style="fill-opacity: 1; stroke-opacity: 1; stroke-width: 1;"><polygon points="670.78,361.09 670.78,635.01 682.78,635.01 682.78,361.09 "/><g class="Door None Beside" fill="#ffffff" id="Door" stroke="#000000" style="fill-opacity: 1; stroke-width: 1; stroke-opacity: 1;"><polygon points="670.78,493.86 670.78,560.63 682.78,560.63 682.78,493.86 "/></g></g><g class="Wall" fill="#000000" id="Wall" stroke="#000000" style="fill-opacity: 1; stroke-opacity: 1; stroke-width: 1;"><polygon points="547.81,411.28 547.81,659.01 559.81,659.01 559.81,411.28 "/><g class="Door None Beside" fill="#ffffff" id="Door" stroke="#000000" style="fill-opacity: 1; stroke-width: 1; stroke-opacity: 1;"><polygon points="547.81,444.47 547.81,494.40 559.81,494.40 559.81,444.47 "/></g></g><g class="Wall" fill="#000000" id="Wall" stroke="#000000" style="fill-opacity: 1; stroke-opacity: 1; stroke-width: 1;"><polygon points="559.81,411.28 559.81,314.41 547.81,326.41 547.81,411.28 "/><g class="Door Swing Beside" fill="#ffffff" id="Door" stroke="#000000" style="fill-opacity: 1; stroke-width: 1; stroke-opacity: 1;"><polygon points="559.81,406.98 559.81,329.10 547.81,329.10 547.81,406.98 "/><g class="Panel Left Positive" fill="none" id="Panel" style=""><g class="PanelArea" fill="none" id="PanelArea" stroke="none" style=""><polygon points="559.81,406.98 559.81,329.10 547.81,329.10 547.81,406.98 "/></g><path d="M547.81,329.10 q-77.88,0.00 -77.88,77.88 l77.88,0.00Z"/></g></g></g><g class="Wall" fill="#000000" id="Wall" stroke="#000000" style="fill-opacity: 1; stroke-opacity: 1; stroke-width: 1;"><polygon points="559.81,314.41 515.96,314.41 503.96,326.41 547.81,326.41 "/></g><g class="Wall" fill="#000000" id="Wall" stroke="#000000" style="fill-opacity: 1; stroke-opacity: 1; stroke-width: 1;"><polygon points="515.96,314.41 515.96,52.14 503.96,52.14 503.96,326.41 "/></g><g class="Railing" fill="#ffffff" id="Railing" stroke="#000000" style="fill-opacity: 1; stroke-opacity: 1; stroke-width: 1;"><polygon points="61.04,434.28 14.47,434.28 37.47,411.28 61.04,411.28 " style="stroke-dasharray: 46.57, 32.5269, 46.57;"/></g><g class="Railing" fill="#ffffff" id="Railing" stroke="#000000" style="fill-opacity: 1; stroke-opacity: 1; stroke-width: 1;"><polygon points="14.47,434.28 14.47,52.14 37.47,52.14 37.47,411.28 " style="stroke-dasharray: 764.28, 32.5269;"/></g><g class="FixedFurnitureSet" id="FixedFurnitureSet" transform="matrix(0,-1,1,0,428.5563,568.6862)"><g class="FixedFurniture BaseCabinet" fill="#ffffff" stroke="#000000" style="fill-opacity: 1; stroke-opacity: 1;" transform="matrix(1,0,0,1,0,0)">
<g class="BoundaryPolygon">
<polygon points="0.00,0.00 47.27,0.00 47.27,35.59 0.00,35.59 "/>
</g>
<g class="Direction" fill-opacity="0.9" style="display: none;">
<polygon fill="#444444" points="25.22,32.74 25.22,22.12 22.21,22.12 22.21,32.74 18.41,32.74 23.71,37.54 29.01,32.74 25.22,32.74 "/>
</g>
<g class="Name" fill-opacity="0.9" style="display: none;">

</g>
<desc>Width:60 Height:5 Depth:60 Elevation:105</desc>
</g><g class="FixedFurniture Sink" fill="#ffffff" stroke="#000000" style="fill-opacity: 1; stroke-opacity: 1;" transform="matrix(1,0,0,1,0,0)">
<g class="BoundaryPolygon" fill="none" stroke="none">
<polygon points="0.00,0.00 47.27,0.00 47.27,35.59 0.00,35.59 "/>
</g>
<g class="InnerPolygon">
<polygon points="3.94,9.70 43.33,9.70 43.33,32.45 3.94,32.45 "/>
</g>
<g class="OuterDrain" stroke-width="0.8">
<circle cx="23.6360890128977" cy="19.099459865812417" r="3.5"/>
</g>
<g class="InnerDrain" stroke-width="0.8">
<circle cx="23.6360890128977" cy="19.099459865812417" r="2"/>
</g>
<g class="Faucet">
<polygon points="21.27,2.97 27.27,2.97 27.27,16.97 21.27,16.97 "/>
</g>
<g class="Direction" fill-opacity="0.9" style="display: none;">
<polygon fill="#444444" points="25.22,32.74 25.22,22.12 22.21,22.12 22.21,32.74 18.41,32.74 23.71,37.54 29.01,32.74 25.22,32.74 "/>
</g>
<g class="Name" fill-opacity="0.9" style="display: none;">

</g>
<desc>Width:60 Height:90 Depth:60 Elevation:0</desc>
</g></g><g class="FixedFurniture Closet" fill="#ffffff" stroke="#000000" style="fill-opacity: 1; stroke-opacity: 1;" transform="matrix(0,-1,1,0,560.0297,635.0121)">
<g class="BoundaryPolygon">
<polygon points="0.00,0.00 117.21,0.00 117.21,23.12 0.00,23.12 "/>
</g>
<g class="Direction" fill-opacity="0.9" style="display: none;">
<polygon fill="#444444" points="60.08,21.01 60.08,10.39 57.07,10.39 57.07,21.01 53.27,21.01 58.57,26.31 63.87,21.01 60.08,21.01 "/>
</g>
<g class="Name" fill-opacity="0.9" style="display: none;">

</g>
<desc>Width:120 Height:200 Depth:60 Elevation:0</desc>
</g><g class="FixedFurniture BaseCabinet" fill="#ffffff" stroke="#000000" style="fill-opacity: 1; stroke-opacity: 1;" transform="matrix(-1,0,0,-1,1030.9254,634.7934)">
<g class="BoundaryPolygon">
<polygon points="0.00,0.00 289.40,0.00 289.40,60.00 0.00,60.00 "/>
</g>
<g class="Direction" fill-opacity="0.9" style="display: none;">
<polygon fill="#444444" points="154.39,55.20 154.39,44.58 151.38,44.58 151.38,55.20 147.58,55.20 152.88,60.00 158.18,55.20 154.39,55.20 "/>
</g>
<g class="Name" fill-opacity="0.9" style="display: none;">

</g>
<desc>Width:60 Height:90 Depth:60 Elevation:0</desc>
</g><g class="FixedFurniture ElectricalAppliance IntegratedStove" fill="#ffffff" stroke="#000000" style="fill-opacity: 1; stroke-opacity: 1;" transform="matrix(-1,0,0,-1,895.8447,634.5746)">
<g class="BoundaryPolygon" fill="none" stroke="none">
<polygon points="0.00,0.00 50.18,0.00 50.18,60.00 0.00,60.00 "/>
</g>
<g class="InnerPolygon">
<polygon points="2.00,2.00 48.51,2.00 48.51,58.00 2.00,58.00 "/>
</g>
<g class="OuterCircle">
<circle cx="13.382339783253046" cy="16" r="8"/>
<circle cx="36.80143440394588" cy="16" r="8"/>
<circle cx="13.382339783253046" cy="44" r="8"/>
<circle cx="36.80143440394588" cy="44" r="8"/>
</g>
<g class="Direction" fill-opacity="0.9" style="display: none;">
<polygon fill="#444444" points="26.77,55.20 26.77,44.58 23.76,44.58 23.76,55.20 19.96,55.20 25.26,60.00 30.57,55.20 26.77,55.20 "/>
</g>
<g class="Name" fill-opacity="0.9" style="display: none;">

</g>
<desc>Width:60 Height:90 Depth:30 Elevation:0</desc>
</g><g class="FixedFurniture DoubleSink" fill="#ffffff" stroke="#000000" style="fill-opacity: 1; stroke-opacity: 1;" transform="matrix(-1,0,0,-1,845.6609,634.5746)">
<g class="BoundaryPolygon" fill="none" stroke="none">
<polygon points="0.00,0.00 60.22,0.00 60.22,60.00 0.00,60.00 "/>
</g>
<g class="InnerPolygonLeft">
<polygon points="4.30,9.90 28.82,9.90 28.82,54.90 4.30,54.90 "/>
</g>
<g class="InnerPolygonRight">
<polygon points="31.40,10.00 55.92,10.00 55.92,55.00 31.40,55.00 "/>
</g>
<g class="OuterDrain" stroke-width="0.8">
<circle cx="16.948605736242122" cy="32.5" r="3.5"/>
<circle cx="43.18883289133779" cy="32.5" r="3.5"/>
</g>
<g class="InnerDrain" stroke-width="0.8">
<circle cx="16.948605736242122" cy="32.5" r="2"/>
<circle cx="43.18883289133779" cy="32.5" r="2"/>
</g>
<g class="Faucet">
<polygon points="27.53,4.90 33.53,4.90 33.53,18.90 27.53,18.90 "/>
</g>
<g class="Direction" fill-opacity="0.9" style="display: none;">
<polygon fill="#444444" points="31.41,54.70 31.41,44.08 28.40,44.08 28.40,54.70 24.60,54.70 29.90,60.00 35.20,54.70 31.41,54.70 "/>
</g>
<g class="Name" fill-opacity="0.9" style="display: none;">

</g>
<desc>Width:70 Height:90 Depth:60 Elevation:0</desc>
</g><g class="FixedFurniture ElectricalAppliance Refrigerator" fill="#ffffff" stroke="#000000" style="fill-opacity: 1; stroke-opacity: 1;" transform="matrix(0.8534,0,0,0.9134,682.7772,423.4633)">
<g class="BoundaryPolygon">
<polygon points="0,0 60,0 60,60 0,60"/>
</g>
<g class="electricitySign" fill="none">
<path d="M0,0,30,37.1v-18L60,56.3"/>
</g>
<g class="Doors">
<rect height="4" width="60" y="56"/>
</g>
<g class="Direction" fill-opacity="0.9" style="display: none;">
<polygon fill="#444444" points="32.009 55.197 32.009 44.581 29 44.581 29 55.197 25.197 55.197 30.5 60 35.803 55.197 32.009 55.197"/>
</g>
<g class="Name" fill-opacity="0.9" style="display: none;">

</g>
<desc>Width:60 Height:170 Depth:60 Elevation:0</desc>
</g><g class="FixedFurniture Toilet" fill="#ffffff" stroke="#000000" style="fill-opacity: 1; stroke-opacity: 1;" transform="matrix(0,-1,1,0,428.525,508.6862)">
<g class="BoundaryPolygon" fill="none" stroke="none">
<polygon points="0,0 41,0 41,71 0,71"/>
</g>
<g class="InnerPolygon">
<rect height="17.98" width="39.989" x="0.502" y="0.5"/>
<path d="M40.491,44.237S41.619,70.5,20.907,70.5C-.523,70.5.6,44.237.6,44.237L.5,18.48H40.491Z"/>
<rect height="3.03" width="6.357" x="17.318" y="7.975"/>
</g>
<desc>Width:41 Height:85 Depth:71 Elevation:0</desc>
</g><g class="FixedFurniture Shower" fill="#ffffff" stroke="#000000" style="fill-opacity: 1; stroke-opacity: 1;" transform="matrix(-1,0,0,-1,504.0981,635.01)">
<g class="BoundaryPolygon" fill="none" stroke="none">
<polygon points="0,0 32,0 32,19 0,19"/>
</g>
<g class="InnerPolygon">
<rect height="6.1" width="11.2" x="3.7" y="0.5"/>
<rect height="6.1" width="11.2" x="17.6" y="0.5"/>
<rect height="6.1" width="3.4" x="28.7" y="0.5"/>
<rect height="6.1" width="3.2" x="0.5" y="0.5"/>
<path d="M14.9,8.5c0,1.5-0.4,3.3-1.6,5    c-0.4,0.6-1,1.1-1.1,1.7c-0.2,1.1,0.3,2.8,2.5,3.2c0.5,0.1,1.3,0.1,1.6,0.1h-0.1c0.3,0,1.1,0,1.6-0.1c2.2-0.4,2.7-2.1,2.5-3.2    c-0.1-0.6-0.7-1.1-1.1-1.7c-1.2-1.7-1.6-3.5-1.6-5"/>
<path d="M12.2,15.3c0.1,0.2,1.6,1.9,4.2,1.9 c2.4-0.1,3.7-1.7,3.9-1.9"/>
<path d="M14.9,0.5h2.7v8c-0.9,0-1.8,0-2.7,0l0,0 C14.9,5.9,14.9,3.2,14.9,0.5z"/>
</g>
<g class="Indicator">
<path d="M3.7,3.6C5,3.1,5.2,3,5.2,3 c0,1.1,0,0,0,1.1C5.2,4.1,5.1,4.1,3.7,3.6"/>
<path d="M28.7,3.6 C27.4,3.1,27.2,3,27.2,3c0,1.1,0,0,0,1.1C27.2,4.1,27.3,4.1,28.7,3.6"/>
</g>
<desc>Width:32 Height:97 Depth:19 Elevation:135</desc>
</g><g class="FixedFurniture Closet" fill="#ffffff" stroke="#000000" style="fill-opacity: 1; stroke-opacity: 1;" transform="matrix(0,1,-1,0,510.0337,88.1368)">
<g class="BoundaryPolygon">
<polygon points="0.00,0.00 172.23,0.00 172.23,60.00 0.00,60.00 "/>
</g>
<g class="Direction" fill-opacity="0.9" style="display: none;">
<polygon fill="#444444" points="88.28,54.52 88.28,43.90 85.27,43.90 85.27,54.52 81.47,54.52 86.77,59.82 92.08,54.52 88.28,54.52 "/>
</g>
<g class="Name" fill-opacity="0.9" style="display: none;">

</g>
<desc>Width:120 Height:200 Depth:60 Elevation:0</desc>
</g><g class="FixedFurniture Closet" fill="#ffffff" stroke="#000000" style="fill-opacity: 1; stroke-opacity: 1;" transform="matrix(0,-1,1,0,510.0337,314.4069)">
<g class="BoundaryPolygon">
<polygon points="0.00,0.00 226.27,0.00 226.27,60.00 0.00,60.00 "/>
</g>
<g class="Direction" fill-opacity="0.9" style="display: none;">
<polygon fill="#444444" points="115.98,54.52 115.98,43.90 112.97,43.90 112.97,54.52 109.17,54.52 114.47,59.82 119.78,54.52 115.98,54.52 "/>
</g>
<g class="Name" fill-opacity="0.9" style="display: none;">

</g>
<desc>Width:120 Height:200 Depth:60 Elevation:0</desc>
</g></g></g></g></svg>