<?xml version="1.0" encoding="utf-8"?>
<svg height="926.6500091552734" id="temp" version="1.1" viewBox="0 0 812.4899673461914 926.6500091552734" width="812.4899673461914" xmlns="http://www.w3.org/2000/svg" xmlns:xlink="http://www.w3.org/1999/xlink"><defs/><g class="Model v1-1" id="Model"><g class="Floor"><g class="Floorplan Floor-1" id="Floor-1"><g class="Space Outdoor" fill="#ffffff" id="3afce479-2087-468b-a26a-c084a85db5ef" stroke="#000000" style="fill-opacity: 1; stroke-opacity: 1; stroke-width: 1;"><polygon points="610.27,78.33 803.49,78.33 803.49,325.14 771.65,325.14 771.65,317.21 610.27,317.21 610.27,78.33 610.27,78.33 "/><g class="Dimension" transform="matrix(1,0,0,1,610.2688,78.3271)"><g class="Visual" style="display: none;" transform="matrix(1,0,0,1,0,0)"><g class="DimensionMark" fill="#000000" id="mark1" stroke="none" style="fill-opacity: 1; pointer-events: visible;" transform="matrix(1,0,0,1,96.6081,0)"><polygon points="-5,5,0,0,5,5"/></g><g class="DimensionMark" fill="#000000" id="mark2" stroke="none" style="fill-opacity: 1; pointer-events: visible;" transform="matrix(1,0,0,1,193.2162,123.4086)"><polygon points="-5,-5,0,0,-5,5"/></g><g class="DimensionMark" fill="#000000" id="mark3" stroke="none" style="fill-opacity: 1; pointer-events: visible;" transform="matrix(1,0,0,1,96.6081,238.881)"><polygon points="-5,-5,0,0,5,-5"/></g><g class="DimensionMark" fill="#000000" id="mark4" stroke="none" style="fill-opacity: 1; pointer-events: visible;" transform="matrix(1,0,0,1,0,123.4086)"><polygon points="5,5,0,0,5,-5"/></g></g><g class="SpaceDimensionsLabel" transform="matrix(1,0,0,1,23.529,121.4479)"><g class="TextLabel NameLabel" id="NameLabel" style="display: block;"/><g class="TextLabel DimensionMeasureLabel" id="DimensionMeasureLabel" style="display: none;" transform="matrix(1,0,0,1,-56.75,79.5938)"/></g></g></g><g class="Space Undefined" fill="#ffffff" id="539753d3-59f5-41c3-bbe0-60b416780922" stroke="#ffffff" style="fill-opacity: 1; stroke-opacity: 1; stroke-width: 1;"><polygon points="397.25,339.20 397.25,367.20 429.31,367.20 429.31,339.20 588.27,339.21 749.65,339.21 749.65,664.41 403.22,664.41 403.22,789.94 132.92,789.94 132.92,674.38 294.86,674.39 294.86,339.19 "/><g class="Dimension" transform="matrix(1,0,0,1,132.9151,339.1994)"><g class="Visual" style="display: none;" transform="matrix(1,0,0,1,0,0)"><g class="DimensionMark" fill="#000000" id="mark1" stroke="none" style="fill-opacity: 1; pointer-events: visible;" transform="matrix(1,0,0,1,270.3036,0)"><polygon points="-5,5,0,0,5,5"/></g><g class="DimensionMark" fill="#000000" id="mark2" stroke="none" style="fill-opacity: 1; pointer-events: visible;" transform="matrix(1,0,0,1,616.7305,335.1792)"><polygon points="-5,-5,0,0,-5,5"/></g><g class="DimensionMark" fill="#000000" id="mark3" stroke="none" style="fill-opacity: 1; pointer-events: visible;" transform="matrix(1,0,0,1,270.3036,450.7429)"><polygon points="-5,-5,0,0,5,-5"/></g><g class="DimensionMark" fill="#000000" id="mark4" stroke="none" style="fill-opacity: 1; pointer-events: visible;" transform="matrix(1,0,0,1,0,335.1792)"><polygon points="5,5,0,0,5,-5"/></g></g><g class="SpaceDimensionsLabel" transform="matrix(1,0,0,1,387.8048,162.4204)"><g class="TextLabel NameLabel" id="NameLabel" style="display: block;"/><g class="TextLabel DimensionMeasureLabel" id="DimensionMeasureLabel" style="display: none;" transform="matrix(1,0,0,1,-40.5235,80.8594)"/></g></g></g><g class="Space Undefined" fill="#ffffff" id="d91adbc4-3ac2-4825-aa94-b6a7ab984928" stroke="#ffffff" style="fill-opacity: 1; stroke-opacity: 1; stroke-width: 1;"><polygon points="588.27,330.18 240.63,330.19 240.63,91.33 588.27,91.33 "/><g class="Dimension" transform="matrix(1,0,0,1,240.6271,91.3271)"><g class="Visual" style="display: none;" transform="matrix(1,0,0,1,0,0)"><g class="DimensionMark" fill="#000000" id="mark1" stroke="none" style="fill-opacity: 1; pointer-events: visible;" transform="matrix(1,0,0,1,173.8209,0)"><polygon points="-5,5,0,0,5,5"/></g><g class="DimensionMark" fill="#000000" id="mark2" stroke="none" style="fill-opacity: 1; pointer-events: visible;" transform="matrix(1,0,0,1,347.6417,119.4303)"><polygon points="-5,-5,0,0,-5,5"/></g><g class="DimensionMark" fill="#000000" id="mark3" stroke="none" style="fill-opacity: 1; pointer-events: visible;" transform="matrix(1,0,0,1,173.8209,238.8574)"><polygon points="-5,-5,0,0,5,-5"/></g><g class="DimensionMark" fill="#000000" id="mark4" stroke="none" style="fill-opacity: 1; pointer-events: visible;" transform="matrix(1,0,0,1,0,119.4303)"><polygon points="5,5,0,0,5,-5"/></g></g><g class="SpaceDimensionsLabel" transform="matrix(1,0,0,1,173.82,119.4287)"><g class="TextLabel NameLabel" id="NameLabel" style="display: block;"/><g class="TextLabel DimensionMeasureLabel" id="DimensionMeasureLabel" style="display: none;" transform="matrix(1,0,0,1,-40.5235,80.8594)"/></g></g></g><g class="Space Undefined" fill="#ffffff" id="4ff767b1-6b75-4eb2-b41e-d1892073d53e" stroke="#ffffff" style="fill-opacity: 1; stroke-opacity: 1; stroke-width: 1;"><polygon points="749.65,904.65 494.29,904.65 412.22,826.62 412.22,673.41 749.65,673.41 "/><g class="Dimension" transform="matrix(1,0,0,1,412.2186,673.4118)"><g class="Visual" style="display: none;" transform="matrix(1,0,0,1,0,0)"><g class="DimensionMark" fill="#000000" id="mark1" stroke="none" style="fill-opacity: 1; pointer-events: visible;" transform="matrix(1,0,0,1,168.7135,0)"><polygon points="-5,5,0,0,5,5"/></g><g class="DimensionMark" fill="#000000" id="mark2" stroke="none" style="fill-opacity: 1; pointer-events: visible;" transform="matrix(1,0,0,1,337.427,115.6168)"><polygon points="-5,-5,0,0,-5,5"/></g><g class="DimensionMark" fill="#000000" id="mark3" stroke="none" style="fill-opacity: 1; pointer-events: visible;" transform="matrix(1,0,0,1,168.7135,231.2336)"><polygon points="-5,-5,0,0,5,-5"/></g><g class="DimensionMark" fill="#000000" id="mark4" stroke="none" style="fill-opacity: 1; pointer-events: visible;" transform="matrix(1,0,0,1,0,115.6168)"><polygon points="5,5,0,0,5,-5"/></g></g><g class="SpaceDimensionsLabel" transform="matrix(1,0,0,1,130.5205,116.0685)"><g class="TextLabel NameLabel" id="NameLabel" style="display: block;"/><g class="TextLabel DimensionMeasureLabel" id="DimensionMeasureLabel" style="display: none;" transform="matrix(1,0,0,1,-40.5235,80.8594)"/></g></g></g><g class="Space Undefined" fill="#ffffff" id="56a579db-dc0d-40bb-aaea-c88bc5b9ba5c" stroke="#ffffff" style="fill-opacity: 1; stroke-opacity: 1; stroke-width: 1;"><polygon points="287.86,339.19 287.86,484.61 132.13,484.58 132.13,491.58 287.86,491.61 287.86,667.39 132.92,667.38 131.92,339.18 "/><g class="Dimension" transform="matrix(1,0,0,1,132.4151,339.186)"><g class="Visual" style="display: none;" transform="matrix(1,0,0,1,0,0)"><g class="DimensionMark" fill="#000000" id="mark1" stroke="none" style="fill-opacity: 1; pointer-events: visible;" transform="matrix(1,0,0,1,77.472,0)"><polygon points="-5,5,0,0,5,5"/></g><g class="DimensionMark" fill="#000000" id="mark2" stroke="none" style="fill-opacity: 1; pointer-events: visible;" transform="matrix(1,0,0,1,155.444,164.0987)"><polygon points="-5,-5,0,0,-5,5"/></g><g class="DimensionMark" fill="#000000" id="mark3" stroke="none" style="fill-opacity: 1; pointer-events: visible;" transform="matrix(1,0,0,1,77.472,328.1988)"><polygon points="-5,-5,0,0,5,-5"/></g><g class="DimensionMark" fill="#000000" id="mark4" stroke="none" style="fill-opacity: 1; pointer-events: visible;" transform="matrix(1,0,0,1,0,164.0987)"><polygon points="5,5,0,0,5,-5"/></g></g><g class="SpaceDimensionsLabel" transform="matrix(1,0,0,1,78.0811,240.612)"><g class="TextLabel NameLabel" id="NameLabel" style="display: block;"/><g class="TextLabel DimensionMeasureLabel" id="DimensionMeasureLabel" style="display: none;" transform="matrix(1,0,0,1,-40.5235,80.8594)"/></g></g></g><g class="Space Undefined" fill="#ffffff" id="81ee3ebe-c7be-49f4-8040-ee9189acbd3c" stroke="#ffffff" style="fill-opacity: 1; stroke-opacity: 1; stroke-width: 1;"><polygon points="231.63,330.18 176.22,330.18 176.22,280.18 131.92,280.18 131.08,91.33 231.63,91.33 "/><g class="Dimension" transform="matrix(1,0,0,1,131.6075,91.3271)"><g class="Visual" style="display: none;" transform="matrix(1,0,0,1,0,0)"><g class="DimensionMark" fill="#000000" id="mark1" stroke="none" style="fill-opacity: 1; pointer-events: visible;" transform="matrix(1,0,0,1,49.7453,0)"><polygon points="-5,5,0,0,5,5"/></g><g class="DimensionMark" fill="#000000" id="mark2" stroke="none" style="fill-opacity: 1; pointer-events: visible;" transform="matrix(1,0,0,1,100.0195,119.4247)"><polygon points="-5,-5,0,0,-5,5"/></g><g class="DimensionMark" fill="#000000" id="mark3" stroke="none" style="fill-opacity: 1; pointer-events: visible;" transform="matrix(1,0,0,1,49.7453,238.8542)"><polygon points="-5,-5,0,0,5,-5"/></g><g class="DimensionMark" fill="#000000" id="mark4" stroke="none" style="fill-opacity: 1; pointer-events: visible;" transform="matrix(1,0,0,1,0,119.4247)"><polygon points="5,5,0,0,5,-5"/></g></g><g class="SpaceDimensionsLabel" transform="matrix(1,0,0,1,49.7452,50.2743)"><g class="TextLabel NameLabel" id="NameLabel" style="display: block;"/><g class="TextLabel DimensionMeasureLabel" id="DimensionMeasureLabel" style="display: none;" transform="matrix(1,0,0,1,-40.5235,80.8594)"/></g></g></g><g class="Space Undefined" fill="#ffffff" id="d74b6aa4-5575-45c1-a98f-13d7b3f7eac7" stroke="#ffffff" style="fill-opacity: 1; stroke-opacity: 1; stroke-width: 1;"><polygon points="403.22,890.64 412.22,890.64 412.22,904.65 338.94,904.65 338.94,872.65 282.90,872.65 282.90,796.94 403.22,796.94 "/><g class="Dimension" transform="matrix(1,0,0,1,282.8959,796.9424)"><g class="Visual" style="display: none;" transform="matrix(1,0,0,1,0,0)"><g class="DimensionMark" fill="#000000" id="mark1" stroke="none" style="fill-opacity: 1; pointer-events: visible;" transform="matrix(1,0,0,1,64.6614,0)"><polygon points="-5,5,0,0,5,5"/></g><g class="DimensionMark" fill="#000000" id="mark2" stroke="none" style="fill-opacity: 1; pointer-events: visible;" transform="matrix(1,0,0,1,120.3227,53.8516)"><polygon points="-5,-5,0,0,-5,5"/></g><g class="DimensionMark" fill="#000000" id="mark3" stroke="none" style="fill-opacity: 1; pointer-events: visible;" transform="matrix(1,0,0,1,64.6614,107.7031)"><polygon points="-5,-5,0,0,5,-5"/></g><g class="DimensionMark" fill="#000000" id="mark4" stroke="none" style="fill-opacity: 1; pointer-events: visible;" transform="matrix(1,0,0,1,0,53.8516)"><polygon points="5,5,0,0,5,-5"/></g></g><g class="SpaceDimensionsLabel" transform="matrix(1,0,0,1,78.253,41.2301)"><g class="TextLabel NameLabel" id="NameLabel" style="display: block;"/><g class="TextLabel DimensionMeasureLabel" id="DimensionMeasureLabel" style="display: none;" transform="matrix(1,0,0,1,-40.5235,80.8594)"/></g></g></g><g class="Wall External" fill="#000000" id="Wall" stroke="#000000" style="fill-opacity: 1; stroke-opacity: 1; stroke-width: 1;"><polygon points="110.97,811.94 260.90,811.94 282.90,789.94 132.92,789.94 "/><g class="Door Swing Opposite" fill="#ffffff" id="Door" stroke="#000000" style="fill-opacity: 1; stroke-width: 1; stroke-opacity: 1;"><polygon points="187.14,811.94 256.07,811.94 256.07,789.94 187.14,789.94 "/><g class="Panel Left Negative" fill="none" id="Panel" style=""><g class="PanelArea" fill="none" id="PanelArea" stroke="none" style=""><polygon points="187.14,811.94 256.07,811.94 256.07,789.94 187.14,789.94 "/></g><path d="M187.14,811.94 q0.00,68.93 68.93,68.93 l0.00,-68.93Z"/></g><g class="Panel Left Positive" fill="none" id="Panel" style=""><g class="PanelArea" fill="none" id="PanelArea" stroke="none" style=""><polygon points="187.14,811.94 256.07,811.94 256.07,789.94 187.14,789.94 "/></g><path d="M256.07,789.94 q0.00,-68.93 -68.93,-68.93 l0.00,68.93Z"/></g></g></g><g class="Wall External" fill="#000000" id="Wall" stroke="#000000" style="fill-opacity: 1; stroke-opacity: 1; stroke-width: 1;"><polygon points="260.90,811.94 260.90,926.65 282.90,904.65 282.90,789.94 "/></g><g class="Wall External" fill="#000000" id="Wall" stroke="#000000" style="fill-opacity: 1; stroke-opacity: 1; stroke-width: 1;"><polygon points="260.90,926.65 771.65,926.65 749.65,904.65 282.90,904.65 "/></g><g class="Wall External" fill="#000000" id="Wall" stroke="#000000" style="fill-opacity: 1; stroke-opacity: 1; stroke-width: 1;"><polygon points="771.65,926.65 771.65,317.21 749.65,339.21 749.65,904.65 "/><g class="Window Regular" fill="#f0f0ff" id="Window" stroke="#000000" style="fill-opacity: 1; stroke-width: 1; stroke-opacity: 1;"><polygon points="771.65,818.52 771.65,700.79 749.65,700.79 749.65,818.52 "/><g class="Glass" id="Glass"><polygon points="771.65,818.52 771.65,700.79 749.65,700.79 749.65,818.52 "/></g><g class="Panel" id="Panel"><line x1="760.6456101772819" x2="760.6456101772819" y1="811.0174243262701" y2="708.2884305263867"/><line x1="771.6456101772819" x2="749.6456101772819" y1="811.0174243262701" y2="811.0174243262701"/><line x1="771.6456101772819" x2="749.6456101772819" y1="708.2884305263867" y2="708.2884305263867"/></g></g><g class="Window Regular" fill="#f0f0ff" id="Window" stroke="#000000" style="fill-opacity: 1; stroke-width: 1; stroke-opacity: 1;"><polygon points="771.65,595.16 771.65,418.96 749.65,418.96 749.65,595.16 "/><g class="Glass" id="Glass"><polygon points="771.65,595.16 771.65,418.96 749.65,418.96 749.65,595.16 "/></g><g class="Panel" id="Panel"><line x1="760.6456101772818" x2="760.6456101772818" y1="587.6637365568146" y2="426.458977011981"/><line x1="771.6456101772818" x2="749.6456101772818" y1="587.6637365568146" y2="587.6637365568146"/><line x1="771.6456101772818" x2="749.6456101772818" y1="426.458977011981" y2="426.458977011981"/></g></g></g><g class="Wall External" fill="#000000" id="Wall" stroke="#000000" style="fill-opacity: 1; stroke-opacity: 1; stroke-width: 1;"><polygon points="771.65,317.21 610.27,317.21 588.27,339.21 749.65,339.21 "/><g class="Door Swing Opposite" fill="#ffffff" id="Door" stroke="#000000" style="fill-opacity: 1; stroke-width: 1; stroke-opacity: 1;"><polygon points="710.07,317.21 642.74,317.21 642.74,339.21 710.07,339.21 "/><g class="Panel Left Negative" fill="none" id="Panel" style=""><g class="PanelArea" fill="none" id="PanelArea" stroke="none" style=""><polygon points="710.07,317.21 642.74,317.21 642.74,339.21 710.07,339.21 "/></g><path d="M710.07,317.21 q0.00,-67.32 -67.32,-67.32 l0.00,67.32Z"/></g><g class="Panel Left Positive" fill="none" id="Panel" style=""><g class="PanelArea" fill="none" id="PanelArea" stroke="none" style=""><polygon points="710.07,317.21 642.74,317.21 642.74,339.21 710.07,339.21 "/></g><path d="M642.74,339.21 q0.00,67.32 67.32,67.32 l0.00,-67.32Z"/></g></g></g><g class="Wall External" fill="#000000" id="Wall" stroke="#000000" style="fill-opacity: 1; stroke-opacity: 1; stroke-width: 1;"><polygon points="588.27,339.21 588.27,91.33 610.27,69.33 610.27,317.21 "/><g class="Window Regular" fill="#f0f0ff" id="Window" stroke="#000000" style="fill-opacity: 1; stroke-width: 1; stroke-opacity: 1;"><polygon points="588.27,246.93 588.27,128.07 610.27,128.07 610.27,246.93 "/><g class="Glass" id="Glass"><polygon points="588.27,246.93 588.27,128.07 610.27,128.07 610.27,246.93 "/></g><g class="Panel" id="Panel"><line x1="599.2687901030783" x2="599.2687901030783" y1="239.4314861212705" y2="135.56922502083654"/><line x1="588.2687901030783" x2="610.2687901030783" y1="239.4314861212705" y2="239.4314861212705"/><line x1="588.2687901030783" x2="610.2687901030783" y1="135.56922502083654" y2="135.56922502083654"/></g></g></g><g class="Wall External" fill="#000000" id="Wall" stroke="#000000" style="fill-opacity: 1; stroke-opacity: 1; stroke-width: 1;"><polygon points="610.27,69.33 109.02,69.33 131.08,91.33 588.27,91.33 "/></g><g class="Wall External" fill="#000000" id="Wall" stroke="#000000" style="fill-opacity: 1; stroke-opacity: 1; stroke-width: 1;"><polygon points="109.02,69.33 110.97,811.94 132.92,789.94 131.08,91.33 "/></g><g class="Wall" fill="#000000" id="Wall" stroke="#000000" style="fill-opacity: 1; stroke-opacity: 1; stroke-width: 1;"><polygon points="588.27,339.21 131.73,339.18 131.73,330.18 588.27,330.21 "/><g class="Door Swing Beside" fill="#ffffff" id="Door" stroke="#000000" style="fill-opacity: 1; stroke-width: 1; stroke-opacity: 1;"><polygon points="583.42,339.21 519.45,339.20 519.45,330.20 583.42,330.21 "/><g class="Panel Left Positive" fill="none" id="Panel" style=""><g class="PanelArea" fill="none" id="PanelArea" stroke="none" style=""><polygon points="583.42,339.21 519.45,339.20 519.45,330.20 583.42,330.21 "/></g><path d="M519.45,330.20 q0.00,-63.97 63.97,-63.97 l-0.00,63.97Z"/></g></g></g><g class="Wall" fill="#000000" id="Wall" stroke="#000000" style="fill-opacity: 1; stroke-opacity: 1; stroke-width: 1;"><polygon points="240.63,330.19 240.63,69.33 231.63,69.33 231.63,330.19 "/><g class="Door Swing Beside" fill="#ffffff" id="Door" stroke="#000000" style="fill-opacity: 1; stroke-width: 1; stroke-opacity: 1;"><polygon points="240.63,151.90 240.63,96.36 231.63,96.36 231.63,151.90 "/><g class="Panel Left Negative" fill="none" id="Panel" style=""><g class="PanelArea" fill="none" id="PanelArea" stroke="none" style=""><polygon points="240.63,151.90 240.63,96.36 231.63,96.36 231.63,151.90 "/></g><path d="M240.63,151.90 q55.54,0.00 55.54,-55.54 l-55.54,0.00Z"/></g></g></g><g class="Wall" fill="#000000" id="Wall" stroke="#000000" style="fill-opacity: 1; stroke-opacity: 1; stroke-width: 1;"><polygon points="131.71,330.18 176.22,330.18 176.22,280.18 131.71,280.18 "/></g><g class="Wall" fill="#000000" id="Wall" stroke="#000000" style="fill-opacity: 1; stroke-opacity: 1; stroke-width: 1;"><polygon points="294.86,339.19 294.86,674.39 287.86,667.39 287.86,339.19 "/></g><g class="Wall" fill="#000000" id="Wall" stroke="#000000" style="fill-opacity: 1; stroke-opacity: 1; stroke-width: 1;"><polygon points="294.86,674.39 132.61,674.38 132.61,667.38 287.86,667.39 "/><g class="Door Swing Beside" fill="#ffffff" id="Door" stroke="#000000" style="fill-opacity: 1; stroke-width: 1; stroke-opacity: 1;"><polygon points="243.87,674.39 187.55,674.38 187.55,667.38 243.87,667.39 "/><g class="Panel Left Negative" fill="none" id="Panel" style=""><g class="PanelArea" fill="none" id="PanelArea" stroke="none" style=""><polygon points="243.87,674.39 187.55,674.38 187.55,667.38 243.87,667.39 "/></g><path d="M243.87,674.39 q-0.00,56.32 -56.32,56.31 l0.00,-56.32Z"/></g></g></g><g class="Wall" fill="#000000" id="Wall" stroke="#000000" style="fill-opacity: 1; stroke-opacity: 1; stroke-width: 1;"><polygon points="287.86,491.61 132.13,491.58 132.13,484.58 287.86,484.61 "/><g class="Door Swing Beside" fill="#ffffff" id="Door" stroke="#000000" style="fill-opacity: 1; stroke-width: 1; stroke-opacity: 1;"><polygon points="266.33,491.61 216.88,491.60 216.88,484.60 266.33,484.61 "/><g class="Panel Left Negative" fill="none" id="Panel" style=""><g class="PanelArea" fill="none" id="PanelArea" stroke="none" style=""><polygon points="266.33,491.61 216.88,491.60 216.88,484.60 266.33,484.61 "/></g><path d="M266.33,491.61 q-0.01,49.45 -49.46,49.45 l0.01,-49.45Z"/></g></g></g><g class="Wall" fill="#000000" id="Wall" stroke="#000000" style="fill-opacity: 1; stroke-opacity: 1; stroke-width: 1;"><polygon points="282.90,789.94 412.22,789.94 403.22,796.94 282.90,796.94 "/><g class="Door Swing Beside" fill="#ffffff" id="Door" stroke="#000000" style="fill-opacity: 1; stroke-width: 1; stroke-opacity: 1;"><polygon points="347.79,789.94 397.48,789.94 397.48,796.94 347.79,796.94 "/><g class="Panel Left Negative" fill="none" id="Panel" style=""><g class="PanelArea" fill="none" id="PanelArea" stroke="none" style=""><polygon points="347.79,789.94 397.48,789.94 397.48,796.94 347.79,796.94 "/></g><path d="M347.79,789.94 q0.00,-49.69 49.69,-49.69 l0.00,49.69Z"/></g></g></g><g class="Wall" fill="#000000" id="Wall" stroke="#000000" style="fill-opacity: 1; stroke-opacity: 1; stroke-width: 1;"><polygon points="412.22,796.94 412.22,673.41 403.22,664.41 403.22,796.94 "/><g class="Door Swing Beside" fill="#ffffff" id="Door" stroke="#000000" style="fill-opacity: 1; stroke-width: 1; stroke-opacity: 1;"><polygon points="412.22,743.16 412.22,680.39 403.22,680.39 403.22,743.16 "/><g class="Panel Left Negative" fill="none" id="Panel" style=""><g class="PanelArea" fill="none" id="PanelArea" stroke="none" style=""><polygon points="412.22,743.16 412.22,680.39 403.22,680.39 403.22,743.16 "/></g><path d="M412.22,743.16 q62.77,0.00 62.77,-62.77 l-62.77,0.00Z"/></g></g></g><g class="Wall" fill="#000000" id="Wall" stroke="#000000" style="fill-opacity: 1; stroke-opacity: 1; stroke-width: 1;"><polygon points="403.22,664.41 749.65,664.41 749.65,673.41 412.22,673.41 "/></g><g class="Wall" fill="#000000" id="Wall" stroke="#000000" style="fill-opacity: 1; stroke-opacity: 1; stroke-width: 1;"><polygon points="412.22,789.94 412.22,890.64 403.22,890.64 403.22,796.94 "/></g><g class="Wall" fill="#000000" id="Wall" stroke="#000000" style="fill-opacity: 1; stroke-opacity: 1; stroke-width: 1;"><polygon points="282.90,904.65 338.94,904.65 338.94,872.65 282.90,872.65 "/></g><g class="Wall" fill="#000000" id="Wall" stroke="#000000" style="fill-opacity: 1; stroke-opacity: 1; stroke-width: 1;"><polygon points="412.22,826.62 494.29,904.65 484.65,914.79 402.57,836.77 "/></g><g class="Wall" fill="#000000" id="Wall" stroke="#000000" style="fill-opacity: 1; stroke-opacity: 1; stroke-width: 1;"><polygon points="412.22,846.77 412.22,904.65 433.17,890.65 433.17,846.77 "/></g><g class="Wall" fill="#000000" id="Wall" stroke="#000000" style="fill-opacity: 1; stroke-opacity: 1; stroke-width: 1;"><polygon points="412.22,904.65 473.59,904.65 473.59,890.65 433.17,890.65 "/></g><g class="Wall" fill="#000000" id="Wall" stroke="#000000" style="fill-opacity: 1; stroke-opacity: 1; stroke-width: 1;"><polygon points="458.68,891.71 431.74,893.38 430.52,873.71 457.46,872.04 "/></g><g class="Wall" fill="#000000" id="Wall" stroke="#000000" style="fill-opacity: 1; stroke-opacity: 1; stroke-width: 1;"><polygon points="433.32,866.00 441.63,873.90 436.81,878.98 428.50,871.07 "/></g><g class="Railing" fill="#ffffff" id="Railing" stroke="#000000" style="fill-opacity: 1; stroke-opacity: 1; stroke-width: 1;"><polygon points="610.27,69.33 812.49,69.33 803.49,78.33 610.27,78.33 " style="stroke-dasharray: 202.216, 12.7279, 202.216;"/></g><g class="Railing" fill="#ffffff" id="Railing" stroke="#000000" style="fill-opacity: 1; stroke-opacity: 1; stroke-width: 1;"><polygon points="812.49,69.33 812.49,334.14 803.49,325.14 803.49,78.33 " style="stroke-dasharray: 264.817, 12.7279, 246.817, 12.7279;"/></g><g class="Railing" fill="#ffffff" id="Railing" stroke="#000000" style="fill-opacity: 1; stroke-opacity: 1; stroke-width: 1;"><polygon points="812.49,334.14 771.65,334.14 771.65,325.14 803.49,325.14 " style="stroke-dasharray: 81.6788, 12.7279;"/></g><g class="Wall" fill="#000000" id="Wall" stroke="#000000" style="fill-opacity: 1; stroke-opacity: 1; stroke-width: 1;"><polygon points="397.25,339.20 429.31,339.20 429.31,367.20 397.25,367.20 "/></g><g class="FixedFurniture Toilet" fill="#ffffff" stroke="#000000" style="fill-opacity: 1; stroke-opacity: 1;" transform="matrix(0,-0.8062,0.7232,0,282.8959,845.8837)">
<g class="BoundaryPolygon" fill="none" stroke="none">
<polygon points="0,0 41,0 41,71 0,71"/>
</g>
<g class="InnerPolygon">
<rect height="17.98" width="39.989" x="0.502" y="0.5"/>
<path d="M40.491,44.237S41.619,70.5,20.907,70.5C-.523,70.5.6,44.237.6,44.237L.5,18.48H40.491Z"/>
<rect height="3.03" width="6.357" x="17.318" y="7.975"/>
</g>
<desc>Width:41 Height:85 Depth:71 Elevation:0</desc>
</g><g class="FixedFurnitureSet" fill="#ffffff" id="FixedFurnitureSet" stroke="#000000" style="fill-opacity: 0.4; stroke-opacity: 0.4;" transform="matrix(-1,0,0,-1,394.6206,904.5673)"><g class="FixedFurniture BaseCabinet" fill="#ffffff" stroke="#000000" style="fill-opacity: 1; stroke-opacity: 1;" transform="matrix(1,0,0,1,0,0)">
<g class="BoundaryPolygon">
<polygon points="0.00,0.00 48.08,0.00 48.08,29.31 0.00,29.31 "/>
</g>
<g class="Direction" fill-opacity="0.9" style="display: none;">
<polygon fill="#444444" points="25.65,26.96 25.65,16.34 22.64,16.34 22.64,26.96 18.84,26.96 24.14,31.76 29.45,26.96 25.65,26.96 "/>
</g>
<g class="Name" fill-opacity="0.9" style="display: none;">

</g>
<desc>Width:60 Height:5 Depth:60 Elevation:105</desc>
</g><g class="FixedFurniture Sink" fill="#ffffff" stroke="#000000" style="fill-opacity: 1; stroke-opacity: 1;" transform="matrix(1,0,0,1,0,0)">
<g class="BoundaryPolygon" fill="none" stroke="none">
<polygon points="0.00,0.00 48.08,0.00 48.08,29.31 0.00,29.31 "/>
</g>
<g class="InnerPolygon">
<polygon points="4.01,9.70 44.08,9.70 44.08,26.72 4.01,26.72 "/>
</g>
<g class="OuterDrain" stroke-width="0.8">
<circle cx="24.04130986543464" cy="15.72737628262807" r="3.5"/>
</g>
<g class="InnerDrain" stroke-width="0.8">
<circle cx="24.04130986543464" cy="15.72737628262807" r="2"/>
</g>
<g class="Faucet">
<polygon points="21.64,2.44 27.64,2.44 27.64,16.44 21.64,16.44 "/>
</g>
<g class="Direction" fill-opacity="0.9" style="display: none;">
<polygon fill="#444444" points="25.65,26.96 25.65,16.34 22.64,16.34 22.64,26.96 18.84,26.96 24.14,31.76 29.45,26.96 25.65,26.96 "/>
</g>
<g class="Name" fill-opacity="0.9" style="display: none;">

</g>
<desc>Width:60 Height:90 Depth:60 Elevation:0</desc>
</g></g><g class="FixedFurniture Closet" fill="#ffffff" stroke="#000000" style="fill-opacity: 1; stroke-opacity: 1;" transform="matrix(0,-1,1,0,133.0025,789.9423)">
<g class="BoundaryPolygon">
<polygon points="0.00,0.00 40.53,0.00 40.53,46.31 0.00,46.31 "/>
</g>
<g class="Direction" fill-opacity="0.9" style="display: none;">
<polygon fill="#444444" points="21.29,42.22 21.29,31.60 18.28,31.60 18.28,42.22 14.47,42.22 19.78,47.52 25.08,42.22 21.29,42.22 "/>
</g>
<g class="Name" fill-opacity="0.9" style="display: none;">

</g>
<desc>Width:60 Height:200 Depth:60 Elevation:0</desc>
</g><g class="FixedFurniture CoatCloset" fill="#ffffff" stroke="#000000" style="fill-opacity: 1; stroke-opacity: 1;" transform="matrix(0,-1,1,0,132.8504,749.3321)">
<g class="BoundaryPolygon">
<polygon points="0.00,0.00 74.95,0.00 74.95,46.68 0.00,46.68 "/>
</g>

<g class="Direction" fill-opacity="0.9" style="display: none;">
<polygon fill="#444444" points="38.42,42.42 38.42,31.80 35.41,31.80 35.41,42.42 31.61,42.42 36.91,47.72 42.21,42.42 38.42,42.42 "/>
</g>
<g class="Name" fill-opacity="0.9" style="display: none;">

</g>
<desc>Width:120 Height:200 Depth:60 Elevation:0</desc>
</g><g class="FixedFurnitureSet" fill="#ffffff" id="FixedFurnitureSet" stroke="#000000" style="fill-opacity: 0.4; stroke-opacity: 0.4;" transform="matrix(0,1,-1,0,287.8434,599.5132)"><g class="FixedFurniture BaseCabinet" fill="#ffffff" stroke="#000000" style="fill-opacity: 1; stroke-opacity: 1;" transform="matrix(1,0,0,1,0,0)">
<g class="BoundaryPolygon">
<polygon points="0.00,0.00 53.02,0.00 53.02,34.34 0.00,34.34 "/>
</g>
<g class="Direction" fill-opacity="0.9" style="display: none;">
<polygon fill="#444444" points="28.28,31.59 28.28,20.98 25.27,20.98 25.27,31.59 21.47,31.59 26.77,36.40 32.08,31.59 28.28,31.59 "/>
</g>
<g class="Name" fill-opacity="0.9" style="display: none;">

</g>
<desc>Width:60 Height:5 Depth:60 Elevation:105</desc>
</g><g class="FixedFurniture Sink" fill="#ffffff" stroke="#000000" style="fill-opacity: 1; stroke-opacity: 1;" transform="matrix(1,0,0,1,0,0)">
<g class="BoundaryPolygon" fill="none" stroke="none">
<polygon points="0.00,0.00 53.02,0.00 53.02,34.34 0.00,34.34 "/>
</g>
<g class="InnerPolygon">
<polygon points="4.42,9.70 48.60,9.70 48.60,31.31 4.42,31.31 "/>
</g>
<g class="OuterDrain" stroke-width="0.8">
<circle cx="26.508103965775017" cy="18.42980208204069" r="3.5"/>
</g>
<g class="InnerDrain" stroke-width="0.8">
<circle cx="26.508103965775017" cy="18.42980208204069" r="2"/>
</g>
<g class="Faucet">
<polygon points="23.86,2.86 29.86,2.86 29.86,16.86 23.86,16.86 "/>
</g>
<g class="Direction" fill-opacity="0.9" style="display: none;">
<polygon fill="#444444" points="28.28,31.59 28.28,20.98 25.27,20.98 25.27,31.59 21.47,31.59 26.77,36.40 32.08,31.59 28.28,31.59 "/>
</g>
<g class="Name" fill-opacity="0.9" style="display: none;">

</g>
<desc>Width:60 Height:90 Depth:60 Elevation:0</desc>
</g></g><g class="FixedFurniture Shower" fill="#ffffff" stroke="#000000" style="fill-opacity: 1; stroke-opacity: 1;" transform="matrix(0,-1,1,0,132.2159,540.0004)">
<g class="BoundaryPolygon" fill="none" stroke="none">
<polygon points="0,0 32,0 32,19 0,19"/>
</g>
<g class="InnerPolygon">
<rect height="6.1" width="11.2" x="3.7" y="0.5"/>
<rect height="6.1" width="11.2" x="17.6" y="0.5"/>
<rect height="6.1" width="3.4" x="28.7" y="0.5"/>
<rect height="6.1" width="3.2" x="0.5" y="0.5"/>
<path d="M14.9,8.5c0,1.5-0.4,3.3-1.6,5    c-0.4,0.6-1,1.1-1.1,1.7c-0.2,1.1,0.3,2.8,2.5,3.2c0.5,0.1,1.3,0.1,1.6,0.1h-0.1c0.3,0,1.1,0,1.6-0.1c2.2-0.4,2.7-2.1,2.5-3.2    c-0.1-0.6-0.7-1.1-1.1-1.7c-1.2-1.7-1.6-3.5-1.6-5"/>
<path d="M12.2,15.3c0.1,0.2,1.6,1.9,4.2,1.9 c2.4-0.1,3.7-1.7,3.9-1.9"/>
<path d="M14.9,0.5h2.7v8c-0.9,0-1.8,0-2.7,0l0,0 C14.9,5.9,14.9,3.2,14.9,0.5z"/>
</g>
<g class="Indicator">
<path d="M3.7,3.6C5,3.1,5.2,3,5.2,3 c0,1.1,0,0,0,1.1C5.2,4.1,5.1,4.1,3.7,3.6"/>
<path d="M28.7,3.6 C27.4,3.1,27.2,3,27.2,3c0,1.1,0,0,0,1.1C27.2,4.1,27.3,4.1,28.7,3.6"/>
</g>
<desc>Width:32 Height:97 Depth:19 Elevation:135</desc>
</g><g class="FixedFurniture Misc" fill="none" stroke="#000000" style="fill-opacity: 1; stroke-opacity: 1; stroke-width: 1.8; stroke-dasharray: 5, 5;" transform="matrix(1,0,0,1,131.863,563.1565)"><desc>Width:120 Height:200 Depth:60 Elevation:0</desc><g class="BoundaryPolygon"><path d="M0.00,0.00 L54.48,0.00 L64.60,-4.71 L69.84,-12.75 L69.84,-71.59 "/></g></g><g class="FixedFurniture SaunaBenchHigh" fill="#ffffff" stroke="#000000" style="fill-opacity: 1; stroke-opacity: 1;" transform="matrix(1,0,0,1,131.8044,339.2171)">
<g class="BoundaryPolygon">
<polygon points="0.00,0.00 155.79,0.00 155.79,56.22 0.00,56.22 "/>
</g>

<g class="Direction" fill-opacity="0.9" style="display: none;">
<polygon fill="#444444" points="80.34,51.22 80.34,40.60 77.33,40.60 77.33,51.22 73.53,51.22 78.83,56.52 84.14,51.22 80.34,51.22 "/>
</g>
<g class="Name" fill-opacity="0.9" style="display: none;">

</g>
<desc>Width:185 Height:5 Depth:60 Elevation:105</desc>
</g><g class="FixedFurniture SaunaBenchMid" fill="#ffffff" stroke="#000000" style="fill-opacity: 1; stroke-opacity: 1;" transform="matrix(1,0,0,1,131.9369,395.4727)">
<g class="BoundaryPolygon">
<polygon points="0.00,0.00 156.54,0.00 156.54,44.78 0.00,44.78 "/>
</g>

<g class="Direction" fill-opacity="0.9" style="display: none;">
<polygon fill="#444444" points="79.55,38.80 79.55,28.18 76.54,28.18 76.54,38.80 72.74,38.80 78.04,44.10 83.34,38.80 79.55,38.80 "/>
</g>
<g class="Name" fill-opacity="0.9" style="display: none;">

</g>
<desc>Width:185 Height:5 Depth:40 Elevation:60</desc>
</g><g class="FixedFurniture SaunaBenchLow" fill="#ffffff" stroke="#000000" style="fill-opacity: 1; stroke-opacity: 1;" transform="matrix(1,0,0,1,216.7545,440.2852)">
<g class="BoundaryPolygon">
<polygon points="0.00,0.00 71.10,0.00 71.10,21.88 0.00,21.88 "/>
</g>

<g class="Direction" fill-opacity="0.9" style="display: none;">
<polygon fill="#444444" points="36.77,18.96 36.77,8.34 33.76,8.34 33.76,18.96 29.96,18.96 35.26,24.26 40.56,18.96 36.77,18.96 "/>
</g>
<g class="Name" fill-opacity="0.9" style="display: none;">

</g>
<desc>Width:91 Height:5 Depth:40 Elevation:30</desc>
</g><g class="FixedFurniture ElectricalAppliance SaunaStove" fill="#ffffff" stroke="#000000" style="fill-opacity: 1; stroke-opacity: 1;" transform="matrix(-0.7691,0,0,-0.8921,185.9775,481.2328)">
<g class="BoundaryPolygon">
<polygon points="0,0 60,0 60,35 0,35"/>
</g>
<g class="electricitySign" fill="none">
<polyline points="0 35 39.7 17.5 21.4 17.5 60 0"/>
</g>
<g class="Direction" fill-opacity="0.9" style="display: none;">
<polygon fill="#444444" points="31.509 29.697 31.509 19.081 28.5 19.081 28.5 29.697 24.697 29.697 30 35 35.303 29.697 31.509 29.697"/>
</g>
<g class="Name" fill-opacity="0.9" style="display: none;">

</g>
<desc>Width:60 Height:60 Depth:35 Elevation:20</desc>
</g><g class="FixedFurniture CoatCloset" fill="#ffffff" stroke="#000000" style="fill-opacity: 1; stroke-opacity: 1;" transform="matrix(0,-1,1,0,131.3908,280.1826)">
<g class="BoundaryPolygon">
<polygon points="0.00,0.00 187.67,0.00 187.67,43.87 0.00,43.87 "/>
</g>

<g class="Direction" fill-opacity="0.9" style="display: none;">
<polygon fill="#444444" points="96.19,39.86 96.19,29.24 93.18,29.24 93.18,39.86 89.38,39.86 94.68,45.16 99.99,39.86 96.19,39.86 "/>
</g>
<g class="Name" fill-opacity="0.9" style="display: none;">

</g>
<desc>Width:120 Height:200 Depth:60 Elevation:0</desc>
</g><g class="FixedFurniture Closet" fill="#ffffff" stroke="#000000" style="fill-opacity: 1; stroke-opacity: 1;" transform="matrix(-1,0,0,-1,232.3166,330.123)">
<g class="BoundaryPolygon">
<polygon points="0.00,0.00 56.10,0.00 56.10,32.74 0.00,32.74 "/>
</g>
<g class="Direction" fill-opacity="0.9" style="display: none;">
<polygon fill="#444444" points="29.46,29.84 29.46,19.23 26.45,19.23 26.45,29.84 22.65,29.84 27.95,35.15 33.26,29.84 29.46,29.84 "/>
</g>
<g class="Name" fill-opacity="0.9" style="display: none;">

</g>
<desc>Width:60 Height:200 Depth:60 Elevation:0</desc>
</g><g class="FixedFurniture BaseCabinet" fill="#ffffff" stroke="#000000" style="fill-opacity: 1; stroke-opacity: 1;" transform="matrix(1,0,0,1,412.3186,760.9628)"><desc>Width:60 Height:90 Depth:60 Elevation:0</desc><g class="BoundaryPolygon"><polygon points="0.00,0.00 49.36,0.00 49.36,84.27 232.88,84.27 232.88,143.50 81.98,143.65 -0.10,65.63 0.00,0.00 "/></g></g><g class="FixedFurniture DoubleSink" fill="#ffffff" stroke="#000000" style="fill-opacity: 1; stroke-opacity: 1;" transform="matrix(-1,0,0,-1,590.8451,905.2657)">
<g class="BoundaryPolygon" fill="none" stroke="none">
<polygon points="0,0 70,0 70,60 0,60"/>
</g>
<g class="InnerPolygonLeft">
<polygon points="5 9.9 33.5 9.9 33.5 54.9 5 54.9"/>
</g>
<g class="InnerPolygonRight">
<polygon points="36.5 10 65 10 65 55 36.5 55"/>
</g>
<g class="OuterDrain" stroke-width="0.8">
<circle cx="19.7" cy="32.5" r="3.5"/>
<circle cx="50.2" cy="32.5" r="3.5"/>
</g>
<g class="InnerDrain" stroke-width="0.8">
<circle cx="19.7" cy="32.5" r="2"/>
<circle cx="50.2" cy="32.5" r="2"/>
</g>
<g class="Faucet">
<polygon points="32 4.9 38 4.9 38 18.9 32 18.9"/>
</g>
<g class="Direction" fill-opacity="0.9" style="display: none;">
<polygon fill="#444444" points="36.509 54.697 36.509 44.081 33.5 44.081 33.5 54.697 29.697 54.697 35 60 40.303 54.697 36.509 54.697"/>
</g>
<g class="Name" fill-opacity="0.9" style="display: none;">

</g>
<desc>Width:70 Height:90 Depth:60 Elevation:0</desc>
</g><g class="FixedFurniture ElectricalAppliance" fill="#ffffff" stroke="#000000" style="fill-opacity: 1; stroke-opacity: 1;" transform="matrix(-0.8474,0,0,-1,696.0405,904.4892)">
<g class="BoundaryPolygon">
<polygon points="0,0 60,0 60,60 0,60"/>
</g>
<g class="electricitySign" fill="none">
<path d="M0,0,30.1,39.8V19.4L59.9,60"/>
</g>
<g class="Direction" fill-opacity="0.9" style="display: none;">
<polygon fill="#444444" points="32.009 55.197 32.009 44.581 29 44.581 29 55.197 25.197 55.197 30.5 60 35.803 55.197 32.009 55.197"/>
</g>
<g class="Name" fill-opacity="0.9" style="display: none;">

</g>
<desc>Width:60 Height:200 Depth:60 Elevation:0</desc>
</g><g class="FixedFurniture Closet" fill="#ffffff" stroke="#000000" style="fill-opacity: 1; stroke-opacity: 1;" transform="matrix(-1,0,0,-1,749.4704,904.4892)">
<g class="BoundaryPolygon">
<polygon points="0.00,0.00 53.43,0.00 53.43,60.00 0.00,60.00 "/>
</g>
<g class="Direction" fill-opacity="0.9" style="display: none;">
<polygon fill="#444444" points="28.06,54.70 28.06,44.08 25.05,44.08 25.05,54.70 21.25,54.70 26.55,60.00 31.85,54.70 28.06,54.70 "/>
</g>
<g class="Name" fill-opacity="0.9" style="display: none;">

</g>
<desc>Width:60 Height:200 Depth:60 Elevation:0</desc>
</g><g class="FixedFurniture ElectricalAppliance IntegratedStove" fill="#ffffff" stroke="#000000" style="fill-opacity: 1; stroke-opacity: 1;" transform="matrix(-0.7071,-0.7071,0.7071,-0.7071,463.7486,880.5819)">
<g class="BoundaryPolygon" fill="none" stroke="none">
<polygon points="0.00,0.00 52.39,0.00 52.39,47.63 0.00,47.63 "/>
</g>
<g class="InnerPolygon">
<polygon points="2.00,2.00 50.64,2.00 50.64,46.04 2.00,46.04 "/>
</g>
<g class="OuterCircle">
<circle cx="13.969974347545548" cy="12.701185950591855" r="8"/>
<circle cx="38.417429455750245" cy="12.701185950591855" r="8"/>
<circle cx="13.969974347545548" cy="34.92826136412763" r="8"/>
<circle cx="38.417429455750245" cy="34.92826136412763" r="8"/>
</g>
<g class="Direction" fill-opacity="0.9" style="display: none;">
<polygon fill="#444444" points="27.95,43.82 27.95,33.20 24.94,33.20 24.94,43.82 21.14,43.82 26.44,48.62 31.74,43.82 27.95,43.82 "/>
</g>
<g class="Name" fill-opacity="0.9" style="display: none;">

</g>
<desc>Width:60 Height:90 Depth:30 Elevation:0</desc>
</g><g class="SelectionControls" fill="#0000ff" stroke="#0000ff" style="display: none;"><g class="rotateControl" style="display: none;"><circle cx="717.0477901030783" cy="136.5874764811815" r="5" style="stroke : none; fill-opacity: 0.5; cursor:crosshair"/></g><g class="ResizeNControl" style="display: none;"><circle cx="0" cy="0" r="5" style="stroke : none; fill-opacity: 0.5"/></g><g class="ResizeNEControl" style="display: none;"><circle cx="0" cy="0" r="5" style="stroke : none; fill-opacity: 0.5"/></g><g class="ResizeEControl" style="display: none;"><circle cx="0" cy="0" r="5" style="stroke : none; fill-opacity: 0.5"/></g><g class="ResizeSEControl" style="display: none;"><circle cx="0" cy="0" r="5" style="stroke : none; fill-opacity: 0.5"/></g><g class="ResizeSControl" style="display: none;"><circle cx="0" cy="0" r="5" style="stroke : none; fill-opacity: 0.5"/></g><g class="ResizeSWControl" style="display: none;"><circle cx="0" cy="0" r="5" style="stroke : none; fill-opacity: 0.5"/></g><g class="ResizeWControl" style="display: none;"><circle cx="0" cy="0" r="5" style="stroke : none; fill-opacity: 0.5"/></g><g class="ResizeNWControl" style="display: none;"><circle cx="0" cy="0" r="5" style="stroke : none; fill-opacity: 0.5"/></g><g class="removeControl" style="display: none;"><polygon points="633.80,166.59 800.30,166.59 800.30,206.57 633.80,206.57 " style="stroke : none; fill-opacity: 0.1"/></g><g class="copyPasteControl" style="display: none;"><polygon style="stroke : none; fill-opacity: 0.1"/></g><g class="translateControl" style="display: none;"><polygon points="633.80,166.59 800.30,166.59 800.30,206.57 633.80,206.57 " style="stroke : none; fill-opacity: 0.1; cursor:move"/></g></g><g class="SelectionControls" fill="#0000ff" stroke="#0000ff" style="display: none;"><polygon fill="none" points="610.27,78.33 803.48,78.33 803.48,325.14 610.27,325.14 " stroke="#0000ff" style=""/><g class="rotateControl" style="display: none;"><circle cx="706.8768909941916" cy="48.32707648118151" r="5" style="stroke : none; fill-opacity: 0.5; cursor:crosshair"/></g><g class="ResizeNControl" style="display: none;"><circle cx="0" cy="0" r="5" style="stroke : none; fill-opacity: 0.5"/></g><g class="ResizeNEControl" style="display: none;"><circle cx="0" cy="0" r="5" style="stroke : none; fill-opacity: 0.5"/></g><g class="ResizeEControl" style="display: none;"><circle cx="0" cy="0" r="5" style="stroke : none; fill-opacity: 0.5"/></g><g class="ResizeSEControl" style="display: none;"><circle cx="0" cy="0" r="5" style="stroke : none; fill-opacity: 0.5"/></g><g class="ResizeSControl" style="display: none;"><circle cx="0" cy="0" r="5" style="stroke : none; fill-opacity: 0.5"/></g><g class="ResizeSWControl" style="display: none;"><circle cx="0" cy="0" r="5" style="stroke : none; fill-opacity: 0.5"/></g><g class="ResizeWControl" style="display: none;"><circle cx="0" cy="0" r="5" style="stroke : none; fill-opacity: 0.5"/></g><g class="ResizeNWControl" style="display: none;"><circle cx="0" cy="0" r="5" style="stroke : none; fill-opacity: 0.5"/></g><g class="removeControl" style="display: none;"><polygon style="stroke : none; fill-opacity: 0.1"/></g><g class="copyPasteControl" style="display: none;"><polygon style="stroke : none; fill-opacity: 0.1"/></g><g class="translateControl" style="display: none;"><polygon style="stroke : none; fill-opacity: 0.1; cursor:move"/></g></g><g class="Wall" fill="#000000" id="Wall" stroke="#000000" style="fill-opacity: 1; stroke-opacity: 1; stroke-width: 1;"><polygon points="403.22,890.64 403.22,904.65 430.22,904.65 430.22,890.64 "/></g></g></g></g></svg>